G04 #@! TF.GenerationSoftware,KiCad,Pcbnew,(5.0.2)-1*
G04 #@! TF.CreationDate,2019-05-24T01:00:46-02:30*
G04 #@! TF.ProjectId,IndicatorLEDs_PCB,496e6469-6361-4746-9f72-4c4544735f50,rev?*
G04 #@! TF.SameCoordinates,Original*
G04 #@! TF.FileFunction,Legend,Top*
G04 #@! TF.FilePolarity,Positive*
%FSLAX46Y46*%
G04 Gerber Fmt 4.6, Leading zero omitted, Abs format (unit mm)*
G04 Created by KiCad (PCBNEW (5.0.2)-1) date 5/24/2019 1:00:46 AM*
%MOMM*%
%LPD*%
G01*
G04 APERTURE LIST*
%ADD10C,0.250000*%
%ADD11C,0.150000*%
%ADD12C,0.381000*%
%ADD13C,0.050000*%
%ADD14C,0.120000*%
%ADD15C,0.254000*%
%ADD16C,0.010000*%
%ADD17C,0.100000*%
G04 APERTURE END LIST*
D10*
X93733928Y-97928571D02*
X93400595Y-97928571D01*
X93400595Y-98452380D02*
X93400595Y-97452380D01*
X93876785Y-97452380D01*
X94829166Y-98452380D02*
X94495833Y-97976190D01*
X94257738Y-98452380D02*
X94257738Y-97452380D01*
X94638690Y-97452380D01*
X94733928Y-97500000D01*
X94781547Y-97547619D01*
X94829166Y-97642857D01*
X94829166Y-97785714D01*
X94781547Y-97880952D01*
X94733928Y-97928571D01*
X94638690Y-97976190D01*
X94257738Y-97976190D01*
X95448214Y-97452380D02*
X95638690Y-97452380D01*
X95733928Y-97500000D01*
X95829166Y-97595238D01*
X95876785Y-97785714D01*
X95876785Y-98119047D01*
X95829166Y-98309523D01*
X95733928Y-98404761D01*
X95638690Y-98452380D01*
X95448214Y-98452380D01*
X95352976Y-98404761D01*
X95257738Y-98309523D01*
X95210119Y-98119047D01*
X95210119Y-97785714D01*
X95257738Y-97595238D01*
X95352976Y-97500000D01*
X95448214Y-97452380D01*
X96305357Y-98452380D02*
X96305357Y-97452380D01*
X96876785Y-98452380D01*
X96876785Y-97452380D01*
X97210119Y-97452380D02*
X97781547Y-97452380D01*
X97495833Y-98452380D02*
X97495833Y-97452380D01*
X99352976Y-98452380D02*
X98876785Y-98452380D01*
X98876785Y-97452380D01*
X99686309Y-97928571D02*
X100019642Y-97928571D01*
X100162500Y-98452380D02*
X99686309Y-98452380D01*
X99686309Y-97452380D01*
X100162500Y-97452380D01*
X100591071Y-98452380D02*
X100591071Y-97452380D01*
X100829166Y-97452380D01*
X100972023Y-97500000D01*
X101067261Y-97595238D01*
X101114880Y-97690476D01*
X101162500Y-97880952D01*
X101162500Y-98023809D01*
X101114880Y-98214285D01*
X101067261Y-98309523D01*
X100972023Y-98404761D01*
X100829166Y-98452380D01*
X100591071Y-98452380D01*
X101543452Y-98404761D02*
X101638690Y-98452380D01*
X101829166Y-98452380D01*
X101924404Y-98404761D01*
X101972023Y-98309523D01*
X101972023Y-98261904D01*
X101924404Y-98166666D01*
X101829166Y-98119047D01*
X101686309Y-98119047D01*
X101591071Y-98071428D01*
X101543452Y-97976190D01*
X101543452Y-97928571D01*
X101591071Y-97833333D01*
X101686309Y-97785714D01*
X101829166Y-97785714D01*
X101924404Y-97833333D01*
X94222023Y-111452380D02*
X93888690Y-110976190D01*
X93650595Y-111452380D02*
X93650595Y-110452380D01*
X94031547Y-110452380D01*
X94126785Y-110500000D01*
X94174404Y-110547619D01*
X94222023Y-110642857D01*
X94222023Y-110785714D01*
X94174404Y-110880952D01*
X94126785Y-110928571D01*
X94031547Y-110976190D01*
X93650595Y-110976190D01*
X94650595Y-110928571D02*
X94983928Y-110928571D01*
X95126785Y-111452380D02*
X94650595Y-111452380D01*
X94650595Y-110452380D01*
X95126785Y-110452380D01*
X95507738Y-111166666D02*
X95983928Y-111166666D01*
X95412500Y-111452380D02*
X95745833Y-110452380D01*
X96079166Y-111452380D01*
X96983928Y-111452380D02*
X96650595Y-110976190D01*
X96412500Y-111452380D02*
X96412500Y-110452380D01*
X96793452Y-110452380D01*
X96888690Y-110500000D01*
X96936309Y-110547619D01*
X96983928Y-110642857D01*
X96983928Y-110785714D01*
X96936309Y-110880952D01*
X96888690Y-110928571D01*
X96793452Y-110976190D01*
X96412500Y-110976190D01*
X98650595Y-111452380D02*
X98174404Y-111452380D01*
X98174404Y-110452380D01*
X98983928Y-110928571D02*
X99317261Y-110928571D01*
X99460119Y-111452380D02*
X98983928Y-111452380D01*
X98983928Y-110452380D01*
X99460119Y-110452380D01*
X99888690Y-111452380D02*
X99888690Y-110452380D01*
X100126785Y-110452380D01*
X100269642Y-110500000D01*
X100364880Y-110595238D01*
X100412500Y-110690476D01*
X100460119Y-110880952D01*
X100460119Y-111023809D01*
X100412500Y-111214285D01*
X100364880Y-111309523D01*
X100269642Y-111404761D01*
X100126785Y-111452380D01*
X99888690Y-111452380D01*
X100841071Y-111404761D02*
X100936309Y-111452380D01*
X101126785Y-111452380D01*
X101222023Y-111404761D01*
X101269642Y-111309523D01*
X101269642Y-111261904D01*
X101222023Y-111166666D01*
X101126785Y-111119047D01*
X100983928Y-111119047D01*
X100888690Y-111071428D01*
X100841071Y-110976190D01*
X100841071Y-110928571D01*
X100888690Y-110833333D01*
X100983928Y-110785714D01*
X101126785Y-110785714D01*
X101222023Y-110833333D01*
X93091071Y-124452380D02*
X93281547Y-124452380D01*
X93376785Y-124500000D01*
X93472023Y-124595238D01*
X93519642Y-124785714D01*
X93519642Y-125119047D01*
X93472023Y-125309523D01*
X93376785Y-125404761D01*
X93281547Y-125452380D01*
X93091071Y-125452380D01*
X92995833Y-125404761D01*
X92900595Y-125309523D01*
X92852976Y-125119047D01*
X92852976Y-124785714D01*
X92900595Y-124595238D01*
X92995833Y-124500000D01*
X93091071Y-124452380D01*
X94519642Y-125452380D02*
X94186309Y-124976190D01*
X93948214Y-125452380D02*
X93948214Y-124452380D01*
X94329166Y-124452380D01*
X94424404Y-124500000D01*
X94472023Y-124547619D01*
X94519642Y-124642857D01*
X94519642Y-124785714D01*
X94472023Y-124880952D01*
X94424404Y-124928571D01*
X94329166Y-124976190D01*
X93948214Y-124976190D01*
X94948214Y-125452380D02*
X94948214Y-124452380D01*
X95614880Y-124452380D02*
X95805357Y-124452380D01*
X95900595Y-124500000D01*
X95995833Y-124595238D01*
X96043452Y-124785714D01*
X96043452Y-125119047D01*
X95995833Y-125309523D01*
X95900595Y-125404761D01*
X95805357Y-125452380D01*
X95614880Y-125452380D01*
X95519642Y-125404761D01*
X95424404Y-125309523D01*
X95376785Y-125119047D01*
X95376785Y-124785714D01*
X95424404Y-124595238D01*
X95519642Y-124500000D01*
X95614880Y-124452380D01*
X96472023Y-125452380D02*
X96472023Y-124452380D01*
X97043452Y-125452380D01*
X97043452Y-124452380D01*
X98614880Y-124928571D02*
X98757738Y-124976190D01*
X98805357Y-125023809D01*
X98852976Y-125119047D01*
X98852976Y-125261904D01*
X98805357Y-125357142D01*
X98757738Y-125404761D01*
X98662500Y-125452380D01*
X98281547Y-125452380D01*
X98281547Y-124452380D01*
X98614880Y-124452380D01*
X98710119Y-124500000D01*
X98757738Y-124547619D01*
X98805357Y-124642857D01*
X98805357Y-124738095D01*
X98757738Y-124833333D01*
X98710119Y-124880952D01*
X98614880Y-124928571D01*
X98281547Y-124928571D01*
X99281547Y-125452380D02*
X99281547Y-124452380D01*
X99614880Y-125166666D01*
X99948214Y-124452380D01*
X99948214Y-125452380D01*
X100376785Y-125404761D02*
X100519642Y-125452380D01*
X100757738Y-125452380D01*
X100852976Y-125404761D01*
X100900595Y-125357142D01*
X100948214Y-125261904D01*
X100948214Y-125166666D01*
X100900595Y-125071428D01*
X100852976Y-125023809D01*
X100757738Y-124976190D01*
X100567261Y-124928571D01*
X100472023Y-124880952D01*
X100424404Y-124833333D01*
X100376785Y-124738095D01*
X100376785Y-124642857D01*
X100424404Y-124547619D01*
X100472023Y-124500000D01*
X100567261Y-124452380D01*
X100805357Y-124452380D01*
X100948214Y-124500000D01*
X102091071Y-125404761D02*
X102233928Y-125452380D01*
X102472023Y-125452380D01*
X102567261Y-125404761D01*
X102614880Y-125357142D01*
X102662500Y-125261904D01*
X102662500Y-125166666D01*
X102614880Y-125071428D01*
X102567261Y-125023809D01*
X102472023Y-124976190D01*
X102281547Y-124928571D01*
X102186309Y-124880952D01*
X102138690Y-124833333D01*
X102091071Y-124738095D01*
X102091071Y-124642857D01*
X102138690Y-124547619D01*
X102186309Y-124500000D01*
X102281547Y-124452380D01*
X102519642Y-124452380D01*
X102662500Y-124500000D01*
X103091071Y-125452380D02*
X103091071Y-124452380D01*
X103091071Y-124928571D02*
X103662500Y-124928571D01*
X103662500Y-125452380D02*
X103662500Y-124452380D01*
X104329166Y-124452380D02*
X104519642Y-124452380D01*
X104614880Y-124500000D01*
X104710119Y-124595238D01*
X104757738Y-124785714D01*
X104757738Y-125119047D01*
X104710119Y-125309523D01*
X104614880Y-125404761D01*
X104519642Y-125452380D01*
X104329166Y-125452380D01*
X104233928Y-125404761D01*
X104138690Y-125309523D01*
X104091071Y-125119047D01*
X104091071Y-124785714D01*
X104138690Y-124595238D01*
X104233928Y-124500000D01*
X104329166Y-124452380D01*
X105757738Y-125452380D02*
X105424404Y-124976190D01*
X105186309Y-125452380D02*
X105186309Y-124452380D01*
X105567261Y-124452380D01*
X105662500Y-124500000D01*
X105710119Y-124547619D01*
X105757738Y-124642857D01*
X105757738Y-124785714D01*
X105710119Y-124880952D01*
X105662500Y-124928571D01*
X105567261Y-124976190D01*
X105186309Y-124976190D01*
X106043452Y-124452380D02*
X106614880Y-124452380D01*
X106329166Y-125452380D02*
X106329166Y-124452380D01*
X62952380Y-127349404D02*
X61952380Y-127349404D01*
X62428571Y-127349404D02*
X62428571Y-126777976D01*
X62952380Y-126777976D02*
X61952380Y-126777976D01*
X61952380Y-126444642D02*
X62952380Y-126111309D01*
X61952380Y-125777976D01*
X62000000Y-124158928D02*
X61952380Y-124254166D01*
X61952380Y-124397023D01*
X62000000Y-124539880D01*
X62095238Y-124635119D01*
X62190476Y-124682738D01*
X62380952Y-124730357D01*
X62523809Y-124730357D01*
X62714285Y-124682738D01*
X62809523Y-124635119D01*
X62904761Y-124539880D01*
X62952380Y-124397023D01*
X62952380Y-124301785D01*
X62904761Y-124158928D01*
X62857142Y-124111309D01*
X62523809Y-124111309D01*
X62523809Y-124301785D01*
X62952380Y-123682738D02*
X61952380Y-123682738D01*
X62952380Y-123111309D01*
X61952380Y-123111309D01*
X62952380Y-122635119D02*
X61952380Y-122635119D01*
X61952380Y-122397023D01*
X62000000Y-122254166D01*
X62095238Y-122158928D01*
X62190476Y-122111309D01*
X62380952Y-122063690D01*
X62523809Y-122063690D01*
X62714285Y-122111309D01*
X62809523Y-122158928D01*
X62904761Y-122254166D01*
X62952380Y-122397023D01*
X62952380Y-122635119D01*
X60900595Y-102452380D02*
X60900595Y-101452380D01*
X60900595Y-101928571D02*
X61472023Y-101928571D01*
X61472023Y-102452380D02*
X61472023Y-101452380D01*
X61805357Y-101452380D02*
X62138690Y-102452380D01*
X62472023Y-101452380D01*
X62567261Y-102547619D02*
X63329166Y-102547619D01*
X64138690Y-102357142D02*
X64091071Y-102404761D01*
X63948214Y-102452380D01*
X63852976Y-102452380D01*
X63710119Y-102404761D01*
X63614880Y-102309523D01*
X63567261Y-102214285D01*
X63519642Y-102023809D01*
X63519642Y-101880952D01*
X63567261Y-101690476D01*
X63614880Y-101595238D01*
X63710119Y-101500000D01*
X63852976Y-101452380D01*
X63948214Y-101452380D01*
X64091071Y-101500000D01*
X64138690Y-101547619D01*
X64710119Y-102452380D02*
X64614880Y-102404761D01*
X64567261Y-102357142D01*
X64519642Y-102261904D01*
X64519642Y-101976190D01*
X64567261Y-101880952D01*
X64614880Y-101833333D01*
X64710119Y-101785714D01*
X64852976Y-101785714D01*
X64948214Y-101833333D01*
X64995833Y-101880952D01*
X65043452Y-101976190D01*
X65043452Y-102261904D01*
X64995833Y-102357142D01*
X64948214Y-102404761D01*
X64852976Y-102452380D01*
X64710119Y-102452380D01*
X65472023Y-101785714D02*
X65472023Y-102452380D01*
X65472023Y-101880952D02*
X65519642Y-101833333D01*
X65614880Y-101785714D01*
X65757738Y-101785714D01*
X65852976Y-101833333D01*
X65900595Y-101928571D01*
X65900595Y-102452380D01*
X66233928Y-101785714D02*
X66614880Y-101785714D01*
X66376785Y-101452380D02*
X66376785Y-102309523D01*
X66424404Y-102404761D01*
X66519642Y-102452380D01*
X66614880Y-102452380D01*
X67376785Y-102452380D02*
X67376785Y-101928571D01*
X67329166Y-101833333D01*
X67233928Y-101785714D01*
X67043452Y-101785714D01*
X66948214Y-101833333D01*
X67376785Y-102404761D02*
X67281547Y-102452380D01*
X67043452Y-102452380D01*
X66948214Y-102404761D01*
X66900595Y-102309523D01*
X66900595Y-102214285D01*
X66948214Y-102119047D01*
X67043452Y-102071428D01*
X67281547Y-102071428D01*
X67376785Y-102023809D01*
X68281547Y-102404761D02*
X68186309Y-102452380D01*
X67995833Y-102452380D01*
X67900595Y-102404761D01*
X67852976Y-102357142D01*
X67805357Y-102261904D01*
X67805357Y-101976190D01*
X67852976Y-101880952D01*
X67900595Y-101833333D01*
X67995833Y-101785714D01*
X68186309Y-101785714D01*
X68281547Y-101833333D01*
X68567261Y-101785714D02*
X68948214Y-101785714D01*
X68710119Y-101452380D02*
X68710119Y-102309523D01*
X68757738Y-102404761D01*
X68852976Y-102452380D01*
X68948214Y-102452380D01*
X69424404Y-102452380D02*
X69329166Y-102404761D01*
X69281547Y-102357142D01*
X69233928Y-102261904D01*
X69233928Y-101976190D01*
X69281547Y-101880952D01*
X69329166Y-101833333D01*
X69424404Y-101785714D01*
X69567261Y-101785714D01*
X69662500Y-101833333D01*
X69710119Y-101880952D01*
X69757738Y-101976190D01*
X69757738Y-102261904D01*
X69710119Y-102357142D01*
X69662500Y-102404761D01*
X69567261Y-102452380D01*
X69424404Y-102452380D01*
X70186309Y-102452380D02*
X70186309Y-101785714D01*
X70186309Y-101976190D02*
X70233928Y-101880952D01*
X70281547Y-101833333D01*
X70376785Y-101785714D01*
X70472023Y-101785714D01*
X75436309Y-134833333D02*
X75388690Y-134785714D01*
X75293452Y-134642857D01*
X75245833Y-134547619D01*
X75198214Y-134404761D01*
X75150595Y-134166666D01*
X75150595Y-133976190D01*
X75198214Y-133738095D01*
X75245833Y-133595238D01*
X75293452Y-133500000D01*
X75388690Y-133357142D01*
X75436309Y-133309523D01*
X76245833Y-134404761D02*
X76150595Y-134452380D01*
X75960119Y-134452380D01*
X75864880Y-134404761D01*
X75817261Y-134357142D01*
X75769642Y-134261904D01*
X75769642Y-133976190D01*
X75817261Y-133880952D01*
X75864880Y-133833333D01*
X75960119Y-133785714D01*
X76150595Y-133785714D01*
X76245833Y-133833333D01*
X76579166Y-134833333D02*
X76626785Y-134785714D01*
X76722023Y-134642857D01*
X76769642Y-134547619D01*
X76817261Y-134404761D01*
X76864880Y-134166666D01*
X76864880Y-133976190D01*
X76817261Y-133738095D01*
X76769642Y-133595238D01*
X76722023Y-133500000D01*
X76626785Y-133357142D01*
X76579166Y-133309523D01*
X78102976Y-134452380D02*
X78102976Y-133452380D01*
X78483928Y-133452380D01*
X78579166Y-133500000D01*
X78626785Y-133547619D01*
X78674404Y-133642857D01*
X78674404Y-133785714D01*
X78626785Y-133880952D01*
X78579166Y-133928571D01*
X78483928Y-133976190D01*
X78102976Y-133976190D01*
X79531547Y-134452380D02*
X79531547Y-133928571D01*
X79483928Y-133833333D01*
X79388690Y-133785714D01*
X79198214Y-133785714D01*
X79102976Y-133833333D01*
X79531547Y-134404761D02*
X79436309Y-134452380D01*
X79198214Y-134452380D01*
X79102976Y-134404761D01*
X79055357Y-134309523D01*
X79055357Y-134214285D01*
X79102976Y-134119047D01*
X79198214Y-134071428D01*
X79436309Y-134071428D01*
X79531547Y-134023809D01*
X80007738Y-134452380D02*
X80007738Y-133785714D01*
X80007738Y-133976190D02*
X80055357Y-133880952D01*
X80102976Y-133833333D01*
X80198214Y-133785714D01*
X80293452Y-133785714D01*
X81055357Y-134452380D02*
X81055357Y-133928571D01*
X81007738Y-133833333D01*
X80912500Y-133785714D01*
X80722023Y-133785714D01*
X80626785Y-133833333D01*
X81055357Y-134404761D02*
X80960119Y-134452380D01*
X80722023Y-134452380D01*
X80626785Y-134404761D01*
X80579166Y-134309523D01*
X80579166Y-134214285D01*
X80626785Y-134119047D01*
X80722023Y-134071428D01*
X80960119Y-134071428D01*
X81055357Y-134023809D01*
X81960119Y-134452380D02*
X81960119Y-133452380D01*
X81960119Y-134404761D02*
X81864880Y-134452380D01*
X81674404Y-134452380D01*
X81579166Y-134404761D01*
X81531547Y-134357142D01*
X81483928Y-134261904D01*
X81483928Y-133976190D01*
X81531547Y-133880952D01*
X81579166Y-133833333D01*
X81674404Y-133785714D01*
X81864880Y-133785714D01*
X81960119Y-133833333D01*
X82436309Y-134452380D02*
X82436309Y-133785714D01*
X82436309Y-133452380D02*
X82388690Y-133500000D01*
X82436309Y-133547619D01*
X82483928Y-133500000D01*
X82436309Y-133452380D01*
X82436309Y-133547619D01*
X83341071Y-133785714D02*
X83341071Y-134595238D01*
X83293452Y-134690476D01*
X83245833Y-134738095D01*
X83150595Y-134785714D01*
X83007738Y-134785714D01*
X82912500Y-134738095D01*
X83341071Y-134404761D02*
X83245833Y-134452380D01*
X83055357Y-134452380D01*
X82960119Y-134404761D01*
X82912500Y-134357142D01*
X82864880Y-134261904D01*
X82864880Y-133976190D01*
X82912500Y-133880952D01*
X82960119Y-133833333D01*
X83055357Y-133785714D01*
X83245833Y-133785714D01*
X83341071Y-133833333D01*
X83817261Y-134452380D02*
X83817261Y-133785714D01*
X83817261Y-133880952D02*
X83864880Y-133833333D01*
X83960119Y-133785714D01*
X84102976Y-133785714D01*
X84198214Y-133833333D01*
X84245833Y-133928571D01*
X84245833Y-134452380D01*
X84245833Y-133928571D02*
X84293452Y-133833333D01*
X84388690Y-133785714D01*
X84531547Y-133785714D01*
X84626785Y-133833333D01*
X84674404Y-133928571D01*
X84674404Y-134452380D01*
X85912500Y-134452380D02*
X85912500Y-133452380D01*
X85912500Y-133928571D02*
X86483928Y-133928571D01*
X86483928Y-134452380D02*
X86483928Y-133452380D01*
X86864880Y-133785714D02*
X87102976Y-134452380D01*
X87341071Y-133785714D02*
X87102976Y-134452380D01*
X87007738Y-134690476D01*
X86960119Y-134738095D01*
X86864880Y-134785714D01*
X87722023Y-133785714D02*
X87722023Y-134785714D01*
X87722023Y-133833333D02*
X87817261Y-133785714D01*
X88007738Y-133785714D01*
X88102976Y-133833333D01*
X88150595Y-133880952D01*
X88198214Y-133976190D01*
X88198214Y-134261904D01*
X88150595Y-134357142D01*
X88102976Y-134404761D01*
X88007738Y-134452380D01*
X87817261Y-134452380D01*
X87722023Y-134404761D01*
X89007738Y-134404761D02*
X88912500Y-134452380D01*
X88722023Y-134452380D01*
X88626785Y-134404761D01*
X88579166Y-134309523D01*
X88579166Y-133928571D01*
X88626785Y-133833333D01*
X88722023Y-133785714D01*
X88912500Y-133785714D01*
X89007738Y-133833333D01*
X89055357Y-133928571D01*
X89055357Y-134023809D01*
X88579166Y-134119047D01*
X89483928Y-134452380D02*
X89483928Y-133785714D01*
X89483928Y-133976190D02*
X89531547Y-133880952D01*
X89579166Y-133833333D01*
X89674404Y-133785714D01*
X89769642Y-133785714D01*
X90245833Y-134452380D02*
X90150595Y-134404761D01*
X90102976Y-134309523D01*
X90102976Y-133452380D01*
X90769642Y-134452380D02*
X90674404Y-134404761D01*
X90626785Y-134357142D01*
X90579166Y-134261904D01*
X90579166Y-133976190D01*
X90626785Y-133880952D01*
X90674404Y-133833333D01*
X90769642Y-133785714D01*
X90912500Y-133785714D01*
X91007738Y-133833333D01*
X91055357Y-133880952D01*
X91102976Y-133976190D01*
X91102976Y-134261904D01*
X91055357Y-134357142D01*
X91007738Y-134404761D01*
X90912500Y-134452380D01*
X90769642Y-134452380D01*
X91674404Y-134452380D02*
X91579166Y-134404761D01*
X91531547Y-134357142D01*
X91483928Y-134261904D01*
X91483928Y-133976190D01*
X91531547Y-133880952D01*
X91579166Y-133833333D01*
X91674404Y-133785714D01*
X91817261Y-133785714D01*
X91912500Y-133833333D01*
X91960119Y-133880952D01*
X92007738Y-133976190D01*
X92007738Y-134261904D01*
X91960119Y-134357142D01*
X91912500Y-134404761D01*
X91817261Y-134452380D01*
X91674404Y-134452380D01*
X92436309Y-133785714D02*
X92436309Y-134785714D01*
X92436309Y-133833333D02*
X92531547Y-133785714D01*
X92722023Y-133785714D01*
X92817261Y-133833333D01*
X92864880Y-133880952D01*
X92912500Y-133976190D01*
X92912500Y-134261904D01*
X92864880Y-134357142D01*
X92817261Y-134404761D01*
X92722023Y-134452380D01*
X92531547Y-134452380D01*
X92436309Y-134404761D01*
X75150595Y-136202380D02*
X75150595Y-135202380D01*
X75626785Y-135535714D02*
X75626785Y-136202380D01*
X75626785Y-135630952D02*
X75674404Y-135583333D01*
X75769642Y-135535714D01*
X75912500Y-135535714D01*
X76007738Y-135583333D01*
X76055357Y-135678571D01*
X76055357Y-136202380D01*
X76960119Y-136202380D02*
X76960119Y-135202380D01*
X76960119Y-136154761D02*
X76864880Y-136202380D01*
X76674404Y-136202380D01*
X76579166Y-136154761D01*
X76531547Y-136107142D01*
X76483928Y-136011904D01*
X76483928Y-135726190D01*
X76531547Y-135630952D01*
X76579166Y-135583333D01*
X76674404Y-135535714D01*
X76864880Y-135535714D01*
X76960119Y-135583333D01*
X77436309Y-136202380D02*
X77436309Y-135535714D01*
X77436309Y-135202380D02*
X77388690Y-135250000D01*
X77436309Y-135297619D01*
X77483928Y-135250000D01*
X77436309Y-135202380D01*
X77436309Y-135297619D01*
X78341071Y-136154761D02*
X78245833Y-136202380D01*
X78055357Y-136202380D01*
X77960119Y-136154761D01*
X77912500Y-136107142D01*
X77864880Y-136011904D01*
X77864880Y-135726190D01*
X77912500Y-135630952D01*
X77960119Y-135583333D01*
X78055357Y-135535714D01*
X78245833Y-135535714D01*
X78341071Y-135583333D01*
X79198214Y-136202380D02*
X79198214Y-135678571D01*
X79150595Y-135583333D01*
X79055357Y-135535714D01*
X78864880Y-135535714D01*
X78769642Y-135583333D01*
X79198214Y-136154761D02*
X79102976Y-136202380D01*
X78864880Y-136202380D01*
X78769642Y-136154761D01*
X78722023Y-136059523D01*
X78722023Y-135964285D01*
X78769642Y-135869047D01*
X78864880Y-135821428D01*
X79102976Y-135821428D01*
X79198214Y-135773809D01*
X79531547Y-135535714D02*
X79912500Y-135535714D01*
X79674404Y-135202380D02*
X79674404Y-136059523D01*
X79722023Y-136154761D01*
X79817261Y-136202380D01*
X79912500Y-136202380D01*
X80388690Y-136202380D02*
X80293452Y-136154761D01*
X80245833Y-136107142D01*
X80198214Y-136011904D01*
X80198214Y-135726190D01*
X80245833Y-135630952D01*
X80293452Y-135583333D01*
X80388690Y-135535714D01*
X80531547Y-135535714D01*
X80626785Y-135583333D01*
X80674404Y-135630952D01*
X80722023Y-135726190D01*
X80722023Y-136011904D01*
X80674404Y-136107142D01*
X80626785Y-136154761D01*
X80531547Y-136202380D01*
X80388690Y-136202380D01*
X81150595Y-136202380D02*
X81150595Y-135535714D01*
X81150595Y-135726190D02*
X81198214Y-135630952D01*
X81245833Y-135583333D01*
X81341071Y-135535714D01*
X81436309Y-135535714D01*
X82245833Y-136202380D02*
X81769642Y-136202380D01*
X81769642Y-135202380D01*
X82579166Y-135678571D02*
X82912500Y-135678571D01*
X83055357Y-136202380D02*
X82579166Y-136202380D01*
X82579166Y-135202380D01*
X83055357Y-135202380D01*
X83483928Y-136202380D02*
X83483928Y-135202380D01*
X83722023Y-135202380D01*
X83864880Y-135250000D01*
X83960119Y-135345238D01*
X84007738Y-135440476D01*
X84055357Y-135630952D01*
X84055357Y-135773809D01*
X84007738Y-135964285D01*
X83960119Y-136059523D01*
X83864880Y-136154761D01*
X83722023Y-136202380D01*
X83483928Y-136202380D01*
X84436309Y-136154761D02*
X84531547Y-136202380D01*
X84722023Y-136202380D01*
X84817261Y-136154761D01*
X84864880Y-136059523D01*
X84864880Y-136011904D01*
X84817261Y-135916666D01*
X84722023Y-135869047D01*
X84579166Y-135869047D01*
X84483928Y-135821428D01*
X84436309Y-135726190D01*
X84436309Y-135678571D01*
X84483928Y-135583333D01*
X84579166Y-135535714D01*
X84722023Y-135535714D01*
X84817261Y-135583333D01*
X86055357Y-136202380D02*
X86055357Y-135202380D01*
X86436309Y-135202380D01*
X86531547Y-135250000D01*
X86579166Y-135297619D01*
X86626785Y-135392857D01*
X86626785Y-135535714D01*
X86579166Y-135630952D01*
X86531547Y-135678571D01*
X86436309Y-135726190D01*
X86055357Y-135726190D01*
X87626785Y-136107142D02*
X87579166Y-136154761D01*
X87436309Y-136202380D01*
X87341071Y-136202380D01*
X87198214Y-136154761D01*
X87102976Y-136059523D01*
X87055357Y-135964285D01*
X87007738Y-135773809D01*
X87007738Y-135630952D01*
X87055357Y-135440476D01*
X87102976Y-135345238D01*
X87198214Y-135250000D01*
X87341071Y-135202380D01*
X87436309Y-135202380D01*
X87579166Y-135250000D01*
X87626785Y-135297619D01*
X88388690Y-135678571D02*
X88531547Y-135726190D01*
X88579166Y-135773809D01*
X88626785Y-135869047D01*
X88626785Y-136011904D01*
X88579166Y-136107142D01*
X88531547Y-136154761D01*
X88436309Y-136202380D01*
X88055357Y-136202380D01*
X88055357Y-135202380D01*
X88388690Y-135202380D01*
X88483928Y-135250000D01*
X88531547Y-135297619D01*
X88579166Y-135392857D01*
X88579166Y-135488095D01*
X88531547Y-135583333D01*
X88483928Y-135630952D01*
X88388690Y-135678571D01*
X88055357Y-135678571D01*
X75150595Y-137952380D02*
X75150595Y-136952380D01*
X75531547Y-136952380D01*
X75626785Y-137000000D01*
X75674404Y-137047619D01*
X75722023Y-137142857D01*
X75722023Y-137285714D01*
X75674404Y-137380952D01*
X75626785Y-137428571D01*
X75531547Y-137476190D01*
X75150595Y-137476190D01*
X76150595Y-137952380D02*
X76150595Y-136952380D01*
X76722023Y-137952380D01*
X76722023Y-136952380D01*
X77198214Y-137857142D02*
X77245833Y-137904761D01*
X77198214Y-137952380D01*
X77150595Y-137904761D01*
X77198214Y-137857142D01*
X77198214Y-137952380D01*
X77198214Y-137333333D02*
X77245833Y-137380952D01*
X77198214Y-137428571D01*
X77150595Y-137380952D01*
X77198214Y-137333333D01*
X77198214Y-137428571D01*
X78341071Y-136952380D02*
X79007738Y-137952380D01*
X79007738Y-136952380D02*
X78341071Y-137952380D01*
X79293452Y-136952380D02*
X79960119Y-137952380D01*
X79960119Y-136952380D02*
X79293452Y-137952380D01*
X80245833Y-136952380D02*
X80912500Y-137952380D01*
X80912500Y-136952380D02*
X80245833Y-137952380D01*
X81293452Y-137571428D02*
X82055357Y-137571428D01*
X82436309Y-136952380D02*
X83102976Y-137952380D01*
X83102976Y-136952380D02*
X82436309Y-137952380D01*
X83388690Y-136952380D02*
X84055357Y-137952380D01*
X84055357Y-136952380D02*
X83388690Y-137952380D01*
X84341071Y-136952380D02*
X85007738Y-137952380D01*
X85007738Y-136952380D02*
X84341071Y-137952380D01*
X86055357Y-137285714D02*
X86293452Y-137952380D01*
X86531547Y-137285714D01*
X87436309Y-137952380D02*
X86864880Y-137952380D01*
X87150595Y-137952380D02*
X87150595Y-136952380D01*
X87055357Y-137095238D01*
X86960119Y-137190476D01*
X86864880Y-137238095D01*
X87864880Y-137857142D02*
X87912500Y-137904761D01*
X87864880Y-137952380D01*
X87817261Y-137904761D01*
X87864880Y-137857142D01*
X87864880Y-137952380D01*
X88531547Y-136952380D02*
X88626785Y-136952380D01*
X88722023Y-137000000D01*
X88769642Y-137047619D01*
X88817261Y-137142857D01*
X88864880Y-137333333D01*
X88864880Y-137571428D01*
X88817261Y-137761904D01*
X88769642Y-137857142D01*
X88722023Y-137904761D01*
X88626785Y-137952380D01*
X88531547Y-137952380D01*
X88436309Y-137904761D01*
X88388690Y-137857142D01*
X88341071Y-137761904D01*
X88293452Y-137571428D01*
X88293452Y-137333333D01*
X88341071Y-137142857D01*
X88388690Y-137047619D01*
X88436309Y-137000000D01*
X88531547Y-136952380D01*
X90769642Y-137904761D02*
X90912500Y-137952380D01*
X91150595Y-137952380D01*
X91245833Y-137904761D01*
X91293452Y-137857142D01*
X91341071Y-137761904D01*
X91341071Y-137666666D01*
X91293452Y-137571428D01*
X91245833Y-137523809D01*
X91150595Y-137476190D01*
X90960119Y-137428571D01*
X90864880Y-137380952D01*
X90817261Y-137333333D01*
X90769642Y-137238095D01*
X90769642Y-137142857D01*
X90817261Y-137047619D01*
X90864880Y-137000000D01*
X90960119Y-136952380D01*
X91198214Y-136952380D01*
X91341071Y-137000000D01*
X91769642Y-137952380D02*
X91769642Y-136952380D01*
X92341071Y-137952380D01*
X92341071Y-136952380D01*
X92817261Y-137857142D02*
X92864880Y-137904761D01*
X92817261Y-137952380D01*
X92769642Y-137904761D01*
X92817261Y-137857142D01*
X92817261Y-137952380D01*
X92817261Y-137333333D02*
X92864880Y-137380952D01*
X92817261Y-137428571D01*
X92769642Y-137380952D01*
X92817261Y-137333333D01*
X92817261Y-137428571D01*
D11*
G04 #@! TO.C,H1*
X57000000Y-146500000D02*
G75*
G03X57000000Y-146500000I-3500000J0D01*
G01*
G04 #@! TO.C,H2*
X110000000Y-146500000D02*
G75*
G03X110000000Y-146500000I-3500000J0D01*
G01*
G04 #@! TO.C,H3*
X110000000Y-93500000D02*
G75*
G03X110000000Y-93500000I-3500000J0D01*
G01*
G04 #@! TO.C,H4*
X57000000Y-93500000D02*
G75*
G03X57000000Y-93500000I-3500000J0D01*
G01*
D12*
G04 #@! TO.C,J1*
X64000000Y-92000000D02*
X67500000Y-92000000D01*
X69750000Y-95750000D02*
X69750000Y-96250000D01*
X67500000Y-100000000D02*
X64250000Y-100000000D01*
X61750000Y-96250000D02*
X61750000Y-95750000D01*
G04 #@! TO.C,J2*
X55750000Y-120750000D02*
X56250000Y-120750000D01*
X52000000Y-126500000D02*
X52000000Y-123250000D01*
X56250000Y-128750000D02*
X55750000Y-128750000D01*
X60000000Y-123000000D02*
X60000000Y-126500000D01*
G04 #@! TO.C,J5*
X77000000Y-140000000D02*
X80500000Y-140000000D01*
X82750000Y-143750000D02*
X82750000Y-144250000D01*
X80500000Y-148000000D02*
X77250000Y-148000000D01*
X74750000Y-144250000D02*
X74750000Y-143750000D01*
G04 #@! TO.C,J6*
X89750000Y-144250000D02*
X89750000Y-143750000D01*
X95500000Y-148000000D02*
X92250000Y-148000000D01*
X97750000Y-143750000D02*
X97750000Y-144250000D01*
X92000000Y-140000000D02*
X95500000Y-140000000D01*
D11*
G04 #@! TO.C,logo1*
X94300000Y-137500000D02*
X99700000Y-137500000D01*
X99700000Y-137400000D02*
X94300000Y-137400000D01*
X94300000Y-137300000D02*
X99700000Y-137300000D01*
X99700000Y-137200000D02*
X94300000Y-137200000D01*
X94300000Y-137100000D02*
X99700000Y-137100000D01*
X99700000Y-137000000D02*
X94300000Y-137000000D01*
X94300000Y-136900000D02*
X99700000Y-136900000D01*
X99700000Y-136800000D02*
X94300000Y-136800000D01*
X94300000Y-136700000D02*
X99700000Y-136700000D01*
X99700000Y-136600000D02*
X94300000Y-136600000D01*
X94300000Y-136500000D02*
X99700000Y-136500000D01*
X99700000Y-136400000D02*
X94300000Y-136400000D01*
X94300000Y-136300000D02*
X99700000Y-136300000D01*
X99700000Y-136200000D02*
X94300000Y-136200000D01*
X94300000Y-136100000D02*
X99700000Y-136100000D01*
X99700000Y-136000000D02*
X94300000Y-136000000D01*
X94300000Y-135900000D02*
X99700000Y-135900000D01*
X99700000Y-135800000D02*
X94300000Y-135800000D01*
X94300000Y-135700000D02*
X99700000Y-135700000D01*
X99700000Y-135600000D02*
X94300000Y-135600000D01*
X94300000Y-135500000D02*
X99700000Y-135500000D01*
X99700000Y-135400000D02*
X94300000Y-135400000D01*
X94300000Y-135300000D02*
X99700000Y-135300000D01*
X99700000Y-135200000D02*
X94300000Y-135200000D01*
X94300000Y-135100000D02*
X99700000Y-135100000D01*
X99700000Y-135000000D02*
X94300000Y-135000000D01*
X94300000Y-134900000D02*
X99700000Y-134900000D01*
X99700000Y-134800000D02*
X94300000Y-134800000D01*
X94300000Y-134700000D02*
X99700000Y-134700000D01*
X99700000Y-134600000D02*
X94300000Y-134600000D01*
X94300000Y-134500000D02*
X99700000Y-134500000D01*
X94250000Y-134500000D02*
X94250000Y-137500000D01*
X99750000Y-134500000D02*
X99750000Y-137500000D01*
D13*
G04 #@! TO.C,logo3*
X73097947Y-135981554D02*
G75*
G03X73097947Y-135981554I-1232947J0D01*
G01*
X73624444Y-136289523D02*
G75*
G03X73624444Y-136289523I-1232947J0D01*
G01*
X74214501Y-136135000D02*
G75*
G03X74214501Y-136135000I-1232947J0D01*
G01*
X74522470Y-135608503D02*
G75*
G03X74522470Y-135608503I-1232947J0D01*
G01*
X74367947Y-135018446D02*
G75*
G03X74367947Y-135018446I-1232947J0D01*
G01*
X73841450Y-134710477D02*
G75*
G03X73841450Y-134710477I-1232947J0D01*
G01*
X73251393Y-134865000D02*
G75*
G03X73251393Y-134865000I-1232947J0D01*
G01*
X72943424Y-135391497D02*
G75*
G03X72943424Y-135391497I-1232947J0D01*
G01*
D14*
G04 #@! TO.C,J3*
X96000000Y-126900000D02*
X95700000Y-127500000D01*
X95400000Y-126900000D02*
X96000000Y-126900000D01*
X95700000Y-127500000D02*
X95400000Y-126900000D01*
X93900000Y-129800000D02*
X92000000Y-129800000D01*
X93900000Y-129200000D02*
X92000000Y-129200000D01*
X109750000Y-132350000D02*
X109750000Y-129500000D01*
X96650000Y-132350000D02*
X109750000Y-132350000D01*
X96650000Y-131500000D02*
X96650000Y-132350000D01*
X109750000Y-126650000D02*
X109750000Y-129500000D01*
X96650000Y-126650000D02*
X109750000Y-126650000D01*
X96650000Y-127500000D02*
X96650000Y-126650000D01*
G04 #@! TO.C,J4*
X96000000Y-99800000D02*
X95700000Y-100400000D01*
X95400000Y-99800000D02*
X96000000Y-99800000D01*
X95700000Y-100400000D02*
X95400000Y-99800000D01*
X96700000Y-104200000D02*
X96700000Y-104800000D01*
X93900000Y-106900000D02*
X92000000Y-106900000D01*
X93900000Y-106300000D02*
X92000000Y-106300000D01*
X93900000Y-102700000D02*
X92000000Y-102700000D01*
X93900000Y-102100000D02*
X92000000Y-102100000D01*
X109750000Y-109450000D02*
X109750000Y-104500000D01*
X96650000Y-109450000D02*
X109750000Y-109450000D01*
X96650000Y-108600000D02*
X96650000Y-109450000D01*
X109750000Y-99550000D02*
X109750000Y-104500000D01*
X96650000Y-99550000D02*
X109750000Y-99550000D01*
X96650000Y-100400000D02*
X96650000Y-99550000D01*
G04 #@! TO.C,J7*
X96650000Y-113150000D02*
X96650000Y-112300000D01*
X96650000Y-112300000D02*
X109750000Y-112300000D01*
X109750000Y-112300000D02*
X109750000Y-117250000D01*
X96650000Y-121350000D02*
X96650000Y-122200000D01*
X96650000Y-122200000D02*
X109750000Y-122200000D01*
X109750000Y-122200000D02*
X109750000Y-117250000D01*
X93900000Y-114850000D02*
X92000000Y-114850000D01*
X93900000Y-115450000D02*
X92000000Y-115450000D01*
X93900000Y-119050000D02*
X92000000Y-119050000D01*
X93900000Y-119650000D02*
X92000000Y-119650000D01*
X96700000Y-116950000D02*
X96700000Y-117550000D01*
X95700000Y-113150000D02*
X95400000Y-112550000D01*
X95400000Y-112550000D02*
X96000000Y-112550000D01*
X96000000Y-112550000D02*
X95700000Y-113150000D01*
D11*
G04 #@! TO.C,Q1*
X85450000Y-103250000D02*
X82450000Y-103250000D01*
X82450000Y-103250000D02*
X82450000Y-104250000D01*
X82450000Y-104250000D02*
X82950000Y-104750000D01*
X82950000Y-104750000D02*
X85450000Y-104750000D01*
X85450000Y-104750000D02*
X85450000Y-103250000D01*
G04 #@! TO.C,Q2*
X82500000Y-117000000D02*
X82500000Y-118500000D01*
X85000000Y-117000000D02*
X82500000Y-117000000D01*
X85500000Y-117500000D02*
X85000000Y-117000000D01*
X85500000Y-118500000D02*
X85500000Y-117500000D01*
X82500000Y-118500000D02*
X85500000Y-118500000D01*
D14*
G04 #@! TO.C,R1*
X53180000Y-109700000D02*
X53180000Y-104500000D01*
X56820000Y-104500000D02*
X56820000Y-109700000D01*
G04 #@! TO.C,R2*
X61070000Y-104500000D02*
X61070000Y-109700000D01*
X57430000Y-109700000D02*
X57430000Y-104500000D01*
G04 #@! TO.C,R3*
X61680000Y-109700000D02*
X61680000Y-104500000D01*
X65320000Y-104500000D02*
X65320000Y-109700000D01*
G04 #@! TO.C,R4*
X84600000Y-108380000D02*
X83400000Y-108380000D01*
X83400000Y-106620000D02*
X84600000Y-106620000D01*
G04 #@! TO.C,R5*
X84650000Y-115130000D02*
X83450000Y-115130000D01*
X83450000Y-113370000D02*
X84650000Y-113370000D01*
D11*
G04 #@! TO.C,U1*
X66750000Y-115060000D02*
X67550000Y-114260000D01*
X67550000Y-114260000D02*
X71250000Y-114260000D01*
X71250000Y-114260000D02*
X71250000Y-119200000D01*
X71250000Y-119200000D02*
X66750000Y-119200000D01*
X66750000Y-119200000D02*
X66750000Y-115060000D01*
D15*
X66603553Y-113730000D02*
G75*
G03X66603553Y-113730000I-353553J0D01*
G01*
D16*
G04 #@! TO.C,logo4*
G36*
X82072094Y-94291158D02*
X82104619Y-94303736D01*
X82154193Y-94328712D01*
X82225374Y-94367876D01*
X82230916Y-94370988D01*
X82296474Y-94408476D01*
X82351798Y-94441319D01*
X82391455Y-94466205D01*
X82410012Y-94479820D01*
X82410531Y-94480487D01*
X82406048Y-94499390D01*
X82385486Y-94541605D01*
X82350183Y-94604832D01*
X82301480Y-94686772D01*
X82240718Y-94785122D01*
X82169236Y-94897585D01*
X82151445Y-94925165D01*
X82105093Y-95001699D01*
X82071342Y-95067556D01*
X82053153Y-95116782D01*
X82051286Y-95126507D01*
X82052115Y-95169312D01*
X82061394Y-95237209D01*
X82077968Y-95325843D01*
X82100680Y-95430859D01*
X82128373Y-95547902D01*
X82159890Y-95672616D01*
X82194075Y-95800645D01*
X82229771Y-95927634D01*
X82265821Y-96049228D01*
X82301068Y-96161072D01*
X82334356Y-96258810D01*
X82364528Y-96338087D01*
X82385561Y-96385122D01*
X82410337Y-96435225D01*
X82433730Y-96483168D01*
X82434997Y-96485793D01*
X82473699Y-96534220D01*
X82530184Y-96566828D01*
X82595939Y-96582454D01*
X82662451Y-96579937D01*
X82721205Y-96558114D01*
X82754258Y-96529382D01*
X82801859Y-96450583D01*
X82836739Y-96352378D01*
X82855877Y-96244779D01*
X82858588Y-96183780D01*
X82847670Y-96069935D01*
X82815624Y-95975660D01*
X82760726Y-95896379D01*
X82743607Y-95878733D01*
X82692661Y-95829235D01*
X82689163Y-95479362D01*
X82685664Y-95129489D01*
X82774818Y-94994531D01*
X82816654Y-94933445D01*
X82856945Y-94878493D01*
X82889943Y-94837336D01*
X82904126Y-94822192D01*
X82944281Y-94784810D01*
X82998665Y-94814098D01*
X83033039Y-94835084D01*
X83051846Y-94851378D01*
X83053049Y-94854307D01*
X83065903Y-94866728D01*
X83087896Y-94875977D01*
X83109150Y-94884313D01*
X83141694Y-94900149D01*
X83188322Y-94925033D01*
X83251829Y-94960509D01*
X83335008Y-95008123D01*
X83440653Y-95069422D01*
X83498062Y-95102932D01*
X83565594Y-95143071D01*
X83609885Y-95171659D01*
X83634855Y-95192039D01*
X83644423Y-95207553D01*
X83642508Y-95221546D01*
X83640911Y-95224796D01*
X83625376Y-95245266D01*
X83592136Y-95283665D01*
X83545062Y-95335696D01*
X83488028Y-95397066D01*
X83438700Y-95449090D01*
X83325030Y-95572567D01*
X83236105Y-95679591D01*
X83171134Y-95771240D01*
X83129321Y-95848588D01*
X83115217Y-95887866D01*
X83109392Y-95922249D01*
X83103375Y-95980899D01*
X83097696Y-96057117D01*
X83092884Y-96144202D01*
X83090619Y-96199268D01*
X83087459Y-96294464D01*
X83086069Y-96364062D01*
X83086858Y-96413409D01*
X83090235Y-96447854D01*
X83096608Y-96472743D01*
X83106387Y-96493425D01*
X83114067Y-96506053D01*
X83158421Y-96554726D01*
X83215574Y-96588645D01*
X83275708Y-96603438D01*
X83320773Y-96598086D01*
X83361576Y-96574930D01*
X83412724Y-96533462D01*
X83467042Y-96480912D01*
X83517357Y-96424516D01*
X83556494Y-96371505D01*
X83570905Y-96345889D01*
X83592491Y-96310814D01*
X83631753Y-96257389D01*
X83685102Y-96189789D01*
X83748952Y-96112190D01*
X83819715Y-96028768D01*
X83893804Y-95943698D01*
X83967632Y-95861155D01*
X84037611Y-95785316D01*
X84100155Y-95720356D01*
X84149260Y-95672669D01*
X84203779Y-95625032D01*
X84249642Y-95589908D01*
X84281811Y-95570949D01*
X84292489Y-95568864D01*
X84308853Y-95577274D01*
X84349671Y-95599846D01*
X84412586Y-95635224D01*
X84495244Y-95682054D01*
X84595289Y-95738981D01*
X84710366Y-95804649D01*
X84838119Y-95877703D01*
X84976194Y-95956788D01*
X85122234Y-96040548D01*
X85273884Y-96127629D01*
X85428790Y-96216676D01*
X85584595Y-96306332D01*
X85738944Y-96395243D01*
X85889482Y-96482054D01*
X86033854Y-96565409D01*
X86169704Y-96643954D01*
X86294677Y-96716333D01*
X86406417Y-96781190D01*
X86502570Y-96837171D01*
X86580779Y-96882920D01*
X86638689Y-96917083D01*
X86673946Y-96938304D01*
X86684165Y-96944963D01*
X86670402Y-96946280D01*
X86627104Y-96947559D01*
X86555714Y-96948796D01*
X86457673Y-96949983D01*
X86334422Y-96951115D01*
X86187403Y-96952186D01*
X86018057Y-96953189D01*
X85827826Y-96954119D01*
X85618151Y-96954968D01*
X85390473Y-96955732D01*
X85146235Y-96956403D01*
X84886877Y-96956976D01*
X84613841Y-96957444D01*
X84328568Y-96957802D01*
X84032500Y-96958042D01*
X83727079Y-96958159D01*
X83598924Y-96958171D01*
X80498970Y-96958171D01*
X80720053Y-96574847D01*
X80766856Y-96493680D01*
X80827102Y-96389166D01*
X80898778Y-96264801D01*
X80979869Y-96124082D01*
X81068362Y-95970503D01*
X81162240Y-95807562D01*
X81259491Y-95638754D01*
X81358100Y-95467575D01*
X81456053Y-95297521D01*
X81480825Y-95254512D01*
X81571152Y-95097857D01*
X81657289Y-94948803D01*
X81737942Y-94809568D01*
X81811816Y-94682371D01*
X81877617Y-94569432D01*
X81934050Y-94472968D01*
X81979821Y-94395200D01*
X82013635Y-94338346D01*
X82034198Y-94304625D01*
X82039953Y-94296040D01*
X82052058Y-94289189D01*
X82072094Y-94291158D01*
X82072094Y-94291158D01*
G37*
X82072094Y-94291158D02*
X82104619Y-94303736D01*
X82154193Y-94328712D01*
X82225374Y-94367876D01*
X82230916Y-94370988D01*
X82296474Y-94408476D01*
X82351798Y-94441319D01*
X82391455Y-94466205D01*
X82410012Y-94479820D01*
X82410531Y-94480487D01*
X82406048Y-94499390D01*
X82385486Y-94541605D01*
X82350183Y-94604832D01*
X82301480Y-94686772D01*
X82240718Y-94785122D01*
X82169236Y-94897585D01*
X82151445Y-94925165D01*
X82105093Y-95001699D01*
X82071342Y-95067556D01*
X82053153Y-95116782D01*
X82051286Y-95126507D01*
X82052115Y-95169312D01*
X82061394Y-95237209D01*
X82077968Y-95325843D01*
X82100680Y-95430859D01*
X82128373Y-95547902D01*
X82159890Y-95672616D01*
X82194075Y-95800645D01*
X82229771Y-95927634D01*
X82265821Y-96049228D01*
X82301068Y-96161072D01*
X82334356Y-96258810D01*
X82364528Y-96338087D01*
X82385561Y-96385122D01*
X82410337Y-96435225D01*
X82433730Y-96483168D01*
X82434997Y-96485793D01*
X82473699Y-96534220D01*
X82530184Y-96566828D01*
X82595939Y-96582454D01*
X82662451Y-96579937D01*
X82721205Y-96558114D01*
X82754258Y-96529382D01*
X82801859Y-96450583D01*
X82836739Y-96352378D01*
X82855877Y-96244779D01*
X82858588Y-96183780D01*
X82847670Y-96069935D01*
X82815624Y-95975660D01*
X82760726Y-95896379D01*
X82743607Y-95878733D01*
X82692661Y-95829235D01*
X82689163Y-95479362D01*
X82685664Y-95129489D01*
X82774818Y-94994531D01*
X82816654Y-94933445D01*
X82856945Y-94878493D01*
X82889943Y-94837336D01*
X82904126Y-94822192D01*
X82944281Y-94784810D01*
X82998665Y-94814098D01*
X83033039Y-94835084D01*
X83051846Y-94851378D01*
X83053049Y-94854307D01*
X83065903Y-94866728D01*
X83087896Y-94875977D01*
X83109150Y-94884313D01*
X83141694Y-94900149D01*
X83188322Y-94925033D01*
X83251829Y-94960509D01*
X83335008Y-95008123D01*
X83440653Y-95069422D01*
X83498062Y-95102932D01*
X83565594Y-95143071D01*
X83609885Y-95171659D01*
X83634855Y-95192039D01*
X83644423Y-95207553D01*
X83642508Y-95221546D01*
X83640911Y-95224796D01*
X83625376Y-95245266D01*
X83592136Y-95283665D01*
X83545062Y-95335696D01*
X83488028Y-95397066D01*
X83438700Y-95449090D01*
X83325030Y-95572567D01*
X83236105Y-95679591D01*
X83171134Y-95771240D01*
X83129321Y-95848588D01*
X83115217Y-95887866D01*
X83109392Y-95922249D01*
X83103375Y-95980899D01*
X83097696Y-96057117D01*
X83092884Y-96144202D01*
X83090619Y-96199268D01*
X83087459Y-96294464D01*
X83086069Y-96364062D01*
X83086858Y-96413409D01*
X83090235Y-96447854D01*
X83096608Y-96472743D01*
X83106387Y-96493425D01*
X83114067Y-96506053D01*
X83158421Y-96554726D01*
X83215574Y-96588645D01*
X83275708Y-96603438D01*
X83320773Y-96598086D01*
X83361576Y-96574930D01*
X83412724Y-96533462D01*
X83467042Y-96480912D01*
X83517357Y-96424516D01*
X83556494Y-96371505D01*
X83570905Y-96345889D01*
X83592491Y-96310814D01*
X83631753Y-96257389D01*
X83685102Y-96189789D01*
X83748952Y-96112190D01*
X83819715Y-96028768D01*
X83893804Y-95943698D01*
X83967632Y-95861155D01*
X84037611Y-95785316D01*
X84100155Y-95720356D01*
X84149260Y-95672669D01*
X84203779Y-95625032D01*
X84249642Y-95589908D01*
X84281811Y-95570949D01*
X84292489Y-95568864D01*
X84308853Y-95577274D01*
X84349671Y-95599846D01*
X84412586Y-95635224D01*
X84495244Y-95682054D01*
X84595289Y-95738981D01*
X84710366Y-95804649D01*
X84838119Y-95877703D01*
X84976194Y-95956788D01*
X85122234Y-96040548D01*
X85273884Y-96127629D01*
X85428790Y-96216676D01*
X85584595Y-96306332D01*
X85738944Y-96395243D01*
X85889482Y-96482054D01*
X86033854Y-96565409D01*
X86169704Y-96643954D01*
X86294677Y-96716333D01*
X86406417Y-96781190D01*
X86502570Y-96837171D01*
X86580779Y-96882920D01*
X86638689Y-96917083D01*
X86673946Y-96938304D01*
X86684165Y-96944963D01*
X86670402Y-96946280D01*
X86627104Y-96947559D01*
X86555714Y-96948796D01*
X86457673Y-96949983D01*
X86334422Y-96951115D01*
X86187403Y-96952186D01*
X86018057Y-96953189D01*
X85827826Y-96954119D01*
X85618151Y-96954968D01*
X85390473Y-96955732D01*
X85146235Y-96956403D01*
X84886877Y-96956976D01*
X84613841Y-96957444D01*
X84328568Y-96957802D01*
X84032500Y-96958042D01*
X83727079Y-96958159D01*
X83598924Y-96958171D01*
X80498970Y-96958171D01*
X80720053Y-96574847D01*
X80766856Y-96493680D01*
X80827102Y-96389166D01*
X80898778Y-96264801D01*
X80979869Y-96124082D01*
X81068362Y-95970503D01*
X81162240Y-95807562D01*
X81259491Y-95638754D01*
X81358100Y-95467575D01*
X81456053Y-95297521D01*
X81480825Y-95254512D01*
X81571152Y-95097857D01*
X81657289Y-94948803D01*
X81737942Y-94809568D01*
X81811816Y-94682371D01*
X81877617Y-94569432D01*
X81934050Y-94472968D01*
X81979821Y-94395200D01*
X82013635Y-94338346D01*
X82034198Y-94304625D01*
X82039953Y-94296040D01*
X82052058Y-94289189D01*
X82072094Y-94291158D01*
G36*
X85737528Y-94234619D02*
X85748908Y-94253693D01*
X85774488Y-94297421D01*
X85813002Y-94363619D01*
X85863186Y-94450102D01*
X85923775Y-94554685D01*
X85993503Y-94675183D01*
X86071107Y-94809412D01*
X86155320Y-94955187D01*
X86244879Y-95110323D01*
X86336998Y-95270000D01*
X86431076Y-95433117D01*
X86521402Y-95589709D01*
X86606665Y-95737506D01*
X86685557Y-95874240D01*
X86756769Y-95997642D01*
X86818991Y-96105444D01*
X86870913Y-96195377D01*
X86911228Y-96265173D01*
X86938624Y-96312564D01*
X86951507Y-96334786D01*
X86972507Y-96372330D01*
X86983925Y-96395831D01*
X86984551Y-96399920D01*
X86970636Y-96392242D01*
X86931941Y-96370203D01*
X86870487Y-96334971D01*
X86788298Y-96287711D01*
X86687396Y-96229589D01*
X86569805Y-96161771D01*
X86437546Y-96085424D01*
X86292642Y-96001714D01*
X86137117Y-95911806D01*
X85972992Y-95816867D01*
X85910549Y-95780732D01*
X85743487Y-95684083D01*
X85584074Y-95591938D01*
X85434355Y-95505475D01*
X85296376Y-95425871D01*
X85172185Y-95354305D01*
X85063827Y-95291955D01*
X84973348Y-95239998D01*
X84902796Y-95199613D01*
X84854215Y-95171978D01*
X84829654Y-95158272D01*
X84827085Y-95156974D01*
X84834569Y-95145220D01*
X84860614Y-95113795D01*
X84902559Y-95065594D01*
X84957746Y-95003510D01*
X85023517Y-94930439D01*
X85097212Y-94849276D01*
X85176173Y-94762916D01*
X85257740Y-94674253D01*
X85339254Y-94586182D01*
X85418057Y-94501599D01*
X85491490Y-94423397D01*
X85556893Y-94354472D01*
X85611608Y-94297719D01*
X85652977Y-94256032D01*
X85667164Y-94242363D01*
X85714180Y-94198201D01*
X85737528Y-94234619D01*
X85737528Y-94234619D01*
G37*
X85737528Y-94234619D02*
X85748908Y-94253693D01*
X85774488Y-94297421D01*
X85813002Y-94363619D01*
X85863186Y-94450102D01*
X85923775Y-94554685D01*
X85993503Y-94675183D01*
X86071107Y-94809412D01*
X86155320Y-94955187D01*
X86244879Y-95110323D01*
X86336998Y-95270000D01*
X86431076Y-95433117D01*
X86521402Y-95589709D01*
X86606665Y-95737506D01*
X86685557Y-95874240D01*
X86756769Y-95997642D01*
X86818991Y-96105444D01*
X86870913Y-96195377D01*
X86911228Y-96265173D01*
X86938624Y-96312564D01*
X86951507Y-96334786D01*
X86972507Y-96372330D01*
X86983925Y-96395831D01*
X86984551Y-96399920D01*
X86970636Y-96392242D01*
X86931941Y-96370203D01*
X86870487Y-96334971D01*
X86788298Y-96287711D01*
X86687396Y-96229589D01*
X86569805Y-96161771D01*
X86437546Y-96085424D01*
X86292642Y-96001714D01*
X86137117Y-95911806D01*
X85972992Y-95816867D01*
X85910549Y-95780732D01*
X85743487Y-95684083D01*
X85584074Y-95591938D01*
X85434355Y-95505475D01*
X85296376Y-95425871D01*
X85172185Y-95354305D01*
X85063827Y-95291955D01*
X84973348Y-95239998D01*
X84902796Y-95199613D01*
X84854215Y-95171978D01*
X84829654Y-95158272D01*
X84827085Y-95156974D01*
X84834569Y-95145220D01*
X84860614Y-95113795D01*
X84902559Y-95065594D01*
X84957746Y-95003510D01*
X85023517Y-94930439D01*
X85097212Y-94849276D01*
X85176173Y-94762916D01*
X85257740Y-94674253D01*
X85339254Y-94586182D01*
X85418057Y-94501599D01*
X85491490Y-94423397D01*
X85556893Y-94354472D01*
X85611608Y-94297719D01*
X85652977Y-94256032D01*
X85667164Y-94242363D01*
X85714180Y-94198201D01*
X85737528Y-94234619D01*
G36*
X83914043Y-91085835D02*
X83937065Y-91123245D01*
X83972534Y-91182514D01*
X84018996Y-91261118D01*
X84074996Y-91356538D01*
X84139081Y-91466250D01*
X84209796Y-91587734D01*
X84285687Y-91718468D01*
X84365299Y-91855930D01*
X84447178Y-91997598D01*
X84529870Y-92140951D01*
X84611921Y-92283467D01*
X84691876Y-92422624D01*
X84768281Y-92555901D01*
X84839682Y-92680776D01*
X84904624Y-92794727D01*
X84961653Y-92895233D01*
X85009315Y-92979772D01*
X85046155Y-93045822D01*
X85070720Y-93090862D01*
X85081554Y-93112370D01*
X85081951Y-93113714D01*
X85068501Y-93131965D01*
X85031114Y-93159882D01*
X84974235Y-93194725D01*
X84902312Y-93233754D01*
X84827015Y-93270843D01*
X84724560Y-93315817D01*
X84616817Y-93356226D01*
X84500073Y-93392969D01*
X84370618Y-93426942D01*
X84224740Y-93459044D01*
X84058726Y-93490173D01*
X83868866Y-93521227D01*
X83672469Y-93550145D01*
X83501834Y-93575800D01*
X83358545Y-93601198D01*
X83239008Y-93627602D01*
X83139630Y-93656273D01*
X83056818Y-93688473D01*
X82986978Y-93725465D01*
X82926518Y-93768512D01*
X82871845Y-93818875D01*
X82854214Y-93837583D01*
X82816000Y-93881139D01*
X82787732Y-93916682D01*
X82774618Y-93937583D01*
X82774268Y-93939297D01*
X82769680Y-93949806D01*
X82753758Y-93949924D01*
X82723266Y-93938254D01*
X82674968Y-93913396D01*
X82605627Y-93873952D01*
X82557439Y-93845587D01*
X82485583Y-93801247D01*
X82429742Y-93763279D01*
X82393667Y-93734416D01*
X82381113Y-93717388D01*
X82381121Y-93717264D01*
X82388906Y-93701037D01*
X82410892Y-93660400D01*
X82445803Y-93597567D01*
X82492363Y-93514752D01*
X82549295Y-93414172D01*
X82615323Y-93298040D01*
X82689172Y-93168571D01*
X82769564Y-93027980D01*
X82855224Y-92878482D01*
X82944876Y-92722292D01*
X83037243Y-92561624D01*
X83131049Y-92398693D01*
X83225018Y-92235713D01*
X83317874Y-92074900D01*
X83408340Y-91918468D01*
X83495141Y-91768633D01*
X83577000Y-91627608D01*
X83652641Y-91497609D01*
X83720787Y-91380849D01*
X83780163Y-91279545D01*
X83829493Y-91195911D01*
X83867500Y-91132162D01*
X83892907Y-91090511D01*
X83904440Y-91073175D01*
X83904923Y-91072805D01*
X83914043Y-91085835D01*
X83914043Y-91085835D01*
G37*
X83914043Y-91085835D02*
X83937065Y-91123245D01*
X83972534Y-91182514D01*
X84018996Y-91261118D01*
X84074996Y-91356538D01*
X84139081Y-91466250D01*
X84209796Y-91587734D01*
X84285687Y-91718468D01*
X84365299Y-91855930D01*
X84447178Y-91997598D01*
X84529870Y-92140951D01*
X84611921Y-92283467D01*
X84691876Y-92422624D01*
X84768281Y-92555901D01*
X84839682Y-92680776D01*
X84904624Y-92794727D01*
X84961653Y-92895233D01*
X85009315Y-92979772D01*
X85046155Y-93045822D01*
X85070720Y-93090862D01*
X85081554Y-93112370D01*
X85081951Y-93113714D01*
X85068501Y-93131965D01*
X85031114Y-93159882D01*
X84974235Y-93194725D01*
X84902312Y-93233754D01*
X84827015Y-93270843D01*
X84724560Y-93315817D01*
X84616817Y-93356226D01*
X84500073Y-93392969D01*
X84370618Y-93426942D01*
X84224740Y-93459044D01*
X84058726Y-93490173D01*
X83868866Y-93521227D01*
X83672469Y-93550145D01*
X83501834Y-93575800D01*
X83358545Y-93601198D01*
X83239008Y-93627602D01*
X83139630Y-93656273D01*
X83056818Y-93688473D01*
X82986978Y-93725465D01*
X82926518Y-93768512D01*
X82871845Y-93818875D01*
X82854214Y-93837583D01*
X82816000Y-93881139D01*
X82787732Y-93916682D01*
X82774618Y-93937583D01*
X82774268Y-93939297D01*
X82769680Y-93949806D01*
X82753758Y-93949924D01*
X82723266Y-93938254D01*
X82674968Y-93913396D01*
X82605627Y-93873952D01*
X82557439Y-93845587D01*
X82485583Y-93801247D01*
X82429742Y-93763279D01*
X82393667Y-93734416D01*
X82381113Y-93717388D01*
X82381121Y-93717264D01*
X82388906Y-93701037D01*
X82410892Y-93660400D01*
X82445803Y-93597567D01*
X82492363Y-93514752D01*
X82549295Y-93414172D01*
X82615323Y-93298040D01*
X82689172Y-93168571D01*
X82769564Y-93027980D01*
X82855224Y-92878482D01*
X82944876Y-92722292D01*
X83037243Y-92561624D01*
X83131049Y-92398693D01*
X83225018Y-92235713D01*
X83317874Y-92074900D01*
X83408340Y-91918468D01*
X83495141Y-91768633D01*
X83577000Y-91627608D01*
X83652641Y-91497609D01*
X83720787Y-91380849D01*
X83780163Y-91279545D01*
X83829493Y-91195911D01*
X83867500Y-91132162D01*
X83892907Y-91090511D01*
X83904440Y-91073175D01*
X83904923Y-91072805D01*
X83914043Y-91085835D01*
D12*
G04 #@! TO.C,logo5*
X59350000Y-113875000D02*
X59100000Y-114550000D01*
X59150000Y-113700000D02*
X59650000Y-113900000D01*
X58752160Y-118699640D02*
X59951040Y-115600840D01*
X59951040Y-115600840D02*
X59351600Y-115999620D01*
X58350840Y-116700660D02*
X59651320Y-113899040D01*
X58752160Y-118699640D02*
X59351600Y-118001140D01*
X59150940Y-113700920D02*
X58350840Y-116700660D01*
X58350840Y-116700660D02*
X59549720Y-115900560D01*
X59549720Y-115900560D02*
X58752160Y-118699640D01*
X58752160Y-118699640D02*
X58650560Y-117800480D01*
X59250000Y-112309000D02*
X63949000Y-119294000D01*
X63949000Y-119294000D02*
X54551000Y-119294000D01*
X54551000Y-119294000D02*
X59250000Y-112309000D01*
G04 #@! TO.C,J1*
D11*
X71666666Y-92952380D02*
X71666666Y-93666666D01*
X71619047Y-93809523D01*
X71523809Y-93904761D01*
X71380952Y-93952380D01*
X71285714Y-93952380D01*
X72666666Y-93952380D02*
X72095238Y-93952380D01*
X72380952Y-93952380D02*
X72380952Y-92952380D01*
X72285714Y-93095238D01*
X72190476Y-93190476D01*
X72095238Y-93238095D01*
G04 #@! TO.C,J2*
X52416666Y-117952380D02*
X52416666Y-118666666D01*
X52369047Y-118809523D01*
X52273809Y-118904761D01*
X52130952Y-118952380D01*
X52035714Y-118952380D01*
X52845238Y-118047619D02*
X52892857Y-118000000D01*
X52988095Y-117952380D01*
X53226190Y-117952380D01*
X53321428Y-118000000D01*
X53369047Y-118047619D01*
X53416666Y-118142857D01*
X53416666Y-118238095D01*
X53369047Y-118380952D01*
X52797619Y-118952380D01*
X53416666Y-118952380D01*
G04 #@! TO.C,J5*
X84666666Y-146702380D02*
X84666666Y-147416666D01*
X84619047Y-147559523D01*
X84523809Y-147654761D01*
X84380952Y-147702380D01*
X84285714Y-147702380D01*
X85619047Y-146702380D02*
X85142857Y-146702380D01*
X85095238Y-147178571D01*
X85142857Y-147130952D01*
X85238095Y-147083333D01*
X85476190Y-147083333D01*
X85571428Y-147130952D01*
X85619047Y-147178571D01*
X85666666Y-147273809D01*
X85666666Y-147511904D01*
X85619047Y-147607142D01*
X85571428Y-147654761D01*
X85476190Y-147702380D01*
X85238095Y-147702380D01*
X85142857Y-147654761D01*
X85095238Y-147607142D01*
G04 #@! TO.C,J6*
X99416666Y-146952380D02*
X99416666Y-147666666D01*
X99369047Y-147809523D01*
X99273809Y-147904761D01*
X99130952Y-147952380D01*
X99035714Y-147952380D01*
X100321428Y-146952380D02*
X100130952Y-146952380D01*
X100035714Y-147000000D01*
X99988095Y-147047619D01*
X99892857Y-147190476D01*
X99845238Y-147380952D01*
X99845238Y-147761904D01*
X99892857Y-147857142D01*
X99940476Y-147904761D01*
X100035714Y-147952380D01*
X100226190Y-147952380D01*
X100321428Y-147904761D01*
X100369047Y-147857142D01*
X100416666Y-147761904D01*
X100416666Y-147523809D01*
X100369047Y-147428571D01*
X100321428Y-147380952D01*
X100226190Y-147333333D01*
X100035714Y-147333333D01*
X99940476Y-147380952D01*
X99892857Y-147428571D01*
X99845238Y-147523809D01*
G04 #@! TO.C,J3*
X88916666Y-124702380D02*
X88916666Y-125416666D01*
X88869047Y-125559523D01*
X88773809Y-125654761D01*
X88630952Y-125702380D01*
X88535714Y-125702380D01*
X89297619Y-124702380D02*
X89916666Y-124702380D01*
X89583333Y-125083333D01*
X89726190Y-125083333D01*
X89821428Y-125130952D01*
X89869047Y-125178571D01*
X89916666Y-125273809D01*
X89916666Y-125511904D01*
X89869047Y-125607142D01*
X89821428Y-125654761D01*
X89726190Y-125702380D01*
X89440476Y-125702380D01*
X89345238Y-125654761D01*
X89297619Y-125607142D01*
G04 #@! TO.C,J4*
X88916666Y-97702380D02*
X88916666Y-98416666D01*
X88869047Y-98559523D01*
X88773809Y-98654761D01*
X88630952Y-98702380D01*
X88535714Y-98702380D01*
X89821428Y-98035714D02*
X89821428Y-98702380D01*
X89583333Y-97654761D02*
X89345238Y-98369047D01*
X89964285Y-98369047D01*
G04 #@! TO.C,J7*
X88916666Y-110452380D02*
X88916666Y-111166666D01*
X88869047Y-111309523D01*
X88773809Y-111404761D01*
X88630952Y-111452380D01*
X88535714Y-111452380D01*
X89297619Y-110452380D02*
X89964285Y-110452380D01*
X89535714Y-111452380D01*
G04 #@! TO.C,Q1*
D17*
X82110714Y-104071428D02*
X82075000Y-104142857D01*
X82003571Y-104214285D01*
X81896428Y-104321428D01*
X81860714Y-104392857D01*
X81860714Y-104464285D01*
X82039285Y-104428571D02*
X82003571Y-104500000D01*
X81932142Y-104571428D01*
X81789285Y-104607142D01*
X81539285Y-104607142D01*
X81396428Y-104571428D01*
X81325000Y-104500000D01*
X81289285Y-104428571D01*
X81289285Y-104285714D01*
X81325000Y-104214285D01*
X81396428Y-104142857D01*
X81539285Y-104107142D01*
X81789285Y-104107142D01*
X81932142Y-104142857D01*
X82003571Y-104214285D01*
X82039285Y-104285714D01*
X82039285Y-104428571D01*
X82039285Y-103392857D02*
X82039285Y-103821428D01*
X82039285Y-103607142D02*
X81289285Y-103607142D01*
X81396428Y-103678571D01*
X81467857Y-103750000D01*
X81503571Y-103821428D01*
G04 #@! TO.C,Q2*
X81910714Y-117821428D02*
X81875000Y-117892857D01*
X81803571Y-117964285D01*
X81696428Y-118071428D01*
X81660714Y-118142857D01*
X81660714Y-118214285D01*
X81839285Y-118178571D02*
X81803571Y-118250000D01*
X81732142Y-118321428D01*
X81589285Y-118357142D01*
X81339285Y-118357142D01*
X81196428Y-118321428D01*
X81125000Y-118250000D01*
X81089285Y-118178571D01*
X81089285Y-118035714D01*
X81125000Y-117964285D01*
X81196428Y-117892857D01*
X81339285Y-117857142D01*
X81589285Y-117857142D01*
X81732142Y-117892857D01*
X81803571Y-117964285D01*
X81839285Y-118035714D01*
X81839285Y-118178571D01*
X81160714Y-117571428D02*
X81125000Y-117535714D01*
X81089285Y-117464285D01*
X81089285Y-117285714D01*
X81125000Y-117214285D01*
X81160714Y-117178571D01*
X81232142Y-117142857D01*
X81303571Y-117142857D01*
X81410714Y-117178571D01*
X81839285Y-117607142D01*
X81839285Y-117142857D01*
G04 #@! TO.C,R1*
D11*
X53452380Y-101916666D02*
X52976190Y-102250000D01*
X53452380Y-102488095D02*
X52452380Y-102488095D01*
X52452380Y-102107142D01*
X52500000Y-102011904D01*
X52547619Y-101964285D01*
X52642857Y-101916666D01*
X52785714Y-101916666D01*
X52880952Y-101964285D01*
X52928571Y-102011904D01*
X52976190Y-102107142D01*
X52976190Y-102488095D01*
X53452380Y-100964285D02*
X53452380Y-101535714D01*
X53452380Y-101250000D02*
X52452380Y-101250000D01*
X52595238Y-101345238D01*
X52690476Y-101440476D01*
X52738095Y-101535714D01*
G04 #@! TO.C,R2*
X55202380Y-101916666D02*
X54726190Y-102250000D01*
X55202380Y-102488095D02*
X54202380Y-102488095D01*
X54202380Y-102107142D01*
X54250000Y-102011904D01*
X54297619Y-101964285D01*
X54392857Y-101916666D01*
X54535714Y-101916666D01*
X54630952Y-101964285D01*
X54678571Y-102011904D01*
X54726190Y-102107142D01*
X54726190Y-102488095D01*
X54297619Y-101535714D02*
X54250000Y-101488095D01*
X54202380Y-101392857D01*
X54202380Y-101154761D01*
X54250000Y-101059523D01*
X54297619Y-101011904D01*
X54392857Y-100964285D01*
X54488095Y-100964285D01*
X54630952Y-101011904D01*
X55202380Y-101583333D01*
X55202380Y-100964285D01*
G04 #@! TO.C,R3*
X56952380Y-101916666D02*
X56476190Y-102250000D01*
X56952380Y-102488095D02*
X55952380Y-102488095D01*
X55952380Y-102107142D01*
X56000000Y-102011904D01*
X56047619Y-101964285D01*
X56142857Y-101916666D01*
X56285714Y-101916666D01*
X56380952Y-101964285D01*
X56428571Y-102011904D01*
X56476190Y-102107142D01*
X56476190Y-102488095D01*
X55952380Y-101583333D02*
X55952380Y-100964285D01*
X56333333Y-101297619D01*
X56333333Y-101154761D01*
X56380952Y-101059523D01*
X56428571Y-101011904D01*
X56523809Y-100964285D01*
X56761904Y-100964285D01*
X56857142Y-101011904D01*
X56904761Y-101059523D01*
X56952380Y-101154761D01*
X56952380Y-101440476D01*
X56904761Y-101535714D01*
X56857142Y-101583333D01*
G04 #@! TO.C,R4*
X81083333Y-107952380D02*
X80750000Y-107476190D01*
X80511904Y-107952380D02*
X80511904Y-106952380D01*
X80892857Y-106952380D01*
X80988095Y-107000000D01*
X81035714Y-107047619D01*
X81083333Y-107142857D01*
X81083333Y-107285714D01*
X81035714Y-107380952D01*
X80988095Y-107428571D01*
X80892857Y-107476190D01*
X80511904Y-107476190D01*
X81940476Y-107285714D02*
X81940476Y-107952380D01*
X81702380Y-106904761D02*
X81464285Y-107619047D01*
X82083333Y-107619047D01*
G04 #@! TO.C,R5*
X81083333Y-114702380D02*
X80750000Y-114226190D01*
X80511904Y-114702380D02*
X80511904Y-113702380D01*
X80892857Y-113702380D01*
X80988095Y-113750000D01*
X81035714Y-113797619D01*
X81083333Y-113892857D01*
X81083333Y-114035714D01*
X81035714Y-114130952D01*
X80988095Y-114178571D01*
X80892857Y-114226190D01*
X80511904Y-114226190D01*
X81988095Y-113702380D02*
X81511904Y-113702380D01*
X81464285Y-114178571D01*
X81511904Y-114130952D01*
X81607142Y-114083333D01*
X81845238Y-114083333D01*
X81940476Y-114130952D01*
X81988095Y-114178571D01*
X82035714Y-114273809D01*
X82035714Y-114511904D01*
X81988095Y-114607142D01*
X81940476Y-114654761D01*
X81845238Y-114702380D01*
X81607142Y-114702380D01*
X81511904Y-114654761D01*
X81464285Y-114607142D01*
G04 #@! TO.C,U1*
X71988095Y-112702380D02*
X71988095Y-113511904D01*
X72035714Y-113607142D01*
X72083333Y-113654761D01*
X72178571Y-113702380D01*
X72369047Y-113702380D01*
X72464285Y-113654761D01*
X72511904Y-113607142D01*
X72559523Y-113511904D01*
X72559523Y-112702380D01*
X73559523Y-113702380D02*
X72988095Y-113702380D01*
X73273809Y-113702380D02*
X73273809Y-112702380D01*
X73178571Y-112845238D01*
X73083333Y-112940476D01*
X72988095Y-112988095D01*
G04 #@! TD*
M02*
