M48
;DRILL file {KiCad (5.0.2)-1} date 5/24/2019 1:00:56 AM
;FORMAT={3:3/ absolute / metric / suppress leading zeros}
FMAT,2
METRIC,TZ
T1C0.400
T2C1.800
T3C2.000
T4C3.400
T5C3.000
%
G90
G05
T1
X56500Y-139750
X61250Y-146000
X66000Y-137500
X68750Y-146000
X70000Y-142500
X73000Y-131000
X74000Y-118000
X74000Y-120000
X74000Y-123500
X74500Y-111750
X75500Y-109000
X77000Y-136250
X78000Y-110250
X78750Y-119500
X78750Y-127000
X79000Y-107000
X79250Y-104500
X79250Y-133500
X81000Y-99500
X82000Y-94000
X85500Y-118750
X86500Y-97000
X89250Y-93750
X95500Y-97250
X98250Y-94250
X101250Y-99500
X102000Y-136250
X102000Y-140000
X102750Y-123250
X103000Y-110750
X106250Y-138750
X106750Y-101250
X106750Y-134250
X107000Y-108750
X107000Y-113750
X107000Y-121250
X107000Y-127000
T2
X90200Y-129500
X95700Y-129500
X90200Y-115150
X90200Y-119350
X95700Y-115150
X95700Y-119350
X90200Y-102400
X90200Y-106600
X95700Y-102400
X95700Y-106600
T3
X90250Y-141500
X90250Y-146500
X97250Y-141500
X97250Y-146500
X62250Y-93500
X62250Y-98500
X69250Y-93500
X69250Y-98500
X75250Y-141500
X75250Y-146500
X82250Y-141500
X82250Y-146500
X53500Y-121250
X53500Y-128250
X58500Y-121250
X58500Y-128250
T4
X53500Y-93500
X106500Y-93500
X106500Y-146500
X53500Y-146500
T5
X103000Y-104500
X103000Y-129500
X103000Y-117250
T0
M30
