G04 #@! TF.GenerationSoftware,KiCad,Pcbnew,(5.0.2)-1*
G04 #@! TF.CreationDate,2019-05-24T01:00:46-02:30*
G04 #@! TF.ProjectId,IndicatorLEDs_PCB,496e6469-6361-4746-9f72-4c4544735f50,rev?*
G04 #@! TF.SameCoordinates,Original*
G04 #@! TF.FileFunction,Copper,L2,Bot*
G04 #@! TF.FilePolarity,Positive*
%FSLAX46Y46*%
G04 Gerber Fmt 4.6, Leading zero omitted, Abs format (unit mm)*
G04 Created by KiCad (PCBNEW (5.0.2)-1) date 5/24/2019 1:00:46 AM*
%MOMM*%
%LPD*%
G01*
G04 APERTURE LIST*
G04 #@! TA.AperFunction,ComponentPad*
%ADD10C,6.000000*%
G04 #@! TD*
G04 #@! TA.AperFunction,ComponentPad*
%ADD11O,2.150000X4.000000*%
G04 #@! TD*
G04 #@! TA.AperFunction,ComponentPad*
%ADD12O,4.000000X2.150000*%
G04 #@! TD*
G04 #@! TA.AperFunction,ComponentPad*
%ADD13C,3.000000*%
G04 #@! TD*
G04 #@! TA.AperFunction,ComponentPad*
%ADD14R,3.000000X3.000000*%
G04 #@! TD*
G04 #@! TA.AperFunction,ViaPad*
%ADD15C,0.600000*%
G04 #@! TD*
G04 #@! TA.AperFunction,Conductor*
%ADD16C,0.152400*%
G04 #@! TD*
G04 #@! TA.AperFunction,Conductor*
%ADD17C,0.635000*%
G04 #@! TD*
G04 #@! TA.AperFunction,Conductor*
%ADD18C,0.540000*%
G04 #@! TD*
G04 APERTURE END LIST*
D10*
G04 #@! TO.P,H1,1*
G04 #@! TO.N,Net-(H1-Pad1)*
X53500000Y-146500000D03*
G04 #@! TD*
G04 #@! TO.P,H2,1*
G04 #@! TO.N,Net-(H2-Pad1)*
X106500000Y-146500000D03*
G04 #@! TD*
G04 #@! TO.P,H3,1*
G04 #@! TO.N,Net-(H3-Pad1)*
X106500000Y-93500000D03*
G04 #@! TD*
G04 #@! TO.P,H4,1*
G04 #@! TO.N,Net-(H4-Pad1)*
X53500000Y-93500000D03*
G04 #@! TD*
D11*
G04 #@! TO.P,J1,1*
G04 #@! TO.N,/HV_Contactor_+*
X62250000Y-93500000D03*
X69250000Y-93500000D03*
X69250000Y-98500000D03*
X62250000Y-98500000D03*
G04 #@! TD*
D12*
G04 #@! TO.P,J2,1*
G04 #@! TO.N,ISO_GND*
X53500000Y-121250000D03*
X53500000Y-128250000D03*
X58500000Y-128250000D03*
X58500000Y-121250000D03*
G04 #@! TD*
D11*
G04 #@! TO.P,J5,1*
G04 #@! TO.N,+12V*
X75250000Y-141500000D03*
X82250000Y-141500000D03*
X82250000Y-146500000D03*
X75250000Y-146500000D03*
G04 #@! TD*
G04 #@! TO.P,J6,1*
G04 #@! TO.N,GND*
X90250000Y-146500000D03*
X97250000Y-146500000D03*
X97250000Y-141500000D03*
X90250000Y-141500000D03*
G04 #@! TD*
D13*
G04 #@! TO.P,J3,2*
G04 #@! TO.N,/BMS_Shorted_I*
X90200000Y-129500000D03*
D14*
G04 #@! TO.P,J3,1*
G04 #@! TO.N,GND*
X95700000Y-129500000D03*
G04 #@! TD*
D13*
G04 #@! TO.P,J4,4*
G04 #@! TO.N,/GREEN_LED_FRONT*
X90200000Y-106600000D03*
G04 #@! TO.P,J4,3*
G04 #@! TO.N,/RED_LED_FRONT*
X90200000Y-102400000D03*
G04 #@! TO.P,J4,2*
G04 #@! TO.N,GND*
X95700000Y-106600000D03*
D14*
G04 #@! TO.P,J4,1*
X95700000Y-102400000D03*
G04 #@! TD*
G04 #@! TO.P,J7,1*
G04 #@! TO.N,GND*
X95700000Y-115150000D03*
D13*
G04 #@! TO.P,J7,2*
X95700000Y-119350000D03*
G04 #@! TO.P,J7,3*
G04 #@! TO.N,/RED_LED_FRONT*
X90200000Y-115150000D03*
G04 #@! TO.P,J7,4*
G04 #@! TO.N,/GREEN_LED_FRONT*
X90200000Y-119350000D03*
G04 #@! TD*
D15*
G04 #@! TO.N,GND*
X74000000Y-118000000D03*
X74000000Y-120000000D03*
X74000000Y-123500000D03*
X73000000Y-131000000D03*
X66000000Y-137500000D03*
X56500000Y-139750000D03*
X61250000Y-146000000D03*
X68750000Y-146000000D03*
X70000000Y-142500000D03*
X77000000Y-136250000D03*
X79250000Y-133500000D03*
X78750000Y-127000000D03*
X78750000Y-119500000D03*
X74500000Y-111750000D03*
X78000000Y-110250000D03*
X75500000Y-109000000D03*
X79000000Y-107000000D03*
X79250000Y-104500000D03*
X81000000Y-99500000D03*
X82000000Y-94000000D03*
X89250000Y-93750000D03*
X98250000Y-94250000D03*
X95500000Y-97250000D03*
X86500000Y-97000000D03*
X101250000Y-99500000D03*
X106750000Y-101250000D03*
X107000000Y-108750000D03*
X103000000Y-110750000D03*
X107000000Y-113750000D03*
X107000000Y-121250000D03*
X102750000Y-123250000D03*
X107000000Y-127000000D03*
X106750000Y-134250000D03*
X102000000Y-136250000D03*
X106250000Y-138750000D03*
X102000000Y-140000000D03*
G04 #@! TO.N,/GREEN_LED_FRONT*
X85500000Y-118750000D03*
G04 #@! TD*
D16*
G04 #@! TO.N,GND*
X74000000Y-120000000D02*
X74000000Y-123500000D01*
X73000000Y-131000000D02*
X66500000Y-137500000D01*
X66500000Y-137500000D02*
X66000000Y-137500000D01*
X56500000Y-139750000D02*
X61250000Y-144500000D01*
X61250000Y-144500000D02*
X61250000Y-146000000D01*
X68750000Y-146000000D02*
X68750000Y-143750000D01*
X68750000Y-143750000D02*
X70000000Y-142500000D01*
X77000000Y-136250000D02*
X77000000Y-135750000D01*
X77000000Y-135750000D02*
X79250000Y-133500000D01*
X78750000Y-127000000D02*
X78750000Y-119500000D01*
X74000000Y-118000000D02*
X74000000Y-112250000D01*
X74000000Y-112250000D02*
X74500000Y-111750000D01*
X78000000Y-110250000D02*
X76750000Y-110250000D01*
X76750000Y-110250000D02*
X75500000Y-109000000D01*
X79000000Y-107000000D02*
X79000000Y-104750000D01*
X79000000Y-104750000D02*
X79250000Y-104500000D01*
X81000000Y-99500000D02*
X82000000Y-98500000D01*
X82000000Y-98500000D02*
X82000000Y-94000000D01*
X89250000Y-93750000D02*
X89750000Y-94250000D01*
X89750000Y-94250000D02*
X98250000Y-94250000D01*
X95500000Y-97250000D02*
X86750000Y-97250000D01*
X86750000Y-97250000D02*
X86500000Y-97000000D01*
X105750000Y-101250000D02*
X106750000Y-101250000D01*
X104750000Y-100250000D02*
X105750000Y-101250000D01*
X101250000Y-99500000D02*
X102000000Y-100250000D01*
X102000000Y-100250000D02*
X104750000Y-100250000D01*
X107000000Y-108750000D02*
X105000000Y-108750000D01*
X105000000Y-108750000D02*
X103000000Y-110750000D01*
X107000000Y-113750000D02*
X107000000Y-121250000D01*
X102750000Y-123250000D02*
X106500000Y-127000000D01*
X106500000Y-127000000D02*
X107000000Y-127000000D01*
X106750000Y-134250000D02*
X104750000Y-136250000D01*
X104750000Y-136250000D02*
X102000000Y-136250000D01*
X106250000Y-138750000D02*
X105000000Y-140000000D01*
X105000000Y-140000000D02*
X102000000Y-140000000D01*
D17*
G04 #@! TO.N,/GREEN_LED_FRONT*
X89600000Y-118750000D02*
X90200000Y-119350000D01*
X85500000Y-118750000D02*
X89600000Y-118750000D01*
G04 #@! TD*
D18*
G04 #@! TO.N,GND*
G36*
X101230000Y-92451732D02*
X101230000Y-94548268D01*
X102032310Y-96485215D01*
X103514785Y-97967690D01*
X105451732Y-98770000D01*
X107548268Y-98770000D01*
X107630001Y-98736145D01*
X107630000Y-141263855D01*
X107548268Y-141230000D01*
X105451732Y-141230000D01*
X103514785Y-142032310D01*
X102032310Y-143514785D01*
X101230000Y-145451732D01*
X101230000Y-147548268D01*
X101263855Y-147630000D01*
X99103000Y-147630000D01*
X99103000Y-146730000D01*
X97480000Y-146730000D01*
X97480000Y-146750000D01*
X97020000Y-146750000D01*
X97020000Y-146730000D01*
X95397000Y-146730000D01*
X95397000Y-147630000D01*
X92103000Y-147630000D01*
X92103000Y-146730000D01*
X90480000Y-146730000D01*
X90480000Y-146750000D01*
X90020000Y-146750000D01*
X90020000Y-146730000D01*
X88397000Y-146730000D01*
X88397000Y-147630000D01*
X85595000Y-147630000D01*
X85595000Y-145245548D01*
X85400921Y-144269846D01*
X85220615Y-144000000D01*
X85400921Y-143730154D01*
X85595000Y-142754452D01*
X85595000Y-141730000D01*
X88397000Y-141730000D01*
X88397000Y-142655000D01*
X88626068Y-143346605D01*
X89102365Y-143897904D01*
X89312719Y-144000000D01*
X89102365Y-144102096D01*
X88626068Y-144653395D01*
X88397000Y-145345000D01*
X88397000Y-146270000D01*
X90020000Y-146270000D01*
X90020000Y-141730000D01*
X90480000Y-141730000D01*
X90480000Y-146270000D01*
X92103000Y-146270000D01*
X92103000Y-145345000D01*
X91873932Y-144653395D01*
X91397635Y-144102096D01*
X91187281Y-144000000D01*
X91397635Y-143897904D01*
X91873932Y-143346605D01*
X92103000Y-142655000D01*
X92103000Y-141730000D01*
X95397000Y-141730000D01*
X95397000Y-142655000D01*
X95626068Y-143346605D01*
X96102365Y-143897904D01*
X96312719Y-144000000D01*
X96102365Y-144102096D01*
X95626068Y-144653395D01*
X95397000Y-145345000D01*
X95397000Y-146270000D01*
X97020000Y-146270000D01*
X97020000Y-141730000D01*
X97480000Y-141730000D01*
X97480000Y-146270000D01*
X99103000Y-146270000D01*
X99103000Y-145345000D01*
X98873932Y-144653395D01*
X98397635Y-144102096D01*
X98187281Y-144000000D01*
X98397635Y-143897904D01*
X98873932Y-143346605D01*
X99103000Y-142655000D01*
X99103000Y-141730000D01*
X97480000Y-141730000D01*
X97020000Y-141730000D01*
X95397000Y-141730000D01*
X92103000Y-141730000D01*
X90480000Y-141730000D01*
X90020000Y-141730000D01*
X88397000Y-141730000D01*
X85595000Y-141730000D01*
X85595000Y-140345000D01*
X88397000Y-140345000D01*
X88397000Y-141270000D01*
X90020000Y-141270000D01*
X90020000Y-138932526D01*
X90480000Y-138932526D01*
X90480000Y-141270000D01*
X92103000Y-141270000D01*
X92103000Y-140345000D01*
X95397000Y-140345000D01*
X95397000Y-141270000D01*
X97020000Y-141270000D01*
X97020000Y-138932526D01*
X97480000Y-138932526D01*
X97480000Y-141270000D01*
X99103000Y-141270000D01*
X99103000Y-140345000D01*
X98873932Y-139653395D01*
X98397635Y-139102096D01*
X97764800Y-138794947D01*
X97480000Y-138932526D01*
X97020000Y-138932526D01*
X96735200Y-138794947D01*
X96102365Y-139102096D01*
X95626068Y-139653395D01*
X95397000Y-140345000D01*
X92103000Y-140345000D01*
X91873932Y-139653395D01*
X91397635Y-139102096D01*
X90764800Y-138794947D01*
X90480000Y-138932526D01*
X90020000Y-138932526D01*
X89735200Y-138794947D01*
X89102365Y-139102096D01*
X88626068Y-139653395D01*
X88397000Y-140345000D01*
X85595000Y-140345000D01*
X85595000Y-140245548D01*
X85400921Y-139269846D01*
X84661610Y-138163390D01*
X83555153Y-137424079D01*
X82250000Y-137164468D01*
X80944846Y-137424079D01*
X79838390Y-138163390D01*
X79099079Y-139269847D01*
X78905000Y-140245549D01*
X78905000Y-142754452D01*
X79099079Y-143730154D01*
X79279385Y-144000000D01*
X79099079Y-144269847D01*
X78905000Y-145245549D01*
X78905000Y-147630000D01*
X78595000Y-147630000D01*
X78595000Y-145245548D01*
X78400921Y-144269846D01*
X78220615Y-144000000D01*
X78400921Y-143730154D01*
X78595000Y-142754452D01*
X78595000Y-140245548D01*
X78400921Y-139269846D01*
X77661610Y-138163390D01*
X76555153Y-137424079D01*
X75250000Y-137164468D01*
X73944846Y-137424079D01*
X72838390Y-138163390D01*
X72099079Y-139269847D01*
X71905000Y-140245549D01*
X71905000Y-142754452D01*
X72099079Y-143730154D01*
X72279385Y-144000000D01*
X72099079Y-144269847D01*
X71905000Y-145245549D01*
X71905000Y-147630000D01*
X58736145Y-147630000D01*
X58770000Y-147548268D01*
X58770000Y-145451732D01*
X57967690Y-143514785D01*
X56485215Y-142032310D01*
X54548268Y-141230000D01*
X52451732Y-141230000D01*
X52370000Y-141263855D01*
X52370000Y-137383049D01*
X52796106Y-136980616D01*
X52959519Y-137059086D01*
X53120005Y-137108458D01*
X53270785Y-137182324D01*
X53633077Y-137266299D01*
X54092413Y-137335357D01*
X54266576Y-137370000D01*
X61483424Y-137370000D01*
X61602401Y-137346334D01*
X62310222Y-137274031D01*
X62475532Y-137243892D01*
X62641226Y-137216277D01*
X63631791Y-136969993D01*
X63984547Y-136852221D01*
X64924387Y-136454011D01*
X65254376Y-136282505D01*
X66120353Y-135742175D01*
X66320042Y-135594615D01*
X66419449Y-135521159D01*
X67190238Y-134852012D01*
X67350371Y-134689274D01*
X67451078Y-134586929D01*
X68103730Y-133810165D01*
X71465115Y-129851751D01*
X71678933Y-129605637D01*
X71784440Y-129457083D01*
X71896035Y-129313041D01*
X71913456Y-129284907D01*
X72239473Y-128750100D01*
X86430000Y-128750100D01*
X86430000Y-130249900D01*
X87003948Y-131635534D01*
X88064466Y-132696052D01*
X89450100Y-133270000D01*
X90949900Y-133270000D01*
X92335534Y-132696052D01*
X93396052Y-131635534D01*
X93508599Y-131363821D01*
X93540444Y-131440702D01*
X93759299Y-131659557D01*
X94045246Y-131778000D01*
X95275500Y-131778000D01*
X95470000Y-131583500D01*
X95470000Y-129730000D01*
X95930000Y-129730000D01*
X95930000Y-131583500D01*
X96124500Y-131778000D01*
X97354754Y-131778000D01*
X97640701Y-131659557D01*
X97859556Y-131440702D01*
X97978000Y-131154754D01*
X97978000Y-129924500D01*
X97783500Y-129730000D01*
X95930000Y-129730000D01*
X95470000Y-129730000D01*
X95450000Y-129730000D01*
X95450000Y-129270000D01*
X95470000Y-129270000D01*
X95470000Y-127416500D01*
X95930000Y-127416500D01*
X95930000Y-129270000D01*
X97783500Y-129270000D01*
X97978000Y-129075500D01*
X97978000Y-128750100D01*
X99230000Y-128750100D01*
X99230000Y-130249900D01*
X99803948Y-131635534D01*
X100864466Y-132696052D01*
X102250100Y-133270000D01*
X103749900Y-133270000D01*
X105135534Y-132696052D01*
X106196052Y-131635534D01*
X106770000Y-130249900D01*
X106770000Y-128750100D01*
X106196052Y-127364466D01*
X105135534Y-126303948D01*
X103749900Y-125730000D01*
X102250100Y-125730000D01*
X100864466Y-126303948D01*
X99803948Y-127364466D01*
X99230000Y-128750100D01*
X97978000Y-128750100D01*
X97978000Y-127845246D01*
X97859556Y-127559298D01*
X97640701Y-127340443D01*
X97354754Y-127222000D01*
X96124500Y-127222000D01*
X95930000Y-127416500D01*
X95470000Y-127416500D01*
X95275500Y-127222000D01*
X94045246Y-127222000D01*
X93759299Y-127340443D01*
X93540444Y-127559298D01*
X93508599Y-127636179D01*
X93396052Y-127364466D01*
X92335534Y-126303948D01*
X90949900Y-125730000D01*
X89450100Y-125730000D01*
X88064466Y-126303948D01*
X87003948Y-127364466D01*
X86430000Y-128750100D01*
X72239473Y-128750100D01*
X72344447Y-128577899D01*
X72437835Y-128384428D01*
X72533891Y-128192327D01*
X72545516Y-128161346D01*
X72830974Y-127384088D01*
X72885002Y-127176172D01*
X72941918Y-126969065D01*
X72947304Y-126936415D01*
X73012009Y-126526331D01*
X73120000Y-125983424D01*
X73120000Y-118750000D01*
X82861808Y-118750000D01*
X82930000Y-119092825D01*
X82930000Y-119261205D01*
X82994436Y-119416767D01*
X83062628Y-119759592D01*
X83256822Y-120050224D01*
X83321259Y-120205788D01*
X83440324Y-120324853D01*
X83634517Y-120615483D01*
X83925147Y-120809676D01*
X84044212Y-120928741D01*
X84199776Y-120993178D01*
X84490408Y-121187372D01*
X84833232Y-121255564D01*
X84988795Y-121320000D01*
X85157175Y-121320000D01*
X85245154Y-121337500D01*
X86942630Y-121337500D01*
X87003948Y-121485534D01*
X88064466Y-122546052D01*
X89450100Y-123120000D01*
X90949900Y-123120000D01*
X92335534Y-122546052D01*
X93396052Y-121485534D01*
X93593589Y-121008635D01*
X94366634Y-121008635D01*
X94527577Y-121355001D01*
X95384104Y-121651046D01*
X96288722Y-121596778D01*
X96872423Y-121355001D01*
X97033366Y-121008635D01*
X95700000Y-119675269D01*
X94366634Y-121008635D01*
X93593589Y-121008635D01*
X93778847Y-120561384D01*
X94041365Y-120683366D01*
X95374731Y-119350000D01*
X96025269Y-119350000D01*
X97358635Y-120683366D01*
X97705001Y-120522423D01*
X98001046Y-119665896D01*
X97946778Y-118761278D01*
X97705001Y-118177577D01*
X97358635Y-118016634D01*
X96025269Y-119350000D01*
X95374731Y-119350000D01*
X94041365Y-118016634D01*
X93778847Y-118138616D01*
X93410771Y-117250000D01*
X93508599Y-117013821D01*
X93540444Y-117090702D01*
X93759299Y-117309557D01*
X94045246Y-117428000D01*
X94489010Y-117428000D01*
X94366634Y-117691365D01*
X95700000Y-119024731D01*
X97033366Y-117691365D01*
X96910990Y-117428000D01*
X97354754Y-117428000D01*
X97640701Y-117309557D01*
X97859556Y-117090702D01*
X97978000Y-116804754D01*
X97978000Y-116500100D01*
X99230000Y-116500100D01*
X99230000Y-117999900D01*
X99803948Y-119385534D01*
X100864466Y-120446052D01*
X102250100Y-121020000D01*
X103749900Y-121020000D01*
X105135534Y-120446052D01*
X106196052Y-119385534D01*
X106770000Y-117999900D01*
X106770000Y-116500100D01*
X106196052Y-115114466D01*
X105135534Y-114053948D01*
X103749900Y-113480000D01*
X102250100Y-113480000D01*
X100864466Y-114053948D01*
X99803948Y-115114466D01*
X99230000Y-116500100D01*
X97978000Y-116500100D01*
X97978000Y-115574500D01*
X97783500Y-115380000D01*
X95930000Y-115380000D01*
X95930000Y-115400000D01*
X95470000Y-115400000D01*
X95470000Y-115380000D01*
X95450000Y-115380000D01*
X95450000Y-114920000D01*
X95470000Y-114920000D01*
X95470000Y-113066500D01*
X95930000Y-113066500D01*
X95930000Y-114920000D01*
X97783500Y-114920000D01*
X97978000Y-114725500D01*
X97978000Y-113495246D01*
X97859556Y-113209298D01*
X97640701Y-112990443D01*
X97354754Y-112872000D01*
X96124500Y-112872000D01*
X95930000Y-113066500D01*
X95470000Y-113066500D01*
X95275500Y-112872000D01*
X94045246Y-112872000D01*
X93759299Y-112990443D01*
X93540444Y-113209298D01*
X93508599Y-113286179D01*
X93396052Y-113014466D01*
X92335534Y-111953948D01*
X90949900Y-111380000D01*
X89450100Y-111380000D01*
X88064466Y-111953948D01*
X87003948Y-113014466D01*
X86430000Y-114400100D01*
X86430000Y-115899900D01*
X86538772Y-116162500D01*
X85245154Y-116162500D01*
X85157175Y-116180000D01*
X84988795Y-116180000D01*
X84833232Y-116244436D01*
X84490408Y-116312628D01*
X84199776Y-116506822D01*
X84044212Y-116571259D01*
X83925147Y-116690324D01*
X83634517Y-116884517D01*
X83440324Y-117175147D01*
X83321259Y-117294212D01*
X83256822Y-117449776D01*
X83062628Y-117740408D01*
X82994436Y-118083233D01*
X82930000Y-118238795D01*
X82930000Y-118407175D01*
X82861808Y-118750000D01*
X73120000Y-118750000D01*
X73120000Y-109731685D01*
X79340898Y-103510788D01*
X79732491Y-102924728D01*
X79778218Y-102694843D01*
X79875819Y-102461213D01*
X79923969Y-102310096D01*
X79978221Y-102161039D01*
X80115126Y-101650100D01*
X86430000Y-101650100D01*
X86430000Y-103149900D01*
X86989229Y-104500000D01*
X86430000Y-105850100D01*
X86430000Y-107349900D01*
X87003948Y-108735534D01*
X88064466Y-109796052D01*
X89450100Y-110370000D01*
X90949900Y-110370000D01*
X92335534Y-109796052D01*
X93396052Y-108735534D01*
X93593589Y-108258635D01*
X94366634Y-108258635D01*
X94527577Y-108605001D01*
X95384104Y-108901046D01*
X96288722Y-108846778D01*
X96872423Y-108605001D01*
X97033366Y-108258635D01*
X95700000Y-106925269D01*
X94366634Y-108258635D01*
X93593589Y-108258635D01*
X93778847Y-107811384D01*
X94041365Y-107933366D01*
X95374731Y-106600000D01*
X96025269Y-106600000D01*
X97358635Y-107933366D01*
X97705001Y-107772423D01*
X98001046Y-106915896D01*
X97946778Y-106011278D01*
X97705001Y-105427577D01*
X97358635Y-105266634D01*
X96025269Y-106600000D01*
X95374731Y-106600000D01*
X94041365Y-105266634D01*
X93778847Y-105388616D01*
X93410771Y-104500000D01*
X93508599Y-104263821D01*
X93540444Y-104340702D01*
X93759299Y-104559557D01*
X94045246Y-104678000D01*
X94489010Y-104678000D01*
X94366634Y-104941365D01*
X95700000Y-106274731D01*
X97033366Y-104941365D01*
X96910990Y-104678000D01*
X97354754Y-104678000D01*
X97640701Y-104559557D01*
X97859556Y-104340702D01*
X97978000Y-104054754D01*
X97978000Y-103750100D01*
X99230000Y-103750100D01*
X99230000Y-105249900D01*
X99803948Y-106635534D01*
X100864466Y-107696052D01*
X102250100Y-108270000D01*
X103749900Y-108270000D01*
X105135534Y-107696052D01*
X106196052Y-106635534D01*
X106770000Y-105249900D01*
X106770000Y-103750100D01*
X106196052Y-102364466D01*
X105135534Y-101303948D01*
X103749900Y-100730000D01*
X102250100Y-100730000D01*
X100864466Y-101303948D01*
X99803948Y-102364466D01*
X99230000Y-103750100D01*
X97978000Y-103750100D01*
X97978000Y-102824500D01*
X97783500Y-102630000D01*
X95930000Y-102630000D01*
X95930000Y-102650000D01*
X95470000Y-102650000D01*
X95470000Y-102630000D01*
X95450000Y-102630000D01*
X95450000Y-102170000D01*
X95470000Y-102170000D01*
X95470000Y-100316500D01*
X95930000Y-100316500D01*
X95930000Y-102170000D01*
X97783500Y-102170000D01*
X97978000Y-101975500D01*
X97978000Y-100745246D01*
X97859556Y-100459298D01*
X97640701Y-100240443D01*
X97354754Y-100122000D01*
X96124500Y-100122000D01*
X95930000Y-100316500D01*
X95470000Y-100316500D01*
X95275500Y-100122000D01*
X94045246Y-100122000D01*
X93759299Y-100240443D01*
X93540444Y-100459298D01*
X93508599Y-100536179D01*
X93396052Y-100264466D01*
X92335534Y-99203948D01*
X90949900Y-98630000D01*
X89450100Y-98630000D01*
X88064466Y-99203948D01*
X87003948Y-100264466D01*
X86430000Y-101650100D01*
X80115126Y-101650100D01*
X80215343Y-101276085D01*
X80250751Y-101075272D01*
X80287079Y-100869246D01*
X80360322Y-100032079D01*
X80370000Y-99983424D01*
X80370000Y-93016576D01*
X80241388Y-92370000D01*
X101263855Y-92370000D01*
X101230000Y-92451732D01*
X101230000Y-92451732D01*
G37*
X101230000Y-92451732D02*
X101230000Y-94548268D01*
X102032310Y-96485215D01*
X103514785Y-97967690D01*
X105451732Y-98770000D01*
X107548268Y-98770000D01*
X107630001Y-98736145D01*
X107630000Y-141263855D01*
X107548268Y-141230000D01*
X105451732Y-141230000D01*
X103514785Y-142032310D01*
X102032310Y-143514785D01*
X101230000Y-145451732D01*
X101230000Y-147548268D01*
X101263855Y-147630000D01*
X99103000Y-147630000D01*
X99103000Y-146730000D01*
X97480000Y-146730000D01*
X97480000Y-146750000D01*
X97020000Y-146750000D01*
X97020000Y-146730000D01*
X95397000Y-146730000D01*
X95397000Y-147630000D01*
X92103000Y-147630000D01*
X92103000Y-146730000D01*
X90480000Y-146730000D01*
X90480000Y-146750000D01*
X90020000Y-146750000D01*
X90020000Y-146730000D01*
X88397000Y-146730000D01*
X88397000Y-147630000D01*
X85595000Y-147630000D01*
X85595000Y-145245548D01*
X85400921Y-144269846D01*
X85220615Y-144000000D01*
X85400921Y-143730154D01*
X85595000Y-142754452D01*
X85595000Y-141730000D01*
X88397000Y-141730000D01*
X88397000Y-142655000D01*
X88626068Y-143346605D01*
X89102365Y-143897904D01*
X89312719Y-144000000D01*
X89102365Y-144102096D01*
X88626068Y-144653395D01*
X88397000Y-145345000D01*
X88397000Y-146270000D01*
X90020000Y-146270000D01*
X90020000Y-141730000D01*
X90480000Y-141730000D01*
X90480000Y-146270000D01*
X92103000Y-146270000D01*
X92103000Y-145345000D01*
X91873932Y-144653395D01*
X91397635Y-144102096D01*
X91187281Y-144000000D01*
X91397635Y-143897904D01*
X91873932Y-143346605D01*
X92103000Y-142655000D01*
X92103000Y-141730000D01*
X95397000Y-141730000D01*
X95397000Y-142655000D01*
X95626068Y-143346605D01*
X96102365Y-143897904D01*
X96312719Y-144000000D01*
X96102365Y-144102096D01*
X95626068Y-144653395D01*
X95397000Y-145345000D01*
X95397000Y-146270000D01*
X97020000Y-146270000D01*
X97020000Y-141730000D01*
X97480000Y-141730000D01*
X97480000Y-146270000D01*
X99103000Y-146270000D01*
X99103000Y-145345000D01*
X98873932Y-144653395D01*
X98397635Y-144102096D01*
X98187281Y-144000000D01*
X98397635Y-143897904D01*
X98873932Y-143346605D01*
X99103000Y-142655000D01*
X99103000Y-141730000D01*
X97480000Y-141730000D01*
X97020000Y-141730000D01*
X95397000Y-141730000D01*
X92103000Y-141730000D01*
X90480000Y-141730000D01*
X90020000Y-141730000D01*
X88397000Y-141730000D01*
X85595000Y-141730000D01*
X85595000Y-140345000D01*
X88397000Y-140345000D01*
X88397000Y-141270000D01*
X90020000Y-141270000D01*
X90020000Y-138932526D01*
X90480000Y-138932526D01*
X90480000Y-141270000D01*
X92103000Y-141270000D01*
X92103000Y-140345000D01*
X95397000Y-140345000D01*
X95397000Y-141270000D01*
X97020000Y-141270000D01*
X97020000Y-138932526D01*
X97480000Y-138932526D01*
X97480000Y-141270000D01*
X99103000Y-141270000D01*
X99103000Y-140345000D01*
X98873932Y-139653395D01*
X98397635Y-139102096D01*
X97764800Y-138794947D01*
X97480000Y-138932526D01*
X97020000Y-138932526D01*
X96735200Y-138794947D01*
X96102365Y-139102096D01*
X95626068Y-139653395D01*
X95397000Y-140345000D01*
X92103000Y-140345000D01*
X91873932Y-139653395D01*
X91397635Y-139102096D01*
X90764800Y-138794947D01*
X90480000Y-138932526D01*
X90020000Y-138932526D01*
X89735200Y-138794947D01*
X89102365Y-139102096D01*
X88626068Y-139653395D01*
X88397000Y-140345000D01*
X85595000Y-140345000D01*
X85595000Y-140245548D01*
X85400921Y-139269846D01*
X84661610Y-138163390D01*
X83555153Y-137424079D01*
X82250000Y-137164468D01*
X80944846Y-137424079D01*
X79838390Y-138163390D01*
X79099079Y-139269847D01*
X78905000Y-140245549D01*
X78905000Y-142754452D01*
X79099079Y-143730154D01*
X79279385Y-144000000D01*
X79099079Y-144269847D01*
X78905000Y-145245549D01*
X78905000Y-147630000D01*
X78595000Y-147630000D01*
X78595000Y-145245548D01*
X78400921Y-144269846D01*
X78220615Y-144000000D01*
X78400921Y-143730154D01*
X78595000Y-142754452D01*
X78595000Y-140245548D01*
X78400921Y-139269846D01*
X77661610Y-138163390D01*
X76555153Y-137424079D01*
X75250000Y-137164468D01*
X73944846Y-137424079D01*
X72838390Y-138163390D01*
X72099079Y-139269847D01*
X71905000Y-140245549D01*
X71905000Y-142754452D01*
X72099079Y-143730154D01*
X72279385Y-144000000D01*
X72099079Y-144269847D01*
X71905000Y-145245549D01*
X71905000Y-147630000D01*
X58736145Y-147630000D01*
X58770000Y-147548268D01*
X58770000Y-145451732D01*
X57967690Y-143514785D01*
X56485215Y-142032310D01*
X54548268Y-141230000D01*
X52451732Y-141230000D01*
X52370000Y-141263855D01*
X52370000Y-137383049D01*
X52796106Y-136980616D01*
X52959519Y-137059086D01*
X53120005Y-137108458D01*
X53270785Y-137182324D01*
X53633077Y-137266299D01*
X54092413Y-137335357D01*
X54266576Y-137370000D01*
X61483424Y-137370000D01*
X61602401Y-137346334D01*
X62310222Y-137274031D01*
X62475532Y-137243892D01*
X62641226Y-137216277D01*
X63631791Y-136969993D01*
X63984547Y-136852221D01*
X64924387Y-136454011D01*
X65254376Y-136282505D01*
X66120353Y-135742175D01*
X66320042Y-135594615D01*
X66419449Y-135521159D01*
X67190238Y-134852012D01*
X67350371Y-134689274D01*
X67451078Y-134586929D01*
X68103730Y-133810165D01*
X71465115Y-129851751D01*
X71678933Y-129605637D01*
X71784440Y-129457083D01*
X71896035Y-129313041D01*
X71913456Y-129284907D01*
X72239473Y-128750100D01*
X86430000Y-128750100D01*
X86430000Y-130249900D01*
X87003948Y-131635534D01*
X88064466Y-132696052D01*
X89450100Y-133270000D01*
X90949900Y-133270000D01*
X92335534Y-132696052D01*
X93396052Y-131635534D01*
X93508599Y-131363821D01*
X93540444Y-131440702D01*
X93759299Y-131659557D01*
X94045246Y-131778000D01*
X95275500Y-131778000D01*
X95470000Y-131583500D01*
X95470000Y-129730000D01*
X95930000Y-129730000D01*
X95930000Y-131583500D01*
X96124500Y-131778000D01*
X97354754Y-131778000D01*
X97640701Y-131659557D01*
X97859556Y-131440702D01*
X97978000Y-131154754D01*
X97978000Y-129924500D01*
X97783500Y-129730000D01*
X95930000Y-129730000D01*
X95470000Y-129730000D01*
X95450000Y-129730000D01*
X95450000Y-129270000D01*
X95470000Y-129270000D01*
X95470000Y-127416500D01*
X95930000Y-127416500D01*
X95930000Y-129270000D01*
X97783500Y-129270000D01*
X97978000Y-129075500D01*
X97978000Y-128750100D01*
X99230000Y-128750100D01*
X99230000Y-130249900D01*
X99803948Y-131635534D01*
X100864466Y-132696052D01*
X102250100Y-133270000D01*
X103749900Y-133270000D01*
X105135534Y-132696052D01*
X106196052Y-131635534D01*
X106770000Y-130249900D01*
X106770000Y-128750100D01*
X106196052Y-127364466D01*
X105135534Y-126303948D01*
X103749900Y-125730000D01*
X102250100Y-125730000D01*
X100864466Y-126303948D01*
X99803948Y-127364466D01*
X99230000Y-128750100D01*
X97978000Y-128750100D01*
X97978000Y-127845246D01*
X97859556Y-127559298D01*
X97640701Y-127340443D01*
X97354754Y-127222000D01*
X96124500Y-127222000D01*
X95930000Y-127416500D01*
X95470000Y-127416500D01*
X95275500Y-127222000D01*
X94045246Y-127222000D01*
X93759299Y-127340443D01*
X93540444Y-127559298D01*
X93508599Y-127636179D01*
X93396052Y-127364466D01*
X92335534Y-126303948D01*
X90949900Y-125730000D01*
X89450100Y-125730000D01*
X88064466Y-126303948D01*
X87003948Y-127364466D01*
X86430000Y-128750100D01*
X72239473Y-128750100D01*
X72344447Y-128577899D01*
X72437835Y-128384428D01*
X72533891Y-128192327D01*
X72545516Y-128161346D01*
X72830974Y-127384088D01*
X72885002Y-127176172D01*
X72941918Y-126969065D01*
X72947304Y-126936415D01*
X73012009Y-126526331D01*
X73120000Y-125983424D01*
X73120000Y-118750000D01*
X82861808Y-118750000D01*
X82930000Y-119092825D01*
X82930000Y-119261205D01*
X82994436Y-119416767D01*
X83062628Y-119759592D01*
X83256822Y-120050224D01*
X83321259Y-120205788D01*
X83440324Y-120324853D01*
X83634517Y-120615483D01*
X83925147Y-120809676D01*
X84044212Y-120928741D01*
X84199776Y-120993178D01*
X84490408Y-121187372D01*
X84833232Y-121255564D01*
X84988795Y-121320000D01*
X85157175Y-121320000D01*
X85245154Y-121337500D01*
X86942630Y-121337500D01*
X87003948Y-121485534D01*
X88064466Y-122546052D01*
X89450100Y-123120000D01*
X90949900Y-123120000D01*
X92335534Y-122546052D01*
X93396052Y-121485534D01*
X93593589Y-121008635D01*
X94366634Y-121008635D01*
X94527577Y-121355001D01*
X95384104Y-121651046D01*
X96288722Y-121596778D01*
X96872423Y-121355001D01*
X97033366Y-121008635D01*
X95700000Y-119675269D01*
X94366634Y-121008635D01*
X93593589Y-121008635D01*
X93778847Y-120561384D01*
X94041365Y-120683366D01*
X95374731Y-119350000D01*
X96025269Y-119350000D01*
X97358635Y-120683366D01*
X97705001Y-120522423D01*
X98001046Y-119665896D01*
X97946778Y-118761278D01*
X97705001Y-118177577D01*
X97358635Y-118016634D01*
X96025269Y-119350000D01*
X95374731Y-119350000D01*
X94041365Y-118016634D01*
X93778847Y-118138616D01*
X93410771Y-117250000D01*
X93508599Y-117013821D01*
X93540444Y-117090702D01*
X93759299Y-117309557D01*
X94045246Y-117428000D01*
X94489010Y-117428000D01*
X94366634Y-117691365D01*
X95700000Y-119024731D01*
X97033366Y-117691365D01*
X96910990Y-117428000D01*
X97354754Y-117428000D01*
X97640701Y-117309557D01*
X97859556Y-117090702D01*
X97978000Y-116804754D01*
X97978000Y-116500100D01*
X99230000Y-116500100D01*
X99230000Y-117999900D01*
X99803948Y-119385534D01*
X100864466Y-120446052D01*
X102250100Y-121020000D01*
X103749900Y-121020000D01*
X105135534Y-120446052D01*
X106196052Y-119385534D01*
X106770000Y-117999900D01*
X106770000Y-116500100D01*
X106196052Y-115114466D01*
X105135534Y-114053948D01*
X103749900Y-113480000D01*
X102250100Y-113480000D01*
X100864466Y-114053948D01*
X99803948Y-115114466D01*
X99230000Y-116500100D01*
X97978000Y-116500100D01*
X97978000Y-115574500D01*
X97783500Y-115380000D01*
X95930000Y-115380000D01*
X95930000Y-115400000D01*
X95470000Y-115400000D01*
X95470000Y-115380000D01*
X95450000Y-115380000D01*
X95450000Y-114920000D01*
X95470000Y-114920000D01*
X95470000Y-113066500D01*
X95930000Y-113066500D01*
X95930000Y-114920000D01*
X97783500Y-114920000D01*
X97978000Y-114725500D01*
X97978000Y-113495246D01*
X97859556Y-113209298D01*
X97640701Y-112990443D01*
X97354754Y-112872000D01*
X96124500Y-112872000D01*
X95930000Y-113066500D01*
X95470000Y-113066500D01*
X95275500Y-112872000D01*
X94045246Y-112872000D01*
X93759299Y-112990443D01*
X93540444Y-113209298D01*
X93508599Y-113286179D01*
X93396052Y-113014466D01*
X92335534Y-111953948D01*
X90949900Y-111380000D01*
X89450100Y-111380000D01*
X88064466Y-111953948D01*
X87003948Y-113014466D01*
X86430000Y-114400100D01*
X86430000Y-115899900D01*
X86538772Y-116162500D01*
X85245154Y-116162500D01*
X85157175Y-116180000D01*
X84988795Y-116180000D01*
X84833232Y-116244436D01*
X84490408Y-116312628D01*
X84199776Y-116506822D01*
X84044212Y-116571259D01*
X83925147Y-116690324D01*
X83634517Y-116884517D01*
X83440324Y-117175147D01*
X83321259Y-117294212D01*
X83256822Y-117449776D01*
X83062628Y-117740408D01*
X82994436Y-118083233D01*
X82930000Y-118238795D01*
X82930000Y-118407175D01*
X82861808Y-118750000D01*
X73120000Y-118750000D01*
X73120000Y-109731685D01*
X79340898Y-103510788D01*
X79732491Y-102924728D01*
X79778218Y-102694843D01*
X79875819Y-102461213D01*
X79923969Y-102310096D01*
X79978221Y-102161039D01*
X80115126Y-101650100D01*
X86430000Y-101650100D01*
X86430000Y-103149900D01*
X86989229Y-104500000D01*
X86430000Y-105850100D01*
X86430000Y-107349900D01*
X87003948Y-108735534D01*
X88064466Y-109796052D01*
X89450100Y-110370000D01*
X90949900Y-110370000D01*
X92335534Y-109796052D01*
X93396052Y-108735534D01*
X93593589Y-108258635D01*
X94366634Y-108258635D01*
X94527577Y-108605001D01*
X95384104Y-108901046D01*
X96288722Y-108846778D01*
X96872423Y-108605001D01*
X97033366Y-108258635D01*
X95700000Y-106925269D01*
X94366634Y-108258635D01*
X93593589Y-108258635D01*
X93778847Y-107811384D01*
X94041365Y-107933366D01*
X95374731Y-106600000D01*
X96025269Y-106600000D01*
X97358635Y-107933366D01*
X97705001Y-107772423D01*
X98001046Y-106915896D01*
X97946778Y-106011278D01*
X97705001Y-105427577D01*
X97358635Y-105266634D01*
X96025269Y-106600000D01*
X95374731Y-106600000D01*
X94041365Y-105266634D01*
X93778847Y-105388616D01*
X93410771Y-104500000D01*
X93508599Y-104263821D01*
X93540444Y-104340702D01*
X93759299Y-104559557D01*
X94045246Y-104678000D01*
X94489010Y-104678000D01*
X94366634Y-104941365D01*
X95700000Y-106274731D01*
X97033366Y-104941365D01*
X96910990Y-104678000D01*
X97354754Y-104678000D01*
X97640701Y-104559557D01*
X97859556Y-104340702D01*
X97978000Y-104054754D01*
X97978000Y-103750100D01*
X99230000Y-103750100D01*
X99230000Y-105249900D01*
X99803948Y-106635534D01*
X100864466Y-107696052D01*
X102250100Y-108270000D01*
X103749900Y-108270000D01*
X105135534Y-107696052D01*
X106196052Y-106635534D01*
X106770000Y-105249900D01*
X106770000Y-103750100D01*
X106196052Y-102364466D01*
X105135534Y-101303948D01*
X103749900Y-100730000D01*
X102250100Y-100730000D01*
X100864466Y-101303948D01*
X99803948Y-102364466D01*
X99230000Y-103750100D01*
X97978000Y-103750100D01*
X97978000Y-102824500D01*
X97783500Y-102630000D01*
X95930000Y-102630000D01*
X95930000Y-102650000D01*
X95470000Y-102650000D01*
X95470000Y-102630000D01*
X95450000Y-102630000D01*
X95450000Y-102170000D01*
X95470000Y-102170000D01*
X95470000Y-100316500D01*
X95930000Y-100316500D01*
X95930000Y-102170000D01*
X97783500Y-102170000D01*
X97978000Y-101975500D01*
X97978000Y-100745246D01*
X97859556Y-100459298D01*
X97640701Y-100240443D01*
X97354754Y-100122000D01*
X96124500Y-100122000D01*
X95930000Y-100316500D01*
X95470000Y-100316500D01*
X95275500Y-100122000D01*
X94045246Y-100122000D01*
X93759299Y-100240443D01*
X93540444Y-100459298D01*
X93508599Y-100536179D01*
X93396052Y-100264466D01*
X92335534Y-99203948D01*
X90949900Y-98630000D01*
X89450100Y-98630000D01*
X88064466Y-99203948D01*
X87003948Y-100264466D01*
X86430000Y-101650100D01*
X80115126Y-101650100D01*
X80215343Y-101276085D01*
X80250751Y-101075272D01*
X80287079Y-100869246D01*
X80360322Y-100032079D01*
X80370000Y-99983424D01*
X80370000Y-93016576D01*
X80241388Y-92370000D01*
X101263855Y-92370000D01*
X101230000Y-92451732D01*
G04 #@! TD*
M02*
