M48
;DRILL file {KiCad 4.0.6} date 01/31/18 03:36:17
;FORMAT={-:-/ absolute / metric / decimal}
FMAT,2
METRIC,TZ
T1C0.300
T2C0.400
T3C0.600
T4C0.650
T5C0.700
T6C0.900
T7C1.000
T8C1.001
T9C1.200
T10C1.600
T11C1.780
T12C2.301
T13C3.500
%
G90
G05
M71
T1
X13.576Y-118.582
X13.576Y-120.082
X14.326Y-119.332
X15.076Y-118.582
X15.076Y-120.082
X38.45Y-32.525
X38.45Y-34.025
X39.2Y-33.275
X39.95Y-32.525
X39.95Y-34.025
T2
X1.778Y-48.966
X1.778Y-51.562
X2.032Y-56.134
X3.15Y-61.5
X3.55Y-6.35
X3.55Y-120.65
X3.556Y-12.827
X3.767Y-65.758
X4.064Y-63.5
X4.092Y-53.213
X4.37Y-4.37
X4.37Y-8.33
X4.37Y-118.67
X4.37Y-122.63
X4.725Y-52.67
X5.05Y-57.515
X5.4Y-61.45
X5.509Y-116.037
X5.514Y-65.837
X6.15Y-95.3
X6.35Y-3.55
X6.35Y-9.15
X6.35Y-56.615
X6.35Y-58.415
X6.35Y-117.85
X6.35Y-123.45
X7.Y-57.515
X7.65Y-56.615
X7.65Y-58.415
X8.33Y-4.37
X8.33Y-8.33
X8.33Y-118.67
X8.33Y-122.63
X8.95Y-57.515
X9.15Y-6.35
X9.15Y-120.65
X9.271Y-94.361
X9.398Y-26.797
X9.658Y-65.042
X9.779Y-95.123
X10.25Y-61.4
X10.44Y-65.4
X10.836Y-48.905
X11.3Y-122.527
X11.32Y-65.78
X11.49Y-63.1
X11.6Y-117.043
X11.806Y-88.412
X11.941Y-118.201
X12.12Y-63.73
X12.446Y-15.494
X12.532Y-124.752
X12.621Y-95.24
X12.65Y-59.7
X12.7Y-37.719
X12.74Y-64.35
X13.081Y-96.901
X13.16Y-49.004
X14.224Y-60.833
X15.05Y-20.32
X15.557Y-63.627
X15.748Y-50.419
X15.875Y-85.915
X15.875Y-88.392
X16.06Y-48.979
X17.272Y-21.907
X17.887Y-40.645
X18.506Y-53.195
X18.542Y-87.122
X19.431Y-52.832
X19.78Y-57.515
X19.812Y-96.647
X19.939Y-87.249
X20.03Y-61.625
X21.08Y-56.615
X21.08Y-58.415
X21.336Y-96.774
X21.4Y-61.49
X21.73Y-57.515
X21.76Y-114.91
X22.225Y-96.393
X22.38Y-56.615
X22.38Y-58.415
X22.65Y-62.9
X22.86Y-95.631
X23.68Y-57.515
X23.876Y-93.853
X24.033Y-47.701
X24.277Y-92.847
X24.892Y-89.662
X25.Y-61.35
X25.146Y-27.686
X25.527Y-62.992
X26.035Y-17.653
X26.408Y-115.052
X26.924Y-39.497
X26.924Y-40.894
X27.622Y-85.788
X28.Y-87.6
X29.45Y-86.15
X29.45Y-87.1
X29.604Y-55.618
X31.669Y-111.023
X34.099Y-52.133
X35.4Y-16.8
X35.425Y-28.25
X35.814Y-124.968
X36.068Y-115.57
X36.1Y-28.825
X36.875Y-35.5
X37.25Y-29.175
X38.55Y-29.375
X38.557Y-58.755
X38.735Y-115.824
X40.005Y-62.23
X40.249Y-54.793
X41.225Y-39.075
X41.99Y-35.89
X42.926Y-87.503
X44.255Y-34.725
X44.762Y-124.747
X44.958Y-57.658
X44.981Y-86.586
X45.6Y-45.5
X45.72Y-26.352
X46.355Y-57.658
X46.55Y-45.5
X46.99Y-80.01
X46.99Y-81.28
X47.48Y-35.85
X47.6Y-45.5
X50.008Y-116.759
X50.5Y-2.4
X50.9Y-9.5
X51.308Y-92.456
X52.1Y-4.4
X52.578Y-96.393
X53.594Y-100.457
X53.675Y-85.578
X55.166Y-86.7
X56.876Y-73.32
X57.15Y-113.792
X57.43Y-6.41
X57.43Y-13.01
X57.43Y-19.61
X57.43Y-26.21
X57.43Y-32.81
X57.43Y-39.41
X57.531Y-91.948
X58.877Y-9.347
X58.928Y-67.31
X59.5Y-2.4
X60.452Y-114.681
X60.823Y-92.182
X60.846Y-100.241
X61.468Y-68.58
X61.6Y-5.95
X61.6Y-12.55
X61.6Y-19.15
X61.6Y-25.75
X61.6Y-38.95
X61.918Y-89.258
X62.Y-2.4
X62.098Y-32.172
X62.4Y-48.7
X62.4Y-55.5
X62.5Y-47.
X62.5Y-53.7
X62.629Y-99.982
X62.738Y-85.344
X64.008Y-68.58
X64.8Y-11.2
X64.8Y-17.6
X64.8Y-24.2
X64.8Y-37.5
X64.821Y-95.286
X64.826Y-93.071
X64.9Y-31.
X65.56Y-4.1
X65.677Y-87.201
X65.7Y-8.21
X65.7Y-14.81
X65.7Y-21.41
X65.7Y-28.01
X65.7Y-34.61
X65.7Y-41.21
X66.421Y-65.786
X67.818Y-101.219
X68.961Y-87.249
X68.961Y-93.472
X69.004Y-67.12
X69.088Y-77.978
X69.469Y-105.41
X69.469Y-118.618
X69.49Y-15.57
X69.49Y-22.17
X69.49Y-28.77
X69.49Y-35.37
X69.49Y-41.97
X69.51Y-8.95
X69.596Y-89.916
X70.104Y-66.294
X71.12Y-75.565
X71.374Y-73.66
X71.755Y-77.216
X71.755Y-82.804
X71.755Y-106.108
X71.882Y-68.072
X72.771Y-50.292
X74.342Y-79.756
X74.905Y-114.498
X75.692Y-60.325
X75.692Y-64.516
X75.692Y-67.
X75.799Y-83.012
X76.454Y-51.562
X76.565Y-68.
X77.089Y-106.299
X77.297Y-75.316
X77.465Y-64.5
X77.465Y-66.
X77.47Y-60.325
X77.851Y-119.38
X78.359Y-78.74
X78.74Y-73.787
X79.248Y-85.217
X79.375Y-119.253
X79.4Y-2.4
X79.4Y-4.2
X79.4Y-9.6
X79.4Y-11.4
X79.4Y-15.8
X79.4Y-17.5
X79.4Y-22.8
X79.4Y-24.6
X79.4Y-29.3
X79.4Y-31.2
X81.471Y-100.203
X82.55Y-109.728
X82.55Y-123.825
X82.7Y-70.4
X82.804Y-67.31
X83.439Y-103.759
X83.566Y-106.743
X83.693Y-94.361
X84.201Y-77.978
X84.455Y-75.311
X84.455Y-96.647
X84.9Y-65.1
X85.743Y-107.752
X85.852Y-104.14
X86.487Y-72.517
X87.1Y-4.8
X87.1Y-18.
X87.2Y-16.1
X87.2Y-29.3
X87.376Y-122.682
X87.757Y-114.935
X88.138Y-102.362
X88.265Y-65.659
X88.265Y-97.917
X89.535Y-94.488
X89.916Y-106.1
X90.805Y-102.362
X90.805Y-115.443
X90.805Y-118.11
X91.059Y-110.236
X91.567Y-119.888
X91.63Y-42.164
X91.643Y-28.6
X91.694Y-15.494
X91.757Y-35.052
X91.757Y-55.054
X91.8Y-5.5
X91.8Y-18.7
X91.821Y-48.26
X91.821Y-93.027
X92.71Y-88.075
X92.9Y-4.4
X92.9Y-17.6
X93.472Y-107.061
X93.6Y-6.6
X93.6Y-19.8
X94.424Y-89.471
X94.742Y-97.409
X95.059Y-81.978
X95.123Y-111.379
X95.377Y-102.489
X96.139Y-84.01
X97.65Y-76.073
X97.917Y-110.363
X98.4Y-11.4
X98.4Y-24.6
X98.6Y-7.8
X98.6Y-21.
X99.25Y-3.95
X99.25Y-17.15
X99.949Y-88.138
X100.139Y-92.075
X100.15Y-81.9
X100.711Y-76.2
X101.219Y-106.108
X102.Y-76.35
X102.05Y-81.3
X103.2Y-6.6
X103.2Y-14.
X103.2Y-19.8
X103.2Y-27.2
X103.378Y-88.011
X103.632Y-71.501
X105.156Y-87.503
X105.461Y-40.787
X105.461Y-42.692
X105.461Y-44.597
X105.461Y-46.502
X106.236Y-84.391
X109.347Y-118.999
X109.474Y-114.681
X109.601Y-35.306
X111.709Y-42.316
X112.268Y-32.639
X112.776Y-12.319
X112.776Y-14.287
X112.8Y-36.1
X112.8Y-37.1
X112.8Y-38.1
X112.903Y-16.192
X112.903Y-18.034
X113.03Y-30.48
X113.284Y-25.654
X113.365Y-101.351
X113.792Y-48.006
X113.792Y-50.673
X113.792Y-93.218
X114.35Y-61.6
X115.57Y-92.329
X116.967Y-92.456
X117.6Y-29.95
X117.8Y-30.85
X117.85Y-6.35
X117.85Y-120.65
X117.856Y-46.736
X117.856Y-94.107
X118.67Y-4.37
X118.67Y-8.33
X118.67Y-118.67
X118.67Y-122.63
X118.821Y-39.776
X118.825Y-30.25
X118.999Y-38.544
X119.126Y-48.006
X119.15Y-36.
X119.925Y-109.8
X120.Y-27.6
X120.65Y-3.55
X120.65Y-9.15
X120.65Y-117.85
X120.65Y-123.45
X121.539Y-84.201
X121.6Y-46.6
X121.602Y-45.593
X121.73Y-43.942
X121.95Y-49.4
X122.047Y-33.274
X122.63Y-4.37
X122.63Y-8.33
X122.63Y-118.67
X122.63Y-122.63
X123.Y-36.4
X123.19Y-58.039
X123.292Y-47.955
X123.45Y-6.35
X123.45Y-120.65
X123.698Y-92.392
X123.8Y-42.55
X123.802Y-39.422
X124.333Y-21.717
X124.45Y-61.8
X124.647Y-39.414
X124.65Y-42.55
X125.5Y-46.9
X125.75Y-33.4
X126.Y-40.05
T3
X3.937Y-90.678
X4.064Y-92.202
X8.636Y-90.678
X8.763Y-92.329
X10.986Y-112.585
X11.684Y-82.931
X11.938Y-80.391
X17.081Y-111.125
X17.081Y-111.188
X17.335Y-94.234
X18.288Y-91.757
X23.177Y-90.487
X23.368Y-91.757
X25.908Y-108.204
X38.7Y-41.925
X50.328Y-88.194
X52.54Y-90.03
X55.136Y-88.201
X58.166Y-71.882
X60.706Y-69.85
X60.706Y-73.914
X63.246Y-71.882
X90.Y-10.5
X90.Y-23.7
X93.5Y-10.5
X93.5Y-23.7
T4
X101.21Y-97.23
X101.21Y-98.5
X102.48Y-97.23
X102.48Y-98.5
X103.75Y-97.23
X103.75Y-98.5
X105.02Y-97.23
X105.02Y-98.5
X106.29Y-97.23
X106.29Y-98.5
T6
X107.212Y-70.856
X107.212Y-73.396
X107.212Y-75.936
X107.212Y-78.476
X109.752Y-72.126
X109.752Y-74.666
X109.752Y-77.206
X109.752Y-79.746
X119.48Y-79.086
X119.48Y-68.975
X121.Y-71.516
X121.Y-81.625
T7
X23.Y-115.6
X29.185Y-96.942
X29.185Y-99.482
X29.825Y-27.55
X40.767Y-45.847
X42.601Y-58.603
X44.836Y-120.579
X45.847Y-49.657
X49.75Y-53.25
X49.75Y-55.79
X51.308Y-45.72
X60.584Y-121.087
X64.49Y-46.75
X64.49Y-53.35
X67.03Y-46.75
X67.03Y-53.35
X68.59Y-7.15
X68.59Y-13.75
X68.59Y-20.35
X68.59Y-26.95
X68.59Y-33.55
X68.59Y-40.15
X69.57Y-46.75
X69.57Y-53.35
X71.13Y-7.15
X71.13Y-13.75
X71.13Y-20.35
X71.13Y-26.95
X71.13Y-33.55
X71.13Y-40.15
X73.67Y-7.15
X73.67Y-13.75
X73.67Y-20.35
X73.67Y-26.95
X73.67Y-33.55
X73.67Y-40.15
X81.285Y-84.536
X83.56Y-7.15
X83.56Y-13.75
X83.56Y-20.35
X83.56Y-26.95
X83.56Y-33.55
X83.56Y-40.15
X83.56Y-46.75
X83.56Y-53.35
X86.1Y-7.15
X86.1Y-13.75
X86.1Y-20.35
X86.1Y-26.95
X86.1Y-33.55
X86.1Y-40.15
X86.1Y-46.75
X86.1Y-53.35
X88.64Y-7.15
X88.64Y-13.75
X88.64Y-20.35
X88.64Y-26.95
X88.64Y-33.55
X88.64Y-40.15
X88.64Y-46.75
X88.64Y-53.35
X93.726Y-115.189
X93.726Y-117.729
X96.266Y-115.189
X96.266Y-117.729
X98.806Y-115.189
X98.806Y-117.729
X109.784Y-98.735
X121.66Y-100.31
X121.66Y-102.85
X124.2Y-100.31
X124.2Y-102.85
T8
X101.98Y-120.902
X104.52Y-120.902
X106.552Y-120.902
X109.092Y-120.902
T9
X38.41Y-12.45
X40.95Y-12.45
X90.683Y-125.227
X93.223Y-125.227
T10
X113.052Y-67.426
X113.052Y-83.176
T11
X6.31Y-24.675
X6.31Y-31.025
X6.31Y-37.375
X6.31Y-43.725
X6.31Y-71.325
X6.31Y-77.675
X6.31Y-105.295
X6.31Y-111.645
X21.04Y-24.675
X21.04Y-31.025
X21.04Y-37.375
X21.04Y-43.725
X21.04Y-71.325
X21.04Y-77.675
X21.04Y-105.295
X21.04Y-111.645
X24.825Y-6.31
X31.175Y-6.31
X35.77Y-71.325
X35.77Y-77.675
X35.77Y-105.295
X35.77Y-111.645
X50.5Y-71.325
X50.5Y-77.675
X50.5Y-105.295
X50.5Y-111.645
T12
X98.932Y-123.569
X112.648Y-123.569
T13
X6.35Y-6.35
X6.35Y-120.65
X120.65Y-6.35
X120.65Y-120.65
T4
X121.35Y-108.66G85X120.95Y-108.66
G05
X121.35Y-113.5G85X120.95Y-113.5
G05
T5
X124.4Y-108.35G85X123.9Y-108.35
G05
X124.4Y-113.81G85X123.9Y-113.81
G05
T0
M30
