%FSLAX45Y45*%
G04 Gerber Fmt 4.5, Leading zero omitted, Abs format (unit mm)*
G04 Created by KiCad (PCBNEW 4.0.6) date 01/31/18 03:36:19*
%MOMM*%
%LPD*%
G01*
G04 APERTURE LIST*
%ADD10C,0.127000*%
%ADD11C,0.150000*%
%ADD12C,0.200000*%
%ADD13C,0.300000*%
G04 APERTURE END LIST*
D10*
D11*
X12700000Y-12700000D02*
X12700000Y0D01*
X0Y-12700000D02*
X12700000Y-12700000D01*
X0Y0D02*
X0Y-12700000D01*
X0Y0D02*
X12700000Y0D01*
D12*
X1342560Y-11843174D02*
X1372560Y-11873174D01*
X1372560Y-11843174D02*
X1342560Y-11873174D01*
X1342560Y-11993174D02*
X1372560Y-12023174D01*
X1372560Y-11993174D02*
X1342560Y-12023174D01*
X1417560Y-11918174D02*
X1447560Y-11948174D01*
X1447560Y-11918174D02*
X1417560Y-11948174D01*
X1492560Y-11843174D02*
X1522560Y-11873174D01*
X1522560Y-11843174D02*
X1492560Y-11873174D01*
X1492560Y-11993174D02*
X1522560Y-12023174D01*
X1522560Y-11993174D02*
X1492560Y-12023174D01*
X3830000Y-3237500D02*
X3860000Y-3267500D01*
X3860000Y-3237500D02*
X3830000Y-3267500D01*
X3830000Y-3387500D02*
X3860000Y-3417500D01*
X3860000Y-3387500D02*
X3830000Y-3417500D01*
X3905000Y-3312500D02*
X3935000Y-3342500D01*
X3935000Y-3312500D02*
X3905000Y-3342500D01*
X3980000Y-3237500D02*
X4010000Y-3267500D01*
X4010000Y-3237500D02*
X3980000Y-3267500D01*
X3980000Y-3387500D02*
X4010000Y-3417500D01*
X4010000Y-3387500D02*
X3980000Y-3417500D01*
X197800Y-4896612D02*
G75*
G03X197800Y-4896612I-20000J0D01*
G01*
X197800Y-5156200D02*
G75*
G03X197800Y-5156200I-20000J0D01*
G01*
X223200Y-5613400D02*
G75*
G03X223200Y-5613400I-20000J0D01*
G01*
X335000Y-6150000D02*
G75*
G03X335000Y-6150000I-20000J0D01*
G01*
X375000Y-635000D02*
G75*
G03X375000Y-635000I-20000J0D01*
G01*
X375000Y-12065000D02*
G75*
G03X375000Y-12065000I-20000J0D01*
G01*
X375600Y-1282700D02*
G75*
G03X375600Y-1282700I-20000J0D01*
G01*
X396682Y-6575806D02*
G75*
G03X396682Y-6575806I-20000J0D01*
G01*
X426400Y-6350000D02*
G75*
G03X426400Y-6350000I-20000J0D01*
G01*
X429194Y-5321300D02*
G75*
G03X429194Y-5321300I-20000J0D01*
G01*
X457011Y-437011D02*
G75*
G03X457011Y-437011I-20000J0D01*
G01*
X457011Y-832989D02*
G75*
G03X457011Y-832989I-20000J0D01*
G01*
X457011Y-11867011D02*
G75*
G03X457011Y-11867011I-20000J0D01*
G01*
X457011Y-12262989D02*
G75*
G03X457011Y-12262989I-20000J0D01*
G01*
X492500Y-5267004D02*
G75*
G03X492500Y-5267004I-20000J0D01*
G01*
X525000Y-5751500D02*
G75*
G03X525000Y-5751500I-20000J0D01*
G01*
X560000Y-6145000D02*
G75*
G03X560000Y-6145000I-20000J0D01*
G01*
X570926Y-11603736D02*
G75*
G03X570926Y-11603736I-20000J0D01*
G01*
X571434Y-6583680D02*
G75*
G03X571434Y-6583680I-20000J0D01*
G01*
X635000Y-9530000D02*
G75*
G03X635000Y-9530000I-20000J0D01*
G01*
X655000Y-355000D02*
G75*
G03X655000Y-355000I-20000J0D01*
G01*
X655000Y-915000D02*
G75*
G03X655000Y-915000I-20000J0D01*
G01*
X655000Y-5661500D02*
G75*
G03X655000Y-5661500I-20000J0D01*
G01*
X655000Y-5841500D02*
G75*
G03X655000Y-5841500I-20000J0D01*
G01*
X655000Y-11785000D02*
G75*
G03X655000Y-11785000I-20000J0D01*
G01*
X655000Y-12345000D02*
G75*
G03X655000Y-12345000I-20000J0D01*
G01*
X720000Y-5751500D02*
G75*
G03X720000Y-5751500I-20000J0D01*
G01*
X785000Y-5661500D02*
G75*
G03X785000Y-5661500I-20000J0D01*
G01*
X785000Y-5841500D02*
G75*
G03X785000Y-5841500I-20000J0D01*
G01*
X852989Y-437011D02*
G75*
G03X852989Y-437011I-20000J0D01*
G01*
X852989Y-832989D02*
G75*
G03X852989Y-832989I-20000J0D01*
G01*
X852989Y-11867011D02*
G75*
G03X852989Y-11867011I-20000J0D01*
G01*
X852989Y-12262989D02*
G75*
G03X852989Y-12262989I-20000J0D01*
G01*
X915000Y-5751500D02*
G75*
G03X915000Y-5751500I-20000J0D01*
G01*
X935000Y-635000D02*
G75*
G03X935000Y-635000I-20000J0D01*
G01*
X935000Y-12065000D02*
G75*
G03X935000Y-12065000I-20000J0D01*
G01*
X947100Y-9436100D02*
G75*
G03X947100Y-9436100I-20000J0D01*
G01*
X959800Y-2679700D02*
G75*
G03X959800Y-2679700I-20000J0D01*
G01*
X985841Y-6504159D02*
G75*
G03X985841Y-6504159I-20000J0D01*
G01*
X997900Y-9512300D02*
G75*
G03X997900Y-9512300I-20000J0D01*
G01*
X1045000Y-6140000D02*
G75*
G03X1045000Y-6140000I-20000J0D01*
G01*
X1064000Y-6540000D02*
G75*
G03X1064000Y-6540000I-20000J0D01*
G01*
X1103564Y-4890516D02*
G75*
G03X1103564Y-4890516I-20000J0D01*
G01*
X1150046Y-12252706D02*
G75*
G03X1150046Y-12252706I-20000J0D01*
G01*
X1152000Y-6578000D02*
G75*
G03X1152000Y-6578000I-20000J0D01*
G01*
X1169000Y-6310000D02*
G75*
G03X1169000Y-6310000I-20000J0D01*
G01*
X1180018Y-11704320D02*
G75*
G03X1180018Y-11704320I-20000J0D01*
G01*
X1200592Y-8841232D02*
G75*
G03X1200592Y-8841232I-20000J0D01*
G01*
X1214054Y-11820144D02*
G75*
G03X1214054Y-11820144I-20000J0D01*
G01*
X1232000Y-6373000D02*
G75*
G03X1232000Y-6373000I-20000J0D01*
G01*
X1264600Y-1549400D02*
G75*
G03X1264600Y-1549400I-20000J0D01*
G01*
X1273236Y-12475210D02*
G75*
G03X1273236Y-12475210I-20000J0D01*
G01*
X1282126Y-9523984D02*
G75*
G03X1282126Y-9523984I-20000J0D01*
G01*
X1285000Y-5970000D02*
G75*
G03X1285000Y-5970000I-20000J0D01*
G01*
X1290000Y-3771900D02*
G75*
G03X1290000Y-3771900I-20000J0D01*
G01*
X1294000Y-6435000D02*
G75*
G03X1294000Y-6435000I-20000J0D01*
G01*
X1328100Y-9690100D02*
G75*
G03X1328100Y-9690100I-20000J0D01*
G01*
X1335974Y-4900422D02*
G75*
G03X1335974Y-4900422I-20000J0D01*
G01*
X1442400Y-6083300D02*
G75*
G03X1442400Y-6083300I-20000J0D01*
G01*
X1524950Y-2032000D02*
G75*
G03X1524950Y-2032000I-20000J0D01*
G01*
X1575750Y-6362700D02*
G75*
G03X1575750Y-6362700I-20000J0D01*
G01*
X1594800Y-5041900D02*
G75*
G03X1594800Y-5041900I-20000J0D01*
G01*
X1607500Y-8591550D02*
G75*
G03X1607500Y-8591550I-20000J0D01*
G01*
X1607500Y-8839200D02*
G75*
G03X1607500Y-8839200I-20000J0D01*
G01*
X1626042Y-4897882D02*
G75*
G03X1626042Y-4897882I-20000J0D01*
G01*
X1747200Y-2190750D02*
G75*
G03X1747200Y-2190750I-20000J0D01*
G01*
X1808668Y-4064508D02*
G75*
G03X1808668Y-4064508I-20000J0D01*
G01*
X1870644Y-5319522D02*
G75*
G03X1870644Y-5319522I-20000J0D01*
G01*
X1874200Y-8712200D02*
G75*
G03X1874200Y-8712200I-20000J0D01*
G01*
X1963100Y-5283200D02*
G75*
G03X1963100Y-5283200I-20000J0D01*
G01*
X1998000Y-5751500D02*
G75*
G03X1998000Y-5751500I-20000J0D01*
G01*
X2001200Y-9664700D02*
G75*
G03X2001200Y-9664700I-20000J0D01*
G01*
X2013900Y-8724900D02*
G75*
G03X2013900Y-8724900I-20000J0D01*
G01*
X2023044Y-6162548D02*
G75*
G03X2023044Y-6162548I-20000J0D01*
G01*
X2128000Y-5661500D02*
G75*
G03X2128000Y-5661500I-20000J0D01*
G01*
X2128000Y-5841500D02*
G75*
G03X2128000Y-5841500I-20000J0D01*
G01*
X2153600Y-9677400D02*
G75*
G03X2153600Y-9677400I-20000J0D01*
G01*
X2160000Y-6149000D02*
G75*
G03X2160000Y-6149000I-20000J0D01*
G01*
X2193000Y-5751500D02*
G75*
G03X2193000Y-5751500I-20000J0D01*
G01*
X2196018Y-11490960D02*
G75*
G03X2196018Y-11490960I-20000J0D01*
G01*
X2242500Y-9639300D02*
G75*
G03X2242500Y-9639300I-20000J0D01*
G01*
X2258000Y-5661500D02*
G75*
G03X2258000Y-5661500I-20000J0D01*
G01*
X2258000Y-5841500D02*
G75*
G03X2258000Y-5841500I-20000J0D01*
G01*
X2285000Y-6290000D02*
G75*
G03X2285000Y-6290000I-20000J0D01*
G01*
X2306000Y-9563100D02*
G75*
G03X2306000Y-9563100I-20000J0D01*
G01*
X2388000Y-5751500D02*
G75*
G03X2388000Y-5751500I-20000J0D01*
G01*
X2407600Y-9385300D02*
G75*
G03X2407600Y-9385300I-20000J0D01*
G01*
X2423348Y-4770120D02*
G75*
G03X2423348Y-4770120I-20000J0D01*
G01*
X2447732Y-9284716D02*
G75*
G03X2447732Y-9284716I-20000J0D01*
G01*
X2509200Y-8966200D02*
G75*
G03X2509200Y-8966200I-20000J0D01*
G01*
X2520000Y-6135000D02*
G75*
G03X2520000Y-6135000I-20000J0D01*
G01*
X2534600Y-2768600D02*
G75*
G03X2534600Y-2768600I-20000J0D01*
G01*
X2572700Y-6299200D02*
G75*
G03X2572700Y-6299200I-20000J0D01*
G01*
X2623500Y-1765300D02*
G75*
G03X2623500Y-1765300I-20000J0D01*
G01*
X2660838Y-11505184D02*
G75*
G03X2660838Y-11505184I-20000J0D01*
G01*
X2712400Y-3949700D02*
G75*
G03X2712400Y-3949700I-20000J0D01*
G01*
X2712400Y-4089400D02*
G75*
G03X2712400Y-4089400I-20000J0D01*
G01*
X2782250Y-8578850D02*
G75*
G03X2782250Y-8578850I-20000J0D01*
G01*
X2820000Y-8760000D02*
G75*
G03X2820000Y-8760000I-20000J0D01*
G01*
X2965000Y-8615000D02*
G75*
G03X2965000Y-8615000I-20000J0D01*
G01*
X2965000Y-8710000D02*
G75*
G03X2965000Y-8710000I-20000J0D01*
G01*
X2980370Y-5561838D02*
G75*
G03X2980370Y-5561838I-20000J0D01*
G01*
X3186872Y-11102340D02*
G75*
G03X3186872Y-11102340I-20000J0D01*
G01*
X3429950Y-5213350D02*
G75*
G03X3429950Y-5213350I-20000J0D01*
G01*
X3560000Y-1680000D02*
G75*
G03X3560000Y-1680000I-20000J0D01*
G01*
X3562500Y-2825000D02*
G75*
G03X3562500Y-2825000I-20000J0D01*
G01*
X3601400Y-12496800D02*
G75*
G03X3601400Y-12496800I-20000J0D01*
G01*
X3626800Y-11557000D02*
G75*
G03X3626800Y-11557000I-20000J0D01*
G01*
X3630000Y-2882500D02*
G75*
G03X3630000Y-2882500I-20000J0D01*
G01*
X3707500Y-3550000D02*
G75*
G03X3707500Y-3550000I-20000J0D01*
G01*
X3745000Y-2917501D02*
G75*
G03X3745000Y-2917501I-20000J0D01*
G01*
X3875000Y-2937500D02*
G75*
G03X3875000Y-2937500I-20000J0D01*
G01*
X3875720Y-5875528D02*
G75*
G03X3875720Y-5875528I-20000J0D01*
G01*
X3893500Y-11582400D02*
G75*
G03X3893500Y-11582400I-20000J0D01*
G01*
X4020500Y-6223000D02*
G75*
G03X4020500Y-6223000I-20000J0D01*
G01*
X4044884Y-5479288D02*
G75*
G03X4044884Y-5479288I-20000J0D01*
G01*
X4142500Y-3907500D02*
G75*
G03X4142500Y-3907500I-20000J0D01*
G01*
X4219000Y-3589000D02*
G75*
G03X4219000Y-3589000I-20000J0D01*
G01*
X4312600Y-8750300D02*
G75*
G03X4312600Y-8750300I-20000J0D01*
G01*
X4445500Y-3472500D02*
G75*
G03X4445500Y-3472500I-20000J0D01*
G01*
X4496196Y-12474728D02*
G75*
G03X4496196Y-12474728I-20000J0D01*
G01*
X4515800Y-5765800D02*
G75*
G03X4515800Y-5765800I-20000J0D01*
G01*
X4518086Y-8658606D02*
G75*
G03X4518086Y-8658606I-20000J0D01*
G01*
X4580000Y-4550000D02*
G75*
G03X4580000Y-4550000I-20000J0D01*
G01*
X4592000Y-2635250D02*
G75*
G03X4592000Y-2635250I-20000J0D01*
G01*
X4655500Y-5765800D02*
G75*
G03X4655500Y-5765800I-20000J0D01*
G01*
X4675000Y-4550000D02*
G75*
G03X4675000Y-4550000I-20000J0D01*
G01*
X4719000Y-8001000D02*
G75*
G03X4719000Y-8001000I-20000J0D01*
G01*
X4719000Y-8128000D02*
G75*
G03X4719000Y-8128000I-20000J0D01*
G01*
X4768000Y-3585000D02*
G75*
G03X4768000Y-3585000I-20000J0D01*
G01*
X4780000Y-4550000D02*
G75*
G03X4780000Y-4550000I-20000J0D01*
G01*
X5020752Y-11675872D02*
G75*
G03X5020752Y-11675872I-20000J0D01*
G01*
X5070000Y-240000D02*
G75*
G03X5070000Y-240000I-20000J0D01*
G01*
X5110000Y-950000D02*
G75*
G03X5110000Y-950000I-20000J0D01*
G01*
X5150800Y-9245600D02*
G75*
G03X5150800Y-9245600I-20000J0D01*
G01*
X5230000Y-440000D02*
G75*
G03X5230000Y-440000I-20000J0D01*
G01*
X5277800Y-9639300D02*
G75*
G03X5277800Y-9639300I-20000J0D01*
G01*
X5379400Y-10045700D02*
G75*
G03X5379400Y-10045700I-20000J0D01*
G01*
X5387528Y-8557768D02*
G75*
G03X5387528Y-8557768I-20000J0D01*
G01*
X5536626Y-8670036D02*
G75*
G03X5536626Y-8670036I-20000J0D01*
G01*
X5707568Y-7331964D02*
G75*
G03X5707568Y-7331964I-20000J0D01*
G01*
X5735000Y-11379200D02*
G75*
G03X5735000Y-11379200I-20000J0D01*
G01*
X5763000Y-641000D02*
G75*
G03X5763000Y-641000I-20000J0D01*
G01*
X5763000Y-1301000D02*
G75*
G03X5763000Y-1301000I-20000J0D01*
G01*
X5763000Y-1961000D02*
G75*
G03X5763000Y-1961000I-20000J0D01*
G01*
X5763000Y-2621000D02*
G75*
G03X5763000Y-2621000I-20000J0D01*
G01*
X5763000Y-3281000D02*
G75*
G03X5763000Y-3281000I-20000J0D01*
G01*
X5763000Y-3941000D02*
G75*
G03X5763000Y-3941000I-20000J0D01*
G01*
X5773100Y-9194800D02*
G75*
G03X5773100Y-9194800I-20000J0D01*
G01*
X5907720Y-934720D02*
G75*
G03X5907720Y-934720I-20000J0D01*
G01*
X5912800Y-6731000D02*
G75*
G03X5912800Y-6731000I-20000J0D01*
G01*
X5970000Y-240000D02*
G75*
G03X5970000Y-240000I-20000J0D01*
G01*
X6065200Y-11468100D02*
G75*
G03X6065200Y-11468100I-20000J0D01*
G01*
X6102284Y-9218168D02*
G75*
G03X6102284Y-9218168I-20000J0D01*
G01*
X6104570Y-10024110D02*
G75*
G03X6104570Y-10024110I-20000J0D01*
G01*
X6166800Y-6858000D02*
G75*
G03X6166800Y-6858000I-20000J0D01*
G01*
X6180000Y-595000D02*
G75*
G03X6180000Y-595000I-20000J0D01*
G01*
X6180000Y-1255000D02*
G75*
G03X6180000Y-1255000I-20000J0D01*
G01*
X6180000Y-1915000D02*
G75*
G03X6180000Y-1915000I-20000J0D01*
G01*
X6180000Y-2575000D02*
G75*
G03X6180000Y-2575000I-20000J0D01*
G01*
X6180000Y-3895000D02*
G75*
G03X6180000Y-3895000I-20000J0D01*
G01*
X6211758Y-8925814D02*
G75*
G03X6211758Y-8925814I-20000J0D01*
G01*
X6220000Y-240000D02*
G75*
G03X6220000Y-240000I-20000J0D01*
G01*
X6229792Y-3217164D02*
G75*
G03X6229792Y-3217164I-20000J0D01*
G01*
X6260000Y-4870000D02*
G75*
G03X6260000Y-4870000I-20000J0D01*
G01*
X6260000Y-5550000D02*
G75*
G03X6260000Y-5550000I-20000J0D01*
G01*
X6270000Y-4700000D02*
G75*
G03X6270000Y-4700000I-20000J0D01*
G01*
X6270000Y-5370000D02*
G75*
G03X6270000Y-5370000I-20000J0D01*
G01*
X6282878Y-9998202D02*
G75*
G03X6282878Y-9998202I-20000J0D01*
G01*
X6293800Y-8534400D02*
G75*
G03X6293800Y-8534400I-20000J0D01*
G01*
X6420800Y-6858000D02*
G75*
G03X6420800Y-6858000I-20000J0D01*
G01*
X6500000Y-1120000D02*
G75*
G03X6500000Y-1120000I-20000J0D01*
G01*
X6500000Y-1760000D02*
G75*
G03X6500000Y-1760000I-20000J0D01*
G01*
X6500000Y-2420000D02*
G75*
G03X6500000Y-2420000I-20000J0D01*
G01*
X6500000Y-3750000D02*
G75*
G03X6500000Y-3750000I-20000J0D01*
G01*
X6502080Y-9528556D02*
G75*
G03X6502080Y-9528556I-20000J0D01*
G01*
X6502588Y-9307068D02*
G75*
G03X6502588Y-9307068I-20000J0D01*
G01*
X6510000Y-3100000D02*
G75*
G03X6510000Y-3100000I-20000J0D01*
G01*
X6576000Y-410000D02*
G75*
G03X6576000Y-410000I-20000J0D01*
G01*
X6587678Y-8720074D02*
G75*
G03X6587678Y-8720074I-20000J0D01*
G01*
X6590000Y-821000D02*
G75*
G03X6590000Y-821000I-20000J0D01*
G01*
X6590000Y-1481000D02*
G75*
G03X6590000Y-1481000I-20000J0D01*
G01*
X6590000Y-2141000D02*
G75*
G03X6590000Y-2141000I-20000J0D01*
G01*
X6590000Y-2801000D02*
G75*
G03X6590000Y-2801000I-20000J0D01*
G01*
X6590000Y-3461000D02*
G75*
G03X6590000Y-3461000I-20000J0D01*
G01*
X6590000Y-4121000D02*
G75*
G03X6590000Y-4121000I-20000J0D01*
G01*
X6662100Y-6578600D02*
G75*
G03X6662100Y-6578600I-20000J0D01*
G01*
X6801800Y-10121900D02*
G75*
G03X6801800Y-10121900I-20000J0D01*
G01*
X6916100Y-8724900D02*
G75*
G03X6916100Y-8724900I-20000J0D01*
G01*
X6916100Y-9347200D02*
G75*
G03X6916100Y-9347200I-20000J0D01*
G01*
X6920418Y-6711950D02*
G75*
G03X6920418Y-6711950I-20000J0D01*
G01*
X6928800Y-7797800D02*
G75*
G03X6928800Y-7797800I-20000J0D01*
G01*
X6966900Y-10541000D02*
G75*
G03X6966900Y-10541000I-20000J0D01*
G01*
X6966900Y-11861800D02*
G75*
G03X6966900Y-11861800I-20000J0D01*
G01*
X6969000Y-1557000D02*
G75*
G03X6969000Y-1557000I-20000J0D01*
G01*
X6969000Y-2217000D02*
G75*
G03X6969000Y-2217000I-20000J0D01*
G01*
X6969000Y-2877000D02*
G75*
G03X6969000Y-2877000I-20000J0D01*
G01*
X6969000Y-3537000D02*
G75*
G03X6969000Y-3537000I-20000J0D01*
G01*
X6969000Y-4197000D02*
G75*
G03X6969000Y-4197000I-20000J0D01*
G01*
X6971000Y-895000D02*
G75*
G03X6971000Y-895000I-20000J0D01*
G01*
X6979600Y-8991600D02*
G75*
G03X6979600Y-8991600I-20000J0D01*
G01*
X7030400Y-6629400D02*
G75*
G03X7030400Y-6629400I-20000J0D01*
G01*
X7132000Y-7556500D02*
G75*
G03X7132000Y-7556500I-20000J0D01*
G01*
X7157400Y-7366000D02*
G75*
G03X7157400Y-7366000I-20000J0D01*
G01*
X7195500Y-7721600D02*
G75*
G03X7195500Y-7721600I-20000J0D01*
G01*
X7195500Y-8280400D02*
G75*
G03X7195500Y-8280400I-20000J0D01*
G01*
X7195500Y-10610850D02*
G75*
G03X7195500Y-10610850I-20000J0D01*
G01*
X7208200Y-6807200D02*
G75*
G03X7208200Y-6807200I-20000J0D01*
G01*
X7297100Y-5029200D02*
G75*
G03X7297100Y-5029200I-20000J0D01*
G01*
X7454200Y-7975600D02*
G75*
G03X7454200Y-7975600I-20000J0D01*
G01*
X7510460Y-11449812D02*
G75*
G03X7510460Y-11449812I-20000J0D01*
G01*
X7589200Y-6032500D02*
G75*
G03X7589200Y-6032500I-20000J0D01*
G01*
X7589200Y-6451600D02*
G75*
G03X7589200Y-6451600I-20000J0D01*
G01*
X7589200Y-6700000D02*
G75*
G03X7589200Y-6700000I-20000J0D01*
G01*
X7599868Y-8301228D02*
G75*
G03X7599868Y-8301228I-20000J0D01*
G01*
X7665400Y-5156200D02*
G75*
G03X7665400Y-5156200I-20000J0D01*
G01*
X7676500Y-6800000D02*
G75*
G03X7676500Y-6800000I-20000J0D01*
G01*
X7728900Y-10629900D02*
G75*
G03X7728900Y-10629900I-20000J0D01*
G01*
X7749728Y-7531608D02*
G75*
G03X7749728Y-7531608I-20000J0D01*
G01*
X7766500Y-6450000D02*
G75*
G03X7766500Y-6450000I-20000J0D01*
G01*
X7766500Y-6600000D02*
G75*
G03X7766500Y-6600000I-20000J0D01*
G01*
X7767000Y-6032500D02*
G75*
G03X7767000Y-6032500I-20000J0D01*
G01*
X7805100Y-11938000D02*
G75*
G03X7805100Y-11938000I-20000J0D01*
G01*
X7855900Y-7874000D02*
G75*
G03X7855900Y-7874000I-20000J0D01*
G01*
X7894000Y-7378700D02*
G75*
G03X7894000Y-7378700I-20000J0D01*
G01*
X7944800Y-8521700D02*
G75*
G03X7944800Y-8521700I-20000J0D01*
G01*
X7957500Y-11925300D02*
G75*
G03X7957500Y-11925300I-20000J0D01*
G01*
X7960000Y-240000D02*
G75*
G03X7960000Y-240000I-20000J0D01*
G01*
X7960000Y-420000D02*
G75*
G03X7960000Y-420000I-20000J0D01*
G01*
X7960000Y-960000D02*
G75*
G03X7960000Y-960000I-20000J0D01*
G01*
X7960000Y-1140000D02*
G75*
G03X7960000Y-1140000I-20000J0D01*
G01*
X7960000Y-1580000D02*
G75*
G03X7960000Y-1580000I-20000J0D01*
G01*
X7960000Y-1750000D02*
G75*
G03X7960000Y-1750000I-20000J0D01*
G01*
X7960000Y-2280000D02*
G75*
G03X7960000Y-2280000I-20000J0D01*
G01*
X7960000Y-2460000D02*
G75*
G03X7960000Y-2460000I-20000J0D01*
G01*
X7960000Y-2930000D02*
G75*
G03X7960000Y-2930000I-20000J0D01*
G01*
X7960000Y-3120000D02*
G75*
G03X7960000Y-3120000I-20000J0D01*
G01*
X8167050Y-10020300D02*
G75*
G03X8167050Y-10020300I-20000J0D01*
G01*
X8275000Y-10972800D02*
G75*
G03X8275000Y-10972800I-20000J0D01*
G01*
X8275000Y-12382500D02*
G75*
G03X8275000Y-12382500I-20000J0D01*
G01*
X8290000Y-7040000D02*
G75*
G03X8290000Y-7040000I-20000J0D01*
G01*
X8300400Y-6731000D02*
G75*
G03X8300400Y-6731000I-20000J0D01*
G01*
X8363900Y-10375900D02*
G75*
G03X8363900Y-10375900I-20000J0D01*
G01*
X8376600Y-10674350D02*
G75*
G03X8376600Y-10674350I-20000J0D01*
G01*
X8389300Y-9436100D02*
G75*
G03X8389300Y-9436100I-20000J0D01*
G01*
X8440100Y-7797800D02*
G75*
G03X8440100Y-7797800I-20000J0D01*
G01*
X8465500Y-7531100D02*
G75*
G03X8465500Y-7531100I-20000J0D01*
G01*
X8465500Y-9664700D02*
G75*
G03X8465500Y-9664700I-20000J0D01*
G01*
X8510000Y-6510000D02*
G75*
G03X8510000Y-6510000I-20000J0D01*
G01*
X8594278Y-10775188D02*
G75*
G03X8594278Y-10775188I-20000J0D01*
G01*
X8605200Y-10414000D02*
G75*
G03X8605200Y-10414000I-20000J0D01*
G01*
X8668700Y-7251700D02*
G75*
G03X8668700Y-7251700I-20000J0D01*
G01*
X8730000Y-480000D02*
G75*
G03X8730000Y-480000I-20000J0D01*
G01*
X8730000Y-1800000D02*
G75*
G03X8730000Y-1800000I-20000J0D01*
G01*
X8740000Y-1610000D02*
G75*
G03X8740000Y-1610000I-20000J0D01*
G01*
X8740000Y-2930000D02*
G75*
G03X8740000Y-2930000I-20000J0D01*
G01*
X8757600Y-12268200D02*
G75*
G03X8757600Y-12268200I-20000J0D01*
G01*
X8795700Y-11493500D02*
G75*
G03X8795700Y-11493500I-20000J0D01*
G01*
X8833800Y-10236200D02*
G75*
G03X8833800Y-10236200I-20000J0D01*
G01*
X8846500Y-6565900D02*
G75*
G03X8846500Y-6565900I-20000J0D01*
G01*
X8846500Y-9791700D02*
G75*
G03X8846500Y-9791700I-20000J0D01*
G01*
X8973500Y-9448800D02*
G75*
G03X8973500Y-9448800I-20000J0D01*
G01*
X9011600Y-10610000D02*
G75*
G03X9011600Y-10610000I-20000J0D01*
G01*
X9100500Y-10236200D02*
G75*
G03X9100500Y-10236200I-20000J0D01*
G01*
X9100500Y-11544300D02*
G75*
G03X9100500Y-11544300I-20000J0D01*
G01*
X9100500Y-11811000D02*
G75*
G03X9100500Y-11811000I-20000J0D01*
G01*
X9125900Y-11023600D02*
G75*
G03X9125900Y-11023600I-20000J0D01*
G01*
X9176700Y-11988800D02*
G75*
G03X9176700Y-11988800I-20000J0D01*
G01*
X9183050Y-4216400D02*
G75*
G03X9183050Y-4216400I-20000J0D01*
G01*
X9184320Y-2860040D02*
G75*
G03X9184320Y-2860040I-20000J0D01*
G01*
X9189400Y-1549400D02*
G75*
G03X9189400Y-1549400I-20000J0D01*
G01*
X9195750Y-3505200D02*
G75*
G03X9195750Y-3505200I-20000J0D01*
G01*
X9195750Y-5505450D02*
G75*
G03X9195750Y-5505450I-20000J0D01*
G01*
X9200000Y-550000D02*
G75*
G03X9200000Y-550000I-20000J0D01*
G01*
X9200000Y-1870000D02*
G75*
G03X9200000Y-1870000I-20000J0D01*
G01*
X9202100Y-4826000D02*
G75*
G03X9202100Y-4826000I-20000J0D01*
G01*
X9202100Y-9302750D02*
G75*
G03X9202100Y-9302750I-20000J0D01*
G01*
X9291000Y-8807450D02*
G75*
G03X9291000Y-8807450I-20000J0D01*
G01*
X9310000Y-440000D02*
G75*
G03X9310000Y-440000I-20000J0D01*
G01*
X9310000Y-1760000D02*
G75*
G03X9310000Y-1760000I-20000J0D01*
G01*
X9367200Y-10706100D02*
G75*
G03X9367200Y-10706100I-20000J0D01*
G01*
X9380000Y-660000D02*
G75*
G03X9380000Y-660000I-20000J0D01*
G01*
X9380000Y-1980000D02*
G75*
G03X9380000Y-1980000I-20000J0D01*
G01*
X9462450Y-8947150D02*
G75*
G03X9462450Y-8947150I-20000J0D01*
G01*
X9494200Y-9740900D02*
G75*
G03X9494200Y-9740900I-20000J0D01*
G01*
X9525950Y-8197850D02*
G75*
G03X9525950Y-8197850I-20000J0D01*
G01*
X9532300Y-11137900D02*
G75*
G03X9532300Y-11137900I-20000J0D01*
G01*
X9557700Y-10248900D02*
G75*
G03X9557700Y-10248900I-20000J0D01*
G01*
X9633900Y-8401050D02*
G75*
G03X9633900Y-8401050I-20000J0D01*
G01*
X9785000Y-7607300D02*
G75*
G03X9785000Y-7607300I-20000J0D01*
G01*
X9811700Y-11036300D02*
G75*
G03X9811700Y-11036300I-20000J0D01*
G01*
X9860000Y-1140000D02*
G75*
G03X9860000Y-1140000I-20000J0D01*
G01*
X9860000Y-2460000D02*
G75*
G03X9860000Y-2460000I-20000J0D01*
G01*
X9880000Y-780000D02*
G75*
G03X9880000Y-780000I-20000J0D01*
G01*
X9880000Y-2100000D02*
G75*
G03X9880000Y-2100000I-20000J0D01*
G01*
X9944999Y-394999D02*
G75*
G03X9944999Y-394999I-20000J0D01*
G01*
X9944999Y-1714999D02*
G75*
G03X9944999Y-1714999I-20000J0D01*
G01*
X10014900Y-8813800D02*
G75*
G03X10014900Y-8813800I-20000J0D01*
G01*
X10033950Y-9207500D02*
G75*
G03X10033950Y-9207500I-20000J0D01*
G01*
X10035000Y-8190000D02*
G75*
G03X10035000Y-8190000I-20000J0D01*
G01*
X10091100Y-7620000D02*
G75*
G03X10091100Y-7620000I-20000J0D01*
G01*
X10141900Y-10610850D02*
G75*
G03X10141900Y-10610850I-20000J0D01*
G01*
X10220000Y-7635000D02*
G75*
G03X10220000Y-7635000I-20000J0D01*
G01*
X10225000Y-8130000D02*
G75*
G03X10225000Y-8130000I-20000J0D01*
G01*
X10340000Y-660000D02*
G75*
G03X10340000Y-660000I-20000J0D01*
G01*
X10340000Y-1400000D02*
G75*
G03X10340000Y-1400000I-20000J0D01*
G01*
X10340000Y-1980000D02*
G75*
G03X10340000Y-1980000I-20000J0D01*
G01*
X10340000Y-2720000D02*
G75*
G03X10340000Y-2720000I-20000J0D01*
G01*
X10357800Y-8801100D02*
G75*
G03X10357800Y-8801100I-20000J0D01*
G01*
X10383200Y-7150100D02*
G75*
G03X10383200Y-7150100I-20000J0D01*
G01*
X10535600Y-8750300D02*
G75*
G03X10535600Y-8750300I-20000J0D01*
G01*
X10566080Y-4078732D02*
G75*
G03X10566080Y-4078732I-20000J0D01*
G01*
X10566080Y-4269232D02*
G75*
G03X10566080Y-4269232I-20000J0D01*
G01*
X10566080Y-4459732D02*
G75*
G03X10566080Y-4459732I-20000J0D01*
G01*
X10566080Y-4650232D02*
G75*
G03X10566080Y-4650232I-20000J0D01*
G01*
X10643550Y-8439150D02*
G75*
G03X10643550Y-8439150I-20000J0D01*
G01*
X10954700Y-11899900D02*
G75*
G03X10954700Y-11899900I-20000J0D01*
G01*
X10967400Y-11468100D02*
G75*
G03X10967400Y-11468100I-20000J0D01*
G01*
X10980100Y-3530600D02*
G75*
G03X10980100Y-3530600I-20000J0D01*
G01*
X11190920Y-4231640D02*
G75*
G03X11190920Y-4231640I-20000J0D01*
G01*
X11246800Y-3263900D02*
G75*
G03X11246800Y-3263900I-20000J0D01*
G01*
X11297600Y-1231900D02*
G75*
G03X11297600Y-1231900I-20000J0D01*
G01*
X11297600Y-1428750D02*
G75*
G03X11297600Y-1428750I-20000J0D01*
G01*
X11300000Y-3610000D02*
G75*
G03X11300000Y-3610000I-20000J0D01*
G01*
X11300000Y-3710000D02*
G75*
G03X11300000Y-3710000I-20000J0D01*
G01*
X11300000Y-3810000D02*
G75*
G03X11300000Y-3810000I-20000J0D01*
G01*
X11310300Y-1619250D02*
G75*
G03X11310300Y-1619250I-20000J0D01*
G01*
X11310300Y-1803400D02*
G75*
G03X11310300Y-1803400I-20000J0D01*
G01*
X11323000Y-3048000D02*
G75*
G03X11323000Y-3048000I-20000J0D01*
G01*
X11348400Y-2565400D02*
G75*
G03X11348400Y-2565400I-20000J0D01*
G01*
X11356528Y-10135108D02*
G75*
G03X11356528Y-10135108I-20000J0D01*
G01*
X11399200Y-4800600D02*
G75*
G03X11399200Y-4800600I-20000J0D01*
G01*
X11399200Y-5067300D02*
G75*
G03X11399200Y-5067300I-20000J0D01*
G01*
X11399200Y-9321800D02*
G75*
G03X11399200Y-9321800I-20000J0D01*
G01*
X11455000Y-6160000D02*
G75*
G03X11455000Y-6160000I-20000J0D01*
G01*
X11577000Y-9232900D02*
G75*
G03X11577000Y-9232900I-20000J0D01*
G01*
X11716700Y-9245600D02*
G75*
G03X11716700Y-9245600I-20000J0D01*
G01*
X11780000Y-2995000D02*
G75*
G03X11780000Y-2995000I-20000J0D01*
G01*
X11800000Y-3085000D02*
G75*
G03X11800000Y-3085000I-20000J0D01*
G01*
X11805000Y-635000D02*
G75*
G03X11805000Y-635000I-20000J0D01*
G01*
X11805000Y-12065000D02*
G75*
G03X11805000Y-12065000I-20000J0D01*
G01*
X11805600Y-4673600D02*
G75*
G03X11805600Y-4673600I-20000J0D01*
G01*
X11805600Y-9410700D02*
G75*
G03X11805600Y-9410700I-20000J0D01*
G01*
X11887011Y-437011D02*
G75*
G03X11887011Y-437011I-20000J0D01*
G01*
X11887011Y-832989D02*
G75*
G03X11887011Y-832989I-20000J0D01*
G01*
X11887011Y-11867011D02*
G75*
G03X11887011Y-11867011I-20000J0D01*
G01*
X11887011Y-12262989D02*
G75*
G03X11887011Y-12262989I-20000J0D01*
G01*
X11902120Y-3977640D02*
G75*
G03X11902120Y-3977640I-20000J0D01*
G01*
X11902500Y-3025000D02*
G75*
G03X11902500Y-3025000I-20000J0D01*
G01*
X11919900Y-3854450D02*
G75*
G03X11919900Y-3854450I-20000J0D01*
G01*
X11932600Y-4800600D02*
G75*
G03X11932600Y-4800600I-20000J0D01*
G01*
X11935000Y-3600000D02*
G75*
G03X11935000Y-3600000I-20000J0D01*
G01*
X12012500Y-10980000D02*
G75*
G03X12012500Y-10980000I-20000J0D01*
G01*
X12020000Y-2760000D02*
G75*
G03X12020000Y-2760000I-20000J0D01*
G01*
X12085000Y-355000D02*
G75*
G03X12085000Y-355000I-20000J0D01*
G01*
X12085000Y-915000D02*
G75*
G03X12085000Y-915000I-20000J0D01*
G01*
X12085000Y-11785000D02*
G75*
G03X12085000Y-11785000I-20000J0D01*
G01*
X12085000Y-12345000D02*
G75*
G03X12085000Y-12345000I-20000J0D01*
G01*
X12173900Y-8420100D02*
G75*
G03X12173900Y-8420100I-20000J0D01*
G01*
X12180000Y-4660000D02*
G75*
G03X12180000Y-4660000I-20000J0D01*
G01*
X12180250Y-4559300D02*
G75*
G03X12180250Y-4559300I-20000J0D01*
G01*
X12192950Y-4394200D02*
G75*
G03X12192950Y-4394200I-20000J0D01*
G01*
X12215000Y-4940000D02*
G75*
G03X12215000Y-4940000I-20000J0D01*
G01*
X12224700Y-3327400D02*
G75*
G03X12224700Y-3327400I-20000J0D01*
G01*
X12282989Y-437011D02*
G75*
G03X12282989Y-437011I-20000J0D01*
G01*
X12282989Y-832989D02*
G75*
G03X12282989Y-832989I-20000J0D01*
G01*
X12282989Y-11867011D02*
G75*
G03X12282989Y-11867011I-20000J0D01*
G01*
X12282989Y-12262989D02*
G75*
G03X12282989Y-12262989I-20000J0D01*
G01*
X12320000Y-3640000D02*
G75*
G03X12320000Y-3640000I-20000J0D01*
G01*
X12339000Y-5803900D02*
G75*
G03X12339000Y-5803900I-20000J0D01*
G01*
X12349160Y-4795520D02*
G75*
G03X12349160Y-4795520I-20000J0D01*
G01*
X12365000Y-635000D02*
G75*
G03X12365000Y-635000I-20000J0D01*
G01*
X12365000Y-12065000D02*
G75*
G03X12365000Y-12065000I-20000J0D01*
G01*
X12389800Y-9239250D02*
G75*
G03X12389800Y-9239250I-20000J0D01*
G01*
X12400000Y-4255000D02*
G75*
G03X12400000Y-4255000I-20000J0D01*
G01*
X12400234Y-3942225D02*
G75*
G03X12400234Y-3942225I-20000J0D01*
G01*
X12453300Y-2171700D02*
G75*
G03X12453300Y-2171700I-20000J0D01*
G01*
X12465000Y-6180000D02*
G75*
G03X12465000Y-6180000I-20000J0D01*
G01*
X12484699Y-3941428D02*
G75*
G03X12484699Y-3941428I-20000J0D01*
G01*
X12485000Y-4255000D02*
G75*
G03X12485000Y-4255000I-20000J0D01*
G01*
X12570000Y-4690000D02*
G75*
G03X12570000Y-4690000I-20000J0D01*
G01*
X12595000Y-3340000D02*
G75*
G03X12595000Y-3340000I-20000J0D01*
G01*
X12620000Y-4005000D02*
G75*
G03X12620000Y-4005000I-20000J0D01*
G01*
X393700Y-9037800D02*
X393700Y-9097800D01*
X363700Y-9067800D02*
X423700Y-9067800D01*
X406400Y-9190200D02*
X406400Y-9250200D01*
X376400Y-9220200D02*
X436400Y-9220200D01*
X863600Y-9037800D02*
X863600Y-9097800D01*
X833600Y-9067800D02*
X893600Y-9067800D01*
X876300Y-9202900D02*
X876300Y-9262900D01*
X846300Y-9232900D02*
X906300Y-9232900D01*
X1098550Y-11228550D02*
X1098550Y-11288550D01*
X1068550Y-11258550D02*
X1128550Y-11258550D01*
X1168400Y-8263100D02*
X1168400Y-8323100D01*
X1138400Y-8293100D02*
X1198400Y-8293100D01*
X1193800Y-8009100D02*
X1193800Y-8069100D01*
X1163800Y-8039100D02*
X1223800Y-8039100D01*
X1708150Y-11082500D02*
X1708150Y-11142500D01*
X1678150Y-11112500D02*
X1738150Y-11112500D01*
X1708150Y-11088850D02*
X1708150Y-11148850D01*
X1678150Y-11118850D02*
X1738150Y-11118850D01*
X1733550Y-9393400D02*
X1733550Y-9453400D01*
X1703550Y-9423400D02*
X1763550Y-9423400D01*
X1828800Y-9145750D02*
X1828800Y-9205750D01*
X1798800Y-9175750D02*
X1858800Y-9175750D01*
X2317750Y-9018750D02*
X2317750Y-9078750D01*
X2287750Y-9048750D02*
X2347750Y-9048750D01*
X2336800Y-9145750D02*
X2336800Y-9205750D01*
X2306800Y-9175750D02*
X2366800Y-9175750D01*
X2590800Y-10790400D02*
X2590800Y-10850400D01*
X2560800Y-10820400D02*
X2620800Y-10820400D01*
X3870000Y-4162500D02*
X3870000Y-4222500D01*
X3840000Y-4192500D02*
X3900000Y-4192500D01*
X5032756Y-8789388D02*
X5032756Y-8849388D01*
X5002756Y-8819388D02*
X5062756Y-8819388D01*
X5253990Y-8973030D02*
X5253990Y-9033030D01*
X5223990Y-9003030D02*
X5283990Y-9003030D01*
X5513578Y-8790150D02*
X5513578Y-8850150D01*
X5483578Y-8820150D02*
X5543578Y-8820150D01*
X5816600Y-7158200D02*
X5816600Y-7218200D01*
X5786600Y-7188200D02*
X5846600Y-7188200D01*
X6070600Y-6955000D02*
X6070600Y-7015000D01*
X6040600Y-6985000D02*
X6100600Y-6985000D01*
X6070600Y-7361400D02*
X6070600Y-7421400D01*
X6040600Y-7391400D02*
X6100600Y-7391400D01*
X6324600Y-7158200D02*
X6324600Y-7218200D01*
X6294600Y-7188200D02*
X6354600Y-7188200D01*
X9000000Y-1020000D02*
X9000000Y-1080000D01*
X8970000Y-1050000D02*
X9030000Y-1050000D01*
X9000000Y-2340000D02*
X9000000Y-2400000D01*
X8970000Y-2370000D02*
X9030000Y-2370000D01*
X9350000Y-1020000D02*
X9350000Y-1080000D01*
X9320000Y-1050000D02*
X9380000Y-1050000D01*
X9350000Y-2340000D02*
X9350000Y-2400000D01*
X9320000Y-2370000D02*
X9380000Y-2370000D01*
X10143981Y-9745981D02*
X10143981Y-9700019D01*
X10098019Y-9700019D01*
X10098019Y-9745981D01*
X10143981Y-9745981D01*
X10143981Y-9872981D02*
X10143981Y-9827019D01*
X10098019Y-9827019D01*
X10098019Y-9872981D01*
X10143981Y-9872981D01*
X10270981Y-9745981D02*
X10270981Y-9700019D01*
X10225019Y-9700019D01*
X10225019Y-9745981D01*
X10270981Y-9745981D01*
X10270981Y-9872981D02*
X10270981Y-9827019D01*
X10225019Y-9827019D01*
X10225019Y-9872981D01*
X10270981Y-9872981D01*
X10397981Y-9745981D02*
X10397981Y-9700019D01*
X10352019Y-9700019D01*
X10352019Y-9745981D01*
X10397981Y-9745981D01*
X10397981Y-9872981D02*
X10397981Y-9827019D01*
X10352019Y-9827019D01*
X10352019Y-9872981D01*
X10397981Y-9872981D01*
X10524981Y-9745981D02*
X10524981Y-9700019D01*
X10479019Y-9700019D01*
X10479019Y-9745981D01*
X10524981Y-9745981D01*
X10524981Y-9872981D02*
X10524981Y-9827019D01*
X10479019Y-9827019D01*
X10479019Y-9872981D01*
X10524981Y-9872981D01*
X10651981Y-9745981D02*
X10651981Y-9700019D01*
X10606019Y-9700019D01*
X10606019Y-9745981D01*
X10651981Y-9745981D01*
X10651981Y-9872981D02*
X10651981Y-9827019D01*
X10606019Y-9827019D01*
X10606019Y-9872981D01*
X10651981Y-9872981D01*
X12137981Y-10888981D02*
X12137981Y-10843019D01*
X12092019Y-10843019D01*
X12092019Y-10888981D01*
X12137981Y-10888981D01*
X12135000Y-10843500D02*
X12095000Y-10843500D01*
X12135000Y-10888500D02*
X12095000Y-10888500D01*
X12095000Y-10843500D02*
G75*
G03X12095000Y-10888500I0J-22500D01*
G01*
X12135000Y-10888500D02*
G75*
G03X12135000Y-10843500I0J22500D01*
G01*
X12137981Y-11372981D02*
X12137981Y-11327019D01*
X12092019Y-11327019D01*
X12092019Y-11372981D01*
X12137981Y-11372981D01*
X12135000Y-11327500D02*
X12095000Y-11327500D01*
X12135000Y-11372500D02*
X12095000Y-11372500D01*
X12095000Y-11327500D02*
G75*
G03X12095000Y-11372500I0J-22500D01*
G01*
X12135000Y-11372500D02*
G75*
G03X12135000Y-11327500I0J22500D01*
G01*
X12415000Y-10870000D02*
X12450000Y-10835000D01*
X12415000Y-10800000D01*
X12380000Y-10835000D01*
X12415000Y-10870000D01*
X12440000Y-10810000D02*
X12390000Y-10810000D01*
X12440000Y-10860000D02*
X12390000Y-10860000D01*
X12390000Y-10810000D02*
G75*
G03X12390000Y-10860000I0J-25000D01*
G01*
X12440000Y-10860000D02*
G75*
G03X12440000Y-10810000I0J25000D01*
G01*
X12415000Y-11416000D02*
X12450000Y-11381000D01*
X12415000Y-11346000D01*
X12380000Y-11381000D01*
X12415000Y-11416000D01*
X12440000Y-11356000D02*
X12390000Y-11356000D01*
X12440000Y-11406000D02*
X12390000Y-11406000D01*
X12390000Y-11356000D02*
G75*
G03X12390000Y-11406000I0J-25000D01*
G01*
X12440000Y-11406000D02*
G75*
G03X12440000Y-11356000I0J25000D01*
G01*
X10676191Y-7040579D02*
X10766191Y-7130579D01*
X10766191Y-7040579D02*
X10676191Y-7130579D01*
X10766191Y-7085579D02*
G75*
G03X10766191Y-7085579I-45000J0D01*
G01*
X10676191Y-7294579D02*
X10766191Y-7384579D01*
X10766191Y-7294579D02*
X10676191Y-7384579D01*
X10766191Y-7339579D02*
G75*
G03X10766191Y-7339579I-45000J0D01*
G01*
X10676191Y-7548579D02*
X10766191Y-7638579D01*
X10766191Y-7548579D02*
X10676191Y-7638579D01*
X10766191Y-7593579D02*
G75*
G03X10766191Y-7593579I-45000J0D01*
G01*
X10676191Y-7802579D02*
X10766191Y-7892579D01*
X10766191Y-7802579D02*
X10676191Y-7892579D01*
X10766191Y-7847579D02*
G75*
G03X10766191Y-7847579I-45000J0D01*
G01*
X10930191Y-7167579D02*
X11020191Y-7257579D01*
X11020191Y-7167579D02*
X10930191Y-7257579D01*
X11020191Y-7212579D02*
G75*
G03X11020191Y-7212579I-45000J0D01*
G01*
X10930191Y-7421579D02*
X11020191Y-7511579D01*
X11020191Y-7421579D02*
X10930191Y-7511579D01*
X11020191Y-7466579D02*
G75*
G03X11020191Y-7466579I-45000J0D01*
G01*
X10930191Y-7675579D02*
X11020191Y-7765579D01*
X11020191Y-7675579D02*
X10930191Y-7765579D01*
X11020191Y-7720579D02*
G75*
G03X11020191Y-7720579I-45000J0D01*
G01*
X10930191Y-7929579D02*
X11020191Y-8019579D01*
X11020191Y-7929579D02*
X10930191Y-8019579D01*
X11020191Y-7974579D02*
G75*
G03X11020191Y-7974579I-45000J0D01*
G01*
X11903000Y-7863638D02*
X11993000Y-7953638D01*
X11993000Y-7863638D02*
X11903000Y-7953638D01*
X11993000Y-7908638D02*
G75*
G03X11993000Y-7908638I-45000J0D01*
G01*
X11903050Y-6852453D02*
X11993050Y-6942453D01*
X11993050Y-6852453D02*
X11903050Y-6942453D01*
X11993050Y-6897453D02*
G75*
G03X11993050Y-6897453I-45000J0D01*
G01*
X12055000Y-7106638D02*
X12145000Y-7196638D01*
X12145000Y-7106638D02*
X12055000Y-7196638D01*
X12145000Y-7151638D02*
G75*
G03X12145000Y-7151638I-45000J0D01*
G01*
X12055050Y-8117453D02*
X12145050Y-8207453D01*
X12145050Y-8117453D02*
X12055050Y-8207453D01*
X12145050Y-8162453D02*
G75*
G03X12145050Y-8162453I-45000J0D01*
G01*
X2250000Y-11510000D02*
X2350000Y-11610000D01*
X2350000Y-11510000D02*
X2250000Y-11610000D01*
X2300000Y-11510000D02*
X2300000Y-11610000D01*
X2250000Y-11560000D02*
X2350000Y-11560000D01*
X2868460Y-9644164D02*
X2968460Y-9744164D01*
X2968460Y-9644164D02*
X2868460Y-9744164D01*
X2918460Y-9644164D02*
X2918460Y-9744164D01*
X2868460Y-9694164D02*
X2968460Y-9694164D01*
X2868460Y-9898164D02*
X2968460Y-9998164D01*
X2968460Y-9898164D02*
X2868460Y-9998164D01*
X2918460Y-9898164D02*
X2918460Y-9998164D01*
X2868460Y-9948164D02*
X2968460Y-9948164D01*
X2932500Y-2705000D02*
X3032500Y-2805000D01*
X3032500Y-2705000D02*
X2932500Y-2805000D01*
X2982500Y-2705000D02*
X2982500Y-2805000D01*
X2932500Y-2755000D02*
X3032500Y-2755000D01*
X4026700Y-4534700D02*
X4126700Y-4634700D01*
X4126700Y-4534700D02*
X4026700Y-4634700D01*
X4076700Y-4534700D02*
X4076700Y-4634700D01*
X4026700Y-4584700D02*
X4126700Y-4584700D01*
X4210088Y-5810288D02*
X4310088Y-5910288D01*
X4310088Y-5810288D02*
X4210088Y-5910288D01*
X4260088Y-5810288D02*
X4260088Y-5910288D01*
X4210088Y-5860288D02*
X4310088Y-5860288D01*
X4433608Y-12007888D02*
X4533608Y-12107888D01*
X4533608Y-12007888D02*
X4433608Y-12107888D01*
X4483608Y-12007888D02*
X4483608Y-12107888D01*
X4433608Y-12057888D02*
X4533608Y-12057888D01*
X4534700Y-4915700D02*
X4634700Y-5015700D01*
X4634700Y-4915700D02*
X4534700Y-5015700D01*
X4584700Y-4915700D02*
X4584700Y-5015700D01*
X4534700Y-4965700D02*
X4634700Y-4965700D01*
X4925000Y-5275000D02*
X5025000Y-5375000D01*
X5025000Y-5275000D02*
X4925000Y-5375000D01*
X4975000Y-5275000D02*
X4975000Y-5375000D01*
X4925000Y-5325000D02*
X5025000Y-5325000D01*
X4925000Y-5529000D02*
X5025000Y-5629000D01*
X5025000Y-5529000D02*
X4925000Y-5629000D01*
X4975000Y-5529000D02*
X4975000Y-5629000D01*
X4925000Y-5579000D02*
X5025000Y-5579000D01*
X5080800Y-4522000D02*
X5180800Y-4622000D01*
X5180800Y-4522000D02*
X5080800Y-4622000D01*
X5130800Y-4522000D02*
X5130800Y-4622000D01*
X5080800Y-4572000D02*
X5180800Y-4572000D01*
X6008408Y-12058688D02*
X6108408Y-12158688D01*
X6108408Y-12058688D02*
X6008408Y-12158688D01*
X6058408Y-12058688D02*
X6058408Y-12158688D01*
X6008408Y-12108688D02*
X6108408Y-12108688D01*
X6399000Y-4625000D02*
X6499000Y-4725000D01*
X6499000Y-4625000D02*
X6399000Y-4725000D01*
X6449000Y-4625000D02*
X6449000Y-4725000D01*
X6399000Y-4675000D02*
X6499000Y-4675000D01*
X6399000Y-5285000D02*
X6499000Y-5385000D01*
X6499000Y-5285000D02*
X6399000Y-5385000D01*
X6449000Y-5285000D02*
X6449000Y-5385000D01*
X6399000Y-5335000D02*
X6499000Y-5335000D01*
X6653000Y-4625000D02*
X6753000Y-4725000D01*
X6753000Y-4625000D02*
X6653000Y-4725000D01*
X6703000Y-4625000D02*
X6703000Y-4725000D01*
X6653000Y-4675000D02*
X6753000Y-4675000D01*
X6653000Y-5285000D02*
X6753000Y-5385000D01*
X6753000Y-5285000D02*
X6653000Y-5385000D01*
X6703000Y-5285000D02*
X6703000Y-5385000D01*
X6653000Y-5335000D02*
X6753000Y-5335000D01*
X6809000Y-665000D02*
X6909000Y-765000D01*
X6909000Y-665000D02*
X6809000Y-765000D01*
X6859000Y-665000D02*
X6859000Y-765000D01*
X6809000Y-715000D02*
X6909000Y-715000D01*
X6809000Y-1325000D02*
X6909000Y-1425000D01*
X6909000Y-1325000D02*
X6809000Y-1425000D01*
X6859000Y-1325000D02*
X6859000Y-1425000D01*
X6809000Y-1375000D02*
X6909000Y-1375000D01*
X6809000Y-1985000D02*
X6909000Y-2085000D01*
X6909000Y-1985000D02*
X6809000Y-2085000D01*
X6859000Y-1985000D02*
X6859000Y-2085000D01*
X6809000Y-2035000D02*
X6909000Y-2035000D01*
X6809000Y-2645000D02*
X6909000Y-2745000D01*
X6909000Y-2645000D02*
X6809000Y-2745000D01*
X6859000Y-2645000D02*
X6859000Y-2745000D01*
X6809000Y-2695000D02*
X6909000Y-2695000D01*
X6809000Y-3305000D02*
X6909000Y-3405000D01*
X6909000Y-3305000D02*
X6809000Y-3405000D01*
X6859000Y-3305000D02*
X6859000Y-3405000D01*
X6809000Y-3355000D02*
X6909000Y-3355000D01*
X6809000Y-3965000D02*
X6909000Y-4065000D01*
X6909000Y-3965000D02*
X6809000Y-4065000D01*
X6859000Y-3965000D02*
X6859000Y-4065000D01*
X6809000Y-4015000D02*
X6909000Y-4015000D01*
X6907000Y-4625000D02*
X7007000Y-4725000D01*
X7007000Y-4625000D02*
X6907000Y-4725000D01*
X6957000Y-4625000D02*
X6957000Y-4725000D01*
X6907000Y-4675000D02*
X7007000Y-4675000D01*
X6907000Y-5285000D02*
X7007000Y-5385000D01*
X7007000Y-5285000D02*
X6907000Y-5385000D01*
X6957000Y-5285000D02*
X6957000Y-5385000D01*
X6907000Y-5335000D02*
X7007000Y-5335000D01*
X7063000Y-665000D02*
X7163000Y-765000D01*
X7163000Y-665000D02*
X7063000Y-765000D01*
X7113000Y-665000D02*
X7113000Y-765000D01*
X7063000Y-715000D02*
X7163000Y-715000D01*
X7063000Y-1325000D02*
X7163000Y-1425000D01*
X7163000Y-1325000D02*
X7063000Y-1425000D01*
X7113000Y-1325000D02*
X7113000Y-1425000D01*
X7063000Y-1375000D02*
X7163000Y-1375000D01*
X7063000Y-1985000D02*
X7163000Y-2085000D01*
X7163000Y-1985000D02*
X7063000Y-2085000D01*
X7113000Y-1985000D02*
X7113000Y-2085000D01*
X7063000Y-2035000D02*
X7163000Y-2035000D01*
X7063000Y-2645000D02*
X7163000Y-2745000D01*
X7163000Y-2645000D02*
X7063000Y-2745000D01*
X7113000Y-2645000D02*
X7113000Y-2745000D01*
X7063000Y-2695000D02*
X7163000Y-2695000D01*
X7063000Y-3305000D02*
X7163000Y-3405000D01*
X7163000Y-3305000D02*
X7063000Y-3405000D01*
X7113000Y-3305000D02*
X7113000Y-3405000D01*
X7063000Y-3355000D02*
X7163000Y-3355000D01*
X7063000Y-3965000D02*
X7163000Y-4065000D01*
X7163000Y-3965000D02*
X7063000Y-4065000D01*
X7113000Y-3965000D02*
X7113000Y-4065000D01*
X7063000Y-4015000D02*
X7163000Y-4015000D01*
X7317000Y-665000D02*
X7417000Y-765000D01*
X7417000Y-665000D02*
X7317000Y-765000D01*
X7367000Y-665000D02*
X7367000Y-765000D01*
X7317000Y-715000D02*
X7417000Y-715000D01*
X7317000Y-1325000D02*
X7417000Y-1425000D01*
X7417000Y-1325000D02*
X7317000Y-1425000D01*
X7367000Y-1325000D02*
X7367000Y-1425000D01*
X7317000Y-1375000D02*
X7417000Y-1375000D01*
X7317000Y-1985000D02*
X7417000Y-2085000D01*
X7417000Y-1985000D02*
X7317000Y-2085000D01*
X7367000Y-1985000D02*
X7367000Y-2085000D01*
X7317000Y-2035000D02*
X7417000Y-2035000D01*
X7317000Y-2645000D02*
X7417000Y-2745000D01*
X7417000Y-2645000D02*
X7317000Y-2745000D01*
X7367000Y-2645000D02*
X7367000Y-2745000D01*
X7317000Y-2695000D02*
X7417000Y-2695000D01*
X7317000Y-3305000D02*
X7417000Y-3405000D01*
X7417000Y-3305000D02*
X7317000Y-3405000D01*
X7367000Y-3305000D02*
X7367000Y-3405000D01*
X7317000Y-3355000D02*
X7417000Y-3355000D01*
X7317000Y-3965000D02*
X7417000Y-4065000D01*
X7417000Y-3965000D02*
X7317000Y-4065000D01*
X7367000Y-3965000D02*
X7367000Y-4065000D01*
X7317000Y-4015000D02*
X7417000Y-4015000D01*
X8078508Y-8403628D02*
X8178508Y-8503628D01*
X8178508Y-8403628D02*
X8078508Y-8503628D01*
X8128508Y-8403628D02*
X8128508Y-8503628D01*
X8078508Y-8453628D02*
X8178508Y-8453628D01*
X8306000Y-665000D02*
X8406000Y-765000D01*
X8406000Y-665000D02*
X8306000Y-765000D01*
X8356000Y-665000D02*
X8356000Y-765000D01*
X8306000Y-715000D02*
X8406000Y-715000D01*
X8306000Y-1325000D02*
X8406000Y-1425000D01*
X8406000Y-1325000D02*
X8306000Y-1425000D01*
X8356000Y-1325000D02*
X8356000Y-1425000D01*
X8306000Y-1375000D02*
X8406000Y-1375000D01*
X8306000Y-1985000D02*
X8406000Y-2085000D01*
X8406000Y-1985000D02*
X8306000Y-2085000D01*
X8356000Y-1985000D02*
X8356000Y-2085000D01*
X8306000Y-2035000D02*
X8406000Y-2035000D01*
X8306000Y-2645000D02*
X8406000Y-2745000D01*
X8406000Y-2645000D02*
X8306000Y-2745000D01*
X8356000Y-2645000D02*
X8356000Y-2745000D01*
X8306000Y-2695000D02*
X8406000Y-2695000D01*
X8306000Y-3305000D02*
X8406000Y-3405000D01*
X8406000Y-3305000D02*
X8306000Y-3405000D01*
X8356000Y-3305000D02*
X8356000Y-3405000D01*
X8306000Y-3355000D02*
X8406000Y-3355000D01*
X8306000Y-3965000D02*
X8406000Y-4065000D01*
X8406000Y-3965000D02*
X8306000Y-4065000D01*
X8356000Y-3965000D02*
X8356000Y-4065000D01*
X8306000Y-4015000D02*
X8406000Y-4015000D01*
X8306000Y-4625000D02*
X8406000Y-4725000D01*
X8406000Y-4625000D02*
X8306000Y-4725000D01*
X8356000Y-4625000D02*
X8356000Y-4725000D01*
X8306000Y-4675000D02*
X8406000Y-4675000D01*
X8306000Y-5285000D02*
X8406000Y-5385000D01*
X8406000Y-5285000D02*
X8306000Y-5385000D01*
X8356000Y-5285000D02*
X8356000Y-5385000D01*
X8306000Y-5335000D02*
X8406000Y-5335000D01*
X8560000Y-665000D02*
X8660000Y-765000D01*
X8660000Y-665000D02*
X8560000Y-765000D01*
X8610000Y-665000D02*
X8610000Y-765000D01*
X8560000Y-715000D02*
X8660000Y-715000D01*
X8560000Y-1325000D02*
X8660000Y-1425000D01*
X8660000Y-1325000D02*
X8560000Y-1425000D01*
X8610000Y-1325000D02*
X8610000Y-1425000D01*
X8560000Y-1375000D02*
X8660000Y-1375000D01*
X8560000Y-1985000D02*
X8660000Y-2085000D01*
X8660000Y-1985000D02*
X8560000Y-2085000D01*
X8610000Y-1985000D02*
X8610000Y-2085000D01*
X8560000Y-2035000D02*
X8660000Y-2035000D01*
X8560000Y-2645000D02*
X8660000Y-2745000D01*
X8660000Y-2645000D02*
X8560000Y-2745000D01*
X8610000Y-2645000D02*
X8610000Y-2745000D01*
X8560000Y-2695000D02*
X8660000Y-2695000D01*
X8560000Y-3305000D02*
X8660000Y-3405000D01*
X8660000Y-3305000D02*
X8560000Y-3405000D01*
X8610000Y-3305000D02*
X8610000Y-3405000D01*
X8560000Y-3355000D02*
X8660000Y-3355000D01*
X8560000Y-3965000D02*
X8660000Y-4065000D01*
X8660000Y-3965000D02*
X8560000Y-4065000D01*
X8610000Y-3965000D02*
X8610000Y-4065000D01*
X8560000Y-4015000D02*
X8660000Y-4015000D01*
X8560000Y-4625000D02*
X8660000Y-4725000D01*
X8660000Y-4625000D02*
X8560000Y-4725000D01*
X8610000Y-4625000D02*
X8610000Y-4725000D01*
X8560000Y-4675000D02*
X8660000Y-4675000D01*
X8560000Y-5285000D02*
X8660000Y-5385000D01*
X8660000Y-5285000D02*
X8560000Y-5385000D01*
X8610000Y-5285000D02*
X8610000Y-5385000D01*
X8560000Y-5335000D02*
X8660000Y-5335000D01*
X8814000Y-665000D02*
X8914000Y-765000D01*
X8914000Y-665000D02*
X8814000Y-765000D01*
X8864000Y-665000D02*
X8864000Y-765000D01*
X8814000Y-715000D02*
X8914000Y-715000D01*
X8814000Y-1325000D02*
X8914000Y-1425000D01*
X8914000Y-1325000D02*
X8814000Y-1425000D01*
X8864000Y-1325000D02*
X8864000Y-1425000D01*
X8814000Y-1375000D02*
X8914000Y-1375000D01*
X8814000Y-1985000D02*
X8914000Y-2085000D01*
X8914000Y-1985000D02*
X8814000Y-2085000D01*
X8864000Y-1985000D02*
X8864000Y-2085000D01*
X8814000Y-2035000D02*
X8914000Y-2035000D01*
X8814000Y-2645000D02*
X8914000Y-2745000D01*
X8914000Y-2645000D02*
X8814000Y-2745000D01*
X8864000Y-2645000D02*
X8864000Y-2745000D01*
X8814000Y-2695000D02*
X8914000Y-2695000D01*
X8814000Y-3305000D02*
X8914000Y-3405000D01*
X8914000Y-3305000D02*
X8814000Y-3405000D01*
X8864000Y-3305000D02*
X8864000Y-3405000D01*
X8814000Y-3355000D02*
X8914000Y-3355000D01*
X8814000Y-3965000D02*
X8914000Y-4065000D01*
X8914000Y-3965000D02*
X8814000Y-4065000D01*
X8864000Y-3965000D02*
X8864000Y-4065000D01*
X8814000Y-4015000D02*
X8914000Y-4015000D01*
X8814000Y-4625000D02*
X8914000Y-4725000D01*
X8914000Y-4625000D02*
X8814000Y-4725000D01*
X8864000Y-4625000D02*
X8864000Y-4725000D01*
X8814000Y-4675000D02*
X8914000Y-4675000D01*
X8814000Y-5285000D02*
X8914000Y-5385000D01*
X8914000Y-5285000D02*
X8814000Y-5385000D01*
X8864000Y-5285000D02*
X8864000Y-5385000D01*
X8814000Y-5335000D02*
X8914000Y-5335000D01*
X9322600Y-11468900D02*
X9422600Y-11568900D01*
X9422600Y-11468900D02*
X9322600Y-11568900D01*
X9372600Y-11468900D02*
X9372600Y-11568900D01*
X9322600Y-11518900D02*
X9422600Y-11518900D01*
X9322600Y-11722900D02*
X9422600Y-11822900D01*
X9422600Y-11722900D02*
X9322600Y-11822900D01*
X9372600Y-11722900D02*
X9372600Y-11822900D01*
X9322600Y-11772900D02*
X9422600Y-11772900D01*
X9576600Y-11468900D02*
X9676600Y-11568900D01*
X9676600Y-11468900D02*
X9576600Y-11568900D01*
X9626600Y-11468900D02*
X9626600Y-11568900D01*
X9576600Y-11518900D02*
X9676600Y-11518900D01*
X9576600Y-11722900D02*
X9676600Y-11822900D01*
X9676600Y-11722900D02*
X9576600Y-11822900D01*
X9626600Y-11722900D02*
X9626600Y-11822900D01*
X9576600Y-11772900D02*
X9676600Y-11772900D01*
X9830600Y-11468900D02*
X9930600Y-11568900D01*
X9930600Y-11468900D02*
X9830600Y-11568900D01*
X9880600Y-11468900D02*
X9880600Y-11568900D01*
X9830600Y-11518900D02*
X9930600Y-11518900D01*
X9830600Y-11722900D02*
X9930600Y-11822900D01*
X9930600Y-11722900D02*
X9830600Y-11822900D01*
X9880600Y-11722900D02*
X9880600Y-11822900D01*
X9830600Y-11772900D02*
X9930600Y-11772900D01*
X10928388Y-9823488D02*
X11028388Y-9923488D01*
X11028388Y-9823488D02*
X10928388Y-9923488D01*
X10978388Y-9823488D02*
X10978388Y-9923488D01*
X10928388Y-9873488D02*
X11028388Y-9873488D01*
X12116000Y-9981000D02*
X12216000Y-10081000D01*
X12216000Y-9981000D02*
X12116000Y-10081000D01*
X12166000Y-9981000D02*
X12166000Y-10081000D01*
X12116000Y-10031000D02*
X12216000Y-10031000D01*
X12116000Y-10235000D02*
X12216000Y-10335000D01*
X12216000Y-10235000D02*
X12116000Y-10335000D01*
X12166000Y-10235000D02*
X12166000Y-10335000D01*
X12116000Y-10285000D02*
X12216000Y-10285000D01*
X12370000Y-9981000D02*
X12470000Y-10081000D01*
X12470000Y-9981000D02*
X12370000Y-10081000D01*
X12420000Y-9981000D02*
X12420000Y-10081000D01*
X12370000Y-10031000D02*
X12470000Y-10031000D01*
X12370000Y-10235000D02*
X12470000Y-10335000D01*
X12470000Y-10235000D02*
X12370000Y-10335000D01*
X12420000Y-10235000D02*
X12420000Y-10335000D01*
X12370000Y-10285000D02*
X12470000Y-10285000D01*
X10147976Y-12040150D02*
X10248052Y-12140226D01*
X10248052Y-12040150D02*
X10147976Y-12140226D01*
X10233397Y-12125570D02*
X10233397Y-12054805D01*
X10162632Y-12054805D01*
X10162632Y-12125570D01*
X10233397Y-12125570D01*
X10401976Y-12040150D02*
X10502052Y-12140226D01*
X10502052Y-12040150D02*
X10401976Y-12140226D01*
X10487397Y-12125570D02*
X10487397Y-12054805D01*
X10416632Y-12054805D01*
X10416632Y-12125570D01*
X10487397Y-12125570D01*
X10605176Y-12040150D02*
X10705252Y-12140226D01*
X10705252Y-12040150D02*
X10605176Y-12140226D01*
X10690597Y-12125570D02*
X10690597Y-12054805D01*
X10619832Y-12054805D01*
X10619832Y-12125570D01*
X10690597Y-12125570D01*
X10859176Y-12040150D02*
X10959252Y-12140226D01*
X10959252Y-12040150D02*
X10859176Y-12140226D01*
X10944597Y-12125570D02*
X10944597Y-12054805D01*
X10873832Y-12054805D01*
X10873832Y-12125570D01*
X10944597Y-12125570D01*
X3781000Y-1185000D02*
X3901000Y-1305000D01*
X3901000Y-1185000D02*
X3781000Y-1305000D01*
X3841000Y-1305000D02*
X3901000Y-1245000D01*
X3841000Y-1185000D01*
X3781000Y-1245000D01*
X3841000Y-1305000D01*
X4035000Y-1185000D02*
X4155000Y-1305000D01*
X4155000Y-1185000D02*
X4035000Y-1305000D01*
X4095000Y-1305000D02*
X4155000Y-1245000D01*
X4095000Y-1185000D01*
X4035000Y-1245000D01*
X4095000Y-1305000D01*
X9008308Y-12462708D02*
X9128308Y-12582708D01*
X9128308Y-12462708D02*
X9008308Y-12582708D01*
X9068308Y-12582708D02*
X9128308Y-12522708D01*
X9068308Y-12462708D01*
X9008308Y-12522708D01*
X9068308Y-12582708D01*
X9262308Y-12462708D02*
X9382308Y-12582708D01*
X9382308Y-12462708D02*
X9262308Y-12582708D01*
X9322308Y-12582708D02*
X9382308Y-12522708D01*
X9322308Y-12462708D01*
X9262308Y-12522708D01*
X9322308Y-12582708D01*
X11305191Y-6662579D02*
X11305191Y-6822579D01*
X11225191Y-6742579D02*
X11385191Y-6742579D01*
X11385191Y-6742579D02*
G75*
G03X11385191Y-6742579I-80000J0D01*
G01*
X11305191Y-8237579D02*
X11305191Y-8397579D01*
X11225191Y-8317579D02*
X11385191Y-8317579D01*
X11385191Y-8317579D02*
G75*
G03X11385191Y-8317579I-80000J0D01*
G01*
X693933Y-2530433D02*
X693933Y-2404567D01*
X568067Y-2404567D01*
X568067Y-2530433D01*
X693933Y-2530433D01*
X720000Y-2467500D02*
G75*
G03X720000Y-2467500I-89000J0D01*
G01*
X693933Y-3165433D02*
X693933Y-3039567D01*
X568067Y-3039567D01*
X568067Y-3165433D01*
X693933Y-3165433D01*
X720000Y-3102500D02*
G75*
G03X720000Y-3102500I-89000J0D01*
G01*
X693933Y-3800433D02*
X693933Y-3674567D01*
X568067Y-3674567D01*
X568067Y-3800433D01*
X693933Y-3800433D01*
X720000Y-3737500D02*
G75*
G03X720000Y-3737500I-89000J0D01*
G01*
X693933Y-4435433D02*
X693933Y-4309567D01*
X568067Y-4309567D01*
X568067Y-4435433D01*
X693933Y-4435433D01*
X720000Y-4372500D02*
G75*
G03X720000Y-4372500I-89000J0D01*
G01*
X693933Y-7195433D02*
X693933Y-7069567D01*
X568067Y-7069567D01*
X568067Y-7195433D01*
X693933Y-7195433D01*
X720000Y-7132500D02*
G75*
G03X720000Y-7132500I-89000J0D01*
G01*
X693933Y-7830433D02*
X693933Y-7704567D01*
X568067Y-7704567D01*
X568067Y-7830433D01*
X693933Y-7830433D01*
X720000Y-7767500D02*
G75*
G03X720000Y-7767500I-89000J0D01*
G01*
X693933Y-10592433D02*
X693933Y-10466567D01*
X568067Y-10466567D01*
X568067Y-10592433D01*
X693933Y-10592433D01*
X720000Y-10529500D02*
G75*
G03X720000Y-10529500I-89000J0D01*
G01*
X693933Y-11227433D02*
X693933Y-11101567D01*
X568067Y-11101567D01*
X568067Y-11227433D01*
X693933Y-11227433D01*
X720000Y-11164500D02*
G75*
G03X720000Y-11164500I-89000J0D01*
G01*
X2166933Y-2530433D02*
X2166933Y-2404567D01*
X2041067Y-2404567D01*
X2041067Y-2530433D01*
X2166933Y-2530433D01*
X2193000Y-2467500D02*
G75*
G03X2193000Y-2467500I-89000J0D01*
G01*
X2166933Y-3165433D02*
X2166933Y-3039567D01*
X2041067Y-3039567D01*
X2041067Y-3165433D01*
X2166933Y-3165433D01*
X2193000Y-3102500D02*
G75*
G03X2193000Y-3102500I-89000J0D01*
G01*
X2166933Y-3800433D02*
X2166933Y-3674567D01*
X2041067Y-3674567D01*
X2041067Y-3800433D01*
X2166933Y-3800433D01*
X2193000Y-3737500D02*
G75*
G03X2193000Y-3737500I-89000J0D01*
G01*
X2166933Y-4435433D02*
X2166933Y-4309567D01*
X2041067Y-4309567D01*
X2041067Y-4435433D01*
X2166933Y-4435433D01*
X2193000Y-4372500D02*
G75*
G03X2193000Y-4372500I-89000J0D01*
G01*
X2166933Y-7195433D02*
X2166933Y-7069567D01*
X2041067Y-7069567D01*
X2041067Y-7195433D01*
X2166933Y-7195433D01*
X2193000Y-7132500D02*
G75*
G03X2193000Y-7132500I-89000J0D01*
G01*
X2166933Y-7830433D02*
X2166933Y-7704567D01*
X2041067Y-7704567D01*
X2041067Y-7830433D01*
X2166933Y-7830433D01*
X2193000Y-7767500D02*
G75*
G03X2193000Y-7767500I-89000J0D01*
G01*
X2166933Y-10592433D02*
X2166933Y-10466567D01*
X2041067Y-10466567D01*
X2041067Y-10592433D01*
X2166933Y-10592433D01*
X2193000Y-10529500D02*
G75*
G03X2193000Y-10529500I-89000J0D01*
G01*
X2166933Y-11227433D02*
X2166933Y-11101567D01*
X2041067Y-11101567D01*
X2041067Y-11227433D01*
X2166933Y-11227433D01*
X2193000Y-11164500D02*
G75*
G03X2193000Y-11164500I-89000J0D01*
G01*
X2545433Y-693933D02*
X2545433Y-568067D01*
X2419567Y-568067D01*
X2419567Y-693933D01*
X2545433Y-693933D01*
X2571500Y-631000D02*
G75*
G03X2571500Y-631000I-89000J0D01*
G01*
X3180433Y-693933D02*
X3180433Y-568067D01*
X3054567Y-568067D01*
X3054567Y-693933D01*
X3180433Y-693933D01*
X3206500Y-631000D02*
G75*
G03X3206500Y-631000I-89000J0D01*
G01*
X3639933Y-7195433D02*
X3639933Y-7069567D01*
X3514067Y-7069567D01*
X3514067Y-7195433D01*
X3639933Y-7195433D01*
X3666000Y-7132500D02*
G75*
G03X3666000Y-7132500I-89000J0D01*
G01*
X3639933Y-7830433D02*
X3639933Y-7704567D01*
X3514067Y-7704567D01*
X3514067Y-7830433D01*
X3639933Y-7830433D01*
X3666000Y-7767500D02*
G75*
G03X3666000Y-7767500I-89000J0D01*
G01*
X3639933Y-10592433D02*
X3639933Y-10466567D01*
X3514067Y-10466567D01*
X3514067Y-10592433D01*
X3639933Y-10592433D01*
X3666000Y-10529500D02*
G75*
G03X3666000Y-10529500I-89000J0D01*
G01*
X3639933Y-11227433D02*
X3639933Y-11101567D01*
X3514067Y-11101567D01*
X3514067Y-11227433D01*
X3639933Y-11227433D01*
X3666000Y-11164500D02*
G75*
G03X3666000Y-11164500I-89000J0D01*
G01*
X5112933Y-7195433D02*
X5112933Y-7069567D01*
X4987067Y-7069567D01*
X4987067Y-7195433D01*
X5112933Y-7195433D01*
X5139000Y-7132500D02*
G75*
G03X5139000Y-7132500I-89000J0D01*
G01*
X5112933Y-7830433D02*
X5112933Y-7704567D01*
X4987067Y-7704567D01*
X4987067Y-7830433D01*
X5112933Y-7830433D01*
X5139000Y-7767500D02*
G75*
G03X5139000Y-7767500I-89000J0D01*
G01*
X5112933Y-10592433D02*
X5112933Y-10466567D01*
X4987067Y-10466567D01*
X4987067Y-10592433D01*
X5112933Y-10592433D01*
X5139000Y-10529500D02*
G75*
G03X5139000Y-10529500I-89000J0D01*
G01*
X5112933Y-11227433D02*
X5112933Y-11101567D01*
X4987067Y-11101567D01*
X4987067Y-11227433D01*
X5112933Y-11227433D01*
X5139000Y-11164500D02*
G75*
G03X5139000Y-11164500I-89000J0D01*
G01*
X9893214Y-12471950D02*
X10008276Y-12356888D01*
X9893214Y-12241826D01*
X9778152Y-12356888D01*
X9893214Y-12471950D01*
X10008276Y-12356888D02*
G75*
G03X10008276Y-12356888I-115062J0D01*
G01*
X11264814Y-12471950D02*
X11379876Y-12356888D01*
X11264814Y-12241826D01*
X11149752Y-12356888D01*
X11264814Y-12471950D01*
X11379876Y-12356888D02*
G75*
G03X11379876Y-12356888I-115062J0D01*
G01*
X635000Y-460000D02*
X635000Y-810000D01*
X460000Y-635000D02*
X810000Y-635000D01*
X758745Y-758745D02*
X758745Y-511255D01*
X511255Y-511255D01*
X511255Y-758745D01*
X758745Y-758745D01*
X635000Y-11890000D02*
X635000Y-12240000D01*
X460000Y-12065000D02*
X810000Y-12065000D01*
X758745Y-12188745D02*
X758745Y-11941255D01*
X511255Y-11941255D01*
X511255Y-12188745D01*
X758745Y-12188745D01*
X12065000Y-460000D02*
X12065000Y-810000D01*
X11890000Y-635000D02*
X12240000Y-635000D01*
X12188745Y-758745D02*
X12188745Y-511255D01*
X11941255Y-511255D01*
X11941255Y-758745D01*
X12188745Y-758745D01*
X12065000Y-11890000D02*
X12065000Y-12240000D01*
X11890000Y-12065000D02*
X12240000Y-12065000D01*
X12188745Y-12188745D02*
X12188745Y-11941255D01*
X11941255Y-11941255D01*
X11941255Y-12188745D01*
X12188745Y-12188745D01*
D13*
X263929Y-13173214D02*
X263929Y-12873214D01*
X335357Y-12873214D01*
X378214Y-12887500D01*
X406786Y-12916071D01*
X421071Y-12944643D01*
X435357Y-13001786D01*
X435357Y-13044643D01*
X421071Y-13101786D01*
X406786Y-13130357D01*
X378214Y-13158929D01*
X335357Y-13173214D01*
X263929Y-13173214D01*
X563929Y-13173214D02*
X563929Y-12973214D01*
X563929Y-13030357D02*
X578214Y-13001786D01*
X592500Y-12987500D01*
X621071Y-12973214D01*
X649643Y-12973214D01*
X749643Y-13173214D02*
X749643Y-12973214D01*
X749643Y-12873214D02*
X735357Y-12887500D01*
X749643Y-12901786D01*
X763928Y-12887500D01*
X749643Y-12873214D01*
X749643Y-12901786D01*
X935357Y-13173214D02*
X906786Y-13158929D01*
X892500Y-13130357D01*
X892500Y-12873214D01*
X1092500Y-13173214D02*
X1063929Y-13158929D01*
X1049643Y-13130357D01*
X1049643Y-12873214D01*
X1435357Y-13173214D02*
X1435357Y-12873214D01*
X1535357Y-13087500D01*
X1635357Y-12873214D01*
X1635357Y-13173214D01*
X1906786Y-13173214D02*
X1906786Y-13016071D01*
X1892500Y-12987500D01*
X1863928Y-12973214D01*
X1806786Y-12973214D01*
X1778214Y-12987500D01*
X1906786Y-13158929D02*
X1878214Y-13173214D01*
X1806786Y-13173214D01*
X1778214Y-13158929D01*
X1763928Y-13130357D01*
X1763928Y-13101786D01*
X1778214Y-13073214D01*
X1806786Y-13058929D01*
X1878214Y-13058929D01*
X1906786Y-13044643D01*
X2049643Y-12973214D02*
X2049643Y-13273214D01*
X2049643Y-12987500D02*
X2078214Y-12973214D01*
X2135357Y-12973214D01*
X2163929Y-12987500D01*
X2178214Y-13001786D01*
X2192500Y-13030357D01*
X2192500Y-13116071D01*
X2178214Y-13144643D01*
X2163929Y-13158929D01*
X2135357Y-13173214D01*
X2078214Y-13173214D01*
X2049643Y-13158929D01*
X2321071Y-13144643D02*
X2335357Y-13158929D01*
X2321071Y-13173214D01*
X2306786Y-13158929D01*
X2321071Y-13144643D01*
X2321071Y-13173214D01*
X2321071Y-12987500D02*
X2335357Y-13001786D01*
X2321071Y-13016071D01*
X2306786Y-13001786D01*
X2321071Y-12987500D01*
X2321071Y-13016071D01*
X-37500Y-13652500D02*
X-7500Y-13682500D01*
X-7500Y-13652500D02*
X-37500Y-13682500D01*
X321071Y-13503214D02*
X349643Y-13503214D01*
X378214Y-13517500D01*
X392500Y-13531786D01*
X406786Y-13560357D01*
X421071Y-13617500D01*
X421071Y-13688929D01*
X406786Y-13746071D01*
X392500Y-13774643D01*
X378214Y-13788929D01*
X349643Y-13803214D01*
X321071Y-13803214D01*
X292500Y-13788929D01*
X278214Y-13774643D01*
X263929Y-13746071D01*
X249643Y-13688929D01*
X249643Y-13617500D01*
X263929Y-13560357D01*
X278214Y-13531786D01*
X292500Y-13517500D01*
X321071Y-13503214D01*
X549643Y-13774643D02*
X563929Y-13788929D01*
X549643Y-13803214D01*
X535357Y-13788929D01*
X549643Y-13774643D01*
X549643Y-13803214D01*
X663928Y-13503214D02*
X849643Y-13503214D01*
X749643Y-13617500D01*
X792500Y-13617500D01*
X821071Y-13631786D01*
X835357Y-13646071D01*
X849643Y-13674643D01*
X849643Y-13746071D01*
X835357Y-13774643D01*
X821071Y-13788929D01*
X792500Y-13803214D01*
X706786Y-13803214D01*
X678214Y-13788929D01*
X663928Y-13774643D01*
X1035357Y-13503214D02*
X1063929Y-13503214D01*
X1092500Y-13517500D01*
X1106786Y-13531786D01*
X1121071Y-13560357D01*
X1135357Y-13617500D01*
X1135357Y-13688929D01*
X1121071Y-13746071D01*
X1106786Y-13774643D01*
X1092500Y-13788929D01*
X1063929Y-13803214D01*
X1035357Y-13803214D01*
X1006786Y-13788929D01*
X992500Y-13774643D01*
X978214Y-13746071D01*
X963928Y-13688929D01*
X963928Y-13617500D01*
X978214Y-13560357D01*
X992500Y-13531786D01*
X1006786Y-13517500D01*
X1035357Y-13503214D01*
X1263929Y-13803214D02*
X1263929Y-13603214D01*
X1263929Y-13631786D02*
X1278214Y-13617500D01*
X1306786Y-13603214D01*
X1349643Y-13603214D01*
X1378214Y-13617500D01*
X1392500Y-13646071D01*
X1392500Y-13803214D01*
X1392500Y-13646071D02*
X1406786Y-13617500D01*
X1435357Y-13603214D01*
X1478214Y-13603214D01*
X1506786Y-13617500D01*
X1521071Y-13646071D01*
X1521071Y-13803214D01*
X1663928Y-13803214D02*
X1663928Y-13603214D01*
X1663928Y-13631786D02*
X1678214Y-13617500D01*
X1706786Y-13603214D01*
X1749643Y-13603214D01*
X1778214Y-13617500D01*
X1792500Y-13646071D01*
X1792500Y-13803214D01*
X1792500Y-13646071D02*
X1806786Y-13617500D01*
X1835357Y-13603214D01*
X1878214Y-13603214D01*
X1906786Y-13617500D01*
X1921071Y-13646071D01*
X1921071Y-13803214D01*
X2506786Y-13488929D02*
X2249643Y-13874643D01*
X2892500Y-13503214D02*
X2921071Y-13503214D01*
X2949643Y-13517500D01*
X2963928Y-13531786D01*
X2978214Y-13560357D01*
X2992500Y-13617500D01*
X2992500Y-13688929D01*
X2978214Y-13746071D01*
X2963928Y-13774643D01*
X2949643Y-13788929D01*
X2921071Y-13803214D01*
X2892500Y-13803214D01*
X2863928Y-13788929D01*
X2849643Y-13774643D01*
X2835357Y-13746071D01*
X2821071Y-13688929D01*
X2821071Y-13617500D01*
X2835357Y-13560357D01*
X2849643Y-13531786D01*
X2863928Y-13517500D01*
X2892500Y-13503214D01*
X3121071Y-13774643D02*
X3135357Y-13788929D01*
X3121071Y-13803214D01*
X3106786Y-13788929D01*
X3121071Y-13774643D01*
X3121071Y-13803214D01*
X3321071Y-13503214D02*
X3349643Y-13503214D01*
X3378214Y-13517500D01*
X3392500Y-13531786D01*
X3406785Y-13560357D01*
X3421071Y-13617500D01*
X3421071Y-13688929D01*
X3406785Y-13746071D01*
X3392500Y-13774643D01*
X3378214Y-13788929D01*
X3349643Y-13803214D01*
X3321071Y-13803214D01*
X3292500Y-13788929D01*
X3278214Y-13774643D01*
X3263928Y-13746071D01*
X3249643Y-13688929D01*
X3249643Y-13617500D01*
X3263928Y-13560357D01*
X3278214Y-13531786D01*
X3292500Y-13517500D01*
X3321071Y-13503214D01*
X3706785Y-13803214D02*
X3535357Y-13803214D01*
X3621071Y-13803214D02*
X3621071Y-13503214D01*
X3592500Y-13546071D01*
X3563928Y-13574643D01*
X3535357Y-13588929D01*
X3821071Y-13531786D02*
X3835357Y-13517500D01*
X3863928Y-13503214D01*
X3935357Y-13503214D01*
X3963928Y-13517500D01*
X3978214Y-13531786D01*
X3992500Y-13560357D01*
X3992500Y-13588929D01*
X3978214Y-13631786D01*
X3806785Y-13803214D01*
X3992500Y-13803214D01*
X4106786Y-13503214D02*
X4106786Y-13560357D01*
X4221071Y-13503214D02*
X4221071Y-13560357D01*
X4663928Y-13917500D02*
X4649643Y-13903214D01*
X4621071Y-13860357D01*
X4606786Y-13831786D01*
X4592500Y-13788929D01*
X4578214Y-13717500D01*
X4578214Y-13660357D01*
X4592500Y-13588929D01*
X4606786Y-13546071D01*
X4621071Y-13517500D01*
X4649643Y-13474643D01*
X4663928Y-13460357D01*
X4935357Y-13803214D02*
X4763928Y-13803214D01*
X4849643Y-13803214D02*
X4849643Y-13503214D01*
X4821071Y-13546071D01*
X4792500Y-13574643D01*
X4763928Y-13588929D01*
X5121071Y-13503214D02*
X5149643Y-13503214D01*
X5178214Y-13517500D01*
X5192500Y-13531786D01*
X5206786Y-13560357D01*
X5221071Y-13617500D01*
X5221071Y-13688929D01*
X5206786Y-13746071D01*
X5192500Y-13774643D01*
X5178214Y-13788929D01*
X5149643Y-13803214D01*
X5121071Y-13803214D01*
X5092500Y-13788929D01*
X5078214Y-13774643D01*
X5063928Y-13746071D01*
X5049643Y-13688929D01*
X5049643Y-13617500D01*
X5063928Y-13560357D01*
X5078214Y-13531786D01*
X5092500Y-13517500D01*
X5121071Y-13503214D01*
X5578214Y-13803214D02*
X5578214Y-13503214D01*
X5706785Y-13803214D02*
X5706785Y-13646071D01*
X5692500Y-13617500D01*
X5663928Y-13603214D01*
X5621071Y-13603214D01*
X5592500Y-13617500D01*
X5578214Y-13631786D01*
X5892500Y-13803214D02*
X5863928Y-13788929D01*
X5849643Y-13774643D01*
X5835357Y-13746071D01*
X5835357Y-13660357D01*
X5849643Y-13631786D01*
X5863928Y-13617500D01*
X5892500Y-13603214D01*
X5935357Y-13603214D01*
X5963928Y-13617500D01*
X5978214Y-13631786D01*
X5992500Y-13660357D01*
X5992500Y-13746071D01*
X5978214Y-13774643D01*
X5963928Y-13788929D01*
X5935357Y-13803214D01*
X5892500Y-13803214D01*
X6163928Y-13803214D02*
X6135357Y-13788929D01*
X6121071Y-13760357D01*
X6121071Y-13503214D01*
X6392500Y-13788929D02*
X6363928Y-13803214D01*
X6306786Y-13803214D01*
X6278214Y-13788929D01*
X6263928Y-13760357D01*
X6263928Y-13646071D01*
X6278214Y-13617500D01*
X6306786Y-13603214D01*
X6363928Y-13603214D01*
X6392500Y-13617500D01*
X6406786Y-13646071D01*
X6406786Y-13674643D01*
X6263928Y-13703214D01*
X6521071Y-13788929D02*
X6549643Y-13803214D01*
X6606786Y-13803214D01*
X6635357Y-13788929D01*
X6649643Y-13760357D01*
X6649643Y-13746071D01*
X6635357Y-13717500D01*
X6606786Y-13703214D01*
X6563928Y-13703214D01*
X6535357Y-13688929D01*
X6521071Y-13660357D01*
X6521071Y-13646071D01*
X6535357Y-13617500D01*
X6563928Y-13603214D01*
X6606786Y-13603214D01*
X6635357Y-13617500D01*
X6749643Y-13917500D02*
X6763928Y-13903214D01*
X6792500Y-13860357D01*
X6806786Y-13831786D01*
X6821071Y-13788929D01*
X6835357Y-13717500D01*
X6835357Y-13660357D01*
X6821071Y-13588929D01*
X6806786Y-13546071D01*
X6792500Y-13517500D01*
X6763928Y-13474643D01*
X6749643Y-13460357D01*
X-7500Y-14063500D02*
G75*
G03X-7500Y-14063500I-20000J0D01*
G01*
X321071Y-13899214D02*
X349643Y-13899214D01*
X378214Y-13913500D01*
X392500Y-13927786D01*
X406786Y-13956357D01*
X421071Y-14013500D01*
X421071Y-14084929D01*
X406786Y-14142071D01*
X392500Y-14170643D01*
X378214Y-14184929D01*
X349643Y-14199214D01*
X321071Y-14199214D01*
X292500Y-14184929D01*
X278214Y-14170643D01*
X263929Y-14142071D01*
X249643Y-14084929D01*
X249643Y-14013500D01*
X263929Y-13956357D01*
X278214Y-13927786D01*
X292500Y-13913500D01*
X321071Y-13899214D01*
X549643Y-14170643D02*
X563929Y-14184929D01*
X549643Y-14199214D01*
X535357Y-14184929D01*
X549643Y-14170643D01*
X549643Y-14199214D01*
X821071Y-13999214D02*
X821071Y-14199214D01*
X749643Y-13884929D02*
X678214Y-14099214D01*
X863928Y-14099214D01*
X1035357Y-13899214D02*
X1063929Y-13899214D01*
X1092500Y-13913500D01*
X1106786Y-13927786D01*
X1121071Y-13956357D01*
X1135357Y-14013500D01*
X1135357Y-14084929D01*
X1121071Y-14142071D01*
X1106786Y-14170643D01*
X1092500Y-14184929D01*
X1063929Y-14199214D01*
X1035357Y-14199214D01*
X1006786Y-14184929D01*
X992500Y-14170643D01*
X978214Y-14142071D01*
X963928Y-14084929D01*
X963928Y-14013500D01*
X978214Y-13956357D01*
X992500Y-13927786D01*
X1006786Y-13913500D01*
X1035357Y-13899214D01*
X1263929Y-14199214D02*
X1263929Y-13999214D01*
X1263929Y-14027786D02*
X1278214Y-14013500D01*
X1306786Y-13999214D01*
X1349643Y-13999214D01*
X1378214Y-14013500D01*
X1392500Y-14042071D01*
X1392500Y-14199214D01*
X1392500Y-14042071D02*
X1406786Y-14013500D01*
X1435357Y-13999214D01*
X1478214Y-13999214D01*
X1506786Y-14013500D01*
X1521071Y-14042071D01*
X1521071Y-14199214D01*
X1663928Y-14199214D02*
X1663928Y-13999214D01*
X1663928Y-14027786D02*
X1678214Y-14013500D01*
X1706786Y-13999214D01*
X1749643Y-13999214D01*
X1778214Y-14013500D01*
X1792500Y-14042071D01*
X1792500Y-14199214D01*
X1792500Y-14042071D02*
X1806786Y-14013500D01*
X1835357Y-13999214D01*
X1878214Y-13999214D01*
X1906786Y-14013500D01*
X1921071Y-14042071D01*
X1921071Y-14199214D01*
X2506786Y-13884929D02*
X2249643Y-14270643D01*
X2892500Y-13899214D02*
X2921071Y-13899214D01*
X2949643Y-13913500D01*
X2963928Y-13927786D01*
X2978214Y-13956357D01*
X2992500Y-14013500D01*
X2992500Y-14084929D01*
X2978214Y-14142071D01*
X2963928Y-14170643D01*
X2949643Y-14184929D01*
X2921071Y-14199214D01*
X2892500Y-14199214D01*
X2863928Y-14184929D01*
X2849643Y-14170643D01*
X2835357Y-14142071D01*
X2821071Y-14084929D01*
X2821071Y-14013500D01*
X2835357Y-13956357D01*
X2849643Y-13927786D01*
X2863928Y-13913500D01*
X2892500Y-13899214D01*
X3121071Y-14170643D02*
X3135357Y-14184929D01*
X3121071Y-14199214D01*
X3106786Y-14184929D01*
X3121071Y-14170643D01*
X3121071Y-14199214D01*
X3321071Y-13899214D02*
X3349643Y-13899214D01*
X3378214Y-13913500D01*
X3392500Y-13927786D01*
X3406785Y-13956357D01*
X3421071Y-14013500D01*
X3421071Y-14084929D01*
X3406785Y-14142071D01*
X3392500Y-14170643D01*
X3378214Y-14184929D01*
X3349643Y-14199214D01*
X3321071Y-14199214D01*
X3292500Y-14184929D01*
X3278214Y-14170643D01*
X3263928Y-14142071D01*
X3249643Y-14084929D01*
X3249643Y-14013500D01*
X3263928Y-13956357D01*
X3278214Y-13927786D01*
X3292500Y-13913500D01*
X3321071Y-13899214D01*
X3706785Y-14199214D02*
X3535357Y-14199214D01*
X3621071Y-14199214D02*
X3621071Y-13899214D01*
X3592500Y-13942071D01*
X3563928Y-13970643D01*
X3535357Y-13984929D01*
X3963928Y-13899214D02*
X3906785Y-13899214D01*
X3878214Y-13913500D01*
X3863928Y-13927786D01*
X3835357Y-13970643D01*
X3821071Y-14027786D01*
X3821071Y-14142071D01*
X3835357Y-14170643D01*
X3849643Y-14184929D01*
X3878214Y-14199214D01*
X3935357Y-14199214D01*
X3963928Y-14184929D01*
X3978214Y-14170643D01*
X3992500Y-14142071D01*
X3992500Y-14070643D01*
X3978214Y-14042071D01*
X3963928Y-14027786D01*
X3935357Y-14013500D01*
X3878214Y-14013500D01*
X3849643Y-14027786D01*
X3835357Y-14042071D01*
X3821071Y-14070643D01*
X4106786Y-13899214D02*
X4106786Y-13956357D01*
X4221071Y-13899214D02*
X4221071Y-13956357D01*
X4663928Y-14313500D02*
X4649643Y-14299214D01*
X4621071Y-14256357D01*
X4606786Y-14227786D01*
X4592500Y-14184929D01*
X4578214Y-14113500D01*
X4578214Y-14056357D01*
X4592500Y-13984929D01*
X4606786Y-13942071D01*
X4621071Y-13913500D01*
X4649643Y-13870643D01*
X4663928Y-13856357D01*
X4749643Y-13899214D02*
X4935357Y-13899214D01*
X4835357Y-14013500D01*
X4878214Y-14013500D01*
X4906786Y-14027786D01*
X4921071Y-14042071D01*
X4935357Y-14070643D01*
X4935357Y-14142071D01*
X4921071Y-14170643D01*
X4906786Y-14184929D01*
X4878214Y-14199214D01*
X4792500Y-14199214D01*
X4763928Y-14184929D01*
X4749643Y-14170643D01*
X5106786Y-14027786D02*
X5078214Y-14013500D01*
X5063928Y-13999214D01*
X5049643Y-13970643D01*
X5049643Y-13956357D01*
X5063928Y-13927786D01*
X5078214Y-13913500D01*
X5106786Y-13899214D01*
X5163928Y-13899214D01*
X5192500Y-13913500D01*
X5206786Y-13927786D01*
X5221071Y-13956357D01*
X5221071Y-13970643D01*
X5206786Y-13999214D01*
X5192500Y-14013500D01*
X5163928Y-14027786D01*
X5106786Y-14027786D01*
X5078214Y-14042071D01*
X5063928Y-14056357D01*
X5049643Y-14084929D01*
X5049643Y-14142071D01*
X5063928Y-14170643D01*
X5078214Y-14184929D01*
X5106786Y-14199214D01*
X5163928Y-14199214D01*
X5192500Y-14184929D01*
X5206786Y-14170643D01*
X5221071Y-14142071D01*
X5221071Y-14084929D01*
X5206786Y-14056357D01*
X5192500Y-14042071D01*
X5163928Y-14027786D01*
X5321071Y-13899214D02*
X5506786Y-13899214D01*
X5406786Y-14013500D01*
X5449643Y-14013500D01*
X5478214Y-14027786D01*
X5492500Y-14042071D01*
X5506786Y-14070643D01*
X5506786Y-14142071D01*
X5492500Y-14170643D01*
X5478214Y-14184929D01*
X5449643Y-14199214D01*
X5363928Y-14199214D01*
X5335357Y-14184929D01*
X5321071Y-14170643D01*
X5863928Y-14199214D02*
X5863928Y-13899214D01*
X5992500Y-14199214D02*
X5992500Y-14042071D01*
X5978214Y-14013500D01*
X5949643Y-13999214D01*
X5906785Y-13999214D01*
X5878214Y-14013500D01*
X5863928Y-14027786D01*
X6178214Y-14199214D02*
X6149643Y-14184929D01*
X6135357Y-14170643D01*
X6121071Y-14142071D01*
X6121071Y-14056357D01*
X6135357Y-14027786D01*
X6149643Y-14013500D01*
X6178214Y-13999214D01*
X6221071Y-13999214D01*
X6249643Y-14013500D01*
X6263928Y-14027786D01*
X6278214Y-14056357D01*
X6278214Y-14142071D01*
X6263928Y-14170643D01*
X6249643Y-14184929D01*
X6221071Y-14199214D01*
X6178214Y-14199214D01*
X6449643Y-14199214D02*
X6421071Y-14184929D01*
X6406786Y-14156357D01*
X6406786Y-13899214D01*
X6678214Y-14184929D02*
X6649643Y-14199214D01*
X6592500Y-14199214D01*
X6563928Y-14184929D01*
X6549643Y-14156357D01*
X6549643Y-14042071D01*
X6563928Y-14013500D01*
X6592500Y-13999214D01*
X6649643Y-13999214D01*
X6678214Y-14013500D01*
X6692500Y-14042071D01*
X6692500Y-14070643D01*
X6549643Y-14099214D01*
X6806786Y-14184929D02*
X6835357Y-14199214D01*
X6892500Y-14199214D01*
X6921071Y-14184929D01*
X6935357Y-14156357D01*
X6935357Y-14142071D01*
X6921071Y-14113500D01*
X6892500Y-14099214D01*
X6849643Y-14099214D01*
X6821071Y-14084929D01*
X6806786Y-14056357D01*
X6806786Y-14042071D01*
X6821071Y-14013500D01*
X6849643Y-13999214D01*
X6892500Y-13999214D01*
X6921071Y-14013500D01*
X7035357Y-14313500D02*
X7049643Y-14299214D01*
X7078214Y-14256357D01*
X7092500Y-14227786D01*
X7106786Y-14184929D01*
X7121071Y-14113500D01*
X7121071Y-14056357D01*
X7106786Y-13984929D01*
X7092500Y-13942071D01*
X7078214Y-13913500D01*
X7049643Y-13870643D01*
X7035357Y-13856357D01*
X-37500Y-14429500D02*
X-37500Y-14489500D01*
X-67500Y-14459500D02*
X-7500Y-14459500D01*
X321071Y-14295214D02*
X349643Y-14295214D01*
X378214Y-14309500D01*
X392500Y-14323786D01*
X406786Y-14352357D01*
X421071Y-14409500D01*
X421071Y-14480929D01*
X406786Y-14538071D01*
X392500Y-14566643D01*
X378214Y-14580929D01*
X349643Y-14595214D01*
X321071Y-14595214D01*
X292500Y-14580929D01*
X278214Y-14566643D01*
X263929Y-14538071D01*
X249643Y-14480929D01*
X249643Y-14409500D01*
X263929Y-14352357D01*
X278214Y-14323786D01*
X292500Y-14309500D01*
X321071Y-14295214D01*
X549643Y-14566643D02*
X563929Y-14580929D01*
X549643Y-14595214D01*
X535357Y-14580929D01*
X549643Y-14566643D01*
X549643Y-14595214D01*
X821071Y-14295214D02*
X763928Y-14295214D01*
X735357Y-14309500D01*
X721071Y-14323786D01*
X692500Y-14366643D01*
X678214Y-14423786D01*
X678214Y-14538071D01*
X692500Y-14566643D01*
X706786Y-14580929D01*
X735357Y-14595214D01*
X792500Y-14595214D01*
X821071Y-14580929D01*
X835357Y-14566643D01*
X849643Y-14538071D01*
X849643Y-14466643D01*
X835357Y-14438071D01*
X821071Y-14423786D01*
X792500Y-14409500D01*
X735357Y-14409500D01*
X706786Y-14423786D01*
X692500Y-14438071D01*
X678214Y-14466643D01*
X1035357Y-14295214D02*
X1063929Y-14295214D01*
X1092500Y-14309500D01*
X1106786Y-14323786D01*
X1121071Y-14352357D01*
X1135357Y-14409500D01*
X1135357Y-14480929D01*
X1121071Y-14538071D01*
X1106786Y-14566643D01*
X1092500Y-14580929D01*
X1063929Y-14595214D01*
X1035357Y-14595214D01*
X1006786Y-14580929D01*
X992500Y-14566643D01*
X978214Y-14538071D01*
X963928Y-14480929D01*
X963928Y-14409500D01*
X978214Y-14352357D01*
X992500Y-14323786D01*
X1006786Y-14309500D01*
X1035357Y-14295214D01*
X1263929Y-14595214D02*
X1263929Y-14395214D01*
X1263929Y-14423786D02*
X1278214Y-14409500D01*
X1306786Y-14395214D01*
X1349643Y-14395214D01*
X1378214Y-14409500D01*
X1392500Y-14438071D01*
X1392500Y-14595214D01*
X1392500Y-14438071D02*
X1406786Y-14409500D01*
X1435357Y-14395214D01*
X1478214Y-14395214D01*
X1506786Y-14409500D01*
X1521071Y-14438071D01*
X1521071Y-14595214D01*
X1663928Y-14595214D02*
X1663928Y-14395214D01*
X1663928Y-14423786D02*
X1678214Y-14409500D01*
X1706786Y-14395214D01*
X1749643Y-14395214D01*
X1778214Y-14409500D01*
X1792500Y-14438071D01*
X1792500Y-14595214D01*
X1792500Y-14438071D02*
X1806786Y-14409500D01*
X1835357Y-14395214D01*
X1878214Y-14395214D01*
X1906786Y-14409500D01*
X1921071Y-14438071D01*
X1921071Y-14595214D01*
X2506786Y-14280929D02*
X2249643Y-14666643D01*
X2892500Y-14295214D02*
X2921071Y-14295214D01*
X2949643Y-14309500D01*
X2963928Y-14323786D01*
X2978214Y-14352357D01*
X2992500Y-14409500D01*
X2992500Y-14480929D01*
X2978214Y-14538071D01*
X2963928Y-14566643D01*
X2949643Y-14580929D01*
X2921071Y-14595214D01*
X2892500Y-14595214D01*
X2863928Y-14580929D01*
X2849643Y-14566643D01*
X2835357Y-14538071D01*
X2821071Y-14480929D01*
X2821071Y-14409500D01*
X2835357Y-14352357D01*
X2849643Y-14323786D01*
X2863928Y-14309500D01*
X2892500Y-14295214D01*
X3121071Y-14566643D02*
X3135357Y-14580929D01*
X3121071Y-14595214D01*
X3106786Y-14580929D01*
X3121071Y-14566643D01*
X3121071Y-14595214D01*
X3321071Y-14295214D02*
X3349643Y-14295214D01*
X3378214Y-14309500D01*
X3392500Y-14323786D01*
X3406785Y-14352357D01*
X3421071Y-14409500D01*
X3421071Y-14480929D01*
X3406785Y-14538071D01*
X3392500Y-14566643D01*
X3378214Y-14580929D01*
X3349643Y-14595214D01*
X3321071Y-14595214D01*
X3292500Y-14580929D01*
X3278214Y-14566643D01*
X3263928Y-14538071D01*
X3249643Y-14480929D01*
X3249643Y-14409500D01*
X3263928Y-14352357D01*
X3278214Y-14323786D01*
X3292500Y-14309500D01*
X3321071Y-14295214D01*
X3535357Y-14323786D02*
X3549643Y-14309500D01*
X3578214Y-14295214D01*
X3649643Y-14295214D01*
X3678214Y-14309500D01*
X3692500Y-14323786D01*
X3706785Y-14352357D01*
X3706785Y-14380929D01*
X3692500Y-14423786D01*
X3521071Y-14595214D01*
X3706785Y-14595214D01*
X3963928Y-14395214D02*
X3963928Y-14595214D01*
X3892500Y-14280929D02*
X3821071Y-14495214D01*
X4006785Y-14495214D01*
X4106786Y-14295214D02*
X4106786Y-14352357D01*
X4221071Y-14295214D02*
X4221071Y-14352357D01*
X4663928Y-14709500D02*
X4649643Y-14695214D01*
X4621071Y-14652357D01*
X4606786Y-14623786D01*
X4592500Y-14580929D01*
X4578214Y-14509500D01*
X4578214Y-14452357D01*
X4592500Y-14380929D01*
X4606786Y-14338071D01*
X4621071Y-14309500D01*
X4649643Y-14266643D01*
X4663928Y-14252357D01*
X4763928Y-14323786D02*
X4778214Y-14309500D01*
X4806786Y-14295214D01*
X4878214Y-14295214D01*
X4906786Y-14309500D01*
X4921071Y-14323786D01*
X4935357Y-14352357D01*
X4935357Y-14380929D01*
X4921071Y-14423786D01*
X4749643Y-14595214D01*
X4935357Y-14595214D01*
X5192500Y-14295214D02*
X5135357Y-14295214D01*
X5106786Y-14309500D01*
X5092500Y-14323786D01*
X5063928Y-14366643D01*
X5049643Y-14423786D01*
X5049643Y-14538071D01*
X5063928Y-14566643D01*
X5078214Y-14580929D01*
X5106786Y-14595214D01*
X5163928Y-14595214D01*
X5192500Y-14580929D01*
X5206786Y-14566643D01*
X5221071Y-14538071D01*
X5221071Y-14466643D01*
X5206786Y-14438071D01*
X5192500Y-14423786D01*
X5163928Y-14409500D01*
X5106786Y-14409500D01*
X5078214Y-14423786D01*
X5063928Y-14438071D01*
X5049643Y-14466643D01*
X5578214Y-14595214D02*
X5578214Y-14295214D01*
X5706785Y-14595214D02*
X5706785Y-14438071D01*
X5692500Y-14409500D01*
X5663928Y-14395214D01*
X5621071Y-14395214D01*
X5592500Y-14409500D01*
X5578214Y-14423786D01*
X5892500Y-14595214D02*
X5863928Y-14580929D01*
X5849643Y-14566643D01*
X5835357Y-14538071D01*
X5835357Y-14452357D01*
X5849643Y-14423786D01*
X5863928Y-14409500D01*
X5892500Y-14395214D01*
X5935357Y-14395214D01*
X5963928Y-14409500D01*
X5978214Y-14423786D01*
X5992500Y-14452357D01*
X5992500Y-14538071D01*
X5978214Y-14566643D01*
X5963928Y-14580929D01*
X5935357Y-14595214D01*
X5892500Y-14595214D01*
X6163928Y-14595214D02*
X6135357Y-14580929D01*
X6121071Y-14552357D01*
X6121071Y-14295214D01*
X6392500Y-14580929D02*
X6363928Y-14595214D01*
X6306786Y-14595214D01*
X6278214Y-14580929D01*
X6263928Y-14552357D01*
X6263928Y-14438071D01*
X6278214Y-14409500D01*
X6306786Y-14395214D01*
X6363928Y-14395214D01*
X6392500Y-14409500D01*
X6406786Y-14438071D01*
X6406786Y-14466643D01*
X6263928Y-14495214D01*
X6521071Y-14580929D02*
X6549643Y-14595214D01*
X6606786Y-14595214D01*
X6635357Y-14580929D01*
X6649643Y-14552357D01*
X6649643Y-14538071D01*
X6635357Y-14509500D01*
X6606786Y-14495214D01*
X6563928Y-14495214D01*
X6535357Y-14480929D01*
X6521071Y-14452357D01*
X6521071Y-14438071D01*
X6535357Y-14409500D01*
X6563928Y-14395214D01*
X6606786Y-14395214D01*
X6635357Y-14409500D01*
X6749643Y-14709500D02*
X6763928Y-14695214D01*
X6792500Y-14652357D01*
X6806786Y-14623786D01*
X6821071Y-14580929D01*
X6835357Y-14509500D01*
X6835357Y-14452357D01*
X6821071Y-14380929D01*
X6806786Y-14338071D01*
X6792500Y-14309500D01*
X6763928Y-14266643D01*
X6749643Y-14252357D01*
X-17019Y-14878481D02*
X-17019Y-14832519D01*
X-62981Y-14832519D01*
X-62981Y-14878481D01*
X-17019Y-14878481D01*
X321071Y-14691214D02*
X349643Y-14691214D01*
X378214Y-14705500D01*
X392500Y-14719786D01*
X406786Y-14748357D01*
X421071Y-14805500D01*
X421071Y-14876929D01*
X406786Y-14934071D01*
X392500Y-14962643D01*
X378214Y-14976929D01*
X349643Y-14991214D01*
X321071Y-14991214D01*
X292500Y-14976929D01*
X278214Y-14962643D01*
X263929Y-14934071D01*
X249643Y-14876929D01*
X249643Y-14805500D01*
X263929Y-14748357D01*
X278214Y-14719786D01*
X292500Y-14705500D01*
X321071Y-14691214D01*
X549643Y-14962643D02*
X563929Y-14976929D01*
X549643Y-14991214D01*
X535357Y-14976929D01*
X549643Y-14962643D01*
X549643Y-14991214D01*
X821071Y-14691214D02*
X763928Y-14691214D01*
X735357Y-14705500D01*
X721071Y-14719786D01*
X692500Y-14762643D01*
X678214Y-14819786D01*
X678214Y-14934071D01*
X692500Y-14962643D01*
X706786Y-14976929D01*
X735357Y-14991214D01*
X792500Y-14991214D01*
X821071Y-14976929D01*
X835357Y-14962643D01*
X849643Y-14934071D01*
X849643Y-14862643D01*
X835357Y-14834071D01*
X821071Y-14819786D01*
X792500Y-14805500D01*
X735357Y-14805500D01*
X706786Y-14819786D01*
X692500Y-14834071D01*
X678214Y-14862643D01*
X1121071Y-14691214D02*
X978214Y-14691214D01*
X963928Y-14834071D01*
X978214Y-14819786D01*
X1006786Y-14805500D01*
X1078214Y-14805500D01*
X1106786Y-14819786D01*
X1121071Y-14834071D01*
X1135357Y-14862643D01*
X1135357Y-14934071D01*
X1121071Y-14962643D01*
X1106786Y-14976929D01*
X1078214Y-14991214D01*
X1006786Y-14991214D01*
X978214Y-14976929D01*
X963928Y-14962643D01*
X1263929Y-14991214D02*
X1263929Y-14791214D01*
X1263929Y-14819786D02*
X1278214Y-14805500D01*
X1306786Y-14791214D01*
X1349643Y-14791214D01*
X1378214Y-14805500D01*
X1392500Y-14834071D01*
X1392500Y-14991214D01*
X1392500Y-14834071D02*
X1406786Y-14805500D01*
X1435357Y-14791214D01*
X1478214Y-14791214D01*
X1506786Y-14805500D01*
X1521071Y-14834071D01*
X1521071Y-14991214D01*
X1663928Y-14991214D02*
X1663928Y-14791214D01*
X1663928Y-14819786D02*
X1678214Y-14805500D01*
X1706786Y-14791214D01*
X1749643Y-14791214D01*
X1778214Y-14805500D01*
X1792500Y-14834071D01*
X1792500Y-14991214D01*
X1792500Y-14834071D02*
X1806786Y-14805500D01*
X1835357Y-14791214D01*
X1878214Y-14791214D01*
X1906786Y-14805500D01*
X1921071Y-14834071D01*
X1921071Y-14991214D01*
X2506786Y-14676929D02*
X2249643Y-15062643D01*
X2892500Y-14691214D02*
X2921071Y-14691214D01*
X2949643Y-14705500D01*
X2963928Y-14719786D01*
X2978214Y-14748357D01*
X2992500Y-14805500D01*
X2992500Y-14876929D01*
X2978214Y-14934071D01*
X2963928Y-14962643D01*
X2949643Y-14976929D01*
X2921071Y-14991214D01*
X2892500Y-14991214D01*
X2863928Y-14976929D01*
X2849643Y-14962643D01*
X2835357Y-14934071D01*
X2821071Y-14876929D01*
X2821071Y-14805500D01*
X2835357Y-14748357D01*
X2849643Y-14719786D01*
X2863928Y-14705500D01*
X2892500Y-14691214D01*
X3121071Y-14962643D02*
X3135357Y-14976929D01*
X3121071Y-14991214D01*
X3106786Y-14976929D01*
X3121071Y-14962643D01*
X3121071Y-14991214D01*
X3321071Y-14691214D02*
X3349643Y-14691214D01*
X3378214Y-14705500D01*
X3392500Y-14719786D01*
X3406785Y-14748357D01*
X3421071Y-14805500D01*
X3421071Y-14876929D01*
X3406785Y-14934071D01*
X3392500Y-14962643D01*
X3378214Y-14976929D01*
X3349643Y-14991214D01*
X3321071Y-14991214D01*
X3292500Y-14976929D01*
X3278214Y-14962643D01*
X3263928Y-14934071D01*
X3249643Y-14876929D01*
X3249643Y-14805500D01*
X3263928Y-14748357D01*
X3278214Y-14719786D01*
X3292500Y-14705500D01*
X3321071Y-14691214D01*
X3535357Y-14719786D02*
X3549643Y-14705500D01*
X3578214Y-14691214D01*
X3649643Y-14691214D01*
X3678214Y-14705500D01*
X3692500Y-14719786D01*
X3706785Y-14748357D01*
X3706785Y-14776929D01*
X3692500Y-14819786D01*
X3521071Y-14991214D01*
X3706785Y-14991214D01*
X3963928Y-14691214D02*
X3906785Y-14691214D01*
X3878214Y-14705500D01*
X3863928Y-14719786D01*
X3835357Y-14762643D01*
X3821071Y-14819786D01*
X3821071Y-14934071D01*
X3835357Y-14962643D01*
X3849643Y-14976929D01*
X3878214Y-14991214D01*
X3935357Y-14991214D01*
X3963928Y-14976929D01*
X3978214Y-14962643D01*
X3992500Y-14934071D01*
X3992500Y-14862643D01*
X3978214Y-14834071D01*
X3963928Y-14819786D01*
X3935357Y-14805500D01*
X3878214Y-14805500D01*
X3849643Y-14819786D01*
X3835357Y-14834071D01*
X3821071Y-14862643D01*
X4106786Y-14691214D02*
X4106786Y-14748357D01*
X4221071Y-14691214D02*
X4221071Y-14748357D01*
X4663928Y-15105500D02*
X4649643Y-15091214D01*
X4621071Y-15048357D01*
X4606786Y-15019786D01*
X4592500Y-14976929D01*
X4578214Y-14905500D01*
X4578214Y-14848357D01*
X4592500Y-14776929D01*
X4606786Y-14734071D01*
X4621071Y-14705500D01*
X4649643Y-14662643D01*
X4663928Y-14648357D01*
X4935357Y-14991214D02*
X4763928Y-14991214D01*
X4849643Y-14991214D02*
X4849643Y-14691214D01*
X4821071Y-14734071D01*
X4792500Y-14762643D01*
X4763928Y-14776929D01*
X5121071Y-14691214D02*
X5149643Y-14691214D01*
X5178214Y-14705500D01*
X5192500Y-14719786D01*
X5206786Y-14748357D01*
X5221071Y-14805500D01*
X5221071Y-14876929D01*
X5206786Y-14934071D01*
X5192500Y-14962643D01*
X5178214Y-14976929D01*
X5149643Y-14991214D01*
X5121071Y-14991214D01*
X5092500Y-14976929D01*
X5078214Y-14962643D01*
X5063928Y-14934071D01*
X5049643Y-14876929D01*
X5049643Y-14805500D01*
X5063928Y-14748357D01*
X5078214Y-14719786D01*
X5092500Y-14705500D01*
X5121071Y-14691214D01*
X5578214Y-14991214D02*
X5578214Y-14691214D01*
X5706785Y-14991214D02*
X5706785Y-14834071D01*
X5692500Y-14805500D01*
X5663928Y-14791214D01*
X5621071Y-14791214D01*
X5592500Y-14805500D01*
X5578214Y-14819786D01*
X5892500Y-14991214D02*
X5863928Y-14976929D01*
X5849643Y-14962643D01*
X5835357Y-14934071D01*
X5835357Y-14848357D01*
X5849643Y-14819786D01*
X5863928Y-14805500D01*
X5892500Y-14791214D01*
X5935357Y-14791214D01*
X5963928Y-14805500D01*
X5978214Y-14819786D01*
X5992500Y-14848357D01*
X5992500Y-14934071D01*
X5978214Y-14962643D01*
X5963928Y-14976929D01*
X5935357Y-14991214D01*
X5892500Y-14991214D01*
X6163928Y-14991214D02*
X6135357Y-14976929D01*
X6121071Y-14948357D01*
X6121071Y-14691214D01*
X6392500Y-14976929D02*
X6363928Y-14991214D01*
X6306786Y-14991214D01*
X6278214Y-14976929D01*
X6263928Y-14948357D01*
X6263928Y-14834071D01*
X6278214Y-14805500D01*
X6306786Y-14791214D01*
X6363928Y-14791214D01*
X6392500Y-14805500D01*
X6406786Y-14834071D01*
X6406786Y-14862643D01*
X6263928Y-14891214D01*
X6521071Y-14976929D02*
X6549643Y-14991214D01*
X6606786Y-14991214D01*
X6635357Y-14976929D01*
X6649643Y-14948357D01*
X6649643Y-14934071D01*
X6635357Y-14905500D01*
X6606786Y-14891214D01*
X6563928Y-14891214D01*
X6535357Y-14876929D01*
X6521071Y-14848357D01*
X6521071Y-14834071D01*
X6535357Y-14805500D01*
X6563928Y-14791214D01*
X6606786Y-14791214D01*
X6635357Y-14805500D01*
X7006786Y-14876929D02*
X7235357Y-14876929D01*
X7121071Y-14991214D02*
X7121071Y-14762643D01*
X7592500Y-14719786D02*
X7606786Y-14705500D01*
X7635357Y-14691214D01*
X7706786Y-14691214D01*
X7735357Y-14705500D01*
X7749643Y-14719786D01*
X7763928Y-14748357D01*
X7763928Y-14776929D01*
X7749643Y-14819786D01*
X7578214Y-14991214D01*
X7763928Y-14991214D01*
X8106786Y-14976929D02*
X8135357Y-14991214D01*
X8192500Y-14991214D01*
X8221071Y-14976929D01*
X8235357Y-14948357D01*
X8235357Y-14934071D01*
X8221071Y-14905500D01*
X8192500Y-14891214D01*
X8149643Y-14891214D01*
X8121071Y-14876929D01*
X8106786Y-14848357D01*
X8106786Y-14834071D01*
X8121071Y-14805500D01*
X8149643Y-14791214D01*
X8192500Y-14791214D01*
X8221071Y-14805500D01*
X8406786Y-14991214D02*
X8378214Y-14976929D01*
X8363928Y-14948357D01*
X8363928Y-14691214D01*
X8563928Y-14991214D02*
X8535357Y-14976929D01*
X8521071Y-14962643D01*
X8506786Y-14934071D01*
X8506786Y-14848357D01*
X8521071Y-14819786D01*
X8535357Y-14805500D01*
X8563928Y-14791214D01*
X8606786Y-14791214D01*
X8635357Y-14805500D01*
X8649643Y-14819786D01*
X8663928Y-14848357D01*
X8663928Y-14934071D01*
X8649643Y-14962643D01*
X8635357Y-14976929D01*
X8606786Y-14991214D01*
X8563928Y-14991214D01*
X8749643Y-14791214D02*
X8863928Y-14791214D01*
X8792500Y-14691214D02*
X8792500Y-14948357D01*
X8806786Y-14976929D01*
X8835357Y-14991214D01*
X8863928Y-14991214D01*
X8949643Y-14976929D02*
X8978214Y-14991214D01*
X9035357Y-14991214D01*
X9063929Y-14976929D01*
X9078214Y-14948357D01*
X9078214Y-14934071D01*
X9063929Y-14905500D01*
X9035357Y-14891214D01*
X8992500Y-14891214D01*
X8963929Y-14876929D01*
X8949643Y-14848357D01*
X8949643Y-14834071D01*
X8963929Y-14805500D01*
X8992500Y-14791214D01*
X9035357Y-14791214D01*
X9063929Y-14805500D01*
X9178214Y-15105500D02*
X9192500Y-15091214D01*
X9221071Y-15048357D01*
X9235357Y-15019786D01*
X9249643Y-14976929D01*
X9263928Y-14905500D01*
X9263928Y-14848357D01*
X9249643Y-14776929D01*
X9235357Y-14734071D01*
X9221071Y-14705500D01*
X9192500Y-14662643D01*
X9178214Y-14648357D01*
X-42500Y-15286500D02*
X-7500Y-15251500D01*
X-42500Y-15216500D01*
X-77500Y-15251500D01*
X-42500Y-15286500D01*
X321071Y-15087214D02*
X349643Y-15087214D01*
X378214Y-15101500D01*
X392500Y-15115786D01*
X406786Y-15144357D01*
X421071Y-15201500D01*
X421071Y-15272929D01*
X406786Y-15330071D01*
X392500Y-15358643D01*
X378214Y-15372929D01*
X349643Y-15387214D01*
X321071Y-15387214D01*
X292500Y-15372929D01*
X278214Y-15358643D01*
X263929Y-15330071D01*
X249643Y-15272929D01*
X249643Y-15201500D01*
X263929Y-15144357D01*
X278214Y-15115786D01*
X292500Y-15101500D01*
X321071Y-15087214D01*
X549643Y-15358643D02*
X563929Y-15372929D01*
X549643Y-15387214D01*
X535357Y-15372929D01*
X549643Y-15358643D01*
X549643Y-15387214D01*
X663928Y-15087214D02*
X863928Y-15087214D01*
X735357Y-15387214D01*
X1035357Y-15087214D02*
X1063929Y-15087214D01*
X1092500Y-15101500D01*
X1106786Y-15115786D01*
X1121071Y-15144357D01*
X1135357Y-15201500D01*
X1135357Y-15272929D01*
X1121071Y-15330071D01*
X1106786Y-15358643D01*
X1092500Y-15372929D01*
X1063929Y-15387214D01*
X1035357Y-15387214D01*
X1006786Y-15372929D01*
X992500Y-15358643D01*
X978214Y-15330071D01*
X963928Y-15272929D01*
X963928Y-15201500D01*
X978214Y-15144357D01*
X992500Y-15115786D01*
X1006786Y-15101500D01*
X1035357Y-15087214D01*
X1263929Y-15387214D02*
X1263929Y-15187214D01*
X1263929Y-15215786D02*
X1278214Y-15201500D01*
X1306786Y-15187214D01*
X1349643Y-15187214D01*
X1378214Y-15201500D01*
X1392500Y-15230071D01*
X1392500Y-15387214D01*
X1392500Y-15230071D02*
X1406786Y-15201500D01*
X1435357Y-15187214D01*
X1478214Y-15187214D01*
X1506786Y-15201500D01*
X1521071Y-15230071D01*
X1521071Y-15387214D01*
X1663928Y-15387214D02*
X1663928Y-15187214D01*
X1663928Y-15215786D02*
X1678214Y-15201500D01*
X1706786Y-15187214D01*
X1749643Y-15187214D01*
X1778214Y-15201500D01*
X1792500Y-15230071D01*
X1792500Y-15387214D01*
X1792500Y-15230071D02*
X1806786Y-15201500D01*
X1835357Y-15187214D01*
X1878214Y-15187214D01*
X1906786Y-15201500D01*
X1921071Y-15230071D01*
X1921071Y-15387214D01*
X2506786Y-15072929D02*
X2249643Y-15458643D01*
X2892500Y-15087214D02*
X2921071Y-15087214D01*
X2949643Y-15101500D01*
X2963928Y-15115786D01*
X2978214Y-15144357D01*
X2992500Y-15201500D01*
X2992500Y-15272929D01*
X2978214Y-15330071D01*
X2963928Y-15358643D01*
X2949643Y-15372929D01*
X2921071Y-15387214D01*
X2892500Y-15387214D01*
X2863928Y-15372929D01*
X2849643Y-15358643D01*
X2835357Y-15330071D01*
X2821071Y-15272929D01*
X2821071Y-15201500D01*
X2835357Y-15144357D01*
X2849643Y-15115786D01*
X2863928Y-15101500D01*
X2892500Y-15087214D01*
X3121071Y-15358643D02*
X3135357Y-15372929D01*
X3121071Y-15387214D01*
X3106786Y-15372929D01*
X3121071Y-15358643D01*
X3121071Y-15387214D01*
X3321071Y-15087214D02*
X3349643Y-15087214D01*
X3378214Y-15101500D01*
X3392500Y-15115786D01*
X3406785Y-15144357D01*
X3421071Y-15201500D01*
X3421071Y-15272929D01*
X3406785Y-15330071D01*
X3392500Y-15358643D01*
X3378214Y-15372929D01*
X3349643Y-15387214D01*
X3321071Y-15387214D01*
X3292500Y-15372929D01*
X3278214Y-15358643D01*
X3263928Y-15330071D01*
X3249643Y-15272929D01*
X3249643Y-15201500D01*
X3263928Y-15144357D01*
X3278214Y-15115786D01*
X3292500Y-15101500D01*
X3321071Y-15087214D01*
X3535357Y-15115786D02*
X3549643Y-15101500D01*
X3578214Y-15087214D01*
X3649643Y-15087214D01*
X3678214Y-15101500D01*
X3692500Y-15115786D01*
X3706785Y-15144357D01*
X3706785Y-15172929D01*
X3692500Y-15215786D01*
X3521071Y-15387214D01*
X3706785Y-15387214D01*
X3878214Y-15215786D02*
X3849643Y-15201500D01*
X3835357Y-15187214D01*
X3821071Y-15158643D01*
X3821071Y-15144357D01*
X3835357Y-15115786D01*
X3849643Y-15101500D01*
X3878214Y-15087214D01*
X3935357Y-15087214D01*
X3963928Y-15101500D01*
X3978214Y-15115786D01*
X3992500Y-15144357D01*
X3992500Y-15158643D01*
X3978214Y-15187214D01*
X3963928Y-15201500D01*
X3935357Y-15215786D01*
X3878214Y-15215786D01*
X3849643Y-15230071D01*
X3835357Y-15244357D01*
X3821071Y-15272929D01*
X3821071Y-15330071D01*
X3835357Y-15358643D01*
X3849643Y-15372929D01*
X3878214Y-15387214D01*
X3935357Y-15387214D01*
X3963928Y-15372929D01*
X3978214Y-15358643D01*
X3992500Y-15330071D01*
X3992500Y-15272929D01*
X3978214Y-15244357D01*
X3963928Y-15230071D01*
X3935357Y-15215786D01*
X4106786Y-15087214D02*
X4106786Y-15144357D01*
X4221071Y-15087214D02*
X4221071Y-15144357D01*
X4663928Y-15501500D02*
X4649643Y-15487214D01*
X4621071Y-15444357D01*
X4606786Y-15415786D01*
X4592500Y-15372929D01*
X4578214Y-15301500D01*
X4578214Y-15244357D01*
X4592500Y-15172929D01*
X4606786Y-15130071D01*
X4621071Y-15101500D01*
X4649643Y-15058643D01*
X4663928Y-15044357D01*
X4835357Y-15087214D02*
X4863928Y-15087214D01*
X4892500Y-15101500D01*
X4906786Y-15115786D01*
X4921071Y-15144357D01*
X4935357Y-15201500D01*
X4935357Y-15272929D01*
X4921071Y-15330071D01*
X4906786Y-15358643D01*
X4892500Y-15372929D01*
X4863928Y-15387214D01*
X4835357Y-15387214D01*
X4806786Y-15372929D01*
X4792500Y-15358643D01*
X4778214Y-15330071D01*
X4763928Y-15272929D01*
X4763928Y-15201500D01*
X4778214Y-15144357D01*
X4792500Y-15115786D01*
X4806786Y-15101500D01*
X4835357Y-15087214D01*
X5292500Y-15387214D02*
X5292500Y-15087214D01*
X5421071Y-15387214D02*
X5421071Y-15230071D01*
X5406786Y-15201500D01*
X5378214Y-15187214D01*
X5335357Y-15187214D01*
X5306786Y-15201500D01*
X5292500Y-15215786D01*
X5606785Y-15387214D02*
X5578214Y-15372929D01*
X5563928Y-15358643D01*
X5549643Y-15330071D01*
X5549643Y-15244357D01*
X5563928Y-15215786D01*
X5578214Y-15201500D01*
X5606785Y-15187214D01*
X5649643Y-15187214D01*
X5678214Y-15201500D01*
X5692500Y-15215786D01*
X5706785Y-15244357D01*
X5706785Y-15330071D01*
X5692500Y-15358643D01*
X5678214Y-15372929D01*
X5649643Y-15387214D01*
X5606785Y-15387214D01*
X5878214Y-15387214D02*
X5849643Y-15372929D01*
X5835357Y-15344357D01*
X5835357Y-15087214D01*
X6106786Y-15372929D02*
X6078214Y-15387214D01*
X6021071Y-15387214D01*
X5992500Y-15372929D01*
X5978214Y-15344357D01*
X5978214Y-15230071D01*
X5992500Y-15201500D01*
X6021071Y-15187214D01*
X6078214Y-15187214D01*
X6106786Y-15201500D01*
X6121071Y-15230071D01*
X6121071Y-15258643D01*
X5978214Y-15287214D01*
X6235357Y-15372929D02*
X6263928Y-15387214D01*
X6321071Y-15387214D01*
X6349643Y-15372929D01*
X6363928Y-15344357D01*
X6363928Y-15330071D01*
X6349643Y-15301500D01*
X6321071Y-15287214D01*
X6278214Y-15287214D01*
X6249643Y-15272929D01*
X6235357Y-15244357D01*
X6235357Y-15230071D01*
X6249643Y-15201500D01*
X6278214Y-15187214D01*
X6321071Y-15187214D01*
X6349643Y-15201500D01*
X6721071Y-15272929D02*
X6949643Y-15272929D01*
X6835357Y-15387214D02*
X6835357Y-15158643D01*
X7306786Y-15115786D02*
X7321071Y-15101500D01*
X7349643Y-15087214D01*
X7421071Y-15087214D01*
X7449643Y-15101500D01*
X7463928Y-15115786D01*
X7478214Y-15144357D01*
X7478214Y-15172929D01*
X7463928Y-15215786D01*
X7292500Y-15387214D01*
X7478214Y-15387214D01*
X7821071Y-15372929D02*
X7849643Y-15387214D01*
X7906785Y-15387214D01*
X7935357Y-15372929D01*
X7949643Y-15344357D01*
X7949643Y-15330071D01*
X7935357Y-15301500D01*
X7906785Y-15287214D01*
X7863928Y-15287214D01*
X7835357Y-15272929D01*
X7821071Y-15244357D01*
X7821071Y-15230071D01*
X7835357Y-15201500D01*
X7863928Y-15187214D01*
X7906785Y-15187214D01*
X7935357Y-15201500D01*
X8121071Y-15387214D02*
X8092500Y-15372929D01*
X8078214Y-15344357D01*
X8078214Y-15087214D01*
X8278214Y-15387214D02*
X8249643Y-15372929D01*
X8235357Y-15358643D01*
X8221071Y-15330071D01*
X8221071Y-15244357D01*
X8235357Y-15215786D01*
X8249643Y-15201500D01*
X8278214Y-15187214D01*
X8321071Y-15187214D01*
X8349643Y-15201500D01*
X8363928Y-15215786D01*
X8378214Y-15244357D01*
X8378214Y-15330071D01*
X8363928Y-15358643D01*
X8349643Y-15372929D01*
X8321071Y-15387214D01*
X8278214Y-15387214D01*
X8463928Y-15187214D02*
X8578214Y-15187214D01*
X8506786Y-15087214D02*
X8506786Y-15344357D01*
X8521071Y-15372929D01*
X8549643Y-15387214D01*
X8578214Y-15387214D01*
X8663929Y-15372929D02*
X8692500Y-15387214D01*
X8749643Y-15387214D01*
X8778214Y-15372929D01*
X8792500Y-15344357D01*
X8792500Y-15330071D01*
X8778214Y-15301500D01*
X8749643Y-15287214D01*
X8706786Y-15287214D01*
X8678214Y-15272929D01*
X8663929Y-15244357D01*
X8663929Y-15230071D01*
X8678214Y-15201500D01*
X8706786Y-15187214D01*
X8749643Y-15187214D01*
X8778214Y-15201500D01*
X8892500Y-15501500D02*
X8906786Y-15487214D01*
X8935357Y-15444357D01*
X8949643Y-15415786D01*
X8963928Y-15372929D01*
X8978214Y-15301500D01*
X8978214Y-15244357D01*
X8963928Y-15172929D01*
X8949643Y-15130071D01*
X8935357Y-15101500D01*
X8906786Y-15058643D01*
X8892500Y-15044357D01*
X-97500Y-15602500D02*
X-7500Y-15692500D01*
X-7500Y-15602500D02*
X-97500Y-15692500D01*
X-7500Y-15647500D02*
G75*
G03X-7500Y-15647500I-45000J0D01*
G01*
X321071Y-15483214D02*
X349643Y-15483214D01*
X378214Y-15497500D01*
X392500Y-15511786D01*
X406786Y-15540357D01*
X421071Y-15597500D01*
X421071Y-15668929D01*
X406786Y-15726071D01*
X392500Y-15754643D01*
X378214Y-15768929D01*
X349643Y-15783214D01*
X321071Y-15783214D01*
X292500Y-15768929D01*
X278214Y-15754643D01*
X263929Y-15726071D01*
X249643Y-15668929D01*
X249643Y-15597500D01*
X263929Y-15540357D01*
X278214Y-15511786D01*
X292500Y-15497500D01*
X321071Y-15483214D01*
X549643Y-15754643D02*
X563929Y-15768929D01*
X549643Y-15783214D01*
X535357Y-15768929D01*
X549643Y-15754643D01*
X549643Y-15783214D01*
X706786Y-15783214D02*
X763928Y-15783214D01*
X792500Y-15768929D01*
X806786Y-15754643D01*
X835357Y-15711786D01*
X849643Y-15654643D01*
X849643Y-15540357D01*
X835357Y-15511786D01*
X821071Y-15497500D01*
X792500Y-15483214D01*
X735357Y-15483214D01*
X706786Y-15497500D01*
X692500Y-15511786D01*
X678214Y-15540357D01*
X678214Y-15611786D01*
X692500Y-15640357D01*
X706786Y-15654643D01*
X735357Y-15668929D01*
X792500Y-15668929D01*
X821071Y-15654643D01*
X835357Y-15640357D01*
X849643Y-15611786D01*
X1035357Y-15483214D02*
X1063929Y-15483214D01*
X1092500Y-15497500D01*
X1106786Y-15511786D01*
X1121071Y-15540357D01*
X1135357Y-15597500D01*
X1135357Y-15668929D01*
X1121071Y-15726071D01*
X1106786Y-15754643D01*
X1092500Y-15768929D01*
X1063929Y-15783214D01*
X1035357Y-15783214D01*
X1006786Y-15768929D01*
X992500Y-15754643D01*
X978214Y-15726071D01*
X963928Y-15668929D01*
X963928Y-15597500D01*
X978214Y-15540357D01*
X992500Y-15511786D01*
X1006786Y-15497500D01*
X1035357Y-15483214D01*
X1263929Y-15783214D02*
X1263929Y-15583214D01*
X1263929Y-15611786D02*
X1278214Y-15597500D01*
X1306786Y-15583214D01*
X1349643Y-15583214D01*
X1378214Y-15597500D01*
X1392500Y-15626071D01*
X1392500Y-15783214D01*
X1392500Y-15626071D02*
X1406786Y-15597500D01*
X1435357Y-15583214D01*
X1478214Y-15583214D01*
X1506786Y-15597500D01*
X1521071Y-15626071D01*
X1521071Y-15783214D01*
X1663928Y-15783214D02*
X1663928Y-15583214D01*
X1663928Y-15611786D02*
X1678214Y-15597500D01*
X1706786Y-15583214D01*
X1749643Y-15583214D01*
X1778214Y-15597500D01*
X1792500Y-15626071D01*
X1792500Y-15783214D01*
X1792500Y-15626071D02*
X1806786Y-15597500D01*
X1835357Y-15583214D01*
X1878214Y-15583214D01*
X1906786Y-15597500D01*
X1921071Y-15626071D01*
X1921071Y-15783214D01*
X2506786Y-15468929D02*
X2249643Y-15854643D01*
X2892500Y-15483214D02*
X2921071Y-15483214D01*
X2949643Y-15497500D01*
X2963928Y-15511786D01*
X2978214Y-15540357D01*
X2992500Y-15597500D01*
X2992500Y-15668929D01*
X2978214Y-15726071D01*
X2963928Y-15754643D01*
X2949643Y-15768929D01*
X2921071Y-15783214D01*
X2892500Y-15783214D01*
X2863928Y-15768929D01*
X2849643Y-15754643D01*
X2835357Y-15726071D01*
X2821071Y-15668929D01*
X2821071Y-15597500D01*
X2835357Y-15540357D01*
X2849643Y-15511786D01*
X2863928Y-15497500D01*
X2892500Y-15483214D01*
X3121071Y-15754643D02*
X3135357Y-15768929D01*
X3121071Y-15783214D01*
X3106786Y-15768929D01*
X3121071Y-15754643D01*
X3121071Y-15783214D01*
X3321071Y-15483214D02*
X3349643Y-15483214D01*
X3378214Y-15497500D01*
X3392500Y-15511786D01*
X3406785Y-15540357D01*
X3421071Y-15597500D01*
X3421071Y-15668929D01*
X3406785Y-15726071D01*
X3392500Y-15754643D01*
X3378214Y-15768929D01*
X3349643Y-15783214D01*
X3321071Y-15783214D01*
X3292500Y-15768929D01*
X3278214Y-15754643D01*
X3263928Y-15726071D01*
X3249643Y-15668929D01*
X3249643Y-15597500D01*
X3263928Y-15540357D01*
X3278214Y-15511786D01*
X3292500Y-15497500D01*
X3321071Y-15483214D01*
X3521071Y-15483214D02*
X3706785Y-15483214D01*
X3606785Y-15597500D01*
X3649643Y-15597500D01*
X3678214Y-15611786D01*
X3692500Y-15626071D01*
X3706785Y-15654643D01*
X3706785Y-15726071D01*
X3692500Y-15754643D01*
X3678214Y-15768929D01*
X3649643Y-15783214D01*
X3563928Y-15783214D01*
X3535357Y-15768929D01*
X3521071Y-15754643D01*
X3978214Y-15483214D02*
X3835357Y-15483214D01*
X3821071Y-15626071D01*
X3835357Y-15611786D01*
X3863928Y-15597500D01*
X3935357Y-15597500D01*
X3963928Y-15611786D01*
X3978214Y-15626071D01*
X3992500Y-15654643D01*
X3992500Y-15726071D01*
X3978214Y-15754643D01*
X3963928Y-15768929D01*
X3935357Y-15783214D01*
X3863928Y-15783214D01*
X3835357Y-15768929D01*
X3821071Y-15754643D01*
X4106786Y-15483214D02*
X4106786Y-15540357D01*
X4221071Y-15483214D02*
X4221071Y-15540357D01*
X4663928Y-15897500D02*
X4649643Y-15883214D01*
X4621071Y-15840357D01*
X4606786Y-15811786D01*
X4592500Y-15768929D01*
X4578214Y-15697500D01*
X4578214Y-15640357D01*
X4592500Y-15568929D01*
X4606786Y-15526071D01*
X4621071Y-15497500D01*
X4649643Y-15454643D01*
X4663928Y-15440357D01*
X4935357Y-15783214D02*
X4763928Y-15783214D01*
X4849643Y-15783214D02*
X4849643Y-15483214D01*
X4821071Y-15526071D01*
X4792500Y-15554643D01*
X4763928Y-15568929D01*
X5049643Y-15511786D02*
X5063928Y-15497500D01*
X5092500Y-15483214D01*
X5163928Y-15483214D01*
X5192500Y-15497500D01*
X5206786Y-15511786D01*
X5221071Y-15540357D01*
X5221071Y-15568929D01*
X5206786Y-15611786D01*
X5035357Y-15783214D01*
X5221071Y-15783214D01*
X5578214Y-15783214D02*
X5578214Y-15483214D01*
X5706785Y-15783214D02*
X5706785Y-15626071D01*
X5692500Y-15597500D01*
X5663928Y-15583214D01*
X5621071Y-15583214D01*
X5592500Y-15597500D01*
X5578214Y-15611786D01*
X5892500Y-15783214D02*
X5863928Y-15768929D01*
X5849643Y-15754643D01*
X5835357Y-15726071D01*
X5835357Y-15640357D01*
X5849643Y-15611786D01*
X5863928Y-15597500D01*
X5892500Y-15583214D01*
X5935357Y-15583214D01*
X5963928Y-15597500D01*
X5978214Y-15611786D01*
X5992500Y-15640357D01*
X5992500Y-15726071D01*
X5978214Y-15754643D01*
X5963928Y-15768929D01*
X5935357Y-15783214D01*
X5892500Y-15783214D01*
X6163928Y-15783214D02*
X6135357Y-15768929D01*
X6121071Y-15740357D01*
X6121071Y-15483214D01*
X6392500Y-15768929D02*
X6363928Y-15783214D01*
X6306786Y-15783214D01*
X6278214Y-15768929D01*
X6263928Y-15740357D01*
X6263928Y-15626071D01*
X6278214Y-15597500D01*
X6306786Y-15583214D01*
X6363928Y-15583214D01*
X6392500Y-15597500D01*
X6406786Y-15626071D01*
X6406786Y-15654643D01*
X6263928Y-15683214D01*
X6521071Y-15768929D02*
X6549643Y-15783214D01*
X6606786Y-15783214D01*
X6635357Y-15768929D01*
X6649643Y-15740357D01*
X6649643Y-15726071D01*
X6635357Y-15697500D01*
X6606786Y-15683214D01*
X6563928Y-15683214D01*
X6535357Y-15668929D01*
X6521071Y-15640357D01*
X6521071Y-15626071D01*
X6535357Y-15597500D01*
X6563928Y-15583214D01*
X6606786Y-15583214D01*
X6635357Y-15597500D01*
X6749643Y-15897500D02*
X6763928Y-15883214D01*
X6792500Y-15840357D01*
X6806786Y-15811786D01*
X6821071Y-15768929D01*
X6835357Y-15697500D01*
X6835357Y-15640357D01*
X6821071Y-15568929D01*
X6806786Y-15526071D01*
X6792500Y-15497500D01*
X6763928Y-15454643D01*
X6749643Y-15440357D01*
X-107500Y-15993500D02*
X-7500Y-16093500D01*
X-7500Y-15993500D02*
X-107500Y-16093500D01*
X-57500Y-15993500D02*
X-57500Y-16093500D01*
X-107500Y-16043500D02*
X-7500Y-16043500D01*
X421071Y-16179214D02*
X249643Y-16179214D01*
X335357Y-16179214D02*
X335357Y-15879214D01*
X306786Y-15922071D01*
X278214Y-15950643D01*
X249643Y-15964929D01*
X549643Y-16150643D02*
X563929Y-16164929D01*
X549643Y-16179214D01*
X535357Y-16164929D01*
X549643Y-16150643D01*
X549643Y-16179214D01*
X749643Y-15879214D02*
X778214Y-15879214D01*
X806786Y-15893500D01*
X821071Y-15907786D01*
X835357Y-15936357D01*
X849643Y-15993500D01*
X849643Y-16064929D01*
X835357Y-16122071D01*
X821071Y-16150643D01*
X806786Y-16164929D01*
X778214Y-16179214D01*
X749643Y-16179214D01*
X721071Y-16164929D01*
X706786Y-16150643D01*
X692500Y-16122071D01*
X678214Y-16064929D01*
X678214Y-15993500D01*
X692500Y-15936357D01*
X706786Y-15907786D01*
X721071Y-15893500D01*
X749643Y-15879214D01*
X1035357Y-15879214D02*
X1063929Y-15879214D01*
X1092500Y-15893500D01*
X1106786Y-15907786D01*
X1121071Y-15936357D01*
X1135357Y-15993500D01*
X1135357Y-16064929D01*
X1121071Y-16122071D01*
X1106786Y-16150643D01*
X1092500Y-16164929D01*
X1063929Y-16179214D01*
X1035357Y-16179214D01*
X1006786Y-16164929D01*
X992500Y-16150643D01*
X978214Y-16122071D01*
X963928Y-16064929D01*
X963928Y-15993500D01*
X978214Y-15936357D01*
X992500Y-15907786D01*
X1006786Y-15893500D01*
X1035357Y-15879214D01*
X1263929Y-16179214D02*
X1263929Y-15979214D01*
X1263929Y-16007786D02*
X1278214Y-15993500D01*
X1306786Y-15979214D01*
X1349643Y-15979214D01*
X1378214Y-15993500D01*
X1392500Y-16022071D01*
X1392500Y-16179214D01*
X1392500Y-16022071D02*
X1406786Y-15993500D01*
X1435357Y-15979214D01*
X1478214Y-15979214D01*
X1506786Y-15993500D01*
X1521071Y-16022071D01*
X1521071Y-16179214D01*
X1663928Y-16179214D02*
X1663928Y-15979214D01*
X1663928Y-16007786D02*
X1678214Y-15993500D01*
X1706786Y-15979214D01*
X1749643Y-15979214D01*
X1778214Y-15993500D01*
X1792500Y-16022071D01*
X1792500Y-16179214D01*
X1792500Y-16022071D02*
X1806786Y-15993500D01*
X1835357Y-15979214D01*
X1878214Y-15979214D01*
X1906786Y-15993500D01*
X1921071Y-16022071D01*
X1921071Y-16179214D01*
X2506786Y-15864929D02*
X2249643Y-16250643D01*
X2892500Y-15879214D02*
X2921071Y-15879214D01*
X2949643Y-15893500D01*
X2963928Y-15907786D01*
X2978214Y-15936357D01*
X2992500Y-15993500D01*
X2992500Y-16064929D01*
X2978214Y-16122071D01*
X2963928Y-16150643D01*
X2949643Y-16164929D01*
X2921071Y-16179214D01*
X2892500Y-16179214D01*
X2863928Y-16164929D01*
X2849643Y-16150643D01*
X2835357Y-16122071D01*
X2821071Y-16064929D01*
X2821071Y-15993500D01*
X2835357Y-15936357D01*
X2849643Y-15907786D01*
X2863928Y-15893500D01*
X2892500Y-15879214D01*
X3121071Y-16150643D02*
X3135357Y-16164929D01*
X3121071Y-16179214D01*
X3106786Y-16164929D01*
X3121071Y-16150643D01*
X3121071Y-16179214D01*
X3321071Y-15879214D02*
X3349643Y-15879214D01*
X3378214Y-15893500D01*
X3392500Y-15907786D01*
X3406785Y-15936357D01*
X3421071Y-15993500D01*
X3421071Y-16064929D01*
X3406785Y-16122071D01*
X3392500Y-16150643D01*
X3378214Y-16164929D01*
X3349643Y-16179214D01*
X3321071Y-16179214D01*
X3292500Y-16164929D01*
X3278214Y-16150643D01*
X3263928Y-16122071D01*
X3249643Y-16064929D01*
X3249643Y-15993500D01*
X3263928Y-15936357D01*
X3278214Y-15907786D01*
X3292500Y-15893500D01*
X3321071Y-15879214D01*
X3521071Y-15879214D02*
X3706785Y-15879214D01*
X3606785Y-15993500D01*
X3649643Y-15993500D01*
X3678214Y-16007786D01*
X3692500Y-16022071D01*
X3706785Y-16050643D01*
X3706785Y-16122071D01*
X3692500Y-16150643D01*
X3678214Y-16164929D01*
X3649643Y-16179214D01*
X3563928Y-16179214D01*
X3535357Y-16164929D01*
X3521071Y-16150643D01*
X3849643Y-16179214D02*
X3906785Y-16179214D01*
X3935357Y-16164929D01*
X3949643Y-16150643D01*
X3978214Y-16107786D01*
X3992500Y-16050643D01*
X3992500Y-15936357D01*
X3978214Y-15907786D01*
X3963928Y-15893500D01*
X3935357Y-15879214D01*
X3878214Y-15879214D01*
X3849643Y-15893500D01*
X3835357Y-15907786D01*
X3821071Y-15936357D01*
X3821071Y-16007786D01*
X3835357Y-16036357D01*
X3849643Y-16050643D01*
X3878214Y-16064929D01*
X3935357Y-16064929D01*
X3963928Y-16050643D01*
X3978214Y-16036357D01*
X3992500Y-16007786D01*
X4106786Y-15879214D02*
X4106786Y-15936357D01*
X4221071Y-15879214D02*
X4221071Y-15936357D01*
X4663928Y-16293500D02*
X4649643Y-16279214D01*
X4621071Y-16236357D01*
X4606786Y-16207786D01*
X4592500Y-16164929D01*
X4578214Y-16093500D01*
X4578214Y-16036357D01*
X4592500Y-15964929D01*
X4606786Y-15922071D01*
X4621071Y-15893500D01*
X4649643Y-15850643D01*
X4663928Y-15836357D01*
X4749643Y-15879214D02*
X4949643Y-15879214D01*
X4821071Y-16179214D01*
X5049643Y-15907786D02*
X5063928Y-15893500D01*
X5092500Y-15879214D01*
X5163928Y-15879214D01*
X5192500Y-15893500D01*
X5206786Y-15907786D01*
X5221071Y-15936357D01*
X5221071Y-15964929D01*
X5206786Y-16007786D01*
X5035357Y-16179214D01*
X5221071Y-16179214D01*
X5578214Y-16179214D02*
X5578214Y-15879214D01*
X5706785Y-16179214D02*
X5706785Y-16022071D01*
X5692500Y-15993500D01*
X5663928Y-15979214D01*
X5621071Y-15979214D01*
X5592500Y-15993500D01*
X5578214Y-16007786D01*
X5892500Y-16179214D02*
X5863928Y-16164929D01*
X5849643Y-16150643D01*
X5835357Y-16122071D01*
X5835357Y-16036357D01*
X5849643Y-16007786D01*
X5863928Y-15993500D01*
X5892500Y-15979214D01*
X5935357Y-15979214D01*
X5963928Y-15993500D01*
X5978214Y-16007786D01*
X5992500Y-16036357D01*
X5992500Y-16122071D01*
X5978214Y-16150643D01*
X5963928Y-16164929D01*
X5935357Y-16179214D01*
X5892500Y-16179214D01*
X6163928Y-16179214D02*
X6135357Y-16164929D01*
X6121071Y-16136357D01*
X6121071Y-15879214D01*
X6392500Y-16164929D02*
X6363928Y-16179214D01*
X6306786Y-16179214D01*
X6278214Y-16164929D01*
X6263928Y-16136357D01*
X6263928Y-16022071D01*
X6278214Y-15993500D01*
X6306786Y-15979214D01*
X6363928Y-15979214D01*
X6392500Y-15993500D01*
X6406786Y-16022071D01*
X6406786Y-16050643D01*
X6263928Y-16079214D01*
X6521071Y-16164929D02*
X6549643Y-16179214D01*
X6606786Y-16179214D01*
X6635357Y-16164929D01*
X6649643Y-16136357D01*
X6649643Y-16122071D01*
X6635357Y-16093500D01*
X6606786Y-16079214D01*
X6563928Y-16079214D01*
X6535357Y-16064929D01*
X6521071Y-16036357D01*
X6521071Y-16022071D01*
X6535357Y-15993500D01*
X6563928Y-15979214D01*
X6606786Y-15979214D01*
X6635357Y-15993500D01*
X6749643Y-16293500D02*
X6763928Y-16279214D01*
X6792500Y-16236357D01*
X6806786Y-16207786D01*
X6821071Y-16164929D01*
X6835357Y-16093500D01*
X6835357Y-16036357D01*
X6821071Y-15964929D01*
X6806786Y-15922071D01*
X6792500Y-15893500D01*
X6763928Y-15850643D01*
X6749643Y-15836357D01*
X-107576Y-16389462D02*
X-7500Y-16489538D01*
X-7500Y-16389462D02*
X-107576Y-16489538D01*
X-22156Y-16474883D02*
X-22156Y-16404118D01*
X-92921Y-16404118D01*
X-92921Y-16474883D01*
X-22156Y-16474883D01*
X421071Y-16575214D02*
X249643Y-16575214D01*
X335357Y-16575214D02*
X335357Y-16275214D01*
X306786Y-16318071D01*
X278214Y-16346643D01*
X249643Y-16360929D01*
X549643Y-16546643D02*
X563929Y-16560929D01*
X549643Y-16575214D01*
X535357Y-16560929D01*
X549643Y-16546643D01*
X549643Y-16575214D01*
X749643Y-16275214D02*
X778214Y-16275214D01*
X806786Y-16289500D01*
X821071Y-16303786D01*
X835357Y-16332357D01*
X849643Y-16389500D01*
X849643Y-16460929D01*
X835357Y-16518071D01*
X821071Y-16546643D01*
X806786Y-16560929D01*
X778214Y-16575214D01*
X749643Y-16575214D01*
X721071Y-16560929D01*
X706786Y-16546643D01*
X692500Y-16518071D01*
X678214Y-16460929D01*
X678214Y-16389500D01*
X692500Y-16332357D01*
X706786Y-16303786D01*
X721071Y-16289500D01*
X749643Y-16275214D01*
X1035357Y-16275214D02*
X1063929Y-16275214D01*
X1092500Y-16289500D01*
X1106786Y-16303786D01*
X1121071Y-16332357D01*
X1135357Y-16389500D01*
X1135357Y-16460929D01*
X1121071Y-16518071D01*
X1106786Y-16546643D01*
X1092500Y-16560929D01*
X1063929Y-16575214D01*
X1035357Y-16575214D01*
X1006786Y-16560929D01*
X992500Y-16546643D01*
X978214Y-16518071D01*
X963928Y-16460929D01*
X963928Y-16389500D01*
X978214Y-16332357D01*
X992500Y-16303786D01*
X1006786Y-16289500D01*
X1035357Y-16275214D01*
X1263929Y-16575214D02*
X1263929Y-16375214D01*
X1263929Y-16403786D02*
X1278214Y-16389500D01*
X1306786Y-16375214D01*
X1349643Y-16375214D01*
X1378214Y-16389500D01*
X1392500Y-16418071D01*
X1392500Y-16575214D01*
X1392500Y-16418071D02*
X1406786Y-16389500D01*
X1435357Y-16375214D01*
X1478214Y-16375214D01*
X1506786Y-16389500D01*
X1521071Y-16418071D01*
X1521071Y-16575214D01*
X1663928Y-16575214D02*
X1663928Y-16375214D01*
X1663928Y-16403786D02*
X1678214Y-16389500D01*
X1706786Y-16375214D01*
X1749643Y-16375214D01*
X1778214Y-16389500D01*
X1792500Y-16418071D01*
X1792500Y-16575214D01*
X1792500Y-16418071D02*
X1806786Y-16389500D01*
X1835357Y-16375214D01*
X1878214Y-16375214D01*
X1906786Y-16389500D01*
X1921071Y-16418071D01*
X1921071Y-16575214D01*
X2506786Y-16260929D02*
X2249643Y-16646643D01*
X2892500Y-16275214D02*
X2921071Y-16275214D01*
X2949643Y-16289500D01*
X2963928Y-16303786D01*
X2978214Y-16332357D01*
X2992500Y-16389500D01*
X2992500Y-16460929D01*
X2978214Y-16518071D01*
X2963928Y-16546643D01*
X2949643Y-16560929D01*
X2921071Y-16575214D01*
X2892500Y-16575214D01*
X2863928Y-16560929D01*
X2849643Y-16546643D01*
X2835357Y-16518071D01*
X2821071Y-16460929D01*
X2821071Y-16389500D01*
X2835357Y-16332357D01*
X2849643Y-16303786D01*
X2863928Y-16289500D01*
X2892500Y-16275214D01*
X3121071Y-16546643D02*
X3135357Y-16560929D01*
X3121071Y-16575214D01*
X3106786Y-16560929D01*
X3121071Y-16546643D01*
X3121071Y-16575214D01*
X3321071Y-16275214D02*
X3349643Y-16275214D01*
X3378214Y-16289500D01*
X3392500Y-16303786D01*
X3406785Y-16332357D01*
X3421071Y-16389500D01*
X3421071Y-16460929D01*
X3406785Y-16518071D01*
X3392500Y-16546643D01*
X3378214Y-16560929D01*
X3349643Y-16575214D01*
X3321071Y-16575214D01*
X3292500Y-16560929D01*
X3278214Y-16546643D01*
X3263928Y-16518071D01*
X3249643Y-16460929D01*
X3249643Y-16389500D01*
X3263928Y-16332357D01*
X3278214Y-16303786D01*
X3292500Y-16289500D01*
X3321071Y-16275214D01*
X3521071Y-16275214D02*
X3706785Y-16275214D01*
X3606785Y-16389500D01*
X3649643Y-16389500D01*
X3678214Y-16403786D01*
X3692500Y-16418071D01*
X3706785Y-16446643D01*
X3706785Y-16518071D01*
X3692500Y-16546643D01*
X3678214Y-16560929D01*
X3649643Y-16575214D01*
X3563928Y-16575214D01*
X3535357Y-16560929D01*
X3521071Y-16546643D01*
X3849643Y-16575214D02*
X3906785Y-16575214D01*
X3935357Y-16560929D01*
X3949643Y-16546643D01*
X3978214Y-16503786D01*
X3992500Y-16446643D01*
X3992500Y-16332357D01*
X3978214Y-16303786D01*
X3963928Y-16289500D01*
X3935357Y-16275214D01*
X3878214Y-16275214D01*
X3849643Y-16289500D01*
X3835357Y-16303786D01*
X3821071Y-16332357D01*
X3821071Y-16403786D01*
X3835357Y-16432357D01*
X3849643Y-16446643D01*
X3878214Y-16460929D01*
X3935357Y-16460929D01*
X3963928Y-16446643D01*
X3978214Y-16432357D01*
X3992500Y-16403786D01*
X4106786Y-16275214D02*
X4106786Y-16332357D01*
X4221071Y-16275214D02*
X4221071Y-16332357D01*
X4663928Y-16689500D02*
X4649643Y-16675214D01*
X4621071Y-16632357D01*
X4606786Y-16603786D01*
X4592500Y-16560929D01*
X4578214Y-16489500D01*
X4578214Y-16432357D01*
X4592500Y-16360929D01*
X4606786Y-16318071D01*
X4621071Y-16289500D01*
X4649643Y-16246643D01*
X4663928Y-16232357D01*
X4906786Y-16375214D02*
X4906786Y-16575214D01*
X4835357Y-16260929D02*
X4763928Y-16475214D01*
X4949643Y-16475214D01*
X5292500Y-16575214D02*
X5292500Y-16275214D01*
X5421071Y-16575214D02*
X5421071Y-16418071D01*
X5406786Y-16389500D01*
X5378214Y-16375214D01*
X5335357Y-16375214D01*
X5306786Y-16389500D01*
X5292500Y-16403786D01*
X5606785Y-16575214D02*
X5578214Y-16560929D01*
X5563928Y-16546643D01*
X5549643Y-16518071D01*
X5549643Y-16432357D01*
X5563928Y-16403786D01*
X5578214Y-16389500D01*
X5606785Y-16375214D01*
X5649643Y-16375214D01*
X5678214Y-16389500D01*
X5692500Y-16403786D01*
X5706785Y-16432357D01*
X5706785Y-16518071D01*
X5692500Y-16546643D01*
X5678214Y-16560929D01*
X5649643Y-16575214D01*
X5606785Y-16575214D01*
X5878214Y-16575214D02*
X5849643Y-16560929D01*
X5835357Y-16532357D01*
X5835357Y-16275214D01*
X6106786Y-16560929D02*
X6078214Y-16575214D01*
X6021071Y-16575214D01*
X5992500Y-16560929D01*
X5978214Y-16532357D01*
X5978214Y-16418071D01*
X5992500Y-16389500D01*
X6021071Y-16375214D01*
X6078214Y-16375214D01*
X6106786Y-16389500D01*
X6121071Y-16418071D01*
X6121071Y-16446643D01*
X5978214Y-16475214D01*
X6235357Y-16560929D02*
X6263928Y-16575214D01*
X6321071Y-16575214D01*
X6349643Y-16560929D01*
X6363928Y-16532357D01*
X6363928Y-16518071D01*
X6349643Y-16489500D01*
X6321071Y-16475214D01*
X6278214Y-16475214D01*
X6249643Y-16460929D01*
X6235357Y-16432357D01*
X6235357Y-16418071D01*
X6249643Y-16389500D01*
X6278214Y-16375214D01*
X6321071Y-16375214D01*
X6349643Y-16389500D01*
X6463928Y-16689500D02*
X6478214Y-16675214D01*
X6506786Y-16632357D01*
X6521071Y-16603786D01*
X6535357Y-16560929D01*
X6549643Y-16489500D01*
X6549643Y-16432357D01*
X6535357Y-16360929D01*
X6521071Y-16318071D01*
X6506786Y-16289500D01*
X6478214Y-16246643D01*
X6463928Y-16232357D01*
X-127500Y-16775500D02*
X-7500Y-16895500D01*
X-7500Y-16775500D02*
X-127500Y-16895500D01*
X-67500Y-16895500D02*
X-7500Y-16835500D01*
X-67500Y-16775500D01*
X-127500Y-16835500D01*
X-67500Y-16895500D01*
X421071Y-16971214D02*
X249643Y-16971214D01*
X335357Y-16971214D02*
X335357Y-16671214D01*
X306786Y-16714071D01*
X278214Y-16742643D01*
X249643Y-16756929D01*
X549643Y-16942643D02*
X563929Y-16956929D01*
X549643Y-16971214D01*
X535357Y-16956929D01*
X549643Y-16942643D01*
X549643Y-16971214D01*
X678214Y-16699786D02*
X692500Y-16685500D01*
X721071Y-16671214D01*
X792500Y-16671214D01*
X821071Y-16685500D01*
X835357Y-16699786D01*
X849643Y-16728357D01*
X849643Y-16756929D01*
X835357Y-16799786D01*
X663928Y-16971214D01*
X849643Y-16971214D01*
X1035357Y-16671214D02*
X1063929Y-16671214D01*
X1092500Y-16685500D01*
X1106786Y-16699786D01*
X1121071Y-16728357D01*
X1135357Y-16785500D01*
X1135357Y-16856929D01*
X1121071Y-16914072D01*
X1106786Y-16942643D01*
X1092500Y-16956929D01*
X1063929Y-16971214D01*
X1035357Y-16971214D01*
X1006786Y-16956929D01*
X992500Y-16942643D01*
X978214Y-16914072D01*
X963928Y-16856929D01*
X963928Y-16785500D01*
X978214Y-16728357D01*
X992500Y-16699786D01*
X1006786Y-16685500D01*
X1035357Y-16671214D01*
X1263929Y-16971214D02*
X1263929Y-16771214D01*
X1263929Y-16799786D02*
X1278214Y-16785500D01*
X1306786Y-16771214D01*
X1349643Y-16771214D01*
X1378214Y-16785500D01*
X1392500Y-16814072D01*
X1392500Y-16971214D01*
X1392500Y-16814072D02*
X1406786Y-16785500D01*
X1435357Y-16771214D01*
X1478214Y-16771214D01*
X1506786Y-16785500D01*
X1521071Y-16814072D01*
X1521071Y-16971214D01*
X1663928Y-16971214D02*
X1663928Y-16771214D01*
X1663928Y-16799786D02*
X1678214Y-16785500D01*
X1706786Y-16771214D01*
X1749643Y-16771214D01*
X1778214Y-16785500D01*
X1792500Y-16814072D01*
X1792500Y-16971214D01*
X1792500Y-16814072D02*
X1806786Y-16785500D01*
X1835357Y-16771214D01*
X1878214Y-16771214D01*
X1906786Y-16785500D01*
X1921071Y-16814072D01*
X1921071Y-16971214D01*
X2506786Y-16656929D02*
X2249643Y-17042643D01*
X2892500Y-16671214D02*
X2921071Y-16671214D01*
X2949643Y-16685500D01*
X2963928Y-16699786D01*
X2978214Y-16728357D01*
X2992500Y-16785500D01*
X2992500Y-16856929D01*
X2978214Y-16914072D01*
X2963928Y-16942643D01*
X2949643Y-16956929D01*
X2921071Y-16971214D01*
X2892500Y-16971214D01*
X2863928Y-16956929D01*
X2849643Y-16942643D01*
X2835357Y-16914072D01*
X2821071Y-16856929D01*
X2821071Y-16785500D01*
X2835357Y-16728357D01*
X2849643Y-16699786D01*
X2863928Y-16685500D01*
X2892500Y-16671214D01*
X3121071Y-16942643D02*
X3135357Y-16956929D01*
X3121071Y-16971214D01*
X3106786Y-16956929D01*
X3121071Y-16942643D01*
X3121071Y-16971214D01*
X3321071Y-16671214D02*
X3349643Y-16671214D01*
X3378214Y-16685500D01*
X3392500Y-16699786D01*
X3406785Y-16728357D01*
X3421071Y-16785500D01*
X3421071Y-16856929D01*
X3406785Y-16914072D01*
X3392500Y-16942643D01*
X3378214Y-16956929D01*
X3349643Y-16971214D01*
X3321071Y-16971214D01*
X3292500Y-16956929D01*
X3278214Y-16942643D01*
X3263928Y-16914072D01*
X3249643Y-16856929D01*
X3249643Y-16785500D01*
X3263928Y-16728357D01*
X3278214Y-16699786D01*
X3292500Y-16685500D01*
X3321071Y-16671214D01*
X3678214Y-16771214D02*
X3678214Y-16971214D01*
X3606785Y-16656929D02*
X3535357Y-16871214D01*
X3721071Y-16871214D01*
X3806785Y-16671214D02*
X4006785Y-16671214D01*
X3878214Y-16971214D01*
X4106786Y-16671214D02*
X4106786Y-16728357D01*
X4221071Y-16671214D02*
X4221071Y-16728357D01*
X4663928Y-17085500D02*
X4649643Y-17071214D01*
X4621071Y-17028357D01*
X4606786Y-16999786D01*
X4592500Y-16956929D01*
X4578214Y-16885500D01*
X4578214Y-16828357D01*
X4592500Y-16756929D01*
X4606786Y-16714071D01*
X4621071Y-16685500D01*
X4649643Y-16642643D01*
X4663928Y-16628357D01*
X4906786Y-16771214D02*
X4906786Y-16971214D01*
X4835357Y-16656929D02*
X4763928Y-16871214D01*
X4949643Y-16871214D01*
X5292500Y-16971214D02*
X5292500Y-16671214D01*
X5421071Y-16971214D02*
X5421071Y-16814072D01*
X5406786Y-16785500D01*
X5378214Y-16771214D01*
X5335357Y-16771214D01*
X5306786Y-16785500D01*
X5292500Y-16799786D01*
X5606785Y-16971214D02*
X5578214Y-16956929D01*
X5563928Y-16942643D01*
X5549643Y-16914072D01*
X5549643Y-16828357D01*
X5563928Y-16799786D01*
X5578214Y-16785500D01*
X5606785Y-16771214D01*
X5649643Y-16771214D01*
X5678214Y-16785500D01*
X5692500Y-16799786D01*
X5706785Y-16828357D01*
X5706785Y-16914072D01*
X5692500Y-16942643D01*
X5678214Y-16956929D01*
X5649643Y-16971214D01*
X5606785Y-16971214D01*
X5878214Y-16971214D02*
X5849643Y-16956929D01*
X5835357Y-16928357D01*
X5835357Y-16671214D01*
X6106786Y-16956929D02*
X6078214Y-16971214D01*
X6021071Y-16971214D01*
X5992500Y-16956929D01*
X5978214Y-16928357D01*
X5978214Y-16814072D01*
X5992500Y-16785500D01*
X6021071Y-16771214D01*
X6078214Y-16771214D01*
X6106786Y-16785500D01*
X6121071Y-16814072D01*
X6121071Y-16842643D01*
X5978214Y-16871214D01*
X6235357Y-16956929D02*
X6263928Y-16971214D01*
X6321071Y-16971214D01*
X6349643Y-16956929D01*
X6363928Y-16928357D01*
X6363928Y-16914072D01*
X6349643Y-16885500D01*
X6321071Y-16871214D01*
X6278214Y-16871214D01*
X6249643Y-16856929D01*
X6235357Y-16828357D01*
X6235357Y-16814072D01*
X6249643Y-16785500D01*
X6278214Y-16771214D01*
X6321071Y-16771214D01*
X6349643Y-16785500D01*
X6463928Y-17085500D02*
X6478214Y-17071214D01*
X6506786Y-17028357D01*
X6521071Y-16999786D01*
X6535357Y-16956929D01*
X6549643Y-16885500D01*
X6549643Y-16828357D01*
X6535357Y-16756929D01*
X6521071Y-16714071D01*
X6506786Y-16685500D01*
X6478214Y-16642643D01*
X6463928Y-16628357D01*
X-87500Y-17151500D02*
X-87500Y-17311500D01*
X-167500Y-17231500D02*
X-7500Y-17231500D01*
X-7500Y-17231500D02*
G75*
G03X-7500Y-17231500I-80000J0D01*
G01*
X421071Y-17367214D02*
X249643Y-17367214D01*
X335357Y-17367214D02*
X335357Y-17067214D01*
X306786Y-17110072D01*
X278214Y-17138643D01*
X249643Y-17152929D01*
X549643Y-17338643D02*
X563929Y-17352929D01*
X549643Y-17367214D01*
X535357Y-17352929D01*
X549643Y-17338643D01*
X549643Y-17367214D01*
X821071Y-17067214D02*
X763928Y-17067214D01*
X735357Y-17081500D01*
X721071Y-17095786D01*
X692500Y-17138643D01*
X678214Y-17195786D01*
X678214Y-17310072D01*
X692500Y-17338643D01*
X706786Y-17352929D01*
X735357Y-17367214D01*
X792500Y-17367214D01*
X821071Y-17352929D01*
X835357Y-17338643D01*
X849643Y-17310072D01*
X849643Y-17238643D01*
X835357Y-17210072D01*
X821071Y-17195786D01*
X792500Y-17181500D01*
X735357Y-17181500D01*
X706786Y-17195786D01*
X692500Y-17210072D01*
X678214Y-17238643D01*
X1035357Y-17067214D02*
X1063929Y-17067214D01*
X1092500Y-17081500D01*
X1106786Y-17095786D01*
X1121071Y-17124357D01*
X1135357Y-17181500D01*
X1135357Y-17252929D01*
X1121071Y-17310072D01*
X1106786Y-17338643D01*
X1092500Y-17352929D01*
X1063929Y-17367214D01*
X1035357Y-17367214D01*
X1006786Y-17352929D01*
X992500Y-17338643D01*
X978214Y-17310072D01*
X963928Y-17252929D01*
X963928Y-17181500D01*
X978214Y-17124357D01*
X992500Y-17095786D01*
X1006786Y-17081500D01*
X1035357Y-17067214D01*
X1263929Y-17367214D02*
X1263929Y-17167214D01*
X1263929Y-17195786D02*
X1278214Y-17181500D01*
X1306786Y-17167214D01*
X1349643Y-17167214D01*
X1378214Y-17181500D01*
X1392500Y-17210072D01*
X1392500Y-17367214D01*
X1392500Y-17210072D02*
X1406786Y-17181500D01*
X1435357Y-17167214D01*
X1478214Y-17167214D01*
X1506786Y-17181500D01*
X1521071Y-17210072D01*
X1521071Y-17367214D01*
X1663928Y-17367214D02*
X1663928Y-17167214D01*
X1663928Y-17195786D02*
X1678214Y-17181500D01*
X1706786Y-17167214D01*
X1749643Y-17167214D01*
X1778214Y-17181500D01*
X1792500Y-17210072D01*
X1792500Y-17367214D01*
X1792500Y-17210072D02*
X1806786Y-17181500D01*
X1835357Y-17167214D01*
X1878214Y-17167214D01*
X1906786Y-17181500D01*
X1921071Y-17210072D01*
X1921071Y-17367214D01*
X2506786Y-17052929D02*
X2249643Y-17438643D01*
X2892500Y-17067214D02*
X2921071Y-17067214D01*
X2949643Y-17081500D01*
X2963928Y-17095786D01*
X2978214Y-17124357D01*
X2992500Y-17181500D01*
X2992500Y-17252929D01*
X2978214Y-17310072D01*
X2963928Y-17338643D01*
X2949643Y-17352929D01*
X2921071Y-17367214D01*
X2892500Y-17367214D01*
X2863928Y-17352929D01*
X2849643Y-17338643D01*
X2835357Y-17310072D01*
X2821071Y-17252929D01*
X2821071Y-17181500D01*
X2835357Y-17124357D01*
X2849643Y-17095786D01*
X2863928Y-17081500D01*
X2892500Y-17067214D01*
X3121071Y-17338643D02*
X3135357Y-17352929D01*
X3121071Y-17367214D01*
X3106786Y-17352929D01*
X3121071Y-17338643D01*
X3121071Y-17367214D01*
X3321071Y-17067214D02*
X3349643Y-17067214D01*
X3378214Y-17081500D01*
X3392500Y-17095786D01*
X3406785Y-17124357D01*
X3421071Y-17181500D01*
X3421071Y-17252929D01*
X3406785Y-17310072D01*
X3392500Y-17338643D01*
X3378214Y-17352929D01*
X3349643Y-17367214D01*
X3321071Y-17367214D01*
X3292500Y-17352929D01*
X3278214Y-17338643D01*
X3263928Y-17310072D01*
X3249643Y-17252929D01*
X3249643Y-17181500D01*
X3263928Y-17124357D01*
X3278214Y-17095786D01*
X3292500Y-17081500D01*
X3321071Y-17067214D01*
X3678214Y-17067214D02*
X3621071Y-17067214D01*
X3592500Y-17081500D01*
X3578214Y-17095786D01*
X3549643Y-17138643D01*
X3535357Y-17195786D01*
X3535357Y-17310072D01*
X3549643Y-17338643D01*
X3563928Y-17352929D01*
X3592500Y-17367214D01*
X3649643Y-17367214D01*
X3678214Y-17352929D01*
X3692500Y-17338643D01*
X3706785Y-17310072D01*
X3706785Y-17238643D01*
X3692500Y-17210072D01*
X3678214Y-17195786D01*
X3649643Y-17181500D01*
X3592500Y-17181500D01*
X3563928Y-17195786D01*
X3549643Y-17210072D01*
X3535357Y-17238643D01*
X3806785Y-17067214D02*
X3992500Y-17067214D01*
X3892500Y-17181500D01*
X3935357Y-17181500D01*
X3963928Y-17195786D01*
X3978214Y-17210072D01*
X3992500Y-17238643D01*
X3992500Y-17310072D01*
X3978214Y-17338643D01*
X3963928Y-17352929D01*
X3935357Y-17367214D01*
X3849643Y-17367214D01*
X3821071Y-17352929D01*
X3806785Y-17338643D01*
X4106786Y-17067214D02*
X4106786Y-17124357D01*
X4221071Y-17067214D02*
X4221071Y-17124357D01*
X4663928Y-17481500D02*
X4649643Y-17467214D01*
X4621071Y-17424357D01*
X4606786Y-17395786D01*
X4592500Y-17352929D01*
X4578214Y-17281500D01*
X4578214Y-17224357D01*
X4592500Y-17152929D01*
X4606786Y-17110072D01*
X4621071Y-17081500D01*
X4649643Y-17038643D01*
X4663928Y-17024357D01*
X4763928Y-17095786D02*
X4778214Y-17081500D01*
X4806786Y-17067214D01*
X4878214Y-17067214D01*
X4906786Y-17081500D01*
X4921071Y-17095786D01*
X4935357Y-17124357D01*
X4935357Y-17152929D01*
X4921071Y-17195786D01*
X4749643Y-17367214D01*
X4935357Y-17367214D01*
X5292500Y-17367214D02*
X5292500Y-17067214D01*
X5421071Y-17367214D02*
X5421071Y-17210072D01*
X5406786Y-17181500D01*
X5378214Y-17167214D01*
X5335357Y-17167214D01*
X5306786Y-17181500D01*
X5292500Y-17195786D01*
X5606785Y-17367214D02*
X5578214Y-17352929D01*
X5563928Y-17338643D01*
X5549643Y-17310072D01*
X5549643Y-17224357D01*
X5563928Y-17195786D01*
X5578214Y-17181500D01*
X5606785Y-17167214D01*
X5649643Y-17167214D01*
X5678214Y-17181500D01*
X5692500Y-17195786D01*
X5706785Y-17224357D01*
X5706785Y-17310072D01*
X5692500Y-17338643D01*
X5678214Y-17352929D01*
X5649643Y-17367214D01*
X5606785Y-17367214D01*
X5878214Y-17367214D02*
X5849643Y-17352929D01*
X5835357Y-17324357D01*
X5835357Y-17067214D01*
X6106786Y-17352929D02*
X6078214Y-17367214D01*
X6021071Y-17367214D01*
X5992500Y-17352929D01*
X5978214Y-17324357D01*
X5978214Y-17210072D01*
X5992500Y-17181500D01*
X6021071Y-17167214D01*
X6078214Y-17167214D01*
X6106786Y-17181500D01*
X6121071Y-17210072D01*
X6121071Y-17238643D01*
X5978214Y-17267214D01*
X6235357Y-17352929D02*
X6263928Y-17367214D01*
X6321071Y-17367214D01*
X6349643Y-17352929D01*
X6363928Y-17324357D01*
X6363928Y-17310072D01*
X6349643Y-17281500D01*
X6321071Y-17267214D01*
X6278214Y-17267214D01*
X6249643Y-17252929D01*
X6235357Y-17224357D01*
X6235357Y-17210072D01*
X6249643Y-17181500D01*
X6278214Y-17167214D01*
X6321071Y-17167214D01*
X6349643Y-17181500D01*
X6463928Y-17481500D02*
X6478214Y-17467214D01*
X6506786Y-17424357D01*
X6521071Y-17395786D01*
X6535357Y-17352929D01*
X6549643Y-17281500D01*
X6549643Y-17224357D01*
X6535357Y-17152929D01*
X6521071Y-17110072D01*
X6506786Y-17081500D01*
X6478214Y-17038643D01*
X6463928Y-17024357D01*
X-33567Y-17690433D02*
X-33567Y-17564567D01*
X-159433Y-17564567D01*
X-159433Y-17690433D01*
X-33567Y-17690433D01*
X-7500Y-17627500D02*
G75*
G03X-7500Y-17627500I-89000J0D01*
G01*
X421071Y-17763214D02*
X249643Y-17763214D01*
X335357Y-17763214D02*
X335357Y-17463214D01*
X306786Y-17506072D01*
X278214Y-17534643D01*
X249643Y-17548929D01*
X549643Y-17734643D02*
X563929Y-17748929D01*
X549643Y-17763214D01*
X535357Y-17748929D01*
X549643Y-17734643D01*
X549643Y-17763214D01*
X663928Y-17463214D02*
X863928Y-17463214D01*
X735357Y-17763214D01*
X1021071Y-17591786D02*
X992500Y-17577500D01*
X978214Y-17563214D01*
X963928Y-17534643D01*
X963928Y-17520357D01*
X978214Y-17491786D01*
X992500Y-17477500D01*
X1021071Y-17463214D01*
X1078214Y-17463214D01*
X1106786Y-17477500D01*
X1121071Y-17491786D01*
X1135357Y-17520357D01*
X1135357Y-17534643D01*
X1121071Y-17563214D01*
X1106786Y-17577500D01*
X1078214Y-17591786D01*
X1021071Y-17591786D01*
X992500Y-17606072D01*
X978214Y-17620357D01*
X963928Y-17648929D01*
X963928Y-17706072D01*
X978214Y-17734643D01*
X992500Y-17748929D01*
X1021071Y-17763214D01*
X1078214Y-17763214D01*
X1106786Y-17748929D01*
X1121071Y-17734643D01*
X1135357Y-17706072D01*
X1135357Y-17648929D01*
X1121071Y-17620357D01*
X1106786Y-17606072D01*
X1078214Y-17591786D01*
X1263929Y-17763214D02*
X1263929Y-17563214D01*
X1263929Y-17591786D02*
X1278214Y-17577500D01*
X1306786Y-17563214D01*
X1349643Y-17563214D01*
X1378214Y-17577500D01*
X1392500Y-17606072D01*
X1392500Y-17763214D01*
X1392500Y-17606072D02*
X1406786Y-17577500D01*
X1435357Y-17563214D01*
X1478214Y-17563214D01*
X1506786Y-17577500D01*
X1521071Y-17606072D01*
X1521071Y-17763214D01*
X1663928Y-17763214D02*
X1663928Y-17563214D01*
X1663928Y-17591786D02*
X1678214Y-17577500D01*
X1706786Y-17563214D01*
X1749643Y-17563214D01*
X1778214Y-17577500D01*
X1792500Y-17606072D01*
X1792500Y-17763214D01*
X1792500Y-17606072D02*
X1806786Y-17577500D01*
X1835357Y-17563214D01*
X1878214Y-17563214D01*
X1906786Y-17577500D01*
X1921071Y-17606072D01*
X1921071Y-17763214D01*
X2506786Y-17448929D02*
X2249643Y-17834643D01*
X2892500Y-17463214D02*
X2921071Y-17463214D01*
X2949643Y-17477500D01*
X2963928Y-17491786D01*
X2978214Y-17520357D01*
X2992500Y-17577500D01*
X2992500Y-17648929D01*
X2978214Y-17706072D01*
X2963928Y-17734643D01*
X2949643Y-17748929D01*
X2921071Y-17763214D01*
X2892500Y-17763214D01*
X2863928Y-17748929D01*
X2849643Y-17734643D01*
X2835357Y-17706072D01*
X2821071Y-17648929D01*
X2821071Y-17577500D01*
X2835357Y-17520357D01*
X2849643Y-17491786D01*
X2863928Y-17477500D01*
X2892500Y-17463214D01*
X3121071Y-17734643D02*
X3135357Y-17748929D01*
X3121071Y-17763214D01*
X3106786Y-17748929D01*
X3121071Y-17734643D01*
X3121071Y-17763214D01*
X3321071Y-17463214D02*
X3349643Y-17463214D01*
X3378214Y-17477500D01*
X3392500Y-17491786D01*
X3406785Y-17520357D01*
X3421071Y-17577500D01*
X3421071Y-17648929D01*
X3406785Y-17706072D01*
X3392500Y-17734643D01*
X3378214Y-17748929D01*
X3349643Y-17763214D01*
X3321071Y-17763214D01*
X3292500Y-17748929D01*
X3278214Y-17734643D01*
X3263928Y-17706072D01*
X3249643Y-17648929D01*
X3249643Y-17577500D01*
X3263928Y-17520357D01*
X3278214Y-17491786D01*
X3292500Y-17477500D01*
X3321071Y-17463214D01*
X3521071Y-17463214D02*
X3721071Y-17463214D01*
X3592500Y-17763214D01*
X3892500Y-17463214D02*
X3921071Y-17463214D01*
X3949643Y-17477500D01*
X3963928Y-17491786D01*
X3978214Y-17520357D01*
X3992500Y-17577500D01*
X3992500Y-17648929D01*
X3978214Y-17706072D01*
X3963928Y-17734643D01*
X3949643Y-17748929D01*
X3921071Y-17763214D01*
X3892500Y-17763214D01*
X3863928Y-17748929D01*
X3849643Y-17734643D01*
X3835357Y-17706072D01*
X3821071Y-17648929D01*
X3821071Y-17577500D01*
X3835357Y-17520357D01*
X3849643Y-17491786D01*
X3863928Y-17477500D01*
X3892500Y-17463214D01*
X4106786Y-17463214D02*
X4106786Y-17520357D01*
X4221071Y-17463214D02*
X4221071Y-17520357D01*
X4663928Y-17877500D02*
X4649643Y-17863214D01*
X4621071Y-17820357D01*
X4606786Y-17791786D01*
X4592500Y-17748929D01*
X4578214Y-17677500D01*
X4578214Y-17620357D01*
X4592500Y-17548929D01*
X4606786Y-17506072D01*
X4621071Y-17477500D01*
X4649643Y-17434643D01*
X4663928Y-17420357D01*
X4763928Y-17491786D02*
X4778214Y-17477500D01*
X4806786Y-17463214D01*
X4878214Y-17463214D01*
X4906786Y-17477500D01*
X4921071Y-17491786D01*
X4935357Y-17520357D01*
X4935357Y-17548929D01*
X4921071Y-17591786D01*
X4749643Y-17763214D01*
X4935357Y-17763214D01*
X5192500Y-17463214D02*
X5135357Y-17463214D01*
X5106786Y-17477500D01*
X5092500Y-17491786D01*
X5063928Y-17534643D01*
X5049643Y-17591786D01*
X5049643Y-17706072D01*
X5063928Y-17734643D01*
X5078214Y-17748929D01*
X5106786Y-17763214D01*
X5163928Y-17763214D01*
X5192500Y-17748929D01*
X5206786Y-17734643D01*
X5221071Y-17706072D01*
X5221071Y-17634643D01*
X5206786Y-17606072D01*
X5192500Y-17591786D01*
X5163928Y-17577500D01*
X5106786Y-17577500D01*
X5078214Y-17591786D01*
X5063928Y-17606072D01*
X5049643Y-17634643D01*
X5578214Y-17763214D02*
X5578214Y-17463214D01*
X5706785Y-17763214D02*
X5706785Y-17606072D01*
X5692500Y-17577500D01*
X5663928Y-17563214D01*
X5621071Y-17563214D01*
X5592500Y-17577500D01*
X5578214Y-17591786D01*
X5892500Y-17763214D02*
X5863928Y-17748929D01*
X5849643Y-17734643D01*
X5835357Y-17706072D01*
X5835357Y-17620357D01*
X5849643Y-17591786D01*
X5863928Y-17577500D01*
X5892500Y-17563214D01*
X5935357Y-17563214D01*
X5963928Y-17577500D01*
X5978214Y-17591786D01*
X5992500Y-17620357D01*
X5992500Y-17706072D01*
X5978214Y-17734643D01*
X5963928Y-17748929D01*
X5935357Y-17763214D01*
X5892500Y-17763214D01*
X6163928Y-17763214D02*
X6135357Y-17748929D01*
X6121071Y-17720357D01*
X6121071Y-17463214D01*
X6392500Y-17748929D02*
X6363928Y-17763214D01*
X6306786Y-17763214D01*
X6278214Y-17748929D01*
X6263928Y-17720357D01*
X6263928Y-17606072D01*
X6278214Y-17577500D01*
X6306786Y-17563214D01*
X6363928Y-17563214D01*
X6392500Y-17577500D01*
X6406786Y-17606072D01*
X6406786Y-17634643D01*
X6263928Y-17663214D01*
X6521071Y-17748929D02*
X6549643Y-17763214D01*
X6606786Y-17763214D01*
X6635357Y-17748929D01*
X6649643Y-17720357D01*
X6649643Y-17706072D01*
X6635357Y-17677500D01*
X6606786Y-17663214D01*
X6563928Y-17663214D01*
X6535357Y-17648929D01*
X6521071Y-17620357D01*
X6521071Y-17606072D01*
X6535357Y-17577500D01*
X6563928Y-17563214D01*
X6606786Y-17563214D01*
X6635357Y-17577500D01*
X6749643Y-17877500D02*
X6763928Y-17863214D01*
X6792500Y-17820357D01*
X6806786Y-17791786D01*
X6821071Y-17748929D01*
X6835357Y-17677500D01*
X6835357Y-17620357D01*
X6821071Y-17548929D01*
X6806786Y-17506072D01*
X6792500Y-17477500D01*
X6763928Y-17434643D01*
X6749643Y-17420357D01*
X-122562Y-18138562D02*
X-7500Y-18023500D01*
X-122562Y-17908438D01*
X-237624Y-18023500D01*
X-122562Y-18138562D01*
X-7500Y-18023500D02*
G75*
G03X-7500Y-18023500I-115062J0D01*
G01*
X249643Y-17887786D02*
X263929Y-17873500D01*
X292500Y-17859214D01*
X363928Y-17859214D01*
X392500Y-17873500D01*
X406786Y-17887786D01*
X421071Y-17916357D01*
X421071Y-17944929D01*
X406786Y-17987786D01*
X235357Y-18159214D01*
X421071Y-18159214D01*
X549643Y-18130643D02*
X563929Y-18144929D01*
X549643Y-18159214D01*
X535357Y-18144929D01*
X549643Y-18130643D01*
X549643Y-18159214D01*
X663928Y-17859214D02*
X849643Y-17859214D01*
X749643Y-17973500D01*
X792500Y-17973500D01*
X821071Y-17987786D01*
X835357Y-18002072D01*
X849643Y-18030643D01*
X849643Y-18102072D01*
X835357Y-18130643D01*
X821071Y-18144929D01*
X792500Y-18159214D01*
X706786Y-18159214D01*
X678214Y-18144929D01*
X663928Y-18130643D01*
X1035357Y-17859214D02*
X1063929Y-17859214D01*
X1092500Y-17873500D01*
X1106786Y-17887786D01*
X1121071Y-17916357D01*
X1135357Y-17973500D01*
X1135357Y-18044929D01*
X1121071Y-18102072D01*
X1106786Y-18130643D01*
X1092500Y-18144929D01*
X1063929Y-18159214D01*
X1035357Y-18159214D01*
X1006786Y-18144929D01*
X992500Y-18130643D01*
X978214Y-18102072D01*
X963928Y-18044929D01*
X963928Y-17973500D01*
X978214Y-17916357D01*
X992500Y-17887786D01*
X1006786Y-17873500D01*
X1035357Y-17859214D01*
X1263929Y-18159214D02*
X1263929Y-17959214D01*
X1263929Y-17987786D02*
X1278214Y-17973500D01*
X1306786Y-17959214D01*
X1349643Y-17959214D01*
X1378214Y-17973500D01*
X1392500Y-18002072D01*
X1392500Y-18159214D01*
X1392500Y-18002072D02*
X1406786Y-17973500D01*
X1435357Y-17959214D01*
X1478214Y-17959214D01*
X1506786Y-17973500D01*
X1521071Y-18002072D01*
X1521071Y-18159214D01*
X1663928Y-18159214D02*
X1663928Y-17959214D01*
X1663928Y-17987786D02*
X1678214Y-17973500D01*
X1706786Y-17959214D01*
X1749643Y-17959214D01*
X1778214Y-17973500D01*
X1792500Y-18002072D01*
X1792500Y-18159214D01*
X1792500Y-18002072D02*
X1806786Y-17973500D01*
X1835357Y-17959214D01*
X1878214Y-17959214D01*
X1906786Y-17973500D01*
X1921071Y-18002072D01*
X1921071Y-18159214D01*
X2506786Y-17844929D02*
X2249643Y-18230643D01*
X2892500Y-17859214D02*
X2921071Y-17859214D01*
X2949643Y-17873500D01*
X2963928Y-17887786D01*
X2978214Y-17916357D01*
X2992500Y-17973500D01*
X2992500Y-18044929D01*
X2978214Y-18102072D01*
X2963928Y-18130643D01*
X2949643Y-18144929D01*
X2921071Y-18159214D01*
X2892500Y-18159214D01*
X2863928Y-18144929D01*
X2849643Y-18130643D01*
X2835357Y-18102072D01*
X2821071Y-18044929D01*
X2821071Y-17973500D01*
X2835357Y-17916357D01*
X2849643Y-17887786D01*
X2863928Y-17873500D01*
X2892500Y-17859214D01*
X3121071Y-18130643D02*
X3135357Y-18144929D01*
X3121071Y-18159214D01*
X3106786Y-18144929D01*
X3121071Y-18130643D01*
X3121071Y-18159214D01*
X3321071Y-17859214D02*
X3349643Y-17859214D01*
X3378214Y-17873500D01*
X3392500Y-17887786D01*
X3406785Y-17916357D01*
X3421071Y-17973500D01*
X3421071Y-18044929D01*
X3406785Y-18102072D01*
X3392500Y-18130643D01*
X3378214Y-18144929D01*
X3349643Y-18159214D01*
X3321071Y-18159214D01*
X3292500Y-18144929D01*
X3278214Y-18130643D01*
X3263928Y-18102072D01*
X3249643Y-18044929D01*
X3249643Y-17973500D01*
X3263928Y-17916357D01*
X3278214Y-17887786D01*
X3292500Y-17873500D01*
X3321071Y-17859214D01*
X3563928Y-18159214D02*
X3621071Y-18159214D01*
X3649643Y-18144929D01*
X3663928Y-18130643D01*
X3692500Y-18087786D01*
X3706785Y-18030643D01*
X3706785Y-17916357D01*
X3692500Y-17887786D01*
X3678214Y-17873500D01*
X3649643Y-17859214D01*
X3592500Y-17859214D01*
X3563928Y-17873500D01*
X3549643Y-17887786D01*
X3535357Y-17916357D01*
X3535357Y-17987786D01*
X3549643Y-18016357D01*
X3563928Y-18030643D01*
X3592500Y-18044929D01*
X3649643Y-18044929D01*
X3678214Y-18030643D01*
X3692500Y-18016357D01*
X3706785Y-17987786D01*
X3992500Y-18159214D02*
X3821071Y-18159214D01*
X3906785Y-18159214D02*
X3906785Y-17859214D01*
X3878214Y-17902072D01*
X3849643Y-17930643D01*
X3821071Y-17944929D01*
X4106786Y-17859214D02*
X4106786Y-17916357D01*
X4221071Y-17859214D02*
X4221071Y-17916357D01*
X4663928Y-18273500D02*
X4649643Y-18259214D01*
X4621071Y-18216357D01*
X4606786Y-18187786D01*
X4592500Y-18144929D01*
X4578214Y-18073500D01*
X4578214Y-18016357D01*
X4592500Y-17944929D01*
X4606786Y-17902072D01*
X4621071Y-17873500D01*
X4649643Y-17830643D01*
X4663928Y-17816357D01*
X4763928Y-17887786D02*
X4778214Y-17873500D01*
X4806786Y-17859214D01*
X4878214Y-17859214D01*
X4906786Y-17873500D01*
X4921071Y-17887786D01*
X4935357Y-17916357D01*
X4935357Y-17944929D01*
X4921071Y-17987786D01*
X4749643Y-18159214D01*
X4935357Y-18159214D01*
X5292500Y-18159214D02*
X5292500Y-17859214D01*
X5421071Y-18159214D02*
X5421071Y-18002072D01*
X5406786Y-17973500D01*
X5378214Y-17959214D01*
X5335357Y-17959214D01*
X5306786Y-17973500D01*
X5292500Y-17987786D01*
X5606785Y-18159214D02*
X5578214Y-18144929D01*
X5563928Y-18130643D01*
X5549643Y-18102072D01*
X5549643Y-18016357D01*
X5563928Y-17987786D01*
X5578214Y-17973500D01*
X5606785Y-17959214D01*
X5649643Y-17959214D01*
X5678214Y-17973500D01*
X5692500Y-17987786D01*
X5706785Y-18016357D01*
X5706785Y-18102072D01*
X5692500Y-18130643D01*
X5678214Y-18144929D01*
X5649643Y-18159214D01*
X5606785Y-18159214D01*
X5878214Y-18159214D02*
X5849643Y-18144929D01*
X5835357Y-18116357D01*
X5835357Y-17859214D01*
X6106786Y-18144929D02*
X6078214Y-18159214D01*
X6021071Y-18159214D01*
X5992500Y-18144929D01*
X5978214Y-18116357D01*
X5978214Y-18002072D01*
X5992500Y-17973500D01*
X6021071Y-17959214D01*
X6078214Y-17959214D01*
X6106786Y-17973500D01*
X6121071Y-18002072D01*
X6121071Y-18030643D01*
X5978214Y-18059214D01*
X6235357Y-18144929D02*
X6263928Y-18159214D01*
X6321071Y-18159214D01*
X6349643Y-18144929D01*
X6363928Y-18116357D01*
X6363928Y-18102072D01*
X6349643Y-18073500D01*
X6321071Y-18059214D01*
X6278214Y-18059214D01*
X6249643Y-18044929D01*
X6235357Y-18016357D01*
X6235357Y-18002072D01*
X6249643Y-17973500D01*
X6278214Y-17959214D01*
X6321071Y-17959214D01*
X6349643Y-17973500D01*
X6463928Y-18273500D02*
X6478214Y-18259214D01*
X6506786Y-18216357D01*
X6521071Y-18187786D01*
X6535357Y-18144929D01*
X6549643Y-18073500D01*
X6549643Y-18016357D01*
X6535357Y-17944929D01*
X6521071Y-17902072D01*
X6506786Y-17873500D01*
X6478214Y-17830643D01*
X6463928Y-17816357D01*
X-182500Y-18244500D02*
X-182500Y-18594500D01*
X-357500Y-18419500D02*
X-7500Y-18419500D01*
X-58755Y-18543245D02*
X-58755Y-18295755D01*
X-306245Y-18295755D01*
X-306245Y-18543245D01*
X-58755Y-18543245D01*
X235357Y-18255214D02*
X421071Y-18255214D01*
X321071Y-18369500D01*
X363928Y-18369500D01*
X392500Y-18383786D01*
X406786Y-18398072D01*
X421071Y-18426643D01*
X421071Y-18498072D01*
X406786Y-18526643D01*
X392500Y-18540929D01*
X363928Y-18555214D01*
X278214Y-18555214D01*
X249643Y-18540929D01*
X235357Y-18526643D01*
X549643Y-18526643D02*
X563929Y-18540929D01*
X549643Y-18555214D01*
X535357Y-18540929D01*
X549643Y-18526643D01*
X549643Y-18555214D01*
X835357Y-18255214D02*
X692500Y-18255214D01*
X678214Y-18398072D01*
X692500Y-18383786D01*
X721071Y-18369500D01*
X792500Y-18369500D01*
X821071Y-18383786D01*
X835357Y-18398072D01*
X849643Y-18426643D01*
X849643Y-18498072D01*
X835357Y-18526643D01*
X821071Y-18540929D01*
X792500Y-18555214D01*
X721071Y-18555214D01*
X692500Y-18540929D01*
X678214Y-18526643D01*
X1035357Y-18255214D02*
X1063929Y-18255214D01*
X1092500Y-18269500D01*
X1106786Y-18283786D01*
X1121071Y-18312357D01*
X1135357Y-18369500D01*
X1135357Y-18440929D01*
X1121071Y-18498072D01*
X1106786Y-18526643D01*
X1092500Y-18540929D01*
X1063929Y-18555214D01*
X1035357Y-18555214D01*
X1006786Y-18540929D01*
X992500Y-18526643D01*
X978214Y-18498072D01*
X963928Y-18440929D01*
X963928Y-18369500D01*
X978214Y-18312357D01*
X992500Y-18283786D01*
X1006786Y-18269500D01*
X1035357Y-18255214D01*
X1263929Y-18555214D02*
X1263929Y-18355214D01*
X1263929Y-18383786D02*
X1278214Y-18369500D01*
X1306786Y-18355214D01*
X1349643Y-18355214D01*
X1378214Y-18369500D01*
X1392500Y-18398072D01*
X1392500Y-18555214D01*
X1392500Y-18398072D02*
X1406786Y-18369500D01*
X1435357Y-18355214D01*
X1478214Y-18355214D01*
X1506786Y-18369500D01*
X1521071Y-18398072D01*
X1521071Y-18555214D01*
X1663928Y-18555214D02*
X1663928Y-18355214D01*
X1663928Y-18383786D02*
X1678214Y-18369500D01*
X1706786Y-18355214D01*
X1749643Y-18355214D01*
X1778214Y-18369500D01*
X1792500Y-18398072D01*
X1792500Y-18555214D01*
X1792500Y-18398072D02*
X1806786Y-18369500D01*
X1835357Y-18355214D01*
X1878214Y-18355214D01*
X1906786Y-18369500D01*
X1921071Y-18398072D01*
X1921071Y-18555214D01*
X2506786Y-18240929D02*
X2249643Y-18626643D01*
X2892500Y-18255214D02*
X2921071Y-18255214D01*
X2949643Y-18269500D01*
X2963928Y-18283786D01*
X2978214Y-18312357D01*
X2992500Y-18369500D01*
X2992500Y-18440929D01*
X2978214Y-18498072D01*
X2963928Y-18526643D01*
X2949643Y-18540929D01*
X2921071Y-18555214D01*
X2892500Y-18555214D01*
X2863928Y-18540929D01*
X2849643Y-18526643D01*
X2835357Y-18498072D01*
X2821071Y-18440929D01*
X2821071Y-18369500D01*
X2835357Y-18312357D01*
X2849643Y-18283786D01*
X2863928Y-18269500D01*
X2892500Y-18255214D01*
X3121071Y-18526643D02*
X3135357Y-18540929D01*
X3121071Y-18555214D01*
X3106786Y-18540929D01*
X3121071Y-18526643D01*
X3121071Y-18555214D01*
X3421071Y-18555214D02*
X3249643Y-18555214D01*
X3335357Y-18555214D02*
X3335357Y-18255214D01*
X3306785Y-18298072D01*
X3278214Y-18326643D01*
X3249643Y-18340929D01*
X3521071Y-18255214D02*
X3706785Y-18255214D01*
X3606785Y-18369500D01*
X3649643Y-18369500D01*
X3678214Y-18383786D01*
X3692500Y-18398072D01*
X3706785Y-18426643D01*
X3706785Y-18498072D01*
X3692500Y-18526643D01*
X3678214Y-18540929D01*
X3649643Y-18555214D01*
X3563928Y-18555214D01*
X3535357Y-18540929D01*
X3521071Y-18526643D01*
X3878214Y-18383786D02*
X3849643Y-18369500D01*
X3835357Y-18355214D01*
X3821071Y-18326643D01*
X3821071Y-18312357D01*
X3835357Y-18283786D01*
X3849643Y-18269500D01*
X3878214Y-18255214D01*
X3935357Y-18255214D01*
X3963928Y-18269500D01*
X3978214Y-18283786D01*
X3992500Y-18312357D01*
X3992500Y-18326643D01*
X3978214Y-18355214D01*
X3963928Y-18369500D01*
X3935357Y-18383786D01*
X3878214Y-18383786D01*
X3849643Y-18398072D01*
X3835357Y-18412357D01*
X3821071Y-18440929D01*
X3821071Y-18498072D01*
X3835357Y-18526643D01*
X3849643Y-18540929D01*
X3878214Y-18555214D01*
X3935357Y-18555214D01*
X3963928Y-18540929D01*
X3978214Y-18526643D01*
X3992500Y-18498072D01*
X3992500Y-18440929D01*
X3978214Y-18412357D01*
X3963928Y-18398072D01*
X3935357Y-18383786D01*
X4106786Y-18255214D02*
X4106786Y-18312357D01*
X4221071Y-18255214D02*
X4221071Y-18312357D01*
X4663928Y-18669500D02*
X4649643Y-18655214D01*
X4621071Y-18612357D01*
X4606786Y-18583786D01*
X4592500Y-18540929D01*
X4578214Y-18469500D01*
X4578214Y-18412357D01*
X4592500Y-18340929D01*
X4606786Y-18298072D01*
X4621071Y-18269500D01*
X4649643Y-18226643D01*
X4663928Y-18212357D01*
X4906786Y-18355214D02*
X4906786Y-18555214D01*
X4835357Y-18240929D02*
X4763928Y-18455214D01*
X4949643Y-18455214D01*
X5292500Y-18555214D02*
X5292500Y-18255214D01*
X5421071Y-18555214D02*
X5421071Y-18398072D01*
X5406786Y-18369500D01*
X5378214Y-18355214D01*
X5335357Y-18355214D01*
X5306786Y-18369500D01*
X5292500Y-18383786D01*
X5606785Y-18555214D02*
X5578214Y-18540929D01*
X5563928Y-18526643D01*
X5549643Y-18498072D01*
X5549643Y-18412357D01*
X5563928Y-18383786D01*
X5578214Y-18369500D01*
X5606785Y-18355214D01*
X5649643Y-18355214D01*
X5678214Y-18369500D01*
X5692500Y-18383786D01*
X5706785Y-18412357D01*
X5706785Y-18498072D01*
X5692500Y-18526643D01*
X5678214Y-18540929D01*
X5649643Y-18555214D01*
X5606785Y-18555214D01*
X5878214Y-18555214D02*
X5849643Y-18540929D01*
X5835357Y-18512357D01*
X5835357Y-18255214D01*
X6106786Y-18540929D02*
X6078214Y-18555214D01*
X6021071Y-18555214D01*
X5992500Y-18540929D01*
X5978214Y-18512357D01*
X5978214Y-18398072D01*
X5992500Y-18369500D01*
X6021071Y-18355214D01*
X6078214Y-18355214D01*
X6106786Y-18369500D01*
X6121071Y-18398072D01*
X6121071Y-18426643D01*
X5978214Y-18455214D01*
X6235357Y-18540929D02*
X6263928Y-18555214D01*
X6321071Y-18555214D01*
X6349643Y-18540929D01*
X6363928Y-18512357D01*
X6363928Y-18498072D01*
X6349643Y-18469500D01*
X6321071Y-18455214D01*
X6278214Y-18455214D01*
X6249643Y-18440929D01*
X6235357Y-18412357D01*
X6235357Y-18398072D01*
X6249643Y-18369500D01*
X6278214Y-18355214D01*
X6321071Y-18355214D01*
X6349643Y-18369500D01*
X6463928Y-18669500D02*
X6478214Y-18655214D01*
X6506786Y-18612357D01*
X6521071Y-18583786D01*
X6535357Y-18540929D01*
X6549643Y-18469500D01*
X6549643Y-18412357D01*
X6535357Y-18340929D01*
X6521071Y-18298072D01*
X6506786Y-18269500D01*
X6478214Y-18226643D01*
X6463928Y-18212357D01*
M02*
