G04 #@! TF.FileFunction,Soldermask,Bot*
%FSLAX46Y46*%
G04 Gerber Fmt 4.6, Leading zero omitted, Abs format (unit mm)*
G04 Created by KiCad (PCBNEW 4.0.6) date 01/31/18 03:36:11*
%MOMM*%
%LPD*%
G01*
G04 APERTURE LIST*
%ADD10C,0.100000*%
%ADD11R,2.100000X2.100000*%
%ADD12O,2.100000X2.100000*%
%ADD13C,3.400000*%
%ADD14R,1.900000X1.700000*%
%ADD15R,1.650000X1.900000*%
%ADD16R,1.900000X1.650000*%
%ADD17C,2.100000*%
%ADD18O,1.900000X1.500000*%
%ADD19O,2.100000X1.600000*%
%ADD20R,1.700000X1.900000*%
%ADD21R,0.900000X0.900000*%
%ADD22C,1.400000*%
%ADD23O,1.400000X1.400000*%
%ADD24R,1.400000X1.400000*%
%ADD25C,8.100000*%
%ADD26C,1.100000*%
%ADD27R,3.400000X3.400000*%
%ADD28C,0.800000*%
%ADD29C,1.700000*%
%ADD30C,2.584400*%
%ADD31C,1.808000*%
%ADD32C,1.901140*%
%ADD33C,3.399740*%
%ADD34R,1.460000X1.050000*%
%ADD35C,2.400000*%
G04 APERTURE END LIST*
D10*
D11*
X90683080Y-125227080D03*
D12*
X93223080Y-125227080D03*
D13*
X21040000Y-105295000D03*
X21040000Y-111645000D03*
D14*
X86250000Y-29300000D03*
X83550000Y-29300000D03*
X86250000Y-18000000D03*
X83550000Y-18000000D03*
X102150000Y-27700000D03*
X99450000Y-27700000D03*
X102150000Y-19600000D03*
X99450000Y-19600000D03*
D11*
X83560000Y-26950000D03*
D12*
X86100000Y-26950000D03*
X88640000Y-26950000D03*
D11*
X83560000Y-20350000D03*
D12*
X86100000Y-20350000D03*
X88640000Y-20350000D03*
D15*
X58770000Y-38090000D03*
X58770000Y-40590000D03*
X58770000Y-31490000D03*
X58770000Y-33990000D03*
X58770000Y-24890000D03*
X58770000Y-27390000D03*
X58770000Y-18290000D03*
X58770000Y-20790000D03*
D16*
X65720000Y-39740000D03*
X63220000Y-39740000D03*
X65720000Y-33140000D03*
X63220000Y-33140000D03*
X65720000Y-26540000D03*
X63220000Y-26540000D03*
X65720000Y-19940000D03*
X63220000Y-19940000D03*
X63220000Y-37800000D03*
X65720000Y-37800000D03*
X63220000Y-31200000D03*
X65720000Y-31200000D03*
X63220000Y-24600000D03*
X65720000Y-24600000D03*
X63220000Y-18000000D03*
X65720000Y-18000000D03*
D14*
X68140000Y-37800000D03*
X70840000Y-37800000D03*
X68140000Y-31200000D03*
X70840000Y-31200000D03*
X68140000Y-24600000D03*
X70840000Y-24600000D03*
X68140000Y-18000000D03*
X70840000Y-18000000D03*
X75690000Y-37800000D03*
X72990000Y-37800000D03*
X75690000Y-31200000D03*
X72990000Y-31200000D03*
X75690000Y-24600000D03*
X72990000Y-24600000D03*
X75690000Y-18000000D03*
X72990000Y-18000000D03*
X68140000Y-42500000D03*
X70840000Y-42500000D03*
X68140000Y-35900000D03*
X70840000Y-35900000D03*
X68140000Y-29300000D03*
X70840000Y-29300000D03*
X68140000Y-22700000D03*
X70840000Y-22700000D03*
D11*
X68590000Y-40150000D03*
D12*
X71130000Y-40150000D03*
X73670000Y-40150000D03*
D11*
X68590000Y-33550000D03*
D12*
X71130000Y-33550000D03*
X73670000Y-33550000D03*
D11*
X68590000Y-26950000D03*
D12*
X71130000Y-26950000D03*
X73670000Y-26950000D03*
D11*
X68590000Y-20350000D03*
D12*
X71130000Y-20350000D03*
X73670000Y-20350000D03*
D14*
X68140000Y-16100000D03*
X70840000Y-16100000D03*
D16*
X63220000Y-11400000D03*
X65720000Y-11400000D03*
X65720000Y-13340000D03*
X63220000Y-13340000D03*
D15*
X58770000Y-11690000D03*
X58770000Y-14190000D03*
D14*
X75690000Y-11400000D03*
X72990000Y-11400000D03*
X68140000Y-11400000D03*
X70840000Y-11400000D03*
D11*
X68590000Y-13750000D03*
D12*
X71130000Y-13750000D03*
X73670000Y-13750000D03*
D16*
X39100000Y-20100000D03*
X36600000Y-20100000D03*
X39100000Y-25950000D03*
X36600000Y-25950000D03*
X39100000Y-24000000D03*
X36600000Y-24000000D03*
X38725000Y-40375000D03*
X41225000Y-40375000D03*
D15*
X45602776Y-44207268D03*
X45602776Y-41707268D03*
X47502776Y-44207268D03*
X47502776Y-41707268D03*
D16*
X15118580Y-112625060D03*
X12618580Y-112625060D03*
X15118580Y-110725060D03*
X12618580Y-110725060D03*
X13750000Y-123650000D03*
X11250000Y-123650000D03*
X63220000Y-4800000D03*
X65720000Y-4800000D03*
X65720000Y-6740000D03*
X63220000Y-6740000D03*
D15*
X58770000Y-5090000D03*
X58770000Y-7590000D03*
D16*
X118550000Y-92450000D03*
X121050000Y-92450000D03*
D17*
X38410000Y-12450000D03*
D12*
X40950000Y-12450000D03*
D17*
X93726000Y-117729000D03*
D12*
X93726000Y-115189000D03*
X96266000Y-117729000D03*
X96266000Y-115189000D03*
X98806000Y-117729000D03*
D11*
X98806000Y-115189000D03*
D18*
X121150000Y-113500000D03*
X121150000Y-108660000D03*
D19*
X124150000Y-113810000D03*
X124150000Y-108350000D03*
D14*
X39200000Y-22050000D03*
X36500000Y-22050000D03*
X39200000Y-16675000D03*
X36500000Y-16675000D03*
D20*
X41375000Y-26475000D03*
X41375000Y-23775000D03*
D14*
X8040360Y-114848640D03*
X5340360Y-114848640D03*
X77423000Y-85217000D03*
X74723000Y-85217000D03*
X102150000Y-6400000D03*
X99450000Y-6400000D03*
X102150000Y-14500000D03*
X99450000Y-14500000D03*
X75690000Y-4800000D03*
X72990000Y-4800000D03*
X68140000Y-4800000D03*
X70840000Y-4800000D03*
X68140000Y-9500000D03*
X70840000Y-9500000D03*
X16750000Y-63650000D03*
X19450000Y-63650000D03*
X82503000Y-122682000D03*
X79803000Y-122682000D03*
D20*
X16440000Y-34000000D03*
X16440000Y-36700000D03*
X11790000Y-28380000D03*
X11790000Y-31080000D03*
D14*
X118450000Y-95400000D03*
X121150000Y-95400000D03*
D21*
X39200000Y-33275000D03*
X38450000Y-34025000D03*
X39950000Y-34025000D03*
X39950000Y-32525000D03*
X38450000Y-32525000D03*
X14325600Y-119331740D03*
X13575600Y-120081740D03*
X15075600Y-120081740D03*
X15075600Y-118581740D03*
X13575600Y-118581740D03*
D22*
X106290000Y-97230000D03*
D23*
X106290000Y-98500000D03*
D24*
X105020000Y-97230000D03*
D23*
X105020000Y-98500000D03*
D24*
X103750000Y-97230000D03*
D23*
X103750000Y-98500000D03*
X102480000Y-97230000D03*
X102480000Y-98500000D03*
X101210000Y-97230000D03*
X101210000Y-98500000D03*
D25*
X120650000Y-120650000D03*
D26*
X117850000Y-120650000D03*
X122629890Y-122629890D03*
X120650000Y-123450000D03*
X118670110Y-122629890D03*
X123450000Y-120650000D03*
X118670110Y-118670110D03*
X120650000Y-117850000D03*
X122629890Y-118670110D03*
D25*
X6350000Y-120650000D03*
D26*
X3550000Y-120650000D03*
X8329890Y-122629890D03*
X6350000Y-123450000D03*
X4370110Y-122629890D03*
X9150000Y-120650000D03*
X4370110Y-118670110D03*
X6350000Y-117850000D03*
X8329890Y-118670110D03*
D25*
X120650000Y-6350000D03*
D26*
X117850000Y-6350000D03*
X122629890Y-8329890D03*
X120650000Y-9150000D03*
X118670110Y-8329890D03*
X123450000Y-6350000D03*
X118670110Y-4370110D03*
X120650000Y-3550000D03*
X122629890Y-4370110D03*
D25*
X6350000Y-6350000D03*
D26*
X3550000Y-6350000D03*
X8329890Y-8329890D03*
X6350000Y-9150000D03*
X4370110Y-8329890D03*
X9150000Y-6350000D03*
X4370110Y-4370110D03*
X6350000Y-3550000D03*
X8329890Y-4370110D03*
D14*
X86250000Y-4800000D03*
X83550000Y-4800000D03*
X86250000Y-16100000D03*
X83550000Y-16100000D03*
D13*
X6310000Y-37375000D03*
D27*
X6310000Y-31025000D03*
D13*
X6310000Y-43725000D03*
D27*
X6310000Y-24675000D03*
D13*
X21040000Y-37375000D03*
D27*
X21040000Y-31025000D03*
D13*
X21040000Y-43725000D03*
D27*
X21040000Y-24675000D03*
D13*
X21040000Y-71325000D03*
X21040000Y-77675000D03*
X50500000Y-71325000D03*
X50500000Y-77675000D03*
X35770000Y-71325000D03*
X35770000Y-77675000D03*
X6310000Y-71325000D03*
X6310000Y-77675000D03*
X31175000Y-6310000D03*
D27*
X24825000Y-6310000D03*
D13*
X50500000Y-105295000D03*
X50500000Y-111645000D03*
X35770000Y-105295000D03*
X35770000Y-111645000D03*
X6310000Y-105295000D03*
X6310000Y-111645000D03*
D28*
X21730000Y-57515000D03*
X23680000Y-57515000D03*
X19780000Y-57515000D03*
X22380000Y-58415000D03*
X21080000Y-58415000D03*
X22380000Y-56615000D03*
X21080000Y-56615000D03*
X7000000Y-57515000D03*
X8950000Y-57515000D03*
X5050000Y-57515000D03*
X7650000Y-58415000D03*
X6350000Y-58415000D03*
X7650000Y-56615000D03*
X6350000Y-56615000D03*
D11*
X83560000Y-7150000D03*
D12*
X86100000Y-7150000D03*
X88640000Y-7150000D03*
D11*
X83560000Y-13750000D03*
D12*
X86100000Y-13750000D03*
X88640000Y-13750000D03*
D11*
X64490000Y-46750000D03*
D12*
X67030000Y-46750000D03*
X69570000Y-46750000D03*
D11*
X64490000Y-53350000D03*
D12*
X67030000Y-53350000D03*
X69570000Y-53350000D03*
D11*
X68590000Y-7150000D03*
D12*
X71130000Y-7150000D03*
X73670000Y-7150000D03*
D11*
X83560000Y-33550000D03*
D12*
X86100000Y-33550000D03*
X88640000Y-33550000D03*
D11*
X83560000Y-40150000D03*
D12*
X86100000Y-40150000D03*
X88640000Y-40150000D03*
D11*
X83560000Y-46750000D03*
D12*
X86100000Y-46750000D03*
X88640000Y-46750000D03*
D11*
X83560000Y-53350000D03*
D12*
X86100000Y-53350000D03*
X88640000Y-53350000D03*
D29*
X107211910Y-70855790D03*
X109751910Y-72125790D03*
X107211910Y-73395790D03*
X109751910Y-74665791D03*
X107211910Y-75935791D03*
X109751910Y-77205790D03*
X107211910Y-78475790D03*
X109751910Y-79745790D03*
D30*
X113051910Y-83175790D03*
X113051910Y-67425790D03*
D31*
X119480500Y-68974530D03*
X121000500Y-81624530D03*
X119480000Y-79086380D03*
X121000000Y-71516380D03*
D20*
X90424000Y-103458000D03*
X90424000Y-100758000D03*
X88138000Y-103585000D03*
X88138000Y-100885000D03*
D11*
X121660000Y-102850000D03*
D12*
X121660000Y-100310000D03*
X124200000Y-102850000D03*
X124200000Y-100310000D03*
D11*
X49750000Y-53250000D03*
D12*
X49750000Y-55790000D03*
D11*
X29184600Y-96941640D03*
D12*
X29184600Y-99481640D03*
D32*
X101980140Y-120901880D03*
X104520140Y-120901880D03*
X106552140Y-120901880D03*
X109092140Y-120901880D03*
D33*
X98932140Y-123568880D03*
X112648140Y-123568880D03*
D34*
X10843080Y-34991080D03*
X10843080Y-34041080D03*
X10843080Y-33091080D03*
X13043080Y-33091080D03*
X13043080Y-34991080D03*
X14399080Y-40579080D03*
X14399080Y-39629080D03*
X14399080Y-38679080D03*
X16599080Y-38679080D03*
X16599080Y-40579080D03*
D35*
X42600880Y-58602880D03*
X44836080Y-120578880D03*
X81285080Y-84536280D03*
X60584080Y-121086880D03*
X109783880Y-98734880D03*
M02*
