M48
;DRILL file {KiCad 4.0.5} date Thursday, July 20, 2017 'PMt' 06:29:43 PM
;FORMAT={3:3/ absolute / metric / keep zeros}
FMAT,2
METRIC,TZ
T1C0.400
T2C0.500
T3C0.550
T4C0.800
T5C0.900
T6C1.000
T7C1.100
T8C1.200
T9C1.800
T10C3.500
%
G90
G05
M71
T1
X090170Y-095250
X092075Y-085725
X095885Y-128905
X098425Y-125095
X099060Y-130175
X099695Y-064770
X099695Y-067945
X099695Y-071120
X099695Y-074295
X099695Y-077470
X099695Y-080645
X101600Y-109220
X102870Y-064135
X102870Y-102870
X103505Y-105410
X105410Y-064135
X106553Y-117602
X107315Y-092710
X110490Y-125095
X111760Y-100330
X112395Y-111125
X112395Y-117475
X113030Y-114300
X115570Y-101600
X116205Y-106045
X116332Y-115316
X117475Y-093980
X117475Y-111760
X117500Y-126000
X118745Y-130175
X118872Y-082804
X119380Y-099060
X119380Y-118364
X120650Y-106045
X121285Y-067290
X121285Y-099060
X121412Y-086868
X123190Y-117475
X123825Y-063500
X123825Y-104140
X124460Y-087630
X126365Y-109220
X128270Y-099060
X128905Y-088265
X129540Y-102235
X130175Y-107315
X131064Y-071120
X131064Y-097028
X132080Y-066040
X132715Y-071120
X132715Y-088265
X133350Y-109220
X133350Y-110490
X133691Y-113371
X133985Y-111125
X133985Y-132080
X135890Y-133350
X136014Y-128394
X136300Y-069470
X136500Y-063250
X136525Y-114300
X136525Y-126365
X137160Y-109855
X138176Y-065532
X139065Y-111125
X139700Y-109855
X140335Y-113665
X140970Y-087630
X140970Y-109220
X142240Y-093980
X142240Y-124460
X142875Y-062865
X143510Y-093980
X143510Y-137160
X144145Y-086360
X144780Y-082550
X144780Y-095250
X146050Y-110490
X146050Y-127000
X146685Y-067310
X146685Y-087630
X146865Y-128270
X147320Y-081915
X147320Y-097155
X147955Y-093345
X147955Y-106045
X148000Y-115250
X148590Y-076200
X148590Y-077470
X148590Y-083820
X148590Y-086360
X148590Y-094615
X148590Y-127000
X149225Y-100330
X149860Y-098425
X149860Y-129540
X150040Y-083820
X150495Y-085090
X151130Y-077470
X151765Y-062230
X151765Y-124460
X152400Y-106045
X152400Y-133350
X153035Y-081280
X153075Y-104140
X153670Y-098425
X153670Y-133350
X154020Y-124460
X156210Y-067270
X156210Y-124460
X156845Y-081280
X157480Y-100330
X157480Y-105410
X157480Y-124460
X158750Y-093980
X159385Y-106045
X159750Y-111500
X160020Y-093385
X160655Y-094615
X161290Y-089535
X161290Y-095885
X161290Y-127000
X161925Y-097790
X161925Y-100330
X163195Y-076200
X163830Y-071755
X164000Y-114250
X166250Y-111500
X168910Y-071755
X170180Y-081915
X170815Y-073660
X170815Y-097790
X170815Y-100330
X171770Y-120650
X172085Y-080645
X173355Y-111125
X173990Y-129300
X179705Y-100965
X179705Y-107950
X180340Y-111760
X181610Y-137795
X182410Y-103879
X182410Y-106419
T2
X091775Y-058240
X091865Y-142160
X092544Y-056384
X092544Y-060096
X092634Y-140304
X092634Y-144016
X094400Y-055615
X094400Y-060865
X094490Y-139535
X094490Y-144785
X096256Y-056384
X096256Y-060096
X096346Y-140304
X096346Y-144016
X097025Y-058240
X097115Y-142160
X175605Y-058240
X175605Y-142160
X176374Y-056384
X176374Y-060096
X176374Y-140304
X176374Y-144016
X178230Y-055615
X178230Y-060865
X178230Y-139535
X178230Y-144785
X180086Y-056384
X180086Y-060096
X180086Y-140304
X180086Y-144016
X180855Y-058240
X180855Y-142160
T4
X093980Y-099060
X093980Y-101600
X093980Y-104140
X116840Y-057150
X116840Y-059690
X116840Y-062230
X160020Y-057150
X160020Y-059690
X160020Y-062230
T5
X128510Y-140100
X129530Y-141880
X130550Y-140100
X131570Y-141880
X132590Y-140100
X133610Y-141880
X134630Y-140100
X135650Y-141880
X151380Y-140100
X152400Y-141880
X153420Y-140100
X154440Y-141880
X155460Y-140100
X156480Y-141880
X157500Y-140100
X158520Y-141880
T6
X092710Y-110490
X092710Y-113030
X092710Y-115570
X095250Y-110490
X095250Y-113030
X095250Y-115570
X109250Y-057420
X109250Y-059960
X109250Y-062500
X128270Y-057150
X128270Y-059690
X135890Y-074930
X135890Y-078740
X138430Y-074930
X138430Y-078740
X140970Y-074930
X140970Y-078740
X149860Y-057150
X149860Y-059690
X166000Y-056710
X166000Y-059250
X166000Y-061790
X166370Y-071120
X166370Y-073660
X166370Y-076200
X166370Y-078740
X166370Y-081280
X166370Y-083820
X166370Y-086360
X166370Y-088900
X180340Y-119380
X180340Y-121920
X180340Y-128270
X180340Y-130810
T7
X125070Y-136830
X127610Y-136830
X136550Y-136830
X139090Y-136830
X147940Y-136830
X150480Y-136830
X159420Y-136830
X161960Y-136830
T8
X112705Y-139700
X116205Y-139700
X176500Y-074930
X176500Y-078430
X176500Y-081930
X176500Y-085430
X176500Y-092060
X176500Y-095560
X176500Y-099060
T9
X126340Y-140430
X137820Y-140430
X149210Y-140430
X160690Y-140430
T10
X094400Y-058240
X094490Y-142160
X178230Y-058240
X178230Y-142160
T2
X090400Y-123500G85X091050Y-123500
G05
X090400Y-130500G85X091050Y-130500
G05
T3
X093425Y-124350G85X093425Y-124650
G05
X093425Y-129350G85X093425Y-129650
G05
T4
X124080Y-144180G85X124080Y-145380
G05
X140080Y-144180G85X140080Y-145380
G05
X146950Y-144180G85X146950Y-145380
G05
X162950Y-144180G85X162950Y-145380
G05
T0
M30
