G04 #@! TF.FileFunction,Legend,Bot*
%FSLAX46Y46*%
G04 Gerber Fmt 4.6, Leading zero omitted, Abs format (unit mm)*
G04 Created by KiCad (PCBNEW 4.0.4-stable) date Friday, December 29, 2017 'AMt' 10:56:01 AM*
%MOMM*%
%LPD*%
G01*
G04 APERTURE LIST*
%ADD10C,0.100000*%
%ADD11C,0.120000*%
%ADD12C,0.150000*%
G04 APERTURE END LIST*
D10*
D11*
X84300000Y-30180000D02*
X85500000Y-30180000D01*
X85500000Y-28420000D02*
X84300000Y-28420000D01*
X84300000Y-18880000D02*
X85500000Y-18880000D01*
X85500000Y-17120000D02*
X84300000Y-17120000D01*
X100200000Y-28580000D02*
X101400000Y-28580000D01*
X101400000Y-26820000D02*
X100200000Y-26820000D01*
X100200000Y-20480000D02*
X101400000Y-20480000D01*
X101400000Y-18720000D02*
X100200000Y-18720000D01*
X57920000Y-39840000D02*
X57920000Y-38840000D01*
X59620000Y-38840000D02*
X59620000Y-39840000D01*
X57920000Y-33240000D02*
X57920000Y-32240000D01*
X59620000Y-32240000D02*
X59620000Y-33240000D01*
X57920000Y-26640000D02*
X57920000Y-25640000D01*
X59620000Y-25640000D02*
X59620000Y-26640000D01*
X57920000Y-20040000D02*
X57920000Y-19040000D01*
X59620000Y-19040000D02*
X59620000Y-20040000D01*
X63970000Y-38890000D02*
X64970000Y-38890000D01*
X64970000Y-40590000D02*
X63970000Y-40590000D01*
X63970000Y-32290000D02*
X64970000Y-32290000D01*
X64970000Y-33990000D02*
X63970000Y-33990000D01*
X63970000Y-25690000D02*
X64970000Y-25690000D01*
X64970000Y-27390000D02*
X63970000Y-27390000D01*
X63970000Y-19090000D02*
X64970000Y-19090000D01*
X64970000Y-20790000D02*
X63970000Y-20790000D01*
X64970000Y-38650000D02*
X63970000Y-38650000D01*
X63970000Y-36950000D02*
X64970000Y-36950000D01*
X64970000Y-32050000D02*
X63970000Y-32050000D01*
X63970000Y-30350000D02*
X64970000Y-30350000D01*
X64970000Y-25450000D02*
X63970000Y-25450000D01*
X63970000Y-23750000D02*
X64970000Y-23750000D01*
X64970000Y-18850000D02*
X63970000Y-18850000D01*
X63970000Y-17150000D02*
X64970000Y-17150000D01*
X70090000Y-36920000D02*
X68890000Y-36920000D01*
X68890000Y-38680000D02*
X70090000Y-38680000D01*
X70090000Y-30320000D02*
X68890000Y-30320000D01*
X68890000Y-32080000D02*
X70090000Y-32080000D01*
X70090000Y-23720000D02*
X68890000Y-23720000D01*
X68890000Y-25480000D02*
X70090000Y-25480000D01*
X70090000Y-17120000D02*
X68890000Y-17120000D01*
X68890000Y-18880000D02*
X70090000Y-18880000D01*
X73740000Y-38680000D02*
X74940000Y-38680000D01*
X74940000Y-36920000D02*
X73740000Y-36920000D01*
X73740000Y-32080000D02*
X74940000Y-32080000D01*
X74940000Y-30320000D02*
X73740000Y-30320000D01*
X73740000Y-25480000D02*
X74940000Y-25480000D01*
X74940000Y-23720000D02*
X73740000Y-23720000D01*
X73740000Y-18880000D02*
X74940000Y-18880000D01*
X74940000Y-17120000D02*
X73740000Y-17120000D01*
X70090000Y-41620000D02*
X68890000Y-41620000D01*
X68890000Y-43380000D02*
X70090000Y-43380000D01*
X70090000Y-35020000D02*
X68890000Y-35020000D01*
X68890000Y-36780000D02*
X70090000Y-36780000D01*
X70090000Y-28420000D02*
X68890000Y-28420000D01*
X68890000Y-30180000D02*
X70090000Y-30180000D01*
X70090000Y-21820000D02*
X68890000Y-21820000D01*
X68890000Y-23580000D02*
X70090000Y-23580000D01*
X70090000Y-15220000D02*
X68890000Y-15220000D01*
X68890000Y-16980000D02*
X70090000Y-16980000D01*
X64970000Y-12250000D02*
X63970000Y-12250000D01*
X63970000Y-10550000D02*
X64970000Y-10550000D01*
X63970000Y-12490000D02*
X64970000Y-12490000D01*
X64970000Y-14190000D02*
X63970000Y-14190000D01*
X57920000Y-13440000D02*
X57920000Y-12440000D01*
X59620000Y-12440000D02*
X59620000Y-13440000D01*
X73740000Y-12280000D02*
X74940000Y-12280000D01*
X74940000Y-10520000D02*
X73740000Y-10520000D01*
X70090000Y-10520000D02*
X68890000Y-10520000D01*
X68890000Y-12280000D02*
X70090000Y-12280000D01*
X37350000Y-19250000D02*
X38350000Y-19250000D01*
X38350000Y-20950000D02*
X37350000Y-20950000D01*
X37350000Y-25100000D02*
X38350000Y-25100000D01*
X38350000Y-26800000D02*
X37350000Y-26800000D01*
X37350000Y-23150000D02*
X38350000Y-23150000D01*
X38350000Y-24850000D02*
X37350000Y-24850000D01*
X40475000Y-41225000D02*
X39475000Y-41225000D01*
X39475000Y-39525000D02*
X40475000Y-39525000D01*
X46452776Y-42457268D02*
X46452776Y-43457268D01*
X44752776Y-43457268D02*
X44752776Y-42457268D01*
X48352776Y-42457268D02*
X48352776Y-43457268D01*
X46652776Y-43457268D02*
X46652776Y-42457268D01*
X13368580Y-111775060D02*
X14368580Y-111775060D01*
X14368580Y-113475060D02*
X13368580Y-113475060D01*
X13368580Y-109875060D02*
X14368580Y-109875060D01*
X14368580Y-111575060D02*
X13368580Y-111575060D01*
X12000000Y-122800000D02*
X13000000Y-122800000D01*
X13000000Y-124500000D02*
X12000000Y-124500000D01*
X64970000Y-5650000D02*
X63970000Y-5650000D01*
X63970000Y-3950000D02*
X64970000Y-3950000D01*
X63970000Y-5890000D02*
X64970000Y-5890000D01*
X64970000Y-7590000D02*
X63970000Y-7590000D01*
X57920000Y-6840000D02*
X57920000Y-5840000D01*
X59620000Y-5840000D02*
X59620000Y-6840000D01*
X120300000Y-93300000D02*
X119300000Y-93300000D01*
X119300000Y-91600000D02*
X120300000Y-91600000D01*
X37250000Y-22930000D02*
X38450000Y-22930000D01*
X38450000Y-21170000D02*
X37250000Y-21170000D01*
X37250000Y-17555000D02*
X38450000Y-17555000D01*
X38450000Y-15795000D02*
X37250000Y-15795000D01*
X40495000Y-24525000D02*
X40495000Y-25725000D01*
X42255000Y-25725000D02*
X42255000Y-24525000D01*
X6090360Y-115728640D02*
X7290360Y-115728640D01*
X7290360Y-113968640D02*
X6090360Y-113968640D01*
X75473000Y-86097000D02*
X76673000Y-86097000D01*
X76673000Y-84337000D02*
X75473000Y-84337000D01*
X100200000Y-7280000D02*
X101400000Y-7280000D01*
X101400000Y-5520000D02*
X100200000Y-5520000D01*
X100200000Y-15380000D02*
X101400000Y-15380000D01*
X101400000Y-13620000D02*
X100200000Y-13620000D01*
X73740000Y-5680000D02*
X74940000Y-5680000D01*
X74940000Y-3920000D02*
X73740000Y-3920000D01*
X70090000Y-3920000D02*
X68890000Y-3920000D01*
X68890000Y-5680000D02*
X70090000Y-5680000D01*
X70090000Y-8620000D02*
X68890000Y-8620000D01*
X68890000Y-10380000D02*
X70090000Y-10380000D01*
X18700000Y-62770000D02*
X17500000Y-62770000D01*
X17500000Y-64530000D02*
X18700000Y-64530000D01*
X17320000Y-35950000D02*
X17320000Y-34750000D01*
X15560000Y-34750000D02*
X15560000Y-35950000D01*
X12670000Y-30330000D02*
X12670000Y-29130000D01*
X10910000Y-29130000D02*
X10910000Y-30330000D01*
X120400000Y-94520000D02*
X119200000Y-94520000D01*
X119200000Y-96280000D02*
X120400000Y-96280000D01*
X14520000Y-38060000D02*
X16320000Y-38060000D01*
X16320000Y-41280000D02*
X13870000Y-41280000D01*
X10960000Y-32410000D02*
X12760000Y-32410000D01*
X12760000Y-35630000D02*
X10310000Y-35630000D01*
X84300000Y-5680000D02*
X85500000Y-5680000D01*
X85500000Y-3920000D02*
X84300000Y-3920000D01*
X84300000Y-16980000D02*
X85500000Y-16980000D01*
X85500000Y-15220000D02*
X84300000Y-15220000D01*
D12*
X91895238Y-29752381D02*
X92228572Y-29276190D01*
X92466667Y-29752381D02*
X92466667Y-28752381D01*
X92085714Y-28752381D01*
X91990476Y-28800000D01*
X91942857Y-28847619D01*
X91895238Y-28942857D01*
X91895238Y-29085714D01*
X91942857Y-29180952D01*
X91990476Y-29228571D01*
X92085714Y-29276190D01*
X92466667Y-29276190D01*
X90942857Y-29752381D02*
X91514286Y-29752381D01*
X91228572Y-29752381D02*
X91228572Y-28752381D01*
X91323810Y-28895238D01*
X91419048Y-28990476D01*
X91514286Y-29038095D01*
X90323810Y-28752381D02*
X90228571Y-28752381D01*
X90133333Y-28800000D01*
X90085714Y-28847619D01*
X90038095Y-28942857D01*
X89990476Y-29133333D01*
X89990476Y-29371429D01*
X90038095Y-29561905D01*
X90085714Y-29657143D01*
X90133333Y-29704762D01*
X90228571Y-29752381D01*
X90323810Y-29752381D01*
X90419048Y-29704762D01*
X90466667Y-29657143D01*
X90514286Y-29561905D01*
X90561905Y-29371429D01*
X90561905Y-29133333D01*
X90514286Y-28942857D01*
X90466667Y-28847619D01*
X90419048Y-28800000D01*
X90323810Y-28752381D01*
X89371429Y-28752381D02*
X89276190Y-28752381D01*
X89180952Y-28800000D01*
X89133333Y-28847619D01*
X89085714Y-28942857D01*
X89038095Y-29133333D01*
X89038095Y-29371429D01*
X89085714Y-29561905D01*
X89133333Y-29657143D01*
X89180952Y-29704762D01*
X89276190Y-29752381D01*
X89371429Y-29752381D01*
X89466667Y-29704762D01*
X89514286Y-29657143D01*
X89561905Y-29561905D01*
X89609524Y-29371429D01*
X89609524Y-29133333D01*
X89561905Y-28942857D01*
X89514286Y-28847619D01*
X89466667Y-28800000D01*
X89371429Y-28752381D01*
X88466667Y-29180952D02*
X88561905Y-29133333D01*
X88609524Y-29085714D01*
X88657143Y-28990476D01*
X88657143Y-28942857D01*
X88609524Y-28847619D01*
X88561905Y-28800000D01*
X88466667Y-28752381D01*
X88276190Y-28752381D01*
X88180952Y-28800000D01*
X88133333Y-28847619D01*
X88085714Y-28942857D01*
X88085714Y-28990476D01*
X88133333Y-29085714D01*
X88180952Y-29133333D01*
X88276190Y-29180952D01*
X88466667Y-29180952D01*
X88561905Y-29228571D01*
X88609524Y-29276190D01*
X88657143Y-29371429D01*
X88657143Y-29561905D01*
X88609524Y-29657143D01*
X88561905Y-29704762D01*
X88466667Y-29752381D01*
X88276190Y-29752381D01*
X88180952Y-29704762D01*
X88133333Y-29657143D01*
X88085714Y-29561905D01*
X88085714Y-29371429D01*
X88133333Y-29276190D01*
X88180952Y-29228571D01*
X88276190Y-29180952D01*
X91595238Y-18452381D02*
X91928572Y-17976190D01*
X92166667Y-18452381D02*
X92166667Y-17452381D01*
X91785714Y-17452381D01*
X91690476Y-17500000D01*
X91642857Y-17547619D01*
X91595238Y-17642857D01*
X91595238Y-17785714D01*
X91642857Y-17880952D01*
X91690476Y-17928571D01*
X91785714Y-17976190D01*
X92166667Y-17976190D01*
X90642857Y-18452381D02*
X91214286Y-18452381D01*
X90928572Y-18452381D02*
X90928572Y-17452381D01*
X91023810Y-17595238D01*
X91119048Y-17690476D01*
X91214286Y-17738095D01*
X90023810Y-17452381D02*
X89928571Y-17452381D01*
X89833333Y-17500000D01*
X89785714Y-17547619D01*
X89738095Y-17642857D01*
X89690476Y-17833333D01*
X89690476Y-18071429D01*
X89738095Y-18261905D01*
X89785714Y-18357143D01*
X89833333Y-18404762D01*
X89928571Y-18452381D01*
X90023810Y-18452381D01*
X90119048Y-18404762D01*
X90166667Y-18357143D01*
X90214286Y-18261905D01*
X90261905Y-18071429D01*
X90261905Y-17833333D01*
X90214286Y-17642857D01*
X90166667Y-17547619D01*
X90119048Y-17500000D01*
X90023810Y-17452381D01*
X89071429Y-17452381D02*
X88976190Y-17452381D01*
X88880952Y-17500000D01*
X88833333Y-17547619D01*
X88785714Y-17642857D01*
X88738095Y-17833333D01*
X88738095Y-18071429D01*
X88785714Y-18261905D01*
X88833333Y-18357143D01*
X88880952Y-18404762D01*
X88976190Y-18452381D01*
X89071429Y-18452381D01*
X89166667Y-18404762D01*
X89214286Y-18357143D01*
X89261905Y-18261905D01*
X89309524Y-18071429D01*
X89309524Y-17833333D01*
X89261905Y-17642857D01*
X89214286Y-17547619D01*
X89166667Y-17500000D01*
X89071429Y-17452381D01*
X88404762Y-17452381D02*
X87738095Y-17452381D01*
X88166667Y-18452381D01*
X107295238Y-28152381D02*
X107628572Y-27676190D01*
X107866667Y-28152381D02*
X107866667Y-27152381D01*
X107485714Y-27152381D01*
X107390476Y-27200000D01*
X107342857Y-27247619D01*
X107295238Y-27342857D01*
X107295238Y-27485714D01*
X107342857Y-27580952D01*
X107390476Y-27628571D01*
X107485714Y-27676190D01*
X107866667Y-27676190D01*
X106342857Y-28152381D02*
X106914286Y-28152381D01*
X106628572Y-28152381D02*
X106628572Y-27152381D01*
X106723810Y-27295238D01*
X106819048Y-27390476D01*
X106914286Y-27438095D01*
X105723810Y-27152381D02*
X105628571Y-27152381D01*
X105533333Y-27200000D01*
X105485714Y-27247619D01*
X105438095Y-27342857D01*
X105390476Y-27533333D01*
X105390476Y-27771429D01*
X105438095Y-27961905D01*
X105485714Y-28057143D01*
X105533333Y-28104762D01*
X105628571Y-28152381D01*
X105723810Y-28152381D01*
X105819048Y-28104762D01*
X105866667Y-28057143D01*
X105914286Y-27961905D01*
X105961905Y-27771429D01*
X105961905Y-27533333D01*
X105914286Y-27342857D01*
X105866667Y-27247619D01*
X105819048Y-27200000D01*
X105723810Y-27152381D01*
X104438095Y-28152381D02*
X105009524Y-28152381D01*
X104723810Y-28152381D02*
X104723810Y-27152381D01*
X104819048Y-27295238D01*
X104914286Y-27390476D01*
X105009524Y-27438095D01*
X104057143Y-27247619D02*
X104009524Y-27200000D01*
X103914286Y-27152381D01*
X103676190Y-27152381D01*
X103580952Y-27200000D01*
X103533333Y-27247619D01*
X103485714Y-27342857D01*
X103485714Y-27438095D01*
X103533333Y-27580952D01*
X104104762Y-28152381D01*
X103485714Y-28152381D01*
X107295238Y-20052381D02*
X107628572Y-19576190D01*
X107866667Y-20052381D02*
X107866667Y-19052381D01*
X107485714Y-19052381D01*
X107390476Y-19100000D01*
X107342857Y-19147619D01*
X107295238Y-19242857D01*
X107295238Y-19385714D01*
X107342857Y-19480952D01*
X107390476Y-19528571D01*
X107485714Y-19576190D01*
X107866667Y-19576190D01*
X106342857Y-20052381D02*
X106914286Y-20052381D01*
X106628572Y-20052381D02*
X106628572Y-19052381D01*
X106723810Y-19195238D01*
X106819048Y-19290476D01*
X106914286Y-19338095D01*
X105723810Y-19052381D02*
X105628571Y-19052381D01*
X105533333Y-19100000D01*
X105485714Y-19147619D01*
X105438095Y-19242857D01*
X105390476Y-19433333D01*
X105390476Y-19671429D01*
X105438095Y-19861905D01*
X105485714Y-19957143D01*
X105533333Y-20004762D01*
X105628571Y-20052381D01*
X105723810Y-20052381D01*
X105819048Y-20004762D01*
X105866667Y-19957143D01*
X105914286Y-19861905D01*
X105961905Y-19671429D01*
X105961905Y-19433333D01*
X105914286Y-19242857D01*
X105866667Y-19147619D01*
X105819048Y-19100000D01*
X105723810Y-19052381D01*
X104438095Y-20052381D02*
X105009524Y-20052381D01*
X104723810Y-20052381D02*
X104723810Y-19052381D01*
X104819048Y-19195238D01*
X104914286Y-19290476D01*
X105009524Y-19338095D01*
X103485714Y-20052381D02*
X104057143Y-20052381D01*
X103771429Y-20052381D02*
X103771429Y-19052381D01*
X103866667Y-19195238D01*
X103961905Y-19290476D01*
X104057143Y-19338095D01*
X57397143Y-37684762D02*
X57444762Y-37637143D01*
X57492381Y-37494286D01*
X57492381Y-37399048D01*
X57444762Y-37256190D01*
X57349524Y-37160952D01*
X57254286Y-37113333D01*
X57063810Y-37065714D01*
X56920952Y-37065714D01*
X56730476Y-37113333D01*
X56635238Y-37160952D01*
X56540000Y-37256190D01*
X56492381Y-37399048D01*
X56492381Y-37494286D01*
X56540000Y-37637143D01*
X56587619Y-37684762D01*
X57492381Y-38637143D02*
X57492381Y-38065714D01*
X57492381Y-38351428D02*
X56492381Y-38351428D01*
X56635238Y-38256190D01*
X56730476Y-38160952D01*
X56778095Y-38065714D01*
X56920952Y-39208571D02*
X56873333Y-39113333D01*
X56825714Y-39065714D01*
X56730476Y-39018095D01*
X56682857Y-39018095D01*
X56587619Y-39065714D01*
X56540000Y-39113333D01*
X56492381Y-39208571D01*
X56492381Y-39399048D01*
X56540000Y-39494286D01*
X56587619Y-39541905D01*
X56682857Y-39589524D01*
X56730476Y-39589524D01*
X56825714Y-39541905D01*
X56873333Y-39494286D01*
X56920952Y-39399048D01*
X56920952Y-39208571D01*
X56968571Y-39113333D01*
X57016190Y-39065714D01*
X57111429Y-39018095D01*
X57301905Y-39018095D01*
X57397143Y-39065714D01*
X57444762Y-39113333D01*
X57492381Y-39208571D01*
X57492381Y-39399048D01*
X57444762Y-39494286D01*
X57397143Y-39541905D01*
X57301905Y-39589524D01*
X57111429Y-39589524D01*
X57016190Y-39541905D01*
X56968571Y-39494286D01*
X56920952Y-39399048D01*
X56492381Y-40208571D02*
X56492381Y-40303810D01*
X56540000Y-40399048D01*
X56587619Y-40446667D01*
X56682857Y-40494286D01*
X56873333Y-40541905D01*
X57111429Y-40541905D01*
X57301905Y-40494286D01*
X57397143Y-40446667D01*
X57444762Y-40399048D01*
X57492381Y-40303810D01*
X57492381Y-40208571D01*
X57444762Y-40113333D01*
X57397143Y-40065714D01*
X57301905Y-40018095D01*
X57111429Y-39970476D01*
X56873333Y-39970476D01*
X56682857Y-40018095D01*
X56587619Y-40065714D01*
X56540000Y-40113333D01*
X56492381Y-40208571D01*
X56825714Y-41399048D02*
X57492381Y-41399048D01*
X56444762Y-41160952D02*
X57159048Y-40922857D01*
X57159048Y-41541905D01*
X57317143Y-31114762D02*
X57364762Y-31067143D01*
X57412381Y-30924286D01*
X57412381Y-30829048D01*
X57364762Y-30686190D01*
X57269524Y-30590952D01*
X57174286Y-30543333D01*
X56983810Y-30495714D01*
X56840952Y-30495714D01*
X56650476Y-30543333D01*
X56555238Y-30590952D01*
X56460000Y-30686190D01*
X56412381Y-30829048D01*
X56412381Y-30924286D01*
X56460000Y-31067143D01*
X56507619Y-31114762D01*
X57412381Y-32067143D02*
X57412381Y-31495714D01*
X57412381Y-31781428D02*
X56412381Y-31781428D01*
X56555238Y-31686190D01*
X56650476Y-31590952D01*
X56698095Y-31495714D01*
X56412381Y-32400476D02*
X56412381Y-33067143D01*
X57412381Y-32638571D01*
X57412381Y-33971905D02*
X57412381Y-33400476D01*
X57412381Y-33686190D02*
X56412381Y-33686190D01*
X56555238Y-33590952D01*
X56650476Y-33495714D01*
X56698095Y-33400476D01*
X57412381Y-34924286D02*
X57412381Y-34352857D01*
X57412381Y-34638571D02*
X56412381Y-34638571D01*
X56555238Y-34543333D01*
X56650476Y-34448095D01*
X56698095Y-34352857D01*
X57357143Y-24544762D02*
X57404762Y-24497143D01*
X57452381Y-24354286D01*
X57452381Y-24259048D01*
X57404762Y-24116190D01*
X57309524Y-24020952D01*
X57214286Y-23973333D01*
X57023810Y-23925714D01*
X56880952Y-23925714D01*
X56690476Y-23973333D01*
X56595238Y-24020952D01*
X56500000Y-24116190D01*
X56452381Y-24259048D01*
X56452381Y-24354286D01*
X56500000Y-24497143D01*
X56547619Y-24544762D01*
X57452381Y-25497143D02*
X57452381Y-24925714D01*
X57452381Y-25211428D02*
X56452381Y-25211428D01*
X56595238Y-25116190D01*
X56690476Y-25020952D01*
X56738095Y-24925714D01*
X56452381Y-26354286D02*
X56452381Y-26163809D01*
X56500000Y-26068571D01*
X56547619Y-26020952D01*
X56690476Y-25925714D01*
X56880952Y-25878095D01*
X57261905Y-25878095D01*
X57357143Y-25925714D01*
X57404762Y-25973333D01*
X57452381Y-26068571D01*
X57452381Y-26259048D01*
X57404762Y-26354286D01*
X57357143Y-26401905D01*
X57261905Y-26449524D01*
X57023810Y-26449524D01*
X56928571Y-26401905D01*
X56880952Y-26354286D01*
X56833333Y-26259048D01*
X56833333Y-26068571D01*
X56880952Y-25973333D01*
X56928571Y-25925714D01*
X57023810Y-25878095D01*
X56452381Y-27068571D02*
X56452381Y-27163810D01*
X56500000Y-27259048D01*
X56547619Y-27306667D01*
X56642857Y-27354286D01*
X56833333Y-27401905D01*
X57071429Y-27401905D01*
X57261905Y-27354286D01*
X57357143Y-27306667D01*
X57404762Y-27259048D01*
X57452381Y-27163810D01*
X57452381Y-27068571D01*
X57404762Y-26973333D01*
X57357143Y-26925714D01*
X57261905Y-26878095D01*
X57071429Y-26830476D01*
X56833333Y-26830476D01*
X56642857Y-26878095D01*
X56547619Y-26925714D01*
X56500000Y-26973333D01*
X56452381Y-27068571D01*
X56785714Y-28259048D02*
X57452381Y-28259048D01*
X56404762Y-28020952D02*
X57119048Y-27782857D01*
X57119048Y-28401905D01*
X57397143Y-17934762D02*
X57444762Y-17887143D01*
X57492381Y-17744286D01*
X57492381Y-17649048D01*
X57444762Y-17506190D01*
X57349524Y-17410952D01*
X57254286Y-17363333D01*
X57063810Y-17315714D01*
X56920952Y-17315714D01*
X56730476Y-17363333D01*
X56635238Y-17410952D01*
X56540000Y-17506190D01*
X56492381Y-17649048D01*
X56492381Y-17744286D01*
X56540000Y-17887143D01*
X56587619Y-17934762D01*
X57492381Y-18887143D02*
X57492381Y-18315714D01*
X57492381Y-18601428D02*
X56492381Y-18601428D01*
X56635238Y-18506190D01*
X56730476Y-18410952D01*
X56778095Y-18315714D01*
X56492381Y-19791905D02*
X56492381Y-19315714D01*
X56968571Y-19268095D01*
X56920952Y-19315714D01*
X56873333Y-19410952D01*
X56873333Y-19649048D01*
X56920952Y-19744286D01*
X56968571Y-19791905D01*
X57063810Y-19839524D01*
X57301905Y-19839524D01*
X57397143Y-19791905D01*
X57444762Y-19744286D01*
X57492381Y-19649048D01*
X57492381Y-19410952D01*
X57444762Y-19315714D01*
X57397143Y-19268095D01*
X56587619Y-20220476D02*
X56540000Y-20268095D01*
X56492381Y-20363333D01*
X56492381Y-20601429D01*
X56540000Y-20696667D01*
X56587619Y-20744286D01*
X56682857Y-20791905D01*
X56778095Y-20791905D01*
X56920952Y-20744286D01*
X57492381Y-20172857D01*
X57492381Y-20791905D01*
X57492381Y-21744286D02*
X57492381Y-21172857D01*
X57492381Y-21458571D02*
X56492381Y-21458571D01*
X56635238Y-21363333D01*
X56730476Y-21268095D01*
X56778095Y-21172857D01*
X66025238Y-41837143D02*
X66072857Y-41884762D01*
X66215714Y-41932381D01*
X66310952Y-41932381D01*
X66453810Y-41884762D01*
X66549048Y-41789524D01*
X66596667Y-41694286D01*
X66644286Y-41503810D01*
X66644286Y-41360952D01*
X66596667Y-41170476D01*
X66549048Y-41075238D01*
X66453810Y-40980000D01*
X66310952Y-40932381D01*
X66215714Y-40932381D01*
X66072857Y-40980000D01*
X66025238Y-41027619D01*
X65072857Y-41932381D02*
X65644286Y-41932381D01*
X65358572Y-41932381D02*
X65358572Y-40932381D01*
X65453810Y-41075238D01*
X65549048Y-41170476D01*
X65644286Y-41218095D01*
X64501429Y-41360952D02*
X64596667Y-41313333D01*
X64644286Y-41265714D01*
X64691905Y-41170476D01*
X64691905Y-41122857D01*
X64644286Y-41027619D01*
X64596667Y-40980000D01*
X64501429Y-40932381D01*
X64310952Y-40932381D01*
X64215714Y-40980000D01*
X64168095Y-41027619D01*
X64120476Y-41122857D01*
X64120476Y-41170476D01*
X64168095Y-41265714D01*
X64215714Y-41313333D01*
X64310952Y-41360952D01*
X64501429Y-41360952D01*
X64596667Y-41408571D01*
X64644286Y-41456190D01*
X64691905Y-41551429D01*
X64691905Y-41741905D01*
X64644286Y-41837143D01*
X64596667Y-41884762D01*
X64501429Y-41932381D01*
X64310952Y-41932381D01*
X64215714Y-41884762D01*
X64168095Y-41837143D01*
X64120476Y-41741905D01*
X64120476Y-41551429D01*
X64168095Y-41456190D01*
X64215714Y-41408571D01*
X64310952Y-41360952D01*
X63501429Y-40932381D02*
X63406190Y-40932381D01*
X63310952Y-40980000D01*
X63263333Y-41027619D01*
X63215714Y-41122857D01*
X63168095Y-41313333D01*
X63168095Y-41551429D01*
X63215714Y-41741905D01*
X63263333Y-41837143D01*
X63310952Y-41884762D01*
X63406190Y-41932381D01*
X63501429Y-41932381D01*
X63596667Y-41884762D01*
X63644286Y-41837143D01*
X63691905Y-41741905D01*
X63739524Y-41551429D01*
X63739524Y-41313333D01*
X63691905Y-41122857D01*
X63644286Y-41027619D01*
X63596667Y-40980000D01*
X63501429Y-40932381D01*
X62834762Y-40932381D02*
X62215714Y-40932381D01*
X62549048Y-41313333D01*
X62406190Y-41313333D01*
X62310952Y-41360952D01*
X62263333Y-41408571D01*
X62215714Y-41503810D01*
X62215714Y-41741905D01*
X62263333Y-41837143D01*
X62310952Y-41884762D01*
X62406190Y-41932381D01*
X62691905Y-41932381D01*
X62787143Y-41884762D01*
X62834762Y-41837143D01*
X66025238Y-35237143D02*
X66072857Y-35284762D01*
X66215714Y-35332381D01*
X66310952Y-35332381D01*
X66453810Y-35284762D01*
X66549048Y-35189524D01*
X66596667Y-35094286D01*
X66644286Y-34903810D01*
X66644286Y-34760952D01*
X66596667Y-34570476D01*
X66549048Y-34475238D01*
X66453810Y-34380000D01*
X66310952Y-34332381D01*
X66215714Y-34332381D01*
X66072857Y-34380000D01*
X66025238Y-34427619D01*
X65072857Y-35332381D02*
X65644286Y-35332381D01*
X65358572Y-35332381D02*
X65358572Y-34332381D01*
X65453810Y-34475238D01*
X65549048Y-34570476D01*
X65644286Y-34618095D01*
X64739524Y-34332381D02*
X64072857Y-34332381D01*
X64501429Y-35332381D01*
X63168095Y-35332381D02*
X63739524Y-35332381D01*
X63453810Y-35332381D02*
X63453810Y-34332381D01*
X63549048Y-34475238D01*
X63644286Y-34570476D01*
X63739524Y-34618095D01*
X62549048Y-34332381D02*
X62453809Y-34332381D01*
X62358571Y-34380000D01*
X62310952Y-34427619D01*
X62263333Y-34522857D01*
X62215714Y-34713333D01*
X62215714Y-34951429D01*
X62263333Y-35141905D01*
X62310952Y-35237143D01*
X62358571Y-35284762D01*
X62453809Y-35332381D01*
X62549048Y-35332381D01*
X62644286Y-35284762D01*
X62691905Y-35237143D01*
X62739524Y-35141905D01*
X62787143Y-34951429D01*
X62787143Y-34713333D01*
X62739524Y-34522857D01*
X62691905Y-34427619D01*
X62644286Y-34380000D01*
X62549048Y-34332381D01*
X66025238Y-28637143D02*
X66072857Y-28684762D01*
X66215714Y-28732381D01*
X66310952Y-28732381D01*
X66453810Y-28684762D01*
X66549048Y-28589524D01*
X66596667Y-28494286D01*
X66644286Y-28303810D01*
X66644286Y-28160952D01*
X66596667Y-27970476D01*
X66549048Y-27875238D01*
X66453810Y-27780000D01*
X66310952Y-27732381D01*
X66215714Y-27732381D01*
X66072857Y-27780000D01*
X66025238Y-27827619D01*
X65072857Y-28732381D02*
X65644286Y-28732381D01*
X65358572Y-28732381D02*
X65358572Y-27732381D01*
X65453810Y-27875238D01*
X65549048Y-27970476D01*
X65644286Y-28018095D01*
X64215714Y-27732381D02*
X64406191Y-27732381D01*
X64501429Y-27780000D01*
X64549048Y-27827619D01*
X64644286Y-27970476D01*
X64691905Y-28160952D01*
X64691905Y-28541905D01*
X64644286Y-28637143D01*
X64596667Y-28684762D01*
X64501429Y-28732381D01*
X64310952Y-28732381D01*
X64215714Y-28684762D01*
X64168095Y-28637143D01*
X64120476Y-28541905D01*
X64120476Y-28303810D01*
X64168095Y-28208571D01*
X64215714Y-28160952D01*
X64310952Y-28113333D01*
X64501429Y-28113333D01*
X64596667Y-28160952D01*
X64644286Y-28208571D01*
X64691905Y-28303810D01*
X63501429Y-27732381D02*
X63406190Y-27732381D01*
X63310952Y-27780000D01*
X63263333Y-27827619D01*
X63215714Y-27922857D01*
X63168095Y-28113333D01*
X63168095Y-28351429D01*
X63215714Y-28541905D01*
X63263333Y-28637143D01*
X63310952Y-28684762D01*
X63406190Y-28732381D01*
X63501429Y-28732381D01*
X63596667Y-28684762D01*
X63644286Y-28637143D01*
X63691905Y-28541905D01*
X63739524Y-28351429D01*
X63739524Y-28113333D01*
X63691905Y-27922857D01*
X63644286Y-27827619D01*
X63596667Y-27780000D01*
X63501429Y-27732381D01*
X62834762Y-27732381D02*
X62215714Y-27732381D01*
X62549048Y-28113333D01*
X62406190Y-28113333D01*
X62310952Y-28160952D01*
X62263333Y-28208571D01*
X62215714Y-28303810D01*
X62215714Y-28541905D01*
X62263333Y-28637143D01*
X62310952Y-28684762D01*
X62406190Y-28732381D01*
X62691905Y-28732381D01*
X62787143Y-28684762D01*
X62834762Y-28637143D01*
X66025238Y-22037143D02*
X66072857Y-22084762D01*
X66215714Y-22132381D01*
X66310952Y-22132381D01*
X66453810Y-22084762D01*
X66549048Y-21989524D01*
X66596667Y-21894286D01*
X66644286Y-21703810D01*
X66644286Y-21560952D01*
X66596667Y-21370476D01*
X66549048Y-21275238D01*
X66453810Y-21180000D01*
X66310952Y-21132381D01*
X66215714Y-21132381D01*
X66072857Y-21180000D01*
X66025238Y-21227619D01*
X65072857Y-22132381D02*
X65644286Y-22132381D01*
X65358572Y-22132381D02*
X65358572Y-21132381D01*
X65453810Y-21275238D01*
X65549048Y-21370476D01*
X65644286Y-21418095D01*
X64168095Y-21132381D02*
X64644286Y-21132381D01*
X64691905Y-21608571D01*
X64644286Y-21560952D01*
X64549048Y-21513333D01*
X64310952Y-21513333D01*
X64215714Y-21560952D01*
X64168095Y-21608571D01*
X64120476Y-21703810D01*
X64120476Y-21941905D01*
X64168095Y-22037143D01*
X64215714Y-22084762D01*
X64310952Y-22132381D01*
X64549048Y-22132381D01*
X64644286Y-22084762D01*
X64691905Y-22037143D01*
X63739524Y-21227619D02*
X63691905Y-21180000D01*
X63596667Y-21132381D01*
X63358571Y-21132381D01*
X63263333Y-21180000D01*
X63215714Y-21227619D01*
X63168095Y-21322857D01*
X63168095Y-21418095D01*
X63215714Y-21560952D01*
X63787143Y-22132381D01*
X63168095Y-22132381D01*
X62549048Y-21132381D02*
X62453809Y-21132381D01*
X62358571Y-21180000D01*
X62310952Y-21227619D01*
X62263333Y-21322857D01*
X62215714Y-21513333D01*
X62215714Y-21751429D01*
X62263333Y-21941905D01*
X62310952Y-22037143D01*
X62358571Y-22084762D01*
X62453809Y-22132381D01*
X62549048Y-22132381D01*
X62644286Y-22084762D01*
X62691905Y-22037143D01*
X62739524Y-21941905D01*
X62787143Y-21751429D01*
X62787143Y-21513333D01*
X62739524Y-21322857D01*
X62691905Y-21227619D01*
X62644286Y-21180000D01*
X62549048Y-21132381D01*
X61467143Y-37144762D02*
X61514762Y-37097143D01*
X61562381Y-36954286D01*
X61562381Y-36859048D01*
X61514762Y-36716190D01*
X61419524Y-36620952D01*
X61324286Y-36573333D01*
X61133810Y-36525714D01*
X60990952Y-36525714D01*
X60800476Y-36573333D01*
X60705238Y-36620952D01*
X60610000Y-36716190D01*
X60562381Y-36859048D01*
X60562381Y-36954286D01*
X60610000Y-37097143D01*
X60657619Y-37144762D01*
X61562381Y-38097143D02*
X61562381Y-37525714D01*
X61562381Y-37811428D02*
X60562381Y-37811428D01*
X60705238Y-37716190D01*
X60800476Y-37620952D01*
X60848095Y-37525714D01*
X60990952Y-38668571D02*
X60943333Y-38573333D01*
X60895714Y-38525714D01*
X60800476Y-38478095D01*
X60752857Y-38478095D01*
X60657619Y-38525714D01*
X60610000Y-38573333D01*
X60562381Y-38668571D01*
X60562381Y-38859048D01*
X60610000Y-38954286D01*
X60657619Y-39001905D01*
X60752857Y-39049524D01*
X60800476Y-39049524D01*
X60895714Y-39001905D01*
X60943333Y-38954286D01*
X60990952Y-38859048D01*
X60990952Y-38668571D01*
X61038571Y-38573333D01*
X61086190Y-38525714D01*
X61181429Y-38478095D01*
X61371905Y-38478095D01*
X61467143Y-38525714D01*
X61514762Y-38573333D01*
X61562381Y-38668571D01*
X61562381Y-38859048D01*
X61514762Y-38954286D01*
X61467143Y-39001905D01*
X61371905Y-39049524D01*
X61181429Y-39049524D01*
X61086190Y-39001905D01*
X61038571Y-38954286D01*
X60990952Y-38859048D01*
X60562381Y-39668571D02*
X60562381Y-39763810D01*
X60610000Y-39859048D01*
X60657619Y-39906667D01*
X60752857Y-39954286D01*
X60943333Y-40001905D01*
X61181429Y-40001905D01*
X61371905Y-39954286D01*
X61467143Y-39906667D01*
X61514762Y-39859048D01*
X61562381Y-39763810D01*
X61562381Y-39668571D01*
X61514762Y-39573333D01*
X61467143Y-39525714D01*
X61371905Y-39478095D01*
X61181429Y-39430476D01*
X60943333Y-39430476D01*
X60752857Y-39478095D01*
X60657619Y-39525714D01*
X60610000Y-39573333D01*
X60562381Y-39668571D01*
X61562381Y-40954286D02*
X61562381Y-40382857D01*
X61562381Y-40668571D02*
X60562381Y-40668571D01*
X60705238Y-40573333D01*
X60800476Y-40478095D01*
X60848095Y-40382857D01*
X61467143Y-30544762D02*
X61514762Y-30497143D01*
X61562381Y-30354286D01*
X61562381Y-30259048D01*
X61514762Y-30116190D01*
X61419524Y-30020952D01*
X61324286Y-29973333D01*
X61133810Y-29925714D01*
X60990952Y-29925714D01*
X60800476Y-29973333D01*
X60705238Y-30020952D01*
X60610000Y-30116190D01*
X60562381Y-30259048D01*
X60562381Y-30354286D01*
X60610000Y-30497143D01*
X60657619Y-30544762D01*
X61562381Y-31497143D02*
X61562381Y-30925714D01*
X61562381Y-31211428D02*
X60562381Y-31211428D01*
X60705238Y-31116190D01*
X60800476Y-31020952D01*
X60848095Y-30925714D01*
X60562381Y-31830476D02*
X60562381Y-32497143D01*
X61562381Y-32068571D01*
X60562381Y-33068571D02*
X60562381Y-33163810D01*
X60610000Y-33259048D01*
X60657619Y-33306667D01*
X60752857Y-33354286D01*
X60943333Y-33401905D01*
X61181429Y-33401905D01*
X61371905Y-33354286D01*
X61467143Y-33306667D01*
X61514762Y-33259048D01*
X61562381Y-33163810D01*
X61562381Y-33068571D01*
X61514762Y-32973333D01*
X61467143Y-32925714D01*
X61371905Y-32878095D01*
X61181429Y-32830476D01*
X60943333Y-32830476D01*
X60752857Y-32878095D01*
X60657619Y-32925714D01*
X60610000Y-32973333D01*
X60562381Y-33068571D01*
X60990952Y-33973333D02*
X60943333Y-33878095D01*
X60895714Y-33830476D01*
X60800476Y-33782857D01*
X60752857Y-33782857D01*
X60657619Y-33830476D01*
X60610000Y-33878095D01*
X60562381Y-33973333D01*
X60562381Y-34163810D01*
X60610000Y-34259048D01*
X60657619Y-34306667D01*
X60752857Y-34354286D01*
X60800476Y-34354286D01*
X60895714Y-34306667D01*
X60943333Y-34259048D01*
X60990952Y-34163810D01*
X60990952Y-33973333D01*
X61038571Y-33878095D01*
X61086190Y-33830476D01*
X61181429Y-33782857D01*
X61371905Y-33782857D01*
X61467143Y-33830476D01*
X61514762Y-33878095D01*
X61562381Y-33973333D01*
X61562381Y-34163810D01*
X61514762Y-34259048D01*
X61467143Y-34306667D01*
X61371905Y-34354286D01*
X61181429Y-34354286D01*
X61086190Y-34306667D01*
X61038571Y-34259048D01*
X60990952Y-34163810D01*
X61467143Y-23944762D02*
X61514762Y-23897143D01*
X61562381Y-23754286D01*
X61562381Y-23659048D01*
X61514762Y-23516190D01*
X61419524Y-23420952D01*
X61324286Y-23373333D01*
X61133810Y-23325714D01*
X60990952Y-23325714D01*
X60800476Y-23373333D01*
X60705238Y-23420952D01*
X60610000Y-23516190D01*
X60562381Y-23659048D01*
X60562381Y-23754286D01*
X60610000Y-23897143D01*
X60657619Y-23944762D01*
X61562381Y-24897143D02*
X61562381Y-24325714D01*
X61562381Y-24611428D02*
X60562381Y-24611428D01*
X60705238Y-24516190D01*
X60800476Y-24420952D01*
X60848095Y-24325714D01*
X60562381Y-25754286D02*
X60562381Y-25563809D01*
X60610000Y-25468571D01*
X60657619Y-25420952D01*
X60800476Y-25325714D01*
X60990952Y-25278095D01*
X61371905Y-25278095D01*
X61467143Y-25325714D01*
X61514762Y-25373333D01*
X61562381Y-25468571D01*
X61562381Y-25659048D01*
X61514762Y-25754286D01*
X61467143Y-25801905D01*
X61371905Y-25849524D01*
X61133810Y-25849524D01*
X61038571Y-25801905D01*
X60990952Y-25754286D01*
X60943333Y-25659048D01*
X60943333Y-25468571D01*
X60990952Y-25373333D01*
X61038571Y-25325714D01*
X61133810Y-25278095D01*
X60562381Y-26468571D02*
X60562381Y-26563810D01*
X60610000Y-26659048D01*
X60657619Y-26706667D01*
X60752857Y-26754286D01*
X60943333Y-26801905D01*
X61181429Y-26801905D01*
X61371905Y-26754286D01*
X61467143Y-26706667D01*
X61514762Y-26659048D01*
X61562381Y-26563810D01*
X61562381Y-26468571D01*
X61514762Y-26373333D01*
X61467143Y-26325714D01*
X61371905Y-26278095D01*
X61181429Y-26230476D01*
X60943333Y-26230476D01*
X60752857Y-26278095D01*
X60657619Y-26325714D01*
X60610000Y-26373333D01*
X60562381Y-26468571D01*
X61562381Y-27754286D02*
X61562381Y-27182857D01*
X61562381Y-27468571D02*
X60562381Y-27468571D01*
X60705238Y-27373333D01*
X60800476Y-27278095D01*
X60848095Y-27182857D01*
X61467143Y-17344762D02*
X61514762Y-17297143D01*
X61562381Y-17154286D01*
X61562381Y-17059048D01*
X61514762Y-16916190D01*
X61419524Y-16820952D01*
X61324286Y-16773333D01*
X61133810Y-16725714D01*
X60990952Y-16725714D01*
X60800476Y-16773333D01*
X60705238Y-16820952D01*
X60610000Y-16916190D01*
X60562381Y-17059048D01*
X60562381Y-17154286D01*
X60610000Y-17297143D01*
X60657619Y-17344762D01*
X61562381Y-18297143D02*
X61562381Y-17725714D01*
X61562381Y-18011428D02*
X60562381Y-18011428D01*
X60705238Y-17916190D01*
X60800476Y-17820952D01*
X60848095Y-17725714D01*
X60562381Y-19201905D02*
X60562381Y-18725714D01*
X61038571Y-18678095D01*
X60990952Y-18725714D01*
X60943333Y-18820952D01*
X60943333Y-19059048D01*
X60990952Y-19154286D01*
X61038571Y-19201905D01*
X61133810Y-19249524D01*
X61371905Y-19249524D01*
X61467143Y-19201905D01*
X61514762Y-19154286D01*
X61562381Y-19059048D01*
X61562381Y-18820952D01*
X61514762Y-18725714D01*
X61467143Y-18678095D01*
X61562381Y-20201905D02*
X61562381Y-19630476D01*
X61562381Y-19916190D02*
X60562381Y-19916190D01*
X60705238Y-19820952D01*
X60800476Y-19725714D01*
X60848095Y-19630476D01*
X60990952Y-20773333D02*
X60943333Y-20678095D01*
X60895714Y-20630476D01*
X60800476Y-20582857D01*
X60752857Y-20582857D01*
X60657619Y-20630476D01*
X60610000Y-20678095D01*
X60562381Y-20773333D01*
X60562381Y-20963810D01*
X60610000Y-21059048D01*
X60657619Y-21106667D01*
X60752857Y-21154286D01*
X60800476Y-21154286D01*
X60895714Y-21106667D01*
X60943333Y-21059048D01*
X60990952Y-20963810D01*
X60990952Y-20773333D01*
X61038571Y-20678095D01*
X61086190Y-20630476D01*
X61181429Y-20582857D01*
X61371905Y-20582857D01*
X61467143Y-20630476D01*
X61514762Y-20678095D01*
X61562381Y-20773333D01*
X61562381Y-20963810D01*
X61514762Y-21059048D01*
X61467143Y-21106667D01*
X61371905Y-21154286D01*
X61181429Y-21154286D01*
X61086190Y-21106667D01*
X61038571Y-21059048D01*
X60990952Y-20963810D01*
X80835238Y-37512381D02*
X81168572Y-37036190D01*
X81406667Y-37512381D02*
X81406667Y-36512381D01*
X81025714Y-36512381D01*
X80930476Y-36560000D01*
X80882857Y-36607619D01*
X80835238Y-36702857D01*
X80835238Y-36845714D01*
X80882857Y-36940952D01*
X80930476Y-36988571D01*
X81025714Y-37036190D01*
X81406667Y-37036190D01*
X79882857Y-37512381D02*
X80454286Y-37512381D01*
X80168572Y-37512381D02*
X80168572Y-36512381D01*
X80263810Y-36655238D01*
X80359048Y-36750476D01*
X80454286Y-36798095D01*
X79311429Y-36940952D02*
X79406667Y-36893333D01*
X79454286Y-36845714D01*
X79501905Y-36750476D01*
X79501905Y-36702857D01*
X79454286Y-36607619D01*
X79406667Y-36560000D01*
X79311429Y-36512381D01*
X79120952Y-36512381D01*
X79025714Y-36560000D01*
X78978095Y-36607619D01*
X78930476Y-36702857D01*
X78930476Y-36750476D01*
X78978095Y-36845714D01*
X79025714Y-36893333D01*
X79120952Y-36940952D01*
X79311429Y-36940952D01*
X79406667Y-36988571D01*
X79454286Y-37036190D01*
X79501905Y-37131429D01*
X79501905Y-37321905D01*
X79454286Y-37417143D01*
X79406667Y-37464762D01*
X79311429Y-37512381D01*
X79120952Y-37512381D01*
X79025714Y-37464762D01*
X78978095Y-37417143D01*
X78930476Y-37321905D01*
X78930476Y-37131429D01*
X78978095Y-37036190D01*
X79025714Y-36988571D01*
X79120952Y-36940952D01*
X78311429Y-36512381D02*
X78216190Y-36512381D01*
X78120952Y-36560000D01*
X78073333Y-36607619D01*
X78025714Y-36702857D01*
X77978095Y-36893333D01*
X77978095Y-37131429D01*
X78025714Y-37321905D01*
X78073333Y-37417143D01*
X78120952Y-37464762D01*
X78216190Y-37512381D01*
X78311429Y-37512381D01*
X78406667Y-37464762D01*
X78454286Y-37417143D01*
X78501905Y-37321905D01*
X78549524Y-37131429D01*
X78549524Y-36893333D01*
X78501905Y-36702857D01*
X78454286Y-36607619D01*
X78406667Y-36560000D01*
X78311429Y-36512381D01*
X77597143Y-36607619D02*
X77549524Y-36560000D01*
X77454286Y-36512381D01*
X77216190Y-36512381D01*
X77120952Y-36560000D01*
X77073333Y-36607619D01*
X77025714Y-36702857D01*
X77025714Y-36798095D01*
X77073333Y-36940952D01*
X77644762Y-37512381D01*
X77025714Y-37512381D01*
X80835238Y-30912381D02*
X81168572Y-30436190D01*
X81406667Y-30912381D02*
X81406667Y-29912381D01*
X81025714Y-29912381D01*
X80930476Y-29960000D01*
X80882857Y-30007619D01*
X80835238Y-30102857D01*
X80835238Y-30245714D01*
X80882857Y-30340952D01*
X80930476Y-30388571D01*
X81025714Y-30436190D01*
X81406667Y-30436190D01*
X79882857Y-30912381D02*
X80454286Y-30912381D01*
X80168572Y-30912381D02*
X80168572Y-29912381D01*
X80263810Y-30055238D01*
X80359048Y-30150476D01*
X80454286Y-30198095D01*
X79549524Y-29912381D02*
X78882857Y-29912381D01*
X79311429Y-30912381D01*
X78311429Y-29912381D02*
X78216190Y-29912381D01*
X78120952Y-29960000D01*
X78073333Y-30007619D01*
X78025714Y-30102857D01*
X77978095Y-30293333D01*
X77978095Y-30531429D01*
X78025714Y-30721905D01*
X78073333Y-30817143D01*
X78120952Y-30864762D01*
X78216190Y-30912381D01*
X78311429Y-30912381D01*
X78406667Y-30864762D01*
X78454286Y-30817143D01*
X78501905Y-30721905D01*
X78549524Y-30531429D01*
X78549524Y-30293333D01*
X78501905Y-30102857D01*
X78454286Y-30007619D01*
X78406667Y-29960000D01*
X78311429Y-29912381D01*
X77120952Y-30245714D02*
X77120952Y-30912381D01*
X77359048Y-29864762D02*
X77597143Y-30579048D01*
X76978095Y-30579048D01*
X80835238Y-24312381D02*
X81168572Y-23836190D01*
X81406667Y-24312381D02*
X81406667Y-23312381D01*
X81025714Y-23312381D01*
X80930476Y-23360000D01*
X80882857Y-23407619D01*
X80835238Y-23502857D01*
X80835238Y-23645714D01*
X80882857Y-23740952D01*
X80930476Y-23788571D01*
X81025714Y-23836190D01*
X81406667Y-23836190D01*
X79882857Y-24312381D02*
X80454286Y-24312381D01*
X80168572Y-24312381D02*
X80168572Y-23312381D01*
X80263810Y-23455238D01*
X80359048Y-23550476D01*
X80454286Y-23598095D01*
X79025714Y-23312381D02*
X79216191Y-23312381D01*
X79311429Y-23360000D01*
X79359048Y-23407619D01*
X79454286Y-23550476D01*
X79501905Y-23740952D01*
X79501905Y-24121905D01*
X79454286Y-24217143D01*
X79406667Y-24264762D01*
X79311429Y-24312381D01*
X79120952Y-24312381D01*
X79025714Y-24264762D01*
X78978095Y-24217143D01*
X78930476Y-24121905D01*
X78930476Y-23883810D01*
X78978095Y-23788571D01*
X79025714Y-23740952D01*
X79120952Y-23693333D01*
X79311429Y-23693333D01*
X79406667Y-23740952D01*
X79454286Y-23788571D01*
X79501905Y-23883810D01*
X78311429Y-23312381D02*
X78216190Y-23312381D01*
X78120952Y-23360000D01*
X78073333Y-23407619D01*
X78025714Y-23502857D01*
X77978095Y-23693333D01*
X77978095Y-23931429D01*
X78025714Y-24121905D01*
X78073333Y-24217143D01*
X78120952Y-24264762D01*
X78216190Y-24312381D01*
X78311429Y-24312381D01*
X78406667Y-24264762D01*
X78454286Y-24217143D01*
X78501905Y-24121905D01*
X78549524Y-23931429D01*
X78549524Y-23693333D01*
X78501905Y-23502857D01*
X78454286Y-23407619D01*
X78406667Y-23360000D01*
X78311429Y-23312381D01*
X77597143Y-23407619D02*
X77549524Y-23360000D01*
X77454286Y-23312381D01*
X77216190Y-23312381D01*
X77120952Y-23360000D01*
X77073333Y-23407619D01*
X77025714Y-23502857D01*
X77025714Y-23598095D01*
X77073333Y-23740952D01*
X77644762Y-24312381D01*
X77025714Y-24312381D01*
X80835238Y-17712381D02*
X81168572Y-17236190D01*
X81406667Y-17712381D02*
X81406667Y-16712381D01*
X81025714Y-16712381D01*
X80930476Y-16760000D01*
X80882857Y-16807619D01*
X80835238Y-16902857D01*
X80835238Y-17045714D01*
X80882857Y-17140952D01*
X80930476Y-17188571D01*
X81025714Y-17236190D01*
X81406667Y-17236190D01*
X79882857Y-17712381D02*
X80454286Y-17712381D01*
X80168572Y-17712381D02*
X80168572Y-16712381D01*
X80263810Y-16855238D01*
X80359048Y-16950476D01*
X80454286Y-16998095D01*
X78978095Y-16712381D02*
X79454286Y-16712381D01*
X79501905Y-17188571D01*
X79454286Y-17140952D01*
X79359048Y-17093333D01*
X79120952Y-17093333D01*
X79025714Y-17140952D01*
X78978095Y-17188571D01*
X78930476Y-17283810D01*
X78930476Y-17521905D01*
X78978095Y-17617143D01*
X79025714Y-17664762D01*
X79120952Y-17712381D01*
X79359048Y-17712381D01*
X79454286Y-17664762D01*
X79501905Y-17617143D01*
X77978095Y-17712381D02*
X78549524Y-17712381D01*
X78263810Y-17712381D02*
X78263810Y-16712381D01*
X78359048Y-16855238D01*
X78454286Y-16950476D01*
X78549524Y-16998095D01*
X77025714Y-17712381D02*
X77597143Y-17712381D01*
X77311429Y-17712381D02*
X77311429Y-16712381D01*
X77406667Y-16855238D01*
X77501905Y-16950476D01*
X77597143Y-16998095D01*
X80785238Y-38812381D02*
X81118572Y-38336190D01*
X81356667Y-38812381D02*
X81356667Y-37812381D01*
X80975714Y-37812381D01*
X80880476Y-37860000D01*
X80832857Y-37907619D01*
X80785238Y-38002857D01*
X80785238Y-38145714D01*
X80832857Y-38240952D01*
X80880476Y-38288571D01*
X80975714Y-38336190D01*
X81356667Y-38336190D01*
X79832857Y-38812381D02*
X80404286Y-38812381D01*
X80118572Y-38812381D02*
X80118572Y-37812381D01*
X80213810Y-37955238D01*
X80309048Y-38050476D01*
X80404286Y-38098095D01*
X79261429Y-38240952D02*
X79356667Y-38193333D01*
X79404286Y-38145714D01*
X79451905Y-38050476D01*
X79451905Y-38002857D01*
X79404286Y-37907619D01*
X79356667Y-37860000D01*
X79261429Y-37812381D01*
X79070952Y-37812381D01*
X78975714Y-37860000D01*
X78928095Y-37907619D01*
X78880476Y-38002857D01*
X78880476Y-38050476D01*
X78928095Y-38145714D01*
X78975714Y-38193333D01*
X79070952Y-38240952D01*
X79261429Y-38240952D01*
X79356667Y-38288571D01*
X79404286Y-38336190D01*
X79451905Y-38431429D01*
X79451905Y-38621905D01*
X79404286Y-38717143D01*
X79356667Y-38764762D01*
X79261429Y-38812381D01*
X79070952Y-38812381D01*
X78975714Y-38764762D01*
X78928095Y-38717143D01*
X78880476Y-38621905D01*
X78880476Y-38431429D01*
X78928095Y-38336190D01*
X78975714Y-38288571D01*
X79070952Y-38240952D01*
X78261429Y-37812381D02*
X78166190Y-37812381D01*
X78070952Y-37860000D01*
X78023333Y-37907619D01*
X77975714Y-38002857D01*
X77928095Y-38193333D01*
X77928095Y-38431429D01*
X77975714Y-38621905D01*
X78023333Y-38717143D01*
X78070952Y-38764762D01*
X78166190Y-38812381D01*
X78261429Y-38812381D01*
X78356667Y-38764762D01*
X78404286Y-38717143D01*
X78451905Y-38621905D01*
X78499524Y-38431429D01*
X78499524Y-38193333D01*
X78451905Y-38002857D01*
X78404286Y-37907619D01*
X78356667Y-37860000D01*
X78261429Y-37812381D01*
X76975714Y-38812381D02*
X77547143Y-38812381D01*
X77261429Y-38812381D02*
X77261429Y-37812381D01*
X77356667Y-37955238D01*
X77451905Y-38050476D01*
X77547143Y-38098095D01*
X80785238Y-32212381D02*
X81118572Y-31736190D01*
X81356667Y-32212381D02*
X81356667Y-31212381D01*
X80975714Y-31212381D01*
X80880476Y-31260000D01*
X80832857Y-31307619D01*
X80785238Y-31402857D01*
X80785238Y-31545714D01*
X80832857Y-31640952D01*
X80880476Y-31688571D01*
X80975714Y-31736190D01*
X81356667Y-31736190D01*
X79832857Y-32212381D02*
X80404286Y-32212381D01*
X80118572Y-32212381D02*
X80118572Y-31212381D01*
X80213810Y-31355238D01*
X80309048Y-31450476D01*
X80404286Y-31498095D01*
X79499524Y-31212381D02*
X78832857Y-31212381D01*
X79261429Y-32212381D01*
X78261429Y-31212381D02*
X78166190Y-31212381D01*
X78070952Y-31260000D01*
X78023333Y-31307619D01*
X77975714Y-31402857D01*
X77928095Y-31593333D01*
X77928095Y-31831429D01*
X77975714Y-32021905D01*
X78023333Y-32117143D01*
X78070952Y-32164762D01*
X78166190Y-32212381D01*
X78261429Y-32212381D01*
X78356667Y-32164762D01*
X78404286Y-32117143D01*
X78451905Y-32021905D01*
X78499524Y-31831429D01*
X78499524Y-31593333D01*
X78451905Y-31402857D01*
X78404286Y-31307619D01*
X78356667Y-31260000D01*
X78261429Y-31212381D01*
X77594762Y-31212381D02*
X76975714Y-31212381D01*
X77309048Y-31593333D01*
X77166190Y-31593333D01*
X77070952Y-31640952D01*
X77023333Y-31688571D01*
X76975714Y-31783810D01*
X76975714Y-32021905D01*
X77023333Y-32117143D01*
X77070952Y-32164762D01*
X77166190Y-32212381D01*
X77451905Y-32212381D01*
X77547143Y-32164762D01*
X77594762Y-32117143D01*
X80785238Y-25612381D02*
X81118572Y-25136190D01*
X81356667Y-25612381D02*
X81356667Y-24612381D01*
X80975714Y-24612381D01*
X80880476Y-24660000D01*
X80832857Y-24707619D01*
X80785238Y-24802857D01*
X80785238Y-24945714D01*
X80832857Y-25040952D01*
X80880476Y-25088571D01*
X80975714Y-25136190D01*
X81356667Y-25136190D01*
X79832857Y-25612381D02*
X80404286Y-25612381D01*
X80118572Y-25612381D02*
X80118572Y-24612381D01*
X80213810Y-24755238D01*
X80309048Y-24850476D01*
X80404286Y-24898095D01*
X78975714Y-24612381D02*
X79166191Y-24612381D01*
X79261429Y-24660000D01*
X79309048Y-24707619D01*
X79404286Y-24850476D01*
X79451905Y-25040952D01*
X79451905Y-25421905D01*
X79404286Y-25517143D01*
X79356667Y-25564762D01*
X79261429Y-25612381D01*
X79070952Y-25612381D01*
X78975714Y-25564762D01*
X78928095Y-25517143D01*
X78880476Y-25421905D01*
X78880476Y-25183810D01*
X78928095Y-25088571D01*
X78975714Y-25040952D01*
X79070952Y-24993333D01*
X79261429Y-24993333D01*
X79356667Y-25040952D01*
X79404286Y-25088571D01*
X79451905Y-25183810D01*
X78261429Y-24612381D02*
X78166190Y-24612381D01*
X78070952Y-24660000D01*
X78023333Y-24707619D01*
X77975714Y-24802857D01*
X77928095Y-24993333D01*
X77928095Y-25231429D01*
X77975714Y-25421905D01*
X78023333Y-25517143D01*
X78070952Y-25564762D01*
X78166190Y-25612381D01*
X78261429Y-25612381D01*
X78356667Y-25564762D01*
X78404286Y-25517143D01*
X78451905Y-25421905D01*
X78499524Y-25231429D01*
X78499524Y-24993333D01*
X78451905Y-24802857D01*
X78404286Y-24707619D01*
X78356667Y-24660000D01*
X78261429Y-24612381D01*
X76975714Y-25612381D02*
X77547143Y-25612381D01*
X77261429Y-25612381D02*
X77261429Y-24612381D01*
X77356667Y-24755238D01*
X77451905Y-24850476D01*
X77547143Y-24898095D01*
X80785238Y-19012381D02*
X81118572Y-18536190D01*
X81356667Y-19012381D02*
X81356667Y-18012381D01*
X80975714Y-18012381D01*
X80880476Y-18060000D01*
X80832857Y-18107619D01*
X80785238Y-18202857D01*
X80785238Y-18345714D01*
X80832857Y-18440952D01*
X80880476Y-18488571D01*
X80975714Y-18536190D01*
X81356667Y-18536190D01*
X79832857Y-19012381D02*
X80404286Y-19012381D01*
X80118572Y-19012381D02*
X80118572Y-18012381D01*
X80213810Y-18155238D01*
X80309048Y-18250476D01*
X80404286Y-18298095D01*
X78928095Y-18012381D02*
X79404286Y-18012381D01*
X79451905Y-18488571D01*
X79404286Y-18440952D01*
X79309048Y-18393333D01*
X79070952Y-18393333D01*
X78975714Y-18440952D01*
X78928095Y-18488571D01*
X78880476Y-18583810D01*
X78880476Y-18821905D01*
X78928095Y-18917143D01*
X78975714Y-18964762D01*
X79070952Y-19012381D01*
X79309048Y-19012381D01*
X79404286Y-18964762D01*
X79451905Y-18917143D01*
X77928095Y-19012381D02*
X78499524Y-19012381D01*
X78213810Y-19012381D02*
X78213810Y-18012381D01*
X78309048Y-18155238D01*
X78404286Y-18250476D01*
X78499524Y-18298095D01*
X77309048Y-18012381D02*
X77213809Y-18012381D01*
X77118571Y-18060000D01*
X77070952Y-18107619D01*
X77023333Y-18202857D01*
X76975714Y-18393333D01*
X76975714Y-18631429D01*
X77023333Y-18821905D01*
X77070952Y-18917143D01*
X77118571Y-18964762D01*
X77213809Y-19012381D01*
X77309048Y-19012381D01*
X77404286Y-18964762D01*
X77451905Y-18917143D01*
X77499524Y-18821905D01*
X77547143Y-18631429D01*
X77547143Y-18393333D01*
X77499524Y-18202857D01*
X77451905Y-18107619D01*
X77404286Y-18060000D01*
X77309048Y-18012381D01*
X76025238Y-43042381D02*
X76358572Y-42566190D01*
X76596667Y-43042381D02*
X76596667Y-42042381D01*
X76215714Y-42042381D01*
X76120476Y-42090000D01*
X76072857Y-42137619D01*
X76025238Y-42232857D01*
X76025238Y-42375714D01*
X76072857Y-42470952D01*
X76120476Y-42518571D01*
X76215714Y-42566190D01*
X76596667Y-42566190D01*
X75072857Y-43042381D02*
X75644286Y-43042381D01*
X75358572Y-43042381D02*
X75358572Y-42042381D01*
X75453810Y-42185238D01*
X75549048Y-42280476D01*
X75644286Y-42328095D01*
X74501429Y-42470952D02*
X74596667Y-42423333D01*
X74644286Y-42375714D01*
X74691905Y-42280476D01*
X74691905Y-42232857D01*
X74644286Y-42137619D01*
X74596667Y-42090000D01*
X74501429Y-42042381D01*
X74310952Y-42042381D01*
X74215714Y-42090000D01*
X74168095Y-42137619D01*
X74120476Y-42232857D01*
X74120476Y-42280476D01*
X74168095Y-42375714D01*
X74215714Y-42423333D01*
X74310952Y-42470952D01*
X74501429Y-42470952D01*
X74596667Y-42518571D01*
X74644286Y-42566190D01*
X74691905Y-42661429D01*
X74691905Y-42851905D01*
X74644286Y-42947143D01*
X74596667Y-42994762D01*
X74501429Y-43042381D01*
X74310952Y-43042381D01*
X74215714Y-42994762D01*
X74168095Y-42947143D01*
X74120476Y-42851905D01*
X74120476Y-42661429D01*
X74168095Y-42566190D01*
X74215714Y-42518571D01*
X74310952Y-42470952D01*
X73501429Y-42042381D02*
X73406190Y-42042381D01*
X73310952Y-42090000D01*
X73263333Y-42137619D01*
X73215714Y-42232857D01*
X73168095Y-42423333D01*
X73168095Y-42661429D01*
X73215714Y-42851905D01*
X73263333Y-42947143D01*
X73310952Y-42994762D01*
X73406190Y-43042381D01*
X73501429Y-43042381D01*
X73596667Y-42994762D01*
X73644286Y-42947143D01*
X73691905Y-42851905D01*
X73739524Y-42661429D01*
X73739524Y-42423333D01*
X73691905Y-42232857D01*
X73644286Y-42137619D01*
X73596667Y-42090000D01*
X73501429Y-42042381D01*
X72834762Y-42042381D02*
X72215714Y-42042381D01*
X72549048Y-42423333D01*
X72406190Y-42423333D01*
X72310952Y-42470952D01*
X72263333Y-42518571D01*
X72215714Y-42613810D01*
X72215714Y-42851905D01*
X72263333Y-42947143D01*
X72310952Y-42994762D01*
X72406190Y-43042381D01*
X72691905Y-43042381D01*
X72787143Y-42994762D01*
X72834762Y-42947143D01*
X76025238Y-36442381D02*
X76358572Y-35966190D01*
X76596667Y-36442381D02*
X76596667Y-35442381D01*
X76215714Y-35442381D01*
X76120476Y-35490000D01*
X76072857Y-35537619D01*
X76025238Y-35632857D01*
X76025238Y-35775714D01*
X76072857Y-35870952D01*
X76120476Y-35918571D01*
X76215714Y-35966190D01*
X76596667Y-35966190D01*
X75072857Y-36442381D02*
X75644286Y-36442381D01*
X75358572Y-36442381D02*
X75358572Y-35442381D01*
X75453810Y-35585238D01*
X75549048Y-35680476D01*
X75644286Y-35728095D01*
X74739524Y-35442381D02*
X74072857Y-35442381D01*
X74501429Y-36442381D01*
X73501429Y-35442381D02*
X73406190Y-35442381D01*
X73310952Y-35490000D01*
X73263333Y-35537619D01*
X73215714Y-35632857D01*
X73168095Y-35823333D01*
X73168095Y-36061429D01*
X73215714Y-36251905D01*
X73263333Y-36347143D01*
X73310952Y-36394762D01*
X73406190Y-36442381D01*
X73501429Y-36442381D01*
X73596667Y-36394762D01*
X73644286Y-36347143D01*
X73691905Y-36251905D01*
X73739524Y-36061429D01*
X73739524Y-35823333D01*
X73691905Y-35632857D01*
X73644286Y-35537619D01*
X73596667Y-35490000D01*
X73501429Y-35442381D01*
X72263333Y-35442381D02*
X72739524Y-35442381D01*
X72787143Y-35918571D01*
X72739524Y-35870952D01*
X72644286Y-35823333D01*
X72406190Y-35823333D01*
X72310952Y-35870952D01*
X72263333Y-35918571D01*
X72215714Y-36013810D01*
X72215714Y-36251905D01*
X72263333Y-36347143D01*
X72310952Y-36394762D01*
X72406190Y-36442381D01*
X72644286Y-36442381D01*
X72739524Y-36394762D01*
X72787143Y-36347143D01*
X76025238Y-29842381D02*
X76358572Y-29366190D01*
X76596667Y-29842381D02*
X76596667Y-28842381D01*
X76215714Y-28842381D01*
X76120476Y-28890000D01*
X76072857Y-28937619D01*
X76025238Y-29032857D01*
X76025238Y-29175714D01*
X76072857Y-29270952D01*
X76120476Y-29318571D01*
X76215714Y-29366190D01*
X76596667Y-29366190D01*
X75072857Y-29842381D02*
X75644286Y-29842381D01*
X75358572Y-29842381D02*
X75358572Y-28842381D01*
X75453810Y-28985238D01*
X75549048Y-29080476D01*
X75644286Y-29128095D01*
X74215714Y-28842381D02*
X74406191Y-28842381D01*
X74501429Y-28890000D01*
X74549048Y-28937619D01*
X74644286Y-29080476D01*
X74691905Y-29270952D01*
X74691905Y-29651905D01*
X74644286Y-29747143D01*
X74596667Y-29794762D01*
X74501429Y-29842381D01*
X74310952Y-29842381D01*
X74215714Y-29794762D01*
X74168095Y-29747143D01*
X74120476Y-29651905D01*
X74120476Y-29413810D01*
X74168095Y-29318571D01*
X74215714Y-29270952D01*
X74310952Y-29223333D01*
X74501429Y-29223333D01*
X74596667Y-29270952D01*
X74644286Y-29318571D01*
X74691905Y-29413810D01*
X73501429Y-28842381D02*
X73406190Y-28842381D01*
X73310952Y-28890000D01*
X73263333Y-28937619D01*
X73215714Y-29032857D01*
X73168095Y-29223333D01*
X73168095Y-29461429D01*
X73215714Y-29651905D01*
X73263333Y-29747143D01*
X73310952Y-29794762D01*
X73406190Y-29842381D01*
X73501429Y-29842381D01*
X73596667Y-29794762D01*
X73644286Y-29747143D01*
X73691905Y-29651905D01*
X73739524Y-29461429D01*
X73739524Y-29223333D01*
X73691905Y-29032857D01*
X73644286Y-28937619D01*
X73596667Y-28890000D01*
X73501429Y-28842381D01*
X72834762Y-28842381D02*
X72215714Y-28842381D01*
X72549048Y-29223333D01*
X72406190Y-29223333D01*
X72310952Y-29270952D01*
X72263333Y-29318571D01*
X72215714Y-29413810D01*
X72215714Y-29651905D01*
X72263333Y-29747143D01*
X72310952Y-29794762D01*
X72406190Y-29842381D01*
X72691905Y-29842381D01*
X72787143Y-29794762D01*
X72834762Y-29747143D01*
X76025238Y-23242381D02*
X76358572Y-22766190D01*
X76596667Y-23242381D02*
X76596667Y-22242381D01*
X76215714Y-22242381D01*
X76120476Y-22290000D01*
X76072857Y-22337619D01*
X76025238Y-22432857D01*
X76025238Y-22575714D01*
X76072857Y-22670952D01*
X76120476Y-22718571D01*
X76215714Y-22766190D01*
X76596667Y-22766190D01*
X75072857Y-23242381D02*
X75644286Y-23242381D01*
X75358572Y-23242381D02*
X75358572Y-22242381D01*
X75453810Y-22385238D01*
X75549048Y-22480476D01*
X75644286Y-22528095D01*
X74168095Y-22242381D02*
X74644286Y-22242381D01*
X74691905Y-22718571D01*
X74644286Y-22670952D01*
X74549048Y-22623333D01*
X74310952Y-22623333D01*
X74215714Y-22670952D01*
X74168095Y-22718571D01*
X74120476Y-22813810D01*
X74120476Y-23051905D01*
X74168095Y-23147143D01*
X74215714Y-23194762D01*
X74310952Y-23242381D01*
X74549048Y-23242381D01*
X74644286Y-23194762D01*
X74691905Y-23147143D01*
X73168095Y-23242381D02*
X73739524Y-23242381D01*
X73453810Y-23242381D02*
X73453810Y-22242381D01*
X73549048Y-22385238D01*
X73644286Y-22480476D01*
X73739524Y-22528095D01*
X72787143Y-22337619D02*
X72739524Y-22290000D01*
X72644286Y-22242381D01*
X72406190Y-22242381D01*
X72310952Y-22290000D01*
X72263333Y-22337619D01*
X72215714Y-22432857D01*
X72215714Y-22528095D01*
X72263333Y-22670952D01*
X72834762Y-23242381D01*
X72215714Y-23242381D01*
X76025238Y-16642381D02*
X76358572Y-16166190D01*
X76596667Y-16642381D02*
X76596667Y-15642381D01*
X76215714Y-15642381D01*
X76120476Y-15690000D01*
X76072857Y-15737619D01*
X76025238Y-15832857D01*
X76025238Y-15975714D01*
X76072857Y-16070952D01*
X76120476Y-16118571D01*
X76215714Y-16166190D01*
X76596667Y-16166190D01*
X75072857Y-16642381D02*
X75644286Y-16642381D01*
X75358572Y-16642381D02*
X75358572Y-15642381D01*
X75453810Y-15785238D01*
X75549048Y-15880476D01*
X75644286Y-15928095D01*
X74215714Y-15975714D02*
X74215714Y-16642381D01*
X74453810Y-15594762D02*
X74691905Y-16309048D01*
X74072857Y-16309048D01*
X73501429Y-15642381D02*
X73406190Y-15642381D01*
X73310952Y-15690000D01*
X73263333Y-15737619D01*
X73215714Y-15832857D01*
X73168095Y-16023333D01*
X73168095Y-16261429D01*
X73215714Y-16451905D01*
X73263333Y-16547143D01*
X73310952Y-16594762D01*
X73406190Y-16642381D01*
X73501429Y-16642381D01*
X73596667Y-16594762D01*
X73644286Y-16547143D01*
X73691905Y-16451905D01*
X73739524Y-16261429D01*
X73739524Y-16023333D01*
X73691905Y-15832857D01*
X73644286Y-15737619D01*
X73596667Y-15690000D01*
X73501429Y-15642381D01*
X72834762Y-15642381D02*
X72215714Y-15642381D01*
X72549048Y-16023333D01*
X72406190Y-16023333D01*
X72310952Y-16070952D01*
X72263333Y-16118571D01*
X72215714Y-16213810D01*
X72215714Y-16451905D01*
X72263333Y-16547143D01*
X72310952Y-16594762D01*
X72406190Y-16642381D01*
X72691905Y-16642381D01*
X72787143Y-16594762D01*
X72834762Y-16547143D01*
X61467143Y-10744762D02*
X61514762Y-10697143D01*
X61562381Y-10554286D01*
X61562381Y-10459048D01*
X61514762Y-10316190D01*
X61419524Y-10220952D01*
X61324286Y-10173333D01*
X61133810Y-10125714D01*
X60990952Y-10125714D01*
X60800476Y-10173333D01*
X60705238Y-10220952D01*
X60610000Y-10316190D01*
X60562381Y-10459048D01*
X60562381Y-10554286D01*
X60610000Y-10697143D01*
X60657619Y-10744762D01*
X61562381Y-11697143D02*
X61562381Y-11125714D01*
X61562381Y-11411428D02*
X60562381Y-11411428D01*
X60705238Y-11316190D01*
X60800476Y-11220952D01*
X60848095Y-11125714D01*
X60895714Y-12554286D02*
X61562381Y-12554286D01*
X60514762Y-12316190D02*
X61229048Y-12078095D01*
X61229048Y-12697143D01*
X60562381Y-13268571D02*
X60562381Y-13363810D01*
X60610000Y-13459048D01*
X60657619Y-13506667D01*
X60752857Y-13554286D01*
X60943333Y-13601905D01*
X61181429Y-13601905D01*
X61371905Y-13554286D01*
X61467143Y-13506667D01*
X61514762Y-13459048D01*
X61562381Y-13363810D01*
X61562381Y-13268571D01*
X61514762Y-13173333D01*
X61467143Y-13125714D01*
X61371905Y-13078095D01*
X61181429Y-13030476D01*
X60943333Y-13030476D01*
X60752857Y-13078095D01*
X60657619Y-13125714D01*
X60610000Y-13173333D01*
X60562381Y-13268571D01*
X61562381Y-14554286D02*
X61562381Y-13982857D01*
X61562381Y-14268571D02*
X60562381Y-14268571D01*
X60705238Y-14173333D01*
X60800476Y-14078095D01*
X60848095Y-13982857D01*
X66025238Y-15437143D02*
X66072857Y-15484762D01*
X66215714Y-15532381D01*
X66310952Y-15532381D01*
X66453810Y-15484762D01*
X66549048Y-15389524D01*
X66596667Y-15294286D01*
X66644286Y-15103810D01*
X66644286Y-14960952D01*
X66596667Y-14770476D01*
X66549048Y-14675238D01*
X66453810Y-14580000D01*
X66310952Y-14532381D01*
X66215714Y-14532381D01*
X66072857Y-14580000D01*
X66025238Y-14627619D01*
X65072857Y-15532381D02*
X65644286Y-15532381D01*
X65358572Y-15532381D02*
X65358572Y-14532381D01*
X65453810Y-14675238D01*
X65549048Y-14770476D01*
X65644286Y-14818095D01*
X64215714Y-14865714D02*
X64215714Y-15532381D01*
X64453810Y-14484762D02*
X64691905Y-15199048D01*
X64072857Y-15199048D01*
X63501429Y-14532381D02*
X63406190Y-14532381D01*
X63310952Y-14580000D01*
X63263333Y-14627619D01*
X63215714Y-14722857D01*
X63168095Y-14913333D01*
X63168095Y-15151429D01*
X63215714Y-15341905D01*
X63263333Y-15437143D01*
X63310952Y-15484762D01*
X63406190Y-15532381D01*
X63501429Y-15532381D01*
X63596667Y-15484762D01*
X63644286Y-15437143D01*
X63691905Y-15341905D01*
X63739524Y-15151429D01*
X63739524Y-14913333D01*
X63691905Y-14722857D01*
X63644286Y-14627619D01*
X63596667Y-14580000D01*
X63501429Y-14532381D01*
X62834762Y-14532381D02*
X62215714Y-14532381D01*
X62549048Y-14913333D01*
X62406190Y-14913333D01*
X62310952Y-14960952D01*
X62263333Y-15008571D01*
X62215714Y-15103810D01*
X62215714Y-15341905D01*
X62263333Y-15437143D01*
X62310952Y-15484762D01*
X62406190Y-15532381D01*
X62691905Y-15532381D01*
X62787143Y-15484762D01*
X62834762Y-15437143D01*
X57317143Y-11284762D02*
X57364762Y-11237143D01*
X57412381Y-11094286D01*
X57412381Y-10999048D01*
X57364762Y-10856190D01*
X57269524Y-10760952D01*
X57174286Y-10713333D01*
X56983810Y-10665714D01*
X56840952Y-10665714D01*
X56650476Y-10713333D01*
X56555238Y-10760952D01*
X56460000Y-10856190D01*
X56412381Y-10999048D01*
X56412381Y-11094286D01*
X56460000Y-11237143D01*
X56507619Y-11284762D01*
X57412381Y-12237143D02*
X57412381Y-11665714D01*
X57412381Y-11951428D02*
X56412381Y-11951428D01*
X56555238Y-11856190D01*
X56650476Y-11760952D01*
X56698095Y-11665714D01*
X56745714Y-13094286D02*
X57412381Y-13094286D01*
X56364762Y-12856190D02*
X57079048Y-12618095D01*
X57079048Y-13237143D01*
X56412381Y-13808571D02*
X56412381Y-13903810D01*
X56460000Y-13999048D01*
X56507619Y-14046667D01*
X56602857Y-14094286D01*
X56793333Y-14141905D01*
X57031429Y-14141905D01*
X57221905Y-14094286D01*
X57317143Y-14046667D01*
X57364762Y-13999048D01*
X57412381Y-13903810D01*
X57412381Y-13808571D01*
X57364762Y-13713333D01*
X57317143Y-13665714D01*
X57221905Y-13618095D01*
X57031429Y-13570476D01*
X56793333Y-13570476D01*
X56602857Y-13618095D01*
X56507619Y-13665714D01*
X56460000Y-13713333D01*
X56412381Y-13808571D01*
X56745714Y-14999048D02*
X57412381Y-14999048D01*
X56364762Y-14760952D02*
X57079048Y-14522857D01*
X57079048Y-15141905D01*
X80785238Y-12412381D02*
X81118572Y-11936190D01*
X81356667Y-12412381D02*
X81356667Y-11412381D01*
X80975714Y-11412381D01*
X80880476Y-11460000D01*
X80832857Y-11507619D01*
X80785238Y-11602857D01*
X80785238Y-11745714D01*
X80832857Y-11840952D01*
X80880476Y-11888571D01*
X80975714Y-11936190D01*
X81356667Y-11936190D01*
X79832857Y-12412381D02*
X80404286Y-12412381D01*
X80118572Y-12412381D02*
X80118572Y-11412381D01*
X80213810Y-11555238D01*
X80309048Y-11650476D01*
X80404286Y-11698095D01*
X78975714Y-11745714D02*
X78975714Y-12412381D01*
X79213810Y-11364762D02*
X79451905Y-12079048D01*
X78832857Y-12079048D01*
X78261429Y-11412381D02*
X78166190Y-11412381D01*
X78070952Y-11460000D01*
X78023333Y-11507619D01*
X77975714Y-11602857D01*
X77928095Y-11793333D01*
X77928095Y-12031429D01*
X77975714Y-12221905D01*
X78023333Y-12317143D01*
X78070952Y-12364762D01*
X78166190Y-12412381D01*
X78261429Y-12412381D01*
X78356667Y-12364762D01*
X78404286Y-12317143D01*
X78451905Y-12221905D01*
X78499524Y-12031429D01*
X78499524Y-11793333D01*
X78451905Y-11602857D01*
X78404286Y-11507619D01*
X78356667Y-11460000D01*
X78261429Y-11412381D01*
X76975714Y-12412381D02*
X77547143Y-12412381D01*
X77261429Y-12412381D02*
X77261429Y-11412381D01*
X77356667Y-11555238D01*
X77451905Y-11650476D01*
X77547143Y-11698095D01*
X80835238Y-11112381D02*
X81168572Y-10636190D01*
X81406667Y-11112381D02*
X81406667Y-10112381D01*
X81025714Y-10112381D01*
X80930476Y-10160000D01*
X80882857Y-10207619D01*
X80835238Y-10302857D01*
X80835238Y-10445714D01*
X80882857Y-10540952D01*
X80930476Y-10588571D01*
X81025714Y-10636190D01*
X81406667Y-10636190D01*
X79882857Y-11112381D02*
X80454286Y-11112381D01*
X80168572Y-11112381D02*
X80168572Y-10112381D01*
X80263810Y-10255238D01*
X80359048Y-10350476D01*
X80454286Y-10398095D01*
X79025714Y-10445714D02*
X79025714Y-11112381D01*
X79263810Y-10064762D02*
X79501905Y-10779048D01*
X78882857Y-10779048D01*
X78311429Y-10112381D02*
X78216190Y-10112381D01*
X78120952Y-10160000D01*
X78073333Y-10207619D01*
X78025714Y-10302857D01*
X77978095Y-10493333D01*
X77978095Y-10731429D01*
X78025714Y-10921905D01*
X78073333Y-11017143D01*
X78120952Y-11064762D01*
X78216190Y-11112381D01*
X78311429Y-11112381D01*
X78406667Y-11064762D01*
X78454286Y-11017143D01*
X78501905Y-10921905D01*
X78549524Y-10731429D01*
X78549524Y-10493333D01*
X78501905Y-10302857D01*
X78454286Y-10207619D01*
X78406667Y-10160000D01*
X78311429Y-10112381D01*
X77597143Y-10207619D02*
X77549524Y-10160000D01*
X77454286Y-10112381D01*
X77216190Y-10112381D01*
X77120952Y-10160000D01*
X77073333Y-10207619D01*
X77025714Y-10302857D01*
X77025714Y-10398095D01*
X77073333Y-10540952D01*
X77644762Y-11112381D01*
X77025714Y-11112381D01*
X34694047Y-20457143D02*
X34741666Y-20504762D01*
X34884523Y-20552381D01*
X34979761Y-20552381D01*
X35122619Y-20504762D01*
X35217857Y-20409524D01*
X35265476Y-20314286D01*
X35313095Y-20123810D01*
X35313095Y-19980952D01*
X35265476Y-19790476D01*
X35217857Y-19695238D01*
X35122619Y-19600000D01*
X34979761Y-19552381D01*
X34884523Y-19552381D01*
X34741666Y-19600000D01*
X34694047Y-19647619D01*
X33836904Y-19885714D02*
X33836904Y-20552381D01*
X34075000Y-19504762D02*
X34313095Y-20219048D01*
X33694047Y-20219048D01*
X33122619Y-19552381D02*
X33027380Y-19552381D01*
X32932142Y-19600000D01*
X32884523Y-19647619D01*
X32836904Y-19742857D01*
X32789285Y-19933333D01*
X32789285Y-20171429D01*
X32836904Y-20361905D01*
X32884523Y-20457143D01*
X32932142Y-20504762D01*
X33027380Y-20552381D01*
X33122619Y-20552381D01*
X33217857Y-20504762D01*
X33265476Y-20457143D01*
X33313095Y-20361905D01*
X33360714Y-20171429D01*
X33360714Y-19933333D01*
X33313095Y-19742857D01*
X33265476Y-19647619D01*
X33217857Y-19600000D01*
X33122619Y-19552381D01*
X32408333Y-19647619D02*
X32360714Y-19600000D01*
X32265476Y-19552381D01*
X32027380Y-19552381D01*
X31932142Y-19600000D01*
X31884523Y-19647619D01*
X31836904Y-19742857D01*
X31836904Y-19838095D01*
X31884523Y-19980952D01*
X32455952Y-20552381D01*
X31836904Y-20552381D01*
X34519047Y-26432143D02*
X34566666Y-26479762D01*
X34709523Y-26527381D01*
X34804761Y-26527381D01*
X34947619Y-26479762D01*
X35042857Y-26384524D01*
X35090476Y-26289286D01*
X35138095Y-26098810D01*
X35138095Y-25955952D01*
X35090476Y-25765476D01*
X35042857Y-25670238D01*
X34947619Y-25575000D01*
X34804761Y-25527381D01*
X34709523Y-25527381D01*
X34566666Y-25575000D01*
X34519047Y-25622619D01*
X33661904Y-25860714D02*
X33661904Y-26527381D01*
X33900000Y-25479762D02*
X34138095Y-26194048D01*
X33519047Y-26194048D01*
X32947619Y-25527381D02*
X32852380Y-25527381D01*
X32757142Y-25575000D01*
X32709523Y-25622619D01*
X32661904Y-25717857D01*
X32614285Y-25908333D01*
X32614285Y-26146429D01*
X32661904Y-26336905D01*
X32709523Y-26432143D01*
X32757142Y-26479762D01*
X32852380Y-26527381D01*
X32947619Y-26527381D01*
X33042857Y-26479762D01*
X33090476Y-26432143D01*
X33138095Y-26336905D01*
X33185714Y-26146429D01*
X33185714Y-25908333D01*
X33138095Y-25717857D01*
X33090476Y-25622619D01*
X33042857Y-25575000D01*
X32947619Y-25527381D01*
X32280952Y-25527381D02*
X31661904Y-25527381D01*
X31995238Y-25908333D01*
X31852380Y-25908333D01*
X31757142Y-25955952D01*
X31709523Y-26003571D01*
X31661904Y-26098810D01*
X31661904Y-26336905D01*
X31709523Y-26432143D01*
X31757142Y-26479762D01*
X31852380Y-26527381D01*
X32138095Y-26527381D01*
X32233333Y-26479762D01*
X32280952Y-26432143D01*
X34644047Y-24482143D02*
X34691666Y-24529762D01*
X34834523Y-24577381D01*
X34929761Y-24577381D01*
X35072619Y-24529762D01*
X35167857Y-24434524D01*
X35215476Y-24339286D01*
X35263095Y-24148810D01*
X35263095Y-24005952D01*
X35215476Y-23815476D01*
X35167857Y-23720238D01*
X35072619Y-23625000D01*
X34929761Y-23577381D01*
X34834523Y-23577381D01*
X34691666Y-23625000D01*
X34644047Y-23672619D01*
X33786904Y-23910714D02*
X33786904Y-24577381D01*
X34025000Y-23529762D02*
X34263095Y-24244048D01*
X33644047Y-24244048D01*
X33072619Y-23577381D02*
X32977380Y-23577381D01*
X32882142Y-23625000D01*
X32834523Y-23672619D01*
X32786904Y-23767857D01*
X32739285Y-23958333D01*
X32739285Y-24196429D01*
X32786904Y-24386905D01*
X32834523Y-24482143D01*
X32882142Y-24529762D01*
X32977380Y-24577381D01*
X33072619Y-24577381D01*
X33167857Y-24529762D01*
X33215476Y-24482143D01*
X33263095Y-24386905D01*
X33310714Y-24196429D01*
X33310714Y-23958333D01*
X33263095Y-23767857D01*
X33215476Y-23672619D01*
X33167857Y-23625000D01*
X33072619Y-23577381D01*
X31882142Y-23910714D02*
X31882142Y-24577381D01*
X32120238Y-23529762D02*
X32358333Y-24244048D01*
X31739285Y-24244048D01*
X41094047Y-42482143D02*
X41141666Y-42529762D01*
X41284523Y-42577381D01*
X41379761Y-42577381D01*
X41522619Y-42529762D01*
X41617857Y-42434524D01*
X41665476Y-42339286D01*
X41713095Y-42148810D01*
X41713095Y-42005952D01*
X41665476Y-41815476D01*
X41617857Y-41720238D01*
X41522619Y-41625000D01*
X41379761Y-41577381D01*
X41284523Y-41577381D01*
X41141666Y-41625000D01*
X41094047Y-41672619D01*
X40236904Y-41910714D02*
X40236904Y-42577381D01*
X40475000Y-41529762D02*
X40713095Y-42244048D01*
X40094047Y-42244048D01*
X39522619Y-41577381D02*
X39427380Y-41577381D01*
X39332142Y-41625000D01*
X39284523Y-41672619D01*
X39236904Y-41767857D01*
X39189285Y-41958333D01*
X39189285Y-42196429D01*
X39236904Y-42386905D01*
X39284523Y-42482143D01*
X39332142Y-42529762D01*
X39427380Y-42577381D01*
X39522619Y-42577381D01*
X39617857Y-42529762D01*
X39665476Y-42482143D01*
X39713095Y-42386905D01*
X39760714Y-42196429D01*
X39760714Y-41958333D01*
X39713095Y-41767857D01*
X39665476Y-41672619D01*
X39617857Y-41625000D01*
X39522619Y-41577381D01*
X38284523Y-41577381D02*
X38760714Y-41577381D01*
X38808333Y-42053571D01*
X38760714Y-42005952D01*
X38665476Y-41958333D01*
X38427380Y-41958333D01*
X38332142Y-42005952D01*
X38284523Y-42053571D01*
X38236904Y-42148810D01*
X38236904Y-42386905D01*
X38284523Y-42482143D01*
X38332142Y-42529762D01*
X38427380Y-42577381D01*
X38665476Y-42577381D01*
X38760714Y-42529762D01*
X38808333Y-42482143D01*
X45959919Y-37463221D02*
X46007538Y-37415602D01*
X46055157Y-37272745D01*
X46055157Y-37177507D01*
X46007538Y-37034649D01*
X45912300Y-36939411D01*
X45817062Y-36891792D01*
X45626586Y-36844173D01*
X45483728Y-36844173D01*
X45293252Y-36891792D01*
X45198014Y-36939411D01*
X45102776Y-37034649D01*
X45055157Y-37177507D01*
X45055157Y-37272745D01*
X45102776Y-37415602D01*
X45150395Y-37463221D01*
X45388490Y-38320364D02*
X46055157Y-38320364D01*
X45007538Y-38082268D02*
X45721824Y-37844173D01*
X45721824Y-38463221D01*
X45055157Y-39034649D02*
X45055157Y-39129888D01*
X45102776Y-39225126D01*
X45150395Y-39272745D01*
X45245633Y-39320364D01*
X45436109Y-39367983D01*
X45674205Y-39367983D01*
X45864681Y-39320364D01*
X45959919Y-39272745D01*
X46007538Y-39225126D01*
X46055157Y-39129888D01*
X46055157Y-39034649D01*
X46007538Y-38939411D01*
X45959919Y-38891792D01*
X45864681Y-38844173D01*
X45674205Y-38796554D01*
X45436109Y-38796554D01*
X45245633Y-38844173D01*
X45150395Y-38891792D01*
X45102776Y-38939411D01*
X45055157Y-39034649D01*
X45055157Y-40225126D02*
X45055157Y-40034649D01*
X45102776Y-39939411D01*
X45150395Y-39891792D01*
X45293252Y-39796554D01*
X45483728Y-39748935D01*
X45864681Y-39748935D01*
X45959919Y-39796554D01*
X46007538Y-39844173D01*
X46055157Y-39939411D01*
X46055157Y-40129888D01*
X46007538Y-40225126D01*
X45959919Y-40272745D01*
X45864681Y-40320364D01*
X45626586Y-40320364D01*
X45531347Y-40272745D01*
X45483728Y-40225126D01*
X45436109Y-40129888D01*
X45436109Y-39939411D01*
X45483728Y-39844173D01*
X45531347Y-39796554D01*
X45626586Y-39748935D01*
X47909919Y-37463221D02*
X47957538Y-37415602D01*
X48005157Y-37272745D01*
X48005157Y-37177507D01*
X47957538Y-37034649D01*
X47862300Y-36939411D01*
X47767062Y-36891792D01*
X47576586Y-36844173D01*
X47433728Y-36844173D01*
X47243252Y-36891792D01*
X47148014Y-36939411D01*
X47052776Y-37034649D01*
X47005157Y-37177507D01*
X47005157Y-37272745D01*
X47052776Y-37415602D01*
X47100395Y-37463221D01*
X47338490Y-38320364D02*
X48005157Y-38320364D01*
X46957538Y-38082268D02*
X47671824Y-37844173D01*
X47671824Y-38463221D01*
X47005157Y-39034649D02*
X47005157Y-39129888D01*
X47052776Y-39225126D01*
X47100395Y-39272745D01*
X47195633Y-39320364D01*
X47386109Y-39367983D01*
X47624205Y-39367983D01*
X47814681Y-39320364D01*
X47909919Y-39272745D01*
X47957538Y-39225126D01*
X48005157Y-39129888D01*
X48005157Y-39034649D01*
X47957538Y-38939411D01*
X47909919Y-38891792D01*
X47814681Y-38844173D01*
X47624205Y-38796554D01*
X47386109Y-38796554D01*
X47195633Y-38844173D01*
X47100395Y-38891792D01*
X47052776Y-38939411D01*
X47005157Y-39034649D01*
X47005157Y-39701316D02*
X47005157Y-40367983D01*
X48005157Y-39939411D01*
X15137627Y-114732203D02*
X15185246Y-114779822D01*
X15328103Y-114827441D01*
X15423341Y-114827441D01*
X15566199Y-114779822D01*
X15661437Y-114684584D01*
X15709056Y-114589346D01*
X15756675Y-114398870D01*
X15756675Y-114256012D01*
X15709056Y-114065536D01*
X15661437Y-113970298D01*
X15566199Y-113875060D01*
X15423341Y-113827441D01*
X15328103Y-113827441D01*
X15185246Y-113875060D01*
X15137627Y-113922679D01*
X14232865Y-113827441D02*
X14709056Y-113827441D01*
X14756675Y-114303631D01*
X14709056Y-114256012D01*
X14613818Y-114208393D01*
X14375722Y-114208393D01*
X14280484Y-114256012D01*
X14232865Y-114303631D01*
X14185246Y-114398870D01*
X14185246Y-114636965D01*
X14232865Y-114732203D01*
X14280484Y-114779822D01*
X14375722Y-114827441D01*
X14613818Y-114827441D01*
X14709056Y-114779822D01*
X14756675Y-114732203D01*
X13566199Y-113827441D02*
X13470960Y-113827441D01*
X13375722Y-113875060D01*
X13328103Y-113922679D01*
X13280484Y-114017917D01*
X13232865Y-114208393D01*
X13232865Y-114446489D01*
X13280484Y-114636965D01*
X13328103Y-114732203D01*
X13375722Y-114779822D01*
X13470960Y-114827441D01*
X13566199Y-114827441D01*
X13661437Y-114779822D01*
X13709056Y-114732203D01*
X13756675Y-114636965D01*
X13804294Y-114446489D01*
X13804294Y-114208393D01*
X13756675Y-114017917D01*
X13709056Y-113922679D01*
X13661437Y-113875060D01*
X13566199Y-113827441D01*
X12280484Y-114827441D02*
X12851913Y-114827441D01*
X12566199Y-114827441D02*
X12566199Y-113827441D01*
X12661437Y-113970298D01*
X12756675Y-114065536D01*
X12851913Y-114113155D01*
X14987627Y-109482203D02*
X15035246Y-109529822D01*
X15178103Y-109577441D01*
X15273341Y-109577441D01*
X15416199Y-109529822D01*
X15511437Y-109434584D01*
X15559056Y-109339346D01*
X15606675Y-109148870D01*
X15606675Y-109006012D01*
X15559056Y-108815536D01*
X15511437Y-108720298D01*
X15416199Y-108625060D01*
X15273341Y-108577441D01*
X15178103Y-108577441D01*
X15035246Y-108625060D01*
X14987627Y-108672679D01*
X14082865Y-108577441D02*
X14559056Y-108577441D01*
X14606675Y-109053631D01*
X14559056Y-109006012D01*
X14463818Y-108958393D01*
X14225722Y-108958393D01*
X14130484Y-109006012D01*
X14082865Y-109053631D01*
X14035246Y-109148870D01*
X14035246Y-109386965D01*
X14082865Y-109482203D01*
X14130484Y-109529822D01*
X14225722Y-109577441D01*
X14463818Y-109577441D01*
X14559056Y-109529822D01*
X14606675Y-109482203D01*
X13416199Y-108577441D02*
X13320960Y-108577441D01*
X13225722Y-108625060D01*
X13178103Y-108672679D01*
X13130484Y-108767917D01*
X13082865Y-108958393D01*
X13082865Y-109196489D01*
X13130484Y-109386965D01*
X13178103Y-109482203D01*
X13225722Y-109529822D01*
X13320960Y-109577441D01*
X13416199Y-109577441D01*
X13511437Y-109529822D01*
X13559056Y-109482203D01*
X13606675Y-109386965D01*
X13654294Y-109196489D01*
X13654294Y-108958393D01*
X13606675Y-108767917D01*
X13559056Y-108672679D01*
X13511437Y-108625060D01*
X13416199Y-108577441D01*
X12701913Y-108672679D02*
X12654294Y-108625060D01*
X12559056Y-108577441D01*
X12320960Y-108577441D01*
X12225722Y-108625060D01*
X12178103Y-108672679D01*
X12130484Y-108767917D01*
X12130484Y-108863155D01*
X12178103Y-109006012D01*
X12749532Y-109577441D01*
X12130484Y-109577441D01*
X13619047Y-122544103D02*
X13666666Y-122591722D01*
X13809523Y-122639341D01*
X13904761Y-122639341D01*
X14047619Y-122591722D01*
X14142857Y-122496484D01*
X14190476Y-122401246D01*
X14238095Y-122210770D01*
X14238095Y-122067912D01*
X14190476Y-121877436D01*
X14142857Y-121782198D01*
X14047619Y-121686960D01*
X13904761Y-121639341D01*
X13809523Y-121639341D01*
X13666666Y-121686960D01*
X13619047Y-121734579D01*
X12714285Y-121639341D02*
X13190476Y-121639341D01*
X13238095Y-122115531D01*
X13190476Y-122067912D01*
X13095238Y-122020293D01*
X12857142Y-122020293D01*
X12761904Y-122067912D01*
X12714285Y-122115531D01*
X12666666Y-122210770D01*
X12666666Y-122448865D01*
X12714285Y-122544103D01*
X12761904Y-122591722D01*
X12857142Y-122639341D01*
X13095238Y-122639341D01*
X13190476Y-122591722D01*
X13238095Y-122544103D01*
X12047619Y-121639341D02*
X11952380Y-121639341D01*
X11857142Y-121686960D01*
X11809523Y-121734579D01*
X11761904Y-121829817D01*
X11714285Y-122020293D01*
X11714285Y-122258389D01*
X11761904Y-122448865D01*
X11809523Y-122544103D01*
X11857142Y-122591722D01*
X11952380Y-122639341D01*
X12047619Y-122639341D01*
X12142857Y-122591722D01*
X12190476Y-122544103D01*
X12238095Y-122448865D01*
X12285714Y-122258389D01*
X12285714Y-122020293D01*
X12238095Y-121829817D01*
X12190476Y-121734579D01*
X12142857Y-121686960D01*
X12047619Y-121639341D01*
X10809523Y-121639341D02*
X11285714Y-121639341D01*
X11333333Y-122115531D01*
X11285714Y-122067912D01*
X11190476Y-122020293D01*
X10952380Y-122020293D01*
X10857142Y-122067912D01*
X10809523Y-122115531D01*
X10761904Y-122210770D01*
X10761904Y-122448865D01*
X10809523Y-122544103D01*
X10857142Y-122591722D01*
X10952380Y-122639341D01*
X11190476Y-122639341D01*
X11285714Y-122591722D01*
X11333333Y-122544103D01*
X61447143Y-3964762D02*
X61494762Y-3917143D01*
X61542381Y-3774286D01*
X61542381Y-3679048D01*
X61494762Y-3536190D01*
X61399524Y-3440952D01*
X61304286Y-3393333D01*
X61113810Y-3345714D01*
X60970952Y-3345714D01*
X60780476Y-3393333D01*
X60685238Y-3440952D01*
X60590000Y-3536190D01*
X60542381Y-3679048D01*
X60542381Y-3774286D01*
X60590000Y-3917143D01*
X60637619Y-3964762D01*
X61542381Y-4917143D02*
X61542381Y-4345714D01*
X61542381Y-4631428D02*
X60542381Y-4631428D01*
X60685238Y-4536190D01*
X60780476Y-4440952D01*
X60828095Y-4345714D01*
X60542381Y-5250476D02*
X60542381Y-5869524D01*
X60923333Y-5536190D01*
X60923333Y-5679048D01*
X60970952Y-5774286D01*
X61018571Y-5821905D01*
X61113810Y-5869524D01*
X61351905Y-5869524D01*
X61447143Y-5821905D01*
X61494762Y-5774286D01*
X61542381Y-5679048D01*
X61542381Y-5393333D01*
X61494762Y-5298095D01*
X61447143Y-5250476D01*
X60542381Y-6488571D02*
X60542381Y-6583810D01*
X60590000Y-6679048D01*
X60637619Y-6726667D01*
X60732857Y-6774286D01*
X60923333Y-6821905D01*
X61161429Y-6821905D01*
X61351905Y-6774286D01*
X61447143Y-6726667D01*
X61494762Y-6679048D01*
X61542381Y-6583810D01*
X61542381Y-6488571D01*
X61494762Y-6393333D01*
X61447143Y-6345714D01*
X61351905Y-6298095D01*
X61161429Y-6250476D01*
X60923333Y-6250476D01*
X60732857Y-6298095D01*
X60637619Y-6345714D01*
X60590000Y-6393333D01*
X60542381Y-6488571D01*
X60542381Y-7726667D02*
X60542381Y-7250476D01*
X61018571Y-7202857D01*
X60970952Y-7250476D01*
X60923333Y-7345714D01*
X60923333Y-7583810D01*
X60970952Y-7679048D01*
X61018571Y-7726667D01*
X61113810Y-7774286D01*
X61351905Y-7774286D01*
X61447143Y-7726667D01*
X61494762Y-7679048D01*
X61542381Y-7583810D01*
X61542381Y-7345714D01*
X61494762Y-7250476D01*
X61447143Y-7202857D01*
X65825238Y-8717143D02*
X65872857Y-8764762D01*
X66015714Y-8812381D01*
X66110952Y-8812381D01*
X66253810Y-8764762D01*
X66349048Y-8669524D01*
X66396667Y-8574286D01*
X66444286Y-8383810D01*
X66444286Y-8240952D01*
X66396667Y-8050476D01*
X66349048Y-7955238D01*
X66253810Y-7860000D01*
X66110952Y-7812381D01*
X66015714Y-7812381D01*
X65872857Y-7860000D01*
X65825238Y-7907619D01*
X64872857Y-8812381D02*
X65444286Y-8812381D01*
X65158572Y-8812381D02*
X65158572Y-7812381D01*
X65253810Y-7955238D01*
X65349048Y-8050476D01*
X65444286Y-8098095D01*
X64539524Y-7812381D02*
X63920476Y-7812381D01*
X64253810Y-8193333D01*
X64110952Y-8193333D01*
X64015714Y-8240952D01*
X63968095Y-8288571D01*
X63920476Y-8383810D01*
X63920476Y-8621905D01*
X63968095Y-8717143D01*
X64015714Y-8764762D01*
X64110952Y-8812381D01*
X64396667Y-8812381D01*
X64491905Y-8764762D01*
X64539524Y-8717143D01*
X63301429Y-7812381D02*
X63206190Y-7812381D01*
X63110952Y-7860000D01*
X63063333Y-7907619D01*
X63015714Y-8002857D01*
X62968095Y-8193333D01*
X62968095Y-8431429D01*
X63015714Y-8621905D01*
X63063333Y-8717143D01*
X63110952Y-8764762D01*
X63206190Y-8812381D01*
X63301429Y-8812381D01*
X63396667Y-8764762D01*
X63444286Y-8717143D01*
X63491905Y-8621905D01*
X63539524Y-8431429D01*
X63539524Y-8193333D01*
X63491905Y-8002857D01*
X63444286Y-7907619D01*
X63396667Y-7860000D01*
X63301429Y-7812381D01*
X62634762Y-7812381D02*
X61968095Y-7812381D01*
X62396667Y-8812381D01*
X57357143Y-4604762D02*
X57404762Y-4557143D01*
X57452381Y-4414286D01*
X57452381Y-4319048D01*
X57404762Y-4176190D01*
X57309524Y-4080952D01*
X57214286Y-4033333D01*
X57023810Y-3985714D01*
X56880952Y-3985714D01*
X56690476Y-4033333D01*
X56595238Y-4080952D01*
X56500000Y-4176190D01*
X56452381Y-4319048D01*
X56452381Y-4414286D01*
X56500000Y-4557143D01*
X56547619Y-4604762D01*
X57452381Y-5557143D02*
X57452381Y-4985714D01*
X57452381Y-5271428D02*
X56452381Y-5271428D01*
X56595238Y-5176190D01*
X56690476Y-5080952D01*
X56738095Y-4985714D01*
X56452381Y-5890476D02*
X56452381Y-6509524D01*
X56833333Y-6176190D01*
X56833333Y-6319048D01*
X56880952Y-6414286D01*
X56928571Y-6461905D01*
X57023810Y-6509524D01*
X57261905Y-6509524D01*
X57357143Y-6461905D01*
X57404762Y-6414286D01*
X57452381Y-6319048D01*
X57452381Y-6033333D01*
X57404762Y-5938095D01*
X57357143Y-5890476D01*
X56452381Y-7128571D02*
X56452381Y-7223810D01*
X56500000Y-7319048D01*
X56547619Y-7366667D01*
X56642857Y-7414286D01*
X56833333Y-7461905D01*
X57071429Y-7461905D01*
X57261905Y-7414286D01*
X57357143Y-7366667D01*
X57404762Y-7319048D01*
X57452381Y-7223810D01*
X57452381Y-7128571D01*
X57404762Y-7033333D01*
X57357143Y-6985714D01*
X57261905Y-6938095D01*
X57071429Y-6890476D01*
X56833333Y-6890476D01*
X56642857Y-6938095D01*
X56547619Y-6985714D01*
X56500000Y-7033333D01*
X56452381Y-7128571D01*
X56880952Y-8033333D02*
X56833333Y-7938095D01*
X56785714Y-7890476D01*
X56690476Y-7842857D01*
X56642857Y-7842857D01*
X56547619Y-7890476D01*
X56500000Y-7938095D01*
X56452381Y-8033333D01*
X56452381Y-8223810D01*
X56500000Y-8319048D01*
X56547619Y-8366667D01*
X56642857Y-8414286D01*
X56690476Y-8414286D01*
X56785714Y-8366667D01*
X56833333Y-8319048D01*
X56880952Y-8223810D01*
X56880952Y-8033333D01*
X56928571Y-7938095D01*
X56976190Y-7890476D01*
X57071429Y-7842857D01*
X57261905Y-7842857D01*
X57357143Y-7890476D01*
X57404762Y-7938095D01*
X57452381Y-8033333D01*
X57452381Y-8223810D01*
X57404762Y-8319048D01*
X57357143Y-8366667D01*
X57261905Y-8414286D01*
X57071429Y-8414286D01*
X56976190Y-8366667D01*
X56928571Y-8319048D01*
X56880952Y-8223810D01*
X121395238Y-94557143D02*
X121442857Y-94604762D01*
X121585714Y-94652381D01*
X121680952Y-94652381D01*
X121823810Y-94604762D01*
X121919048Y-94509524D01*
X121966667Y-94414286D01*
X122014286Y-94223810D01*
X122014286Y-94080952D01*
X121966667Y-93890476D01*
X121919048Y-93795238D01*
X121823810Y-93700000D01*
X121680952Y-93652381D01*
X121585714Y-93652381D01*
X121442857Y-93700000D01*
X121395238Y-93747619D01*
X120442857Y-94652381D02*
X121014286Y-94652381D01*
X120728572Y-94652381D02*
X120728572Y-93652381D01*
X120823810Y-93795238D01*
X120919048Y-93890476D01*
X121014286Y-93938095D01*
X120109524Y-93652381D02*
X119442857Y-93652381D01*
X119871429Y-94652381D01*
X118871429Y-93652381D02*
X118776190Y-93652381D01*
X118680952Y-93700000D01*
X118633333Y-93747619D01*
X118585714Y-93842857D01*
X118538095Y-94033333D01*
X118538095Y-94271429D01*
X118585714Y-94461905D01*
X118633333Y-94557143D01*
X118680952Y-94604762D01*
X118776190Y-94652381D01*
X118871429Y-94652381D01*
X118966667Y-94604762D01*
X119014286Y-94557143D01*
X119061905Y-94461905D01*
X119109524Y-94271429D01*
X119109524Y-94033333D01*
X119061905Y-93842857D01*
X119014286Y-93747619D01*
X118966667Y-93700000D01*
X118871429Y-93652381D01*
X118157143Y-93747619D02*
X118109524Y-93700000D01*
X118014286Y-93652381D01*
X117776190Y-93652381D01*
X117680952Y-93700000D01*
X117633333Y-93747619D01*
X117585714Y-93842857D01*
X117585714Y-93938095D01*
X117633333Y-94080952D01*
X118204762Y-94652381D01*
X117585714Y-94652381D01*
X34519047Y-22577381D02*
X34852381Y-22101190D01*
X35090476Y-22577381D02*
X35090476Y-21577381D01*
X34709523Y-21577381D01*
X34614285Y-21625000D01*
X34566666Y-21672619D01*
X34519047Y-21767857D01*
X34519047Y-21910714D01*
X34566666Y-22005952D01*
X34614285Y-22053571D01*
X34709523Y-22101190D01*
X35090476Y-22101190D01*
X33661904Y-21910714D02*
X33661904Y-22577381D01*
X33900000Y-21529762D02*
X34138095Y-22244048D01*
X33519047Y-22244048D01*
X32947619Y-21577381D02*
X32852380Y-21577381D01*
X32757142Y-21625000D01*
X32709523Y-21672619D01*
X32661904Y-21767857D01*
X32614285Y-21958333D01*
X32614285Y-22196429D01*
X32661904Y-22386905D01*
X32709523Y-22482143D01*
X32757142Y-22529762D01*
X32852380Y-22577381D01*
X32947619Y-22577381D01*
X33042857Y-22529762D01*
X33090476Y-22482143D01*
X33138095Y-22386905D01*
X33185714Y-22196429D01*
X33185714Y-21958333D01*
X33138095Y-21767857D01*
X33090476Y-21672619D01*
X33042857Y-21625000D01*
X32947619Y-21577381D01*
X32233333Y-21672619D02*
X32185714Y-21625000D01*
X32090476Y-21577381D01*
X31852380Y-21577381D01*
X31757142Y-21625000D01*
X31709523Y-21672619D01*
X31661904Y-21767857D01*
X31661904Y-21863095D01*
X31709523Y-22005952D01*
X32280952Y-22577381D01*
X31661904Y-22577381D01*
X37644047Y-15427381D02*
X37977381Y-14951190D01*
X38215476Y-15427381D02*
X38215476Y-14427381D01*
X37834523Y-14427381D01*
X37739285Y-14475000D01*
X37691666Y-14522619D01*
X37644047Y-14617857D01*
X37644047Y-14760714D01*
X37691666Y-14855952D01*
X37739285Y-14903571D01*
X37834523Y-14951190D01*
X38215476Y-14951190D01*
X36786904Y-14760714D02*
X36786904Y-15427381D01*
X37025000Y-14379762D02*
X37263095Y-15094048D01*
X36644047Y-15094048D01*
X36072619Y-14427381D02*
X35977380Y-14427381D01*
X35882142Y-14475000D01*
X35834523Y-14522619D01*
X35786904Y-14617857D01*
X35739285Y-14808333D01*
X35739285Y-15046429D01*
X35786904Y-15236905D01*
X35834523Y-15332143D01*
X35882142Y-15379762D01*
X35977380Y-15427381D01*
X36072619Y-15427381D01*
X36167857Y-15379762D01*
X36215476Y-15332143D01*
X36263095Y-15236905D01*
X36310714Y-15046429D01*
X36310714Y-14808333D01*
X36263095Y-14617857D01*
X36215476Y-14522619D01*
X36167857Y-14475000D01*
X36072619Y-14427381D01*
X35405952Y-14427381D02*
X34786904Y-14427381D01*
X35120238Y-14808333D01*
X34977380Y-14808333D01*
X34882142Y-14855952D01*
X34834523Y-14903571D01*
X34786904Y-14998810D01*
X34786904Y-15236905D01*
X34834523Y-15332143D01*
X34882142Y-15379762D01*
X34977380Y-15427381D01*
X35263095Y-15427381D01*
X35358333Y-15379762D01*
X35405952Y-15332143D01*
X43752381Y-24205953D02*
X43276190Y-23872619D01*
X43752381Y-23634524D02*
X42752381Y-23634524D01*
X42752381Y-24015477D01*
X42800000Y-24110715D01*
X42847619Y-24158334D01*
X42942857Y-24205953D01*
X43085714Y-24205953D01*
X43180952Y-24158334D01*
X43228571Y-24110715D01*
X43276190Y-24015477D01*
X43276190Y-23634524D01*
X43085714Y-25063096D02*
X43752381Y-25063096D01*
X42704762Y-24825000D02*
X43419048Y-24586905D01*
X43419048Y-25205953D01*
X42752381Y-25777381D02*
X42752381Y-25872620D01*
X42800000Y-25967858D01*
X42847619Y-26015477D01*
X42942857Y-26063096D01*
X43133333Y-26110715D01*
X43371429Y-26110715D01*
X43561905Y-26063096D01*
X43657143Y-26015477D01*
X43704762Y-25967858D01*
X43752381Y-25872620D01*
X43752381Y-25777381D01*
X43704762Y-25682143D01*
X43657143Y-25634524D01*
X43561905Y-25586905D01*
X43371429Y-25539286D01*
X43133333Y-25539286D01*
X42942857Y-25586905D01*
X42847619Y-25634524D01*
X42800000Y-25682143D01*
X42752381Y-25777381D01*
X43085714Y-26967858D02*
X43752381Y-26967858D01*
X42704762Y-26729762D02*
X43419048Y-26491667D01*
X43419048Y-27110715D01*
X12229007Y-115453421D02*
X12562341Y-114977230D01*
X12800436Y-115453421D02*
X12800436Y-114453421D01*
X12419483Y-114453421D01*
X12324245Y-114501040D01*
X12276626Y-114548659D01*
X12229007Y-114643897D01*
X12229007Y-114786754D01*
X12276626Y-114881992D01*
X12324245Y-114929611D01*
X12419483Y-114977230D01*
X12800436Y-114977230D01*
X11324245Y-114453421D02*
X11800436Y-114453421D01*
X11848055Y-114929611D01*
X11800436Y-114881992D01*
X11705198Y-114834373D01*
X11467102Y-114834373D01*
X11371864Y-114881992D01*
X11324245Y-114929611D01*
X11276626Y-115024850D01*
X11276626Y-115262945D01*
X11324245Y-115358183D01*
X11371864Y-115405802D01*
X11467102Y-115453421D01*
X11705198Y-115453421D01*
X11800436Y-115405802D01*
X11848055Y-115358183D01*
X10657579Y-114453421D02*
X10562340Y-114453421D01*
X10467102Y-114501040D01*
X10419483Y-114548659D01*
X10371864Y-114643897D01*
X10324245Y-114834373D01*
X10324245Y-115072469D01*
X10371864Y-115262945D01*
X10419483Y-115358183D01*
X10467102Y-115405802D01*
X10562340Y-115453421D01*
X10657579Y-115453421D01*
X10752817Y-115405802D01*
X10800436Y-115358183D01*
X10848055Y-115262945D01*
X10895674Y-115072469D01*
X10895674Y-114834373D01*
X10848055Y-114643897D01*
X10800436Y-114548659D01*
X10752817Y-114501040D01*
X10657579Y-114453421D01*
X9943293Y-114548659D02*
X9895674Y-114501040D01*
X9800436Y-114453421D01*
X9562340Y-114453421D01*
X9467102Y-114501040D01*
X9419483Y-114548659D01*
X9371864Y-114643897D01*
X9371864Y-114739135D01*
X9419483Y-114881992D01*
X9990912Y-115453421D01*
X9371864Y-115453421D01*
X72874047Y-85669381D02*
X73207381Y-85193190D01*
X73445476Y-85669381D02*
X73445476Y-84669381D01*
X73064523Y-84669381D01*
X72969285Y-84717000D01*
X72921666Y-84764619D01*
X72874047Y-84859857D01*
X72874047Y-85002714D01*
X72921666Y-85097952D01*
X72969285Y-85145571D01*
X73064523Y-85193190D01*
X73445476Y-85193190D01*
X72016904Y-84669381D02*
X72207381Y-84669381D01*
X72302619Y-84717000D01*
X72350238Y-84764619D01*
X72445476Y-84907476D01*
X72493095Y-85097952D01*
X72493095Y-85478905D01*
X72445476Y-85574143D01*
X72397857Y-85621762D01*
X72302619Y-85669381D01*
X72112142Y-85669381D01*
X72016904Y-85621762D01*
X71969285Y-85574143D01*
X71921666Y-85478905D01*
X71921666Y-85240810D01*
X71969285Y-85145571D01*
X72016904Y-85097952D01*
X72112142Y-85050333D01*
X72302619Y-85050333D01*
X72397857Y-85097952D01*
X72445476Y-85145571D01*
X72493095Y-85240810D01*
X71302619Y-84669381D02*
X71207380Y-84669381D01*
X71112142Y-84717000D01*
X71064523Y-84764619D01*
X71016904Y-84859857D01*
X70969285Y-85050333D01*
X70969285Y-85288429D01*
X71016904Y-85478905D01*
X71064523Y-85574143D01*
X71112142Y-85621762D01*
X71207380Y-85669381D01*
X71302619Y-85669381D01*
X71397857Y-85621762D01*
X71445476Y-85574143D01*
X71493095Y-85478905D01*
X71540714Y-85288429D01*
X71540714Y-85050333D01*
X71493095Y-84859857D01*
X71445476Y-84764619D01*
X71397857Y-84717000D01*
X71302619Y-84669381D01*
X70112142Y-85002714D02*
X70112142Y-85669381D01*
X70350238Y-84621762D02*
X70588333Y-85336048D01*
X69969285Y-85336048D01*
X107295238Y-6852381D02*
X107628572Y-6376190D01*
X107866667Y-6852381D02*
X107866667Y-5852381D01*
X107485714Y-5852381D01*
X107390476Y-5900000D01*
X107342857Y-5947619D01*
X107295238Y-6042857D01*
X107295238Y-6185714D01*
X107342857Y-6280952D01*
X107390476Y-6328571D01*
X107485714Y-6376190D01*
X107866667Y-6376190D01*
X106342857Y-6852381D02*
X106914286Y-6852381D01*
X106628572Y-6852381D02*
X106628572Y-5852381D01*
X106723810Y-5995238D01*
X106819048Y-6090476D01*
X106914286Y-6138095D01*
X105723810Y-5852381D02*
X105628571Y-5852381D01*
X105533333Y-5900000D01*
X105485714Y-5947619D01*
X105438095Y-6042857D01*
X105390476Y-6233333D01*
X105390476Y-6471429D01*
X105438095Y-6661905D01*
X105485714Y-6757143D01*
X105533333Y-6804762D01*
X105628571Y-6852381D01*
X105723810Y-6852381D01*
X105819048Y-6804762D01*
X105866667Y-6757143D01*
X105914286Y-6661905D01*
X105961905Y-6471429D01*
X105961905Y-6233333D01*
X105914286Y-6042857D01*
X105866667Y-5947619D01*
X105819048Y-5900000D01*
X105723810Y-5852381D01*
X104771429Y-5852381D02*
X104676190Y-5852381D01*
X104580952Y-5900000D01*
X104533333Y-5947619D01*
X104485714Y-6042857D01*
X104438095Y-6233333D01*
X104438095Y-6471429D01*
X104485714Y-6661905D01*
X104533333Y-6757143D01*
X104580952Y-6804762D01*
X104676190Y-6852381D01*
X104771429Y-6852381D01*
X104866667Y-6804762D01*
X104914286Y-6757143D01*
X104961905Y-6661905D01*
X105009524Y-6471429D01*
X105009524Y-6233333D01*
X104961905Y-6042857D01*
X104914286Y-5947619D01*
X104866667Y-5900000D01*
X104771429Y-5852381D01*
X103961905Y-6852381D02*
X103771429Y-6852381D01*
X103676190Y-6804762D01*
X103628571Y-6757143D01*
X103533333Y-6614286D01*
X103485714Y-6423810D01*
X103485714Y-6042857D01*
X103533333Y-5947619D01*
X103580952Y-5900000D01*
X103676190Y-5852381D01*
X103866667Y-5852381D01*
X103961905Y-5900000D01*
X104009524Y-5947619D01*
X104057143Y-6042857D01*
X104057143Y-6280952D01*
X104009524Y-6376190D01*
X103961905Y-6423810D01*
X103866667Y-6471429D01*
X103676190Y-6471429D01*
X103580952Y-6423810D01*
X103533333Y-6376190D01*
X103485714Y-6280952D01*
X107295238Y-14952381D02*
X107628572Y-14476190D01*
X107866667Y-14952381D02*
X107866667Y-13952381D01*
X107485714Y-13952381D01*
X107390476Y-14000000D01*
X107342857Y-14047619D01*
X107295238Y-14142857D01*
X107295238Y-14285714D01*
X107342857Y-14380952D01*
X107390476Y-14428571D01*
X107485714Y-14476190D01*
X107866667Y-14476190D01*
X106342857Y-14952381D02*
X106914286Y-14952381D01*
X106628572Y-14952381D02*
X106628572Y-13952381D01*
X106723810Y-14095238D01*
X106819048Y-14190476D01*
X106914286Y-14238095D01*
X105723810Y-13952381D02*
X105628571Y-13952381D01*
X105533333Y-14000000D01*
X105485714Y-14047619D01*
X105438095Y-14142857D01*
X105390476Y-14333333D01*
X105390476Y-14571429D01*
X105438095Y-14761905D01*
X105485714Y-14857143D01*
X105533333Y-14904762D01*
X105628571Y-14952381D01*
X105723810Y-14952381D01*
X105819048Y-14904762D01*
X105866667Y-14857143D01*
X105914286Y-14761905D01*
X105961905Y-14571429D01*
X105961905Y-14333333D01*
X105914286Y-14142857D01*
X105866667Y-14047619D01*
X105819048Y-14000000D01*
X105723810Y-13952381D01*
X104438095Y-14952381D02*
X105009524Y-14952381D01*
X104723810Y-14952381D02*
X104723810Y-13952381D01*
X104819048Y-14095238D01*
X104914286Y-14190476D01*
X105009524Y-14238095D01*
X103819048Y-13952381D02*
X103723809Y-13952381D01*
X103628571Y-14000000D01*
X103580952Y-14047619D01*
X103533333Y-14142857D01*
X103485714Y-14333333D01*
X103485714Y-14571429D01*
X103533333Y-14761905D01*
X103580952Y-14857143D01*
X103628571Y-14904762D01*
X103723809Y-14952381D01*
X103819048Y-14952381D01*
X103914286Y-14904762D01*
X103961905Y-14857143D01*
X104009524Y-14761905D01*
X104057143Y-14571429D01*
X104057143Y-14333333D01*
X104009524Y-14142857D01*
X103961905Y-14047619D01*
X103914286Y-14000000D01*
X103819048Y-13952381D01*
X80875238Y-5862381D02*
X81208572Y-5386190D01*
X81446667Y-5862381D02*
X81446667Y-4862381D01*
X81065714Y-4862381D01*
X80970476Y-4910000D01*
X80922857Y-4957619D01*
X80875238Y-5052857D01*
X80875238Y-5195714D01*
X80922857Y-5290952D01*
X80970476Y-5338571D01*
X81065714Y-5386190D01*
X81446667Y-5386190D01*
X79922857Y-5862381D02*
X80494286Y-5862381D01*
X80208572Y-5862381D02*
X80208572Y-4862381D01*
X80303810Y-5005238D01*
X80399048Y-5100476D01*
X80494286Y-5148095D01*
X79589524Y-4862381D02*
X78970476Y-4862381D01*
X79303810Y-5243333D01*
X79160952Y-5243333D01*
X79065714Y-5290952D01*
X79018095Y-5338571D01*
X78970476Y-5433810D01*
X78970476Y-5671905D01*
X79018095Y-5767143D01*
X79065714Y-5814762D01*
X79160952Y-5862381D01*
X79446667Y-5862381D01*
X79541905Y-5814762D01*
X79589524Y-5767143D01*
X78351429Y-4862381D02*
X78256190Y-4862381D01*
X78160952Y-4910000D01*
X78113333Y-4957619D01*
X78065714Y-5052857D01*
X78018095Y-5243333D01*
X78018095Y-5481429D01*
X78065714Y-5671905D01*
X78113333Y-5767143D01*
X78160952Y-5814762D01*
X78256190Y-5862381D01*
X78351429Y-5862381D01*
X78446667Y-5814762D01*
X78494286Y-5767143D01*
X78541905Y-5671905D01*
X78589524Y-5481429D01*
X78589524Y-5243333D01*
X78541905Y-5052857D01*
X78494286Y-4957619D01*
X78446667Y-4910000D01*
X78351429Y-4862381D01*
X77113333Y-4862381D02*
X77589524Y-4862381D01*
X77637143Y-5338571D01*
X77589524Y-5290952D01*
X77494286Y-5243333D01*
X77256190Y-5243333D01*
X77160952Y-5290952D01*
X77113333Y-5338571D01*
X77065714Y-5433810D01*
X77065714Y-5671905D01*
X77113333Y-5767143D01*
X77160952Y-5814762D01*
X77256190Y-5862381D01*
X77494286Y-5862381D01*
X77589524Y-5814762D01*
X77637143Y-5767143D01*
X80875238Y-4642381D02*
X81208572Y-4166190D01*
X81446667Y-4642381D02*
X81446667Y-3642381D01*
X81065714Y-3642381D01*
X80970476Y-3690000D01*
X80922857Y-3737619D01*
X80875238Y-3832857D01*
X80875238Y-3975714D01*
X80922857Y-4070952D01*
X80970476Y-4118571D01*
X81065714Y-4166190D01*
X81446667Y-4166190D01*
X79922857Y-4642381D02*
X80494286Y-4642381D01*
X80208572Y-4642381D02*
X80208572Y-3642381D01*
X80303810Y-3785238D01*
X80399048Y-3880476D01*
X80494286Y-3928095D01*
X79589524Y-3642381D02*
X78970476Y-3642381D01*
X79303810Y-4023333D01*
X79160952Y-4023333D01*
X79065714Y-4070952D01*
X79018095Y-4118571D01*
X78970476Y-4213810D01*
X78970476Y-4451905D01*
X79018095Y-4547143D01*
X79065714Y-4594762D01*
X79160952Y-4642381D01*
X79446667Y-4642381D01*
X79541905Y-4594762D01*
X79589524Y-4547143D01*
X78351429Y-3642381D02*
X78256190Y-3642381D01*
X78160952Y-3690000D01*
X78113333Y-3737619D01*
X78065714Y-3832857D01*
X78018095Y-4023333D01*
X78018095Y-4261429D01*
X78065714Y-4451905D01*
X78113333Y-4547143D01*
X78160952Y-4594762D01*
X78256190Y-4642381D01*
X78351429Y-4642381D01*
X78446667Y-4594762D01*
X78494286Y-4547143D01*
X78541905Y-4451905D01*
X78589524Y-4261429D01*
X78589524Y-4023333D01*
X78541905Y-3832857D01*
X78494286Y-3737619D01*
X78446667Y-3690000D01*
X78351429Y-3642381D01*
X77160952Y-3642381D02*
X77351429Y-3642381D01*
X77446667Y-3690000D01*
X77494286Y-3737619D01*
X77589524Y-3880476D01*
X77637143Y-4070952D01*
X77637143Y-4451905D01*
X77589524Y-4547143D01*
X77541905Y-4594762D01*
X77446667Y-4642381D01*
X77256190Y-4642381D01*
X77160952Y-4594762D01*
X77113333Y-4547143D01*
X77065714Y-4451905D01*
X77065714Y-4213810D01*
X77113333Y-4118571D01*
X77160952Y-4070952D01*
X77256190Y-4023333D01*
X77446667Y-4023333D01*
X77541905Y-4070952D01*
X77589524Y-4118571D01*
X77637143Y-4213810D01*
X75995238Y-9962381D02*
X76328572Y-9486190D01*
X76566667Y-9962381D02*
X76566667Y-8962381D01*
X76185714Y-8962381D01*
X76090476Y-9010000D01*
X76042857Y-9057619D01*
X75995238Y-9152857D01*
X75995238Y-9295714D01*
X76042857Y-9390952D01*
X76090476Y-9438571D01*
X76185714Y-9486190D01*
X76566667Y-9486190D01*
X75042857Y-9962381D02*
X75614286Y-9962381D01*
X75328572Y-9962381D02*
X75328572Y-8962381D01*
X75423810Y-9105238D01*
X75519048Y-9200476D01*
X75614286Y-9248095D01*
X74709524Y-8962381D02*
X74090476Y-8962381D01*
X74423810Y-9343333D01*
X74280952Y-9343333D01*
X74185714Y-9390952D01*
X74138095Y-9438571D01*
X74090476Y-9533810D01*
X74090476Y-9771905D01*
X74138095Y-9867143D01*
X74185714Y-9914762D01*
X74280952Y-9962381D01*
X74566667Y-9962381D01*
X74661905Y-9914762D01*
X74709524Y-9867143D01*
X73471429Y-8962381D02*
X73376190Y-8962381D01*
X73280952Y-9010000D01*
X73233333Y-9057619D01*
X73185714Y-9152857D01*
X73138095Y-9343333D01*
X73138095Y-9581429D01*
X73185714Y-9771905D01*
X73233333Y-9867143D01*
X73280952Y-9914762D01*
X73376190Y-9962381D01*
X73471429Y-9962381D01*
X73566667Y-9914762D01*
X73614286Y-9867143D01*
X73661905Y-9771905D01*
X73709524Y-9581429D01*
X73709524Y-9343333D01*
X73661905Y-9152857D01*
X73614286Y-9057619D01*
X73566667Y-9010000D01*
X73471429Y-8962381D01*
X72804762Y-8962381D02*
X72138095Y-8962381D01*
X72566667Y-9962381D01*
X19665238Y-62242381D02*
X19998572Y-61766190D01*
X20236667Y-62242381D02*
X20236667Y-61242381D01*
X19855714Y-61242381D01*
X19760476Y-61290000D01*
X19712857Y-61337619D01*
X19665238Y-61432857D01*
X19665238Y-61575714D01*
X19712857Y-61670952D01*
X19760476Y-61718571D01*
X19855714Y-61766190D01*
X20236667Y-61766190D01*
X18712857Y-62242381D02*
X19284286Y-62242381D01*
X18998572Y-62242381D02*
X18998572Y-61242381D01*
X19093810Y-61385238D01*
X19189048Y-61480476D01*
X19284286Y-61528095D01*
X17808095Y-61242381D02*
X18284286Y-61242381D01*
X18331905Y-61718571D01*
X18284286Y-61670952D01*
X18189048Y-61623333D01*
X17950952Y-61623333D01*
X17855714Y-61670952D01*
X17808095Y-61718571D01*
X17760476Y-61813810D01*
X17760476Y-62051905D01*
X17808095Y-62147143D01*
X17855714Y-62194762D01*
X17950952Y-62242381D01*
X18189048Y-62242381D01*
X18284286Y-62194762D01*
X18331905Y-62147143D01*
X17141429Y-61242381D02*
X17046190Y-61242381D01*
X16950952Y-61290000D01*
X16903333Y-61337619D01*
X16855714Y-61432857D01*
X16808095Y-61623333D01*
X16808095Y-61861429D01*
X16855714Y-62051905D01*
X16903333Y-62147143D01*
X16950952Y-62194762D01*
X17046190Y-62242381D01*
X17141429Y-62242381D01*
X17236667Y-62194762D01*
X17284286Y-62147143D01*
X17331905Y-62051905D01*
X17379524Y-61861429D01*
X17379524Y-61623333D01*
X17331905Y-61432857D01*
X17284286Y-61337619D01*
X17236667Y-61290000D01*
X17141429Y-61242381D01*
X16427143Y-61337619D02*
X16379524Y-61290000D01*
X16284286Y-61242381D01*
X16046190Y-61242381D01*
X15950952Y-61290000D01*
X15903333Y-61337619D01*
X15855714Y-61432857D01*
X15855714Y-61528095D01*
X15903333Y-61670952D01*
X16474762Y-62242381D01*
X15855714Y-62242381D01*
X15192381Y-33754762D02*
X14716190Y-33421428D01*
X15192381Y-33183333D02*
X14192381Y-33183333D01*
X14192381Y-33564286D01*
X14240000Y-33659524D01*
X14287619Y-33707143D01*
X14382857Y-33754762D01*
X14525714Y-33754762D01*
X14620952Y-33707143D01*
X14668571Y-33659524D01*
X14716190Y-33564286D01*
X14716190Y-33183333D01*
X15192381Y-34707143D02*
X15192381Y-34135714D01*
X15192381Y-34421428D02*
X14192381Y-34421428D01*
X14335238Y-34326190D01*
X14430476Y-34230952D01*
X14478095Y-34135714D01*
X14192381Y-35611905D02*
X14192381Y-35135714D01*
X14668571Y-35088095D01*
X14620952Y-35135714D01*
X14573333Y-35230952D01*
X14573333Y-35469048D01*
X14620952Y-35564286D01*
X14668571Y-35611905D01*
X14763810Y-35659524D01*
X15001905Y-35659524D01*
X15097143Y-35611905D01*
X15144762Y-35564286D01*
X15192381Y-35469048D01*
X15192381Y-35230952D01*
X15144762Y-35135714D01*
X15097143Y-35088095D01*
X14192381Y-36278571D02*
X14192381Y-36373810D01*
X14240000Y-36469048D01*
X14287619Y-36516667D01*
X14382857Y-36564286D01*
X14573333Y-36611905D01*
X14811429Y-36611905D01*
X15001905Y-36564286D01*
X15097143Y-36516667D01*
X15144762Y-36469048D01*
X15192381Y-36373810D01*
X15192381Y-36278571D01*
X15144762Y-36183333D01*
X15097143Y-36135714D01*
X15001905Y-36088095D01*
X14811429Y-36040476D01*
X14573333Y-36040476D01*
X14382857Y-36088095D01*
X14287619Y-36135714D01*
X14240000Y-36183333D01*
X14192381Y-36278571D01*
X14192381Y-36945238D02*
X14192381Y-37611905D01*
X15192381Y-37183333D01*
X10542381Y-28134762D02*
X10066190Y-27801428D01*
X10542381Y-27563333D02*
X9542381Y-27563333D01*
X9542381Y-27944286D01*
X9590000Y-28039524D01*
X9637619Y-28087143D01*
X9732857Y-28134762D01*
X9875714Y-28134762D01*
X9970952Y-28087143D01*
X10018571Y-28039524D01*
X10066190Y-27944286D01*
X10066190Y-27563333D01*
X10542381Y-29087143D02*
X10542381Y-28515714D01*
X10542381Y-28801428D02*
X9542381Y-28801428D01*
X9685238Y-28706190D01*
X9780476Y-28610952D01*
X9828095Y-28515714D01*
X9542381Y-29991905D02*
X9542381Y-29515714D01*
X10018571Y-29468095D01*
X9970952Y-29515714D01*
X9923333Y-29610952D01*
X9923333Y-29849048D01*
X9970952Y-29944286D01*
X10018571Y-29991905D01*
X10113810Y-30039524D01*
X10351905Y-30039524D01*
X10447143Y-29991905D01*
X10494762Y-29944286D01*
X10542381Y-29849048D01*
X10542381Y-29610952D01*
X10494762Y-29515714D01*
X10447143Y-29468095D01*
X9542381Y-30658571D02*
X9542381Y-30753810D01*
X9590000Y-30849048D01*
X9637619Y-30896667D01*
X9732857Y-30944286D01*
X9923333Y-30991905D01*
X10161429Y-30991905D01*
X10351905Y-30944286D01*
X10447143Y-30896667D01*
X10494762Y-30849048D01*
X10542381Y-30753810D01*
X10542381Y-30658571D01*
X10494762Y-30563333D01*
X10447143Y-30515714D01*
X10351905Y-30468095D01*
X10161429Y-30420476D01*
X9923333Y-30420476D01*
X9732857Y-30468095D01*
X9637619Y-30515714D01*
X9590000Y-30563333D01*
X9542381Y-30658571D01*
X9970952Y-31563333D02*
X9923333Y-31468095D01*
X9875714Y-31420476D01*
X9780476Y-31372857D01*
X9732857Y-31372857D01*
X9637619Y-31420476D01*
X9590000Y-31468095D01*
X9542381Y-31563333D01*
X9542381Y-31753810D01*
X9590000Y-31849048D01*
X9637619Y-31896667D01*
X9732857Y-31944286D01*
X9780476Y-31944286D01*
X9875714Y-31896667D01*
X9923333Y-31849048D01*
X9970952Y-31753810D01*
X9970952Y-31563333D01*
X10018571Y-31468095D01*
X10066190Y-31420476D01*
X10161429Y-31372857D01*
X10351905Y-31372857D01*
X10447143Y-31420476D01*
X10494762Y-31468095D01*
X10542381Y-31563333D01*
X10542381Y-31753810D01*
X10494762Y-31849048D01*
X10447143Y-31896667D01*
X10351905Y-31944286D01*
X10161429Y-31944286D01*
X10066190Y-31896667D01*
X10018571Y-31849048D01*
X9970952Y-31753810D01*
X121395238Y-97552381D02*
X121728572Y-97076190D01*
X121966667Y-97552381D02*
X121966667Y-96552381D01*
X121585714Y-96552381D01*
X121490476Y-96600000D01*
X121442857Y-96647619D01*
X121395238Y-96742857D01*
X121395238Y-96885714D01*
X121442857Y-96980952D01*
X121490476Y-97028571D01*
X121585714Y-97076190D01*
X121966667Y-97076190D01*
X120442857Y-97552381D02*
X121014286Y-97552381D01*
X120728572Y-97552381D02*
X120728572Y-96552381D01*
X120823810Y-96695238D01*
X120919048Y-96790476D01*
X121014286Y-96838095D01*
X120109524Y-96552381D02*
X119442857Y-96552381D01*
X119871429Y-97552381D01*
X118871429Y-96552381D02*
X118776190Y-96552381D01*
X118680952Y-96600000D01*
X118633333Y-96647619D01*
X118585714Y-96742857D01*
X118538095Y-96933333D01*
X118538095Y-97171429D01*
X118585714Y-97361905D01*
X118633333Y-97457143D01*
X118680952Y-97504762D01*
X118776190Y-97552381D01*
X118871429Y-97552381D01*
X118966667Y-97504762D01*
X119014286Y-97457143D01*
X119061905Y-97361905D01*
X119109524Y-97171429D01*
X119109524Y-96933333D01*
X119061905Y-96742857D01*
X119014286Y-96647619D01*
X118966667Y-96600000D01*
X118871429Y-96552381D01*
X118157143Y-96647619D02*
X118109524Y-96600000D01*
X118014286Y-96552381D01*
X117776190Y-96552381D01*
X117680952Y-96600000D01*
X117633333Y-96647619D01*
X117585714Y-96742857D01*
X117585714Y-96838095D01*
X117633333Y-96980952D01*
X118204762Y-97552381D01*
X117585714Y-97552381D01*
X17560476Y-41772381D02*
X17560476Y-42581905D01*
X17512857Y-42677143D01*
X17465238Y-42724762D01*
X17370000Y-42772381D01*
X17179523Y-42772381D01*
X17084285Y-42724762D01*
X17036666Y-42677143D01*
X16989047Y-42581905D01*
X16989047Y-41772381D01*
X15989047Y-42772381D02*
X16560476Y-42772381D01*
X16274762Y-42772381D02*
X16274762Y-41772381D01*
X16370000Y-41915238D01*
X16465238Y-42010476D01*
X16560476Y-42058095D01*
X15084285Y-41772381D02*
X15560476Y-41772381D01*
X15608095Y-42248571D01*
X15560476Y-42200952D01*
X15465238Y-42153333D01*
X15227142Y-42153333D01*
X15131904Y-42200952D01*
X15084285Y-42248571D01*
X15036666Y-42343810D01*
X15036666Y-42581905D01*
X15084285Y-42677143D01*
X15131904Y-42724762D01*
X15227142Y-42772381D01*
X15465238Y-42772381D01*
X15560476Y-42724762D01*
X15608095Y-42677143D01*
X14417619Y-41772381D02*
X14322380Y-41772381D01*
X14227142Y-41820000D01*
X14179523Y-41867619D01*
X14131904Y-41962857D01*
X14084285Y-42153333D01*
X14084285Y-42391429D01*
X14131904Y-42581905D01*
X14179523Y-42677143D01*
X14227142Y-42724762D01*
X14322380Y-42772381D01*
X14417619Y-42772381D01*
X14512857Y-42724762D01*
X14560476Y-42677143D01*
X14608095Y-42581905D01*
X14655714Y-42391429D01*
X14655714Y-42153333D01*
X14608095Y-41962857D01*
X14560476Y-41867619D01*
X14512857Y-41820000D01*
X14417619Y-41772381D01*
X13179523Y-41772381D02*
X13655714Y-41772381D01*
X13703333Y-42248571D01*
X13655714Y-42200952D01*
X13560476Y-42153333D01*
X13322380Y-42153333D01*
X13227142Y-42200952D01*
X13179523Y-42248571D01*
X13131904Y-42343810D01*
X13131904Y-42581905D01*
X13179523Y-42677143D01*
X13227142Y-42724762D01*
X13322380Y-42772381D01*
X13560476Y-42772381D01*
X13655714Y-42724762D01*
X13703333Y-42677143D01*
X14050476Y-36372381D02*
X14050476Y-37181905D01*
X14002857Y-37277143D01*
X13955238Y-37324762D01*
X13860000Y-37372381D01*
X13669523Y-37372381D01*
X13574285Y-37324762D01*
X13526666Y-37277143D01*
X13479047Y-37181905D01*
X13479047Y-36372381D01*
X12479047Y-37372381D02*
X13050476Y-37372381D01*
X12764762Y-37372381D02*
X12764762Y-36372381D01*
X12860000Y-36515238D01*
X12955238Y-36610476D01*
X13050476Y-36658095D01*
X11574285Y-36372381D02*
X12050476Y-36372381D01*
X12098095Y-36848571D01*
X12050476Y-36800952D01*
X11955238Y-36753333D01*
X11717142Y-36753333D01*
X11621904Y-36800952D01*
X11574285Y-36848571D01*
X11526666Y-36943810D01*
X11526666Y-37181905D01*
X11574285Y-37277143D01*
X11621904Y-37324762D01*
X11717142Y-37372381D01*
X11955238Y-37372381D01*
X12050476Y-37324762D01*
X12098095Y-37277143D01*
X10907619Y-36372381D02*
X10812380Y-36372381D01*
X10717142Y-36420000D01*
X10669523Y-36467619D01*
X10621904Y-36562857D01*
X10574285Y-36753333D01*
X10574285Y-36991429D01*
X10621904Y-37181905D01*
X10669523Y-37277143D01*
X10717142Y-37324762D01*
X10812380Y-37372381D01*
X10907619Y-37372381D01*
X11002857Y-37324762D01*
X11050476Y-37277143D01*
X11098095Y-37181905D01*
X11145714Y-36991429D01*
X11145714Y-36753333D01*
X11098095Y-36562857D01*
X11050476Y-36467619D01*
X11002857Y-36420000D01*
X10907619Y-36372381D01*
X9717142Y-36372381D02*
X9907619Y-36372381D01*
X10002857Y-36420000D01*
X10050476Y-36467619D01*
X10145714Y-36610476D01*
X10193333Y-36800952D01*
X10193333Y-37181905D01*
X10145714Y-37277143D01*
X10098095Y-37324762D01*
X10002857Y-37372381D01*
X9812380Y-37372381D01*
X9717142Y-37324762D01*
X9669523Y-37277143D01*
X9621904Y-37181905D01*
X9621904Y-36943810D01*
X9669523Y-36848571D01*
X9717142Y-36800952D01*
X9812380Y-36753333D01*
X10002857Y-36753333D01*
X10098095Y-36800952D01*
X10145714Y-36848571D01*
X10193333Y-36943810D01*
X91595238Y-5252381D02*
X91928572Y-4776190D01*
X92166667Y-5252381D02*
X92166667Y-4252381D01*
X91785714Y-4252381D01*
X91690476Y-4300000D01*
X91642857Y-4347619D01*
X91595238Y-4442857D01*
X91595238Y-4585714D01*
X91642857Y-4680952D01*
X91690476Y-4728571D01*
X91785714Y-4776190D01*
X92166667Y-4776190D01*
X90642857Y-5252381D02*
X91214286Y-5252381D01*
X90928572Y-5252381D02*
X90928572Y-4252381D01*
X91023810Y-4395238D01*
X91119048Y-4490476D01*
X91214286Y-4538095D01*
X90023810Y-4252381D02*
X89928571Y-4252381D01*
X89833333Y-4300000D01*
X89785714Y-4347619D01*
X89738095Y-4442857D01*
X89690476Y-4633333D01*
X89690476Y-4871429D01*
X89738095Y-5061905D01*
X89785714Y-5157143D01*
X89833333Y-5204762D01*
X89928571Y-5252381D01*
X90023810Y-5252381D01*
X90119048Y-5204762D01*
X90166667Y-5157143D01*
X90214286Y-5061905D01*
X90261905Y-4871429D01*
X90261905Y-4633333D01*
X90214286Y-4442857D01*
X90166667Y-4347619D01*
X90119048Y-4300000D01*
X90023810Y-4252381D01*
X89071429Y-4252381D02*
X88976190Y-4252381D01*
X88880952Y-4300000D01*
X88833333Y-4347619D01*
X88785714Y-4442857D01*
X88738095Y-4633333D01*
X88738095Y-4871429D01*
X88785714Y-5061905D01*
X88833333Y-5157143D01*
X88880952Y-5204762D01*
X88976190Y-5252381D01*
X89071429Y-5252381D01*
X89166667Y-5204762D01*
X89214286Y-5157143D01*
X89261905Y-5061905D01*
X89309524Y-4871429D01*
X89309524Y-4633333D01*
X89261905Y-4442857D01*
X89214286Y-4347619D01*
X89166667Y-4300000D01*
X89071429Y-4252381D01*
X87833333Y-4252381D02*
X88309524Y-4252381D01*
X88357143Y-4728571D01*
X88309524Y-4680952D01*
X88214286Y-4633333D01*
X87976190Y-4633333D01*
X87880952Y-4680952D01*
X87833333Y-4728571D01*
X87785714Y-4823810D01*
X87785714Y-5061905D01*
X87833333Y-5157143D01*
X87880952Y-5204762D01*
X87976190Y-5252381D01*
X88214286Y-5252381D01*
X88309524Y-5204762D01*
X88357143Y-5157143D01*
X91895238Y-16552381D02*
X92228572Y-16076190D01*
X92466667Y-16552381D02*
X92466667Y-15552381D01*
X92085714Y-15552381D01*
X91990476Y-15600000D01*
X91942857Y-15647619D01*
X91895238Y-15742857D01*
X91895238Y-15885714D01*
X91942857Y-15980952D01*
X91990476Y-16028571D01*
X92085714Y-16076190D01*
X92466667Y-16076190D01*
X90942857Y-16552381D02*
X91514286Y-16552381D01*
X91228572Y-16552381D02*
X91228572Y-15552381D01*
X91323810Y-15695238D01*
X91419048Y-15790476D01*
X91514286Y-15838095D01*
X90323810Y-15552381D02*
X90228571Y-15552381D01*
X90133333Y-15600000D01*
X90085714Y-15647619D01*
X90038095Y-15742857D01*
X89990476Y-15933333D01*
X89990476Y-16171429D01*
X90038095Y-16361905D01*
X90085714Y-16457143D01*
X90133333Y-16504762D01*
X90228571Y-16552381D01*
X90323810Y-16552381D01*
X90419048Y-16504762D01*
X90466667Y-16457143D01*
X90514286Y-16361905D01*
X90561905Y-16171429D01*
X90561905Y-15933333D01*
X90514286Y-15742857D01*
X90466667Y-15647619D01*
X90419048Y-15600000D01*
X90323810Y-15552381D01*
X89371429Y-15552381D02*
X89276190Y-15552381D01*
X89180952Y-15600000D01*
X89133333Y-15647619D01*
X89085714Y-15742857D01*
X89038095Y-15933333D01*
X89038095Y-16171429D01*
X89085714Y-16361905D01*
X89133333Y-16457143D01*
X89180952Y-16504762D01*
X89276190Y-16552381D01*
X89371429Y-16552381D01*
X89466667Y-16504762D01*
X89514286Y-16457143D01*
X89561905Y-16361905D01*
X89609524Y-16171429D01*
X89609524Y-15933333D01*
X89561905Y-15742857D01*
X89514286Y-15647619D01*
X89466667Y-15600000D01*
X89371429Y-15552381D01*
X88180952Y-15552381D02*
X88371429Y-15552381D01*
X88466667Y-15600000D01*
X88514286Y-15647619D01*
X88609524Y-15790476D01*
X88657143Y-15980952D01*
X88657143Y-16361905D01*
X88609524Y-16457143D01*
X88561905Y-16504762D01*
X88466667Y-16552381D01*
X88276190Y-16552381D01*
X88180952Y-16504762D01*
X88133333Y-16457143D01*
X88085714Y-16361905D01*
X88085714Y-16123810D01*
X88133333Y-16028571D01*
X88180952Y-15980952D01*
X88276190Y-15933333D01*
X88466667Y-15933333D01*
X88561905Y-15980952D01*
X88609524Y-16028571D01*
X88657143Y-16123810D01*
M02*
