G04 #@! TF.FileFunction,Copper,L2,Bot,Signal*
%FSLAX46Y46*%
G04 Gerber Fmt 4.6, Leading zero omitted, Abs format (unit mm)*
G04 Created by KiCad (PCBNEW 4.0.2-stable) date 5/6/2016 11:18:34 AM*
%MOMM*%
G01*
G04 APERTURE LIST*
%ADD10C,0.100000*%
%ADD11R,1.727200X2.032000*%
%ADD12O,1.727200X2.032000*%
%ADD13R,2.032000X1.727200*%
%ADD14O,2.032000X1.727200*%
%ADD15C,0.685800*%
%ADD16C,0.152400*%
%ADD17C,0.254000*%
G04 APERTURE END LIST*
D10*
D11*
X194310000Y-83820000D03*
D12*
X191770000Y-83820000D03*
X189230000Y-83820000D03*
D11*
X184785000Y-102870000D03*
D12*
X182245000Y-102870000D03*
X179705000Y-102870000D03*
D13*
X183515000Y-86360000D03*
D14*
X183515000Y-88900000D03*
X183515000Y-91440000D03*
D15*
X180340000Y-83820000D03*
X179070000Y-98425000D03*
D16*
X189230000Y-83820000D02*
X180340000Y-83820000D01*
X179705000Y-102870000D02*
X179705000Y-99060000D01*
X179705000Y-99060000D02*
X179070000Y-98425000D01*
D17*
G36*
X187938046Y-82905680D02*
X187744816Y-83458087D01*
X187889076Y-83693000D01*
X189103000Y-83693000D01*
X189103000Y-83673000D01*
X189357000Y-83673000D01*
X189357000Y-83693000D01*
X189377000Y-83693000D01*
X189377000Y-83947000D01*
X189357000Y-83947000D01*
X189357000Y-85306217D01*
X189589026Y-85427358D01*
X189604791Y-85424709D01*
X190132036Y-85170732D01*
X190503539Y-84754931D01*
X190710330Y-85064415D01*
X191196511Y-85389271D01*
X191770000Y-85503345D01*
X192343489Y-85389271D01*
X192829670Y-85064415D01*
X192839243Y-85050087D01*
X192843238Y-85071317D01*
X192982310Y-85287441D01*
X193194510Y-85432431D01*
X193446400Y-85483440D01*
X195173600Y-85483440D01*
X195408917Y-85439162D01*
X195625041Y-85300090D01*
X195770031Y-85087890D01*
X195821040Y-84836000D01*
X195821040Y-82804000D01*
X195797143Y-82677000D01*
X199263000Y-82677000D01*
X199263000Y-104648000D01*
X170307000Y-104648000D01*
X170307000Y-103231913D01*
X178219816Y-103231913D01*
X178413046Y-103784320D01*
X178802964Y-104220732D01*
X179330209Y-104474709D01*
X179345974Y-104477358D01*
X179578000Y-104356217D01*
X179578000Y-102997000D01*
X178364076Y-102997000D01*
X178219816Y-103231913D01*
X170307000Y-103231913D01*
X170307000Y-102508087D01*
X178219816Y-102508087D01*
X178364076Y-102743000D01*
X179578000Y-102743000D01*
X179578000Y-101383783D01*
X179832000Y-101383783D01*
X179832000Y-102743000D01*
X179852000Y-102743000D01*
X179852000Y-102997000D01*
X179832000Y-102997000D01*
X179832000Y-104356217D01*
X180064026Y-104477358D01*
X180079791Y-104474709D01*
X180607036Y-104220732D01*
X180978539Y-103804931D01*
X181185330Y-104114415D01*
X181671511Y-104439271D01*
X182245000Y-104553345D01*
X182818489Y-104439271D01*
X183304670Y-104114415D01*
X183314243Y-104100087D01*
X183318238Y-104121317D01*
X183457310Y-104337441D01*
X183669510Y-104482431D01*
X183921400Y-104533440D01*
X185648600Y-104533440D01*
X185883917Y-104489162D01*
X186100041Y-104350090D01*
X186245031Y-104137890D01*
X186296040Y-103886000D01*
X186296040Y-101854000D01*
X186251762Y-101618683D01*
X186112690Y-101402559D01*
X185900490Y-101257569D01*
X185648600Y-101206560D01*
X183921400Y-101206560D01*
X183686083Y-101250838D01*
X183469959Y-101389910D01*
X183324969Y-101602110D01*
X183316600Y-101643439D01*
X183304670Y-101625585D01*
X182818489Y-101300729D01*
X182245000Y-101186655D01*
X181671511Y-101300729D01*
X181185330Y-101625585D01*
X180978539Y-101935069D01*
X180607036Y-101519268D01*
X180079791Y-101265291D01*
X180064026Y-101262642D01*
X179832000Y-101383783D01*
X179578000Y-101383783D01*
X179345974Y-101262642D01*
X179330209Y-101265291D01*
X178802964Y-101519268D01*
X178413046Y-101955680D01*
X178219816Y-102508087D01*
X170307000Y-102508087D01*
X170307000Y-91799026D01*
X181907642Y-91799026D01*
X181910291Y-91814791D01*
X182164268Y-92342036D01*
X182600680Y-92731954D01*
X183153087Y-92925184D01*
X183388000Y-92780924D01*
X183388000Y-91567000D01*
X183642000Y-91567000D01*
X183642000Y-92780924D01*
X183876913Y-92925184D01*
X184429320Y-92731954D01*
X184865732Y-92342036D01*
X185119709Y-91814791D01*
X185122358Y-91799026D01*
X185001217Y-91567000D01*
X183642000Y-91567000D01*
X183388000Y-91567000D01*
X182028783Y-91567000D01*
X181907642Y-91799026D01*
X170307000Y-91799026D01*
X170307000Y-88900000D01*
X181831655Y-88900000D01*
X181945729Y-89473489D01*
X182270585Y-89959670D01*
X182580069Y-90166461D01*
X182164268Y-90537964D01*
X181910291Y-91065209D01*
X181907642Y-91080974D01*
X182028783Y-91313000D01*
X183388000Y-91313000D01*
X183388000Y-91293000D01*
X183642000Y-91293000D01*
X183642000Y-91313000D01*
X185001217Y-91313000D01*
X185122358Y-91080974D01*
X185119709Y-91065209D01*
X184865732Y-90537964D01*
X184449931Y-90166461D01*
X184759415Y-89959670D01*
X185084271Y-89473489D01*
X185198345Y-88900000D01*
X185084271Y-88326511D01*
X184759415Y-87840330D01*
X184745087Y-87830757D01*
X184766317Y-87826762D01*
X184982441Y-87687690D01*
X185127431Y-87475490D01*
X185178440Y-87223600D01*
X185178440Y-85496400D01*
X185134162Y-85261083D01*
X184995090Y-85044959D01*
X184782890Y-84899969D01*
X184531000Y-84848960D01*
X182499000Y-84848960D01*
X182263683Y-84893238D01*
X182047559Y-85032310D01*
X181902569Y-85244510D01*
X181851560Y-85496400D01*
X181851560Y-87223600D01*
X181895838Y-87458917D01*
X182034910Y-87675041D01*
X182247110Y-87820031D01*
X182288439Y-87828400D01*
X182270585Y-87840330D01*
X181945729Y-88326511D01*
X181831655Y-88900000D01*
X170307000Y-88900000D01*
X170307000Y-84181913D01*
X187744816Y-84181913D01*
X187938046Y-84734320D01*
X188327964Y-85170732D01*
X188855209Y-85424709D01*
X188870974Y-85427358D01*
X189103000Y-85306217D01*
X189103000Y-83947000D01*
X187889076Y-83947000D01*
X187744816Y-84181913D01*
X170307000Y-84181913D01*
X170307000Y-82677000D01*
X188142363Y-82677000D01*
X187938046Y-82905680D01*
X187938046Y-82905680D01*
G37*
X187938046Y-82905680D02*
X187744816Y-83458087D01*
X187889076Y-83693000D01*
X189103000Y-83693000D01*
X189103000Y-83673000D01*
X189357000Y-83673000D01*
X189357000Y-83693000D01*
X189377000Y-83693000D01*
X189377000Y-83947000D01*
X189357000Y-83947000D01*
X189357000Y-85306217D01*
X189589026Y-85427358D01*
X189604791Y-85424709D01*
X190132036Y-85170732D01*
X190503539Y-84754931D01*
X190710330Y-85064415D01*
X191196511Y-85389271D01*
X191770000Y-85503345D01*
X192343489Y-85389271D01*
X192829670Y-85064415D01*
X192839243Y-85050087D01*
X192843238Y-85071317D01*
X192982310Y-85287441D01*
X193194510Y-85432431D01*
X193446400Y-85483440D01*
X195173600Y-85483440D01*
X195408917Y-85439162D01*
X195625041Y-85300090D01*
X195770031Y-85087890D01*
X195821040Y-84836000D01*
X195821040Y-82804000D01*
X195797143Y-82677000D01*
X199263000Y-82677000D01*
X199263000Y-104648000D01*
X170307000Y-104648000D01*
X170307000Y-103231913D01*
X178219816Y-103231913D01*
X178413046Y-103784320D01*
X178802964Y-104220732D01*
X179330209Y-104474709D01*
X179345974Y-104477358D01*
X179578000Y-104356217D01*
X179578000Y-102997000D01*
X178364076Y-102997000D01*
X178219816Y-103231913D01*
X170307000Y-103231913D01*
X170307000Y-102508087D01*
X178219816Y-102508087D01*
X178364076Y-102743000D01*
X179578000Y-102743000D01*
X179578000Y-101383783D01*
X179832000Y-101383783D01*
X179832000Y-102743000D01*
X179852000Y-102743000D01*
X179852000Y-102997000D01*
X179832000Y-102997000D01*
X179832000Y-104356217D01*
X180064026Y-104477358D01*
X180079791Y-104474709D01*
X180607036Y-104220732D01*
X180978539Y-103804931D01*
X181185330Y-104114415D01*
X181671511Y-104439271D01*
X182245000Y-104553345D01*
X182818489Y-104439271D01*
X183304670Y-104114415D01*
X183314243Y-104100087D01*
X183318238Y-104121317D01*
X183457310Y-104337441D01*
X183669510Y-104482431D01*
X183921400Y-104533440D01*
X185648600Y-104533440D01*
X185883917Y-104489162D01*
X186100041Y-104350090D01*
X186245031Y-104137890D01*
X186296040Y-103886000D01*
X186296040Y-101854000D01*
X186251762Y-101618683D01*
X186112690Y-101402559D01*
X185900490Y-101257569D01*
X185648600Y-101206560D01*
X183921400Y-101206560D01*
X183686083Y-101250838D01*
X183469959Y-101389910D01*
X183324969Y-101602110D01*
X183316600Y-101643439D01*
X183304670Y-101625585D01*
X182818489Y-101300729D01*
X182245000Y-101186655D01*
X181671511Y-101300729D01*
X181185330Y-101625585D01*
X180978539Y-101935069D01*
X180607036Y-101519268D01*
X180079791Y-101265291D01*
X180064026Y-101262642D01*
X179832000Y-101383783D01*
X179578000Y-101383783D01*
X179345974Y-101262642D01*
X179330209Y-101265291D01*
X178802964Y-101519268D01*
X178413046Y-101955680D01*
X178219816Y-102508087D01*
X170307000Y-102508087D01*
X170307000Y-91799026D01*
X181907642Y-91799026D01*
X181910291Y-91814791D01*
X182164268Y-92342036D01*
X182600680Y-92731954D01*
X183153087Y-92925184D01*
X183388000Y-92780924D01*
X183388000Y-91567000D01*
X183642000Y-91567000D01*
X183642000Y-92780924D01*
X183876913Y-92925184D01*
X184429320Y-92731954D01*
X184865732Y-92342036D01*
X185119709Y-91814791D01*
X185122358Y-91799026D01*
X185001217Y-91567000D01*
X183642000Y-91567000D01*
X183388000Y-91567000D01*
X182028783Y-91567000D01*
X181907642Y-91799026D01*
X170307000Y-91799026D01*
X170307000Y-88900000D01*
X181831655Y-88900000D01*
X181945729Y-89473489D01*
X182270585Y-89959670D01*
X182580069Y-90166461D01*
X182164268Y-90537964D01*
X181910291Y-91065209D01*
X181907642Y-91080974D01*
X182028783Y-91313000D01*
X183388000Y-91313000D01*
X183388000Y-91293000D01*
X183642000Y-91293000D01*
X183642000Y-91313000D01*
X185001217Y-91313000D01*
X185122358Y-91080974D01*
X185119709Y-91065209D01*
X184865732Y-90537964D01*
X184449931Y-90166461D01*
X184759415Y-89959670D01*
X185084271Y-89473489D01*
X185198345Y-88900000D01*
X185084271Y-88326511D01*
X184759415Y-87840330D01*
X184745087Y-87830757D01*
X184766317Y-87826762D01*
X184982441Y-87687690D01*
X185127431Y-87475490D01*
X185178440Y-87223600D01*
X185178440Y-85496400D01*
X185134162Y-85261083D01*
X184995090Y-85044959D01*
X184782890Y-84899969D01*
X184531000Y-84848960D01*
X182499000Y-84848960D01*
X182263683Y-84893238D01*
X182047559Y-85032310D01*
X181902569Y-85244510D01*
X181851560Y-85496400D01*
X181851560Y-87223600D01*
X181895838Y-87458917D01*
X182034910Y-87675041D01*
X182247110Y-87820031D01*
X182288439Y-87828400D01*
X182270585Y-87840330D01*
X181945729Y-88326511D01*
X181831655Y-88900000D01*
X170307000Y-88900000D01*
X170307000Y-84181913D01*
X187744816Y-84181913D01*
X187938046Y-84734320D01*
X188327964Y-85170732D01*
X188855209Y-85424709D01*
X188870974Y-85427358D01*
X189103000Y-85306217D01*
X189103000Y-83947000D01*
X187889076Y-83947000D01*
X187744816Y-84181913D01*
X170307000Y-84181913D01*
X170307000Y-82677000D01*
X188142363Y-82677000D01*
X187938046Y-82905680D01*
M02*
