M48
;DRILL file {KiCad 4.0.6} date Sunday, July 09, 2017 'PMt' 04:44:59 PM
;FORMAT={-:-/ absolute / inch / decimal}
FMAT,2
INCH,TZ
T1C0.016
T2C0.024
T3C0.030
T4C0.039
T5C0.047
T6C0.217
%
G90
G05
M72
T1
X0.15Y-0.65
X0.15Y-2.
X0.15Y-2.
X0.1639Y-2.0514
X0.21Y-2.32
X0.3Y-1.9
X0.34Y-2.38
X0.35Y-1.9
X0.3713Y-2.2713
X0.44Y-2.01
X0.44Y-2.32
X0.4666Y-2.06
X0.5Y-1.95
X0.56Y-1.92
X0.57Y-2.49
X0.59Y-2.2406
X0.6Y-1.92
X0.61Y-2.07
X0.63Y-2.41
X0.64Y-1.92
X0.67Y-1.97
X0.7Y-1.89
X0.7Y-1.89
X0.74Y-1.78
X0.74Y-2.23
X0.76Y-2.63
X0.7613Y-2.1613
X0.7815Y-2.1161
X0.79Y-2.41
X0.82Y-2.16
X0.82Y-2.69
X0.9713Y-0.55
X0.9713Y-2.05
X0.9713Y-2.19
X0.9713Y-2.33
X0.9813Y-1.89
X1.1287Y-0.55
X1.1287Y-0.7
X1.13Y-2.5
X1.13Y-2.64
X1.1486Y-1.3917
X1.1496Y-0.8406
X1.15Y-1.75
X1.15Y-2.05
X1.2Y-1.15
X1.25Y-2.38
X1.39Y-2.47
X1.4217Y-2.1661
X1.4449Y-0.9988
X1.45Y-1.3028
X1.4559Y-1.5602
X1.4657Y-1.9142
X1.7441Y-1.0551
X1.8382Y-1.6555
X1.875Y-2.735
X1.9551Y-1.2864
X2.2319Y-2.7382
X2.3488Y-2.3691
X2.5598Y-0.0311
X2.6547Y-1.6551
X2.7114Y-2.8874
X2.7114Y-3.0177
X2.7122Y-0.2469
X2.7717Y-1.286
X2.9571Y-2.737
X3.074Y-2.3679
X3.2626Y-0.0327
X3.2965Y-1.6539
X3.3748Y-1.1126
X3.4106Y-0.9744
X3.4134Y-1.2848
X3.4354Y-2.8618
X3.4354Y-3.0303
X3.4449Y-0.2429
X3.6902Y-2.7366
X3.8071Y-2.3675
X3.9945Y-0.0319
X4.113Y-1.6535
X4.1594Y-2.8543
X4.161Y-3.0469
X4.1732Y-0.2339
X4.1866Y-1.1378
X4.2256Y-0.9764
X4.2299Y-1.2844
X4.4154Y-2.7354
X4.5323Y-2.3663
X4.7094Y-0.0339
X4.7591Y-1.6524
X4.835Y-1.122
X4.876Y-1.2833
X4.8764Y-0.9724
X4.9087Y-0.2004
X4.9091Y-2.8488
X4.911Y-3.0484
X5.1528Y-2.735
X5.2697Y-2.3659
X5.4508Y-0.0358
X5.5756Y-1.652
X5.6299Y-0.2504
X5.635Y-2.8346
X5.635Y-3.0528
X5.6567Y-1.1165
X5.689Y-0.961
X5.6925Y-1.2829
X5.878Y-2.7339
X5.9949Y-2.3648
X6.1843Y-0.0346
X6.2173Y-1.6508
X6.2917Y-1.1689
X6.3291Y-0.9571
X6.3343Y-1.2817
X6.34Y-0.03
X6.35Y-2.15
X6.35Y-2.8
X6.361Y-0.2437
X6.58Y-2.57
X6.6Y-1.2
X6.71Y-2.8
X6.76Y-2.84
X6.8Y-1.47
X6.84Y-2.27
X6.8769Y-2.56
X6.88Y-0.61
X6.88Y-0.61
X6.92Y-0.87
X6.92Y-1.08
X6.946Y-2.7894
X6.946Y-2.88
X7.Y-0.52
X7.006Y-1.1
X7.02Y-1.46
X7.05Y-1.69
X7.09Y-3.09
X7.1087Y-2.23
X7.16Y-1.1
X7.21Y-0.71
X7.2831Y-1.56
X7.3087Y-1.36
X7.4131Y-0.66
X7.4287Y-0.51
X7.46Y-1.1387
X7.52Y-2.2613
X7.56Y-1.6313
T2
X0.1376Y-0.3
X0.1376Y-3.2
X0.1848Y-0.1848
X0.1848Y-0.4152
X0.1848Y-3.0848
X0.1848Y-3.3152
X0.3Y-0.1376
X0.3Y-0.4624
X0.3Y-3.0376
X0.3Y-3.3624
X0.4152Y-0.1848
X0.4152Y-0.4152
X0.4152Y-3.0848
X0.4152Y-3.3152
X0.4624Y-0.3
X0.4624Y-3.2
X7.5776Y-0.3
X7.5776Y-3.2
X7.6248Y-0.1848
X7.6248Y-0.4152
X7.6248Y-3.0848
X7.6248Y-3.3152
X7.74Y-0.1376
X7.74Y-0.4624
X7.74Y-3.0376
X7.74Y-3.3624
X7.8552Y-0.1848
X7.8552Y-0.4152
X7.8552Y-3.0848
X7.8552Y-3.3152
X7.9024Y-0.3
X7.9024Y-3.2
T3
X1.8165Y-0.9457
X1.8165Y-1.0457
X1.8165Y-1.1457
X2.1917Y-0.9457
X2.1917Y-1.0457
X2.1917Y-1.1457
X2.2102Y-2.0283
X2.2102Y-2.1283
X2.2102Y-2.2283
X2.5854Y-2.0283
X2.5854Y-2.1283
X2.5854Y-2.2283
X2.6331Y-0.9453
X2.6331Y-1.0453
X2.6331Y-1.1453
X2.9354Y-2.0272
X2.9354Y-2.1272
X2.9354Y-2.2272
X3.0083Y-0.9453
X3.0083Y-1.0453
X3.0083Y-1.1453
X3.2748Y-0.9441
X3.2748Y-1.0441
X3.2748Y-1.1441
X3.3106Y-2.0272
X3.3106Y-2.1272
X3.3106Y-2.2272
X3.65Y-0.9441
X3.65Y-1.0441
X3.65Y-1.1441
X3.6685Y-2.0268
X3.6685Y-2.1268
X3.6685Y-2.2268
X4.0437Y-2.0268
X4.0437Y-2.1268
X4.0437Y-2.2268
X4.0913Y-0.9437
X4.0913Y-1.0437
X4.0913Y-1.1437
X4.3937Y-2.0256
X4.3937Y-2.1256
X4.3937Y-2.2256
X4.4665Y-0.9437
X4.4665Y-1.0437
X4.4665Y-1.1437
X4.7374Y-0.9425
X4.7374Y-1.0425
X4.7374Y-1.1425
X4.7689Y-2.0256
X4.7689Y-2.1256
X4.7689Y-2.2256
X5.1126Y-0.9425
X5.1126Y-1.0425
X5.1126Y-1.1425
X5.1311Y-2.0252
X5.1311Y-2.1252
X5.1311Y-2.2252
X5.5063Y-2.0252
X5.5063Y-2.1252
X5.5063Y-2.2252
X5.5539Y-0.9421
X5.5539Y-1.0421
X5.5539Y-1.1421
X5.8563Y-2.024
X5.8563Y-2.124
X5.8563Y-2.224
X5.9291Y-0.9421
X5.9291Y-1.0421
X5.9291Y-1.1421
X6.1957Y-0.9409
X6.1957Y-1.0409
X6.1957Y-1.1409
X6.2315Y-2.024
X6.2315Y-2.124
X6.2315Y-2.224
X6.5709Y-0.9409
X6.5709Y-1.0409
X6.5709Y-1.1409
T4
X0.15Y-0.75
X0.15Y-0.95
X0.15Y-1.15
X0.15Y-1.35
X0.15Y-1.55
X0.25Y-0.75
X0.25Y-0.95
X0.25Y-1.15
X0.25Y-1.35
X0.25Y-1.55
X0.35Y-0.75
X0.35Y-0.95
X0.35Y-1.15
X0.35Y-1.35
X0.35Y-1.55
X1.5988Y-0.2965
X1.7949Y-2.3646
X1.8575Y-0.2685
X1.8819Y-2.2303
T5
X0.7765Y-3.185
X0.9143Y-3.185
X1.052Y-3.185
X1.1898Y-3.185
X1.2963Y-0.315
X1.4341Y-0.315
X2.0846Y-3.185
X2.0915Y-0.314
X2.2224Y-3.185
X2.2293Y-0.314
X2.4547Y-3.185
X2.4577Y-0.314
X2.5925Y-3.185
X2.5955Y-0.314
X2.8199Y-3.185
X2.8258Y-0.314
X2.9577Y-3.185
X2.9636Y-0.314
X3.1831Y-3.185
X3.1929Y-0.314
X3.3209Y-3.185
X3.3307Y-0.314
X3.5482Y-3.185
X3.5581Y-0.314
X3.686Y-3.185
X3.6959Y-0.314
X3.9134Y-3.185
X3.9232Y-0.314
X4.0512Y-3.185
X4.061Y-0.314
X4.2795Y-3.185
X4.2884Y-0.314
X4.4173Y-3.185
X4.4262Y-0.314
X4.6467Y-3.185
X4.6535Y-0.314
X4.7844Y-3.185
X4.7913Y-0.314
X5.0128Y-3.185
X5.0197Y-0.314
X5.1506Y-3.185
X5.1575Y-0.314
X5.377Y-3.185
X5.3829Y-0.314
X5.5148Y-3.185
X5.5207Y-0.314
X5.7421Y-3.185
X5.7461Y-0.314
X5.8799Y-3.185
X5.8839Y-0.314
X6.1063Y-3.185
X6.1112Y-0.314
X6.2441Y-3.185
X6.249Y-0.314
X6.4695Y-3.185
X6.4764Y-0.314
X6.6073Y-3.185
X6.6142Y-0.314
X7.72Y-1.
X7.72Y-1.1378
X7.72Y-1.6
X7.72Y-1.7378
X7.72Y-2.2422
X7.72Y-2.38
T6
X0.3Y-0.3
X0.3Y-3.2
X7.7386Y-3.2
X7.74Y-0.3
T0
M30
