G04 #@! TF.FileFunction,Soldermask,Bot*
%FSLAX46Y46*%
G04 Gerber Fmt 4.6, Leading zero omitted, Abs format (unit mm)*
G04 Created by KiCad (PCBNEW 4.0.4-stable) date Wednesday, June 14, 2017 'PMt' 02:59:16 PM*
%MOMM*%
%LPD*%
G01*
G04 APERTURE LIST*
%ADD10C,0.100000*%
%ADD11C,2.400000*%
%ADD12R,1.920000X2.180000*%
%ADD13C,11.400000*%
%ADD14C,1.100000*%
%ADD15O,2.200000X2.200000*%
G04 APERTURE END LIST*
D10*
D11*
X164325000Y-80900000D03*
X167825000Y-80900000D03*
D12*
X166900000Y-26440000D03*
X157370000Y-26440000D03*
X166900000Y-23900000D03*
X166900000Y-28980000D03*
X157370000Y-28980000D03*
X157370000Y-23900000D03*
X150600000Y-26470000D03*
X141070000Y-26470000D03*
X150600000Y-23930000D03*
X150600000Y-29010000D03*
X141070000Y-29010000D03*
X141070000Y-23930000D03*
X129860000Y-26480000D03*
X120330000Y-26480000D03*
X129860000Y-23940000D03*
X129860000Y-29020000D03*
X120330000Y-29020000D03*
X120330000Y-23940000D03*
X158280000Y-53950000D03*
X148750000Y-53950000D03*
X158280000Y-51410000D03*
X158280000Y-56490000D03*
X148750000Y-56490000D03*
X148750000Y-51410000D03*
X139860000Y-53980000D03*
X130330000Y-53980000D03*
X139860000Y-51440000D03*
X139860000Y-56520000D03*
X130330000Y-56520000D03*
X130330000Y-51440000D03*
X113450000Y-26510000D03*
X103920000Y-26510000D03*
X113450000Y-23970000D03*
X113450000Y-29050000D03*
X103920000Y-29050000D03*
X103920000Y-23970000D03*
X92710000Y-26520000D03*
X83180000Y-26520000D03*
X92710000Y-23980000D03*
X92710000Y-29060000D03*
X83180000Y-29060000D03*
X83180000Y-23980000D03*
X121130000Y-53990000D03*
X111600000Y-53990000D03*
X121130000Y-51450000D03*
X121130000Y-56530000D03*
X111600000Y-56530000D03*
X111600000Y-51450000D03*
X102710000Y-54020000D03*
X93180000Y-54020000D03*
X102710000Y-51480000D03*
X102710000Y-56560000D03*
X93180000Y-56560000D03*
X93180000Y-51480000D03*
X84090000Y-54030000D03*
X74560000Y-54030000D03*
X84090000Y-51490000D03*
X84090000Y-56570000D03*
X74560000Y-56570000D03*
X74560000Y-51490000D03*
X76410000Y-26550000D03*
X66880000Y-26550000D03*
X76410000Y-24010000D03*
X76410000Y-29090000D03*
X66880000Y-29090000D03*
X66880000Y-24010000D03*
X65670000Y-54060000D03*
X56140000Y-54060000D03*
X65670000Y-51520000D03*
X65670000Y-56600000D03*
X56140000Y-56600000D03*
X56140000Y-51520000D03*
D11*
X56625000Y-7975000D03*
X53125000Y-7975000D03*
X65925000Y-7975000D03*
X62425000Y-7975000D03*
X75275000Y-7975000D03*
X71775000Y-7975000D03*
X84600000Y-7975000D03*
X81100000Y-7975000D03*
X93875000Y-7975000D03*
X90375000Y-7975000D03*
X103150000Y-7975000D03*
X99650000Y-7975000D03*
X112425000Y-7975000D03*
X108925000Y-7975000D03*
X121700000Y-7975000D03*
X118200000Y-7975000D03*
X131000000Y-7975000D03*
X127500000Y-7975000D03*
X140225000Y-7975000D03*
X136725000Y-7975000D03*
X149450000Y-7975000D03*
X145950000Y-7975000D03*
X158725000Y-7975000D03*
X155225000Y-7975000D03*
X168000000Y-7975000D03*
X164500000Y-7975000D03*
X52950000Y-80900000D03*
X56450000Y-80900000D03*
X62350000Y-80900000D03*
X65850000Y-80900000D03*
X71625000Y-80900000D03*
X75125000Y-80900000D03*
X80850000Y-80900000D03*
X84350000Y-80900000D03*
X90125000Y-80900000D03*
X93625000Y-80900000D03*
X99400000Y-80900000D03*
X102900000Y-80900000D03*
X108700000Y-80900000D03*
X112200000Y-80900000D03*
X118025000Y-80900000D03*
X121525000Y-80900000D03*
X127325000Y-80900000D03*
X130825000Y-80900000D03*
X136575000Y-80900000D03*
X140075000Y-80900000D03*
X145850000Y-80900000D03*
X149350000Y-80900000D03*
X155100000Y-80900000D03*
X158600000Y-80900000D03*
X36425000Y-8000000D03*
X32925000Y-8000000D03*
D12*
X55670000Y-26560000D03*
X46140000Y-26560000D03*
X55670000Y-24020000D03*
X55670000Y-29100000D03*
X46140000Y-29100000D03*
X46140000Y-24020000D03*
D13*
X7620000Y-7620000D03*
D14*
X11745000Y-7620000D03*
X10546815Y-10546815D03*
X7620000Y-11745000D03*
X4693185Y-10546815D03*
X3495000Y-7620000D03*
X4693185Y-4693185D03*
X7620000Y-3495000D03*
X10546815Y-4693185D03*
D13*
X208748185Y-81723185D03*
D14*
X212873185Y-81723185D03*
X211675000Y-84650000D03*
X208748185Y-85848185D03*
X205821370Y-84650000D03*
X204623185Y-81723185D03*
X205821370Y-78796370D03*
X208748185Y-77598185D03*
X211675000Y-78796370D03*
D13*
X7620000Y-81280000D03*
D14*
X11745000Y-81280000D03*
X10546815Y-84206815D03*
X7620000Y-85405000D03*
X4693185Y-84206815D03*
X3495000Y-81280000D03*
X4693185Y-78353185D03*
X7620000Y-77155000D03*
X10546815Y-78353185D03*
D13*
X208775000Y-7075000D03*
D14*
X212900000Y-7075000D03*
X211701815Y-10001815D03*
X208775000Y-11200000D03*
X205848185Y-10001815D03*
X204650000Y-7075000D03*
X205848185Y-4148185D03*
X208775000Y-2950000D03*
X211701815Y-4148185D03*
D15*
X196850000Y-67310000D03*
X196850000Y-64770000D03*
X196850000Y-62230000D03*
X196850000Y-29210000D03*
X196850000Y-26670000D03*
X196850000Y-24130000D03*
X196850000Y-49530000D03*
X196850000Y-46990000D03*
X196850000Y-44450000D03*
D11*
X207900000Y-59780000D03*
X207900000Y-56280000D03*
X207900000Y-36920000D03*
X207900000Y-33420000D03*
X207900000Y-48350000D03*
X207900000Y-44850000D03*
D15*
X14732000Y-14986000D03*
X17272000Y-14986000D03*
X19812000Y-14986000D03*
X32004000Y-14478000D03*
X34544000Y-14478000D03*
X37084000Y-14478000D03*
X23368000Y-3556000D03*
X25908000Y-3556000D03*
X28448000Y-3556000D03*
X15240000Y-3556000D03*
X17780000Y-3556000D03*
X20320000Y-3556000D03*
X7112000Y-16256000D03*
X4572000Y-16256000D03*
X2032000Y-16256000D03*
D11*
X19722000Y-80900000D03*
X23222000Y-80900000D03*
X26722000Y-80900000D03*
X30222000Y-80900000D03*
M02*
