G04 #@! TF.FileFunction,Soldermask,Top*
%FSLAX46Y46*%
G04 Gerber Fmt 4.6, Leading zero omitted, Abs format (unit mm)*
G04 Created by KiCad (PCBNEW 4.0.6) date Sunday, July 09, 2017 'PMt' 04:39:34 PM*
%MOMM*%
%LPD*%
G01*
G04 APERTURE LIST*
%ADD10C,0.100000*%
%ADD11R,1.500000X0.800000*%
%ADD12R,2.400000X4.200000*%
%ADD13R,2.400000X1.900000*%
%ADD14C,2.400000*%
%ADD15O,2.200000X2.200000*%
%ADD16R,2.100000X2.400000*%
%ADD17R,1.200000X2.300000*%
%ADD18R,1.620000X1.310000*%
%ADD19R,1.920000X2.180000*%
%ADD20R,3.100000X3.600000*%
%ADD21C,11.400000*%
%ADD22C,1.100000*%
%ADD23R,2.400000X2.100000*%
%ADD24R,2.000000X2.400000*%
%ADD25R,1.300000X1.200000*%
%ADD26R,1.700000X1.900000*%
%ADD27R,1.900000X1.700000*%
%ADD28R,1.290000X0.705000*%
%ADD29R,1.240000X1.340000*%
G04 APERTURE END LIST*
D10*
D11*
X7310000Y-50385000D03*
X7310000Y-51035000D03*
X7310000Y-51685000D03*
X7310000Y-52335000D03*
X7310000Y-52985000D03*
X7310000Y-53635000D03*
X7310000Y-54285000D03*
X7310000Y-54935000D03*
X7310000Y-55585000D03*
X7310000Y-56235000D03*
X7310000Y-56885000D03*
X7310000Y-57535000D03*
X7310000Y-58185000D03*
X7310000Y-58835000D03*
X13010000Y-58835000D03*
X13010000Y-58185000D03*
X13010000Y-57535000D03*
X13010000Y-56885000D03*
X13010000Y-56235000D03*
X13010000Y-55585000D03*
X13010000Y-54935000D03*
X13010000Y-54285000D03*
X13010000Y-53635000D03*
X13010000Y-52985000D03*
X13010000Y-52335000D03*
X13010000Y-51685000D03*
X13010000Y-51035000D03*
X13010000Y-50385000D03*
D12*
X184252000Y-27940000D03*
D13*
X177952000Y-27940000D03*
X177952000Y-30240000D03*
X177952000Y-25640000D03*
D14*
X196088000Y-60452000D03*
X196088000Y-56952000D03*
D15*
X3810000Y-34290000D03*
X6350000Y-34290000D03*
X8890000Y-34290000D03*
D14*
X164325000Y-80900000D03*
X167825000Y-80900000D03*
D16*
X157920000Y-37930000D03*
X157920000Y-41930000D03*
D17*
X162875000Y-35250000D03*
X164775000Y-35250000D03*
X163825000Y-32250000D03*
D18*
X160890000Y-35825000D03*
X160890000Y-32555000D03*
D16*
X160475000Y-41950000D03*
X160475000Y-37950000D03*
X163075000Y-37950000D03*
X163075000Y-41950000D03*
D18*
X157370000Y-35775000D03*
X157370000Y-32505000D03*
D16*
X165630000Y-41940000D03*
X165630000Y-37940000D03*
D19*
X166900000Y-26440000D03*
X157370000Y-26440000D03*
X166900000Y-23900000D03*
X166900000Y-28980000D03*
X157370000Y-28980000D03*
X157370000Y-23900000D03*
D16*
X141620000Y-37960000D03*
X141620000Y-41960000D03*
D18*
X141070000Y-35805000D03*
X141070000Y-32535000D03*
D19*
X150600000Y-26470000D03*
X141070000Y-26470000D03*
X150600000Y-23930000D03*
X150600000Y-29010000D03*
X141070000Y-29010000D03*
X141070000Y-23930000D03*
D17*
X146575000Y-35280000D03*
X148475000Y-35280000D03*
X147525000Y-32280000D03*
D18*
X144590000Y-35855000D03*
X144590000Y-32585000D03*
D19*
X129860000Y-26480000D03*
X120330000Y-26480000D03*
X129860000Y-23940000D03*
X129860000Y-29020000D03*
X120330000Y-29020000D03*
X120330000Y-23940000D03*
D17*
X125835000Y-35290000D03*
X127735000Y-35290000D03*
X126785000Y-32290000D03*
D18*
X123850000Y-35865000D03*
X123850000Y-32595000D03*
X120330000Y-35815000D03*
X120330000Y-32545000D03*
D16*
X123435000Y-41990000D03*
X123435000Y-37990000D03*
X126035000Y-37990000D03*
X126035000Y-41990000D03*
X120880000Y-37970000D03*
X120880000Y-41970000D03*
X146775000Y-37980000D03*
X146775000Y-41980000D03*
X144175000Y-41980000D03*
X144175000Y-37980000D03*
X128590000Y-41980000D03*
X128590000Y-37980000D03*
X149330000Y-41970000D03*
X149330000Y-37970000D03*
D17*
X154255000Y-62760000D03*
X156155000Y-62760000D03*
X155205000Y-59760000D03*
D19*
X158280000Y-53950000D03*
X148750000Y-53950000D03*
X158280000Y-51410000D03*
X158280000Y-56490000D03*
X148750000Y-56490000D03*
X148750000Y-51410000D03*
D18*
X152270000Y-63335000D03*
X152270000Y-60065000D03*
X148750000Y-63285000D03*
X148750000Y-60015000D03*
D16*
X130880000Y-65470000D03*
X130880000Y-69470000D03*
X133435000Y-69490000D03*
X133435000Y-65490000D03*
X136035000Y-65490000D03*
X136035000Y-69490000D03*
X138590000Y-69480000D03*
X138590000Y-65480000D03*
D19*
X139860000Y-53980000D03*
X130330000Y-53980000D03*
X139860000Y-51440000D03*
X139860000Y-56520000D03*
X130330000Y-56520000D03*
X130330000Y-51440000D03*
D17*
X135835000Y-62790000D03*
X137735000Y-62790000D03*
X136785000Y-59790000D03*
D18*
X133850000Y-63365000D03*
X133850000Y-60095000D03*
X130330000Y-63315000D03*
X130330000Y-60045000D03*
D16*
X154455000Y-65460000D03*
X154455000Y-69460000D03*
X151855000Y-69460000D03*
X151855000Y-65460000D03*
X149300000Y-65440000D03*
X149300000Y-69440000D03*
X157010000Y-69450000D03*
X157010000Y-65450000D03*
D18*
X103920000Y-35845000D03*
X103920000Y-32575000D03*
D16*
X104470000Y-38000000D03*
X104470000Y-42000000D03*
D17*
X109425000Y-35320000D03*
X111325000Y-35320000D03*
X110375000Y-32320000D03*
D19*
X113450000Y-26510000D03*
X103920000Y-26510000D03*
X113450000Y-23970000D03*
X113450000Y-29050000D03*
X103920000Y-29050000D03*
X103920000Y-23970000D03*
D18*
X107440000Y-35895000D03*
X107440000Y-32625000D03*
X83180000Y-35855000D03*
X83180000Y-32585000D03*
D17*
X88685000Y-35330000D03*
X90585000Y-35330000D03*
X89635000Y-32330000D03*
D18*
X86700000Y-35905000D03*
X86700000Y-32635000D03*
D19*
X92710000Y-26520000D03*
X83180000Y-26520000D03*
X92710000Y-23980000D03*
X92710000Y-29060000D03*
X83180000Y-29060000D03*
X83180000Y-23980000D03*
D18*
X111600000Y-63325000D03*
X111600000Y-60055000D03*
D16*
X119860000Y-69490000D03*
X119860000Y-65490000D03*
D19*
X121130000Y-53990000D03*
X111600000Y-53990000D03*
X121130000Y-51450000D03*
X121130000Y-56530000D03*
X111600000Y-56530000D03*
X111600000Y-51450000D03*
D17*
X117105000Y-62800000D03*
X119005000Y-62800000D03*
X118055000Y-59800000D03*
D18*
X115120000Y-63375000D03*
X115120000Y-60105000D03*
D16*
X112150000Y-65480000D03*
X112150000Y-69480000D03*
X114705000Y-69500000D03*
X114705000Y-65500000D03*
X117305000Y-65500000D03*
X117305000Y-69500000D03*
X101440000Y-69520000D03*
X101440000Y-65520000D03*
X98885000Y-65530000D03*
X98885000Y-69530000D03*
X93730000Y-65510000D03*
X93730000Y-69510000D03*
X96285000Y-69530000D03*
X96285000Y-65530000D03*
D18*
X93180000Y-63355000D03*
X93180000Y-60085000D03*
D17*
X98685000Y-62830000D03*
X100585000Y-62830000D03*
X99635000Y-59830000D03*
D19*
X102710000Y-54020000D03*
X93180000Y-54020000D03*
X102710000Y-51480000D03*
X102710000Y-56560000D03*
X93180000Y-56560000D03*
X93180000Y-51480000D03*
D18*
X96700000Y-63405000D03*
X96700000Y-60135000D03*
D16*
X112180000Y-42010000D03*
X112180000Y-38010000D03*
X109625000Y-38020000D03*
X109625000Y-42020000D03*
X107025000Y-42020000D03*
X107025000Y-38020000D03*
X83730000Y-38010000D03*
X83730000Y-42010000D03*
X91440000Y-42020000D03*
X91440000Y-38020000D03*
X86285000Y-42030000D03*
X86285000Y-38030000D03*
X88885000Y-38030000D03*
X88885000Y-42030000D03*
D18*
X74560000Y-63365000D03*
X74560000Y-60095000D03*
D19*
X84090000Y-54030000D03*
X74560000Y-54030000D03*
X84090000Y-51490000D03*
X84090000Y-56570000D03*
X74560000Y-56570000D03*
X74560000Y-51490000D03*
D17*
X80065000Y-62840000D03*
X81965000Y-62840000D03*
X81015000Y-59840000D03*
D18*
X78080000Y-63415000D03*
X78080000Y-60145000D03*
D16*
X75110000Y-65520000D03*
X75110000Y-69520000D03*
X77665000Y-69540000D03*
X77665000Y-65540000D03*
X80265000Y-65540000D03*
X80265000Y-69540000D03*
X82820000Y-69530000D03*
X82820000Y-65530000D03*
X72585000Y-38060000D03*
X72585000Y-42060000D03*
X67430000Y-38040000D03*
X67430000Y-42040000D03*
X69985000Y-42060000D03*
X69985000Y-38060000D03*
X75140000Y-42050000D03*
X75140000Y-38050000D03*
D19*
X76410000Y-26550000D03*
X66880000Y-26550000D03*
X76410000Y-24010000D03*
X76410000Y-29090000D03*
X66880000Y-29090000D03*
X66880000Y-24010000D03*
D17*
X72385000Y-35360000D03*
X74285000Y-35360000D03*
X73335000Y-32360000D03*
D18*
X70400000Y-35935000D03*
X70400000Y-32665000D03*
X66880000Y-35885000D03*
X66880000Y-32615000D03*
D16*
X61845000Y-65570000D03*
X61845000Y-69570000D03*
X56690000Y-65550000D03*
X56690000Y-69550000D03*
X59245000Y-69570000D03*
X59245000Y-65570000D03*
X64400000Y-69560000D03*
X64400000Y-65560000D03*
D19*
X65670000Y-54060000D03*
X56140000Y-54060000D03*
X65670000Y-51520000D03*
X65670000Y-56600000D03*
X56140000Y-56600000D03*
X56140000Y-51520000D03*
D17*
X61645000Y-62870000D03*
X63545000Y-62870000D03*
X62595000Y-59870000D03*
D18*
X59660000Y-63445000D03*
X59660000Y-60175000D03*
X56140000Y-63395000D03*
X56140000Y-60125000D03*
X49660000Y-35945000D03*
X49660000Y-32675000D03*
D14*
X56625000Y-7975000D03*
X53125000Y-7975000D03*
X65925000Y-7975000D03*
X62425000Y-7975000D03*
X75275000Y-7975000D03*
X71775000Y-7975000D03*
X84600000Y-7975000D03*
X81100000Y-7975000D03*
X93875000Y-7975000D03*
X90375000Y-7975000D03*
X103150000Y-7975000D03*
X99650000Y-7975000D03*
X112425000Y-7975000D03*
X108925000Y-7975000D03*
X121700000Y-7975000D03*
X118200000Y-7975000D03*
X131000000Y-7975000D03*
X127500000Y-7975000D03*
X140225000Y-7975000D03*
X136725000Y-7975000D03*
X149450000Y-7975000D03*
X145950000Y-7975000D03*
X158725000Y-7975000D03*
X155225000Y-7975000D03*
X168000000Y-7975000D03*
X164500000Y-7975000D03*
X52950000Y-80900000D03*
X56450000Y-80900000D03*
X62350000Y-80900000D03*
X65850000Y-80900000D03*
X71625000Y-80900000D03*
X75125000Y-80900000D03*
X80850000Y-80900000D03*
X84350000Y-80900000D03*
X90125000Y-80900000D03*
X93625000Y-80900000D03*
X99400000Y-80900000D03*
X102900000Y-80900000D03*
X108700000Y-80900000D03*
X112200000Y-80900000D03*
X118025000Y-80900000D03*
X121525000Y-80900000D03*
X127325000Y-80900000D03*
X130825000Y-80900000D03*
X136575000Y-80900000D03*
X140075000Y-80900000D03*
X145850000Y-80900000D03*
X149350000Y-80900000D03*
X155100000Y-80900000D03*
X158600000Y-80900000D03*
X36425000Y-8000000D03*
X32925000Y-8000000D03*
D20*
X58000000Y-14100000D03*
X65900000Y-14100000D03*
X67375000Y-18150000D03*
X75275000Y-18150000D03*
X76700000Y-14125000D03*
X84600000Y-14125000D03*
X85975000Y-18175000D03*
X93875000Y-18175000D03*
X95250000Y-14150000D03*
X103150000Y-14150000D03*
X104525000Y-18175000D03*
X112425000Y-18175000D03*
X113800000Y-14150000D03*
X121700000Y-14150000D03*
X123100000Y-18150000D03*
X131000000Y-18150000D03*
X132325000Y-14125000D03*
X140225000Y-14125000D03*
X141550000Y-18150000D03*
X149450000Y-18150000D03*
X150825000Y-14150000D03*
X158725000Y-14150000D03*
X160100000Y-18150000D03*
X168000000Y-18150000D03*
D17*
X51645000Y-35370000D03*
X53545000Y-35370000D03*
X52595000Y-32370000D03*
D16*
X49245000Y-42070000D03*
X49245000Y-38070000D03*
X51845000Y-38070000D03*
X51845000Y-42070000D03*
X54400000Y-42060000D03*
X54400000Y-38060000D03*
D19*
X55670000Y-26560000D03*
X46140000Y-26560000D03*
X55670000Y-24020000D03*
X55670000Y-29100000D03*
X46140000Y-29100000D03*
X46140000Y-24020000D03*
D21*
X7620000Y-7620000D03*
D22*
X11745000Y-7620000D03*
X10546815Y-10546815D03*
X7620000Y-11745000D03*
X4693185Y-10546815D03*
X3495000Y-7620000D03*
X4693185Y-4693185D03*
X7620000Y-3495000D03*
X10546815Y-4693185D03*
D21*
X196560000Y-81280000D03*
D22*
X200721000Y-81280000D03*
X199522815Y-84206815D03*
X196596000Y-85405000D03*
X193669185Y-84206815D03*
X192471000Y-81280000D03*
X193669185Y-78353185D03*
X196596000Y-77155000D03*
X199522815Y-78353185D03*
D21*
X7620000Y-81280000D03*
D22*
X11745000Y-81280000D03*
X10546815Y-84206815D03*
X7620000Y-85405000D03*
X4693185Y-84206815D03*
X3495000Y-81280000D03*
X4693185Y-78353185D03*
X7620000Y-77155000D03*
X10546815Y-78353185D03*
D21*
X196596000Y-7620000D03*
D22*
X200721000Y-7620000D03*
X199522815Y-10546815D03*
X196596000Y-11745000D03*
X193669185Y-10546815D03*
X192471000Y-7620000D03*
X193669185Y-4693185D03*
X196596000Y-3495000D03*
X199522815Y-4693185D03*
D18*
X46140000Y-35895000D03*
X46140000Y-32625000D03*
D16*
X46690000Y-38050000D03*
X46690000Y-42050000D03*
D14*
X196088000Y-44140000D03*
X196088000Y-40640000D03*
X196088000Y-28900000D03*
X196088000Y-25400000D03*
D23*
X24670000Y-17780000D03*
X28670000Y-17780000D03*
X24670000Y-21590000D03*
X28670000Y-21590000D03*
X24670000Y-25400000D03*
X28670000Y-25400000D03*
X24670000Y-29210000D03*
X28670000Y-29210000D03*
X24670000Y-33020000D03*
X28670000Y-33020000D03*
X24670000Y-36830000D03*
X28670000Y-36830000D03*
X24670000Y-40640000D03*
X28670000Y-40640000D03*
X24670000Y-44450000D03*
X28670000Y-44450000D03*
X28924000Y-48006000D03*
X24924000Y-48006000D03*
X28670000Y-52070000D03*
X24670000Y-52070000D03*
X28670000Y-55626000D03*
X24670000Y-55626000D03*
X28670000Y-59182000D03*
X24670000Y-59182000D03*
X28670000Y-62992000D03*
X24670000Y-62992000D03*
X28670000Y-74168000D03*
X24670000Y-74168000D03*
X28670000Y-66802000D03*
X24670000Y-66802000D03*
X28670000Y-70612000D03*
X24670000Y-70612000D03*
D15*
X3810000Y-19050000D03*
X6350000Y-19050000D03*
X8890000Y-19050000D03*
X3810000Y-24130000D03*
X6350000Y-24130000D03*
X8890000Y-24130000D03*
X3810000Y-29210000D03*
X6350000Y-29210000D03*
X8890000Y-29210000D03*
X3810000Y-39370000D03*
X6350000Y-39370000D03*
X8890000Y-39370000D03*
D23*
X28670000Y-13970000D03*
X24670000Y-13970000D03*
D14*
X19722000Y-80900000D03*
X23222000Y-80900000D03*
X26722000Y-80900000D03*
X30222000Y-80900000D03*
D24*
X192024000Y-45434000D03*
X192024000Y-41434000D03*
X189484000Y-24924000D03*
X189484000Y-28924000D03*
X191008000Y-61436000D03*
X191008000Y-57436000D03*
D12*
X182220000Y-50038000D03*
D13*
X175920000Y-50038000D03*
X175920000Y-52338000D03*
X175920000Y-47738000D03*
D25*
X170434000Y-44958000D03*
X170434000Y-43058000D03*
X168434000Y-44008000D03*
X174498000Y-26924000D03*
X174498000Y-25024000D03*
X172498000Y-25974000D03*
D12*
X182728000Y-73152000D03*
D13*
X176428000Y-73152000D03*
X176428000Y-75452000D03*
X176428000Y-70852000D03*
D25*
X171180000Y-68260000D03*
X171180000Y-66360000D03*
X169180000Y-67310000D03*
D26*
X188214000Y-49610000D03*
X188214000Y-46910000D03*
D27*
X186864000Y-21844000D03*
X189564000Y-21844000D03*
D26*
X186944000Y-67216000D03*
X186944000Y-64516000D03*
D27*
X175340000Y-43434000D03*
X172640000Y-43434000D03*
X182452000Y-20066000D03*
X179752000Y-20066000D03*
X177372000Y-65024000D03*
X174672000Y-65024000D03*
D23*
X185642000Y-34544000D03*
X181642000Y-34544000D03*
X188690000Y-12954000D03*
X184690000Y-12954000D03*
D27*
X188294000Y-16764000D03*
X185594000Y-16764000D03*
X184992000Y-39624000D03*
X182292000Y-39624000D03*
D23*
X180562000Y-56642000D03*
X176562000Y-56642000D03*
D27*
X179912000Y-60706000D03*
X177212000Y-60706000D03*
D28*
X174083000Y-38408000D03*
X174083000Y-38908000D03*
X174083000Y-39408000D03*
X174083000Y-39908000D03*
X174083000Y-40408000D03*
X178293000Y-40408000D03*
X178293000Y-39908000D03*
X178293000Y-39408000D03*
X178293000Y-38908000D03*
X178293000Y-38408000D03*
D29*
X176608000Y-39878000D03*
X176608000Y-38938000D03*
X175768000Y-39878000D03*
X175768000Y-38938000D03*
D28*
X176877000Y-15802000D03*
X176877000Y-16302000D03*
X176877000Y-16802000D03*
X176877000Y-17302000D03*
X176877000Y-17802000D03*
X181087000Y-17802000D03*
X181087000Y-17302000D03*
X181087000Y-16802000D03*
X181087000Y-16302000D03*
X181087000Y-15802000D03*
D29*
X179402000Y-17272000D03*
X179402000Y-16332000D03*
X178562000Y-17272000D03*
X178562000Y-16332000D03*
D28*
X169091000Y-59668000D03*
X169091000Y-60168000D03*
X169091000Y-60668000D03*
X169091000Y-61168000D03*
X169091000Y-61668000D03*
X173301000Y-61668000D03*
X173301000Y-61168000D03*
X173301000Y-60668000D03*
X173301000Y-60168000D03*
X173301000Y-59668000D03*
D29*
X171616000Y-61138000D03*
X171616000Y-60198000D03*
X170776000Y-61138000D03*
X170776000Y-60198000D03*
M02*
