G04 #@! TF.FileFunction,Soldermask,Top*
%FSLAX46Y46*%
G04 Gerber Fmt 4.6, Leading zero omitted, Abs format (unit mm)*
G04 Created by KiCad (PCBNEW 4.0.4-stable) date Wednesday, June 14, 2017 'PMt' 02:59:16 PM*
%MOMM*%
%LPD*%
G01*
G04 APERTURE LIST*
%ADD10C,0.100000*%
%ADD11C,2.400000*%
%ADD12R,2.100000X2.400000*%
%ADD13R,1.200000X2.300000*%
%ADD14R,1.620000X1.310000*%
%ADD15R,1.920000X2.180000*%
%ADD16R,3.100000X3.600000*%
%ADD17C,11.400000*%
%ADD18C,1.100000*%
%ADD19R,1.500000X0.800000*%
%ADD20R,1.850000X0.850000*%
%ADD21O,2.200000X2.200000*%
%ADD22R,2.400000X2.100000*%
%ADD23R,1.900000X1.650000*%
G04 APERTURE END LIST*
D10*
D11*
X164325000Y-80900000D03*
X167825000Y-80900000D03*
D12*
X157920000Y-37930000D03*
X157920000Y-41930000D03*
D13*
X162875000Y-35250000D03*
X164775000Y-35250000D03*
X163825000Y-32250000D03*
D14*
X160890000Y-35825000D03*
X160890000Y-32555000D03*
D12*
X160475000Y-41950000D03*
X160475000Y-37950000D03*
X163075000Y-37950000D03*
X163075000Y-41950000D03*
D14*
X157370000Y-35775000D03*
X157370000Y-32505000D03*
D12*
X165630000Y-41940000D03*
X165630000Y-37940000D03*
D15*
X166900000Y-26440000D03*
X157370000Y-26440000D03*
X166900000Y-23900000D03*
X166900000Y-28980000D03*
X157370000Y-28980000D03*
X157370000Y-23900000D03*
D12*
X141620000Y-37960000D03*
X141620000Y-41960000D03*
D14*
X141070000Y-35805000D03*
X141070000Y-32535000D03*
D15*
X150600000Y-26470000D03*
X141070000Y-26470000D03*
X150600000Y-23930000D03*
X150600000Y-29010000D03*
X141070000Y-29010000D03*
X141070000Y-23930000D03*
D13*
X146575000Y-35280000D03*
X148475000Y-35280000D03*
X147525000Y-32280000D03*
D14*
X144590000Y-35855000D03*
X144590000Y-32585000D03*
D15*
X129860000Y-26480000D03*
X120330000Y-26480000D03*
X129860000Y-23940000D03*
X129860000Y-29020000D03*
X120330000Y-29020000D03*
X120330000Y-23940000D03*
D13*
X125835000Y-35290000D03*
X127735000Y-35290000D03*
X126785000Y-32290000D03*
D14*
X123850000Y-35865000D03*
X123850000Y-32595000D03*
X120330000Y-35815000D03*
X120330000Y-32545000D03*
D12*
X123435000Y-41990000D03*
X123435000Y-37990000D03*
X126035000Y-37990000D03*
X126035000Y-41990000D03*
X120880000Y-37970000D03*
X120880000Y-41970000D03*
X146775000Y-37980000D03*
X146775000Y-41980000D03*
X144175000Y-41980000D03*
X144175000Y-37980000D03*
X128590000Y-41980000D03*
X128590000Y-37980000D03*
X149330000Y-41970000D03*
X149330000Y-37970000D03*
D13*
X154255000Y-62760000D03*
X156155000Y-62760000D03*
X155205000Y-59760000D03*
D15*
X158280000Y-53950000D03*
X148750000Y-53950000D03*
X158280000Y-51410000D03*
X158280000Y-56490000D03*
X148750000Y-56490000D03*
X148750000Y-51410000D03*
D14*
X152270000Y-63335000D03*
X152270000Y-60065000D03*
X148750000Y-63285000D03*
X148750000Y-60015000D03*
D12*
X130880000Y-65470000D03*
X130880000Y-69470000D03*
X133435000Y-69490000D03*
X133435000Y-65490000D03*
X136035000Y-65490000D03*
X136035000Y-69490000D03*
X138590000Y-69480000D03*
X138590000Y-65480000D03*
D15*
X139860000Y-53980000D03*
X130330000Y-53980000D03*
X139860000Y-51440000D03*
X139860000Y-56520000D03*
X130330000Y-56520000D03*
X130330000Y-51440000D03*
D13*
X135835000Y-62790000D03*
X137735000Y-62790000D03*
X136785000Y-59790000D03*
D14*
X133850000Y-63365000D03*
X133850000Y-60095000D03*
X130330000Y-63315000D03*
X130330000Y-60045000D03*
D12*
X154455000Y-65460000D03*
X154455000Y-69460000D03*
X151855000Y-69460000D03*
X151855000Y-65460000D03*
X149300000Y-65440000D03*
X149300000Y-69440000D03*
X157010000Y-69450000D03*
X157010000Y-65450000D03*
D14*
X103920000Y-35845000D03*
X103920000Y-32575000D03*
D12*
X104470000Y-38000000D03*
X104470000Y-42000000D03*
D13*
X109425000Y-35320000D03*
X111325000Y-35320000D03*
X110375000Y-32320000D03*
D15*
X113450000Y-26510000D03*
X103920000Y-26510000D03*
X113450000Y-23970000D03*
X113450000Y-29050000D03*
X103920000Y-29050000D03*
X103920000Y-23970000D03*
D14*
X107440000Y-35895000D03*
X107440000Y-32625000D03*
X83180000Y-35855000D03*
X83180000Y-32585000D03*
D13*
X88685000Y-35330000D03*
X90585000Y-35330000D03*
X89635000Y-32330000D03*
D14*
X86700000Y-35905000D03*
X86700000Y-32635000D03*
D15*
X92710000Y-26520000D03*
X83180000Y-26520000D03*
X92710000Y-23980000D03*
X92710000Y-29060000D03*
X83180000Y-29060000D03*
X83180000Y-23980000D03*
D14*
X111600000Y-63325000D03*
X111600000Y-60055000D03*
D12*
X119860000Y-69490000D03*
X119860000Y-65490000D03*
D15*
X121130000Y-53990000D03*
X111600000Y-53990000D03*
X121130000Y-51450000D03*
X121130000Y-56530000D03*
X111600000Y-56530000D03*
X111600000Y-51450000D03*
D13*
X117105000Y-62800000D03*
X119005000Y-62800000D03*
X118055000Y-59800000D03*
D14*
X115120000Y-63375000D03*
X115120000Y-60105000D03*
D12*
X112150000Y-65480000D03*
X112150000Y-69480000D03*
X114705000Y-69500000D03*
X114705000Y-65500000D03*
X117305000Y-65500000D03*
X117305000Y-69500000D03*
X101440000Y-69520000D03*
X101440000Y-65520000D03*
X98885000Y-65530000D03*
X98885000Y-69530000D03*
X93730000Y-65510000D03*
X93730000Y-69510000D03*
X96285000Y-69530000D03*
X96285000Y-65530000D03*
D14*
X93180000Y-63355000D03*
X93180000Y-60085000D03*
D13*
X98685000Y-62830000D03*
X100585000Y-62830000D03*
X99635000Y-59830000D03*
D15*
X102710000Y-54020000D03*
X93180000Y-54020000D03*
X102710000Y-51480000D03*
X102710000Y-56560000D03*
X93180000Y-56560000D03*
X93180000Y-51480000D03*
D14*
X96700000Y-63405000D03*
X96700000Y-60135000D03*
D12*
X112180000Y-42010000D03*
X112180000Y-38010000D03*
X109625000Y-38020000D03*
X109625000Y-42020000D03*
X107025000Y-42020000D03*
X107025000Y-38020000D03*
X83730000Y-38010000D03*
X83730000Y-42010000D03*
X91440000Y-42020000D03*
X91440000Y-38020000D03*
X86285000Y-42030000D03*
X86285000Y-38030000D03*
X88885000Y-38030000D03*
X88885000Y-42030000D03*
D14*
X74560000Y-63365000D03*
X74560000Y-60095000D03*
D15*
X84090000Y-54030000D03*
X74560000Y-54030000D03*
X84090000Y-51490000D03*
X84090000Y-56570000D03*
X74560000Y-56570000D03*
X74560000Y-51490000D03*
D13*
X80065000Y-62840000D03*
X81965000Y-62840000D03*
X81015000Y-59840000D03*
D14*
X78080000Y-63415000D03*
X78080000Y-60145000D03*
D12*
X75110000Y-65520000D03*
X75110000Y-69520000D03*
X77665000Y-69540000D03*
X77665000Y-65540000D03*
X80265000Y-65540000D03*
X80265000Y-69540000D03*
X82820000Y-69530000D03*
X82820000Y-65530000D03*
X72585000Y-38060000D03*
X72585000Y-42060000D03*
X67430000Y-38040000D03*
X67430000Y-42040000D03*
X69985000Y-42060000D03*
X69985000Y-38060000D03*
X75140000Y-42050000D03*
X75140000Y-38050000D03*
D15*
X76410000Y-26550000D03*
X66880000Y-26550000D03*
X76410000Y-24010000D03*
X76410000Y-29090000D03*
X66880000Y-29090000D03*
X66880000Y-24010000D03*
D13*
X72385000Y-35360000D03*
X74285000Y-35360000D03*
X73335000Y-32360000D03*
D14*
X70400000Y-35935000D03*
X70400000Y-32665000D03*
X66880000Y-35885000D03*
X66880000Y-32615000D03*
D12*
X61845000Y-65570000D03*
X61845000Y-69570000D03*
X56690000Y-65550000D03*
X56690000Y-69550000D03*
X59245000Y-69570000D03*
X59245000Y-65570000D03*
X64400000Y-69560000D03*
X64400000Y-65560000D03*
D15*
X65670000Y-54060000D03*
X56140000Y-54060000D03*
X65670000Y-51520000D03*
X65670000Y-56600000D03*
X56140000Y-56600000D03*
X56140000Y-51520000D03*
D13*
X61645000Y-62870000D03*
X63545000Y-62870000D03*
X62595000Y-59870000D03*
D14*
X59660000Y-63445000D03*
X59660000Y-60175000D03*
X56140000Y-63395000D03*
X56140000Y-60125000D03*
X49660000Y-35945000D03*
X49660000Y-32675000D03*
D11*
X56625000Y-7975000D03*
X53125000Y-7975000D03*
X65925000Y-7975000D03*
X62425000Y-7975000D03*
X75275000Y-7975000D03*
X71775000Y-7975000D03*
X84600000Y-7975000D03*
X81100000Y-7975000D03*
X93875000Y-7975000D03*
X90375000Y-7975000D03*
X103150000Y-7975000D03*
X99650000Y-7975000D03*
X112425000Y-7975000D03*
X108925000Y-7975000D03*
X121700000Y-7975000D03*
X118200000Y-7975000D03*
X131000000Y-7975000D03*
X127500000Y-7975000D03*
X140225000Y-7975000D03*
X136725000Y-7975000D03*
X149450000Y-7975000D03*
X145950000Y-7975000D03*
X158725000Y-7975000D03*
X155225000Y-7975000D03*
X168000000Y-7975000D03*
X164500000Y-7975000D03*
X52950000Y-80900000D03*
X56450000Y-80900000D03*
X62350000Y-80900000D03*
X65850000Y-80900000D03*
X71625000Y-80900000D03*
X75125000Y-80900000D03*
X80850000Y-80900000D03*
X84350000Y-80900000D03*
X90125000Y-80900000D03*
X93625000Y-80900000D03*
X99400000Y-80900000D03*
X102900000Y-80900000D03*
X108700000Y-80900000D03*
X112200000Y-80900000D03*
X118025000Y-80900000D03*
X121525000Y-80900000D03*
X127325000Y-80900000D03*
X130825000Y-80900000D03*
X136575000Y-80900000D03*
X140075000Y-80900000D03*
X145850000Y-80900000D03*
X149350000Y-80900000D03*
X155100000Y-80900000D03*
X158600000Y-80900000D03*
X36425000Y-8000000D03*
X32925000Y-8000000D03*
D16*
X58000000Y-14100000D03*
X65900000Y-14100000D03*
X67375000Y-18150000D03*
X75275000Y-18150000D03*
X76700000Y-14125000D03*
X84600000Y-14125000D03*
X85975000Y-18175000D03*
X93875000Y-18175000D03*
X95250000Y-14150000D03*
X103150000Y-14150000D03*
X104525000Y-18175000D03*
X112425000Y-18175000D03*
X113800000Y-14150000D03*
X121700000Y-14150000D03*
X123100000Y-18150000D03*
X131000000Y-18150000D03*
X132325000Y-14125000D03*
X140225000Y-14125000D03*
X141550000Y-18150000D03*
X149450000Y-18150000D03*
X150825000Y-14150000D03*
X158725000Y-14150000D03*
X160100000Y-18150000D03*
X168000000Y-18150000D03*
D13*
X51645000Y-35370000D03*
X53545000Y-35370000D03*
X52595000Y-32370000D03*
D12*
X49245000Y-42070000D03*
X49245000Y-38070000D03*
X51845000Y-38070000D03*
X51845000Y-42070000D03*
X54400000Y-42060000D03*
X54400000Y-38060000D03*
D15*
X55670000Y-26560000D03*
X46140000Y-26560000D03*
X55670000Y-24020000D03*
X55670000Y-29100000D03*
X46140000Y-29100000D03*
X46140000Y-24020000D03*
D17*
X7620000Y-7620000D03*
D18*
X11745000Y-7620000D03*
X10546815Y-10546815D03*
X7620000Y-11745000D03*
X4693185Y-10546815D03*
X3495000Y-7620000D03*
X4693185Y-4693185D03*
X7620000Y-3495000D03*
X10546815Y-4693185D03*
D17*
X208748185Y-81723185D03*
D18*
X212873185Y-81723185D03*
X211675000Y-84650000D03*
X208748185Y-85848185D03*
X205821370Y-84650000D03*
X204623185Y-81723185D03*
X205821370Y-78796370D03*
X208748185Y-77598185D03*
X211675000Y-78796370D03*
D17*
X7620000Y-81280000D03*
D18*
X11745000Y-81280000D03*
X10546815Y-84206815D03*
X7620000Y-85405000D03*
X4693185Y-84206815D03*
X3495000Y-81280000D03*
X4693185Y-78353185D03*
X7620000Y-77155000D03*
X10546815Y-78353185D03*
D17*
X208775000Y-7075000D03*
D18*
X212900000Y-7075000D03*
X211701815Y-10001815D03*
X208775000Y-11200000D03*
X205848185Y-10001815D03*
X204650000Y-7075000D03*
X205848185Y-4148185D03*
X208775000Y-2950000D03*
X211701815Y-4148185D03*
D14*
X46140000Y-35895000D03*
X46140000Y-32625000D03*
D12*
X46690000Y-38050000D03*
X46690000Y-42050000D03*
D19*
X6294000Y-27017000D03*
X6294000Y-27667000D03*
X6294000Y-28317000D03*
X6294000Y-28967000D03*
X6294000Y-29617000D03*
X6294000Y-30267000D03*
X6294000Y-30917000D03*
X6294000Y-31567000D03*
X6294000Y-32217000D03*
X6294000Y-32867000D03*
X6294000Y-33517000D03*
X6294000Y-34167000D03*
X6294000Y-34817000D03*
X6294000Y-35467000D03*
X11994000Y-35467000D03*
X11994000Y-34817000D03*
X11994000Y-34167000D03*
X11994000Y-33517000D03*
X11994000Y-32867000D03*
X11994000Y-32217000D03*
X11994000Y-31567000D03*
X11994000Y-30917000D03*
X11994000Y-30267000D03*
X11994000Y-29617000D03*
X11994000Y-28967000D03*
X11994000Y-28317000D03*
X11994000Y-27667000D03*
X11994000Y-27017000D03*
D20*
X184540000Y-63795000D03*
X184540000Y-64445000D03*
X184540000Y-65095000D03*
X184540000Y-65745000D03*
X188840000Y-65745000D03*
X188840000Y-65095000D03*
X188840000Y-64445000D03*
X188840000Y-63795000D03*
X184540000Y-25695000D03*
X184540000Y-26345000D03*
X184540000Y-26995000D03*
X184540000Y-27645000D03*
X188840000Y-27645000D03*
X188840000Y-26995000D03*
X188840000Y-26345000D03*
X188840000Y-25695000D03*
X184540000Y-46015000D03*
X184540000Y-46665000D03*
X184540000Y-47315000D03*
X184540000Y-47965000D03*
X188840000Y-47965000D03*
X188840000Y-47315000D03*
X188840000Y-46665000D03*
X188840000Y-46015000D03*
D21*
X196850000Y-67310000D03*
X196850000Y-64770000D03*
X196850000Y-62230000D03*
X196850000Y-29210000D03*
X196850000Y-26670000D03*
X196850000Y-24130000D03*
X196850000Y-49530000D03*
X196850000Y-46990000D03*
X196850000Y-44450000D03*
D12*
X176530000Y-62770000D03*
X176530000Y-66770000D03*
X176530000Y-24670000D03*
X176530000Y-28670000D03*
X176530000Y-44990000D03*
X176530000Y-48990000D03*
D11*
X207900000Y-59780000D03*
X207900000Y-56280000D03*
X207900000Y-36920000D03*
X207900000Y-33420000D03*
X207900000Y-48350000D03*
X207900000Y-44850000D03*
D22*
X24670000Y-17780000D03*
X28670000Y-17780000D03*
X24670000Y-21590000D03*
X28670000Y-21590000D03*
X24670000Y-25400000D03*
X28670000Y-25400000D03*
X24670000Y-29210000D03*
X28670000Y-29210000D03*
X24670000Y-33020000D03*
X28670000Y-33020000D03*
X24670000Y-36830000D03*
X28670000Y-36830000D03*
X24670000Y-40640000D03*
X28670000Y-40640000D03*
X24670000Y-44450000D03*
X28670000Y-44450000D03*
X28670000Y-73406000D03*
X24670000Y-73406000D03*
X28670000Y-66802000D03*
X24670000Y-66802000D03*
X28670000Y-70104000D03*
X24670000Y-70104000D03*
X28670000Y-63500000D03*
X24670000Y-63500000D03*
X28670000Y-59690000D03*
X24670000Y-59690000D03*
X28670000Y-55880000D03*
X24670000Y-55880000D03*
X28670000Y-52070000D03*
X24670000Y-52070000D03*
X28670000Y-48260000D03*
X24670000Y-48260000D03*
D21*
X14732000Y-14986000D03*
X17272000Y-14986000D03*
X19812000Y-14986000D03*
X32004000Y-14478000D03*
X34544000Y-14478000D03*
X37084000Y-14478000D03*
X23368000Y-3556000D03*
X25908000Y-3556000D03*
X28448000Y-3556000D03*
X15240000Y-3556000D03*
X17780000Y-3556000D03*
X20320000Y-3556000D03*
X7112000Y-16256000D03*
X4572000Y-16256000D03*
X2032000Y-16256000D03*
D12*
X14224000Y-18955000D03*
X14224000Y-22955000D03*
D11*
X19722000Y-80900000D03*
X23222000Y-80900000D03*
X26722000Y-80900000D03*
X30222000Y-80900000D03*
D23*
X185186000Y-69342000D03*
X187686000Y-69342000D03*
X184424000Y-32385000D03*
X186924000Y-32385000D03*
X184043000Y-52705000D03*
X186543000Y-52705000D03*
M02*
