G04 #@! TF.FileFunction,Copper,L1,Top,Signal*
%FSLAX46Y46*%
G04 Gerber Fmt 4.6, Leading zero omitted, Abs format (unit mm)*
G04 Created by KiCad (PCBNEW 4.0.6) date Tuesday, July 11, 2017 'PMt' 04:53:45 PM*
%MOMM*%
%LPD*%
G01*
G04 APERTURE LIST*
%ADD10C,0.100000*%
%ADD11R,1.500000X1.250000*%
%ADD12R,0.890000X0.305000*%
%ADD13R,0.840000X0.940000*%
%ADD14R,1.500000X1.300000*%
%ADD15R,2.000000X3.800000*%
%ADD16R,2.000000X1.500000*%
%ADD17R,1.600000X2.000000*%
%ADD18R,1.100000X0.400000*%
%ADD19O,1.800000X1.800000*%
%ADD20C,2.000000*%
%ADD21R,1.700000X2.000000*%
%ADD22R,0.800000X1.900000*%
%ADD23R,1.220000X0.910000*%
%ADD24R,1.520000X1.780000*%
%ADD25R,2.700000X3.200000*%
%ADD26C,11.000000*%
%ADD27C,0.700000*%
%ADD28R,2.000000X1.700000*%
%ADD29R,1.300000X1.500000*%
%ADD30R,3.200000X2.700000*%
%ADD31R,2.000000X0.650000*%
%ADD32R,0.650000X2.000000*%
%ADD33R,1.900000X0.800000*%
%ADD34R,1.250000X1.500000*%
%ADD35C,1.600000*%
%ADD36C,0.250000*%
%ADD37C,0.500000*%
%ADD38C,1.000000*%
%ADD39C,3.000000*%
%ADD40C,2.000000*%
G04 APERTURE END LIST*
D10*
D11*
X30714000Y-76708000D03*
X28214000Y-76708000D03*
D12*
X174845000Y-18850000D03*
X174845000Y-19350000D03*
X174845000Y-19850000D03*
X174845000Y-20350000D03*
X174845000Y-20850000D03*
X179055000Y-20850000D03*
X179055000Y-20350000D03*
X179055000Y-19850000D03*
X179055000Y-19350000D03*
X179055000Y-18850000D03*
D13*
X177370000Y-20320000D03*
X177370000Y-19380000D03*
X176530000Y-20320000D03*
X176530000Y-19380000D03*
D14*
X186262000Y-20320000D03*
X183562000Y-20320000D03*
X180166000Y-22860000D03*
X177466000Y-22860000D03*
D15*
X182474000Y-30988000D03*
D16*
X176174000Y-30988000D03*
X176174000Y-33288000D03*
X176174000Y-28688000D03*
D14*
X184832000Y-24892000D03*
X187532000Y-24892000D03*
D17*
X187452000Y-27972000D03*
X187452000Y-31972000D03*
D14*
X175340000Y-43434000D03*
X172640000Y-43434000D03*
D18*
X7310000Y-50385000D03*
X7310000Y-51035000D03*
X7310000Y-51685000D03*
X7310000Y-52335000D03*
X7310000Y-52985000D03*
X7310000Y-53635000D03*
X7310000Y-54285000D03*
X7310000Y-54935000D03*
X7310000Y-55585000D03*
X7310000Y-56235000D03*
X7310000Y-56885000D03*
X7310000Y-57535000D03*
X7310000Y-58185000D03*
X7310000Y-58835000D03*
X13010000Y-58835000D03*
X13010000Y-58185000D03*
X13010000Y-57535000D03*
X13010000Y-56885000D03*
X13010000Y-56235000D03*
X13010000Y-55585000D03*
X13010000Y-54935000D03*
X13010000Y-54285000D03*
X13010000Y-53635000D03*
X13010000Y-52985000D03*
X13010000Y-52335000D03*
X13010000Y-51685000D03*
X13010000Y-51035000D03*
X13010000Y-50385000D03*
D19*
X3810000Y-34290000D03*
X6350000Y-34290000D03*
X8890000Y-34290000D03*
D20*
X164325000Y-80900000D03*
X167825000Y-80900000D03*
D21*
X157920000Y-37930000D03*
X157920000Y-41930000D03*
D22*
X162875000Y-35250000D03*
X164775000Y-35250000D03*
X163825000Y-32250000D03*
D23*
X160890000Y-35825000D03*
X160890000Y-32555000D03*
D21*
X160475000Y-41950000D03*
X160475000Y-37950000D03*
X163075000Y-37950000D03*
X163075000Y-41950000D03*
D23*
X157370000Y-35775000D03*
X157370000Y-32505000D03*
D21*
X165630000Y-41940000D03*
X165630000Y-37940000D03*
D24*
X166900000Y-26440000D03*
X157370000Y-26440000D03*
X166900000Y-23900000D03*
X166900000Y-28980000D03*
X157370000Y-28980000D03*
X157370000Y-23900000D03*
D21*
X141620000Y-37960000D03*
X141620000Y-41960000D03*
D23*
X141070000Y-35805000D03*
X141070000Y-32535000D03*
D24*
X150600000Y-26470000D03*
X141070000Y-26470000D03*
X150600000Y-23930000D03*
X150600000Y-29010000D03*
X141070000Y-29010000D03*
X141070000Y-23930000D03*
D22*
X146575000Y-35280000D03*
X148475000Y-35280000D03*
X147525000Y-32280000D03*
D23*
X144590000Y-35855000D03*
X144590000Y-32585000D03*
D24*
X129860000Y-26480000D03*
X120330000Y-26480000D03*
X129860000Y-23940000D03*
X129860000Y-29020000D03*
X120330000Y-29020000D03*
X120330000Y-23940000D03*
D22*
X125835000Y-35290000D03*
X127735000Y-35290000D03*
X126785000Y-32290000D03*
D23*
X123850000Y-35865000D03*
X123850000Y-32595000D03*
X120330000Y-35815000D03*
X120330000Y-32545000D03*
D21*
X123435000Y-41990000D03*
X123435000Y-37990000D03*
X126035000Y-37990000D03*
X126035000Y-41990000D03*
X120880000Y-37970000D03*
X120880000Y-41970000D03*
X146775000Y-37980000D03*
X146775000Y-41980000D03*
X144175000Y-41980000D03*
X144175000Y-37980000D03*
X128590000Y-41980000D03*
X128590000Y-37980000D03*
X149330000Y-41970000D03*
X149330000Y-37970000D03*
D22*
X154255000Y-62760000D03*
X156155000Y-62760000D03*
X155205000Y-59760000D03*
D24*
X158280000Y-53950000D03*
X148750000Y-53950000D03*
X158280000Y-51410000D03*
X158280000Y-56490000D03*
X148750000Y-56490000D03*
X148750000Y-51410000D03*
D23*
X152270000Y-63335000D03*
X152270000Y-60065000D03*
X148750000Y-63285000D03*
X148750000Y-60015000D03*
D21*
X130880000Y-65470000D03*
X130880000Y-69470000D03*
X133435000Y-69490000D03*
X133435000Y-65490000D03*
X136035000Y-65490000D03*
X136035000Y-69490000D03*
X138590000Y-69480000D03*
X138590000Y-65480000D03*
D24*
X139860000Y-53980000D03*
X130330000Y-53980000D03*
X139860000Y-51440000D03*
X139860000Y-56520000D03*
X130330000Y-56520000D03*
X130330000Y-51440000D03*
D22*
X135835000Y-62790000D03*
X137735000Y-62790000D03*
X136785000Y-59790000D03*
D23*
X133850000Y-63365000D03*
X133850000Y-60095000D03*
X130330000Y-63315000D03*
X130330000Y-60045000D03*
D21*
X154455000Y-65460000D03*
X154455000Y-69460000D03*
X151855000Y-69460000D03*
X151855000Y-65460000D03*
X149300000Y-65440000D03*
X149300000Y-69440000D03*
X157010000Y-69450000D03*
X157010000Y-65450000D03*
D23*
X103920000Y-35845000D03*
X103920000Y-32575000D03*
D21*
X104470000Y-38000000D03*
X104470000Y-42000000D03*
D22*
X109425000Y-35320000D03*
X111325000Y-35320000D03*
X110375000Y-32320000D03*
D24*
X113450000Y-26510000D03*
X103920000Y-26510000D03*
X113450000Y-23970000D03*
X113450000Y-29050000D03*
X103920000Y-29050000D03*
X103920000Y-23970000D03*
D23*
X107440000Y-35895000D03*
X107440000Y-32625000D03*
X83180000Y-35855000D03*
X83180000Y-32585000D03*
D22*
X88685000Y-35330000D03*
X90585000Y-35330000D03*
X89635000Y-32330000D03*
D23*
X86700000Y-35905000D03*
X86700000Y-32635000D03*
D24*
X92710000Y-26520000D03*
X83180000Y-26520000D03*
X92710000Y-23980000D03*
X92710000Y-29060000D03*
X83180000Y-29060000D03*
X83180000Y-23980000D03*
D23*
X111600000Y-63325000D03*
X111600000Y-60055000D03*
D21*
X119860000Y-69490000D03*
X119860000Y-65490000D03*
D24*
X121130000Y-53990000D03*
X111600000Y-53990000D03*
X121130000Y-51450000D03*
X121130000Y-56530000D03*
X111600000Y-56530000D03*
X111600000Y-51450000D03*
D22*
X117105000Y-62800000D03*
X119005000Y-62800000D03*
X118055000Y-59800000D03*
D23*
X115120000Y-63375000D03*
X115120000Y-60105000D03*
D21*
X112150000Y-65480000D03*
X112150000Y-69480000D03*
X114705000Y-69500000D03*
X114705000Y-65500000D03*
X117305000Y-65500000D03*
X117305000Y-69500000D03*
X101440000Y-69520000D03*
X101440000Y-65520000D03*
X98885000Y-65530000D03*
X98885000Y-69530000D03*
X93730000Y-65510000D03*
X93730000Y-69510000D03*
X96285000Y-69530000D03*
X96285000Y-65530000D03*
D23*
X93180000Y-63355000D03*
X93180000Y-60085000D03*
D22*
X98685000Y-62830000D03*
X100585000Y-62830000D03*
X99635000Y-59830000D03*
D24*
X102710000Y-54020000D03*
X93180000Y-54020000D03*
X102710000Y-51480000D03*
X102710000Y-56560000D03*
X93180000Y-56560000D03*
X93180000Y-51480000D03*
D23*
X96700000Y-63405000D03*
X96700000Y-60135000D03*
D21*
X112180000Y-42010000D03*
X112180000Y-38010000D03*
X109625000Y-38020000D03*
X109625000Y-42020000D03*
X107025000Y-42020000D03*
X107025000Y-38020000D03*
X83730000Y-38010000D03*
X83730000Y-42010000D03*
X91440000Y-42020000D03*
X91440000Y-38020000D03*
X86285000Y-42030000D03*
X86285000Y-38030000D03*
X88885000Y-38030000D03*
X88885000Y-42030000D03*
D23*
X74560000Y-63365000D03*
X74560000Y-60095000D03*
D24*
X84090000Y-54030000D03*
X74560000Y-54030000D03*
X84090000Y-51490000D03*
X84090000Y-56570000D03*
X74560000Y-56570000D03*
X74560000Y-51490000D03*
D22*
X80065000Y-62840000D03*
X81965000Y-62840000D03*
X81015000Y-59840000D03*
D23*
X78080000Y-63415000D03*
X78080000Y-60145000D03*
D21*
X75110000Y-65520000D03*
X75110000Y-69520000D03*
X77665000Y-69540000D03*
X77665000Y-65540000D03*
X80265000Y-65540000D03*
X80265000Y-69540000D03*
X82820000Y-69530000D03*
X82820000Y-65530000D03*
X72585000Y-38060000D03*
X72585000Y-42060000D03*
X67430000Y-38040000D03*
X67430000Y-42040000D03*
X69985000Y-42060000D03*
X69985000Y-38060000D03*
X75140000Y-42050000D03*
X75140000Y-38050000D03*
D24*
X76410000Y-26550000D03*
X66880000Y-26550000D03*
X76410000Y-24010000D03*
X76410000Y-29090000D03*
X66880000Y-29090000D03*
X66880000Y-24010000D03*
D22*
X72385000Y-35360000D03*
X74285000Y-35360000D03*
X73335000Y-32360000D03*
D23*
X70400000Y-35935000D03*
X70400000Y-32665000D03*
X66880000Y-35885000D03*
X66880000Y-32615000D03*
D21*
X61845000Y-65570000D03*
X61845000Y-69570000D03*
X56690000Y-65550000D03*
X56690000Y-69550000D03*
X59245000Y-69570000D03*
X59245000Y-65570000D03*
X64400000Y-69560000D03*
X64400000Y-65560000D03*
D24*
X65670000Y-54060000D03*
X56140000Y-54060000D03*
X65670000Y-51520000D03*
X65670000Y-56600000D03*
X56140000Y-56600000D03*
X56140000Y-51520000D03*
D22*
X61645000Y-62870000D03*
X63545000Y-62870000D03*
X62595000Y-59870000D03*
D23*
X59660000Y-63445000D03*
X59660000Y-60175000D03*
X56140000Y-63395000D03*
X56140000Y-60125000D03*
X49660000Y-35945000D03*
X49660000Y-32675000D03*
D20*
X56625000Y-7975000D03*
X53125000Y-7975000D03*
X65925000Y-7975000D03*
X62425000Y-7975000D03*
X75275000Y-7975000D03*
X71775000Y-7975000D03*
X84600000Y-7975000D03*
X81100000Y-7975000D03*
X93875000Y-7975000D03*
X90375000Y-7975000D03*
X103150000Y-7975000D03*
X99650000Y-7975000D03*
X112425000Y-7975000D03*
X108925000Y-7975000D03*
X121700000Y-7975000D03*
X118200000Y-7975000D03*
X131000000Y-7975000D03*
X127500000Y-7975000D03*
X140225000Y-7975000D03*
X136725000Y-7975000D03*
X149450000Y-7975000D03*
X145950000Y-7975000D03*
X158725000Y-7975000D03*
X155225000Y-7975000D03*
X168000000Y-7975000D03*
X164500000Y-7975000D03*
X52950000Y-80900000D03*
X56450000Y-80900000D03*
X62350000Y-80900000D03*
X65850000Y-80900000D03*
X71625000Y-80900000D03*
X75125000Y-80900000D03*
X80850000Y-80900000D03*
X84350000Y-80900000D03*
X90125000Y-80900000D03*
X93625000Y-80900000D03*
X99400000Y-80900000D03*
X102900000Y-80900000D03*
X108700000Y-80900000D03*
X112200000Y-80900000D03*
X118025000Y-80900000D03*
X121525000Y-80900000D03*
X127325000Y-80900000D03*
X130825000Y-80900000D03*
X136575000Y-80900000D03*
X140075000Y-80900000D03*
X145850000Y-80900000D03*
X149350000Y-80900000D03*
X155100000Y-80900000D03*
X158600000Y-80900000D03*
X36425000Y-8000000D03*
X32925000Y-8000000D03*
D25*
X58000000Y-14100000D03*
X65900000Y-14100000D03*
X67375000Y-18150000D03*
X75275000Y-18150000D03*
X76700000Y-14125000D03*
X84600000Y-14125000D03*
X85975000Y-18175000D03*
X93875000Y-18175000D03*
X95250000Y-14150000D03*
X103150000Y-14150000D03*
X104525000Y-18175000D03*
X112425000Y-18175000D03*
X113800000Y-14150000D03*
X121700000Y-14150000D03*
X123100000Y-18150000D03*
X131000000Y-18150000D03*
X132325000Y-14125000D03*
X140225000Y-14125000D03*
X141550000Y-18150000D03*
X149450000Y-18150000D03*
X150825000Y-14150000D03*
X158725000Y-14150000D03*
X160100000Y-18150000D03*
X168000000Y-18150000D03*
D22*
X51645000Y-35370000D03*
X53545000Y-35370000D03*
X52595000Y-32370000D03*
D21*
X49245000Y-42070000D03*
X49245000Y-38070000D03*
X51845000Y-38070000D03*
X51845000Y-42070000D03*
X54400000Y-42060000D03*
X54400000Y-38060000D03*
D24*
X55670000Y-26560000D03*
X46140000Y-26560000D03*
X55670000Y-24020000D03*
X55670000Y-29100000D03*
X46140000Y-29100000D03*
X46140000Y-24020000D03*
D26*
X7620000Y-7620000D03*
D27*
X11745000Y-7620000D03*
X10546815Y-10546815D03*
X7620000Y-11745000D03*
X4693185Y-10546815D03*
X3495000Y-7620000D03*
X4693185Y-4693185D03*
X7620000Y-3495000D03*
X10546815Y-4693185D03*
D26*
X196560000Y-81280000D03*
D27*
X200721000Y-81280000D03*
X199522815Y-84206815D03*
X196596000Y-85405000D03*
X193669185Y-84206815D03*
X192471000Y-81280000D03*
X193669185Y-78353185D03*
X196596000Y-77155000D03*
X199522815Y-78353185D03*
D26*
X7620000Y-81280000D03*
D27*
X11745000Y-81280000D03*
X10546815Y-84206815D03*
X7620000Y-85405000D03*
X4693185Y-84206815D03*
X3495000Y-81280000D03*
X4693185Y-78353185D03*
X7620000Y-77155000D03*
X10546815Y-78353185D03*
D26*
X196596000Y-7620000D03*
D27*
X200721000Y-7620000D03*
X199522815Y-10546815D03*
X196596000Y-11745000D03*
X193669185Y-10546815D03*
X192471000Y-7620000D03*
X193669185Y-4693185D03*
X196596000Y-3495000D03*
X199522815Y-4693185D03*
D23*
X46140000Y-35895000D03*
X46140000Y-32625000D03*
D21*
X46690000Y-38050000D03*
X46690000Y-42050000D03*
D28*
X24670000Y-17780000D03*
X28670000Y-17780000D03*
X24670000Y-21590000D03*
X28670000Y-21590000D03*
X24670000Y-25400000D03*
X28670000Y-25400000D03*
X24670000Y-29210000D03*
X28670000Y-29210000D03*
X24670000Y-33020000D03*
X28670000Y-33020000D03*
X24670000Y-36830000D03*
X28670000Y-36830000D03*
X24670000Y-40640000D03*
X28670000Y-40640000D03*
X24670000Y-44450000D03*
X28670000Y-44450000D03*
X28924000Y-48006000D03*
X24924000Y-48006000D03*
X28670000Y-52070000D03*
X24670000Y-52070000D03*
X28670000Y-55626000D03*
X24670000Y-55626000D03*
X28670000Y-59182000D03*
X24670000Y-59182000D03*
X28670000Y-62992000D03*
X24670000Y-62992000D03*
X28670000Y-74168000D03*
X24670000Y-74168000D03*
X28670000Y-66802000D03*
X24670000Y-66802000D03*
X28670000Y-70612000D03*
X24670000Y-70612000D03*
D19*
X3810000Y-19050000D03*
X6350000Y-19050000D03*
X8890000Y-19050000D03*
X3810000Y-24130000D03*
X6350000Y-24130000D03*
X8890000Y-24130000D03*
X3810000Y-29210000D03*
X6350000Y-29210000D03*
X8890000Y-29210000D03*
X3810000Y-39370000D03*
X6350000Y-39370000D03*
X8890000Y-39370000D03*
D28*
X28670000Y-13970000D03*
X24670000Y-13970000D03*
D20*
X19722000Y-80900000D03*
X23222000Y-80900000D03*
X26722000Y-80900000D03*
X30222000Y-80900000D03*
D17*
X192024000Y-45434000D03*
X192024000Y-41434000D03*
X191008000Y-61436000D03*
X191008000Y-57436000D03*
D15*
X182220000Y-50038000D03*
D16*
X175920000Y-50038000D03*
X175920000Y-52338000D03*
X175920000Y-47738000D03*
D15*
X182728000Y-73152000D03*
D16*
X176428000Y-73152000D03*
X176428000Y-75452000D03*
X176428000Y-70852000D03*
D29*
X188214000Y-49610000D03*
X188214000Y-46910000D03*
X184404000Y-64342000D03*
X184404000Y-61642000D03*
D14*
X177372000Y-65024000D03*
X174672000Y-65024000D03*
X184992000Y-39624000D03*
X182292000Y-39624000D03*
X179912000Y-60706000D03*
X177212000Y-60706000D03*
D12*
X174083000Y-38408000D03*
X174083000Y-38908000D03*
X174083000Y-39408000D03*
X174083000Y-39908000D03*
X174083000Y-40408000D03*
X178293000Y-40408000D03*
X178293000Y-39908000D03*
X178293000Y-39408000D03*
X178293000Y-38908000D03*
X178293000Y-38408000D03*
D13*
X176608000Y-39878000D03*
X176608000Y-38938000D03*
X175768000Y-39878000D03*
X175768000Y-38938000D03*
D12*
X169091000Y-59668000D03*
X169091000Y-60168000D03*
X169091000Y-60668000D03*
X169091000Y-61168000D03*
X169091000Y-61668000D03*
X173301000Y-61668000D03*
X173301000Y-61168000D03*
X173301000Y-60668000D03*
X173301000Y-60168000D03*
X173301000Y-59668000D03*
D13*
X171616000Y-61138000D03*
X171616000Y-60198000D03*
X170776000Y-61138000D03*
X170776000Y-60198000D03*
D30*
X194056000Y-15862000D03*
X194056000Y-23762000D03*
D25*
X181470000Y-14732000D03*
X189370000Y-14732000D03*
X169278000Y-13716000D03*
X177178000Y-13716000D03*
D20*
X201168000Y-22352000D03*
X201168000Y-18852000D03*
X186944000Y-8128000D03*
X183444000Y-8128000D03*
X177292000Y-8128000D03*
X173792000Y-8128000D03*
D31*
X167962000Y-51374000D03*
X167962000Y-53274000D03*
X171382000Y-52324000D03*
D32*
X171262000Y-35424000D03*
X173162000Y-35424000D03*
X172212000Y-32004000D03*
D20*
X201168000Y-55712000D03*
X201168000Y-52212000D03*
X201168000Y-48712000D03*
X201168000Y-45212000D03*
X201168000Y-39568000D03*
X201168000Y-36068000D03*
X201168000Y-32568000D03*
X201168000Y-29068000D03*
X201168000Y-72080000D03*
X201168000Y-68580000D03*
X201168000Y-65080000D03*
X201168000Y-61580000D03*
D29*
X177292000Y-85170000D03*
X177292000Y-82470000D03*
X190500000Y-23542000D03*
X190500000Y-26242000D03*
X173228000Y-85170000D03*
X173228000Y-82470000D03*
D33*
X168196000Y-74234000D03*
X168196000Y-76134000D03*
X171196000Y-75184000D03*
D11*
X179090000Y-79756000D03*
X181590000Y-79756000D03*
X192298000Y-28956000D03*
X194798000Y-28956000D03*
X173502000Y-79756000D03*
X176002000Y-79756000D03*
D14*
X5254000Y-72136000D03*
X7954000Y-72136000D03*
D11*
X13482000Y-73152000D03*
X15982000Y-73152000D03*
D14*
X184738000Y-36068000D03*
X182038000Y-36068000D03*
X186596000Y-17780000D03*
X183896000Y-17780000D03*
X180166000Y-56388000D03*
X177466000Y-56388000D03*
D34*
X5588000Y-44470000D03*
X5588000Y-46970000D03*
D14*
X36910000Y-87376000D03*
X34210000Y-87376000D03*
X34210000Y-84836000D03*
X36910000Y-84836000D03*
D29*
X3048000Y-57230000D03*
X3048000Y-54530000D03*
D27*
X36700000Y-25370000D03*
X29200000Y-21350000D03*
X5588000Y-46970000D03*
X3048000Y-57230000D03*
X15748000Y-52324000D03*
X30714000Y-76708000D03*
X6096000Y-58928000D03*
X175768000Y-39878000D03*
X176530000Y-19380000D03*
X170776000Y-61138000D03*
X184738000Y-36068000D03*
X186262000Y-20320000D03*
X186596000Y-17780000D03*
X5254000Y-72136000D03*
X181590000Y-79756000D03*
X176002000Y-79756000D03*
X194798000Y-28956000D03*
X175768000Y-16256000D03*
X187452000Y-31972000D03*
X28670000Y-13970000D03*
X178308000Y-37084000D03*
X191008000Y-57436000D03*
X180562000Y-56642000D03*
X173736000Y-57658000D03*
X192024000Y-41434000D03*
X184992000Y-39624000D03*
X160890000Y-32555000D03*
X144590000Y-32585000D03*
X141620000Y-41960000D03*
X157920000Y-41930000D03*
X120880000Y-41970000D03*
X123850000Y-32595000D03*
X130880000Y-69470000D03*
X152270000Y-60065000D03*
X133850000Y-60095000D03*
X149300000Y-69440000D03*
X112150000Y-69480000D03*
X107440000Y-32625000D03*
X115120000Y-60105000D03*
X96700000Y-60135000D03*
X104470000Y-42000000D03*
X86700000Y-32635000D03*
X93730000Y-69510000D03*
X83730000Y-42010000D03*
X75110000Y-69520000D03*
X78080000Y-60145000D03*
X67430000Y-42040000D03*
X70400000Y-32665000D03*
X56690000Y-69550000D03*
X59660000Y-60175000D03*
X49660000Y-32675000D03*
X46690000Y-42050000D03*
X68890000Y-6270000D03*
X65020000Y-790000D03*
X30480000Y-29210000D03*
X36830000Y-33090000D03*
X68870000Y-76650000D03*
X68870000Y-73340000D03*
X85720000Y-28260000D03*
X86630000Y-24750000D03*
X87500000Y-6170000D03*
X82870000Y-830000D03*
X29175000Y-35350000D03*
X36980000Y-39630000D03*
X87260000Y-76970000D03*
X87260000Y-72690000D03*
X106340000Y-28900000D03*
X107330000Y-24800000D03*
X106000000Y-5940000D03*
X101460000Y-810000D03*
X105650000Y-72500000D03*
X105690000Y-77390000D03*
X37230000Y-48620000D03*
X29210000Y-44450000D03*
X122810000Y-28500000D03*
X123860000Y-24700000D03*
X124680000Y-5090000D03*
X119620000Y-860000D03*
X124690000Y-72360000D03*
X124740000Y-77430000D03*
X36110000Y-55020000D03*
X29210000Y-52070000D03*
X143680000Y-28360000D03*
X144500000Y-24410000D03*
X143000000Y-6360000D03*
X138450000Y-910000D03*
X143130000Y-72000000D03*
X143130000Y-77540000D03*
X28702000Y-63500000D03*
X31750000Y-60452000D03*
X157080000Y-880000D03*
X161570000Y-6190000D03*
X160760000Y-24310000D03*
X159810000Y-29690000D03*
X5588000Y-44470000D03*
X13208000Y-49276000D03*
X36910000Y-87376000D03*
X36910000Y-84836000D03*
X3810000Y-16510000D03*
X47625000Y-69469000D03*
D35*
X47180000Y-6820000D03*
X40610000Y-7530000D03*
X45590000Y-60060000D03*
X47800000Y-56650000D03*
D27*
X19304000Y-66802000D03*
X19851347Y-53748249D03*
X17780000Y-48006000D03*
X17780000Y-48006000D03*
X20828000Y-68326000D03*
X19338003Y-54898003D03*
X17018000Y-50038000D03*
X190500000Y-26242000D03*
X35306000Y-62738000D03*
X28702000Y-67056000D03*
X161036000Y-762000D03*
X28670000Y-17780000D03*
X44300000Y-26800000D03*
X14224000Y-48768000D03*
X11176000Y-51054000D03*
X5080000Y-56388000D03*
X15240000Y-48768000D03*
X16256000Y-48768000D03*
X9431503Y-57691503D03*
X24924000Y-48006000D03*
X20828000Y-54864000D03*
X20066000Y-61214000D03*
X14478000Y-63246000D03*
X24670000Y-52070000D03*
X11176000Y-58928000D03*
X14732000Y-57404000D03*
X24670000Y-55626000D03*
X24670000Y-59182000D03*
X8636000Y-60452000D03*
X24670000Y-13970000D03*
X18796000Y-45212000D03*
X170688000Y-66548000D03*
X174672000Y-65024000D03*
X175260000Y-17780000D03*
X184912000Y-15748000D03*
X181470000Y-11798000D03*
X181470000Y-11798000D03*
X181470000Y-11798000D03*
X177372000Y-65024000D03*
X180848000Y-67564000D03*
X188214000Y-46910000D03*
X187532000Y-24892000D03*
X184404000Y-61642000D03*
X197104000Y-61468000D03*
X178816000Y-51308000D03*
X178816000Y-44704000D03*
X176174000Y-33288000D03*
X171262000Y-35424000D03*
X173736000Y-27940000D03*
X179832000Y-41656000D03*
X185420000Y-67056000D03*
X174752000Y-62484000D03*
X174752000Y-77216000D03*
X176174000Y-28688000D03*
X172212000Y-32004000D03*
X173736000Y-25146000D03*
X3048000Y-54530000D03*
X10160000Y-56388000D03*
D36*
X41090000Y-52900000D02*
X48315000Y-60125000D01*
X48315000Y-60125000D02*
X56140000Y-60125000D01*
X41090000Y-34070000D02*
X41090000Y-52900000D01*
X39170010Y-32150010D02*
X41090000Y-34070000D01*
X39170010Y-27840010D02*
X39170010Y-32150010D01*
X36700000Y-25370000D02*
X39170010Y-27840010D01*
D37*
X59660000Y-63445000D02*
X59460000Y-63445000D01*
X59245000Y-65570000D02*
X59245000Y-63860000D01*
X59245000Y-63860000D02*
X59660000Y-63445000D01*
X59460000Y-63445000D02*
X56140000Y-60125000D01*
D36*
X13010000Y-52985000D02*
X13823590Y-52985000D01*
X13823590Y-52985000D02*
X14484590Y-52324000D01*
X14484590Y-52324000D02*
X15748000Y-52324000D01*
X7310000Y-58835000D02*
X6189000Y-58835000D01*
X6189000Y-58835000D02*
X6096000Y-58928000D01*
X175768000Y-38938000D02*
X176608000Y-38938000D01*
X175768000Y-39878000D02*
X176608000Y-39878000D01*
D38*
X171616000Y-60198000D02*
X171616000Y-60298000D01*
X171616000Y-60298000D02*
X170776000Y-61138000D01*
D36*
X186912000Y-18288000D02*
X186912000Y-18096000D01*
X186912000Y-18096000D02*
X186596000Y-17780000D01*
X179070000Y-18288000D02*
X178054000Y-17272000D01*
X179055000Y-18447500D02*
X179070000Y-18432500D01*
X179070000Y-18432500D02*
X179070000Y-18288000D01*
X179055000Y-18850000D02*
X179055000Y-18447500D01*
X177038000Y-16256000D02*
X175768000Y-16256000D01*
X178054000Y-17272000D02*
X177038000Y-16256000D01*
X178293000Y-38408000D02*
X178293000Y-37099000D01*
X178293000Y-37099000D02*
X178308000Y-37084000D01*
D37*
X181356000Y-57404000D02*
X181324000Y-57404000D01*
X181324000Y-57404000D02*
X180562000Y-56642000D01*
X181356000Y-58420000D02*
X181356000Y-57404000D01*
X181416000Y-58480000D02*
X181356000Y-58420000D01*
X181416000Y-60452000D02*
X181416000Y-58480000D01*
X179912000Y-60706000D02*
X181162000Y-60706000D01*
X181162000Y-60706000D02*
X181416000Y-60452000D01*
D36*
X173301000Y-59668000D02*
X173301000Y-58093000D01*
X173301000Y-58093000D02*
X173736000Y-57658000D01*
D37*
X155105001Y-61160001D02*
X154475001Y-61160001D01*
X156155000Y-62210000D02*
X155105001Y-61160001D01*
D38*
X154455000Y-69460000D02*
X154455000Y-69970002D01*
D37*
X154475001Y-61160001D02*
X153380000Y-60065000D01*
X153380000Y-60065000D02*
X152270000Y-60065000D01*
X156155000Y-62760000D02*
X156155000Y-62210000D01*
D38*
X161885001Y-43650001D02*
X159064999Y-43650001D01*
X157920000Y-42505002D02*
X157920000Y-41930000D01*
X159064999Y-43650001D02*
X157920000Y-42505002D01*
X163075000Y-41950000D02*
X163075000Y-42460002D01*
X163075000Y-42460002D02*
X161885001Y-43650001D01*
D37*
X164775000Y-35250000D02*
X164775000Y-34700000D01*
X164775000Y-34700000D02*
X163725001Y-33650001D01*
X163725001Y-33650001D02*
X163095001Y-33650001D01*
X148475000Y-35280000D02*
X148475000Y-34730000D01*
X145700000Y-32585000D02*
X144590000Y-32585000D01*
X127735000Y-35290000D02*
X127735000Y-34740000D01*
X126685001Y-33690001D02*
X126055001Y-33690001D01*
X124960000Y-32595000D02*
X123850000Y-32595000D01*
X126055001Y-33690001D02*
X124960000Y-32595000D01*
X127735000Y-34740000D02*
X126685001Y-33690001D01*
D38*
X120880000Y-42545002D02*
X120880000Y-41970000D01*
X126035000Y-42500002D02*
X124845001Y-43690001D01*
X122024999Y-43690001D02*
X120880000Y-42545002D01*
X124845001Y-43690001D02*
X122024999Y-43690001D01*
X126035000Y-41990000D02*
X126035000Y-42500002D01*
D37*
X148475000Y-34730000D02*
X147425001Y-33680001D01*
X147425001Y-33680001D02*
X146795001Y-33680001D01*
X146795001Y-33680001D02*
X145700000Y-32585000D01*
D38*
X146775000Y-42490002D02*
X145585001Y-43680001D01*
X142764999Y-43680001D02*
X141620000Y-42535002D01*
X145585001Y-43680001D02*
X142764999Y-43680001D01*
X141620000Y-42535002D02*
X141620000Y-41960000D01*
X146775000Y-41980000D02*
X146775000Y-42490002D01*
D37*
X162000000Y-32555000D02*
X160890000Y-32555000D01*
X163095001Y-33650001D02*
X162000000Y-32555000D01*
X134960000Y-60095000D02*
X133850000Y-60095000D01*
X136055001Y-61190001D02*
X134960000Y-60095000D01*
X136685001Y-61190001D02*
X136055001Y-61190001D01*
X137735000Y-62790000D02*
X137735000Y-62240000D01*
X137735000Y-62240000D02*
X136685001Y-61190001D01*
D38*
X136035000Y-70000002D02*
X134845001Y-71190001D01*
X130880000Y-70045002D02*
X130880000Y-69470000D01*
X132024999Y-71190001D02*
X130880000Y-70045002D01*
X134845001Y-71190001D02*
X132024999Y-71190001D01*
X149300000Y-70015002D02*
X149300000Y-69440000D01*
X153265001Y-71160001D02*
X150444999Y-71160001D01*
X150444999Y-71160001D02*
X149300000Y-70015002D01*
X154455000Y-69970002D02*
X153265001Y-71160001D01*
X136035000Y-69490000D02*
X136035000Y-70000002D01*
D37*
X109645001Y-33720001D02*
X108550000Y-32625000D01*
X110275001Y-33720001D02*
X109645001Y-33720001D01*
X111325000Y-34770000D02*
X110275001Y-33720001D01*
X108550000Y-32625000D02*
X107440000Y-32625000D01*
D38*
X104470000Y-42575002D02*
X104470000Y-42000000D01*
X105614999Y-43720001D02*
X104470000Y-42575002D01*
X109625000Y-42530002D02*
X108435001Y-43720001D01*
X108435001Y-43720001D02*
X105614999Y-43720001D01*
D37*
X111325000Y-35320000D02*
X111325000Y-34770000D01*
D38*
X109625000Y-42020000D02*
X109625000Y-42530002D01*
X98885000Y-69530000D02*
X98885000Y-70040002D01*
X98885000Y-70040002D02*
X97695001Y-71230001D01*
X94874999Y-71230001D02*
X93730000Y-70085002D01*
X93730000Y-70085002D02*
X93730000Y-69510000D01*
X97695001Y-71230001D02*
X94874999Y-71230001D01*
D37*
X97810000Y-60135000D02*
X96700000Y-60135000D01*
X98905001Y-61230001D02*
X97810000Y-60135000D01*
X100585000Y-62280000D02*
X99535001Y-61230001D01*
X99535001Y-61230001D02*
X98905001Y-61230001D01*
X100585000Y-62830000D02*
X100585000Y-62280000D01*
X119005000Y-62800000D02*
X119005000Y-62250000D01*
X119005000Y-62250000D02*
X117955001Y-61200001D01*
X117955001Y-61200001D02*
X117325001Y-61200001D01*
X117325001Y-61200001D02*
X116230000Y-60105000D01*
X116230000Y-60105000D02*
X115120000Y-60105000D01*
D38*
X116115001Y-71200001D02*
X113294999Y-71200001D01*
X117305000Y-69500000D02*
X117305000Y-70010002D01*
X113294999Y-71200001D02*
X112150000Y-70055002D01*
X112150000Y-70055002D02*
X112150000Y-69480000D01*
X117305000Y-70010002D02*
X116115001Y-71200001D01*
D37*
X90585000Y-35330000D02*
X90585000Y-34780000D01*
X90585000Y-34780000D02*
X89535001Y-33730001D01*
X89535001Y-33730001D02*
X88905001Y-33730001D01*
X87810000Y-32635000D02*
X86700000Y-32635000D01*
X88905001Y-33730001D02*
X87810000Y-32635000D01*
D38*
X87695001Y-43730001D02*
X84874999Y-43730001D01*
X83730000Y-42585002D02*
X83730000Y-42010000D01*
X88885000Y-42540002D02*
X87695001Y-43730001D01*
X84874999Y-43730001D02*
X83730000Y-42585002D01*
X88885000Y-42030000D02*
X88885000Y-42540002D01*
D37*
X81965000Y-62840000D02*
X81965000Y-62290000D01*
X80915001Y-61240001D02*
X80285001Y-61240001D01*
X81965000Y-62290000D02*
X80915001Y-61240001D01*
X80285001Y-61240001D02*
X79190000Y-60145000D01*
D38*
X79075001Y-71240001D02*
X76254999Y-71240001D01*
X80265000Y-69540000D02*
X80265000Y-70050002D01*
X76254999Y-71240001D02*
X75110000Y-70095002D01*
X75110000Y-70095002D02*
X75110000Y-69520000D01*
X80265000Y-70050002D02*
X79075001Y-71240001D01*
D37*
X79190000Y-60145000D02*
X78080000Y-60145000D01*
X74285000Y-35360000D02*
X74285000Y-34810000D01*
X72605001Y-33760001D02*
X71510000Y-32665000D01*
X71510000Y-32665000D02*
X70400000Y-32665000D01*
X73235001Y-33760001D02*
X72605001Y-33760001D01*
X74285000Y-34810000D02*
X73235001Y-33760001D01*
D38*
X68574999Y-43760001D02*
X67430000Y-42615002D01*
X72585000Y-42060000D02*
X72585000Y-42570002D01*
X72585000Y-42570002D02*
X71395001Y-43760001D01*
X71395001Y-43760001D02*
X68574999Y-43760001D01*
X67430000Y-42615002D02*
X67430000Y-42040000D01*
D37*
X63545000Y-62870000D02*
X63545000Y-62320000D01*
X61865001Y-61270001D02*
X60770000Y-60175000D01*
X60770000Y-60175000D02*
X59660000Y-60175000D01*
X62495001Y-61270001D02*
X61865001Y-61270001D01*
X63545000Y-62320000D02*
X62495001Y-61270001D01*
D38*
X57834999Y-71270001D02*
X56690000Y-70125002D01*
X61845000Y-69570000D02*
X61845000Y-70080002D01*
X61845000Y-70080002D02*
X60655001Y-71270001D01*
X60655001Y-71270001D02*
X57834999Y-71270001D01*
X56690000Y-70125002D02*
X56690000Y-69550000D01*
D37*
X53545000Y-35370000D02*
X53545000Y-34820000D01*
X53545000Y-34820000D02*
X52495001Y-33770001D01*
X52495001Y-33770001D02*
X51865001Y-33770001D01*
X51865001Y-33770001D02*
X50770000Y-32675000D01*
X50770000Y-32675000D02*
X49660000Y-32675000D01*
D38*
X51845000Y-42070000D02*
X51845000Y-42580002D01*
X51845000Y-42580002D02*
X50655001Y-43770001D01*
X50655001Y-43770001D02*
X47834999Y-43770001D01*
X47834999Y-43770001D02*
X46690000Y-42625002D01*
X46690000Y-42625002D02*
X46690000Y-42050000D01*
D36*
X65180000Y-23175952D02*
X65180000Y-30210000D01*
X65180000Y-30210000D02*
X66880000Y-31910000D01*
X66880000Y-31910000D02*
X66880000Y-32615000D01*
X65915952Y-22440000D02*
X65180000Y-23175952D01*
X68890000Y-6270000D02*
X68890000Y-6764974D01*
X66620002Y-22440000D02*
X65915952Y-22440000D01*
X68890000Y-6764974D02*
X69200010Y-7074984D01*
X69200010Y-7074984D02*
X69200010Y-19859992D01*
X69200010Y-19859992D02*
X66620002Y-22440000D01*
X44940000Y-790000D02*
X65020000Y-790000D01*
X42280000Y-3450000D02*
X44940000Y-790000D01*
X42280000Y-5200000D02*
X42280000Y-3450000D01*
D37*
X70400000Y-35935000D02*
X70200000Y-35935000D01*
X69985000Y-38060000D02*
X69985000Y-36350000D01*
X69985000Y-36350000D02*
X70400000Y-35935000D01*
X70200000Y-35935000D02*
X66880000Y-32615000D01*
D36*
X42280000Y-11860000D02*
X42280000Y-5200000D01*
X36930000Y-17210000D02*
X42280000Y-11860000D01*
X36930000Y-17270000D02*
X36930000Y-17210000D01*
X29200000Y-24850000D02*
X29350000Y-24850000D01*
X29350000Y-24850000D02*
X36930000Y-17270000D01*
X30480000Y-29210000D02*
X28670000Y-29210000D01*
X68870000Y-73340000D02*
X68870000Y-66490000D01*
X36830000Y-33584974D02*
X38720000Y-35474974D01*
X36830000Y-33090000D02*
X36830000Y-33584974D01*
X65780060Y-85379940D02*
X68880000Y-82280000D01*
X43829940Y-85379940D02*
X65780060Y-85379940D01*
X38720000Y-80270000D02*
X43829940Y-85379940D01*
X38720000Y-35474974D02*
X38720000Y-80270000D01*
X68880000Y-76660000D02*
X68870000Y-76650000D01*
X68880000Y-82280000D02*
X68880000Y-76660000D01*
X74560000Y-60800000D02*
X74560000Y-60095000D01*
X68870000Y-66490000D02*
X74560000Y-60800000D01*
X74525000Y-60060000D02*
X74560000Y-60095000D01*
D37*
X77880000Y-63415000D02*
X74560000Y-60095000D01*
X77665000Y-65540000D02*
X77665000Y-63830000D01*
X77665000Y-63830000D02*
X78080000Y-63415000D01*
X78080000Y-63415000D02*
X77880000Y-63415000D01*
D36*
X30450000Y-31850000D02*
X29840000Y-31850000D01*
X29840000Y-31850000D02*
X28670000Y-33020000D01*
X85720000Y-28260000D02*
X85720000Y-30200000D01*
X85720000Y-30200000D02*
X83335000Y-32585000D01*
X83335000Y-32585000D02*
X83180000Y-32585000D01*
X87500000Y-6170000D02*
X87849999Y-6519999D01*
X87849999Y-6519999D02*
X87849999Y-23530001D01*
X87849999Y-23530001D02*
X86630000Y-24750000D01*
X81400000Y-760000D02*
X82800000Y-760000D01*
X82800000Y-760000D02*
X82870000Y-830000D01*
X66250000Y-760000D02*
X81400000Y-760000D01*
X65544999Y-1465001D02*
X66250000Y-760000D01*
X63800000Y-1240010D02*
X64024991Y-1465001D01*
X64024991Y-1465001D02*
X65544999Y-1465001D01*
X45126400Y-1240010D02*
X63800000Y-1240010D01*
X42730010Y-3636400D02*
X45126400Y-1240010D01*
X83050000Y-32715000D02*
X83180000Y-32585000D01*
D37*
X86500000Y-35905000D02*
X83180000Y-32585000D01*
X86285000Y-38030000D02*
X86285000Y-36320000D01*
X86700000Y-35905000D02*
X86500000Y-35905000D01*
X86285000Y-36320000D02*
X86700000Y-35905000D01*
D36*
X42730010Y-12046400D02*
X42730010Y-3636400D01*
X32940000Y-21896410D02*
X42730010Y-12106400D01*
X42730010Y-12106400D02*
X42730010Y-12046400D01*
X32940000Y-29360000D02*
X32940000Y-21896410D01*
X29200000Y-31850000D02*
X30450000Y-31850000D01*
X30450000Y-31850000D02*
X32940000Y-29360000D01*
X29175000Y-36325000D02*
X29175000Y-35350000D01*
X36980000Y-39630000D02*
X36980000Y-46070000D01*
X38120010Y-47210010D02*
X38120010Y-80310010D01*
X36980000Y-46070000D02*
X38120010Y-47210010D01*
X38120010Y-80310010D02*
X43639950Y-85829950D01*
X43639950Y-85829950D02*
X82700050Y-85829950D01*
X82700050Y-85829950D02*
X87270000Y-81260000D01*
X93180000Y-60790000D02*
X93180000Y-60085000D01*
X87270000Y-66700000D02*
X93180000Y-60790000D01*
X87270000Y-76980000D02*
X87260000Y-76970000D01*
X87270000Y-81260000D02*
X87270000Y-76980000D01*
X87270000Y-72185026D02*
X87270000Y-66700000D01*
X87260000Y-72195026D02*
X87270000Y-72185026D01*
X87260000Y-72690000D02*
X87260000Y-72195026D01*
X29175000Y-36325000D02*
X28670000Y-36830000D01*
D37*
X96500000Y-63405000D02*
X93180000Y-60085000D01*
X96285000Y-63820000D02*
X96700000Y-63405000D01*
X96700000Y-63405000D02*
X96500000Y-63405000D01*
X96285000Y-65530000D02*
X96285000Y-63820000D01*
D36*
X29210000Y-38850000D02*
X29210000Y-40100000D01*
X29210000Y-40100000D02*
X28670000Y-40640000D01*
X106340000Y-28900000D02*
X106340000Y-30310000D01*
X104075000Y-32575000D02*
X103920000Y-32575000D01*
X106340000Y-30310000D02*
X104075000Y-32575000D01*
X106000000Y-5940000D02*
X107330000Y-7270000D01*
X107330000Y-7270000D02*
X107330000Y-24800000D01*
X84000000Y-810000D02*
X101460000Y-810000D01*
X83304999Y-1505001D02*
X84000000Y-810000D01*
X81213600Y-1210010D02*
X82251008Y-1210010D01*
X82251008Y-1210010D02*
X82545999Y-1505001D01*
X82545999Y-1505001D02*
X83304999Y-1505001D01*
X71610000Y-1210010D02*
X81213600Y-1210010D01*
X66436400Y-1210010D02*
X71610000Y-1210010D01*
X45329980Y-1690020D02*
X63613600Y-1690020D01*
X63613600Y-1690020D02*
X63838591Y-1915011D01*
X63838591Y-1915011D02*
X65731400Y-1915010D01*
X65731400Y-1915010D02*
X66436400Y-1210010D01*
X43180020Y-3839980D02*
X45329980Y-1690020D01*
D37*
X107240000Y-35895000D02*
X103920000Y-32575000D01*
X107440000Y-35895000D02*
X107240000Y-35895000D01*
X107025000Y-36310000D02*
X107440000Y-35895000D01*
X107025000Y-38020000D02*
X107025000Y-36310000D01*
D36*
X43180020Y-12232800D02*
X43180020Y-3839980D01*
X33390010Y-22082810D02*
X43180020Y-12292800D01*
X43180020Y-12292800D02*
X43180020Y-12232800D01*
X33390010Y-29546400D02*
X33390010Y-22082810D01*
X29175000Y-38850000D02*
X29210000Y-38850000D01*
X29210000Y-38850000D02*
X30425000Y-38850000D01*
X30425000Y-38850000D02*
X33390010Y-35884990D01*
X33390010Y-35884990D02*
X33390010Y-29546400D01*
X105650000Y-72500000D02*
X105650000Y-66710000D01*
X105650000Y-83090000D02*
X105650000Y-77430000D01*
X105650000Y-77430000D02*
X105690000Y-77390000D01*
X111600000Y-60760000D02*
X111600000Y-60055000D01*
X105650000Y-66710000D02*
X111600000Y-60760000D01*
X102460040Y-86279960D02*
X105650000Y-83090000D01*
X43365600Y-86279960D02*
X102460040Y-86279960D01*
X37600040Y-80514400D02*
X43365600Y-86279960D01*
X37600040Y-80049960D02*
X37600040Y-80514400D01*
X37670000Y-49554974D02*
X37670000Y-79980000D01*
X37670000Y-79980000D02*
X37600040Y-80049960D01*
X37230000Y-49114974D02*
X37670000Y-49554974D01*
D37*
X114920000Y-63375000D02*
X111600000Y-60055000D01*
X114705000Y-63790000D02*
X115120000Y-63375000D01*
X115120000Y-63375000D02*
X114920000Y-63375000D01*
X114705000Y-65500000D02*
X114705000Y-63790000D01*
D36*
X37230000Y-48620000D02*
X37230000Y-49114974D01*
X122810000Y-28500000D02*
X122810000Y-30220000D01*
X122810000Y-30220000D02*
X120485000Y-32545000D01*
X120485000Y-32545000D02*
X120330000Y-32545000D01*
X126270000Y-14480000D02*
X126270000Y-22290000D01*
X126270000Y-22290000D02*
X123860000Y-24700000D01*
X124680000Y-12890000D02*
X126270000Y-14480000D01*
X124680000Y-5090000D02*
X124680000Y-12890000D01*
X101854999Y-1485001D02*
X102480000Y-860000D01*
X102480000Y-860000D02*
X119620000Y-860000D01*
X100500000Y-1260010D02*
X100724991Y-1485001D01*
X100724991Y-1485001D02*
X101854999Y-1485001D01*
X84219990Y-1260010D02*
X100500000Y-1260010D01*
X81027200Y-1660020D02*
X82064608Y-1660020D01*
X82064608Y-1660020D02*
X82359599Y-1955011D01*
X82359599Y-1955011D02*
X83524989Y-1955011D01*
X83524989Y-1955011D02*
X84219990Y-1260010D01*
X71423600Y-1660020D02*
X81027200Y-1660020D01*
X66622800Y-1660020D02*
X71423600Y-1660020D01*
D37*
X123850000Y-35865000D02*
X123650000Y-35865000D01*
X123435000Y-36280000D02*
X123850000Y-35865000D01*
X123435000Y-37990000D02*
X123435000Y-36280000D01*
X123650000Y-35865000D02*
X120330000Y-32545000D01*
D36*
X65917801Y-2365019D02*
X66622800Y-1660020D01*
X45516380Y-2140030D02*
X63427200Y-2140030D01*
X63427200Y-2140030D02*
X63652192Y-2365020D01*
X63652192Y-2365020D02*
X65917801Y-2365019D01*
X43630030Y-4026380D02*
X45516380Y-2140030D01*
X43630030Y-12419200D02*
X43630030Y-4026380D01*
X33840020Y-22269210D02*
X43630030Y-12479200D01*
X43630030Y-12479200D02*
X43630030Y-12419200D01*
X33840020Y-41359980D02*
X33840020Y-22269210D01*
X29200000Y-48390000D02*
X29350000Y-48390000D01*
X29350000Y-48390000D02*
X33840020Y-41359980D01*
X124690000Y-72360000D02*
X124690000Y-66390000D01*
X124690000Y-66390000D02*
X130330000Y-60750000D01*
X130330000Y-60750000D02*
X130330000Y-60045000D01*
X124770000Y-82840000D02*
X124770000Y-77460000D01*
X124770000Y-77460000D02*
X124740000Y-77430000D01*
X43179200Y-86729970D02*
X120880030Y-86729970D01*
X120880030Y-86729970D02*
X124770000Y-82840000D01*
D37*
X133650000Y-63365000D02*
X130330000Y-60045000D01*
X133435000Y-63780000D02*
X133850000Y-63365000D01*
X133850000Y-63365000D02*
X133650000Y-63365000D01*
X133435000Y-65490000D02*
X133435000Y-63780000D01*
D36*
X37150030Y-75165800D02*
X37150030Y-80700800D01*
X36930000Y-74945770D02*
X37150030Y-75165800D01*
X37150030Y-80700800D02*
X43179200Y-86729970D01*
X36110000Y-74090000D02*
X36930000Y-74910000D01*
X36930000Y-74910000D02*
X36930000Y-74945770D01*
X36110000Y-55020000D02*
X36110000Y-74090000D01*
X143680000Y-28360000D02*
X143680000Y-30080000D01*
X143680000Y-30080000D02*
X141225000Y-32535000D01*
X141225000Y-32535000D02*
X141070000Y-32535000D01*
X143000000Y-11580000D02*
X144500000Y-13080000D01*
X144500000Y-13080000D02*
X144500000Y-24410000D01*
X143000000Y-6360000D02*
X143000000Y-11580000D01*
X121194999Y-1535001D02*
X121820000Y-910000D01*
X121820000Y-910000D02*
X138450000Y-910000D01*
X102666400Y-1310010D02*
X119071008Y-1310010D01*
X119071008Y-1310010D02*
X119295999Y-1535001D01*
X119295999Y-1535001D02*
X121194999Y-1535001D01*
X102041400Y-1935010D02*
X102666400Y-1310010D01*
X100190000Y-1730000D02*
X100395011Y-1935011D01*
X100395011Y-1935011D02*
X102041400Y-1935010D01*
X83711390Y-2405020D02*
X84386410Y-1730000D01*
X84386410Y-1730000D02*
X100190000Y-1730000D01*
X80840800Y-2110030D02*
X81878208Y-2110030D01*
X81878208Y-2110030D02*
X82173199Y-2405021D01*
X82173199Y-2405021D02*
X83711390Y-2405020D01*
X66104202Y-2815028D02*
X66809200Y-2110030D01*
X66809200Y-2110030D02*
X80840800Y-2110030D01*
X62970000Y-2590040D02*
X63194988Y-2815028D01*
X63194988Y-2815028D02*
X66104202Y-2815028D01*
X45779960Y-2590040D02*
X62970000Y-2590040D01*
X44170000Y-4200000D02*
X45779960Y-2590040D01*
D37*
X144390000Y-35855000D02*
X141070000Y-32535000D01*
X144175000Y-36270000D02*
X144590000Y-35855000D01*
X144175000Y-37980000D02*
X144175000Y-36270000D01*
X144590000Y-35855000D02*
X144390000Y-35855000D01*
D36*
X44170000Y-12575640D02*
X44170000Y-4200000D01*
X34290030Y-41546380D02*
X34290030Y-22455610D01*
X34290030Y-22455610D02*
X44170000Y-12575640D01*
X29200000Y-55390000D02*
X30450000Y-55390000D01*
X30450000Y-55390000D02*
X34290030Y-49009970D01*
X34290030Y-49009970D02*
X34290030Y-41546380D01*
X35049999Y-73702179D02*
X35049999Y-63756001D01*
X143130000Y-72000000D02*
X143130000Y-66340000D01*
X143130000Y-66340000D02*
X148750000Y-60720000D01*
X148750000Y-60015000D02*
X148750000Y-60720000D01*
X143160000Y-83310000D02*
X143160000Y-77570000D01*
X143160000Y-77570000D02*
X143130000Y-77540000D01*
X42992800Y-87179980D02*
X139290020Y-87179980D01*
X139290020Y-87179980D02*
X143160000Y-83310000D01*
X36700020Y-75352200D02*
X36700020Y-80887200D01*
X36700020Y-80887200D02*
X42992800Y-87179980D01*
X35049999Y-73702179D02*
X36700020Y-75352200D01*
D37*
X152270000Y-63335000D02*
X152070000Y-63335000D01*
X151855000Y-65460000D02*
X151855000Y-63750000D01*
X151855000Y-63750000D02*
X152270000Y-63335000D01*
X152070000Y-63335000D02*
X148750000Y-60015000D01*
D36*
X31210000Y-62230000D02*
X28670000Y-59690000D01*
X33523998Y-62230000D02*
X31210000Y-62230000D01*
X35049999Y-63756001D02*
X33523998Y-62230000D01*
X34036000Y-58928000D02*
X33274000Y-58928000D01*
X34740040Y-55534960D02*
X34740040Y-41732780D01*
X34740040Y-22642010D02*
X44620010Y-12762040D01*
X34740040Y-41732780D02*
X34740040Y-22642010D01*
X44620010Y-4389990D02*
X45969950Y-3040050D01*
X44620010Y-12762040D02*
X44620010Y-4389990D01*
X45969950Y-3040050D02*
X62490000Y-3040050D01*
X62714988Y-3265038D02*
X66290603Y-3265037D01*
X62490000Y-3040050D02*
X62714988Y-3265038D01*
X66995600Y-2560040D02*
X80654400Y-2560040D01*
X66290603Y-3265037D02*
X66995600Y-2560040D01*
X81986800Y-2855030D02*
X83897791Y-2855029D01*
X81691808Y-2560040D02*
X81986800Y-2855030D01*
X80654400Y-2560040D02*
X81691808Y-2560040D01*
X83897791Y-2855029D02*
X84572810Y-2180010D01*
X102464980Y-2385020D02*
X103089980Y-1760020D01*
X100208612Y-2385020D02*
X102464980Y-2385020D01*
X100003600Y-2180010D02*
X100208612Y-2385020D01*
X84572810Y-2180010D02*
X100003600Y-2180010D01*
X103089980Y-1760020D02*
X118700000Y-1760020D01*
X121494989Y-1985011D02*
X122119990Y-1360010D01*
X119109599Y-1985011D02*
X121494989Y-1985011D01*
X118884608Y-1760020D02*
X119109599Y-1985011D01*
X118700000Y-1760020D02*
X118884608Y-1760020D01*
X122119990Y-1360010D02*
X137410000Y-1360010D01*
X138125999Y-1585001D02*
X139434999Y-1585001D01*
X137901008Y-1360010D02*
X138125999Y-1585001D01*
X137410000Y-1360010D02*
X137901008Y-1360010D01*
X34740040Y-58223960D02*
X34036000Y-58928000D01*
X34740040Y-55534960D02*
X34740040Y-58223960D01*
X28702000Y-63500000D02*
X28670000Y-63500000D01*
X33274000Y-58928000D02*
X31750000Y-60452000D01*
X140140000Y-880000D02*
X157080000Y-880000D01*
X139434999Y-1585001D02*
X140140000Y-880000D01*
X161570000Y-6190000D02*
X161940000Y-6560000D01*
X161940000Y-6560000D02*
X161940000Y-14000000D01*
X161940000Y-14000000D02*
X162680000Y-14740000D01*
X162680000Y-22390000D02*
X160760000Y-24310000D01*
X162680000Y-14740000D02*
X162680000Y-22390000D01*
X157370000Y-32130000D02*
X159810000Y-29690000D01*
X157370000Y-32130000D02*
X157370000Y-32505000D01*
D37*
X160475000Y-37950000D02*
X160475000Y-36240000D01*
X160475000Y-36240000D02*
X160890000Y-35825000D01*
X160890000Y-35825000D02*
X160690000Y-35825000D01*
X160690000Y-35825000D02*
X157370000Y-32505000D01*
D39*
X58000000Y-14100000D02*
X58000000Y-18700000D01*
X58000000Y-18700000D02*
X55670000Y-21030000D01*
X55670000Y-21030000D02*
X55670000Y-22650000D01*
X56625000Y-7975000D02*
X56625000Y-12725000D01*
X56625000Y-12725000D02*
X58000000Y-14100000D01*
D40*
X55670000Y-24020000D02*
X55670000Y-22650000D01*
X53430000Y-27980000D02*
X53430000Y-24989998D01*
X53430000Y-24989998D02*
X54399998Y-24020000D01*
X54399998Y-24020000D02*
X55670000Y-24020000D01*
X54550000Y-29100000D02*
X53430000Y-27980000D01*
X55670000Y-29100000D02*
X54550000Y-29100000D01*
D39*
X61780000Y-23995000D02*
X61780000Y-46260000D01*
X61780000Y-46260000D02*
X65670000Y-50150000D01*
X67375000Y-18150000D02*
X67375000Y-18400000D01*
X67375000Y-18400000D02*
X61780000Y-23995000D01*
X65900000Y-14100000D02*
X65900000Y-16675000D01*
X65900000Y-16675000D02*
X67375000Y-18150000D01*
X65925000Y-7975000D02*
X65925000Y-14075000D01*
X65925000Y-14075000D02*
X65900000Y-14100000D01*
D40*
X64550000Y-56600000D02*
X63430000Y-55480000D01*
X63430000Y-55480000D02*
X63430000Y-52489998D01*
X65670000Y-56600000D02*
X64550000Y-56600000D01*
X65670000Y-51520000D02*
X65670000Y-50150000D01*
X64399998Y-51520000D02*
X65670000Y-51520000D01*
X63430000Y-52489998D02*
X64399998Y-51520000D01*
D39*
X75275000Y-18150000D02*
X75275000Y-21505000D01*
X75275000Y-21505000D02*
X76410000Y-22640000D01*
X76700000Y-14125000D02*
X76700000Y-16725000D01*
X76700000Y-16725000D02*
X75275000Y-18150000D01*
X75275000Y-7975000D02*
X75275000Y-12700000D01*
X75275000Y-12700000D02*
X76700000Y-14125000D01*
D40*
X75290000Y-29090000D02*
X74170000Y-27970000D01*
X74170000Y-27970000D02*
X74170000Y-24979998D01*
X76410000Y-29090000D02*
X75290000Y-29090000D01*
X76410000Y-24010000D02*
X76410000Y-22640000D01*
X75139998Y-24010000D02*
X76410000Y-24010000D01*
X74170000Y-24979998D02*
X75139998Y-24010000D01*
D39*
X80010000Y-19790000D02*
X80010000Y-46040000D01*
X80010000Y-46040000D02*
X84090000Y-50120000D01*
X85975000Y-18175000D02*
X81625000Y-18175000D01*
X81625000Y-18175000D02*
X80010000Y-19790000D01*
X84600000Y-14125000D02*
X84600000Y-16800000D01*
X84600000Y-16800000D02*
X85975000Y-18175000D01*
X84600000Y-7975000D02*
X84600000Y-14125000D01*
D40*
X84090000Y-51490000D02*
X84090000Y-50120000D01*
X81850000Y-55450000D02*
X81850000Y-52459998D01*
X84090000Y-56570000D02*
X82970000Y-56570000D01*
X82970000Y-56570000D02*
X81850000Y-55450000D01*
X81850000Y-52459998D02*
X82819998Y-51490000D01*
X82819998Y-51490000D02*
X84090000Y-51490000D01*
D39*
X93875000Y-18175000D02*
X93875000Y-21445000D01*
X93875000Y-21445000D02*
X92710000Y-22610000D01*
X95250000Y-14150000D02*
X95250000Y-16800000D01*
X95250000Y-16800000D02*
X93875000Y-18175000D01*
X93875000Y-7975000D02*
X93875000Y-12775000D01*
X93875000Y-12775000D02*
X95250000Y-14150000D01*
D40*
X92710000Y-23980000D02*
X92710000Y-22610000D01*
X91439998Y-23980000D02*
X92710000Y-23980000D01*
X90470000Y-24949998D02*
X91439998Y-23980000D01*
X91590000Y-29060000D02*
X90470000Y-27940000D01*
X92710000Y-29060000D02*
X91590000Y-29060000D01*
X90470000Y-27940000D02*
X90470000Y-24949998D01*
D39*
X98150000Y-24800000D02*
X98150000Y-45550000D01*
X98150000Y-45550000D02*
X102710000Y-50110000D01*
X104525000Y-18175000D02*
X104525000Y-18425000D01*
X104525000Y-18425000D02*
X98150000Y-24800000D01*
X103150000Y-14150000D02*
X103150000Y-16800000D01*
X103150000Y-16800000D02*
X104525000Y-18175000D01*
X103150000Y-7975000D02*
X103150000Y-14150000D01*
D40*
X102710000Y-56560000D02*
X101590000Y-56560000D01*
X100470000Y-52449998D02*
X101439998Y-51480000D01*
X100470000Y-55440000D02*
X100470000Y-52449998D01*
X101590000Y-56560000D02*
X100470000Y-55440000D01*
X101439998Y-51480000D02*
X102710000Y-51480000D01*
X102710000Y-51480000D02*
X102710000Y-50110000D01*
D39*
X112425000Y-18175000D02*
X112425000Y-21575000D01*
X112425000Y-21575000D02*
X113450000Y-22600000D01*
X113800000Y-14150000D02*
X113800000Y-16800000D01*
X113800000Y-16800000D02*
X112425000Y-18175000D01*
X112425000Y-7975000D02*
X112425000Y-12775000D01*
X112425000Y-12775000D02*
X113800000Y-14150000D01*
D40*
X111210000Y-27930000D02*
X111210000Y-24939998D01*
X113450000Y-29050000D02*
X112330000Y-29050000D01*
X112330000Y-29050000D02*
X111210000Y-27930000D01*
X111210000Y-24939998D02*
X112179998Y-23970000D01*
X113450000Y-23970000D02*
X113450000Y-22600000D01*
X112179998Y-23970000D02*
X113450000Y-23970000D01*
D39*
X116880000Y-20980000D02*
X116880000Y-45830000D01*
X116880000Y-45830000D02*
X121130000Y-50080000D01*
X117859999Y-20000001D02*
X116880000Y-20980000D01*
X119720000Y-18150000D02*
X117869999Y-20000001D01*
X117869999Y-20000001D02*
X117859999Y-20000001D01*
X123100000Y-18150000D02*
X119720000Y-18150000D01*
X121700000Y-14150000D02*
X121700000Y-16750000D01*
X121700000Y-16750000D02*
X123100000Y-18150000D01*
X121700000Y-7975000D02*
X121700000Y-14150000D01*
D40*
X121130000Y-51450000D02*
X121130000Y-50080000D01*
X118890000Y-55410000D02*
X118890000Y-52419998D01*
X120010000Y-56530000D02*
X118890000Y-55410000D01*
X118890000Y-52419998D02*
X119859998Y-51450000D01*
X119859998Y-51450000D02*
X121130000Y-51450000D01*
X121130000Y-56530000D02*
X120010000Y-56530000D01*
D39*
X131000000Y-18150000D02*
X131000000Y-21430000D01*
X131000000Y-21430000D02*
X129860000Y-22570000D01*
X132325000Y-14125000D02*
X132325000Y-16825000D01*
X132325000Y-16825000D02*
X131000000Y-18150000D01*
X131000000Y-7975000D02*
X131000000Y-12800000D01*
X131000000Y-12800000D02*
X132325000Y-14125000D01*
D40*
X129860000Y-29020000D02*
X128740000Y-29020000D01*
X128589998Y-23940000D02*
X129860000Y-23940000D01*
X127620000Y-24909998D02*
X128589998Y-23940000D01*
X129860000Y-23940000D02*
X129860000Y-22570000D01*
X128740000Y-29020000D02*
X127620000Y-27900000D01*
X127620000Y-27900000D02*
X127620000Y-24909998D01*
D39*
X136590000Y-20840000D02*
X136590000Y-46800000D01*
X136590000Y-46800000D02*
X139860000Y-50070000D01*
X139280000Y-18150000D02*
X136590000Y-20840000D01*
X141550000Y-18150000D02*
X139280000Y-18150000D01*
X140225000Y-14125000D02*
X140225000Y-16825000D01*
X140225000Y-16825000D02*
X141550000Y-18150000D01*
X140225000Y-7975000D02*
X140225000Y-14125000D01*
D40*
X137620000Y-55400000D02*
X137620000Y-52409998D01*
X138740000Y-56520000D02*
X137620000Y-55400000D01*
X137620000Y-52409998D02*
X138589998Y-51440000D01*
X139860000Y-51440000D02*
X139860000Y-50070000D01*
X139860000Y-56520000D02*
X138740000Y-56520000D01*
X138589998Y-51440000D02*
X139860000Y-51440000D01*
D39*
X149450000Y-18150000D02*
X149450000Y-21410000D01*
X149450000Y-21410000D02*
X150600000Y-22560000D01*
X150825000Y-14150000D02*
X150825000Y-16775000D01*
X150825000Y-16775000D02*
X149450000Y-18150000D01*
X149450000Y-7975000D02*
X149450000Y-12775000D01*
X149450000Y-12775000D02*
X150825000Y-14150000D01*
D40*
X148360000Y-27890000D02*
X148360000Y-24899998D01*
X149480000Y-29010000D02*
X148360000Y-27890000D01*
X150600000Y-29010000D02*
X149480000Y-29010000D01*
X150600000Y-23930000D02*
X150600000Y-22560000D01*
X149329998Y-23930000D02*
X150600000Y-23930000D01*
X148360000Y-24899998D02*
X149329998Y-23930000D01*
D39*
X160100000Y-18150000D02*
X155750000Y-18150000D01*
X155750000Y-18150000D02*
X154290000Y-19610000D01*
X154290000Y-19610000D02*
X154290000Y-46050000D01*
X154290000Y-46050000D02*
X158280000Y-50040000D01*
X158725000Y-14150000D02*
X158725000Y-16775000D01*
X158725000Y-16775000D02*
X160100000Y-18150000D01*
X158725000Y-7975000D02*
X158725000Y-14150000D01*
D40*
X157009998Y-51410000D02*
X158280000Y-51410000D01*
X156040000Y-52379998D02*
X157009998Y-51410000D01*
X156040000Y-55370000D02*
X156040000Y-52379998D01*
X158280000Y-56490000D02*
X157160000Y-56490000D01*
X157160000Y-56490000D02*
X156040000Y-55370000D01*
X158280000Y-51410000D02*
X158280000Y-50040000D01*
X166900000Y-28980000D02*
X166900000Y-29740000D01*
D39*
X168000000Y-18150000D02*
X168000000Y-21430000D01*
X168000000Y-21430000D02*
X166900000Y-22530000D01*
X169325000Y-14100000D02*
X169325000Y-16825000D01*
X169325000Y-16825000D02*
X168000000Y-18150000D01*
X168000000Y-7975000D02*
X168000000Y-12775000D01*
X168000000Y-12775000D02*
X169325000Y-14100000D01*
D40*
X164660000Y-27860000D02*
X164660000Y-24869998D01*
X166900000Y-23900000D02*
X166900000Y-22530000D01*
X165629998Y-23900000D02*
X166900000Y-23900000D01*
X164660000Y-24869998D02*
X165629998Y-23900000D01*
X165780000Y-28980000D02*
X164660000Y-27860000D01*
X166900000Y-28980000D02*
X165780000Y-28980000D01*
D37*
X19722000Y-78322000D02*
X21336000Y-76708000D01*
X21336000Y-76708000D02*
X28214000Y-76708000D01*
X19722000Y-80900000D02*
X19722000Y-78322000D01*
D36*
X13010000Y-50385000D02*
X13010000Y-49474000D01*
X13010000Y-49474000D02*
X13208000Y-49276000D01*
D37*
X18796000Y-78559787D02*
X15982000Y-75745787D01*
X19722000Y-79485787D02*
X18796000Y-78559787D01*
X19722000Y-80900000D02*
X19722000Y-79485787D01*
X15982000Y-75745787D02*
X15982000Y-73152000D01*
D38*
X3810000Y-16510000D02*
X5080000Y-15240000D01*
X5080000Y-15240000D02*
X12700000Y-15240000D01*
X12700000Y-15240000D02*
X13970000Y-13970000D01*
X34919213Y-5080000D02*
X36425000Y-6585787D01*
X13970000Y-13970000D02*
X13970000Y-11430000D01*
X13970000Y-11430000D02*
X20320000Y-5080000D01*
X20320000Y-5080000D02*
X34919213Y-5080000D01*
X36425000Y-6585787D02*
X36425000Y-8000000D01*
X47586000Y-69430000D02*
X47580000Y-69430000D01*
X47625000Y-69469000D02*
X47586000Y-69430000D01*
X36322000Y-8103000D02*
X36425000Y-8000000D01*
X141410000Y-63890000D02*
X141410000Y-66510000D01*
X141410000Y-66510000D02*
X138590000Y-69330000D01*
X138590000Y-69330000D02*
X138590000Y-69480000D01*
X144230000Y-61070000D02*
X141410000Y-63890000D01*
X144230000Y-49190000D02*
X144230000Y-61070000D01*
X146490000Y-46930000D02*
X144230000Y-49190000D01*
X146490000Y-46810000D02*
X146490000Y-46930000D01*
X149330000Y-41970000D02*
X149330000Y-43970000D01*
X149330000Y-43970000D02*
X146490000Y-46810000D01*
X104280000Y-64480000D02*
X104280000Y-66530000D01*
X101440000Y-69370000D02*
X101440000Y-69520000D01*
X104280000Y-66530000D02*
X101440000Y-69370000D01*
X106810000Y-61950000D02*
X104280000Y-64480000D01*
X106810000Y-49180000D02*
X106810000Y-61950000D01*
X109030000Y-46960000D02*
X106810000Y-49180000D01*
X109230000Y-46960000D02*
X109030000Y-46960000D01*
X112180000Y-42010000D02*
X112180000Y-44010000D01*
X112180000Y-44010000D02*
X109230000Y-46960000D01*
X67160000Y-60320000D02*
X67160000Y-66650000D01*
X67160000Y-66650000D02*
X64400000Y-69410000D01*
X64400000Y-69410000D02*
X64400000Y-69560000D01*
X71760000Y-55720000D02*
X67160000Y-60320000D01*
X71760000Y-47430000D02*
X71760000Y-55720000D01*
X75140000Y-42050000D02*
X75140000Y-44050000D01*
X75140000Y-44050000D02*
X71760000Y-47430000D01*
X64400000Y-69560000D02*
X64400000Y-71560000D01*
X64400000Y-71560000D02*
X60800000Y-75160000D01*
X82820000Y-69530000D02*
X82820000Y-71530000D01*
X82820000Y-71530000D02*
X79190000Y-75160000D01*
X101440000Y-69520000D02*
X101440000Y-71520000D01*
X101440000Y-71520000D02*
X97800000Y-75160000D01*
X119860000Y-69490000D02*
X119860000Y-70055002D01*
X119860000Y-70055002D02*
X114755002Y-75160000D01*
X138590000Y-69480000D02*
X138590000Y-71480000D01*
X138590000Y-71480000D02*
X134910000Y-75160000D01*
X157010000Y-69450000D02*
X157010000Y-71450000D01*
X157010000Y-71450000D02*
X153300000Y-75160000D01*
X165630000Y-41940000D02*
X165630000Y-43940000D01*
X165630000Y-43940000D02*
X163540000Y-46030000D01*
X163540000Y-46030000D02*
X163540000Y-62770000D01*
X163540000Y-62770000D02*
X157010000Y-69300000D01*
X157010000Y-69300000D02*
X157010000Y-69450000D01*
X54400000Y-42060000D02*
X54400000Y-44060000D01*
X54400000Y-44060000D02*
X48350000Y-50110000D01*
X49180000Y-4820000D02*
X57630000Y-4820000D01*
X57630000Y-4820000D02*
X94660000Y-4820000D01*
X59850000Y-9890000D02*
X59850000Y-7040000D01*
X59850000Y-7040000D02*
X57630000Y-4820000D01*
X61130000Y-11170000D02*
X59850000Y-9890000D01*
X61130000Y-20050000D02*
X61130000Y-11170000D01*
X57980000Y-23200000D02*
X61130000Y-20050000D01*
X57980000Y-38330000D02*
X57980000Y-23200000D01*
X54400000Y-42060000D02*
X54400000Y-41910000D01*
X54400000Y-41910000D02*
X57980000Y-38330000D01*
X94660000Y-4820000D02*
X121990000Y-4820000D01*
X96880000Y-10240000D02*
X96880000Y-7040000D01*
X96880000Y-7040000D02*
X94660000Y-4820000D01*
X98510000Y-11870000D02*
X96880000Y-10240000D01*
X98510000Y-20270000D02*
X98510000Y-11870000D01*
X95360000Y-23420000D02*
X98510000Y-20270000D01*
X95360000Y-32890000D02*
X95360000Y-23420000D01*
X93370000Y-34880000D02*
X95360000Y-32890000D01*
X93370000Y-39940000D02*
X93370000Y-34880000D01*
X91440000Y-42020000D02*
X91440000Y-41870000D01*
X91440000Y-41870000D02*
X93370000Y-39940000D01*
X123210000Y-3600000D02*
X132150000Y-3600000D01*
X128590000Y-41980000D02*
X128590000Y-41830000D01*
X134020000Y-9760000D02*
X134020000Y-5470000D01*
X128590000Y-41830000D02*
X133090000Y-37330000D01*
X133090000Y-37330000D02*
X133090000Y-22970000D01*
X133090000Y-22970000D02*
X134020000Y-22040000D01*
X134020000Y-22040000D02*
X134020000Y-18880000D01*
X134020000Y-18880000D02*
X136130000Y-16770000D01*
X136130000Y-16770000D02*
X136130000Y-11870000D01*
X134020000Y-5470000D02*
X132150000Y-3600000D01*
X136130000Y-11870000D02*
X134020000Y-9760000D01*
X149330000Y-41970000D02*
X149360000Y-41970000D01*
X165630000Y-41940000D02*
X165630000Y-41790000D01*
X47180000Y-6820000D02*
X49180000Y-4820000D01*
X121990000Y-4820000D02*
X123210000Y-3600000D01*
X36425000Y-8000000D02*
X40140000Y-8000000D01*
X40140000Y-8000000D02*
X40610000Y-7530000D01*
X53310000Y-75160000D02*
X56170000Y-75160000D01*
X56170000Y-75160000D02*
X75620000Y-75160000D01*
X60800000Y-75160000D02*
X56170000Y-75160000D01*
X75620000Y-75160000D02*
X92700000Y-75160000D01*
X79190000Y-75160000D02*
X75620000Y-75160000D01*
X92700000Y-75160000D02*
X112600000Y-75160000D01*
X97800000Y-75160000D02*
X92700000Y-75160000D01*
X112600000Y-75160000D02*
X132200000Y-75160000D01*
X114755002Y-75160000D02*
X112600000Y-75160000D01*
X132200000Y-75160000D02*
X152400000Y-75160000D01*
X134910000Y-75160000D02*
X132200000Y-75160000D01*
X153300000Y-75160000D02*
X152400000Y-75160000D01*
X45590000Y-60060000D02*
X47580000Y-62050000D01*
X47580000Y-62050000D02*
X47580000Y-69430000D01*
X47580000Y-69430000D02*
X53310000Y-75160000D01*
X48350000Y-50110000D02*
X48350000Y-56100000D01*
X48350000Y-56100000D02*
X47800000Y-56650000D01*
D37*
X51845000Y-38070000D02*
X51845000Y-35570000D01*
X51845000Y-35570000D02*
X51645000Y-35370000D01*
X49245000Y-42070000D02*
X49245000Y-40820000D01*
X51845000Y-38220000D02*
X51845000Y-38070000D01*
X49245000Y-40820000D02*
X51845000Y-38220000D01*
X52595000Y-32370000D02*
X52595000Y-30920000D01*
X52595000Y-30920000D02*
X48235000Y-26560000D01*
X48235000Y-26560000D02*
X47400000Y-26560000D01*
X47400000Y-26560000D02*
X46140000Y-26560000D01*
X61845000Y-63070000D02*
X61645000Y-62870000D01*
X61845000Y-65570000D02*
X61845000Y-63070000D01*
X59245000Y-68320000D02*
X61845000Y-65720000D01*
X59245000Y-69570000D02*
X59245000Y-68320000D01*
X61845000Y-65720000D02*
X61845000Y-65570000D01*
X62595000Y-59870000D02*
X62595000Y-58420000D01*
X62595000Y-58420000D02*
X58235000Y-54060000D01*
X58235000Y-54060000D02*
X57400000Y-54060000D01*
X57400000Y-54060000D02*
X56140000Y-54060000D01*
X72585000Y-35560000D02*
X72385000Y-35360000D01*
X72585000Y-38060000D02*
X72585000Y-35560000D01*
X69985000Y-40810000D02*
X72585000Y-38210000D01*
X69985000Y-42060000D02*
X69985000Y-40810000D01*
X72585000Y-38210000D02*
X72585000Y-38060000D01*
X73335000Y-32360000D02*
X73335000Y-30910000D01*
X73335000Y-30910000D02*
X68975000Y-26550000D01*
X68975000Y-26550000D02*
X68140000Y-26550000D01*
X68140000Y-26550000D02*
X66880000Y-26550000D01*
X80265000Y-63040000D02*
X80065000Y-62840000D01*
X77665000Y-68290000D02*
X80265000Y-65690000D01*
X77665000Y-69540000D02*
X77665000Y-68290000D01*
X80265000Y-65690000D02*
X80265000Y-65540000D01*
X80265000Y-65540000D02*
X80265000Y-63040000D01*
X81015000Y-59840000D02*
X81015000Y-58390000D01*
X81015000Y-58390000D02*
X76655000Y-54030000D01*
X76655000Y-54030000D02*
X75820000Y-54030000D01*
X75820000Y-54030000D02*
X74560000Y-54030000D01*
X88885000Y-38030000D02*
X88885000Y-35530000D01*
X88885000Y-35530000D02*
X88685000Y-35330000D01*
X88885000Y-38180000D02*
X88885000Y-38030000D01*
X86285000Y-42030000D02*
X86285000Y-40780000D01*
X86285000Y-40780000D02*
X88885000Y-38180000D01*
X84440000Y-26520000D02*
X83180000Y-26520000D01*
X85275000Y-26520000D02*
X84440000Y-26520000D01*
X89635000Y-30880000D02*
X85275000Y-26520000D01*
X89635000Y-32330000D02*
X89635000Y-30880000D01*
X98885000Y-65680000D02*
X98885000Y-65530000D01*
X96285000Y-68280000D02*
X98885000Y-65680000D01*
X96285000Y-69530000D02*
X96285000Y-68280000D01*
X98885000Y-65530000D02*
X98885000Y-63030000D01*
X98885000Y-63030000D02*
X98685000Y-62830000D01*
X94440000Y-54020000D02*
X93180000Y-54020000D01*
X95275000Y-54020000D02*
X94440000Y-54020000D01*
X99635000Y-58380000D02*
X95275000Y-54020000D01*
X99635000Y-59830000D02*
X99635000Y-58380000D01*
X109625000Y-35520000D02*
X109425000Y-35320000D01*
X107025000Y-42020000D02*
X107025000Y-40770000D01*
X109625000Y-38170000D02*
X109625000Y-38020000D01*
X107025000Y-40770000D02*
X109625000Y-38170000D01*
X109625000Y-38020000D02*
X109625000Y-35520000D01*
X106015000Y-26510000D02*
X105180000Y-26510000D01*
X110375000Y-30870000D02*
X106015000Y-26510000D01*
X105180000Y-26510000D02*
X103920000Y-26510000D01*
X110375000Y-32320000D02*
X110375000Y-30870000D01*
X117305000Y-63000000D02*
X117105000Y-62800000D01*
X117305000Y-65500000D02*
X117305000Y-63000000D01*
X114705000Y-69500000D02*
X114705000Y-68250000D01*
X117305000Y-65650000D02*
X117305000Y-65500000D01*
X114705000Y-68250000D02*
X117305000Y-65650000D01*
X118055000Y-59800000D02*
X118055000Y-58350000D01*
X118055000Y-58350000D02*
X113695000Y-53990000D01*
X113695000Y-53990000D02*
X112860000Y-53990000D01*
X112860000Y-53990000D02*
X111600000Y-53990000D01*
X126035000Y-35490000D02*
X125835000Y-35290000D01*
X126035000Y-37990000D02*
X126035000Y-35490000D01*
X123435000Y-41990000D02*
X123435000Y-40740000D01*
X123435000Y-40740000D02*
X126035000Y-38140000D01*
X126035000Y-38140000D02*
X126035000Y-37990000D01*
X122425000Y-26480000D02*
X121590000Y-26480000D01*
X126785000Y-30840000D02*
X122425000Y-26480000D01*
X121590000Y-26480000D02*
X120330000Y-26480000D01*
X126785000Y-32290000D02*
X126785000Y-30840000D01*
X136035000Y-62990000D02*
X135835000Y-62790000D01*
X133435000Y-69490000D02*
X133435000Y-68240000D01*
X136035000Y-65640000D02*
X136035000Y-65490000D01*
X136035000Y-65490000D02*
X136035000Y-62990000D01*
X133435000Y-68240000D02*
X136035000Y-65640000D01*
X132425000Y-53980000D02*
X131590000Y-53980000D01*
X136785000Y-58340000D02*
X132425000Y-53980000D01*
X131590000Y-53980000D02*
X130330000Y-53980000D01*
X136785000Y-59790000D02*
X136785000Y-58340000D01*
X146775000Y-35480000D02*
X146575000Y-35280000D01*
X146775000Y-37980000D02*
X146775000Y-35480000D01*
X146775000Y-38130000D02*
X146775000Y-37980000D01*
X144175000Y-41980000D02*
X144175000Y-40730000D01*
X144175000Y-40730000D02*
X146775000Y-38130000D01*
X147525000Y-30830000D02*
X143165000Y-26470000D01*
X142330000Y-26470000D02*
X141070000Y-26470000D01*
X143165000Y-26470000D02*
X142330000Y-26470000D01*
X147525000Y-32280000D02*
X147525000Y-30830000D01*
X151855000Y-68210000D02*
X154455000Y-65610000D01*
X154455000Y-65610000D02*
X154455000Y-65460000D01*
X151855000Y-69460000D02*
X151855000Y-68210000D01*
X154455000Y-62960000D02*
X154255000Y-62760000D01*
X154455000Y-65460000D02*
X154455000Y-62960000D01*
X155205000Y-59760000D02*
X155205000Y-58310000D01*
X150845000Y-53950000D02*
X150010000Y-53950000D01*
X150010000Y-53950000D02*
X148750000Y-53950000D01*
X155205000Y-58310000D02*
X150845000Y-53950000D01*
X163075000Y-38100000D02*
X163075000Y-37950000D01*
X160475000Y-40700000D02*
X163075000Y-38100000D01*
X160475000Y-41950000D02*
X160475000Y-40700000D01*
X163075000Y-37950000D02*
X163075000Y-35450000D01*
X163075000Y-35450000D02*
X162875000Y-35250000D01*
X159465000Y-26440000D02*
X158630000Y-26440000D01*
X163825000Y-30800000D02*
X159465000Y-26440000D01*
X158630000Y-26440000D02*
X157370000Y-26440000D01*
X163825000Y-32250000D02*
X163825000Y-30800000D01*
X46140000Y-24020000D02*
X47400000Y-24020000D01*
X47400000Y-24020000D02*
X54710000Y-31330000D01*
X54710000Y-31330000D02*
X54710000Y-36880000D01*
X54710000Y-36880000D02*
X54400000Y-37190000D01*
X54400000Y-37190000D02*
X54400000Y-38060000D01*
X64710000Y-64380000D02*
X64400000Y-64690000D01*
X64710000Y-58830000D02*
X64710000Y-64380000D01*
X64400000Y-64690000D02*
X64400000Y-65560000D01*
X57400000Y-51520000D02*
X64710000Y-58830000D01*
X56140000Y-51520000D02*
X57400000Y-51520000D01*
X75450000Y-36870000D02*
X75140000Y-37180000D01*
X75450000Y-31320000D02*
X75450000Y-36870000D01*
X75140000Y-37180000D02*
X75140000Y-38050000D01*
X68140000Y-24010000D02*
X75450000Y-31320000D01*
X66880000Y-24010000D02*
X68140000Y-24010000D01*
X83130000Y-64350000D02*
X82820000Y-64660000D01*
X82820000Y-64660000D02*
X82820000Y-65530000D01*
X83130000Y-58800000D02*
X83130000Y-64350000D01*
X75820000Y-51490000D02*
X83130000Y-58800000D01*
X74560000Y-51490000D02*
X75820000Y-51490000D01*
X84440000Y-23980000D02*
X91750000Y-31290000D01*
X83180000Y-23980000D02*
X84440000Y-23980000D01*
X91440000Y-37150000D02*
X91440000Y-38020000D01*
X91750000Y-36840000D02*
X91440000Y-37150000D01*
X91750000Y-31290000D02*
X91750000Y-36840000D01*
X93180000Y-51480000D02*
X94440000Y-51480000D01*
X94440000Y-51480000D02*
X101750000Y-58790000D01*
X101750000Y-58790000D02*
X101750000Y-64340000D01*
X101440000Y-64650000D02*
X101440000Y-65520000D01*
X101750000Y-64340000D02*
X101440000Y-64650000D01*
X105180000Y-23970000D02*
X112490000Y-31280000D01*
X103920000Y-23970000D02*
X105180000Y-23970000D01*
X112490000Y-31280000D02*
X112490000Y-36830000D01*
X112180000Y-37140000D02*
X112180000Y-38010000D01*
X112490000Y-36830000D02*
X112180000Y-37140000D01*
X120170000Y-64310000D02*
X119860000Y-64620000D01*
X119860000Y-64620000D02*
X119860000Y-65490000D01*
X120170000Y-58760000D02*
X120170000Y-64310000D01*
X112860000Y-51450000D02*
X120170000Y-58760000D01*
X111600000Y-51450000D02*
X112860000Y-51450000D01*
X128900000Y-36800000D02*
X128590000Y-37110000D01*
X128590000Y-37110000D02*
X128590000Y-37980000D01*
X120330000Y-23940000D02*
X121590000Y-23940000D01*
X121590000Y-23940000D02*
X128900000Y-31250000D01*
X128900000Y-31250000D02*
X128900000Y-36800000D01*
X130330000Y-51440000D02*
X131590000Y-51440000D01*
X131590000Y-51440000D02*
X138900000Y-58750000D01*
X138900000Y-64300000D02*
X138590000Y-64610000D01*
X138590000Y-64610000D02*
X138590000Y-65480000D01*
X138900000Y-58750000D02*
X138900000Y-64300000D01*
X149640000Y-36790000D02*
X149330000Y-37100000D01*
X149330000Y-37100000D02*
X149330000Y-37970000D01*
X141070000Y-23930000D02*
X142330000Y-23930000D01*
X142330000Y-23930000D02*
X149640000Y-31240000D01*
X149640000Y-31240000D02*
X149640000Y-36790000D01*
X157320000Y-58720000D02*
X157320000Y-64270000D01*
X150010000Y-51410000D02*
X157320000Y-58720000D01*
X148750000Y-51410000D02*
X150010000Y-51410000D01*
X157010000Y-64580000D02*
X157010000Y-65450000D01*
X157320000Y-64270000D02*
X157010000Y-64580000D01*
X165940000Y-36760000D02*
X165630000Y-37070000D01*
X165630000Y-37070000D02*
X165630000Y-37940000D01*
X158630000Y-23900000D02*
X165940000Y-31210000D01*
X157370000Y-23900000D02*
X158630000Y-23900000D01*
X165940000Y-31210000D02*
X165940000Y-36760000D01*
X46690000Y-38050000D02*
X46690000Y-36445000D01*
X46690000Y-36445000D02*
X46140000Y-35895000D01*
X56690000Y-65550000D02*
X56690000Y-63945000D01*
X56690000Y-63945000D02*
X56140000Y-63395000D01*
X67430000Y-38040000D02*
X67430000Y-36435000D01*
X67430000Y-36435000D02*
X66880000Y-35885000D01*
X75110000Y-63915000D02*
X74560000Y-63365000D01*
X75110000Y-65520000D02*
X75110000Y-63915000D01*
X83730000Y-36405000D02*
X83180000Y-35855000D01*
X83730000Y-38010000D02*
X83730000Y-36405000D01*
X93730000Y-65510000D02*
X93730000Y-63905000D01*
X93730000Y-63905000D02*
X93180000Y-63355000D01*
X104470000Y-36395000D02*
X103920000Y-35845000D01*
X104470000Y-38000000D02*
X104470000Y-36395000D01*
X112150000Y-63875000D02*
X111600000Y-63325000D01*
X112150000Y-65480000D02*
X112150000Y-63875000D01*
X120880000Y-37970000D02*
X120880000Y-36365000D01*
X120880000Y-36365000D02*
X120330000Y-35815000D01*
X130880000Y-63865000D02*
X130330000Y-63315000D01*
X130880000Y-65470000D02*
X130880000Y-63865000D01*
X141620000Y-36355000D02*
X141070000Y-35805000D01*
X141620000Y-37960000D02*
X141620000Y-36355000D01*
X149300000Y-65440000D02*
X149300000Y-63835000D01*
X149300000Y-63835000D02*
X148750000Y-63285000D01*
X157920000Y-36325000D02*
X157370000Y-35775000D01*
X157920000Y-37930000D02*
X157920000Y-36325000D01*
D38*
X23222000Y-80900000D02*
X29698000Y-87376000D01*
X29698000Y-87376000D02*
X34210000Y-87376000D01*
D36*
X14224000Y-61976000D02*
X19050000Y-66802000D01*
X19050000Y-66802000D02*
X19304000Y-66802000D01*
X14224000Y-59057410D02*
X14224000Y-61976000D01*
X19433410Y-53848000D02*
X14224000Y-59057410D01*
X19851347Y-53748249D02*
X19751596Y-53848000D01*
X19751596Y-53848000D02*
X19433410Y-53848000D01*
X13010000Y-51035000D02*
X14988002Y-51035000D01*
X14988002Y-51035000D02*
X17780000Y-48243002D01*
X17780000Y-48243002D02*
X17780000Y-48006000D01*
D38*
X26722000Y-80900000D02*
X30658000Y-84836000D01*
X30658000Y-84836000D02*
X34210000Y-84836000D01*
D36*
X20066000Y-66564998D02*
X20066000Y-67564000D01*
X20066000Y-67564000D02*
X20828000Y-68326000D01*
X19050000Y-66040000D02*
X19541002Y-66040000D01*
X19541002Y-66040000D02*
X20066000Y-66564998D01*
X14732000Y-61722000D02*
X19050000Y-66040000D01*
X14732000Y-59436000D02*
X14732000Y-61722000D01*
X16510000Y-57658000D02*
X14732000Y-59436000D01*
X18919998Y-55248002D02*
X16510000Y-57658000D01*
X19338003Y-54898003D02*
X18988004Y-55248002D01*
X18988004Y-55248002D02*
X18919998Y-55248002D01*
X13010000Y-51685000D02*
X15371000Y-51685000D01*
X15371000Y-51685000D02*
X17018000Y-50038000D01*
X42620000Y-88080000D02*
X175768000Y-88080000D01*
D37*
X175768000Y-84094000D02*
X177292000Y-82570000D01*
X175768000Y-88080000D02*
X175768000Y-84094000D01*
X177292000Y-82570000D02*
X177292000Y-82470000D01*
X179090000Y-79756000D02*
X179090000Y-80672000D01*
X179090000Y-80672000D02*
X177292000Y-82470000D01*
D36*
X28702000Y-74168000D02*
X28979488Y-74445488D01*
X28979488Y-74445488D02*
X34520512Y-74445488D01*
X34520512Y-74445488D02*
X35800000Y-75724976D01*
X35800000Y-75724976D02*
X35800000Y-81260000D01*
X35800000Y-81260000D02*
X42620000Y-88080000D01*
X192298000Y-28956000D02*
X191298000Y-28956000D01*
X190500000Y-27242000D02*
X190500000Y-26242000D01*
X191298000Y-28956000D02*
X190500000Y-28158000D01*
X190500000Y-28158000D02*
X190500000Y-27242000D01*
X35190049Y-62622049D02*
X35306000Y-62738000D01*
X28702000Y-67056000D02*
X28670000Y-67024000D01*
X28670000Y-67024000D02*
X28670000Y-66802000D01*
X35190049Y-60960000D02*
X35190049Y-62622049D01*
X61299940Y-3490060D02*
X61524927Y-3715047D01*
X61524927Y-3715047D02*
X66754953Y-3715047D01*
X46200000Y-3520000D02*
X61270000Y-3520000D01*
X61270000Y-3520000D02*
X61299940Y-3490060D01*
X45070020Y-12948440D02*
X45070020Y-4649980D01*
X45070020Y-4649980D02*
X46200000Y-3520000D01*
X35190049Y-60984951D02*
X35190049Y-60960000D01*
X35190049Y-60960000D02*
X35190049Y-22828411D01*
X35190049Y-22828411D02*
X45070020Y-12948440D01*
X67459950Y-3010050D02*
X81180050Y-3010050D01*
X66754953Y-3715047D02*
X67459950Y-3010050D01*
X81180050Y-3010050D02*
X81475040Y-3305040D01*
X81475040Y-3305040D02*
X84084190Y-3305040D01*
X84084190Y-3305040D02*
X84759210Y-2630020D01*
X99600000Y-2630020D02*
X99817202Y-2630020D01*
X84759210Y-2630020D02*
X99600000Y-2630020D01*
X157994999Y-1555001D02*
X158750000Y-800000D01*
X158750000Y-800000D02*
X158760000Y-790000D01*
X161036000Y-762000D02*
X158788000Y-762000D01*
X158788000Y-762000D02*
X158750000Y-800000D01*
X155730000Y-1330010D02*
X156531008Y-1330010D01*
X156531008Y-1330010D02*
X156755999Y-1555001D01*
X156755999Y-1555001D02*
X157994999Y-1555001D01*
X140326400Y-1330010D02*
X155730000Y-1330010D01*
X122379980Y-1810020D02*
X137714608Y-1810020D01*
X137714608Y-1810020D02*
X137939599Y-2035011D01*
X137939599Y-2035011D02*
X139621400Y-2035010D01*
X139621400Y-2035010D02*
X140326400Y-1330010D01*
X118600000Y-2210030D02*
X118698208Y-2210030D01*
X118698208Y-2210030D02*
X118923199Y-2435021D01*
X118923199Y-2435021D02*
X121754979Y-2435021D01*
X121754979Y-2435021D02*
X122379980Y-1810020D01*
X103309970Y-2210030D02*
X118600000Y-2210030D01*
X99817202Y-2630020D02*
X100022212Y-2835030D01*
X100022212Y-2835030D02*
X102684970Y-2835030D01*
X102684970Y-2835030D02*
X103309970Y-2210030D01*
X42806420Y-87629998D02*
X167132002Y-87504990D01*
X167132002Y-87504990D02*
X167132002Y-87629998D01*
D37*
X173228000Y-82470000D02*
X172078000Y-82470000D01*
X172078000Y-82470000D02*
X167132002Y-87415998D01*
X167132002Y-87415998D02*
X167132002Y-87504990D01*
X173228000Y-82470000D02*
X173228000Y-80030000D01*
X173228000Y-80030000D02*
X173502000Y-79756000D01*
D36*
X30480000Y-70612000D02*
X32512000Y-70612000D01*
X36250002Y-81073580D02*
X42806420Y-87629998D01*
X32512000Y-70612000D02*
X34599997Y-72699997D01*
X34599997Y-72699997D02*
X34599997Y-73888575D01*
X36250002Y-75538580D02*
X36250002Y-81073580D01*
X34599997Y-73888575D02*
X36250002Y-75538580D01*
X30480000Y-70612000D02*
X30226000Y-70612000D01*
X30480000Y-70612000D02*
X28702000Y-70612000D01*
X44300000Y-26800000D02*
X44300000Y-30080000D01*
X44300000Y-30080000D02*
X46140000Y-31920000D01*
X46140000Y-31920000D02*
X46140000Y-32625000D01*
X45985000Y-32625000D02*
X46140000Y-32625000D01*
D37*
X49660000Y-35945000D02*
X49460000Y-35945000D01*
X49460000Y-35945000D02*
X46140000Y-32625000D01*
X49245000Y-38070000D02*
X49245000Y-36360000D01*
X49245000Y-36360000D02*
X49660000Y-35945000D01*
D36*
X10565010Y-47244000D02*
X10565010Y-46990000D01*
X10565010Y-46990000D02*
X10565010Y-19152990D01*
X7310000Y-53635000D02*
X8110000Y-53635000D01*
X8110000Y-53635000D02*
X8381992Y-53363008D01*
X8381992Y-53363008D02*
X8381992Y-49767010D01*
X8381992Y-49767010D02*
X10565010Y-47583992D01*
X10565010Y-47583992D02*
X10565010Y-46990000D01*
X10565010Y-19152990D02*
X11938000Y-17780000D01*
X11938000Y-17780000D02*
X24670000Y-17780000D01*
X10565010Y-47254992D02*
X10565010Y-47244000D01*
X24511000Y-17907000D02*
X24638000Y-17780000D01*
X24638000Y-17780000D02*
X24670000Y-17780000D01*
X24670000Y-17748000D02*
X24670000Y-17780000D01*
X7310000Y-54285000D02*
X8199000Y-54285000D01*
X8199000Y-54285000D02*
X8832002Y-53651998D01*
X8832002Y-53651998D02*
X8832002Y-50095998D01*
X8832002Y-50095998D02*
X11176000Y-47752000D01*
X11176000Y-47752000D02*
X11176000Y-24130000D01*
X11176000Y-24130000D02*
X13716000Y-21590000D01*
X13716000Y-21590000D02*
X24670000Y-21590000D01*
X24257000Y-21590000D02*
X24670000Y-22352000D01*
X7310000Y-54935000D02*
X8311000Y-54935000D01*
X8311000Y-54935000D02*
X9398000Y-53848000D01*
X11684000Y-26924000D02*
X13208000Y-25400000D01*
X13208000Y-25400000D02*
X24670000Y-25400000D01*
X9398000Y-53848000D02*
X9398000Y-50292000D01*
X9398000Y-50292000D02*
X11684000Y-48006000D01*
X11684000Y-48006000D02*
X11684000Y-26924000D01*
X24511000Y-25273000D02*
X24638000Y-25400000D01*
X24638000Y-25400000D02*
X24670000Y-25400000D01*
X7310000Y-55585000D02*
X8423000Y-55585000D01*
X13716000Y-29210000D02*
X24670000Y-29210000D01*
X12192000Y-30734000D02*
X13716000Y-29210000D01*
X12192000Y-48260000D02*
X12192000Y-30734000D01*
X9848002Y-50603998D02*
X12192000Y-48260000D01*
X9848002Y-54159998D02*
X9848002Y-50603998D01*
X8423000Y-55585000D02*
X9848002Y-54159998D01*
X24511000Y-29337000D02*
X24638000Y-29210000D01*
X24638000Y-29210000D02*
X24670000Y-29210000D01*
X7310000Y-56235000D02*
X8535000Y-56235000D01*
X14478000Y-33020000D02*
X24670000Y-33020000D01*
X12954000Y-34544000D02*
X14478000Y-33020000D01*
X12954000Y-48134398D02*
X12954000Y-34544000D01*
X10414000Y-50674398D02*
X12954000Y-48134398D01*
X10414000Y-54356000D02*
X10414000Y-50674398D01*
X8535000Y-56235000D02*
X10414000Y-54356000D01*
X24765000Y-33147000D02*
X24670000Y-33020000D01*
X14224000Y-48768000D02*
X14224000Y-37338000D01*
X14224000Y-37338000D02*
X14732000Y-36830000D01*
X14732000Y-36830000D02*
X24384000Y-36830000D01*
X8647000Y-56885000D02*
X11176000Y-54356000D01*
X11176000Y-54356000D02*
X11176000Y-51054000D01*
X7310000Y-56885000D02*
X8647000Y-56885000D01*
X24384000Y-36830000D02*
X24670000Y-36830000D01*
X7310000Y-57535000D02*
X6227000Y-57535000D01*
X6227000Y-57535000D02*
X5080000Y-56388000D01*
X15240000Y-42418000D02*
X16891000Y-40767000D01*
X16891000Y-40767000D02*
X24638000Y-40767000D01*
X15240000Y-48768000D02*
X15240000Y-42418000D01*
X24638000Y-40767000D02*
X24670000Y-40735000D01*
X24670000Y-40735000D02*
X24670000Y-40640000D01*
X16256000Y-48768000D02*
X16256000Y-45212000D01*
X16256000Y-45212000D02*
X17018000Y-44450000D01*
X17018000Y-44450000D02*
X24670000Y-44450000D01*
X7310000Y-58185000D02*
X8938006Y-58185000D01*
X8938006Y-58185000D02*
X9431503Y-57691503D01*
X24765000Y-44450000D02*
X24670000Y-44450000D01*
X20066000Y-61214000D02*
X20828000Y-60452000D01*
X20828000Y-60452000D02*
X20828000Y-54864000D01*
X13010000Y-58835000D02*
X13010000Y-61778000D01*
X13010000Y-61778000D02*
X14478000Y-63246000D01*
X24520000Y-48260000D02*
X24670000Y-48260000D01*
X24892000Y-48260000D02*
X24670000Y-48260000D01*
X13010000Y-58185000D02*
X11919000Y-58185000D01*
X11919000Y-58185000D02*
X11176000Y-58928000D01*
X24638000Y-52070000D02*
X24670000Y-52070000D01*
X24638000Y-52070000D02*
X24670000Y-52070000D01*
X14361000Y-57535000D02*
X14601000Y-57535000D01*
X14601000Y-57535000D02*
X14732000Y-57404000D01*
X13010000Y-57535000D02*
X14361000Y-57535000D01*
X13010000Y-56885000D02*
X12210000Y-56885000D01*
X12210000Y-56885000D02*
X8643000Y-60452000D01*
X8643000Y-60452000D02*
X8636000Y-60452000D01*
X22606000Y-55503900D02*
X22606000Y-59828000D01*
X22606000Y-59828000D02*
X24670000Y-61892000D01*
X24670000Y-61892000D02*
X24670000Y-62992000D01*
X13010000Y-56235000D02*
X16365594Y-56235000D01*
X16365594Y-56235000D02*
X19527346Y-53073248D01*
X19527346Y-53073248D02*
X20175348Y-53073248D01*
X20175348Y-53073248D02*
X22606000Y-55503900D01*
X13010000Y-55585000D02*
X15617822Y-55585000D01*
X15617822Y-55585000D02*
X20320000Y-50882822D01*
X26416000Y-51380998D02*
X26416000Y-63681002D01*
X20320000Y-50882822D02*
X20320000Y-50800000D01*
X21336000Y-49784000D02*
X24819002Y-49784000D01*
X20320000Y-50800000D02*
X21336000Y-49784000D01*
X24819002Y-49784000D02*
X26416000Y-51380998D01*
X26416000Y-63681002D02*
X24819002Y-65278000D01*
X24819002Y-65278000D02*
X22860000Y-65278000D01*
X22860000Y-65278000D02*
X21844000Y-66294000D01*
X21844000Y-66294000D02*
X21844000Y-72644000D01*
X21844000Y-72644000D02*
X23368000Y-74168000D01*
X23368000Y-74168000D02*
X24670000Y-74168000D01*
X13010000Y-54935000D02*
X15631412Y-54935000D01*
X15631412Y-54935000D02*
X19754010Y-50812402D01*
X19754010Y-50812402D02*
X19754010Y-46539990D01*
X19754010Y-46539990D02*
X19869990Y-46424010D01*
X19869990Y-46424010D02*
X26612010Y-46424010D01*
X26612010Y-46424010D02*
X27148989Y-46960989D01*
X26894989Y-49183601D02*
X26894989Y-66069011D01*
X27148989Y-46960989D02*
X27148989Y-48929601D01*
X27148989Y-48929601D02*
X26894989Y-49183601D01*
X26894989Y-66069011D02*
X26162000Y-66802000D01*
X26162000Y-66802000D02*
X24670000Y-66802000D01*
X13010000Y-54285000D02*
X15645002Y-54285000D01*
X15645002Y-54285000D02*
X19304000Y-50626002D01*
X19304000Y-45974000D02*
X26924000Y-45974000D01*
X26416000Y-70612000D02*
X24670000Y-70612000D01*
X19304000Y-50626002D02*
X19304000Y-45974000D01*
X26924000Y-45974000D02*
X27598999Y-46648999D01*
X27598999Y-46648999D02*
X27598999Y-49116001D01*
X27598999Y-49116001D02*
X27344999Y-49370001D01*
X27344999Y-49370001D02*
X27344999Y-69683001D01*
X27344999Y-69683001D02*
X26416000Y-70612000D01*
X7310000Y-52985000D02*
X6510000Y-52985000D01*
X681973Y-47156973D02*
X681973Y-24718027D01*
X5450001Y-19949999D02*
X6350000Y-19050000D01*
X6510000Y-52985000D02*
X681973Y-47156973D01*
X681973Y-24718027D02*
X5450001Y-19949999D01*
X7310000Y-52335000D02*
X6510000Y-52335000D01*
X6510000Y-52335000D02*
X1131982Y-46956982D01*
X1131982Y-46956982D02*
X1131982Y-29348018D01*
X1131982Y-29348018D02*
X5450001Y-25029999D01*
X5450001Y-25029999D02*
X6350000Y-24130000D01*
X7310000Y-51685000D02*
X6510000Y-51685000D01*
X6510000Y-51685000D02*
X1581991Y-46756991D01*
X1581991Y-46756991D02*
X1581991Y-33978009D01*
X1581991Y-33978009D02*
X5450001Y-30109999D01*
X5450001Y-30109999D02*
X6350000Y-29210000D01*
X2032000Y-46442002D02*
X2032000Y-38608000D01*
X2032000Y-38608000D02*
X6350000Y-34290000D01*
X7310000Y-51035000D02*
X6624998Y-51035000D01*
X6624998Y-51035000D02*
X2032000Y-46442002D01*
X7310000Y-50385000D02*
X7310000Y-40330000D01*
X7310000Y-40330000D02*
X6350000Y-39370000D01*
X7310000Y-50385000D02*
X6960000Y-50385000D01*
X18796000Y-50497592D02*
X18796000Y-45212000D01*
X15953592Y-53340000D02*
X18796000Y-50497592D01*
X14105000Y-53340000D02*
X15953592Y-53340000D01*
X13010000Y-53635000D02*
X13810000Y-53635000D01*
X13810000Y-53635000D02*
X14105000Y-53340000D01*
D38*
X188214000Y-49610000D02*
X186564000Y-49610000D01*
X186222000Y-49268000D02*
X186222000Y-48768000D01*
X186564000Y-49610000D02*
X186222000Y-49268000D01*
X182220000Y-50038000D02*
X184220000Y-50038000D01*
X184220000Y-50038000D02*
X185490000Y-48768000D01*
X185490000Y-48768000D02*
X186222000Y-48768000D01*
X175920000Y-50038000D02*
X182220000Y-50038000D01*
D37*
X187479998Y-45434000D02*
X186222000Y-46691998D01*
X192024000Y-45434000D02*
X187479998Y-45434000D01*
X186222000Y-46691998D02*
X186222000Y-48768000D01*
X188214000Y-49704000D02*
X188214000Y-49604000D01*
X192024000Y-45794000D02*
X192024000Y-45434000D01*
X175670000Y-50038000D02*
X175920000Y-50038000D01*
D38*
X176174000Y-30988000D02*
X182474000Y-30988000D01*
X182474000Y-30988000D02*
X184436000Y-30988000D01*
X184436000Y-30988000D02*
X187452000Y-27972000D01*
D37*
X184832000Y-25352000D02*
X187452000Y-27972000D01*
D36*
X184732000Y-24892000D02*
X184832000Y-24892000D01*
D37*
X184832000Y-24892000D02*
X184832000Y-25352000D01*
D38*
X179324000Y-73152000D02*
X176428000Y-73152000D01*
X179324000Y-73152000D02*
X182728000Y-73152000D01*
X179324000Y-66548000D02*
X179324000Y-73152000D01*
X181530000Y-64342000D02*
X179324000Y-66548000D01*
X184404000Y-64342000D02*
X181530000Y-64342000D01*
D37*
X191008000Y-61436000D02*
X191008000Y-61636000D01*
X191008000Y-61636000D02*
X188302000Y-64342000D01*
X188302000Y-64342000D02*
X185554000Y-64342000D01*
X185554000Y-64342000D02*
X184404000Y-64342000D01*
D36*
X176178000Y-73152000D02*
X176428000Y-73152000D01*
D37*
X167962000Y-53274000D02*
X168637000Y-53274000D01*
X168637000Y-53274000D02*
X169462000Y-52449000D01*
X169462000Y-52449000D02*
X169462000Y-47762000D01*
X169462000Y-47762000D02*
X172640000Y-44584000D01*
X172640000Y-44584000D02*
X172640000Y-43434000D01*
X170434000Y-43058000D02*
X172264000Y-43058000D01*
X172264000Y-43058000D02*
X172640000Y-43434000D01*
X171912000Y-38908000D02*
X170434000Y-40386000D01*
X170434000Y-40386000D02*
X170434000Y-43058000D01*
D36*
X172466000Y-38908000D02*
X172166000Y-38908000D01*
X173388000Y-38908000D02*
X172466000Y-38908000D01*
D37*
X172466000Y-38908000D02*
X171912000Y-38908000D01*
D36*
X172166000Y-38908000D02*
X171958000Y-39116000D01*
X174083000Y-38908000D02*
X173388000Y-38908000D01*
D37*
X172466000Y-20320000D02*
X172466000Y-25908000D01*
X172466000Y-25908000D02*
X172466000Y-29210000D01*
X175260000Y-24892000D02*
X174205999Y-25946001D01*
X174205999Y-25946001D02*
X172504001Y-25946001D01*
X172504001Y-25946001D02*
X172466000Y-25908000D01*
X175260000Y-23816000D02*
X175260000Y-24892000D01*
X177466000Y-22860000D02*
X176216000Y-22860000D01*
X176216000Y-22860000D02*
X175260000Y-23816000D01*
X173436000Y-19350000D02*
X172466000Y-20320000D01*
X172466000Y-29210000D02*
X173162000Y-29906000D01*
X173162000Y-29906000D02*
X173162000Y-35424000D01*
D36*
X174845000Y-19350000D02*
X173436000Y-19350000D01*
D37*
X177474000Y-23114000D02*
X177720000Y-23114000D01*
X168196000Y-76134000D02*
X167646000Y-76134000D01*
X167646000Y-76134000D02*
X166746000Y-75234000D01*
X166746000Y-75234000D02*
X166746000Y-68458000D01*
X166746000Y-68458000D02*
X168656000Y-66548000D01*
X167132000Y-65024000D02*
X168656000Y-66548000D01*
X168656000Y-66548000D02*
X170688000Y-66548000D01*
X167132000Y-60769010D02*
X167132000Y-65024000D01*
X167733010Y-60168000D02*
X167132000Y-60769010D01*
D36*
X167733010Y-60168000D02*
X167640000Y-60261010D01*
X169091000Y-60168000D02*
X167733010Y-60168000D01*
X178293000Y-38908000D02*
X179098000Y-38908000D01*
X179098000Y-38908000D02*
X181938000Y-36068000D01*
X181938000Y-36068000D02*
X182038000Y-36068000D01*
X182372000Y-17780000D02*
X180802000Y-19350000D01*
X180802000Y-19350000D02*
X179055000Y-19350000D01*
X183896000Y-17780000D02*
X182372000Y-17780000D01*
X179055000Y-20350000D02*
X183024000Y-20350000D01*
X183024000Y-20350000D02*
X183562000Y-19812000D01*
X182292000Y-39624000D02*
X181292000Y-39624000D01*
X181292000Y-39624000D02*
X181008000Y-39908000D01*
X181008000Y-39908000D02*
X178988000Y-39908000D01*
X178988000Y-39908000D02*
X178293000Y-39908000D01*
X173301000Y-60168000D02*
X175036000Y-60168000D01*
X175036000Y-60168000D02*
X177466000Y-57738000D01*
X177466000Y-57738000D02*
X177466000Y-56388000D01*
X177466000Y-56388000D02*
X176816000Y-56388000D01*
X173301000Y-61168000D02*
X176750000Y-61168000D01*
X176750000Y-61168000D02*
X177212000Y-60706000D01*
D39*
X183444000Y-8128000D02*
X183444000Y-8806000D01*
X183444000Y-8806000D02*
X189370000Y-14732000D01*
X203256000Y-39568000D02*
X201168000Y-39568000D01*
X205232000Y-37592000D02*
X203256000Y-39568000D01*
X203256000Y-39568000D02*
X201668009Y-39568000D01*
X205232000Y-17780000D02*
X205232000Y-37592000D01*
X203314000Y-15862000D02*
X205232000Y-17780000D01*
X194056000Y-15862000D02*
X203314000Y-15862000D01*
D38*
X194056000Y-15862000D02*
X200582177Y-15862000D01*
X202167999Y-38568001D02*
X201168000Y-39568000D01*
D37*
X174752000Y-18288000D02*
X174752000Y-18747499D01*
X175260000Y-17780000D02*
X174752000Y-18288000D01*
X189370000Y-14732000D02*
X185928000Y-14732000D01*
X185928000Y-14732000D02*
X184912000Y-15748000D01*
D40*
X189370000Y-14732000D02*
X192926000Y-14732000D01*
X192926000Y-14732000D02*
X194056000Y-15862000D01*
D39*
X197630001Y-25418001D02*
X197630001Y-34036000D01*
X197630001Y-34036000D02*
X197630001Y-54374001D01*
D37*
X173687499Y-38305499D02*
X174083000Y-38305499D01*
X174083000Y-38305499D02*
X175812499Y-36576000D01*
X175812499Y-36576000D02*
X176784000Y-36576000D01*
X176784000Y-36576000D02*
X178816000Y-34544000D01*
X178816000Y-34544000D02*
X197122001Y-34544000D01*
X197122001Y-34544000D02*
X197630001Y-34036000D01*
D39*
X194056000Y-23762000D02*
X195974000Y-23762000D01*
X195974000Y-23762000D02*
X197630001Y-25418001D01*
X197630001Y-54374001D02*
X198968000Y-55712000D01*
X198968000Y-55712000D02*
X201168000Y-55712000D01*
D38*
X196656000Y-23762000D02*
X194056000Y-23762000D01*
D40*
X194056000Y-23762000D02*
X194306000Y-23762000D01*
X194306000Y-23762000D02*
X199216000Y-18852000D01*
X199216000Y-18852000D02*
X201168000Y-18852000D01*
D38*
X201168000Y-72080000D02*
X197556000Y-72080000D01*
X197556000Y-72080000D02*
X194056000Y-68580000D01*
X194056000Y-68580000D02*
X194056000Y-57423998D01*
X194056000Y-57423998D02*
X190480002Y-53848000D01*
X190480002Y-53848000D02*
X186436000Y-53848000D01*
X186436000Y-53848000D02*
X185928000Y-54356000D01*
X185928000Y-54356000D02*
X175260000Y-54356000D01*
X175260000Y-54356000D02*
X173228000Y-56388000D01*
X173228000Y-56388000D02*
X171713516Y-56388000D01*
D39*
X181470000Y-14732000D02*
X181470000Y-11798000D01*
X181470000Y-11798000D02*
X181356000Y-11684000D01*
X173792000Y-8128000D02*
X173792000Y-9542213D01*
X173792000Y-9542213D02*
X177178000Y-12928213D01*
X177178000Y-12928213D02*
X177178000Y-13716000D01*
D36*
X170180000Y-57912000D02*
X169091000Y-59001000D01*
X169091000Y-59001000D02*
X169091000Y-59265500D01*
X169091000Y-59265500D02*
X169091000Y-59668000D01*
D37*
X171704000Y-56388000D02*
X170180000Y-57912000D01*
X171713516Y-56388000D02*
X171704000Y-56388000D01*
D38*
X181470000Y-14732000D02*
X181470000Y-12586000D01*
D40*
X181470000Y-14732000D02*
X178194000Y-14732000D01*
X178194000Y-14732000D02*
X177178000Y-13716000D01*
D36*
X170784998Y-76708000D02*
X173672000Y-76708000D01*
X173672000Y-76708000D02*
X174345999Y-76034001D01*
X169672000Y-75595002D02*
X170784998Y-76708000D01*
X169672000Y-75160000D02*
X169672000Y-75595002D01*
X168746000Y-74234000D02*
X169672000Y-75160000D01*
D37*
X176428000Y-75452000D02*
X176678000Y-75452000D01*
X176678000Y-75452000D02*
X177928000Y-76702000D01*
X177928000Y-76702000D02*
X182888002Y-76702000D01*
X182888002Y-76702000D02*
X184178001Y-75412001D01*
X184178001Y-75412001D02*
X184178001Y-70894001D01*
X184178001Y-70894001D02*
X180848000Y-67564000D01*
X168196000Y-74234000D02*
X168746000Y-74234000D01*
X174345999Y-76034001D02*
X174928000Y-75452000D01*
X174928000Y-75452000D02*
X176428000Y-75452000D01*
X188214000Y-46910000D02*
X188214000Y-47010000D01*
X188214000Y-47010000D02*
X188448000Y-47244000D01*
X187532000Y-24892000D02*
X187632000Y-24892000D01*
D38*
X201168000Y-61580000D02*
X197216000Y-61580000D01*
X197216000Y-61580000D02*
X197104000Y-61468000D01*
D37*
X175920000Y-52338000D02*
X177786000Y-52338000D01*
X177786000Y-52338000D02*
X178816000Y-51308000D01*
X175920000Y-52338000D02*
X174420000Y-52338000D01*
X174420000Y-52338000D02*
X172708999Y-54049001D01*
X175340000Y-43434000D02*
X177546000Y-43434000D01*
X177546000Y-43434000D02*
X178816000Y-44704000D01*
X167962000Y-51374000D02*
X166462000Y-51374000D01*
X166462000Y-51374000D02*
X165608000Y-52228000D01*
X165608000Y-52228000D02*
X165608000Y-53340000D01*
X165608000Y-53340000D02*
X166317001Y-54049001D01*
X166317001Y-54049001D02*
X172708999Y-54049001D01*
X178776000Y-25400000D02*
X176276000Y-25400000D01*
X176276000Y-25400000D02*
X173736000Y-27940000D01*
X180166000Y-22860000D02*
X180166000Y-24010000D01*
X180166000Y-24010000D02*
X178776000Y-25400000D01*
X175924000Y-33288000D02*
X176174000Y-33288000D01*
X180166000Y-22860000D02*
X179762037Y-22860000D01*
X171262000Y-35424000D02*
X171262000Y-36099000D01*
D36*
X180320000Y-23114000D02*
X180420000Y-23114000D01*
X179541000Y-41656000D02*
X178293000Y-40408000D01*
X179832000Y-41656000D02*
X179541000Y-41656000D01*
X185420000Y-77942000D02*
X185420000Y-67056000D01*
X177292000Y-85170000D02*
X178192000Y-85170000D01*
X178192000Y-85170000D02*
X185420000Y-77942000D01*
X187902000Y-21844000D02*
X180744000Y-21844000D01*
X180744000Y-21844000D02*
X179750000Y-20850000D01*
X179750000Y-20850000D02*
X179055000Y-20850000D01*
X190500000Y-23542000D02*
X189600000Y-23542000D01*
X189600000Y-23542000D02*
X187902000Y-21844000D01*
X174752000Y-62484000D02*
X174117000Y-62484000D01*
X174117000Y-62484000D02*
X173301000Y-61668000D01*
X173228000Y-85170000D02*
X173228000Y-85070000D01*
X173228000Y-85070000D02*
X174752000Y-83546000D01*
X174752000Y-83546000D02*
X174752000Y-82931002D01*
X174752000Y-82931002D02*
X174752000Y-77216000D01*
D37*
X13482000Y-73152000D02*
X8970000Y-73152000D01*
X8970000Y-73152000D02*
X7954000Y-72136000D01*
D36*
X174083000Y-39408000D02*
X172936000Y-39408000D01*
X172936000Y-39408000D02*
X172212000Y-40132000D01*
X172212000Y-40132000D02*
X172212000Y-41656000D01*
X172212000Y-41656000D02*
X177292000Y-41656000D01*
X177292000Y-41656000D02*
X179832000Y-44196000D01*
X179832000Y-44196000D02*
X179832000Y-45076000D01*
X179832000Y-45076000D02*
X177170000Y-47738000D01*
X177170000Y-47738000D02*
X175920000Y-47738000D01*
D37*
X171382000Y-52324000D02*
X171382000Y-51499000D01*
X171382000Y-51499000D02*
X175143000Y-47738000D01*
X175143000Y-47738000D02*
X175920000Y-47738000D01*
D36*
X175670000Y-47738000D02*
X175920000Y-47738000D01*
X176174000Y-28688000D02*
X175924000Y-28688000D01*
X175586000Y-29022000D02*
X175920000Y-28688000D01*
X174150000Y-19850000D02*
X173736000Y-20264000D01*
X173736000Y-20264000D02*
X173736000Y-25146000D01*
X174845000Y-19850000D02*
X174150000Y-19850000D01*
X172212000Y-70612000D02*
X172212000Y-69088000D01*
X172212000Y-73518000D02*
X172212000Y-70612000D01*
X172212000Y-70612000D02*
X172452000Y-70852000D01*
X172452000Y-70852000D02*
X176428000Y-70852000D01*
X172212000Y-65532000D02*
X172212000Y-69088000D01*
X172212000Y-69088000D02*
X172212000Y-69186000D01*
X171196000Y-75184000D02*
X171196000Y-74534000D01*
X171196000Y-74534000D02*
X172212000Y-73518000D01*
X169091000Y-60668000D02*
X168396000Y-60668000D01*
X168396000Y-60668000D02*
X168148000Y-60916000D01*
X168148000Y-60916000D02*
X168148000Y-64008000D01*
X168148000Y-64008000D02*
X169418000Y-65278000D01*
X169418000Y-65278000D02*
X171958000Y-65278000D01*
X171958000Y-65278000D02*
X172212000Y-65532000D01*
X11684000Y-52861000D02*
X11684000Y-54864000D01*
X11684000Y-54864000D02*
X10160000Y-56388000D01*
X13010000Y-52335000D02*
X12210000Y-52335000D01*
X12210000Y-52335000D02*
X11684000Y-52861000D01*
M02*
