G04 #@! TF.FileFunction,Paste,Top*
%FSLAX46Y46*%
G04 Gerber Fmt 4.6, Leading zero omitted, Abs format (unit mm)*
G04 Created by KiCad (PCBNEW 4.0.4-stable) date Wednesday, June 14, 2017 'PMt' 02:59:16 PM*
%MOMM*%
%LPD*%
G01*
G04 APERTURE LIST*
%ADD10C,0.100000*%
%ADD11R,1.700000X2.000000*%
%ADD12R,0.800000X1.900000*%
%ADD13R,1.220000X0.910000*%
%ADD14R,2.700000X3.200000*%
%ADD15R,1.100000X0.400000*%
%ADD16R,1.450000X0.450000*%
%ADD17R,2.000000X1.700000*%
%ADD18R,1.500000X1.250000*%
G04 APERTURE END LIST*
D10*
D11*
X157920000Y-37930000D03*
X157920000Y-41930000D03*
D12*
X162875000Y-35250000D03*
X164775000Y-35250000D03*
X163825000Y-32250000D03*
D13*
X160890000Y-35825000D03*
X160890000Y-32555000D03*
D11*
X160475000Y-41950000D03*
X160475000Y-37950000D03*
X163075000Y-37950000D03*
X163075000Y-41950000D03*
D13*
X157370000Y-35775000D03*
X157370000Y-32505000D03*
D11*
X165630000Y-41940000D03*
X165630000Y-37940000D03*
X141620000Y-37960000D03*
X141620000Y-41960000D03*
D13*
X141070000Y-35805000D03*
X141070000Y-32535000D03*
D12*
X146575000Y-35280000D03*
X148475000Y-35280000D03*
X147525000Y-32280000D03*
D13*
X144590000Y-35855000D03*
X144590000Y-32585000D03*
D12*
X125835000Y-35290000D03*
X127735000Y-35290000D03*
X126785000Y-32290000D03*
D13*
X123850000Y-35865000D03*
X123850000Y-32595000D03*
X120330000Y-35815000D03*
X120330000Y-32545000D03*
D11*
X123435000Y-41990000D03*
X123435000Y-37990000D03*
X126035000Y-37990000D03*
X126035000Y-41990000D03*
X120880000Y-37970000D03*
X120880000Y-41970000D03*
X146775000Y-37980000D03*
X146775000Y-41980000D03*
X144175000Y-41980000D03*
X144175000Y-37980000D03*
X128590000Y-41980000D03*
X128590000Y-37980000D03*
X149330000Y-41970000D03*
X149330000Y-37970000D03*
D12*
X154255000Y-62760000D03*
X156155000Y-62760000D03*
X155205000Y-59760000D03*
D13*
X152270000Y-63335000D03*
X152270000Y-60065000D03*
X148750000Y-63285000D03*
X148750000Y-60015000D03*
D11*
X130880000Y-65470000D03*
X130880000Y-69470000D03*
X133435000Y-69490000D03*
X133435000Y-65490000D03*
X136035000Y-65490000D03*
X136035000Y-69490000D03*
X138590000Y-69480000D03*
X138590000Y-65480000D03*
D12*
X135835000Y-62790000D03*
X137735000Y-62790000D03*
X136785000Y-59790000D03*
D13*
X133850000Y-63365000D03*
X133850000Y-60095000D03*
X130330000Y-63315000D03*
X130330000Y-60045000D03*
D11*
X154455000Y-65460000D03*
X154455000Y-69460000D03*
X151855000Y-69460000D03*
X151855000Y-65460000D03*
X149300000Y-65440000D03*
X149300000Y-69440000D03*
X157010000Y-69450000D03*
X157010000Y-65450000D03*
D13*
X103920000Y-35845000D03*
X103920000Y-32575000D03*
D11*
X104470000Y-38000000D03*
X104470000Y-42000000D03*
D12*
X109425000Y-35320000D03*
X111325000Y-35320000D03*
X110375000Y-32320000D03*
D13*
X107440000Y-35895000D03*
X107440000Y-32625000D03*
X83180000Y-35855000D03*
X83180000Y-32585000D03*
D12*
X88685000Y-35330000D03*
X90585000Y-35330000D03*
X89635000Y-32330000D03*
D13*
X86700000Y-35905000D03*
X86700000Y-32635000D03*
X111600000Y-63325000D03*
X111600000Y-60055000D03*
D11*
X119860000Y-69490000D03*
X119860000Y-65490000D03*
D12*
X117105000Y-62800000D03*
X119005000Y-62800000D03*
X118055000Y-59800000D03*
D13*
X115120000Y-63375000D03*
X115120000Y-60105000D03*
D11*
X112150000Y-65480000D03*
X112150000Y-69480000D03*
X114705000Y-69500000D03*
X114705000Y-65500000D03*
X117305000Y-65500000D03*
X117305000Y-69500000D03*
X101440000Y-69520000D03*
X101440000Y-65520000D03*
X98885000Y-65530000D03*
X98885000Y-69530000D03*
X93730000Y-65510000D03*
X93730000Y-69510000D03*
X96285000Y-69530000D03*
X96285000Y-65530000D03*
D13*
X93180000Y-63355000D03*
X93180000Y-60085000D03*
D12*
X98685000Y-62830000D03*
X100585000Y-62830000D03*
X99635000Y-59830000D03*
D13*
X96700000Y-63405000D03*
X96700000Y-60135000D03*
D11*
X112180000Y-42010000D03*
X112180000Y-38010000D03*
X109625000Y-38020000D03*
X109625000Y-42020000D03*
X107025000Y-42020000D03*
X107025000Y-38020000D03*
X83730000Y-38010000D03*
X83730000Y-42010000D03*
X91440000Y-42020000D03*
X91440000Y-38020000D03*
X86285000Y-42030000D03*
X86285000Y-38030000D03*
X88885000Y-38030000D03*
X88885000Y-42030000D03*
D13*
X74560000Y-63365000D03*
X74560000Y-60095000D03*
D12*
X80065000Y-62840000D03*
X81965000Y-62840000D03*
X81015000Y-59840000D03*
D13*
X78080000Y-63415000D03*
X78080000Y-60145000D03*
D11*
X75110000Y-65520000D03*
X75110000Y-69520000D03*
X77665000Y-69540000D03*
X77665000Y-65540000D03*
X80265000Y-65540000D03*
X80265000Y-69540000D03*
X82820000Y-69530000D03*
X82820000Y-65530000D03*
X72585000Y-38060000D03*
X72585000Y-42060000D03*
X67430000Y-38040000D03*
X67430000Y-42040000D03*
X69985000Y-42060000D03*
X69985000Y-38060000D03*
X75140000Y-42050000D03*
X75140000Y-38050000D03*
D12*
X72385000Y-35360000D03*
X74285000Y-35360000D03*
X73335000Y-32360000D03*
D13*
X70400000Y-35935000D03*
X70400000Y-32665000D03*
X66880000Y-35885000D03*
X66880000Y-32615000D03*
D11*
X61845000Y-65570000D03*
X61845000Y-69570000D03*
X56690000Y-65550000D03*
X56690000Y-69550000D03*
X59245000Y-69570000D03*
X59245000Y-65570000D03*
X64400000Y-69560000D03*
X64400000Y-65560000D03*
D12*
X61645000Y-62870000D03*
X63545000Y-62870000D03*
X62595000Y-59870000D03*
D13*
X59660000Y-63445000D03*
X59660000Y-60175000D03*
X56140000Y-63395000D03*
X56140000Y-60125000D03*
X49660000Y-35945000D03*
X49660000Y-32675000D03*
D14*
X58000000Y-14100000D03*
X65900000Y-14100000D03*
X67375000Y-18150000D03*
X75275000Y-18150000D03*
X76700000Y-14125000D03*
X84600000Y-14125000D03*
X85975000Y-18175000D03*
X93875000Y-18175000D03*
X95250000Y-14150000D03*
X103150000Y-14150000D03*
X104525000Y-18175000D03*
X112425000Y-18175000D03*
X113800000Y-14150000D03*
X121700000Y-14150000D03*
X123100000Y-18150000D03*
X131000000Y-18150000D03*
X132325000Y-14125000D03*
X140225000Y-14125000D03*
X141550000Y-18150000D03*
X149450000Y-18150000D03*
X150825000Y-14150000D03*
X158725000Y-14150000D03*
X160100000Y-18150000D03*
X168000000Y-18150000D03*
D12*
X51645000Y-35370000D03*
X53545000Y-35370000D03*
X52595000Y-32370000D03*
D11*
X49245000Y-42070000D03*
X49245000Y-38070000D03*
X51845000Y-38070000D03*
X51845000Y-42070000D03*
X54400000Y-42060000D03*
X54400000Y-38060000D03*
D13*
X46140000Y-35895000D03*
X46140000Y-32625000D03*
D11*
X46690000Y-38050000D03*
X46690000Y-42050000D03*
D15*
X6294000Y-27017000D03*
X6294000Y-27667000D03*
X6294000Y-28317000D03*
X6294000Y-28967000D03*
X6294000Y-29617000D03*
X6294000Y-30267000D03*
X6294000Y-30917000D03*
X6294000Y-31567000D03*
X6294000Y-32217000D03*
X6294000Y-32867000D03*
X6294000Y-33517000D03*
X6294000Y-34167000D03*
X6294000Y-34817000D03*
X6294000Y-35467000D03*
X11994000Y-35467000D03*
X11994000Y-34817000D03*
X11994000Y-34167000D03*
X11994000Y-33517000D03*
X11994000Y-32867000D03*
X11994000Y-32217000D03*
X11994000Y-31567000D03*
X11994000Y-30917000D03*
X11994000Y-30267000D03*
X11994000Y-29617000D03*
X11994000Y-28967000D03*
X11994000Y-28317000D03*
X11994000Y-27667000D03*
X11994000Y-27017000D03*
D16*
X184540000Y-63795000D03*
X184540000Y-64445000D03*
X184540000Y-65095000D03*
X184540000Y-65745000D03*
X188840000Y-65745000D03*
X188840000Y-65095000D03*
X188840000Y-64445000D03*
X188840000Y-63795000D03*
X184540000Y-25695000D03*
X184540000Y-26345000D03*
X184540000Y-26995000D03*
X184540000Y-27645000D03*
X188840000Y-27645000D03*
X188840000Y-26995000D03*
X188840000Y-26345000D03*
X188840000Y-25695000D03*
X184540000Y-46015000D03*
X184540000Y-46665000D03*
X184540000Y-47315000D03*
X184540000Y-47965000D03*
X188840000Y-47965000D03*
X188840000Y-47315000D03*
X188840000Y-46665000D03*
X188840000Y-46015000D03*
D11*
X176530000Y-62770000D03*
X176530000Y-66770000D03*
X176530000Y-24670000D03*
X176530000Y-28670000D03*
X176530000Y-44990000D03*
X176530000Y-48990000D03*
D17*
X24670000Y-17780000D03*
X28670000Y-17780000D03*
X24670000Y-21590000D03*
X28670000Y-21590000D03*
X24670000Y-25400000D03*
X28670000Y-25400000D03*
X24670000Y-29210000D03*
X28670000Y-29210000D03*
X24670000Y-33020000D03*
X28670000Y-33020000D03*
X24670000Y-36830000D03*
X28670000Y-36830000D03*
X24670000Y-40640000D03*
X28670000Y-40640000D03*
X24670000Y-44450000D03*
X28670000Y-44450000D03*
X28670000Y-73406000D03*
X24670000Y-73406000D03*
X28670000Y-66802000D03*
X24670000Y-66802000D03*
X28670000Y-70104000D03*
X24670000Y-70104000D03*
X28670000Y-63500000D03*
X24670000Y-63500000D03*
X28670000Y-59690000D03*
X24670000Y-59690000D03*
X28670000Y-55880000D03*
X24670000Y-55880000D03*
X28670000Y-52070000D03*
X24670000Y-52070000D03*
X28670000Y-48260000D03*
X24670000Y-48260000D03*
D11*
X14224000Y-18955000D03*
X14224000Y-22955000D03*
D18*
X185186000Y-69342000D03*
X187686000Y-69342000D03*
X184424000Y-32385000D03*
X186924000Y-32385000D03*
X184043000Y-52705000D03*
X186543000Y-52705000D03*
M02*
