G04 #@! TF.FileFunction,Copper,L1,Top,Signal*
%FSLAX46Y46*%
G04 Gerber Fmt 4.6, Leading zero omitted, Abs format (unit mm)*
G04 Created by KiCad (PCBNEW 4.0.4-stable) date Wednesday, June 14, 2017 'PMt' 02:59:16 PM*
%MOMM*%
%LPD*%
G01*
G04 APERTURE LIST*
%ADD10C,0.100000*%
%ADD11C,2.000000*%
%ADD12R,1.700000X2.000000*%
%ADD13R,0.800000X1.900000*%
%ADD14R,1.220000X0.910000*%
%ADD15R,1.520000X1.780000*%
%ADD16R,2.700000X3.200000*%
%ADD17C,11.000000*%
%ADD18C,0.700000*%
%ADD19R,1.100000X0.400000*%
%ADD20R,1.450000X0.450000*%
%ADD21O,1.800000X1.800000*%
%ADD22R,2.000000X1.700000*%
%ADD23R,1.500000X1.250000*%
%ADD24C,1.600000*%
%ADD25C,0.250000*%
%ADD26C,0.500000*%
%ADD27C,1.000000*%
%ADD28C,3.000000*%
%ADD29C,2.000000*%
G04 APERTURE END LIST*
D10*
D11*
X164325000Y-80900000D03*
X167825000Y-80900000D03*
D12*
X157920000Y-37930000D03*
X157920000Y-41930000D03*
D13*
X162875000Y-35250000D03*
X164775000Y-35250000D03*
X163825000Y-32250000D03*
D14*
X160890000Y-35825000D03*
X160890000Y-32555000D03*
D12*
X160475000Y-41950000D03*
X160475000Y-37950000D03*
X163075000Y-37950000D03*
X163075000Y-41950000D03*
D14*
X157370000Y-35775000D03*
X157370000Y-32505000D03*
D12*
X165630000Y-41940000D03*
X165630000Y-37940000D03*
D15*
X166900000Y-26440000D03*
X157370000Y-26440000D03*
X166900000Y-23900000D03*
X166900000Y-28980000D03*
X157370000Y-28980000D03*
X157370000Y-23900000D03*
D12*
X141620000Y-37960000D03*
X141620000Y-41960000D03*
D14*
X141070000Y-35805000D03*
X141070000Y-32535000D03*
D15*
X150600000Y-26470000D03*
X141070000Y-26470000D03*
X150600000Y-23930000D03*
X150600000Y-29010000D03*
X141070000Y-29010000D03*
X141070000Y-23930000D03*
D13*
X146575000Y-35280000D03*
X148475000Y-35280000D03*
X147525000Y-32280000D03*
D14*
X144590000Y-35855000D03*
X144590000Y-32585000D03*
D15*
X129860000Y-26480000D03*
X120330000Y-26480000D03*
X129860000Y-23940000D03*
X129860000Y-29020000D03*
X120330000Y-29020000D03*
X120330000Y-23940000D03*
D13*
X125835000Y-35290000D03*
X127735000Y-35290000D03*
X126785000Y-32290000D03*
D14*
X123850000Y-35865000D03*
X123850000Y-32595000D03*
X120330000Y-35815000D03*
X120330000Y-32545000D03*
D12*
X123435000Y-41990000D03*
X123435000Y-37990000D03*
X126035000Y-37990000D03*
X126035000Y-41990000D03*
X120880000Y-37970000D03*
X120880000Y-41970000D03*
X146775000Y-37980000D03*
X146775000Y-41980000D03*
X144175000Y-41980000D03*
X144175000Y-37980000D03*
X128590000Y-41980000D03*
X128590000Y-37980000D03*
X149330000Y-41970000D03*
X149330000Y-37970000D03*
D13*
X154255000Y-62760000D03*
X156155000Y-62760000D03*
X155205000Y-59760000D03*
D15*
X158280000Y-53950000D03*
X148750000Y-53950000D03*
X158280000Y-51410000D03*
X158280000Y-56490000D03*
X148750000Y-56490000D03*
X148750000Y-51410000D03*
D14*
X152270000Y-63335000D03*
X152270000Y-60065000D03*
X148750000Y-63285000D03*
X148750000Y-60015000D03*
D12*
X130880000Y-65470000D03*
X130880000Y-69470000D03*
X133435000Y-69490000D03*
X133435000Y-65490000D03*
X136035000Y-65490000D03*
X136035000Y-69490000D03*
X138590000Y-69480000D03*
X138590000Y-65480000D03*
D15*
X139860000Y-53980000D03*
X130330000Y-53980000D03*
X139860000Y-51440000D03*
X139860000Y-56520000D03*
X130330000Y-56520000D03*
X130330000Y-51440000D03*
D13*
X135835000Y-62790000D03*
X137735000Y-62790000D03*
X136785000Y-59790000D03*
D14*
X133850000Y-63365000D03*
X133850000Y-60095000D03*
X130330000Y-63315000D03*
X130330000Y-60045000D03*
D12*
X154455000Y-65460000D03*
X154455000Y-69460000D03*
X151855000Y-69460000D03*
X151855000Y-65460000D03*
X149300000Y-65440000D03*
X149300000Y-69440000D03*
X157010000Y-69450000D03*
X157010000Y-65450000D03*
D14*
X103920000Y-35845000D03*
X103920000Y-32575000D03*
D12*
X104470000Y-38000000D03*
X104470000Y-42000000D03*
D13*
X109425000Y-35320000D03*
X111325000Y-35320000D03*
X110375000Y-32320000D03*
D15*
X113450000Y-26510000D03*
X103920000Y-26510000D03*
X113450000Y-23970000D03*
X113450000Y-29050000D03*
X103920000Y-29050000D03*
X103920000Y-23970000D03*
D14*
X107440000Y-35895000D03*
X107440000Y-32625000D03*
X83180000Y-35855000D03*
X83180000Y-32585000D03*
D13*
X88685000Y-35330000D03*
X90585000Y-35330000D03*
X89635000Y-32330000D03*
D14*
X86700000Y-35905000D03*
X86700000Y-32635000D03*
D15*
X92710000Y-26520000D03*
X83180000Y-26520000D03*
X92710000Y-23980000D03*
X92710000Y-29060000D03*
X83180000Y-29060000D03*
X83180000Y-23980000D03*
D14*
X111600000Y-63325000D03*
X111600000Y-60055000D03*
D12*
X119860000Y-69490000D03*
X119860000Y-65490000D03*
D15*
X121130000Y-53990000D03*
X111600000Y-53990000D03*
X121130000Y-51450000D03*
X121130000Y-56530000D03*
X111600000Y-56530000D03*
X111600000Y-51450000D03*
D13*
X117105000Y-62800000D03*
X119005000Y-62800000D03*
X118055000Y-59800000D03*
D14*
X115120000Y-63375000D03*
X115120000Y-60105000D03*
D12*
X112150000Y-65480000D03*
X112150000Y-69480000D03*
X114705000Y-69500000D03*
X114705000Y-65500000D03*
X117305000Y-65500000D03*
X117305000Y-69500000D03*
X101440000Y-69520000D03*
X101440000Y-65520000D03*
X98885000Y-65530000D03*
X98885000Y-69530000D03*
X93730000Y-65510000D03*
X93730000Y-69510000D03*
X96285000Y-69530000D03*
X96285000Y-65530000D03*
D14*
X93180000Y-63355000D03*
X93180000Y-60085000D03*
D13*
X98685000Y-62830000D03*
X100585000Y-62830000D03*
X99635000Y-59830000D03*
D15*
X102710000Y-54020000D03*
X93180000Y-54020000D03*
X102710000Y-51480000D03*
X102710000Y-56560000D03*
X93180000Y-56560000D03*
X93180000Y-51480000D03*
D14*
X96700000Y-63405000D03*
X96700000Y-60135000D03*
D12*
X112180000Y-42010000D03*
X112180000Y-38010000D03*
X109625000Y-38020000D03*
X109625000Y-42020000D03*
X107025000Y-42020000D03*
X107025000Y-38020000D03*
X83730000Y-38010000D03*
X83730000Y-42010000D03*
X91440000Y-42020000D03*
X91440000Y-38020000D03*
X86285000Y-42030000D03*
X86285000Y-38030000D03*
X88885000Y-38030000D03*
X88885000Y-42030000D03*
D14*
X74560000Y-63365000D03*
X74560000Y-60095000D03*
D15*
X84090000Y-54030000D03*
X74560000Y-54030000D03*
X84090000Y-51490000D03*
X84090000Y-56570000D03*
X74560000Y-56570000D03*
X74560000Y-51490000D03*
D13*
X80065000Y-62840000D03*
X81965000Y-62840000D03*
X81015000Y-59840000D03*
D14*
X78080000Y-63415000D03*
X78080000Y-60145000D03*
D12*
X75110000Y-65520000D03*
X75110000Y-69520000D03*
X77665000Y-69540000D03*
X77665000Y-65540000D03*
X80265000Y-65540000D03*
X80265000Y-69540000D03*
X82820000Y-69530000D03*
X82820000Y-65530000D03*
X72585000Y-38060000D03*
X72585000Y-42060000D03*
X67430000Y-38040000D03*
X67430000Y-42040000D03*
X69985000Y-42060000D03*
X69985000Y-38060000D03*
X75140000Y-42050000D03*
X75140000Y-38050000D03*
D15*
X76410000Y-26550000D03*
X66880000Y-26550000D03*
X76410000Y-24010000D03*
X76410000Y-29090000D03*
X66880000Y-29090000D03*
X66880000Y-24010000D03*
D13*
X72385000Y-35360000D03*
X74285000Y-35360000D03*
X73335000Y-32360000D03*
D14*
X70400000Y-35935000D03*
X70400000Y-32665000D03*
X66880000Y-35885000D03*
X66880000Y-32615000D03*
D12*
X61845000Y-65570000D03*
X61845000Y-69570000D03*
X56690000Y-65550000D03*
X56690000Y-69550000D03*
X59245000Y-69570000D03*
X59245000Y-65570000D03*
X64400000Y-69560000D03*
X64400000Y-65560000D03*
D15*
X65670000Y-54060000D03*
X56140000Y-54060000D03*
X65670000Y-51520000D03*
X65670000Y-56600000D03*
X56140000Y-56600000D03*
X56140000Y-51520000D03*
D13*
X61645000Y-62870000D03*
X63545000Y-62870000D03*
X62595000Y-59870000D03*
D14*
X59660000Y-63445000D03*
X59660000Y-60175000D03*
X56140000Y-63395000D03*
X56140000Y-60125000D03*
X49660000Y-35945000D03*
X49660000Y-32675000D03*
D11*
X56625000Y-7975000D03*
X53125000Y-7975000D03*
X65925000Y-7975000D03*
X62425000Y-7975000D03*
X75275000Y-7975000D03*
X71775000Y-7975000D03*
X84600000Y-7975000D03*
X81100000Y-7975000D03*
X93875000Y-7975000D03*
X90375000Y-7975000D03*
X103150000Y-7975000D03*
X99650000Y-7975000D03*
X112425000Y-7975000D03*
X108925000Y-7975000D03*
X121700000Y-7975000D03*
X118200000Y-7975000D03*
X131000000Y-7975000D03*
X127500000Y-7975000D03*
X140225000Y-7975000D03*
X136725000Y-7975000D03*
X149450000Y-7975000D03*
X145950000Y-7975000D03*
X158725000Y-7975000D03*
X155225000Y-7975000D03*
X168000000Y-7975000D03*
X164500000Y-7975000D03*
X52950000Y-80900000D03*
X56450000Y-80900000D03*
X62350000Y-80900000D03*
X65850000Y-80900000D03*
X71625000Y-80900000D03*
X75125000Y-80900000D03*
X80850000Y-80900000D03*
X84350000Y-80900000D03*
X90125000Y-80900000D03*
X93625000Y-80900000D03*
X99400000Y-80900000D03*
X102900000Y-80900000D03*
X108700000Y-80900000D03*
X112200000Y-80900000D03*
X118025000Y-80900000D03*
X121525000Y-80900000D03*
X127325000Y-80900000D03*
X130825000Y-80900000D03*
X136575000Y-80900000D03*
X140075000Y-80900000D03*
X145850000Y-80900000D03*
X149350000Y-80900000D03*
X155100000Y-80900000D03*
X158600000Y-80900000D03*
X36425000Y-8000000D03*
X32925000Y-8000000D03*
D16*
X58000000Y-14100000D03*
X65900000Y-14100000D03*
X67375000Y-18150000D03*
X75275000Y-18150000D03*
X76700000Y-14125000D03*
X84600000Y-14125000D03*
X85975000Y-18175000D03*
X93875000Y-18175000D03*
X95250000Y-14150000D03*
X103150000Y-14150000D03*
X104525000Y-18175000D03*
X112425000Y-18175000D03*
X113800000Y-14150000D03*
X121700000Y-14150000D03*
X123100000Y-18150000D03*
X131000000Y-18150000D03*
X132325000Y-14125000D03*
X140225000Y-14125000D03*
X141550000Y-18150000D03*
X149450000Y-18150000D03*
X150825000Y-14150000D03*
X158725000Y-14150000D03*
X160100000Y-18150000D03*
X168000000Y-18150000D03*
D13*
X51645000Y-35370000D03*
X53545000Y-35370000D03*
X52595000Y-32370000D03*
D12*
X49245000Y-42070000D03*
X49245000Y-38070000D03*
X51845000Y-38070000D03*
X51845000Y-42070000D03*
X54400000Y-42060000D03*
X54400000Y-38060000D03*
D15*
X55670000Y-26560000D03*
X46140000Y-26560000D03*
X55670000Y-24020000D03*
X55670000Y-29100000D03*
X46140000Y-29100000D03*
X46140000Y-24020000D03*
D17*
X7620000Y-7620000D03*
D18*
X11745000Y-7620000D03*
X10546815Y-10546815D03*
X7620000Y-11745000D03*
X4693185Y-10546815D03*
X3495000Y-7620000D03*
X4693185Y-4693185D03*
X7620000Y-3495000D03*
X10546815Y-4693185D03*
D17*
X208748185Y-81723185D03*
D18*
X212873185Y-81723185D03*
X211675000Y-84650000D03*
X208748185Y-85848185D03*
X205821370Y-84650000D03*
X204623185Y-81723185D03*
X205821370Y-78796370D03*
X208748185Y-77598185D03*
X211675000Y-78796370D03*
D17*
X7620000Y-81280000D03*
D18*
X11745000Y-81280000D03*
X10546815Y-84206815D03*
X7620000Y-85405000D03*
X4693185Y-84206815D03*
X3495000Y-81280000D03*
X4693185Y-78353185D03*
X7620000Y-77155000D03*
X10546815Y-78353185D03*
D17*
X208775000Y-7075000D03*
D18*
X212900000Y-7075000D03*
X211701815Y-10001815D03*
X208775000Y-11200000D03*
X205848185Y-10001815D03*
X204650000Y-7075000D03*
X205848185Y-4148185D03*
X208775000Y-2950000D03*
X211701815Y-4148185D03*
D14*
X46140000Y-35895000D03*
X46140000Y-32625000D03*
D12*
X46690000Y-38050000D03*
X46690000Y-42050000D03*
D19*
X6294000Y-27017000D03*
X6294000Y-27667000D03*
X6294000Y-28317000D03*
X6294000Y-28967000D03*
X6294000Y-29617000D03*
X6294000Y-30267000D03*
X6294000Y-30917000D03*
X6294000Y-31567000D03*
X6294000Y-32217000D03*
X6294000Y-32867000D03*
X6294000Y-33517000D03*
X6294000Y-34167000D03*
X6294000Y-34817000D03*
X6294000Y-35467000D03*
X11994000Y-35467000D03*
X11994000Y-34817000D03*
X11994000Y-34167000D03*
X11994000Y-33517000D03*
X11994000Y-32867000D03*
X11994000Y-32217000D03*
X11994000Y-31567000D03*
X11994000Y-30917000D03*
X11994000Y-30267000D03*
X11994000Y-29617000D03*
X11994000Y-28967000D03*
X11994000Y-28317000D03*
X11994000Y-27667000D03*
X11994000Y-27017000D03*
D20*
X184540000Y-63795000D03*
X184540000Y-64445000D03*
X184540000Y-65095000D03*
X184540000Y-65745000D03*
X188840000Y-65745000D03*
X188840000Y-65095000D03*
X188840000Y-64445000D03*
X188840000Y-63795000D03*
X184540000Y-25695000D03*
X184540000Y-26345000D03*
X184540000Y-26995000D03*
X184540000Y-27645000D03*
X188840000Y-27645000D03*
X188840000Y-26995000D03*
X188840000Y-26345000D03*
X188840000Y-25695000D03*
X184540000Y-46015000D03*
X184540000Y-46665000D03*
X184540000Y-47315000D03*
X184540000Y-47965000D03*
X188840000Y-47965000D03*
X188840000Y-47315000D03*
X188840000Y-46665000D03*
X188840000Y-46015000D03*
D21*
X196850000Y-67310000D03*
X196850000Y-64770000D03*
X196850000Y-62230000D03*
X196850000Y-29210000D03*
X196850000Y-26670000D03*
X196850000Y-24130000D03*
X196850000Y-49530000D03*
X196850000Y-46990000D03*
X196850000Y-44450000D03*
D12*
X176530000Y-62770000D03*
X176530000Y-66770000D03*
X176530000Y-24670000D03*
X176530000Y-28670000D03*
X176530000Y-44990000D03*
X176530000Y-48990000D03*
D11*
X207900000Y-59780000D03*
X207900000Y-56280000D03*
X207900000Y-36920000D03*
X207900000Y-33420000D03*
X207900000Y-48350000D03*
X207900000Y-44850000D03*
D22*
X24670000Y-17780000D03*
X28670000Y-17780000D03*
X24670000Y-21590000D03*
X28670000Y-21590000D03*
X24670000Y-25400000D03*
X28670000Y-25400000D03*
X24670000Y-29210000D03*
X28670000Y-29210000D03*
X24670000Y-33020000D03*
X28670000Y-33020000D03*
X24670000Y-36830000D03*
X28670000Y-36830000D03*
X24670000Y-40640000D03*
X28670000Y-40640000D03*
X24670000Y-44450000D03*
X28670000Y-44450000D03*
X28670000Y-73406000D03*
X24670000Y-73406000D03*
X28670000Y-66802000D03*
X24670000Y-66802000D03*
X28670000Y-70104000D03*
X24670000Y-70104000D03*
X28670000Y-63500000D03*
X24670000Y-63500000D03*
X28670000Y-59690000D03*
X24670000Y-59690000D03*
X28670000Y-55880000D03*
X24670000Y-55880000D03*
X28670000Y-52070000D03*
X24670000Y-52070000D03*
X28670000Y-48260000D03*
X24670000Y-48260000D03*
D21*
X14732000Y-14986000D03*
X17272000Y-14986000D03*
X19812000Y-14986000D03*
X32004000Y-14478000D03*
X34544000Y-14478000D03*
X37084000Y-14478000D03*
X23368000Y-3556000D03*
X25908000Y-3556000D03*
X28448000Y-3556000D03*
X15240000Y-3556000D03*
X17780000Y-3556000D03*
X20320000Y-3556000D03*
X7112000Y-16256000D03*
X4572000Y-16256000D03*
X2032000Y-16256000D03*
D12*
X14224000Y-18955000D03*
X14224000Y-22955000D03*
D11*
X19722000Y-80900000D03*
X23222000Y-80900000D03*
X26722000Y-80900000D03*
X30222000Y-80900000D03*
D23*
X185186000Y-69342000D03*
X187686000Y-69342000D03*
X184424000Y-32385000D03*
X186924000Y-32385000D03*
X184043000Y-52705000D03*
X186543000Y-52705000D03*
D18*
X36700000Y-25370000D03*
X29200000Y-21350000D03*
X14859000Y-28829000D03*
X4445000Y-36576000D03*
X14224000Y-18955000D03*
X181610000Y-48260000D03*
X181610000Y-66040000D03*
X181610000Y-27940000D03*
X160890000Y-32555000D03*
X144590000Y-32585000D03*
X141620000Y-41960000D03*
X157920000Y-41930000D03*
X120880000Y-41970000D03*
X123850000Y-32595000D03*
X130880000Y-69470000D03*
X152270000Y-60065000D03*
X133850000Y-60095000D03*
X149300000Y-69440000D03*
X112150000Y-69480000D03*
X107440000Y-32625000D03*
X115120000Y-60105000D03*
X96700000Y-60135000D03*
X104470000Y-42000000D03*
X86700000Y-32635000D03*
X93730000Y-69510000D03*
X83730000Y-42010000D03*
X75110000Y-69520000D03*
X78080000Y-60145000D03*
X67430000Y-42040000D03*
X70400000Y-32665000D03*
X56690000Y-69550000D03*
X59660000Y-60175000D03*
X49660000Y-32675000D03*
X46690000Y-42050000D03*
X68890000Y-6270000D03*
X65020000Y-790000D03*
X30480000Y-29210000D03*
X36830000Y-33090000D03*
X68870000Y-76650000D03*
X68870000Y-73340000D03*
X85720000Y-28260000D03*
X86630000Y-24750000D03*
X87500000Y-6170000D03*
X82870000Y-830000D03*
X29175000Y-35350000D03*
X36980000Y-39630000D03*
X87260000Y-76970000D03*
X87260000Y-72690000D03*
X106340000Y-28900000D03*
X107330000Y-24800000D03*
X106000000Y-5940000D03*
X101460000Y-810000D03*
X105650000Y-72500000D03*
X105690000Y-77390000D03*
X37230000Y-48620000D03*
X29210000Y-44450000D03*
X122810000Y-28500000D03*
X123860000Y-24700000D03*
X124680000Y-5090000D03*
X119620000Y-860000D03*
X124690000Y-72360000D03*
X124740000Y-77430000D03*
X36110000Y-55020000D03*
X29210000Y-52070000D03*
X143680000Y-28360000D03*
X144500000Y-24410000D03*
X143000000Y-6360000D03*
X138450000Y-910000D03*
X143130000Y-72000000D03*
X143130000Y-77540000D03*
X157080000Y-880000D03*
X161570000Y-6190000D03*
X160760000Y-24310000D03*
X159810000Y-29690000D03*
X28702000Y-63500000D03*
X31750000Y-60452000D03*
X161290000Y-54610000D03*
X161290000Y-71120000D03*
X173990000Y-73660000D03*
X190500000Y-60960000D03*
X191770000Y-63500000D03*
X186543000Y-52705000D03*
X186944000Y-46736000D03*
X186924000Y-32385000D03*
X186944000Y-27051000D03*
X190500000Y-43180000D03*
X189230000Y-22860000D03*
X167640000Y-30480000D03*
X191770000Y-45720000D03*
X191770000Y-25400000D03*
X47625000Y-69469000D03*
D24*
X47180000Y-6820000D03*
X40610000Y-7530000D03*
X45590000Y-60060000D03*
X47800000Y-56650000D03*
D18*
X8382000Y-28575000D03*
X6096000Y-38735000D03*
X8509000Y-30353000D03*
X7620000Y-38735000D03*
X35306000Y-62738000D03*
X28702000Y-67056000D03*
X175440000Y-790000D03*
X35350000Y-17850000D03*
X44300000Y-26800000D03*
X176530000Y-62230000D03*
X180340000Y-62230000D03*
X24511000Y-17907000D03*
X1397000Y-30480000D03*
X24257000Y-21590000D03*
X1270000Y-31877000D03*
X24511000Y-25273000D03*
X1397000Y-33147000D03*
X24511000Y-29337000D03*
X10414000Y-32258000D03*
X24765000Y-33147000D03*
X9271000Y-33147000D03*
X24384000Y-36830000D03*
X8382000Y-33655000D03*
X24638000Y-40767000D03*
X1651000Y-34671000D03*
X24765000Y-44450000D03*
X2921000Y-36068000D03*
X24765000Y-66929000D03*
X22606000Y-42164000D03*
X24511000Y-70358000D03*
X19558000Y-41910000D03*
X18288000Y-39497000D03*
X21717000Y-39370000D03*
X19304000Y-63246000D03*
X21336000Y-41656000D03*
X24384000Y-59944000D03*
X24384000Y-56134000D03*
X24384000Y-52324000D03*
X24892000Y-48260000D03*
X1016000Y-26543000D03*
X1651000Y-28575000D03*
X1016000Y-29337000D03*
X9271000Y-18288000D03*
D25*
X41090000Y-52900000D02*
X48315000Y-60125000D01*
X48315000Y-60125000D02*
X56140000Y-60125000D01*
X41090000Y-34070000D02*
X41090000Y-52900000D01*
X39170010Y-32150010D02*
X41090000Y-34070000D01*
X39170010Y-27840010D02*
X39170010Y-32150010D01*
X36700000Y-25370000D02*
X39170010Y-27840010D01*
D26*
X59660000Y-63445000D02*
X59460000Y-63445000D01*
X59245000Y-65570000D02*
X59245000Y-63860000D01*
X59245000Y-63860000D02*
X59660000Y-63445000D01*
X59460000Y-63445000D02*
X56140000Y-60125000D01*
D25*
X6294000Y-35467000D02*
X5554000Y-35467000D01*
X14071000Y-29617000D02*
X14859000Y-28829000D01*
X14071000Y-29617000D02*
X11994000Y-29617000D01*
X5554000Y-35467000D02*
X4445000Y-36576000D01*
X6294000Y-35467000D02*
X6062000Y-35467000D01*
X184540000Y-47315000D02*
X182555000Y-47315000D01*
X182555000Y-47315000D02*
X181610000Y-48260000D01*
X184540000Y-65095000D02*
X182555000Y-65095000D01*
X182555000Y-65095000D02*
X181610000Y-66040000D01*
X184540000Y-26995000D02*
X182555000Y-26995000D01*
X182555000Y-26995000D02*
X181610000Y-27940000D01*
D26*
X155105001Y-61160001D02*
X154475001Y-61160001D01*
X156155000Y-62210000D02*
X155105001Y-61160001D01*
D27*
X154455000Y-69460000D02*
X154455000Y-69970002D01*
D26*
X154475001Y-61160001D02*
X153380000Y-60065000D01*
X153380000Y-60065000D02*
X152270000Y-60065000D01*
X156155000Y-62760000D02*
X156155000Y-62210000D01*
D27*
X161885001Y-43650001D02*
X159064999Y-43650001D01*
X157920000Y-42505002D02*
X157920000Y-41930000D01*
X159064999Y-43650001D02*
X157920000Y-42505002D01*
X163075000Y-41950000D02*
X163075000Y-42460002D01*
X163075000Y-42460002D02*
X161885001Y-43650001D01*
D26*
X164775000Y-35250000D02*
X164775000Y-34700000D01*
X164775000Y-34700000D02*
X163725001Y-33650001D01*
X163725001Y-33650001D02*
X163095001Y-33650001D01*
X148475000Y-35280000D02*
X148475000Y-34730000D01*
X145700000Y-32585000D02*
X144590000Y-32585000D01*
X127735000Y-35290000D02*
X127735000Y-34740000D01*
X126685001Y-33690001D02*
X126055001Y-33690001D01*
X124960000Y-32595000D02*
X123850000Y-32595000D01*
X126055001Y-33690001D02*
X124960000Y-32595000D01*
X127735000Y-34740000D02*
X126685001Y-33690001D01*
D27*
X120880000Y-42545002D02*
X120880000Y-41970000D01*
X126035000Y-42500002D02*
X124845001Y-43690001D01*
X122024999Y-43690001D02*
X120880000Y-42545002D01*
X124845001Y-43690001D02*
X122024999Y-43690001D01*
X126035000Y-41990000D02*
X126035000Y-42500002D01*
D26*
X148475000Y-34730000D02*
X147425001Y-33680001D01*
X147425001Y-33680001D02*
X146795001Y-33680001D01*
X146795001Y-33680001D02*
X145700000Y-32585000D01*
D27*
X146775000Y-42490002D02*
X145585001Y-43680001D01*
X142764999Y-43680001D02*
X141620000Y-42535002D01*
X145585001Y-43680001D02*
X142764999Y-43680001D01*
X141620000Y-42535002D02*
X141620000Y-41960000D01*
X146775000Y-41980000D02*
X146775000Y-42490002D01*
D26*
X162000000Y-32555000D02*
X160890000Y-32555000D01*
X163095001Y-33650001D02*
X162000000Y-32555000D01*
X134960000Y-60095000D02*
X133850000Y-60095000D01*
X136055001Y-61190001D02*
X134960000Y-60095000D01*
X136685001Y-61190001D02*
X136055001Y-61190001D01*
X137735000Y-62790000D02*
X137735000Y-62240000D01*
X137735000Y-62240000D02*
X136685001Y-61190001D01*
D27*
X136035000Y-70000002D02*
X134845001Y-71190001D01*
X130880000Y-70045002D02*
X130880000Y-69470000D01*
X132024999Y-71190001D02*
X130880000Y-70045002D01*
X134845001Y-71190001D02*
X132024999Y-71190001D01*
X149300000Y-70015002D02*
X149300000Y-69440000D01*
X153265001Y-71160001D02*
X150444999Y-71160001D01*
X150444999Y-71160001D02*
X149300000Y-70015002D01*
X154455000Y-69970002D02*
X153265001Y-71160001D01*
X136035000Y-69490000D02*
X136035000Y-70000002D01*
D26*
X109645001Y-33720001D02*
X108550000Y-32625000D01*
X110275001Y-33720001D02*
X109645001Y-33720001D01*
X111325000Y-34770000D02*
X110275001Y-33720001D01*
X108550000Y-32625000D02*
X107440000Y-32625000D01*
D27*
X104470000Y-42575002D02*
X104470000Y-42000000D01*
X105614999Y-43720001D02*
X104470000Y-42575002D01*
X109625000Y-42530002D02*
X108435001Y-43720001D01*
X108435001Y-43720001D02*
X105614999Y-43720001D01*
D26*
X111325000Y-35320000D02*
X111325000Y-34770000D01*
D27*
X109625000Y-42020000D02*
X109625000Y-42530002D01*
X98885000Y-69530000D02*
X98885000Y-70040002D01*
X98885000Y-70040002D02*
X97695001Y-71230001D01*
X94874999Y-71230001D02*
X93730000Y-70085002D01*
X93730000Y-70085002D02*
X93730000Y-69510000D01*
X97695001Y-71230001D02*
X94874999Y-71230001D01*
D26*
X97810000Y-60135000D02*
X96700000Y-60135000D01*
X98905001Y-61230001D02*
X97810000Y-60135000D01*
X100585000Y-62280000D02*
X99535001Y-61230001D01*
X99535001Y-61230001D02*
X98905001Y-61230001D01*
X100585000Y-62830000D02*
X100585000Y-62280000D01*
X119005000Y-62800000D02*
X119005000Y-62250000D01*
X119005000Y-62250000D02*
X117955001Y-61200001D01*
X117955001Y-61200001D02*
X117325001Y-61200001D01*
X117325001Y-61200001D02*
X116230000Y-60105000D01*
X116230000Y-60105000D02*
X115120000Y-60105000D01*
D27*
X116115001Y-71200001D02*
X113294999Y-71200001D01*
X117305000Y-69500000D02*
X117305000Y-70010002D01*
X113294999Y-71200001D02*
X112150000Y-70055002D01*
X112150000Y-70055002D02*
X112150000Y-69480000D01*
X117305000Y-70010002D02*
X116115001Y-71200001D01*
D26*
X90585000Y-35330000D02*
X90585000Y-34780000D01*
X90585000Y-34780000D02*
X89535001Y-33730001D01*
X89535001Y-33730001D02*
X88905001Y-33730001D01*
X87810000Y-32635000D02*
X86700000Y-32635000D01*
X88905001Y-33730001D02*
X87810000Y-32635000D01*
D27*
X87695001Y-43730001D02*
X84874999Y-43730001D01*
X83730000Y-42585002D02*
X83730000Y-42010000D01*
X88885000Y-42540002D02*
X87695001Y-43730001D01*
X84874999Y-43730001D02*
X83730000Y-42585002D01*
X88885000Y-42030000D02*
X88885000Y-42540002D01*
D26*
X81965000Y-62840000D02*
X81965000Y-62290000D01*
X80915001Y-61240001D02*
X80285001Y-61240001D01*
X81965000Y-62290000D02*
X80915001Y-61240001D01*
X80285001Y-61240001D02*
X79190000Y-60145000D01*
D27*
X79075001Y-71240001D02*
X76254999Y-71240001D01*
X80265000Y-69540000D02*
X80265000Y-70050002D01*
X76254999Y-71240001D02*
X75110000Y-70095002D01*
X75110000Y-70095002D02*
X75110000Y-69520000D01*
X80265000Y-70050002D02*
X79075001Y-71240001D01*
D26*
X79190000Y-60145000D02*
X78080000Y-60145000D01*
X74285000Y-35360000D02*
X74285000Y-34810000D01*
X72605001Y-33760001D02*
X71510000Y-32665000D01*
X71510000Y-32665000D02*
X70400000Y-32665000D01*
X73235001Y-33760001D02*
X72605001Y-33760001D01*
X74285000Y-34810000D02*
X73235001Y-33760001D01*
D27*
X68574999Y-43760001D02*
X67430000Y-42615002D01*
X72585000Y-42060000D02*
X72585000Y-42570002D01*
X72585000Y-42570002D02*
X71395001Y-43760001D01*
X71395001Y-43760001D02*
X68574999Y-43760001D01*
X67430000Y-42615002D02*
X67430000Y-42040000D01*
D26*
X63545000Y-62870000D02*
X63545000Y-62320000D01*
X61865001Y-61270001D02*
X60770000Y-60175000D01*
X60770000Y-60175000D02*
X59660000Y-60175000D01*
X62495001Y-61270001D02*
X61865001Y-61270001D01*
X63545000Y-62320000D02*
X62495001Y-61270001D01*
D27*
X57834999Y-71270001D02*
X56690000Y-70125002D01*
X61845000Y-69570000D02*
X61845000Y-70080002D01*
X61845000Y-70080002D02*
X60655001Y-71270001D01*
X60655001Y-71270001D02*
X57834999Y-71270001D01*
X56690000Y-70125002D02*
X56690000Y-69550000D01*
D26*
X53545000Y-35370000D02*
X53545000Y-34820000D01*
X53545000Y-34820000D02*
X52495001Y-33770001D01*
X52495001Y-33770001D02*
X51865001Y-33770001D01*
X51865001Y-33770001D02*
X50770000Y-32675000D01*
X50770000Y-32675000D02*
X49660000Y-32675000D01*
D27*
X51845000Y-42070000D02*
X51845000Y-42580002D01*
X51845000Y-42580002D02*
X50655001Y-43770001D01*
X50655001Y-43770001D02*
X47834999Y-43770001D01*
X47834999Y-43770001D02*
X46690000Y-42625002D01*
X46690000Y-42625002D02*
X46690000Y-42050000D01*
D25*
X65180000Y-23175952D02*
X65180000Y-30210000D01*
X65180000Y-30210000D02*
X66880000Y-31910000D01*
X66880000Y-31910000D02*
X66880000Y-32615000D01*
X65915952Y-22440000D02*
X65180000Y-23175952D01*
X68890000Y-6270000D02*
X68890000Y-6764974D01*
X66620002Y-22440000D02*
X65915952Y-22440000D01*
X68890000Y-6764974D02*
X69200010Y-7074984D01*
X69200010Y-7074984D02*
X69200010Y-19859992D01*
X69200010Y-19859992D02*
X66620002Y-22440000D01*
X44940000Y-790000D02*
X65020000Y-790000D01*
X42280000Y-3450000D02*
X44940000Y-790000D01*
X42280000Y-5200000D02*
X42280000Y-3450000D01*
D26*
X70400000Y-35935000D02*
X70200000Y-35935000D01*
X69985000Y-38060000D02*
X69985000Y-36350000D01*
X69985000Y-36350000D02*
X70400000Y-35935000D01*
X70200000Y-35935000D02*
X66880000Y-32615000D01*
D25*
X42280000Y-11860000D02*
X42280000Y-5200000D01*
X36930000Y-17210000D02*
X42280000Y-11860000D01*
X36930000Y-17270000D02*
X36930000Y-17210000D01*
X29200000Y-24850000D02*
X29350000Y-24850000D01*
X29350000Y-24850000D02*
X36930000Y-17270000D01*
X30480000Y-29210000D02*
X28670000Y-29210000D01*
X68870000Y-73340000D02*
X68870000Y-66490000D01*
X36830000Y-33584974D02*
X38720000Y-35474974D01*
X36830000Y-33090000D02*
X36830000Y-33584974D01*
X65780060Y-85379940D02*
X68880000Y-82280000D01*
X43829940Y-85379940D02*
X65780060Y-85379940D01*
X38720000Y-80270000D02*
X43829940Y-85379940D01*
X38720000Y-35474974D02*
X38720000Y-80270000D01*
X68880000Y-76660000D02*
X68870000Y-76650000D01*
X68880000Y-82280000D02*
X68880000Y-76660000D01*
X74560000Y-60800000D02*
X74560000Y-60095000D01*
X68870000Y-66490000D02*
X74560000Y-60800000D01*
X74525000Y-60060000D02*
X74560000Y-60095000D01*
D26*
X77880000Y-63415000D02*
X74560000Y-60095000D01*
X77665000Y-65540000D02*
X77665000Y-63830000D01*
X77665000Y-63830000D02*
X78080000Y-63415000D01*
X78080000Y-63415000D02*
X77880000Y-63415000D01*
D25*
X30450000Y-31850000D02*
X29840000Y-31850000D01*
X29840000Y-31850000D02*
X28670000Y-33020000D01*
X85720000Y-28260000D02*
X85720000Y-30200000D01*
X85720000Y-30200000D02*
X83335000Y-32585000D01*
X83335000Y-32585000D02*
X83180000Y-32585000D01*
X87500000Y-6170000D02*
X87849999Y-6519999D01*
X87849999Y-6519999D02*
X87849999Y-23530001D01*
X87849999Y-23530001D02*
X86630000Y-24750000D01*
X81400000Y-760000D02*
X82800000Y-760000D01*
X82800000Y-760000D02*
X82870000Y-830000D01*
X66250000Y-760000D02*
X81400000Y-760000D01*
X65544999Y-1465001D02*
X66250000Y-760000D01*
X63800000Y-1240010D02*
X64024991Y-1465001D01*
X64024991Y-1465001D02*
X65544999Y-1465001D01*
X45126400Y-1240010D02*
X63800000Y-1240010D01*
X42730010Y-3636400D02*
X45126400Y-1240010D01*
X83050000Y-32715000D02*
X83180000Y-32585000D01*
D26*
X86500000Y-35905000D02*
X83180000Y-32585000D01*
X86285000Y-38030000D02*
X86285000Y-36320000D01*
X86700000Y-35905000D02*
X86500000Y-35905000D01*
X86285000Y-36320000D02*
X86700000Y-35905000D01*
D25*
X42730010Y-12046400D02*
X42730010Y-3636400D01*
X32940000Y-21896410D02*
X42730010Y-12106400D01*
X42730010Y-12106400D02*
X42730010Y-12046400D01*
X32940000Y-29360000D02*
X32940000Y-21896410D01*
X29200000Y-31850000D02*
X30450000Y-31850000D01*
X30450000Y-31850000D02*
X32940000Y-29360000D01*
X29175000Y-36325000D02*
X29175000Y-35350000D01*
X36980000Y-39630000D02*
X36980000Y-46070000D01*
X38120010Y-47210010D02*
X38120010Y-80310010D01*
X36980000Y-46070000D02*
X38120010Y-47210010D01*
X38120010Y-80310010D02*
X43639950Y-85829950D01*
X43639950Y-85829950D02*
X82700050Y-85829950D01*
X82700050Y-85829950D02*
X87270000Y-81260000D01*
X93180000Y-60790000D02*
X93180000Y-60085000D01*
X87270000Y-66700000D02*
X93180000Y-60790000D01*
X87270000Y-76980000D02*
X87260000Y-76970000D01*
X87270000Y-81260000D02*
X87270000Y-76980000D01*
X87270000Y-72185026D02*
X87270000Y-66700000D01*
X87260000Y-72195026D02*
X87270000Y-72185026D01*
X87260000Y-72690000D02*
X87260000Y-72195026D01*
X29175000Y-36325000D02*
X28670000Y-36830000D01*
D26*
X96500000Y-63405000D02*
X93180000Y-60085000D01*
X96285000Y-63820000D02*
X96700000Y-63405000D01*
X96700000Y-63405000D02*
X96500000Y-63405000D01*
X96285000Y-65530000D02*
X96285000Y-63820000D01*
D25*
X29210000Y-38850000D02*
X29210000Y-40100000D01*
X29210000Y-40100000D02*
X28670000Y-40640000D01*
X106340000Y-28900000D02*
X106340000Y-30310000D01*
X104075000Y-32575000D02*
X103920000Y-32575000D01*
X106340000Y-30310000D02*
X104075000Y-32575000D01*
X106000000Y-5940000D02*
X107330000Y-7270000D01*
X107330000Y-7270000D02*
X107330000Y-24800000D01*
X84000000Y-810000D02*
X101460000Y-810000D01*
X83304999Y-1505001D02*
X84000000Y-810000D01*
X81213600Y-1210010D02*
X82251008Y-1210010D01*
X82251008Y-1210010D02*
X82545999Y-1505001D01*
X82545999Y-1505001D02*
X83304999Y-1505001D01*
X71610000Y-1210010D02*
X81213600Y-1210010D01*
X66436400Y-1210010D02*
X71610000Y-1210010D01*
X45329980Y-1690020D02*
X63613600Y-1690020D01*
X63613600Y-1690020D02*
X63838591Y-1915011D01*
X63838591Y-1915011D02*
X65731400Y-1915010D01*
X65731400Y-1915010D02*
X66436400Y-1210010D01*
X43180020Y-3839980D02*
X45329980Y-1690020D01*
D26*
X107240000Y-35895000D02*
X103920000Y-32575000D01*
X107440000Y-35895000D02*
X107240000Y-35895000D01*
X107025000Y-36310000D02*
X107440000Y-35895000D01*
X107025000Y-38020000D02*
X107025000Y-36310000D01*
D25*
X43180020Y-12232800D02*
X43180020Y-3839980D01*
X33390010Y-22082810D02*
X43180020Y-12292800D01*
X43180020Y-12292800D02*
X43180020Y-12232800D01*
X33390010Y-29546400D02*
X33390010Y-22082810D01*
X29175000Y-38850000D02*
X29210000Y-38850000D01*
X29210000Y-38850000D02*
X30425000Y-38850000D01*
X30425000Y-38850000D02*
X33390010Y-35884990D01*
X33390010Y-35884990D02*
X33390010Y-29546400D01*
X105650000Y-72500000D02*
X105650000Y-66710000D01*
X105650000Y-83090000D02*
X105650000Y-77430000D01*
X105650000Y-77430000D02*
X105690000Y-77390000D01*
X111600000Y-60760000D02*
X111600000Y-60055000D01*
X105650000Y-66710000D02*
X111600000Y-60760000D01*
X102460040Y-86279960D02*
X105650000Y-83090000D01*
X43365600Y-86279960D02*
X102460040Y-86279960D01*
X37600040Y-80514400D02*
X43365600Y-86279960D01*
X37600040Y-80049960D02*
X37600040Y-80514400D01*
X37670000Y-49554974D02*
X37670000Y-79980000D01*
X37670000Y-79980000D02*
X37600040Y-80049960D01*
X37230000Y-49114974D02*
X37670000Y-49554974D01*
D26*
X114920000Y-63375000D02*
X111600000Y-60055000D01*
X114705000Y-63790000D02*
X115120000Y-63375000D01*
X115120000Y-63375000D02*
X114920000Y-63375000D01*
X114705000Y-65500000D02*
X114705000Y-63790000D01*
D25*
X37230000Y-48620000D02*
X37230000Y-49114974D01*
X122810000Y-28500000D02*
X122810000Y-30220000D01*
X122810000Y-30220000D02*
X120485000Y-32545000D01*
X120485000Y-32545000D02*
X120330000Y-32545000D01*
X126270000Y-14480000D02*
X126270000Y-22290000D01*
X126270000Y-22290000D02*
X123860000Y-24700000D01*
X124680000Y-12890000D02*
X126270000Y-14480000D01*
X124680000Y-5090000D02*
X124680000Y-12890000D01*
X101854999Y-1485001D02*
X102480000Y-860000D01*
X102480000Y-860000D02*
X119620000Y-860000D01*
X100500000Y-1260010D02*
X100724991Y-1485001D01*
X100724991Y-1485001D02*
X101854999Y-1485001D01*
X84219990Y-1260010D02*
X100500000Y-1260010D01*
X81027200Y-1660020D02*
X82064608Y-1660020D01*
X82064608Y-1660020D02*
X82359599Y-1955011D01*
X82359599Y-1955011D02*
X83524989Y-1955011D01*
X83524989Y-1955011D02*
X84219990Y-1260010D01*
X71423600Y-1660020D02*
X81027200Y-1660020D01*
X66622800Y-1660020D02*
X71423600Y-1660020D01*
D26*
X123850000Y-35865000D02*
X123650000Y-35865000D01*
X123435000Y-36280000D02*
X123850000Y-35865000D01*
X123435000Y-37990000D02*
X123435000Y-36280000D01*
X123650000Y-35865000D02*
X120330000Y-32545000D01*
D25*
X65917801Y-2365019D02*
X66622800Y-1660020D01*
X45516380Y-2140030D02*
X63427200Y-2140030D01*
X63427200Y-2140030D02*
X63652192Y-2365020D01*
X63652192Y-2365020D02*
X65917801Y-2365019D01*
X43630030Y-4026380D02*
X45516380Y-2140030D01*
X43630030Y-12419200D02*
X43630030Y-4026380D01*
X33840020Y-22269210D02*
X43630030Y-12479200D01*
X43630030Y-12479200D02*
X43630030Y-12419200D01*
X33840020Y-41359980D02*
X33840020Y-22269210D01*
X29200000Y-48390000D02*
X29350000Y-48390000D01*
X29350000Y-48390000D02*
X33840020Y-41359980D01*
X124690000Y-72360000D02*
X124690000Y-66390000D01*
X124690000Y-66390000D02*
X130330000Y-60750000D01*
X130330000Y-60750000D02*
X130330000Y-60045000D01*
X124770000Y-82840000D02*
X124770000Y-77460000D01*
X124770000Y-77460000D02*
X124740000Y-77430000D01*
X43179200Y-86729970D02*
X120880030Y-86729970D01*
X120880030Y-86729970D02*
X124770000Y-82840000D01*
D26*
X133650000Y-63365000D02*
X130330000Y-60045000D01*
X133435000Y-63780000D02*
X133850000Y-63365000D01*
X133850000Y-63365000D02*
X133650000Y-63365000D01*
X133435000Y-65490000D02*
X133435000Y-63780000D01*
D25*
X37150030Y-75165800D02*
X37150030Y-80700800D01*
X36930000Y-74945770D02*
X37150030Y-75165800D01*
X37150030Y-80700800D02*
X43179200Y-86729970D01*
X36110000Y-74090000D02*
X36930000Y-74910000D01*
X36930000Y-74910000D02*
X36930000Y-74945770D01*
X36110000Y-55020000D02*
X36110000Y-74090000D01*
X143680000Y-28360000D02*
X143680000Y-30080000D01*
X143680000Y-30080000D02*
X141225000Y-32535000D01*
X141225000Y-32535000D02*
X141070000Y-32535000D01*
X143000000Y-11580000D02*
X144500000Y-13080000D01*
X144500000Y-13080000D02*
X144500000Y-24410000D01*
X143000000Y-6360000D02*
X143000000Y-11580000D01*
X121194999Y-1535001D02*
X121820000Y-910000D01*
X121820000Y-910000D02*
X138450000Y-910000D01*
X102666400Y-1310010D02*
X119071008Y-1310010D01*
X119071008Y-1310010D02*
X119295999Y-1535001D01*
X119295999Y-1535001D02*
X121194999Y-1535001D01*
X102041400Y-1935010D02*
X102666400Y-1310010D01*
X100190000Y-1730000D02*
X100395011Y-1935011D01*
X100395011Y-1935011D02*
X102041400Y-1935010D01*
X83711390Y-2405020D02*
X84386410Y-1730000D01*
X84386410Y-1730000D02*
X100190000Y-1730000D01*
X80840800Y-2110030D02*
X81878208Y-2110030D01*
X81878208Y-2110030D02*
X82173199Y-2405021D01*
X82173199Y-2405021D02*
X83711390Y-2405020D01*
X66104202Y-2815028D02*
X66809200Y-2110030D01*
X66809200Y-2110030D02*
X80840800Y-2110030D01*
X62970000Y-2590040D02*
X63194988Y-2815028D01*
X63194988Y-2815028D02*
X66104202Y-2815028D01*
X45779960Y-2590040D02*
X62970000Y-2590040D01*
X44170000Y-4200000D02*
X45779960Y-2590040D01*
D26*
X144390000Y-35855000D02*
X141070000Y-32535000D01*
X144175000Y-36270000D02*
X144590000Y-35855000D01*
X144175000Y-37980000D02*
X144175000Y-36270000D01*
X144590000Y-35855000D02*
X144390000Y-35855000D01*
D25*
X44170000Y-12575640D02*
X44170000Y-4200000D01*
X34290030Y-41546380D02*
X34290030Y-22455610D01*
X34290030Y-22455610D02*
X44170000Y-12575640D01*
X29200000Y-55390000D02*
X30450000Y-55390000D01*
X30450000Y-55390000D02*
X34290030Y-49009970D01*
X34290030Y-49009970D02*
X34290030Y-41546380D01*
X35049999Y-73702179D02*
X35049999Y-63756001D01*
X143130000Y-72000000D02*
X143130000Y-66340000D01*
X143130000Y-66340000D02*
X148750000Y-60720000D01*
X148750000Y-60015000D02*
X148750000Y-60720000D01*
X143160000Y-83310000D02*
X143160000Y-77570000D01*
X143160000Y-77570000D02*
X143130000Y-77540000D01*
X42992800Y-87179980D02*
X139290020Y-87179980D01*
X139290020Y-87179980D02*
X143160000Y-83310000D01*
X36700020Y-75352200D02*
X36700020Y-80887200D01*
X36700020Y-80887200D02*
X42992800Y-87179980D01*
X35049999Y-73702179D02*
X36700020Y-75352200D01*
X31210000Y-62230000D02*
X28670000Y-59690000D01*
X33523998Y-62230000D02*
X31210000Y-62230000D01*
X35049999Y-63756001D02*
X33523998Y-62230000D01*
D26*
X152270000Y-63335000D02*
X152070000Y-63335000D01*
X151855000Y-65460000D02*
X151855000Y-63750000D01*
X151855000Y-63750000D02*
X152270000Y-63335000D01*
X152070000Y-63335000D02*
X148750000Y-60015000D01*
D25*
X34036000Y-58928000D02*
X33274000Y-58928000D01*
X34740040Y-55534960D02*
X34740040Y-41732780D01*
X34740040Y-22642010D02*
X44620010Y-12762040D01*
X34740040Y-41732780D02*
X34740040Y-22642010D01*
X44620010Y-4389990D02*
X45969950Y-3040050D01*
X44620010Y-12762040D02*
X44620010Y-4389990D01*
X45969950Y-3040050D02*
X62490000Y-3040050D01*
X62714988Y-3265038D02*
X66290603Y-3265037D01*
X62490000Y-3040050D02*
X62714988Y-3265038D01*
X66995600Y-2560040D02*
X80654400Y-2560040D01*
X66290603Y-3265037D02*
X66995600Y-2560040D01*
X81986800Y-2855030D02*
X83897791Y-2855029D01*
X81691808Y-2560040D02*
X81986800Y-2855030D01*
X80654400Y-2560040D02*
X81691808Y-2560040D01*
X83897791Y-2855029D02*
X84572810Y-2180010D01*
X102464980Y-2385020D02*
X103089980Y-1760020D01*
X100208612Y-2385020D02*
X102464980Y-2385020D01*
X100003600Y-2180010D02*
X100208612Y-2385020D01*
X84572810Y-2180010D02*
X100003600Y-2180010D01*
X103089980Y-1760020D02*
X118700000Y-1760020D01*
X121494989Y-1985011D02*
X122119990Y-1360010D01*
X119109599Y-1985011D02*
X121494989Y-1985011D01*
X118884608Y-1760020D02*
X119109599Y-1985011D01*
X118700000Y-1760020D02*
X118884608Y-1760020D01*
X122119990Y-1360010D02*
X137410000Y-1360010D01*
X138125999Y-1585001D02*
X139434999Y-1585001D01*
X137901008Y-1360010D02*
X138125999Y-1585001D01*
X137410000Y-1360010D02*
X137901008Y-1360010D01*
X140140000Y-880000D02*
X157080000Y-880000D01*
X139434999Y-1585001D02*
X140140000Y-880000D01*
X161570000Y-6190000D02*
X161940000Y-6560000D01*
X161940000Y-6560000D02*
X161940000Y-14000000D01*
X161940000Y-14000000D02*
X162680000Y-14740000D01*
X162680000Y-22390000D02*
X160760000Y-24310000D01*
X162680000Y-14740000D02*
X162680000Y-22390000D01*
X157370000Y-32130000D02*
X159810000Y-29690000D01*
X34740040Y-58223960D02*
X34036000Y-58928000D01*
X34740040Y-55534960D02*
X34740040Y-58223960D01*
X28702000Y-63500000D02*
X28670000Y-63500000D01*
X33274000Y-58928000D02*
X31750000Y-60452000D01*
X157370000Y-32130000D02*
X157370000Y-32505000D01*
D26*
X160475000Y-37950000D02*
X160475000Y-36240000D01*
X160475000Y-36240000D02*
X160890000Y-35825000D01*
X160890000Y-35825000D02*
X160690000Y-35825000D01*
X160690000Y-35825000D02*
X157370000Y-32505000D01*
D28*
X58000000Y-14100000D02*
X58000000Y-18700000D01*
X58000000Y-18700000D02*
X55670000Y-21030000D01*
X55670000Y-21030000D02*
X55670000Y-22650000D01*
X56625000Y-7975000D02*
X56625000Y-12725000D01*
X56625000Y-12725000D02*
X58000000Y-14100000D01*
D29*
X55670000Y-24020000D02*
X55670000Y-22650000D01*
X53430000Y-27980000D02*
X53430000Y-24989998D01*
X53430000Y-24989998D02*
X54399998Y-24020000D01*
X54399998Y-24020000D02*
X55670000Y-24020000D01*
X54550000Y-29100000D02*
X53430000Y-27980000D01*
X55670000Y-29100000D02*
X54550000Y-29100000D01*
D28*
X61780000Y-23995000D02*
X61780000Y-46260000D01*
X61780000Y-46260000D02*
X65670000Y-50150000D01*
X67375000Y-18150000D02*
X67375000Y-18400000D01*
X67375000Y-18400000D02*
X61780000Y-23995000D01*
X65900000Y-14100000D02*
X65900000Y-16675000D01*
X65900000Y-16675000D02*
X67375000Y-18150000D01*
X65925000Y-7975000D02*
X65925000Y-14075000D01*
X65925000Y-14075000D02*
X65900000Y-14100000D01*
D29*
X64550000Y-56600000D02*
X63430000Y-55480000D01*
X63430000Y-55480000D02*
X63430000Y-52489998D01*
X65670000Y-56600000D02*
X64550000Y-56600000D01*
X65670000Y-51520000D02*
X65670000Y-50150000D01*
X64399998Y-51520000D02*
X65670000Y-51520000D01*
X63430000Y-52489998D02*
X64399998Y-51520000D01*
D28*
X75275000Y-18150000D02*
X75275000Y-21505000D01*
X75275000Y-21505000D02*
X76410000Y-22640000D01*
X76700000Y-14125000D02*
X76700000Y-16725000D01*
X76700000Y-16725000D02*
X75275000Y-18150000D01*
X75275000Y-7975000D02*
X75275000Y-12700000D01*
X75275000Y-12700000D02*
X76700000Y-14125000D01*
D29*
X75290000Y-29090000D02*
X74170000Y-27970000D01*
X74170000Y-27970000D02*
X74170000Y-24979998D01*
X76410000Y-29090000D02*
X75290000Y-29090000D01*
X76410000Y-24010000D02*
X76410000Y-22640000D01*
X75139998Y-24010000D02*
X76410000Y-24010000D01*
X74170000Y-24979998D02*
X75139998Y-24010000D01*
D28*
X80010000Y-19790000D02*
X80010000Y-46040000D01*
X80010000Y-46040000D02*
X84090000Y-50120000D01*
X85975000Y-18175000D02*
X81625000Y-18175000D01*
X81625000Y-18175000D02*
X80010000Y-19790000D01*
X84600000Y-14125000D02*
X84600000Y-16800000D01*
X84600000Y-16800000D02*
X85975000Y-18175000D01*
X84600000Y-7975000D02*
X84600000Y-14125000D01*
D29*
X84090000Y-51490000D02*
X84090000Y-50120000D01*
X81850000Y-55450000D02*
X81850000Y-52459998D01*
X84090000Y-56570000D02*
X82970000Y-56570000D01*
X82970000Y-56570000D02*
X81850000Y-55450000D01*
X81850000Y-52459998D02*
X82819998Y-51490000D01*
X82819998Y-51490000D02*
X84090000Y-51490000D01*
D28*
X93875000Y-18175000D02*
X93875000Y-21445000D01*
X93875000Y-21445000D02*
X92710000Y-22610000D01*
X95250000Y-14150000D02*
X95250000Y-16800000D01*
X95250000Y-16800000D02*
X93875000Y-18175000D01*
X93875000Y-7975000D02*
X93875000Y-12775000D01*
X93875000Y-12775000D02*
X95250000Y-14150000D01*
D29*
X92710000Y-23980000D02*
X92710000Y-22610000D01*
X91439998Y-23980000D02*
X92710000Y-23980000D01*
X90470000Y-24949998D02*
X91439998Y-23980000D01*
X91590000Y-29060000D02*
X90470000Y-27940000D01*
X92710000Y-29060000D02*
X91590000Y-29060000D01*
X90470000Y-27940000D02*
X90470000Y-24949998D01*
D28*
X98150000Y-24800000D02*
X98150000Y-45550000D01*
X98150000Y-45550000D02*
X102710000Y-50110000D01*
X104525000Y-18175000D02*
X104525000Y-18425000D01*
X104525000Y-18425000D02*
X98150000Y-24800000D01*
X103150000Y-14150000D02*
X103150000Y-16800000D01*
X103150000Y-16800000D02*
X104525000Y-18175000D01*
X103150000Y-7975000D02*
X103150000Y-14150000D01*
D29*
X102710000Y-56560000D02*
X101590000Y-56560000D01*
X100470000Y-52449998D02*
X101439998Y-51480000D01*
X100470000Y-55440000D02*
X100470000Y-52449998D01*
X101590000Y-56560000D02*
X100470000Y-55440000D01*
X101439998Y-51480000D02*
X102710000Y-51480000D01*
X102710000Y-51480000D02*
X102710000Y-50110000D01*
D28*
X112425000Y-18175000D02*
X112425000Y-21575000D01*
X112425000Y-21575000D02*
X113450000Y-22600000D01*
X113800000Y-14150000D02*
X113800000Y-16800000D01*
X113800000Y-16800000D02*
X112425000Y-18175000D01*
X112425000Y-7975000D02*
X112425000Y-12775000D01*
X112425000Y-12775000D02*
X113800000Y-14150000D01*
D29*
X111210000Y-27930000D02*
X111210000Y-24939998D01*
X113450000Y-29050000D02*
X112330000Y-29050000D01*
X112330000Y-29050000D02*
X111210000Y-27930000D01*
X111210000Y-24939998D02*
X112179998Y-23970000D01*
X113450000Y-23970000D02*
X113450000Y-22600000D01*
X112179998Y-23970000D02*
X113450000Y-23970000D01*
D28*
X116880000Y-20980000D02*
X116880000Y-45830000D01*
X116880000Y-45830000D02*
X121130000Y-50080000D01*
X117859999Y-20000001D02*
X116880000Y-20980000D01*
X119720000Y-18150000D02*
X117869999Y-20000001D01*
X117869999Y-20000001D02*
X117859999Y-20000001D01*
X123100000Y-18150000D02*
X119720000Y-18150000D01*
X121700000Y-14150000D02*
X121700000Y-16750000D01*
X121700000Y-16750000D02*
X123100000Y-18150000D01*
X121700000Y-7975000D02*
X121700000Y-14150000D01*
D29*
X121130000Y-51450000D02*
X121130000Y-50080000D01*
X118890000Y-55410000D02*
X118890000Y-52419998D01*
X120010000Y-56530000D02*
X118890000Y-55410000D01*
X118890000Y-52419998D02*
X119859998Y-51450000D01*
X119859998Y-51450000D02*
X121130000Y-51450000D01*
X121130000Y-56530000D02*
X120010000Y-56530000D01*
D28*
X131000000Y-18150000D02*
X131000000Y-21430000D01*
X131000000Y-21430000D02*
X129860000Y-22570000D01*
X132325000Y-14125000D02*
X132325000Y-16825000D01*
X132325000Y-16825000D02*
X131000000Y-18150000D01*
X131000000Y-7975000D02*
X131000000Y-12800000D01*
X131000000Y-12800000D02*
X132325000Y-14125000D01*
D29*
X129860000Y-29020000D02*
X128740000Y-29020000D01*
X128589998Y-23940000D02*
X129860000Y-23940000D01*
X127620000Y-24909998D02*
X128589998Y-23940000D01*
X129860000Y-23940000D02*
X129860000Y-22570000D01*
X128740000Y-29020000D02*
X127620000Y-27900000D01*
X127620000Y-27900000D02*
X127620000Y-24909998D01*
D28*
X136590000Y-20840000D02*
X136590000Y-46800000D01*
X136590000Y-46800000D02*
X139860000Y-50070000D01*
X139280000Y-18150000D02*
X136590000Y-20840000D01*
X141550000Y-18150000D02*
X139280000Y-18150000D01*
X140225000Y-14125000D02*
X140225000Y-16825000D01*
X140225000Y-16825000D02*
X141550000Y-18150000D01*
X140225000Y-7975000D02*
X140225000Y-14125000D01*
D29*
X137620000Y-55400000D02*
X137620000Y-52409998D01*
X138740000Y-56520000D02*
X137620000Y-55400000D01*
X137620000Y-52409998D02*
X138589998Y-51440000D01*
X139860000Y-51440000D02*
X139860000Y-50070000D01*
X139860000Y-56520000D02*
X138740000Y-56520000D01*
X138589998Y-51440000D02*
X139860000Y-51440000D01*
D28*
X149450000Y-18150000D02*
X149450000Y-21410000D01*
X149450000Y-21410000D02*
X150600000Y-22560000D01*
X150825000Y-14150000D02*
X150825000Y-16775000D01*
X150825000Y-16775000D02*
X149450000Y-18150000D01*
X149450000Y-7975000D02*
X149450000Y-12775000D01*
X149450000Y-12775000D02*
X150825000Y-14150000D01*
D29*
X148360000Y-27890000D02*
X148360000Y-24899998D01*
X149480000Y-29010000D02*
X148360000Y-27890000D01*
X150600000Y-29010000D02*
X149480000Y-29010000D01*
X150600000Y-23930000D02*
X150600000Y-22560000D01*
X149329998Y-23930000D02*
X150600000Y-23930000D01*
X148360000Y-24899998D02*
X149329998Y-23930000D01*
D25*
X187686000Y-69342000D02*
X187686000Y-67544000D01*
X187650000Y-64445000D02*
X188840000Y-64445000D01*
X187325000Y-64770000D02*
X187650000Y-64445000D01*
X187325000Y-67183000D02*
X187325000Y-64770000D01*
X187686000Y-67544000D02*
X187325000Y-67183000D01*
D27*
X191770000Y-63500000D02*
X191770000Y-62230000D01*
D29*
X159410000Y-56490000D02*
X161290000Y-54610000D01*
X161290000Y-71120000D02*
X173990000Y-73660000D01*
X159410000Y-56490000D02*
X158280000Y-56490000D01*
D27*
X191770000Y-62230000D02*
X190500000Y-60960000D01*
D25*
X188840000Y-64445000D02*
X190825000Y-64445000D01*
X190825000Y-64445000D02*
X191770000Y-63500000D01*
D28*
X160100000Y-18150000D02*
X155750000Y-18150000D01*
X155750000Y-18150000D02*
X154290000Y-19610000D01*
X154290000Y-19610000D02*
X154290000Y-46050000D01*
X154290000Y-46050000D02*
X158280000Y-50040000D01*
X158725000Y-14150000D02*
X158725000Y-16775000D01*
X158725000Y-16775000D02*
X160100000Y-18150000D01*
X158725000Y-7975000D02*
X158725000Y-14150000D01*
D29*
X157009998Y-51410000D02*
X158280000Y-51410000D01*
X156040000Y-52379998D02*
X157009998Y-51410000D01*
X156040000Y-55370000D02*
X156040000Y-52379998D01*
X158280000Y-56490000D02*
X157160000Y-56490000D01*
X157160000Y-56490000D02*
X156040000Y-55370000D01*
X158280000Y-51410000D02*
X158280000Y-50040000D01*
D25*
X187015000Y-46665000D02*
X188840000Y-46665000D01*
X186944000Y-46736000D02*
X187015000Y-46665000D01*
X188840000Y-26345000D02*
X187650000Y-26345000D01*
X186944000Y-27051000D02*
X187650000Y-26345000D01*
D27*
X191770000Y-45720000D02*
X191770000Y-44450000D01*
X191770000Y-44450000D02*
X190500000Y-43180000D01*
X191770000Y-25400000D02*
X189230000Y-22860000D01*
D29*
X167640000Y-30480000D02*
X166900000Y-29740000D01*
X166900000Y-28980000D02*
X166900000Y-29740000D01*
D25*
X190825000Y-46665000D02*
X191770000Y-45720000D01*
X188840000Y-46665000D02*
X190825000Y-46665000D01*
X188840000Y-26345000D02*
X190825000Y-26345000D01*
X190825000Y-26345000D02*
X191770000Y-25400000D01*
D28*
X168000000Y-18150000D02*
X168000000Y-21430000D01*
X168000000Y-21430000D02*
X166900000Y-22530000D01*
X169325000Y-14100000D02*
X169325000Y-16825000D01*
X169325000Y-16825000D02*
X168000000Y-18150000D01*
X168000000Y-7975000D02*
X168000000Y-12775000D01*
X168000000Y-12775000D02*
X169325000Y-14100000D01*
D29*
X164660000Y-27860000D02*
X164660000Y-24869998D01*
X166900000Y-23900000D02*
X166900000Y-22530000D01*
X165629998Y-23900000D02*
X166900000Y-23900000D01*
X164660000Y-24869998D02*
X165629998Y-23900000D01*
X165780000Y-28980000D02*
X164660000Y-27860000D01*
X166900000Y-28980000D02*
X165780000Y-28980000D01*
D27*
X47586000Y-69430000D02*
X47580000Y-69430000D01*
X47625000Y-69469000D02*
X47586000Y-69430000D01*
X21590000Y-10922000D02*
X21590000Y-5334000D01*
X21590000Y-5334000D02*
X23368000Y-3556000D01*
D25*
X11938000Y-26961000D02*
X11938000Y-25146000D01*
D27*
X11938000Y-25146000D02*
X11938000Y-16256000D01*
D25*
X11938000Y-26961000D02*
X11994000Y-27017000D01*
D27*
X36322000Y-9144000D02*
X36322000Y-8103000D01*
X36322000Y-8103000D02*
X36425000Y-8000000D01*
D25*
X36425000Y-9041000D02*
X36425000Y-8000000D01*
D27*
X14732000Y-14986000D02*
X14478000Y-14986000D01*
X14478000Y-14986000D02*
X13081000Y-13589000D01*
X7112000Y-16256000D02*
X11938000Y-16256000D01*
X15240000Y-3556000D02*
X15240000Y-10414000D01*
X15240000Y-10414000D02*
X15748000Y-10922000D01*
X32004000Y-14478000D02*
X32004000Y-10922000D01*
X32004000Y-10922000D02*
X32004000Y-11176000D01*
X32004000Y-11176000D02*
X32004000Y-10922000D01*
X11938000Y-14732000D02*
X11938000Y-16256000D01*
X13081000Y-13589000D02*
X11938000Y-14732000D01*
X15748000Y-10922000D02*
X13081000Y-13589000D01*
X34544000Y-10922000D02*
X32004000Y-10922000D01*
X32004000Y-10922000D02*
X21590000Y-10922000D01*
X21590000Y-10922000D02*
X15748000Y-10922000D01*
X36425000Y-9041000D02*
X36322000Y-9144000D01*
X36322000Y-9144000D02*
X34544000Y-10922000D01*
X141410000Y-63890000D02*
X141410000Y-66510000D01*
X141410000Y-66510000D02*
X138590000Y-69330000D01*
X138590000Y-69330000D02*
X138590000Y-69480000D01*
X144230000Y-61070000D02*
X141410000Y-63890000D01*
X144230000Y-49190000D02*
X144230000Y-61070000D01*
X146490000Y-46930000D02*
X144230000Y-49190000D01*
X146490000Y-46810000D02*
X146490000Y-46930000D01*
X149330000Y-41970000D02*
X149330000Y-43970000D01*
X149330000Y-43970000D02*
X146490000Y-46810000D01*
X104280000Y-64480000D02*
X104280000Y-66530000D01*
X101440000Y-69370000D02*
X101440000Y-69520000D01*
X104280000Y-66530000D02*
X101440000Y-69370000D01*
X106810000Y-61950000D02*
X104280000Y-64480000D01*
X106810000Y-49180000D02*
X106810000Y-61950000D01*
X109030000Y-46960000D02*
X106810000Y-49180000D01*
X109230000Y-46960000D02*
X109030000Y-46960000D01*
X112180000Y-42010000D02*
X112180000Y-44010000D01*
X112180000Y-44010000D02*
X109230000Y-46960000D01*
X67160000Y-60320000D02*
X67160000Y-66650000D01*
X67160000Y-66650000D02*
X64400000Y-69410000D01*
X64400000Y-69410000D02*
X64400000Y-69560000D01*
X71760000Y-55720000D02*
X67160000Y-60320000D01*
X71760000Y-47430000D02*
X71760000Y-55720000D01*
X75140000Y-42050000D02*
X75140000Y-44050000D01*
X75140000Y-44050000D02*
X71760000Y-47430000D01*
X64400000Y-69560000D02*
X64400000Y-71560000D01*
X64400000Y-71560000D02*
X60800000Y-75160000D01*
X82820000Y-69530000D02*
X82820000Y-71530000D01*
X82820000Y-71530000D02*
X79190000Y-75160000D01*
X101440000Y-69520000D02*
X101440000Y-71520000D01*
X101440000Y-71520000D02*
X97800000Y-75160000D01*
X119860000Y-69490000D02*
X119860000Y-70055002D01*
X119860000Y-70055002D02*
X114755002Y-75160000D01*
X138590000Y-69480000D02*
X138590000Y-71480000D01*
X138590000Y-71480000D02*
X134910000Y-75160000D01*
X157010000Y-69450000D02*
X157010000Y-71450000D01*
X157010000Y-71450000D02*
X153300000Y-75160000D01*
X165630000Y-41940000D02*
X165630000Y-43940000D01*
X165630000Y-43940000D02*
X163540000Y-46030000D01*
X163540000Y-46030000D02*
X163540000Y-62770000D01*
X163540000Y-62770000D02*
X157010000Y-69300000D01*
X157010000Y-69300000D02*
X157010000Y-69450000D01*
X54400000Y-42060000D02*
X54400000Y-44060000D01*
X54400000Y-44060000D02*
X48350000Y-50110000D01*
X49180000Y-4820000D02*
X57630000Y-4820000D01*
X57630000Y-4820000D02*
X94660000Y-4820000D01*
X59850000Y-9890000D02*
X59850000Y-7040000D01*
X59850000Y-7040000D02*
X57630000Y-4820000D01*
X61130000Y-11170000D02*
X59850000Y-9890000D01*
X61130000Y-20050000D02*
X61130000Y-11170000D01*
X57980000Y-23200000D02*
X61130000Y-20050000D01*
X57980000Y-38330000D02*
X57980000Y-23200000D01*
X54400000Y-42060000D02*
X54400000Y-41910000D01*
X54400000Y-41910000D02*
X57980000Y-38330000D01*
X94660000Y-4820000D02*
X121990000Y-4820000D01*
X96880000Y-10240000D02*
X96880000Y-7040000D01*
X96880000Y-7040000D02*
X94660000Y-4820000D01*
X98510000Y-11870000D02*
X96880000Y-10240000D01*
X98510000Y-20270000D02*
X98510000Y-11870000D01*
X95360000Y-23420000D02*
X98510000Y-20270000D01*
X95360000Y-32890000D02*
X95360000Y-23420000D01*
X93370000Y-34880000D02*
X95360000Y-32890000D01*
X93370000Y-39940000D02*
X93370000Y-34880000D01*
X91440000Y-42020000D02*
X91440000Y-41870000D01*
X91440000Y-41870000D02*
X93370000Y-39940000D01*
X123210000Y-3600000D02*
X132150000Y-3600000D01*
X132150000Y-3600000D02*
X169300000Y-3600000D01*
X128590000Y-41980000D02*
X128590000Y-41830000D01*
X134020000Y-9760000D02*
X134020000Y-5470000D01*
X128590000Y-41830000D02*
X133090000Y-37330000D01*
X133090000Y-37330000D02*
X133090000Y-22970000D01*
X133090000Y-22970000D02*
X134020000Y-22040000D01*
X134020000Y-22040000D02*
X134020000Y-18880000D01*
X134020000Y-18880000D02*
X136130000Y-16770000D01*
X136130000Y-16770000D02*
X136130000Y-11870000D01*
X134020000Y-5470000D02*
X132150000Y-3600000D01*
X136130000Y-11870000D02*
X134020000Y-9760000D01*
X149330000Y-41970000D02*
X149360000Y-41970000D01*
X171170000Y-10050000D02*
X171170000Y-5470000D01*
X171170000Y-5470000D02*
X169300000Y-3600000D01*
X172690000Y-11570000D02*
X171170000Y-10050000D01*
X172690000Y-17290000D02*
X172690000Y-11570000D01*
X170820000Y-19160000D02*
X172690000Y-17290000D01*
X170820000Y-23020000D02*
X170820000Y-19160000D01*
X169710000Y-24130000D02*
X170820000Y-23020000D01*
X169710000Y-37710000D02*
X169710000Y-24130000D01*
X165630000Y-41940000D02*
X165630000Y-41790000D01*
X165630000Y-41790000D02*
X169710000Y-37710000D01*
X47180000Y-6820000D02*
X49180000Y-4820000D01*
X121990000Y-4820000D02*
X123210000Y-3600000D01*
X36425000Y-8000000D02*
X40140000Y-8000000D01*
X40140000Y-8000000D02*
X40610000Y-7530000D01*
X53310000Y-75160000D02*
X56170000Y-75160000D01*
X56170000Y-75160000D02*
X75620000Y-75160000D01*
X60800000Y-75160000D02*
X56170000Y-75160000D01*
X75620000Y-75160000D02*
X92700000Y-75160000D01*
X79190000Y-75160000D02*
X75620000Y-75160000D01*
X92700000Y-75160000D02*
X112600000Y-75160000D01*
X97800000Y-75160000D02*
X92700000Y-75160000D01*
X112600000Y-75160000D02*
X132200000Y-75160000D01*
X114755002Y-75160000D02*
X112600000Y-75160000D01*
X132200000Y-75160000D02*
X152400000Y-75160000D01*
X134910000Y-75160000D02*
X132200000Y-75160000D01*
X153300000Y-75160000D02*
X152400000Y-75160000D01*
X45590000Y-60060000D02*
X47580000Y-62050000D01*
X47580000Y-62050000D02*
X47580000Y-69430000D01*
X47580000Y-69430000D02*
X53310000Y-75160000D01*
X48350000Y-50110000D02*
X48350000Y-56100000D01*
X48350000Y-56100000D02*
X47800000Y-56650000D01*
D26*
X51845000Y-38070000D02*
X51845000Y-35570000D01*
X51845000Y-35570000D02*
X51645000Y-35370000D01*
X49245000Y-42070000D02*
X49245000Y-40820000D01*
X51845000Y-38220000D02*
X51845000Y-38070000D01*
X49245000Y-40820000D02*
X51845000Y-38220000D01*
X52595000Y-32370000D02*
X52595000Y-30920000D01*
X52595000Y-30920000D02*
X48235000Y-26560000D01*
X48235000Y-26560000D02*
X47400000Y-26560000D01*
X47400000Y-26560000D02*
X46140000Y-26560000D01*
X61845000Y-63070000D02*
X61645000Y-62870000D01*
X61845000Y-65570000D02*
X61845000Y-63070000D01*
X59245000Y-68320000D02*
X61845000Y-65720000D01*
X59245000Y-69570000D02*
X59245000Y-68320000D01*
X61845000Y-65720000D02*
X61845000Y-65570000D01*
X62595000Y-59870000D02*
X62595000Y-58420000D01*
X62595000Y-58420000D02*
X58235000Y-54060000D01*
X58235000Y-54060000D02*
X57400000Y-54060000D01*
X57400000Y-54060000D02*
X56140000Y-54060000D01*
X72585000Y-35560000D02*
X72385000Y-35360000D01*
X72585000Y-38060000D02*
X72585000Y-35560000D01*
X69985000Y-40810000D02*
X72585000Y-38210000D01*
X69985000Y-42060000D02*
X69985000Y-40810000D01*
X72585000Y-38210000D02*
X72585000Y-38060000D01*
X73335000Y-32360000D02*
X73335000Y-30910000D01*
X73335000Y-30910000D02*
X68975000Y-26550000D01*
X68975000Y-26550000D02*
X68140000Y-26550000D01*
X68140000Y-26550000D02*
X66880000Y-26550000D01*
X80265000Y-63040000D02*
X80065000Y-62840000D01*
X77665000Y-68290000D02*
X80265000Y-65690000D01*
X77665000Y-69540000D02*
X77665000Y-68290000D01*
X80265000Y-65690000D02*
X80265000Y-65540000D01*
X80265000Y-65540000D02*
X80265000Y-63040000D01*
X81015000Y-59840000D02*
X81015000Y-58390000D01*
X81015000Y-58390000D02*
X76655000Y-54030000D01*
X76655000Y-54030000D02*
X75820000Y-54030000D01*
X75820000Y-54030000D02*
X74560000Y-54030000D01*
X88885000Y-38030000D02*
X88885000Y-35530000D01*
X88885000Y-35530000D02*
X88685000Y-35330000D01*
X88885000Y-38180000D02*
X88885000Y-38030000D01*
X86285000Y-42030000D02*
X86285000Y-40780000D01*
X86285000Y-40780000D02*
X88885000Y-38180000D01*
X84440000Y-26520000D02*
X83180000Y-26520000D01*
X85275000Y-26520000D02*
X84440000Y-26520000D01*
X89635000Y-30880000D02*
X85275000Y-26520000D01*
X89635000Y-32330000D02*
X89635000Y-30880000D01*
X98885000Y-65680000D02*
X98885000Y-65530000D01*
X96285000Y-68280000D02*
X98885000Y-65680000D01*
X96285000Y-69530000D02*
X96285000Y-68280000D01*
X98885000Y-65530000D02*
X98885000Y-63030000D01*
X98885000Y-63030000D02*
X98685000Y-62830000D01*
X94440000Y-54020000D02*
X93180000Y-54020000D01*
X95275000Y-54020000D02*
X94440000Y-54020000D01*
X99635000Y-58380000D02*
X95275000Y-54020000D01*
X99635000Y-59830000D02*
X99635000Y-58380000D01*
X109625000Y-35520000D02*
X109425000Y-35320000D01*
X107025000Y-42020000D02*
X107025000Y-40770000D01*
X109625000Y-38170000D02*
X109625000Y-38020000D01*
X107025000Y-40770000D02*
X109625000Y-38170000D01*
X109625000Y-38020000D02*
X109625000Y-35520000D01*
X106015000Y-26510000D02*
X105180000Y-26510000D01*
X110375000Y-30870000D02*
X106015000Y-26510000D01*
X105180000Y-26510000D02*
X103920000Y-26510000D01*
X110375000Y-32320000D02*
X110375000Y-30870000D01*
X117305000Y-63000000D02*
X117105000Y-62800000D01*
X117305000Y-65500000D02*
X117305000Y-63000000D01*
X114705000Y-69500000D02*
X114705000Y-68250000D01*
X117305000Y-65650000D02*
X117305000Y-65500000D01*
X114705000Y-68250000D02*
X117305000Y-65650000D01*
X118055000Y-59800000D02*
X118055000Y-58350000D01*
X118055000Y-58350000D02*
X113695000Y-53990000D01*
X113695000Y-53990000D02*
X112860000Y-53990000D01*
X112860000Y-53990000D02*
X111600000Y-53990000D01*
X126035000Y-35490000D02*
X125835000Y-35290000D01*
X126035000Y-37990000D02*
X126035000Y-35490000D01*
X123435000Y-41990000D02*
X123435000Y-40740000D01*
X123435000Y-40740000D02*
X126035000Y-38140000D01*
X126035000Y-38140000D02*
X126035000Y-37990000D01*
X122425000Y-26480000D02*
X121590000Y-26480000D01*
X126785000Y-30840000D02*
X122425000Y-26480000D01*
X121590000Y-26480000D02*
X120330000Y-26480000D01*
X126785000Y-32290000D02*
X126785000Y-30840000D01*
X136035000Y-62990000D02*
X135835000Y-62790000D01*
X133435000Y-69490000D02*
X133435000Y-68240000D01*
X136035000Y-65640000D02*
X136035000Y-65490000D01*
X136035000Y-65490000D02*
X136035000Y-62990000D01*
X133435000Y-68240000D02*
X136035000Y-65640000D01*
X132425000Y-53980000D02*
X131590000Y-53980000D01*
X136785000Y-58340000D02*
X132425000Y-53980000D01*
X131590000Y-53980000D02*
X130330000Y-53980000D01*
X136785000Y-59790000D02*
X136785000Y-58340000D01*
X146775000Y-35480000D02*
X146575000Y-35280000D01*
X146775000Y-37980000D02*
X146775000Y-35480000D01*
X146775000Y-38130000D02*
X146775000Y-37980000D01*
X144175000Y-41980000D02*
X144175000Y-40730000D01*
X144175000Y-40730000D02*
X146775000Y-38130000D01*
X147525000Y-30830000D02*
X143165000Y-26470000D01*
X142330000Y-26470000D02*
X141070000Y-26470000D01*
X143165000Y-26470000D02*
X142330000Y-26470000D01*
X147525000Y-32280000D02*
X147525000Y-30830000D01*
X151855000Y-68210000D02*
X154455000Y-65610000D01*
X154455000Y-65610000D02*
X154455000Y-65460000D01*
X151855000Y-69460000D02*
X151855000Y-68210000D01*
X154455000Y-62960000D02*
X154255000Y-62760000D01*
X154455000Y-65460000D02*
X154455000Y-62960000D01*
X155205000Y-59760000D02*
X155205000Y-58310000D01*
X150845000Y-53950000D02*
X150010000Y-53950000D01*
X150010000Y-53950000D02*
X148750000Y-53950000D01*
X155205000Y-58310000D02*
X150845000Y-53950000D01*
X163075000Y-38100000D02*
X163075000Y-37950000D01*
X160475000Y-40700000D02*
X163075000Y-38100000D01*
X160475000Y-41950000D02*
X160475000Y-40700000D01*
X163075000Y-37950000D02*
X163075000Y-35450000D01*
X163075000Y-35450000D02*
X162875000Y-35250000D01*
X159465000Y-26440000D02*
X158630000Y-26440000D01*
X163825000Y-30800000D02*
X159465000Y-26440000D01*
X158630000Y-26440000D02*
X157370000Y-26440000D01*
X163825000Y-32250000D02*
X163825000Y-30800000D01*
X46140000Y-24020000D02*
X47400000Y-24020000D01*
X47400000Y-24020000D02*
X54710000Y-31330000D01*
X54710000Y-31330000D02*
X54710000Y-36880000D01*
X54710000Y-36880000D02*
X54400000Y-37190000D01*
X54400000Y-37190000D02*
X54400000Y-38060000D01*
X64710000Y-64380000D02*
X64400000Y-64690000D01*
X64710000Y-58830000D02*
X64710000Y-64380000D01*
X64400000Y-64690000D02*
X64400000Y-65560000D01*
X57400000Y-51520000D02*
X64710000Y-58830000D01*
X56140000Y-51520000D02*
X57400000Y-51520000D01*
X75450000Y-36870000D02*
X75140000Y-37180000D01*
X75450000Y-31320000D02*
X75450000Y-36870000D01*
X75140000Y-37180000D02*
X75140000Y-38050000D01*
X68140000Y-24010000D02*
X75450000Y-31320000D01*
X66880000Y-24010000D02*
X68140000Y-24010000D01*
X83130000Y-64350000D02*
X82820000Y-64660000D01*
X82820000Y-64660000D02*
X82820000Y-65530000D01*
X83130000Y-58800000D02*
X83130000Y-64350000D01*
X75820000Y-51490000D02*
X83130000Y-58800000D01*
X74560000Y-51490000D02*
X75820000Y-51490000D01*
X84440000Y-23980000D02*
X91750000Y-31290000D01*
X83180000Y-23980000D02*
X84440000Y-23980000D01*
X91440000Y-37150000D02*
X91440000Y-38020000D01*
X91750000Y-36840000D02*
X91440000Y-37150000D01*
X91750000Y-31290000D02*
X91750000Y-36840000D01*
X93180000Y-51480000D02*
X94440000Y-51480000D01*
X94440000Y-51480000D02*
X101750000Y-58790000D01*
X101750000Y-58790000D02*
X101750000Y-64340000D01*
X101440000Y-64650000D02*
X101440000Y-65520000D01*
X101750000Y-64340000D02*
X101440000Y-64650000D01*
X105180000Y-23970000D02*
X112490000Y-31280000D01*
X103920000Y-23970000D02*
X105180000Y-23970000D01*
X112490000Y-31280000D02*
X112490000Y-36830000D01*
X112180000Y-37140000D02*
X112180000Y-38010000D01*
X112490000Y-36830000D02*
X112180000Y-37140000D01*
X120170000Y-64310000D02*
X119860000Y-64620000D01*
X119860000Y-64620000D02*
X119860000Y-65490000D01*
X120170000Y-58760000D02*
X120170000Y-64310000D01*
X112860000Y-51450000D02*
X120170000Y-58760000D01*
X111600000Y-51450000D02*
X112860000Y-51450000D01*
X128900000Y-36800000D02*
X128590000Y-37110000D01*
X128590000Y-37110000D02*
X128590000Y-37980000D01*
X120330000Y-23940000D02*
X121590000Y-23940000D01*
X121590000Y-23940000D02*
X128900000Y-31250000D01*
X128900000Y-31250000D02*
X128900000Y-36800000D01*
X130330000Y-51440000D02*
X131590000Y-51440000D01*
X131590000Y-51440000D02*
X138900000Y-58750000D01*
X138900000Y-64300000D02*
X138590000Y-64610000D01*
X138590000Y-64610000D02*
X138590000Y-65480000D01*
X138900000Y-58750000D02*
X138900000Y-64300000D01*
X149640000Y-36790000D02*
X149330000Y-37100000D01*
X149330000Y-37100000D02*
X149330000Y-37970000D01*
X141070000Y-23930000D02*
X142330000Y-23930000D01*
X142330000Y-23930000D02*
X149640000Y-31240000D01*
X149640000Y-31240000D02*
X149640000Y-36790000D01*
X157320000Y-58720000D02*
X157320000Y-64270000D01*
X150010000Y-51410000D02*
X157320000Y-58720000D01*
X148750000Y-51410000D02*
X150010000Y-51410000D01*
X157010000Y-64580000D02*
X157010000Y-65450000D01*
X157320000Y-64270000D02*
X157010000Y-64580000D01*
X165940000Y-36760000D02*
X165630000Y-37070000D01*
X165630000Y-37070000D02*
X165630000Y-37940000D01*
X158630000Y-23900000D02*
X165940000Y-31210000D01*
X157370000Y-23900000D02*
X158630000Y-23900000D01*
X165940000Y-31210000D02*
X165940000Y-36760000D01*
X46690000Y-38050000D02*
X46690000Y-36445000D01*
X46690000Y-36445000D02*
X46140000Y-35895000D01*
X56690000Y-65550000D02*
X56690000Y-63945000D01*
X56690000Y-63945000D02*
X56140000Y-63395000D01*
X67430000Y-38040000D02*
X67430000Y-36435000D01*
X67430000Y-36435000D02*
X66880000Y-35885000D01*
X75110000Y-63915000D02*
X74560000Y-63365000D01*
X75110000Y-65520000D02*
X75110000Y-63915000D01*
X83730000Y-36405000D02*
X83180000Y-35855000D01*
X83730000Y-38010000D02*
X83730000Y-36405000D01*
X93730000Y-65510000D02*
X93730000Y-63905000D01*
X93730000Y-63905000D02*
X93180000Y-63355000D01*
X104470000Y-36395000D02*
X103920000Y-35845000D01*
X104470000Y-38000000D02*
X104470000Y-36395000D01*
X112150000Y-63875000D02*
X111600000Y-63325000D01*
X112150000Y-65480000D02*
X112150000Y-63875000D01*
X120880000Y-37970000D02*
X120880000Y-36365000D01*
X120880000Y-36365000D02*
X120330000Y-35815000D01*
X130880000Y-63865000D02*
X130330000Y-63315000D01*
X130880000Y-65470000D02*
X130880000Y-63865000D01*
X141620000Y-36355000D02*
X141070000Y-35805000D01*
X141620000Y-37960000D02*
X141620000Y-36355000D01*
X149300000Y-65440000D02*
X149300000Y-63835000D01*
X149300000Y-63835000D02*
X148750000Y-63285000D01*
X157920000Y-36325000D02*
X157370000Y-35775000D01*
X157920000Y-37930000D02*
X157920000Y-36325000D01*
D25*
X5969000Y-67147000D02*
X5969000Y-67945000D01*
X11994000Y-27667000D02*
X9290000Y-27667000D01*
X9290000Y-27667000D02*
X8382000Y-28575000D01*
X6096000Y-38735000D02*
X5969000Y-38862000D01*
X5969000Y-38862000D02*
X5969000Y-67147000D01*
X20935000Y-78613000D02*
X23222000Y-80900000D01*
X16637000Y-78613000D02*
X20935000Y-78613000D01*
X5969000Y-67945000D02*
X16637000Y-78613000D01*
X7638699Y-65278000D02*
X7638699Y-65804699D01*
X23038000Y-77216000D02*
X26722000Y-80900000D01*
X19050000Y-77216000D02*
X23038000Y-77216000D01*
X7638699Y-65804699D02*
X19050000Y-77216000D01*
X7638699Y-38753699D02*
X7638699Y-65278000D01*
X7638699Y-65278000D02*
X7638699Y-65316699D01*
X10672000Y-28317000D02*
X8636000Y-30353000D01*
X8636000Y-30353000D02*
X8509000Y-30353000D01*
X7620000Y-38735000D02*
X7638699Y-38753699D01*
X11994000Y-28317000D02*
X10672000Y-28317000D01*
X194310000Y-62230000D02*
X196850000Y-62230000D01*
X188840000Y-65095000D02*
X191445000Y-65095000D01*
X191445000Y-65095000D02*
X194310000Y-62230000D01*
X194310000Y-24130000D02*
X196850000Y-24130000D01*
X188840000Y-26995000D02*
X191445000Y-26995000D01*
X191445000Y-26995000D02*
X194310000Y-24130000D01*
X191445000Y-47315000D02*
X194310000Y-44450000D01*
X188840000Y-47315000D02*
X191445000Y-47315000D01*
X194310000Y-44450000D02*
X196850000Y-44450000D01*
X28924000Y-69850000D02*
X33020000Y-69850000D01*
X166370002Y-87629998D02*
X176530000Y-77470000D01*
X176530000Y-77470000D02*
X176530000Y-66770000D01*
X42806420Y-87629998D02*
X146050000Y-87629998D01*
X36250002Y-81073580D02*
X42806420Y-87629998D01*
X36250002Y-75538580D02*
X36250002Y-81073580D01*
X34599997Y-73888575D02*
X36250002Y-75538580D01*
X34599997Y-71429997D02*
X34599997Y-73888575D01*
X33020000Y-69850000D02*
X34599997Y-71429997D01*
X146050000Y-87629998D02*
X166370002Y-87629998D01*
X28924000Y-69850000D02*
X28670000Y-70104000D01*
X35190049Y-62622049D02*
X35306000Y-62738000D01*
X28702000Y-67056000D02*
X28670000Y-67024000D01*
X28670000Y-67024000D02*
X28670000Y-66802000D01*
X35190049Y-60960000D02*
X35190049Y-62622049D01*
X173990000Y-3810000D02*
X173990000Y-19050000D01*
X175260000Y-2540000D02*
X173990000Y-3810000D01*
X175260000Y-790000D02*
X175260000Y-2540000D01*
X172720000Y-24860000D02*
X176530000Y-28670000D01*
X172720000Y-20320000D02*
X172720000Y-24860000D01*
X173990000Y-19050000D02*
X172720000Y-20320000D01*
X157994999Y-1555001D02*
X158760000Y-790000D01*
X158760000Y-790000D02*
X175260000Y-790000D01*
X175260000Y-790000D02*
X175440000Y-790000D01*
X155730000Y-1330010D02*
X156531008Y-1330010D01*
X156531008Y-1330010D02*
X156755999Y-1555001D01*
X156755999Y-1555001D02*
X157994999Y-1555001D01*
X140326400Y-1330010D02*
X155730000Y-1330010D01*
X122379980Y-1810020D02*
X137714608Y-1810020D01*
X137714608Y-1810020D02*
X137939599Y-2035011D01*
X137939599Y-2035011D02*
X139621400Y-2035010D01*
X139621400Y-2035010D02*
X140326400Y-1330010D01*
X118600000Y-2210030D02*
X118698208Y-2210030D01*
X118698208Y-2210030D02*
X118923199Y-2435021D01*
X118923199Y-2435021D02*
X121754979Y-2435021D01*
X121754979Y-2435021D02*
X122379980Y-1810020D01*
X103309970Y-2210030D02*
X118600000Y-2210030D01*
X99600000Y-2630020D02*
X99817202Y-2630020D01*
X99817202Y-2630020D02*
X100022212Y-2835030D01*
X100022212Y-2835030D02*
X102684970Y-2835030D01*
X102684970Y-2835030D02*
X103309970Y-2210030D01*
X84759210Y-2630020D02*
X99600000Y-2630020D01*
X81180050Y-3010050D02*
X81475040Y-3305040D01*
X84084190Y-3305040D02*
X84759210Y-2630020D01*
X81475040Y-3305040D02*
X84084190Y-3305040D01*
X67459950Y-3010050D02*
X81180050Y-3010050D01*
X61299940Y-3490060D02*
X61524927Y-3715047D01*
X61524927Y-3715047D02*
X66754953Y-3715047D01*
X66754953Y-3715047D02*
X67459950Y-3010050D01*
X46200000Y-3520000D02*
X61270000Y-3520000D01*
X61270000Y-3520000D02*
X61299940Y-3490060D01*
X45070020Y-12948440D02*
X45070020Y-4649980D01*
X45070020Y-4649980D02*
X46200000Y-3520000D01*
X35190049Y-60984951D02*
X35190049Y-60960000D01*
X35190049Y-60960000D02*
X35190049Y-22828411D01*
X35190049Y-22828411D02*
X45070020Y-12948440D01*
X35800000Y-75724976D02*
X34520512Y-74445488D01*
X176350000Y-88080000D02*
X176350000Y-80190000D01*
X42620000Y-88080000D02*
X176350000Y-88080000D01*
X35800000Y-81260000D02*
X42620000Y-88080000D01*
X35800000Y-75725000D02*
X35800000Y-81260000D01*
X176530000Y-48990000D02*
X179070000Y-51530000D01*
X179070000Y-77470000D02*
X179070000Y-51530000D01*
X176350000Y-80190000D02*
X179070000Y-77470000D01*
X35800000Y-75725000D02*
X35800000Y-75724976D01*
X33020000Y-73406000D02*
X28670000Y-73406000D01*
X34059488Y-74445488D02*
X33020000Y-73406000D01*
X34520512Y-74445488D02*
X34059488Y-74445488D01*
X29175000Y-17850000D02*
X35350000Y-17850000D01*
X44300000Y-26800000D02*
X44300000Y-30080000D01*
X44300000Y-30080000D02*
X46140000Y-31920000D01*
X46140000Y-31920000D02*
X46140000Y-32625000D01*
X45985000Y-32625000D02*
X46140000Y-32625000D01*
D26*
X49660000Y-35945000D02*
X49460000Y-35945000D01*
X49460000Y-35945000D02*
X46140000Y-32625000D01*
X49245000Y-38070000D02*
X49245000Y-36360000D01*
X49245000Y-36360000D02*
X49660000Y-35945000D01*
D25*
X188840000Y-65745000D02*
X190205000Y-65745000D01*
X191770000Y-67310000D02*
X196850000Y-67310000D01*
X190205000Y-65745000D02*
X191770000Y-67310000D01*
X188840000Y-27645000D02*
X190205000Y-27645000D01*
X191770000Y-29210000D02*
X196850000Y-29210000D01*
X190205000Y-27645000D02*
X191770000Y-29210000D01*
X190205000Y-47965000D02*
X191770000Y-49530000D01*
X191770000Y-49530000D02*
X196850000Y-49530000D01*
X188840000Y-47965000D02*
X190205000Y-47965000D01*
X184540000Y-64445000D02*
X182555000Y-64445000D01*
X176530000Y-62230000D02*
X176530000Y-62770000D01*
X182555000Y-64445000D02*
X180340000Y-62230000D01*
X184540000Y-26345000D02*
X178205000Y-26345000D01*
X178205000Y-26345000D02*
X176530000Y-24670000D01*
X184540000Y-46665000D02*
X182555000Y-46665000D01*
X180880000Y-44990000D02*
X176530000Y-44990000D01*
X182555000Y-46665000D02*
X180880000Y-44990000D01*
X6294000Y-30267000D02*
X1610000Y-30267000D01*
X24511000Y-17907000D02*
X24638000Y-17780000D01*
X1610000Y-30267000D02*
X1397000Y-30480000D01*
X24638000Y-17780000D02*
X24670000Y-17780000D01*
X24670000Y-17748000D02*
X24670000Y-17780000D01*
X6294000Y-30917000D02*
X2738000Y-30917000D01*
X24257000Y-21590000D02*
X24670000Y-21590000D01*
X1778000Y-31877000D02*
X1270000Y-31877000D01*
X2738000Y-30917000D02*
X1778000Y-31877000D01*
X6294000Y-31567000D02*
X3104000Y-31567000D01*
X24511000Y-25273000D02*
X24638000Y-25400000D01*
X1524000Y-33147000D02*
X1397000Y-33147000D01*
X3104000Y-31567000D02*
X1524000Y-33147000D01*
X24638000Y-25400000D02*
X24670000Y-25400000D01*
X6294000Y-32217000D02*
X10373000Y-32217000D01*
X24511000Y-29337000D02*
X24638000Y-29210000D01*
X10373000Y-32217000D02*
X10414000Y-32258000D01*
X24638000Y-29210000D02*
X24670000Y-29210000D01*
X6294000Y-32867000D02*
X8991000Y-32867000D01*
X24765000Y-33147000D02*
X24670000Y-33020000D01*
X8991000Y-32867000D02*
X9271000Y-33147000D01*
X6294000Y-33517000D02*
X8244000Y-33517000D01*
X24384000Y-36830000D02*
X24670000Y-36830000D01*
X8244000Y-33517000D02*
X8382000Y-33655000D01*
X24638000Y-40767000D02*
X24670000Y-40735000D01*
X24670000Y-40735000D02*
X24670000Y-40640000D01*
X6294000Y-34167000D02*
X2155000Y-34167000D01*
X2155000Y-34167000D02*
X1651000Y-34671000D01*
X6294000Y-34817000D02*
X4172000Y-34817000D01*
X24765000Y-44450000D02*
X24670000Y-44450000D01*
X4172000Y-34817000D02*
X2921000Y-36068000D01*
X23146000Y-45974000D02*
X24670000Y-44450000D01*
X11994000Y-30917000D02*
X19741000Y-30917000D01*
X26543000Y-71533000D02*
X24670000Y-73406000D01*
X26543000Y-31877000D02*
X26543000Y-71533000D01*
X25654000Y-30988000D02*
X26543000Y-31877000D01*
X19812000Y-30988000D02*
X25654000Y-30988000D01*
X19741000Y-30917000D02*
X19812000Y-30988000D01*
X11994000Y-31567000D02*
X17089000Y-31567000D01*
X24765000Y-66929000D02*
X24670000Y-66834000D01*
X22606000Y-37084000D02*
X22606000Y-42164000D01*
X17089000Y-31567000D02*
X22606000Y-37084000D01*
X24670000Y-66834000D02*
X24670000Y-66802000D01*
X11994000Y-32217000D02*
X16088000Y-32217000D01*
X24511000Y-70358000D02*
X24670000Y-70199000D01*
X19558000Y-40767000D02*
X19558000Y-41910000D01*
X18288000Y-39497000D02*
X19558000Y-40767000D01*
X22098000Y-38989000D02*
X21717000Y-39370000D01*
X22098000Y-38227000D02*
X22098000Y-38989000D01*
X16088000Y-32217000D02*
X22098000Y-38227000D01*
X24670000Y-70199000D02*
X24670000Y-70104000D01*
X11994000Y-32867000D02*
X13944000Y-32867000D01*
X19558000Y-63500000D02*
X24670000Y-63500000D01*
X19304000Y-63246000D02*
X19558000Y-63500000D01*
X21336000Y-40259000D02*
X21336000Y-41656000D01*
X13944000Y-32867000D02*
X21336000Y-40259000D01*
X11994000Y-33517000D02*
X10171000Y-33517000D01*
X19050000Y-54070000D02*
X24670000Y-59690000D01*
X19050000Y-49657000D02*
X19050000Y-54070000D01*
X8890000Y-39497000D02*
X19050000Y-49657000D01*
X8890000Y-34798000D02*
X8890000Y-39497000D01*
X10171000Y-33517000D02*
X8890000Y-34798000D01*
X24384000Y-59944000D02*
X24638000Y-59690000D01*
X24638000Y-59690000D02*
X24670000Y-59690000D01*
X11994000Y-34167000D02*
X10537000Y-34167000D01*
X20955000Y-52165000D02*
X24670000Y-55880000D01*
X20955000Y-50038000D02*
X20955000Y-52165000D01*
X10033000Y-39116000D02*
X20955000Y-50038000D01*
X10033000Y-34671000D02*
X10033000Y-39116000D01*
X10537000Y-34167000D02*
X10033000Y-34671000D01*
X24384000Y-56134000D02*
X24638000Y-55880000D01*
X24638000Y-55880000D02*
X24670000Y-55880000D01*
X24384000Y-55880000D02*
X24670000Y-55880000D01*
X11994000Y-34817000D02*
X11284000Y-34817000D01*
X10668000Y-38068000D02*
X24670000Y-52070000D01*
X10668000Y-35433000D02*
X10668000Y-38068000D01*
X11284000Y-34817000D02*
X10668000Y-35433000D01*
X24384000Y-52324000D02*
X24638000Y-52070000D01*
X24638000Y-52070000D02*
X24670000Y-52070000D01*
X24638000Y-52070000D02*
X24670000Y-52070000D01*
X11994000Y-35467000D02*
X11994000Y-35584000D01*
X11994000Y-35584000D02*
X24670000Y-48260000D01*
X24892000Y-48260000D02*
X24670000Y-48260000D01*
X2790000Y-28317000D02*
X6294000Y-28317000D01*
X1016000Y-26543000D02*
X2790000Y-28317000D01*
X6294000Y-28967000D02*
X2043000Y-28967000D01*
X2043000Y-28967000D02*
X1651000Y-28575000D01*
X6294000Y-29617000D02*
X1296000Y-29617000D01*
X1296000Y-29617000D02*
X1016000Y-29337000D01*
X6294000Y-27667000D02*
X7258000Y-27667000D01*
X9271000Y-25654000D02*
X9271000Y-18288000D01*
X7258000Y-27667000D02*
X9271000Y-25654000D01*
X6294000Y-27017000D02*
X6294000Y-17978000D01*
X6294000Y-17978000D02*
X4572000Y-16256000D01*
X14224000Y-22955000D02*
X15970000Y-22955000D01*
X15961000Y-30267000D02*
X11994000Y-30267000D01*
X17018000Y-29210000D02*
X15961000Y-30267000D01*
X17018000Y-24003000D02*
X17018000Y-29210000D01*
X15970000Y-22955000D02*
X17018000Y-24003000D01*
X185186000Y-69342000D02*
X185186000Y-66391000D01*
X185186000Y-66391000D02*
X184540000Y-65745000D01*
X184540000Y-65745000D02*
X185715000Y-65745000D01*
X190100000Y-56280000D02*
X207900000Y-56280000D01*
X186690000Y-59690000D02*
X190100000Y-56280000D01*
X186690000Y-64770000D02*
X186690000Y-59690000D01*
X185715000Y-65745000D02*
X186690000Y-64770000D01*
X184424000Y-32385000D02*
X184424000Y-27761000D01*
X184424000Y-27761000D02*
X184540000Y-27645000D01*
X207900000Y-33420000D02*
X190315000Y-33420000D01*
X190315000Y-33420000D02*
X184540000Y-27645000D01*
X184043000Y-52705000D02*
X184043000Y-48462000D01*
X184043000Y-48462000D02*
X184540000Y-47965000D01*
X184540000Y-47965000D02*
X185125000Y-47965000D01*
X185125000Y-47965000D02*
X190500000Y-53340000D01*
X190500000Y-53340000D02*
X196850000Y-53340000D01*
X196850000Y-53340000D02*
X205340000Y-44850000D01*
X205340000Y-44850000D02*
X207900000Y-44850000D01*
M02*
