G04 #@! TF.FileFunction,Paste,Top*
%FSLAX46Y46*%
G04 Gerber Fmt 4.6, Leading zero omitted, Abs format (unit mm)*
G04 Created by KiCad (PCBNEW 4.0.6) date Sunday, July 09, 2017 'PMt' 04:39:34 PM*
%MOMM*%
%LPD*%
G01*
G04 APERTURE LIST*
%ADD10C,0.100000*%
%ADD11R,1.100000X0.400000*%
%ADD12R,2.000000X3.800000*%
%ADD13R,2.000000X1.500000*%
%ADD14R,1.700000X2.000000*%
%ADD15R,0.800000X1.900000*%
%ADD16R,1.220000X0.910000*%
%ADD17R,2.700000X3.200000*%
%ADD18R,2.000000X1.700000*%
%ADD19R,1.600000X2.000000*%
%ADD20R,0.900000X0.800000*%
%ADD21R,1.300000X1.500000*%
%ADD22R,1.500000X1.300000*%
%ADD23R,0.890000X0.305000*%
%ADD24R,0.504000X0.564000*%
G04 APERTURE END LIST*
D10*
D11*
X7310000Y-50385000D03*
X7310000Y-51035000D03*
X7310000Y-51685000D03*
X7310000Y-52335000D03*
X7310000Y-52985000D03*
X7310000Y-53635000D03*
X7310000Y-54285000D03*
X7310000Y-54935000D03*
X7310000Y-55585000D03*
X7310000Y-56235000D03*
X7310000Y-56885000D03*
X7310000Y-57535000D03*
X7310000Y-58185000D03*
X7310000Y-58835000D03*
X13010000Y-58835000D03*
X13010000Y-58185000D03*
X13010000Y-57535000D03*
X13010000Y-56885000D03*
X13010000Y-56235000D03*
X13010000Y-55585000D03*
X13010000Y-54935000D03*
X13010000Y-54285000D03*
X13010000Y-53635000D03*
X13010000Y-52985000D03*
X13010000Y-52335000D03*
X13010000Y-51685000D03*
X13010000Y-51035000D03*
X13010000Y-50385000D03*
D12*
X184252000Y-27940000D03*
D13*
X177952000Y-27940000D03*
X177952000Y-30240000D03*
X177952000Y-25640000D03*
D14*
X157920000Y-37930000D03*
X157920000Y-41930000D03*
D15*
X162875000Y-35250000D03*
X164775000Y-35250000D03*
X163825000Y-32250000D03*
D16*
X160890000Y-35825000D03*
X160890000Y-32555000D03*
D14*
X160475000Y-41950000D03*
X160475000Y-37950000D03*
X163075000Y-37950000D03*
X163075000Y-41950000D03*
D16*
X157370000Y-35775000D03*
X157370000Y-32505000D03*
D14*
X165630000Y-41940000D03*
X165630000Y-37940000D03*
X141620000Y-37960000D03*
X141620000Y-41960000D03*
D16*
X141070000Y-35805000D03*
X141070000Y-32535000D03*
D15*
X146575000Y-35280000D03*
X148475000Y-35280000D03*
X147525000Y-32280000D03*
D16*
X144590000Y-35855000D03*
X144590000Y-32585000D03*
D15*
X125835000Y-35290000D03*
X127735000Y-35290000D03*
X126785000Y-32290000D03*
D16*
X123850000Y-35865000D03*
X123850000Y-32595000D03*
X120330000Y-35815000D03*
X120330000Y-32545000D03*
D14*
X123435000Y-41990000D03*
X123435000Y-37990000D03*
X126035000Y-37990000D03*
X126035000Y-41990000D03*
X120880000Y-37970000D03*
X120880000Y-41970000D03*
X146775000Y-37980000D03*
X146775000Y-41980000D03*
X144175000Y-41980000D03*
X144175000Y-37980000D03*
X128590000Y-41980000D03*
X128590000Y-37980000D03*
X149330000Y-41970000D03*
X149330000Y-37970000D03*
D15*
X154255000Y-62760000D03*
X156155000Y-62760000D03*
X155205000Y-59760000D03*
D16*
X152270000Y-63335000D03*
X152270000Y-60065000D03*
X148750000Y-63285000D03*
X148750000Y-60015000D03*
D14*
X130880000Y-65470000D03*
X130880000Y-69470000D03*
X133435000Y-69490000D03*
X133435000Y-65490000D03*
X136035000Y-65490000D03*
X136035000Y-69490000D03*
X138590000Y-69480000D03*
X138590000Y-65480000D03*
D15*
X135835000Y-62790000D03*
X137735000Y-62790000D03*
X136785000Y-59790000D03*
D16*
X133850000Y-63365000D03*
X133850000Y-60095000D03*
X130330000Y-63315000D03*
X130330000Y-60045000D03*
D14*
X154455000Y-65460000D03*
X154455000Y-69460000D03*
X151855000Y-69460000D03*
X151855000Y-65460000D03*
X149300000Y-65440000D03*
X149300000Y-69440000D03*
X157010000Y-69450000D03*
X157010000Y-65450000D03*
D16*
X103920000Y-35845000D03*
X103920000Y-32575000D03*
D14*
X104470000Y-38000000D03*
X104470000Y-42000000D03*
D15*
X109425000Y-35320000D03*
X111325000Y-35320000D03*
X110375000Y-32320000D03*
D16*
X107440000Y-35895000D03*
X107440000Y-32625000D03*
X83180000Y-35855000D03*
X83180000Y-32585000D03*
D15*
X88685000Y-35330000D03*
X90585000Y-35330000D03*
X89635000Y-32330000D03*
D16*
X86700000Y-35905000D03*
X86700000Y-32635000D03*
X111600000Y-63325000D03*
X111600000Y-60055000D03*
D14*
X119860000Y-69490000D03*
X119860000Y-65490000D03*
D15*
X117105000Y-62800000D03*
X119005000Y-62800000D03*
X118055000Y-59800000D03*
D16*
X115120000Y-63375000D03*
X115120000Y-60105000D03*
D14*
X112150000Y-65480000D03*
X112150000Y-69480000D03*
X114705000Y-69500000D03*
X114705000Y-65500000D03*
X117305000Y-65500000D03*
X117305000Y-69500000D03*
X101440000Y-69520000D03*
X101440000Y-65520000D03*
X98885000Y-65530000D03*
X98885000Y-69530000D03*
X93730000Y-65510000D03*
X93730000Y-69510000D03*
X96285000Y-69530000D03*
X96285000Y-65530000D03*
D16*
X93180000Y-63355000D03*
X93180000Y-60085000D03*
D15*
X98685000Y-62830000D03*
X100585000Y-62830000D03*
X99635000Y-59830000D03*
D16*
X96700000Y-63405000D03*
X96700000Y-60135000D03*
D14*
X112180000Y-42010000D03*
X112180000Y-38010000D03*
X109625000Y-38020000D03*
X109625000Y-42020000D03*
X107025000Y-42020000D03*
X107025000Y-38020000D03*
X83730000Y-38010000D03*
X83730000Y-42010000D03*
X91440000Y-42020000D03*
X91440000Y-38020000D03*
X86285000Y-42030000D03*
X86285000Y-38030000D03*
X88885000Y-38030000D03*
X88885000Y-42030000D03*
D16*
X74560000Y-63365000D03*
X74560000Y-60095000D03*
D15*
X80065000Y-62840000D03*
X81965000Y-62840000D03*
X81015000Y-59840000D03*
D16*
X78080000Y-63415000D03*
X78080000Y-60145000D03*
D14*
X75110000Y-65520000D03*
X75110000Y-69520000D03*
X77665000Y-69540000D03*
X77665000Y-65540000D03*
X80265000Y-65540000D03*
X80265000Y-69540000D03*
X82820000Y-69530000D03*
X82820000Y-65530000D03*
X72585000Y-38060000D03*
X72585000Y-42060000D03*
X67430000Y-38040000D03*
X67430000Y-42040000D03*
X69985000Y-42060000D03*
X69985000Y-38060000D03*
X75140000Y-42050000D03*
X75140000Y-38050000D03*
D15*
X72385000Y-35360000D03*
X74285000Y-35360000D03*
X73335000Y-32360000D03*
D16*
X70400000Y-35935000D03*
X70400000Y-32665000D03*
X66880000Y-35885000D03*
X66880000Y-32615000D03*
D14*
X61845000Y-65570000D03*
X61845000Y-69570000D03*
X56690000Y-65550000D03*
X56690000Y-69550000D03*
X59245000Y-69570000D03*
X59245000Y-65570000D03*
X64400000Y-69560000D03*
X64400000Y-65560000D03*
D15*
X61645000Y-62870000D03*
X63545000Y-62870000D03*
X62595000Y-59870000D03*
D16*
X59660000Y-63445000D03*
X59660000Y-60175000D03*
X56140000Y-63395000D03*
X56140000Y-60125000D03*
X49660000Y-35945000D03*
X49660000Y-32675000D03*
D17*
X58000000Y-14100000D03*
X65900000Y-14100000D03*
X67375000Y-18150000D03*
X75275000Y-18150000D03*
X76700000Y-14125000D03*
X84600000Y-14125000D03*
X85975000Y-18175000D03*
X93875000Y-18175000D03*
X95250000Y-14150000D03*
X103150000Y-14150000D03*
X104525000Y-18175000D03*
X112425000Y-18175000D03*
X113800000Y-14150000D03*
X121700000Y-14150000D03*
X123100000Y-18150000D03*
X131000000Y-18150000D03*
X132325000Y-14125000D03*
X140225000Y-14125000D03*
X141550000Y-18150000D03*
X149450000Y-18150000D03*
X150825000Y-14150000D03*
X158725000Y-14150000D03*
X160100000Y-18150000D03*
X168000000Y-18150000D03*
D15*
X51645000Y-35370000D03*
X53545000Y-35370000D03*
X52595000Y-32370000D03*
D14*
X49245000Y-42070000D03*
X49245000Y-38070000D03*
X51845000Y-38070000D03*
X51845000Y-42070000D03*
X54400000Y-42060000D03*
X54400000Y-38060000D03*
D16*
X46140000Y-35895000D03*
X46140000Y-32625000D03*
D14*
X46690000Y-38050000D03*
X46690000Y-42050000D03*
D18*
X24670000Y-17780000D03*
X28670000Y-17780000D03*
X24670000Y-21590000D03*
X28670000Y-21590000D03*
X24670000Y-25400000D03*
X28670000Y-25400000D03*
X24670000Y-29210000D03*
X28670000Y-29210000D03*
X24670000Y-33020000D03*
X28670000Y-33020000D03*
X24670000Y-36830000D03*
X28670000Y-36830000D03*
X24670000Y-40640000D03*
X28670000Y-40640000D03*
X24670000Y-44450000D03*
X28670000Y-44450000D03*
X28924000Y-48006000D03*
X24924000Y-48006000D03*
X28670000Y-52070000D03*
X24670000Y-52070000D03*
X28670000Y-55626000D03*
X24670000Y-55626000D03*
X28670000Y-59182000D03*
X24670000Y-59182000D03*
X28670000Y-62992000D03*
X24670000Y-62992000D03*
X28670000Y-74168000D03*
X24670000Y-74168000D03*
X28670000Y-66802000D03*
X24670000Y-66802000D03*
X28670000Y-70612000D03*
X24670000Y-70612000D03*
X28670000Y-13970000D03*
X24670000Y-13970000D03*
D19*
X192024000Y-45434000D03*
X192024000Y-41434000D03*
X189484000Y-24924000D03*
X189484000Y-28924000D03*
X191008000Y-61436000D03*
X191008000Y-57436000D03*
D12*
X182220000Y-50038000D03*
D13*
X175920000Y-50038000D03*
X175920000Y-52338000D03*
X175920000Y-47738000D03*
D20*
X170434000Y-44958000D03*
X170434000Y-43058000D03*
X168434000Y-44008000D03*
X174498000Y-26924000D03*
X174498000Y-25024000D03*
X172498000Y-25974000D03*
D12*
X182728000Y-73152000D03*
D13*
X176428000Y-73152000D03*
X176428000Y-75452000D03*
X176428000Y-70852000D03*
D20*
X171180000Y-68260000D03*
X171180000Y-66360000D03*
X169180000Y-67310000D03*
D21*
X188214000Y-49610000D03*
X188214000Y-46910000D03*
D22*
X186864000Y-21844000D03*
X189564000Y-21844000D03*
D21*
X186944000Y-67216000D03*
X186944000Y-64516000D03*
D22*
X175340000Y-43434000D03*
X172640000Y-43434000D03*
X182452000Y-20066000D03*
X179752000Y-20066000D03*
X177372000Y-65024000D03*
X174672000Y-65024000D03*
D18*
X185642000Y-34544000D03*
X181642000Y-34544000D03*
X188690000Y-12954000D03*
X184690000Y-12954000D03*
D22*
X188294000Y-16764000D03*
X185594000Y-16764000D03*
X184992000Y-39624000D03*
X182292000Y-39624000D03*
D18*
X180562000Y-56642000D03*
X176562000Y-56642000D03*
D22*
X179912000Y-60706000D03*
X177212000Y-60706000D03*
D23*
X174083000Y-38408000D03*
X174083000Y-38908000D03*
X174083000Y-39408000D03*
X174083000Y-39908000D03*
X174083000Y-40408000D03*
X178293000Y-40408000D03*
X178293000Y-39908000D03*
X178293000Y-39408000D03*
X178293000Y-38908000D03*
X178293000Y-38408000D03*
D24*
X176608000Y-39878000D03*
X176608000Y-38938000D03*
X175768000Y-39878000D03*
X175768000Y-38938000D03*
D23*
X176877000Y-15802000D03*
X176877000Y-16302000D03*
X176877000Y-16802000D03*
X176877000Y-17302000D03*
X176877000Y-17802000D03*
X181087000Y-17802000D03*
X181087000Y-17302000D03*
X181087000Y-16802000D03*
X181087000Y-16302000D03*
X181087000Y-15802000D03*
D24*
X179402000Y-17272000D03*
X179402000Y-16332000D03*
X178562000Y-17272000D03*
X178562000Y-16332000D03*
D23*
X169091000Y-59668000D03*
X169091000Y-60168000D03*
X169091000Y-60668000D03*
X169091000Y-61168000D03*
X169091000Y-61668000D03*
X173301000Y-61668000D03*
X173301000Y-61168000D03*
X173301000Y-60668000D03*
X173301000Y-60168000D03*
X173301000Y-59668000D03*
D24*
X171616000Y-61138000D03*
X171616000Y-60198000D03*
X170776000Y-61138000D03*
X170776000Y-60198000D03*
M02*
