G04 #@! TF.FileFunction,Paste,Top*
%FSLAX46Y46*%
G04 Gerber Fmt 4.6, Leading zero omitted, Abs format (unit mm)*
G04 Created by KiCad (PCBNEW 4.0.4-stable) date Wednesday, January 04, 2017 'PMt' 09:21:10 PM*
%MOMM*%
%LPD*%
G01*
G04 APERTURE LIST*
%ADD10C,0.100000*%
%ADD11R,1.220000X0.910000*%
%ADD12R,0.800000X1.900000*%
%ADD13R,1.700000X2.000000*%
%ADD14R,2.700000X3.200000*%
%ADD15R,2.000000X1.700000*%
G04 APERTURE END LIST*
D10*
D11*
X154670000Y-63275000D03*
X154670000Y-60005000D03*
D12*
X160175000Y-62750000D03*
X162075000Y-62750000D03*
X161125000Y-59750000D03*
D11*
X158190000Y-63325000D03*
X158190000Y-60055000D03*
D13*
X173640000Y-65400000D03*
X173640000Y-69400000D03*
D11*
X176610000Y-63295000D03*
X176610000Y-60025000D03*
X173090000Y-63245000D03*
X173090000Y-59975000D03*
D13*
X181350000Y-69410000D03*
X181350000Y-65410000D03*
D12*
X178595000Y-62720000D03*
X180495000Y-62720000D03*
X179545000Y-59720000D03*
D13*
X176195000Y-69420000D03*
X176195000Y-65420000D03*
X178795000Y-65420000D03*
X178795000Y-69420000D03*
X145220000Y-37930000D03*
X145220000Y-41930000D03*
D12*
X150175000Y-35250000D03*
X152075000Y-35250000D03*
X151125000Y-32250000D03*
D11*
X148190000Y-35825000D03*
X148190000Y-32555000D03*
D13*
X147775000Y-41950000D03*
X147775000Y-37950000D03*
X150375000Y-37950000D03*
X150375000Y-41950000D03*
D11*
X144670000Y-35775000D03*
X144670000Y-32505000D03*
D13*
X152930000Y-41940000D03*
X152930000Y-37940000D03*
D12*
X170915000Y-35240000D03*
X172815000Y-35240000D03*
X171865000Y-32240000D03*
D13*
X173670000Y-41930000D03*
X173670000Y-37930000D03*
X171115000Y-37940000D03*
X171115000Y-41940000D03*
D11*
X165410000Y-35765000D03*
X165410000Y-32495000D03*
D13*
X165960000Y-37920000D03*
X165960000Y-41920000D03*
X168515000Y-41940000D03*
X168515000Y-37940000D03*
D11*
X168930000Y-35815000D03*
X168930000Y-32545000D03*
D13*
X155220000Y-65430000D03*
X155220000Y-69430000D03*
X157775000Y-69450000D03*
X157775000Y-65450000D03*
X162930000Y-69440000D03*
X162930000Y-65440000D03*
X160375000Y-65450000D03*
X160375000Y-69450000D03*
X128920000Y-37960000D03*
X128920000Y-41960000D03*
D11*
X128370000Y-35805000D03*
X128370000Y-32535000D03*
D12*
X133875000Y-35280000D03*
X135775000Y-35280000D03*
X134825000Y-32280000D03*
D11*
X131890000Y-35855000D03*
X131890000Y-32585000D03*
D12*
X113135000Y-35290000D03*
X115035000Y-35290000D03*
X114085000Y-32290000D03*
D11*
X111150000Y-35865000D03*
X111150000Y-32595000D03*
X107630000Y-35815000D03*
X107630000Y-32545000D03*
D13*
X110735000Y-41990000D03*
X110735000Y-37990000D03*
X113335000Y-37990000D03*
X113335000Y-41990000D03*
X108180000Y-37970000D03*
X108180000Y-41970000D03*
X134075000Y-37980000D03*
X134075000Y-41980000D03*
X131475000Y-41980000D03*
X131475000Y-37980000D03*
X115890000Y-41980000D03*
X115890000Y-37980000D03*
X136630000Y-41970000D03*
X136630000Y-37970000D03*
D12*
X141555000Y-62760000D03*
X143455000Y-62760000D03*
X142505000Y-59760000D03*
D11*
X139570000Y-63335000D03*
X139570000Y-60065000D03*
X136050000Y-63285000D03*
X136050000Y-60015000D03*
D13*
X118180000Y-65470000D03*
X118180000Y-69470000D03*
X120735000Y-69490000D03*
X120735000Y-65490000D03*
X123335000Y-65490000D03*
X123335000Y-69490000D03*
X125890000Y-69480000D03*
X125890000Y-65480000D03*
D12*
X123135000Y-62790000D03*
X125035000Y-62790000D03*
X124085000Y-59790000D03*
D11*
X121150000Y-63365000D03*
X121150000Y-60095000D03*
X117630000Y-63315000D03*
X117630000Y-60045000D03*
D13*
X141755000Y-65460000D03*
X141755000Y-69460000D03*
X139155000Y-69460000D03*
X139155000Y-65460000D03*
X136600000Y-65440000D03*
X136600000Y-69440000D03*
X144310000Y-69450000D03*
X144310000Y-65450000D03*
D11*
X91220000Y-35845000D03*
X91220000Y-32575000D03*
D13*
X91770000Y-38000000D03*
X91770000Y-42000000D03*
D12*
X96725000Y-35320000D03*
X98625000Y-35320000D03*
X97675000Y-32320000D03*
D11*
X94740000Y-35895000D03*
X94740000Y-32625000D03*
X70480000Y-35855000D03*
X70480000Y-32585000D03*
D12*
X75985000Y-35330000D03*
X77885000Y-35330000D03*
X76935000Y-32330000D03*
D11*
X74000000Y-35905000D03*
X74000000Y-32635000D03*
X98900000Y-63325000D03*
X98900000Y-60055000D03*
D13*
X107160000Y-69490000D03*
X107160000Y-65490000D03*
D12*
X104405000Y-62800000D03*
X106305000Y-62800000D03*
X105355000Y-59800000D03*
D11*
X102420000Y-63375000D03*
X102420000Y-60105000D03*
D13*
X99450000Y-65480000D03*
X99450000Y-69480000D03*
X102005000Y-69500000D03*
X102005000Y-65500000D03*
X104605000Y-65500000D03*
X104605000Y-69500000D03*
X88740000Y-69520000D03*
X88740000Y-65520000D03*
X86185000Y-65530000D03*
X86185000Y-69530000D03*
X81030000Y-65510000D03*
X81030000Y-69510000D03*
X83585000Y-69530000D03*
X83585000Y-65530000D03*
D11*
X80480000Y-63355000D03*
X80480000Y-60085000D03*
D12*
X85985000Y-62830000D03*
X87885000Y-62830000D03*
X86935000Y-59830000D03*
D11*
X84000000Y-63405000D03*
X84000000Y-60135000D03*
D13*
X99480000Y-42010000D03*
X99480000Y-38010000D03*
X96925000Y-38020000D03*
X96925000Y-42020000D03*
X94325000Y-42020000D03*
X94325000Y-38020000D03*
X71030000Y-38010000D03*
X71030000Y-42010000D03*
X78740000Y-42020000D03*
X78740000Y-38020000D03*
X73585000Y-42030000D03*
X73585000Y-38030000D03*
X76185000Y-38030000D03*
X76185000Y-42030000D03*
D11*
X61860000Y-63365000D03*
X61860000Y-60095000D03*
D12*
X67365000Y-62840000D03*
X69265000Y-62840000D03*
X68315000Y-59840000D03*
D11*
X65380000Y-63415000D03*
X65380000Y-60145000D03*
D13*
X62410000Y-65520000D03*
X62410000Y-69520000D03*
X64965000Y-69540000D03*
X64965000Y-65540000D03*
X67565000Y-65540000D03*
X67565000Y-69540000D03*
X70120000Y-69530000D03*
X70120000Y-65530000D03*
X59885000Y-38060000D03*
X59885000Y-42060000D03*
X54730000Y-38040000D03*
X54730000Y-42040000D03*
X57285000Y-42060000D03*
X57285000Y-38060000D03*
X62440000Y-42050000D03*
X62440000Y-38050000D03*
D12*
X59685000Y-35360000D03*
X61585000Y-35360000D03*
X60635000Y-32360000D03*
D11*
X57700000Y-35935000D03*
X57700000Y-32665000D03*
X54180000Y-35885000D03*
X54180000Y-32615000D03*
D13*
X49145000Y-65570000D03*
X49145000Y-69570000D03*
X43990000Y-65550000D03*
X43990000Y-69550000D03*
X46545000Y-69570000D03*
X46545000Y-65570000D03*
X51700000Y-69560000D03*
X51700000Y-65560000D03*
D12*
X48945000Y-62870000D03*
X50845000Y-62870000D03*
X49895000Y-59870000D03*
D11*
X46960000Y-63445000D03*
X46960000Y-60175000D03*
X43440000Y-63395000D03*
X43440000Y-60125000D03*
X36960000Y-35945000D03*
X36960000Y-32675000D03*
D14*
X45300000Y-14100000D03*
X53200000Y-14100000D03*
X54675000Y-18150000D03*
X62575000Y-18150000D03*
X64000000Y-14125000D03*
X71900000Y-14125000D03*
X73275000Y-18175000D03*
X81175000Y-18175000D03*
X82550000Y-14150000D03*
X90450000Y-14150000D03*
X91825000Y-18175000D03*
X99725000Y-18175000D03*
X101100000Y-14150000D03*
X109000000Y-14150000D03*
X110400000Y-18150000D03*
X118300000Y-18150000D03*
X119625000Y-14125000D03*
X127525000Y-14125000D03*
X128850000Y-18150000D03*
X136750000Y-18150000D03*
X138125000Y-14150000D03*
X146025000Y-14150000D03*
X147400000Y-18150000D03*
X155300000Y-18150000D03*
X164525000Y-14100000D03*
X156625000Y-14100000D03*
X173800000Y-18100000D03*
X165900000Y-18100000D03*
X183075000Y-14075000D03*
X175175000Y-14075000D03*
D12*
X38945000Y-35370000D03*
X40845000Y-35370000D03*
X39895000Y-32370000D03*
D15*
X16475000Y-17850000D03*
X12475000Y-17850000D03*
X16500000Y-21350000D03*
X12500000Y-21350000D03*
X16500000Y-24850000D03*
X12500000Y-24850000D03*
X16475000Y-28350000D03*
X12475000Y-28350000D03*
X16500000Y-31850000D03*
X12500000Y-31850000D03*
X16475000Y-35350000D03*
X12475000Y-35350000D03*
X16475000Y-38850000D03*
X12475000Y-38850000D03*
X16500000Y-42350000D03*
X12500000Y-42350000D03*
X16500000Y-45850000D03*
X12500000Y-45850000D03*
X16500000Y-49350000D03*
X12500000Y-49350000D03*
X16500000Y-52850000D03*
X12500000Y-52850000D03*
X16500000Y-56350000D03*
X12500000Y-56350000D03*
X16475000Y-59850000D03*
X12475000Y-59850000D03*
X16475000Y-63350000D03*
X12475000Y-63350000D03*
X16475000Y-66850000D03*
X12475000Y-66850000D03*
X16475000Y-70350000D03*
X12475000Y-70350000D03*
D13*
X36545000Y-42070000D03*
X36545000Y-38070000D03*
X39145000Y-38070000D03*
X39145000Y-42070000D03*
X41700000Y-42060000D03*
X41700000Y-38060000D03*
D11*
X33440000Y-35895000D03*
X33440000Y-32625000D03*
D13*
X33990000Y-38050000D03*
X33990000Y-42050000D03*
M02*
