%FSLAX45Y45*%
G04 Gerber Fmt 4.5, Leading zero omitted, Abs format (unit mm)*
G04 Created by KiCad (PCBNEW 4.0.4-stable) date 07/11/17 17:44:12*
%MOMM*%
%LPD*%
G01*
G04 APERTURE LIST*
%ADD10C,0.127000*%
%ADD11C,0.150000*%
%ADD12C,0.200000*%
%ADD13C,0.300000*%
G04 APERTURE END LIST*
D10*
D11*
X20929600Y0D02*
X20929600Y-8890000D01*
X0Y-8890000D02*
X20929600Y-8890000D01*
X0Y0D02*
X0Y-8890000D01*
X0Y0D02*
X20929600Y0D01*
D12*
X284800Y-5433000D02*
X324800Y-5473000D01*
X324800Y-5433000D02*
X284800Y-5473000D01*
X284800Y-5703000D02*
X324800Y-5743000D01*
X324800Y-5703000D02*
X284800Y-5743000D01*
X361000Y-1631000D02*
X401000Y-1671000D01*
X401000Y-1631000D02*
X361000Y-1671000D01*
X488000Y-5618800D02*
X528000Y-5658800D01*
X528000Y-5618800D02*
X488000Y-5658800D01*
X505400Y-7193600D02*
X545400Y-7233600D01*
X545400Y-7193600D02*
X505400Y-7233600D01*
X538800Y-4427000D02*
X578800Y-4467000D01*
X578800Y-4427000D02*
X538800Y-4467000D01*
X538800Y-4677000D02*
X578800Y-4717000D01*
X578800Y-4677000D02*
X538800Y-4717000D01*
X589600Y-5872800D02*
X629600Y-5912800D01*
X629600Y-5872800D02*
X589600Y-5912800D01*
X843600Y-6025200D02*
X883600Y-6065200D01*
X883600Y-6025200D02*
X843600Y-6065200D01*
X923150Y-5749150D02*
X963150Y-5789150D01*
X963150Y-5749150D02*
X923150Y-5789150D01*
X996000Y-5618800D02*
X1036000Y-5658800D01*
X1036000Y-5618800D02*
X996000Y-5658800D01*
X1097600Y-5085400D02*
X1137600Y-5125400D01*
X1137600Y-5085400D02*
X1097600Y-5125400D01*
X1097600Y-5872800D02*
X1137600Y-5912800D01*
X1137600Y-5872800D02*
X1097600Y-5912800D01*
X1300800Y-4907600D02*
X1340800Y-4947600D01*
X1340800Y-4907600D02*
X1300800Y-4947600D01*
X1402400Y-4856800D02*
X1442400Y-4896800D01*
X1442400Y-4856800D02*
X1402400Y-4896800D01*
X1427800Y-6304600D02*
X1467800Y-6344600D01*
X1467800Y-6304600D02*
X1427800Y-6344600D01*
X1453200Y-5720400D02*
X1493200Y-5760400D01*
X1493200Y-5720400D02*
X1453200Y-5760400D01*
X1504000Y-4856800D02*
X1544000Y-4896800D01*
X1544000Y-4856800D02*
X1504000Y-4896800D01*
X1554800Y-5212400D02*
X1594800Y-5252400D01*
X1594800Y-5212400D02*
X1554800Y-5252400D01*
X1605600Y-4856800D02*
X1645600Y-4896800D01*
X1645600Y-4856800D02*
X1605600Y-4896800D01*
X1681800Y-4983800D02*
X1721800Y-5023800D01*
X1721800Y-4983800D02*
X1681800Y-5023800D01*
X1758000Y-4780600D02*
X1798000Y-4820600D01*
X1798000Y-4780600D02*
X1758000Y-4820600D01*
X1758000Y-4780600D02*
X1798000Y-4820600D01*
X1798000Y-4780600D02*
X1758000Y-4820600D01*
X1859600Y-4501200D02*
X1899600Y-4541200D01*
X1899600Y-4501200D02*
X1859600Y-4541200D01*
X1910400Y-6660200D02*
X1950400Y-6700200D01*
X1950400Y-6660200D02*
X1910400Y-6700200D01*
X1913800Y-5469800D02*
X1953800Y-5509800D01*
X1953800Y-5469800D02*
X1913800Y-5509800D01*
X1965135Y-5354825D02*
X2005135Y-5394825D01*
X2005135Y-5354825D02*
X1965135Y-5394825D01*
X1986600Y-6101400D02*
X2026600Y-6141400D01*
X2026600Y-6101400D02*
X1986600Y-6141400D01*
X2062800Y-5466400D02*
X2102800Y-5506400D01*
X2102800Y-5466400D02*
X2062800Y-5506400D01*
X2062800Y-6812600D02*
X2102800Y-6852600D01*
X2102800Y-6812600D02*
X2062800Y-6852600D01*
X2447000Y-1377000D02*
X2487000Y-1417000D01*
X2487000Y-1377000D02*
X2447000Y-1417000D01*
X2447000Y-5187000D02*
X2487000Y-5227000D01*
X2487000Y-5187000D02*
X2447000Y-5227000D01*
X2447000Y-5542600D02*
X2487000Y-5582600D01*
X2487000Y-5542600D02*
X2447000Y-5582600D01*
X2447000Y-5898200D02*
X2487000Y-5938200D01*
X2487000Y-5898200D02*
X2447000Y-5938200D01*
X2472400Y-4780600D02*
X2512400Y-4820600D01*
X2512400Y-4780600D02*
X2472400Y-4820600D01*
X2847000Y-1377000D02*
X2887000Y-1417000D01*
X2887000Y-1377000D02*
X2847000Y-1417000D01*
X2847000Y-1758000D02*
X2887000Y-1798000D01*
X2887000Y-1758000D02*
X2847000Y-1798000D01*
X2850200Y-6330000D02*
X2890200Y-6370000D01*
X2890200Y-6330000D02*
X2850200Y-6370000D01*
X2850200Y-6685600D02*
X2890200Y-6725600D01*
X2890200Y-6685600D02*
X2850200Y-6725600D01*
X2897500Y-3515000D02*
X2937500Y-3555000D01*
X2937500Y-3515000D02*
X2897500Y-3555000D01*
X2900000Y-2115000D02*
X2940000Y-2155000D01*
X2940000Y-2115000D02*
X2900000Y-2155000D01*
X2901000Y-4425000D02*
X2941000Y-4465000D01*
X2941000Y-4425000D02*
X2901000Y-4465000D01*
X2901000Y-5187000D02*
X2941000Y-5227000D01*
X2941000Y-5187000D02*
X2901000Y-5227000D01*
X3028000Y-2901000D02*
X3068000Y-2941000D01*
X3068000Y-2901000D02*
X3028000Y-2941000D01*
X3051400Y-7650800D02*
X3091400Y-7690800D01*
X3091400Y-7650800D02*
X3051400Y-7690800D01*
X3155000Y-6025200D02*
X3195000Y-6065200D01*
X3195000Y-6025200D02*
X3155000Y-6065200D01*
X3510600Y-6253800D02*
X3550600Y-6293800D01*
X3550600Y-6253800D02*
X3510600Y-6293800D01*
X3591000Y-5482000D02*
X3631000Y-5522000D01*
X3631000Y-5482000D02*
X3591000Y-5522000D01*
X3650000Y-2517000D02*
X3690000Y-2557000D01*
X3690000Y-2517000D02*
X3650000Y-2557000D01*
X3663000Y-3289000D02*
X3703000Y-3329000D01*
X3703000Y-3289000D02*
X3663000Y-3329000D01*
X3671000Y-8463600D02*
X3711000Y-8503600D01*
X3711000Y-8463600D02*
X3671000Y-8503600D01*
X3671000Y-8717600D02*
X3711000Y-8757600D01*
X3711000Y-8717600D02*
X3671000Y-8757600D01*
X3678000Y-3943000D02*
X3718000Y-3983000D01*
X3718000Y-3943000D02*
X3678000Y-3983000D01*
X3703000Y-4842000D02*
X3743000Y-4882000D01*
X3743000Y-4842000D02*
X3703000Y-4882000D01*
X4410000Y-2660000D02*
X4450000Y-2700000D01*
X4450000Y-2660000D02*
X4410000Y-2700000D01*
X4649000Y-4185000D02*
X4689000Y-4225000D01*
X4689000Y-4185000D02*
X4649000Y-4225000D01*
X4742500Y-6926900D02*
X4782500Y-6966900D01*
X4782500Y-6926900D02*
X4742500Y-6966900D01*
X4946000Y-3247500D02*
X4986000Y-3287500D01*
X4986000Y-3247500D02*
X4946000Y-3287500D01*
X5649000Y-6935000D02*
X5689000Y-6975000D01*
X5689000Y-6935000D02*
X5649000Y-6975000D01*
X5946000Y-5997500D02*
X5986000Y-6037500D01*
X5986000Y-5997500D02*
X5946000Y-6037500D01*
X6482000Y-59000D02*
X6522000Y-99000D01*
X6522000Y-59000D02*
X6482000Y-99000D01*
X6723000Y-4184000D02*
X6763000Y-4224000D01*
X6763000Y-4184000D02*
X6723000Y-4224000D01*
X6867000Y-7314000D02*
X6907000Y-7354000D01*
X6907000Y-7314000D02*
X6867000Y-7354000D01*
X6867000Y-7645000D02*
X6907000Y-7685000D01*
X6907000Y-7645000D02*
X6867000Y-7685000D01*
X6869000Y-607000D02*
X6909000Y-647000D01*
X6909000Y-607000D02*
X6869000Y-647000D01*
X7020000Y-3246500D02*
X7060000Y-3286500D01*
X7060000Y-3246500D02*
X7020000Y-3286500D01*
X7491000Y-6932000D02*
X7531000Y-6972000D01*
X7531000Y-6932000D02*
X7491000Y-6972000D01*
X7788000Y-5994500D02*
X7828000Y-6034500D01*
X7828000Y-5994500D02*
X7788000Y-6034500D01*
X8267000Y-63000D02*
X8307000Y-103000D01*
X8307000Y-63000D02*
X8267000Y-103000D01*
X8353000Y-4181000D02*
X8393000Y-4221000D01*
X8393000Y-4181000D02*
X8353000Y-4221000D01*
X8552000Y-2806000D02*
X8592000Y-2846000D01*
X8592000Y-2806000D02*
X8552000Y-2846000D01*
X8643000Y-2455000D02*
X8683000Y-2495000D01*
X8683000Y-2455000D02*
X8643000Y-2495000D01*
X8650000Y-3243500D02*
X8690000Y-3283500D01*
X8690000Y-3243500D02*
X8650000Y-3283500D01*
X8706000Y-7249000D02*
X8746000Y-7289000D01*
X8746000Y-7249000D02*
X8706000Y-7289000D01*
X8706000Y-7677000D02*
X8746000Y-7717000D01*
X8746000Y-7677000D02*
X8706000Y-7717000D01*
X8730000Y-597000D02*
X8770000Y-637000D01*
X8770000Y-597000D02*
X8730000Y-637000D01*
X9353000Y-6931000D02*
X9393000Y-6971000D01*
X9393000Y-6931000D02*
X9353000Y-6971000D01*
X9650000Y-5993500D02*
X9690000Y-6033500D01*
X9690000Y-5993500D02*
X9650000Y-6033500D01*
X10126000Y-61000D02*
X10166000Y-101000D01*
X10166000Y-61000D02*
X10126000Y-101000D01*
X10427000Y-4180000D02*
X10467000Y-4220000D01*
X10467000Y-4180000D02*
X10427000Y-4220000D01*
X10545000Y-7230000D02*
X10585000Y-7270000D01*
X10585000Y-7230000D02*
X10545000Y-7270000D01*
X10549000Y-7719000D02*
X10589000Y-7759000D01*
X10589000Y-7719000D02*
X10549000Y-7759000D01*
X10580000Y-574000D02*
X10620000Y-614000D01*
X10620000Y-574000D02*
X10580000Y-614000D01*
X10614000Y-2870000D02*
X10654000Y-2910000D01*
X10654000Y-2870000D02*
X10614000Y-2910000D01*
X10713000Y-2460000D02*
X10753000Y-2500000D01*
X10753000Y-2460000D02*
X10713000Y-2500000D01*
X10724000Y-3242500D02*
X10764000Y-3282500D01*
X10764000Y-3242500D02*
X10724000Y-3282500D01*
X11195000Y-6928000D02*
X11235000Y-6968000D01*
X11235000Y-6928000D02*
X11195000Y-6968000D01*
X11492000Y-5990500D02*
X11532000Y-6030500D01*
X11532000Y-5990500D02*
X11492000Y-6030500D01*
X11942000Y-66000D02*
X11982000Y-106000D01*
X11982000Y-66000D02*
X11942000Y-106000D01*
X12068000Y-4177000D02*
X12108000Y-4217000D01*
X12108000Y-4177000D02*
X12068000Y-4217000D01*
X12261000Y-2830000D02*
X12301000Y-2870000D01*
X12301000Y-2830000D02*
X12261000Y-2870000D01*
X12365000Y-3239500D02*
X12405000Y-3279500D01*
X12405000Y-3239500D02*
X12365000Y-3279500D01*
X12366000Y-2450000D02*
X12406000Y-2490000D01*
X12406000Y-2450000D02*
X12366000Y-2490000D01*
X12448000Y-489000D02*
X12488000Y-529000D01*
X12488000Y-489000D02*
X12448000Y-529000D01*
X12449000Y-7216000D02*
X12489000Y-7256000D01*
X12489000Y-7216000D02*
X12449000Y-7256000D01*
X12454000Y-7723000D02*
X12494000Y-7763000D01*
X12494000Y-7723000D02*
X12454000Y-7763000D01*
X13068000Y-6927000D02*
X13108000Y-6967000D01*
X13108000Y-6927000D02*
X13068000Y-6967000D01*
X13365000Y-5989500D02*
X13405000Y-6029500D01*
X13405000Y-5989500D02*
X13365000Y-6029500D01*
X13825000Y-71000D02*
X13865000Y-111000D01*
X13865000Y-71000D02*
X13825000Y-111000D01*
X14142000Y-4176000D02*
X14182000Y-4216000D01*
X14182000Y-4176000D02*
X14142000Y-4216000D01*
X14280000Y-616000D02*
X14320000Y-656000D01*
X14320000Y-616000D02*
X14280000Y-656000D01*
X14293000Y-7180000D02*
X14333000Y-7220000D01*
X14333000Y-7180000D02*
X14293000Y-7220000D01*
X14293000Y-7734000D02*
X14333000Y-7774000D01*
X14333000Y-7734000D02*
X14293000Y-7774000D01*
X14348000Y-2816000D02*
X14388000Y-2856000D01*
X14388000Y-2816000D02*
X14348000Y-2856000D01*
X14430000Y-2421000D02*
X14470000Y-2461000D01*
X14470000Y-2421000D02*
X14430000Y-2461000D01*
X14439000Y-3238500D02*
X14479000Y-3278500D01*
X14479000Y-3238500D02*
X14439000Y-3278500D01*
X14910000Y-6924000D02*
X14950000Y-6964000D01*
X14950000Y-6924000D02*
X14910000Y-6964000D01*
X15207000Y-5986500D02*
X15247000Y-6026500D01*
X15247000Y-5986500D02*
X15207000Y-6026500D01*
X15688000Y-68000D02*
X15728000Y-108000D01*
X15728000Y-68000D02*
X15688000Y-108000D01*
X15772000Y-4173000D02*
X15812000Y-4213000D01*
X15812000Y-4173000D02*
X15772000Y-4213000D01*
X15961000Y-2949000D02*
X16001000Y-2989000D01*
X16001000Y-2949000D02*
X15961000Y-2989000D01*
X16056000Y-2411000D02*
X16096000Y-2451000D01*
X16096000Y-2411000D02*
X16056000Y-2451000D01*
X16069000Y-3235500D02*
X16109000Y-3275500D01*
X16109000Y-3235500D02*
X16069000Y-3275500D01*
X16083600Y-56200D02*
X16123600Y-96200D01*
X16123600Y-56200D02*
X16083600Y-96200D01*
X16137000Y-599000D02*
X16177000Y-639000D01*
X16177000Y-599000D02*
X16137000Y-639000D01*
X17048800Y-6634800D02*
X17088800Y-6674800D01*
X17088800Y-6634800D02*
X17048800Y-6674800D01*
X17057600Y-6093800D02*
X17097600Y-6133800D01*
X17097600Y-6093800D02*
X17057600Y-6133800D01*
X17106200Y-3522400D02*
X17146200Y-3562400D01*
X17146200Y-3522400D02*
X17106200Y-3562400D01*
X17201200Y-3180400D02*
X17241200Y-3220400D01*
X17241200Y-3180400D02*
X17201200Y-3220400D01*
X17353600Y-2494600D02*
X17393600Y-2534600D01*
X17393600Y-2494600D02*
X17353600Y-2534600D01*
X17353600Y-2774000D02*
X17393600Y-2814000D01*
X17393600Y-2774000D02*
X17353600Y-2814000D01*
X17353600Y-5745800D02*
X17393600Y-5785800D01*
X17393600Y-5745800D02*
X17353600Y-5785800D01*
X17447200Y-6482400D02*
X17487200Y-6522400D01*
X17487200Y-6482400D02*
X17447200Y-6522400D01*
X17455200Y-6228400D02*
X17495200Y-6268400D01*
X17495200Y-6228400D02*
X17455200Y-6268400D01*
X17455200Y-7701600D02*
X17495200Y-7741600D01*
X17495200Y-7701600D02*
X17455200Y-7741600D01*
X17506000Y-1758000D02*
X17546000Y-1798000D01*
X17546000Y-1758000D02*
X17506000Y-1798000D01*
X17556800Y-1605600D02*
X17596800Y-1645600D01*
X17596800Y-1605600D02*
X17556800Y-1645600D01*
X17556800Y-3967800D02*
X17596800Y-4007800D01*
X17596800Y-3967800D02*
X17556800Y-4007800D01*
X17580200Y-7955600D02*
X17620200Y-7995600D01*
X17620200Y-7955600D02*
X17580200Y-7995600D01*
X17597400Y-2848800D02*
X17637400Y-2888800D01*
X17637400Y-2848800D02*
X17597400Y-2888800D01*
X17597400Y-3308800D02*
X17637400Y-3348800D01*
X17637400Y-3308800D02*
X17597400Y-3348800D01*
X17633000Y-1918000D02*
X17673000Y-1958000D01*
X17673000Y-1918000D02*
X17633000Y-1958000D01*
X17717200Y-6482400D02*
X17757200Y-6522400D01*
X17757200Y-6482400D02*
X17717200Y-6522400D01*
X17810800Y-3688400D02*
X17850800Y-3728400D01*
X17850800Y-3688400D02*
X17810800Y-3728400D01*
X17861600Y-4450400D02*
X17901600Y-4490400D01*
X17901600Y-4450400D02*
X17861600Y-4490400D01*
X17861600Y-5110800D02*
X17901600Y-5150800D01*
X17901600Y-5110800D02*
X17861600Y-5150800D01*
X17963200Y-4145600D02*
X18003200Y-4185600D01*
X18003200Y-4145600D02*
X17963200Y-4185600D01*
X18036200Y-5644200D02*
X18076200Y-5684200D01*
X18076200Y-5644200D02*
X18036200Y-5684200D01*
X18064800Y-6736400D02*
X18104800Y-6776400D01*
X18104800Y-6736400D02*
X18064800Y-6776400D01*
X18127000Y-1159800D02*
X18167000Y-1199800D01*
X18167000Y-1159800D02*
X18127000Y-1199800D01*
X18127000Y-1159800D02*
X18167000Y-1199800D01*
X18167000Y-1159800D02*
X18127000Y-1199800D01*
X18127000Y-1159800D02*
X18167000Y-1199800D01*
X18167000Y-1159800D02*
X18127000Y-1199800D01*
X18139000Y-7955600D02*
X18179000Y-7995600D01*
X18179000Y-7955600D02*
X18139000Y-7995600D01*
X18420400Y-6144200D02*
X18460400Y-6184200D01*
X18460400Y-6144200D02*
X18420400Y-6184200D01*
X18453800Y-3586800D02*
X18493800Y-3626800D01*
X18493800Y-3586800D02*
X18453800Y-3626800D01*
X18471200Y-1554800D02*
X18511200Y-1594800D01*
X18511200Y-1554800D02*
X18471200Y-1594800D01*
X18479200Y-3942400D02*
X18519200Y-3982400D01*
X18519200Y-3942400D02*
X18479200Y-3982400D01*
X18522000Y-6685600D02*
X18562000Y-6725600D01*
X18562000Y-6685600D02*
X18522000Y-6725600D01*
X18606200Y-2012000D02*
X18646200Y-2052000D01*
X18646200Y-2012000D02*
X18606200Y-2052000D01*
X18639600Y-1758000D02*
X18679600Y-1798000D01*
X18679600Y-1758000D02*
X18639600Y-1798000D01*
X18725200Y-3177200D02*
X18765200Y-3217200D01*
X18765200Y-3177200D02*
X18725200Y-3217200D01*
X18733200Y-2469200D02*
X18773200Y-2509200D01*
X18773200Y-2469200D02*
X18733200Y-2509200D01*
X18801400Y-4671000D02*
X18841400Y-4711000D01*
X18841400Y-4671000D02*
X18801400Y-4711000D01*
X19030000Y-2604200D02*
X19070000Y-2644200D01*
X19070000Y-2604200D02*
X19030000Y-2644200D01*
X19080800Y-5723600D02*
X19120800Y-5763600D01*
X19120800Y-5723600D02*
X19080800Y-5763600D01*
X19182400Y-4123400D02*
X19222400Y-4163400D01*
X19222400Y-4123400D02*
X19182400Y-4163400D01*
X19459800Y-2875600D02*
X19499800Y-2915600D01*
X19499800Y-2875600D02*
X19459800Y-2915600D01*
X19690400Y-6126800D02*
X19730400Y-6166800D01*
X19730400Y-6126800D02*
X19690400Y-6166800D01*
X379500Y-762000D02*
G75*
G03X379500Y-762000I-30000J0D01*
G01*
X379500Y-8128000D02*
G75*
G03X379500Y-8128000I-30000J0D01*
G01*
X499318Y-469318D02*
G75*
G03X499318Y-469318I-30000J0D01*
G01*
X499318Y-1054682D02*
G75*
G03X499318Y-1054682I-30000J0D01*
G01*
X499318Y-7835318D02*
G75*
G03X499318Y-7835318I-30000J0D01*
G01*
X499318Y-8420682D02*
G75*
G03X499318Y-8420682I-30000J0D01*
G01*
X792000Y-349500D02*
G75*
G03X792000Y-349500I-30000J0D01*
G01*
X792000Y-1174500D02*
G75*
G03X792000Y-1174500I-30000J0D01*
G01*
X792000Y-7715500D02*
G75*
G03X792000Y-7715500I-30000J0D01*
G01*
X792000Y-8540500D02*
G75*
G03X792000Y-8540500I-30000J0D01*
G01*
X1084682Y-469318D02*
G75*
G03X1084682Y-469318I-30000J0D01*
G01*
X1084682Y-1054682D02*
G75*
G03X1084682Y-1054682I-30000J0D01*
G01*
X1084682Y-7835318D02*
G75*
G03X1084682Y-7835318I-30000J0D01*
G01*
X1084682Y-8420682D02*
G75*
G03X1084682Y-8420682I-30000J0D01*
G01*
X1204500Y-762000D02*
G75*
G03X1204500Y-762000I-30000J0D01*
G01*
X1204500Y-8128000D02*
G75*
G03X1204500Y-8128000I-30000J0D01*
G01*
X19277100Y-762000D02*
G75*
G03X19277100Y-762000I-30000J0D01*
G01*
X19277100Y-8128000D02*
G75*
G03X19277100Y-8128000I-30000J0D01*
G01*
X19396919Y-469318D02*
G75*
G03X19396919Y-469318I-30000J0D01*
G01*
X19396919Y-1054682D02*
G75*
G03X19396919Y-1054682I-30000J0D01*
G01*
X19396919Y-7835318D02*
G75*
G03X19396919Y-7835318I-30000J0D01*
G01*
X19396919Y-8420682D02*
G75*
G03X19396919Y-8420682I-30000J0D01*
G01*
X19689600Y-349500D02*
G75*
G03X19689600Y-349500I-30000J0D01*
G01*
X19689600Y-1174500D02*
G75*
G03X19689600Y-1174500I-30000J0D01*
G01*
X19689600Y-7715500D02*
G75*
G03X19689600Y-7715500I-30000J0D01*
G01*
X19689600Y-8540500D02*
G75*
G03X19689600Y-8540500I-30000J0D01*
G01*
X19982282Y-469318D02*
G75*
G03X19982282Y-469318I-30000J0D01*
G01*
X19982282Y-1054682D02*
G75*
G03X19982282Y-1054682I-30000J0D01*
G01*
X19982282Y-7835318D02*
G75*
G03X19982282Y-7835318I-30000J0D01*
G01*
X19982282Y-8420682D02*
G75*
G03X19982282Y-8420682I-30000J0D01*
G01*
X20102100Y-762000D02*
G75*
G03X20102100Y-762000I-30000J0D01*
G01*
X20102100Y-8128000D02*
G75*
G03X20102100Y-8128000I-30000J0D01*
G01*
X4614000Y-2363900D02*
X4614000Y-2440100D01*
X4575900Y-2402000D02*
X4652100Y-2402000D01*
X4614000Y-2617900D02*
X4614000Y-2694100D01*
X4575900Y-2656000D02*
X4652100Y-2656000D01*
X4614000Y-2871900D02*
X4614000Y-2948100D01*
X4575900Y-2910000D02*
X4652100Y-2910000D01*
X5567000Y-2363900D02*
X5567000Y-2440100D01*
X5528900Y-2402000D02*
X5605100Y-2402000D01*
X5567000Y-2617900D02*
X5567000Y-2694100D01*
X5528900Y-2656000D02*
X5605100Y-2656000D01*
X5567000Y-2871900D02*
X5567000Y-2948100D01*
X5528900Y-2910000D02*
X5605100Y-2910000D01*
X5614000Y-5113900D02*
X5614000Y-5190100D01*
X5575900Y-5152000D02*
X5652100Y-5152000D01*
X5614000Y-5367900D02*
X5614000Y-5444100D01*
X5575900Y-5406000D02*
X5652100Y-5406000D01*
X5614000Y-5621900D02*
X5614000Y-5698100D01*
X5575900Y-5660000D02*
X5652100Y-5660000D01*
X6567000Y-5113900D02*
X6567000Y-5190100D01*
X6528900Y-5152000D02*
X6605100Y-5152000D01*
X6567000Y-5367900D02*
X6567000Y-5444100D01*
X6528900Y-5406000D02*
X6605100Y-5406000D01*
X6567000Y-5621900D02*
X6567000Y-5698100D01*
X6528900Y-5660000D02*
X6605100Y-5660000D01*
X6688000Y-2362900D02*
X6688000Y-2439100D01*
X6649900Y-2401000D02*
X6726100Y-2401000D01*
X6688000Y-2616900D02*
X6688000Y-2693100D01*
X6649900Y-2655000D02*
X6726100Y-2655000D01*
X6688000Y-2870900D02*
X6688000Y-2947100D01*
X6649900Y-2909000D02*
X6726100Y-2909000D01*
X7456000Y-5110900D02*
X7456000Y-5187100D01*
X7417900Y-5149000D02*
X7494100Y-5149000D01*
X7456000Y-5364900D02*
X7456000Y-5441100D01*
X7417900Y-5403000D02*
X7494100Y-5403000D01*
X7456000Y-5618900D02*
X7456000Y-5695100D01*
X7417900Y-5657000D02*
X7494100Y-5657000D01*
X7641000Y-2362900D02*
X7641000Y-2439100D01*
X7602900Y-2401000D02*
X7679100Y-2401000D01*
X7641000Y-2616900D02*
X7641000Y-2693100D01*
X7602900Y-2655000D02*
X7679100Y-2655000D01*
X7641000Y-2870900D02*
X7641000Y-2947100D01*
X7602900Y-2909000D02*
X7679100Y-2909000D01*
X8318000Y-2359900D02*
X8318000Y-2436100D01*
X8279900Y-2398000D02*
X8356100Y-2398000D01*
X8318000Y-2613900D02*
X8318000Y-2690100D01*
X8279900Y-2652000D02*
X8356100Y-2652000D01*
X8318000Y-2867900D02*
X8318000Y-2944100D01*
X8279900Y-2906000D02*
X8356100Y-2906000D01*
X8409000Y-5110900D02*
X8409000Y-5187100D01*
X8370900Y-5149000D02*
X8447100Y-5149000D01*
X8409000Y-5364900D02*
X8409000Y-5441100D01*
X8370900Y-5403000D02*
X8447100Y-5403000D01*
X8409000Y-5618900D02*
X8409000Y-5695100D01*
X8370900Y-5657000D02*
X8447100Y-5657000D01*
X9271000Y-2359900D02*
X9271000Y-2436100D01*
X9232900Y-2398000D02*
X9309100Y-2398000D01*
X9271000Y-2613900D02*
X9271000Y-2690100D01*
X9232900Y-2652000D02*
X9309100Y-2652000D01*
X9271000Y-2867900D02*
X9271000Y-2944100D01*
X9232900Y-2906000D02*
X9309100Y-2906000D01*
X9318000Y-5109900D02*
X9318000Y-5186100D01*
X9279900Y-5148000D02*
X9356100Y-5148000D01*
X9318000Y-5363900D02*
X9318000Y-5440100D01*
X9279900Y-5402000D02*
X9356100Y-5402000D01*
X9318000Y-5617900D02*
X9318000Y-5694100D01*
X9279900Y-5656000D02*
X9356100Y-5656000D01*
X10271000Y-5109900D02*
X10271000Y-5186100D01*
X10232900Y-5148000D02*
X10309100Y-5148000D01*
X10271000Y-5363900D02*
X10271000Y-5440100D01*
X10232900Y-5402000D02*
X10309100Y-5402000D01*
X10271000Y-5617900D02*
X10271000Y-5694100D01*
X10232900Y-5656000D02*
X10309100Y-5656000D01*
X10392000Y-2358900D02*
X10392000Y-2435100D01*
X10353900Y-2397000D02*
X10430100Y-2397000D01*
X10392000Y-2612900D02*
X10392000Y-2689100D01*
X10353900Y-2651000D02*
X10430100Y-2651000D01*
X10392000Y-2866900D02*
X10392000Y-2943100D01*
X10353900Y-2905000D02*
X10430100Y-2905000D01*
X11160000Y-5106900D02*
X11160000Y-5183100D01*
X11121900Y-5145000D02*
X11198100Y-5145000D01*
X11160000Y-5360900D02*
X11160000Y-5437100D01*
X11121900Y-5399000D02*
X11198100Y-5399000D01*
X11160000Y-5614900D02*
X11160000Y-5691100D01*
X11121900Y-5653000D02*
X11198100Y-5653000D01*
X11345000Y-2358900D02*
X11345000Y-2435100D01*
X11306900Y-2397000D02*
X11383100Y-2397000D01*
X11345000Y-2612900D02*
X11345000Y-2689100D01*
X11306900Y-2651000D02*
X11383100Y-2651000D01*
X11345000Y-2866900D02*
X11345000Y-2943100D01*
X11306900Y-2905000D02*
X11383100Y-2905000D01*
X12033000Y-2355900D02*
X12033000Y-2432100D01*
X11994900Y-2394000D02*
X12071100Y-2394000D01*
X12033000Y-2609900D02*
X12033000Y-2686100D01*
X11994900Y-2648000D02*
X12071100Y-2648000D01*
X12033000Y-2863900D02*
X12033000Y-2940100D01*
X11994900Y-2902000D02*
X12071100Y-2902000D01*
X12113000Y-5106900D02*
X12113000Y-5183100D01*
X12074900Y-5145000D02*
X12151100Y-5145000D01*
X12113000Y-5360900D02*
X12113000Y-5437100D01*
X12074900Y-5399000D02*
X12151100Y-5399000D01*
X12113000Y-5614900D02*
X12113000Y-5691100D01*
X12074900Y-5653000D02*
X12151100Y-5653000D01*
X12986000Y-2355900D02*
X12986000Y-2432100D01*
X12947900Y-2394000D02*
X13024100Y-2394000D01*
X12986000Y-2609900D02*
X12986000Y-2686100D01*
X12947900Y-2648000D02*
X13024100Y-2648000D01*
X12986000Y-2863900D02*
X12986000Y-2940100D01*
X12947900Y-2902000D02*
X13024100Y-2902000D01*
X13033000Y-5105900D02*
X13033000Y-5182100D01*
X12994900Y-5144000D02*
X13071100Y-5144000D01*
X13033000Y-5359900D02*
X13033000Y-5436100D01*
X12994900Y-5398000D02*
X13071100Y-5398000D01*
X13033000Y-5613900D02*
X13033000Y-5690100D01*
X12994900Y-5652000D02*
X13071100Y-5652000D01*
X13986000Y-5105900D02*
X13986000Y-5182100D01*
X13947900Y-5144000D02*
X14024100Y-5144000D01*
X13986000Y-5359900D02*
X13986000Y-5436100D01*
X13947900Y-5398000D02*
X14024100Y-5398000D01*
X13986000Y-5613900D02*
X13986000Y-5690100D01*
X13947900Y-5652000D02*
X14024100Y-5652000D01*
X14107000Y-2354900D02*
X14107000Y-2431100D01*
X14068900Y-2393000D02*
X14145100Y-2393000D01*
X14107000Y-2608900D02*
X14107000Y-2685100D01*
X14068900Y-2647000D02*
X14145100Y-2647000D01*
X14107000Y-2862900D02*
X14107000Y-2939100D01*
X14068900Y-2901000D02*
X14145100Y-2901000D01*
X14875000Y-5102900D02*
X14875000Y-5179100D01*
X14836900Y-5141000D02*
X14913100Y-5141000D01*
X14875000Y-5356900D02*
X14875000Y-5433100D01*
X14836900Y-5395000D02*
X14913100Y-5395000D01*
X14875000Y-5610900D02*
X14875000Y-5687100D01*
X14836900Y-5649000D02*
X14913100Y-5649000D01*
X15060000Y-2354900D02*
X15060000Y-2431100D01*
X15021900Y-2393000D02*
X15098100Y-2393000D01*
X15060000Y-2608900D02*
X15060000Y-2685100D01*
X15021900Y-2647000D02*
X15098100Y-2647000D01*
X15060000Y-2862900D02*
X15060000Y-2939100D01*
X15021900Y-2901000D02*
X15098100Y-2901000D01*
X15737000Y-2351900D02*
X15737000Y-2428100D01*
X15698900Y-2390000D02*
X15775100Y-2390000D01*
X15737000Y-2605900D02*
X15737000Y-2682100D01*
X15698900Y-2644000D02*
X15775100Y-2644000D01*
X15737000Y-2859900D02*
X15737000Y-2936100D01*
X15698900Y-2898000D02*
X15775100Y-2898000D01*
X15828000Y-5102900D02*
X15828000Y-5179100D01*
X15789900Y-5141000D02*
X15866100Y-5141000D01*
X15828000Y-5356900D02*
X15828000Y-5433100D01*
X15789900Y-5395000D02*
X15866100Y-5395000D01*
X15828000Y-5610900D02*
X15828000Y-5687100D01*
X15789900Y-5649000D02*
X15866100Y-5649000D01*
X16690000Y-2351900D02*
X16690000Y-2428100D01*
X16651900Y-2390000D02*
X16728100Y-2390000D01*
X16690000Y-2605900D02*
X16690000Y-2682100D01*
X16651900Y-2644000D02*
X16728100Y-2644000D01*
X16690000Y-2859900D02*
X16690000Y-2936100D01*
X16651900Y-2898000D02*
X16728100Y-2898000D01*
X416356Y-1940356D02*
X416356Y-1869644D01*
X345644Y-1869644D01*
X345644Y-1940356D01*
X416356Y-1940356D01*
X416356Y-2448356D02*
X416356Y-2377644D01*
X345644Y-2377644D01*
X345644Y-2448356D01*
X416356Y-2448356D01*
X416356Y-2956356D02*
X416356Y-2885644D01*
X345644Y-2885644D01*
X345644Y-2956356D01*
X416356Y-2956356D01*
X416356Y-3464356D02*
X416356Y-3393644D01*
X345644Y-3393644D01*
X345644Y-3464356D01*
X416356Y-3464356D01*
X416356Y-3972356D02*
X416356Y-3901644D01*
X345644Y-3901644D01*
X345644Y-3972356D01*
X416356Y-3972356D01*
X670356Y-1940356D02*
X670356Y-1869644D01*
X599644Y-1869644D01*
X599644Y-1940356D01*
X670356Y-1940356D01*
X670356Y-2448356D02*
X670356Y-2377644D01*
X599644Y-2377644D01*
X599644Y-2448356D01*
X670356Y-2448356D01*
X670356Y-2956356D02*
X670356Y-2885644D01*
X599644Y-2885644D01*
X599644Y-2956356D01*
X670356Y-2956356D01*
X670356Y-3464356D02*
X670356Y-3393644D01*
X599644Y-3393644D01*
X599644Y-3464356D01*
X670356Y-3464356D01*
X670356Y-3972356D02*
X670356Y-3901644D01*
X599644Y-3901644D01*
X599644Y-3972356D01*
X670356Y-3972356D01*
X924356Y-1940356D02*
X924356Y-1869644D01*
X853644Y-1869644D01*
X853644Y-1940356D01*
X924356Y-1940356D01*
X924356Y-2448356D02*
X924356Y-2377644D01*
X853644Y-2377644D01*
X853644Y-2448356D01*
X924356Y-2448356D01*
X924356Y-2956356D02*
X924356Y-2885644D01*
X853644Y-2885644D01*
X853644Y-2956356D01*
X924356Y-2956356D01*
X924356Y-3464356D02*
X924356Y-3393644D01*
X853644Y-3393644D01*
X853644Y-3464356D01*
X924356Y-3464356D01*
X924356Y-3972356D02*
X924356Y-3901644D01*
X853644Y-3901644D01*
X853644Y-3972356D01*
X924356Y-3972356D01*
X4096356Y-788356D02*
X4096356Y-717644D01*
X4025644Y-717644D01*
X4025644Y-788356D01*
X4096356Y-788356D01*
X4594356Y-6041356D02*
X4594356Y-5970644D01*
X4523644Y-5970644D01*
X4523644Y-6041356D01*
X4594356Y-6041356D01*
X4753356Y-717356D02*
X4753356Y-646644D01*
X4682644Y-646644D01*
X4682644Y-717356D01*
X4753356Y-717356D01*
X4815356Y-5700356D02*
X4815356Y-5629644D01*
X4744644Y-5629644D01*
X4744644Y-5700356D01*
X4815356Y-5700356D01*
X1972200Y-8150000D02*
X2032200Y-8090000D01*
X1972200Y-8030000D01*
X1912200Y-8090000D01*
X1972200Y-8150000D01*
X2322200Y-8150000D02*
X2382200Y-8090000D01*
X2322200Y-8030000D01*
X2262200Y-8090000D01*
X2322200Y-8150000D01*
X2672200Y-8150000D02*
X2732200Y-8090000D01*
X2672200Y-8030000D01*
X2612200Y-8090000D01*
X2672200Y-8150000D01*
X3022200Y-8150000D02*
X3082200Y-8090000D01*
X3022200Y-8030000D01*
X2962200Y-8090000D01*
X3022200Y-8150000D01*
X3292500Y-860000D02*
X3352500Y-800000D01*
X3292500Y-740000D01*
X3232500Y-800000D01*
X3292500Y-860000D01*
X3642500Y-860000D02*
X3702500Y-800000D01*
X3642500Y-740000D01*
X3582500Y-800000D01*
X3642500Y-860000D01*
X5295000Y-8150000D02*
X5355000Y-8090000D01*
X5295000Y-8030000D01*
X5235000Y-8090000D01*
X5295000Y-8150000D01*
X5312500Y-857500D02*
X5372500Y-797500D01*
X5312500Y-737500D01*
X5252500Y-797500D01*
X5312500Y-857500D01*
X5645000Y-8150000D02*
X5705000Y-8090000D01*
X5645000Y-8030000D01*
X5585000Y-8090000D01*
X5645000Y-8150000D01*
X5662500Y-857500D02*
X5722500Y-797500D01*
X5662500Y-737500D01*
X5602500Y-797500D01*
X5662500Y-857500D01*
X6235000Y-8150000D02*
X6295000Y-8090000D01*
X6235000Y-8030000D01*
X6175000Y-8090000D01*
X6235000Y-8150000D01*
X6242500Y-857500D02*
X6302500Y-797500D01*
X6242500Y-737500D01*
X6182500Y-797500D01*
X6242500Y-857500D01*
X6585000Y-8150000D02*
X6645000Y-8090000D01*
X6585000Y-8030000D01*
X6525000Y-8090000D01*
X6585000Y-8150000D01*
X6592500Y-857500D02*
X6652500Y-797500D01*
X6592500Y-737500D01*
X6532500Y-797500D01*
X6592500Y-857500D01*
X7162500Y-8150000D02*
X7222500Y-8090000D01*
X7162500Y-8030000D01*
X7102500Y-8090000D01*
X7162500Y-8150000D01*
X7177500Y-857500D02*
X7237500Y-797500D01*
X7177500Y-737500D01*
X7117500Y-797500D01*
X7177500Y-857500D01*
X7512500Y-8150000D02*
X7572500Y-8090000D01*
X7512500Y-8030000D01*
X7452500Y-8090000D01*
X7512500Y-8150000D01*
X7527500Y-857500D02*
X7587500Y-797500D01*
X7527500Y-737500D01*
X7467500Y-797500D01*
X7527500Y-857500D01*
X8085000Y-8150000D02*
X8145000Y-8090000D01*
X8085000Y-8030000D01*
X8025000Y-8090000D01*
X8085000Y-8150000D01*
X8110000Y-857500D02*
X8170000Y-797500D01*
X8110000Y-737500D01*
X8050000Y-797500D01*
X8110000Y-857500D01*
X8435000Y-8150000D02*
X8495000Y-8090000D01*
X8435000Y-8030000D01*
X8375000Y-8090000D01*
X8435000Y-8150000D01*
X8460000Y-857500D02*
X8520000Y-797500D01*
X8460000Y-737500D01*
X8400000Y-797500D01*
X8460000Y-857500D01*
X9012500Y-8150000D02*
X9072500Y-8090000D01*
X9012500Y-8030000D01*
X8952500Y-8090000D01*
X9012500Y-8150000D01*
X9037500Y-857500D02*
X9097500Y-797500D01*
X9037500Y-737500D01*
X8977500Y-797500D01*
X9037500Y-857500D01*
X9362500Y-8150000D02*
X9422500Y-8090000D01*
X9362500Y-8030000D01*
X9302500Y-8090000D01*
X9362500Y-8150000D01*
X9387500Y-857500D02*
X9447500Y-797500D01*
X9387500Y-737500D01*
X9327500Y-797500D01*
X9387500Y-857500D01*
X9940000Y-8150000D02*
X10000000Y-8090000D01*
X9940000Y-8030000D01*
X9880000Y-8090000D01*
X9940000Y-8150000D01*
X9965000Y-857500D02*
X10025000Y-797500D01*
X9965000Y-737500D01*
X9905000Y-797500D01*
X9965000Y-857500D01*
X10290000Y-8150000D02*
X10350000Y-8090000D01*
X10290000Y-8030000D01*
X10230000Y-8090000D01*
X10290000Y-8150000D01*
X10315000Y-857500D02*
X10375000Y-797500D01*
X10315000Y-737500D01*
X10255000Y-797500D01*
X10315000Y-857500D01*
X10870000Y-8150000D02*
X10930000Y-8090000D01*
X10870000Y-8030000D01*
X10810000Y-8090000D01*
X10870000Y-8150000D01*
X10892500Y-857500D02*
X10952500Y-797500D01*
X10892500Y-737500D01*
X10832500Y-797500D01*
X10892500Y-857500D01*
X11220000Y-8150000D02*
X11280000Y-8090000D01*
X11220000Y-8030000D01*
X11160000Y-8090000D01*
X11220000Y-8150000D01*
X11242500Y-857500D02*
X11302500Y-797500D01*
X11242500Y-737500D01*
X11182500Y-797500D01*
X11242500Y-857500D01*
X11802500Y-8150000D02*
X11862500Y-8090000D01*
X11802500Y-8030000D01*
X11742500Y-8090000D01*
X11802500Y-8150000D01*
X11820000Y-857500D02*
X11880000Y-797500D01*
X11820000Y-737500D01*
X11760000Y-797500D01*
X11820000Y-857500D01*
X12152500Y-8150000D02*
X12212500Y-8090000D01*
X12152500Y-8030000D01*
X12092500Y-8090000D01*
X12152500Y-8150000D01*
X12170000Y-857500D02*
X12230000Y-797500D01*
X12170000Y-737500D01*
X12110000Y-797500D01*
X12170000Y-857500D01*
X12732500Y-8150000D02*
X12792500Y-8090000D01*
X12732500Y-8030000D01*
X12672500Y-8090000D01*
X12732500Y-8150000D01*
X12750000Y-857500D02*
X12810000Y-797500D01*
X12750000Y-737500D01*
X12690000Y-797500D01*
X12750000Y-857500D01*
X13082500Y-8150000D02*
X13142500Y-8090000D01*
X13082500Y-8030000D01*
X13022500Y-8090000D01*
X13082500Y-8150000D01*
X13100000Y-857500D02*
X13160000Y-797500D01*
X13100000Y-737500D01*
X13040000Y-797500D01*
X13100000Y-857500D01*
X13657500Y-8150000D02*
X13717500Y-8090000D01*
X13657500Y-8030000D01*
X13597500Y-8090000D01*
X13657500Y-8150000D01*
X13672500Y-857500D02*
X13732500Y-797500D01*
X13672500Y-737500D01*
X13612500Y-797500D01*
X13672500Y-857500D01*
X14007500Y-8150000D02*
X14067500Y-8090000D01*
X14007500Y-8030000D01*
X13947500Y-8090000D01*
X14007500Y-8150000D01*
X14022500Y-857500D02*
X14082500Y-797500D01*
X14022500Y-737500D01*
X13962500Y-797500D01*
X14022500Y-857500D01*
X14585000Y-8150000D02*
X14645000Y-8090000D01*
X14585000Y-8030000D01*
X14525000Y-8090000D01*
X14585000Y-8150000D01*
X14595000Y-857500D02*
X14655000Y-797500D01*
X14595000Y-737500D01*
X14535000Y-797500D01*
X14595000Y-857500D01*
X14935000Y-8150000D02*
X14995000Y-8090000D01*
X14935000Y-8030000D01*
X14875000Y-8090000D01*
X14935000Y-8150000D01*
X14945000Y-857500D02*
X15005000Y-797500D01*
X14945000Y-737500D01*
X14885000Y-797500D01*
X14945000Y-857500D01*
X15510000Y-8150000D02*
X15570000Y-8090000D01*
X15510000Y-8030000D01*
X15450000Y-8090000D01*
X15510000Y-8150000D01*
X15522500Y-857500D02*
X15582500Y-797500D01*
X15522500Y-737500D01*
X15462500Y-797500D01*
X15522500Y-857500D01*
X15860000Y-8150000D02*
X15920000Y-8090000D01*
X15860000Y-8030000D01*
X15800000Y-8090000D01*
X15860000Y-8150000D01*
X15872500Y-857500D02*
X15932500Y-797500D01*
X15872500Y-737500D01*
X15812500Y-797500D01*
X15872500Y-857500D01*
X16432500Y-8150000D02*
X16492500Y-8090000D01*
X16432500Y-8030000D01*
X16372500Y-8090000D01*
X16432500Y-8150000D01*
X16450000Y-857500D02*
X16510000Y-797500D01*
X16450000Y-737500D01*
X16390000Y-797500D01*
X16450000Y-857500D01*
X16782500Y-8150000D02*
X16842500Y-8090000D01*
X16782500Y-8030000D01*
X16722500Y-8090000D01*
X16782500Y-8150000D01*
X16800000Y-857500D02*
X16860000Y-797500D01*
X16800000Y-737500D01*
X16740000Y-797500D01*
X16800000Y-857500D01*
X17379200Y-872800D02*
X17439200Y-812800D01*
X17379200Y-752800D01*
X17319200Y-812800D01*
X17379200Y-872800D01*
X17729200Y-872800D02*
X17789200Y-812800D01*
X17729200Y-752800D01*
X17669200Y-812800D01*
X17729200Y-872800D01*
X18344400Y-872800D02*
X18404400Y-812800D01*
X18344400Y-752800D01*
X18284400Y-812800D01*
X18344400Y-872800D01*
X18694400Y-872800D02*
X18754400Y-812800D01*
X18694400Y-752800D01*
X18634400Y-812800D01*
X18694400Y-872800D01*
X20116800Y-1945200D02*
X20176800Y-1885200D01*
X20116800Y-1825200D01*
X20056800Y-1885200D01*
X20116800Y-1945200D01*
X20116800Y-2295200D02*
X20176800Y-2235200D01*
X20116800Y-2175200D01*
X20056800Y-2235200D01*
X20116800Y-2295200D01*
X20116800Y-2966800D02*
X20176800Y-2906800D01*
X20116800Y-2846800D01*
X20056800Y-2906800D01*
X20116800Y-2966800D01*
X20116800Y-3316800D02*
X20176800Y-3256800D01*
X20116800Y-3196800D01*
X20056800Y-3256800D01*
X20116800Y-3316800D01*
X20116800Y-3666800D02*
X20176800Y-3606800D01*
X20116800Y-3546800D01*
X20056800Y-3606800D01*
X20116800Y-3666800D01*
X20116800Y-4016800D02*
X20176800Y-3956800D01*
X20116800Y-3896800D01*
X20056800Y-3956800D01*
X20116800Y-4016800D01*
X20116800Y-4581200D02*
X20176800Y-4521200D01*
X20116800Y-4461200D01*
X20056800Y-4521200D01*
X20116800Y-4581200D01*
X20116800Y-4931200D02*
X20176800Y-4871200D01*
X20116800Y-4811200D01*
X20056800Y-4871200D01*
X20116800Y-4931200D01*
X20116800Y-5281200D02*
X20176800Y-5221200D01*
X20116800Y-5161200D01*
X20056800Y-5221200D01*
X20116800Y-5281200D01*
X20116800Y-5631200D02*
X20176800Y-5571200D01*
X20116800Y-5511200D01*
X20056800Y-5571200D01*
X20116800Y-5631200D01*
X20116800Y-6218000D02*
X20176800Y-6158000D01*
X20116800Y-6098000D01*
X20056800Y-6158000D01*
X20116800Y-6218000D01*
X20116800Y-6568000D02*
X20176800Y-6508000D01*
X20116800Y-6448000D01*
X20056800Y-6508000D01*
X20116800Y-6568000D01*
X20116800Y-6918000D02*
X20176800Y-6858000D01*
X20116800Y-6798000D01*
X20056800Y-6858000D01*
X20116800Y-6918000D01*
X20116800Y-7268000D02*
X20176800Y-7208000D01*
X20116800Y-7148000D01*
X20056800Y-7208000D01*
X20116800Y-7268000D01*
X487000Y-487000D02*
X1037000Y-1037000D01*
X1037000Y-487000D02*
X487000Y-1037000D01*
X1037000Y-762000D02*
G75*
G03X1037000Y-762000I-275000J0D01*
G01*
X487000Y-7853000D02*
X1037000Y-8403000D01*
X1037000Y-7853000D02*
X487000Y-8403000D01*
X1037000Y-8128000D02*
G75*
G03X1037000Y-8128000I-275000J0D01*
G01*
X19381000Y-7853000D02*
X19931000Y-8403000D01*
X19931000Y-7853000D02*
X19381000Y-8403000D01*
X19931000Y-8128000D02*
G75*
G03X19931000Y-8128000I-275000J0D01*
G01*
X19384600Y-487000D02*
X19934600Y-1037000D01*
X19934600Y-487000D02*
X19384600Y-1037000D01*
X19934600Y-762000D02*
G75*
G03X19934600Y-762000I-275000J0D01*
G01*
D13*
X263929Y-9363214D02*
X263929Y-9063214D01*
X335357Y-9063214D01*
X378214Y-9077500D01*
X406786Y-9106072D01*
X421071Y-9134643D01*
X435357Y-9191786D01*
X435357Y-9234643D01*
X421071Y-9291786D01*
X406786Y-9320357D01*
X378214Y-9348929D01*
X335357Y-9363214D01*
X263929Y-9363214D01*
X563929Y-9363214D02*
X563929Y-9163214D01*
X563929Y-9220357D02*
X578214Y-9191786D01*
X592500Y-9177500D01*
X621071Y-9163214D01*
X649643Y-9163214D01*
X749643Y-9363214D02*
X749643Y-9163214D01*
X749643Y-9063214D02*
X735357Y-9077500D01*
X749643Y-9091786D01*
X763928Y-9077500D01*
X749643Y-9063214D01*
X749643Y-9091786D01*
X935357Y-9363214D02*
X906786Y-9348929D01*
X892500Y-9320357D01*
X892500Y-9063214D01*
X1092500Y-9363214D02*
X1063929Y-9348929D01*
X1049643Y-9320357D01*
X1049643Y-9063214D01*
X1435357Y-9363214D02*
X1435357Y-9063214D01*
X1535357Y-9277500D01*
X1635357Y-9063214D01*
X1635357Y-9363214D01*
X1906786Y-9363214D02*
X1906786Y-9206072D01*
X1892500Y-9177500D01*
X1863928Y-9163214D01*
X1806786Y-9163214D01*
X1778214Y-9177500D01*
X1906786Y-9348929D02*
X1878214Y-9363214D01*
X1806786Y-9363214D01*
X1778214Y-9348929D01*
X1763928Y-9320357D01*
X1763928Y-9291786D01*
X1778214Y-9263214D01*
X1806786Y-9248929D01*
X1878214Y-9248929D01*
X1906786Y-9234643D01*
X2049643Y-9163214D02*
X2049643Y-9463214D01*
X2049643Y-9177500D02*
X2078214Y-9163214D01*
X2135357Y-9163214D01*
X2163929Y-9177500D01*
X2178214Y-9191786D01*
X2192500Y-9220357D01*
X2192500Y-9306072D01*
X2178214Y-9334643D01*
X2163929Y-9348929D01*
X2135357Y-9363214D01*
X2078214Y-9363214D01*
X2049643Y-9348929D01*
X2321071Y-9334643D02*
X2335357Y-9348929D01*
X2321071Y-9363214D01*
X2306786Y-9348929D01*
X2321071Y-9334643D01*
X2321071Y-9363214D01*
X2321071Y-9177500D02*
X2335357Y-9191786D01*
X2321071Y-9206072D01*
X2306786Y-9191786D01*
X2321071Y-9177500D01*
X2321071Y-9206072D01*
X-47500Y-9837500D02*
X-7500Y-9877500D01*
X-7500Y-9837500D02*
X-47500Y-9877500D01*
X321071Y-9693214D02*
X349643Y-9693214D01*
X378214Y-9707500D01*
X392500Y-9721786D01*
X406786Y-9750357D01*
X421071Y-9807500D01*
X421071Y-9878929D01*
X406786Y-9936072D01*
X392500Y-9964643D01*
X378214Y-9978929D01*
X349643Y-9993214D01*
X321071Y-9993214D01*
X292500Y-9978929D01*
X278214Y-9964643D01*
X263929Y-9936072D01*
X249643Y-9878929D01*
X249643Y-9807500D01*
X263929Y-9750357D01*
X278214Y-9721786D01*
X292500Y-9707500D01*
X321071Y-9693214D01*
X549643Y-9964643D02*
X563929Y-9978929D01*
X549643Y-9993214D01*
X535357Y-9978929D01*
X549643Y-9964643D01*
X549643Y-9993214D01*
X821071Y-9793214D02*
X821071Y-9993214D01*
X749643Y-9678929D02*
X678214Y-9893214D01*
X863928Y-9893214D01*
X1035357Y-9693214D02*
X1063929Y-9693214D01*
X1092500Y-9707500D01*
X1106786Y-9721786D01*
X1121071Y-9750357D01*
X1135357Y-9807500D01*
X1135357Y-9878929D01*
X1121071Y-9936072D01*
X1106786Y-9964643D01*
X1092500Y-9978929D01*
X1063929Y-9993214D01*
X1035357Y-9993214D01*
X1006786Y-9978929D01*
X992500Y-9964643D01*
X978214Y-9936072D01*
X963928Y-9878929D01*
X963928Y-9807500D01*
X978214Y-9750357D01*
X992500Y-9721786D01*
X1006786Y-9707500D01*
X1035357Y-9693214D01*
X1263929Y-9993214D02*
X1263929Y-9793214D01*
X1263929Y-9821786D02*
X1278214Y-9807500D01*
X1306786Y-9793214D01*
X1349643Y-9793214D01*
X1378214Y-9807500D01*
X1392500Y-9836072D01*
X1392500Y-9993214D01*
X1392500Y-9836072D02*
X1406786Y-9807500D01*
X1435357Y-9793214D01*
X1478214Y-9793214D01*
X1506786Y-9807500D01*
X1521071Y-9836072D01*
X1521071Y-9993214D01*
X1663928Y-9993214D02*
X1663928Y-9793214D01*
X1663928Y-9821786D02*
X1678214Y-9807500D01*
X1706786Y-9793214D01*
X1749643Y-9793214D01*
X1778214Y-9807500D01*
X1792500Y-9836072D01*
X1792500Y-9993214D01*
X1792500Y-9836072D02*
X1806786Y-9807500D01*
X1835357Y-9793214D01*
X1878214Y-9793214D01*
X1906786Y-9807500D01*
X1921071Y-9836072D01*
X1921071Y-9993214D01*
X2506786Y-9678929D02*
X2249643Y-10064643D01*
X2892500Y-9693214D02*
X2921071Y-9693214D01*
X2949643Y-9707500D01*
X2963928Y-9721786D01*
X2978214Y-9750357D01*
X2992500Y-9807500D01*
X2992500Y-9878929D01*
X2978214Y-9936072D01*
X2963928Y-9964643D01*
X2949643Y-9978929D01*
X2921071Y-9993214D01*
X2892500Y-9993214D01*
X2863928Y-9978929D01*
X2849643Y-9964643D01*
X2835357Y-9936072D01*
X2821071Y-9878929D01*
X2821071Y-9807500D01*
X2835357Y-9750357D01*
X2849643Y-9721786D01*
X2863928Y-9707500D01*
X2892500Y-9693214D01*
X3121071Y-9964643D02*
X3135357Y-9978929D01*
X3121071Y-9993214D01*
X3106786Y-9978929D01*
X3121071Y-9964643D01*
X3121071Y-9993214D01*
X3321071Y-9693214D02*
X3349643Y-9693214D01*
X3378214Y-9707500D01*
X3392500Y-9721786D01*
X3406785Y-9750357D01*
X3421071Y-9807500D01*
X3421071Y-9878929D01*
X3406785Y-9936072D01*
X3392500Y-9964643D01*
X3378214Y-9978929D01*
X3349643Y-9993214D01*
X3321071Y-9993214D01*
X3292500Y-9978929D01*
X3278214Y-9964643D01*
X3263928Y-9936072D01*
X3249643Y-9878929D01*
X3249643Y-9807500D01*
X3263928Y-9750357D01*
X3278214Y-9721786D01*
X3292500Y-9707500D01*
X3321071Y-9693214D01*
X3706785Y-9993214D02*
X3535357Y-9993214D01*
X3621071Y-9993214D02*
X3621071Y-9693214D01*
X3592500Y-9736072D01*
X3563928Y-9764643D01*
X3535357Y-9778929D01*
X3963928Y-9693214D02*
X3906785Y-9693214D01*
X3878214Y-9707500D01*
X3863928Y-9721786D01*
X3835357Y-9764643D01*
X3821071Y-9821786D01*
X3821071Y-9936072D01*
X3835357Y-9964643D01*
X3849643Y-9978929D01*
X3878214Y-9993214D01*
X3935357Y-9993214D01*
X3963928Y-9978929D01*
X3978214Y-9964643D01*
X3992500Y-9936072D01*
X3992500Y-9864643D01*
X3978214Y-9836072D01*
X3963928Y-9821786D01*
X3935357Y-9807500D01*
X3878214Y-9807500D01*
X3849643Y-9821786D01*
X3835357Y-9836072D01*
X3821071Y-9864643D01*
X4106786Y-9693214D02*
X4106786Y-9750357D01*
X4221071Y-9693214D02*
X4221071Y-9750357D01*
X4663928Y-10107500D02*
X4649643Y-10093214D01*
X4621071Y-10050357D01*
X4606786Y-10021786D01*
X4592500Y-9978929D01*
X4578214Y-9907500D01*
X4578214Y-9850357D01*
X4592500Y-9778929D01*
X4606786Y-9736072D01*
X4621071Y-9707500D01*
X4649643Y-9664643D01*
X4663928Y-9650357D01*
X4935357Y-9993214D02*
X4763928Y-9993214D01*
X4849643Y-9993214D02*
X4849643Y-9693214D01*
X4821071Y-9736072D01*
X4792500Y-9764643D01*
X4763928Y-9778929D01*
X5206786Y-9693214D02*
X5063928Y-9693214D01*
X5049643Y-9836072D01*
X5063928Y-9821786D01*
X5092500Y-9807500D01*
X5163928Y-9807500D01*
X5192500Y-9821786D01*
X5206786Y-9836072D01*
X5221071Y-9864643D01*
X5221071Y-9936072D01*
X5206786Y-9964643D01*
X5192500Y-9978929D01*
X5163928Y-9993214D01*
X5092500Y-9993214D01*
X5063928Y-9978929D01*
X5049643Y-9964643D01*
X5392500Y-9821786D02*
X5363928Y-9807500D01*
X5349643Y-9793214D01*
X5335357Y-9764643D01*
X5335357Y-9750357D01*
X5349643Y-9721786D01*
X5363928Y-9707500D01*
X5392500Y-9693214D01*
X5449643Y-9693214D01*
X5478214Y-9707500D01*
X5492500Y-9721786D01*
X5506786Y-9750357D01*
X5506786Y-9764643D01*
X5492500Y-9793214D01*
X5478214Y-9807500D01*
X5449643Y-9821786D01*
X5392500Y-9821786D01*
X5363928Y-9836072D01*
X5349643Y-9850357D01*
X5335357Y-9878929D01*
X5335357Y-9936072D01*
X5349643Y-9964643D01*
X5363928Y-9978929D01*
X5392500Y-9993214D01*
X5449643Y-9993214D01*
X5478214Y-9978929D01*
X5492500Y-9964643D01*
X5506786Y-9936072D01*
X5506786Y-9878929D01*
X5492500Y-9850357D01*
X5478214Y-9836072D01*
X5449643Y-9821786D01*
X5863928Y-9993214D02*
X5863928Y-9693214D01*
X5992500Y-9993214D02*
X5992500Y-9836072D01*
X5978214Y-9807500D01*
X5949643Y-9793214D01*
X5906785Y-9793214D01*
X5878214Y-9807500D01*
X5863928Y-9821786D01*
X6178214Y-9993214D02*
X6149643Y-9978929D01*
X6135357Y-9964643D01*
X6121071Y-9936072D01*
X6121071Y-9850357D01*
X6135357Y-9821786D01*
X6149643Y-9807500D01*
X6178214Y-9793214D01*
X6221071Y-9793214D01*
X6249643Y-9807500D01*
X6263928Y-9821786D01*
X6278214Y-9850357D01*
X6278214Y-9936072D01*
X6263928Y-9964643D01*
X6249643Y-9978929D01*
X6221071Y-9993214D01*
X6178214Y-9993214D01*
X6449643Y-9993214D02*
X6421071Y-9978929D01*
X6406786Y-9950357D01*
X6406786Y-9693214D01*
X6678214Y-9978929D02*
X6649643Y-9993214D01*
X6592500Y-9993214D01*
X6563928Y-9978929D01*
X6549643Y-9950357D01*
X6549643Y-9836072D01*
X6563928Y-9807500D01*
X6592500Y-9793214D01*
X6649643Y-9793214D01*
X6678214Y-9807500D01*
X6692500Y-9836072D01*
X6692500Y-9864643D01*
X6549643Y-9893214D01*
X6806786Y-9978929D02*
X6835357Y-9993214D01*
X6892500Y-9993214D01*
X6921071Y-9978929D01*
X6935357Y-9950357D01*
X6935357Y-9936072D01*
X6921071Y-9907500D01*
X6892500Y-9893214D01*
X6849643Y-9893214D01*
X6821071Y-9878929D01*
X6806786Y-9850357D01*
X6806786Y-9836072D01*
X6821071Y-9807500D01*
X6849643Y-9793214D01*
X6892500Y-9793214D01*
X6921071Y-9807500D01*
X7035357Y-10107500D02*
X7049643Y-10093214D01*
X7078214Y-10050357D01*
X7092500Y-10021786D01*
X7106786Y-9978929D01*
X7121071Y-9907500D01*
X7121071Y-9850357D01*
X7106786Y-9778929D01*
X7092500Y-9736072D01*
X7078214Y-9707500D01*
X7049643Y-9664643D01*
X7035357Y-9650357D01*
X-7500Y-10253500D02*
G75*
G03X-7500Y-10253500I-30000J0D01*
G01*
X321071Y-10089214D02*
X349643Y-10089214D01*
X378214Y-10103500D01*
X392500Y-10117786D01*
X406786Y-10146357D01*
X421071Y-10203500D01*
X421071Y-10274929D01*
X406786Y-10332072D01*
X392500Y-10360643D01*
X378214Y-10374929D01*
X349643Y-10389214D01*
X321071Y-10389214D01*
X292500Y-10374929D01*
X278214Y-10360643D01*
X263929Y-10332072D01*
X249643Y-10274929D01*
X249643Y-10203500D01*
X263929Y-10146357D01*
X278214Y-10117786D01*
X292500Y-10103500D01*
X321071Y-10089214D01*
X549643Y-10360643D02*
X563929Y-10374929D01*
X549643Y-10389214D01*
X535357Y-10374929D01*
X549643Y-10360643D01*
X549643Y-10389214D01*
X821071Y-10089214D02*
X763928Y-10089214D01*
X735357Y-10103500D01*
X721071Y-10117786D01*
X692500Y-10160643D01*
X678214Y-10217786D01*
X678214Y-10332072D01*
X692500Y-10360643D01*
X706786Y-10374929D01*
X735357Y-10389214D01*
X792500Y-10389214D01*
X821071Y-10374929D01*
X835357Y-10360643D01*
X849643Y-10332072D01*
X849643Y-10260643D01*
X835357Y-10232072D01*
X821071Y-10217786D01*
X792500Y-10203500D01*
X735357Y-10203500D01*
X706786Y-10217786D01*
X692500Y-10232072D01*
X678214Y-10260643D01*
X1035357Y-10089214D02*
X1063929Y-10089214D01*
X1092500Y-10103500D01*
X1106786Y-10117786D01*
X1121071Y-10146357D01*
X1135357Y-10203500D01*
X1135357Y-10274929D01*
X1121071Y-10332072D01*
X1106786Y-10360643D01*
X1092500Y-10374929D01*
X1063929Y-10389214D01*
X1035357Y-10389214D01*
X1006786Y-10374929D01*
X992500Y-10360643D01*
X978214Y-10332072D01*
X963928Y-10274929D01*
X963928Y-10203500D01*
X978214Y-10146357D01*
X992500Y-10117786D01*
X1006786Y-10103500D01*
X1035357Y-10089214D01*
X1263929Y-10389214D02*
X1263929Y-10189214D01*
X1263929Y-10217786D02*
X1278214Y-10203500D01*
X1306786Y-10189214D01*
X1349643Y-10189214D01*
X1378214Y-10203500D01*
X1392500Y-10232072D01*
X1392500Y-10389214D01*
X1392500Y-10232072D02*
X1406786Y-10203500D01*
X1435357Y-10189214D01*
X1478214Y-10189214D01*
X1506786Y-10203500D01*
X1521071Y-10232072D01*
X1521071Y-10389214D01*
X1663928Y-10389214D02*
X1663928Y-10189214D01*
X1663928Y-10217786D02*
X1678214Y-10203500D01*
X1706786Y-10189214D01*
X1749643Y-10189214D01*
X1778214Y-10203500D01*
X1792500Y-10232072D01*
X1792500Y-10389214D01*
X1792500Y-10232072D02*
X1806786Y-10203500D01*
X1835357Y-10189214D01*
X1878214Y-10189214D01*
X1906786Y-10203500D01*
X1921071Y-10232072D01*
X1921071Y-10389214D01*
X2506786Y-10074929D02*
X2249643Y-10460643D01*
X2892500Y-10089214D02*
X2921071Y-10089214D01*
X2949643Y-10103500D01*
X2963928Y-10117786D01*
X2978214Y-10146357D01*
X2992500Y-10203500D01*
X2992500Y-10274929D01*
X2978214Y-10332072D01*
X2963928Y-10360643D01*
X2949643Y-10374929D01*
X2921071Y-10389214D01*
X2892500Y-10389214D01*
X2863928Y-10374929D01*
X2849643Y-10360643D01*
X2835357Y-10332072D01*
X2821071Y-10274929D01*
X2821071Y-10203500D01*
X2835357Y-10146357D01*
X2849643Y-10117786D01*
X2863928Y-10103500D01*
X2892500Y-10089214D01*
X3121071Y-10360643D02*
X3135357Y-10374929D01*
X3121071Y-10389214D01*
X3106786Y-10374929D01*
X3121071Y-10360643D01*
X3121071Y-10389214D01*
X3321071Y-10089214D02*
X3349643Y-10089214D01*
X3378214Y-10103500D01*
X3392500Y-10117786D01*
X3406785Y-10146357D01*
X3421071Y-10203500D01*
X3421071Y-10274929D01*
X3406785Y-10332072D01*
X3392500Y-10360643D01*
X3378214Y-10374929D01*
X3349643Y-10389214D01*
X3321071Y-10389214D01*
X3292500Y-10374929D01*
X3278214Y-10360643D01*
X3263928Y-10332072D01*
X3249643Y-10274929D01*
X3249643Y-10203500D01*
X3263928Y-10146357D01*
X3278214Y-10117786D01*
X3292500Y-10103500D01*
X3321071Y-10089214D01*
X3535357Y-10117786D02*
X3549643Y-10103500D01*
X3578214Y-10089214D01*
X3649643Y-10089214D01*
X3678214Y-10103500D01*
X3692500Y-10117786D01*
X3706785Y-10146357D01*
X3706785Y-10174929D01*
X3692500Y-10217786D01*
X3521071Y-10389214D01*
X3706785Y-10389214D01*
X3963928Y-10189214D02*
X3963928Y-10389214D01*
X3892500Y-10074929D02*
X3821071Y-10289214D01*
X4006785Y-10289214D01*
X4106786Y-10089214D02*
X4106786Y-10146357D01*
X4221071Y-10089214D02*
X4221071Y-10146357D01*
X4663928Y-10503500D02*
X4649643Y-10489214D01*
X4621071Y-10446357D01*
X4606786Y-10417786D01*
X4592500Y-10374929D01*
X4578214Y-10303500D01*
X4578214Y-10246357D01*
X4592500Y-10174929D01*
X4606786Y-10132072D01*
X4621071Y-10103500D01*
X4649643Y-10060643D01*
X4663928Y-10046357D01*
X4749643Y-10089214D02*
X4935357Y-10089214D01*
X4835357Y-10203500D01*
X4878214Y-10203500D01*
X4906786Y-10217786D01*
X4921071Y-10232072D01*
X4935357Y-10260643D01*
X4935357Y-10332072D01*
X4921071Y-10360643D01*
X4906786Y-10374929D01*
X4878214Y-10389214D01*
X4792500Y-10389214D01*
X4763928Y-10374929D01*
X4749643Y-10360643D01*
X5049643Y-10117786D02*
X5063928Y-10103500D01*
X5092500Y-10089214D01*
X5163928Y-10089214D01*
X5192500Y-10103500D01*
X5206786Y-10117786D01*
X5221071Y-10146357D01*
X5221071Y-10174929D01*
X5206786Y-10217786D01*
X5035357Y-10389214D01*
X5221071Y-10389214D01*
X5578214Y-10389214D02*
X5578214Y-10089214D01*
X5706785Y-10389214D02*
X5706785Y-10232072D01*
X5692500Y-10203500D01*
X5663928Y-10189214D01*
X5621071Y-10189214D01*
X5592500Y-10203500D01*
X5578214Y-10217786D01*
X5892500Y-10389214D02*
X5863928Y-10374929D01*
X5849643Y-10360643D01*
X5835357Y-10332072D01*
X5835357Y-10246357D01*
X5849643Y-10217786D01*
X5863928Y-10203500D01*
X5892500Y-10189214D01*
X5935357Y-10189214D01*
X5963928Y-10203500D01*
X5978214Y-10217786D01*
X5992500Y-10246357D01*
X5992500Y-10332072D01*
X5978214Y-10360643D01*
X5963928Y-10374929D01*
X5935357Y-10389214D01*
X5892500Y-10389214D01*
X6163928Y-10389214D02*
X6135357Y-10374929D01*
X6121071Y-10346357D01*
X6121071Y-10089214D01*
X6392500Y-10374929D02*
X6363928Y-10389214D01*
X6306786Y-10389214D01*
X6278214Y-10374929D01*
X6263928Y-10346357D01*
X6263928Y-10232072D01*
X6278214Y-10203500D01*
X6306786Y-10189214D01*
X6363928Y-10189214D01*
X6392500Y-10203500D01*
X6406786Y-10232072D01*
X6406786Y-10260643D01*
X6263928Y-10289214D01*
X6521071Y-10374929D02*
X6549643Y-10389214D01*
X6606786Y-10389214D01*
X6635357Y-10374929D01*
X6649643Y-10346357D01*
X6649643Y-10332072D01*
X6635357Y-10303500D01*
X6606786Y-10289214D01*
X6563928Y-10289214D01*
X6535357Y-10274929D01*
X6521071Y-10246357D01*
X6521071Y-10232072D01*
X6535357Y-10203500D01*
X6563928Y-10189214D01*
X6606786Y-10189214D01*
X6635357Y-10203500D01*
X6749643Y-10503500D02*
X6763928Y-10489214D01*
X6792500Y-10446357D01*
X6806786Y-10417786D01*
X6821071Y-10374929D01*
X6835357Y-10303500D01*
X6835357Y-10246357D01*
X6821071Y-10174929D01*
X6806786Y-10132072D01*
X6792500Y-10103500D01*
X6763928Y-10060643D01*
X6749643Y-10046357D01*
X-45600Y-10611400D02*
X-45600Y-10687600D01*
X-83700Y-10649500D02*
X-7500Y-10649500D01*
X321071Y-10485214D02*
X349643Y-10485214D01*
X378214Y-10499500D01*
X392500Y-10513786D01*
X406786Y-10542357D01*
X421071Y-10599500D01*
X421071Y-10670929D01*
X406786Y-10728072D01*
X392500Y-10756643D01*
X378214Y-10770929D01*
X349643Y-10785214D01*
X321071Y-10785214D01*
X292500Y-10770929D01*
X278214Y-10756643D01*
X263929Y-10728072D01*
X249643Y-10670929D01*
X249643Y-10599500D01*
X263929Y-10542357D01*
X278214Y-10513786D01*
X292500Y-10499500D01*
X321071Y-10485214D01*
X549643Y-10756643D02*
X563929Y-10770929D01*
X549643Y-10785214D01*
X535357Y-10770929D01*
X549643Y-10756643D01*
X549643Y-10785214D01*
X663928Y-10485214D02*
X863928Y-10485214D01*
X735357Y-10785214D01*
X1106786Y-10485214D02*
X1049643Y-10485214D01*
X1021071Y-10499500D01*
X1006786Y-10513786D01*
X978214Y-10556643D01*
X963928Y-10613786D01*
X963928Y-10728072D01*
X978214Y-10756643D01*
X992500Y-10770929D01*
X1021071Y-10785214D01*
X1078214Y-10785214D01*
X1106786Y-10770929D01*
X1121071Y-10756643D01*
X1135357Y-10728072D01*
X1135357Y-10656643D01*
X1121071Y-10628072D01*
X1106786Y-10613786D01*
X1078214Y-10599500D01*
X1021071Y-10599500D01*
X992500Y-10613786D01*
X978214Y-10628072D01*
X963928Y-10656643D01*
X1263929Y-10785214D02*
X1263929Y-10585214D01*
X1263929Y-10613786D02*
X1278214Y-10599500D01*
X1306786Y-10585214D01*
X1349643Y-10585214D01*
X1378214Y-10599500D01*
X1392500Y-10628072D01*
X1392500Y-10785214D01*
X1392500Y-10628072D02*
X1406786Y-10599500D01*
X1435357Y-10585214D01*
X1478214Y-10585214D01*
X1506786Y-10599500D01*
X1521071Y-10628072D01*
X1521071Y-10785214D01*
X1663928Y-10785214D02*
X1663928Y-10585214D01*
X1663928Y-10613786D02*
X1678214Y-10599500D01*
X1706786Y-10585214D01*
X1749643Y-10585214D01*
X1778214Y-10599500D01*
X1792500Y-10628072D01*
X1792500Y-10785214D01*
X1792500Y-10628072D02*
X1806786Y-10599500D01*
X1835357Y-10585214D01*
X1878214Y-10585214D01*
X1906786Y-10599500D01*
X1921071Y-10628072D01*
X1921071Y-10785214D01*
X2506786Y-10470929D02*
X2249643Y-10856643D01*
X2892500Y-10485214D02*
X2921071Y-10485214D01*
X2949643Y-10499500D01*
X2963928Y-10513786D01*
X2978214Y-10542357D01*
X2992500Y-10599500D01*
X2992500Y-10670929D01*
X2978214Y-10728072D01*
X2963928Y-10756643D01*
X2949643Y-10770929D01*
X2921071Y-10785214D01*
X2892500Y-10785214D01*
X2863928Y-10770929D01*
X2849643Y-10756643D01*
X2835357Y-10728072D01*
X2821071Y-10670929D01*
X2821071Y-10599500D01*
X2835357Y-10542357D01*
X2849643Y-10513786D01*
X2863928Y-10499500D01*
X2892500Y-10485214D01*
X3121071Y-10756643D02*
X3135357Y-10770929D01*
X3121071Y-10785214D01*
X3106786Y-10770929D01*
X3121071Y-10756643D01*
X3121071Y-10785214D01*
X3321071Y-10485214D02*
X3349643Y-10485214D01*
X3378214Y-10499500D01*
X3392500Y-10513786D01*
X3406785Y-10542357D01*
X3421071Y-10599500D01*
X3421071Y-10670929D01*
X3406785Y-10728072D01*
X3392500Y-10756643D01*
X3378214Y-10770929D01*
X3349643Y-10785214D01*
X3321071Y-10785214D01*
X3292500Y-10770929D01*
X3278214Y-10756643D01*
X3263928Y-10728072D01*
X3249643Y-10670929D01*
X3249643Y-10599500D01*
X3263928Y-10542357D01*
X3278214Y-10513786D01*
X3292500Y-10499500D01*
X3321071Y-10485214D01*
X3521071Y-10485214D02*
X3706785Y-10485214D01*
X3606785Y-10599500D01*
X3649643Y-10599500D01*
X3678214Y-10613786D01*
X3692500Y-10628072D01*
X3706785Y-10656643D01*
X3706785Y-10728072D01*
X3692500Y-10756643D01*
X3678214Y-10770929D01*
X3649643Y-10785214D01*
X3563928Y-10785214D01*
X3535357Y-10770929D01*
X3521071Y-10756643D01*
X3892500Y-10485214D02*
X3921071Y-10485214D01*
X3949643Y-10499500D01*
X3963928Y-10513786D01*
X3978214Y-10542357D01*
X3992500Y-10599500D01*
X3992500Y-10670929D01*
X3978214Y-10728072D01*
X3963928Y-10756643D01*
X3949643Y-10770929D01*
X3921071Y-10785214D01*
X3892500Y-10785214D01*
X3863928Y-10770929D01*
X3849643Y-10756643D01*
X3835357Y-10728072D01*
X3821071Y-10670929D01*
X3821071Y-10599500D01*
X3835357Y-10542357D01*
X3849643Y-10513786D01*
X3863928Y-10499500D01*
X3892500Y-10485214D01*
X4106786Y-10485214D02*
X4106786Y-10542357D01*
X4221071Y-10485214D02*
X4221071Y-10542357D01*
X4663928Y-10899500D02*
X4649643Y-10885214D01*
X4621071Y-10842357D01*
X4606786Y-10813786D01*
X4592500Y-10770929D01*
X4578214Y-10699500D01*
X4578214Y-10642357D01*
X4592500Y-10570929D01*
X4606786Y-10528072D01*
X4621071Y-10499500D01*
X4649643Y-10456643D01*
X4663928Y-10442357D01*
X4749643Y-10485214D02*
X4949643Y-10485214D01*
X4821071Y-10785214D01*
X5106786Y-10613786D02*
X5078214Y-10599500D01*
X5063928Y-10585214D01*
X5049643Y-10556643D01*
X5049643Y-10542357D01*
X5063928Y-10513786D01*
X5078214Y-10499500D01*
X5106786Y-10485214D01*
X5163928Y-10485214D01*
X5192500Y-10499500D01*
X5206786Y-10513786D01*
X5221071Y-10542357D01*
X5221071Y-10556643D01*
X5206786Y-10585214D01*
X5192500Y-10599500D01*
X5163928Y-10613786D01*
X5106786Y-10613786D01*
X5078214Y-10628072D01*
X5063928Y-10642357D01*
X5049643Y-10670929D01*
X5049643Y-10728072D01*
X5063928Y-10756643D01*
X5078214Y-10770929D01*
X5106786Y-10785214D01*
X5163928Y-10785214D01*
X5192500Y-10770929D01*
X5206786Y-10756643D01*
X5221071Y-10728072D01*
X5221071Y-10670929D01*
X5206786Y-10642357D01*
X5192500Y-10628072D01*
X5163928Y-10613786D01*
X5578214Y-10785214D02*
X5578214Y-10485214D01*
X5706785Y-10785214D02*
X5706785Y-10628072D01*
X5692500Y-10599500D01*
X5663928Y-10585214D01*
X5621071Y-10585214D01*
X5592500Y-10599500D01*
X5578214Y-10613786D01*
X5892500Y-10785214D02*
X5863928Y-10770929D01*
X5849643Y-10756643D01*
X5835357Y-10728072D01*
X5835357Y-10642357D01*
X5849643Y-10613786D01*
X5863928Y-10599500D01*
X5892500Y-10585214D01*
X5935357Y-10585214D01*
X5963928Y-10599500D01*
X5978214Y-10613786D01*
X5992500Y-10642357D01*
X5992500Y-10728072D01*
X5978214Y-10756643D01*
X5963928Y-10770929D01*
X5935357Y-10785214D01*
X5892500Y-10785214D01*
X6163928Y-10785214D02*
X6135357Y-10770929D01*
X6121071Y-10742357D01*
X6121071Y-10485214D01*
X6392500Y-10770929D02*
X6363928Y-10785214D01*
X6306786Y-10785214D01*
X6278214Y-10770929D01*
X6263928Y-10742357D01*
X6263928Y-10628072D01*
X6278214Y-10599500D01*
X6306786Y-10585214D01*
X6363928Y-10585214D01*
X6392500Y-10599500D01*
X6406786Y-10628072D01*
X6406786Y-10656643D01*
X6263928Y-10685214D01*
X6521071Y-10770929D02*
X6549643Y-10785214D01*
X6606786Y-10785214D01*
X6635357Y-10770929D01*
X6649643Y-10742357D01*
X6649643Y-10728072D01*
X6635357Y-10699500D01*
X6606786Y-10685214D01*
X6563928Y-10685214D01*
X6535357Y-10670929D01*
X6521071Y-10642357D01*
X6521071Y-10628072D01*
X6535357Y-10599500D01*
X6563928Y-10585214D01*
X6606786Y-10585214D01*
X6635357Y-10599500D01*
X6749643Y-10899500D02*
X6763928Y-10885214D01*
X6792500Y-10842357D01*
X6806786Y-10813786D01*
X6821071Y-10770929D01*
X6835357Y-10699500D01*
X6835357Y-10642357D01*
X6821071Y-10570929D01*
X6806786Y-10528072D01*
X6792500Y-10499500D01*
X6763928Y-10456643D01*
X6749643Y-10442357D01*
X-22144Y-11080856D02*
X-22144Y-11010144D01*
X-92856Y-11010144D01*
X-92856Y-11080856D01*
X-22144Y-11080856D01*
X421071Y-11181214D02*
X249643Y-11181214D01*
X335357Y-11181214D02*
X335357Y-10881214D01*
X306786Y-10924072D01*
X278214Y-10952643D01*
X249643Y-10966929D01*
X549643Y-11152643D02*
X563929Y-11166929D01*
X549643Y-11181214D01*
X535357Y-11166929D01*
X549643Y-11152643D01*
X549643Y-11181214D01*
X749643Y-10881214D02*
X778214Y-10881214D01*
X806786Y-10895500D01*
X821071Y-10909786D01*
X835357Y-10938357D01*
X849643Y-10995500D01*
X849643Y-11066929D01*
X835357Y-11124072D01*
X821071Y-11152643D01*
X806786Y-11166929D01*
X778214Y-11181214D01*
X749643Y-11181214D01*
X721071Y-11166929D01*
X706786Y-11152643D01*
X692500Y-11124072D01*
X678214Y-11066929D01*
X678214Y-10995500D01*
X692500Y-10938357D01*
X706786Y-10909786D01*
X721071Y-10895500D01*
X749643Y-10881214D01*
X1035357Y-10881214D02*
X1063929Y-10881214D01*
X1092500Y-10895500D01*
X1106786Y-10909786D01*
X1121071Y-10938357D01*
X1135357Y-10995500D01*
X1135357Y-11066929D01*
X1121071Y-11124072D01*
X1106786Y-11152643D01*
X1092500Y-11166929D01*
X1063929Y-11181214D01*
X1035357Y-11181214D01*
X1006786Y-11166929D01*
X992500Y-11152643D01*
X978214Y-11124072D01*
X963928Y-11066929D01*
X963928Y-10995500D01*
X978214Y-10938357D01*
X992500Y-10909786D01*
X1006786Y-10895500D01*
X1035357Y-10881214D01*
X1263929Y-11181214D02*
X1263929Y-10981214D01*
X1263929Y-11009786D02*
X1278214Y-10995500D01*
X1306786Y-10981214D01*
X1349643Y-10981214D01*
X1378214Y-10995500D01*
X1392500Y-11024072D01*
X1392500Y-11181214D01*
X1392500Y-11024072D02*
X1406786Y-10995500D01*
X1435357Y-10981214D01*
X1478214Y-10981214D01*
X1506786Y-10995500D01*
X1521071Y-11024072D01*
X1521071Y-11181214D01*
X1663928Y-11181214D02*
X1663928Y-10981214D01*
X1663928Y-11009786D02*
X1678214Y-10995500D01*
X1706786Y-10981214D01*
X1749643Y-10981214D01*
X1778214Y-10995500D01*
X1792500Y-11024072D01*
X1792500Y-11181214D01*
X1792500Y-11024072D02*
X1806786Y-10995500D01*
X1835357Y-10981214D01*
X1878214Y-10981214D01*
X1906786Y-10995500D01*
X1921071Y-11024072D01*
X1921071Y-11181214D01*
X2506786Y-10866929D02*
X2249643Y-11252643D01*
X2892500Y-10881214D02*
X2921071Y-10881214D01*
X2949643Y-10895500D01*
X2963928Y-10909786D01*
X2978214Y-10938357D01*
X2992500Y-10995500D01*
X2992500Y-11066929D01*
X2978214Y-11124072D01*
X2963928Y-11152643D01*
X2949643Y-11166929D01*
X2921071Y-11181214D01*
X2892500Y-11181214D01*
X2863928Y-11166929D01*
X2849643Y-11152643D01*
X2835357Y-11124072D01*
X2821071Y-11066929D01*
X2821071Y-10995500D01*
X2835357Y-10938357D01*
X2849643Y-10909786D01*
X2863928Y-10895500D01*
X2892500Y-10881214D01*
X3121071Y-11152643D02*
X3135357Y-11166929D01*
X3121071Y-11181214D01*
X3106786Y-11166929D01*
X3121071Y-11152643D01*
X3121071Y-11181214D01*
X3321071Y-10881214D02*
X3349643Y-10881214D01*
X3378214Y-10895500D01*
X3392500Y-10909786D01*
X3406785Y-10938357D01*
X3421071Y-10995500D01*
X3421071Y-11066929D01*
X3406785Y-11124072D01*
X3392500Y-11152643D01*
X3378214Y-11166929D01*
X3349643Y-11181214D01*
X3321071Y-11181214D01*
X3292500Y-11166929D01*
X3278214Y-11152643D01*
X3263928Y-11124072D01*
X3249643Y-11066929D01*
X3249643Y-10995500D01*
X3263928Y-10938357D01*
X3278214Y-10909786D01*
X3292500Y-10895500D01*
X3321071Y-10881214D01*
X3521071Y-10881214D02*
X3706785Y-10881214D01*
X3606785Y-10995500D01*
X3649643Y-10995500D01*
X3678214Y-11009786D01*
X3692500Y-11024072D01*
X3706785Y-11052643D01*
X3706785Y-11124072D01*
X3692500Y-11152643D01*
X3678214Y-11166929D01*
X3649643Y-11181214D01*
X3563928Y-11181214D01*
X3535357Y-11166929D01*
X3521071Y-11152643D01*
X3849643Y-11181214D02*
X3906785Y-11181214D01*
X3935357Y-11166929D01*
X3949643Y-11152643D01*
X3978214Y-11109786D01*
X3992500Y-11052643D01*
X3992500Y-10938357D01*
X3978214Y-10909786D01*
X3963928Y-10895500D01*
X3935357Y-10881214D01*
X3878214Y-10881214D01*
X3849643Y-10895500D01*
X3835357Y-10909786D01*
X3821071Y-10938357D01*
X3821071Y-11009786D01*
X3835357Y-11038357D01*
X3849643Y-11052643D01*
X3878214Y-11066929D01*
X3935357Y-11066929D01*
X3963928Y-11052643D01*
X3978214Y-11038357D01*
X3992500Y-11009786D01*
X4106786Y-10881214D02*
X4106786Y-10938357D01*
X4221071Y-10881214D02*
X4221071Y-10938357D01*
X4663928Y-11295500D02*
X4649643Y-11281214D01*
X4621071Y-11238357D01*
X4606786Y-11209786D01*
X4592500Y-11166929D01*
X4578214Y-11095500D01*
X4578214Y-11038357D01*
X4592500Y-10966929D01*
X4606786Y-10924072D01*
X4621071Y-10895500D01*
X4649643Y-10852643D01*
X4663928Y-10838357D01*
X4935357Y-11181214D02*
X4763928Y-11181214D01*
X4849643Y-11181214D02*
X4849643Y-10881214D01*
X4821071Y-10924072D01*
X4792500Y-10952643D01*
X4763928Y-10966929D01*
X5078214Y-11181214D02*
X5135357Y-11181214D01*
X5163928Y-11166929D01*
X5178214Y-11152643D01*
X5206786Y-11109786D01*
X5221071Y-11052643D01*
X5221071Y-10938357D01*
X5206786Y-10909786D01*
X5192500Y-10895500D01*
X5163928Y-10881214D01*
X5106786Y-10881214D01*
X5078214Y-10895500D01*
X5063928Y-10909786D01*
X5049643Y-10938357D01*
X5049643Y-11009786D01*
X5063928Y-11038357D01*
X5078214Y-11052643D01*
X5106786Y-11066929D01*
X5163928Y-11066929D01*
X5192500Y-11052643D01*
X5206786Y-11038357D01*
X5221071Y-11009786D01*
X5578214Y-11181214D02*
X5578214Y-10881214D01*
X5706785Y-11181214D02*
X5706785Y-11024072D01*
X5692500Y-10995500D01*
X5663928Y-10981214D01*
X5621071Y-10981214D01*
X5592500Y-10995500D01*
X5578214Y-11009786D01*
X5892500Y-11181214D02*
X5863928Y-11166929D01*
X5849643Y-11152643D01*
X5835357Y-11124072D01*
X5835357Y-11038357D01*
X5849643Y-11009786D01*
X5863928Y-10995500D01*
X5892500Y-10981214D01*
X5935357Y-10981214D01*
X5963928Y-10995500D01*
X5978214Y-11009786D01*
X5992500Y-11038357D01*
X5992500Y-11124072D01*
X5978214Y-11152643D01*
X5963928Y-11166929D01*
X5935357Y-11181214D01*
X5892500Y-11181214D01*
X6163928Y-11181214D02*
X6135357Y-11166929D01*
X6121071Y-11138357D01*
X6121071Y-10881214D01*
X6392500Y-11166929D02*
X6363928Y-11181214D01*
X6306786Y-11181214D01*
X6278214Y-11166929D01*
X6263928Y-11138357D01*
X6263928Y-11024072D01*
X6278214Y-10995500D01*
X6306786Y-10981214D01*
X6363928Y-10981214D01*
X6392500Y-10995500D01*
X6406786Y-11024072D01*
X6406786Y-11052643D01*
X6263928Y-11081214D01*
X6521071Y-11166929D02*
X6549643Y-11181214D01*
X6606786Y-11181214D01*
X6635357Y-11166929D01*
X6649643Y-11138357D01*
X6649643Y-11124072D01*
X6635357Y-11095500D01*
X6606786Y-11081214D01*
X6563928Y-11081214D01*
X6535357Y-11066929D01*
X6521071Y-11038357D01*
X6521071Y-11024072D01*
X6535357Y-10995500D01*
X6563928Y-10981214D01*
X6606786Y-10981214D01*
X6635357Y-10995500D01*
X6749643Y-11295500D02*
X6763928Y-11281214D01*
X6792500Y-11238357D01*
X6806786Y-11209786D01*
X6821071Y-11166929D01*
X6835357Y-11095500D01*
X6835357Y-11038357D01*
X6821071Y-10966929D01*
X6806786Y-10924072D01*
X6792500Y-10895500D01*
X6763928Y-10852643D01*
X6749643Y-10838357D01*
X-67500Y-11501500D02*
X-7500Y-11441500D01*
X-67500Y-11381500D01*
X-127500Y-11441500D01*
X-67500Y-11501500D01*
X421071Y-11577214D02*
X249643Y-11577214D01*
X335357Y-11577214D02*
X335357Y-11277214D01*
X306786Y-11320071D01*
X278214Y-11348643D01*
X249643Y-11362929D01*
X549643Y-11548643D02*
X563929Y-11562929D01*
X549643Y-11577214D01*
X535357Y-11562929D01*
X549643Y-11548643D01*
X549643Y-11577214D01*
X678214Y-11305786D02*
X692500Y-11291500D01*
X721071Y-11277214D01*
X792500Y-11277214D01*
X821071Y-11291500D01*
X835357Y-11305786D01*
X849643Y-11334357D01*
X849643Y-11362929D01*
X835357Y-11405786D01*
X663928Y-11577214D01*
X849643Y-11577214D01*
X1035357Y-11277214D02*
X1063929Y-11277214D01*
X1092500Y-11291500D01*
X1106786Y-11305786D01*
X1121071Y-11334357D01*
X1135357Y-11391500D01*
X1135357Y-11462929D01*
X1121071Y-11520071D01*
X1106786Y-11548643D01*
X1092500Y-11562929D01*
X1063929Y-11577214D01*
X1035357Y-11577214D01*
X1006786Y-11562929D01*
X992500Y-11548643D01*
X978214Y-11520071D01*
X963928Y-11462929D01*
X963928Y-11391500D01*
X978214Y-11334357D01*
X992500Y-11305786D01*
X1006786Y-11291500D01*
X1035357Y-11277214D01*
X1263929Y-11577214D02*
X1263929Y-11377214D01*
X1263929Y-11405786D02*
X1278214Y-11391500D01*
X1306786Y-11377214D01*
X1349643Y-11377214D01*
X1378214Y-11391500D01*
X1392500Y-11420071D01*
X1392500Y-11577214D01*
X1392500Y-11420071D02*
X1406786Y-11391500D01*
X1435357Y-11377214D01*
X1478214Y-11377214D01*
X1506786Y-11391500D01*
X1521071Y-11420071D01*
X1521071Y-11577214D01*
X1663928Y-11577214D02*
X1663928Y-11377214D01*
X1663928Y-11405786D02*
X1678214Y-11391500D01*
X1706786Y-11377214D01*
X1749643Y-11377214D01*
X1778214Y-11391500D01*
X1792500Y-11420071D01*
X1792500Y-11577214D01*
X1792500Y-11420071D02*
X1806786Y-11391500D01*
X1835357Y-11377214D01*
X1878214Y-11377214D01*
X1906786Y-11391500D01*
X1921071Y-11420071D01*
X1921071Y-11577214D01*
X2506786Y-11262929D02*
X2249643Y-11648643D01*
X2892500Y-11277214D02*
X2921071Y-11277214D01*
X2949643Y-11291500D01*
X2963928Y-11305786D01*
X2978214Y-11334357D01*
X2992500Y-11391500D01*
X2992500Y-11462929D01*
X2978214Y-11520071D01*
X2963928Y-11548643D01*
X2949643Y-11562929D01*
X2921071Y-11577214D01*
X2892500Y-11577214D01*
X2863928Y-11562929D01*
X2849643Y-11548643D01*
X2835357Y-11520071D01*
X2821071Y-11462929D01*
X2821071Y-11391500D01*
X2835357Y-11334357D01*
X2849643Y-11305786D01*
X2863928Y-11291500D01*
X2892500Y-11277214D01*
X3121071Y-11548643D02*
X3135357Y-11562929D01*
X3121071Y-11577214D01*
X3106786Y-11562929D01*
X3121071Y-11548643D01*
X3121071Y-11577214D01*
X3321071Y-11277214D02*
X3349643Y-11277214D01*
X3378214Y-11291500D01*
X3392500Y-11305786D01*
X3406785Y-11334357D01*
X3421071Y-11391500D01*
X3421071Y-11462929D01*
X3406785Y-11520071D01*
X3392500Y-11548643D01*
X3378214Y-11562929D01*
X3349643Y-11577214D01*
X3321071Y-11577214D01*
X3292500Y-11562929D01*
X3278214Y-11548643D01*
X3263928Y-11520071D01*
X3249643Y-11462929D01*
X3249643Y-11391500D01*
X3263928Y-11334357D01*
X3278214Y-11305786D01*
X3292500Y-11291500D01*
X3321071Y-11277214D01*
X3678214Y-11377214D02*
X3678214Y-11577214D01*
X3606785Y-11262929D02*
X3535357Y-11477214D01*
X3721071Y-11477214D01*
X3806785Y-11277214D02*
X4006785Y-11277214D01*
X3878214Y-11577214D01*
X4106786Y-11277214D02*
X4106786Y-11334357D01*
X4221071Y-11277214D02*
X4221071Y-11334357D01*
X4663928Y-11691500D02*
X4649643Y-11677214D01*
X4621071Y-11634357D01*
X4606786Y-11605786D01*
X4592500Y-11562929D01*
X4578214Y-11491500D01*
X4578214Y-11434357D01*
X4592500Y-11362929D01*
X4606786Y-11320071D01*
X4621071Y-11291500D01*
X4649643Y-11248643D01*
X4663928Y-11234357D01*
X4749643Y-11277214D02*
X4949643Y-11277214D01*
X4821071Y-11577214D01*
X5192500Y-11277214D02*
X5135357Y-11277214D01*
X5106786Y-11291500D01*
X5092500Y-11305786D01*
X5063928Y-11348643D01*
X5049643Y-11405786D01*
X5049643Y-11520071D01*
X5063928Y-11548643D01*
X5078214Y-11562929D01*
X5106786Y-11577214D01*
X5163928Y-11577214D01*
X5192500Y-11562929D01*
X5206786Y-11548643D01*
X5221071Y-11520071D01*
X5221071Y-11448643D01*
X5206786Y-11420071D01*
X5192500Y-11405786D01*
X5163928Y-11391500D01*
X5106786Y-11391500D01*
X5078214Y-11405786D01*
X5063928Y-11420071D01*
X5049643Y-11448643D01*
X5578214Y-11577214D02*
X5578214Y-11277214D01*
X5706785Y-11577214D02*
X5706785Y-11420071D01*
X5692500Y-11391500D01*
X5663928Y-11377214D01*
X5621071Y-11377214D01*
X5592500Y-11391500D01*
X5578214Y-11405786D01*
X5892500Y-11577214D02*
X5863928Y-11562929D01*
X5849643Y-11548643D01*
X5835357Y-11520071D01*
X5835357Y-11434357D01*
X5849643Y-11405786D01*
X5863928Y-11391500D01*
X5892500Y-11377214D01*
X5935357Y-11377214D01*
X5963928Y-11391500D01*
X5978214Y-11405786D01*
X5992500Y-11434357D01*
X5992500Y-11520071D01*
X5978214Y-11548643D01*
X5963928Y-11562929D01*
X5935357Y-11577214D01*
X5892500Y-11577214D01*
X6163928Y-11577214D02*
X6135357Y-11562929D01*
X6121071Y-11534357D01*
X6121071Y-11277214D01*
X6392500Y-11562929D02*
X6363928Y-11577214D01*
X6306786Y-11577214D01*
X6278214Y-11562929D01*
X6263928Y-11534357D01*
X6263928Y-11420071D01*
X6278214Y-11391500D01*
X6306786Y-11377214D01*
X6363928Y-11377214D01*
X6392500Y-11391500D01*
X6406786Y-11420071D01*
X6406786Y-11448643D01*
X6263928Y-11477214D01*
X6521071Y-11562929D02*
X6549643Y-11577214D01*
X6606786Y-11577214D01*
X6635357Y-11562929D01*
X6649643Y-11534357D01*
X6649643Y-11520071D01*
X6635357Y-11491500D01*
X6606786Y-11477214D01*
X6563928Y-11477214D01*
X6535357Y-11462929D01*
X6521071Y-11434357D01*
X6521071Y-11420071D01*
X6535357Y-11391500D01*
X6563928Y-11377214D01*
X6606786Y-11377214D01*
X6635357Y-11391500D01*
X6749643Y-11691500D02*
X6763928Y-11677214D01*
X6792500Y-11634357D01*
X6806786Y-11605786D01*
X6821071Y-11562929D01*
X6835357Y-11491500D01*
X6835357Y-11434357D01*
X6821071Y-11362929D01*
X6806786Y-11320071D01*
X6792500Y-11291500D01*
X6763928Y-11248643D01*
X6749643Y-11234357D01*
X-557500Y-11562500D02*
X-7500Y-12112500D01*
X-7500Y-11562500D02*
X-557500Y-12112500D01*
X-7500Y-11837500D02*
G75*
G03X-7500Y-11837500I-275000J0D01*
G01*
X406786Y-11673214D02*
X263929Y-11673214D01*
X249643Y-11816071D01*
X263929Y-11801786D01*
X292500Y-11787500D01*
X363928Y-11787500D01*
X392500Y-11801786D01*
X406786Y-11816071D01*
X421071Y-11844643D01*
X421071Y-11916071D01*
X406786Y-11944643D01*
X392500Y-11958929D01*
X363928Y-11973214D01*
X292500Y-11973214D01*
X263929Y-11958929D01*
X249643Y-11944643D01*
X549643Y-11944643D02*
X563929Y-11958929D01*
X549643Y-11973214D01*
X535357Y-11958929D01*
X549643Y-11944643D01*
X549643Y-11973214D01*
X835357Y-11673214D02*
X692500Y-11673214D01*
X678214Y-11816071D01*
X692500Y-11801786D01*
X721071Y-11787500D01*
X792500Y-11787500D01*
X821071Y-11801786D01*
X835357Y-11816071D01*
X849643Y-11844643D01*
X849643Y-11916071D01*
X835357Y-11944643D01*
X821071Y-11958929D01*
X792500Y-11973214D01*
X721071Y-11973214D01*
X692500Y-11958929D01*
X678214Y-11944643D01*
X1035357Y-11673214D02*
X1063929Y-11673214D01*
X1092500Y-11687500D01*
X1106786Y-11701786D01*
X1121071Y-11730357D01*
X1135357Y-11787500D01*
X1135357Y-11858929D01*
X1121071Y-11916071D01*
X1106786Y-11944643D01*
X1092500Y-11958929D01*
X1063929Y-11973214D01*
X1035357Y-11973214D01*
X1006786Y-11958929D01*
X992500Y-11944643D01*
X978214Y-11916071D01*
X963928Y-11858929D01*
X963928Y-11787500D01*
X978214Y-11730357D01*
X992500Y-11701786D01*
X1006786Y-11687500D01*
X1035357Y-11673214D01*
X1263929Y-11973214D02*
X1263929Y-11773214D01*
X1263929Y-11801786D02*
X1278214Y-11787500D01*
X1306786Y-11773214D01*
X1349643Y-11773214D01*
X1378214Y-11787500D01*
X1392500Y-11816071D01*
X1392500Y-11973214D01*
X1392500Y-11816071D02*
X1406786Y-11787500D01*
X1435357Y-11773214D01*
X1478214Y-11773214D01*
X1506786Y-11787500D01*
X1521071Y-11816071D01*
X1521071Y-11973214D01*
X1663928Y-11973214D02*
X1663928Y-11773214D01*
X1663928Y-11801786D02*
X1678214Y-11787500D01*
X1706786Y-11773214D01*
X1749643Y-11773214D01*
X1778214Y-11787500D01*
X1792500Y-11816071D01*
X1792500Y-11973214D01*
X1792500Y-11816071D02*
X1806786Y-11787500D01*
X1835357Y-11773214D01*
X1878214Y-11773214D01*
X1906786Y-11787500D01*
X1921071Y-11816071D01*
X1921071Y-11973214D01*
X2506786Y-11658929D02*
X2249643Y-12044643D01*
X2892500Y-11673214D02*
X2921071Y-11673214D01*
X2949643Y-11687500D01*
X2963928Y-11701786D01*
X2978214Y-11730357D01*
X2992500Y-11787500D01*
X2992500Y-11858929D01*
X2978214Y-11916071D01*
X2963928Y-11944643D01*
X2949643Y-11958929D01*
X2921071Y-11973214D01*
X2892500Y-11973214D01*
X2863928Y-11958929D01*
X2849643Y-11944643D01*
X2835357Y-11916071D01*
X2821071Y-11858929D01*
X2821071Y-11787500D01*
X2835357Y-11730357D01*
X2849643Y-11701786D01*
X2863928Y-11687500D01*
X2892500Y-11673214D01*
X3121071Y-11944643D02*
X3135357Y-11958929D01*
X3121071Y-11973214D01*
X3106786Y-11958929D01*
X3121071Y-11944643D01*
X3121071Y-11973214D01*
X3249643Y-11701786D02*
X3263928Y-11687500D01*
X3292500Y-11673214D01*
X3363928Y-11673214D01*
X3392500Y-11687500D01*
X3406785Y-11701786D01*
X3421071Y-11730357D01*
X3421071Y-11758929D01*
X3406785Y-11801786D01*
X3235357Y-11973214D01*
X3421071Y-11973214D01*
X3706785Y-11973214D02*
X3535357Y-11973214D01*
X3621071Y-11973214D02*
X3621071Y-11673214D01*
X3592500Y-11716071D01*
X3563928Y-11744643D01*
X3535357Y-11758929D01*
X3806785Y-11673214D02*
X4006785Y-11673214D01*
X3878214Y-11973214D01*
X4106786Y-11673214D02*
X4106786Y-11730357D01*
X4221071Y-11673214D02*
X4221071Y-11730357D01*
X4663928Y-12087500D02*
X4649643Y-12073214D01*
X4621071Y-12030357D01*
X4606786Y-12001786D01*
X4592500Y-11958929D01*
X4578214Y-11887500D01*
X4578214Y-11830357D01*
X4592500Y-11758929D01*
X4606786Y-11716071D01*
X4621071Y-11687500D01*
X4649643Y-11644643D01*
X4663928Y-11630357D01*
X4906786Y-11773214D02*
X4906786Y-11973214D01*
X4835357Y-11658929D02*
X4763928Y-11873214D01*
X4949643Y-11873214D01*
X5292500Y-11973214D02*
X5292500Y-11673214D01*
X5421071Y-11973214D02*
X5421071Y-11816071D01*
X5406786Y-11787500D01*
X5378214Y-11773214D01*
X5335357Y-11773214D01*
X5306786Y-11787500D01*
X5292500Y-11801786D01*
X5606785Y-11973214D02*
X5578214Y-11958929D01*
X5563928Y-11944643D01*
X5549643Y-11916071D01*
X5549643Y-11830357D01*
X5563928Y-11801786D01*
X5578214Y-11787500D01*
X5606785Y-11773214D01*
X5649643Y-11773214D01*
X5678214Y-11787500D01*
X5692500Y-11801786D01*
X5706785Y-11830357D01*
X5706785Y-11916071D01*
X5692500Y-11944643D01*
X5678214Y-11958929D01*
X5649643Y-11973214D01*
X5606785Y-11973214D01*
X5878214Y-11973214D02*
X5849643Y-11958929D01*
X5835357Y-11930357D01*
X5835357Y-11673214D01*
X6106786Y-11958929D02*
X6078214Y-11973214D01*
X6021071Y-11973214D01*
X5992500Y-11958929D01*
X5978214Y-11930357D01*
X5978214Y-11816071D01*
X5992500Y-11787500D01*
X6021071Y-11773214D01*
X6078214Y-11773214D01*
X6106786Y-11787500D01*
X6121071Y-11816071D01*
X6121071Y-11844643D01*
X5978214Y-11873214D01*
X6235357Y-11958929D02*
X6263928Y-11973214D01*
X6321071Y-11973214D01*
X6349643Y-11958929D01*
X6363928Y-11930357D01*
X6363928Y-11916071D01*
X6349643Y-11887500D01*
X6321071Y-11873214D01*
X6278214Y-11873214D01*
X6249643Y-11858929D01*
X6235357Y-11830357D01*
X6235357Y-11816071D01*
X6249643Y-11787500D01*
X6278214Y-11773214D01*
X6321071Y-11773214D01*
X6349643Y-11787500D01*
X6463928Y-12087500D02*
X6478214Y-12073214D01*
X6506786Y-12030357D01*
X6521071Y-12001786D01*
X6535357Y-11958929D01*
X6549643Y-11887500D01*
X6549643Y-11830357D01*
X6535357Y-11758929D01*
X6521071Y-11716071D01*
X6506786Y-11687500D01*
X6478214Y-11644643D01*
X6463928Y-11630357D01*
M02*
