M48
;DRILL file {KiCad 4.0.4-stable} date Wednesday, January 04, 2017 'PMt' 09:21:16 PM
;FORMAT={-:-/ absolute / metric / decimal}
FMAT,2
METRIC,TZ
T1C0.400
T2C0.600
T3C0.762
T4C1.000
T5C1.200
T6C5.500
%
G90
G05
M71
T1
X16.475Y-28.35
X16.475Y-35.35
X16.475Y-63.35
X16.5Y-21.35
X16.5Y-42.35
X16.5Y-49.35
X16.5Y-56.35
X19.7Y-65.22
X22.Y-63.15
X22.65Y-17.85
X23.41Y-55.02
X24.Y-25.37
X24.13Y-33.09
X24.28Y-39.63
X24.53Y-48.62
X31.6Y-26.8
X33.99Y-42.05
X36.96Y-32.675
X43.99Y-69.55
X46.96Y-60.175
X52.32Y-0.79
X54.73Y-42.04
X56.17Y-73.34
X56.17Y-76.65
X56.19Y-6.27
X57.7Y-32.665
X62.41Y-69.52
X65.38Y-60.145
X70.17Y-0.83
X71.03Y-42.01
X73.02Y-28.26
X73.93Y-24.75
X74.Y-32.635
X74.56Y-72.69
X74.56Y-76.97
X74.8Y-6.17
X81.03Y-69.51
X84.Y-60.135
X88.76Y-0.81
X91.77Y-42.
X92.95Y-72.5
X92.99Y-77.39
X93.3Y-5.94
X93.64Y-28.9
X94.63Y-24.8
X94.74Y-32.625
X99.45Y-69.48
X102.42Y-60.105
X106.92Y-0.86
X108.18Y-41.97
X110.11Y-28.5
X111.15Y-32.595
X111.16Y-24.7
X111.98Y-5.09
X111.99Y-72.36
X112.04Y-77.43
X118.18Y-69.47
X121.15Y-60.095
X125.75Y-0.91
X128.92Y-41.96
X130.3Y-6.36
X130.43Y-72.
X130.43Y-77.54
X130.98Y-28.36
X131.8Y-24.41
X131.89Y-32.585
X136.6Y-69.44
X139.57Y-60.065
X144.38Y-0.88
X145.22Y-41.93
X147.11Y-29.69
X148.06Y-24.31
X148.19Y-32.555
X148.54Y-71.37
X148.63Y-77.51
X148.87Y-6.19
X155.22Y-69.43
X158.19Y-60.055
X162.74Y-0.79
X165.96Y-41.92
X167.4Y-6.3
X167.45Y-73.15
X167.45Y-76.92
X168.04Y-29.07
X168.83Y-24.41
X168.93Y-32.545
X173.64Y-69.4
X176.61Y-60.025
T2
X2.925Y-7.025
X2.95Y-81.725
X4.123Y-4.098
X4.123Y-9.952
X4.148Y-78.798
X4.148Y-84.652
X7.05Y-2.9
X7.05Y-11.15
X7.075Y-77.6
X7.075Y-85.85
X9.977Y-4.098
X9.977Y-9.952
X10.002Y-78.798
X10.002Y-84.652
X11.175Y-7.025
X11.2Y-81.725
X191.923Y-81.723
X191.95Y-7.075
X193.121Y-78.796
X193.121Y-84.65
X193.148Y-4.148
X193.148Y-10.002
X196.048Y-77.598
X196.048Y-85.848
X196.075Y-2.95
X196.075Y-11.2
X198.975Y-78.796
X198.975Y-84.65
X199.002Y-4.148
X199.002Y-10.002
X200.173Y-81.723
X200.2Y-7.075
T3
X33.44Y-24.02
X33.44Y-26.56
X33.44Y-29.1
X42.97Y-24.02
X42.97Y-26.56
X42.97Y-29.1
X43.44Y-51.52
X43.44Y-54.06
X43.44Y-56.6
X52.97Y-51.52
X52.97Y-54.06
X52.97Y-56.6
X54.18Y-24.01
X54.18Y-26.55
X54.18Y-29.09
X61.86Y-51.49
X61.86Y-54.03
X61.86Y-56.57
X63.71Y-24.01
X63.71Y-26.55
X63.71Y-29.09
X70.48Y-23.98
X70.48Y-26.52
X70.48Y-29.06
X71.39Y-51.49
X71.39Y-54.03
X71.39Y-56.57
X80.01Y-23.98
X80.01Y-26.52
X80.01Y-29.06
X80.48Y-51.48
X80.48Y-54.02
X80.48Y-56.56
X90.01Y-51.48
X90.01Y-54.02
X90.01Y-56.56
X91.22Y-23.97
X91.22Y-26.51
X91.22Y-29.05
X98.9Y-51.45
X98.9Y-53.99
X98.9Y-56.53
X100.75Y-23.97
X100.75Y-26.51
X100.75Y-29.05
X107.63Y-23.94
X107.63Y-26.48
X107.63Y-29.02
X108.43Y-51.45
X108.43Y-53.99
X108.43Y-56.53
X117.16Y-23.94
X117.16Y-26.48
X117.16Y-29.02
X117.63Y-51.44
X117.63Y-53.98
X117.63Y-56.52
X127.16Y-51.44
X127.16Y-53.98
X127.16Y-56.52
X128.37Y-23.93
X128.37Y-26.47
X128.37Y-29.01
X136.05Y-51.41
X136.05Y-53.95
X136.05Y-56.49
X137.9Y-23.93
X137.9Y-26.47
X137.9Y-29.01
X144.67Y-23.9
X144.67Y-26.44
X144.67Y-28.98
X145.58Y-51.41
X145.58Y-53.95
X145.58Y-56.49
X154.2Y-23.9
X154.2Y-26.44
X154.2Y-28.98
X154.67Y-51.4
X154.67Y-53.94
X154.67Y-56.48
X164.2Y-51.4
X164.2Y-53.94
X164.2Y-56.48
X165.41Y-23.89
X165.41Y-26.43
X165.41Y-28.97
X173.09Y-51.37
X173.09Y-53.91
X173.09Y-56.45
X174.94Y-23.89
X174.94Y-26.43
X174.94Y-28.97
X182.62Y-51.37
X182.62Y-53.91
X182.62Y-56.45
T4
X27.91Y-7.53
X32.89Y-60.06
X34.48Y-6.82
X35.1Y-56.65
T5
X8.Y-17.85
X8.Y-21.35
X8.Y-24.85
X8.Y-28.35
X8.Y-31.85
X8.Y-35.35
X8.Y-38.85
X8.Y-42.35
X8.Y-45.85
X8.Y-49.35
X8.Y-52.85
X8.Y-56.35
X8.Y-59.85
X8.Y-63.35
X8.Y-66.85
X8.Y-70.35
X20.225Y-8.
X23.725Y-8.
X40.25Y-80.9
X40.425Y-7.975
X43.75Y-80.9
X43.925Y-7.975
X49.65Y-80.9
X49.725Y-7.975
X53.15Y-80.9
X53.225Y-7.975
X58.925Y-80.9
X59.075Y-7.975
X62.425Y-80.9
X62.575Y-7.975
X68.15Y-80.9
X68.4Y-7.975
X71.65Y-80.9
X71.9Y-7.975
X77.425Y-80.9
X77.675Y-7.975
X80.925Y-80.9
X81.175Y-7.975
X86.7Y-80.9
X86.95Y-7.975
X90.2Y-80.9
X90.45Y-7.975
X96.Y-80.9
X96.225Y-7.975
X99.5Y-80.9
X99.725Y-7.975
X105.325Y-80.9
X105.5Y-7.975
X108.825Y-80.9
X109.Y-7.975
X114.625Y-80.9
X114.8Y-7.975
X118.125Y-80.9
X118.3Y-7.975
X123.875Y-80.9
X124.025Y-7.975
X127.375Y-80.9
X127.525Y-7.975
X133.15Y-80.9
X133.25Y-7.975
X136.65Y-80.9
X136.75Y-7.975
X142.4Y-80.9
X142.525Y-7.975
X145.9Y-80.9
X146.025Y-7.975
X151.625Y-80.9
X151.8Y-7.975
X155.125Y-80.9
X155.3Y-7.975
X160.875Y-80.9
X161.05Y-7.975
X164.375Y-80.9
X164.55Y-7.975
X170.125Y-80.9
X170.3Y-7.975
X173.625Y-80.9
X173.8Y-7.975
X179.375Y-80.9
X179.55Y-7.975
X182.875Y-80.9
X183.05Y-7.975
T6
X7.05Y-7.025
X7.075Y-81.725
X196.048Y-81.723
X196.075Y-7.075
T0
M30
