G04 #@! TF.GenerationSoftware,KiCad,Pcbnew,(5.1.2-1)-1*
G04 #@! TF.CreationDate,2019-06-05T16:30:21-02:30*
G04 #@! TF.ProjectId,BeagleCape V2,42656167-6c65-4436-9170-652056322e6b,rev?*
G04 #@! TF.SameCoordinates,Original*
G04 #@! TF.FileFunction,Soldermask,Top*
G04 #@! TF.FilePolarity,Negative*
%FSLAX46Y46*%
G04 Gerber Fmt 4.6, Leading zero omitted, Abs format (unit mm)*
G04 Created by KiCad (PCBNEW (5.1.2-1)-1) date 2019-06-05 16:30:21*
%MOMM*%
%LPD*%
G04 APERTURE LIST*
%ADD10R,1.727200X1.727200*%
%ADD11O,1.727200X1.727200*%
%ADD12O,2.000000X1.200000*%
%ADD13R,2.200000X1.143000*%
%ADD14R,1.250000X1.000000*%
%ADD15R,0.700000X1.300000*%
%ADD16R,1.000000X1.250000*%
%ADD17R,1.300000X0.700000*%
%ADD18R,0.650000X1.220000*%
%ADD19C,1.397000*%
%ADD20C,1.899920*%
%ADD21C,2.032000*%
%ADD22R,1.899920X1.899920*%
%ADD23C,3.000000*%
%ADD24R,3.000000X3.000000*%
%ADD25C,0.102000*%
%ADD26C,0.100000*%
%ADD27C,0.302000*%
%ADD28C,0.402000*%
%ADD29R,1.550000X0.600000*%
%ADD30C,2.500000*%
%ADD31C,4.400000*%
G04 APERTURE END LIST*
D10*
X164630100Y-62382400D03*
D11*
X167170100Y-62382400D03*
X164630100Y-64922400D03*
X167170100Y-64922400D03*
X164630100Y-67462400D03*
X167170100Y-67462400D03*
X164630100Y-70002400D03*
X167170100Y-70002400D03*
X164630100Y-72542400D03*
X167170100Y-72542400D03*
X164630100Y-75082400D03*
X167170100Y-75082400D03*
X164630100Y-77622400D03*
X167170100Y-77622400D03*
X164630100Y-80162400D03*
X167170100Y-80162400D03*
X164630100Y-82702400D03*
X167170100Y-82702400D03*
X164630100Y-85242400D03*
X167170100Y-85242400D03*
X164630100Y-87782400D03*
X167170100Y-87782400D03*
X164630100Y-90322400D03*
X167170100Y-90322400D03*
X164630100Y-92862400D03*
X167170100Y-92862400D03*
X164630100Y-95402400D03*
X167170100Y-95402400D03*
X164630100Y-97942400D03*
X167170100Y-97942400D03*
X164630100Y-100482400D03*
X167170100Y-100482400D03*
X164630100Y-103022400D03*
X167170100Y-103022400D03*
X164630100Y-105562400D03*
X167170100Y-105562400D03*
X164630100Y-108102400D03*
X167170100Y-108102400D03*
X164630100Y-110642400D03*
X167170100Y-110642400D03*
X164630100Y-113182400D03*
X167170100Y-113182400D03*
X164630100Y-115722400D03*
X167170100Y-115722400D03*
X164630100Y-118262400D03*
X167170100Y-118262400D03*
D10*
X116370100Y-62382400D03*
D11*
X118910100Y-62382400D03*
X116370100Y-64922400D03*
X118910100Y-64922400D03*
X116370100Y-67462400D03*
X118910100Y-67462400D03*
X116370100Y-70002400D03*
X118910100Y-70002400D03*
X116370100Y-72542400D03*
X118910100Y-72542400D03*
X116370100Y-75082400D03*
X118910100Y-75082400D03*
X116370100Y-77622400D03*
X118910100Y-77622400D03*
X116370100Y-80162400D03*
X118910100Y-80162400D03*
X116370100Y-82702400D03*
X118910100Y-82702400D03*
X116370100Y-85242400D03*
X118910100Y-85242400D03*
X116370100Y-87782400D03*
X118910100Y-87782400D03*
X116370100Y-90322400D03*
X118910100Y-90322400D03*
X116370100Y-92862400D03*
X118910100Y-92862400D03*
X116370100Y-95402400D03*
X118910100Y-95402400D03*
X116370100Y-97942400D03*
X118910100Y-97942400D03*
X116370100Y-100482400D03*
X118910100Y-100482400D03*
X116370100Y-103022400D03*
X118910100Y-103022400D03*
X116370100Y-105562400D03*
X118910100Y-105562400D03*
X116370100Y-108102400D03*
X118910100Y-108102400D03*
X116370100Y-110642400D03*
X118910100Y-110642400D03*
X116370100Y-113182400D03*
X118910100Y-113182400D03*
X116370100Y-115722400D03*
X118910100Y-115722400D03*
X116370100Y-118262400D03*
X118910100Y-118262400D03*
D12*
X140910100Y-68572400D03*
X127830100Y-68572400D03*
X140910100Y-71112400D03*
X127830100Y-71112400D03*
X140910100Y-73652400D03*
X127830100Y-73652400D03*
X140910100Y-76192400D03*
X127830100Y-76192400D03*
D13*
X158070100Y-68572400D03*
X148670100Y-68572400D03*
X158070100Y-71112400D03*
X148670100Y-71112400D03*
X158070100Y-73652400D03*
X148670100Y-73652400D03*
X158070100Y-76192400D03*
X148670100Y-76192400D03*
D14*
X124545100Y-68782400D03*
X124545100Y-70782400D03*
X145370100Y-70382400D03*
X145370100Y-68382400D03*
D15*
X125320100Y-82382400D03*
X123420100Y-82382400D03*
X123420100Y-85382400D03*
X125320100Y-85382400D03*
X145545100Y-79257400D03*
X143645100Y-79257400D03*
X143645100Y-82257400D03*
X145545100Y-82257400D03*
X123420100Y-79382400D03*
X125320100Y-79382400D03*
X125320100Y-88382400D03*
X123420100Y-88382400D03*
D16*
X160370100Y-52632400D03*
X158370100Y-52632400D03*
D17*
X159870100Y-61682400D03*
X159870100Y-63582400D03*
X156870100Y-63632400D03*
X156870100Y-61732400D03*
D18*
X161020100Y-58252400D03*
X159120100Y-58252400D03*
X159120100Y-55632400D03*
X160070100Y-55632400D03*
X161020100Y-55632400D03*
D19*
X148830100Y-110092400D03*
D20*
X153910100Y-107552400D03*
X153910100Y-110092400D03*
D21*
X153910100Y-112632400D03*
D20*
X153910100Y-115172400D03*
X153910100Y-117712400D03*
X148830100Y-117712400D03*
X148830100Y-115172400D03*
X148830100Y-112632400D03*
X148830100Y-110092400D03*
D22*
X148830100Y-107552400D03*
D14*
X124370100Y-94382400D03*
X124370100Y-96382400D03*
D23*
X142620100Y-121182400D03*
X142620100Y-108382400D03*
D24*
X142620100Y-113882400D03*
D23*
X130520100Y-121182400D03*
X128420100Y-108382400D03*
X132620100Y-108382400D03*
X128420100Y-113882400D03*
D24*
X132620100Y-113882400D03*
D25*
X137870100Y-94442400D03*
D26*
G36*
X138276262Y-94493400D02*
G01*
X137463938Y-94493400D01*
X137769938Y-94391400D01*
X137970262Y-94391400D01*
X138276262Y-94493400D01*
X138276262Y-94493400D01*
G37*
D27*
X137870100Y-94642400D03*
D26*
G36*
X138572514Y-94793400D02*
G01*
X137167686Y-94793400D01*
X137469686Y-94491400D01*
X138270514Y-94491400D01*
X138572514Y-94793400D01*
X138572514Y-94793400D01*
G37*
D28*
X137870100Y-94992400D03*
D26*
G36*
X138721543Y-95193400D02*
G01*
X137018657Y-95193400D01*
X137169407Y-94791400D01*
X138570793Y-94791400D01*
X138721543Y-95193400D01*
X138721543Y-95193400D01*
G37*
D28*
X137870100Y-95772400D03*
D26*
G36*
X137018657Y-95571400D02*
G01*
X138721543Y-95571400D01*
X138570793Y-95973400D01*
X137169407Y-95973400D01*
X137018657Y-95571400D01*
X137018657Y-95571400D01*
G37*
D27*
X137870100Y-96122400D03*
D26*
G36*
X137167686Y-95971400D02*
G01*
X138572514Y-95971400D01*
X138270514Y-96273400D01*
X137469686Y-96273400D01*
X137167686Y-95971400D01*
X137167686Y-95971400D01*
G37*
D25*
X137870100Y-96322400D03*
D26*
G36*
X137463938Y-96271400D02*
G01*
X138276262Y-96271400D01*
X137970262Y-96373400D01*
X137769938Y-96373400D01*
X137463938Y-96271400D01*
X137463938Y-96271400D01*
G37*
D17*
X135370100Y-94482400D03*
X135370100Y-96382400D03*
D15*
X159420100Y-104382400D03*
X161320100Y-104382400D03*
X161270100Y-113382400D03*
X159370100Y-113382400D03*
X159420100Y-119382400D03*
X161320100Y-119382400D03*
X156820100Y-122882400D03*
X154920100Y-122882400D03*
X159420100Y-116382400D03*
X161320100Y-116382400D03*
X161320100Y-107382400D03*
X159420100Y-107382400D03*
X159420100Y-110382400D03*
X161320100Y-110382400D03*
X156820100Y-125882400D03*
X154920100Y-125882400D03*
D29*
X127170100Y-93477400D03*
X127170100Y-94747400D03*
X127170100Y-96017400D03*
X127170100Y-97287400D03*
X132570100Y-97287400D03*
X132570100Y-96017400D03*
X132570100Y-94747400D03*
X132570100Y-93477400D03*
D30*
X132295100Y-89757400D03*
D31*
X165870100Y-57482400D03*
X117570100Y-57482400D03*
X120770100Y-123182400D03*
X162670100Y-123182400D03*
M02*
