G04 #@! TF.GenerationSoftware,KiCad,Pcbnew,(5.1.2-1)-1*
G04 #@! TF.CreationDate,2019-06-05T16:30:21-02:30*
G04 #@! TF.ProjectId,BeagleCape V2,42656167-6c65-4436-9170-652056322e6b,rev?*
G04 #@! TF.SameCoordinates,Original*
G04 #@! TF.FileFunction,Paste,Top*
G04 #@! TF.FilePolarity,Positive*
%FSLAX46Y46*%
G04 Gerber Fmt 4.6, Leading zero omitted, Abs format (unit mm)*
G04 Created by KiCad (PCBNEW (5.1.2-1)-1) date 2019-06-05 16:30:21*
%MOMM*%
%LPD*%
G04 APERTURE LIST*
%ADD10R,2.200000X1.143000*%
%ADD11R,1.250000X1.000000*%
%ADD12R,0.700000X1.300000*%
%ADD13R,1.000000X1.250000*%
%ADD14R,1.300000X0.700000*%
%ADD15R,0.650000X1.220000*%
%ADD16R,1.550000X0.600000*%
G04 APERTURE END LIST*
D10*
X158070100Y-68572400D03*
X148670100Y-68572400D03*
X158070100Y-71112400D03*
X148670100Y-71112400D03*
X158070100Y-73652400D03*
X148670100Y-73652400D03*
X158070100Y-76192400D03*
X148670100Y-76192400D03*
D11*
X124545100Y-68782400D03*
X124545100Y-70782400D03*
X145370100Y-70382400D03*
X145370100Y-68382400D03*
D12*
X125320100Y-82382400D03*
X123420100Y-82382400D03*
X123420100Y-85382400D03*
X125320100Y-85382400D03*
X145545100Y-79257400D03*
X143645100Y-79257400D03*
X143645100Y-82257400D03*
X145545100Y-82257400D03*
X123420100Y-79382400D03*
X125320100Y-79382400D03*
X125320100Y-88382400D03*
X123420100Y-88382400D03*
D13*
X160370100Y-52632400D03*
X158370100Y-52632400D03*
D14*
X159870100Y-61682400D03*
X159870100Y-63582400D03*
X156870100Y-63632400D03*
X156870100Y-61732400D03*
D15*
X161020100Y-58252400D03*
X159120100Y-58252400D03*
X159120100Y-55632400D03*
X160070100Y-55632400D03*
X161020100Y-55632400D03*
D11*
X124370100Y-94382400D03*
X124370100Y-96382400D03*
D14*
X135370100Y-94482400D03*
X135370100Y-96382400D03*
D12*
X159420100Y-104382400D03*
X161320100Y-104382400D03*
X161270100Y-113382400D03*
X159370100Y-113382400D03*
X159420100Y-119382400D03*
X161320100Y-119382400D03*
X156820100Y-122882400D03*
X154920100Y-122882400D03*
X159420100Y-116382400D03*
X161320100Y-116382400D03*
X161320100Y-107382400D03*
X159420100Y-107382400D03*
X159420100Y-110382400D03*
X161320100Y-110382400D03*
X156820100Y-125882400D03*
X154920100Y-125882400D03*
D16*
X127170100Y-93477400D03*
X127170100Y-94747400D03*
X127170100Y-96017400D03*
X127170100Y-97287400D03*
X132570100Y-97287400D03*
X132570100Y-96017400D03*
X132570100Y-94747400D03*
X132570100Y-93477400D03*
M02*
