G04 #@! TF.GenerationSoftware,KiCad,Pcbnew,(5.1.2-1)-1*
G04 #@! TF.CreationDate,2019-06-05T16:30:21-02:30*
G04 #@! TF.ProjectId,BeagleCape V2,42656167-6c65-4436-9170-652056322e6b,rev?*
G04 #@! TF.SameCoordinates,Original*
G04 #@! TF.FileFunction,Copper,L1,Top*
G04 #@! TF.FilePolarity,Positive*
%FSLAX46Y46*%
G04 Gerber Fmt 4.6, Leading zero omitted, Abs format (unit mm)*
G04 Created by KiCad (PCBNEW (5.1.2-1)-1) date 2019-06-05 16:30:21*
%MOMM*%
%LPD*%
G04 APERTURE LIST*
%ADD10R,1.727200X1.727200*%
%ADD11O,1.727200X1.727200*%
%ADD12O,2.000000X1.200000*%
%ADD13R,2.200000X1.143000*%
%ADD14R,1.250000X1.000000*%
%ADD15R,0.700000X1.300000*%
%ADD16R,1.000000X1.250000*%
%ADD17R,1.300000X0.700000*%
%ADD18R,0.650000X1.220000*%
%ADD19C,1.397000*%
%ADD20C,1.899920*%
%ADD21C,2.032000*%
%ADD22R,1.899920X1.899920*%
%ADD23C,3.000000*%
%ADD24R,3.000000X3.000000*%
%ADD25C,0.100000*%
%ADD26C,0.100000*%
%ADD27C,0.300000*%
%ADD28C,0.400000*%
%ADD29R,1.550000X0.600000*%
%ADD30C,4.400000*%
%ADD31C,0.600000*%
%ADD32C,0.304800*%
%ADD33C,0.152400*%
%ADD34C,1.270000*%
%ADD35C,0.635000*%
%ADD36C,0.254000*%
G04 APERTURE END LIST*
D10*
X164630100Y-62382400D03*
D11*
X167170100Y-62382400D03*
X164630100Y-64922400D03*
X167170100Y-64922400D03*
X164630100Y-67462400D03*
X167170100Y-67462400D03*
X164630100Y-70002400D03*
X167170100Y-70002400D03*
X164630100Y-72542400D03*
X167170100Y-72542400D03*
X164630100Y-75082400D03*
X167170100Y-75082400D03*
X164630100Y-77622400D03*
X167170100Y-77622400D03*
X164630100Y-80162400D03*
X167170100Y-80162400D03*
X164630100Y-82702400D03*
X167170100Y-82702400D03*
X164630100Y-85242400D03*
X167170100Y-85242400D03*
X164630100Y-87782400D03*
X167170100Y-87782400D03*
X164630100Y-90322400D03*
X167170100Y-90322400D03*
X164630100Y-92862400D03*
X167170100Y-92862400D03*
X164630100Y-95402400D03*
X167170100Y-95402400D03*
X164630100Y-97942400D03*
X167170100Y-97942400D03*
X164630100Y-100482400D03*
X167170100Y-100482400D03*
X164630100Y-103022400D03*
X167170100Y-103022400D03*
X164630100Y-105562400D03*
X167170100Y-105562400D03*
X164630100Y-108102400D03*
X167170100Y-108102400D03*
X164630100Y-110642400D03*
X167170100Y-110642400D03*
X164630100Y-113182400D03*
X167170100Y-113182400D03*
X164630100Y-115722400D03*
X167170100Y-115722400D03*
X164630100Y-118262400D03*
X167170100Y-118262400D03*
D10*
X116370100Y-62382400D03*
D11*
X118910100Y-62382400D03*
X116370100Y-64922400D03*
X118910100Y-64922400D03*
X116370100Y-67462400D03*
X118910100Y-67462400D03*
X116370100Y-70002400D03*
X118910100Y-70002400D03*
X116370100Y-72542400D03*
X118910100Y-72542400D03*
X116370100Y-75082400D03*
X118910100Y-75082400D03*
X116370100Y-77622400D03*
X118910100Y-77622400D03*
X116370100Y-80162400D03*
X118910100Y-80162400D03*
X116370100Y-82702400D03*
X118910100Y-82702400D03*
X116370100Y-85242400D03*
X118910100Y-85242400D03*
X116370100Y-87782400D03*
X118910100Y-87782400D03*
X116370100Y-90322400D03*
X118910100Y-90322400D03*
X116370100Y-92862400D03*
X118910100Y-92862400D03*
X116370100Y-95402400D03*
X118910100Y-95402400D03*
X116370100Y-97942400D03*
X118910100Y-97942400D03*
X116370100Y-100482400D03*
X118910100Y-100482400D03*
X116370100Y-103022400D03*
X118910100Y-103022400D03*
X116370100Y-105562400D03*
X118910100Y-105562400D03*
X116370100Y-108102400D03*
X118910100Y-108102400D03*
X116370100Y-110642400D03*
X118910100Y-110642400D03*
X116370100Y-113182400D03*
X118910100Y-113182400D03*
X116370100Y-115722400D03*
X118910100Y-115722400D03*
X116370100Y-118262400D03*
X118910100Y-118262400D03*
D12*
X140910100Y-68572400D03*
X127830100Y-68572400D03*
X140910100Y-71112400D03*
X127830100Y-71112400D03*
X140910100Y-73652400D03*
X127830100Y-73652400D03*
X140910100Y-76192400D03*
X127830100Y-76192400D03*
D13*
X158070100Y-68572400D03*
X148670100Y-68572400D03*
X158070100Y-71112400D03*
X148670100Y-71112400D03*
X158070100Y-73652400D03*
X148670100Y-73652400D03*
X158070100Y-76192400D03*
X148670100Y-76192400D03*
D14*
X124545100Y-68782400D03*
X124545100Y-70782400D03*
X145370100Y-70382400D03*
X145370100Y-68382400D03*
D15*
X125320100Y-82382400D03*
X123420100Y-82382400D03*
X123420100Y-85382400D03*
X125320100Y-85382400D03*
X145545100Y-79257400D03*
X143645100Y-79257400D03*
X143645100Y-82257400D03*
X145545100Y-82257400D03*
X123420100Y-79382400D03*
X125320100Y-79382400D03*
X125320100Y-88382400D03*
X123420100Y-88382400D03*
D16*
X160370100Y-52632400D03*
X158370100Y-52632400D03*
D17*
X159870100Y-61682400D03*
X159870100Y-63582400D03*
X156870100Y-63632400D03*
X156870100Y-61732400D03*
D18*
X161020100Y-58252400D03*
X159120100Y-58252400D03*
X159120100Y-55632400D03*
X160070100Y-55632400D03*
X161020100Y-55632400D03*
D19*
X148830100Y-110092400D03*
D20*
X153910100Y-107552400D03*
X153910100Y-110092400D03*
D21*
X153910100Y-112632400D03*
D20*
X153910100Y-115172400D03*
X153910100Y-117712400D03*
X148830100Y-117712400D03*
X148830100Y-115172400D03*
X148830100Y-112632400D03*
X148830100Y-110092400D03*
D22*
X148830100Y-107552400D03*
D14*
X124370100Y-94382400D03*
X124370100Y-96382400D03*
D23*
X142620100Y-108382400D03*
D24*
X142620100Y-113882400D03*
D23*
X128420100Y-108382400D03*
X132620100Y-108382400D03*
X128420100Y-113882400D03*
D24*
X132620100Y-113882400D03*
D25*
X137870100Y-94442400D03*
D26*
G36*
X138270100Y-94492400D02*
G01*
X137470100Y-94492400D01*
X137770100Y-94392400D01*
X137970100Y-94392400D01*
X138270100Y-94492400D01*
X138270100Y-94492400D01*
G37*
D27*
X137870100Y-94642400D03*
D26*
G36*
X138570100Y-94792400D02*
G01*
X137170100Y-94792400D01*
X137470100Y-94492400D01*
X138270100Y-94492400D01*
X138570100Y-94792400D01*
X138570100Y-94792400D01*
G37*
D28*
X137870100Y-94992400D03*
D26*
G36*
X138720100Y-95192400D02*
G01*
X137020100Y-95192400D01*
X137170100Y-94792400D01*
X138570100Y-94792400D01*
X138720100Y-95192400D01*
X138720100Y-95192400D01*
G37*
D28*
X137870100Y-95772400D03*
D26*
G36*
X137020100Y-95572400D02*
G01*
X138720100Y-95572400D01*
X138570100Y-95972400D01*
X137170100Y-95972400D01*
X137020100Y-95572400D01*
X137020100Y-95572400D01*
G37*
D27*
X137870100Y-96122400D03*
D26*
G36*
X137170100Y-95972400D02*
G01*
X138570100Y-95972400D01*
X138270100Y-96272400D01*
X137470100Y-96272400D01*
X137170100Y-95972400D01*
X137170100Y-95972400D01*
G37*
D25*
X137870100Y-96322400D03*
D26*
G36*
X137470100Y-96272400D02*
G01*
X138270100Y-96272400D01*
X137970100Y-96372400D01*
X137770100Y-96372400D01*
X137470100Y-96272400D01*
X137470100Y-96272400D01*
G37*
D17*
X135370100Y-94482400D03*
X135370100Y-96382400D03*
D15*
X159420100Y-104382400D03*
X161320100Y-104382400D03*
X161270100Y-113382400D03*
X159370100Y-113382400D03*
X159420100Y-119382400D03*
X161320100Y-119382400D03*
X156820100Y-122882400D03*
X154920100Y-122882400D03*
X159420100Y-116382400D03*
X161320100Y-116382400D03*
X161320100Y-107382400D03*
X159420100Y-107382400D03*
X159420100Y-110382400D03*
X161320100Y-110382400D03*
X156820100Y-125882400D03*
X154920100Y-125882400D03*
D29*
X127170100Y-93477400D03*
X127170100Y-94747400D03*
X127170100Y-96017400D03*
X127170100Y-97287400D03*
X132570100Y-97287400D03*
X132570100Y-96017400D03*
X132570100Y-94747400D03*
X132570100Y-93477400D03*
D30*
X165870100Y-57482400D03*
X117570100Y-57482400D03*
X120770100Y-123182400D03*
X162670100Y-123182400D03*
D31*
X124545100Y-67432400D03*
X145370100Y-67157400D03*
X160370100Y-54132400D03*
X134120100Y-93432400D03*
X125705100Y-94747400D03*
D28*
X133370100Y-80882400D03*
X137370100Y-78632400D03*
X136870100Y-73632400D03*
X135120100Y-75882400D03*
X131620100Y-73882400D03*
X131120100Y-77632400D03*
X122870100Y-74882400D03*
X122120100Y-72882400D03*
X121870100Y-78632400D03*
X123870100Y-90132400D03*
X124870100Y-91132400D03*
X126120100Y-91632400D03*
X122870100Y-91882400D03*
X121620100Y-88382400D03*
X121870100Y-85957400D03*
X126470100Y-85957400D03*
X146870100Y-72357400D03*
X151945100Y-72082400D03*
X121835100Y-85242400D03*
X126445100Y-85207400D03*
X146870100Y-71557400D03*
X152620100Y-71382400D03*
X120620100Y-92582400D03*
X120620100Y-95007400D03*
X121395100Y-92632400D03*
X121395100Y-94932400D03*
X159695100Y-121182400D03*
X163795100Y-119907400D03*
X153645100Y-120407400D03*
X151920100Y-118607400D03*
X155970100Y-116482400D03*
X158470100Y-116407400D03*
X155545100Y-111232400D03*
X156595100Y-110432400D03*
D32*
X124755100Y-68572400D02*
X124545100Y-68782400D01*
X127830100Y-68572400D02*
X124755100Y-68572400D01*
X124545100Y-68782400D02*
X124545100Y-67432400D01*
X145560100Y-68572400D02*
X145370100Y-68382400D01*
X148670100Y-68572400D02*
X145560100Y-68572400D01*
X145370100Y-68382400D02*
X145370100Y-67157400D01*
X160070100Y-54432400D02*
X160370100Y-54132400D01*
X160070100Y-55632400D02*
X160070100Y-54432400D01*
X160370100Y-52632400D02*
X160370100Y-54132400D01*
X134075100Y-93477400D02*
X134120100Y-93432400D01*
X132570100Y-93477400D02*
X134075100Y-93477400D01*
X124735100Y-94747400D02*
X124370100Y-94382400D01*
X125430100Y-94747400D02*
X125705100Y-94747400D01*
X127170100Y-94747400D02*
X125705100Y-94747400D01*
X125430100Y-94747400D02*
X124735100Y-94747400D01*
D33*
X135120100Y-80882400D02*
X137370100Y-78632400D01*
X133370100Y-80882400D02*
X135120100Y-80882400D01*
X136870100Y-74132400D02*
X135120100Y-75882400D01*
X136870100Y-73632400D02*
X136870100Y-74132400D01*
X131620100Y-77132400D02*
X131120100Y-77632400D01*
X131620100Y-73882400D02*
X131620100Y-77132400D01*
X122870100Y-73632400D02*
X122120100Y-72882400D01*
X122870100Y-74882400D02*
X122870100Y-73632400D01*
X123870100Y-90132400D02*
X124870100Y-91132400D01*
X125870100Y-91882400D02*
X122870100Y-91882400D01*
X126120100Y-91632400D02*
X125870100Y-91882400D01*
D34*
X116370100Y-64922400D02*
X118910100Y-64922400D01*
X127500100Y-70782400D02*
X127830100Y-71112400D01*
X124545100Y-70782400D02*
X127500100Y-70782400D01*
X121895100Y-69732400D02*
X122945100Y-70782400D01*
X122945100Y-70782400D02*
X124545100Y-70782400D01*
X121895100Y-66057400D02*
X121895100Y-69732400D01*
X120760100Y-64922400D02*
X121895100Y-66057400D01*
X118910100Y-64922400D02*
X120760100Y-64922400D01*
X130100100Y-71112400D02*
X127830100Y-71112400D01*
X134805100Y-66407400D02*
X130100100Y-71112400D01*
X143345100Y-69157400D02*
X143345100Y-67357400D01*
X142395100Y-66407400D02*
X134805100Y-66407400D01*
X143345100Y-67357400D02*
X142395100Y-66407400D01*
X144570100Y-70382400D02*
X143345100Y-69157400D01*
X145370100Y-70382400D02*
X144570100Y-70382400D01*
X147940100Y-70382400D02*
X148670100Y-71112400D01*
X145370100Y-70382400D02*
X147940100Y-70382400D01*
X151470100Y-92932400D02*
X151470100Y-73277898D01*
X149304602Y-71112400D02*
X148670100Y-71112400D01*
X151470100Y-73277898D02*
X149304602Y-71112400D01*
X150095100Y-94307400D02*
X151470100Y-92932400D01*
X148845100Y-95457400D02*
X149995100Y-94307400D01*
X149995100Y-94307400D02*
X150095100Y-94307400D01*
X148845100Y-102982400D02*
X148845100Y-95457400D01*
X148845100Y-104032400D02*
X148845100Y-102982400D01*
X148845100Y-107607400D02*
X148845100Y-104032400D01*
D35*
X124735100Y-96017400D02*
X124370100Y-96382400D01*
X127170100Y-96017400D02*
X124735100Y-96017400D01*
X125870100Y-88382400D02*
X125320100Y-88382400D01*
X128895100Y-95028902D02*
X128895100Y-91407400D01*
X128895100Y-91407400D02*
X125870100Y-88382400D01*
X127906602Y-96017400D02*
X128895100Y-95028902D01*
X127170100Y-96017400D02*
X127906602Y-96017400D01*
X125320100Y-78097400D02*
X124545100Y-77322400D01*
X125320100Y-79382400D02*
X125320100Y-78097400D01*
X123320100Y-70782400D02*
X124545100Y-72007400D01*
X122945100Y-70782400D02*
X123320100Y-70782400D01*
X124545100Y-72007400D02*
X124545100Y-70782400D01*
X124545100Y-77322400D02*
X124545100Y-72007400D01*
X150405100Y-71112400D02*
X154370100Y-67147400D01*
X148670100Y-71112400D02*
X150405100Y-71112400D01*
X154370100Y-67147400D02*
X154370100Y-58632400D01*
X157370100Y-55632400D02*
X159120100Y-55632400D01*
X154370100Y-58632400D02*
X157370100Y-55632400D01*
X158370100Y-53892400D02*
X157370100Y-54892400D01*
X157370100Y-54892400D02*
X157370100Y-55632400D01*
X158370100Y-52632400D02*
X158370100Y-53892400D01*
D32*
X125320100Y-87427600D02*
X125320100Y-88382400D01*
X124320100Y-86427600D02*
X125320100Y-87427600D01*
X125320100Y-80337200D02*
X124320100Y-81337200D01*
X124320100Y-81337200D02*
X124320100Y-86427600D01*
X125320100Y-79382400D02*
X125320100Y-80337200D01*
D35*
X152960141Y-118662359D02*
X152960141Y-119117359D01*
X153910100Y-117712400D02*
X152960141Y-118662359D01*
X152960141Y-119117359D02*
X152020100Y-120057400D01*
X152020100Y-120057400D02*
X151970100Y-120107400D01*
X152020100Y-120057400D02*
X147845100Y-120057400D01*
X148920100Y-102907400D02*
X148845100Y-102982400D01*
X148920100Y-102882400D02*
X148920100Y-102907400D01*
X146195100Y-105607400D02*
X148920100Y-102882400D01*
X146195100Y-118407400D02*
X146195100Y-105607400D01*
X147845100Y-120057400D02*
X146195100Y-118407400D01*
D33*
X116370100Y-67462400D02*
X118910100Y-67462400D01*
X117591414Y-70002400D02*
X118910100Y-70002400D01*
X116370100Y-70002400D02*
X117591414Y-70002400D01*
D32*
X123420100Y-85382400D02*
X123420100Y-88382400D01*
D33*
X117233699Y-86105999D02*
X116370100Y-85242400D01*
X117509901Y-86382201D02*
X117233699Y-86105999D01*
X121445299Y-86382201D02*
X117509901Y-86382201D01*
X123420100Y-85382400D02*
X122445100Y-85382400D01*
X122445100Y-85382400D02*
X121870100Y-85957400D01*
X121870100Y-85957400D02*
X121445299Y-86382201D01*
X127045100Y-85382400D02*
X126470100Y-85957400D01*
X143645100Y-82257400D02*
X130170100Y-82257400D01*
X130170100Y-82257400D02*
X127045100Y-85382400D01*
X144147500Y-82257400D02*
X144595100Y-81809800D01*
X143645100Y-82257400D02*
X144147500Y-82257400D01*
X144595100Y-81809800D02*
X144595100Y-74607400D01*
X146845100Y-72357400D02*
X146870100Y-72357400D01*
X144595100Y-74607400D02*
X146845100Y-72357400D01*
X151945100Y-72082400D02*
X151945100Y-70907400D01*
X156870100Y-65982400D02*
X156870100Y-63632400D01*
X151945100Y-70907400D02*
X156870100Y-65982400D01*
D32*
X123420100Y-82382400D02*
X123420100Y-79382400D01*
D33*
X123420100Y-83657400D02*
X123420100Y-82382400D01*
X121835100Y-85242400D02*
X123420100Y-83657400D01*
X118910100Y-85242400D02*
X121835100Y-85242400D01*
X143645100Y-80557400D02*
X143645100Y-79257400D01*
X142370100Y-81832400D02*
X143645100Y-80557400D01*
X129820100Y-81832400D02*
X142370100Y-81832400D01*
X126445100Y-85207400D02*
X129820100Y-81832400D01*
X152820099Y-71182401D02*
X152620100Y-71382400D01*
X152820099Y-70757401D02*
X152820099Y-71182401D01*
X159870100Y-63707400D02*
X152820099Y-70757401D01*
X159870100Y-63582400D02*
X159870100Y-63707400D01*
X144120100Y-74257400D02*
X146820100Y-71557400D01*
X146820100Y-71557400D02*
X146870100Y-71557400D01*
X144120100Y-78782400D02*
X144120100Y-74257400D01*
X143645100Y-79257400D02*
X144120100Y-78782400D01*
X160542700Y-58252400D02*
X161020100Y-58252400D01*
X159870100Y-58925000D02*
X160542700Y-58252400D01*
X159870100Y-61682400D02*
X159870100Y-58925000D01*
X157970100Y-61732400D02*
X156870100Y-61732400D01*
X159120100Y-60582400D02*
X157970100Y-61732400D01*
X159120100Y-58252400D02*
X159120100Y-60582400D01*
X125820100Y-74357400D02*
X126525100Y-73652400D01*
X126745100Y-77707400D02*
X125820100Y-76782400D01*
X126525100Y-73652400D02*
X127830100Y-73652400D01*
X126745100Y-79260238D02*
X126745100Y-77707400D01*
X125820100Y-76782400D02*
X125820100Y-74357400D01*
X125320100Y-82382400D02*
X125320100Y-81580000D01*
X126720100Y-79285238D02*
X126745100Y-79260238D01*
X125320100Y-81580000D02*
X126720100Y-80180000D01*
X126720100Y-80180000D02*
X126720100Y-79285238D01*
X125320100Y-84507400D02*
X125320100Y-85382400D01*
X127830100Y-76192400D02*
X127830100Y-76944800D01*
X126445100Y-81332400D02*
X126445100Y-83382400D01*
X127220100Y-80557400D02*
X126445100Y-81332400D01*
X126445100Y-83382400D02*
X125320100Y-84507400D01*
X127220100Y-77554800D02*
X127220100Y-80557400D01*
X127830100Y-76944800D02*
X127220100Y-77554800D01*
X146900100Y-73652400D02*
X148670100Y-73652400D01*
X145170100Y-75382400D02*
X146900100Y-73652400D01*
X145170100Y-78882400D02*
X145170100Y-75382400D01*
X145545100Y-79257400D02*
X145170100Y-78882400D01*
X146870100Y-76932400D02*
X147610100Y-76192400D01*
X145545100Y-81455000D02*
X146870100Y-80130000D01*
X147610100Y-76192400D02*
X148670100Y-76192400D01*
X146870100Y-80130000D02*
X146870100Y-76932400D01*
X145545100Y-82257400D02*
X145545100Y-81455000D01*
X120620100Y-95007400D02*
X120620100Y-96357400D01*
X120620100Y-96357400D02*
X123045100Y-98782400D01*
X123045100Y-98782400D02*
X128295100Y-98782400D01*
X128295100Y-98782400D02*
X130395100Y-100882400D01*
X130395100Y-100882400D02*
X130395100Y-103907400D01*
X130395100Y-103907400D02*
X130395100Y-103870567D01*
X120620100Y-90345494D02*
X120620100Y-92582400D01*
X119196807Y-88922201D02*
X120620100Y-90345494D01*
X117509901Y-88922201D02*
X119196807Y-88922201D01*
X116370100Y-87782400D02*
X117509901Y-88922201D01*
X130395100Y-103907400D02*
X130395100Y-106407400D01*
X130395100Y-106407400D02*
X128420100Y-108382400D01*
X121395100Y-90267400D02*
X121395100Y-92632400D01*
X118910100Y-87782400D02*
X121395100Y-90267400D01*
X121395100Y-94932400D02*
X121395100Y-96382400D01*
X121395100Y-96382400D02*
X123145100Y-98132400D01*
X123145100Y-98132400D02*
X128520100Y-98132400D01*
X128520100Y-98132400D02*
X130645100Y-100257400D01*
X130645100Y-100257400D02*
X130895100Y-100507400D01*
X130895100Y-100507400D02*
X131045100Y-100657400D01*
X131045100Y-100657400D02*
X131045100Y-103732400D01*
X131045100Y-103732400D02*
X131045100Y-103807400D01*
X131045100Y-103732400D02*
X131045100Y-106807400D01*
X131045100Y-106807400D02*
X132620100Y-108382400D01*
D32*
X135105100Y-94747400D02*
X135370100Y-94482400D01*
X132570100Y-94747400D02*
X135105100Y-94747400D01*
X136324900Y-94482400D02*
X136999900Y-93807400D01*
X135370100Y-94482400D02*
X136324900Y-94482400D01*
X136999900Y-93807400D02*
X138995100Y-93807400D01*
X138995100Y-93807400D02*
X139520100Y-94332400D01*
X139520100Y-105282400D02*
X142620100Y-108382400D01*
X139520100Y-94332400D02*
X139520100Y-105282400D01*
X136285100Y-97357400D02*
X137870100Y-95772400D01*
X133045100Y-96017400D02*
X134385100Y-97357400D01*
X134385100Y-97357400D02*
X136285100Y-97357400D01*
X132570100Y-96017400D02*
X133045100Y-96017400D01*
X137870100Y-96122400D02*
X137870100Y-95772400D01*
X137870100Y-96322400D02*
X137870100Y-96122400D01*
X142620100Y-112077600D02*
X140295100Y-109752600D01*
X142620100Y-113882400D02*
X142620100Y-112077600D01*
X140295100Y-109752600D02*
X140295100Y-107407400D01*
X140295100Y-107407400D02*
X138570100Y-105682400D01*
X138570100Y-97022400D02*
X137870100Y-96322400D01*
X138570100Y-105682400D02*
X138570100Y-97022400D01*
X137870100Y-94992400D02*
X137870100Y-94642400D01*
X137649390Y-94863110D02*
X137870100Y-94642400D01*
X137189390Y-94863110D02*
X137649390Y-94863110D01*
X135670100Y-96382400D02*
X137189390Y-94863110D01*
X135370100Y-96382400D02*
X135670100Y-96382400D01*
X137870100Y-94642400D02*
X137870100Y-94442400D01*
D33*
X161320100Y-107382400D02*
X162470100Y-107382400D01*
X163320100Y-109332400D02*
X164630100Y-110642400D01*
X163320100Y-108232400D02*
X163320100Y-109332400D01*
X162470100Y-107382400D02*
X163320100Y-108232400D01*
X164630100Y-113182400D02*
X163595100Y-113182400D01*
X161320100Y-110907400D02*
X161320100Y-110382400D01*
X163595100Y-113182400D02*
X161320100Y-110907400D01*
X164630100Y-115722400D02*
X161980100Y-115722400D01*
X161980100Y-115722400D02*
X161320100Y-116382400D01*
X164630100Y-118262400D02*
X164365100Y-118262400D01*
X159195100Y-120507400D02*
X156820100Y-122882400D01*
X162120100Y-120507400D02*
X159195100Y-120507400D01*
X164365100Y-118262400D02*
X162120100Y-120507400D01*
X167170100Y-118262400D02*
X166590100Y-118262400D01*
X158020100Y-124682400D02*
X156820100Y-125882400D01*
X158020100Y-122857400D02*
X158020100Y-124682400D01*
X159620100Y-121257400D02*
X158020100Y-122857400D01*
X159620100Y-121107400D02*
X159620100Y-121257400D01*
X159695100Y-121182400D02*
X159620100Y-121107400D01*
X164945100Y-119907400D02*
X163795100Y-119907400D01*
X166590100Y-118262400D02*
X164945100Y-119907400D01*
X167170100Y-115722400D02*
X167080100Y-115722400D01*
X163695100Y-117007400D02*
X161320100Y-119382400D01*
X165795100Y-117007400D02*
X163695100Y-117007400D01*
X167080100Y-115722400D02*
X165795100Y-117007400D01*
X161772500Y-113382400D02*
X162896300Y-114506200D01*
X162896300Y-114506200D02*
X162897500Y-114507400D01*
X161270100Y-113382400D02*
X161772500Y-113382400D01*
X162896300Y-114506200D02*
X165846300Y-114506200D01*
X165846300Y-114506200D02*
X167170100Y-113182400D01*
X161320100Y-104382400D02*
X162420100Y-104382400D01*
X165920100Y-109392400D02*
X167170100Y-110642400D01*
X165920100Y-107257400D02*
X165920100Y-109392400D01*
X165570100Y-106907400D02*
X165920100Y-107257400D01*
X163745100Y-106907400D02*
X165570100Y-106907400D01*
X163145100Y-106307400D02*
X163745100Y-106907400D01*
X163145100Y-105107400D02*
X163145100Y-106307400D01*
X162420100Y-104382400D02*
X163145100Y-105107400D01*
X117770299Y-91462201D02*
X117770299Y-93357599D01*
X118910100Y-90322400D02*
X117770299Y-91462201D01*
X117770299Y-93357599D02*
X118570100Y-94157400D01*
X118570100Y-94157400D02*
X122095100Y-94157400D01*
X122095100Y-94157400D02*
X122920100Y-94982400D01*
X122920100Y-94982400D02*
X122920100Y-96582400D01*
X123625100Y-97287400D02*
X127170100Y-97287400D01*
X122920100Y-96582400D02*
X123625100Y-97287400D01*
X119525100Y-93477400D02*
X118910100Y-92862400D01*
X127170100Y-93477400D02*
X119525100Y-93477400D01*
X153910100Y-107552400D02*
X156250100Y-107552400D01*
X156250100Y-107552400D02*
X159420100Y-104382400D01*
X158695100Y-113382400D02*
X159370100Y-113382400D01*
X155405100Y-110092400D02*
X158695100Y-113382400D01*
X153910100Y-110092400D02*
X155405100Y-110092400D01*
X159420100Y-118142400D02*
X159420100Y-119382400D01*
X158890100Y-117612400D02*
X158125100Y-117612400D01*
X158890100Y-117612400D02*
X159420100Y-118142400D01*
X158125100Y-117612400D02*
X157220100Y-116707400D01*
X157220100Y-116707400D02*
X157220100Y-115032400D01*
X156187600Y-113999900D02*
X155277600Y-113999900D01*
X157220100Y-115032400D02*
X156187600Y-113999900D01*
X153910100Y-112632400D02*
X155277600Y-113999900D01*
X154920100Y-121682400D02*
X153645100Y-120407400D01*
X154920100Y-122882400D02*
X154920100Y-121682400D01*
X151025100Y-117712400D02*
X151920100Y-118607400D01*
X148830100Y-117712400D02*
X151025100Y-117712400D01*
X150173546Y-115172400D02*
X151458546Y-116457400D01*
X148830100Y-115172400D02*
X150173546Y-115172400D01*
X151458546Y-116457400D02*
X155945100Y-116457400D01*
X155945100Y-116457400D02*
X155970100Y-116482400D01*
X159395100Y-116407400D02*
X159420100Y-116382400D01*
X158470100Y-116407400D02*
X159395100Y-116407400D01*
X157433861Y-108866239D02*
X152961261Y-108866239D01*
X158917700Y-107382400D02*
X157433861Y-108866239D01*
X159420100Y-107382400D02*
X158917700Y-107382400D01*
X152961261Y-108866239D02*
X151945100Y-109882400D01*
X151945100Y-109882400D02*
X151295100Y-109882400D01*
X151295100Y-109882400D02*
X151270100Y-109882400D01*
X151295100Y-109882400D02*
X149040100Y-109882400D01*
X149040100Y-109882400D02*
X148830100Y-110092400D01*
X148830100Y-112632400D02*
X150770100Y-112632400D01*
X152062301Y-111340199D02*
X155437301Y-111340199D01*
X150770100Y-112632400D02*
X152062301Y-111340199D01*
X155437301Y-111340199D02*
X155545100Y-111232400D01*
X159370100Y-110432400D02*
X159420100Y-110382400D01*
X156595100Y-110432400D02*
X159370100Y-110432400D01*
X155364880Y-115172400D02*
X156446302Y-116253822D01*
X154920100Y-125080000D02*
X154920100Y-125882400D01*
X156446302Y-116253822D02*
X156446302Y-116710978D01*
X153910100Y-115172400D02*
X155364880Y-115172400D01*
X156446302Y-116710978D02*
X155795100Y-117362180D01*
X155795100Y-117362180D02*
X155795100Y-124205000D01*
X155795100Y-124205000D02*
X154920100Y-125080000D01*
D36*
G36*
X150200100Y-92406349D02*
G01*
X149445111Y-93161339D01*
X149286112Y-93246325D01*
X149229675Y-93292642D01*
X149141183Y-93365265D01*
X149141180Y-93365268D01*
X149092730Y-93405030D01*
X149052967Y-93453481D01*
X147991186Y-94515264D01*
X147942731Y-94555030D01*
X147784026Y-94748412D01*
X147678851Y-94945182D01*
X147666098Y-94969041D01*
X147593477Y-95208437D01*
X147568957Y-95457400D01*
X147575101Y-95519783D01*
X147575100Y-102880361D01*
X145554664Y-104900798D01*
X145518323Y-104930622D01*
X145478113Y-104979618D01*
X145399294Y-105075660D01*
X145310849Y-105241131D01*
X145256383Y-105420678D01*
X145237992Y-105607400D01*
X145242601Y-105654195D01*
X145242600Y-118360615D01*
X145237992Y-118407400D01*
X145242600Y-118454184D01*
X145256383Y-118594122D01*
X145310848Y-118773668D01*
X145399294Y-118939141D01*
X145518322Y-119084178D01*
X145554669Y-119114007D01*
X147138493Y-120697831D01*
X147168322Y-120734178D01*
X147313359Y-120853206D01*
X147478831Y-120941652D01*
X147610162Y-120981491D01*
X147658377Y-120996117D01*
X147845099Y-121014508D01*
X147891884Y-121009900D01*
X151663989Y-121009900D01*
X151783378Y-121046117D01*
X151970100Y-121064508D01*
X152156822Y-121046117D01*
X152336369Y-120991651D01*
X152501840Y-120903206D01*
X152610537Y-120814001D01*
X152660529Y-120764009D01*
X152696878Y-120734178D01*
X152726707Y-120697831D01*
X152830806Y-120593733D01*
X152842189Y-120650960D01*
X152905133Y-120802921D01*
X152996513Y-120939681D01*
X153112819Y-121055987D01*
X153249579Y-121147367D01*
X153401540Y-121210311D01*
X153452326Y-121220413D01*
X154071230Y-121839319D01*
X154039563Y-121877906D01*
X153980598Y-121988220D01*
X153944288Y-122107918D01*
X153932028Y-122232400D01*
X153932028Y-123532400D01*
X153944288Y-123656882D01*
X153980598Y-123776580D01*
X154039563Y-123886894D01*
X154118915Y-123983585D01*
X154215606Y-124062937D01*
X154325920Y-124121902D01*
X154445618Y-124158212D01*
X154570100Y-124170472D01*
X154823841Y-124170472D01*
X154441910Y-124552403D01*
X154414773Y-124574674D01*
X154369676Y-124629625D01*
X154325920Y-124642898D01*
X154215606Y-124701863D01*
X154118915Y-124781215D01*
X154039563Y-124877906D01*
X153980598Y-124988220D01*
X153944288Y-125107918D01*
X153932028Y-125232400D01*
X153932028Y-126532400D01*
X153944288Y-126656882D01*
X153980598Y-126776580D01*
X154039563Y-126886894D01*
X154118915Y-126983585D01*
X154215606Y-127062937D01*
X154325920Y-127121902D01*
X154445618Y-127158212D01*
X154570100Y-127170472D01*
X155270100Y-127170472D01*
X155394582Y-127158212D01*
X155514280Y-127121902D01*
X155624594Y-127062937D01*
X155721285Y-126983585D01*
X155800637Y-126886894D01*
X155859602Y-126776580D01*
X155870100Y-126741973D01*
X155880598Y-126776580D01*
X155939563Y-126886894D01*
X156018915Y-126983585D01*
X156115606Y-127062937D01*
X156225920Y-127121902D01*
X156345618Y-127158212D01*
X156470100Y-127170472D01*
X157170100Y-127170472D01*
X157294582Y-127158212D01*
X157414280Y-127121902D01*
X157524594Y-127062937D01*
X157621285Y-126983585D01*
X157700637Y-126886894D01*
X157759602Y-126776580D01*
X157795912Y-126656882D01*
X157808172Y-126532400D01*
X157808172Y-125900116D01*
X158498296Y-125209993D01*
X158525427Y-125187727D01*
X158547693Y-125160596D01*
X158547697Y-125160592D01*
X158614302Y-125079433D01*
X158653649Y-125005820D01*
X158680342Y-124955881D01*
X158721009Y-124821820D01*
X158731300Y-124717336D01*
X158731300Y-124717327D01*
X158734740Y-124682401D01*
X158731300Y-124647475D01*
X158731300Y-123151987D01*
X159887876Y-121995413D01*
X159938660Y-121985311D01*
X160090621Y-121922367D01*
X160150682Y-121882236D01*
X160032459Y-122106277D01*
X159873199Y-122641533D01*
X159821422Y-123197574D01*
X159879119Y-123753032D01*
X160044072Y-124286561D01*
X160293082Y-124752424D01*
X160680325Y-124992570D01*
X162490495Y-123182400D01*
X162476353Y-123168258D01*
X162655958Y-122988653D01*
X162670100Y-123002795D01*
X164480270Y-121192625D01*
X164240124Y-120805382D01*
X164050591Y-120705369D01*
X164190621Y-120647367D01*
X164233674Y-120618600D01*
X164910174Y-120618600D01*
X164945100Y-120622040D01*
X164980026Y-120618600D01*
X164980036Y-120618600D01*
X165084520Y-120608309D01*
X165218581Y-120567642D01*
X165342133Y-120501602D01*
X165450427Y-120412727D01*
X165472702Y-120385586D01*
X166340223Y-119518066D01*
X166593836Y-119653625D01*
X166876323Y-119739316D01*
X167096481Y-119761000D01*
X167243719Y-119761000D01*
X167463877Y-119739316D01*
X167746364Y-119653625D01*
X167997742Y-119519260D01*
X167766864Y-120324430D01*
X167253667Y-121569537D01*
X166604882Y-122749674D01*
X165828586Y-123850144D01*
X165075856Y-124697963D01*
X165307741Y-124258523D01*
X165467001Y-123723267D01*
X165518778Y-123167226D01*
X165461081Y-122611768D01*
X165296128Y-122078239D01*
X165047118Y-121612376D01*
X164659875Y-121372230D01*
X162849705Y-123182400D01*
X162863848Y-123196543D01*
X162684243Y-123376148D01*
X162670100Y-123362005D01*
X160859930Y-125172175D01*
X161100076Y-125559418D01*
X161593977Y-125820041D01*
X162129233Y-125979301D01*
X162685274Y-126031078D01*
X163240732Y-125973381D01*
X163774261Y-125808428D01*
X164029638Y-125671926D01*
X163933653Y-125758351D01*
X162838639Y-126542304D01*
X161663061Y-127199313D01*
X160421563Y-127721191D01*
X159129638Y-128101425D01*
X157803368Y-128335282D01*
X156442664Y-128420891D01*
X156374031Y-128421130D01*
X127182875Y-128421130D01*
X125820482Y-128344961D01*
X124492617Y-128120369D01*
X123198070Y-127749164D01*
X121952963Y-127235967D01*
X120772826Y-126587182D01*
X119672356Y-125810886D01*
X119666098Y-125805330D01*
X119693977Y-125820041D01*
X120229233Y-125979301D01*
X120785274Y-126031078D01*
X121340732Y-125973381D01*
X121874261Y-125808428D01*
X122340124Y-125559418D01*
X122580270Y-125172175D01*
X120770100Y-123362005D01*
X120755958Y-123376148D01*
X120576353Y-123196543D01*
X120590495Y-123182400D01*
X120949705Y-123182400D01*
X122759875Y-124992570D01*
X123147118Y-124752424D01*
X123407741Y-124258523D01*
X123567001Y-123723267D01*
X123618778Y-123167226D01*
X123561081Y-122611768D01*
X123396128Y-122078239D01*
X123147118Y-121612376D01*
X122759875Y-121372230D01*
X120949705Y-123182400D01*
X120590495Y-123182400D01*
X118780325Y-121372230D01*
X118393082Y-121612376D01*
X118132459Y-122106277D01*
X117973199Y-122641533D01*
X117921422Y-123197574D01*
X117979119Y-123753032D01*
X118144072Y-124286561D01*
X118211602Y-124412899D01*
X117764149Y-123915953D01*
X116980196Y-122820939D01*
X116323187Y-121645361D01*
X116132875Y-121192625D01*
X118959930Y-121192625D01*
X120770100Y-123002795D01*
X122580270Y-121192625D01*
X122443527Y-120972121D01*
X128385100Y-120972121D01*
X128385100Y-121392679D01*
X128467147Y-121805156D01*
X128628088Y-122193702D01*
X128861737Y-122543383D01*
X129159117Y-122840763D01*
X129508798Y-123074412D01*
X129897344Y-123235353D01*
X130309821Y-123317400D01*
X130730379Y-123317400D01*
X131142856Y-123235353D01*
X131531402Y-123074412D01*
X131881083Y-122840763D01*
X132178463Y-122543383D01*
X132412112Y-122193702D01*
X132573053Y-121805156D01*
X132655100Y-121392679D01*
X132655100Y-120972121D01*
X140485100Y-120972121D01*
X140485100Y-121392679D01*
X140567147Y-121805156D01*
X140728088Y-122193702D01*
X140961737Y-122543383D01*
X141259117Y-122840763D01*
X141608798Y-123074412D01*
X141997344Y-123235353D01*
X142409821Y-123317400D01*
X142830379Y-123317400D01*
X143242856Y-123235353D01*
X143631402Y-123074412D01*
X143981083Y-122840763D01*
X144278463Y-122543383D01*
X144512112Y-122193702D01*
X144673053Y-121805156D01*
X144755100Y-121392679D01*
X144755100Y-120972121D01*
X144673053Y-120559644D01*
X144512112Y-120171098D01*
X144278463Y-119821417D01*
X143981083Y-119524037D01*
X143631402Y-119290388D01*
X143242856Y-119129447D01*
X142830379Y-119047400D01*
X142409821Y-119047400D01*
X141997344Y-119129447D01*
X141608798Y-119290388D01*
X141259117Y-119524037D01*
X140961737Y-119821417D01*
X140728088Y-120171098D01*
X140567147Y-120559644D01*
X140485100Y-120972121D01*
X132655100Y-120972121D01*
X132573053Y-120559644D01*
X132412112Y-120171098D01*
X132178463Y-119821417D01*
X131881083Y-119524037D01*
X131531402Y-119290388D01*
X131142856Y-119129447D01*
X130730379Y-119047400D01*
X130309821Y-119047400D01*
X129897344Y-119129447D01*
X129508798Y-119290388D01*
X129159117Y-119524037D01*
X128861737Y-119821417D01*
X128628088Y-120171098D01*
X128467147Y-120559644D01*
X128385100Y-120972121D01*
X122443527Y-120972121D01*
X122340124Y-120805382D01*
X121846223Y-120544759D01*
X121310967Y-120385499D01*
X120754926Y-120333722D01*
X120199468Y-120391419D01*
X119665939Y-120556372D01*
X119200076Y-120805382D01*
X118959930Y-121192625D01*
X116132875Y-121192625D01*
X115801309Y-120403863D01*
X115535692Y-119501374D01*
X115734122Y-119619364D01*
X116011073Y-119717363D01*
X116243100Y-119596864D01*
X116243100Y-118389400D01*
X116497100Y-118389400D01*
X116497100Y-119596864D01*
X116729127Y-119717363D01*
X117006078Y-119619364D01*
X117258588Y-119469217D01*
X117476954Y-119272693D01*
X117640100Y-119054322D01*
X117803246Y-119272693D01*
X118021612Y-119469217D01*
X118274122Y-119619364D01*
X118551073Y-119717363D01*
X118783100Y-119596864D01*
X118783100Y-118389400D01*
X119037100Y-118389400D01*
X119037100Y-119596864D01*
X119269127Y-119717363D01*
X119546078Y-119619364D01*
X119798588Y-119469217D01*
X120016954Y-119272693D01*
X120192784Y-119037344D01*
X120319322Y-118772214D01*
X120365058Y-118621426D01*
X120243917Y-118389400D01*
X119037100Y-118389400D01*
X118783100Y-118389400D01*
X116497100Y-118389400D01*
X116243100Y-118389400D01*
X116223100Y-118389400D01*
X116223100Y-118135400D01*
X116243100Y-118135400D01*
X116243100Y-115849400D01*
X116497100Y-115849400D01*
X116497100Y-118135400D01*
X118783100Y-118135400D01*
X118783100Y-115849400D01*
X119037100Y-115849400D01*
X119037100Y-118135400D01*
X120243917Y-118135400D01*
X120365058Y-117903374D01*
X120319322Y-117752586D01*
X120192784Y-117487456D01*
X120016954Y-117252107D01*
X119798588Y-117055583D01*
X119692330Y-116992400D01*
X119798588Y-116929217D01*
X120016954Y-116732693D01*
X120192784Y-116497344D01*
X120319322Y-116232214D01*
X120365058Y-116081426D01*
X120243917Y-115849400D01*
X119037100Y-115849400D01*
X118783100Y-115849400D01*
X116497100Y-115849400D01*
X116243100Y-115849400D01*
X116223100Y-115849400D01*
X116223100Y-115595400D01*
X116243100Y-115595400D01*
X116243100Y-115575400D01*
X116497100Y-115575400D01*
X116497100Y-115595400D01*
X118783100Y-115595400D01*
X118783100Y-115575400D01*
X119037100Y-115575400D01*
X119037100Y-115595400D01*
X120243917Y-115595400D01*
X120359482Y-115374053D01*
X127108052Y-115374053D01*
X127264062Y-115689614D01*
X127638845Y-115880420D01*
X128043651Y-115994444D01*
X128462924Y-116027302D01*
X128880551Y-115977734D01*
X129280483Y-115847643D01*
X129576138Y-115689614D01*
X129732148Y-115374053D01*
X128420100Y-114062005D01*
X127108052Y-115374053D01*
X120359482Y-115374053D01*
X120365058Y-115363374D01*
X120319322Y-115212586D01*
X120192784Y-114947456D01*
X120016954Y-114712107D01*
X119798588Y-114515583D01*
X119702190Y-114458263D01*
X119746706Y-114434469D01*
X119974897Y-114247197D01*
X120162169Y-114019006D01*
X120212296Y-113925224D01*
X126275198Y-113925224D01*
X126324766Y-114342851D01*
X126454857Y-114742783D01*
X126612886Y-115038438D01*
X126928447Y-115194448D01*
X128240495Y-113882400D01*
X128599705Y-113882400D01*
X129911753Y-115194448D01*
X130227314Y-115038438D01*
X130418120Y-114663655D01*
X130484442Y-114428199D01*
X130482028Y-115382400D01*
X130494288Y-115506882D01*
X130530598Y-115626580D01*
X130589563Y-115736894D01*
X130668915Y-115833585D01*
X130765606Y-115912937D01*
X130875920Y-115971902D01*
X130995618Y-116008212D01*
X131120100Y-116020472D01*
X132334350Y-116017400D01*
X132493100Y-115858650D01*
X132493100Y-114009400D01*
X132747100Y-114009400D01*
X132747100Y-115858650D01*
X132905850Y-116017400D01*
X134120100Y-116020472D01*
X134244582Y-116008212D01*
X134364280Y-115971902D01*
X134474594Y-115912937D01*
X134571285Y-115833585D01*
X134650637Y-115736894D01*
X134709602Y-115626580D01*
X134745912Y-115506882D01*
X134758172Y-115382400D01*
X134755100Y-114168150D01*
X134596350Y-114009400D01*
X132747100Y-114009400D01*
X132493100Y-114009400D01*
X132473100Y-114009400D01*
X132473100Y-113755400D01*
X132493100Y-113755400D01*
X132493100Y-111906150D01*
X132747100Y-111906150D01*
X132747100Y-113755400D01*
X134596350Y-113755400D01*
X134755100Y-113596650D01*
X134758172Y-112382400D01*
X134745912Y-112257918D01*
X134709602Y-112138220D01*
X134650637Y-112027906D01*
X134571285Y-111931215D01*
X134474594Y-111851863D01*
X134364280Y-111792898D01*
X134244582Y-111756588D01*
X134120100Y-111744328D01*
X132905850Y-111747400D01*
X132747100Y-111906150D01*
X132493100Y-111906150D01*
X132334350Y-111747400D01*
X131120100Y-111744328D01*
X130995618Y-111756588D01*
X130875920Y-111792898D01*
X130765606Y-111851863D01*
X130668915Y-111931215D01*
X130589563Y-112027906D01*
X130530598Y-112138220D01*
X130494288Y-112257918D01*
X130482028Y-112382400D01*
X130484417Y-113326594D01*
X130385343Y-113022017D01*
X130227314Y-112726362D01*
X129911753Y-112570352D01*
X128599705Y-113882400D01*
X128240495Y-113882400D01*
X126928447Y-112570352D01*
X126612886Y-112726362D01*
X126422080Y-113101145D01*
X126308056Y-113505951D01*
X126275198Y-113925224D01*
X120212296Y-113925224D01*
X120301325Y-113758664D01*
X120387016Y-113476177D01*
X120415951Y-113182400D01*
X120387016Y-112888623D01*
X120301325Y-112606136D01*
X120186197Y-112390747D01*
X127108052Y-112390747D01*
X128420100Y-113702795D01*
X129732148Y-112390747D01*
X129576138Y-112075186D01*
X129201355Y-111884380D01*
X128796549Y-111770356D01*
X128377276Y-111737498D01*
X127959649Y-111787066D01*
X127559717Y-111917157D01*
X127264062Y-112075186D01*
X127108052Y-112390747D01*
X120186197Y-112390747D01*
X120162169Y-112345794D01*
X119974897Y-112117603D01*
X119746706Y-111930331D01*
X119713160Y-111912400D01*
X119746706Y-111894469D01*
X119974897Y-111707197D01*
X120162169Y-111479006D01*
X120301325Y-111218664D01*
X120387016Y-110936177D01*
X120415951Y-110642400D01*
X120387016Y-110348623D01*
X120301325Y-110066136D01*
X120162169Y-109805794D01*
X119974897Y-109577603D01*
X119746706Y-109390331D01*
X119713160Y-109372400D01*
X119746706Y-109354469D01*
X119974897Y-109167197D01*
X120162169Y-108939006D01*
X120301325Y-108678664D01*
X120387016Y-108396177D01*
X120415951Y-108102400D01*
X120387016Y-107808623D01*
X120301325Y-107526136D01*
X120162169Y-107265794D01*
X119974897Y-107037603D01*
X119746706Y-106850331D01*
X119713160Y-106832400D01*
X119746706Y-106814469D01*
X119974897Y-106627197D01*
X120162169Y-106399006D01*
X120301325Y-106138664D01*
X120387016Y-105856177D01*
X120415951Y-105562400D01*
X120387016Y-105268623D01*
X120301325Y-104986136D01*
X120162169Y-104725794D01*
X119974897Y-104497603D01*
X119746706Y-104310331D01*
X119713160Y-104292400D01*
X119746706Y-104274469D01*
X119974897Y-104087197D01*
X120162169Y-103859006D01*
X120301325Y-103598664D01*
X120387016Y-103316177D01*
X120415951Y-103022400D01*
X120387016Y-102728623D01*
X120301325Y-102446136D01*
X120162169Y-102185794D01*
X119974897Y-101957603D01*
X119746706Y-101770331D01*
X119713160Y-101752400D01*
X119746706Y-101734469D01*
X119974897Y-101547197D01*
X120162169Y-101319006D01*
X120301325Y-101058664D01*
X120387016Y-100776177D01*
X120415951Y-100482400D01*
X120387016Y-100188623D01*
X120301325Y-99906136D01*
X120162169Y-99645794D01*
X119974897Y-99417603D01*
X119746706Y-99230331D01*
X119713160Y-99212400D01*
X119746706Y-99194469D01*
X119974897Y-99007197D01*
X120162169Y-98779006D01*
X120301325Y-98518664D01*
X120387016Y-98236177D01*
X120415951Y-97942400D01*
X120387016Y-97648623D01*
X120301325Y-97366136D01*
X120162169Y-97105794D01*
X119974897Y-96877603D01*
X119746706Y-96690331D01*
X119713160Y-96672400D01*
X119746706Y-96654469D01*
X119923101Y-96509705D01*
X119948559Y-96593629D01*
X119959859Y-96630881D01*
X120025898Y-96754432D01*
X120086249Y-96827969D01*
X120114774Y-96862727D01*
X120141910Y-96884997D01*
X122517502Y-99260590D01*
X122539773Y-99287727D01*
X122648067Y-99376602D01*
X122771619Y-99442642D01*
X122905680Y-99483309D01*
X123010164Y-99493600D01*
X123010171Y-99493600D01*
X123045100Y-99497040D01*
X123080028Y-99493600D01*
X128000513Y-99493600D01*
X129683900Y-101176989D01*
X129683901Y-103835621D01*
X129683900Y-103835631D01*
X129683900Y-103872465D01*
X129683901Y-106112811D01*
X129342959Y-106453754D01*
X129042856Y-106329447D01*
X128630379Y-106247400D01*
X128209821Y-106247400D01*
X127797344Y-106329447D01*
X127408798Y-106490388D01*
X127059117Y-106724037D01*
X126761737Y-107021417D01*
X126528088Y-107371098D01*
X126367147Y-107759644D01*
X126285100Y-108172121D01*
X126285100Y-108592679D01*
X126367147Y-109005156D01*
X126528088Y-109393702D01*
X126761737Y-109743383D01*
X127059117Y-110040763D01*
X127408798Y-110274412D01*
X127797344Y-110435353D01*
X128209821Y-110517400D01*
X128630379Y-110517400D01*
X129042856Y-110435353D01*
X129431402Y-110274412D01*
X129781083Y-110040763D01*
X130078463Y-109743383D01*
X130312112Y-109393702D01*
X130473053Y-109005156D01*
X130520100Y-108768635D01*
X130567147Y-109005156D01*
X130728088Y-109393702D01*
X130961737Y-109743383D01*
X131259117Y-110040763D01*
X131608798Y-110274412D01*
X131997344Y-110435353D01*
X132409821Y-110517400D01*
X132830379Y-110517400D01*
X133242856Y-110435353D01*
X133631402Y-110274412D01*
X133981083Y-110040763D01*
X134278463Y-109743383D01*
X134512112Y-109393702D01*
X134673053Y-109005156D01*
X134755100Y-108592679D01*
X134755100Y-108172121D01*
X134673053Y-107759644D01*
X134512112Y-107371098D01*
X134278463Y-107021417D01*
X133981083Y-106724037D01*
X133631402Y-106490388D01*
X133242856Y-106329447D01*
X132830379Y-106247400D01*
X132409821Y-106247400D01*
X131997344Y-106329447D01*
X131756300Y-106429291D01*
X131756300Y-100692325D01*
X131759740Y-100657399D01*
X131756300Y-100622473D01*
X131756300Y-100622464D01*
X131746009Y-100517980D01*
X131705342Y-100383919D01*
X131639302Y-100260367D01*
X131550426Y-100152073D01*
X131523290Y-100129803D01*
X131422702Y-100029215D01*
X131422697Y-100029209D01*
X131172701Y-99779214D01*
X131172697Y-99779209D01*
X129047702Y-97654215D01*
X129025427Y-97627073D01*
X128917133Y-97538198D01*
X128793581Y-97472158D01*
X128659520Y-97431491D01*
X128583172Y-97423971D01*
X128583172Y-96987400D01*
X128570912Y-96862918D01*
X128534602Y-96743220D01*
X128531254Y-96736956D01*
X128583380Y-96694178D01*
X128613209Y-96657831D01*
X129535536Y-95735505D01*
X129571878Y-95705680D01*
X129690906Y-95560643D01*
X129779352Y-95395171D01*
X129833817Y-95215625D01*
X129841239Y-95140266D01*
X129852208Y-95028903D01*
X129847600Y-94982118D01*
X129847600Y-93777400D01*
X131157028Y-93777400D01*
X131169288Y-93901882D01*
X131205598Y-94021580D01*
X131254143Y-94112400D01*
X131205598Y-94203220D01*
X131169288Y-94322918D01*
X131157028Y-94447400D01*
X131157028Y-95047400D01*
X131169288Y-95171882D01*
X131205598Y-95291580D01*
X131254143Y-95382400D01*
X131205598Y-95473220D01*
X131169288Y-95592918D01*
X131157028Y-95717400D01*
X131157028Y-96317400D01*
X131169288Y-96441882D01*
X131205598Y-96561580D01*
X131254143Y-96652400D01*
X131205598Y-96743220D01*
X131169288Y-96862918D01*
X131157028Y-96987400D01*
X131157028Y-97587400D01*
X131169288Y-97711882D01*
X131205598Y-97831580D01*
X131264563Y-97941894D01*
X131343915Y-98038585D01*
X131440606Y-98117937D01*
X131550920Y-98176902D01*
X131670618Y-98213212D01*
X131795100Y-98225472D01*
X133345100Y-98225472D01*
X133469582Y-98213212D01*
X133589280Y-98176902D01*
X133699594Y-98117937D01*
X133796285Y-98038585D01*
X133867784Y-97951463D01*
X133945528Y-98015266D01*
X134082317Y-98088382D01*
X134230743Y-98133406D01*
X134346427Y-98144800D01*
X134346436Y-98144800D01*
X134385099Y-98148608D01*
X134423762Y-98144800D01*
X136246437Y-98144800D01*
X136285100Y-98148608D01*
X136323763Y-98144800D01*
X136323773Y-98144800D01*
X136439457Y-98133406D01*
X136587883Y-98088382D01*
X136724672Y-98015266D01*
X136844569Y-97916869D01*
X136869227Y-97886823D01*
X137595100Y-97160951D01*
X137782701Y-97348552D01*
X137782700Y-105643737D01*
X137778892Y-105682400D01*
X137782700Y-105721063D01*
X137782700Y-105721072D01*
X137794094Y-105836756D01*
X137839118Y-105985182D01*
X137912234Y-106121971D01*
X138010631Y-106241869D01*
X138040677Y-106266527D01*
X139507701Y-107733553D01*
X139507700Y-109713937D01*
X139503892Y-109752600D01*
X139507700Y-109791263D01*
X139507700Y-109791272D01*
X139519094Y-109906956D01*
X139564118Y-110055382D01*
X139637234Y-110192171D01*
X139735631Y-110312069D01*
X139765677Y-110336728D01*
X141173277Y-111744328D01*
X141120100Y-111744328D01*
X140995618Y-111756588D01*
X140875920Y-111792898D01*
X140765606Y-111851863D01*
X140668915Y-111931215D01*
X140589563Y-112027906D01*
X140530598Y-112138220D01*
X140494288Y-112257918D01*
X140482028Y-112382400D01*
X140482028Y-115382400D01*
X140494288Y-115506882D01*
X140530598Y-115626580D01*
X140589563Y-115736894D01*
X140668915Y-115833585D01*
X140765606Y-115912937D01*
X140875920Y-115971902D01*
X140995618Y-116008212D01*
X141120100Y-116020472D01*
X144120100Y-116020472D01*
X144244582Y-116008212D01*
X144364280Y-115971902D01*
X144474594Y-115912937D01*
X144571285Y-115833585D01*
X144650637Y-115736894D01*
X144709602Y-115626580D01*
X144745912Y-115506882D01*
X144758172Y-115382400D01*
X144758172Y-112382400D01*
X144745912Y-112257918D01*
X144709602Y-112138220D01*
X144650637Y-112027906D01*
X144571285Y-111931215D01*
X144474594Y-111851863D01*
X144364280Y-111792898D01*
X144244582Y-111756588D01*
X144120100Y-111744328D01*
X143334785Y-111744328D01*
X143277966Y-111638028D01*
X143220202Y-111567642D01*
X143204222Y-111548170D01*
X143204219Y-111548167D01*
X143179569Y-111518131D01*
X143149533Y-111493481D01*
X142114760Y-110458708D01*
X142409821Y-110517400D01*
X142830379Y-110517400D01*
X143242856Y-110435353D01*
X143631402Y-110274412D01*
X143981083Y-110040763D01*
X144278463Y-109743383D01*
X144512112Y-109393702D01*
X144673053Y-109005156D01*
X144755100Y-108592679D01*
X144755100Y-108172121D01*
X144673053Y-107759644D01*
X144512112Y-107371098D01*
X144278463Y-107021417D01*
X143981083Y-106724037D01*
X143631402Y-106490388D01*
X143242856Y-106329447D01*
X142830379Y-106247400D01*
X142409821Y-106247400D01*
X141997344Y-106329447D01*
X141773441Y-106422191D01*
X140307500Y-104956250D01*
X140307500Y-94371062D01*
X140311308Y-94332399D01*
X140307500Y-94293736D01*
X140307500Y-94293727D01*
X140296106Y-94178043D01*
X140251082Y-94029617D01*
X140177966Y-93892828D01*
X140079569Y-93772931D01*
X140049528Y-93748278D01*
X139579227Y-93277977D01*
X139554569Y-93247931D01*
X139434672Y-93149534D01*
X139297883Y-93076418D01*
X139149457Y-93031394D01*
X139033773Y-93020000D01*
X139033763Y-93020000D01*
X138995100Y-93016192D01*
X138956437Y-93020000D01*
X137038562Y-93020000D01*
X136999899Y-93016192D01*
X136961236Y-93020000D01*
X136961227Y-93020000D01*
X136845543Y-93031394D01*
X136697117Y-93076418D01*
X136560328Y-93149534D01*
X136541871Y-93164681D01*
X136470469Y-93223279D01*
X136470467Y-93223281D01*
X136440431Y-93247931D01*
X136415781Y-93277967D01*
X136177251Y-93516498D01*
X136144582Y-93506588D01*
X136020100Y-93494328D01*
X134720100Y-93494328D01*
X134595618Y-93506588D01*
X134475920Y-93542898D01*
X134365606Y-93601863D01*
X134268915Y-93681215D01*
X134189563Y-93777906D01*
X134130598Y-93888220D01*
X134108824Y-93960000D01*
X133953282Y-93960000D01*
X133970912Y-93901882D01*
X133983172Y-93777400D01*
X133980100Y-93763150D01*
X133821350Y-93604400D01*
X132697100Y-93604400D01*
X132697100Y-93624400D01*
X132443100Y-93624400D01*
X132443100Y-93604400D01*
X131318850Y-93604400D01*
X131160100Y-93763150D01*
X131157028Y-93777400D01*
X129847600Y-93777400D01*
X129847600Y-93177400D01*
X131157028Y-93177400D01*
X131160100Y-93191650D01*
X131318850Y-93350400D01*
X132443100Y-93350400D01*
X132443100Y-92701150D01*
X132697100Y-92701150D01*
X132697100Y-93350400D01*
X133821350Y-93350400D01*
X133980100Y-93191650D01*
X133983172Y-93177400D01*
X133970912Y-93052918D01*
X133934602Y-92933220D01*
X133875637Y-92822906D01*
X133796285Y-92726215D01*
X133699594Y-92646863D01*
X133589280Y-92587898D01*
X133469582Y-92551588D01*
X133345100Y-92539328D01*
X132855850Y-92542400D01*
X132697100Y-92701150D01*
X132443100Y-92701150D01*
X132284350Y-92542400D01*
X131795100Y-92539328D01*
X131670618Y-92551588D01*
X131550920Y-92587898D01*
X131440606Y-92646863D01*
X131343915Y-92726215D01*
X131264563Y-92822906D01*
X131205598Y-92933220D01*
X131169288Y-93052918D01*
X131157028Y-93177400D01*
X129847600Y-93177400D01*
X129847600Y-91454184D01*
X129852208Y-91407399D01*
X129833817Y-91220677D01*
X129788414Y-91071005D01*
X131161100Y-91071005D01*
X131287014Y-91360977D01*
X131619226Y-91526833D01*
X131977412Y-91624690D01*
X132347806Y-91650789D01*
X132716175Y-91604125D01*
X133068362Y-91486494D01*
X133303186Y-91360977D01*
X133429100Y-91071005D01*
X132295100Y-89937005D01*
X131161100Y-91071005D01*
X129788414Y-91071005D01*
X129779352Y-91041131D01*
X129690906Y-90875659D01*
X129571878Y-90730622D01*
X129535536Y-90700797D01*
X128644845Y-89810106D01*
X130401711Y-89810106D01*
X130448375Y-90178475D01*
X130566006Y-90530662D01*
X130691523Y-90765486D01*
X130981495Y-90891400D01*
X132115495Y-89757400D01*
X132474705Y-89757400D01*
X133608705Y-90891400D01*
X133898677Y-90765486D01*
X134064533Y-90433274D01*
X134162390Y-90075088D01*
X134188489Y-89704694D01*
X134141825Y-89336325D01*
X134024194Y-88984138D01*
X133898677Y-88749314D01*
X133608705Y-88623400D01*
X132474705Y-89757400D01*
X132115495Y-89757400D01*
X130981495Y-88623400D01*
X130691523Y-88749314D01*
X130525667Y-89081526D01*
X130427810Y-89439712D01*
X130401711Y-89810106D01*
X128644845Y-89810106D01*
X127278534Y-88443795D01*
X131161100Y-88443795D01*
X132295100Y-89577795D01*
X133429100Y-88443795D01*
X133303186Y-88153823D01*
X132970974Y-87987967D01*
X132612788Y-87890110D01*
X132242394Y-87864011D01*
X131874025Y-87910675D01*
X131521838Y-88028306D01*
X131287014Y-88153823D01*
X131161100Y-88443795D01*
X127278534Y-88443795D01*
X126576707Y-87741969D01*
X126546878Y-87705622D01*
X126401841Y-87586594D01*
X126267692Y-87514891D01*
X126259602Y-87488220D01*
X126200637Y-87377906D01*
X126121285Y-87281215D01*
X126090980Y-87256344D01*
X126051082Y-87124817D01*
X125977966Y-86988028D01*
X125952526Y-86957029D01*
X125904222Y-86898170D01*
X125904219Y-86898167D01*
X125879569Y-86868131D01*
X125849534Y-86843482D01*
X125675948Y-86669896D01*
X125794582Y-86658212D01*
X125914280Y-86621902D01*
X125940590Y-86607839D01*
X126074579Y-86697367D01*
X126226540Y-86760311D01*
X126387860Y-86792400D01*
X126552340Y-86792400D01*
X126713660Y-86760311D01*
X126865621Y-86697367D01*
X127002381Y-86605987D01*
X127118687Y-86489681D01*
X127210067Y-86352921D01*
X127273011Y-86200960D01*
X127283113Y-86150175D01*
X127572697Y-85860591D01*
X127572701Y-85860586D01*
X130464689Y-82968600D01*
X142663055Y-82968600D01*
X142669288Y-83031882D01*
X142705598Y-83151580D01*
X142764563Y-83261894D01*
X142843915Y-83358585D01*
X142940606Y-83437937D01*
X143050920Y-83496902D01*
X143170618Y-83533212D01*
X143295100Y-83545472D01*
X143995100Y-83545472D01*
X144119582Y-83533212D01*
X144239280Y-83496902D01*
X144349594Y-83437937D01*
X144446285Y-83358585D01*
X144525637Y-83261894D01*
X144584602Y-83151580D01*
X144595100Y-83116973D01*
X144605598Y-83151580D01*
X144664563Y-83261894D01*
X144743915Y-83358585D01*
X144840606Y-83437937D01*
X144950920Y-83496902D01*
X145070618Y-83533212D01*
X145195100Y-83545472D01*
X145895100Y-83545472D01*
X146019582Y-83533212D01*
X146139280Y-83496902D01*
X146249594Y-83437937D01*
X146346285Y-83358585D01*
X146425637Y-83261894D01*
X146484602Y-83151580D01*
X146520912Y-83031882D01*
X146533172Y-82907400D01*
X146533172Y-81607400D01*
X146521096Y-81484791D01*
X147348295Y-80657593D01*
X147375426Y-80635327D01*
X147397693Y-80608195D01*
X147397697Y-80608191D01*
X147464302Y-80527033D01*
X147511925Y-80437937D01*
X147530342Y-80403481D01*
X147571009Y-80269420D01*
X147581300Y-80164936D01*
X147581300Y-80164929D01*
X147584740Y-80130000D01*
X147581300Y-80095072D01*
X147581300Y-77401972D01*
X149770100Y-77401972D01*
X149894582Y-77389712D01*
X150014280Y-77353402D01*
X150124594Y-77294437D01*
X150200101Y-77232470D01*
X150200100Y-92406349D01*
X150200100Y-92406349D01*
G37*
X150200100Y-92406349D02*
X149445111Y-93161339D01*
X149286112Y-93246325D01*
X149229675Y-93292642D01*
X149141183Y-93365265D01*
X149141180Y-93365268D01*
X149092730Y-93405030D01*
X149052967Y-93453481D01*
X147991186Y-94515264D01*
X147942731Y-94555030D01*
X147784026Y-94748412D01*
X147678851Y-94945182D01*
X147666098Y-94969041D01*
X147593477Y-95208437D01*
X147568957Y-95457400D01*
X147575101Y-95519783D01*
X147575100Y-102880361D01*
X145554664Y-104900798D01*
X145518323Y-104930622D01*
X145478113Y-104979618D01*
X145399294Y-105075660D01*
X145310849Y-105241131D01*
X145256383Y-105420678D01*
X145237992Y-105607400D01*
X145242601Y-105654195D01*
X145242600Y-118360615D01*
X145237992Y-118407400D01*
X145242600Y-118454184D01*
X145256383Y-118594122D01*
X145310848Y-118773668D01*
X145399294Y-118939141D01*
X145518322Y-119084178D01*
X145554669Y-119114007D01*
X147138493Y-120697831D01*
X147168322Y-120734178D01*
X147313359Y-120853206D01*
X147478831Y-120941652D01*
X147610162Y-120981491D01*
X147658377Y-120996117D01*
X147845099Y-121014508D01*
X147891884Y-121009900D01*
X151663989Y-121009900D01*
X151783378Y-121046117D01*
X151970100Y-121064508D01*
X152156822Y-121046117D01*
X152336369Y-120991651D01*
X152501840Y-120903206D01*
X152610537Y-120814001D01*
X152660529Y-120764009D01*
X152696878Y-120734178D01*
X152726707Y-120697831D01*
X152830806Y-120593733D01*
X152842189Y-120650960D01*
X152905133Y-120802921D01*
X152996513Y-120939681D01*
X153112819Y-121055987D01*
X153249579Y-121147367D01*
X153401540Y-121210311D01*
X153452326Y-121220413D01*
X154071230Y-121839319D01*
X154039563Y-121877906D01*
X153980598Y-121988220D01*
X153944288Y-122107918D01*
X153932028Y-122232400D01*
X153932028Y-123532400D01*
X153944288Y-123656882D01*
X153980598Y-123776580D01*
X154039563Y-123886894D01*
X154118915Y-123983585D01*
X154215606Y-124062937D01*
X154325920Y-124121902D01*
X154445618Y-124158212D01*
X154570100Y-124170472D01*
X154823841Y-124170472D01*
X154441910Y-124552403D01*
X154414773Y-124574674D01*
X154369676Y-124629625D01*
X154325920Y-124642898D01*
X154215606Y-124701863D01*
X154118915Y-124781215D01*
X154039563Y-124877906D01*
X153980598Y-124988220D01*
X153944288Y-125107918D01*
X153932028Y-125232400D01*
X153932028Y-126532400D01*
X153944288Y-126656882D01*
X153980598Y-126776580D01*
X154039563Y-126886894D01*
X154118915Y-126983585D01*
X154215606Y-127062937D01*
X154325920Y-127121902D01*
X154445618Y-127158212D01*
X154570100Y-127170472D01*
X155270100Y-127170472D01*
X155394582Y-127158212D01*
X155514280Y-127121902D01*
X155624594Y-127062937D01*
X155721285Y-126983585D01*
X155800637Y-126886894D01*
X155859602Y-126776580D01*
X155870100Y-126741973D01*
X155880598Y-126776580D01*
X155939563Y-126886894D01*
X156018915Y-126983585D01*
X156115606Y-127062937D01*
X156225920Y-127121902D01*
X156345618Y-127158212D01*
X156470100Y-127170472D01*
X157170100Y-127170472D01*
X157294582Y-127158212D01*
X157414280Y-127121902D01*
X157524594Y-127062937D01*
X157621285Y-126983585D01*
X157700637Y-126886894D01*
X157759602Y-126776580D01*
X157795912Y-126656882D01*
X157808172Y-126532400D01*
X157808172Y-125900116D01*
X158498296Y-125209993D01*
X158525427Y-125187727D01*
X158547693Y-125160596D01*
X158547697Y-125160592D01*
X158614302Y-125079433D01*
X158653649Y-125005820D01*
X158680342Y-124955881D01*
X158721009Y-124821820D01*
X158731300Y-124717336D01*
X158731300Y-124717327D01*
X158734740Y-124682401D01*
X158731300Y-124647475D01*
X158731300Y-123151987D01*
X159887876Y-121995413D01*
X159938660Y-121985311D01*
X160090621Y-121922367D01*
X160150682Y-121882236D01*
X160032459Y-122106277D01*
X159873199Y-122641533D01*
X159821422Y-123197574D01*
X159879119Y-123753032D01*
X160044072Y-124286561D01*
X160293082Y-124752424D01*
X160680325Y-124992570D01*
X162490495Y-123182400D01*
X162476353Y-123168258D01*
X162655958Y-122988653D01*
X162670100Y-123002795D01*
X164480270Y-121192625D01*
X164240124Y-120805382D01*
X164050591Y-120705369D01*
X164190621Y-120647367D01*
X164233674Y-120618600D01*
X164910174Y-120618600D01*
X164945100Y-120622040D01*
X164980026Y-120618600D01*
X164980036Y-120618600D01*
X165084520Y-120608309D01*
X165218581Y-120567642D01*
X165342133Y-120501602D01*
X165450427Y-120412727D01*
X165472702Y-120385586D01*
X166340223Y-119518066D01*
X166593836Y-119653625D01*
X166876323Y-119739316D01*
X167096481Y-119761000D01*
X167243719Y-119761000D01*
X167463877Y-119739316D01*
X167746364Y-119653625D01*
X167997742Y-119519260D01*
X167766864Y-120324430D01*
X167253667Y-121569537D01*
X166604882Y-122749674D01*
X165828586Y-123850144D01*
X165075856Y-124697963D01*
X165307741Y-124258523D01*
X165467001Y-123723267D01*
X165518778Y-123167226D01*
X165461081Y-122611768D01*
X165296128Y-122078239D01*
X165047118Y-121612376D01*
X164659875Y-121372230D01*
X162849705Y-123182400D01*
X162863848Y-123196543D01*
X162684243Y-123376148D01*
X162670100Y-123362005D01*
X160859930Y-125172175D01*
X161100076Y-125559418D01*
X161593977Y-125820041D01*
X162129233Y-125979301D01*
X162685274Y-126031078D01*
X163240732Y-125973381D01*
X163774261Y-125808428D01*
X164029638Y-125671926D01*
X163933653Y-125758351D01*
X162838639Y-126542304D01*
X161663061Y-127199313D01*
X160421563Y-127721191D01*
X159129638Y-128101425D01*
X157803368Y-128335282D01*
X156442664Y-128420891D01*
X156374031Y-128421130D01*
X127182875Y-128421130D01*
X125820482Y-128344961D01*
X124492617Y-128120369D01*
X123198070Y-127749164D01*
X121952963Y-127235967D01*
X120772826Y-126587182D01*
X119672356Y-125810886D01*
X119666098Y-125805330D01*
X119693977Y-125820041D01*
X120229233Y-125979301D01*
X120785274Y-126031078D01*
X121340732Y-125973381D01*
X121874261Y-125808428D01*
X122340124Y-125559418D01*
X122580270Y-125172175D01*
X120770100Y-123362005D01*
X120755958Y-123376148D01*
X120576353Y-123196543D01*
X120590495Y-123182400D01*
X120949705Y-123182400D01*
X122759875Y-124992570D01*
X123147118Y-124752424D01*
X123407741Y-124258523D01*
X123567001Y-123723267D01*
X123618778Y-123167226D01*
X123561081Y-122611768D01*
X123396128Y-122078239D01*
X123147118Y-121612376D01*
X122759875Y-121372230D01*
X120949705Y-123182400D01*
X120590495Y-123182400D01*
X118780325Y-121372230D01*
X118393082Y-121612376D01*
X118132459Y-122106277D01*
X117973199Y-122641533D01*
X117921422Y-123197574D01*
X117979119Y-123753032D01*
X118144072Y-124286561D01*
X118211602Y-124412899D01*
X117764149Y-123915953D01*
X116980196Y-122820939D01*
X116323187Y-121645361D01*
X116132875Y-121192625D01*
X118959930Y-121192625D01*
X120770100Y-123002795D01*
X122580270Y-121192625D01*
X122443527Y-120972121D01*
X128385100Y-120972121D01*
X128385100Y-121392679D01*
X128467147Y-121805156D01*
X128628088Y-122193702D01*
X128861737Y-122543383D01*
X129159117Y-122840763D01*
X129508798Y-123074412D01*
X129897344Y-123235353D01*
X130309821Y-123317400D01*
X130730379Y-123317400D01*
X131142856Y-123235353D01*
X131531402Y-123074412D01*
X131881083Y-122840763D01*
X132178463Y-122543383D01*
X132412112Y-122193702D01*
X132573053Y-121805156D01*
X132655100Y-121392679D01*
X132655100Y-120972121D01*
X140485100Y-120972121D01*
X140485100Y-121392679D01*
X140567147Y-121805156D01*
X140728088Y-122193702D01*
X140961737Y-122543383D01*
X141259117Y-122840763D01*
X141608798Y-123074412D01*
X141997344Y-123235353D01*
X142409821Y-123317400D01*
X142830379Y-123317400D01*
X143242856Y-123235353D01*
X143631402Y-123074412D01*
X143981083Y-122840763D01*
X144278463Y-122543383D01*
X144512112Y-122193702D01*
X144673053Y-121805156D01*
X144755100Y-121392679D01*
X144755100Y-120972121D01*
X144673053Y-120559644D01*
X144512112Y-120171098D01*
X144278463Y-119821417D01*
X143981083Y-119524037D01*
X143631402Y-119290388D01*
X143242856Y-119129447D01*
X142830379Y-119047400D01*
X142409821Y-119047400D01*
X141997344Y-119129447D01*
X141608798Y-119290388D01*
X141259117Y-119524037D01*
X140961737Y-119821417D01*
X140728088Y-120171098D01*
X140567147Y-120559644D01*
X140485100Y-120972121D01*
X132655100Y-120972121D01*
X132573053Y-120559644D01*
X132412112Y-120171098D01*
X132178463Y-119821417D01*
X131881083Y-119524037D01*
X131531402Y-119290388D01*
X131142856Y-119129447D01*
X130730379Y-119047400D01*
X130309821Y-119047400D01*
X129897344Y-119129447D01*
X129508798Y-119290388D01*
X129159117Y-119524037D01*
X128861737Y-119821417D01*
X128628088Y-120171098D01*
X128467147Y-120559644D01*
X128385100Y-120972121D01*
X122443527Y-120972121D01*
X122340124Y-120805382D01*
X121846223Y-120544759D01*
X121310967Y-120385499D01*
X120754926Y-120333722D01*
X120199468Y-120391419D01*
X119665939Y-120556372D01*
X119200076Y-120805382D01*
X118959930Y-121192625D01*
X116132875Y-121192625D01*
X115801309Y-120403863D01*
X115535692Y-119501374D01*
X115734122Y-119619364D01*
X116011073Y-119717363D01*
X116243100Y-119596864D01*
X116243100Y-118389400D01*
X116497100Y-118389400D01*
X116497100Y-119596864D01*
X116729127Y-119717363D01*
X117006078Y-119619364D01*
X117258588Y-119469217D01*
X117476954Y-119272693D01*
X117640100Y-119054322D01*
X117803246Y-119272693D01*
X118021612Y-119469217D01*
X118274122Y-119619364D01*
X118551073Y-119717363D01*
X118783100Y-119596864D01*
X118783100Y-118389400D01*
X119037100Y-118389400D01*
X119037100Y-119596864D01*
X119269127Y-119717363D01*
X119546078Y-119619364D01*
X119798588Y-119469217D01*
X120016954Y-119272693D01*
X120192784Y-119037344D01*
X120319322Y-118772214D01*
X120365058Y-118621426D01*
X120243917Y-118389400D01*
X119037100Y-118389400D01*
X118783100Y-118389400D01*
X116497100Y-118389400D01*
X116243100Y-118389400D01*
X116223100Y-118389400D01*
X116223100Y-118135400D01*
X116243100Y-118135400D01*
X116243100Y-115849400D01*
X116497100Y-115849400D01*
X116497100Y-118135400D01*
X118783100Y-118135400D01*
X118783100Y-115849400D01*
X119037100Y-115849400D01*
X119037100Y-118135400D01*
X120243917Y-118135400D01*
X120365058Y-117903374D01*
X120319322Y-117752586D01*
X120192784Y-117487456D01*
X120016954Y-117252107D01*
X119798588Y-117055583D01*
X119692330Y-116992400D01*
X119798588Y-116929217D01*
X120016954Y-116732693D01*
X120192784Y-116497344D01*
X120319322Y-116232214D01*
X120365058Y-116081426D01*
X120243917Y-115849400D01*
X119037100Y-115849400D01*
X118783100Y-115849400D01*
X116497100Y-115849400D01*
X116243100Y-115849400D01*
X116223100Y-115849400D01*
X116223100Y-115595400D01*
X116243100Y-115595400D01*
X116243100Y-115575400D01*
X116497100Y-115575400D01*
X116497100Y-115595400D01*
X118783100Y-115595400D01*
X118783100Y-115575400D01*
X119037100Y-115575400D01*
X119037100Y-115595400D01*
X120243917Y-115595400D01*
X120359482Y-115374053D01*
X127108052Y-115374053D01*
X127264062Y-115689614D01*
X127638845Y-115880420D01*
X128043651Y-115994444D01*
X128462924Y-116027302D01*
X128880551Y-115977734D01*
X129280483Y-115847643D01*
X129576138Y-115689614D01*
X129732148Y-115374053D01*
X128420100Y-114062005D01*
X127108052Y-115374053D01*
X120359482Y-115374053D01*
X120365058Y-115363374D01*
X120319322Y-115212586D01*
X120192784Y-114947456D01*
X120016954Y-114712107D01*
X119798588Y-114515583D01*
X119702190Y-114458263D01*
X119746706Y-114434469D01*
X119974897Y-114247197D01*
X120162169Y-114019006D01*
X120212296Y-113925224D01*
X126275198Y-113925224D01*
X126324766Y-114342851D01*
X126454857Y-114742783D01*
X126612886Y-115038438D01*
X126928447Y-115194448D01*
X128240495Y-113882400D01*
X128599705Y-113882400D01*
X129911753Y-115194448D01*
X130227314Y-115038438D01*
X130418120Y-114663655D01*
X130484442Y-114428199D01*
X130482028Y-115382400D01*
X130494288Y-115506882D01*
X130530598Y-115626580D01*
X130589563Y-115736894D01*
X130668915Y-115833585D01*
X130765606Y-115912937D01*
X130875920Y-115971902D01*
X130995618Y-116008212D01*
X131120100Y-116020472D01*
X132334350Y-116017400D01*
X132493100Y-115858650D01*
X132493100Y-114009400D01*
X132747100Y-114009400D01*
X132747100Y-115858650D01*
X132905850Y-116017400D01*
X134120100Y-116020472D01*
X134244582Y-116008212D01*
X134364280Y-115971902D01*
X134474594Y-115912937D01*
X134571285Y-115833585D01*
X134650637Y-115736894D01*
X134709602Y-115626580D01*
X134745912Y-115506882D01*
X134758172Y-115382400D01*
X134755100Y-114168150D01*
X134596350Y-114009400D01*
X132747100Y-114009400D01*
X132493100Y-114009400D01*
X132473100Y-114009400D01*
X132473100Y-113755400D01*
X132493100Y-113755400D01*
X132493100Y-111906150D01*
X132747100Y-111906150D01*
X132747100Y-113755400D01*
X134596350Y-113755400D01*
X134755100Y-113596650D01*
X134758172Y-112382400D01*
X134745912Y-112257918D01*
X134709602Y-112138220D01*
X134650637Y-112027906D01*
X134571285Y-111931215D01*
X134474594Y-111851863D01*
X134364280Y-111792898D01*
X134244582Y-111756588D01*
X134120100Y-111744328D01*
X132905850Y-111747400D01*
X132747100Y-111906150D01*
X132493100Y-111906150D01*
X132334350Y-111747400D01*
X131120100Y-111744328D01*
X130995618Y-111756588D01*
X130875920Y-111792898D01*
X130765606Y-111851863D01*
X130668915Y-111931215D01*
X130589563Y-112027906D01*
X130530598Y-112138220D01*
X130494288Y-112257918D01*
X130482028Y-112382400D01*
X130484417Y-113326594D01*
X130385343Y-113022017D01*
X130227314Y-112726362D01*
X129911753Y-112570352D01*
X128599705Y-113882400D01*
X128240495Y-113882400D01*
X126928447Y-112570352D01*
X126612886Y-112726362D01*
X126422080Y-113101145D01*
X126308056Y-113505951D01*
X126275198Y-113925224D01*
X120212296Y-113925224D01*
X120301325Y-113758664D01*
X120387016Y-113476177D01*
X120415951Y-113182400D01*
X120387016Y-112888623D01*
X120301325Y-112606136D01*
X120186197Y-112390747D01*
X127108052Y-112390747D01*
X128420100Y-113702795D01*
X129732148Y-112390747D01*
X129576138Y-112075186D01*
X129201355Y-111884380D01*
X128796549Y-111770356D01*
X128377276Y-111737498D01*
X127959649Y-111787066D01*
X127559717Y-111917157D01*
X127264062Y-112075186D01*
X127108052Y-112390747D01*
X120186197Y-112390747D01*
X120162169Y-112345794D01*
X119974897Y-112117603D01*
X119746706Y-111930331D01*
X119713160Y-111912400D01*
X119746706Y-111894469D01*
X119974897Y-111707197D01*
X120162169Y-111479006D01*
X120301325Y-111218664D01*
X120387016Y-110936177D01*
X120415951Y-110642400D01*
X120387016Y-110348623D01*
X120301325Y-110066136D01*
X120162169Y-109805794D01*
X119974897Y-109577603D01*
X119746706Y-109390331D01*
X119713160Y-109372400D01*
X119746706Y-109354469D01*
X119974897Y-109167197D01*
X120162169Y-108939006D01*
X120301325Y-108678664D01*
X120387016Y-108396177D01*
X120415951Y-108102400D01*
X120387016Y-107808623D01*
X120301325Y-107526136D01*
X120162169Y-107265794D01*
X119974897Y-107037603D01*
X119746706Y-106850331D01*
X119713160Y-106832400D01*
X119746706Y-106814469D01*
X119974897Y-106627197D01*
X120162169Y-106399006D01*
X120301325Y-106138664D01*
X120387016Y-105856177D01*
X120415951Y-105562400D01*
X120387016Y-105268623D01*
X120301325Y-104986136D01*
X120162169Y-104725794D01*
X119974897Y-104497603D01*
X119746706Y-104310331D01*
X119713160Y-104292400D01*
X119746706Y-104274469D01*
X119974897Y-104087197D01*
X120162169Y-103859006D01*
X120301325Y-103598664D01*
X120387016Y-103316177D01*
X120415951Y-103022400D01*
X120387016Y-102728623D01*
X120301325Y-102446136D01*
X120162169Y-102185794D01*
X119974897Y-101957603D01*
X119746706Y-101770331D01*
X119713160Y-101752400D01*
X119746706Y-101734469D01*
X119974897Y-101547197D01*
X120162169Y-101319006D01*
X120301325Y-101058664D01*
X120387016Y-100776177D01*
X120415951Y-100482400D01*
X120387016Y-100188623D01*
X120301325Y-99906136D01*
X120162169Y-99645794D01*
X119974897Y-99417603D01*
X119746706Y-99230331D01*
X119713160Y-99212400D01*
X119746706Y-99194469D01*
X119974897Y-99007197D01*
X120162169Y-98779006D01*
X120301325Y-98518664D01*
X120387016Y-98236177D01*
X120415951Y-97942400D01*
X120387016Y-97648623D01*
X120301325Y-97366136D01*
X120162169Y-97105794D01*
X119974897Y-96877603D01*
X119746706Y-96690331D01*
X119713160Y-96672400D01*
X119746706Y-96654469D01*
X119923101Y-96509705D01*
X119948559Y-96593629D01*
X119959859Y-96630881D01*
X120025898Y-96754432D01*
X120086249Y-96827969D01*
X120114774Y-96862727D01*
X120141910Y-96884997D01*
X122517502Y-99260590D01*
X122539773Y-99287727D01*
X122648067Y-99376602D01*
X122771619Y-99442642D01*
X122905680Y-99483309D01*
X123010164Y-99493600D01*
X123010171Y-99493600D01*
X123045100Y-99497040D01*
X123080028Y-99493600D01*
X128000513Y-99493600D01*
X129683900Y-101176989D01*
X129683901Y-103835621D01*
X129683900Y-103835631D01*
X129683900Y-103872465D01*
X129683901Y-106112811D01*
X129342959Y-106453754D01*
X129042856Y-106329447D01*
X128630379Y-106247400D01*
X128209821Y-106247400D01*
X127797344Y-106329447D01*
X127408798Y-106490388D01*
X127059117Y-106724037D01*
X126761737Y-107021417D01*
X126528088Y-107371098D01*
X126367147Y-107759644D01*
X126285100Y-108172121D01*
X126285100Y-108592679D01*
X126367147Y-109005156D01*
X126528088Y-109393702D01*
X126761737Y-109743383D01*
X127059117Y-110040763D01*
X127408798Y-110274412D01*
X127797344Y-110435353D01*
X128209821Y-110517400D01*
X128630379Y-110517400D01*
X129042856Y-110435353D01*
X129431402Y-110274412D01*
X129781083Y-110040763D01*
X130078463Y-109743383D01*
X130312112Y-109393702D01*
X130473053Y-109005156D01*
X130520100Y-108768635D01*
X130567147Y-109005156D01*
X130728088Y-109393702D01*
X130961737Y-109743383D01*
X131259117Y-110040763D01*
X131608798Y-110274412D01*
X131997344Y-110435353D01*
X132409821Y-110517400D01*
X132830379Y-110517400D01*
X133242856Y-110435353D01*
X133631402Y-110274412D01*
X133981083Y-110040763D01*
X134278463Y-109743383D01*
X134512112Y-109393702D01*
X134673053Y-109005156D01*
X134755100Y-108592679D01*
X134755100Y-108172121D01*
X134673053Y-107759644D01*
X134512112Y-107371098D01*
X134278463Y-107021417D01*
X133981083Y-106724037D01*
X133631402Y-106490388D01*
X133242856Y-106329447D01*
X132830379Y-106247400D01*
X132409821Y-106247400D01*
X131997344Y-106329447D01*
X131756300Y-106429291D01*
X131756300Y-100692325D01*
X131759740Y-100657399D01*
X131756300Y-100622473D01*
X131756300Y-100622464D01*
X131746009Y-100517980D01*
X131705342Y-100383919D01*
X131639302Y-100260367D01*
X131550426Y-100152073D01*
X131523290Y-100129803D01*
X131422702Y-100029215D01*
X131422697Y-100029209D01*
X131172701Y-99779214D01*
X131172697Y-99779209D01*
X129047702Y-97654215D01*
X129025427Y-97627073D01*
X128917133Y-97538198D01*
X128793581Y-97472158D01*
X128659520Y-97431491D01*
X128583172Y-97423971D01*
X128583172Y-96987400D01*
X128570912Y-96862918D01*
X128534602Y-96743220D01*
X128531254Y-96736956D01*
X128583380Y-96694178D01*
X128613209Y-96657831D01*
X129535536Y-95735505D01*
X129571878Y-95705680D01*
X129690906Y-95560643D01*
X129779352Y-95395171D01*
X129833817Y-95215625D01*
X129841239Y-95140266D01*
X129852208Y-95028903D01*
X129847600Y-94982118D01*
X129847600Y-93777400D01*
X131157028Y-93777400D01*
X131169288Y-93901882D01*
X131205598Y-94021580D01*
X131254143Y-94112400D01*
X131205598Y-94203220D01*
X131169288Y-94322918D01*
X131157028Y-94447400D01*
X131157028Y-95047400D01*
X131169288Y-95171882D01*
X131205598Y-95291580D01*
X131254143Y-95382400D01*
X131205598Y-95473220D01*
X131169288Y-95592918D01*
X131157028Y-95717400D01*
X131157028Y-96317400D01*
X131169288Y-96441882D01*
X131205598Y-96561580D01*
X131254143Y-96652400D01*
X131205598Y-96743220D01*
X131169288Y-96862918D01*
X131157028Y-96987400D01*
X131157028Y-97587400D01*
X131169288Y-97711882D01*
X131205598Y-97831580D01*
X131264563Y-97941894D01*
X131343915Y-98038585D01*
X131440606Y-98117937D01*
X131550920Y-98176902D01*
X131670618Y-98213212D01*
X131795100Y-98225472D01*
X133345100Y-98225472D01*
X133469582Y-98213212D01*
X133589280Y-98176902D01*
X133699594Y-98117937D01*
X133796285Y-98038585D01*
X133867784Y-97951463D01*
X133945528Y-98015266D01*
X134082317Y-98088382D01*
X134230743Y-98133406D01*
X134346427Y-98144800D01*
X134346436Y-98144800D01*
X134385099Y-98148608D01*
X134423762Y-98144800D01*
X136246437Y-98144800D01*
X136285100Y-98148608D01*
X136323763Y-98144800D01*
X136323773Y-98144800D01*
X136439457Y-98133406D01*
X136587883Y-98088382D01*
X136724672Y-98015266D01*
X136844569Y-97916869D01*
X136869227Y-97886823D01*
X137595100Y-97160951D01*
X137782701Y-97348552D01*
X137782700Y-105643737D01*
X137778892Y-105682400D01*
X137782700Y-105721063D01*
X137782700Y-105721072D01*
X137794094Y-105836756D01*
X137839118Y-105985182D01*
X137912234Y-106121971D01*
X138010631Y-106241869D01*
X138040677Y-106266527D01*
X139507701Y-107733553D01*
X139507700Y-109713937D01*
X139503892Y-109752600D01*
X139507700Y-109791263D01*
X139507700Y-109791272D01*
X139519094Y-109906956D01*
X139564118Y-110055382D01*
X139637234Y-110192171D01*
X139735631Y-110312069D01*
X139765677Y-110336728D01*
X141173277Y-111744328D01*
X141120100Y-111744328D01*
X140995618Y-111756588D01*
X140875920Y-111792898D01*
X140765606Y-111851863D01*
X140668915Y-111931215D01*
X140589563Y-112027906D01*
X140530598Y-112138220D01*
X140494288Y-112257918D01*
X140482028Y-112382400D01*
X140482028Y-115382400D01*
X140494288Y-115506882D01*
X140530598Y-115626580D01*
X140589563Y-115736894D01*
X140668915Y-115833585D01*
X140765606Y-115912937D01*
X140875920Y-115971902D01*
X140995618Y-116008212D01*
X141120100Y-116020472D01*
X144120100Y-116020472D01*
X144244582Y-116008212D01*
X144364280Y-115971902D01*
X144474594Y-115912937D01*
X144571285Y-115833585D01*
X144650637Y-115736894D01*
X144709602Y-115626580D01*
X144745912Y-115506882D01*
X144758172Y-115382400D01*
X144758172Y-112382400D01*
X144745912Y-112257918D01*
X144709602Y-112138220D01*
X144650637Y-112027906D01*
X144571285Y-111931215D01*
X144474594Y-111851863D01*
X144364280Y-111792898D01*
X144244582Y-111756588D01*
X144120100Y-111744328D01*
X143334785Y-111744328D01*
X143277966Y-111638028D01*
X143220202Y-111567642D01*
X143204222Y-111548170D01*
X143204219Y-111548167D01*
X143179569Y-111518131D01*
X143149533Y-111493481D01*
X142114760Y-110458708D01*
X142409821Y-110517400D01*
X142830379Y-110517400D01*
X143242856Y-110435353D01*
X143631402Y-110274412D01*
X143981083Y-110040763D01*
X144278463Y-109743383D01*
X144512112Y-109393702D01*
X144673053Y-109005156D01*
X144755100Y-108592679D01*
X144755100Y-108172121D01*
X144673053Y-107759644D01*
X144512112Y-107371098D01*
X144278463Y-107021417D01*
X143981083Y-106724037D01*
X143631402Y-106490388D01*
X143242856Y-106329447D01*
X142830379Y-106247400D01*
X142409821Y-106247400D01*
X141997344Y-106329447D01*
X141773441Y-106422191D01*
X140307500Y-104956250D01*
X140307500Y-94371062D01*
X140311308Y-94332399D01*
X140307500Y-94293736D01*
X140307500Y-94293727D01*
X140296106Y-94178043D01*
X140251082Y-94029617D01*
X140177966Y-93892828D01*
X140079569Y-93772931D01*
X140049528Y-93748278D01*
X139579227Y-93277977D01*
X139554569Y-93247931D01*
X139434672Y-93149534D01*
X139297883Y-93076418D01*
X139149457Y-93031394D01*
X139033773Y-93020000D01*
X139033763Y-93020000D01*
X138995100Y-93016192D01*
X138956437Y-93020000D01*
X137038562Y-93020000D01*
X136999899Y-93016192D01*
X136961236Y-93020000D01*
X136961227Y-93020000D01*
X136845543Y-93031394D01*
X136697117Y-93076418D01*
X136560328Y-93149534D01*
X136541871Y-93164681D01*
X136470469Y-93223279D01*
X136470467Y-93223281D01*
X136440431Y-93247931D01*
X136415781Y-93277967D01*
X136177251Y-93516498D01*
X136144582Y-93506588D01*
X136020100Y-93494328D01*
X134720100Y-93494328D01*
X134595618Y-93506588D01*
X134475920Y-93542898D01*
X134365606Y-93601863D01*
X134268915Y-93681215D01*
X134189563Y-93777906D01*
X134130598Y-93888220D01*
X134108824Y-93960000D01*
X133953282Y-93960000D01*
X133970912Y-93901882D01*
X133983172Y-93777400D01*
X133980100Y-93763150D01*
X133821350Y-93604400D01*
X132697100Y-93604400D01*
X132697100Y-93624400D01*
X132443100Y-93624400D01*
X132443100Y-93604400D01*
X131318850Y-93604400D01*
X131160100Y-93763150D01*
X131157028Y-93777400D01*
X129847600Y-93777400D01*
X129847600Y-93177400D01*
X131157028Y-93177400D01*
X131160100Y-93191650D01*
X131318850Y-93350400D01*
X132443100Y-93350400D01*
X132443100Y-92701150D01*
X132697100Y-92701150D01*
X132697100Y-93350400D01*
X133821350Y-93350400D01*
X133980100Y-93191650D01*
X133983172Y-93177400D01*
X133970912Y-93052918D01*
X133934602Y-92933220D01*
X133875637Y-92822906D01*
X133796285Y-92726215D01*
X133699594Y-92646863D01*
X133589280Y-92587898D01*
X133469582Y-92551588D01*
X133345100Y-92539328D01*
X132855850Y-92542400D01*
X132697100Y-92701150D01*
X132443100Y-92701150D01*
X132284350Y-92542400D01*
X131795100Y-92539328D01*
X131670618Y-92551588D01*
X131550920Y-92587898D01*
X131440606Y-92646863D01*
X131343915Y-92726215D01*
X131264563Y-92822906D01*
X131205598Y-92933220D01*
X131169288Y-93052918D01*
X131157028Y-93177400D01*
X129847600Y-93177400D01*
X129847600Y-91454184D01*
X129852208Y-91407399D01*
X129833817Y-91220677D01*
X129788414Y-91071005D01*
X131161100Y-91071005D01*
X131287014Y-91360977D01*
X131619226Y-91526833D01*
X131977412Y-91624690D01*
X132347806Y-91650789D01*
X132716175Y-91604125D01*
X133068362Y-91486494D01*
X133303186Y-91360977D01*
X133429100Y-91071005D01*
X132295100Y-89937005D01*
X131161100Y-91071005D01*
X129788414Y-91071005D01*
X129779352Y-91041131D01*
X129690906Y-90875659D01*
X129571878Y-90730622D01*
X129535536Y-90700797D01*
X128644845Y-89810106D01*
X130401711Y-89810106D01*
X130448375Y-90178475D01*
X130566006Y-90530662D01*
X130691523Y-90765486D01*
X130981495Y-90891400D01*
X132115495Y-89757400D01*
X132474705Y-89757400D01*
X133608705Y-90891400D01*
X133898677Y-90765486D01*
X134064533Y-90433274D01*
X134162390Y-90075088D01*
X134188489Y-89704694D01*
X134141825Y-89336325D01*
X134024194Y-88984138D01*
X133898677Y-88749314D01*
X133608705Y-88623400D01*
X132474705Y-89757400D01*
X132115495Y-89757400D01*
X130981495Y-88623400D01*
X130691523Y-88749314D01*
X130525667Y-89081526D01*
X130427810Y-89439712D01*
X130401711Y-89810106D01*
X128644845Y-89810106D01*
X127278534Y-88443795D01*
X131161100Y-88443795D01*
X132295100Y-89577795D01*
X133429100Y-88443795D01*
X133303186Y-88153823D01*
X132970974Y-87987967D01*
X132612788Y-87890110D01*
X132242394Y-87864011D01*
X131874025Y-87910675D01*
X131521838Y-88028306D01*
X131287014Y-88153823D01*
X131161100Y-88443795D01*
X127278534Y-88443795D01*
X126576707Y-87741969D01*
X126546878Y-87705622D01*
X126401841Y-87586594D01*
X126267692Y-87514891D01*
X126259602Y-87488220D01*
X126200637Y-87377906D01*
X126121285Y-87281215D01*
X126090980Y-87256344D01*
X126051082Y-87124817D01*
X125977966Y-86988028D01*
X125952526Y-86957029D01*
X125904222Y-86898170D01*
X125904219Y-86898167D01*
X125879569Y-86868131D01*
X125849534Y-86843482D01*
X125675948Y-86669896D01*
X125794582Y-86658212D01*
X125914280Y-86621902D01*
X125940590Y-86607839D01*
X126074579Y-86697367D01*
X126226540Y-86760311D01*
X126387860Y-86792400D01*
X126552340Y-86792400D01*
X126713660Y-86760311D01*
X126865621Y-86697367D01*
X127002381Y-86605987D01*
X127118687Y-86489681D01*
X127210067Y-86352921D01*
X127273011Y-86200960D01*
X127283113Y-86150175D01*
X127572697Y-85860591D01*
X127572701Y-85860586D01*
X130464689Y-82968600D01*
X142663055Y-82968600D01*
X142669288Y-83031882D01*
X142705598Y-83151580D01*
X142764563Y-83261894D01*
X142843915Y-83358585D01*
X142940606Y-83437937D01*
X143050920Y-83496902D01*
X143170618Y-83533212D01*
X143295100Y-83545472D01*
X143995100Y-83545472D01*
X144119582Y-83533212D01*
X144239280Y-83496902D01*
X144349594Y-83437937D01*
X144446285Y-83358585D01*
X144525637Y-83261894D01*
X144584602Y-83151580D01*
X144595100Y-83116973D01*
X144605598Y-83151580D01*
X144664563Y-83261894D01*
X144743915Y-83358585D01*
X144840606Y-83437937D01*
X144950920Y-83496902D01*
X145070618Y-83533212D01*
X145195100Y-83545472D01*
X145895100Y-83545472D01*
X146019582Y-83533212D01*
X146139280Y-83496902D01*
X146249594Y-83437937D01*
X146346285Y-83358585D01*
X146425637Y-83261894D01*
X146484602Y-83151580D01*
X146520912Y-83031882D01*
X146533172Y-82907400D01*
X146533172Y-81607400D01*
X146521096Y-81484791D01*
X147348295Y-80657593D01*
X147375426Y-80635327D01*
X147397693Y-80608195D01*
X147397697Y-80608191D01*
X147464302Y-80527033D01*
X147511925Y-80437937D01*
X147530342Y-80403481D01*
X147571009Y-80269420D01*
X147581300Y-80164936D01*
X147581300Y-80164929D01*
X147584740Y-80130000D01*
X147581300Y-80095072D01*
X147581300Y-77401972D01*
X149770100Y-77401972D01*
X149894582Y-77389712D01*
X150014280Y-77353402D01*
X150124594Y-77294437D01*
X150200101Y-77232470D01*
X150200100Y-92406349D01*
G36*
X168438831Y-56271044D02*
G01*
X168247118Y-55912376D01*
X167859875Y-55672230D01*
X166049705Y-57482400D01*
X167859875Y-59292570D01*
X168247118Y-59052424D01*
X168438831Y-58689113D01*
X168438831Y-61588780D01*
X168276954Y-61372107D01*
X168058588Y-61175583D01*
X167806078Y-61025436D01*
X167529127Y-60927437D01*
X167297100Y-61047936D01*
X167297100Y-62255400D01*
X167317100Y-62255400D01*
X167317100Y-62509400D01*
X167297100Y-62509400D01*
X167297100Y-62529400D01*
X167043100Y-62529400D01*
X167043100Y-62509400D01*
X164757100Y-62509400D01*
X164757100Y-62529400D01*
X164503100Y-62529400D01*
X164503100Y-62509400D01*
X163290250Y-62509400D01*
X163131500Y-62668150D01*
X163128428Y-63246000D01*
X163140688Y-63370482D01*
X163176998Y-63490180D01*
X163235963Y-63600494D01*
X163315315Y-63697185D01*
X163412006Y-63776537D01*
X163522320Y-63835502D01*
X163573365Y-63850986D01*
X163565303Y-63857603D01*
X163378031Y-64085794D01*
X163238875Y-64346136D01*
X163153184Y-64628623D01*
X163124249Y-64922400D01*
X163153184Y-65216177D01*
X163238875Y-65498664D01*
X163378031Y-65759006D01*
X163565303Y-65987197D01*
X163793494Y-66174469D01*
X163827040Y-66192400D01*
X163793494Y-66210331D01*
X163565303Y-66397603D01*
X163378031Y-66625794D01*
X163238875Y-66886136D01*
X163153184Y-67168623D01*
X163124249Y-67462400D01*
X163153184Y-67756177D01*
X163238875Y-68038664D01*
X163378031Y-68299006D01*
X163565303Y-68527197D01*
X163793494Y-68714469D01*
X163827040Y-68732400D01*
X163793494Y-68750331D01*
X163565303Y-68937603D01*
X163378031Y-69165794D01*
X163238875Y-69426136D01*
X163153184Y-69708623D01*
X163124249Y-70002400D01*
X163153184Y-70296177D01*
X163238875Y-70578664D01*
X163378031Y-70839006D01*
X163565303Y-71067197D01*
X163793494Y-71254469D01*
X163827040Y-71272400D01*
X163793494Y-71290331D01*
X163565303Y-71477603D01*
X163378031Y-71705794D01*
X163238875Y-71966136D01*
X163153184Y-72248623D01*
X163124249Y-72542400D01*
X163153184Y-72836177D01*
X163238875Y-73118664D01*
X163378031Y-73379006D01*
X163565303Y-73607197D01*
X163793494Y-73794469D01*
X163827040Y-73812400D01*
X163793494Y-73830331D01*
X163565303Y-74017603D01*
X163378031Y-74245794D01*
X163238875Y-74506136D01*
X163153184Y-74788623D01*
X163124249Y-75082400D01*
X163153184Y-75376177D01*
X163238875Y-75658664D01*
X163378031Y-75919006D01*
X163565303Y-76147197D01*
X163793494Y-76334469D01*
X163827040Y-76352400D01*
X163793494Y-76370331D01*
X163565303Y-76557603D01*
X163378031Y-76785794D01*
X163238875Y-77046136D01*
X163153184Y-77328623D01*
X163124249Y-77622400D01*
X163153184Y-77916177D01*
X163238875Y-78198664D01*
X163378031Y-78459006D01*
X163565303Y-78687197D01*
X163793494Y-78874469D01*
X163827040Y-78892400D01*
X163793494Y-78910331D01*
X163565303Y-79097603D01*
X163378031Y-79325794D01*
X163238875Y-79586136D01*
X163153184Y-79868623D01*
X163124249Y-80162400D01*
X163153184Y-80456177D01*
X163238875Y-80738664D01*
X163378031Y-80999006D01*
X163565303Y-81227197D01*
X163793494Y-81414469D01*
X163827040Y-81432400D01*
X163793494Y-81450331D01*
X163565303Y-81637603D01*
X163378031Y-81865794D01*
X163238875Y-82126136D01*
X163153184Y-82408623D01*
X163124249Y-82702400D01*
X163153184Y-82996177D01*
X163238875Y-83278664D01*
X163378031Y-83539006D01*
X163565303Y-83767197D01*
X163793494Y-83954469D01*
X163827040Y-83972400D01*
X163793494Y-83990331D01*
X163565303Y-84177603D01*
X163378031Y-84405794D01*
X163238875Y-84666136D01*
X163153184Y-84948623D01*
X163124249Y-85242400D01*
X163153184Y-85536177D01*
X163238875Y-85818664D01*
X163378031Y-86079006D01*
X163565303Y-86307197D01*
X163793494Y-86494469D01*
X163827040Y-86512400D01*
X163793494Y-86530331D01*
X163565303Y-86717603D01*
X163378031Y-86945794D01*
X163238875Y-87206136D01*
X163153184Y-87488623D01*
X163124249Y-87782400D01*
X163153184Y-88076177D01*
X163238875Y-88358664D01*
X163378031Y-88619006D01*
X163565303Y-88847197D01*
X163793494Y-89034469D01*
X163827040Y-89052400D01*
X163793494Y-89070331D01*
X163565303Y-89257603D01*
X163378031Y-89485794D01*
X163238875Y-89746136D01*
X163153184Y-90028623D01*
X163124249Y-90322400D01*
X163153184Y-90616177D01*
X163238875Y-90898664D01*
X163378031Y-91159006D01*
X163565303Y-91387197D01*
X163793494Y-91574469D01*
X163827040Y-91592400D01*
X163793494Y-91610331D01*
X163565303Y-91797603D01*
X163378031Y-92025794D01*
X163238875Y-92286136D01*
X163153184Y-92568623D01*
X163124249Y-92862400D01*
X163153184Y-93156177D01*
X163238875Y-93438664D01*
X163378031Y-93699006D01*
X163565303Y-93927197D01*
X163793494Y-94114469D01*
X163827040Y-94132400D01*
X163793494Y-94150331D01*
X163565303Y-94337603D01*
X163378031Y-94565794D01*
X163238875Y-94826136D01*
X163153184Y-95108623D01*
X163124249Y-95402400D01*
X163153184Y-95696177D01*
X163238875Y-95978664D01*
X163378031Y-96239006D01*
X163565303Y-96467197D01*
X163793494Y-96654469D01*
X163827040Y-96672400D01*
X163793494Y-96690331D01*
X163565303Y-96877603D01*
X163378031Y-97105794D01*
X163238875Y-97366136D01*
X163153184Y-97648623D01*
X163124249Y-97942400D01*
X163153184Y-98236177D01*
X163238875Y-98518664D01*
X163378031Y-98779006D01*
X163565303Y-99007197D01*
X163793494Y-99194469D01*
X163827040Y-99212400D01*
X163793494Y-99230331D01*
X163565303Y-99417603D01*
X163378031Y-99645794D01*
X163238875Y-99906136D01*
X163153184Y-100188623D01*
X163124249Y-100482400D01*
X163153184Y-100776177D01*
X163238875Y-101058664D01*
X163378031Y-101319006D01*
X163565303Y-101547197D01*
X163793494Y-101734469D01*
X163827040Y-101752400D01*
X163793494Y-101770331D01*
X163565303Y-101957603D01*
X163378031Y-102185794D01*
X163238875Y-102446136D01*
X163153184Y-102728623D01*
X163124249Y-103022400D01*
X163153184Y-103316177D01*
X163238875Y-103598664D01*
X163378031Y-103859006D01*
X163565303Y-104087197D01*
X163793494Y-104274469D01*
X163827040Y-104292400D01*
X163793494Y-104310331D01*
X163565303Y-104497603D01*
X163554389Y-104510901D01*
X162947702Y-103904214D01*
X162925427Y-103877073D01*
X162817133Y-103788198D01*
X162693581Y-103722158D01*
X162559520Y-103681491D01*
X162455036Y-103671200D01*
X162455026Y-103671200D01*
X162420100Y-103667760D01*
X162385174Y-103671200D01*
X162302145Y-103671200D01*
X162295912Y-103607918D01*
X162259602Y-103488220D01*
X162200637Y-103377906D01*
X162121285Y-103281215D01*
X162024594Y-103201863D01*
X161914280Y-103142898D01*
X161794582Y-103106588D01*
X161670100Y-103094328D01*
X160970100Y-103094328D01*
X160845618Y-103106588D01*
X160725920Y-103142898D01*
X160615606Y-103201863D01*
X160518915Y-103281215D01*
X160439563Y-103377906D01*
X160380598Y-103488220D01*
X160370100Y-103522827D01*
X160359602Y-103488220D01*
X160300637Y-103377906D01*
X160221285Y-103281215D01*
X160124594Y-103201863D01*
X160014280Y-103142898D01*
X159894582Y-103106588D01*
X159770100Y-103094328D01*
X159070100Y-103094328D01*
X158945618Y-103106588D01*
X158825920Y-103142898D01*
X158715606Y-103201863D01*
X158618915Y-103281215D01*
X158539563Y-103377906D01*
X158480598Y-103488220D01*
X158444288Y-103607918D01*
X158432028Y-103732400D01*
X158432028Y-104364684D01*
X155955513Y-106841200D01*
X155331059Y-106841200D01*
X155314673Y-106801640D01*
X155141219Y-106542047D01*
X154920453Y-106321281D01*
X154660860Y-106147827D01*
X154372416Y-106028349D01*
X154066205Y-105967440D01*
X153753995Y-105967440D01*
X153447784Y-106028349D01*
X153159340Y-106147827D01*
X152899747Y-106321281D01*
X152678981Y-106542047D01*
X152505527Y-106801640D01*
X152386049Y-107090084D01*
X152325140Y-107396295D01*
X152325140Y-107708505D01*
X152386049Y-108014716D01*
X152505527Y-108303160D01*
X152512885Y-108314172D01*
X152483070Y-108338641D01*
X152483065Y-108338646D01*
X152455934Y-108360912D01*
X152433668Y-108388043D01*
X151650513Y-109171200D01*
X150120789Y-109171200D01*
X150061219Y-109082047D01*
X150054734Y-109075562D01*
X150134554Y-109032897D01*
X150231245Y-108953545D01*
X150310597Y-108856854D01*
X150369562Y-108746540D01*
X150405872Y-108626842D01*
X150418132Y-108502360D01*
X150418132Y-106602440D01*
X150405872Y-106477958D01*
X150369562Y-106358260D01*
X150310597Y-106247946D01*
X150231245Y-106151255D01*
X150134554Y-106071903D01*
X150115100Y-106061504D01*
X150115100Y-95983451D01*
X150645092Y-95453460D01*
X150804088Y-95368475D01*
X150997470Y-95209770D01*
X151037241Y-95161309D01*
X152324020Y-93874531D01*
X152372470Y-93834770D01*
X152412232Y-93786320D01*
X152412235Y-93786317D01*
X152453271Y-93736314D01*
X152531175Y-93641388D01*
X152649103Y-93420759D01*
X152721723Y-93181363D01*
X152740100Y-92994780D01*
X152740100Y-92994779D01*
X152746244Y-92932400D01*
X152740100Y-92870020D01*
X152740100Y-75620900D01*
X156332028Y-75620900D01*
X156332028Y-76763900D01*
X156344288Y-76888382D01*
X156380598Y-77008080D01*
X156439563Y-77118394D01*
X156518915Y-77215085D01*
X156615606Y-77294437D01*
X156725920Y-77353402D01*
X156845618Y-77389712D01*
X156970100Y-77401972D01*
X159170100Y-77401972D01*
X159294582Y-77389712D01*
X159414280Y-77353402D01*
X159524594Y-77294437D01*
X159621285Y-77215085D01*
X159700637Y-77118394D01*
X159759602Y-77008080D01*
X159795912Y-76888382D01*
X159808172Y-76763900D01*
X159808172Y-75620900D01*
X159795912Y-75496418D01*
X159759602Y-75376720D01*
X159700637Y-75266406D01*
X159621285Y-75169715D01*
X159524594Y-75090363D01*
X159414280Y-75031398D01*
X159294582Y-74995088D01*
X159170100Y-74982828D01*
X156970100Y-74982828D01*
X156845618Y-74995088D01*
X156725920Y-75031398D01*
X156615606Y-75090363D01*
X156518915Y-75169715D01*
X156439563Y-75266406D01*
X156380598Y-75376720D01*
X156344288Y-75496418D01*
X156332028Y-75620900D01*
X152740100Y-75620900D01*
X152740100Y-73340278D01*
X152746244Y-73277898D01*
X152726842Y-73080900D01*
X156332028Y-73080900D01*
X156332028Y-74223900D01*
X156344288Y-74348382D01*
X156380598Y-74468080D01*
X156439563Y-74578394D01*
X156518915Y-74675085D01*
X156615606Y-74754437D01*
X156725920Y-74813402D01*
X156845618Y-74849712D01*
X156970100Y-74861972D01*
X159170100Y-74861972D01*
X159294582Y-74849712D01*
X159414280Y-74813402D01*
X159524594Y-74754437D01*
X159621285Y-74675085D01*
X159700637Y-74578394D01*
X159759602Y-74468080D01*
X159795912Y-74348382D01*
X159808172Y-74223900D01*
X159808172Y-73080900D01*
X159795912Y-72956418D01*
X159759602Y-72836720D01*
X159700637Y-72726406D01*
X159621285Y-72629715D01*
X159524594Y-72550363D01*
X159414280Y-72491398D01*
X159294582Y-72455088D01*
X159170100Y-72442828D01*
X156970100Y-72442828D01*
X156845618Y-72455088D01*
X156725920Y-72491398D01*
X156615606Y-72550363D01*
X156518915Y-72629715D01*
X156439563Y-72726406D01*
X156380598Y-72836720D01*
X156344288Y-72956418D01*
X156332028Y-73080900D01*
X152726842Y-73080900D01*
X152721723Y-73028935D01*
X152649103Y-72789539D01*
X152641277Y-72774898D01*
X152568893Y-72639475D01*
X152593687Y-72614681D01*
X152685067Y-72477921D01*
X152748011Y-72325960D01*
X152772376Y-72203469D01*
X152863660Y-72185311D01*
X153015621Y-72122367D01*
X153152381Y-72030987D01*
X153268687Y-71914681D01*
X153360067Y-71777921D01*
X153423011Y-71625960D01*
X153442914Y-71525903D01*
X153480341Y-71455882D01*
X153521008Y-71321821D01*
X153531299Y-71217336D01*
X153531299Y-71217328D01*
X153534739Y-71182402D01*
X153531299Y-71147476D01*
X153531299Y-71051988D01*
X154042387Y-70540900D01*
X156332028Y-70540900D01*
X156332028Y-71683900D01*
X156344288Y-71808382D01*
X156380598Y-71928080D01*
X156439563Y-72038394D01*
X156518915Y-72135085D01*
X156615606Y-72214437D01*
X156725920Y-72273402D01*
X156845618Y-72309712D01*
X156970100Y-72321972D01*
X159170100Y-72321972D01*
X159294582Y-72309712D01*
X159414280Y-72273402D01*
X159524594Y-72214437D01*
X159621285Y-72135085D01*
X159700637Y-72038394D01*
X159759602Y-71928080D01*
X159795912Y-71808382D01*
X159808172Y-71683900D01*
X159808172Y-70540900D01*
X159795912Y-70416418D01*
X159759602Y-70296720D01*
X159700637Y-70186406D01*
X159621285Y-70089715D01*
X159524594Y-70010363D01*
X159414280Y-69951398D01*
X159294582Y-69915088D01*
X159170100Y-69902828D01*
X156970100Y-69902828D01*
X156845618Y-69915088D01*
X156725920Y-69951398D01*
X156615606Y-70010363D01*
X156518915Y-70089715D01*
X156439563Y-70186406D01*
X156380598Y-70296720D01*
X156344288Y-70416418D01*
X156332028Y-70540900D01*
X154042387Y-70540900D01*
X156332028Y-68251259D01*
X156332028Y-69143900D01*
X156344288Y-69268382D01*
X156380598Y-69388080D01*
X156439563Y-69498394D01*
X156518915Y-69595085D01*
X156615606Y-69674437D01*
X156725920Y-69733402D01*
X156845618Y-69769712D01*
X156970100Y-69781972D01*
X159170100Y-69781972D01*
X159294582Y-69769712D01*
X159414280Y-69733402D01*
X159524594Y-69674437D01*
X159621285Y-69595085D01*
X159700637Y-69498394D01*
X159759602Y-69388080D01*
X159795912Y-69268382D01*
X159808172Y-69143900D01*
X159808172Y-68000900D01*
X159795912Y-67876418D01*
X159759602Y-67756720D01*
X159700637Y-67646406D01*
X159621285Y-67549715D01*
X159524594Y-67470363D01*
X159414280Y-67411398D01*
X159294582Y-67375088D01*
X159170100Y-67362828D01*
X157220460Y-67362828D01*
X160012816Y-64570472D01*
X160520100Y-64570472D01*
X160644582Y-64558212D01*
X160764280Y-64521902D01*
X160874594Y-64462937D01*
X160971285Y-64383585D01*
X161050637Y-64286894D01*
X161109602Y-64176580D01*
X161145912Y-64056882D01*
X161158172Y-63932400D01*
X161158172Y-63232400D01*
X161145912Y-63107918D01*
X161109602Y-62988220D01*
X161050637Y-62877906D01*
X160971285Y-62781215D01*
X160874594Y-62701863D01*
X160764280Y-62642898D01*
X160729673Y-62632400D01*
X160764280Y-62621902D01*
X160874594Y-62562937D01*
X160971285Y-62483585D01*
X161050637Y-62386894D01*
X161109602Y-62276580D01*
X161145912Y-62156882D01*
X161158172Y-62032400D01*
X161158172Y-61518800D01*
X163128428Y-61518800D01*
X163131500Y-62096650D01*
X163290250Y-62255400D01*
X164503100Y-62255400D01*
X164503100Y-61042550D01*
X164757100Y-61042550D01*
X164757100Y-62255400D01*
X167043100Y-62255400D01*
X167043100Y-61047936D01*
X166811073Y-60927437D01*
X166534122Y-61025436D01*
X166281612Y-61175583D01*
X166102153Y-61337092D01*
X166083202Y-61274620D01*
X166024237Y-61164306D01*
X165944885Y-61067615D01*
X165848194Y-60988263D01*
X165737880Y-60929298D01*
X165618182Y-60892988D01*
X165493700Y-60880728D01*
X164915850Y-60883800D01*
X164757100Y-61042550D01*
X164503100Y-61042550D01*
X164344350Y-60883800D01*
X163766500Y-60880728D01*
X163642018Y-60892988D01*
X163522320Y-60929298D01*
X163412006Y-60988263D01*
X163315315Y-61067615D01*
X163235963Y-61164306D01*
X163176998Y-61274620D01*
X163140688Y-61394318D01*
X163128428Y-61518800D01*
X161158172Y-61518800D01*
X161158172Y-61332400D01*
X161145912Y-61207918D01*
X161109602Y-61088220D01*
X161050637Y-60977906D01*
X160971285Y-60881215D01*
X160874594Y-60801863D01*
X160764280Y-60742898D01*
X160644582Y-60706588D01*
X160581300Y-60700355D01*
X160581300Y-59489264D01*
X160695100Y-59500472D01*
X161345100Y-59500472D01*
X161469582Y-59488212D01*
X161522448Y-59472175D01*
X164059930Y-59472175D01*
X164300076Y-59859418D01*
X164793977Y-60120041D01*
X165329233Y-60279301D01*
X165885274Y-60331078D01*
X166440732Y-60273381D01*
X166974261Y-60108428D01*
X167440124Y-59859418D01*
X167680270Y-59472175D01*
X165870100Y-57662005D01*
X164059930Y-59472175D01*
X161522448Y-59472175D01*
X161589280Y-59451902D01*
X161699594Y-59392937D01*
X161796285Y-59313585D01*
X161875637Y-59216894D01*
X161934602Y-59106580D01*
X161970912Y-58986882D01*
X161983172Y-58862400D01*
X161983172Y-57642400D01*
X161970912Y-57517918D01*
X161964741Y-57497574D01*
X163021422Y-57497574D01*
X163079119Y-58053032D01*
X163244072Y-58586561D01*
X163493082Y-59052424D01*
X163880325Y-59292570D01*
X165690495Y-57482400D01*
X163880325Y-55672230D01*
X163493082Y-55912376D01*
X163232459Y-56406277D01*
X163073199Y-56941533D01*
X163021422Y-57497574D01*
X161964741Y-57497574D01*
X161934602Y-57398220D01*
X161875637Y-57287906D01*
X161796285Y-57191215D01*
X161699594Y-57111863D01*
X161589280Y-57052898D01*
X161469582Y-57016588D01*
X161345100Y-57004328D01*
X160695100Y-57004328D01*
X160570618Y-57016588D01*
X160450920Y-57052898D01*
X160340606Y-57111863D01*
X160243915Y-57191215D01*
X160164563Y-57287906D01*
X160105598Y-57398220D01*
X160070100Y-57515241D01*
X160034602Y-57398220D01*
X159975637Y-57287906D01*
X159896285Y-57191215D01*
X159799594Y-57111863D01*
X159689280Y-57052898D01*
X159569582Y-57016588D01*
X159445100Y-57004328D01*
X158795100Y-57004328D01*
X158670618Y-57016588D01*
X158550920Y-57052898D01*
X158440606Y-57111863D01*
X158343915Y-57191215D01*
X158264563Y-57287906D01*
X158205598Y-57398220D01*
X158169288Y-57517918D01*
X158157028Y-57642400D01*
X158157028Y-58862400D01*
X158169288Y-58986882D01*
X158205598Y-59106580D01*
X158264563Y-59216894D01*
X158343915Y-59313585D01*
X158408900Y-59366917D01*
X158408901Y-60287811D01*
X157855210Y-60841502D01*
X157764280Y-60792898D01*
X157644582Y-60756588D01*
X157520100Y-60744328D01*
X156220100Y-60744328D01*
X156095618Y-60756588D01*
X155975920Y-60792898D01*
X155865606Y-60851863D01*
X155768915Y-60931215D01*
X155689563Y-61027906D01*
X155630598Y-61138220D01*
X155594288Y-61257918D01*
X155582028Y-61382400D01*
X155582028Y-62082400D01*
X155594288Y-62206882D01*
X155630598Y-62326580D01*
X155689563Y-62436894D01*
X155768915Y-62533585D01*
X155865606Y-62612937D01*
X155975920Y-62671902D01*
X156010527Y-62682400D01*
X155975920Y-62692898D01*
X155865606Y-62751863D01*
X155768915Y-62831215D01*
X155689563Y-62927906D01*
X155630598Y-63038220D01*
X155594288Y-63157918D01*
X155582028Y-63282400D01*
X155582028Y-63982400D01*
X155594288Y-64106882D01*
X155630598Y-64226580D01*
X155689563Y-64336894D01*
X155768915Y-64433585D01*
X155865606Y-64512937D01*
X155975920Y-64571902D01*
X156095618Y-64608212D01*
X156158901Y-64614445D01*
X156158900Y-65687812D01*
X155322600Y-66524112D01*
X155322600Y-59026938D01*
X157764638Y-56584900D01*
X158258152Y-56584900D01*
X158264563Y-56596894D01*
X158343915Y-56693585D01*
X158440606Y-56772937D01*
X158550920Y-56831902D01*
X158670618Y-56868212D01*
X158795100Y-56880472D01*
X159445100Y-56880472D01*
X159569582Y-56868212D01*
X159595100Y-56860471D01*
X159620618Y-56868212D01*
X159745100Y-56880472D01*
X159784350Y-56877400D01*
X159943100Y-56718650D01*
X159943100Y-56636541D01*
X159975637Y-56596894D01*
X160034602Y-56486580D01*
X160070100Y-56369559D01*
X160105598Y-56486580D01*
X160164563Y-56596894D01*
X160197100Y-56636541D01*
X160197100Y-56718650D01*
X160355850Y-56877400D01*
X160395100Y-56880472D01*
X160519582Y-56868212D01*
X160545100Y-56860471D01*
X160570618Y-56868212D01*
X160695100Y-56880472D01*
X161345100Y-56880472D01*
X161469582Y-56868212D01*
X161589280Y-56831902D01*
X161699594Y-56772937D01*
X161796285Y-56693585D01*
X161875637Y-56596894D01*
X161934602Y-56486580D01*
X161970912Y-56366882D01*
X161983172Y-56242400D01*
X161983172Y-55492625D01*
X164059930Y-55492625D01*
X165870100Y-57302795D01*
X167680270Y-55492625D01*
X167440124Y-55105382D01*
X166946223Y-54844759D01*
X166410967Y-54685499D01*
X165854926Y-54633722D01*
X165299468Y-54691419D01*
X164765939Y-54856372D01*
X164300076Y-55105382D01*
X164059930Y-55492625D01*
X161983172Y-55492625D01*
X161983172Y-55022400D01*
X161970912Y-54897918D01*
X161934602Y-54778220D01*
X161875637Y-54667906D01*
X161796285Y-54571215D01*
X161699594Y-54491863D01*
X161589280Y-54432898D01*
X161469582Y-54396588D01*
X161345100Y-54384328D01*
X160695100Y-54384328D01*
X160570618Y-54396588D01*
X160545100Y-54404329D01*
X160519582Y-54396588D01*
X160395100Y-54384328D01*
X160355850Y-54387400D01*
X160197100Y-54546150D01*
X160197100Y-54628259D01*
X160164563Y-54667906D01*
X160105598Y-54778220D01*
X160070100Y-54895241D01*
X160034602Y-54778220D01*
X159975637Y-54667906D01*
X159943100Y-54628259D01*
X159943100Y-54546150D01*
X159784350Y-54387400D01*
X159745100Y-54384328D01*
X159620618Y-54396588D01*
X159595100Y-54404329D01*
X159569582Y-54396588D01*
X159445100Y-54384328D01*
X159187186Y-54384328D01*
X159254352Y-54258669D01*
X159308817Y-54079123D01*
X159322600Y-53939185D01*
X159327208Y-53892400D01*
X159322600Y-53845615D01*
X159322600Y-53706983D01*
X159370100Y-53649104D01*
X159418915Y-53708585D01*
X159515606Y-53787937D01*
X159625920Y-53846902D01*
X159745618Y-53883212D01*
X159870100Y-53895472D01*
X160084350Y-53892400D01*
X160243100Y-53733650D01*
X160243100Y-52759400D01*
X160497100Y-52759400D01*
X160497100Y-53733650D01*
X160655850Y-53892400D01*
X160870100Y-53895472D01*
X160994582Y-53883212D01*
X161114280Y-53846902D01*
X161224594Y-53787937D01*
X161321285Y-53708585D01*
X161400637Y-53611894D01*
X161459602Y-53501580D01*
X161495912Y-53381882D01*
X161508172Y-53257400D01*
X161505100Y-52918150D01*
X161346350Y-52759400D01*
X160497100Y-52759400D01*
X160243100Y-52759400D01*
X160223100Y-52759400D01*
X160223100Y-52505400D01*
X160243100Y-52505400D01*
X160243100Y-51531150D01*
X160497100Y-51531150D01*
X160497100Y-52505400D01*
X161346350Y-52505400D01*
X161505100Y-52346650D01*
X161508172Y-52007400D01*
X161495912Y-51882918D01*
X161459602Y-51763220D01*
X161400637Y-51652906D01*
X161321285Y-51556215D01*
X161224594Y-51476863D01*
X161114280Y-51417898D01*
X160994582Y-51381588D01*
X160870100Y-51369328D01*
X160655850Y-51372400D01*
X160497100Y-51531150D01*
X160243100Y-51531150D01*
X160084350Y-51372400D01*
X159870100Y-51369328D01*
X159745618Y-51381588D01*
X159625920Y-51417898D01*
X159515606Y-51476863D01*
X159418915Y-51556215D01*
X159370100Y-51615696D01*
X159321285Y-51556215D01*
X159224594Y-51476863D01*
X159114280Y-51417898D01*
X158994582Y-51381588D01*
X158870100Y-51369328D01*
X157870100Y-51369328D01*
X157745618Y-51381588D01*
X157625920Y-51417898D01*
X157515606Y-51476863D01*
X157418915Y-51556215D01*
X157339563Y-51652906D01*
X157280598Y-51763220D01*
X157244288Y-51882918D01*
X157232028Y-52007400D01*
X157232028Y-53257400D01*
X157244288Y-53381882D01*
X157280598Y-53501580D01*
X157327025Y-53588437D01*
X156729669Y-54185793D01*
X156693322Y-54215622D01*
X156574294Y-54360659D01*
X156485848Y-54526132D01*
X156435022Y-54693683D01*
X156431383Y-54705678D01*
X156412992Y-54892400D01*
X156417600Y-54939185D01*
X156417600Y-55237862D01*
X153836370Y-57819092D01*
X153836370Y-50318670D01*
X168438831Y-50318670D01*
X168438831Y-56271044D01*
X168438831Y-56271044D01*
G37*
X168438831Y-56271044D02*
X168247118Y-55912376D01*
X167859875Y-55672230D01*
X166049705Y-57482400D01*
X167859875Y-59292570D01*
X168247118Y-59052424D01*
X168438831Y-58689113D01*
X168438831Y-61588780D01*
X168276954Y-61372107D01*
X168058588Y-61175583D01*
X167806078Y-61025436D01*
X167529127Y-60927437D01*
X167297100Y-61047936D01*
X167297100Y-62255400D01*
X167317100Y-62255400D01*
X167317100Y-62509400D01*
X167297100Y-62509400D01*
X167297100Y-62529400D01*
X167043100Y-62529400D01*
X167043100Y-62509400D01*
X164757100Y-62509400D01*
X164757100Y-62529400D01*
X164503100Y-62529400D01*
X164503100Y-62509400D01*
X163290250Y-62509400D01*
X163131500Y-62668150D01*
X163128428Y-63246000D01*
X163140688Y-63370482D01*
X163176998Y-63490180D01*
X163235963Y-63600494D01*
X163315315Y-63697185D01*
X163412006Y-63776537D01*
X163522320Y-63835502D01*
X163573365Y-63850986D01*
X163565303Y-63857603D01*
X163378031Y-64085794D01*
X163238875Y-64346136D01*
X163153184Y-64628623D01*
X163124249Y-64922400D01*
X163153184Y-65216177D01*
X163238875Y-65498664D01*
X163378031Y-65759006D01*
X163565303Y-65987197D01*
X163793494Y-66174469D01*
X163827040Y-66192400D01*
X163793494Y-66210331D01*
X163565303Y-66397603D01*
X163378031Y-66625794D01*
X163238875Y-66886136D01*
X163153184Y-67168623D01*
X163124249Y-67462400D01*
X163153184Y-67756177D01*
X163238875Y-68038664D01*
X163378031Y-68299006D01*
X163565303Y-68527197D01*
X163793494Y-68714469D01*
X163827040Y-68732400D01*
X163793494Y-68750331D01*
X163565303Y-68937603D01*
X163378031Y-69165794D01*
X163238875Y-69426136D01*
X163153184Y-69708623D01*
X163124249Y-70002400D01*
X163153184Y-70296177D01*
X163238875Y-70578664D01*
X163378031Y-70839006D01*
X163565303Y-71067197D01*
X163793494Y-71254469D01*
X163827040Y-71272400D01*
X163793494Y-71290331D01*
X163565303Y-71477603D01*
X163378031Y-71705794D01*
X163238875Y-71966136D01*
X163153184Y-72248623D01*
X163124249Y-72542400D01*
X163153184Y-72836177D01*
X163238875Y-73118664D01*
X163378031Y-73379006D01*
X163565303Y-73607197D01*
X163793494Y-73794469D01*
X163827040Y-73812400D01*
X163793494Y-73830331D01*
X163565303Y-74017603D01*
X163378031Y-74245794D01*
X163238875Y-74506136D01*
X163153184Y-74788623D01*
X163124249Y-75082400D01*
X163153184Y-75376177D01*
X163238875Y-75658664D01*
X163378031Y-75919006D01*
X163565303Y-76147197D01*
X163793494Y-76334469D01*
X163827040Y-76352400D01*
X163793494Y-76370331D01*
X163565303Y-76557603D01*
X163378031Y-76785794D01*
X163238875Y-77046136D01*
X163153184Y-77328623D01*
X163124249Y-77622400D01*
X163153184Y-77916177D01*
X163238875Y-78198664D01*
X163378031Y-78459006D01*
X163565303Y-78687197D01*
X163793494Y-78874469D01*
X163827040Y-78892400D01*
X163793494Y-78910331D01*
X163565303Y-79097603D01*
X163378031Y-79325794D01*
X163238875Y-79586136D01*
X163153184Y-79868623D01*
X163124249Y-80162400D01*
X163153184Y-80456177D01*
X163238875Y-80738664D01*
X163378031Y-80999006D01*
X163565303Y-81227197D01*
X163793494Y-81414469D01*
X163827040Y-81432400D01*
X163793494Y-81450331D01*
X163565303Y-81637603D01*
X163378031Y-81865794D01*
X163238875Y-82126136D01*
X163153184Y-82408623D01*
X163124249Y-82702400D01*
X163153184Y-82996177D01*
X163238875Y-83278664D01*
X163378031Y-83539006D01*
X163565303Y-83767197D01*
X163793494Y-83954469D01*
X163827040Y-83972400D01*
X163793494Y-83990331D01*
X163565303Y-84177603D01*
X163378031Y-84405794D01*
X163238875Y-84666136D01*
X163153184Y-84948623D01*
X163124249Y-85242400D01*
X163153184Y-85536177D01*
X163238875Y-85818664D01*
X163378031Y-86079006D01*
X163565303Y-86307197D01*
X163793494Y-86494469D01*
X163827040Y-86512400D01*
X163793494Y-86530331D01*
X163565303Y-86717603D01*
X163378031Y-86945794D01*
X163238875Y-87206136D01*
X163153184Y-87488623D01*
X163124249Y-87782400D01*
X163153184Y-88076177D01*
X163238875Y-88358664D01*
X163378031Y-88619006D01*
X163565303Y-88847197D01*
X163793494Y-89034469D01*
X163827040Y-89052400D01*
X163793494Y-89070331D01*
X163565303Y-89257603D01*
X163378031Y-89485794D01*
X163238875Y-89746136D01*
X163153184Y-90028623D01*
X163124249Y-90322400D01*
X163153184Y-90616177D01*
X163238875Y-90898664D01*
X163378031Y-91159006D01*
X163565303Y-91387197D01*
X163793494Y-91574469D01*
X163827040Y-91592400D01*
X163793494Y-91610331D01*
X163565303Y-91797603D01*
X163378031Y-92025794D01*
X163238875Y-92286136D01*
X163153184Y-92568623D01*
X163124249Y-92862400D01*
X163153184Y-93156177D01*
X163238875Y-93438664D01*
X163378031Y-93699006D01*
X163565303Y-93927197D01*
X163793494Y-94114469D01*
X163827040Y-94132400D01*
X163793494Y-94150331D01*
X163565303Y-94337603D01*
X163378031Y-94565794D01*
X163238875Y-94826136D01*
X163153184Y-95108623D01*
X163124249Y-95402400D01*
X163153184Y-95696177D01*
X163238875Y-95978664D01*
X163378031Y-96239006D01*
X163565303Y-96467197D01*
X163793494Y-96654469D01*
X163827040Y-96672400D01*
X163793494Y-96690331D01*
X163565303Y-96877603D01*
X163378031Y-97105794D01*
X163238875Y-97366136D01*
X163153184Y-97648623D01*
X163124249Y-97942400D01*
X163153184Y-98236177D01*
X163238875Y-98518664D01*
X163378031Y-98779006D01*
X163565303Y-99007197D01*
X163793494Y-99194469D01*
X163827040Y-99212400D01*
X163793494Y-99230331D01*
X163565303Y-99417603D01*
X163378031Y-99645794D01*
X163238875Y-99906136D01*
X163153184Y-100188623D01*
X163124249Y-100482400D01*
X163153184Y-100776177D01*
X163238875Y-101058664D01*
X163378031Y-101319006D01*
X163565303Y-101547197D01*
X163793494Y-101734469D01*
X163827040Y-101752400D01*
X163793494Y-101770331D01*
X163565303Y-101957603D01*
X163378031Y-102185794D01*
X163238875Y-102446136D01*
X163153184Y-102728623D01*
X163124249Y-103022400D01*
X163153184Y-103316177D01*
X163238875Y-103598664D01*
X163378031Y-103859006D01*
X163565303Y-104087197D01*
X163793494Y-104274469D01*
X163827040Y-104292400D01*
X163793494Y-104310331D01*
X163565303Y-104497603D01*
X163554389Y-104510901D01*
X162947702Y-103904214D01*
X162925427Y-103877073D01*
X162817133Y-103788198D01*
X162693581Y-103722158D01*
X162559520Y-103681491D01*
X162455036Y-103671200D01*
X162455026Y-103671200D01*
X162420100Y-103667760D01*
X162385174Y-103671200D01*
X162302145Y-103671200D01*
X162295912Y-103607918D01*
X162259602Y-103488220D01*
X162200637Y-103377906D01*
X162121285Y-103281215D01*
X162024594Y-103201863D01*
X161914280Y-103142898D01*
X161794582Y-103106588D01*
X161670100Y-103094328D01*
X160970100Y-103094328D01*
X160845618Y-103106588D01*
X160725920Y-103142898D01*
X160615606Y-103201863D01*
X160518915Y-103281215D01*
X160439563Y-103377906D01*
X160380598Y-103488220D01*
X160370100Y-103522827D01*
X160359602Y-103488220D01*
X160300637Y-103377906D01*
X160221285Y-103281215D01*
X160124594Y-103201863D01*
X160014280Y-103142898D01*
X159894582Y-103106588D01*
X159770100Y-103094328D01*
X159070100Y-103094328D01*
X158945618Y-103106588D01*
X158825920Y-103142898D01*
X158715606Y-103201863D01*
X158618915Y-103281215D01*
X158539563Y-103377906D01*
X158480598Y-103488220D01*
X158444288Y-103607918D01*
X158432028Y-103732400D01*
X158432028Y-104364684D01*
X155955513Y-106841200D01*
X155331059Y-106841200D01*
X155314673Y-106801640D01*
X155141219Y-106542047D01*
X154920453Y-106321281D01*
X154660860Y-106147827D01*
X154372416Y-106028349D01*
X154066205Y-105967440D01*
X153753995Y-105967440D01*
X153447784Y-106028349D01*
X153159340Y-106147827D01*
X152899747Y-106321281D01*
X152678981Y-106542047D01*
X152505527Y-106801640D01*
X152386049Y-107090084D01*
X152325140Y-107396295D01*
X152325140Y-107708505D01*
X152386049Y-108014716D01*
X152505527Y-108303160D01*
X152512885Y-108314172D01*
X152483070Y-108338641D01*
X152483065Y-108338646D01*
X152455934Y-108360912D01*
X152433668Y-108388043D01*
X151650513Y-109171200D01*
X150120789Y-109171200D01*
X150061219Y-109082047D01*
X150054734Y-109075562D01*
X150134554Y-109032897D01*
X150231245Y-108953545D01*
X150310597Y-108856854D01*
X150369562Y-108746540D01*
X150405872Y-108626842D01*
X150418132Y-108502360D01*
X150418132Y-106602440D01*
X150405872Y-106477958D01*
X150369562Y-106358260D01*
X150310597Y-106247946D01*
X150231245Y-106151255D01*
X150134554Y-106071903D01*
X150115100Y-106061504D01*
X150115100Y-95983451D01*
X150645092Y-95453460D01*
X150804088Y-95368475D01*
X150997470Y-95209770D01*
X151037241Y-95161309D01*
X152324020Y-93874531D01*
X152372470Y-93834770D01*
X152412232Y-93786320D01*
X152412235Y-93786317D01*
X152453271Y-93736314D01*
X152531175Y-93641388D01*
X152649103Y-93420759D01*
X152721723Y-93181363D01*
X152740100Y-92994780D01*
X152740100Y-92994779D01*
X152746244Y-92932400D01*
X152740100Y-92870020D01*
X152740100Y-75620900D01*
X156332028Y-75620900D01*
X156332028Y-76763900D01*
X156344288Y-76888382D01*
X156380598Y-77008080D01*
X156439563Y-77118394D01*
X156518915Y-77215085D01*
X156615606Y-77294437D01*
X156725920Y-77353402D01*
X156845618Y-77389712D01*
X156970100Y-77401972D01*
X159170100Y-77401972D01*
X159294582Y-77389712D01*
X159414280Y-77353402D01*
X159524594Y-77294437D01*
X159621285Y-77215085D01*
X159700637Y-77118394D01*
X159759602Y-77008080D01*
X159795912Y-76888382D01*
X159808172Y-76763900D01*
X159808172Y-75620900D01*
X159795912Y-75496418D01*
X159759602Y-75376720D01*
X159700637Y-75266406D01*
X159621285Y-75169715D01*
X159524594Y-75090363D01*
X159414280Y-75031398D01*
X159294582Y-74995088D01*
X159170100Y-74982828D01*
X156970100Y-74982828D01*
X156845618Y-74995088D01*
X156725920Y-75031398D01*
X156615606Y-75090363D01*
X156518915Y-75169715D01*
X156439563Y-75266406D01*
X156380598Y-75376720D01*
X156344288Y-75496418D01*
X156332028Y-75620900D01*
X152740100Y-75620900D01*
X152740100Y-73340278D01*
X152746244Y-73277898D01*
X152726842Y-73080900D01*
X156332028Y-73080900D01*
X156332028Y-74223900D01*
X156344288Y-74348382D01*
X156380598Y-74468080D01*
X156439563Y-74578394D01*
X156518915Y-74675085D01*
X156615606Y-74754437D01*
X156725920Y-74813402D01*
X156845618Y-74849712D01*
X156970100Y-74861972D01*
X159170100Y-74861972D01*
X159294582Y-74849712D01*
X159414280Y-74813402D01*
X159524594Y-74754437D01*
X159621285Y-74675085D01*
X159700637Y-74578394D01*
X159759602Y-74468080D01*
X159795912Y-74348382D01*
X159808172Y-74223900D01*
X159808172Y-73080900D01*
X159795912Y-72956418D01*
X159759602Y-72836720D01*
X159700637Y-72726406D01*
X159621285Y-72629715D01*
X159524594Y-72550363D01*
X159414280Y-72491398D01*
X159294582Y-72455088D01*
X159170100Y-72442828D01*
X156970100Y-72442828D01*
X156845618Y-72455088D01*
X156725920Y-72491398D01*
X156615606Y-72550363D01*
X156518915Y-72629715D01*
X156439563Y-72726406D01*
X156380598Y-72836720D01*
X156344288Y-72956418D01*
X156332028Y-73080900D01*
X152726842Y-73080900D01*
X152721723Y-73028935D01*
X152649103Y-72789539D01*
X152641277Y-72774898D01*
X152568893Y-72639475D01*
X152593687Y-72614681D01*
X152685067Y-72477921D01*
X152748011Y-72325960D01*
X152772376Y-72203469D01*
X152863660Y-72185311D01*
X153015621Y-72122367D01*
X153152381Y-72030987D01*
X153268687Y-71914681D01*
X153360067Y-71777921D01*
X153423011Y-71625960D01*
X153442914Y-71525903D01*
X153480341Y-71455882D01*
X153521008Y-71321821D01*
X153531299Y-71217336D01*
X153531299Y-71217328D01*
X153534739Y-71182402D01*
X153531299Y-71147476D01*
X153531299Y-71051988D01*
X154042387Y-70540900D01*
X156332028Y-70540900D01*
X156332028Y-71683900D01*
X156344288Y-71808382D01*
X156380598Y-71928080D01*
X156439563Y-72038394D01*
X156518915Y-72135085D01*
X156615606Y-72214437D01*
X156725920Y-72273402D01*
X156845618Y-72309712D01*
X156970100Y-72321972D01*
X159170100Y-72321972D01*
X159294582Y-72309712D01*
X159414280Y-72273402D01*
X159524594Y-72214437D01*
X159621285Y-72135085D01*
X159700637Y-72038394D01*
X159759602Y-71928080D01*
X159795912Y-71808382D01*
X159808172Y-71683900D01*
X159808172Y-70540900D01*
X159795912Y-70416418D01*
X159759602Y-70296720D01*
X159700637Y-70186406D01*
X159621285Y-70089715D01*
X159524594Y-70010363D01*
X159414280Y-69951398D01*
X159294582Y-69915088D01*
X159170100Y-69902828D01*
X156970100Y-69902828D01*
X156845618Y-69915088D01*
X156725920Y-69951398D01*
X156615606Y-70010363D01*
X156518915Y-70089715D01*
X156439563Y-70186406D01*
X156380598Y-70296720D01*
X156344288Y-70416418D01*
X156332028Y-70540900D01*
X154042387Y-70540900D01*
X156332028Y-68251259D01*
X156332028Y-69143900D01*
X156344288Y-69268382D01*
X156380598Y-69388080D01*
X156439563Y-69498394D01*
X156518915Y-69595085D01*
X156615606Y-69674437D01*
X156725920Y-69733402D01*
X156845618Y-69769712D01*
X156970100Y-69781972D01*
X159170100Y-69781972D01*
X159294582Y-69769712D01*
X159414280Y-69733402D01*
X159524594Y-69674437D01*
X159621285Y-69595085D01*
X159700637Y-69498394D01*
X159759602Y-69388080D01*
X159795912Y-69268382D01*
X159808172Y-69143900D01*
X159808172Y-68000900D01*
X159795912Y-67876418D01*
X159759602Y-67756720D01*
X159700637Y-67646406D01*
X159621285Y-67549715D01*
X159524594Y-67470363D01*
X159414280Y-67411398D01*
X159294582Y-67375088D01*
X159170100Y-67362828D01*
X157220460Y-67362828D01*
X160012816Y-64570472D01*
X160520100Y-64570472D01*
X160644582Y-64558212D01*
X160764280Y-64521902D01*
X160874594Y-64462937D01*
X160971285Y-64383585D01*
X161050637Y-64286894D01*
X161109602Y-64176580D01*
X161145912Y-64056882D01*
X161158172Y-63932400D01*
X161158172Y-63232400D01*
X161145912Y-63107918D01*
X161109602Y-62988220D01*
X161050637Y-62877906D01*
X160971285Y-62781215D01*
X160874594Y-62701863D01*
X160764280Y-62642898D01*
X160729673Y-62632400D01*
X160764280Y-62621902D01*
X160874594Y-62562937D01*
X160971285Y-62483585D01*
X161050637Y-62386894D01*
X161109602Y-62276580D01*
X161145912Y-62156882D01*
X161158172Y-62032400D01*
X161158172Y-61518800D01*
X163128428Y-61518800D01*
X163131500Y-62096650D01*
X163290250Y-62255400D01*
X164503100Y-62255400D01*
X164503100Y-61042550D01*
X164757100Y-61042550D01*
X164757100Y-62255400D01*
X167043100Y-62255400D01*
X167043100Y-61047936D01*
X166811073Y-60927437D01*
X166534122Y-61025436D01*
X166281612Y-61175583D01*
X166102153Y-61337092D01*
X166083202Y-61274620D01*
X166024237Y-61164306D01*
X165944885Y-61067615D01*
X165848194Y-60988263D01*
X165737880Y-60929298D01*
X165618182Y-60892988D01*
X165493700Y-60880728D01*
X164915850Y-60883800D01*
X164757100Y-61042550D01*
X164503100Y-61042550D01*
X164344350Y-60883800D01*
X163766500Y-60880728D01*
X163642018Y-60892988D01*
X163522320Y-60929298D01*
X163412006Y-60988263D01*
X163315315Y-61067615D01*
X163235963Y-61164306D01*
X163176998Y-61274620D01*
X163140688Y-61394318D01*
X163128428Y-61518800D01*
X161158172Y-61518800D01*
X161158172Y-61332400D01*
X161145912Y-61207918D01*
X161109602Y-61088220D01*
X161050637Y-60977906D01*
X160971285Y-60881215D01*
X160874594Y-60801863D01*
X160764280Y-60742898D01*
X160644582Y-60706588D01*
X160581300Y-60700355D01*
X160581300Y-59489264D01*
X160695100Y-59500472D01*
X161345100Y-59500472D01*
X161469582Y-59488212D01*
X161522448Y-59472175D01*
X164059930Y-59472175D01*
X164300076Y-59859418D01*
X164793977Y-60120041D01*
X165329233Y-60279301D01*
X165885274Y-60331078D01*
X166440732Y-60273381D01*
X166974261Y-60108428D01*
X167440124Y-59859418D01*
X167680270Y-59472175D01*
X165870100Y-57662005D01*
X164059930Y-59472175D01*
X161522448Y-59472175D01*
X161589280Y-59451902D01*
X161699594Y-59392937D01*
X161796285Y-59313585D01*
X161875637Y-59216894D01*
X161934602Y-59106580D01*
X161970912Y-58986882D01*
X161983172Y-58862400D01*
X161983172Y-57642400D01*
X161970912Y-57517918D01*
X161964741Y-57497574D01*
X163021422Y-57497574D01*
X163079119Y-58053032D01*
X163244072Y-58586561D01*
X163493082Y-59052424D01*
X163880325Y-59292570D01*
X165690495Y-57482400D01*
X163880325Y-55672230D01*
X163493082Y-55912376D01*
X163232459Y-56406277D01*
X163073199Y-56941533D01*
X163021422Y-57497574D01*
X161964741Y-57497574D01*
X161934602Y-57398220D01*
X161875637Y-57287906D01*
X161796285Y-57191215D01*
X161699594Y-57111863D01*
X161589280Y-57052898D01*
X161469582Y-57016588D01*
X161345100Y-57004328D01*
X160695100Y-57004328D01*
X160570618Y-57016588D01*
X160450920Y-57052898D01*
X160340606Y-57111863D01*
X160243915Y-57191215D01*
X160164563Y-57287906D01*
X160105598Y-57398220D01*
X160070100Y-57515241D01*
X160034602Y-57398220D01*
X159975637Y-57287906D01*
X159896285Y-57191215D01*
X159799594Y-57111863D01*
X159689280Y-57052898D01*
X159569582Y-57016588D01*
X159445100Y-57004328D01*
X158795100Y-57004328D01*
X158670618Y-57016588D01*
X158550920Y-57052898D01*
X158440606Y-57111863D01*
X158343915Y-57191215D01*
X158264563Y-57287906D01*
X158205598Y-57398220D01*
X158169288Y-57517918D01*
X158157028Y-57642400D01*
X158157028Y-58862400D01*
X158169288Y-58986882D01*
X158205598Y-59106580D01*
X158264563Y-59216894D01*
X158343915Y-59313585D01*
X158408900Y-59366917D01*
X158408901Y-60287811D01*
X157855210Y-60841502D01*
X157764280Y-60792898D01*
X157644582Y-60756588D01*
X157520100Y-60744328D01*
X156220100Y-60744328D01*
X156095618Y-60756588D01*
X155975920Y-60792898D01*
X155865606Y-60851863D01*
X155768915Y-60931215D01*
X155689563Y-61027906D01*
X155630598Y-61138220D01*
X155594288Y-61257918D01*
X155582028Y-61382400D01*
X155582028Y-62082400D01*
X155594288Y-62206882D01*
X155630598Y-62326580D01*
X155689563Y-62436894D01*
X155768915Y-62533585D01*
X155865606Y-62612937D01*
X155975920Y-62671902D01*
X156010527Y-62682400D01*
X155975920Y-62692898D01*
X155865606Y-62751863D01*
X155768915Y-62831215D01*
X155689563Y-62927906D01*
X155630598Y-63038220D01*
X155594288Y-63157918D01*
X155582028Y-63282400D01*
X155582028Y-63982400D01*
X155594288Y-64106882D01*
X155630598Y-64226580D01*
X155689563Y-64336894D01*
X155768915Y-64433585D01*
X155865606Y-64512937D01*
X155975920Y-64571902D01*
X156095618Y-64608212D01*
X156158901Y-64614445D01*
X156158900Y-65687812D01*
X155322600Y-66524112D01*
X155322600Y-59026938D01*
X157764638Y-56584900D01*
X158258152Y-56584900D01*
X158264563Y-56596894D01*
X158343915Y-56693585D01*
X158440606Y-56772937D01*
X158550920Y-56831902D01*
X158670618Y-56868212D01*
X158795100Y-56880472D01*
X159445100Y-56880472D01*
X159569582Y-56868212D01*
X159595100Y-56860471D01*
X159620618Y-56868212D01*
X159745100Y-56880472D01*
X159784350Y-56877400D01*
X159943100Y-56718650D01*
X159943100Y-56636541D01*
X159975637Y-56596894D01*
X160034602Y-56486580D01*
X160070100Y-56369559D01*
X160105598Y-56486580D01*
X160164563Y-56596894D01*
X160197100Y-56636541D01*
X160197100Y-56718650D01*
X160355850Y-56877400D01*
X160395100Y-56880472D01*
X160519582Y-56868212D01*
X160545100Y-56860471D01*
X160570618Y-56868212D01*
X160695100Y-56880472D01*
X161345100Y-56880472D01*
X161469582Y-56868212D01*
X161589280Y-56831902D01*
X161699594Y-56772937D01*
X161796285Y-56693585D01*
X161875637Y-56596894D01*
X161934602Y-56486580D01*
X161970912Y-56366882D01*
X161983172Y-56242400D01*
X161983172Y-55492625D01*
X164059930Y-55492625D01*
X165870100Y-57302795D01*
X167680270Y-55492625D01*
X167440124Y-55105382D01*
X166946223Y-54844759D01*
X166410967Y-54685499D01*
X165854926Y-54633722D01*
X165299468Y-54691419D01*
X164765939Y-54856372D01*
X164300076Y-55105382D01*
X164059930Y-55492625D01*
X161983172Y-55492625D01*
X161983172Y-55022400D01*
X161970912Y-54897918D01*
X161934602Y-54778220D01*
X161875637Y-54667906D01*
X161796285Y-54571215D01*
X161699594Y-54491863D01*
X161589280Y-54432898D01*
X161469582Y-54396588D01*
X161345100Y-54384328D01*
X160695100Y-54384328D01*
X160570618Y-54396588D01*
X160545100Y-54404329D01*
X160519582Y-54396588D01*
X160395100Y-54384328D01*
X160355850Y-54387400D01*
X160197100Y-54546150D01*
X160197100Y-54628259D01*
X160164563Y-54667906D01*
X160105598Y-54778220D01*
X160070100Y-54895241D01*
X160034602Y-54778220D01*
X159975637Y-54667906D01*
X159943100Y-54628259D01*
X159943100Y-54546150D01*
X159784350Y-54387400D01*
X159745100Y-54384328D01*
X159620618Y-54396588D01*
X159595100Y-54404329D01*
X159569582Y-54396588D01*
X159445100Y-54384328D01*
X159187186Y-54384328D01*
X159254352Y-54258669D01*
X159308817Y-54079123D01*
X159322600Y-53939185D01*
X159327208Y-53892400D01*
X159322600Y-53845615D01*
X159322600Y-53706983D01*
X159370100Y-53649104D01*
X159418915Y-53708585D01*
X159515606Y-53787937D01*
X159625920Y-53846902D01*
X159745618Y-53883212D01*
X159870100Y-53895472D01*
X160084350Y-53892400D01*
X160243100Y-53733650D01*
X160243100Y-52759400D01*
X160497100Y-52759400D01*
X160497100Y-53733650D01*
X160655850Y-53892400D01*
X160870100Y-53895472D01*
X160994582Y-53883212D01*
X161114280Y-53846902D01*
X161224594Y-53787937D01*
X161321285Y-53708585D01*
X161400637Y-53611894D01*
X161459602Y-53501580D01*
X161495912Y-53381882D01*
X161508172Y-53257400D01*
X161505100Y-52918150D01*
X161346350Y-52759400D01*
X160497100Y-52759400D01*
X160243100Y-52759400D01*
X160223100Y-52759400D01*
X160223100Y-52505400D01*
X160243100Y-52505400D01*
X160243100Y-51531150D01*
X160497100Y-51531150D01*
X160497100Y-52505400D01*
X161346350Y-52505400D01*
X161505100Y-52346650D01*
X161508172Y-52007400D01*
X161495912Y-51882918D01*
X161459602Y-51763220D01*
X161400637Y-51652906D01*
X161321285Y-51556215D01*
X161224594Y-51476863D01*
X161114280Y-51417898D01*
X160994582Y-51381588D01*
X160870100Y-51369328D01*
X160655850Y-51372400D01*
X160497100Y-51531150D01*
X160243100Y-51531150D01*
X160084350Y-51372400D01*
X159870100Y-51369328D01*
X159745618Y-51381588D01*
X159625920Y-51417898D01*
X159515606Y-51476863D01*
X159418915Y-51556215D01*
X159370100Y-51615696D01*
X159321285Y-51556215D01*
X159224594Y-51476863D01*
X159114280Y-51417898D01*
X158994582Y-51381588D01*
X158870100Y-51369328D01*
X157870100Y-51369328D01*
X157745618Y-51381588D01*
X157625920Y-51417898D01*
X157515606Y-51476863D01*
X157418915Y-51556215D01*
X157339563Y-51652906D01*
X157280598Y-51763220D01*
X157244288Y-51882918D01*
X157232028Y-52007400D01*
X157232028Y-53257400D01*
X157244288Y-53381882D01*
X157280598Y-53501580D01*
X157327025Y-53588437D01*
X156729669Y-54185793D01*
X156693322Y-54215622D01*
X156574294Y-54360659D01*
X156485848Y-54526132D01*
X156435022Y-54693683D01*
X156431383Y-54705678D01*
X156412992Y-54892400D01*
X156417600Y-54939185D01*
X156417600Y-55237862D01*
X153836370Y-57819092D01*
X153836370Y-50318670D01*
X168438831Y-50318670D01*
X168438831Y-56271044D01*
G36*
X125805598Y-94203220D02*
G01*
X125769288Y-94322918D01*
X125757028Y-94447400D01*
X125760100Y-94461650D01*
X125918850Y-94620400D01*
X127043100Y-94620400D01*
X127043100Y-94600400D01*
X127297100Y-94600400D01*
X127297100Y-94620400D01*
X127317100Y-94620400D01*
X127317100Y-94874400D01*
X127297100Y-94874400D01*
X127297100Y-94894400D01*
X127043100Y-94894400D01*
X127043100Y-94874400D01*
X125918850Y-94874400D01*
X125760100Y-95033150D01*
X125757028Y-95047400D01*
X125758752Y-95064900D01*
X125603312Y-95064900D01*
X125620912Y-95006882D01*
X125633172Y-94882400D01*
X125630100Y-94668150D01*
X125471350Y-94509400D01*
X124497100Y-94509400D01*
X124497100Y-94529400D01*
X124243100Y-94529400D01*
X124243100Y-94509400D01*
X124223100Y-94509400D01*
X124223100Y-94255400D01*
X124243100Y-94255400D01*
X124243100Y-94235400D01*
X124497100Y-94235400D01*
X124497100Y-94255400D01*
X125471350Y-94255400D01*
X125538150Y-94188600D01*
X125813413Y-94188600D01*
X125805598Y-94203220D01*
X125805598Y-94203220D01*
G37*
X125805598Y-94203220D02*
X125769288Y-94322918D01*
X125757028Y-94447400D01*
X125760100Y-94461650D01*
X125918850Y-94620400D01*
X127043100Y-94620400D01*
X127043100Y-94600400D01*
X127297100Y-94600400D01*
X127297100Y-94620400D01*
X127317100Y-94620400D01*
X127317100Y-94874400D01*
X127297100Y-94874400D01*
X127297100Y-94894400D01*
X127043100Y-94894400D01*
X127043100Y-94874400D01*
X125918850Y-94874400D01*
X125760100Y-95033150D01*
X125757028Y-95047400D01*
X125758752Y-95064900D01*
X125603312Y-95064900D01*
X125620912Y-95006882D01*
X125633172Y-94882400D01*
X125630100Y-94668150D01*
X125471350Y-94509400D01*
X124497100Y-94509400D01*
X124497100Y-94529400D01*
X124243100Y-94529400D01*
X124243100Y-94509400D01*
X124223100Y-94509400D01*
X124223100Y-94255400D01*
X124243100Y-94255400D01*
X124243100Y-94235400D01*
X124497100Y-94235400D01*
X124497100Y-94255400D01*
X125471350Y-94255400D01*
X125538150Y-94188600D01*
X125813413Y-94188600D01*
X125805598Y-94203220D01*
G36*
X122618915Y-86483585D02*
G01*
X122632700Y-86494898D01*
X122632701Y-87269901D01*
X122618915Y-87281215D01*
X122539563Y-87377906D01*
X122480598Y-87488220D01*
X122444288Y-87607918D01*
X122432028Y-87732400D01*
X122432028Y-89032400D01*
X122444288Y-89156882D01*
X122480598Y-89276580D01*
X122539563Y-89386894D01*
X122618915Y-89483585D01*
X122715606Y-89562937D01*
X122825920Y-89621902D01*
X122945618Y-89658212D01*
X123070100Y-89670472D01*
X123770100Y-89670472D01*
X123894582Y-89658212D01*
X124014280Y-89621902D01*
X124124594Y-89562937D01*
X124221285Y-89483585D01*
X124300637Y-89386894D01*
X124359602Y-89276580D01*
X124370100Y-89241973D01*
X124380598Y-89276580D01*
X124439563Y-89386894D01*
X124518915Y-89483585D01*
X124615606Y-89562937D01*
X124725920Y-89621902D01*
X124845618Y-89658212D01*
X124970100Y-89670472D01*
X125670100Y-89670472D01*
X125794582Y-89658212D01*
X125797875Y-89657213D01*
X127942601Y-91801940D01*
X127942601Y-92539328D01*
X126395100Y-92539328D01*
X126270618Y-92551588D01*
X126150920Y-92587898D01*
X126040606Y-92646863D01*
X125943915Y-92726215D01*
X125911100Y-92766200D01*
X122219844Y-92766200D01*
X122230100Y-92714640D01*
X122230100Y-92550160D01*
X122198011Y-92388840D01*
X122135067Y-92236879D01*
X122106300Y-92193826D01*
X122106300Y-90302328D01*
X122109740Y-90267400D01*
X122106300Y-90232471D01*
X122106300Y-90232464D01*
X122096009Y-90127980D01*
X122072026Y-90048919D01*
X122055342Y-89993918D01*
X121989302Y-89870367D01*
X121922698Y-89789209D01*
X121922688Y-89789199D01*
X121900426Y-89762073D01*
X121873301Y-89739812D01*
X120345739Y-88212251D01*
X120387016Y-88076177D01*
X120415951Y-87782400D01*
X120387016Y-87488623D01*
X120301325Y-87206136D01*
X120241067Y-87093401D01*
X121410373Y-87093401D01*
X121445299Y-87096841D01*
X121480225Y-87093401D01*
X121480235Y-87093401D01*
X121584719Y-87083110D01*
X121718780Y-87042443D01*
X121842332Y-86976403D01*
X121950626Y-86887528D01*
X121972900Y-86860387D01*
X122062874Y-86770413D01*
X122113660Y-86760311D01*
X122265621Y-86697367D01*
X122402381Y-86605987D01*
X122518687Y-86489681D01*
X122565913Y-86419002D01*
X122618915Y-86483585D01*
X122618915Y-86483585D01*
G37*
X122618915Y-86483585D02*
X122632700Y-86494898D01*
X122632701Y-87269901D01*
X122618915Y-87281215D01*
X122539563Y-87377906D01*
X122480598Y-87488220D01*
X122444288Y-87607918D01*
X122432028Y-87732400D01*
X122432028Y-89032400D01*
X122444288Y-89156882D01*
X122480598Y-89276580D01*
X122539563Y-89386894D01*
X122618915Y-89483585D01*
X122715606Y-89562937D01*
X122825920Y-89621902D01*
X122945618Y-89658212D01*
X123070100Y-89670472D01*
X123770100Y-89670472D01*
X123894582Y-89658212D01*
X124014280Y-89621902D01*
X124124594Y-89562937D01*
X124221285Y-89483585D01*
X124300637Y-89386894D01*
X124359602Y-89276580D01*
X124370100Y-89241973D01*
X124380598Y-89276580D01*
X124439563Y-89386894D01*
X124518915Y-89483585D01*
X124615606Y-89562937D01*
X124725920Y-89621902D01*
X124845618Y-89658212D01*
X124970100Y-89670472D01*
X125670100Y-89670472D01*
X125794582Y-89658212D01*
X125797875Y-89657213D01*
X127942601Y-91801940D01*
X127942601Y-92539328D01*
X126395100Y-92539328D01*
X126270618Y-92551588D01*
X126150920Y-92587898D01*
X126040606Y-92646863D01*
X125943915Y-92726215D01*
X125911100Y-92766200D01*
X122219844Y-92766200D01*
X122230100Y-92714640D01*
X122230100Y-92550160D01*
X122198011Y-92388840D01*
X122135067Y-92236879D01*
X122106300Y-92193826D01*
X122106300Y-90302328D01*
X122109740Y-90267400D01*
X122106300Y-90232471D01*
X122106300Y-90232464D01*
X122096009Y-90127980D01*
X122072026Y-90048919D01*
X122055342Y-89993918D01*
X121989302Y-89870367D01*
X121922698Y-89789209D01*
X121922688Y-89789199D01*
X121900426Y-89762073D01*
X121873301Y-89739812D01*
X120345739Y-88212251D01*
X120387016Y-88076177D01*
X120415951Y-87782400D01*
X120387016Y-87488623D01*
X120301325Y-87206136D01*
X120241067Y-87093401D01*
X121410373Y-87093401D01*
X121445299Y-87096841D01*
X121480225Y-87093401D01*
X121480235Y-87093401D01*
X121584719Y-87083110D01*
X121718780Y-87042443D01*
X121842332Y-86976403D01*
X121950626Y-86887528D01*
X121972900Y-86860387D01*
X122062874Y-86770413D01*
X122113660Y-86760311D01*
X122265621Y-86697367D01*
X122402381Y-86605987D01*
X122518687Y-86489681D01*
X122565913Y-86419002D01*
X122618915Y-86483585D01*
G36*
X120625100Y-66583451D02*
G01*
X120625101Y-69670017D01*
X120618957Y-69732400D01*
X120643477Y-69981363D01*
X120705677Y-70186406D01*
X120716098Y-70220759D01*
X120834026Y-70441388D01*
X120992731Y-70634770D01*
X121041186Y-70674536D01*
X122002963Y-71636314D01*
X122042730Y-71684770D01*
X122236112Y-71843475D01*
X122456741Y-71961403D01*
X122608373Y-72007400D01*
X122696136Y-72034023D01*
X122712057Y-72035591D01*
X122882720Y-72052400D01*
X122882726Y-72052400D01*
X122945099Y-72058543D01*
X123007472Y-72052400D01*
X123243062Y-72052400D01*
X123592601Y-72401939D01*
X123592600Y-77275615D01*
X123587992Y-77322400D01*
X123603841Y-77483309D01*
X123606383Y-77509122D01*
X123660848Y-77688668D01*
X123749294Y-77854141D01*
X123868322Y-77999178D01*
X123904669Y-78029007D01*
X124023475Y-78147813D01*
X124014280Y-78142898D01*
X123894582Y-78106588D01*
X123770100Y-78094328D01*
X123070100Y-78094328D01*
X122945618Y-78106588D01*
X122825920Y-78142898D01*
X122715606Y-78201863D01*
X122618915Y-78281215D01*
X122539563Y-78377906D01*
X122480598Y-78488220D01*
X122444288Y-78607918D01*
X122432028Y-78732400D01*
X122432028Y-80032400D01*
X122444288Y-80156882D01*
X122480598Y-80276580D01*
X122539563Y-80386894D01*
X122618915Y-80483585D01*
X122632701Y-80494899D01*
X122632700Y-81269902D01*
X122618915Y-81281215D01*
X122539563Y-81377906D01*
X122480598Y-81488220D01*
X122444288Y-81607918D01*
X122432028Y-81732400D01*
X122432028Y-83032400D01*
X122444288Y-83156882D01*
X122480598Y-83276580D01*
X122539563Y-83386894D01*
X122605037Y-83466674D01*
X121642326Y-84429387D01*
X121591540Y-84439489D01*
X121439579Y-84502433D01*
X121396526Y-84531200D01*
X120229200Y-84531200D01*
X120162169Y-84405794D01*
X119974897Y-84177603D01*
X119746706Y-83990331D01*
X119713160Y-83972400D01*
X119746706Y-83954469D01*
X119974897Y-83767197D01*
X120162169Y-83539006D01*
X120301325Y-83278664D01*
X120387016Y-82996177D01*
X120415951Y-82702400D01*
X120387016Y-82408623D01*
X120301325Y-82126136D01*
X120162169Y-81865794D01*
X119974897Y-81637603D01*
X119746706Y-81450331D01*
X119713160Y-81432400D01*
X119746706Y-81414469D01*
X119974897Y-81227197D01*
X120162169Y-80999006D01*
X120301325Y-80738664D01*
X120387016Y-80456177D01*
X120415951Y-80162400D01*
X120387016Y-79868623D01*
X120301325Y-79586136D01*
X120162169Y-79325794D01*
X119974897Y-79097603D01*
X119746706Y-78910331D01*
X119713160Y-78892400D01*
X119746706Y-78874469D01*
X119974897Y-78687197D01*
X120162169Y-78459006D01*
X120301325Y-78198664D01*
X120387016Y-77916177D01*
X120415951Y-77622400D01*
X120387016Y-77328623D01*
X120301325Y-77046136D01*
X120162169Y-76785794D01*
X119974897Y-76557603D01*
X119746706Y-76370331D01*
X119713160Y-76352400D01*
X119746706Y-76334469D01*
X119974897Y-76147197D01*
X120162169Y-75919006D01*
X120301325Y-75658664D01*
X120387016Y-75376177D01*
X120415951Y-75082400D01*
X120387016Y-74788623D01*
X120301325Y-74506136D01*
X120162169Y-74245794D01*
X119974897Y-74017603D01*
X119746706Y-73830331D01*
X119713160Y-73812400D01*
X119746706Y-73794469D01*
X119974897Y-73607197D01*
X120162169Y-73379006D01*
X120301325Y-73118664D01*
X120387016Y-72836177D01*
X120415951Y-72542400D01*
X120387016Y-72248623D01*
X120301325Y-71966136D01*
X120162169Y-71705794D01*
X119974897Y-71477603D01*
X119746706Y-71290331D01*
X119713160Y-71272400D01*
X119746706Y-71254469D01*
X119974897Y-71067197D01*
X120162169Y-70839006D01*
X120301325Y-70578664D01*
X120387016Y-70296177D01*
X120415951Y-70002400D01*
X120387016Y-69708623D01*
X120301325Y-69426136D01*
X120162169Y-69165794D01*
X119974897Y-68937603D01*
X119746706Y-68750331D01*
X119713160Y-68732400D01*
X119746706Y-68714469D01*
X119974897Y-68527197D01*
X120162169Y-68299006D01*
X120301325Y-68038664D01*
X120387016Y-67756177D01*
X120415951Y-67462400D01*
X120387016Y-67168623D01*
X120301325Y-66886136D01*
X120162169Y-66625794D01*
X119974897Y-66397603D01*
X119746706Y-66210331D01*
X119713160Y-66192400D01*
X120234050Y-66192400D01*
X120625100Y-66583451D01*
X120625100Y-66583451D01*
G37*
X120625100Y-66583451D02*
X120625101Y-69670017D01*
X120618957Y-69732400D01*
X120643477Y-69981363D01*
X120705677Y-70186406D01*
X120716098Y-70220759D01*
X120834026Y-70441388D01*
X120992731Y-70634770D01*
X121041186Y-70674536D01*
X122002963Y-71636314D01*
X122042730Y-71684770D01*
X122236112Y-71843475D01*
X122456741Y-71961403D01*
X122608373Y-72007400D01*
X122696136Y-72034023D01*
X122712057Y-72035591D01*
X122882720Y-72052400D01*
X122882726Y-72052400D01*
X122945099Y-72058543D01*
X123007472Y-72052400D01*
X123243062Y-72052400D01*
X123592601Y-72401939D01*
X123592600Y-77275615D01*
X123587992Y-77322400D01*
X123603841Y-77483309D01*
X123606383Y-77509122D01*
X123660848Y-77688668D01*
X123749294Y-77854141D01*
X123868322Y-77999178D01*
X123904669Y-78029007D01*
X124023475Y-78147813D01*
X124014280Y-78142898D01*
X123894582Y-78106588D01*
X123770100Y-78094328D01*
X123070100Y-78094328D01*
X122945618Y-78106588D01*
X122825920Y-78142898D01*
X122715606Y-78201863D01*
X122618915Y-78281215D01*
X122539563Y-78377906D01*
X122480598Y-78488220D01*
X122444288Y-78607918D01*
X122432028Y-78732400D01*
X122432028Y-80032400D01*
X122444288Y-80156882D01*
X122480598Y-80276580D01*
X122539563Y-80386894D01*
X122618915Y-80483585D01*
X122632701Y-80494899D01*
X122632700Y-81269902D01*
X122618915Y-81281215D01*
X122539563Y-81377906D01*
X122480598Y-81488220D01*
X122444288Y-81607918D01*
X122432028Y-81732400D01*
X122432028Y-83032400D01*
X122444288Y-83156882D01*
X122480598Y-83276580D01*
X122539563Y-83386894D01*
X122605037Y-83466674D01*
X121642326Y-84429387D01*
X121591540Y-84439489D01*
X121439579Y-84502433D01*
X121396526Y-84531200D01*
X120229200Y-84531200D01*
X120162169Y-84405794D01*
X119974897Y-84177603D01*
X119746706Y-83990331D01*
X119713160Y-83972400D01*
X119746706Y-83954469D01*
X119974897Y-83767197D01*
X120162169Y-83539006D01*
X120301325Y-83278664D01*
X120387016Y-82996177D01*
X120415951Y-82702400D01*
X120387016Y-82408623D01*
X120301325Y-82126136D01*
X120162169Y-81865794D01*
X119974897Y-81637603D01*
X119746706Y-81450331D01*
X119713160Y-81432400D01*
X119746706Y-81414469D01*
X119974897Y-81227197D01*
X120162169Y-80999006D01*
X120301325Y-80738664D01*
X120387016Y-80456177D01*
X120415951Y-80162400D01*
X120387016Y-79868623D01*
X120301325Y-79586136D01*
X120162169Y-79325794D01*
X119974897Y-79097603D01*
X119746706Y-78910331D01*
X119713160Y-78892400D01*
X119746706Y-78874469D01*
X119974897Y-78687197D01*
X120162169Y-78459006D01*
X120301325Y-78198664D01*
X120387016Y-77916177D01*
X120415951Y-77622400D01*
X120387016Y-77328623D01*
X120301325Y-77046136D01*
X120162169Y-76785794D01*
X119974897Y-76557603D01*
X119746706Y-76370331D01*
X119713160Y-76352400D01*
X119746706Y-76334469D01*
X119974897Y-76147197D01*
X120162169Y-75919006D01*
X120301325Y-75658664D01*
X120387016Y-75376177D01*
X120415951Y-75082400D01*
X120387016Y-74788623D01*
X120301325Y-74506136D01*
X120162169Y-74245794D01*
X119974897Y-74017603D01*
X119746706Y-73830331D01*
X119713160Y-73812400D01*
X119746706Y-73794469D01*
X119974897Y-73607197D01*
X120162169Y-73379006D01*
X120301325Y-73118664D01*
X120387016Y-72836177D01*
X120415951Y-72542400D01*
X120387016Y-72248623D01*
X120301325Y-71966136D01*
X120162169Y-71705794D01*
X119974897Y-71477603D01*
X119746706Y-71290331D01*
X119713160Y-71272400D01*
X119746706Y-71254469D01*
X119974897Y-71067197D01*
X120162169Y-70839006D01*
X120301325Y-70578664D01*
X120387016Y-70296177D01*
X120415951Y-70002400D01*
X120387016Y-69708623D01*
X120301325Y-69426136D01*
X120162169Y-69165794D01*
X119974897Y-68937603D01*
X119746706Y-68750331D01*
X119713160Y-68732400D01*
X119746706Y-68714469D01*
X119974897Y-68527197D01*
X120162169Y-68299006D01*
X120301325Y-68038664D01*
X120387016Y-67756177D01*
X120415951Y-67462400D01*
X120387016Y-67168623D01*
X120301325Y-66886136D01*
X120162169Y-66625794D01*
X119974897Y-66397603D01*
X119746706Y-66210331D01*
X119713160Y-66192400D01*
X120234050Y-66192400D01*
X120625100Y-66583451D01*
G36*
X139632598Y-67694898D02*
G01*
X139478267Y-67882951D01*
X139363589Y-68097499D01*
X139292970Y-68330298D01*
X139269125Y-68572400D01*
X139292970Y-68814502D01*
X139363589Y-69047301D01*
X139478267Y-69261849D01*
X139632598Y-69449902D01*
X139820651Y-69604233D01*
X140035199Y-69718911D01*
X140267998Y-69789530D01*
X140449435Y-69807400D01*
X141370765Y-69807400D01*
X141552202Y-69789530D01*
X141785001Y-69718911D01*
X141999549Y-69604233D01*
X142122814Y-69503072D01*
X142166097Y-69645758D01*
X142284025Y-69866387D01*
X142442730Y-70059770D01*
X142491190Y-70099541D01*
X143627967Y-71236319D01*
X143667730Y-71284770D01*
X143716180Y-71324532D01*
X143716183Y-71324535D01*
X143766186Y-71365571D01*
X143861112Y-71443475D01*
X144060630Y-71550119D01*
X144081741Y-71561403D01*
X144321137Y-71634023D01*
X144570100Y-71658544D01*
X144632480Y-71652400D01*
X145719311Y-71652400D01*
X143641910Y-73729803D01*
X143614774Y-73752073D01*
X143525899Y-73860367D01*
X143459859Y-73983919D01*
X143424018Y-74102073D01*
X143419192Y-74117981D01*
X143405460Y-74257400D01*
X143408901Y-74292336D01*
X143408900Y-77969328D01*
X143295100Y-77969328D01*
X143170618Y-77981588D01*
X143050920Y-78017898D01*
X142940606Y-78076863D01*
X142843915Y-78156215D01*
X142764563Y-78252906D01*
X142705598Y-78363220D01*
X142669288Y-78482918D01*
X142657028Y-78607400D01*
X142657028Y-79907400D01*
X142669288Y-80031882D01*
X142705598Y-80151580D01*
X142764563Y-80261894D01*
X142841306Y-80355406D01*
X142075513Y-81121200D01*
X129855028Y-81121200D01*
X129820100Y-81117760D01*
X129785171Y-81121200D01*
X129785164Y-81121200D01*
X129680680Y-81131491D01*
X129546618Y-81172158D01*
X129446853Y-81225484D01*
X129423067Y-81238198D01*
X129314773Y-81327073D01*
X129292503Y-81354209D01*
X127148316Y-83498397D01*
X127156300Y-83417336D01*
X127156300Y-83417327D01*
X127159740Y-83382401D01*
X127156300Y-83347475D01*
X127156300Y-81626988D01*
X127698296Y-81084993D01*
X127725427Y-81062727D01*
X127747693Y-81035596D01*
X127747698Y-81035591D01*
X127814302Y-80954433D01*
X127880342Y-80830881D01*
X127921009Y-80696820D01*
X127923604Y-80670472D01*
X127931300Y-80592336D01*
X127931300Y-80592329D01*
X127934740Y-80557400D01*
X127931300Y-80522472D01*
X127931300Y-77849388D01*
X128308296Y-77472393D01*
X128335427Y-77450127D01*
X128357693Y-77422996D01*
X128357697Y-77422992D01*
X128359647Y-77420616D01*
X128472202Y-77409530D01*
X128705001Y-77338911D01*
X128919549Y-77224233D01*
X129107602Y-77069902D01*
X129261933Y-76881849D01*
X129376611Y-76667301D01*
X129447230Y-76434502D01*
X129471075Y-76192400D01*
X139269125Y-76192400D01*
X139292970Y-76434502D01*
X139363589Y-76667301D01*
X139478267Y-76881849D01*
X139632598Y-77069902D01*
X139820651Y-77224233D01*
X140035199Y-77338911D01*
X140267998Y-77409530D01*
X140449435Y-77427400D01*
X141370765Y-77427400D01*
X141552202Y-77409530D01*
X141785001Y-77338911D01*
X141999549Y-77224233D01*
X142187602Y-77069902D01*
X142341933Y-76881849D01*
X142456611Y-76667301D01*
X142527230Y-76434502D01*
X142551075Y-76192400D01*
X142527230Y-75950298D01*
X142456611Y-75717499D01*
X142341933Y-75502951D01*
X142187602Y-75314898D01*
X141999549Y-75160567D01*
X141785001Y-75045889D01*
X141552202Y-74975270D01*
X141370765Y-74957400D01*
X140449435Y-74957400D01*
X140267998Y-74975270D01*
X140035199Y-75045889D01*
X139820651Y-75160567D01*
X139632598Y-75314898D01*
X139478267Y-75502951D01*
X139363589Y-75717499D01*
X139292970Y-75950298D01*
X139269125Y-76192400D01*
X129471075Y-76192400D01*
X129447230Y-75950298D01*
X129376611Y-75717499D01*
X129261933Y-75502951D01*
X129107602Y-75314898D01*
X128919549Y-75160567D01*
X128705001Y-75045889D01*
X128472202Y-74975270D01*
X128290765Y-74957400D01*
X127369435Y-74957400D01*
X127187998Y-74975270D01*
X126955199Y-75045889D01*
X126740651Y-75160567D01*
X126552598Y-75314898D01*
X126531300Y-75340850D01*
X126531300Y-74651988D01*
X126607955Y-74575333D01*
X126740651Y-74684233D01*
X126955199Y-74798911D01*
X127187998Y-74869530D01*
X127369435Y-74887400D01*
X128290765Y-74887400D01*
X128472202Y-74869530D01*
X128705001Y-74798911D01*
X128919549Y-74684233D01*
X129107602Y-74529902D01*
X129261933Y-74341849D01*
X129376611Y-74127301D01*
X129447230Y-73894502D01*
X129471075Y-73652400D01*
X139269125Y-73652400D01*
X139292970Y-73894502D01*
X139363589Y-74127301D01*
X139478267Y-74341849D01*
X139632598Y-74529902D01*
X139820651Y-74684233D01*
X140035199Y-74798911D01*
X140267998Y-74869530D01*
X140449435Y-74887400D01*
X141370765Y-74887400D01*
X141552202Y-74869530D01*
X141785001Y-74798911D01*
X141999549Y-74684233D01*
X142187602Y-74529902D01*
X142341933Y-74341849D01*
X142456611Y-74127301D01*
X142527230Y-73894502D01*
X142551075Y-73652400D01*
X142527230Y-73410298D01*
X142456611Y-73177499D01*
X142341933Y-72962951D01*
X142187602Y-72774898D01*
X141999549Y-72620567D01*
X141785001Y-72505889D01*
X141552202Y-72435270D01*
X141370765Y-72417400D01*
X140449435Y-72417400D01*
X140267998Y-72435270D01*
X140035199Y-72505889D01*
X139820651Y-72620567D01*
X139632598Y-72774898D01*
X139478267Y-72962951D01*
X139363589Y-73177499D01*
X139292970Y-73410298D01*
X139269125Y-73652400D01*
X129471075Y-73652400D01*
X129447230Y-73410298D01*
X129376611Y-73177499D01*
X129261933Y-72962951D01*
X129107602Y-72774898D01*
X128919549Y-72620567D01*
X128705001Y-72505889D01*
X128472202Y-72435270D01*
X128290765Y-72417400D01*
X127369435Y-72417400D01*
X127187998Y-72435270D01*
X126955199Y-72505889D01*
X126740651Y-72620567D01*
X126552598Y-72774898D01*
X126409606Y-72949134D01*
X126385680Y-72951491D01*
X126251618Y-72992158D01*
X126128067Y-73058198D01*
X126046909Y-73124802D01*
X126046904Y-73124807D01*
X126019773Y-73147073D01*
X125997507Y-73174204D01*
X125497600Y-73674112D01*
X125497600Y-72054184D01*
X125497776Y-72052400D01*
X126628752Y-72052400D01*
X126740651Y-72144233D01*
X126955199Y-72258911D01*
X127187998Y-72329530D01*
X127369435Y-72347400D01*
X127526338Y-72347400D01*
X127581136Y-72364023D01*
X127606855Y-72366556D01*
X127767720Y-72382400D01*
X127767726Y-72382400D01*
X127830099Y-72388543D01*
X127892472Y-72382400D01*
X130037727Y-72382400D01*
X130100100Y-72388543D01*
X130162473Y-72382400D01*
X130162480Y-72382400D01*
X130349063Y-72364023D01*
X130588459Y-72291403D01*
X130809088Y-72173475D01*
X131002470Y-72014770D01*
X131042241Y-71966309D01*
X131896150Y-71112400D01*
X139269125Y-71112400D01*
X139292970Y-71354502D01*
X139363589Y-71587301D01*
X139478267Y-71801849D01*
X139632598Y-71989902D01*
X139820651Y-72144233D01*
X140035199Y-72258911D01*
X140267998Y-72329530D01*
X140449435Y-72347400D01*
X141370765Y-72347400D01*
X141552202Y-72329530D01*
X141785001Y-72258911D01*
X141999549Y-72144233D01*
X142187602Y-71989902D01*
X142341933Y-71801849D01*
X142456611Y-71587301D01*
X142527230Y-71354502D01*
X142551075Y-71112400D01*
X142527230Y-70870298D01*
X142456611Y-70637499D01*
X142341933Y-70422951D01*
X142187602Y-70234898D01*
X141999549Y-70080567D01*
X141785001Y-69965889D01*
X141552202Y-69895270D01*
X141370765Y-69877400D01*
X140449435Y-69877400D01*
X140267998Y-69895270D01*
X140035199Y-69965889D01*
X139820651Y-70080567D01*
X139632598Y-70234898D01*
X139478267Y-70422951D01*
X139363589Y-70637499D01*
X139292970Y-70870298D01*
X139269125Y-71112400D01*
X131896150Y-71112400D01*
X135331152Y-67677400D01*
X139653919Y-67677400D01*
X139632598Y-67694898D01*
X139632598Y-67694898D01*
G37*
X139632598Y-67694898D02*
X139478267Y-67882951D01*
X139363589Y-68097499D01*
X139292970Y-68330298D01*
X139269125Y-68572400D01*
X139292970Y-68814502D01*
X139363589Y-69047301D01*
X139478267Y-69261849D01*
X139632598Y-69449902D01*
X139820651Y-69604233D01*
X140035199Y-69718911D01*
X140267998Y-69789530D01*
X140449435Y-69807400D01*
X141370765Y-69807400D01*
X141552202Y-69789530D01*
X141785001Y-69718911D01*
X141999549Y-69604233D01*
X142122814Y-69503072D01*
X142166097Y-69645758D01*
X142284025Y-69866387D01*
X142442730Y-70059770D01*
X142491190Y-70099541D01*
X143627967Y-71236319D01*
X143667730Y-71284770D01*
X143716180Y-71324532D01*
X143716183Y-71324535D01*
X143766186Y-71365571D01*
X143861112Y-71443475D01*
X144060630Y-71550119D01*
X144081741Y-71561403D01*
X144321137Y-71634023D01*
X144570100Y-71658544D01*
X144632480Y-71652400D01*
X145719311Y-71652400D01*
X143641910Y-73729803D01*
X143614774Y-73752073D01*
X143525899Y-73860367D01*
X143459859Y-73983919D01*
X143424018Y-74102073D01*
X143419192Y-74117981D01*
X143405460Y-74257400D01*
X143408901Y-74292336D01*
X143408900Y-77969328D01*
X143295100Y-77969328D01*
X143170618Y-77981588D01*
X143050920Y-78017898D01*
X142940606Y-78076863D01*
X142843915Y-78156215D01*
X142764563Y-78252906D01*
X142705598Y-78363220D01*
X142669288Y-78482918D01*
X142657028Y-78607400D01*
X142657028Y-79907400D01*
X142669288Y-80031882D01*
X142705598Y-80151580D01*
X142764563Y-80261894D01*
X142841306Y-80355406D01*
X142075513Y-81121200D01*
X129855028Y-81121200D01*
X129820100Y-81117760D01*
X129785171Y-81121200D01*
X129785164Y-81121200D01*
X129680680Y-81131491D01*
X129546618Y-81172158D01*
X129446853Y-81225484D01*
X129423067Y-81238198D01*
X129314773Y-81327073D01*
X129292503Y-81354209D01*
X127148316Y-83498397D01*
X127156300Y-83417336D01*
X127156300Y-83417327D01*
X127159740Y-83382401D01*
X127156300Y-83347475D01*
X127156300Y-81626988D01*
X127698296Y-81084993D01*
X127725427Y-81062727D01*
X127747693Y-81035596D01*
X127747698Y-81035591D01*
X127814302Y-80954433D01*
X127880342Y-80830881D01*
X127921009Y-80696820D01*
X127923604Y-80670472D01*
X127931300Y-80592336D01*
X127931300Y-80592329D01*
X127934740Y-80557400D01*
X127931300Y-80522472D01*
X127931300Y-77849388D01*
X128308296Y-77472393D01*
X128335427Y-77450127D01*
X128357693Y-77422996D01*
X128357697Y-77422992D01*
X128359647Y-77420616D01*
X128472202Y-77409530D01*
X128705001Y-77338911D01*
X128919549Y-77224233D01*
X129107602Y-77069902D01*
X129261933Y-76881849D01*
X129376611Y-76667301D01*
X129447230Y-76434502D01*
X129471075Y-76192400D01*
X139269125Y-76192400D01*
X139292970Y-76434502D01*
X139363589Y-76667301D01*
X139478267Y-76881849D01*
X139632598Y-77069902D01*
X139820651Y-77224233D01*
X140035199Y-77338911D01*
X140267998Y-77409530D01*
X140449435Y-77427400D01*
X141370765Y-77427400D01*
X141552202Y-77409530D01*
X141785001Y-77338911D01*
X141999549Y-77224233D01*
X142187602Y-77069902D01*
X142341933Y-76881849D01*
X142456611Y-76667301D01*
X142527230Y-76434502D01*
X142551075Y-76192400D01*
X142527230Y-75950298D01*
X142456611Y-75717499D01*
X142341933Y-75502951D01*
X142187602Y-75314898D01*
X141999549Y-75160567D01*
X141785001Y-75045889D01*
X141552202Y-74975270D01*
X141370765Y-74957400D01*
X140449435Y-74957400D01*
X140267998Y-74975270D01*
X140035199Y-75045889D01*
X139820651Y-75160567D01*
X139632598Y-75314898D01*
X139478267Y-75502951D01*
X139363589Y-75717499D01*
X139292970Y-75950298D01*
X139269125Y-76192400D01*
X129471075Y-76192400D01*
X129447230Y-75950298D01*
X129376611Y-75717499D01*
X129261933Y-75502951D01*
X129107602Y-75314898D01*
X128919549Y-75160567D01*
X128705001Y-75045889D01*
X128472202Y-74975270D01*
X128290765Y-74957400D01*
X127369435Y-74957400D01*
X127187998Y-74975270D01*
X126955199Y-75045889D01*
X126740651Y-75160567D01*
X126552598Y-75314898D01*
X126531300Y-75340850D01*
X126531300Y-74651988D01*
X126607955Y-74575333D01*
X126740651Y-74684233D01*
X126955199Y-74798911D01*
X127187998Y-74869530D01*
X127369435Y-74887400D01*
X128290765Y-74887400D01*
X128472202Y-74869530D01*
X128705001Y-74798911D01*
X128919549Y-74684233D01*
X129107602Y-74529902D01*
X129261933Y-74341849D01*
X129376611Y-74127301D01*
X129447230Y-73894502D01*
X129471075Y-73652400D01*
X139269125Y-73652400D01*
X139292970Y-73894502D01*
X139363589Y-74127301D01*
X139478267Y-74341849D01*
X139632598Y-74529902D01*
X139820651Y-74684233D01*
X140035199Y-74798911D01*
X140267998Y-74869530D01*
X140449435Y-74887400D01*
X141370765Y-74887400D01*
X141552202Y-74869530D01*
X141785001Y-74798911D01*
X141999549Y-74684233D01*
X142187602Y-74529902D01*
X142341933Y-74341849D01*
X142456611Y-74127301D01*
X142527230Y-73894502D01*
X142551075Y-73652400D01*
X142527230Y-73410298D01*
X142456611Y-73177499D01*
X142341933Y-72962951D01*
X142187602Y-72774898D01*
X141999549Y-72620567D01*
X141785001Y-72505889D01*
X141552202Y-72435270D01*
X141370765Y-72417400D01*
X140449435Y-72417400D01*
X140267998Y-72435270D01*
X140035199Y-72505889D01*
X139820651Y-72620567D01*
X139632598Y-72774898D01*
X139478267Y-72962951D01*
X139363589Y-73177499D01*
X139292970Y-73410298D01*
X139269125Y-73652400D01*
X129471075Y-73652400D01*
X129447230Y-73410298D01*
X129376611Y-73177499D01*
X129261933Y-72962951D01*
X129107602Y-72774898D01*
X128919549Y-72620567D01*
X128705001Y-72505889D01*
X128472202Y-72435270D01*
X128290765Y-72417400D01*
X127369435Y-72417400D01*
X127187998Y-72435270D01*
X126955199Y-72505889D01*
X126740651Y-72620567D01*
X126552598Y-72774898D01*
X126409606Y-72949134D01*
X126385680Y-72951491D01*
X126251618Y-72992158D01*
X126128067Y-73058198D01*
X126046909Y-73124802D01*
X126046904Y-73124807D01*
X126019773Y-73147073D01*
X125997507Y-73174204D01*
X125497600Y-73674112D01*
X125497600Y-72054184D01*
X125497776Y-72052400D01*
X126628752Y-72052400D01*
X126740651Y-72144233D01*
X126955199Y-72258911D01*
X127187998Y-72329530D01*
X127369435Y-72347400D01*
X127526338Y-72347400D01*
X127581136Y-72364023D01*
X127606855Y-72366556D01*
X127767720Y-72382400D01*
X127767726Y-72382400D01*
X127830099Y-72388543D01*
X127892472Y-72382400D01*
X130037727Y-72382400D01*
X130100100Y-72388543D01*
X130162473Y-72382400D01*
X130162480Y-72382400D01*
X130349063Y-72364023D01*
X130588459Y-72291403D01*
X130809088Y-72173475D01*
X131002470Y-72014770D01*
X131042241Y-71966309D01*
X131896150Y-71112400D01*
X139269125Y-71112400D01*
X139292970Y-71354502D01*
X139363589Y-71587301D01*
X139478267Y-71801849D01*
X139632598Y-71989902D01*
X139820651Y-72144233D01*
X140035199Y-72258911D01*
X140267998Y-72329530D01*
X140449435Y-72347400D01*
X141370765Y-72347400D01*
X141552202Y-72329530D01*
X141785001Y-72258911D01*
X141999549Y-72144233D01*
X142187602Y-71989902D01*
X142341933Y-71801849D01*
X142456611Y-71587301D01*
X142527230Y-71354502D01*
X142551075Y-71112400D01*
X142527230Y-70870298D01*
X142456611Y-70637499D01*
X142341933Y-70422951D01*
X142187602Y-70234898D01*
X141999549Y-70080567D01*
X141785001Y-69965889D01*
X141552202Y-69895270D01*
X141370765Y-69877400D01*
X140449435Y-69877400D01*
X140267998Y-69895270D01*
X140035199Y-69965889D01*
X139820651Y-70080567D01*
X139632598Y-70234898D01*
X139478267Y-70422951D01*
X139363589Y-70637499D01*
X139292970Y-70870298D01*
X139269125Y-71112400D01*
X131896150Y-71112400D01*
X135331152Y-67677400D01*
X139653919Y-67677400D01*
X139632598Y-67694898D01*
G36*
X134783830Y-64256149D02*
G01*
X134780752Y-64287400D01*
X134793037Y-64412131D01*
X134829419Y-64532068D01*
X134888502Y-64642603D01*
X134913807Y-64673437D01*
X134968013Y-64739487D01*
X135064897Y-64818998D01*
X135175432Y-64878081D01*
X135295369Y-64914463D01*
X135420100Y-64926748D01*
X135451351Y-64923670D01*
X153168849Y-64923670D01*
X153200100Y-64926748D01*
X153231351Y-64923670D01*
X153244246Y-64922400D01*
X153324831Y-64914463D01*
X153417600Y-64886322D01*
X153417600Y-66752861D01*
X150144095Y-70026367D01*
X150124594Y-70010363D01*
X150014280Y-69951398D01*
X149894582Y-69915088D01*
X149770100Y-69902828D01*
X149692189Y-69902828D01*
X149553565Y-69860777D01*
X149366982Y-69842400D01*
X149366975Y-69842400D01*
X149304602Y-69836257D01*
X149242229Y-69842400D01*
X149196150Y-69842400D01*
X149133320Y-69779570D01*
X149770100Y-69781972D01*
X149894582Y-69769712D01*
X150014280Y-69733402D01*
X150124594Y-69674437D01*
X150221285Y-69595085D01*
X150300637Y-69498394D01*
X150359602Y-69388080D01*
X150395912Y-69268382D01*
X150408172Y-69143900D01*
X150405100Y-68858150D01*
X150246350Y-68699400D01*
X148797100Y-68699400D01*
X148797100Y-68719400D01*
X148543100Y-68719400D01*
X148543100Y-68699400D01*
X147093850Y-68699400D01*
X146935100Y-68858150D01*
X146932367Y-69112400D01*
X146588903Y-69112400D01*
X146620912Y-69006882D01*
X146633172Y-68882400D01*
X146630100Y-68668150D01*
X146471350Y-68509400D01*
X145497100Y-68509400D01*
X145497100Y-68529400D01*
X145243100Y-68529400D01*
X145243100Y-68509400D01*
X145223100Y-68509400D01*
X145223100Y-68255400D01*
X145243100Y-68255400D01*
X145243100Y-67406150D01*
X145497100Y-67406150D01*
X145497100Y-68255400D01*
X146471350Y-68255400D01*
X146630100Y-68096650D01*
X146631472Y-68000900D01*
X146932028Y-68000900D01*
X146935100Y-68286650D01*
X147093850Y-68445400D01*
X148543100Y-68445400D01*
X148543100Y-67524650D01*
X148797100Y-67524650D01*
X148797100Y-68445400D01*
X150246350Y-68445400D01*
X150405100Y-68286650D01*
X150408172Y-68000900D01*
X150395912Y-67876418D01*
X150359602Y-67756720D01*
X150300637Y-67646406D01*
X150221285Y-67549715D01*
X150124594Y-67470363D01*
X150014280Y-67411398D01*
X149894582Y-67375088D01*
X149770100Y-67362828D01*
X148955850Y-67365900D01*
X148797100Y-67524650D01*
X148543100Y-67524650D01*
X148384350Y-67365900D01*
X147570100Y-67362828D01*
X147445618Y-67375088D01*
X147325920Y-67411398D01*
X147215606Y-67470363D01*
X147118915Y-67549715D01*
X147039563Y-67646406D01*
X146980598Y-67756720D01*
X146944288Y-67876418D01*
X146932028Y-68000900D01*
X146631472Y-68000900D01*
X146633172Y-67882400D01*
X146620912Y-67757918D01*
X146584602Y-67638220D01*
X146525637Y-67527906D01*
X146446285Y-67431215D01*
X146349594Y-67351863D01*
X146239280Y-67292898D01*
X146119582Y-67256588D01*
X145995100Y-67244328D01*
X145655850Y-67247400D01*
X145497100Y-67406150D01*
X145243100Y-67406150D01*
X145084350Y-67247400D01*
X144745100Y-67244328D01*
X144620618Y-67256588D01*
X144611585Y-67259328D01*
X144596723Y-67108437D01*
X144524103Y-66869041D01*
X144406175Y-66648412D01*
X144321929Y-66545758D01*
X144287235Y-66503483D01*
X144287232Y-66503480D01*
X144247470Y-66455030D01*
X144199019Y-66415267D01*
X143337240Y-65553490D01*
X143297470Y-65505030D01*
X143104088Y-65346325D01*
X142883459Y-65228397D01*
X142644063Y-65155777D01*
X142457480Y-65137400D01*
X142457473Y-65137400D01*
X142395100Y-65131257D01*
X142332727Y-65137400D01*
X134867480Y-65137400D01*
X134805100Y-65131256D01*
X134742720Y-65137400D01*
X134556137Y-65155777D01*
X134316741Y-65228397D01*
X134096112Y-65346325D01*
X134045090Y-65388198D01*
X133951183Y-65465265D01*
X133951182Y-65465266D01*
X133902730Y-65505030D01*
X133862968Y-65553480D01*
X129574050Y-69842400D01*
X128356618Y-69842400D01*
X128313970Y-69807400D01*
X128357100Y-69807400D01*
X128595596Y-69758893D01*
X128820046Y-69664790D01*
X129021825Y-69528707D01*
X129193178Y-69355874D01*
X129327521Y-69152933D01*
X129419691Y-68927682D01*
X129423562Y-68890009D01*
X129298831Y-68699400D01*
X127957100Y-68699400D01*
X127957100Y-68719400D01*
X127703100Y-68719400D01*
X127703100Y-68699400D01*
X126361369Y-68699400D01*
X126236638Y-68890009D01*
X126240509Y-68927682D01*
X126332679Y-69152933D01*
X126467022Y-69355874D01*
X126622208Y-69512400D01*
X125763903Y-69512400D01*
X125795912Y-69406882D01*
X125808172Y-69282400D01*
X125805100Y-69068150D01*
X125646350Y-68909400D01*
X124672100Y-68909400D01*
X124672100Y-68929400D01*
X124418100Y-68929400D01*
X124418100Y-68909400D01*
X123443850Y-68909400D01*
X123285100Y-69068150D01*
X123282028Y-69282400D01*
X123286494Y-69327743D01*
X123165100Y-69206350D01*
X123165100Y-68282400D01*
X123282028Y-68282400D01*
X123285100Y-68496650D01*
X123443850Y-68655400D01*
X124418100Y-68655400D01*
X124418100Y-67806150D01*
X124672100Y-67806150D01*
X124672100Y-68655400D01*
X125646350Y-68655400D01*
X125805100Y-68496650D01*
X125808172Y-68282400D01*
X125805453Y-68254791D01*
X126236638Y-68254791D01*
X126361369Y-68445400D01*
X127703100Y-68445400D01*
X127703100Y-67337400D01*
X127957100Y-67337400D01*
X127957100Y-68445400D01*
X129298831Y-68445400D01*
X129423562Y-68254791D01*
X129419691Y-68217118D01*
X129327521Y-67991867D01*
X129193178Y-67788926D01*
X129021825Y-67616093D01*
X128820046Y-67480010D01*
X128595596Y-67385907D01*
X128357100Y-67337400D01*
X127957100Y-67337400D01*
X127703100Y-67337400D01*
X127303100Y-67337400D01*
X127064604Y-67385907D01*
X126840154Y-67480010D01*
X126638375Y-67616093D01*
X126467022Y-67788926D01*
X126332679Y-67991867D01*
X126240509Y-68217118D01*
X126236638Y-68254791D01*
X125805453Y-68254791D01*
X125795912Y-68157918D01*
X125759602Y-68038220D01*
X125700637Y-67927906D01*
X125621285Y-67831215D01*
X125524594Y-67751863D01*
X125414280Y-67692898D01*
X125294582Y-67656588D01*
X125170100Y-67644328D01*
X124830850Y-67647400D01*
X124672100Y-67806150D01*
X124418100Y-67806150D01*
X124259350Y-67647400D01*
X123920100Y-67644328D01*
X123795618Y-67656588D01*
X123675920Y-67692898D01*
X123565606Y-67751863D01*
X123468915Y-67831215D01*
X123389563Y-67927906D01*
X123330598Y-68038220D01*
X123294288Y-68157918D01*
X123282028Y-68282400D01*
X123165100Y-68282400D01*
X123165100Y-66119772D01*
X123171243Y-66057399D01*
X123165100Y-65995026D01*
X123165100Y-65995020D01*
X123146723Y-65808437D01*
X123074103Y-65569041D01*
X122956175Y-65348412D01*
X122797470Y-65155030D01*
X122749015Y-65115264D01*
X121702241Y-64068491D01*
X121662470Y-64020030D01*
X121469088Y-63861325D01*
X121248459Y-63743397D01*
X121009063Y-63670777D01*
X120822480Y-63652400D01*
X120822473Y-63652400D01*
X120760100Y-63646257D01*
X120697727Y-63652400D01*
X119713160Y-63652400D01*
X119702190Y-63646537D01*
X119798588Y-63589217D01*
X120016954Y-63392693D01*
X120192784Y-63157344D01*
X120319322Y-62892214D01*
X120365058Y-62741426D01*
X120243917Y-62509400D01*
X119037100Y-62509400D01*
X119037100Y-62529400D01*
X118783100Y-62529400D01*
X118783100Y-62509400D01*
X116497100Y-62509400D01*
X116497100Y-62529400D01*
X116243100Y-62529400D01*
X116243100Y-62509400D01*
X116223100Y-62509400D01*
X116223100Y-62255400D01*
X116243100Y-62255400D01*
X116243100Y-61042550D01*
X116497100Y-61042550D01*
X116497100Y-62255400D01*
X118783100Y-62255400D01*
X118783100Y-61047936D01*
X119037100Y-61047936D01*
X119037100Y-62255400D01*
X120243917Y-62255400D01*
X120365058Y-62023374D01*
X120319322Y-61872586D01*
X120192784Y-61607456D01*
X120016954Y-61372107D01*
X119798588Y-61175583D01*
X119546078Y-61025436D01*
X119269127Y-60927437D01*
X119037100Y-61047936D01*
X118783100Y-61047936D01*
X118551073Y-60927437D01*
X118274122Y-61025436D01*
X118021612Y-61175583D01*
X117842153Y-61337092D01*
X117823202Y-61274620D01*
X117764237Y-61164306D01*
X117684885Y-61067615D01*
X117588194Y-60988263D01*
X117477880Y-60929298D01*
X117358182Y-60892988D01*
X117233700Y-60880728D01*
X116655850Y-60883800D01*
X116497100Y-61042550D01*
X116243100Y-61042550D01*
X116084350Y-60883800D01*
X115506500Y-60880728D01*
X115382018Y-60892988D01*
X115262320Y-60929298D01*
X115152006Y-60988263D01*
X115101370Y-61029819D01*
X115101370Y-59472175D01*
X115759930Y-59472175D01*
X116000076Y-59859418D01*
X116493977Y-60120041D01*
X117029233Y-60279301D01*
X117585274Y-60331078D01*
X118140732Y-60273381D01*
X118674261Y-60108428D01*
X119140124Y-59859418D01*
X119380270Y-59472175D01*
X117570100Y-57662005D01*
X115759930Y-59472175D01*
X115101370Y-59472175D01*
X115101370Y-58880844D01*
X115193082Y-59052424D01*
X115580325Y-59292570D01*
X117390495Y-57482400D01*
X117749705Y-57482400D01*
X119559875Y-59292570D01*
X119947118Y-59052424D01*
X120207741Y-58558523D01*
X120367001Y-58023267D01*
X120418778Y-57467226D01*
X120361081Y-56911768D01*
X120196128Y-56378239D01*
X119947118Y-55912376D01*
X119559875Y-55672230D01*
X117749705Y-57482400D01*
X117390495Y-57482400D01*
X115580325Y-55672230D01*
X115193082Y-55912376D01*
X115101370Y-56086177D01*
X115101370Y-55492625D01*
X115759930Y-55492625D01*
X117570100Y-57302795D01*
X119380270Y-55492625D01*
X119140124Y-55105382D01*
X118646223Y-54844759D01*
X118110967Y-54685499D01*
X117554926Y-54633722D01*
X116999468Y-54691419D01*
X116465939Y-54856372D01*
X116000076Y-55105382D01*
X115759930Y-55492625D01*
X115101370Y-55492625D01*
X115101370Y-49072404D01*
X115173659Y-48153882D01*
X115382891Y-47282367D01*
X115725884Y-46454311D01*
X116194188Y-45690109D01*
X116776274Y-45008574D01*
X117457809Y-44426487D01*
X118222011Y-43958184D01*
X119050069Y-43615191D01*
X119921582Y-43405959D01*
X120840104Y-43333670D01*
X134783831Y-43333670D01*
X134783830Y-64256149D01*
X134783830Y-64256149D01*
G37*
X134783830Y-64256149D02*
X134780752Y-64287400D01*
X134793037Y-64412131D01*
X134829419Y-64532068D01*
X134888502Y-64642603D01*
X134913807Y-64673437D01*
X134968013Y-64739487D01*
X135064897Y-64818998D01*
X135175432Y-64878081D01*
X135295369Y-64914463D01*
X135420100Y-64926748D01*
X135451351Y-64923670D01*
X153168849Y-64923670D01*
X153200100Y-64926748D01*
X153231351Y-64923670D01*
X153244246Y-64922400D01*
X153324831Y-64914463D01*
X153417600Y-64886322D01*
X153417600Y-66752861D01*
X150144095Y-70026367D01*
X150124594Y-70010363D01*
X150014280Y-69951398D01*
X149894582Y-69915088D01*
X149770100Y-69902828D01*
X149692189Y-69902828D01*
X149553565Y-69860777D01*
X149366982Y-69842400D01*
X149366975Y-69842400D01*
X149304602Y-69836257D01*
X149242229Y-69842400D01*
X149196150Y-69842400D01*
X149133320Y-69779570D01*
X149770100Y-69781972D01*
X149894582Y-69769712D01*
X150014280Y-69733402D01*
X150124594Y-69674437D01*
X150221285Y-69595085D01*
X150300637Y-69498394D01*
X150359602Y-69388080D01*
X150395912Y-69268382D01*
X150408172Y-69143900D01*
X150405100Y-68858150D01*
X150246350Y-68699400D01*
X148797100Y-68699400D01*
X148797100Y-68719400D01*
X148543100Y-68719400D01*
X148543100Y-68699400D01*
X147093850Y-68699400D01*
X146935100Y-68858150D01*
X146932367Y-69112400D01*
X146588903Y-69112400D01*
X146620912Y-69006882D01*
X146633172Y-68882400D01*
X146630100Y-68668150D01*
X146471350Y-68509400D01*
X145497100Y-68509400D01*
X145497100Y-68529400D01*
X145243100Y-68529400D01*
X145243100Y-68509400D01*
X145223100Y-68509400D01*
X145223100Y-68255400D01*
X145243100Y-68255400D01*
X145243100Y-67406150D01*
X145497100Y-67406150D01*
X145497100Y-68255400D01*
X146471350Y-68255400D01*
X146630100Y-68096650D01*
X146631472Y-68000900D01*
X146932028Y-68000900D01*
X146935100Y-68286650D01*
X147093850Y-68445400D01*
X148543100Y-68445400D01*
X148543100Y-67524650D01*
X148797100Y-67524650D01*
X148797100Y-68445400D01*
X150246350Y-68445400D01*
X150405100Y-68286650D01*
X150408172Y-68000900D01*
X150395912Y-67876418D01*
X150359602Y-67756720D01*
X150300637Y-67646406D01*
X150221285Y-67549715D01*
X150124594Y-67470363D01*
X150014280Y-67411398D01*
X149894582Y-67375088D01*
X149770100Y-67362828D01*
X148955850Y-67365900D01*
X148797100Y-67524650D01*
X148543100Y-67524650D01*
X148384350Y-67365900D01*
X147570100Y-67362828D01*
X147445618Y-67375088D01*
X147325920Y-67411398D01*
X147215606Y-67470363D01*
X147118915Y-67549715D01*
X147039563Y-67646406D01*
X146980598Y-67756720D01*
X146944288Y-67876418D01*
X146932028Y-68000900D01*
X146631472Y-68000900D01*
X146633172Y-67882400D01*
X146620912Y-67757918D01*
X146584602Y-67638220D01*
X146525637Y-67527906D01*
X146446285Y-67431215D01*
X146349594Y-67351863D01*
X146239280Y-67292898D01*
X146119582Y-67256588D01*
X145995100Y-67244328D01*
X145655850Y-67247400D01*
X145497100Y-67406150D01*
X145243100Y-67406150D01*
X145084350Y-67247400D01*
X144745100Y-67244328D01*
X144620618Y-67256588D01*
X144611585Y-67259328D01*
X144596723Y-67108437D01*
X144524103Y-66869041D01*
X144406175Y-66648412D01*
X144321929Y-66545758D01*
X144287235Y-66503483D01*
X144287232Y-66503480D01*
X144247470Y-66455030D01*
X144199019Y-66415267D01*
X143337240Y-65553490D01*
X143297470Y-65505030D01*
X143104088Y-65346325D01*
X142883459Y-65228397D01*
X142644063Y-65155777D01*
X142457480Y-65137400D01*
X142457473Y-65137400D01*
X142395100Y-65131257D01*
X142332727Y-65137400D01*
X134867480Y-65137400D01*
X134805100Y-65131256D01*
X134742720Y-65137400D01*
X134556137Y-65155777D01*
X134316741Y-65228397D01*
X134096112Y-65346325D01*
X134045090Y-65388198D01*
X133951183Y-65465265D01*
X133951182Y-65465266D01*
X133902730Y-65505030D01*
X133862968Y-65553480D01*
X129574050Y-69842400D01*
X128356618Y-69842400D01*
X128313970Y-69807400D01*
X128357100Y-69807400D01*
X128595596Y-69758893D01*
X128820046Y-69664790D01*
X129021825Y-69528707D01*
X129193178Y-69355874D01*
X129327521Y-69152933D01*
X129419691Y-68927682D01*
X129423562Y-68890009D01*
X129298831Y-68699400D01*
X127957100Y-68699400D01*
X127957100Y-68719400D01*
X127703100Y-68719400D01*
X127703100Y-68699400D01*
X126361369Y-68699400D01*
X126236638Y-68890009D01*
X126240509Y-68927682D01*
X126332679Y-69152933D01*
X126467022Y-69355874D01*
X126622208Y-69512400D01*
X125763903Y-69512400D01*
X125795912Y-69406882D01*
X125808172Y-69282400D01*
X125805100Y-69068150D01*
X125646350Y-68909400D01*
X124672100Y-68909400D01*
X124672100Y-68929400D01*
X124418100Y-68929400D01*
X124418100Y-68909400D01*
X123443850Y-68909400D01*
X123285100Y-69068150D01*
X123282028Y-69282400D01*
X123286494Y-69327743D01*
X123165100Y-69206350D01*
X123165100Y-68282400D01*
X123282028Y-68282400D01*
X123285100Y-68496650D01*
X123443850Y-68655400D01*
X124418100Y-68655400D01*
X124418100Y-67806150D01*
X124672100Y-67806150D01*
X124672100Y-68655400D01*
X125646350Y-68655400D01*
X125805100Y-68496650D01*
X125808172Y-68282400D01*
X125805453Y-68254791D01*
X126236638Y-68254791D01*
X126361369Y-68445400D01*
X127703100Y-68445400D01*
X127703100Y-67337400D01*
X127957100Y-67337400D01*
X127957100Y-68445400D01*
X129298831Y-68445400D01*
X129423562Y-68254791D01*
X129419691Y-68217118D01*
X129327521Y-67991867D01*
X129193178Y-67788926D01*
X129021825Y-67616093D01*
X128820046Y-67480010D01*
X128595596Y-67385907D01*
X128357100Y-67337400D01*
X127957100Y-67337400D01*
X127703100Y-67337400D01*
X127303100Y-67337400D01*
X127064604Y-67385907D01*
X126840154Y-67480010D01*
X126638375Y-67616093D01*
X126467022Y-67788926D01*
X126332679Y-67991867D01*
X126240509Y-68217118D01*
X126236638Y-68254791D01*
X125805453Y-68254791D01*
X125795912Y-68157918D01*
X125759602Y-68038220D01*
X125700637Y-67927906D01*
X125621285Y-67831215D01*
X125524594Y-67751863D01*
X125414280Y-67692898D01*
X125294582Y-67656588D01*
X125170100Y-67644328D01*
X124830850Y-67647400D01*
X124672100Y-67806150D01*
X124418100Y-67806150D01*
X124259350Y-67647400D01*
X123920100Y-67644328D01*
X123795618Y-67656588D01*
X123675920Y-67692898D01*
X123565606Y-67751863D01*
X123468915Y-67831215D01*
X123389563Y-67927906D01*
X123330598Y-68038220D01*
X123294288Y-68157918D01*
X123282028Y-68282400D01*
X123165100Y-68282400D01*
X123165100Y-66119772D01*
X123171243Y-66057399D01*
X123165100Y-65995026D01*
X123165100Y-65995020D01*
X123146723Y-65808437D01*
X123074103Y-65569041D01*
X122956175Y-65348412D01*
X122797470Y-65155030D01*
X122749015Y-65115264D01*
X121702241Y-64068491D01*
X121662470Y-64020030D01*
X121469088Y-63861325D01*
X121248459Y-63743397D01*
X121009063Y-63670777D01*
X120822480Y-63652400D01*
X120822473Y-63652400D01*
X120760100Y-63646257D01*
X120697727Y-63652400D01*
X119713160Y-63652400D01*
X119702190Y-63646537D01*
X119798588Y-63589217D01*
X120016954Y-63392693D01*
X120192784Y-63157344D01*
X120319322Y-62892214D01*
X120365058Y-62741426D01*
X120243917Y-62509400D01*
X119037100Y-62509400D01*
X119037100Y-62529400D01*
X118783100Y-62529400D01*
X118783100Y-62509400D01*
X116497100Y-62509400D01*
X116497100Y-62529400D01*
X116243100Y-62529400D01*
X116243100Y-62509400D01*
X116223100Y-62509400D01*
X116223100Y-62255400D01*
X116243100Y-62255400D01*
X116243100Y-61042550D01*
X116497100Y-61042550D01*
X116497100Y-62255400D01*
X118783100Y-62255400D01*
X118783100Y-61047936D01*
X119037100Y-61047936D01*
X119037100Y-62255400D01*
X120243917Y-62255400D01*
X120365058Y-62023374D01*
X120319322Y-61872586D01*
X120192784Y-61607456D01*
X120016954Y-61372107D01*
X119798588Y-61175583D01*
X119546078Y-61025436D01*
X119269127Y-60927437D01*
X119037100Y-61047936D01*
X118783100Y-61047936D01*
X118551073Y-60927437D01*
X118274122Y-61025436D01*
X118021612Y-61175583D01*
X117842153Y-61337092D01*
X117823202Y-61274620D01*
X117764237Y-61164306D01*
X117684885Y-61067615D01*
X117588194Y-60988263D01*
X117477880Y-60929298D01*
X117358182Y-60892988D01*
X117233700Y-60880728D01*
X116655850Y-60883800D01*
X116497100Y-61042550D01*
X116243100Y-61042550D01*
X116084350Y-60883800D01*
X115506500Y-60880728D01*
X115382018Y-60892988D01*
X115262320Y-60929298D01*
X115152006Y-60988263D01*
X115101370Y-61029819D01*
X115101370Y-59472175D01*
X115759930Y-59472175D01*
X116000076Y-59859418D01*
X116493977Y-60120041D01*
X117029233Y-60279301D01*
X117585274Y-60331078D01*
X118140732Y-60273381D01*
X118674261Y-60108428D01*
X119140124Y-59859418D01*
X119380270Y-59472175D01*
X117570100Y-57662005D01*
X115759930Y-59472175D01*
X115101370Y-59472175D01*
X115101370Y-58880844D01*
X115193082Y-59052424D01*
X115580325Y-59292570D01*
X117390495Y-57482400D01*
X117749705Y-57482400D01*
X119559875Y-59292570D01*
X119947118Y-59052424D01*
X120207741Y-58558523D01*
X120367001Y-58023267D01*
X120418778Y-57467226D01*
X120361081Y-56911768D01*
X120196128Y-56378239D01*
X119947118Y-55912376D01*
X119559875Y-55672230D01*
X117749705Y-57482400D01*
X117390495Y-57482400D01*
X115580325Y-55672230D01*
X115193082Y-55912376D01*
X115101370Y-56086177D01*
X115101370Y-55492625D01*
X115759930Y-55492625D01*
X117570100Y-57302795D01*
X119380270Y-55492625D01*
X119140124Y-55105382D01*
X118646223Y-54844759D01*
X118110967Y-54685499D01*
X117554926Y-54633722D01*
X116999468Y-54691419D01*
X116465939Y-54856372D01*
X116000076Y-55105382D01*
X115759930Y-55492625D01*
X115101370Y-55492625D01*
X115101370Y-49072404D01*
X115173659Y-48153882D01*
X115382891Y-47282367D01*
X115725884Y-46454311D01*
X116194188Y-45690109D01*
X116776274Y-45008574D01*
X117457809Y-44426487D01*
X118222011Y-43958184D01*
X119050069Y-43615191D01*
X119921582Y-43405959D01*
X120840104Y-43333670D01*
X134783831Y-43333670D01*
X134783830Y-64256149D01*
M02*
