G04 #@! TF.GenerationSoftware,KiCad,Pcbnew,(5.1.2-1)-1*
G04 #@! TF.CreationDate,2019-06-05T17:00:04-02:30*
G04 #@! TF.ProjectId,BeagleCape V2,42656167-6c65-4436-9170-652056322e6b,rev?*
G04 #@! TF.SameCoordinates,Original*
G04 #@! TF.FileFunction,Profile,NP*
%FSLAX46Y46*%
G04 Gerber Fmt 4.6, Leading zero omitted, Abs format (unit mm)*
G04 Created by KiCad (PCBNEW (5.1.2-1)-1) date 2019-06-05 17:00:04*
%MOMM*%
%LPD*%
G04 APERTURE LIST*
%ADD10C,0.002540*%
G04 APERTURE END LIST*
D10*
X116036766Y-129132400D02*
G75*
G03X116036766Y-129132400I-1666666J0D01*
G01*
X111870100Y-129132400D02*
X116870100Y-129132400D01*
X114370100Y-126632400D02*
X114370100Y-131632400D01*
X116036766Y-129132400D02*
G75*
G03X116036766Y-129132400I-1666666J0D01*
G01*
X111870100Y-129132400D02*
X116870100Y-129132400D01*
X114370100Y-126632400D02*
X114370100Y-131632400D01*
X116036766Y-129132400D02*
G75*
G03X116036766Y-129132400I-1666666J0D01*
G01*
X111870100Y-129132400D02*
X116870100Y-129132400D01*
X114370100Y-126632400D02*
X114370100Y-131632400D01*
X114465100Y-116357400D02*
G75*
G03X127165100Y-129057400I12700000J0D01*
G01*
X156375100Y-129057400D02*
G75*
G03X169075100Y-116357400I0J12700000D01*
G01*
X120815100Y-42697400D02*
G75*
G03X114465100Y-49047400I0J-6350000D01*
G01*
X135420100Y-42697400D02*
X120815100Y-42697400D01*
X135420100Y-64287400D02*
X135420100Y-42697400D01*
X153200100Y-64287400D02*
X135420100Y-64287400D01*
X153200100Y-49682400D02*
X153200100Y-64287400D01*
X169075100Y-49682400D02*
X153200100Y-49682400D01*
X169075100Y-116357400D02*
X169075100Y-49682400D01*
X127165100Y-129057400D02*
X156375100Y-129057400D01*
X114465100Y-49047400D02*
X114465100Y-116357400D01*
M02*
