G04 #@! TF.GenerationSoftware,KiCad,Pcbnew,(5.1.2-1)-1*
G04 #@! TF.CreationDate,2019-06-05T17:00:04-02:30*
G04 #@! TF.ProjectId,BeagleCape V2,42656167-6c65-4436-9170-652056322e6b,rev?*
G04 #@! TF.SameCoordinates,Original*
G04 #@! TF.FileFunction,Legend,Top*
G04 #@! TF.FilePolarity,Positive*
%FSLAX46Y46*%
G04 Gerber Fmt 4.6, Leading zero omitted, Abs format (unit mm)*
G04 Created by KiCad (PCBNEW (5.1.2-1)-1) date 2019-06-05 17:00:04*
%MOMM*%
%LPD*%
G04 APERTURE LIST*
%ADD10C,0.100000*%
%ADD11C,0.300000*%
%ADD12C,0.250000*%
%ADD13C,0.150000*%
%ADD14C,0.120000*%
G04 APERTURE END LIST*
D10*
G36*
X161870100Y-82882400D02*
G01*
X158620100Y-82882400D01*
X158620100Y-78632400D01*
X161870100Y-78632400D01*
X161870100Y-82882400D01*
G37*
X161870100Y-82882400D02*
X158620100Y-82882400D01*
X158620100Y-78632400D01*
X161870100Y-78632400D01*
X161870100Y-82882400D01*
D11*
X147227242Y-103489542D02*
X147441528Y-103560971D01*
X147798671Y-103560971D01*
X147941528Y-103489542D01*
X148012957Y-103418114D01*
X148084385Y-103275257D01*
X148084385Y-103132400D01*
X148012957Y-102989542D01*
X147941528Y-102918114D01*
X147798671Y-102846685D01*
X147512957Y-102775257D01*
X147370100Y-102703828D01*
X147298671Y-102632400D01*
X147227242Y-102489542D01*
X147227242Y-102346685D01*
X147298671Y-102203828D01*
X147370100Y-102132400D01*
X147512957Y-102060971D01*
X147870100Y-102060971D01*
X148084385Y-102132400D01*
X148512957Y-102060971D02*
X149370100Y-102060971D01*
X148941528Y-103560971D02*
X148941528Y-102060971D01*
X149798671Y-103132400D02*
X150512957Y-103132400D01*
X149655814Y-103560971D02*
X150155814Y-102060971D01*
X150655814Y-103560971D01*
X150941528Y-102060971D02*
X151798671Y-102060971D01*
X151370100Y-103560971D02*
X151370100Y-102060971D01*
X152298671Y-102775257D02*
X152798671Y-102775257D01*
X153012957Y-103560971D02*
X152298671Y-103560971D01*
X152298671Y-102060971D01*
X153012957Y-102060971D01*
X124977242Y-102060971D02*
X124977242Y-103275257D01*
X125048671Y-103418114D01*
X125120100Y-103489542D01*
X125262957Y-103560971D01*
X125548671Y-103560971D01*
X125691528Y-103489542D01*
X125762957Y-103418114D01*
X125834385Y-103275257D01*
X125834385Y-102060971D01*
X126477242Y-103132400D02*
X127191528Y-103132400D01*
X126334385Y-103560971D02*
X126834385Y-102060971D01*
X127334385Y-103560971D01*
X128691528Y-103560971D02*
X128191528Y-102846685D01*
X127834385Y-103560971D02*
X127834385Y-102060971D01*
X128405814Y-102060971D01*
X128548671Y-102132400D01*
X128620100Y-102203828D01*
X128691528Y-102346685D01*
X128691528Y-102560971D01*
X128620100Y-102703828D01*
X128548671Y-102775257D01*
X128405814Y-102846685D01*
X127834385Y-102846685D01*
X129120100Y-102060971D02*
X129977242Y-102060971D01*
X129548671Y-103560971D02*
X129548671Y-102060971D01*
X140155814Y-103418114D02*
X140084385Y-103489542D01*
X139870100Y-103560971D01*
X139727242Y-103560971D01*
X139512957Y-103489542D01*
X139370100Y-103346685D01*
X139298671Y-103203828D01*
X139227242Y-102918114D01*
X139227242Y-102703828D01*
X139298671Y-102418114D01*
X139370100Y-102275257D01*
X139512957Y-102132400D01*
X139727242Y-102060971D01*
X139870100Y-102060971D01*
X140084385Y-102132400D01*
X140155814Y-102203828D01*
X140727242Y-103132400D02*
X141441528Y-103132400D01*
X140584385Y-103560971D02*
X141084385Y-102060971D01*
X141584385Y-103560971D01*
X142084385Y-103560971D02*
X142084385Y-102060971D01*
X142941528Y-103560971D01*
X142941528Y-102060971D01*
D12*
X158153433Y-101696090D02*
X158105814Y-101743709D01*
X157962957Y-101838947D01*
X157867719Y-101886566D01*
X157724861Y-101934185D01*
X157486766Y-101981804D01*
X157296290Y-101981804D01*
X157058195Y-101934185D01*
X156915338Y-101886566D01*
X156820100Y-101838947D01*
X156677242Y-101743709D01*
X156629623Y-101696090D01*
X157724861Y-100886566D02*
X157772480Y-100981804D01*
X157772480Y-101172280D01*
X157724861Y-101267519D01*
X157677242Y-101315138D01*
X157582004Y-101362757D01*
X157296290Y-101362757D01*
X157201052Y-101315138D01*
X157153433Y-101267519D01*
X157105814Y-101172280D01*
X157105814Y-100981804D01*
X157153433Y-100886566D01*
X158153433Y-100553233D02*
X158105814Y-100505614D01*
X157962957Y-100410376D01*
X157867719Y-100362757D01*
X157724861Y-100315138D01*
X157486766Y-100267519D01*
X157296290Y-100267519D01*
X157058195Y-100315138D01*
X156915338Y-100362757D01*
X156820100Y-100410376D01*
X156677242Y-100505614D01*
X156629623Y-100553233D01*
X157772480Y-99029423D02*
X156772480Y-99029423D01*
X156772480Y-98648471D01*
X156820100Y-98553233D01*
X156867719Y-98505614D01*
X156962957Y-98457995D01*
X157105814Y-98457995D01*
X157201052Y-98505614D01*
X157248671Y-98553233D01*
X157296290Y-98648471D01*
X157296290Y-99029423D01*
X157772480Y-97600852D02*
X157248671Y-97600852D01*
X157153433Y-97648471D01*
X157105814Y-97743709D01*
X157105814Y-97934185D01*
X157153433Y-98029423D01*
X157724861Y-97600852D02*
X157772480Y-97696090D01*
X157772480Y-97934185D01*
X157724861Y-98029423D01*
X157629623Y-98077042D01*
X157534385Y-98077042D01*
X157439147Y-98029423D01*
X157391528Y-97934185D01*
X157391528Y-97696090D01*
X157343909Y-97600852D01*
X157772480Y-97124661D02*
X157105814Y-97124661D01*
X157296290Y-97124661D02*
X157201052Y-97077042D01*
X157153433Y-97029423D01*
X157105814Y-96934185D01*
X157105814Y-96838947D01*
X157772480Y-96077042D02*
X157248671Y-96077042D01*
X157153433Y-96124661D01*
X157105814Y-96219900D01*
X157105814Y-96410376D01*
X157153433Y-96505614D01*
X157724861Y-96077042D02*
X157772480Y-96172280D01*
X157772480Y-96410376D01*
X157724861Y-96505614D01*
X157629623Y-96553233D01*
X157534385Y-96553233D01*
X157439147Y-96505614D01*
X157391528Y-96410376D01*
X157391528Y-96172280D01*
X157343909Y-96077042D01*
X157772480Y-95172280D02*
X156772480Y-95172280D01*
X157724861Y-95172280D02*
X157772480Y-95267519D01*
X157772480Y-95457995D01*
X157724861Y-95553233D01*
X157677242Y-95600852D01*
X157582004Y-95648471D01*
X157296290Y-95648471D01*
X157201052Y-95600852D01*
X157153433Y-95553233D01*
X157105814Y-95457995D01*
X157105814Y-95267519D01*
X157153433Y-95172280D01*
X157772480Y-94696090D02*
X157105814Y-94696090D01*
X156772480Y-94696090D02*
X156820100Y-94743709D01*
X156867719Y-94696090D01*
X156820100Y-94648471D01*
X156772480Y-94696090D01*
X156867719Y-94696090D01*
X157105814Y-93791328D02*
X157915338Y-93791328D01*
X158010576Y-93838947D01*
X158058195Y-93886566D01*
X158105814Y-93981804D01*
X158105814Y-94124661D01*
X158058195Y-94219900D01*
X157724861Y-93791328D02*
X157772480Y-93886566D01*
X157772480Y-94077042D01*
X157724861Y-94172280D01*
X157677242Y-94219900D01*
X157582004Y-94267519D01*
X157296290Y-94267519D01*
X157201052Y-94219900D01*
X157153433Y-94172280D01*
X157105814Y-94077042D01*
X157105814Y-93886566D01*
X157153433Y-93791328D01*
X157772480Y-93315138D02*
X157105814Y-93315138D01*
X157201052Y-93315138D02*
X157153433Y-93267519D01*
X157105814Y-93172280D01*
X157105814Y-93029423D01*
X157153433Y-92934185D01*
X157248671Y-92886566D01*
X157772480Y-92886566D01*
X157248671Y-92886566D02*
X157153433Y-92838947D01*
X157105814Y-92743709D01*
X157105814Y-92600852D01*
X157153433Y-92505614D01*
X157248671Y-92457995D01*
X157772480Y-92457995D01*
X157772480Y-91219900D02*
X156772480Y-91219900D01*
X157248671Y-91219900D02*
X157248671Y-90648471D01*
X157772480Y-90648471D02*
X156772480Y-90648471D01*
X157105814Y-90267519D02*
X157772480Y-90029423D01*
X157105814Y-89791328D02*
X157772480Y-90029423D01*
X158010576Y-90124661D01*
X158058195Y-90172280D01*
X158105814Y-90267519D01*
X157105814Y-89410376D02*
X158105814Y-89410376D01*
X157153433Y-89410376D02*
X157105814Y-89315138D01*
X157105814Y-89124661D01*
X157153433Y-89029423D01*
X157201052Y-88981804D01*
X157296290Y-88934185D01*
X157582004Y-88934185D01*
X157677242Y-88981804D01*
X157724861Y-89029423D01*
X157772480Y-89124661D01*
X157772480Y-89315138D01*
X157724861Y-89410376D01*
X157724861Y-88124661D02*
X157772480Y-88219900D01*
X157772480Y-88410376D01*
X157724861Y-88505614D01*
X157629623Y-88553233D01*
X157248671Y-88553233D01*
X157153433Y-88505614D01*
X157105814Y-88410376D01*
X157105814Y-88219900D01*
X157153433Y-88124661D01*
X157248671Y-88077042D01*
X157343909Y-88077042D01*
X157439147Y-88553233D01*
X157772480Y-87648471D02*
X157105814Y-87648471D01*
X157296290Y-87648471D02*
X157201052Y-87600852D01*
X157153433Y-87553233D01*
X157105814Y-87457995D01*
X157105814Y-87362757D01*
X157772480Y-86886566D02*
X157724861Y-86981804D01*
X157629623Y-87029423D01*
X156772480Y-87029423D01*
X157772480Y-86362757D02*
X157724861Y-86457995D01*
X157677242Y-86505614D01*
X157582004Y-86553233D01*
X157296290Y-86553233D01*
X157201052Y-86505614D01*
X157153433Y-86457995D01*
X157105814Y-86362757D01*
X157105814Y-86219900D01*
X157153433Y-86124661D01*
X157201052Y-86077042D01*
X157296290Y-86029423D01*
X157582004Y-86029423D01*
X157677242Y-86077042D01*
X157724861Y-86124661D01*
X157772480Y-86219900D01*
X157772480Y-86362757D01*
X157772480Y-85457995D02*
X157724861Y-85553233D01*
X157677242Y-85600852D01*
X157582004Y-85648471D01*
X157296290Y-85648471D01*
X157201052Y-85600852D01*
X157153433Y-85553233D01*
X157105814Y-85457995D01*
X157105814Y-85315138D01*
X157153433Y-85219900D01*
X157201052Y-85172280D01*
X157296290Y-85124661D01*
X157582004Y-85124661D01*
X157677242Y-85172280D01*
X157724861Y-85219900D01*
X157772480Y-85315138D01*
X157772480Y-85457995D01*
X157105814Y-84696090D02*
X158105814Y-84696090D01*
X157153433Y-84696090D02*
X157105814Y-84600852D01*
X157105814Y-84410376D01*
X157153433Y-84315138D01*
X157201052Y-84267519D01*
X157296290Y-84219900D01*
X157582004Y-84219900D01*
X157677242Y-84267519D01*
X157724861Y-84315138D01*
X157772480Y-84410376D01*
X157772480Y-84600852D01*
X157724861Y-84696090D01*
X158998671Y-101648471D02*
X159046290Y-101505614D01*
X159093909Y-101457995D01*
X159189147Y-101410376D01*
X159332004Y-101410376D01*
X159427242Y-101457995D01*
X159474861Y-101505614D01*
X159522480Y-101600852D01*
X159522480Y-101981804D01*
X158522480Y-101981804D01*
X158522480Y-101648471D01*
X158570100Y-101553233D01*
X158617719Y-101505614D01*
X158712957Y-101457995D01*
X158808195Y-101457995D01*
X158903433Y-101505614D01*
X158951052Y-101553233D01*
X158998671Y-101648471D01*
X158998671Y-101981804D01*
X159474861Y-100600852D02*
X159522480Y-100696090D01*
X159522480Y-100886566D01*
X159474861Y-100981804D01*
X159379623Y-101029423D01*
X158998671Y-101029423D01*
X158903433Y-100981804D01*
X158855814Y-100886566D01*
X158855814Y-100696090D01*
X158903433Y-100600852D01*
X158998671Y-100553233D01*
X159093909Y-100553233D01*
X159189147Y-101029423D01*
X159522480Y-99696090D02*
X158998671Y-99696090D01*
X158903433Y-99743709D01*
X158855814Y-99838947D01*
X158855814Y-100029423D01*
X158903433Y-100124661D01*
X159474861Y-99696090D02*
X159522480Y-99791328D01*
X159522480Y-100029423D01*
X159474861Y-100124661D01*
X159379623Y-100172280D01*
X159284385Y-100172280D01*
X159189147Y-100124661D01*
X159141528Y-100029423D01*
X159141528Y-99791328D01*
X159093909Y-99696090D01*
X158855814Y-98791328D02*
X159665338Y-98791328D01*
X159760576Y-98838947D01*
X159808195Y-98886566D01*
X159855814Y-98981804D01*
X159855814Y-99124661D01*
X159808195Y-99219900D01*
X159474861Y-98791328D02*
X159522480Y-98886566D01*
X159522480Y-99077042D01*
X159474861Y-99172280D01*
X159427242Y-99219900D01*
X159332004Y-99267519D01*
X159046290Y-99267519D01*
X158951052Y-99219900D01*
X158903433Y-99172280D01*
X158855814Y-99077042D01*
X158855814Y-98886566D01*
X158903433Y-98791328D01*
X159522480Y-98172280D02*
X159474861Y-98267519D01*
X159379623Y-98315138D01*
X158522480Y-98315138D01*
X159474861Y-97410376D02*
X159522480Y-97505614D01*
X159522480Y-97696090D01*
X159474861Y-97791328D01*
X159379623Y-97838947D01*
X158998671Y-97838947D01*
X158903433Y-97791328D01*
X158855814Y-97696090D01*
X158855814Y-97505614D01*
X158903433Y-97410376D01*
X158998671Y-97362757D01*
X159093909Y-97362757D01*
X159189147Y-97838947D01*
X159522480Y-96934185D02*
X158522480Y-96934185D01*
X158522480Y-96696090D01*
X158570100Y-96553233D01*
X158665338Y-96457995D01*
X158760576Y-96410376D01*
X158951052Y-96362757D01*
X159093909Y-96362757D01*
X159284385Y-96410376D01*
X159379623Y-96457995D01*
X159474861Y-96553233D01*
X159522480Y-96696090D01*
X159522480Y-96934185D01*
X159522480Y-95505614D02*
X158998671Y-95505614D01*
X158903433Y-95553233D01*
X158855814Y-95648471D01*
X158855814Y-95838947D01*
X158903433Y-95934185D01*
X159474861Y-95505614D02*
X159522480Y-95600852D01*
X159522480Y-95838947D01*
X159474861Y-95934185D01*
X159379623Y-95981804D01*
X159284385Y-95981804D01*
X159189147Y-95934185D01*
X159141528Y-95838947D01*
X159141528Y-95600852D01*
X159093909Y-95505614D01*
X158855814Y-94600852D02*
X159522480Y-94600852D01*
X158855814Y-95029423D02*
X159379623Y-95029423D01*
X159474861Y-94981804D01*
X159522480Y-94886566D01*
X159522480Y-94743709D01*
X159474861Y-94648471D01*
X159427242Y-94600852D01*
X158855814Y-93696090D02*
X159665338Y-93696090D01*
X159760576Y-93743709D01*
X159808195Y-93791328D01*
X159855814Y-93886566D01*
X159855814Y-94029423D01*
X159808195Y-94124661D01*
X159474861Y-93696090D02*
X159522480Y-93791328D01*
X159522480Y-93981804D01*
X159474861Y-94077042D01*
X159427242Y-94124661D01*
X159332004Y-94172280D01*
X159046290Y-94172280D01*
X158951052Y-94124661D01*
X158903433Y-94077042D01*
X158855814Y-93981804D01*
X158855814Y-93791328D01*
X158903433Y-93696090D01*
X159522480Y-93219900D02*
X158522480Y-93219900D01*
X159522480Y-92791328D02*
X158998671Y-92791328D01*
X158903433Y-92838947D01*
X158855814Y-92934185D01*
X158855814Y-93077042D01*
X158903433Y-93172280D01*
X158951052Y-93219900D01*
X158855814Y-92457995D02*
X158855814Y-92077042D01*
X158522480Y-92315138D02*
X159379623Y-92315138D01*
X159474861Y-92267519D01*
X159522480Y-92172280D01*
X159522480Y-92077042D01*
X159474861Y-91362757D02*
X159522480Y-91457995D01*
X159522480Y-91648471D01*
X159474861Y-91743709D01*
X159379623Y-91791328D01*
X158998671Y-91791328D01*
X158903433Y-91743709D01*
X158855814Y-91648471D01*
X158855814Y-91457995D01*
X158903433Y-91362757D01*
X158998671Y-91315138D01*
X159093909Y-91315138D01*
X159189147Y-91791328D01*
X159522480Y-90886566D02*
X158855814Y-90886566D01*
X159046290Y-90886566D02*
X158951052Y-90838947D01*
X158903433Y-90791328D01*
X158855814Y-90696090D01*
X158855814Y-90600852D01*
X159522480Y-89505614D02*
X158522480Y-89505614D01*
X158522480Y-89124661D01*
X158570100Y-89029423D01*
X158617719Y-88981804D01*
X158712957Y-88934185D01*
X158855814Y-88934185D01*
X158951052Y-88981804D01*
X158998671Y-89029423D01*
X159046290Y-89124661D01*
X159046290Y-89505614D01*
X159427242Y-87934185D02*
X159474861Y-87981804D01*
X159522480Y-88124661D01*
X159522480Y-88219900D01*
X159474861Y-88362757D01*
X159379623Y-88457995D01*
X159284385Y-88505614D01*
X159093909Y-88553233D01*
X158951052Y-88553233D01*
X158760576Y-88505614D01*
X158665338Y-88457995D01*
X158570100Y-88362757D01*
X158522480Y-88219900D01*
X158522480Y-88124661D01*
X158570100Y-87981804D01*
X158617719Y-87934185D01*
X158998671Y-87172280D02*
X159046290Y-87029423D01*
X159093909Y-86981804D01*
X159189147Y-86934185D01*
X159332004Y-86934185D01*
X159427242Y-86981804D01*
X159474861Y-87029423D01*
X159522480Y-87124661D01*
X159522480Y-87505614D01*
X158522480Y-87505614D01*
X158522480Y-87172280D01*
X158570100Y-87077042D01*
X158617719Y-87029423D01*
X158712957Y-86981804D01*
X158808195Y-86981804D01*
X158903433Y-87029423D01*
X158951052Y-87077042D01*
X158998671Y-87172280D01*
X158998671Y-87505614D01*
X161272480Y-101981804D02*
X160272480Y-101981804D01*
X160272480Y-101600852D01*
X160320100Y-101505614D01*
X160367719Y-101457995D01*
X160462957Y-101410376D01*
X160605814Y-101410376D01*
X160701052Y-101457995D01*
X160748671Y-101505614D01*
X160796290Y-101600852D01*
X160796290Y-101981804D01*
X161272480Y-100981804D02*
X160272480Y-100981804D01*
X161272480Y-100410376D01*
X160272480Y-100410376D01*
X161177242Y-99934185D02*
X161224861Y-99886566D01*
X161272480Y-99934185D01*
X161224861Y-99981804D01*
X161177242Y-99934185D01*
X161272480Y-99934185D01*
X160653433Y-99934185D02*
X160701052Y-99886566D01*
X160748671Y-99934185D01*
X160701052Y-99981804D01*
X160653433Y-99934185D01*
X160748671Y-99934185D01*
X160272480Y-98791328D02*
X161272480Y-98124661D01*
X160272480Y-98124661D02*
X161272480Y-98791328D01*
X160272480Y-97838947D02*
X161272480Y-97172280D01*
X160272480Y-97172280D02*
X161272480Y-97838947D01*
X160272480Y-96886566D02*
X161272480Y-96219900D01*
X160272480Y-96219900D02*
X161272480Y-96886566D01*
X160891528Y-95838947D02*
X160891528Y-95077042D01*
X160272480Y-94696090D02*
X161272480Y-94029423D01*
X160272480Y-94029423D02*
X161272480Y-94696090D01*
X160272480Y-93743709D02*
X161272480Y-93077042D01*
X160272480Y-93077042D02*
X161272480Y-93743709D01*
X160272480Y-92791328D02*
X161272480Y-92124661D01*
X160272480Y-92124661D02*
X161272480Y-92791328D01*
X160605814Y-91077042D02*
X161272480Y-90838947D01*
X160605814Y-90600852D01*
X161272480Y-89696090D02*
X161272480Y-90267519D01*
X161272480Y-89981804D02*
X160272480Y-89981804D01*
X160415338Y-90077042D01*
X160510576Y-90172280D01*
X160558195Y-90267519D01*
X161177242Y-89267519D02*
X161224861Y-89219900D01*
X161272480Y-89267519D01*
X161224861Y-89315138D01*
X161177242Y-89267519D01*
X161272480Y-89267519D01*
X160272480Y-88600852D02*
X160272480Y-88505614D01*
X160320100Y-88410376D01*
X160367719Y-88362757D01*
X160462957Y-88315138D01*
X160653433Y-88267519D01*
X160891528Y-88267519D01*
X161082004Y-88315138D01*
X161177242Y-88362757D01*
X161224861Y-88410376D01*
X161272480Y-88505614D01*
X161272480Y-88600852D01*
X161224861Y-88696090D01*
X161177242Y-88743709D01*
X161082004Y-88791328D01*
X160891528Y-88838947D01*
X160653433Y-88838947D01*
X160462957Y-88791328D01*
X160367719Y-88743709D01*
X160320100Y-88696090D01*
X160272480Y-88600852D01*
X161224861Y-86362757D02*
X161272480Y-86219900D01*
X161272480Y-85981804D01*
X161224861Y-85886566D01*
X161177242Y-85838947D01*
X161082004Y-85791328D01*
X160986766Y-85791328D01*
X160891528Y-85838947D01*
X160843909Y-85886566D01*
X160796290Y-85981804D01*
X160748671Y-86172280D01*
X160701052Y-86267519D01*
X160653433Y-86315138D01*
X160558195Y-86362757D01*
X160462957Y-86362757D01*
X160367719Y-86315138D01*
X160320100Y-86267519D01*
X160272480Y-86172280D01*
X160272480Y-85934185D01*
X160320100Y-85791328D01*
X161272480Y-85362757D02*
X160272480Y-85362757D01*
X161272480Y-84791328D01*
X160272480Y-84791328D01*
X161177242Y-84315138D02*
X161224861Y-84267519D01*
X161272480Y-84315138D01*
X161224861Y-84362757D01*
X161177242Y-84315138D01*
X161272480Y-84315138D01*
X160653433Y-84315138D02*
X160701052Y-84267519D01*
X160748671Y-84315138D01*
X160701052Y-84362757D01*
X160653433Y-84315138D01*
X160748671Y-84315138D01*
D13*
X168440100Y-119532400D02*
X168440100Y-61112400D01*
X163360100Y-119532400D02*
X163360100Y-63652400D01*
X168440100Y-119532400D02*
X163360100Y-119532400D01*
X168440100Y-61112400D02*
X165900100Y-61112400D01*
X164630100Y-60832400D02*
X163080100Y-60832400D01*
X165900100Y-61112400D02*
X165900100Y-63652400D01*
X165900100Y-63652400D02*
X163360100Y-63652400D01*
X163080100Y-60832400D02*
X163080100Y-62382400D01*
X120180100Y-119532400D02*
X120180100Y-61112400D01*
X115100100Y-119532400D02*
X115100100Y-63652400D01*
X120180100Y-119532400D02*
X115100100Y-119532400D01*
X120180100Y-61112400D02*
X117640100Y-61112400D01*
X116370100Y-60832400D02*
X114820100Y-60832400D01*
X117640100Y-61112400D02*
X117640100Y-63652400D01*
X117640100Y-63652400D02*
X115100100Y-63652400D01*
X114820100Y-60832400D02*
X114820100Y-62382400D01*
D14*
X129330100Y-67472400D02*
X129330100Y-77292400D01*
X129330100Y-77292400D02*
X139410100Y-77292400D01*
X139410100Y-77292400D02*
X139410100Y-67472400D01*
X139410100Y-67472400D02*
X136050100Y-67472400D01*
X136050100Y-67472400D02*
X136050100Y-67832400D01*
X136050100Y-67832400D02*
X132690101Y-67832400D01*
X132690101Y-67832400D02*
X132690101Y-67472400D01*
X132690101Y-67472400D02*
X129330100Y-67472400D01*
X150270100Y-68300900D02*
X151070100Y-67500900D01*
X151070100Y-67500900D02*
X156470100Y-67500900D01*
X156470100Y-67500900D02*
X156470100Y-77263900D01*
X156470100Y-77263900D02*
X150270100Y-77263900D01*
X150270100Y-77263900D02*
X150270100Y-68300900D01*
D13*
X149560363Y-66682400D02*
G75*
G03X149560363Y-66682400I-190263J0D01*
G01*
D14*
X125395100Y-70282400D02*
X125395100Y-69282400D01*
X123695100Y-69282400D02*
X123695100Y-70282400D01*
X144520100Y-68882400D02*
X144520100Y-69882400D01*
X146220100Y-69882400D02*
X146220100Y-68882400D01*
X123770100Y-81502400D02*
X124970100Y-81502400D01*
X124970100Y-83262400D02*
X123770100Y-83262400D01*
X124970100Y-86262400D02*
X123770100Y-86262400D01*
X123770100Y-84502400D02*
X124970100Y-84502400D01*
X143995100Y-78377400D02*
X145195100Y-78377400D01*
X145195100Y-80137400D02*
X143995100Y-80137400D01*
X145195100Y-83137400D02*
X143995100Y-83137400D01*
X143995100Y-81377400D02*
X145195100Y-81377400D01*
X124970100Y-80262400D02*
X123770100Y-80262400D01*
X123770100Y-78502400D02*
X124970100Y-78502400D01*
X123770100Y-87502400D02*
X124970100Y-87502400D01*
X124970100Y-89262400D02*
X123770100Y-89262400D01*
X158870100Y-53482400D02*
X159870100Y-53482400D01*
X159870100Y-51782400D02*
X158870100Y-51782400D01*
X158990100Y-63232400D02*
X158990100Y-62032400D01*
X160750100Y-62032400D02*
X160750100Y-63232400D01*
X157750100Y-62082400D02*
X157750100Y-63282400D01*
X155990100Y-63282400D02*
X155990100Y-62082400D01*
X161580100Y-57822400D02*
X161580100Y-55392400D01*
X158510100Y-56062400D02*
X158510100Y-57822400D01*
D13*
X155180100Y-118982400D02*
X155180100Y-106282400D01*
X147560100Y-118982400D02*
X155180100Y-118982400D01*
X147560100Y-106282400D02*
X147560100Y-118982400D01*
X155180100Y-106282400D02*
X147560100Y-106282400D01*
X147560100Y-107171400D02*
X148449100Y-106282400D01*
X147560100Y-106790400D02*
X148068100Y-106282400D01*
X149973100Y-112632400D02*
X152640100Y-112632400D01*
X150735100Y-108822400D02*
X153402100Y-108822400D01*
X149211100Y-116442400D02*
X151878100Y-116442400D01*
X149719100Y-112251400D02*
X150354100Y-109330400D01*
X153021100Y-112251400D02*
X153656100Y-109330400D01*
X152259100Y-115934400D02*
X152894100Y-113140400D01*
X148957100Y-115934400D02*
X149592100Y-113140400D01*
X154015310Y-116315400D02*
G75*
G03X154015310Y-116315400I-359210J0D01*
G01*
X149316310Y-108949400D02*
G75*
G03X149316310Y-108949400I-359210J0D01*
G01*
X147560100Y-107552400D02*
X148830100Y-106282400D01*
D14*
X125220100Y-95882400D02*
X125220100Y-94882400D01*
X123520100Y-94882400D02*
X123520100Y-95882400D01*
X145220100Y-114182400D02*
X144620100Y-113882400D01*
X145220100Y-113582400D02*
X145220100Y-114182400D01*
X144620100Y-113882400D02*
X145220100Y-113582400D01*
X142320100Y-112082400D02*
X142320100Y-110182400D01*
X142920100Y-112082400D02*
X142920100Y-110182400D01*
X139770100Y-127932400D02*
X142620100Y-127932400D01*
X139770100Y-114832400D02*
X139770100Y-127932400D01*
X140620100Y-114832400D02*
X139770100Y-114832400D01*
X145470100Y-127932400D02*
X142620100Y-127932400D01*
X145470100Y-114832400D02*
X145470100Y-127932400D01*
X144620100Y-114832400D02*
X145470100Y-114832400D01*
X135220100Y-114182400D02*
X134620100Y-113882400D01*
X135220100Y-113582400D02*
X135220100Y-114182400D01*
X134620100Y-113882400D02*
X135220100Y-113582400D01*
X130820100Y-114882400D02*
X130220100Y-114882400D01*
X128120100Y-112082400D02*
X128120100Y-110182400D01*
X128720100Y-112082400D02*
X128720100Y-110182400D01*
X132320100Y-112082400D02*
X132320100Y-110182400D01*
X132920100Y-112082400D02*
X132920100Y-110182400D01*
X125570100Y-127932400D02*
X130520100Y-127932400D01*
X125570100Y-114832400D02*
X125570100Y-127932400D01*
X126420100Y-114832400D02*
X125570100Y-114832400D01*
X135470100Y-127932400D02*
X130520100Y-127932400D01*
X135470100Y-114832400D02*
X135470100Y-127932400D01*
X134620100Y-114832400D02*
X135470100Y-114832400D01*
X134490100Y-96032400D02*
X134490100Y-94832400D01*
X136250100Y-94832400D02*
X136250100Y-96032400D01*
X160970100Y-105262400D02*
X159770100Y-105262400D01*
X159770100Y-103502400D02*
X160970100Y-103502400D01*
X159720100Y-112502400D02*
X160920100Y-112502400D01*
X160920100Y-114262400D02*
X159720100Y-114262400D01*
X160970100Y-120262400D02*
X159770100Y-120262400D01*
X159770100Y-118502400D02*
X160970100Y-118502400D01*
X155270100Y-122002400D02*
X156470100Y-122002400D01*
X156470100Y-123762400D02*
X155270100Y-123762400D01*
X160970100Y-117262400D02*
X159770100Y-117262400D01*
X159770100Y-115502400D02*
X160970100Y-115502400D01*
X159770100Y-106502400D02*
X160970100Y-106502400D01*
X160970100Y-108262400D02*
X159770100Y-108262400D01*
X160970100Y-111262400D02*
X159770100Y-111262400D01*
X159770100Y-109502400D02*
X160970100Y-109502400D01*
X155270100Y-125002400D02*
X156470100Y-125002400D01*
X156470100Y-126762400D02*
X155270100Y-126762400D01*
D13*
X131970100Y-93882400D02*
X131970100Y-94282400D01*
X131970100Y-95182400D02*
X131970100Y-95582400D01*
X131970100Y-96482400D02*
X131970100Y-96882400D01*
X127770100Y-96482400D02*
X127770100Y-96882400D01*
X127770100Y-95182400D02*
X127770100Y-95582400D01*
X127770100Y-93882400D02*
X127770100Y-94282400D01*
X127795100Y-92807400D02*
X127795100Y-92952400D01*
X131945100Y-92807400D02*
X131945100Y-92952400D01*
X131945100Y-97957400D02*
X131945100Y-97812400D01*
X127795100Y-97957400D02*
X127795100Y-97812400D01*
X127795100Y-92807400D02*
X131945100Y-92807400D01*
X127795100Y-97957400D02*
X131945100Y-97957400D01*
X127795100Y-92952400D02*
X126395100Y-92952400D01*
X162232004Y-60334780D02*
X162232004Y-59334780D01*
X162612957Y-59334780D01*
X162708195Y-59382400D01*
X162755814Y-59430019D01*
X162803433Y-59525257D01*
X162803433Y-59668114D01*
X162755814Y-59763352D01*
X162708195Y-59810971D01*
X162612957Y-59858590D01*
X162232004Y-59858590D01*
X163374861Y-59763352D02*
X163279623Y-59715733D01*
X163232004Y-59668114D01*
X163184385Y-59572876D01*
X163184385Y-59525257D01*
X163232004Y-59430019D01*
X163279623Y-59382400D01*
X163374861Y-59334780D01*
X163565338Y-59334780D01*
X163660576Y-59382400D01*
X163708195Y-59430019D01*
X163755814Y-59525257D01*
X163755814Y-59572876D01*
X163708195Y-59668114D01*
X163660576Y-59715733D01*
X163565338Y-59763352D01*
X163374861Y-59763352D01*
X163279623Y-59810971D01*
X163232004Y-59858590D01*
X163184385Y-59953828D01*
X163184385Y-60144304D01*
X163232004Y-60239542D01*
X163279623Y-60287161D01*
X163374861Y-60334780D01*
X163565338Y-60334780D01*
X163660576Y-60287161D01*
X163708195Y-60239542D01*
X163755814Y-60144304D01*
X163755814Y-59953828D01*
X163708195Y-59858590D01*
X163660576Y-59810971D01*
X163565338Y-59763352D01*
X120732004Y-59734780D02*
X120732004Y-58734780D01*
X121112957Y-58734780D01*
X121208195Y-58782400D01*
X121255814Y-58830019D01*
X121303433Y-58925257D01*
X121303433Y-59068114D01*
X121255814Y-59163352D01*
X121208195Y-59210971D01*
X121112957Y-59258590D01*
X120732004Y-59258590D01*
X121779623Y-59734780D02*
X121970100Y-59734780D01*
X122065338Y-59687161D01*
X122112957Y-59639542D01*
X122208195Y-59496685D01*
X122255814Y-59306209D01*
X122255814Y-58925257D01*
X122208195Y-58830019D01*
X122160576Y-58782400D01*
X122065338Y-58734780D01*
X121874861Y-58734780D01*
X121779623Y-58782400D01*
X121732004Y-58830019D01*
X121684385Y-58925257D01*
X121684385Y-59163352D01*
X121732004Y-59258590D01*
X121779623Y-59306209D01*
X121874861Y-59353828D01*
X122065338Y-59353828D01*
X122160576Y-59306209D01*
X122208195Y-59258590D01*
X122255814Y-59163352D01*
X133608195Y-65924780D02*
X133608195Y-66734304D01*
X133655814Y-66829542D01*
X133703433Y-66877161D01*
X133798671Y-66924780D01*
X133989147Y-66924780D01*
X134084385Y-66877161D01*
X134132004Y-66829542D01*
X134179623Y-66734304D01*
X134179623Y-65924780D01*
X134560576Y-65924780D02*
X135179623Y-65924780D01*
X134846290Y-66305733D01*
X134989147Y-66305733D01*
X135084385Y-66353352D01*
X135132004Y-66400971D01*
X135179623Y-66496209D01*
X135179623Y-66734304D01*
X135132004Y-66829542D01*
X135084385Y-66877161D01*
X134989147Y-66924780D01*
X134703433Y-66924780D01*
X134608195Y-66877161D01*
X134560576Y-66829542D01*
X152608195Y-65953280D02*
X152608195Y-66762804D01*
X152655814Y-66858042D01*
X152703433Y-66905661D01*
X152798671Y-66953280D01*
X152989147Y-66953280D01*
X153084385Y-66905661D01*
X153132004Y-66858042D01*
X153179623Y-66762804D01*
X153179623Y-65953280D01*
X154084385Y-66286614D02*
X154084385Y-66953280D01*
X153846290Y-65905661D02*
X153608195Y-66619947D01*
X154227242Y-66619947D01*
X123402242Y-69949066D02*
X123449861Y-69996685D01*
X123497480Y-70139542D01*
X123497480Y-70234780D01*
X123449861Y-70377638D01*
X123354623Y-70472876D01*
X123259385Y-70520495D01*
X123068909Y-70568114D01*
X122926052Y-70568114D01*
X122735576Y-70520495D01*
X122640338Y-70472876D01*
X122545100Y-70377638D01*
X122497480Y-70234780D01*
X122497480Y-70139542D01*
X122545100Y-69996685D01*
X122592719Y-69949066D01*
X122592719Y-69568114D02*
X122545100Y-69520495D01*
X122497480Y-69425257D01*
X122497480Y-69187161D01*
X122545100Y-69091923D01*
X122592719Y-69044304D01*
X122687957Y-68996685D01*
X122783195Y-68996685D01*
X122926052Y-69044304D01*
X123497480Y-69615733D01*
X123497480Y-68996685D01*
X144227242Y-69549066D02*
X144274861Y-69596685D01*
X144322480Y-69739542D01*
X144322480Y-69834780D01*
X144274861Y-69977638D01*
X144179623Y-70072876D01*
X144084385Y-70120495D01*
X143893909Y-70168114D01*
X143751052Y-70168114D01*
X143560576Y-70120495D01*
X143465338Y-70072876D01*
X143370100Y-69977638D01*
X143322480Y-69834780D01*
X143322480Y-69739542D01*
X143370100Y-69596685D01*
X143417719Y-69549066D01*
X143322480Y-69215733D02*
X143322480Y-68596685D01*
X143703433Y-68930019D01*
X143703433Y-68787161D01*
X143751052Y-68691923D01*
X143798671Y-68644304D01*
X143893909Y-68596685D01*
X144132004Y-68596685D01*
X144227242Y-68644304D01*
X144274861Y-68691923D01*
X144322480Y-68787161D01*
X144322480Y-69072876D01*
X144274861Y-69168114D01*
X144227242Y-69215733D01*
X127203433Y-82834780D02*
X126870100Y-82358590D01*
X126632004Y-82834780D02*
X126632004Y-81834780D01*
X127012957Y-81834780D01*
X127108195Y-81882400D01*
X127155814Y-81930019D01*
X127203433Y-82025257D01*
X127203433Y-82168114D01*
X127155814Y-82263352D01*
X127108195Y-82310971D01*
X127012957Y-82358590D01*
X126632004Y-82358590D01*
X127536766Y-81834780D02*
X128155814Y-81834780D01*
X127822480Y-82215733D01*
X127965338Y-82215733D01*
X128060576Y-82263352D01*
X128108195Y-82310971D01*
X128155814Y-82406209D01*
X128155814Y-82644304D01*
X128108195Y-82739542D01*
X128060576Y-82787161D01*
X127965338Y-82834780D01*
X127679623Y-82834780D01*
X127584385Y-82787161D01*
X127536766Y-82739542D01*
X127203433Y-85834780D02*
X126870100Y-85358590D01*
X126632004Y-85834780D02*
X126632004Y-84834780D01*
X127012957Y-84834780D01*
X127108195Y-84882400D01*
X127155814Y-84930019D01*
X127203433Y-85025257D01*
X127203433Y-85168114D01*
X127155814Y-85263352D01*
X127108195Y-85310971D01*
X127012957Y-85358590D01*
X126632004Y-85358590D01*
X128060576Y-85168114D02*
X128060576Y-85834780D01*
X127822480Y-84787161D02*
X127584385Y-85501447D01*
X128203433Y-85501447D01*
X141428433Y-80709780D02*
X141095100Y-80233590D01*
X140857004Y-80709780D02*
X140857004Y-79709780D01*
X141237957Y-79709780D01*
X141333195Y-79757400D01*
X141380814Y-79805019D01*
X141428433Y-79900257D01*
X141428433Y-80043114D01*
X141380814Y-80138352D01*
X141333195Y-80185971D01*
X141237957Y-80233590D01*
X140857004Y-80233590D01*
X142333195Y-79709780D02*
X141857004Y-79709780D01*
X141809385Y-80185971D01*
X141857004Y-80138352D01*
X141952242Y-80090733D01*
X142190338Y-80090733D01*
X142285576Y-80138352D01*
X142333195Y-80185971D01*
X142380814Y-80281209D01*
X142380814Y-80519304D01*
X142333195Y-80614542D01*
X142285576Y-80662161D01*
X142190338Y-80709780D01*
X141952242Y-80709780D01*
X141857004Y-80662161D01*
X141809385Y-80614542D01*
X141428433Y-82709780D02*
X141095100Y-82233590D01*
X140857004Y-82709780D02*
X140857004Y-81709780D01*
X141237957Y-81709780D01*
X141333195Y-81757400D01*
X141380814Y-81805019D01*
X141428433Y-81900257D01*
X141428433Y-82043114D01*
X141380814Y-82138352D01*
X141333195Y-82185971D01*
X141237957Y-82233590D01*
X140857004Y-82233590D01*
X142285576Y-81709780D02*
X142095100Y-81709780D01*
X141999861Y-81757400D01*
X141952242Y-81805019D01*
X141857004Y-81947876D01*
X141809385Y-82138352D01*
X141809385Y-82519304D01*
X141857004Y-82614542D01*
X141904623Y-82662161D01*
X141999861Y-82709780D01*
X142190338Y-82709780D01*
X142285576Y-82662161D01*
X142333195Y-82614542D01*
X142380814Y-82519304D01*
X142380814Y-82281209D01*
X142333195Y-82185971D01*
X142285576Y-82138352D01*
X142190338Y-82090733D01*
X141999861Y-82090733D01*
X141904623Y-82138352D01*
X141857004Y-82185971D01*
X141809385Y-82281209D01*
X127203433Y-79834780D02*
X126870100Y-79358590D01*
X126632004Y-79834780D02*
X126632004Y-78834780D01*
X127012957Y-78834780D01*
X127108195Y-78882400D01*
X127155814Y-78930019D01*
X127203433Y-79025257D01*
X127203433Y-79168114D01*
X127155814Y-79263352D01*
X127108195Y-79310971D01*
X127012957Y-79358590D01*
X126632004Y-79358590D01*
X127536766Y-78834780D02*
X128203433Y-78834780D01*
X127774861Y-79834780D01*
X127203433Y-88834780D02*
X126870100Y-88358590D01*
X126632004Y-88834780D02*
X126632004Y-87834780D01*
X127012957Y-87834780D01*
X127108195Y-87882400D01*
X127155814Y-87930019D01*
X127203433Y-88025257D01*
X127203433Y-88168114D01*
X127155814Y-88263352D01*
X127108195Y-88310971D01*
X127012957Y-88358590D01*
X126632004Y-88358590D01*
X127774861Y-88263352D02*
X127679623Y-88215733D01*
X127632004Y-88168114D01*
X127584385Y-88072876D01*
X127584385Y-88025257D01*
X127632004Y-87930019D01*
X127679623Y-87882400D01*
X127774861Y-87834780D01*
X127965338Y-87834780D01*
X128060576Y-87882400D01*
X128108195Y-87930019D01*
X128155814Y-88025257D01*
X128155814Y-88072876D01*
X128108195Y-88168114D01*
X128060576Y-88215733D01*
X127965338Y-88263352D01*
X127774861Y-88263352D01*
X127679623Y-88310971D01*
X127632004Y-88358590D01*
X127584385Y-88453828D01*
X127584385Y-88644304D01*
X127632004Y-88739542D01*
X127679623Y-88787161D01*
X127774861Y-88834780D01*
X127965338Y-88834780D01*
X128060576Y-88787161D01*
X128108195Y-88739542D01*
X128155814Y-88644304D01*
X128155814Y-88453828D01*
X128108195Y-88358590D01*
X128060576Y-88310971D01*
X127965338Y-88263352D01*
X155953433Y-53239542D02*
X155905814Y-53287161D01*
X155762957Y-53334780D01*
X155667719Y-53334780D01*
X155524861Y-53287161D01*
X155429623Y-53191923D01*
X155382004Y-53096685D01*
X155334385Y-52906209D01*
X155334385Y-52763352D01*
X155382004Y-52572876D01*
X155429623Y-52477638D01*
X155524861Y-52382400D01*
X155667719Y-52334780D01*
X155762957Y-52334780D01*
X155905814Y-52382400D01*
X155953433Y-52430019D01*
X156905814Y-53334780D02*
X156334385Y-53334780D01*
X156620100Y-53334780D02*
X156620100Y-52334780D01*
X156524861Y-52477638D01*
X156429623Y-52572876D01*
X156334385Y-52620495D01*
X160322480Y-65799066D02*
X159846290Y-66132400D01*
X160322480Y-66370495D02*
X159322480Y-66370495D01*
X159322480Y-65989542D01*
X159370100Y-65894304D01*
X159417719Y-65846685D01*
X159512957Y-65799066D01*
X159655814Y-65799066D01*
X159751052Y-65846685D01*
X159798671Y-65894304D01*
X159846290Y-65989542D01*
X159846290Y-66370495D01*
X160322480Y-64846685D02*
X160322480Y-65418114D01*
X160322480Y-65132400D02*
X159322480Y-65132400D01*
X159465338Y-65227638D01*
X159560576Y-65322876D01*
X159608195Y-65418114D01*
X157322480Y-65799066D02*
X156846290Y-66132400D01*
X157322480Y-66370495D02*
X156322480Y-66370495D01*
X156322480Y-65989542D01*
X156370100Y-65894304D01*
X156417719Y-65846685D01*
X156512957Y-65799066D01*
X156655814Y-65799066D01*
X156751052Y-65846685D01*
X156798671Y-65894304D01*
X156846290Y-65989542D01*
X156846290Y-66370495D01*
X156417719Y-65418114D02*
X156370100Y-65370495D01*
X156322480Y-65275257D01*
X156322480Y-65037161D01*
X156370100Y-64941923D01*
X156417719Y-64894304D01*
X156512957Y-64846685D01*
X156608195Y-64846685D01*
X156751052Y-64894304D01*
X157322480Y-65465733D01*
X157322480Y-64846685D01*
X156822480Y-57744304D02*
X157632004Y-57744304D01*
X157727242Y-57696685D01*
X157774861Y-57649066D01*
X157822480Y-57553828D01*
X157822480Y-57363352D01*
X157774861Y-57268114D01*
X157727242Y-57220495D01*
X157632004Y-57172876D01*
X156822480Y-57172876D01*
X156917719Y-56744304D02*
X156870100Y-56696685D01*
X156822480Y-56601447D01*
X156822480Y-56363352D01*
X156870100Y-56268114D01*
X156917719Y-56220495D01*
X157012957Y-56172876D01*
X157108195Y-56172876D01*
X157251052Y-56220495D01*
X157822480Y-56791923D01*
X157822480Y-56172876D01*
X147908195Y-104734780D02*
X147908195Y-105544304D01*
X147955814Y-105639542D01*
X148003433Y-105687161D01*
X148098671Y-105734780D01*
X148289147Y-105734780D01*
X148384385Y-105687161D01*
X148432004Y-105639542D01*
X148479623Y-105544304D01*
X148479623Y-104734780D01*
X149479623Y-105734780D02*
X148908195Y-105734780D01*
X149193909Y-105734780D02*
X149193909Y-104734780D01*
X149098671Y-104877638D01*
X149003433Y-104972876D01*
X148908195Y-105020495D01*
X123227242Y-95549066D02*
X123274861Y-95596685D01*
X123322480Y-95739542D01*
X123322480Y-95834780D01*
X123274861Y-95977638D01*
X123179623Y-96072876D01*
X123084385Y-96120495D01*
X122893909Y-96168114D01*
X122751052Y-96168114D01*
X122560576Y-96120495D01*
X122465338Y-96072876D01*
X122370100Y-95977638D01*
X122322480Y-95834780D01*
X122322480Y-95739542D01*
X122370100Y-95596685D01*
X122417719Y-95549066D01*
X122655814Y-94691923D02*
X123322480Y-94691923D01*
X122274861Y-94930019D02*
X122989147Y-95168114D01*
X122989147Y-94549066D01*
X142286766Y-104834780D02*
X142286766Y-105549066D01*
X142239147Y-105691923D01*
X142143909Y-105787161D01*
X142001052Y-105834780D01*
X141905814Y-105834780D01*
X143286766Y-105834780D02*
X142715338Y-105834780D01*
X143001052Y-105834780D02*
X143001052Y-104834780D01*
X142905814Y-104977638D01*
X142810576Y-105072876D01*
X142715338Y-105120495D01*
X130186766Y-104834780D02*
X130186766Y-105549066D01*
X130139147Y-105691923D01*
X130043909Y-105787161D01*
X129901052Y-105834780D01*
X129805814Y-105834780D01*
X130615338Y-104930019D02*
X130662957Y-104882400D01*
X130758195Y-104834780D01*
X130996290Y-104834780D01*
X131091528Y-104882400D01*
X131139147Y-104930019D01*
X131186766Y-105025257D01*
X131186766Y-105120495D01*
X131139147Y-105263352D01*
X130567719Y-105834780D01*
X131186766Y-105834780D01*
D10*
X138896290Y-95799066D02*
X139253433Y-95799066D01*
X139324861Y-95822876D01*
X139372480Y-95870495D01*
X139396290Y-95941923D01*
X139396290Y-95989542D01*
X139396290Y-95560971D02*
X138896290Y-95560971D01*
X138896290Y-95370495D01*
X138920100Y-95322876D01*
X138943909Y-95299066D01*
X138991528Y-95275257D01*
X139062957Y-95275257D01*
X139110576Y-95299066D01*
X139134385Y-95322876D01*
X139158195Y-95370495D01*
X139158195Y-95560971D01*
X139396290Y-94799066D02*
X139396290Y-95084780D01*
X139396290Y-94941923D02*
X138896290Y-94941923D01*
X138967719Y-94989542D01*
X139015338Y-95037161D01*
X139039147Y-95084780D01*
D13*
X135822480Y-98549066D02*
X135346290Y-98882400D01*
X135822480Y-99120495D02*
X134822480Y-99120495D01*
X134822480Y-98739542D01*
X134870100Y-98644304D01*
X134917719Y-98596685D01*
X135012957Y-98549066D01*
X135155814Y-98549066D01*
X135251052Y-98596685D01*
X135298671Y-98644304D01*
X135346290Y-98739542D01*
X135346290Y-99120495D01*
X135822480Y-98072876D02*
X135822480Y-97882400D01*
X135774861Y-97787161D01*
X135727242Y-97739542D01*
X135584385Y-97644304D01*
X135393909Y-97596685D01*
X135012957Y-97596685D01*
X134917719Y-97644304D01*
X134870100Y-97691923D01*
X134822480Y-97787161D01*
X134822480Y-97977638D01*
X134870100Y-98072876D01*
X134917719Y-98120495D01*
X135012957Y-98168114D01*
X135251052Y-98168114D01*
X135346290Y-98120495D01*
X135393909Y-98072876D01*
X135441528Y-97977638D01*
X135441528Y-97787161D01*
X135393909Y-97691923D01*
X135346290Y-97644304D01*
X135251052Y-97596685D01*
X156727242Y-104834780D02*
X156393909Y-104358590D01*
X156155814Y-104834780D02*
X156155814Y-103834780D01*
X156536766Y-103834780D01*
X156632004Y-103882400D01*
X156679623Y-103930019D01*
X156727242Y-104025257D01*
X156727242Y-104168114D01*
X156679623Y-104263352D01*
X156632004Y-104310971D01*
X156536766Y-104358590D01*
X156155814Y-104358590D01*
X157679623Y-104834780D02*
X157108195Y-104834780D01*
X157393909Y-104834780D02*
X157393909Y-103834780D01*
X157298671Y-103977638D01*
X157203433Y-104072876D01*
X157108195Y-104120495D01*
X158298671Y-103834780D02*
X158393909Y-103834780D01*
X158489147Y-103882400D01*
X158536766Y-103930019D01*
X158584385Y-104025257D01*
X158632004Y-104215733D01*
X158632004Y-104453828D01*
X158584385Y-104644304D01*
X158536766Y-104739542D01*
X158489147Y-104787161D01*
X158393909Y-104834780D01*
X158298671Y-104834780D01*
X158203433Y-104787161D01*
X158155814Y-104739542D01*
X158108195Y-104644304D01*
X158060576Y-104453828D01*
X158060576Y-104215733D01*
X158108195Y-104025257D01*
X158155814Y-103930019D01*
X158203433Y-103882400D01*
X158298671Y-103834780D01*
X156727242Y-113834780D02*
X156393909Y-113358590D01*
X156155814Y-113834780D02*
X156155814Y-112834780D01*
X156536766Y-112834780D01*
X156632004Y-112882400D01*
X156679623Y-112930019D01*
X156727242Y-113025257D01*
X156727242Y-113168114D01*
X156679623Y-113263352D01*
X156632004Y-113310971D01*
X156536766Y-113358590D01*
X156155814Y-113358590D01*
X157679623Y-113834780D02*
X157108195Y-113834780D01*
X157393909Y-113834780D02*
X157393909Y-112834780D01*
X157298671Y-112977638D01*
X157203433Y-113072876D01*
X157108195Y-113120495D01*
X158632004Y-113834780D02*
X158060576Y-113834780D01*
X158346290Y-113834780D02*
X158346290Y-112834780D01*
X158251052Y-112977638D01*
X158155814Y-113072876D01*
X158060576Y-113120495D01*
X156727242Y-119834780D02*
X156393909Y-119358590D01*
X156155814Y-119834780D02*
X156155814Y-118834780D01*
X156536766Y-118834780D01*
X156632004Y-118882400D01*
X156679623Y-118930019D01*
X156727242Y-119025257D01*
X156727242Y-119168114D01*
X156679623Y-119263352D01*
X156632004Y-119310971D01*
X156536766Y-119358590D01*
X156155814Y-119358590D01*
X157679623Y-119834780D02*
X157108195Y-119834780D01*
X157393909Y-119834780D02*
X157393909Y-118834780D01*
X157298671Y-118977638D01*
X157203433Y-119072876D01*
X157108195Y-119120495D01*
X158060576Y-118930019D02*
X158108195Y-118882400D01*
X158203433Y-118834780D01*
X158441528Y-118834780D01*
X158536766Y-118882400D01*
X158584385Y-118930019D01*
X158632004Y-119025257D01*
X158632004Y-119120495D01*
X158584385Y-119263352D01*
X158012957Y-119834780D01*
X158632004Y-119834780D01*
X152227242Y-123334780D02*
X151893909Y-122858590D01*
X151655814Y-123334780D02*
X151655814Y-122334780D01*
X152036766Y-122334780D01*
X152132004Y-122382400D01*
X152179623Y-122430019D01*
X152227242Y-122525257D01*
X152227242Y-122668114D01*
X152179623Y-122763352D01*
X152132004Y-122810971D01*
X152036766Y-122858590D01*
X151655814Y-122858590D01*
X153179623Y-123334780D02*
X152608195Y-123334780D01*
X152893909Y-123334780D02*
X152893909Y-122334780D01*
X152798671Y-122477638D01*
X152703433Y-122572876D01*
X152608195Y-122620495D01*
X153512957Y-122334780D02*
X154132004Y-122334780D01*
X153798671Y-122715733D01*
X153941528Y-122715733D01*
X154036766Y-122763352D01*
X154084385Y-122810971D01*
X154132004Y-122906209D01*
X154132004Y-123144304D01*
X154084385Y-123239542D01*
X154036766Y-123287161D01*
X153941528Y-123334780D01*
X153655814Y-123334780D01*
X153560576Y-123287161D01*
X153512957Y-123239542D01*
X156727242Y-116834780D02*
X156393909Y-116358590D01*
X156155814Y-116834780D02*
X156155814Y-115834780D01*
X156536766Y-115834780D01*
X156632004Y-115882400D01*
X156679623Y-115930019D01*
X156727242Y-116025257D01*
X156727242Y-116168114D01*
X156679623Y-116263352D01*
X156632004Y-116310971D01*
X156536766Y-116358590D01*
X156155814Y-116358590D01*
X157679623Y-116834780D02*
X157108195Y-116834780D01*
X157393909Y-116834780D02*
X157393909Y-115834780D01*
X157298671Y-115977638D01*
X157203433Y-116072876D01*
X157108195Y-116120495D01*
X158536766Y-116168114D02*
X158536766Y-116834780D01*
X158298671Y-115787161D02*
X158060576Y-116501447D01*
X158679623Y-116501447D01*
X156727242Y-107834780D02*
X156393909Y-107358590D01*
X156155814Y-107834780D02*
X156155814Y-106834780D01*
X156536766Y-106834780D01*
X156632004Y-106882400D01*
X156679623Y-106930019D01*
X156727242Y-107025257D01*
X156727242Y-107168114D01*
X156679623Y-107263352D01*
X156632004Y-107310971D01*
X156536766Y-107358590D01*
X156155814Y-107358590D01*
X157679623Y-107834780D02*
X157108195Y-107834780D01*
X157393909Y-107834780D02*
X157393909Y-106834780D01*
X157298671Y-106977638D01*
X157203433Y-107072876D01*
X157108195Y-107120495D01*
X158584385Y-106834780D02*
X158108195Y-106834780D01*
X158060576Y-107310971D01*
X158108195Y-107263352D01*
X158203433Y-107215733D01*
X158441528Y-107215733D01*
X158536766Y-107263352D01*
X158584385Y-107310971D01*
X158632004Y-107406209D01*
X158632004Y-107644304D01*
X158584385Y-107739542D01*
X158536766Y-107787161D01*
X158441528Y-107834780D01*
X158203433Y-107834780D01*
X158108195Y-107787161D01*
X158060576Y-107739542D01*
X156727242Y-110834780D02*
X156393909Y-110358590D01*
X156155814Y-110834780D02*
X156155814Y-109834780D01*
X156536766Y-109834780D01*
X156632004Y-109882400D01*
X156679623Y-109930019D01*
X156727242Y-110025257D01*
X156727242Y-110168114D01*
X156679623Y-110263352D01*
X156632004Y-110310971D01*
X156536766Y-110358590D01*
X156155814Y-110358590D01*
X157679623Y-110834780D02*
X157108195Y-110834780D01*
X157393909Y-110834780D02*
X157393909Y-109834780D01*
X157298671Y-109977638D01*
X157203433Y-110072876D01*
X157108195Y-110120495D01*
X158536766Y-109834780D02*
X158346290Y-109834780D01*
X158251052Y-109882400D01*
X158203433Y-109930019D01*
X158108195Y-110072876D01*
X158060576Y-110263352D01*
X158060576Y-110644304D01*
X158108195Y-110739542D01*
X158155814Y-110787161D01*
X158251052Y-110834780D01*
X158441528Y-110834780D01*
X158536766Y-110787161D01*
X158584385Y-110739542D01*
X158632004Y-110644304D01*
X158632004Y-110406209D01*
X158584385Y-110310971D01*
X158536766Y-110263352D01*
X158441528Y-110215733D01*
X158251052Y-110215733D01*
X158155814Y-110263352D01*
X158108195Y-110310971D01*
X158060576Y-110406209D01*
X152227242Y-126334780D02*
X151893909Y-125858590D01*
X151655814Y-126334780D02*
X151655814Y-125334780D01*
X152036766Y-125334780D01*
X152132004Y-125382400D01*
X152179623Y-125430019D01*
X152227242Y-125525257D01*
X152227242Y-125668114D01*
X152179623Y-125763352D01*
X152132004Y-125810971D01*
X152036766Y-125858590D01*
X151655814Y-125858590D01*
X153179623Y-126334780D02*
X152608195Y-126334780D01*
X152893909Y-126334780D02*
X152893909Y-125334780D01*
X152798671Y-125477638D01*
X152703433Y-125572876D01*
X152608195Y-125620495D01*
X153512957Y-125334780D02*
X154179623Y-125334780D01*
X153751052Y-126334780D01*
D10*
X126739147Y-91858590D02*
X126739147Y-92263352D01*
X126762957Y-92310971D01*
X126786766Y-92334780D01*
X126834385Y-92358590D01*
X126929623Y-92358590D01*
X126977242Y-92334780D01*
X127001052Y-92310971D01*
X127024861Y-92263352D01*
X127024861Y-91858590D01*
X127501052Y-91858590D02*
X127262957Y-91858590D01*
X127239147Y-92096685D01*
X127262957Y-92072876D01*
X127310576Y-92049066D01*
X127429623Y-92049066D01*
X127477242Y-92072876D01*
X127501052Y-92096685D01*
X127524861Y-92144304D01*
X127524861Y-92263352D01*
X127501052Y-92310971D01*
X127477242Y-92334780D01*
X127429623Y-92358590D01*
X127310576Y-92358590D01*
X127262957Y-92334780D01*
X127239147Y-92310971D01*
D13*
X131533195Y-86709780D02*
X131533195Y-85709780D01*
X131533195Y-86185971D02*
X132104623Y-86185971D01*
X132104623Y-86709780D02*
X132104623Y-85709780D01*
X133104623Y-86709780D02*
X132533195Y-86709780D01*
X132818909Y-86709780D02*
X132818909Y-85709780D01*
X132723671Y-85852638D01*
X132628433Y-85947876D01*
X132533195Y-85995495D01*
X161908195Y-120434780D02*
X161908195Y-119434780D01*
X161908195Y-119910971D02*
X162479623Y-119910971D01*
X162479623Y-120434780D02*
X162479623Y-119434780D01*
X162908195Y-119530019D02*
X162955814Y-119482400D01*
X163051052Y-119434780D01*
X163289147Y-119434780D01*
X163384385Y-119482400D01*
X163432004Y-119530019D01*
X163479623Y-119625257D01*
X163479623Y-119720495D01*
X163432004Y-119863352D01*
X162860576Y-120434780D01*
X163479623Y-120434780D01*
M02*
