M48
; DRILL file {KiCad (5.1.2-1)-1} date Wednesday, June 05, 2019 at 04:30:31 pm
; FORMAT={-:-/ absolute / inch / decimal}
; #@! TF.CreationDate,2019-06-05T16:30:31-02:30
; #@! TF.GenerationSoftware,Kicad,Pcbnew,(5.1.2-1)-1
; #@! TF.FileFunction,Plated,1,2,PTH
FMAT,2
INCH
T1C0.0118
T2C0.0157
T3C0.0276
T4C0.0320
T5C0.0320
T6C0.0400
T7C0.0709
T8C0.0866
%
G90
G05
T1
X4.7488Y-3.645
X4.7488Y-3.7404
X4.7793Y-3.6469
X4.7793Y-3.7375
X4.7882Y-3.4796
X4.7967Y-3.356
X4.798Y-3.0958
X4.798Y-3.3841
X4.8079Y-2.8694
X4.8374Y-2.9481
X4.8374Y-3.6174
X4.8768Y-3.5485
X4.9161Y-3.5879
X4.9654Y-3.6076
X4.9782Y-3.3546
X4.9791Y-3.3841
X5.1622Y-3.0564
X5.1819Y-2.9088
X5.2508Y-3.1843
X5.3197Y-2.9875
X5.3886Y-2.8989
X5.4083Y-3.0958
X5.7823Y-2.8172
X5.7823Y-2.8487
X5.9811Y-4.6696
X5.9821Y-2.8379
X6.0087Y-2.8103
X6.049Y-4.7404
X6.1238Y-4.3792
X6.1406Y-4.5859
X6.1652Y-4.3477
X6.239Y-4.583
X6.2872Y-4.771
X6.4486Y-4.7208
T2
X4.9034Y-2.6548
X4.949Y-3.7302
X5.2803Y-3.6784
X5.7232Y-2.644
X6.3138Y-2.1312
T3
X5.8595Y-4.2343
X5.8595Y-4.3343
X5.8595Y-4.4343
X5.8595Y-4.5343
X5.8595Y-4.6343
X6.0595Y-4.2343
X6.0595Y-4.3343
X6.0595Y-4.4343
X6.0595Y-4.5343
X6.0595Y-4.6343
T4
X5.8595Y-4.3343
T5
X5.0327Y-2.6997
X5.0327Y-2.7997
X5.0327Y-2.8997
X5.0327Y-2.9997
X5.5476Y-2.6997
X5.5476Y-2.7997
X5.5476Y-2.8997
X5.5476Y-2.9997
T6
X6.4815Y-2.456
X6.4815Y-2.556
X6.4815Y-2.656
X6.4815Y-2.756
X6.4815Y-2.856
X6.4815Y-2.956
X6.4815Y-3.056
X6.4815Y-3.156
X6.4815Y-3.256
X6.4815Y-3.356
X6.4815Y-3.456
X6.4815Y-3.556
X6.4815Y-3.656
X6.4815Y-3.756
X6.4815Y-3.856
X6.4815Y-3.956
X6.4815Y-4.056
X6.4815Y-4.156
X6.4815Y-4.256
X6.4815Y-4.356
X6.4815Y-4.456
X6.4815Y-4.556
X6.4815Y-4.656
X6.5815Y-2.456
X6.5815Y-2.556
X6.5815Y-2.656
X6.5815Y-2.756
X6.5815Y-2.856
X6.5815Y-2.956
X6.5815Y-3.056
X6.5815Y-3.156
X6.5815Y-3.256
X6.5815Y-3.356
X6.5815Y-3.456
X6.5815Y-3.556
X6.5815Y-3.656
X6.5815Y-3.756
X6.5815Y-3.856
X6.5815Y-3.956
X6.5815Y-4.056
X6.5815Y-4.156
X6.5815Y-4.256
X6.5815Y-4.356
X6.5815Y-4.456
X6.5815Y-4.556
X6.5815Y-4.656
X4.5815Y-2.456
X4.5815Y-2.556
X4.5815Y-2.656
X4.5815Y-2.756
X4.5815Y-2.856
X4.5815Y-2.956
X4.5815Y-3.056
X4.5815Y-3.156
X4.5815Y-3.256
X4.5815Y-3.356
X4.5815Y-3.456
X4.5815Y-3.556
X4.5815Y-3.656
X4.5815Y-3.756
X4.5815Y-3.856
X4.5815Y-3.956
X4.5815Y-4.056
X4.5815Y-4.156
X4.5815Y-4.256
X4.5815Y-4.356
X4.5815Y-4.456
X4.5815Y-4.556
X4.5815Y-4.656
X4.6815Y-2.456
X4.6815Y-2.556
X4.6815Y-2.656
X4.6815Y-2.756
X4.6815Y-2.856
X4.6815Y-2.956
X4.6815Y-3.056
X4.6815Y-3.156
X4.6815Y-3.256
X4.6815Y-3.356
X4.6815Y-3.456
X4.6815Y-3.556
X4.6815Y-3.656
X4.6815Y-3.756
X4.6815Y-3.856
X4.6815Y-3.956
X4.6815Y-4.056
X4.6815Y-4.156
X4.6815Y-4.256
X4.6815Y-4.356
X4.6815Y-4.456
X4.6815Y-4.556
X4.6815Y-4.656
T7
X5.0559Y-4.267
X5.0559Y-4.4836
X5.2213Y-4.267
X5.2213Y-4.4836
X5.615Y-4.267
X5.615Y-4.4836
T8
X6.5303Y-2.2631
X6.4043Y-4.8497
X4.7547Y-4.8497
X4.6287Y-2.2631
T0
M30
