M48
;DRILL file {KiCad 4.0.6} date 06/27/17 18:04:18
;FORMAT={-:-/ absolute / inch / decimal}
FMAT,2
INCH,TZ
T1C0.016
T2C0.024
T3C0.028
T4C0.039
T5C0.047
T6C0.217
%
G90
G05
M72
T1
X1.3Y-1.34
X1.4Y-1.24
X1.437Y-1.7915
X1.456Y-1.686
X1.4646Y-1.638
X1.4685Y-1.947
X1.48Y-1.4
X1.5728Y-1.9746
X1.6Y-1.48
X1.66Y-1.34
X1.6673Y-1.8161
X1.744Y-1.686
X1.7579Y-1.7915
X1.76Y-1.24
X1.7854Y-1.638
X1.7894Y-1.947
X1.84Y-1.4
X1.8937Y-1.9746
X1.92Y-1.48
X1.9882Y-1.8161
X2.Y-1.34
X2.05Y-1.686
X2.0807Y-1.7915
X2.1Y-1.24
X2.1083Y-1.638
X2.1122Y-1.947
X2.2165Y-1.9746
X2.26Y-2.64
X2.311Y-1.8161
X2.36Y-1.34
X2.378Y-1.686
X2.4016Y-1.7915
X2.4291Y-1.638
X2.4331Y-1.947
X2.46Y-1.24
X2.5374Y-1.9746
X2.6319Y-1.8161
X2.7Y-1.34
X2.7Y-1.686
X2.7303Y-1.7915
X2.7579Y-1.638
X2.7618Y-1.947
X2.8Y-1.24
X2.8661Y-1.9746
X2.9606Y-1.8161
X3.03Y-1.686
X3.04Y-1.34
X3.0512Y-1.7915
X3.0787Y-1.638
X3.0827Y-1.947
X3.14Y-1.24
X3.187Y-1.9746
X3.2815Y-1.8161
X3.344Y-1.686
X3.374Y-1.7915
X3.4Y-1.34
X3.4016Y-1.638
X3.4055Y-1.947
X3.5Y-1.24
X3.5098Y-1.9746
X3.6043Y-1.8161
X3.666Y-1.686
X3.6949Y-1.7915
X3.7224Y-1.638
X3.7264Y-1.947
X3.74Y-1.34
X3.8307Y-1.9746
X3.84Y-1.24
X3.9252Y-1.8161
X3.976Y-1.686
X4.0197Y-1.7895
X4.0472Y-1.636
X4.0512Y-1.945
X4.08Y-1.34
X4.1634Y-1.9882
X4.18Y-1.24
X4.25Y-1.8141
X4.322Y-1.686
X4.3406Y-1.7895
X4.3681Y-1.636
X4.372Y-1.945
X4.44Y-1.34
X4.4764Y-1.9726
X4.54Y-1.24
X4.5709Y-1.8141
X4.624Y-1.686
X4.6634Y-1.7895
X4.6909Y-1.636
X4.6949Y-1.945
X4.78Y-1.34
X4.7992Y-1.9726
X4.88Y-1.24
X4.8937Y-1.8141
X4.954Y-1.686
X4.9843Y-1.7895
X5.0118Y-1.636
X5.0157Y-1.945
X5.082Y-2.674
X5.12Y-1.34
X5.2146Y-1.8141
X5.22Y-1.24
X5.278Y-1.686
X5.313Y-1.7895
X5.34Y-2.04
X5.3406Y-1.636
X5.3445Y-1.945
X5.43Y-2.72
X5.4488Y-1.9726
X5.46Y-1.34
X5.5433Y-1.8141
X5.56Y-1.24
X5.62Y-1.686
X5.6339Y-1.7895
X5.6614Y-1.636
X5.6654Y-1.945
X5.7283Y-1.9587
X5.82Y-1.34
X5.8642Y-1.8141
X5.92Y-1.24
X5.952Y-1.686
X5.9567Y-1.7895
X5.9843Y-1.636
X5.9882Y-1.945
X6.022Y-2.686
X6.028Y-2.498
X6.0925Y-1.9726
X6.136Y-2.59
X6.16Y-1.34
X6.187Y-1.8141
X6.1909Y-2.5098
X6.26Y-1.24
X6.276Y-1.686
X6.2776Y-1.7895
X6.286Y-2.094
X6.3051Y-1.636
X6.3091Y-1.945
X6.5079Y-1.8141
X6.52Y-1.34
X6.62Y-1.24
X6.7Y-1.76
X7.6228Y-1.34
X7.7228Y-1.24
X7.7598Y-1.7915
X7.7788Y-1.686
X7.7874Y-1.638
X7.7913Y-1.947
X7.8028Y-1.4
X7.8956Y-1.9746
X7.9228Y-1.48
X7.9828Y-1.34
X7.9901Y-1.8161
X8.0668Y-1.686
X8.0807Y-1.7915
X8.0828Y-1.24
X8.1082Y-1.638
X8.1122Y-1.947
X8.1628Y-1.4
X8.2165Y-1.9746
X8.2428Y-1.48
X8.311Y-1.8161
X8.3228Y-1.34
X8.3728Y-1.686
X8.4035Y-1.7915
X8.4228Y-1.24
X8.4311Y-1.638
X8.435Y-1.947
X8.5393Y-1.9746
X8.5728Y-2.7165
X8.6338Y-1.8161
X8.6828Y-1.34
X8.7008Y-1.686
X8.7244Y-1.7915
X8.7519Y-1.638
X8.7559Y-1.947
X8.7828Y-1.24
X8.8602Y-1.9746
X8.9547Y-1.8161
X9.0228Y-1.34
X9.0228Y-1.686
X9.0531Y-1.7915
X9.0807Y-1.638
X9.0846Y-1.947
X9.1228Y-1.24
X9.1889Y-1.9746
X9.2834Y-1.8161
X9.3528Y-1.686
X9.3628Y-1.34
X9.374Y-1.7915
X9.4015Y-1.638
X9.4055Y-1.947
X9.4628Y-1.24
X9.5098Y-1.9746
X9.6043Y-1.8161
X9.6668Y-1.686
X9.6968Y-1.7915
X9.7228Y-1.34
X9.7244Y-1.638
X9.7283Y-1.947
X9.8228Y-1.24
X9.8326Y-1.9746
X9.9271Y-1.8161
X9.9888Y-1.686
X10.0177Y-1.7915
X10.0452Y-1.638
X10.0492Y-1.947
X10.0628Y-1.34
X10.1535Y-1.9746
X10.1628Y-1.24
X10.248Y-1.8161
X10.2988Y-1.686
X10.3425Y-1.7895
X10.37Y-1.636
X10.374Y-1.945
X10.4028Y-1.34
X10.4783Y-1.9726
X10.5028Y-1.24
X10.5728Y-1.8141
X10.6448Y-1.686
X10.6634Y-1.7895
X10.6909Y-1.636
X10.6948Y-1.945
X10.7628Y-1.34
X10.7992Y-1.9726
X10.8628Y-1.24
X10.8937Y-1.8141
X10.9468Y-1.686
X10.9862Y-1.7895
X11.0137Y-1.636
X11.0177Y-1.945
X11.1028Y-1.34
X11.122Y-1.9726
X11.2028Y-1.24
X11.2165Y-1.8141
X11.2768Y-1.686
X11.3071Y-1.7895
X11.3346Y-1.636
X11.3385Y-1.945
X11.4048Y-2.674
X11.4428Y-1.34
X11.5374Y-1.8141
X11.5428Y-1.24
X11.6008Y-1.686
X11.6358Y-1.7895
X11.6535Y-1.9291
X11.6628Y-2.04
X11.6634Y-1.636
X11.7528Y-2.72
X11.7716Y-1.9726
X11.7828Y-1.34
X11.8661Y-1.8141
X11.8828Y-1.24
X11.9428Y-1.686
X11.9567Y-1.7895
X11.9842Y-1.636
X11.9882Y-1.945
X12.0925Y-1.9726
X12.1428Y-1.34
X12.187Y-1.8141
X12.2428Y-1.24
X12.2748Y-1.686
X12.2795Y-1.7895
X12.3071Y-1.636
X12.311Y-1.945
X12.3368Y-2.382
X12.3448Y-2.686
X12.3508Y-2.498
X12.4153Y-1.9726
X12.4588Y-2.59
X12.4828Y-1.34
X12.5098Y-1.8141
X12.5828Y-1.24
X12.5988Y-1.686
X12.6004Y-1.7895
X12.6088Y-2.094
X12.6279Y-1.636
X12.6319Y-1.945
X12.8307Y-1.8141
X12.8428Y-1.34
X12.9428Y-1.24
X13.0228Y-1.76
T2
X1.5976Y-2.6
X1.6448Y-2.4848
X1.6448Y-2.7152
X1.76Y-2.4376
X1.76Y-2.7624
X1.8752Y-2.4848
X1.8752Y-2.7152
X1.9224Y-2.6
X6.3376Y-2.6
X6.3848Y-2.4848
X6.3848Y-2.7152
X6.5Y-2.4376
X6.5Y-2.7624
X6.6152Y-2.4848
X6.6152Y-2.7152
X6.6624Y-2.6
X7.9204Y-2.6
X7.9676Y-2.4848
X7.9676Y-2.7152
X8.0828Y-2.4376
X8.0828Y-2.7624
X8.198Y-2.4848
X8.198Y-2.7152
X8.2452Y-2.6
X12.6604Y-2.6
X12.7076Y-2.4848
X12.7076Y-2.7152
X12.8228Y-2.4376
X12.8228Y-2.7624
X12.938Y-2.4848
X12.938Y-2.7152
X12.9852Y-2.6
T3
X3.7094Y-2.4803
X3.7094Y-2.5803
X3.8094Y-2.4803
X3.8094Y-2.5803
X3.9094Y-2.4803
X3.9094Y-2.5803
X4.0094Y-2.4803
X4.0094Y-2.5803
X4.1094Y-2.4803
X4.1094Y-2.5803
X4.2094Y-2.4803
X4.2094Y-2.5803
X4.3094Y-2.4803
X4.3094Y-2.5803
X4.4094Y-2.4803
X4.4094Y-2.5803
X10.0579Y-2.4803
X10.0579Y-2.5803
X10.1579Y-2.4803
X10.1579Y-2.5803
X10.2579Y-2.4803
X10.2579Y-2.5803
X10.3579Y-2.4803
X10.3579Y-2.5803
X10.4579Y-2.4803
X10.4579Y-2.5803
X10.5579Y-2.4803
X10.5579Y-2.5803
X10.6579Y-2.4803
X10.6579Y-2.5803
X10.7579Y-2.4803
X10.7579Y-2.5803
T4
X1.3Y-1.24
X1.3Y-1.34
X1.4Y-1.24
X1.4Y-1.34
X1.66Y-1.24
X1.66Y-1.34
X1.76Y-1.24
X1.76Y-1.34
X2.Y-1.24
X2.Y-1.34
X2.1Y-1.24
X2.1Y-1.34
X2.36Y-1.24
X2.36Y-1.34
X2.46Y-1.24
X2.46Y-1.34
X2.7Y-1.24
X2.7Y-1.34
X2.8Y-1.24
X2.8Y-1.34
X3.04Y-1.24
X3.04Y-1.34
X3.14Y-1.24
X3.14Y-1.34
X3.4Y-1.24
X3.4Y-1.34
X3.5Y-1.24
X3.5Y-1.34
X3.74Y-1.24
X3.74Y-1.34
X3.84Y-1.24
X3.84Y-1.34
X4.08Y-1.24
X4.08Y-1.34
X4.18Y-1.24
X4.18Y-1.34
X4.44Y-1.24
X4.44Y-1.34
X4.54Y-1.24
X4.54Y-1.34
X4.78Y-1.24
X4.78Y-1.34
X4.88Y-1.24
X4.88Y-1.34
X5.12Y-1.24
X5.12Y-1.34
X5.22Y-1.24
X5.22Y-1.34
X5.46Y-1.24
X5.46Y-1.34
X5.56Y-1.24
X5.56Y-1.34
X5.82Y-1.24
X5.82Y-1.34
X5.92Y-1.24
X5.92Y-1.34
X6.16Y-1.24
X6.16Y-1.34
X6.26Y-1.24
X6.26Y-1.34
X6.52Y-1.24
X6.52Y-1.34
X6.62Y-1.24
X6.62Y-1.34
X7.6228Y-1.24
X7.6228Y-1.34
X7.7228Y-1.24
X7.7228Y-1.34
X7.9828Y-1.24
X7.9828Y-1.34
X8.0828Y-1.24
X8.0828Y-1.34
X8.3228Y-1.24
X8.3228Y-1.34
X8.4228Y-1.24
X8.4228Y-1.34
X8.6828Y-1.24
X8.6828Y-1.34
X8.7828Y-1.24
X8.7828Y-1.34
X9.0228Y-1.24
X9.0228Y-1.34
X9.1228Y-1.24
X9.1228Y-1.34
X9.3628Y-1.24
X9.3628Y-1.34
X9.4628Y-1.24
X9.4628Y-1.34
X9.7228Y-1.24
X9.7228Y-1.34
X9.8228Y-1.24
X9.8228Y-1.34
X10.0628Y-1.24
X10.0628Y-1.34
X10.1628Y-1.24
X10.1628Y-1.34
X10.4028Y-1.24
X10.4028Y-1.34
X10.5028Y-1.24
X10.5028Y-1.34
X10.7628Y-1.24
X10.7628Y-1.34
X10.8628Y-1.24
X10.8628Y-1.34
X11.1028Y-1.24
X11.1028Y-1.34
X11.2028Y-1.24
X11.2028Y-1.34
X11.4428Y-1.24
X11.4428Y-1.34
X11.5428Y-1.24
X11.5428Y-1.34
X11.7828Y-1.24
X11.7828Y-1.34
X11.8828Y-1.24
X11.8828Y-1.34
X12.1428Y-1.24
X12.1428Y-1.34
X12.2428Y-1.24
X12.2428Y-1.34
X12.4828Y-1.24
X12.4828Y-1.34
X12.5828Y-1.24
X12.5828Y-1.34
X12.8428Y-1.24
X12.8428Y-1.34
X12.9428Y-1.24
X12.9428Y-1.34
T5
X1.18Y-2.68
X1.2802Y-1.054
X1.3178Y-2.68
X1.418Y-1.054
X1.6322Y-1.054
X1.77Y-1.054
X1.9802Y-1.056
X2.118Y-1.056
X2.3302Y-1.054
X2.468Y-1.054
X2.6802Y-1.054
X2.818Y-1.054
X3.0282Y-1.054
X3.166Y-1.054
X3.3762Y-1.054
X3.514Y-1.054
X3.7222Y-1.054
X3.86Y-1.054
X4.0682Y-1.054
X4.206Y-1.054
X4.4182Y-1.054
X4.556Y-1.054
X4.7642Y-1.054
X4.902Y-1.054
X5.1102Y-1.054
X5.248Y-1.054
X5.4582Y-1.054
X5.596Y-1.054
X5.8042Y-1.054
X5.942Y-1.054
X6.1522Y-1.054
X6.29Y-1.054
X6.4982Y-1.054
X6.636Y-1.054
X7.5028Y-2.68
X7.603Y-1.054
X7.6406Y-2.68
X7.7408Y-1.054
X7.955Y-1.054
X8.0928Y-1.054
X8.303Y-1.056
X8.4408Y-1.056
X8.653Y-1.054
X8.7908Y-1.054
X9.003Y-1.054
X9.1408Y-1.054
X9.351Y-1.054
X9.4888Y-1.054
X9.699Y-1.054
X9.8368Y-1.054
X10.045Y-1.054
X10.1828Y-1.054
X10.391Y-1.054
X10.5288Y-1.054
X10.741Y-1.054
X10.8788Y-1.054
X11.087Y-1.054
X11.2248Y-1.054
X11.433Y-1.054
X11.5708Y-1.054
X11.781Y-1.054
X11.9188Y-1.054
X12.127Y-1.054
X12.2648Y-1.054
X12.475Y-1.054
X12.6128Y-1.054
X12.821Y-1.054
X12.9588Y-1.054
T6
X1.76Y-2.6
X6.5Y-2.6
X8.0828Y-2.6
X12.8228Y-2.6
T0
M30
