G04 #@! TF.FileFunction,Soldermask,Top*
%FSLAX46Y46*%
G04 Gerber Fmt 4.6, Leading zero omitted, Abs format (unit mm)*
G04 Created by KiCad (PCBNEW 4.0.6) date 06/29/17 23:58:37*
%MOMM*%
%LPD*%
G01*
G04 APERTURE LIST*
%ADD10C,0.100000*%
%ADD11R,2.432000X1.924000*%
%ADD12C,11.400000*%
%ADD13C,1.100000*%
%ADD14R,1.900000X1.900000*%
%ADD15R,2.100000X2.100000*%
%ADD16O,2.100000X2.100000*%
%ADD17R,1.850000X0.850000*%
%ADD18R,2.100000X2.400000*%
%ADD19R,2.400000X2.100000*%
%ADD20R,2.400000X2.000000*%
%ADD21C,2.100000*%
%ADD22R,1.300000X1.600000*%
%ADD23R,1.150000X1.600000*%
%ADD24R,1.600000X1.150000*%
%ADD25C,1.900000*%
G04 APERTURE END LIST*
D10*
D11*
X215463120Y-56769000D03*
X215463120Y-60071000D03*
D12*
X325699120Y-66040000D03*
D13*
X329824120Y-66040000D03*
X328625935Y-68966815D03*
X325699120Y-70165000D03*
X322772305Y-68966815D03*
X321574120Y-66040000D03*
X322772305Y-63113185D03*
X325699120Y-61915000D03*
X328625935Y-63113185D03*
D12*
X205303120Y-66040000D03*
D13*
X209428120Y-66040000D03*
X208229935Y-68966815D03*
X205303120Y-70165000D03*
X202376305Y-68966815D03*
X201178120Y-66040000D03*
X202376305Y-63113185D03*
X205303120Y-61915000D03*
X208229935Y-63113185D03*
D14*
X215463120Y-63882000D03*
X215463120Y-67182000D03*
D15*
X326207120Y-31496000D03*
D16*
X328747120Y-31496000D03*
X326207120Y-34036000D03*
X328747120Y-34036000D03*
D15*
X317063120Y-31496000D03*
D16*
X319603120Y-31496000D03*
X317063120Y-34036000D03*
X319603120Y-34036000D03*
D15*
X308427120Y-31496000D03*
D16*
X310967120Y-31496000D03*
X308427120Y-34036000D03*
X310967120Y-34036000D03*
D15*
X299283120Y-31496000D03*
D16*
X301823120Y-31496000D03*
X299283120Y-34036000D03*
X301823120Y-34036000D03*
D15*
X290647120Y-31496000D03*
D16*
X293187120Y-31496000D03*
X290647120Y-34036000D03*
X293187120Y-34036000D03*
D15*
X282011120Y-31496000D03*
D16*
X284551120Y-31496000D03*
X282011120Y-34036000D03*
X284551120Y-34036000D03*
D15*
X273375120Y-31496000D03*
D16*
X275915120Y-31496000D03*
X273375120Y-34036000D03*
X275915120Y-34036000D03*
D15*
X264231120Y-31496000D03*
D16*
X266771120Y-31496000D03*
X264231120Y-34036000D03*
X266771120Y-34036000D03*
D15*
X255595120Y-31496000D03*
D16*
X258135120Y-31496000D03*
X255595120Y-34036000D03*
X258135120Y-34036000D03*
D15*
X246959120Y-31496000D03*
D16*
X249499120Y-31496000D03*
X246959120Y-34036000D03*
X249499120Y-34036000D03*
D15*
X237815120Y-31496000D03*
D16*
X240355120Y-31496000D03*
X237815120Y-34036000D03*
X240355120Y-34036000D03*
D15*
X229179120Y-31496000D03*
D16*
X231719120Y-31496000D03*
X229179120Y-34036000D03*
X231719120Y-34036000D03*
D15*
X220543120Y-31496000D03*
D16*
X223083120Y-31496000D03*
X220543120Y-34036000D03*
X223083120Y-34036000D03*
D15*
X211399120Y-31496000D03*
D16*
X213939120Y-31496000D03*
X211399120Y-34036000D03*
X213939120Y-34036000D03*
D15*
X202763120Y-31496000D03*
D16*
X205303120Y-31496000D03*
X202763120Y-34036000D03*
X205303120Y-34036000D03*
D15*
X193619120Y-31496000D03*
D16*
X196159120Y-31496000D03*
X193619120Y-34036000D03*
X196159120Y-34036000D03*
D17*
X300131120Y-66487400D03*
X300131120Y-67137400D03*
X300131120Y-67787400D03*
X300131120Y-68437400D03*
X304531120Y-68437400D03*
X304531120Y-67787400D03*
X304531120Y-67137400D03*
X304531120Y-66487400D03*
D18*
X302331120Y-57944000D03*
X302331120Y-61944000D03*
X292628320Y-64090800D03*
X292628320Y-68090800D03*
D19*
X288240720Y-60350400D03*
X292240720Y-60350400D03*
X306528720Y-60299600D03*
X310528720Y-60299600D03*
D20*
X313627520Y-65786000D03*
X309627520Y-65786000D03*
D21*
X190571120Y-68072000D03*
X194071120Y-68072000D03*
X196616320Y-26771600D03*
X193116320Y-26771600D03*
D17*
X198549120Y-44179000D03*
X198549120Y-44829000D03*
X198549120Y-45479000D03*
X198549120Y-46129000D03*
X202949120Y-46129000D03*
X202949120Y-45479000D03*
X202949120Y-44829000D03*
X202949120Y-44179000D03*
D22*
X202799120Y-39704000D03*
X202799120Y-37504000D03*
X199299120Y-39704000D03*
X199299120Y-37504000D03*
X197349120Y-39704000D03*
X197349120Y-37504000D03*
D23*
X201696320Y-48224400D03*
X201696320Y-50124400D03*
D24*
X202199120Y-41804000D03*
X200299120Y-41804000D03*
X197899120Y-48154000D03*
X199799120Y-48154000D03*
D23*
X203677520Y-50988000D03*
X203677520Y-49088000D03*
X212008720Y-51242000D03*
X212008720Y-49342000D03*
D24*
X206283520Y-48158400D03*
X208183520Y-48158400D03*
X210349120Y-41804000D03*
X208449120Y-41804000D03*
D23*
X210179920Y-48224400D03*
X210179920Y-50124400D03*
D22*
X205499120Y-39704000D03*
X205499120Y-37504000D03*
X207449120Y-39704000D03*
X207449120Y-37504000D03*
X210949120Y-39704000D03*
X210949120Y-37504000D03*
D17*
X206699120Y-44179000D03*
X206699120Y-44829000D03*
X206699120Y-45479000D03*
X206699120Y-46129000D03*
X211099120Y-46129000D03*
X211099120Y-45479000D03*
X211099120Y-44829000D03*
X211099120Y-44179000D03*
X223049120Y-44179000D03*
X223049120Y-44829000D03*
X223049120Y-45479000D03*
X223049120Y-46129000D03*
X227449120Y-46129000D03*
X227449120Y-45479000D03*
X227449120Y-44829000D03*
X227449120Y-44179000D03*
D22*
X227299120Y-39704000D03*
X227299120Y-37504000D03*
X223799120Y-39704000D03*
X223799120Y-37504000D03*
X221849120Y-39704000D03*
X221849120Y-37504000D03*
D23*
X226599120Y-48254000D03*
X226599120Y-50154000D03*
D24*
X226699120Y-41804000D03*
X224799120Y-41804000D03*
X222399120Y-48154000D03*
X224299120Y-48154000D03*
D23*
X228366320Y-51597600D03*
X228366320Y-49697600D03*
X220289120Y-51191200D03*
X220289120Y-49291200D03*
D24*
X214249120Y-48154000D03*
X216149120Y-48154000D03*
X218549120Y-41804000D03*
X216649120Y-41804000D03*
D23*
X218449120Y-48254000D03*
X218449120Y-50154000D03*
D22*
X213699120Y-39704000D03*
X213699120Y-37504000D03*
X215649120Y-39704000D03*
X215649120Y-37504000D03*
X219149120Y-39704000D03*
X219149120Y-37504000D03*
D17*
X214899120Y-44179000D03*
X214899120Y-44829000D03*
X214899120Y-45479000D03*
X214899120Y-46129000D03*
X219299120Y-46129000D03*
X219299120Y-45479000D03*
X219299120Y-44829000D03*
X219299120Y-44179000D03*
X247749120Y-44179000D03*
X247749120Y-44829000D03*
X247749120Y-45479000D03*
X247749120Y-46129000D03*
X252149120Y-46129000D03*
X252149120Y-45479000D03*
X252149120Y-44829000D03*
X252149120Y-44179000D03*
D22*
X251999120Y-39704000D03*
X251999120Y-37504000D03*
X248499120Y-39704000D03*
X248499120Y-37504000D03*
X246549120Y-39704000D03*
X246549120Y-37504000D03*
D23*
X251299120Y-48254000D03*
X251299120Y-50154000D03*
D24*
X251399120Y-41804000D03*
X249499120Y-41804000D03*
X247099120Y-48154000D03*
X248999120Y-48154000D03*
D23*
X252953520Y-52258000D03*
X252953520Y-50358000D03*
X261233920Y-52054800D03*
X261233920Y-50154800D03*
D24*
X255249120Y-48154000D03*
X257149120Y-48154000D03*
X259549120Y-41804000D03*
X257649120Y-41804000D03*
D23*
X259449120Y-48254000D03*
X259449120Y-50154000D03*
D22*
X254699120Y-39704000D03*
X254699120Y-37504000D03*
X256649120Y-39704000D03*
X256649120Y-37504000D03*
X260149120Y-39704000D03*
X260149120Y-37504000D03*
D17*
X255899120Y-44179000D03*
X255899120Y-44829000D03*
X255899120Y-45479000D03*
X255899120Y-46129000D03*
X260299120Y-46129000D03*
X260299120Y-45479000D03*
X260299120Y-44829000D03*
X260299120Y-44179000D03*
X239549120Y-44179000D03*
X239549120Y-44829000D03*
X239549120Y-45479000D03*
X239549120Y-46129000D03*
X243949120Y-46129000D03*
X243949120Y-45479000D03*
X243949120Y-44829000D03*
X243949120Y-44179000D03*
D22*
X243799120Y-39704000D03*
X243799120Y-37504000D03*
X240299120Y-39704000D03*
X240299120Y-37504000D03*
X238349120Y-39704000D03*
X238349120Y-37504000D03*
D23*
X243099120Y-48254000D03*
X243099120Y-50154000D03*
D24*
X243199120Y-41804000D03*
X241299120Y-41804000D03*
X238899120Y-48154000D03*
X240799120Y-48154000D03*
D23*
X244876320Y-52156400D03*
X244876320Y-50256400D03*
X236748320Y-51902400D03*
X236748320Y-50002400D03*
D24*
X230749120Y-48154000D03*
X232649120Y-48154000D03*
X235049120Y-41804000D03*
X233149120Y-41804000D03*
D23*
X234949120Y-48254000D03*
X234949120Y-50154000D03*
D22*
X230199120Y-39704000D03*
X230199120Y-37504000D03*
X232149120Y-39704000D03*
X232149120Y-37504000D03*
X235649120Y-39704000D03*
X235649120Y-37504000D03*
D17*
X231399120Y-44179000D03*
X231399120Y-44829000D03*
X231399120Y-45479000D03*
X231399120Y-46129000D03*
X235799120Y-46129000D03*
X235799120Y-45479000D03*
X235799120Y-44829000D03*
X235799120Y-44179000D03*
X296999120Y-44129000D03*
X296999120Y-44779000D03*
X296999120Y-45429000D03*
X296999120Y-46079000D03*
X301399120Y-46079000D03*
X301399120Y-45429000D03*
X301399120Y-44779000D03*
X301399120Y-44129000D03*
D22*
X301249120Y-39654000D03*
X301249120Y-37454000D03*
X297749120Y-39654000D03*
X297749120Y-37454000D03*
X295799120Y-39654000D03*
X295799120Y-37454000D03*
D23*
X300549120Y-48204000D03*
X300549120Y-50104000D03*
D24*
X300649120Y-41754000D03*
X298749120Y-41754000D03*
X296349120Y-48104000D03*
X298249120Y-48104000D03*
D23*
X302483520Y-53020000D03*
X302483520Y-51120000D03*
X310560720Y-53324800D03*
X310560720Y-51424800D03*
D24*
X304499120Y-48104000D03*
X306399120Y-48104000D03*
X308799120Y-41754000D03*
X306899120Y-41754000D03*
D23*
X308699120Y-48204000D03*
X308699120Y-50104000D03*
D22*
X303949120Y-39654000D03*
X303949120Y-37454000D03*
X305899120Y-39654000D03*
X305899120Y-37454000D03*
X309399120Y-39654000D03*
X309399120Y-37454000D03*
D17*
X305149120Y-44129000D03*
X305149120Y-44779000D03*
X305149120Y-45429000D03*
X305149120Y-46079000D03*
X309549120Y-46079000D03*
X309549120Y-45429000D03*
X309549120Y-44779000D03*
X309549120Y-44129000D03*
X321499120Y-44129000D03*
X321499120Y-44779000D03*
X321499120Y-45429000D03*
X321499120Y-46079000D03*
X325899120Y-46079000D03*
X325899120Y-45429000D03*
X325899120Y-44779000D03*
X325899120Y-44129000D03*
D22*
X325749120Y-39654000D03*
X325749120Y-37454000D03*
X322249120Y-39654000D03*
X322249120Y-37454000D03*
X320299120Y-39654000D03*
X320299120Y-37454000D03*
D23*
X325049120Y-48204000D03*
X325049120Y-50104000D03*
D24*
X325149120Y-41754000D03*
X323249120Y-41754000D03*
X320849120Y-48104000D03*
X322749120Y-48104000D03*
D23*
X326849120Y-50104000D03*
X326849120Y-48204000D03*
X318688720Y-53477200D03*
X318688720Y-51577200D03*
D24*
X312699120Y-48104000D03*
X314599120Y-48104000D03*
X316999120Y-41754000D03*
X315099120Y-41754000D03*
D23*
X316899120Y-48204000D03*
X316899120Y-50104000D03*
D22*
X312149120Y-39654000D03*
X312149120Y-37454000D03*
X314099120Y-39654000D03*
X314099120Y-37454000D03*
X317599120Y-39654000D03*
X317599120Y-37454000D03*
D17*
X313349120Y-44129000D03*
X313349120Y-44779000D03*
X313349120Y-45429000D03*
X313349120Y-46079000D03*
X317749120Y-46079000D03*
X317749120Y-45429000D03*
X317749120Y-44779000D03*
X317749120Y-44129000D03*
X280499120Y-44129000D03*
X280499120Y-44779000D03*
X280499120Y-45429000D03*
X280499120Y-46079000D03*
X284899120Y-46079000D03*
X284899120Y-45429000D03*
X284899120Y-44779000D03*
X284899120Y-44129000D03*
D22*
X281249120Y-39654000D03*
X281249120Y-37454000D03*
X279299120Y-39654000D03*
X279299120Y-37454000D03*
D23*
X284049120Y-48204000D03*
X284049120Y-50104000D03*
D24*
X284149120Y-41754000D03*
X282249120Y-41754000D03*
X279849120Y-48104000D03*
X281749120Y-48104000D03*
D23*
X285821120Y-51800800D03*
X285821120Y-49900800D03*
X294101520Y-52664400D03*
X294101520Y-50764400D03*
D24*
X287999120Y-48104000D03*
X289899120Y-48104000D03*
X292299120Y-41754000D03*
X290399120Y-41754000D03*
D23*
X292199120Y-48204000D03*
X292199120Y-50104000D03*
D22*
X287449120Y-39654000D03*
X287449120Y-37454000D03*
X289399120Y-39654000D03*
X289399120Y-37454000D03*
X292899120Y-39654000D03*
X292899120Y-37454000D03*
D17*
X288649120Y-44129000D03*
X288649120Y-44779000D03*
X288649120Y-45429000D03*
X288649120Y-46079000D03*
X293049120Y-46079000D03*
X293049120Y-45429000D03*
X293049120Y-44779000D03*
X293049120Y-44129000D03*
X272299120Y-44129000D03*
X272299120Y-44779000D03*
X272299120Y-45429000D03*
X272299120Y-46079000D03*
X276699120Y-46079000D03*
X276699120Y-45429000D03*
X276699120Y-44779000D03*
X276699120Y-44129000D03*
D22*
X276549120Y-39654000D03*
X276549120Y-37454000D03*
X273049120Y-39654000D03*
X273049120Y-37454000D03*
X271099120Y-39654000D03*
X271099120Y-37454000D03*
D23*
X275849120Y-48204000D03*
X275849120Y-50104000D03*
D24*
X275949120Y-41754000D03*
X274049120Y-41754000D03*
X271649120Y-48104000D03*
X273549120Y-48104000D03*
D23*
X277794720Y-51902400D03*
X277794720Y-50002400D03*
X269463520Y-51546800D03*
X269463520Y-49646800D03*
D24*
X263499120Y-48104000D03*
X265399120Y-48104000D03*
X267799120Y-41754000D03*
X265899120Y-41754000D03*
D23*
X267699120Y-48204000D03*
X267699120Y-50104000D03*
D22*
X262949120Y-39654000D03*
X262949120Y-37454000D03*
X264899120Y-39654000D03*
X264899120Y-37454000D03*
X268399120Y-39654000D03*
X268399120Y-37454000D03*
D17*
X264149120Y-44129000D03*
X264149120Y-44779000D03*
X264149120Y-45429000D03*
X264149120Y-46079000D03*
X268549120Y-46079000D03*
X268549120Y-45429000D03*
X268549120Y-44779000D03*
X268549120Y-44129000D03*
D21*
X205557120Y-26771600D03*
X202057120Y-26771600D03*
X223286320Y-26771600D03*
X219786320Y-26771600D03*
X214396320Y-26822400D03*
X210896320Y-26822400D03*
X249854720Y-26771600D03*
X246354720Y-26771600D03*
X258643120Y-26771600D03*
X255143120Y-26771600D03*
X241015520Y-26771600D03*
X237515520Y-26771600D03*
X232176320Y-26771600D03*
X228676320Y-26771600D03*
X302737520Y-26771600D03*
X299237520Y-26771600D03*
X311525920Y-26771600D03*
X308025920Y-26771600D03*
X329153520Y-26771600D03*
X325653520Y-26771600D03*
X320365120Y-26771600D03*
X316865120Y-26771600D03*
X285109920Y-26771600D03*
X281609920Y-26771600D03*
X293898320Y-26771600D03*
X290398320Y-26771600D03*
X276321520Y-26771600D03*
X272821520Y-26771600D03*
X267431520Y-26771600D03*
X263931520Y-26771600D03*
D22*
X284749120Y-39654000D03*
X284749120Y-37454000D03*
X124150000Y-39654000D03*
X124150000Y-37454000D03*
D21*
X106832400Y-26771600D03*
X103332400Y-26771600D03*
X115722400Y-26771600D03*
X112222400Y-26771600D03*
X133299200Y-26771600D03*
X129799200Y-26771600D03*
X124510800Y-26771600D03*
X121010800Y-26771600D03*
X159766000Y-26771600D03*
X156266000Y-26771600D03*
X168554400Y-26771600D03*
X165054400Y-26771600D03*
X150926800Y-26771600D03*
X147426800Y-26771600D03*
X142138400Y-26771600D03*
X138638400Y-26771600D03*
X71577200Y-26771600D03*
X68077200Y-26771600D03*
X80416400Y-26771600D03*
X76916400Y-26771600D03*
X98044000Y-26771600D03*
X94544000Y-26771600D03*
X89255600Y-26771600D03*
X85755600Y-26771600D03*
X53797200Y-26822400D03*
X50297200Y-26822400D03*
X62687200Y-26771600D03*
X59187200Y-26771600D03*
X44958000Y-26771600D03*
X41458000Y-26771600D03*
D17*
X103550000Y-44129000D03*
X103550000Y-44779000D03*
X103550000Y-45429000D03*
X103550000Y-46079000D03*
X107950000Y-46079000D03*
X107950000Y-45429000D03*
X107950000Y-44779000D03*
X107950000Y-44129000D03*
D22*
X107800000Y-39654000D03*
X107800000Y-37454000D03*
X104300000Y-39654000D03*
X104300000Y-37454000D03*
X102350000Y-39654000D03*
X102350000Y-37454000D03*
D23*
X107100000Y-48204000D03*
X107100000Y-50104000D03*
D24*
X107200000Y-41754000D03*
X105300000Y-41754000D03*
X102900000Y-48104000D03*
X104800000Y-48104000D03*
D23*
X108864400Y-51546800D03*
X108864400Y-49646800D03*
X117195600Y-51902400D03*
X117195600Y-50002400D03*
D24*
X111050000Y-48104000D03*
X112950000Y-48104000D03*
X115350000Y-41754000D03*
X113450000Y-41754000D03*
D23*
X115250000Y-48204000D03*
X115250000Y-50104000D03*
D22*
X110500000Y-39654000D03*
X110500000Y-37454000D03*
X112450000Y-39654000D03*
X112450000Y-37454000D03*
X115950000Y-39654000D03*
X115950000Y-37454000D03*
D17*
X111700000Y-44129000D03*
X111700000Y-44779000D03*
X111700000Y-45429000D03*
X111700000Y-46079000D03*
X116100000Y-46079000D03*
X116100000Y-45429000D03*
X116100000Y-44779000D03*
X116100000Y-44129000D03*
X128050000Y-44129000D03*
X128050000Y-44779000D03*
X128050000Y-45429000D03*
X128050000Y-46079000D03*
X132450000Y-46079000D03*
X132450000Y-45429000D03*
X132450000Y-44779000D03*
X132450000Y-44129000D03*
D22*
X132300000Y-39654000D03*
X132300000Y-37454000D03*
X128800000Y-39654000D03*
X128800000Y-37454000D03*
X126850000Y-39654000D03*
X126850000Y-37454000D03*
D23*
X131600000Y-48204000D03*
X131600000Y-50104000D03*
D24*
X131700000Y-41754000D03*
X129800000Y-41754000D03*
X127400000Y-48104000D03*
X129300000Y-48104000D03*
D23*
X133502400Y-52664400D03*
X133502400Y-50764400D03*
X125222000Y-51800800D03*
X125222000Y-49900800D03*
D24*
X119250000Y-48104000D03*
X121150000Y-48104000D03*
X123550000Y-41754000D03*
X121650000Y-41754000D03*
D23*
X123450000Y-48204000D03*
X123450000Y-50104000D03*
D22*
X118700000Y-39654000D03*
X118700000Y-37454000D03*
X120650000Y-39654000D03*
X120650000Y-37454000D03*
D17*
X119900000Y-44129000D03*
X119900000Y-44779000D03*
X119900000Y-45429000D03*
X119900000Y-46079000D03*
X124300000Y-46079000D03*
X124300000Y-45429000D03*
X124300000Y-44779000D03*
X124300000Y-44129000D03*
X152750000Y-44129000D03*
X152750000Y-44779000D03*
X152750000Y-45429000D03*
X152750000Y-46079000D03*
X157150000Y-46079000D03*
X157150000Y-45429000D03*
X157150000Y-44779000D03*
X157150000Y-44129000D03*
D22*
X157000000Y-39654000D03*
X157000000Y-37454000D03*
X153500000Y-39654000D03*
X153500000Y-37454000D03*
X151550000Y-39654000D03*
X151550000Y-37454000D03*
D23*
X156300000Y-48204000D03*
X156300000Y-50104000D03*
D24*
X156400000Y-41754000D03*
X154500000Y-41754000D03*
X152100000Y-48104000D03*
X154000000Y-48104000D03*
D23*
X158089600Y-53477200D03*
X158089600Y-51577200D03*
X166250000Y-50104000D03*
X166250000Y-48204000D03*
D24*
X160250000Y-48104000D03*
X162150000Y-48104000D03*
X164550000Y-41754000D03*
X162650000Y-41754000D03*
D23*
X164450000Y-48204000D03*
X164450000Y-50104000D03*
D22*
X159700000Y-39654000D03*
X159700000Y-37454000D03*
X161650000Y-39654000D03*
X161650000Y-37454000D03*
X165150000Y-39654000D03*
X165150000Y-37454000D03*
D17*
X160900000Y-44129000D03*
X160900000Y-44779000D03*
X160900000Y-45429000D03*
X160900000Y-46079000D03*
X165300000Y-46079000D03*
X165300000Y-45429000D03*
X165300000Y-44779000D03*
X165300000Y-44129000D03*
X144550000Y-44129000D03*
X144550000Y-44779000D03*
X144550000Y-45429000D03*
X144550000Y-46079000D03*
X148950000Y-46079000D03*
X148950000Y-45429000D03*
X148950000Y-44779000D03*
X148950000Y-44129000D03*
D22*
X148800000Y-39654000D03*
X148800000Y-37454000D03*
X145300000Y-39654000D03*
X145300000Y-37454000D03*
X143350000Y-39654000D03*
X143350000Y-37454000D03*
D23*
X148100000Y-48204000D03*
X148100000Y-50104000D03*
D24*
X148200000Y-41754000D03*
X146300000Y-41754000D03*
X143900000Y-48104000D03*
X145800000Y-48104000D03*
D23*
X149961600Y-53324800D03*
X149961600Y-51424800D03*
X141884400Y-53020000D03*
X141884400Y-51120000D03*
D24*
X135750000Y-48104000D03*
X137650000Y-48104000D03*
X140050000Y-41754000D03*
X138150000Y-41754000D03*
D23*
X139950000Y-48204000D03*
X139950000Y-50104000D03*
D22*
X135200000Y-39654000D03*
X135200000Y-37454000D03*
X137150000Y-39654000D03*
X137150000Y-37454000D03*
X140650000Y-39654000D03*
X140650000Y-37454000D03*
D17*
X136400000Y-44129000D03*
X136400000Y-44779000D03*
X136400000Y-45429000D03*
X136400000Y-46079000D03*
X140800000Y-46079000D03*
X140800000Y-45429000D03*
X140800000Y-44779000D03*
X140800000Y-44129000D03*
X70800000Y-44179000D03*
X70800000Y-44829000D03*
X70800000Y-45479000D03*
X70800000Y-46129000D03*
X75200000Y-46129000D03*
X75200000Y-45479000D03*
X75200000Y-44829000D03*
X75200000Y-44179000D03*
D22*
X75050000Y-39704000D03*
X75050000Y-37504000D03*
X71550000Y-39704000D03*
X71550000Y-37504000D03*
X69600000Y-39704000D03*
X69600000Y-37504000D03*
D23*
X74350000Y-48254000D03*
X74350000Y-50154000D03*
D24*
X74450000Y-41804000D03*
X72550000Y-41804000D03*
X70150000Y-48154000D03*
X72050000Y-48154000D03*
D23*
X76149200Y-51902400D03*
X76149200Y-50002400D03*
X84277200Y-52156400D03*
X84277200Y-50256400D03*
D24*
X78300000Y-48154000D03*
X80200000Y-48154000D03*
X82600000Y-41804000D03*
X80700000Y-41804000D03*
D23*
X82500000Y-48254000D03*
X82500000Y-50154000D03*
D22*
X77750000Y-39704000D03*
X77750000Y-37504000D03*
X79700000Y-39704000D03*
X79700000Y-37504000D03*
X83200000Y-39704000D03*
X83200000Y-37504000D03*
D17*
X78950000Y-44179000D03*
X78950000Y-44829000D03*
X78950000Y-45479000D03*
X78950000Y-46129000D03*
X83350000Y-46129000D03*
X83350000Y-45479000D03*
X83350000Y-44829000D03*
X83350000Y-44179000D03*
X95300000Y-44179000D03*
X95300000Y-44829000D03*
X95300000Y-45479000D03*
X95300000Y-46129000D03*
X99700000Y-46129000D03*
X99700000Y-45479000D03*
X99700000Y-44829000D03*
X99700000Y-44179000D03*
D22*
X99550000Y-39704000D03*
X99550000Y-37504000D03*
X96050000Y-39704000D03*
X96050000Y-37504000D03*
X94100000Y-39704000D03*
X94100000Y-37504000D03*
D23*
X98850000Y-48254000D03*
X98850000Y-50154000D03*
D24*
X98950000Y-41804000D03*
X97050000Y-41804000D03*
X94650000Y-48154000D03*
X96550000Y-48154000D03*
D23*
X100634800Y-52054800D03*
X100634800Y-50154800D03*
X92354400Y-52258000D03*
X92354400Y-50358000D03*
D24*
X86500000Y-48154000D03*
X88400000Y-48154000D03*
X90800000Y-41804000D03*
X88900000Y-41804000D03*
D23*
X90700000Y-48254000D03*
X90700000Y-50154000D03*
D22*
X85950000Y-39704000D03*
X85950000Y-37504000D03*
X87900000Y-39704000D03*
X87900000Y-37504000D03*
X91400000Y-39704000D03*
X91400000Y-37504000D03*
D17*
X87150000Y-44179000D03*
X87150000Y-44829000D03*
X87150000Y-45479000D03*
X87150000Y-46129000D03*
X91550000Y-46129000D03*
X91550000Y-45479000D03*
X91550000Y-44829000D03*
X91550000Y-44179000D03*
X54300000Y-44179000D03*
X54300000Y-44829000D03*
X54300000Y-45479000D03*
X54300000Y-46129000D03*
X58700000Y-46129000D03*
X58700000Y-45479000D03*
X58700000Y-44829000D03*
X58700000Y-44179000D03*
D22*
X58550000Y-39704000D03*
X58550000Y-37504000D03*
X55050000Y-39704000D03*
X55050000Y-37504000D03*
X53100000Y-39704000D03*
X53100000Y-37504000D03*
D23*
X57850000Y-48254000D03*
X57850000Y-50154000D03*
D24*
X57950000Y-41804000D03*
X56050000Y-41804000D03*
X53650000Y-48154000D03*
X55550000Y-48154000D03*
D23*
X59690000Y-51191200D03*
X59690000Y-49291200D03*
X67767200Y-51597600D03*
X67767200Y-49697600D03*
D24*
X61800000Y-48154000D03*
X63700000Y-48154000D03*
X66100000Y-41804000D03*
X64200000Y-41804000D03*
D23*
X66000000Y-48254000D03*
X66000000Y-50154000D03*
D22*
X61250000Y-39704000D03*
X61250000Y-37504000D03*
X63200000Y-39704000D03*
X63200000Y-37504000D03*
X66700000Y-39704000D03*
X66700000Y-37504000D03*
D17*
X62450000Y-44179000D03*
X62450000Y-44829000D03*
X62450000Y-45479000D03*
X62450000Y-46129000D03*
X66850000Y-46129000D03*
X66850000Y-45479000D03*
X66850000Y-44829000D03*
X66850000Y-44179000D03*
X46100000Y-44179000D03*
X46100000Y-44829000D03*
X46100000Y-45479000D03*
X46100000Y-46129000D03*
X50500000Y-46129000D03*
X50500000Y-45479000D03*
X50500000Y-44829000D03*
X50500000Y-44179000D03*
D22*
X50350000Y-39704000D03*
X50350000Y-37504000D03*
X46850000Y-39704000D03*
X46850000Y-37504000D03*
X44900000Y-39704000D03*
X44900000Y-37504000D03*
D23*
X49580800Y-48224400D03*
X49580800Y-50124400D03*
D24*
X49750000Y-41804000D03*
X47850000Y-41804000D03*
X45684400Y-48158400D03*
X47584400Y-48158400D03*
D23*
X51409600Y-51242000D03*
X51409600Y-49342000D03*
X43078400Y-50988000D03*
X43078400Y-49088000D03*
D24*
X37300000Y-48154000D03*
X39200000Y-48154000D03*
X41600000Y-41804000D03*
X39700000Y-41804000D03*
D23*
X41097200Y-48224400D03*
X41097200Y-50124400D03*
D22*
X36750000Y-39704000D03*
X36750000Y-37504000D03*
X38700000Y-39704000D03*
X38700000Y-37504000D03*
X42200000Y-39704000D03*
X42200000Y-37504000D03*
D17*
X37950000Y-44179000D03*
X37950000Y-44829000D03*
X37950000Y-45479000D03*
X37950000Y-46129000D03*
X42350000Y-46129000D03*
X42350000Y-45479000D03*
X42350000Y-44829000D03*
X42350000Y-44179000D03*
D21*
X36017200Y-26771600D03*
X32517200Y-26771600D03*
X29972000Y-68072000D03*
X33472000Y-68072000D03*
D20*
X153028400Y-65786000D03*
X149028400Y-65786000D03*
D19*
X145929600Y-60299600D03*
X149929600Y-60299600D03*
X127641600Y-60350400D03*
X131641600Y-60350400D03*
D18*
X132029200Y-64090800D03*
X132029200Y-68090800D03*
X141732000Y-57944000D03*
X141732000Y-61944000D03*
D17*
X139532000Y-66487400D03*
X139532000Y-67137400D03*
X139532000Y-67787400D03*
X139532000Y-68437400D03*
X143932000Y-68437400D03*
X143932000Y-67787400D03*
X143932000Y-67137400D03*
X143932000Y-66487400D03*
D15*
X33020000Y-31496000D03*
D16*
X35560000Y-31496000D03*
X33020000Y-34036000D03*
X35560000Y-34036000D03*
D15*
X42164000Y-31496000D03*
D16*
X44704000Y-31496000D03*
X42164000Y-34036000D03*
X44704000Y-34036000D03*
D15*
X50800000Y-31496000D03*
D16*
X53340000Y-31496000D03*
X50800000Y-34036000D03*
X53340000Y-34036000D03*
D15*
X59944000Y-31496000D03*
D16*
X62484000Y-31496000D03*
X59944000Y-34036000D03*
X62484000Y-34036000D03*
D15*
X68580000Y-31496000D03*
D16*
X71120000Y-31496000D03*
X68580000Y-34036000D03*
X71120000Y-34036000D03*
D15*
X77216000Y-31496000D03*
D16*
X79756000Y-31496000D03*
X77216000Y-34036000D03*
X79756000Y-34036000D03*
D15*
X86360000Y-31496000D03*
D16*
X88900000Y-31496000D03*
X86360000Y-34036000D03*
X88900000Y-34036000D03*
D15*
X94996000Y-31496000D03*
D16*
X97536000Y-31496000D03*
X94996000Y-34036000D03*
X97536000Y-34036000D03*
D15*
X103632000Y-31496000D03*
D16*
X106172000Y-31496000D03*
X103632000Y-34036000D03*
X106172000Y-34036000D03*
D15*
X112776000Y-31496000D03*
D16*
X115316000Y-31496000D03*
X112776000Y-34036000D03*
X115316000Y-34036000D03*
D15*
X121412000Y-31496000D03*
D16*
X123952000Y-31496000D03*
X121412000Y-34036000D03*
X123952000Y-34036000D03*
D15*
X130048000Y-31496000D03*
D16*
X132588000Y-31496000D03*
X130048000Y-34036000D03*
X132588000Y-34036000D03*
D15*
X138684000Y-31496000D03*
D16*
X141224000Y-31496000D03*
X138684000Y-34036000D03*
X141224000Y-34036000D03*
D15*
X147828000Y-31496000D03*
D16*
X150368000Y-31496000D03*
X147828000Y-34036000D03*
X150368000Y-34036000D03*
D15*
X156464000Y-31496000D03*
D16*
X159004000Y-31496000D03*
X156464000Y-34036000D03*
X159004000Y-34036000D03*
D15*
X165608000Y-31496000D03*
D16*
X168148000Y-31496000D03*
X165608000Y-34036000D03*
X168148000Y-34036000D03*
D14*
X54864000Y-63882000D03*
X54864000Y-67182000D03*
D12*
X44704000Y-66040000D03*
D13*
X48829000Y-66040000D03*
X47630815Y-68966815D03*
X44704000Y-70165000D03*
X41777185Y-68966815D03*
X40579000Y-66040000D03*
X41777185Y-63113185D03*
X44704000Y-61915000D03*
X47630815Y-63113185D03*
D12*
X165100000Y-66040000D03*
D13*
X169225000Y-66040000D03*
X168026815Y-68966815D03*
X165100000Y-70165000D03*
X162173185Y-68966815D03*
X160975000Y-66040000D03*
X162173185Y-63113185D03*
X165100000Y-61915000D03*
X168026815Y-63113185D03*
D11*
X54864000Y-56769000D03*
X54864000Y-60071000D03*
D25*
X112000000Y-63000000D03*
X112000000Y-65540000D03*
X109460000Y-65540000D03*
X109460000Y-63000000D03*
X106920000Y-63000000D03*
X106920000Y-65540000D03*
X104380000Y-65540000D03*
X104380000Y-63000000D03*
X101840000Y-63000000D03*
X101840000Y-65540000D03*
X99300000Y-65540000D03*
X99300000Y-63000000D03*
X96760000Y-63000000D03*
X96760000Y-65540000D03*
X94220000Y-65540000D03*
X94220000Y-63000000D03*
X273250000Y-63000000D03*
X273250000Y-65540000D03*
X270710000Y-65540000D03*
X270710000Y-63000000D03*
X268170000Y-63000000D03*
X268170000Y-65540000D03*
X265630000Y-65540000D03*
X265630000Y-63000000D03*
X263090000Y-63000000D03*
X263090000Y-65540000D03*
X260550000Y-65540000D03*
X260550000Y-63000000D03*
X258010000Y-63000000D03*
X258010000Y-65540000D03*
X255470000Y-65540000D03*
X255470000Y-63000000D03*
M02*
