M48
INCH,TZ
T1C0.014
T2C0.020
T3C0.030
T4C0.030
T5C0.039
T6C0.055
T7C0.138
%
G90
G05
T1
X5.37Y-4.55
X5.48Y-4.85
X5.4852Y-4.4262
X5.55Y-4.89
X5.57Y-4.57
X5.66Y-4.89
X6.06Y-4.54
X6.08Y-4.43
X6.1Y-3.46
X6.12Y-4.84
X6.25Y-4.57
X6.26Y-3.19
X6.26Y-4.89
X6.39Y-4.89
X6.65Y-4.35
X6.76Y-3.25
X6.79Y-3.31
X6.81Y-3.03
X6.8176Y-3.0998
X6.84Y-2.97
X6.8787Y-3.1007
X6.94Y-3.03
X6.97Y-3.04
X6.99Y-3.48
X7.03Y-4.89
X7.05Y-2.89
X7.07Y-2.99
X7.08Y-2.92
X7.1Y-3.48
X7.13Y-4.51
X7.15Y-4.55
X7.16Y-3.14
X7.24Y-4.72
X7.24Y-4.88
X7.29Y-3.74
X7.3Y-3.84
X7.61Y-3.7
X7.81Y-3.83
X7.82Y-3.74
X8.01Y-3.
X8.04Y-3.14
X8.17Y-3.17
X8.25Y-3.15
X8.27Y-3.
X8.37Y-3.34
X8.38Y-2.93
X8.38Y-3.
X8.38Y-3.1
X8.41Y-2.97
X8.41Y-3.08
X8.46Y-3.32
X8.52Y-3.06
X8.7Y-3.03
T2
X4.9967Y-3.0269
X5.0269Y-2.9538
X5.0269Y-3.1
X5.1Y-2.9236
X5.1Y-3.1303
X5.1731Y-2.9538
X5.1731Y-3.1
X5.2033Y-3.0269
X8.5967Y-4.1731
X8.5967Y-4.7538
X8.6269Y-4.1
X8.6269Y-4.2462
X8.6269Y-4.6808
X8.6269Y-4.8269
X8.7Y-4.0697
X8.7Y-4.2764
X8.7Y-4.6505
X8.7Y-4.8572
X8.7731Y-4.1
X8.7731Y-4.2462
X8.7731Y-4.6808
X8.7731Y-4.8269
X8.8033Y-4.1731
X8.8033Y-4.7538
T3
X5.57Y-3.98
X5.58Y-3.8
X6.14Y-3.65
X6.35Y-3.87
X6.62Y-3.87
T4
X5.06Y-4.28
X5.36Y-4.28
X5.68Y-4.28
X5.98Y-4.28
X6.75Y-4.26
X7.05Y-4.26
T5
X5.06Y-3.68
X5.36Y-3.58
X5.36Y-3.88
X5.68Y-3.68
X5.98Y-3.58
X5.98Y-3.88
X6.75Y-3.66
X7.05Y-3.56
X7.05Y-3.86
T6
X5.45Y-3.06
X5.45Y-3.2765
X5.6154Y-3.06
X5.6154Y-3.2765
X7.43Y-4.1793
X7.43Y-4.3446
X7.43Y-4.51
X7.6465Y-4.1793
X7.6465Y-4.3446
X7.6465Y-4.51
X8.1835Y-3.51
X8.1835Y-3.6754
X8.1835Y-3.8407
X8.1835Y-4.0061
X8.1835Y-4.1714
X8.1835Y-4.3368
X8.1835Y-4.5021
X8.1835Y-4.6675
X8.4Y-3.51
X8.4Y-3.6754
X8.4Y-3.8407
X8.4Y-4.0061
X8.4Y-4.1714
X8.4Y-4.3368
X8.4Y-4.5021
X8.4Y-4.6675
T7
X5.1Y-3.0269
X8.7Y-4.1731
X8.7Y-4.7538
T0
M30
