%TF.GenerationSoftware,KiCad,Pcbnew,4.0.7-e2-6376~58~ubuntu16.04.1*%
%TF.CreationDate,2018-07-21T13:50:59-02:30*%
%TF.ProjectId,Battery_Shield,426174746572795F536869656C642E6B,rev?*%
%TF.FileFunction,Soldermask,Bot*%
%FSLAX46Y46*%
G04 Gerber Fmt 4.6, Leading zero omitted, Abs format (unit mm)*
G04 Created by KiCad (PCBNEW 4.0.7-e2-6376~58~ubuntu16.04.1) date Sat Jul 21 13:50:59 2018*
%MOMM*%
%LPD*%
G01*
G04 APERTURE LIST*
%ADD10C,0.100000*%
%ADD11C,0.150000*%
%ADD12R,3.200000X3.200000*%
%ADD13C,3.200000*%
%ADD14C,3.400000*%
%ADD15C,1.920000*%
%ADD16C,2.400000*%
%ADD17C,7.400000*%
%ADD18C,1.200000*%
%ADD19C,1.000000*%
%ADD20C,1.400000*%
G04 APERTURE END LIST*
D10*
D11*
X228600000Y-66040000D02*
X119380000Y-66040000D01*
X228600000Y-129540000D02*
X228600000Y-66040000D01*
X119380000Y-129540000D02*
X228600000Y-129540000D01*
X119380000Y-66040000D02*
X119380000Y-129540000D01*
D12*
X138430000Y-77724000D03*
D13*
X142630000Y-77724000D03*
X138430000Y-83224000D03*
X142630000Y-83224000D03*
D12*
X188722000Y-114554000D03*
D13*
X188722000Y-110354000D03*
X188722000Y-106154000D03*
X194222000Y-114554000D03*
X194222000Y-110354000D03*
X194222000Y-106154000D03*
D14*
X193762000Y-119254000D03*
X193762000Y-101454000D03*
D12*
X213360000Y-89154000D03*
D13*
X213360000Y-93354000D03*
X213360000Y-97554000D03*
X213360000Y-101754000D03*
X213360000Y-105954000D03*
X213360000Y-110154000D03*
X213360000Y-114354000D03*
X213360000Y-118554000D03*
X207860000Y-89154000D03*
X207860000Y-93354000D03*
X207860000Y-97554000D03*
X207860000Y-101754000D03*
X207860000Y-105954000D03*
X207860000Y-110154000D03*
X207860000Y-114354000D03*
X207860000Y-118554000D03*
D15*
X136144000Y-108712000D03*
D16*
X136144000Y-98552000D03*
X136144000Y-90932000D03*
X128524000Y-93472000D03*
D15*
X128524000Y-108712000D03*
X151892000Y-108712000D03*
D16*
X151892000Y-98552000D03*
X151892000Y-90932000D03*
X144272000Y-93472000D03*
D15*
X144272000Y-108712000D03*
X179070000Y-108204000D03*
D16*
X179070000Y-98044000D03*
X179070000Y-90424000D03*
X171450000Y-92964000D03*
D15*
X171450000Y-108204000D03*
D17*
X220980000Y-120747690D03*
D18*
X223605000Y-120747690D03*
X222836155Y-122603845D03*
X220980000Y-123372690D03*
X219123845Y-122603845D03*
X218355000Y-120747690D03*
X219123845Y-118891535D03*
X220980000Y-118122690D03*
X222836155Y-118891535D03*
D17*
X220980000Y-105996155D03*
D18*
X223605000Y-105996155D03*
X222836155Y-107852310D03*
X220980000Y-108621155D03*
X219123845Y-107852310D03*
X218355000Y-105996155D03*
X219123845Y-104140000D03*
X220980000Y-103371155D03*
X222836155Y-104140000D03*
D17*
X129540000Y-76883845D03*
D18*
X132165000Y-76883845D03*
X131396155Y-78740000D03*
X129540000Y-79508845D03*
X127683845Y-78740000D03*
X126915000Y-76883845D03*
X127683845Y-75027690D03*
X129540000Y-74258845D03*
X131396155Y-75027690D03*
D19*
X139325000Y-112425000D03*
X207518000Y-80518000D03*
X210058000Y-76200000D03*
X183896000Y-119888000D03*
X181102000Y-114554000D03*
X181610000Y-115570000D03*
X168910000Y-110490000D03*
X154432000Y-112522000D03*
X158750000Y-116078000D03*
X153924000Y-115316000D03*
X155448000Y-122936000D03*
X139192000Y-123190000D03*
X141478000Y-116078000D03*
X136398000Y-115570000D03*
X216408000Y-77724000D03*
X193294000Y-93980000D03*
X198628000Y-94996000D03*
X198374000Y-97282000D03*
X209550000Y-80010000D03*
X220980000Y-76962000D03*
X212852000Y-74422000D03*
X177038000Y-77216000D03*
X181864000Y-79756000D03*
X172466000Y-84074000D03*
X171704000Y-82550000D03*
X154940000Y-87884000D03*
X159004000Y-81026000D03*
D20*
X155956000Y-92710000D03*
D19*
X143764000Y-124206000D03*
X140970000Y-124206000D03*
X183896000Y-123952000D03*
X178562000Y-124206000D03*
X162306000Y-124206000D03*
X159004000Y-124206000D03*
D20*
X141478000Y-101092000D03*
X141732000Y-96520000D03*
D19*
X173168000Y-78734000D03*
X174718000Y-78759000D03*
X177546000Y-88392000D03*
X180340000Y-88392000D03*
X185166000Y-94996000D03*
X185420000Y-97536000D03*
X203454000Y-76200000D03*
X204216000Y-79756000D03*
X179070000Y-73406000D03*
X172974000Y-76962000D03*
X179578000Y-75946000D03*
X176276000Y-76962000D03*
X179832000Y-74168000D03*
X173736000Y-75438000D03*
D20*
X168148000Y-98298000D03*
X161290000Y-98298000D03*
D19*
X213614000Y-78232000D03*
X213614000Y-75438000D03*
X212852000Y-76200000D03*
X212852000Y-78740000D03*
X212598000Y-84836000D03*
X214884000Y-84328000D03*
M02*
