%TF.GenerationSoftware,KiCad,Pcbnew,4.0.7-e2-6376~58~ubuntu16.04.1*%
%TF.CreationDate,2018-07-21T13:50:59-02:30*%
%TF.ProjectId,Battery_Shield,426174746572795F536869656C642E6B,rev?*%
%TF.FileFunction,Copper,L1,Top,Signal*%
%FSLAX46Y46*%
G04 Gerber Fmt 4.6, Leading zero omitted, Abs format (unit mm)*
G04 Created by KiCad (PCBNEW 4.0.7-e2-6376~58~ubuntu16.04.1) date Sat Jul 21 13:50:59 2018*
%MOMM*%
%LPD*%
G01*
G04 APERTURE LIST*
%ADD10C,0.100000*%
%ADD11C,0.150000*%
%ADD12R,0.600000X0.500000*%
%ADD13R,0.500000X0.600000*%
%ADD14R,0.750000X0.800000*%
%ADD15R,0.800000X0.750000*%
%ADD16R,1.000000X1.250000*%
%ADD17R,0.500000X0.500000*%
%ADD18R,2.500000X1.800000*%
%ADD19R,1.600000X1.000000*%
%ADD20R,1.000000X1.600000*%
%ADD21R,2.800000X2.800000*%
%ADD22C,2.800000*%
%ADD23C,1.520000*%
%ADD24C,2.000000*%
%ADD25R,1.600000X3.500000*%
%ADD26R,4.500000X5.000000*%
%ADD27R,3.800000X2.000000*%
%ADD28R,1.500000X2.000000*%
%ADD29R,0.500000X0.900000*%
%ADD30R,1.100000X4.600000*%
%ADD31R,10.800000X9.400000*%
%ADD32R,5.250000X4.550000*%
%ADD33R,0.900000X0.500000*%
%ADD34R,1.300000X0.700000*%
%ADD35R,0.700000X1.300000*%
%ADD36R,1.600000X0.300000*%
%ADD37R,1.550000X0.600000*%
%ADD38R,0.800000X0.300000*%
%ADD39R,1.400000X0.400000*%
%ADD40C,7.000000*%
%ADD41C,0.800000*%
%ADD42C,0.600000*%
%ADD43C,1.000000*%
%ADD44C,0.350000*%
%ADD45C,1.800000*%
%ADD46C,0.600000*%
G04 APERTURE END LIST*
D10*
D11*
X228600000Y-66040000D02*
X119380000Y-66040000D01*
X228600000Y-129540000D02*
X228600000Y-66040000D01*
X119380000Y-129540000D02*
X228600000Y-129540000D01*
X119380000Y-66040000D02*
X119380000Y-129540000D01*
D12*
X182160000Y-78486000D03*
X181060000Y-78486000D03*
D13*
X171958000Y-80476000D03*
X171958000Y-81576000D03*
D12*
X134832000Y-114808000D03*
X135932000Y-114808000D03*
X178774000Y-114300000D03*
X179874000Y-114300000D03*
X151850000Y-115062000D03*
X152950000Y-115062000D03*
D14*
X154686000Y-85356000D03*
X154686000Y-86856000D03*
X159258000Y-77990000D03*
X159258000Y-79490000D03*
D13*
X160528000Y-85302000D03*
X160528000Y-86402000D03*
D15*
X152388000Y-82296000D03*
X150888000Y-82296000D03*
D16*
X150892000Y-77978000D03*
X152892000Y-77978000D03*
D15*
X197092000Y-97282000D03*
X195592000Y-97282000D03*
D16*
X195342000Y-94488000D03*
X197342000Y-94488000D03*
D17*
X131234000Y-112268000D03*
X133434000Y-112268000D03*
X147236000Y-112268000D03*
X149436000Y-112268000D03*
X176360000Y-111506000D03*
X174160000Y-111506000D03*
D18*
X162274000Y-91948000D03*
X158274000Y-91948000D03*
D19*
X135636000Y-121642000D03*
X135636000Y-118642000D03*
X138938000Y-118642000D03*
X138938000Y-121642000D03*
D20*
X182348000Y-122428000D03*
X179348000Y-122428000D03*
X179348000Y-119888000D03*
X182348000Y-119888000D03*
D19*
X152146000Y-121388000D03*
X152146000Y-118388000D03*
X154940000Y-118388000D03*
X154940000Y-121388000D03*
D21*
X138430000Y-77724000D03*
D22*
X142630000Y-77724000D03*
X138430000Y-83224000D03*
X142630000Y-83224000D03*
D21*
X188722000Y-114554000D03*
D22*
X188722000Y-110354000D03*
X188722000Y-106154000D03*
X194222000Y-114554000D03*
X194222000Y-110354000D03*
X194222000Y-106154000D03*
D21*
X213360000Y-89154000D03*
D22*
X213360000Y-93354000D03*
X213360000Y-97554000D03*
X213360000Y-101754000D03*
X213360000Y-105954000D03*
X213360000Y-110154000D03*
X213360000Y-114354000D03*
X213360000Y-118554000D03*
X207860000Y-89154000D03*
X207860000Y-93354000D03*
X207860000Y-97554000D03*
X207860000Y-101754000D03*
X207860000Y-105954000D03*
X207860000Y-110154000D03*
X207860000Y-114354000D03*
X207860000Y-118554000D03*
D23*
X136144000Y-108712000D03*
D24*
X136144000Y-98552000D03*
X136144000Y-90932000D03*
X128524000Y-93472000D03*
D23*
X128524000Y-108712000D03*
X151892000Y-108712000D03*
D24*
X151892000Y-98552000D03*
X151892000Y-90932000D03*
X144272000Y-93472000D03*
D23*
X144272000Y-108712000D03*
X179070000Y-108204000D03*
D24*
X179070000Y-98044000D03*
X179070000Y-90424000D03*
X171450000Y-92964000D03*
D23*
X171450000Y-108204000D03*
D25*
X167794000Y-83312000D03*
X162914000Y-83312000D03*
D26*
X185504000Y-84328000D03*
X196004000Y-84328000D03*
D27*
X128778000Y-121768000D03*
D28*
X128778000Y-115468000D03*
X126478000Y-115468000D03*
X131078000Y-115468000D03*
D27*
X146050000Y-122022000D03*
D28*
X146050000Y-115722000D03*
X143750000Y-115722000D03*
X148350000Y-115722000D03*
D27*
X174498000Y-120752000D03*
D28*
X174498000Y-114452000D03*
X172198000Y-114452000D03*
X176798000Y-114452000D03*
D29*
X138950000Y-115316000D03*
X140450000Y-115316000D03*
X156222000Y-115316000D03*
X157722000Y-115316000D03*
X136664000Y-112268000D03*
X138164000Y-112268000D03*
X151904000Y-112268000D03*
X153404000Y-112268000D03*
X178828000Y-117602000D03*
X180328000Y-117602000D03*
D30*
X163830000Y-99127000D03*
X158750000Y-99127000D03*
D31*
X161290000Y-108277000D03*
D32*
X158515000Y-110702000D03*
X164065000Y-105852000D03*
X164065000Y-110702000D03*
X158515000Y-105852000D03*
D29*
X170676000Y-111506000D03*
X169176000Y-111506000D03*
X180328000Y-115824000D03*
X178828000Y-115824000D03*
X216166000Y-79756000D03*
X217666000Y-79756000D03*
D33*
X214884000Y-81800000D03*
X214884000Y-83300000D03*
X217932000Y-81800000D03*
X217932000Y-83300000D03*
X216408000Y-81800000D03*
X216408000Y-83300000D03*
D29*
X201180000Y-74930000D03*
X202680000Y-74930000D03*
X201180000Y-77978000D03*
X202680000Y-77978000D03*
X201180000Y-79502000D03*
X202680000Y-79502000D03*
X201180000Y-76454000D03*
X202680000Y-76454000D03*
X169938000Y-76962000D03*
X171438000Y-76962000D03*
X169938000Y-78740000D03*
X171438000Y-78740000D03*
X169938000Y-75184000D03*
X171438000Y-75184000D03*
D33*
X157226000Y-79236000D03*
X157226000Y-77736000D03*
D34*
X154940000Y-79690000D03*
X154940000Y-77790000D03*
D35*
X150688000Y-80264000D03*
X152588000Y-80264000D03*
D36*
X219370000Y-78216000D03*
X219370000Y-77716000D03*
X219370000Y-77216000D03*
X219370000Y-76716000D03*
X219370000Y-76216000D03*
X214970000Y-76216000D03*
X214970000Y-76716000D03*
X214970000Y-77216000D03*
X214970000Y-77716000D03*
X214970000Y-78216000D03*
D37*
X205834000Y-72517000D03*
X205834000Y-73787000D03*
X205834000Y-75057000D03*
X205834000Y-76327000D03*
X211234000Y-76327000D03*
X211234000Y-75057000D03*
X211234000Y-73787000D03*
X211234000Y-72517000D03*
X205834000Y-78613000D03*
X205834000Y-79883000D03*
X205834000Y-81153000D03*
X205834000Y-82423000D03*
X211234000Y-82423000D03*
X211234000Y-81153000D03*
X211234000Y-79883000D03*
X211234000Y-78613000D03*
D38*
X174980000Y-76212000D03*
X174980000Y-76712000D03*
X174980000Y-77212000D03*
X174980000Y-77712000D03*
X178080000Y-77712000D03*
X178080000Y-77212000D03*
X178080000Y-76712000D03*
X178080000Y-76212000D03*
D37*
X174084000Y-79883000D03*
X174084000Y-81153000D03*
X174084000Y-82423000D03*
X174084000Y-83693000D03*
X179484000Y-83693000D03*
X179484000Y-82423000D03*
X179484000Y-81153000D03*
X179484000Y-79883000D03*
D36*
X159172000Y-83804000D03*
X159172000Y-83304000D03*
X159172000Y-82804000D03*
X159172000Y-82304000D03*
X159172000Y-81804000D03*
X154772000Y-81804000D03*
X154772000Y-82304000D03*
X154772000Y-82804000D03*
X154772000Y-83304000D03*
X154772000Y-83804000D03*
D39*
X187792000Y-95291000D03*
X187792000Y-95941000D03*
X187792000Y-96591000D03*
X187792000Y-97241000D03*
X192192000Y-97241000D03*
X192192000Y-96591000D03*
X192192000Y-95941000D03*
X192192000Y-95291000D03*
D40*
X220980000Y-120747690D03*
D41*
X223605000Y-120747690D03*
X222836155Y-122603845D03*
X220980000Y-123372690D03*
X219123845Y-122603845D03*
X218355000Y-120747690D03*
X219123845Y-118891535D03*
X220980000Y-118122690D03*
X222836155Y-118891535D03*
D40*
X220980000Y-105996155D03*
D41*
X223605000Y-105996155D03*
X222836155Y-107852310D03*
X220980000Y-108621155D03*
X219123845Y-107852310D03*
X218355000Y-105996155D03*
X219123845Y-104140000D03*
X220980000Y-103371155D03*
X222836155Y-104140000D03*
D40*
X129540000Y-76883845D03*
D41*
X132165000Y-76883845D03*
X131396155Y-78740000D03*
X129540000Y-79508845D03*
X127683845Y-78740000D03*
X126915000Y-76883845D03*
X127683845Y-75027690D03*
X129540000Y-74258845D03*
X131396155Y-75027690D03*
D42*
X139325000Y-112425000D03*
X207518000Y-80518000D03*
X210058000Y-76200000D03*
X183896000Y-119888000D03*
X181102000Y-114554000D03*
X181610000Y-115570000D03*
X168910000Y-110490000D03*
X154432000Y-112522000D03*
X158750000Y-116078000D03*
X153924000Y-115316000D03*
X155448000Y-122936000D03*
X139192000Y-123190000D03*
X141478000Y-116078000D03*
X136398000Y-115570000D03*
X216408000Y-77724000D03*
X193294000Y-93980000D03*
X198628000Y-94996000D03*
X198374000Y-97282000D03*
X209550000Y-80010000D03*
X220980000Y-76962000D03*
X212852000Y-74422000D03*
X177038000Y-77216000D03*
X181864000Y-79756000D03*
X172466000Y-84074000D03*
X171704000Y-82550000D03*
X154940000Y-87884000D03*
X159004000Y-81026000D03*
D43*
X155956000Y-92710000D03*
D42*
X143764000Y-124206000D03*
X140970000Y-124206000D03*
X183896000Y-123952000D03*
X178562000Y-124206000D03*
X162306000Y-124206000D03*
X159004000Y-124206000D03*
D43*
X141478000Y-101092000D03*
X141732000Y-96520000D03*
D42*
X173168000Y-78734000D03*
X174718000Y-78759000D03*
X177546000Y-88392000D03*
X180340000Y-88392000D03*
X185166000Y-94996000D03*
X185420000Y-97536000D03*
X203454000Y-76200000D03*
X204216000Y-79756000D03*
X179070000Y-73406000D03*
X172974000Y-76962000D03*
X179578000Y-75946000D03*
X176276000Y-76962000D03*
X179832000Y-74168000D03*
X173736000Y-75438000D03*
D43*
X168148000Y-98298000D03*
X161290000Y-98298000D03*
D42*
X213614000Y-78232000D03*
X213614000Y-75438000D03*
X212852000Y-76200000D03*
X212852000Y-78740000D03*
X212598000Y-84836000D03*
X214884000Y-84328000D03*
D44*
X138164000Y-112268000D02*
X139168000Y-112268000D01*
X139168000Y-112268000D02*
X139325000Y-112425000D01*
X205834000Y-79883000D02*
X206883000Y-79883000D01*
X206883000Y-79883000D02*
X207518000Y-80518000D01*
D11*
X211234000Y-76327000D02*
X210185000Y-76327000D01*
X210185000Y-76327000D02*
X210058000Y-76200000D01*
D44*
X182348000Y-119888000D02*
X183896000Y-119888000D01*
X179874000Y-114300000D02*
X180848000Y-114300000D01*
X180848000Y-114300000D02*
X181102000Y-114554000D01*
X180328000Y-115824000D02*
X181356000Y-115824000D01*
X181356000Y-115824000D02*
X181610000Y-115570000D01*
X169176000Y-111506000D02*
X169176000Y-110756000D01*
X169176000Y-110756000D02*
X168910000Y-110490000D01*
X153404000Y-112268000D02*
X154178000Y-112268000D01*
X154178000Y-112268000D02*
X154432000Y-112522000D01*
X157722000Y-115316000D02*
X157988000Y-115316000D01*
X157988000Y-115316000D02*
X158750000Y-116078000D01*
X152950000Y-115062000D02*
X153670000Y-115062000D01*
X153670000Y-115062000D02*
X153924000Y-115316000D01*
X154940000Y-121388000D02*
X154940000Y-122428000D01*
X154940000Y-122428000D02*
X155448000Y-122936000D01*
X138938000Y-121642000D02*
X138938000Y-122936000D01*
X138938000Y-122936000D02*
X139192000Y-123190000D01*
X140450000Y-115316000D02*
X140716000Y-115316000D01*
X140716000Y-115316000D02*
X141478000Y-116078000D01*
X135932000Y-114808000D02*
X135932000Y-115104000D01*
X135932000Y-115104000D02*
X136398000Y-115570000D01*
X214970000Y-77716000D02*
X216400000Y-77716000D01*
X216400000Y-77716000D02*
X216408000Y-77724000D01*
X192192000Y-95291000D02*
X192192000Y-95082000D01*
X192192000Y-95082000D02*
X193294000Y-93980000D01*
X197342000Y-94488000D02*
X198120000Y-94488000D01*
X198120000Y-94488000D02*
X198628000Y-94996000D01*
X197092000Y-97282000D02*
X198374000Y-97282000D01*
X211234000Y-79883000D02*
X209677000Y-79883000D01*
X209677000Y-79883000D02*
X209550000Y-80010000D01*
D11*
X219370000Y-76716000D02*
X220734000Y-76716000D01*
X220734000Y-76716000D02*
X220980000Y-76962000D01*
D44*
X211234000Y-73787000D02*
X212217000Y-73787000D01*
X212217000Y-73787000D02*
X212852000Y-74422000D01*
D11*
X178080000Y-76712000D02*
X177542000Y-76712000D01*
X177542000Y-76712000D02*
X177038000Y-77216000D01*
D44*
X182160000Y-78486000D02*
X182160000Y-79460000D01*
X182160000Y-79460000D02*
X181864000Y-79756000D01*
X174084000Y-83693000D02*
X172847000Y-83693000D01*
X172847000Y-83693000D02*
X172466000Y-84074000D01*
X171958000Y-81576000D02*
X171958000Y-82296000D01*
X171958000Y-82296000D02*
X171704000Y-82550000D01*
X154686000Y-86856000D02*
X154686000Y-87630000D01*
X154686000Y-87630000D02*
X154940000Y-87884000D01*
X159172000Y-81804000D02*
X159172000Y-81194000D01*
X159172000Y-81194000D02*
X159004000Y-81026000D01*
X158274000Y-91948000D02*
X156718000Y-91948000D01*
X156718000Y-91948000D02*
X155956000Y-92710000D01*
D11*
X181610000Y-124714000D02*
X195834000Y-124714000D01*
X195834000Y-124714000D02*
X199390000Y-121158000D01*
X199390000Y-121158000D02*
X199390000Y-113284000D01*
X199390000Y-113284000D02*
X202520000Y-110154000D01*
X202520000Y-110154000D02*
X207860000Y-110154000D01*
X179348000Y-122428000D02*
X179348000Y-123976000D01*
X179348000Y-123976000D02*
X180086000Y-124714000D01*
X180086000Y-124714000D02*
X181610000Y-124714000D01*
D44*
X179348000Y-119888000D02*
X179348000Y-122428000D01*
X178828000Y-117602000D02*
X178828000Y-119368000D01*
X178828000Y-119368000D02*
X179348000Y-119888000D01*
X176798000Y-114452000D02*
X176798000Y-115076000D01*
X176798000Y-115076000D02*
X178828000Y-117106000D01*
X178828000Y-117106000D02*
X178828000Y-117602000D01*
X176798000Y-114452000D02*
X177456000Y-114452000D01*
X177456000Y-114452000D02*
X178828000Y-115824000D01*
X176798000Y-114452000D02*
X177140000Y-114452000D01*
X177140000Y-114452000D02*
X177292000Y-114300000D01*
X177292000Y-114300000D02*
X178774000Y-114300000D01*
X187390998Y-98325000D02*
X193799000Y-98325000D01*
X193799000Y-98325000D02*
X194842000Y-97282000D01*
X194842000Y-97282000D02*
X195592000Y-97282000D01*
X186250000Y-95941000D02*
X184983000Y-95941000D01*
X187792000Y-95941000D02*
X186250000Y-95941000D01*
X186250000Y-95941000D02*
X186250000Y-97184002D01*
X186250000Y-97184002D02*
X187390998Y-98325000D01*
X217992033Y-71434033D02*
X221996000Y-75438000D01*
X203390965Y-71434033D02*
X217992033Y-71434033D01*
X197865943Y-76959055D02*
X203390965Y-71434033D01*
X187530761Y-76959055D02*
X197865943Y-76959055D01*
X182118000Y-82371816D02*
X187530761Y-76959055D01*
X179070000Y-88138000D02*
X182118000Y-85090000D01*
X179070000Y-90424000D02*
X179070000Y-88138000D01*
X182118000Y-85090000D02*
X182118000Y-82371816D01*
X221996000Y-75438000D02*
X221234000Y-76200000D01*
X221234000Y-76200000D02*
X219386000Y-76200000D01*
X219386000Y-76200000D02*
X219370000Y-76216000D01*
X221996000Y-76216000D02*
X221996000Y-76200000D01*
X219370000Y-77716000D02*
X221496000Y-77716000D01*
X221496000Y-77716000D02*
X221488000Y-77724000D01*
X221996000Y-76962000D02*
X221996000Y-77216000D01*
X221996000Y-77216000D02*
X221488000Y-77724000D01*
X221488000Y-77724000D02*
X220996000Y-78216000D01*
X220996000Y-78216000D02*
X219370000Y-78216000D01*
X221996000Y-75438000D02*
X221996000Y-76200000D01*
X221996000Y-76200000D02*
X221996000Y-76962000D01*
D11*
X219370000Y-77216000D02*
X217932000Y-77216000D01*
X217932000Y-77216000D02*
X217678000Y-76962000D01*
X217678000Y-76962000D02*
X217678000Y-76454000D01*
X217678000Y-76454000D02*
X217916000Y-76216000D01*
X217916000Y-76216000D02*
X219370000Y-76216000D01*
X219370000Y-77716000D02*
X219370000Y-77216000D01*
X219370000Y-78216000D02*
X219370000Y-77716000D01*
X217666000Y-79756000D02*
X217830000Y-79756000D01*
X217830000Y-79756000D02*
X219370000Y-78216000D01*
D44*
X153670000Y-83304000D02*
X153670000Y-83566000D01*
X154686000Y-85356000D02*
X154686000Y-85090000D01*
X154686000Y-85090000D02*
X153670000Y-84074000D01*
X153416000Y-84074000D02*
X153416000Y-83312000D01*
X153416000Y-83312000D02*
X153424000Y-83304000D01*
X153424000Y-83304000D02*
X153670000Y-83304000D01*
X153670000Y-83304000D02*
X154772000Y-83304000D01*
X162274000Y-91948000D02*
X162274000Y-90900000D01*
X162274000Y-90900000D02*
X160528000Y-89154000D01*
X160528000Y-89154000D02*
X154432000Y-89154000D01*
X154432000Y-89154000D02*
X153416000Y-88138000D01*
X153416000Y-88138000D02*
X153416000Y-84074000D01*
X153416000Y-84074000D02*
X153686000Y-83804000D01*
X153686000Y-83804000D02*
X154772000Y-83804000D01*
X184983000Y-95941000D02*
X183642000Y-97282000D01*
X195592000Y-97282000D02*
X192233000Y-97282000D01*
X192233000Y-97282000D02*
X192192000Y-97241000D01*
D45*
X179070000Y-90424000D02*
X180594000Y-90424000D01*
X180594000Y-90424000D02*
X183642000Y-93472000D01*
X183642000Y-93472000D02*
X183642000Y-97282000D01*
X183642000Y-97282000D02*
X183642000Y-109474000D01*
X183642000Y-109474000D02*
X188722000Y-114554000D01*
X163830000Y-93980000D02*
X163830000Y-93726000D01*
X163830000Y-93726000D02*
X167132000Y-90424000D01*
X167132000Y-90424000D02*
X179070000Y-90424000D01*
X163830000Y-99127000D02*
X163830000Y-93980000D01*
X163830000Y-93980000D02*
X163830000Y-93504000D01*
X163830000Y-93504000D02*
X162274000Y-91948000D01*
D44*
X157226000Y-77736000D02*
X159004000Y-77736000D01*
X159004000Y-77736000D02*
X159258000Y-77990000D01*
X154940000Y-77790000D02*
X157172000Y-77790000D01*
X157172000Y-77790000D02*
X157226000Y-77736000D01*
X152892000Y-77978000D02*
X154752000Y-77978000D01*
X154752000Y-77978000D02*
X154940000Y-77790000D01*
D11*
X154874000Y-77724000D02*
X154940000Y-77790000D01*
X159172000Y-82804000D02*
X160782000Y-82804000D01*
X160782000Y-82804000D02*
X161036000Y-82550000D01*
X161036000Y-82550000D02*
X161036000Y-81268000D01*
X161036000Y-81268000D02*
X159258000Y-79490000D01*
X159172000Y-83804000D02*
X159242000Y-83804000D01*
X159242000Y-83804000D02*
X159512000Y-84074000D01*
X159258000Y-84074000D02*
X159512000Y-84074000D01*
X159172000Y-83804000D02*
X159172000Y-83988000D01*
X159172000Y-83988000D02*
X159258000Y-84074000D01*
X159172000Y-83804000D02*
X159172000Y-83988000D01*
X159172000Y-83988000D02*
X159258000Y-84074000D01*
D44*
X160528000Y-85302000D02*
X160232000Y-85302000D01*
X160232000Y-85302000D02*
X159258000Y-84328000D01*
X159258000Y-84328000D02*
X159258000Y-84074000D01*
X154772000Y-81804000D02*
X154772000Y-79858000D01*
X154772000Y-79858000D02*
X154940000Y-79690000D01*
X154772000Y-81804000D02*
X154128000Y-81804000D01*
X154128000Y-81804000D02*
X152588000Y-80264000D01*
X154772000Y-81804000D02*
X152880000Y-81804000D01*
X152880000Y-81804000D02*
X152388000Y-82296000D01*
X153416000Y-124206000D02*
X153162000Y-124206000D01*
X153162000Y-124206000D02*
X152146000Y-123190000D01*
X152146000Y-123190000D02*
X152146000Y-121388000D01*
X152146000Y-124206000D02*
X143764000Y-124206000D01*
X140970000Y-124206000D02*
X136398000Y-124206000D01*
X136398000Y-124206000D02*
X135636000Y-123444000D01*
X135636000Y-123444000D02*
X135636000Y-121642000D01*
X186817000Y-120523000D02*
X186817000Y-121539000D01*
X186817000Y-121539000D02*
X184404000Y-123952000D01*
X184404000Y-123952000D02*
X183896000Y-123952000D01*
X178562000Y-124206000D02*
X162306000Y-124206000D01*
X159004000Y-124206000D02*
X153416000Y-124206000D01*
X153416000Y-124206000D02*
X152146000Y-124206000D01*
X189865000Y-117475000D02*
X186817000Y-120523000D01*
X186817000Y-120523000D02*
X184912000Y-122428000D01*
X184912000Y-122428000D02*
X182348000Y-122428000D01*
X194222000Y-110354000D02*
X193430000Y-110354000D01*
X193430000Y-110354000D02*
X191262000Y-112522000D01*
X191262000Y-112522000D02*
X191262000Y-116078000D01*
X191262000Y-116078000D02*
X189865000Y-117475000D01*
X189865000Y-117475000D02*
X189738000Y-117602000D01*
X189738000Y-117602000D02*
X180328000Y-117602000D01*
D46*
X196004000Y-84328000D02*
X196004000Y-86022000D01*
X196004000Y-86022000D02*
X200152000Y-90170000D01*
X200152000Y-90170000D02*
X200152000Y-104424000D01*
X200152000Y-104424000D02*
X194222000Y-110354000D01*
D44*
X200660000Y-74930000D02*
X201180000Y-74930000D01*
X199644000Y-78740000D02*
X200406000Y-77978000D01*
X200406000Y-77978000D02*
X201180000Y-77978000D01*
X199644000Y-77470000D02*
X199644000Y-77216000D01*
X199644000Y-77216000D02*
X200406000Y-76454000D01*
X200406000Y-76454000D02*
X201180000Y-76454000D01*
X196004000Y-84328000D02*
X198628000Y-84328000D01*
X198628000Y-84328000D02*
X199644000Y-83312000D01*
X199644000Y-83312000D02*
X199644000Y-78740000D01*
X199644000Y-78740000D02*
X199644000Y-77470000D01*
X199644000Y-77470000D02*
X199644000Y-75946000D01*
X199644000Y-75946000D02*
X200660000Y-74930000D01*
X192192000Y-96591000D02*
X193239000Y-96591000D01*
X193239000Y-96591000D02*
X195342000Y-94488000D01*
X196004000Y-84328000D02*
X196004000Y-93826000D01*
X196004000Y-93826000D02*
X195342000Y-94488000D01*
X128778000Y-115468000D02*
X128778000Y-110744000D01*
X128778000Y-110744000D02*
X128524000Y-110490000D01*
X128524000Y-108712000D02*
X128524000Y-110490000D01*
X128524000Y-110490000D02*
X130302000Y-112268000D01*
X130302000Y-112268000D02*
X131234000Y-112268000D01*
X136664000Y-112268000D02*
X134366000Y-112268000D01*
X133434000Y-112268000D02*
X134366000Y-112268000D01*
X134366000Y-112268000D02*
X134620000Y-112268000D01*
X134620000Y-112268000D02*
X136144000Y-110744000D01*
X136144000Y-110744000D02*
X136144000Y-108712000D01*
X144272000Y-110744000D02*
X144272000Y-112268000D01*
X144272000Y-112268000D02*
X146050000Y-114046000D01*
X146050000Y-114046000D02*
X146050000Y-115722000D01*
X144272000Y-108712000D02*
X144272000Y-110744000D01*
X144272000Y-110744000D02*
X145796000Y-112268000D01*
X145796000Y-112268000D02*
X147236000Y-112268000D01*
X151904000Y-112268000D02*
X149436000Y-112268000D01*
X149436000Y-112268000D02*
X150368000Y-112268000D01*
X150368000Y-112268000D02*
X151892000Y-110744000D01*
X151892000Y-110744000D02*
X151892000Y-108712000D01*
X174498000Y-114452000D02*
X174498000Y-113792000D01*
X174498000Y-113792000D02*
X176360000Y-111930000D01*
X176360000Y-111930000D02*
X176360000Y-111506000D01*
X176360000Y-111506000D02*
X177800000Y-111506000D01*
X177800000Y-111506000D02*
X179070000Y-110236000D01*
X179070000Y-110236000D02*
X179070000Y-108204000D01*
X172466000Y-111506000D02*
X170676000Y-111506000D01*
X173736000Y-111506000D02*
X174160000Y-111506000D01*
X171450000Y-108204000D02*
X171450000Y-110490000D01*
X171450000Y-110490000D02*
X172466000Y-111506000D01*
X172466000Y-111506000D02*
X173736000Y-111506000D01*
X126478000Y-115468000D02*
X126478000Y-112254000D01*
X126478000Y-112254000D02*
X125730000Y-111506000D01*
X125730000Y-111506000D02*
X125730000Y-88900000D01*
X125730000Y-88900000D02*
X126492000Y-88138000D01*
X126492000Y-88138000D02*
X133350000Y-88138000D01*
D45*
X138430000Y-77724000D02*
X136906000Y-77724000D01*
X136906000Y-77724000D02*
X133350000Y-81280000D01*
X133350000Y-81280000D02*
X133350000Y-88138000D01*
X133350000Y-88138000D02*
X136144000Y-90932000D01*
D44*
X143750000Y-115722000D02*
X143750000Y-113016000D01*
X143750000Y-113016000D02*
X141478000Y-110744000D01*
X141478000Y-110744000D02*
X141478000Y-101092000D01*
X141732000Y-96520000D02*
X141732000Y-88900000D01*
X141732000Y-88900000D02*
X142630000Y-88002000D01*
X142630000Y-88002000D02*
X142630000Y-83224000D01*
D45*
X142630000Y-83224000D02*
X147232000Y-83224000D01*
X147232000Y-83224000D02*
X151892000Y-87884000D01*
X151892000Y-87884000D02*
X151892000Y-90932000D01*
D44*
X171293000Y-80059000D02*
X168099000Y-80059000D01*
X168099000Y-80059000D02*
X167794000Y-80364000D01*
X173168000Y-78734000D02*
X172868001Y-79033999D01*
X172868001Y-79033999D02*
X172318001Y-79033999D01*
X172318001Y-79033999D02*
X171293000Y-80059000D01*
X179197000Y-79088000D02*
X178868000Y-78759000D01*
X178868000Y-78759000D02*
X174718000Y-78759000D01*
X179484000Y-79088000D02*
X179197000Y-79088000D01*
X179484000Y-79088000D02*
X179797000Y-78775000D01*
X179797000Y-78775000D02*
X180086000Y-78486000D01*
D11*
X179693000Y-78775000D02*
X179797000Y-78775000D01*
X178080000Y-77712000D02*
X178630000Y-77712000D01*
X178630000Y-77712000D02*
X179693000Y-78775000D01*
D46*
X167794000Y-83312000D02*
X168148000Y-83312000D01*
X168148000Y-83312000D02*
X170180000Y-85344000D01*
X170180000Y-85344000D02*
X170180000Y-87376000D01*
X170180000Y-87376000D02*
X171196000Y-88392000D01*
X171196000Y-88392000D02*
X177546000Y-88392000D01*
X180340000Y-88392000D02*
X181610000Y-88392000D01*
X181610000Y-88392000D02*
X185166000Y-91948000D01*
X185166000Y-91948000D02*
X185166000Y-94996000D01*
X185420000Y-97536000D02*
X185420000Y-107696000D01*
X185420000Y-107696000D02*
X188078000Y-110354000D01*
X188078000Y-110354000D02*
X188722000Y-110354000D01*
D44*
X150688000Y-80264000D02*
X150688000Y-82096000D01*
X150688000Y-82096000D02*
X150888000Y-82296000D01*
X150892000Y-77978000D02*
X150892000Y-80060000D01*
X150892000Y-80060000D02*
X150688000Y-80264000D01*
X167794000Y-83312000D02*
X167794000Y-80418000D01*
X167794000Y-80418000D02*
X163068000Y-75692000D01*
X163068000Y-75692000D02*
X153178000Y-75692000D01*
X153178000Y-75692000D02*
X150892000Y-77978000D01*
X168402000Y-77470000D02*
X168910000Y-76962000D01*
X168910000Y-76962000D02*
X169938000Y-76962000D01*
X168402000Y-79502000D02*
X168402000Y-79248000D01*
X168402000Y-79248000D02*
X168910000Y-78740000D01*
X168910000Y-78740000D02*
X169938000Y-78740000D01*
X167794000Y-83312000D02*
X167794000Y-80364000D01*
X167794000Y-80364000D02*
X168402000Y-79756000D01*
X168402000Y-79756000D02*
X168402000Y-79502000D01*
X168402000Y-79502000D02*
X168402000Y-77470000D01*
X168402000Y-77470000D02*
X168402000Y-76962000D01*
X168402000Y-76962000D02*
X168402000Y-75692000D01*
X168402000Y-75692000D02*
X168910000Y-75184000D01*
X168910000Y-75184000D02*
X169938000Y-75184000D01*
X179484000Y-79883000D02*
X179484000Y-79088000D01*
X180086000Y-78486000D02*
X181060000Y-78486000D01*
X160528000Y-86402000D02*
X163534000Y-86402000D01*
X163534000Y-86402000D02*
X166624000Y-83312000D01*
X166624000Y-83312000D02*
X167794000Y-83312000D01*
D11*
X150434000Y-80010000D02*
X150688000Y-80264000D01*
X140970000Y-117348000D02*
X140970000Y-122936000D01*
X140970000Y-122936000D02*
X143764000Y-125730000D01*
X143764000Y-125730000D02*
X196342000Y-125730000D01*
X196342000Y-125730000D02*
X200914000Y-121158000D01*
X200914000Y-121158000D02*
X200914000Y-120650000D01*
X200914000Y-120650000D02*
X203010000Y-118554000D01*
X203010000Y-118554000D02*
X207860000Y-118554000D01*
X138950000Y-115316000D02*
X138950000Y-115328000D01*
X138950000Y-115328000D02*
X140970000Y-117348000D01*
X135636000Y-118642000D02*
X135636000Y-118630000D01*
X135636000Y-118630000D02*
X138950000Y-115316000D01*
X135636000Y-118642000D02*
X138938000Y-118642000D01*
X131078000Y-115468000D02*
X132994000Y-115468000D01*
X132994000Y-115468000D02*
X135636000Y-118110000D01*
X135636000Y-118110000D02*
X135636000Y-118642000D01*
X131078000Y-115468000D02*
X134172000Y-115468000D01*
X134172000Y-115468000D02*
X134832000Y-114808000D01*
X157226000Y-116840000D02*
X157226000Y-120650000D01*
X157226000Y-120650000D02*
X161798000Y-125222000D01*
X161798000Y-125222000D02*
X196088000Y-125222000D01*
X196088000Y-125222000D02*
X199898000Y-121412000D01*
X199898000Y-121412000D02*
X199898000Y-117348000D01*
X199898000Y-117348000D02*
X202892000Y-114354000D01*
X202892000Y-114354000D02*
X207860000Y-114354000D01*
X156222000Y-115316000D02*
X156222000Y-115836000D01*
X156222000Y-115836000D02*
X157226000Y-116840000D01*
X152146000Y-118388000D02*
X153150000Y-118388000D01*
X153150000Y-118388000D02*
X156222000Y-115316000D01*
X152146000Y-118388000D02*
X154940000Y-118388000D01*
X148350000Y-115722000D02*
X150012000Y-115722000D01*
X150012000Y-115722000D02*
X152146000Y-117856000D01*
X152146000Y-117856000D02*
X152146000Y-118388000D01*
X148350000Y-115722000D02*
X151028000Y-115722000D01*
X151028000Y-115722000D02*
X151688000Y-115062000D01*
X151688000Y-115062000D02*
X151850000Y-115062000D01*
X202680000Y-81534000D02*
X202680000Y-88174000D01*
X202680000Y-88174000D02*
X207860000Y-93354000D01*
X205834000Y-76327000D02*
X205834000Y-78613000D01*
X202680000Y-79502000D02*
X202680000Y-81534000D01*
X202680000Y-81534000D02*
X202680000Y-81776000D01*
X202680000Y-81776000D02*
X202692000Y-81788000D01*
X202680000Y-79502000D02*
X203454000Y-79502000D01*
X203454000Y-79502000D02*
X204343000Y-78613000D01*
X204343000Y-78613000D02*
X205834000Y-78613000D01*
X204216000Y-81534000D02*
X204216000Y-85510000D01*
X204216000Y-85510000D02*
X207860000Y-89154000D01*
X203194000Y-75940000D02*
X203454000Y-76200000D01*
X204216000Y-79756000D02*
X204216000Y-81534000D01*
X205834000Y-73787000D02*
X205359000Y-73787000D01*
X205359000Y-73787000D02*
X203454000Y-75692000D01*
X203454000Y-75692000D02*
X203442000Y-75692000D01*
X203442000Y-75692000D02*
X203194000Y-75940000D01*
X203194000Y-75940000D02*
X202680000Y-76454000D01*
X179070000Y-73406000D02*
X180965000Y-73406000D01*
X180965000Y-73406000D02*
X182843000Y-75284000D01*
X182843000Y-75284000D02*
X197278182Y-75284000D01*
X218693000Y-69809000D02*
X223596051Y-74712051D01*
X223596051Y-74712051D02*
X223596051Y-91942227D01*
X223568000Y-91970278D02*
X223568000Y-95746000D01*
X197278182Y-75284000D02*
X202753182Y-69809000D01*
X202753182Y-69809000D02*
X218693000Y-69809000D01*
X223596051Y-91942227D02*
X223568000Y-91970278D01*
X223568000Y-95746000D02*
X213360000Y-105954000D01*
X174244000Y-76712000D02*
X173224000Y-76712000D01*
X173224000Y-76712000D02*
X172974000Y-76962000D01*
X174980000Y-76712000D02*
X174244000Y-76712000D01*
X174244000Y-76712000D02*
X174240000Y-76712000D01*
X174240000Y-76712000D02*
X173228000Y-77724000D01*
X173228000Y-77724000D02*
X172466000Y-77724000D01*
X174498000Y-76708000D02*
X174976000Y-76708000D01*
X174976000Y-76708000D02*
X174980000Y-76712000D01*
X171438000Y-78740000D02*
X171450000Y-78740000D01*
X171450000Y-78740000D02*
X172466000Y-77724000D01*
X218157721Y-71034022D02*
X222396008Y-75272310D01*
X214910000Y-89154000D02*
X213360000Y-89154000D01*
X222396008Y-81667992D02*
X214910000Y-89154000D01*
X179282956Y-76559044D02*
X197700253Y-76559044D01*
X178080000Y-77212000D02*
X178630000Y-77212000D01*
X178630000Y-77212000D02*
X179282956Y-76559044D01*
X197700253Y-76559044D02*
X203225275Y-71034022D01*
X203225275Y-71034022D02*
X218157721Y-71034022D01*
X222396008Y-75272310D02*
X222396008Y-81667992D01*
X222696019Y-75148043D02*
X222696019Y-84017981D01*
X218281988Y-70734011D02*
X222696019Y-75148043D01*
X203101007Y-70734011D02*
X218281988Y-70734011D01*
X222696019Y-84017981D02*
X214759999Y-91954001D01*
X197589019Y-76245999D02*
X203101007Y-70734011D01*
X179877999Y-76245999D02*
X197589019Y-76245999D01*
X214759999Y-91954001D02*
X213360000Y-93354000D01*
X179578000Y-75946000D02*
X179877999Y-76245999D01*
X174980000Y-77212000D02*
X176026000Y-77212000D01*
X176026000Y-77212000D02*
X176276000Y-76962000D01*
X197526718Y-75884022D02*
X202976739Y-70434000D01*
X222996030Y-87917970D02*
X214759999Y-96154001D01*
X218406254Y-70434000D02*
X222996030Y-75023775D01*
X180532022Y-75884022D02*
X197526718Y-75884022D01*
X179324000Y-74676000D02*
X180532022Y-75884022D01*
X202976739Y-70434000D02*
X218406254Y-70434000D01*
X177292000Y-74676000D02*
X179324000Y-74676000D01*
X222996030Y-75023775D02*
X222996030Y-87917970D01*
X214759999Y-96154001D02*
X213360000Y-97554000D01*
X171438000Y-75184000D02*
X172212000Y-75184000D01*
X172212000Y-75184000D02*
X172720000Y-74676000D01*
X172720000Y-74676000D02*
X177292000Y-74676000D01*
X177292000Y-74676000D02*
X177800000Y-75184000D01*
X178080000Y-76212000D02*
X178080000Y-75464000D01*
X178080000Y-75464000D02*
X177800000Y-75184000D01*
X181248011Y-75584011D02*
X197402450Y-75584011D01*
X214759999Y-100354001D02*
X213360000Y-101754000D01*
X223296041Y-74887042D02*
X223296041Y-91817959D01*
X179832000Y-74168000D02*
X181248011Y-75584011D01*
X223296041Y-91817959D02*
X214759999Y-100354001D01*
X218518000Y-70109000D02*
X223296041Y-74887042D01*
X197402450Y-75584011D02*
X202877461Y-70109000D01*
X202877461Y-70109000D02*
X218518000Y-70109000D01*
X174980000Y-76212000D02*
X174510000Y-76212000D01*
X174510000Y-76212000D02*
X173736000Y-75438000D01*
X171438000Y-76962000D02*
X171704000Y-76962000D01*
X171704000Y-76962000D02*
X172454000Y-76212000D01*
X172454000Y-76212000D02*
X174980000Y-76212000D01*
D44*
X187792000Y-95291000D02*
X187792000Y-91526000D01*
X187792000Y-91526000D02*
X185504000Y-89238000D01*
X185504000Y-89238000D02*
X185504000Y-84328000D01*
X168148000Y-98298000D02*
X168148000Y-99568000D01*
X168148000Y-99568000D02*
X167386000Y-100330000D01*
X167386000Y-100330000D02*
X167386000Y-112776000D01*
X167386000Y-112776000D02*
X169062000Y-114452000D01*
X169062000Y-114452000D02*
X172198000Y-114452000D01*
D45*
X179070000Y-98044000D02*
X168402000Y-98044000D01*
X168402000Y-98044000D02*
X168148000Y-98298000D01*
X161290000Y-98298000D02*
X160461000Y-99127000D01*
X160461000Y-99127000D02*
X158750000Y-99127000D01*
X151892000Y-98552000D02*
X158175000Y-98552000D01*
X158175000Y-98552000D02*
X158750000Y-99127000D01*
X136144000Y-98552000D02*
X151892000Y-98552000D01*
D11*
X216166000Y-79756000D02*
X216166000Y-80022000D01*
X216166000Y-80022000D02*
X217170000Y-81026000D01*
X217170000Y-81026000D02*
X217170000Y-81038000D01*
X217170000Y-81038000D02*
X217932000Y-81800000D01*
X216166000Y-79756000D02*
X216166000Y-81558000D01*
X216166000Y-81558000D02*
X216408000Y-81800000D01*
X216166000Y-79756000D02*
X215900000Y-79756000D01*
X215900000Y-79756000D02*
X214884000Y-80772000D01*
X214884000Y-80772000D02*
X214884000Y-81800000D01*
X216166000Y-79756000D02*
X216166000Y-79412000D01*
X216166000Y-79412000D02*
X214970000Y-78216000D01*
X214884000Y-83300000D02*
X214618000Y-83300000D01*
X214618000Y-83300000D02*
X213614000Y-82296000D01*
X213614000Y-82296000D02*
X213614000Y-78232000D01*
X213614000Y-75438000D02*
X214392000Y-76216000D01*
X214392000Y-76216000D02*
X214970000Y-76216000D01*
X214970000Y-76216000D02*
X214970000Y-75270000D01*
X214970000Y-75270000D02*
X212217000Y-72517000D01*
X212217000Y-72517000D02*
X211234000Y-72517000D01*
X212852000Y-78740000D02*
X212852000Y-79502000D01*
X212852000Y-79502000D02*
X213106000Y-79756000D01*
X213106000Y-79756000D02*
X213106000Y-84074000D01*
X213106000Y-84074000D02*
X214122000Y-85090000D01*
X211234000Y-75057000D02*
X211963000Y-75057000D01*
X211963000Y-75057000D02*
X212852000Y-75946000D01*
X212852000Y-75946000D02*
X212852000Y-76200000D01*
X214122000Y-85090000D02*
X217170000Y-85090000D01*
X217170000Y-85090000D02*
X217932000Y-84328000D01*
X217932000Y-84328000D02*
X217932000Y-83300000D01*
X214970000Y-76716000D02*
X214130000Y-76716000D01*
X214130000Y-76716000D02*
X212471000Y-75057000D01*
X212471000Y-75057000D02*
X211234000Y-75057000D01*
X211234000Y-78613000D02*
X211455000Y-78613000D01*
X211455000Y-78613000D02*
X212598000Y-79756000D01*
X212598000Y-79756000D02*
X212598000Y-84836000D01*
X214884000Y-84328000D02*
X215138000Y-84074000D01*
X215138000Y-84074000D02*
X215634000Y-84074000D01*
X215634000Y-84074000D02*
X216408000Y-83300000D01*
X214970000Y-77216000D02*
X213360000Y-77216000D01*
X213360000Y-77216000D02*
X211963000Y-78613000D01*
X211963000Y-78613000D02*
X211234000Y-78613000D01*
X205834000Y-72517000D02*
X204343000Y-72517000D01*
X204343000Y-72517000D02*
X202680000Y-74180000D01*
X202680000Y-74180000D02*
X202680000Y-74930000D01*
X202680000Y-77978000D02*
X202680000Y-77736000D01*
X202680000Y-77736000D02*
X205359000Y-75057000D01*
X205359000Y-75057000D02*
X205834000Y-75057000D01*
X159172000Y-82304000D02*
X157488000Y-82304000D01*
X157488000Y-82304000D02*
X157226000Y-82042000D01*
X157226000Y-82042000D02*
X157226000Y-79236000D01*
D44*
X162914000Y-83312000D02*
X159180000Y-83312000D01*
X159180000Y-83312000D02*
X159172000Y-83304000D01*
D11*
X174084000Y-79883000D02*
X174084000Y-78326000D01*
X174084000Y-78326000D02*
X174698000Y-77712000D01*
X174698000Y-77712000D02*
X174980000Y-77712000D01*
X171958000Y-80476000D02*
X171958000Y-80264000D01*
X171958000Y-80264000D02*
X172339000Y-79883000D01*
X172339000Y-79883000D02*
X174084000Y-79883000D01*
M02*
