G04 #@! TF.FileFunction,Soldermask,Top*
%FSLAX46Y46*%
G04 Gerber Fmt 4.6, Leading zero omitted, Abs format (unit mm)*
G04 Created by KiCad (PCBNEW 4.0.4-stable) date Saturday, January 07, 2017 'PMt' 11:38:11 PM*
%MOMM*%
%LPD*%
G01*
G04 APERTURE LIST*
%ADD10C,0.100000*%
%ADD11R,1.900000X1.900000*%
%ADD12C,2.400000*%
%ADD13R,2.300000X1.200000*%
%ADD14R,2.400000X2.100000*%
%ADD15R,2.100000X2.400000*%
%ADD16R,2.550000X0.850000*%
%ADD17R,1.920000X2.180000*%
%ADD18C,11.400000*%
%ADD19C,1.100000*%
%ADD20R,2.400000X2.000000*%
G04 APERTURE END LIST*
D10*
D11*
X33650000Y-14800000D03*
X36950000Y-14800000D03*
D12*
X8000000Y-19400000D03*
X8000000Y-22900000D03*
X8000000Y-30850000D03*
X8000000Y-34350000D03*
X8000000Y-37850000D03*
X8000000Y-41350000D03*
X37300000Y-8000000D03*
X33800000Y-8000000D03*
X8050000Y-48500000D03*
X8050000Y-52000000D03*
X8000000Y-59050000D03*
X8000000Y-62550000D03*
X8000000Y-69550000D03*
X8000000Y-73050000D03*
X8000000Y-80050000D03*
X8000000Y-83550000D03*
X8000000Y-90550000D03*
X8000000Y-94050000D03*
X55500000Y-50500000D03*
X55500000Y-47000000D03*
X55500000Y-61050000D03*
X55500000Y-57550000D03*
X55500000Y-71550000D03*
X55500000Y-68050000D03*
X55500000Y-82050000D03*
X55500000Y-78550000D03*
X55500000Y-92550000D03*
X55500000Y-89050000D03*
D13*
X19750000Y-36250000D03*
X19750000Y-34350000D03*
X16750000Y-35300000D03*
D14*
X37300000Y-17300000D03*
X33300000Y-17300000D03*
X37300000Y-12250000D03*
X33300000Y-12250000D03*
X16200000Y-38700000D03*
X20200000Y-38700000D03*
D15*
X39800000Y-48150000D03*
X39800000Y-52150000D03*
X39800000Y-58750000D03*
X39800000Y-62750000D03*
X39800000Y-69650000D03*
X39800000Y-73650000D03*
X39800000Y-80150000D03*
X39800000Y-84150000D03*
X39800000Y-90900000D03*
X39800000Y-94900000D03*
D16*
X26425000Y-17605000D03*
X26425000Y-16335000D03*
X26425000Y-15065000D03*
X26425000Y-13795000D03*
X20675000Y-13795000D03*
X20675000Y-15065000D03*
X20675000Y-16335000D03*
X20675000Y-17605000D03*
D17*
X26085000Y-49600000D03*
X35615000Y-49600000D03*
X26085000Y-52140000D03*
X26085000Y-47060000D03*
X35615000Y-47060000D03*
X35615000Y-52140000D03*
X26385000Y-60200000D03*
X35915000Y-60200000D03*
X26385000Y-62740000D03*
X26385000Y-57660000D03*
X35915000Y-57660000D03*
X35915000Y-62740000D03*
X26385000Y-71100000D03*
X35915000Y-71100000D03*
X26385000Y-73640000D03*
X26385000Y-68560000D03*
X35915000Y-68560000D03*
X35915000Y-73640000D03*
X26385000Y-81650000D03*
X35915000Y-81650000D03*
X26385000Y-84190000D03*
X26385000Y-79110000D03*
X35915000Y-79110000D03*
X35915000Y-84190000D03*
X26385000Y-92350000D03*
X35915000Y-92350000D03*
X26385000Y-94890000D03*
X26385000Y-89810000D03*
X35915000Y-89810000D03*
X35915000Y-94890000D03*
D18*
X7800000Y-7300000D03*
D19*
X11925000Y-7300000D03*
X10726815Y-10226815D03*
X7800000Y-11425000D03*
X4873185Y-10226815D03*
X3675000Y-7300000D03*
X4873185Y-4373185D03*
X7800000Y-3175000D03*
X10726815Y-4373185D03*
D18*
X7323185Y-106823185D03*
D19*
X11448185Y-106823185D03*
X10250000Y-109750000D03*
X7323185Y-110948185D03*
X4396370Y-109750000D03*
X3198185Y-106823185D03*
X4396370Y-103896370D03*
X7323185Y-102698185D03*
X10250000Y-103896370D03*
D18*
X56223185Y-7273185D03*
D19*
X60348185Y-7273185D03*
X59150000Y-10200000D03*
X56223185Y-11398185D03*
X53296370Y-10200000D03*
X52098185Y-7273185D03*
X53296370Y-4346370D03*
X56223185Y-3148185D03*
X59150000Y-4346370D03*
D18*
X56250000Y-106875000D03*
D19*
X60375000Y-106875000D03*
X59176815Y-109801815D03*
X56250000Y-111000000D03*
X53323185Y-109801815D03*
X52125000Y-106875000D03*
X53323185Y-103948185D03*
X56250000Y-102750000D03*
X59176815Y-103948185D03*
D20*
X25700000Y-20000000D03*
X21700000Y-20000000D03*
M02*
