M48
;DRILL file {KiCad 4.0.4-stable} date Sunday, January 08, 2017 'AMt' 04:40:21 AM
;FORMAT={-:-/ absolute / metric / decimal}
FMAT,2
METRIC,TZ
T1C0.400
T2C0.500
T3C0.600
T4C0.762
T5C1.200
T6C5.500
%
G90
G05
M71
T1
X18.7Y-38.7
X21.2Y-34.35
X22.25Y-15.05
X22.25Y-16.3
X24.85Y-15.1
X24.85Y-16.35
X31.5Y-21.75
X38.25Y-15.
X40.2Y-71.5
X40.45Y-50.15
X40.75Y-81.9
X40.95Y-60.5
X43.25Y-71.65
X43.25Y-94.8
X43.35Y-81.85
X43.55Y-60.25
X43.7Y-50.4
X45.6Y-82.8
X45.7Y-72.7
X45.75Y-61.25
X45.85Y-51.35
T2
X20.Y-20.
T3
X3.198Y-106.823
X3.675Y-7.3
X4.396Y-103.896
X4.396Y-109.75
X4.873Y-4.373
X4.873Y-10.227
X7.323Y-102.698
X7.323Y-110.948
X7.8Y-3.175
X7.8Y-11.425
X10.25Y-103.896
X10.25Y-109.75
X10.727Y-4.373
X10.727Y-10.227
X11.448Y-106.823
X11.925Y-7.3
X52.098Y-7.273
X52.125Y-106.875
X53.296Y-4.346
X53.296Y-10.2
X53.323Y-103.948
X53.323Y-109.802
X56.223Y-3.148
X56.223Y-11.398
X56.25Y-102.75
X56.25Y-111.
X59.15Y-4.346
X59.15Y-10.2
X59.177Y-103.948
X59.177Y-109.802
X60.348Y-7.273
X60.375Y-106.875
T4
X26.085Y-47.06
X26.085Y-49.6
X26.085Y-52.14
X26.385Y-57.66
X26.385Y-60.2
X26.385Y-62.74
X26.385Y-68.56
X26.385Y-71.1
X26.385Y-73.64
X26.385Y-79.11
X26.385Y-81.65
X26.385Y-84.19
X26.385Y-89.81
X26.385Y-92.35
X26.385Y-94.89
X35.615Y-47.06
X35.615Y-49.6
X35.615Y-52.14
X35.915Y-57.66
X35.915Y-60.2
X35.915Y-62.74
X35.915Y-68.56
X35.915Y-71.1
X35.915Y-73.64
X35.915Y-79.11
X35.915Y-81.65
X35.915Y-84.19
X35.915Y-89.81
X35.915Y-92.35
X35.915Y-94.89
T5
X8.Y-19.4
X8.Y-22.9
X8.Y-30.85
X8.Y-34.35
X8.Y-37.85
X8.Y-41.35
X8.Y-59.05
X8.Y-62.55
X8.Y-69.55
X8.Y-73.05
X8.Y-80.05
X8.Y-83.55
X8.Y-90.55
X8.Y-94.05
X8.05Y-48.5
X8.05Y-52.
X33.8Y-8.
X37.3Y-8.
X55.5Y-47.
X55.5Y-50.5
X55.5Y-57.55
X55.5Y-61.05
X55.5Y-68.05
X55.5Y-71.55
X55.5Y-78.55
X55.5Y-82.05
X55.5Y-89.05
X55.5Y-92.55
T6
X7.323Y-106.823
X7.8Y-7.3
X56.223Y-7.273
X56.25Y-106.875
T0
M30
