G04 #@! TF.FileFunction,Paste,Top*
%FSLAX46Y46*%
G04 Gerber Fmt 4.6, Leading zero omitted, Abs format (unit mm)*
G04 Created by KiCad (PCBNEW 4.0.4-stable) date Sunday, January 08, 2017 'AMt' 04:40:19 AM*
%MOMM*%
%LPD*%
G01*
G04 APERTURE LIST*
%ADD10C,0.100000*%
%ADD11R,1.500000X1.500000*%
%ADD12R,1.900000X0.800000*%
%ADD13R,2.000000X1.700000*%
%ADD14R,1.700000X2.000000*%
%ADD15R,2.150000X0.450000*%
%ADD16R,2.000000X1.600000*%
G04 APERTURE END LIST*
D10*
D11*
X33650000Y-14800000D03*
X36950000Y-14800000D03*
D12*
X19750000Y-36250000D03*
X19750000Y-34350000D03*
X16750000Y-35300000D03*
D13*
X37300000Y-17300000D03*
X33300000Y-17300000D03*
X37300000Y-12250000D03*
X33300000Y-12250000D03*
X16200000Y-38700000D03*
X20200000Y-38700000D03*
D14*
X39800000Y-48150000D03*
X39800000Y-52150000D03*
X39800000Y-58750000D03*
X39800000Y-62750000D03*
X39800000Y-69650000D03*
X39800000Y-73650000D03*
X39800000Y-80150000D03*
X39800000Y-84150000D03*
X39800000Y-90900000D03*
X39800000Y-94900000D03*
D15*
X26425000Y-17605000D03*
X26425000Y-16335000D03*
X26425000Y-15065000D03*
X26425000Y-13795000D03*
X20675000Y-13795000D03*
X20675000Y-15065000D03*
X20675000Y-16335000D03*
X20675000Y-17605000D03*
D16*
X25700000Y-20000000D03*
X21700000Y-20000000D03*
D12*
X44400000Y-49450000D03*
X44400000Y-51350000D03*
X47400000Y-50400000D03*
X44300000Y-59300000D03*
X44300000Y-61200000D03*
X47300000Y-60250000D03*
X44250000Y-70750000D03*
X44250000Y-72650000D03*
X47250000Y-71700000D03*
X44150000Y-80900000D03*
X44150000Y-82800000D03*
X47150000Y-81850000D03*
X44700000Y-92900000D03*
X44700000Y-94800000D03*
X47700000Y-93850000D03*
M02*
