G04 #@! TF.FileFunction,Copper,L1,Top,Signal*
%FSLAX46Y46*%
G04 Gerber Fmt 4.6, Leading zero omitted, Abs format (unit mm)*
G04 Created by KiCad (PCBNEW 4.0.4-stable) date Saturday, January 07, 2017 'PMt' 11:38:11 PM*
%MOMM*%
%LPD*%
G01*
G04 APERTURE LIST*
%ADD10C,0.100000*%
%ADD11R,1.500000X1.500000*%
%ADD12C,2.000000*%
%ADD13R,1.900000X0.800000*%
%ADD14R,2.000000X1.700000*%
%ADD15R,1.700000X2.000000*%
%ADD16R,2.150000X0.450000*%
%ADD17R,1.520000X1.780000*%
%ADD18C,11.000000*%
%ADD19C,0.700000*%
%ADD20R,2.000000X1.600000*%
%ADD21C,0.600000*%
%ADD22C,1.000000*%
%ADD23C,0.500000*%
%ADD24C,1.000000*%
%ADD25C,2.000000*%
%ADD26C,3.000000*%
G04 APERTURE END LIST*
D10*
D11*
X33650000Y-14800000D03*
X36950000Y-14800000D03*
D12*
X8000000Y-19400000D03*
X8000000Y-22900000D03*
X8000000Y-30850000D03*
X8000000Y-34350000D03*
X8000000Y-37850000D03*
X8000000Y-41350000D03*
X37300000Y-8000000D03*
X33800000Y-8000000D03*
X8050000Y-48500000D03*
X8050000Y-52000000D03*
X8000000Y-59050000D03*
X8000000Y-62550000D03*
X8000000Y-69550000D03*
X8000000Y-73050000D03*
X8000000Y-80050000D03*
X8000000Y-83550000D03*
X8000000Y-90550000D03*
X8000000Y-94050000D03*
X55500000Y-50500000D03*
X55500000Y-47000000D03*
X55500000Y-61050000D03*
X55500000Y-57550000D03*
X55500000Y-71550000D03*
X55500000Y-68050000D03*
X55500000Y-82050000D03*
X55500000Y-78550000D03*
X55500000Y-92550000D03*
X55500000Y-89050000D03*
D13*
X19750000Y-36250000D03*
X19750000Y-34350000D03*
X16750000Y-35300000D03*
D14*
X37300000Y-17300000D03*
X33300000Y-17300000D03*
X37300000Y-12250000D03*
X33300000Y-12250000D03*
X16200000Y-38700000D03*
X20200000Y-38700000D03*
D15*
X39800000Y-48150000D03*
X39800000Y-52150000D03*
X39800000Y-58750000D03*
X39800000Y-62750000D03*
X39800000Y-69650000D03*
X39800000Y-73650000D03*
X39800000Y-80150000D03*
X39800000Y-84150000D03*
X39800000Y-90900000D03*
X39800000Y-94900000D03*
D16*
X26425000Y-17605000D03*
X26425000Y-16335000D03*
X26425000Y-15065000D03*
X26425000Y-13795000D03*
X20675000Y-13795000D03*
X20675000Y-15065000D03*
X20675000Y-16335000D03*
X20675000Y-17605000D03*
D17*
X26085000Y-49600000D03*
X35615000Y-49600000D03*
X26085000Y-52140000D03*
X26085000Y-47060000D03*
X35615000Y-47060000D03*
X35615000Y-52140000D03*
X26385000Y-60200000D03*
X35915000Y-60200000D03*
X26385000Y-62740000D03*
X26385000Y-57660000D03*
X35915000Y-57660000D03*
X35915000Y-62740000D03*
X26385000Y-71100000D03*
X35915000Y-71100000D03*
X26385000Y-73640000D03*
X26385000Y-68560000D03*
X35915000Y-68560000D03*
X35915000Y-73640000D03*
X26385000Y-81650000D03*
X35915000Y-81650000D03*
X26385000Y-84190000D03*
X26385000Y-79110000D03*
X35915000Y-79110000D03*
X35915000Y-84190000D03*
X26385000Y-92350000D03*
X35915000Y-92350000D03*
X26385000Y-94890000D03*
X26385000Y-89810000D03*
X35915000Y-89810000D03*
X35915000Y-94890000D03*
D18*
X7800000Y-7300000D03*
D19*
X11925000Y-7300000D03*
X10726815Y-10226815D03*
X7800000Y-11425000D03*
X4873185Y-10226815D03*
X3675000Y-7300000D03*
X4873185Y-4373185D03*
X7800000Y-3175000D03*
X10726815Y-4373185D03*
D18*
X7323185Y-106823185D03*
D19*
X11448185Y-106823185D03*
X10250000Y-109750000D03*
X7323185Y-110948185D03*
X4396370Y-109750000D03*
X3198185Y-106823185D03*
X4396370Y-103896370D03*
X7323185Y-102698185D03*
X10250000Y-103896370D03*
D18*
X56223185Y-7273185D03*
D19*
X60348185Y-7273185D03*
X59150000Y-10200000D03*
X56223185Y-11398185D03*
X53296370Y-10200000D03*
X52098185Y-7273185D03*
X53296370Y-4346370D03*
X56223185Y-3148185D03*
X59150000Y-4346370D03*
D18*
X56250000Y-106875000D03*
D19*
X60375000Y-106875000D03*
X59176815Y-109801815D03*
X56250000Y-111000000D03*
X53323185Y-109801815D03*
X52125000Y-106875000D03*
X53323185Y-103948185D03*
X56250000Y-102750000D03*
X59176815Y-103948185D03*
D20*
X25700000Y-20000000D03*
X21700000Y-20000000D03*
D21*
X31500000Y-21750000D03*
X38250000Y-15000000D03*
D22*
X20000000Y-20000000D03*
D21*
X21200000Y-34350000D03*
X18700000Y-38700000D03*
X24850000Y-16350000D03*
X24850000Y-15100000D03*
X22250000Y-16300000D03*
X22250000Y-15050000D03*
D23*
X33300000Y-17300000D02*
X33300000Y-15150000D01*
X33300000Y-15150000D02*
X33650000Y-14800000D01*
X30650000Y-22600000D02*
X31200000Y-22050000D01*
X31050000Y-44800000D02*
X31050000Y-22200000D01*
X31200000Y-22050000D02*
X31500000Y-21750000D01*
X31050000Y-22200000D02*
X31200000Y-22050000D01*
X26700000Y-22600000D02*
X30650000Y-22600000D01*
X31050000Y-44800000D02*
X31050000Y-53550000D01*
X31050000Y-46295000D02*
X31050000Y-44800000D01*
X35615000Y-49600000D02*
X34355000Y-49600000D01*
X34355000Y-49600000D02*
X31050000Y-46295000D01*
X31050000Y-53550000D02*
X31050000Y-64200000D01*
X35915000Y-60200000D02*
X34655000Y-60200000D01*
X34655000Y-60200000D02*
X31050000Y-56595000D01*
X31050000Y-56595000D02*
X31050000Y-53550000D01*
X31050000Y-64200000D02*
X31050000Y-74050000D01*
X35915000Y-71100000D02*
X34655000Y-71100000D01*
X31050000Y-67495000D02*
X31050000Y-64200000D01*
X34655000Y-71100000D02*
X31050000Y-67495000D01*
X31050000Y-74050000D02*
X31050000Y-88745000D01*
X35915000Y-81650000D02*
X34655000Y-81650000D01*
X34655000Y-81650000D02*
X31050000Y-78045000D01*
X31050000Y-78045000D02*
X31050000Y-74050000D01*
X31050000Y-88745000D02*
X34655000Y-92350000D01*
X34655000Y-92350000D02*
X35915000Y-92350000D01*
X26700000Y-22650000D02*
X16750000Y-32600000D01*
X16750000Y-32600000D02*
X16750000Y-35300000D01*
X26700000Y-22600000D02*
X26700000Y-22650000D01*
X26700000Y-22600000D02*
X16250000Y-22600000D01*
X16250000Y-22600000D02*
X8000000Y-30850000D01*
X36950000Y-14800000D02*
X38050000Y-14800000D01*
X38050000Y-14800000D02*
X38250000Y-15000000D01*
X37300000Y-12250000D02*
X37300000Y-14450000D01*
X37300000Y-14450000D02*
X36950000Y-14800000D01*
X37300000Y-8000000D02*
X37300000Y-12250000D01*
D24*
X8000000Y-19400000D02*
X17400000Y-19400000D01*
X17400000Y-19400000D02*
X19195000Y-17605000D01*
X19195000Y-17605000D02*
X20675000Y-17605000D01*
D23*
X21700000Y-20000000D02*
X20000000Y-20000000D01*
X19750000Y-34350000D02*
X21200000Y-34350000D01*
X20200000Y-38700000D02*
X18700000Y-38700000D01*
X26425000Y-16335000D02*
X24865000Y-16335000D01*
X24865000Y-16335000D02*
X24850000Y-16350000D01*
X26425000Y-15065000D02*
X24885000Y-15065000D01*
X24885000Y-15065000D02*
X24850000Y-15100000D01*
X20675000Y-16335000D02*
X22215000Y-16335000D01*
X22215000Y-16335000D02*
X22250000Y-16300000D01*
X20675000Y-15065000D02*
X22235000Y-15065000D01*
X22235000Y-15065000D02*
X22250000Y-15050000D01*
X8000000Y-34350000D02*
X12350000Y-38700000D01*
X12350000Y-38700000D02*
X16200000Y-38700000D01*
X19750000Y-36250000D02*
X18650000Y-36250000D01*
X18650000Y-36250000D02*
X16200000Y-38700000D01*
D25*
X26085000Y-52140000D02*
X24015000Y-52140000D01*
X24015000Y-52140000D02*
X23964999Y-52190001D01*
X22840001Y-47009999D02*
X22890002Y-47060000D01*
X22890002Y-47060000D02*
X26085000Y-47060000D01*
D26*
X21350000Y-48500000D02*
X21350000Y-49575002D01*
X21350000Y-49575002D02*
X23964999Y-52190001D01*
X21350000Y-48500000D02*
X22840001Y-47009999D01*
X22840001Y-47009999D02*
X23964999Y-47009999D01*
X8050000Y-48500000D02*
X21350000Y-48500000D01*
D25*
X24240001Y-62790001D02*
X26334999Y-62790001D01*
X26334999Y-62790001D02*
X26385000Y-62740000D01*
X24264999Y-57609999D02*
X26334999Y-57609999D01*
X26334999Y-57609999D02*
X26385000Y-57660000D01*
D26*
X20500000Y-59050000D02*
X24240001Y-62790001D01*
X24240001Y-62790001D02*
X24264999Y-62790001D01*
X20500000Y-59050000D02*
X21940001Y-57609999D01*
X21940001Y-57609999D02*
X24264999Y-57609999D01*
X8000000Y-59050000D02*
X20500000Y-59050000D01*
D25*
X24264999Y-73690001D02*
X26334999Y-73690001D01*
X26334999Y-73690001D02*
X26385000Y-73640000D01*
X24264999Y-68509999D02*
X26334999Y-68509999D01*
X26334999Y-68509999D02*
X26385000Y-68560000D01*
D26*
X20400000Y-69550000D02*
X20400000Y-69825002D01*
X20400000Y-69825002D02*
X24264999Y-73690001D01*
X20400000Y-69550000D02*
X21440001Y-68509999D01*
X21440001Y-68509999D02*
X24264999Y-68509999D01*
X8000000Y-69550000D02*
X20400000Y-69550000D01*
D25*
X24264999Y-84240001D02*
X26334999Y-84240001D01*
X26334999Y-84240001D02*
X26385000Y-84190000D01*
X24264999Y-79059999D02*
X26334999Y-79059999D01*
X26334999Y-79059999D02*
X26385000Y-79110000D01*
D26*
X20800000Y-80050000D02*
X20800000Y-80775002D01*
X20800000Y-80775002D02*
X24264999Y-84240001D01*
X20800000Y-80050000D02*
X21790001Y-79059999D01*
X21790001Y-79059999D02*
X24264999Y-79059999D01*
X8000000Y-80050000D02*
X20800000Y-80050000D01*
D25*
X23290001Y-94940001D02*
X23340002Y-94890000D01*
X23340002Y-94890000D02*
X26385000Y-94890000D01*
X24264999Y-89759999D02*
X26334999Y-89759999D01*
X26334999Y-89759999D02*
X26385000Y-89810000D01*
D26*
X18900000Y-90550000D02*
X23290001Y-94940001D01*
X23290001Y-94940001D02*
X24264999Y-94940001D01*
X18900000Y-90550000D02*
X19690001Y-89759999D01*
X19690001Y-89759999D02*
X24264999Y-89759999D01*
X8000000Y-90550000D02*
X18900000Y-90550000D01*
D24*
X42150000Y-25300000D02*
X42150000Y-44000000D01*
X42150000Y-45650000D02*
X42150000Y-44000000D01*
X42150000Y-44000000D02*
X42150000Y-51650000D01*
X39800000Y-48000000D02*
X42150000Y-45650000D01*
X39800000Y-48150000D02*
X39800000Y-48000000D01*
X42150000Y-54400000D02*
X42150000Y-51650000D01*
X42150000Y-51650000D02*
X42150000Y-63500000D01*
X39800000Y-58750000D02*
X39800000Y-56750000D01*
X39800000Y-56750000D02*
X42150000Y-54400000D01*
X42150000Y-63500000D02*
X42150000Y-74050000D01*
X42150000Y-65300000D02*
X42150000Y-63500000D01*
X39800000Y-69650000D02*
X39800000Y-67650000D01*
X39800000Y-67650000D02*
X42150000Y-65300000D01*
X39800000Y-80150000D02*
X39800000Y-78150000D01*
X39800000Y-78150000D02*
X42150000Y-75800000D01*
X42150000Y-74050000D02*
X42150000Y-86550000D01*
X42150000Y-75800000D02*
X42150000Y-74050000D01*
X42150000Y-86550000D02*
X39800000Y-88900000D01*
X39800000Y-88900000D02*
X39800000Y-90900000D01*
X39850000Y-23000000D02*
X42150000Y-25300000D01*
X36850000Y-20050000D02*
X39800000Y-23000000D01*
X39800000Y-23000000D02*
X39850000Y-23000000D01*
X36400000Y-20050000D02*
X36850000Y-20050000D01*
X25700000Y-20000000D02*
X27700000Y-20000000D01*
X27700000Y-20000000D02*
X27750000Y-20050000D01*
X27750000Y-20050000D02*
X36400000Y-20050000D01*
X36400000Y-20050000D02*
X37300000Y-19150000D01*
X37300000Y-19150000D02*
X37300000Y-17300000D01*
D23*
X37300000Y-17300000D02*
X35800000Y-17300000D01*
X35800000Y-17300000D02*
X35350000Y-16850000D01*
X35350000Y-16850000D02*
X35350000Y-12800000D01*
X34800000Y-12250000D02*
X33300000Y-12250000D01*
X35350000Y-12800000D02*
X34800000Y-12250000D01*
D24*
X26425000Y-17975000D02*
X26425000Y-19275000D01*
D23*
X26425000Y-17605000D02*
X26425000Y-17975000D01*
D24*
X26425000Y-19275000D02*
X25700000Y-20000000D01*
D23*
X39800000Y-52150000D02*
X35625000Y-52150000D01*
X35625000Y-52150000D02*
X35615000Y-52140000D01*
X39800000Y-62750000D02*
X35925000Y-62750000D01*
X35925000Y-62750000D02*
X35915000Y-62740000D01*
X39800000Y-73650000D02*
X35925000Y-73650000D01*
X35925000Y-73650000D02*
X35915000Y-73640000D01*
X39800000Y-84150000D02*
X35955000Y-84150000D01*
X35955000Y-84150000D02*
X35915000Y-84190000D01*
X39800000Y-94900000D02*
X35925000Y-94900000D01*
X35925000Y-94900000D02*
X35915000Y-94890000D01*
M02*
