G04 #@! TF.FileFunction,Soldermask,Top*
%FSLAX46Y46*%
G04 Gerber Fmt 4.6, Leading zero omitted, Abs format (unit mm)*
G04 Created by KiCad (PCBNEW 4.0.1-stable) date Wednesday, August 10, 2016 'PMt' 07:00:37 PM*
%MOMM*%
G01*
G04 APERTURE LIST*
%ADD10C,0.100000*%
%ADD11R,2.127200X2.432000*%
%ADD12O,2.127200X2.432000*%
%ADD13R,1.100000X1.700000*%
%ADD14R,1.400000X1.650000*%
%ADD15R,1.650000X1.400000*%
%ADD16R,0.850000X1.850000*%
%ADD17R,2.432000X2.432000*%
%ADD18O,2.432000X2.432000*%
%ADD19C,6.800000*%
G04 APERTURE END LIST*
D10*
D11*
X207010000Y-111506000D03*
D12*
X209550000Y-111506000D03*
X212090000Y-111506000D03*
X214630000Y-111506000D03*
D13*
X198054000Y-112776000D03*
X196154000Y-112776000D03*
D14*
X196120000Y-98044000D03*
X198120000Y-98044000D03*
D15*
X206502000Y-102330000D03*
X206502000Y-100330000D03*
D16*
X196129000Y-107500000D03*
X196779000Y-107500000D03*
X197429000Y-107500000D03*
X198079000Y-107500000D03*
X198079000Y-101600000D03*
X197429000Y-101600000D03*
X196779000Y-101600000D03*
X196129000Y-101600000D03*
D15*
X206502000Y-107410000D03*
X206502000Y-105410000D03*
X209804000Y-104870000D03*
X209804000Y-102870000D03*
D14*
X203422000Y-98044000D03*
X201422000Y-98044000D03*
X203184000Y-109474000D03*
X201184000Y-109474000D03*
D17*
X218440000Y-102616000D03*
D18*
X218440000Y-105156000D03*
D13*
X211582000Y-99314000D03*
X209682000Y-99314000D03*
X214630000Y-105156000D03*
X212730000Y-105156000D03*
X214818000Y-102616000D03*
X212918000Y-102616000D03*
X203200000Y-112776000D03*
X201300000Y-112776000D03*
D19*
X224536000Y-106172000D03*
X190246000Y-106172000D03*
D16*
X203159000Y-101686000D03*
X202509000Y-101686000D03*
X201859000Y-101686000D03*
X201209000Y-101686000D03*
X201209000Y-106086000D03*
X201859000Y-106086000D03*
X202509000Y-106086000D03*
X203159000Y-106086000D03*
M02*
