G04 #@! TF.FileFunction,Copper,L2,Bot,Signal*
%FSLAX46Y46*%
G04 Gerber Fmt 4.6, Leading zero omitted, Abs format (unit mm)*
G04 Created by KiCad (PCBNEW 4.0.1-stable) date Wednesday, August 10, 2016 'PMt' 06:55:05 PM*
%MOMM*%
G01*
G04 APERTURE LIST*
%ADD10C,0.100000*%
%ADD11R,1.050000X1.050000*%
%ADD12C,1.050000*%
%ADD13R,1.727200X1.727200*%
%ADD14O,1.727200X1.727200*%
%ADD15C,0.600000*%
%ADD16C,0.250000*%
%ADD17C,0.254000*%
G04 APERTURE END LIST*
D10*
D11*
X108458000Y-98806000D03*
D12*
X108458000Y-100076000D03*
X108458000Y-101346000D03*
X108458000Y-102616000D03*
X108458000Y-103886000D03*
X109728000Y-100076000D03*
X109728000Y-101346000D03*
X109728000Y-102616000D03*
X109728000Y-103886000D03*
X109728000Y-98806000D03*
D13*
X109982000Y-128524000D03*
D14*
X109982000Y-125984000D03*
X112522000Y-128524000D03*
X112522000Y-125984000D03*
X115062000Y-128524000D03*
X115062000Y-125984000D03*
X117602000Y-128524000D03*
X117602000Y-125984000D03*
X120142000Y-128524000D03*
X120142000Y-125984000D03*
X122682000Y-128524000D03*
X122682000Y-125984000D03*
X125222000Y-128524000D03*
X125222000Y-125984000D03*
X127762000Y-128524000D03*
X127762000Y-125984000D03*
X130302000Y-128524000D03*
X130302000Y-125984000D03*
X132842000Y-128524000D03*
X132842000Y-125984000D03*
D15*
X116840000Y-106426000D03*
X124968000Y-104902000D03*
X116586000Y-102616000D03*
X119888000Y-96774000D03*
X123952000Y-97028000D03*
X133096000Y-100076000D03*
X112514000Y-101100000D03*
X112268000Y-98552000D03*
X114808000Y-113538000D03*
X117856000Y-113792000D03*
X126238000Y-110744000D03*
X128524000Y-108712000D03*
X126746000Y-99314008D03*
X124490002Y-101346000D03*
X126115181Y-100059979D03*
X124460000Y-100076000D03*
D16*
X133096000Y-100076000D02*
X133350000Y-100076000D01*
X112268000Y-98552000D02*
X112268000Y-100854000D01*
X112268000Y-100854000D02*
X112514000Y-101100000D01*
X117856000Y-113792000D02*
X115062000Y-113792000D01*
X115062000Y-113792000D02*
X114808000Y-113538000D01*
X128524000Y-108712000D02*
X126492000Y-110744000D01*
X126492000Y-110744000D02*
X126238000Y-110744000D01*
X126746000Y-99738272D02*
X126746000Y-99314008D01*
X126746000Y-100500256D02*
X126746000Y-99738272D01*
X124490002Y-101346000D02*
X125900256Y-101346000D01*
X125900256Y-101346000D02*
X126746000Y-100500256D01*
X126099160Y-100076000D02*
X126115181Y-100059979D01*
X124460000Y-100076000D02*
X126099160Y-100076000D01*
D17*
G36*
X136450000Y-135688000D02*
X105536892Y-135688000D01*
X105536077Y-132256921D01*
X105681705Y-132227954D01*
X105912046Y-132074046D01*
X106065954Y-131843705D01*
X106120000Y-131572000D01*
X106120000Y-126523750D01*
X108483400Y-126523750D01*
X108483400Y-127227909D01*
X108580073Y-127461298D01*
X108758701Y-127639927D01*
X108992090Y-127736600D01*
X109696250Y-127736600D01*
X109855000Y-127577850D01*
X109855000Y-126365000D01*
X108642150Y-126365000D01*
X108483400Y-126523750D01*
X106120000Y-126523750D01*
X106120000Y-123668641D01*
X108483400Y-123668641D01*
X108483400Y-123727359D01*
X108597474Y-124300848D01*
X108912526Y-124772356D01*
X108758701Y-124836073D01*
X108580073Y-125014702D01*
X108483400Y-125248091D01*
X108483400Y-125952250D01*
X108642150Y-126111000D01*
X109855000Y-126111000D01*
X109855000Y-126091000D01*
X110109000Y-126091000D01*
X110109000Y-126111000D01*
X110129000Y-126111000D01*
X110129000Y-126365000D01*
X110109000Y-126365000D01*
X110109000Y-127577850D01*
X110267750Y-127736600D01*
X110971910Y-127736600D01*
X111205299Y-127639927D01*
X111383927Y-127461298D01*
X111448263Y-127305977D01*
X111462330Y-127327029D01*
X111948511Y-127651885D01*
X112522000Y-127765959D01*
X113095489Y-127651885D01*
X113581670Y-127327029D01*
X113792000Y-127012248D01*
X114002330Y-127327029D01*
X114488511Y-127651885D01*
X115062000Y-127765959D01*
X115635489Y-127651885D01*
X116121670Y-127327029D01*
X116337664Y-127003772D01*
X116395179Y-127126490D01*
X116827053Y-127520688D01*
X117242974Y-127692958D01*
X117475000Y-127571817D01*
X117475000Y-126365000D01*
X117455000Y-126365000D01*
X117455000Y-126111000D01*
X117475000Y-126111000D01*
X117475000Y-126091000D01*
X117729000Y-126091000D01*
X117729000Y-126111000D01*
X117749000Y-126111000D01*
X117749000Y-126365000D01*
X117729000Y-126365000D01*
X117729000Y-127571817D01*
X117961026Y-127692958D01*
X118376947Y-127520688D01*
X118808821Y-127126490D01*
X118866336Y-127003772D01*
X119082330Y-127327029D01*
X119568511Y-127651885D01*
X120142000Y-127765959D01*
X120715489Y-127651885D01*
X121201670Y-127327029D01*
X121412000Y-127012248D01*
X121622330Y-127327029D01*
X122108511Y-127651885D01*
X122682000Y-127765959D01*
X123255489Y-127651885D01*
X123741670Y-127327029D01*
X123957664Y-127003772D01*
X124015179Y-127126490D01*
X124447053Y-127520688D01*
X124862974Y-127692958D01*
X125095000Y-127571817D01*
X125095000Y-126365000D01*
X125075000Y-126365000D01*
X125075000Y-126111000D01*
X125095000Y-126111000D01*
X125095000Y-126091000D01*
X125349000Y-126091000D01*
X125349000Y-126111000D01*
X125369000Y-126111000D01*
X125369000Y-126365000D01*
X125349000Y-126365000D01*
X125349000Y-127571817D01*
X125581026Y-127692958D01*
X125996947Y-127520688D01*
X126428821Y-127126490D01*
X126486336Y-127003772D01*
X126702330Y-127327029D01*
X127188511Y-127651885D01*
X127762000Y-127765959D01*
X128335489Y-127651885D01*
X128821670Y-127327029D01*
X129032000Y-127012248D01*
X129242330Y-127327029D01*
X129728511Y-127651885D01*
X130302000Y-127765959D01*
X130875489Y-127651885D01*
X131361670Y-127327029D01*
X131577664Y-127003772D01*
X131635179Y-127126490D01*
X132067053Y-127520688D01*
X132482974Y-127692958D01*
X132715000Y-127571817D01*
X132715000Y-126365000D01*
X132969000Y-126365000D01*
X132969000Y-127571817D01*
X133201026Y-127692958D01*
X133616947Y-127520688D01*
X134048821Y-127126490D01*
X134296968Y-126597027D01*
X134176469Y-126365000D01*
X132969000Y-126365000D01*
X132715000Y-126365000D01*
X132695000Y-126365000D01*
X132695000Y-126111000D01*
X132715000Y-126111000D01*
X132715000Y-126091000D01*
X132969000Y-126091000D01*
X132969000Y-126111000D01*
X134176469Y-126111000D01*
X134296968Y-125878973D01*
X134048821Y-125349510D01*
X133630839Y-124967992D01*
X133901670Y-124787029D01*
X134226526Y-124300848D01*
X134340600Y-123727359D01*
X134340600Y-123668641D01*
X134226526Y-123095152D01*
X133901670Y-122608971D01*
X133415489Y-122284115D01*
X132842000Y-122170041D01*
X132268511Y-122284115D01*
X131782330Y-122608971D01*
X131572000Y-122923752D01*
X131361670Y-122608971D01*
X130875489Y-122284115D01*
X130302000Y-122170041D01*
X129728511Y-122284115D01*
X129242330Y-122608971D01*
X129032000Y-122923752D01*
X128821670Y-122608971D01*
X128335489Y-122284115D01*
X127762000Y-122170041D01*
X127188511Y-122284115D01*
X126702330Y-122608971D01*
X126492000Y-122923752D01*
X126281670Y-122608971D01*
X125795489Y-122284115D01*
X125222000Y-122170041D01*
X124648511Y-122284115D01*
X124162330Y-122608971D01*
X123952000Y-122923752D01*
X123741670Y-122608971D01*
X123255489Y-122284115D01*
X122682000Y-122170041D01*
X122108511Y-122284115D01*
X121622330Y-122608971D01*
X121412000Y-122923752D01*
X121201670Y-122608971D01*
X120715489Y-122284115D01*
X120142000Y-122170041D01*
X119568511Y-122284115D01*
X119082330Y-122608971D01*
X118872000Y-122923752D01*
X118661670Y-122608971D01*
X118175489Y-122284115D01*
X117602000Y-122170041D01*
X117028511Y-122284115D01*
X116542330Y-122608971D01*
X116332000Y-122923752D01*
X116121670Y-122608971D01*
X115635489Y-122284115D01*
X115062000Y-122170041D01*
X114488511Y-122284115D01*
X114002330Y-122608971D01*
X113792000Y-122923752D01*
X113581670Y-122608971D01*
X113095489Y-122284115D01*
X112522000Y-122170041D01*
X111948511Y-122284115D01*
X111462330Y-122608971D01*
X111252000Y-122923752D01*
X111041670Y-122608971D01*
X110555489Y-122284115D01*
X109982000Y-122170041D01*
X109408511Y-122284115D01*
X108922330Y-122608971D01*
X108597474Y-123095152D01*
X108483400Y-123668641D01*
X106120000Y-123668641D01*
X106120000Y-113723167D01*
X113872838Y-113723167D01*
X114014883Y-114066943D01*
X114277673Y-114330192D01*
X114621201Y-114472838D01*
X114739421Y-114472941D01*
X114771160Y-114494148D01*
X115062000Y-114552000D01*
X117293537Y-114552000D01*
X117325673Y-114584192D01*
X117669201Y-114726838D01*
X118041167Y-114727162D01*
X118384943Y-114585117D01*
X118648192Y-114322327D01*
X118790838Y-113978799D01*
X118791162Y-113606833D01*
X118649117Y-113263057D01*
X118386327Y-112999808D01*
X118042799Y-112857162D01*
X117670833Y-112856838D01*
X117327057Y-112998883D01*
X117293882Y-113032000D01*
X115610597Y-113032000D01*
X115601117Y-113009057D01*
X115338327Y-112745808D01*
X114994799Y-112603162D01*
X114622833Y-112602838D01*
X114279057Y-112744883D01*
X114015808Y-113007673D01*
X113873162Y-113351201D01*
X113872838Y-113723167D01*
X106120000Y-113723167D01*
X106120000Y-110929167D01*
X125302838Y-110929167D01*
X125444883Y-111272943D01*
X125707673Y-111536192D01*
X126051201Y-111678838D01*
X126423167Y-111679162D01*
X126766943Y-111537117D01*
X127010362Y-111294122D01*
X127029401Y-111281401D01*
X128663680Y-109647122D01*
X128709167Y-109647162D01*
X129052943Y-109505117D01*
X129316192Y-109242327D01*
X129458838Y-108898799D01*
X129459162Y-108526833D01*
X129317117Y-108183057D01*
X129054327Y-107919808D01*
X128710799Y-107777162D01*
X128338833Y-107776838D01*
X127995057Y-107918883D01*
X127731808Y-108181673D01*
X127589162Y-108525201D01*
X127589121Y-108572077D01*
X126352099Y-109809099D01*
X126052833Y-109808838D01*
X125709057Y-109950883D01*
X125445808Y-110213673D01*
X125303162Y-110557201D01*
X125302838Y-110929167D01*
X106120000Y-110929167D01*
X106120000Y-99924985D01*
X107284954Y-99924985D01*
X107316457Y-100385386D01*
X107432038Y-100664425D01*
X107634186Y-100701794D01*
X107643392Y-100711000D01*
X107634186Y-100720206D01*
X107432038Y-100757575D01*
X107284954Y-101194985D01*
X107316457Y-101655386D01*
X107432038Y-101934425D01*
X107488406Y-101944845D01*
X107475173Y-101958055D01*
X107298202Y-102384249D01*
X107297799Y-102845726D01*
X107474026Y-103272229D01*
X107488845Y-103287074D01*
X107432038Y-103297575D01*
X107284954Y-103734985D01*
X107316457Y-104195386D01*
X107432038Y-104474425D01*
X107649727Y-104514667D01*
X108278395Y-103886000D01*
X108264253Y-103871858D01*
X108360195Y-103775915D01*
X108555976Y-103776086D01*
X108568085Y-103788195D01*
X108567914Y-103983976D01*
X108472142Y-104079748D01*
X108458000Y-104065605D01*
X107829333Y-104694273D01*
X107869575Y-104911962D01*
X108306985Y-105059046D01*
X108767386Y-105027543D01*
X109046425Y-104911962D01*
X109056845Y-104855594D01*
X109070055Y-104868827D01*
X109496249Y-105045798D01*
X109957726Y-105046201D01*
X110384229Y-104869974D01*
X110710827Y-104543945D01*
X110887798Y-104117751D01*
X110888201Y-103656274D01*
X110720551Y-103250528D01*
X110887798Y-102847751D01*
X110888201Y-102386274D01*
X110720551Y-101980528D01*
X110887798Y-101577751D01*
X110888201Y-101116274D01*
X110720551Y-100710528D01*
X110887798Y-100307751D01*
X110888201Y-99846274D01*
X110720551Y-99440528D01*
X110887798Y-99037751D01*
X110888060Y-98737167D01*
X111332838Y-98737167D01*
X111474883Y-99080943D01*
X111508000Y-99114118D01*
X111508000Y-100854000D01*
X111565852Y-101144839D01*
X111578943Y-101164431D01*
X111578838Y-101285167D01*
X111720883Y-101628943D01*
X111983673Y-101892192D01*
X112327201Y-102034838D01*
X112699167Y-102035162D01*
X113042943Y-101893117D01*
X113306192Y-101630327D01*
X113448838Y-101286799D01*
X113449162Y-100914833D01*
X113307117Y-100571057D01*
X113044327Y-100307808D01*
X113028000Y-100301028D01*
X113028000Y-100261167D01*
X123524838Y-100261167D01*
X123666883Y-100604943D01*
X123787684Y-100725955D01*
X123697810Y-100815673D01*
X123555164Y-101159201D01*
X123554840Y-101531167D01*
X123696885Y-101874943D01*
X123959675Y-102138192D01*
X124303203Y-102280838D01*
X124675169Y-102281162D01*
X125018945Y-102139117D01*
X125052120Y-102106000D01*
X125900256Y-102106000D01*
X126191095Y-102048148D01*
X126437657Y-101883401D01*
X127283401Y-101037657D01*
X127448148Y-100791095D01*
X127506000Y-100500256D01*
X127506000Y-99876471D01*
X127538192Y-99844335D01*
X127680838Y-99500807D01*
X127681162Y-99128841D01*
X127539117Y-98785065D01*
X127276327Y-98521816D01*
X126932799Y-98379170D01*
X126560833Y-98378846D01*
X126217057Y-98520891D01*
X125953808Y-98783681D01*
X125811162Y-99127209D01*
X125811121Y-99173942D01*
X125586238Y-99266862D01*
X125537014Y-99316000D01*
X125022463Y-99316000D01*
X124990327Y-99283808D01*
X124646799Y-99141162D01*
X124274833Y-99140838D01*
X123931057Y-99282883D01*
X123667808Y-99545673D01*
X123525162Y-99889201D01*
X123524838Y-100261167D01*
X113028000Y-100261167D01*
X113028000Y-99114463D01*
X113060192Y-99082327D01*
X113202838Y-98738799D01*
X113203162Y-98366833D01*
X113061117Y-98023057D01*
X112798327Y-97759808D01*
X112454799Y-97617162D01*
X112082833Y-97616838D01*
X111739057Y-97758883D01*
X111475808Y-98021673D01*
X111333162Y-98365201D01*
X111332838Y-98737167D01*
X110888060Y-98737167D01*
X110888201Y-98576274D01*
X110711974Y-98149771D01*
X110385945Y-97823173D01*
X109959751Y-97646202D01*
X109498274Y-97645799D01*
X109298784Y-97728226D01*
X109234890Y-97684569D01*
X108983000Y-97633560D01*
X107933000Y-97633560D01*
X107697683Y-97677838D01*
X107481559Y-97816910D01*
X107336569Y-98029110D01*
X107285560Y-98281000D01*
X107285560Y-99331000D01*
X107329838Y-99566317D01*
X107379571Y-99643605D01*
X107284954Y-99924985D01*
X106120000Y-99924985D01*
X106120000Y-94729106D01*
X136450000Y-94690895D01*
X136450000Y-135688000D01*
X136450000Y-135688000D01*
G37*
X136450000Y-135688000D02*
X105536892Y-135688000D01*
X105536077Y-132256921D01*
X105681705Y-132227954D01*
X105912046Y-132074046D01*
X106065954Y-131843705D01*
X106120000Y-131572000D01*
X106120000Y-126523750D01*
X108483400Y-126523750D01*
X108483400Y-127227909D01*
X108580073Y-127461298D01*
X108758701Y-127639927D01*
X108992090Y-127736600D01*
X109696250Y-127736600D01*
X109855000Y-127577850D01*
X109855000Y-126365000D01*
X108642150Y-126365000D01*
X108483400Y-126523750D01*
X106120000Y-126523750D01*
X106120000Y-123668641D01*
X108483400Y-123668641D01*
X108483400Y-123727359D01*
X108597474Y-124300848D01*
X108912526Y-124772356D01*
X108758701Y-124836073D01*
X108580073Y-125014702D01*
X108483400Y-125248091D01*
X108483400Y-125952250D01*
X108642150Y-126111000D01*
X109855000Y-126111000D01*
X109855000Y-126091000D01*
X110109000Y-126091000D01*
X110109000Y-126111000D01*
X110129000Y-126111000D01*
X110129000Y-126365000D01*
X110109000Y-126365000D01*
X110109000Y-127577850D01*
X110267750Y-127736600D01*
X110971910Y-127736600D01*
X111205299Y-127639927D01*
X111383927Y-127461298D01*
X111448263Y-127305977D01*
X111462330Y-127327029D01*
X111948511Y-127651885D01*
X112522000Y-127765959D01*
X113095489Y-127651885D01*
X113581670Y-127327029D01*
X113792000Y-127012248D01*
X114002330Y-127327029D01*
X114488511Y-127651885D01*
X115062000Y-127765959D01*
X115635489Y-127651885D01*
X116121670Y-127327029D01*
X116337664Y-127003772D01*
X116395179Y-127126490D01*
X116827053Y-127520688D01*
X117242974Y-127692958D01*
X117475000Y-127571817D01*
X117475000Y-126365000D01*
X117455000Y-126365000D01*
X117455000Y-126111000D01*
X117475000Y-126111000D01*
X117475000Y-126091000D01*
X117729000Y-126091000D01*
X117729000Y-126111000D01*
X117749000Y-126111000D01*
X117749000Y-126365000D01*
X117729000Y-126365000D01*
X117729000Y-127571817D01*
X117961026Y-127692958D01*
X118376947Y-127520688D01*
X118808821Y-127126490D01*
X118866336Y-127003772D01*
X119082330Y-127327029D01*
X119568511Y-127651885D01*
X120142000Y-127765959D01*
X120715489Y-127651885D01*
X121201670Y-127327029D01*
X121412000Y-127012248D01*
X121622330Y-127327029D01*
X122108511Y-127651885D01*
X122682000Y-127765959D01*
X123255489Y-127651885D01*
X123741670Y-127327029D01*
X123957664Y-127003772D01*
X124015179Y-127126490D01*
X124447053Y-127520688D01*
X124862974Y-127692958D01*
X125095000Y-127571817D01*
X125095000Y-126365000D01*
X125075000Y-126365000D01*
X125075000Y-126111000D01*
X125095000Y-126111000D01*
X125095000Y-126091000D01*
X125349000Y-126091000D01*
X125349000Y-126111000D01*
X125369000Y-126111000D01*
X125369000Y-126365000D01*
X125349000Y-126365000D01*
X125349000Y-127571817D01*
X125581026Y-127692958D01*
X125996947Y-127520688D01*
X126428821Y-127126490D01*
X126486336Y-127003772D01*
X126702330Y-127327029D01*
X127188511Y-127651885D01*
X127762000Y-127765959D01*
X128335489Y-127651885D01*
X128821670Y-127327029D01*
X129032000Y-127012248D01*
X129242330Y-127327029D01*
X129728511Y-127651885D01*
X130302000Y-127765959D01*
X130875489Y-127651885D01*
X131361670Y-127327029D01*
X131577664Y-127003772D01*
X131635179Y-127126490D01*
X132067053Y-127520688D01*
X132482974Y-127692958D01*
X132715000Y-127571817D01*
X132715000Y-126365000D01*
X132969000Y-126365000D01*
X132969000Y-127571817D01*
X133201026Y-127692958D01*
X133616947Y-127520688D01*
X134048821Y-127126490D01*
X134296968Y-126597027D01*
X134176469Y-126365000D01*
X132969000Y-126365000D01*
X132715000Y-126365000D01*
X132695000Y-126365000D01*
X132695000Y-126111000D01*
X132715000Y-126111000D01*
X132715000Y-126091000D01*
X132969000Y-126091000D01*
X132969000Y-126111000D01*
X134176469Y-126111000D01*
X134296968Y-125878973D01*
X134048821Y-125349510D01*
X133630839Y-124967992D01*
X133901670Y-124787029D01*
X134226526Y-124300848D01*
X134340600Y-123727359D01*
X134340600Y-123668641D01*
X134226526Y-123095152D01*
X133901670Y-122608971D01*
X133415489Y-122284115D01*
X132842000Y-122170041D01*
X132268511Y-122284115D01*
X131782330Y-122608971D01*
X131572000Y-122923752D01*
X131361670Y-122608971D01*
X130875489Y-122284115D01*
X130302000Y-122170041D01*
X129728511Y-122284115D01*
X129242330Y-122608971D01*
X129032000Y-122923752D01*
X128821670Y-122608971D01*
X128335489Y-122284115D01*
X127762000Y-122170041D01*
X127188511Y-122284115D01*
X126702330Y-122608971D01*
X126492000Y-122923752D01*
X126281670Y-122608971D01*
X125795489Y-122284115D01*
X125222000Y-122170041D01*
X124648511Y-122284115D01*
X124162330Y-122608971D01*
X123952000Y-122923752D01*
X123741670Y-122608971D01*
X123255489Y-122284115D01*
X122682000Y-122170041D01*
X122108511Y-122284115D01*
X121622330Y-122608971D01*
X121412000Y-122923752D01*
X121201670Y-122608971D01*
X120715489Y-122284115D01*
X120142000Y-122170041D01*
X119568511Y-122284115D01*
X119082330Y-122608971D01*
X118872000Y-122923752D01*
X118661670Y-122608971D01*
X118175489Y-122284115D01*
X117602000Y-122170041D01*
X117028511Y-122284115D01*
X116542330Y-122608971D01*
X116332000Y-122923752D01*
X116121670Y-122608971D01*
X115635489Y-122284115D01*
X115062000Y-122170041D01*
X114488511Y-122284115D01*
X114002330Y-122608971D01*
X113792000Y-122923752D01*
X113581670Y-122608971D01*
X113095489Y-122284115D01*
X112522000Y-122170041D01*
X111948511Y-122284115D01*
X111462330Y-122608971D01*
X111252000Y-122923752D01*
X111041670Y-122608971D01*
X110555489Y-122284115D01*
X109982000Y-122170041D01*
X109408511Y-122284115D01*
X108922330Y-122608971D01*
X108597474Y-123095152D01*
X108483400Y-123668641D01*
X106120000Y-123668641D01*
X106120000Y-113723167D01*
X113872838Y-113723167D01*
X114014883Y-114066943D01*
X114277673Y-114330192D01*
X114621201Y-114472838D01*
X114739421Y-114472941D01*
X114771160Y-114494148D01*
X115062000Y-114552000D01*
X117293537Y-114552000D01*
X117325673Y-114584192D01*
X117669201Y-114726838D01*
X118041167Y-114727162D01*
X118384943Y-114585117D01*
X118648192Y-114322327D01*
X118790838Y-113978799D01*
X118791162Y-113606833D01*
X118649117Y-113263057D01*
X118386327Y-112999808D01*
X118042799Y-112857162D01*
X117670833Y-112856838D01*
X117327057Y-112998883D01*
X117293882Y-113032000D01*
X115610597Y-113032000D01*
X115601117Y-113009057D01*
X115338327Y-112745808D01*
X114994799Y-112603162D01*
X114622833Y-112602838D01*
X114279057Y-112744883D01*
X114015808Y-113007673D01*
X113873162Y-113351201D01*
X113872838Y-113723167D01*
X106120000Y-113723167D01*
X106120000Y-110929167D01*
X125302838Y-110929167D01*
X125444883Y-111272943D01*
X125707673Y-111536192D01*
X126051201Y-111678838D01*
X126423167Y-111679162D01*
X126766943Y-111537117D01*
X127010362Y-111294122D01*
X127029401Y-111281401D01*
X128663680Y-109647122D01*
X128709167Y-109647162D01*
X129052943Y-109505117D01*
X129316192Y-109242327D01*
X129458838Y-108898799D01*
X129459162Y-108526833D01*
X129317117Y-108183057D01*
X129054327Y-107919808D01*
X128710799Y-107777162D01*
X128338833Y-107776838D01*
X127995057Y-107918883D01*
X127731808Y-108181673D01*
X127589162Y-108525201D01*
X127589121Y-108572077D01*
X126352099Y-109809099D01*
X126052833Y-109808838D01*
X125709057Y-109950883D01*
X125445808Y-110213673D01*
X125303162Y-110557201D01*
X125302838Y-110929167D01*
X106120000Y-110929167D01*
X106120000Y-99924985D01*
X107284954Y-99924985D01*
X107316457Y-100385386D01*
X107432038Y-100664425D01*
X107634186Y-100701794D01*
X107643392Y-100711000D01*
X107634186Y-100720206D01*
X107432038Y-100757575D01*
X107284954Y-101194985D01*
X107316457Y-101655386D01*
X107432038Y-101934425D01*
X107488406Y-101944845D01*
X107475173Y-101958055D01*
X107298202Y-102384249D01*
X107297799Y-102845726D01*
X107474026Y-103272229D01*
X107488845Y-103287074D01*
X107432038Y-103297575D01*
X107284954Y-103734985D01*
X107316457Y-104195386D01*
X107432038Y-104474425D01*
X107649727Y-104514667D01*
X108278395Y-103886000D01*
X108264253Y-103871858D01*
X108360195Y-103775915D01*
X108555976Y-103776086D01*
X108568085Y-103788195D01*
X108567914Y-103983976D01*
X108472142Y-104079748D01*
X108458000Y-104065605D01*
X107829333Y-104694273D01*
X107869575Y-104911962D01*
X108306985Y-105059046D01*
X108767386Y-105027543D01*
X109046425Y-104911962D01*
X109056845Y-104855594D01*
X109070055Y-104868827D01*
X109496249Y-105045798D01*
X109957726Y-105046201D01*
X110384229Y-104869974D01*
X110710827Y-104543945D01*
X110887798Y-104117751D01*
X110888201Y-103656274D01*
X110720551Y-103250528D01*
X110887798Y-102847751D01*
X110888201Y-102386274D01*
X110720551Y-101980528D01*
X110887798Y-101577751D01*
X110888201Y-101116274D01*
X110720551Y-100710528D01*
X110887798Y-100307751D01*
X110888201Y-99846274D01*
X110720551Y-99440528D01*
X110887798Y-99037751D01*
X110888060Y-98737167D01*
X111332838Y-98737167D01*
X111474883Y-99080943D01*
X111508000Y-99114118D01*
X111508000Y-100854000D01*
X111565852Y-101144839D01*
X111578943Y-101164431D01*
X111578838Y-101285167D01*
X111720883Y-101628943D01*
X111983673Y-101892192D01*
X112327201Y-102034838D01*
X112699167Y-102035162D01*
X113042943Y-101893117D01*
X113306192Y-101630327D01*
X113448838Y-101286799D01*
X113449162Y-100914833D01*
X113307117Y-100571057D01*
X113044327Y-100307808D01*
X113028000Y-100301028D01*
X113028000Y-100261167D01*
X123524838Y-100261167D01*
X123666883Y-100604943D01*
X123787684Y-100725955D01*
X123697810Y-100815673D01*
X123555164Y-101159201D01*
X123554840Y-101531167D01*
X123696885Y-101874943D01*
X123959675Y-102138192D01*
X124303203Y-102280838D01*
X124675169Y-102281162D01*
X125018945Y-102139117D01*
X125052120Y-102106000D01*
X125900256Y-102106000D01*
X126191095Y-102048148D01*
X126437657Y-101883401D01*
X127283401Y-101037657D01*
X127448148Y-100791095D01*
X127506000Y-100500256D01*
X127506000Y-99876471D01*
X127538192Y-99844335D01*
X127680838Y-99500807D01*
X127681162Y-99128841D01*
X127539117Y-98785065D01*
X127276327Y-98521816D01*
X126932799Y-98379170D01*
X126560833Y-98378846D01*
X126217057Y-98520891D01*
X125953808Y-98783681D01*
X125811162Y-99127209D01*
X125811121Y-99173942D01*
X125586238Y-99266862D01*
X125537014Y-99316000D01*
X125022463Y-99316000D01*
X124990327Y-99283808D01*
X124646799Y-99141162D01*
X124274833Y-99140838D01*
X123931057Y-99282883D01*
X123667808Y-99545673D01*
X123525162Y-99889201D01*
X123524838Y-100261167D01*
X113028000Y-100261167D01*
X113028000Y-99114463D01*
X113060192Y-99082327D01*
X113202838Y-98738799D01*
X113203162Y-98366833D01*
X113061117Y-98023057D01*
X112798327Y-97759808D01*
X112454799Y-97617162D01*
X112082833Y-97616838D01*
X111739057Y-97758883D01*
X111475808Y-98021673D01*
X111333162Y-98365201D01*
X111332838Y-98737167D01*
X110888060Y-98737167D01*
X110888201Y-98576274D01*
X110711974Y-98149771D01*
X110385945Y-97823173D01*
X109959751Y-97646202D01*
X109498274Y-97645799D01*
X109298784Y-97728226D01*
X109234890Y-97684569D01*
X108983000Y-97633560D01*
X107933000Y-97633560D01*
X107697683Y-97677838D01*
X107481559Y-97816910D01*
X107336569Y-98029110D01*
X107285560Y-98281000D01*
X107285560Y-99331000D01*
X107329838Y-99566317D01*
X107379571Y-99643605D01*
X107284954Y-99924985D01*
X106120000Y-99924985D01*
X106120000Y-94729106D01*
X136450000Y-94690895D01*
X136450000Y-135688000D01*
G36*
X108568085Y-101248195D02*
X108567914Y-101443976D01*
X108555805Y-101456085D01*
X108360024Y-101455914D01*
X108264252Y-101360142D01*
X108278395Y-101346000D01*
X108264253Y-101331858D01*
X108350008Y-101246102D01*
X108552160Y-101232270D01*
X108568085Y-101248195D01*
X108568085Y-101248195D01*
G37*
X108568085Y-101248195D02*
X108567914Y-101443976D01*
X108555805Y-101456085D01*
X108360024Y-101455914D01*
X108264252Y-101360142D01*
X108278395Y-101346000D01*
X108264253Y-101331858D01*
X108350008Y-101246102D01*
X108552160Y-101232270D01*
X108568085Y-101248195D01*
G36*
X108567914Y-100173976D02*
X108565993Y-100175897D01*
X108363840Y-100189730D01*
X108264253Y-100090143D01*
X108278395Y-100076000D01*
X108264253Y-100061858D01*
X108347670Y-99978440D01*
X108568085Y-99978440D01*
X108567914Y-100173976D01*
X108567914Y-100173976D01*
G37*
X108567914Y-100173976D02*
X108565993Y-100175897D01*
X108363840Y-100189730D01*
X108264253Y-100090143D01*
X108278395Y-100076000D01*
X108264253Y-100061858D01*
X108347670Y-99978440D01*
X108568085Y-99978440D01*
X108567914Y-100173976D01*
M02*
