G04 #@! TF.FileFunction,Copper,L1,Top,Signal*
%FSLAX46Y46*%
G04 Gerber Fmt 4.6, Leading zero omitted, Abs format (unit mm)*
G04 Created by KiCad (PCBNEW 4.0.1-stable) date Wednesday, August 10, 2016 'PMt' 06:55:04 PM*
%MOMM*%
G01*
G04 APERTURE LIST*
%ADD10C,0.100000*%
%ADD11R,0.600000X1.950000*%
%ADD12R,1.250000X1.000000*%
%ADD13R,1.198880X1.198880*%
%ADD14R,0.700000X1.300000*%
%ADD15R,1.300000X0.700000*%
%ADD16R,3.657600X2.032000*%
%ADD17R,1.016000X2.032000*%
%ADD18R,1.050000X1.050000*%
%ADD19C,1.050000*%
%ADD20R,1.550000X1.300000*%
%ADD21R,1.727200X1.727200*%
%ADD22O,1.727200X1.727200*%
%ADD23C,0.600000*%
%ADD24C,0.250000*%
G04 APERTURE END LIST*
D10*
D11*
X120145000Y-116090000D03*
X121415000Y-116090000D03*
X122685000Y-116090000D03*
X123955000Y-116090000D03*
X125225000Y-116090000D03*
X126495000Y-116090000D03*
X127765000Y-116090000D03*
X129035000Y-116090000D03*
X130305000Y-116090000D03*
X131575000Y-116090000D03*
X131575000Y-106690000D03*
X130305000Y-106690000D03*
X129035000Y-106690000D03*
X127765000Y-106690000D03*
X126495000Y-106690000D03*
X125225000Y-106690000D03*
X123955000Y-106690000D03*
X122685000Y-106690000D03*
X121415000Y-106690000D03*
X120145000Y-106690000D03*
D12*
X113790000Y-101100000D03*
X113790000Y-103100000D03*
X117790000Y-95950000D03*
X117790000Y-97950000D03*
X121990000Y-95910000D03*
X121990000Y-97910000D03*
X125830000Y-97910000D03*
X125830000Y-95910000D03*
D13*
X120788040Y-101660000D03*
X118690000Y-101660000D03*
D14*
X123640000Y-101660000D03*
X125540000Y-101660000D03*
D15*
X113790000Y-96100000D03*
X113790000Y-98000000D03*
D14*
X113858000Y-106426000D03*
X115758000Y-106426000D03*
D16*
X133030000Y-102954000D03*
D17*
X133030000Y-96350000D03*
X130744000Y-96350000D03*
X135316000Y-96350000D03*
D18*
X108458000Y-98806000D03*
D19*
X108458000Y-100076000D03*
X108458000Y-101346000D03*
X108458000Y-102616000D03*
X108458000Y-103886000D03*
X109728000Y-100076000D03*
X109728000Y-101346000D03*
X109728000Y-102616000D03*
X109728000Y-103886000D03*
X109728000Y-98806000D03*
D20*
X106858000Y-116260000D03*
X106858000Y-111760000D03*
X114808000Y-111760000D03*
X114808000Y-116260000D03*
D21*
X109982000Y-128524000D03*
D22*
X109982000Y-125984000D03*
X112522000Y-128524000D03*
X112522000Y-125984000D03*
X115062000Y-128524000D03*
X115062000Y-125984000D03*
X117602000Y-128524000D03*
X117602000Y-125984000D03*
X120142000Y-128524000D03*
X120142000Y-125984000D03*
X122682000Y-128524000D03*
X122682000Y-125984000D03*
X125222000Y-128524000D03*
X125222000Y-125984000D03*
X127762000Y-128524000D03*
X127762000Y-125984000D03*
X130302000Y-128524000D03*
X130302000Y-125984000D03*
X132842000Y-128524000D03*
X132842000Y-125984000D03*
D23*
X116840000Y-106426000D03*
X124968000Y-104902000D03*
X116586000Y-102616000D03*
X119888000Y-96774000D03*
X123952000Y-97028000D03*
X133096000Y-100076000D03*
X112514000Y-101100000D03*
X112268000Y-98552000D03*
X114808000Y-113538000D03*
X117856000Y-113792000D03*
X126238000Y-110744000D03*
X128524000Y-108712000D03*
X126746000Y-99314008D03*
X124490002Y-101346000D03*
X126115181Y-100059979D03*
X124460000Y-100076000D03*
D24*
X115758000Y-106426000D02*
X116840000Y-106426000D01*
X125225000Y-106690000D02*
X125225000Y-105159000D01*
X125225000Y-105159000D02*
X124968000Y-104902000D01*
X113790000Y-103100000D02*
X116102000Y-103100000D01*
X116102000Y-103100000D02*
X116586000Y-102616000D01*
X118690000Y-101660000D02*
X117542000Y-101660000D01*
X117542000Y-101660000D02*
X116586000Y-102616000D01*
X108458000Y-101346000D02*
X107607999Y-102196001D01*
X107607999Y-102196001D02*
X107607999Y-103035999D01*
X107607999Y-103035999D02*
X107933001Y-103361001D01*
X107933001Y-103361001D02*
X108458000Y-103886000D01*
X108458000Y-100076000D02*
X108458000Y-101346000D01*
X121990000Y-97910000D02*
X121024000Y-97910000D01*
X121024000Y-97910000D02*
X119888000Y-96774000D01*
X117790000Y-95950000D02*
X119064000Y-95950000D01*
X119064000Y-95950000D02*
X119888000Y-96774000D01*
X121990000Y-97910000D02*
X123070000Y-97910000D01*
X123070000Y-97910000D02*
X123952000Y-97028000D01*
X125830000Y-95910000D02*
X125070000Y-95910000D01*
X125070000Y-95910000D02*
X123952000Y-97028000D01*
X122115000Y-97910000D02*
X121990000Y-97910000D01*
X133030000Y-102954000D02*
X133030000Y-100142000D01*
X133030000Y-100142000D02*
X133096000Y-100076000D01*
X133030000Y-96350000D02*
X133030000Y-100010000D01*
X133030000Y-100010000D02*
X133096000Y-100076000D01*
X113790000Y-98000000D02*
X112820000Y-98000000D01*
X112820000Y-98000000D02*
X112268000Y-98552000D01*
X114808000Y-113538000D02*
X114808000Y-111760000D01*
X126238000Y-110744000D02*
X120904000Y-110744000D01*
X120904000Y-110744000D02*
X117856000Y-113792000D01*
X131575000Y-106690000D02*
X131575000Y-107365000D01*
X131575000Y-107365000D02*
X130228000Y-108712000D01*
X130228000Y-108712000D02*
X128524000Y-108712000D01*
X109728000Y-110662000D02*
X110826000Y-111760000D01*
X110826000Y-111760000D02*
X114808000Y-111760000D01*
X109728000Y-110662000D02*
X108630000Y-111760000D01*
X108630000Y-111760000D02*
X106858000Y-111760000D01*
X109728000Y-103886000D02*
X109728000Y-110662000D01*
X113790000Y-101100000D02*
X112514000Y-101100000D01*
X112514000Y-101100000D02*
X109728000Y-103886000D01*
X113790000Y-98000000D02*
X113490000Y-98000000D01*
X131810760Y-106948240D02*
X131810760Y-106014520D01*
X131810760Y-106948240D02*
X131810760Y-106055160D01*
X135316000Y-96350000D02*
X135316000Y-123510000D01*
X135316000Y-123510000D02*
X132842000Y-125984000D01*
X135316000Y-96350000D02*
X135316000Y-95842000D01*
X135316000Y-95842000D02*
X134482999Y-95008999D01*
X134482999Y-95008999D02*
X123766001Y-95008999D01*
X123766001Y-95008999D02*
X122865000Y-95910000D01*
X122865000Y-95910000D02*
X121990000Y-95910000D01*
X108458000Y-98806000D02*
X107683000Y-98806000D01*
X124033399Y-128931731D02*
X124033399Y-127953471D01*
X107683000Y-98806000D02*
X105757999Y-100731001D01*
X124358401Y-127628469D02*
X124358401Y-126847599D01*
X105757999Y-100731001D02*
X105757999Y-126612201D01*
X105757999Y-126612201D02*
X108858399Y-129712601D01*
X108858399Y-129712601D02*
X123252529Y-129712601D01*
X123252529Y-129712601D02*
X124033399Y-128931731D01*
X124033399Y-127953471D02*
X124358401Y-127628469D01*
X124358401Y-126847599D02*
X125222000Y-125984000D01*
X125222000Y-123698000D02*
X125222000Y-125984000D01*
X126746000Y-98889744D02*
X126746000Y-99314008D01*
X126746000Y-98701000D02*
X126746000Y-98889744D01*
X125955000Y-97910000D02*
X126746000Y-98701000D01*
X123955000Y-106690000D02*
X123955000Y-105465000D01*
X123955000Y-105465000D02*
X124315001Y-105104999D01*
X124315001Y-105104999D02*
X124315001Y-101521001D01*
X124315001Y-101521001D02*
X124490002Y-101346000D01*
X125830000Y-98660000D02*
X125830000Y-97910000D01*
X128390001Y-111800001D02*
X123955000Y-107365000D01*
X128390001Y-117325001D02*
X128390001Y-111800001D01*
X125222000Y-120493002D02*
X128390001Y-117325001D01*
X123955000Y-107365000D02*
X123955000Y-106690000D01*
X125222000Y-123698000D02*
X125222000Y-120493002D01*
X113790000Y-96100000D02*
X110389000Y-96100000D01*
X110389000Y-96100000D02*
X108458000Y-98031000D01*
X108458000Y-98031000D02*
X108458000Y-98806000D01*
X113790000Y-96100000D02*
X114134000Y-96100000D01*
X114134000Y-96100000D02*
X115984000Y-97950000D01*
X115984000Y-97950000D02*
X117790000Y-97950000D01*
X125754999Y-98735001D02*
X119450001Y-98735001D01*
X125830000Y-98660000D02*
X125754999Y-98735001D01*
X119450001Y-98735001D02*
X118665000Y-97950000D01*
X118665000Y-97950000D02*
X117790000Y-97950000D01*
X130744000Y-96350000D02*
X127390000Y-96350000D01*
X127390000Y-96350000D02*
X126705000Y-97035000D01*
X126705000Y-97035000D02*
X126705000Y-97160000D01*
X126705000Y-97160000D02*
X125955000Y-97910000D01*
X125955000Y-97910000D02*
X125830000Y-97910000D01*
X120788040Y-101660000D02*
X121637480Y-101660000D01*
X121637480Y-101660000D02*
X123640000Y-101660000D01*
X124706607Y-99330999D02*
X110252999Y-99330999D01*
X125490179Y-100114571D02*
X124706607Y-99330999D01*
X126150001Y-100684999D02*
X125815130Y-100684999D01*
X129035000Y-106690000D02*
X129035000Y-103569998D01*
X129035000Y-103569998D02*
X126150001Y-100684999D01*
X110252999Y-99330999D02*
X109728000Y-98806000D01*
X125815130Y-100684999D02*
X125490179Y-100360048D01*
X125490179Y-100360048D02*
X125490179Y-100114571D01*
X129270760Y-106948240D02*
X129270760Y-107553760D01*
X130305000Y-104203587D02*
X126161392Y-100059979D01*
X130305000Y-106690000D02*
X130305000Y-104203587D01*
X126161392Y-100059979D02*
X126115181Y-100059979D01*
X124460000Y-100076000D02*
X109728000Y-100076000D01*
X131575000Y-116090000D02*
X131575000Y-124711000D01*
X131575000Y-124711000D02*
X130302000Y-125984000D01*
X127762000Y-123698000D02*
X127762000Y-125984000D01*
X127762000Y-120650000D02*
X130305000Y-118107000D01*
X127762000Y-123698000D02*
X127762000Y-120650000D01*
X130305000Y-118107000D02*
X130305000Y-116090000D01*
X125869999Y-108255825D02*
X125869999Y-102889999D01*
X125540000Y-102560000D02*
X125540000Y-101660000D01*
X125869999Y-102889999D02*
X125540000Y-102560000D01*
X129035000Y-111420826D02*
X125869999Y-108255825D01*
X129035000Y-116090000D02*
X129035000Y-111420826D01*
X127765000Y-116090000D02*
X127765000Y-116765000D01*
X127765000Y-116765000D02*
X127215000Y-117315000D01*
X127215000Y-117315000D02*
X127158538Y-117315000D01*
X127158538Y-117315000D02*
X123870601Y-120602937D01*
X123870601Y-120602937D02*
X123870601Y-127335399D01*
X123870601Y-127335399D02*
X122682000Y-128524000D01*
X126495000Y-116090000D02*
X126495000Y-117342127D01*
X126495000Y-117342127D02*
X122682000Y-121155127D01*
X122682000Y-123698000D02*
X122682000Y-125984000D01*
X122682000Y-121155127D02*
X122682000Y-123698000D01*
X125225000Y-116090000D02*
X125225000Y-117345000D01*
X121330601Y-127335399D02*
X120142000Y-128524000D01*
X125225000Y-117345000D02*
X121330601Y-121239399D01*
X121330601Y-121239399D02*
X121330601Y-127335399D01*
X120142000Y-123698000D02*
X120142000Y-125984000D01*
X120142000Y-123698000D02*
X120142000Y-121158000D01*
X123955000Y-117345000D02*
X123955000Y-116090000D01*
X120142000Y-121158000D02*
X123955000Y-117345000D01*
X122685000Y-116090000D02*
X122685000Y-117393686D01*
X122685000Y-117393686D02*
X117602000Y-122476686D01*
X117602000Y-122476686D02*
X117602000Y-123698000D01*
X117602000Y-123698000D02*
X117602000Y-125984000D01*
X121415000Y-116090000D02*
X121415000Y-116765000D01*
X121415000Y-116765000D02*
X116250601Y-121929399D01*
X116250601Y-121929399D02*
X116250601Y-127335399D01*
X116250601Y-127335399D02*
X115062000Y-128524000D01*
X115062000Y-123698000D02*
X115062000Y-125984000D01*
X115062000Y-123698000D02*
X115062000Y-120904000D01*
X115062000Y-120904000D02*
X119876000Y-116090000D01*
X119876000Y-116090000D02*
X120145000Y-116090000D01*
X122685000Y-106690000D02*
X122685000Y-108037996D01*
X122685000Y-108037996D02*
X117230998Y-113491998D01*
X117230998Y-113491998D02*
X117230998Y-117973002D01*
X117230998Y-117973002D02*
X113873399Y-121330601D01*
X113873399Y-121330601D02*
X113873399Y-127172601D01*
X113873399Y-127172601D02*
X112522000Y-128524000D01*
X121415000Y-106690000D02*
X121415000Y-108671585D01*
X112522000Y-121920000D02*
X112522000Y-123698000D01*
X121415000Y-108671585D02*
X116780987Y-113305598D01*
X116780987Y-113305598D02*
X116780987Y-117661013D01*
X116780987Y-117661013D02*
X112522000Y-121920000D01*
X112522000Y-123698000D02*
X112522000Y-125984000D01*
X109982000Y-123698000D02*
X109982000Y-125984000D01*
X120145000Y-107915000D02*
X120145000Y-106690000D01*
X120145000Y-109305174D02*
X120145000Y-107915000D01*
X116330976Y-113119198D02*
X120145000Y-109305174D01*
X116330976Y-117349024D02*
X116330976Y-113119198D01*
X109982000Y-123698000D02*
X116330976Y-117349024D01*
X109982000Y-123698000D02*
X110845599Y-122834401D01*
X114808000Y-115360000D02*
X114808000Y-116260000D01*
X115833000Y-114335000D02*
X114808000Y-115360000D01*
X115833000Y-112980763D02*
X115833000Y-114335000D01*
X116078000Y-108946000D02*
X116078000Y-112735763D01*
X113858000Y-106426000D02*
X113858000Y-106726000D01*
X116078000Y-112735763D02*
X115833000Y-112980763D01*
X113858000Y-106726000D02*
X116078000Y-108946000D01*
X114808000Y-116260000D02*
X106858000Y-116260000D01*
X126495000Y-106690000D02*
X126495000Y-108244415D01*
X126495000Y-108244415D02*
X129660001Y-111409416D01*
X129660001Y-111409416D02*
X129660001Y-117325001D01*
X129660001Y-117325001D02*
X126573399Y-120411603D01*
X126573399Y-127335399D02*
X127762000Y-128524000D01*
X126573399Y-120411603D02*
X126573399Y-127335399D01*
X126679960Y-106897440D02*
X126730760Y-106948240D01*
X127765000Y-106690000D02*
X127765000Y-108878004D01*
X129113399Y-119935011D02*
X129113399Y-127335399D01*
X127765000Y-108878004D02*
X130930001Y-112043005D01*
X130930001Y-112043005D02*
X130930001Y-118118409D01*
X130930001Y-118118409D02*
X129113399Y-119935011D01*
X129113399Y-127335399D02*
X130302000Y-128524000D01*
M02*
