M48
;DRILL file {KiCad 4.0.1-stable} date Wednesday, August 10, 2016 'PMt' 06:55:07 PM
;FORMAT={-:-/ absolute / inch / decimal}
FMAT,2
INCH,TZ
T1C0.016
T2C0.026
T3C0.040
%
G90
G05
M72
T1
X4.42Y-3.88
X4.4297Y-3.9803
X4.52Y-4.47
X4.59Y-4.04
X4.6Y-4.19
X4.64Y-4.48
X4.72Y-3.81
X4.88Y-3.82
X4.9Y-3.94
X4.9012Y-3.99
X4.92Y-4.13
X4.9652Y-3.9394
X4.97Y-4.36
X4.99Y-3.91
X5.06Y-4.28
X5.24Y-3.94
T2
X4.27Y-3.89
X4.27Y-3.94
X4.27Y-3.99
X4.27Y-4.04
X4.27Y-4.09
X4.32Y-3.89
X4.32Y-3.94
X4.32Y-3.99
X4.32Y-4.04
X4.32Y-4.09
T3
X4.33Y-4.96
X4.33Y-5.06
X4.43Y-4.96
X4.43Y-5.06
X4.53Y-4.96
X4.53Y-5.06
X4.63Y-4.96
X4.63Y-5.06
X4.73Y-4.96
X4.73Y-5.06
X4.83Y-4.96
X4.83Y-5.06
X4.93Y-4.96
X4.93Y-5.06
X5.03Y-4.96
X5.03Y-5.06
X5.13Y-4.96
X5.13Y-5.06
X5.23Y-4.96
X5.23Y-5.06
T0
M30
