G04 #@! TF.FileFunction,Soldermask,Top*
%FSLAX46Y46*%
G04 Gerber Fmt 4.6, Leading zero omitted, Abs format (unit mm)*
G04 Created by KiCad (PCBNEW 4.0.1-stable) date Wednesday, August 10, 2016 'PMt' 07:16:23 PM*
%MOMM*%
G01*
G04 APERTURE LIST*
%ADD10C,0.100000*%
%ADD11R,2.350000X1.000000*%
%ADD12R,1.400000X1.650000*%
%ADD13R,1.598880X1.598880*%
%ADD14R,1.700000X1.100000*%
%ADD15R,1.100000X1.700000*%
%ADD16R,2.432000X4.057600*%
%ADD17R,2.432000X1.416000*%
%ADD18R,1.450000X1.450000*%
%ADD19C,1.450000*%
%ADD20R,1.700000X1.950000*%
%ADD21R,2.127200X2.127200*%
%ADD22O,2.127200X2.127200*%
%ADD23R,2.127200X2.432000*%
%ADD24O,2.127200X2.432000*%
%ADD25R,1.000000X2.400000*%
%ADD26R,0.800000X1.900000*%
%ADD27R,1.650000X1.400000*%
G04 APERTURE END LIST*
D10*
D11*
X131536458Y-130380810D03*
X131536458Y-131650810D03*
X131536458Y-132920810D03*
X131536458Y-134190810D03*
X131536458Y-135460810D03*
X131536458Y-136730810D03*
X131536458Y-138000810D03*
X131536458Y-139270810D03*
X131536458Y-140540810D03*
X131536458Y-141810810D03*
X140936458Y-141810810D03*
X140936458Y-140540810D03*
X140936458Y-139270810D03*
X140936458Y-138000810D03*
X140936458Y-136730810D03*
X140936458Y-135460810D03*
X140936458Y-134190810D03*
X140936458Y-132920810D03*
X140936458Y-131650810D03*
X140936458Y-130380810D03*
D12*
X146526458Y-124025810D03*
X144526458Y-124025810D03*
X151676458Y-128025810D03*
X149676458Y-128025810D03*
X151716458Y-132225810D03*
X149716458Y-132225810D03*
X149716458Y-136065810D03*
X151716458Y-136065810D03*
D13*
X145966458Y-131023850D03*
X145966458Y-128925810D03*
D14*
X145966458Y-133875810D03*
X145966458Y-135775810D03*
D15*
X151526458Y-124025810D03*
X149626458Y-124025810D03*
D14*
X141200458Y-124093810D03*
X141200458Y-125993810D03*
D16*
X144672458Y-143265810D03*
D17*
X151276458Y-143265810D03*
X151276458Y-140979810D03*
X151276458Y-145551810D03*
D18*
X148820458Y-118693810D03*
D19*
X147550458Y-118693810D03*
X146280458Y-118693810D03*
X145010458Y-118693810D03*
X143740458Y-118693810D03*
X147550458Y-119963810D03*
X146280458Y-119963810D03*
X145010458Y-119963810D03*
X143740458Y-119963810D03*
X148820458Y-119963810D03*
D20*
X131366458Y-117093810D03*
X135866458Y-117093810D03*
X135866458Y-125043810D03*
X131366458Y-125043810D03*
D21*
X118872000Y-120217810D03*
D22*
X121412000Y-120217810D03*
X118872000Y-122757810D03*
X121412000Y-122757810D03*
X118872000Y-125297810D03*
X121412000Y-125297810D03*
X118872000Y-127837810D03*
X121412000Y-127837810D03*
X118872000Y-130377810D03*
X121412000Y-130377810D03*
X118872000Y-132917810D03*
X121412000Y-132917810D03*
X118872000Y-135457810D03*
X121412000Y-135457810D03*
X118872000Y-137997810D03*
X121412000Y-137997810D03*
X118872000Y-140537810D03*
X121412000Y-140537810D03*
X118872000Y-143077810D03*
X121412000Y-143077810D03*
D23*
X125452458Y-113105810D03*
D24*
X122912458Y-113105810D03*
X120372458Y-113105810D03*
D21*
X180086000Y-138938000D03*
D22*
X177546000Y-138938000D03*
X180086000Y-136398000D03*
X177546000Y-136398000D03*
X180086000Y-133858000D03*
X177546000Y-133858000D03*
X180086000Y-131318000D03*
X177546000Y-131318000D03*
X180086000Y-128778000D03*
X177546000Y-128778000D03*
X180086000Y-126238000D03*
X177546000Y-126238000D03*
X180086000Y-123698000D03*
X177546000Y-123698000D03*
X180086000Y-121158000D03*
X177546000Y-121158000D03*
X180086000Y-118618000D03*
X177546000Y-118618000D03*
X180086000Y-116078000D03*
X177546000Y-116078000D03*
D25*
X169672000Y-134620000D03*
X168402000Y-134620000D03*
X167132000Y-134620000D03*
X165862000Y-134620000D03*
X164592000Y-134620000D03*
X163322000Y-134620000D03*
X162052000Y-134620000D03*
X160782000Y-134620000D03*
X159512000Y-134620000D03*
X158242000Y-134620000D03*
X156972000Y-134620000D03*
X155702000Y-134620000D03*
X169672000Y-125220000D03*
X168402000Y-125220000D03*
X167132000Y-125220000D03*
X165862000Y-125220000D03*
X164592000Y-125220000D03*
X163322000Y-125220000D03*
X162052000Y-125220000D03*
X160782000Y-125220000D03*
X159512000Y-125220000D03*
X158242000Y-125220000D03*
X156972000Y-125220000D03*
X155702000Y-125220000D03*
D26*
X161776000Y-146354000D03*
X161126000Y-146354000D03*
X160476000Y-146354000D03*
X159826000Y-146354000D03*
X159176000Y-146354000D03*
X158526000Y-146354000D03*
X157876000Y-146354000D03*
X157226000Y-146354000D03*
X156576000Y-146354000D03*
X155926000Y-146354000D03*
X155276000Y-146354000D03*
X154626000Y-146354000D03*
X161776000Y-139954000D03*
X161126000Y-139954000D03*
X160476000Y-139954000D03*
X159826000Y-139954000D03*
X159176000Y-139954000D03*
X158526000Y-139954000D03*
X157876000Y-139954000D03*
X157226000Y-139954000D03*
X156576000Y-139954000D03*
X155926000Y-139954000D03*
X155276000Y-139954000D03*
X154626000Y-139954000D03*
X164450000Y-112726000D03*
X165100000Y-112726000D03*
X165750000Y-112726000D03*
X166400000Y-112726000D03*
X167050000Y-112726000D03*
X167700000Y-112726000D03*
X168350000Y-112726000D03*
X169000000Y-112726000D03*
X169650000Y-112726000D03*
X170300000Y-112726000D03*
X170950000Y-112726000D03*
X171600000Y-112726000D03*
X164450000Y-119126000D03*
X165100000Y-119126000D03*
X165750000Y-119126000D03*
X166400000Y-119126000D03*
X167050000Y-119126000D03*
X167700000Y-119126000D03*
X168350000Y-119126000D03*
X169000000Y-119126000D03*
X169650000Y-119126000D03*
X170300000Y-119126000D03*
X170950000Y-119126000D03*
X171600000Y-119126000D03*
D27*
X171450000Y-144018000D03*
X171450000Y-142018000D03*
X159996458Y-119872000D03*
X159996458Y-117872000D03*
D12*
X166846000Y-141732000D03*
X164846000Y-141732000D03*
X159020000Y-113538000D03*
X161020000Y-113538000D03*
X166846000Y-145796000D03*
X164846000Y-145796000D03*
M02*
