M48
;DRILL file {KiCad 4.0.1-stable} date Wednesday, August 10, 2016 'PMt' 07:16:27 PM
;FORMAT={-:-/ absolute / inch / decimal}
FMAT,2
INCH,TZ
T1C0.016
T2C0.026
T3C0.040
%
G90
G05
M72
T1
X4.96Y-4.76
X4.96Y-4.84
X4.96Y-4.99
X5.2Y-5.05
X5.25Y-5.42
X5.2754Y-5.0494
X5.2791Y-4.923
X5.28Y-5.0854
X5.29Y-5.
X5.3Y-5.49
X5.35Y-5.11
X5.38Y-5.
X5.4052Y-5.0246
X5.4482Y-5.5028
X5.474Y-5.2992
X5.6191Y-5.323
X5.63Y-4.93
X5.6697Y-5.2815
X5.68Y-5.07
X5.6959Y-5.1042
X5.7Y-5.29
X5.76Y-5.31
X5.7688Y-4.8327
X5.7799Y-4.9833
X5.7802Y-5.0148
X5.8Y-5.0785
X5.8Y-5.11
X5.8091Y-5.303
X5.8091Y-5.643
X5.8097Y-5.3681
X5.8391Y-5.393
X5.8691Y-4.823
X5.93Y-5.31
X5.93Y-5.44
X5.98Y-4.96
X6.04Y-5.08
X6.04Y-5.42
X6.06Y-5.85
X6.0685Y-5.0507
X6.07Y-5.19
X6.08Y-5.08
X6.08Y-5.25
X6.09Y-5.43
X6.12Y-5.02
X6.16Y-4.84
X6.17Y-5.02
X6.19Y-4.48
X6.24Y-5.69
X6.32Y-4.78
X6.34Y-5.7
X6.5Y-4.62
X6.64Y-5.74
X6.65Y-5.58
X6.68Y-4.83
X6.74Y-4.76
X6.8Y-4.44
T2
X5.6591Y-4.673
X5.6591Y-4.723
X5.7091Y-4.673
X5.7091Y-4.723
X5.7591Y-4.673
X5.7591Y-4.723
X5.8091Y-4.673
X5.8091Y-4.723
X5.8591Y-4.673
X5.8591Y-4.723
T3
X4.68Y-4.733
X4.68Y-4.833
X4.68Y-4.933
X4.68Y-5.033
X4.68Y-5.133
X4.68Y-5.233
X4.68Y-5.333
X4.68Y-5.433
X4.68Y-5.533
X4.68Y-5.633
X4.7391Y-4.453
X4.78Y-4.733
X4.78Y-4.833
X4.78Y-4.933
X4.78Y-5.033
X4.78Y-5.133
X4.78Y-5.233
X4.78Y-5.333
X4.78Y-5.433
X4.78Y-5.533
X4.78Y-5.633
X4.8391Y-4.453
X4.9391Y-4.453
X6.99Y-4.57
X6.99Y-4.67
X6.99Y-4.77
X6.99Y-4.87
X6.99Y-4.97
X6.99Y-5.07
X6.99Y-5.17
X6.99Y-5.27
X6.99Y-5.37
X6.99Y-5.47
X7.09Y-4.57
X7.09Y-4.67
X7.09Y-4.77
X7.09Y-4.87
X7.09Y-4.97
X7.09Y-5.07
X7.09Y-5.17
X7.09Y-5.27
X7.09Y-5.37
X7.09Y-5.47
T0
M30
