G04 #@! TF.FileFunction,Soldermask,Bot*
%FSLAX46Y46*%
G04 Gerber Fmt 4.6, Leading zero omitted, Abs format (unit mm)*
G04 Created by KiCad (PCBNEW 4.0.1-stable) date Wednesday, August 10, 2016 'PMt' 07:16:23 PM*
%MOMM*%
G01*
G04 APERTURE LIST*
%ADD10C,0.100000*%
%ADD11R,1.450000X1.450000*%
%ADD12C,1.450000*%
%ADD13R,2.127200X2.127200*%
%ADD14O,2.127200X2.127200*%
%ADD15R,2.127200X2.432000*%
%ADD16O,2.127200X2.432000*%
G04 APERTURE END LIST*
D10*
D11*
X148820458Y-118693810D03*
D12*
X147550458Y-118693810D03*
X146280458Y-118693810D03*
X145010458Y-118693810D03*
X143740458Y-118693810D03*
X147550458Y-119963810D03*
X146280458Y-119963810D03*
X145010458Y-119963810D03*
X143740458Y-119963810D03*
X148820458Y-119963810D03*
D13*
X118872000Y-120217810D03*
D14*
X121412000Y-120217810D03*
X118872000Y-122757810D03*
X121412000Y-122757810D03*
X118872000Y-125297810D03*
X121412000Y-125297810D03*
X118872000Y-127837810D03*
X121412000Y-127837810D03*
X118872000Y-130377810D03*
X121412000Y-130377810D03*
X118872000Y-132917810D03*
X121412000Y-132917810D03*
X118872000Y-135457810D03*
X121412000Y-135457810D03*
X118872000Y-137997810D03*
X121412000Y-137997810D03*
X118872000Y-140537810D03*
X121412000Y-140537810D03*
X118872000Y-143077810D03*
X121412000Y-143077810D03*
D15*
X125452458Y-113105810D03*
D16*
X122912458Y-113105810D03*
X120372458Y-113105810D03*
D13*
X180086000Y-138938000D03*
D14*
X177546000Y-138938000D03*
X180086000Y-136398000D03*
X177546000Y-136398000D03*
X180086000Y-133858000D03*
X177546000Y-133858000D03*
X180086000Y-131318000D03*
X177546000Y-131318000D03*
X180086000Y-128778000D03*
X177546000Y-128778000D03*
X180086000Y-126238000D03*
X177546000Y-126238000D03*
X180086000Y-123698000D03*
X177546000Y-123698000D03*
X180086000Y-121158000D03*
X177546000Y-121158000D03*
X180086000Y-118618000D03*
X177546000Y-118618000D03*
X180086000Y-116078000D03*
X177546000Y-116078000D03*
M02*
