G04 #@! TF.FileFunction,Soldermask,Top*
%FSLAX46Y46*%
G04 Gerber Fmt 4.6, Leading zero omitted, Abs format (unit mm)*
G04 Created by KiCad (PCBNEW 4.0.4-stable) date Friday, December 29, 2017 'AMt' 10:56:01 AM*
%MOMM*%
%LPD*%
G01*
G04 APERTURE LIST*
%ADD10C,0.100000*%
%ADD11R,1.650000X1.900000*%
%ADD12R,1.900000X1.650000*%
%ADD13R,1.900000X1.700000*%
%ADD14R,1.000000X1.950000*%
%ADD15R,2.100000X2.100000*%
%ADD16O,2.100000X2.100000*%
%ADD17R,1.700000X1.900000*%
%ADD18R,1.850000X0.850000*%
%ADD19R,2.400000X2.000000*%
%ADD20R,3.700000X4.900000*%
%ADD21R,2.400000X2.100000*%
%ADD22R,1.300000X1.600000*%
%ADD23R,1.400000X1.400000*%
%ADD24R,2.100000X2.400000*%
%ADD25R,3.900000X3.900000*%
%ADD26R,2.050000X0.800000*%
%ADD27O,1.900000X1.500000*%
%ADD28O,2.100000X1.600000*%
%ADD29R,2.900000X1.830000*%
%ADD30R,7.900000X5.400000*%
%ADD31R,3.600000X3.100000*%
%ADD32R,0.650000X1.700000*%
%ADD33R,1.700000X0.650000*%
%ADD34R,0.900000X0.900000*%
%ADD35R,3.400000X3.000000*%
%ADD36R,0.750000X1.750000*%
%ADD37R,1.000000X2.600000*%
%ADD38R,3.850000X2.550000*%
%ADD39R,1.460000X1.050000*%
%ADD40R,1.960000X1.050000*%
%ADD41R,0.850000X1.450000*%
%ADD42R,1.295000X1.870000*%
%ADD43R,0.800000X1.900000*%
%ADD44O,1.400000X1.400000*%
%ADD45R,1.700000X1.700000*%
%ADD46R,1.700000X2.400000*%
%ADD47R,1.400000X1.100000*%
%ADD48R,2.200000X1.400000*%
%ADD49R,1.100000X1.400000*%
%ADD50C,8.100000*%
%ADD51C,1.100000*%
%ADD52C,3.400000*%
%ADD53R,0.440000X1.740000*%
%ADD54R,5.660000X3.150000*%
%ADD55R,1.500000X0.700000*%
%ADD56C,1.700000*%
%ADD57C,2.584400*%
%ADD58C,1.808000*%
%ADD59R,3.000000X7.700000*%
%ADD60R,2.700000X3.900000*%
%ADD61C,1.400000*%
%ADD62R,2.400000X1.700000*%
%ADD63R,1.950000X1.700000*%
%ADD64R,1.950000X1.000000*%
G04 APERTURE END LIST*
D10*
D11*
X83800000Y-67250000D03*
X83800000Y-64750000D03*
D12*
X102050000Y-20400000D03*
X99550000Y-20400000D03*
X102050000Y-24900000D03*
X99550000Y-24900000D03*
D13*
X99450000Y-18500000D03*
X102150000Y-18500000D03*
D14*
X97405000Y-20950000D03*
X96135000Y-20950000D03*
X94865000Y-20950000D03*
X93595000Y-20950000D03*
X93595000Y-26350000D03*
X94865000Y-26350000D03*
X96135000Y-26350000D03*
X97405000Y-26350000D03*
D13*
X97350000Y-28700000D03*
X94650000Y-28700000D03*
X102150000Y-26800000D03*
X99450000Y-26800000D03*
X97350000Y-18500000D03*
X94650000Y-18500000D03*
X102150000Y-22300000D03*
X99450000Y-22300000D03*
X99450000Y-28700000D03*
X102150000Y-28700000D03*
D15*
X83560000Y-26950000D03*
D16*
X86100000Y-26950000D03*
X88640000Y-26950000D03*
D15*
X83560000Y-20350000D03*
D16*
X86100000Y-20350000D03*
X88640000Y-20350000D03*
D17*
X91700000Y-24750000D03*
X91700000Y-27450000D03*
X91700000Y-22650000D03*
X91700000Y-19950000D03*
D11*
X65830000Y-40440000D03*
X65830000Y-37940000D03*
X65830000Y-33840000D03*
X65830000Y-31340000D03*
X65830000Y-27240000D03*
X65830000Y-24740000D03*
X65830000Y-20640000D03*
X65830000Y-18140000D03*
D17*
X56910000Y-38080000D03*
X56910000Y-40780000D03*
X56910000Y-31480000D03*
X56910000Y-34180000D03*
X56910000Y-24880000D03*
X56910000Y-27580000D03*
X56910000Y-18280000D03*
X56910000Y-20980000D03*
D18*
X63390000Y-40225000D03*
X63390000Y-39575000D03*
X63390000Y-38925000D03*
X63390000Y-38275000D03*
X58990000Y-38275000D03*
X58990000Y-38925000D03*
X58990000Y-39575000D03*
X58990000Y-40225000D03*
X63390000Y-33625000D03*
X63390000Y-32975000D03*
X63390000Y-32325000D03*
X63390000Y-31675000D03*
X58990000Y-31675000D03*
X58990000Y-32325000D03*
X58990000Y-32975000D03*
X58990000Y-33625000D03*
X63390000Y-27025000D03*
X63390000Y-26375000D03*
X63390000Y-25725000D03*
X63390000Y-25075000D03*
X58990000Y-25075000D03*
X58990000Y-25725000D03*
X58990000Y-26375000D03*
X58990000Y-27025000D03*
X63390000Y-20425000D03*
X63390000Y-19775000D03*
X63390000Y-19125000D03*
X63390000Y-18475000D03*
X58990000Y-18475000D03*
X58990000Y-19125000D03*
X58990000Y-19775000D03*
X58990000Y-20425000D03*
D15*
X68590000Y-40150000D03*
D16*
X71130000Y-40150000D03*
X73670000Y-40150000D03*
D15*
X68590000Y-33550000D03*
D16*
X71130000Y-33550000D03*
X73670000Y-33550000D03*
D15*
X68590000Y-26950000D03*
D16*
X71130000Y-26950000D03*
X73670000Y-26950000D03*
D15*
X68590000Y-20350000D03*
D16*
X71130000Y-20350000D03*
X73670000Y-20350000D03*
D18*
X63390000Y-13825000D03*
X63390000Y-13175000D03*
X63390000Y-12525000D03*
X63390000Y-11875000D03*
X58990000Y-11875000D03*
X58990000Y-12525000D03*
X58990000Y-13175000D03*
X58990000Y-13825000D03*
D17*
X56910000Y-11680000D03*
X56910000Y-14380000D03*
D15*
X68590000Y-13750000D03*
D16*
X71130000Y-13750000D03*
X73670000Y-13750000D03*
D11*
X65830000Y-14040000D03*
X65830000Y-11540000D03*
D12*
X123000000Y-38300000D03*
X125500000Y-38300000D03*
X113050000Y-29350000D03*
X115550000Y-29350000D03*
X114450000Y-25550000D03*
X116950000Y-25550000D03*
X108800000Y-87550000D03*
X106300000Y-87550000D03*
D11*
X117350000Y-59150000D03*
X117350000Y-61650000D03*
X119250000Y-59150000D03*
X119250000Y-61650000D03*
X123200000Y-61800000D03*
X123200000Y-59300000D03*
D12*
X123000000Y-34500000D03*
X125500000Y-34500000D03*
D11*
X120350000Y-45500000D03*
X120350000Y-48000000D03*
D12*
X123000000Y-36400000D03*
X125500000Y-36400000D03*
X123000000Y-41400000D03*
X125500000Y-41400000D03*
X123000000Y-43950000D03*
X125500000Y-43950000D03*
D11*
X117900000Y-45500000D03*
X117900000Y-48000000D03*
X113800000Y-46900000D03*
X113800000Y-49400000D03*
D12*
X123000000Y-45800000D03*
X125500000Y-45800000D03*
D19*
X40250000Y-26350000D03*
X44250000Y-26350000D03*
D12*
X8000000Y-114850000D03*
X5500000Y-114850000D03*
X13800000Y-123650000D03*
X11300000Y-123650000D03*
D11*
X18729960Y-119771480D03*
X18729960Y-117271480D03*
D19*
X30400000Y-116650000D03*
X26400000Y-116650000D03*
D11*
X55631080Y-75875200D03*
X55631080Y-73375200D03*
X65506600Y-82255680D03*
X65506600Y-79755680D03*
D12*
X60243400Y-84399120D03*
X62743400Y-84399120D03*
D11*
X69088000Y-81768000D03*
X69088000Y-79268000D03*
D12*
X47462760Y-85468460D03*
X44962760Y-85468460D03*
X56133680Y-97353120D03*
X58633680Y-97353120D03*
X57688800Y-85580220D03*
X55188800Y-85580220D03*
D11*
X60838080Y-96489200D03*
X60838080Y-98989200D03*
D12*
X74150000Y-70400000D03*
X76650000Y-70400000D03*
D11*
X81600000Y-67850000D03*
X81600000Y-70350000D03*
X67871680Y-64623000D03*
X67871680Y-67123000D03*
D12*
X86950000Y-65800000D03*
X89450000Y-65800000D03*
D11*
X70215760Y-72747820D03*
X70215760Y-75247820D03*
D12*
X80817840Y-77973000D03*
X83317840Y-77973000D03*
D11*
X76300000Y-72850000D03*
X76300000Y-75350000D03*
X83600000Y-75350000D03*
X83600000Y-72850000D03*
D12*
X102050000Y-7200000D03*
X99550000Y-7200000D03*
X102050000Y-11700000D03*
X99550000Y-11700000D03*
X58850000Y-48500000D03*
X61350000Y-48500000D03*
X59050000Y-55200000D03*
X61550000Y-55200000D03*
D11*
X49700000Y-3050000D03*
X49700000Y-5550000D03*
D12*
X94350000Y-33800000D03*
X91850000Y-33800000D03*
X94350000Y-40500000D03*
X91850000Y-40500000D03*
X94350000Y-47000000D03*
X91850000Y-47000000D03*
X94350000Y-53600000D03*
X91850000Y-53600000D03*
D11*
X65830000Y-7440000D03*
X65830000Y-4940000D03*
X14800000Y-88400000D03*
X14800000Y-85900000D03*
X12950000Y-88400000D03*
X12950000Y-85900000D03*
X14200000Y-94400000D03*
X14200000Y-96900000D03*
X16100000Y-94400000D03*
X16100000Y-96900000D03*
X17230000Y-49050000D03*
X17230000Y-51550000D03*
X14127480Y-49054700D03*
X14127480Y-51554700D03*
X2890000Y-49050000D03*
X2890000Y-51550000D03*
X1016000Y-56114000D03*
X1016000Y-53614000D03*
X20750000Y-51550000D03*
X20750000Y-49050000D03*
D12*
X12800000Y-60700000D03*
X15300000Y-60700000D03*
D11*
X28239720Y-55672040D03*
X28239720Y-53172040D03*
X6106160Y-51648680D03*
X6106160Y-49148680D03*
X2670000Y-65750000D03*
X2670000Y-63250000D03*
X12192000Y-49042000D03*
X12192000Y-51542000D03*
D12*
X93500000Y-107950000D03*
X91000000Y-107950000D03*
D20*
X32100000Y-36350000D03*
X32100000Y-27550000D03*
D21*
X38050000Y-53600000D03*
X34050000Y-53600000D03*
D22*
X43550000Y-53700000D03*
X40250000Y-53700000D03*
D23*
X36050000Y-57750000D03*
X38550000Y-57750000D03*
D21*
X34900000Y-121200000D03*
X38900000Y-121200000D03*
D22*
X41460960Y-123634760D03*
X44760960Y-123634760D03*
D21*
X77438000Y-85217000D03*
X73438000Y-85217000D03*
D22*
X68949840Y-88300560D03*
X65649840Y-88300560D03*
D24*
X58552080Y-117824000D03*
X58552080Y-113824000D03*
D23*
X62829440Y-96448560D03*
X62829440Y-98948560D03*
D24*
X74100000Y-48750000D03*
X74100000Y-44750000D03*
X74100000Y-51600000D03*
X74100000Y-55600000D03*
D25*
X110250000Y-102900000D03*
X117050000Y-102900000D03*
D15*
X38410000Y-12450000D03*
D16*
X40950000Y-12450000D03*
D15*
X96170000Y-122715000D03*
D16*
X96170000Y-120175000D03*
X98710000Y-122715000D03*
X98710000Y-120175000D03*
X101250000Y-122715000D03*
X101250000Y-120175000D03*
D26*
X121270000Y-112380000D03*
X121270000Y-111730000D03*
X121270000Y-111080000D03*
X121270000Y-110430000D03*
X121270000Y-109780000D03*
D27*
X121150000Y-113500000D03*
X121150000Y-108660000D03*
D28*
X124150000Y-113810000D03*
X124150000Y-108350000D03*
D29*
X124390000Y-112040000D03*
X124390000Y-110120000D03*
D24*
X101600000Y-92170000D03*
X101600000Y-88170000D03*
D30*
X32450000Y-45775000D03*
X45950000Y-45775000D03*
D21*
X65294760Y-84526120D03*
X69294760Y-84526120D03*
D24*
X57807860Y-90006420D03*
X57807860Y-94006420D03*
D13*
X116950000Y-27400000D03*
X114250000Y-27400000D03*
X117250000Y-21250000D03*
X114550000Y-21250000D03*
X109000000Y-85450000D03*
X106300000Y-85450000D03*
D17*
X103550000Y-84550000D03*
X103550000Y-81850000D03*
X103550000Y-73050000D03*
X103550000Y-75750000D03*
D13*
X103450000Y-79750000D03*
X100750000Y-79750000D03*
X103450000Y-77800000D03*
X100750000Y-77800000D03*
X124750000Y-29300000D03*
X122050000Y-29300000D03*
X92376000Y-84074000D03*
X95076000Y-84074000D03*
X122050000Y-31200000D03*
X124750000Y-31200000D03*
D17*
X115400000Y-59150000D03*
X115400000Y-61850000D03*
X121250000Y-59150000D03*
X121250000Y-61850000D03*
D13*
X118900000Y-17950000D03*
X116200000Y-17950000D03*
X108650000Y-41850000D03*
X105950000Y-41850000D03*
X118900000Y-16050000D03*
X116200000Y-16050000D03*
X108650000Y-39950000D03*
X105950000Y-39950000D03*
X118900000Y-14150000D03*
X116200000Y-14150000D03*
X91106000Y-82042000D03*
X93806000Y-82042000D03*
D17*
X119250000Y-57000000D03*
X119250000Y-54300000D03*
D13*
X116200000Y-12200000D03*
X118900000Y-12200000D03*
X105950000Y-47550000D03*
X108650000Y-47550000D03*
X105950000Y-45650000D03*
X108650000Y-45650000D03*
X105950000Y-43750000D03*
X108650000Y-43750000D03*
D17*
X117300000Y-57000000D03*
X117300000Y-54300000D03*
X122300000Y-48000000D03*
X122300000Y-50700000D03*
D31*
X31175000Y-20425000D03*
X31175000Y-12525000D03*
D13*
X47180000Y-30100000D03*
X44480000Y-30100000D03*
X38300000Y-55800000D03*
X35600000Y-55800000D03*
X12434580Y-112727740D03*
X15134580Y-112727740D03*
X13850000Y-125600000D03*
X11150000Y-125600000D03*
X30041840Y-113223040D03*
X27341840Y-113223040D03*
X38550000Y-123600000D03*
X35850000Y-123600000D03*
X58246000Y-80645000D03*
X55546000Y-80645000D03*
X60173880Y-82296000D03*
X62873880Y-82296000D03*
X47506880Y-83428840D03*
X44806880Y-83428840D03*
X56074320Y-99395280D03*
X58774320Y-99395280D03*
X52698640Y-117896640D03*
X49998640Y-117896640D03*
D17*
X71755000Y-81233000D03*
X71755000Y-78533000D03*
D13*
X86850000Y-69600000D03*
X89550000Y-69600000D03*
X74215000Y-83058000D03*
X76915000Y-83058000D03*
X86850000Y-67700000D03*
X89550000Y-67700000D03*
X83367840Y-79973000D03*
X80667840Y-79973000D03*
X83317840Y-81973000D03*
X80617840Y-81973000D03*
D17*
X91700000Y-9450000D03*
X91700000Y-6750000D03*
X91700000Y-11550000D03*
X91700000Y-14250000D03*
D13*
X99450000Y-5300000D03*
X102150000Y-5300000D03*
X99450000Y-15500000D03*
X102150000Y-15500000D03*
X97350000Y-5300000D03*
X94650000Y-5300000D03*
X97350000Y-15500000D03*
X94650000Y-15500000D03*
X102150000Y-9100000D03*
X99450000Y-9100000D03*
X102150000Y-13600000D03*
X99450000Y-13600000D03*
D17*
X76400000Y-47250000D03*
X76400000Y-44550000D03*
X76400000Y-53150000D03*
X76400000Y-55850000D03*
D13*
X61450000Y-44700000D03*
X58750000Y-44700000D03*
X58750000Y-46600000D03*
X61450000Y-46600000D03*
X61550000Y-51400000D03*
X58850000Y-51400000D03*
X58850000Y-53300000D03*
X61550000Y-53300000D03*
X49838120Y-7808294D03*
X52538120Y-7808294D03*
X52548120Y-9668294D03*
X49848120Y-9668294D03*
X94450000Y-31900000D03*
X91750000Y-31900000D03*
X94450000Y-38500000D03*
X91750000Y-38500000D03*
X94450000Y-45100000D03*
X91750000Y-45100000D03*
X94450000Y-51700000D03*
X91750000Y-51700000D03*
D17*
X56910000Y-5080000D03*
X56910000Y-7780000D03*
X61493400Y-114702600D03*
X61493400Y-117402600D03*
X24018240Y-49002960D03*
X24018240Y-51702960D03*
X6700000Y-65800000D03*
X6700000Y-63100000D03*
X9660000Y-48950000D03*
X9660000Y-51650000D03*
D13*
X14377660Y-75387200D03*
X11677660Y-75387200D03*
D17*
X113800000Y-94700000D03*
X113800000Y-92000000D03*
D32*
X113250000Y-42700000D03*
X113750000Y-42700000D03*
X114250000Y-42700000D03*
X114750000Y-42700000D03*
X115250000Y-42700000D03*
X115750000Y-42700000D03*
X116250000Y-42700000D03*
X116750000Y-42700000D03*
X117250000Y-42700000D03*
X117750000Y-42700000D03*
X118250000Y-42700000D03*
X118750000Y-42700000D03*
D33*
X120350000Y-41100000D03*
X120350000Y-40600000D03*
X120350000Y-40100000D03*
X120350000Y-39600000D03*
X120350000Y-39100000D03*
X120350000Y-38600000D03*
X120350000Y-38100000D03*
X120350000Y-37600000D03*
X120350000Y-37100000D03*
X120350000Y-36600000D03*
X120350000Y-36100000D03*
X120350000Y-35600000D03*
D32*
X118750000Y-34000000D03*
X118250000Y-34000000D03*
X117750000Y-34000000D03*
X117250000Y-34000000D03*
X116750000Y-34000000D03*
X116250000Y-34000000D03*
X115750000Y-34000000D03*
X115250000Y-34000000D03*
X114750000Y-34000000D03*
X114250000Y-34000000D03*
X113750000Y-34000000D03*
X113250000Y-34000000D03*
D33*
X111650000Y-35600000D03*
X111650000Y-36100000D03*
X111650000Y-36600000D03*
X111650000Y-37100000D03*
X111650000Y-37600000D03*
X111650000Y-38100000D03*
X111650000Y-38600000D03*
X111650000Y-39100000D03*
X111650000Y-39600000D03*
X111650000Y-40100000D03*
X111650000Y-40600000D03*
X111650000Y-41100000D03*
D34*
X39200000Y-33275000D03*
X38450000Y-34025000D03*
X39950000Y-34025000D03*
X39950000Y-32525000D03*
X38450000Y-32525000D03*
D35*
X39200000Y-33275000D03*
D36*
X39200000Y-31050000D03*
X40800000Y-31050000D03*
X40000000Y-31050000D03*
X38400000Y-31050000D03*
X37600000Y-31050000D03*
X37600000Y-35500000D03*
X38400000Y-35500000D03*
X39200000Y-35500000D03*
X40000000Y-35500000D03*
X40800000Y-35500000D03*
D34*
X14325600Y-119331740D03*
X13575600Y-120081740D03*
X15075600Y-120081740D03*
X15075600Y-118581740D03*
X13575600Y-118581740D03*
D35*
X14325600Y-119331740D03*
D36*
X14325600Y-117106740D03*
X15925600Y-117106740D03*
X15125600Y-117106740D03*
X13525600Y-117106740D03*
X12725600Y-117106740D03*
X12725600Y-121556740D03*
X13525600Y-121556740D03*
X14325600Y-121556740D03*
X15125600Y-121556740D03*
X15925600Y-121556740D03*
D37*
X61991680Y-78210500D03*
X59451680Y-78210500D03*
D38*
X60721680Y-71910500D03*
D37*
X60721680Y-78210500D03*
X63261680Y-78210500D03*
X58181680Y-78210500D03*
X53870000Y-94487500D03*
X51330000Y-94487500D03*
D38*
X52600000Y-88187500D03*
D37*
X52600000Y-94487500D03*
X55140000Y-94487500D03*
X50060000Y-94487500D03*
D39*
X87200000Y-71550000D03*
X87200000Y-72500000D03*
X87200000Y-73450000D03*
X89400000Y-73450000D03*
X89400000Y-71550000D03*
D40*
X74342000Y-78806000D03*
X74342000Y-79756000D03*
X74342000Y-80706000D03*
X77042000Y-80706000D03*
X77042000Y-78806000D03*
X77042000Y-79756000D03*
D39*
X79500000Y-72850000D03*
X79500000Y-73800000D03*
X79500000Y-74750000D03*
X81700000Y-74750000D03*
X81700000Y-72850000D03*
X72100000Y-72750000D03*
X72100000Y-73700000D03*
X72100000Y-74650000D03*
X74300000Y-74650000D03*
X74300000Y-72750000D03*
D14*
X97405000Y-7750000D03*
X96135000Y-7750000D03*
X94865000Y-7750000D03*
X93595000Y-7750000D03*
X93595000Y-13150000D03*
X94865000Y-13150000D03*
X96135000Y-13150000D03*
X97405000Y-13150000D03*
D18*
X63390000Y-7225000D03*
X63390000Y-6575000D03*
X63390000Y-5925000D03*
X63390000Y-5275000D03*
X58990000Y-5275000D03*
X58990000Y-5925000D03*
X58990000Y-6575000D03*
X58990000Y-7225000D03*
D41*
X8585000Y-88710000D03*
X7935000Y-88710000D03*
X7285000Y-88710000D03*
X6635000Y-88710000D03*
X5985000Y-88710000D03*
X5335000Y-88710000D03*
X4685000Y-88710000D03*
X4035000Y-88710000D03*
X4035000Y-94260000D03*
X4685000Y-94260000D03*
X5335000Y-94260000D03*
X5985000Y-94260000D03*
X6635000Y-94260000D03*
X7285000Y-94260000D03*
X7935000Y-94260000D03*
X8585000Y-94260000D03*
D42*
X4967500Y-92220000D03*
X5862500Y-92220000D03*
X6757500Y-92220000D03*
X7652500Y-92220000D03*
X4967500Y-90750000D03*
X5862500Y-90750000D03*
X6757500Y-90750000D03*
X7652500Y-90750000D03*
D41*
X18572500Y-93760000D03*
X19222500Y-93760000D03*
X19872500Y-93760000D03*
X20522500Y-93760000D03*
X21172500Y-93760000D03*
X21822500Y-93760000D03*
X22472500Y-93760000D03*
X23122500Y-93760000D03*
X23122500Y-88210000D03*
X22472500Y-88210000D03*
X21822500Y-88210000D03*
X21172500Y-88210000D03*
X20522500Y-88210000D03*
X19872500Y-88210000D03*
X19222500Y-88210000D03*
X18572500Y-88210000D03*
D42*
X22190000Y-90250000D03*
X21295000Y-90250000D03*
X20400000Y-90250000D03*
X19505000Y-90250000D03*
X22190000Y-91720000D03*
X21295000Y-91720000D03*
X20400000Y-91720000D03*
X19505000Y-91720000D03*
D32*
X83050000Y-102150000D03*
X82550000Y-102150000D03*
X82050000Y-102150000D03*
X81550000Y-102150000D03*
X81050000Y-102150000D03*
X80550000Y-102150000D03*
X80050000Y-102150000D03*
X79550000Y-102150000D03*
X79050000Y-102150000D03*
X78550000Y-102150000D03*
X78050000Y-102150000D03*
X77550000Y-102150000D03*
D33*
X75950000Y-103750000D03*
X75950000Y-104250000D03*
X75950000Y-104750000D03*
X75950000Y-105250000D03*
X75950000Y-105750000D03*
X75950000Y-106250000D03*
X75950000Y-106750000D03*
X75950000Y-107250000D03*
X75950000Y-107750000D03*
X75950000Y-108250000D03*
X75950000Y-108750000D03*
X75950000Y-109250000D03*
D32*
X77550000Y-110850000D03*
X78050000Y-110850000D03*
X78550000Y-110850000D03*
X79050000Y-110850000D03*
X79550000Y-110850000D03*
X80050000Y-110850000D03*
X80550000Y-110850000D03*
X81050000Y-110850000D03*
X81550000Y-110850000D03*
X82050000Y-110850000D03*
X82550000Y-110850000D03*
X83050000Y-110850000D03*
D33*
X84650000Y-109250000D03*
X84650000Y-108750000D03*
X84650000Y-108250000D03*
X84650000Y-107750000D03*
X84650000Y-107250000D03*
X84650000Y-106750000D03*
X84650000Y-106250000D03*
X84650000Y-105750000D03*
X84650000Y-105250000D03*
X84650000Y-104750000D03*
X84650000Y-104250000D03*
X84650000Y-103750000D03*
D22*
X114360960Y-110279360D03*
X114360960Y-108079360D03*
X114386360Y-112575160D03*
X114386360Y-114775160D03*
D43*
X51550000Y-5630000D03*
X52200000Y-5630000D03*
X52850000Y-5630000D03*
X52850000Y-2970000D03*
X52200000Y-2970000D03*
X51550000Y-2970000D03*
D11*
X87435900Y-100515860D03*
X87435900Y-98015860D03*
X89326720Y-116443440D03*
X89326720Y-118943440D03*
X71900000Y-112000000D03*
X71900000Y-114500000D03*
D12*
X72049960Y-104373680D03*
X69549960Y-104373680D03*
X91007880Y-111368840D03*
X93507880Y-111368840D03*
D11*
X85435900Y-99165860D03*
X85435900Y-96665860D03*
X73800000Y-112000000D03*
X73800000Y-114500000D03*
D12*
X91000000Y-106100000D03*
X93500000Y-106100000D03*
X89387360Y-91866720D03*
X91887360Y-91866720D03*
D11*
X81244440Y-99791840D03*
X81244440Y-97291840D03*
D23*
X106290000Y-97230000D03*
D44*
X106290000Y-98500000D03*
X105020000Y-97230000D03*
X105020000Y-98500000D03*
X103750000Y-97230000D03*
X103750000Y-98500000D03*
X102480000Y-97230000D03*
X102480000Y-98500000D03*
X101210000Y-97230000D03*
X101210000Y-98500000D03*
D21*
X88749120Y-89435940D03*
X92749120Y-89435940D03*
D24*
X122500000Y-25850000D03*
X122500000Y-21850000D03*
D13*
X44480000Y-32100000D03*
X47180000Y-32100000D03*
X27362160Y-111008160D03*
X30062160Y-111008160D03*
D17*
X92024200Y-98799660D03*
X92024200Y-101499660D03*
X66500000Y-117400000D03*
X66500000Y-114700000D03*
D13*
X98500000Y-107200000D03*
X101200000Y-107200000D03*
D45*
X43130000Y-37025000D03*
X43130000Y-34725000D03*
D46*
X48630000Y-35875000D03*
D47*
X116400000Y-22800000D03*
X114800000Y-23800000D03*
X116400000Y-23800000D03*
X114800000Y-22800000D03*
D48*
X89635900Y-101365860D03*
X89635900Y-98865860D03*
D49*
X69600000Y-116500000D03*
X68600000Y-114900000D03*
X68600000Y-116500000D03*
X69600000Y-114900000D03*
D12*
X113093820Y-119275860D03*
X110593820Y-119275860D03*
D13*
X113221760Y-117236240D03*
X110521760Y-117236240D03*
X67350000Y-109850000D03*
X64650000Y-109850000D03*
X67350000Y-111800000D03*
X64650000Y-111800000D03*
X67350000Y-106150000D03*
X64650000Y-106150000D03*
X67350000Y-108000000D03*
X64650000Y-108000000D03*
D17*
X72850000Y-94900000D03*
X72850000Y-92200000D03*
X70972400Y-94888840D03*
X70972400Y-92188840D03*
X76650000Y-94900000D03*
X76650000Y-92200000D03*
X74750000Y-94900000D03*
X74750000Y-92200000D03*
D13*
X69100000Y-98700000D03*
X66400000Y-98700000D03*
X69100000Y-102400000D03*
X66400000Y-102400000D03*
X69100000Y-96850000D03*
X66400000Y-96850000D03*
X69100000Y-100550000D03*
X66400000Y-100550000D03*
D17*
X87350000Y-120600000D03*
X87350000Y-117900000D03*
X85450000Y-117900000D03*
X85450000Y-120600000D03*
X81650000Y-117900000D03*
X81650000Y-120600000D03*
X83550000Y-117900000D03*
X83550000Y-120600000D03*
D13*
X100580000Y-112882880D03*
X103280000Y-112882880D03*
X100575000Y-115050000D03*
X103275000Y-115050000D03*
X95600000Y-105250000D03*
X98300000Y-105250000D03*
X98472000Y-103251000D03*
X101172000Y-103251000D03*
X95551000Y-101219000D03*
X98251000Y-101219000D03*
D50*
X120650000Y-120650000D03*
D51*
X117850000Y-120650000D03*
X122629890Y-122629890D03*
X120650000Y-123450000D03*
X118670110Y-122629890D03*
X123450000Y-120650000D03*
X118670110Y-118670110D03*
X120650000Y-117850000D03*
X122629890Y-118670110D03*
D50*
X6350000Y-120650000D03*
D51*
X3550000Y-120650000D03*
X8329890Y-122629890D03*
X6350000Y-123450000D03*
X4370110Y-122629890D03*
X9150000Y-120650000D03*
X4370110Y-118670110D03*
X6350000Y-117850000D03*
X8329890Y-118670110D03*
D50*
X120650000Y-6350000D03*
D51*
X117850000Y-6350000D03*
X122629890Y-8329890D03*
X120650000Y-9150000D03*
X118670110Y-8329890D03*
X123450000Y-6350000D03*
X118670110Y-4370110D03*
X120650000Y-3550000D03*
X122629890Y-4370110D03*
D50*
X6350000Y-6350000D03*
D51*
X3550000Y-6350000D03*
X8329890Y-8329890D03*
X6350000Y-9150000D03*
X4370110Y-8329890D03*
X9150000Y-6350000D03*
X4370110Y-4370110D03*
X6350000Y-3550000D03*
X8329890Y-4370110D03*
D13*
X15200000Y-110750000D03*
X12500000Y-110750000D03*
X38600000Y-118750000D03*
X35900000Y-118750000D03*
D52*
X6310000Y-37375000D03*
X6310000Y-31025000D03*
X6310000Y-43725000D03*
X6310000Y-24675000D03*
X21040000Y-37375000D03*
X21040000Y-31025000D03*
X21040000Y-43725000D03*
X21040000Y-24675000D03*
X21040000Y-71325000D03*
X21040000Y-77675000D03*
X50500000Y-71325000D03*
X50500000Y-77675000D03*
X35770000Y-71325000D03*
X35770000Y-77675000D03*
X6310000Y-71325000D03*
X6310000Y-77675000D03*
X31175000Y-6310000D03*
X24825000Y-6310000D03*
X50500000Y-105295000D03*
X50500000Y-111645000D03*
X35770000Y-105295000D03*
X35770000Y-111645000D03*
X21040000Y-105295000D03*
X21040000Y-111645000D03*
X6310000Y-105295000D03*
X6310000Y-111645000D03*
D53*
X18155000Y-60315000D03*
X18805000Y-60315000D03*
X19455000Y-60315000D03*
X20105000Y-60315000D03*
X20755000Y-60315000D03*
X21405000Y-60315000D03*
X22055000Y-60315000D03*
X22705000Y-60315000D03*
X23355000Y-60315000D03*
X24005000Y-60315000D03*
X24655000Y-60315000D03*
X25305000Y-60315000D03*
X25305000Y-54715000D03*
X24655000Y-54715000D03*
X24005000Y-54715000D03*
X23355000Y-54715000D03*
X22705000Y-54715000D03*
X22055000Y-54715000D03*
X21405000Y-54715000D03*
X20755000Y-54715000D03*
X20105000Y-54715000D03*
X19455000Y-54715000D03*
X18805000Y-54715000D03*
X18155000Y-54715000D03*
D54*
X21730000Y-57515000D03*
D53*
X3425000Y-60315000D03*
X4075000Y-60315000D03*
X4725000Y-60315000D03*
X5375000Y-60315000D03*
X6025000Y-60315000D03*
X6675000Y-60315000D03*
X7325000Y-60315000D03*
X7975000Y-60315000D03*
X8625000Y-60315000D03*
X9275000Y-60315000D03*
X9925000Y-60315000D03*
X10575000Y-60315000D03*
X10575000Y-54715000D03*
X9925000Y-54715000D03*
X9275000Y-54715000D03*
X8625000Y-54715000D03*
X7975000Y-54715000D03*
X7325000Y-54715000D03*
X6675000Y-54715000D03*
X6025000Y-54715000D03*
X5375000Y-54715000D03*
X4725000Y-54715000D03*
X4075000Y-54715000D03*
X3425000Y-54715000D03*
D54*
X7000000Y-57515000D03*
D55*
X79415000Y-68500000D03*
X79415000Y-68000000D03*
X79415000Y-67500000D03*
X79415000Y-67000000D03*
X79415000Y-66500000D03*
X79415000Y-66000000D03*
X79415000Y-65500000D03*
X79415000Y-65000000D03*
X79415000Y-64500000D03*
X79415000Y-64000000D03*
X79415000Y-63500000D03*
X79415000Y-63000000D03*
X79415000Y-62500000D03*
X79415000Y-62000000D03*
X79415000Y-61500000D03*
X79415000Y-61000000D03*
X79415000Y-60500000D03*
X79415000Y-60000000D03*
X79415000Y-59500000D03*
X73715000Y-59500000D03*
X73715000Y-60000000D03*
X73715000Y-60500000D03*
X73715000Y-61000000D03*
X73715000Y-61500000D03*
X73715000Y-62000000D03*
X73715000Y-62500000D03*
X73715000Y-63000000D03*
X73715000Y-63500000D03*
X73715000Y-64000000D03*
X73715000Y-64500000D03*
X73715000Y-65000000D03*
X73715000Y-65500000D03*
X73715000Y-66000000D03*
X73715000Y-66500000D03*
X73715000Y-67000000D03*
X73715000Y-67500000D03*
X73715000Y-68000000D03*
X73715000Y-68500000D03*
D15*
X83560000Y-7150000D03*
D16*
X86100000Y-7150000D03*
X88640000Y-7150000D03*
D15*
X83560000Y-13750000D03*
D16*
X86100000Y-13750000D03*
X88640000Y-13750000D03*
D15*
X64490000Y-46750000D03*
D16*
X67030000Y-46750000D03*
X69570000Y-46750000D03*
D15*
X64490000Y-53350000D03*
D16*
X67030000Y-53350000D03*
X69570000Y-53350000D03*
D15*
X68590000Y-7150000D03*
D16*
X71130000Y-7150000D03*
X73670000Y-7150000D03*
D15*
X83560000Y-33550000D03*
D16*
X86100000Y-33550000D03*
X88640000Y-33550000D03*
D15*
X83560000Y-40150000D03*
D16*
X86100000Y-40150000D03*
X88640000Y-40150000D03*
D15*
X83560000Y-46750000D03*
D16*
X86100000Y-46750000D03*
X88640000Y-46750000D03*
D15*
X83560000Y-53350000D03*
D16*
X86100000Y-53350000D03*
X88640000Y-53350000D03*
D21*
X117550000Y-85600000D03*
X121550000Y-85600000D03*
D56*
X107211910Y-70855790D03*
X109751910Y-72125790D03*
X107211910Y-73395790D03*
X109751910Y-74665791D03*
X107211910Y-75935791D03*
X109751910Y-77205790D03*
X107211910Y-78475790D03*
X109751910Y-79745790D03*
D57*
X113051910Y-83175790D03*
X113051910Y-67425790D03*
D58*
X119480500Y-68974530D03*
X121000500Y-81624530D03*
X119480000Y-79086380D03*
X121000000Y-71516380D03*
D59*
X26060000Y-121800000D03*
X30760000Y-121800000D03*
D60*
X22050000Y-123600000D03*
X22050000Y-118200000D03*
D12*
X38550000Y-116900000D03*
X36050000Y-116900000D03*
D61*
X125650000Y-25550000D03*
X125700000Y-27100000D03*
X24800000Y-88200000D03*
X2200000Y-94250000D03*
X83433920Y-98653600D03*
D17*
X65491360Y-77204560D03*
X65491360Y-74504560D03*
D13*
X56018440Y-101384100D03*
X58718440Y-101384100D03*
D45*
X62851480Y-66215880D03*
X62851480Y-68515880D03*
D46*
X57351480Y-67365880D03*
D45*
X63105680Y-93356880D03*
X60805680Y-93356880D03*
D62*
X61955680Y-87856880D03*
D63*
X115825000Y-91150000D03*
X123775000Y-91150000D03*
X115825000Y-95650000D03*
X123775000Y-95650000D03*
D61*
X95377000Y-107950000D03*
D17*
X72150000Y-117900000D03*
X72150000Y-120600000D03*
X69037200Y-94791520D03*
X69037200Y-92091520D03*
X74050000Y-117900000D03*
X74050000Y-120600000D03*
X75950000Y-117900000D03*
X75950000Y-120600000D03*
X77850000Y-117900000D03*
X77850000Y-120600000D03*
X79750000Y-117900000D03*
X79750000Y-120600000D03*
X80450000Y-94900000D03*
X80450000Y-92200000D03*
X78550000Y-94900000D03*
X78550000Y-92200000D03*
D13*
X38100000Y-93250000D03*
X35400000Y-93250000D03*
X38100000Y-95250000D03*
X35400000Y-95250000D03*
X38100000Y-91350000D03*
X35400000Y-91350000D03*
X38100000Y-89400000D03*
X35400000Y-89400000D03*
X29950000Y-63250000D03*
X27250000Y-63250000D03*
D17*
X1730000Y-86810000D03*
X1730000Y-84110000D03*
X12800000Y-73000000D03*
X12800000Y-70300000D03*
X14480000Y-73000000D03*
X14480000Y-70300000D03*
D13*
X12320280Y-21965920D03*
X15020280Y-21965920D03*
D17*
X4100000Y-14750000D03*
X4100000Y-12050000D03*
X7925000Y-12050000D03*
X7925000Y-14750000D03*
X6000000Y-12050000D03*
X6000000Y-14750000D03*
D61*
X1525000Y-17625000D03*
D64*
X10736600Y-14188440D03*
X10736600Y-15458440D03*
X10736600Y-16728440D03*
X10736600Y-17998440D03*
X16136600Y-17998440D03*
X16136600Y-16728440D03*
X16136600Y-15458440D03*
X16136600Y-14188440D03*
D15*
X121660000Y-102850000D03*
D16*
X121660000Y-100310000D03*
X124200000Y-102850000D03*
X124200000Y-100310000D03*
D15*
X49750000Y-53250000D03*
D16*
X49750000Y-55790000D03*
D15*
X28650000Y-91550000D03*
D16*
X28650000Y-94090000D03*
M02*
