%FSLAX45Y45*%
G04 Gerber Fmt 4.5, Leading zero omitted, Abs format (unit mm)*
G04 Created by KiCad (PCBNEW 4.0.4-stable) date Friday, December 29, 2017 'AMt' 10:56:16 AM*
%MOMM*%
%LPD*%
G01*
G04 APERTURE LIST*
%ADD10C,0.127000*%
%ADD11C,0.150000*%
%ADD12C,0.200000*%
%ADD13C,0.300000*%
G04 APERTURE END LIST*
D10*
D11*
X12700000Y-12700000D02*
X12700000Y0D01*
X0Y-12700000D02*
X12700000Y-12700000D01*
X0Y0D02*
X0Y-12700000D01*
X0Y0D02*
X12700000Y0D01*
D12*
X1342560Y-11843174D02*
X1372560Y-11873174D01*
X1372560Y-11843174D02*
X1342560Y-11873174D01*
X1342560Y-11993174D02*
X1372560Y-12023174D01*
X1372560Y-11993174D02*
X1342560Y-12023174D01*
X1417560Y-11918174D02*
X1447560Y-11948174D01*
X1447560Y-11918174D02*
X1417560Y-11948174D01*
X1492560Y-11843174D02*
X1522560Y-11873174D01*
X1522560Y-11843174D02*
X1492560Y-11873174D01*
X1492560Y-11993174D02*
X1522560Y-12023174D01*
X1522560Y-11993174D02*
X1492560Y-12023174D01*
X3830000Y-3237500D02*
X3860000Y-3267500D01*
X3860000Y-3237500D02*
X3830000Y-3267500D01*
X3830000Y-3387500D02*
X3860000Y-3417500D01*
X3860000Y-3387500D02*
X3830000Y-3417500D01*
X3905000Y-3312500D02*
X3935000Y-3342500D01*
X3935000Y-3312500D02*
X3905000Y-3342500D01*
X3980000Y-3237500D02*
X4010000Y-3267500D01*
X4010000Y-3237500D02*
X3980000Y-3267500D01*
X3980000Y-3387500D02*
X4010000Y-3417500D01*
X4010000Y-3387500D02*
X3980000Y-3417500D01*
X197800Y-4896612D02*
G75*
G03X197800Y-4896612I-20000J0D01*
G01*
X223200Y-5613400D02*
G75*
G03X223200Y-5613400I-20000J0D01*
G01*
X274000Y-5486400D02*
G75*
G03X274000Y-5486400I-20000J0D01*
G01*
X310000Y-1205000D02*
G75*
G03X310000Y-1205000I-20000J0D01*
G01*
X335000Y-6150000D02*
G75*
G03X335000Y-6150000I-20000J0D01*
G01*
X375000Y-635000D02*
G75*
G03X375000Y-635000I-20000J0D01*
G01*
X375000Y-12065000D02*
G75*
G03X375000Y-12065000I-20000J0D01*
G01*
X396682Y-6575806D02*
G75*
G03X396682Y-6575806I-20000J0D01*
G01*
X429194Y-5321300D02*
G75*
G03X429194Y-5321300I-20000J0D01*
G01*
X457011Y-437011D02*
G75*
G03X457011Y-437011I-20000J0D01*
G01*
X457011Y-832989D02*
G75*
G03X457011Y-832989I-20000J0D01*
G01*
X457011Y-11867011D02*
G75*
G03X457011Y-11867011I-20000J0D01*
G01*
X457011Y-12262989D02*
G75*
G03X457011Y-12262989I-20000J0D01*
G01*
X492948Y-5200396D02*
G75*
G03X492948Y-5200396I-20000J0D01*
G01*
X525000Y-5751500D02*
G75*
G03X525000Y-5751500I-20000J0D01*
G01*
X560000Y-6145000D02*
G75*
G03X560000Y-6145000I-20000J0D01*
G01*
X570926Y-11603736D02*
G75*
G03X570926Y-11603736I-20000J0D01*
G01*
X571434Y-6583680D02*
G75*
G03X571434Y-6583680I-20000J0D01*
G01*
X635000Y-9530000D02*
G75*
G03X635000Y-9530000I-20000J0D01*
G01*
X655000Y-355000D02*
G75*
G03X655000Y-355000I-20000J0D01*
G01*
X655000Y-915000D02*
G75*
G03X655000Y-915000I-20000J0D01*
G01*
X655000Y-5661500D02*
G75*
G03X655000Y-5661500I-20000J0D01*
G01*
X655000Y-5841500D02*
G75*
G03X655000Y-5841500I-20000J0D01*
G01*
X655000Y-11785000D02*
G75*
G03X655000Y-11785000I-20000J0D01*
G01*
X655000Y-12345000D02*
G75*
G03X655000Y-12345000I-20000J0D01*
G01*
X720000Y-5751500D02*
G75*
G03X720000Y-5751500I-20000J0D01*
G01*
X785000Y-5661500D02*
G75*
G03X785000Y-5661500I-20000J0D01*
G01*
X785000Y-5841500D02*
G75*
G03X785000Y-5841500I-20000J0D01*
G01*
X852989Y-437011D02*
G75*
G03X852989Y-437011I-20000J0D01*
G01*
X852989Y-832989D02*
G75*
G03X852989Y-832989I-20000J0D01*
G01*
X852989Y-11867011D02*
G75*
G03X852989Y-11867011I-20000J0D01*
G01*
X852989Y-12262989D02*
G75*
G03X852989Y-12262989I-20000J0D01*
G01*
X915000Y-5751500D02*
G75*
G03X915000Y-5751500I-20000J0D01*
G01*
X935000Y-635000D02*
G75*
G03X935000Y-635000I-20000J0D01*
G01*
X935000Y-12065000D02*
G75*
G03X935000Y-12065000I-20000J0D01*
G01*
X985841Y-6504159D02*
G75*
G03X985841Y-6504159I-20000J0D01*
G01*
X1010600Y-7554468D02*
G75*
G03X1010600Y-7554468I-20000J0D01*
G01*
X1045000Y-6140000D02*
G75*
G03X1045000Y-6140000I-20000J0D01*
G01*
X1064000Y-6540000D02*
G75*
G03X1064000Y-6540000I-20000J0D01*
G01*
X1095000Y-7160000D02*
G75*
G03X1095000Y-7160000I-20000J0D01*
G01*
X1103564Y-4890516D02*
G75*
G03X1103564Y-4890516I-20000J0D01*
G01*
X1150046Y-12252706D02*
G75*
G03X1150046Y-12252706I-20000J0D01*
G01*
X1152000Y-6578000D02*
G75*
G03X1152000Y-6578000I-20000J0D01*
G01*
X1169000Y-6310000D02*
G75*
G03X1169000Y-6310000I-20000J0D01*
G01*
X1180000Y-9810000D02*
G75*
G03X1180000Y-9810000I-20000J0D01*
G01*
X1180018Y-11704320D02*
G75*
G03X1180018Y-11704320I-20000J0D01*
G01*
X1200592Y-8841232D02*
G75*
G03X1200592Y-8841232I-20000J0D01*
G01*
X1214054Y-11820144D02*
G75*
G03X1214054Y-11820144I-20000J0D01*
G01*
X1232000Y-6373000D02*
G75*
G03X1232000Y-6373000I-20000J0D01*
G01*
X1239200Y-4140200D02*
G75*
G03X1239200Y-4140200I-20000J0D01*
G01*
X1273236Y-12475210D02*
G75*
G03X1273236Y-12475210I-20000J0D01*
G01*
X1282126Y-9523984D02*
G75*
G03X1282126Y-9523984I-20000J0D01*
G01*
X1285000Y-5970000D02*
G75*
G03X1285000Y-5970000I-20000J0D01*
G01*
X1294000Y-6435000D02*
G75*
G03X1294000Y-6435000I-20000J0D01*
G01*
X1335974Y-4900422D02*
G75*
G03X1335974Y-4900422I-20000J0D01*
G01*
X1340000Y-9970000D02*
G75*
G03X1340000Y-9970000I-20000J0D01*
G01*
X1340800Y-5511800D02*
G75*
G03X1340800Y-5511800I-20000J0D01*
G01*
X1442400Y-4699000D02*
G75*
G03X1442400Y-4699000I-20000J0D01*
G01*
X1598864Y-7542276D02*
G75*
G03X1598864Y-7542276I-20000J0D01*
G01*
X1626042Y-4897882D02*
G75*
G03X1626042Y-4897882I-20000J0D01*
G01*
X1690000Y-10375000D02*
G75*
G03X1690000Y-10375000I-20000J0D01*
G01*
X1690000Y-10685000D02*
G75*
G03X1690000Y-10685000I-20000J0D01*
G01*
X1710000Y-7160000D02*
G75*
G03X1710000Y-7160000I-20000J0D01*
G01*
X1795968Y-4606544D02*
G75*
G03X1795968Y-4606544I-20000J0D01*
G01*
X1806636Y-8821420D02*
G75*
G03X1806636Y-8821420I-20000J0D01*
G01*
X1845000Y-9740000D02*
G75*
G03X1845000Y-9740000I-20000J0D01*
G01*
X1870644Y-5319522D02*
G75*
G03X1870644Y-5319522I-20000J0D01*
G01*
X1896806Y-4185666D02*
G75*
G03X1896806Y-4185666I-20000J0D01*
G01*
X1959798Y-4588002D02*
G75*
G03X1959798Y-4588002I-20000J0D01*
G01*
X1998000Y-5751500D02*
G75*
G03X1998000Y-5751500I-20000J0D01*
G01*
X2023044Y-6162548D02*
G75*
G03X2023044Y-6162548I-20000J0D01*
G01*
X2128000Y-5661500D02*
G75*
G03X2128000Y-5661500I-20000J0D01*
G01*
X2128000Y-5841500D02*
G75*
G03X2128000Y-5841500I-20000J0D01*
G01*
X2158680Y-9740646D02*
G75*
G03X2158680Y-9740646I-20000J0D01*
G01*
X2160000Y-6149000D02*
G75*
G03X2160000Y-6149000I-20000J0D01*
G01*
X2193000Y-5751500D02*
G75*
G03X2193000Y-5751500I-20000J0D01*
G01*
X2196018Y-11490960D02*
G75*
G03X2196018Y-11490960I-20000J0D01*
G01*
X2258000Y-5661500D02*
G75*
G03X2258000Y-5661500I-20000J0D01*
G01*
X2258000Y-5841500D02*
G75*
G03X2258000Y-5841500I-20000J0D01*
G01*
X2285000Y-6290000D02*
G75*
G03X2285000Y-6290000I-20000J0D01*
G01*
X2388000Y-5751500D02*
G75*
G03X2388000Y-5751500I-20000J0D01*
G01*
X2423348Y-4770120D02*
G75*
G03X2423348Y-4770120I-20000J0D01*
G01*
X2435000Y-6290000D02*
G75*
G03X2435000Y-6290000I-20000J0D01*
G01*
X2447732Y-9284716D02*
G75*
G03X2447732Y-9284716I-20000J0D01*
G01*
X2465000Y-9910000D02*
G75*
G03X2465000Y-9910000I-20000J0D01*
G01*
X2470000Y-10005000D02*
G75*
G03X2470000Y-10005000I-20000J0D01*
G01*
X2520000Y-6135000D02*
G75*
G03X2520000Y-6135000I-20000J0D01*
G01*
X2532500Y-4600000D02*
G75*
G03X2532500Y-4600000I-20000J0D01*
G01*
X2563302Y-8979408D02*
G75*
G03X2563302Y-8979408I-20000J0D01*
G01*
X2630000Y-9745000D02*
G75*
G03X2630000Y-9745000I-20000J0D01*
G01*
X2660838Y-11505184D02*
G75*
G03X2660838Y-11505184I-20000J0D01*
G01*
X2730000Y-9775000D02*
G75*
G03X2730000Y-9775000I-20000J0D01*
G01*
X2790000Y-4355000D02*
G75*
G03X2790000Y-4355000I-20000J0D01*
G01*
X2820000Y-8580000D02*
G75*
G03X2820000Y-8580000I-20000J0D01*
G01*
X2820000Y-8760000D02*
G75*
G03X2820000Y-8760000I-20000J0D01*
G01*
X2965000Y-8615000D02*
G75*
G03X2965000Y-8615000I-20000J0D01*
G01*
X2965000Y-8710000D02*
G75*
G03X2965000Y-8710000I-20000J0D01*
G01*
X2980370Y-5561838D02*
G75*
G03X2980370Y-5561838I-20000J0D01*
G01*
X3186872Y-11102340D02*
G75*
G03X3186872Y-11102340I-20000J0D01*
G01*
X3220400Y-10363708D02*
G75*
G03X3220400Y-10363708I-20000J0D01*
G01*
X3304982Y-10369296D02*
G75*
G03X3304982Y-10369296I-20000J0D01*
G01*
X3326064Y-7294880D02*
G75*
G03X3326064Y-7294880I-20000J0D01*
G01*
X3328096Y-7014464D02*
G75*
G03X3328096Y-7014464I-20000J0D01*
G01*
X3560000Y-1680000D02*
G75*
G03X3560000Y-1680000I-20000J0D01*
G01*
X3562500Y-2825000D02*
G75*
G03X3562500Y-2825000I-20000J0D01*
G01*
X3597590Y-11433810D02*
G75*
G03X3597590Y-11433810I-20000J0D01*
G01*
X3601400Y-12496800D02*
G75*
G03X3601400Y-12496800I-20000J0D01*
G01*
X3626800Y-11557000D02*
G75*
G03X3626800Y-11557000I-20000J0D01*
G01*
X3630000Y-2882500D02*
G75*
G03X3630000Y-2882500I-20000J0D01*
G01*
X3684458Y-8230870D02*
G75*
G03X3684458Y-8230870I-20000J0D01*
G01*
X3688014Y-8532622D02*
G75*
G03X3688014Y-8532622I-20000J0D01*
G01*
X3707500Y-3550000D02*
G75*
G03X3707500Y-3550000I-20000J0D01*
G01*
X3745000Y-2917501D02*
G75*
G03X3745000Y-2917501I-20000J0D01*
G01*
X3814252Y-10969244D02*
G75*
G03X3814252Y-10969244I-20000J0D01*
G01*
X3875000Y-2937500D02*
G75*
G03X3875000Y-2937500I-20000J0D01*
G01*
X3875720Y-5875528D02*
G75*
G03X3875720Y-5875528I-20000J0D01*
G01*
X4044884Y-5479288D02*
G75*
G03X4044884Y-5479288I-20000J0D01*
G01*
X4100000Y-9525000D02*
G75*
G03X4100000Y-9525000I-20000J0D01*
G01*
X4107368Y-9697212D02*
G75*
G03X4107368Y-9697212I-20000J0D01*
G01*
X4110000Y-9325000D02*
G75*
G03X4110000Y-9325000I-20000J0D01*
G01*
X4115000Y-9130000D02*
G75*
G03X4115000Y-9130000I-20000J0D01*
G01*
X4120000Y-8935000D02*
G75*
G03X4120000Y-8935000I-20000J0D01*
G01*
X4142500Y-3907500D02*
G75*
G03X4142500Y-3907500I-20000J0D01*
G01*
X4219000Y-3589000D02*
G75*
G03X4219000Y-3589000I-20000J0D01*
G01*
X4435000Y-8935000D02*
G75*
G03X4435000Y-8935000I-20000J0D01*
G01*
X4445500Y-3472500D02*
G75*
G03X4445500Y-3472500I-20000J0D01*
G01*
X4450000Y-9135000D02*
G75*
G03X4450000Y-9135000I-20000J0D01*
G01*
X4455000Y-9525000D02*
G75*
G03X4455000Y-9525000I-20000J0D01*
G01*
X4465000Y-9330000D02*
G75*
G03X4465000Y-9330000I-20000J0D01*
G01*
X4465508Y-9703308D02*
G75*
G03X4465508Y-9703308I-20000J0D01*
G01*
X4496196Y-12474728D02*
G75*
G03X4496196Y-12474728I-20000J0D01*
G01*
X4518086Y-8658606D02*
G75*
G03X4518086Y-8658606I-20000J0D01*
G01*
X4580000Y-4550000D02*
G75*
G03X4580000Y-4550000I-20000J0D01*
G01*
X4675000Y-4550000D02*
G75*
G03X4675000Y-4550000I-20000J0D01*
G01*
X4768000Y-3585000D02*
G75*
G03X4768000Y-3585000I-20000J0D01*
G01*
X4780000Y-4550000D02*
G75*
G03X4780000Y-4550000I-20000J0D01*
G01*
X5020752Y-11675872D02*
G75*
G03X5020752Y-11675872I-20000J0D01*
G01*
X5070000Y-240000D02*
G75*
G03X5070000Y-240000I-20000J0D01*
G01*
X5110000Y-950000D02*
G75*
G03X5110000Y-950000I-20000J0D01*
G01*
X5230000Y-440000D02*
G75*
G03X5230000Y-440000I-20000J0D01*
G01*
X5387528Y-8557768D02*
G75*
G03X5387528Y-8557768I-20000J0D01*
G01*
X5470000Y-4990000D02*
G75*
G03X5470000Y-4990000I-20000J0D01*
G01*
X5536626Y-8670036D02*
G75*
G03X5536626Y-8670036I-20000J0D01*
G01*
X5707568Y-7331964D02*
G75*
G03X5707568Y-7331964I-20000J0D01*
G01*
X5763000Y-641000D02*
G75*
G03X5763000Y-641000I-20000J0D01*
G01*
X5763000Y-1301000D02*
G75*
G03X5763000Y-1301000I-20000J0D01*
G01*
X5763000Y-1961000D02*
G75*
G03X5763000Y-1961000I-20000J0D01*
G01*
X5763000Y-2621000D02*
G75*
G03X5763000Y-2621000I-20000J0D01*
G01*
X5763000Y-3281000D02*
G75*
G03X5763000Y-3281000I-20000J0D01*
G01*
X5763000Y-3941000D02*
G75*
G03X5763000Y-3941000I-20000J0D01*
G01*
X5912800Y-6731000D02*
G75*
G03X5912800Y-6731000I-20000J0D01*
G01*
X5930000Y-4990000D02*
G75*
G03X5930000Y-4990000I-20000J0D01*
G01*
X5970000Y-240000D02*
G75*
G03X5970000Y-240000I-20000J0D01*
G01*
X6102284Y-9218168D02*
G75*
G03X6102284Y-9218168I-20000J0D01*
G01*
X6104570Y-10024110D02*
G75*
G03X6104570Y-10024110I-20000J0D01*
G01*
X6166800Y-6858000D02*
G75*
G03X6166800Y-6858000I-20000J0D01*
G01*
X6180000Y-595000D02*
G75*
G03X6180000Y-595000I-20000J0D01*
G01*
X6180000Y-1255000D02*
G75*
G03X6180000Y-1255000I-20000J0D01*
G01*
X6180000Y-1915000D02*
G75*
G03X6180000Y-1915000I-20000J0D01*
G01*
X6180000Y-2575000D02*
G75*
G03X6180000Y-2575000I-20000J0D01*
G01*
X6180000Y-3235000D02*
G75*
G03X6180000Y-3235000I-20000J0D01*
G01*
X6180000Y-3895000D02*
G75*
G03X6180000Y-3895000I-20000J0D01*
G01*
X6211758Y-8925814D02*
G75*
G03X6211758Y-8925814I-20000J0D01*
G01*
X6220000Y-240000D02*
G75*
G03X6220000Y-240000I-20000J0D01*
G01*
X6260000Y-4870000D02*
G75*
G03X6260000Y-4870000I-20000J0D01*
G01*
X6260000Y-5550000D02*
G75*
G03X6260000Y-5550000I-20000J0D01*
G01*
X6270000Y-4700000D02*
G75*
G03X6270000Y-4700000I-20000J0D01*
G01*
X6270000Y-5370000D02*
G75*
G03X6270000Y-5370000I-20000J0D01*
G01*
X6282878Y-9998202D02*
G75*
G03X6282878Y-9998202I-20000J0D01*
G01*
X6293800Y-8534400D02*
G75*
G03X6293800Y-8534400I-20000J0D01*
G01*
X6420800Y-6858000D02*
G75*
G03X6420800Y-6858000I-20000J0D01*
G01*
X6500000Y-1120000D02*
G75*
G03X6500000Y-1120000I-20000J0D01*
G01*
X6500000Y-1760000D02*
G75*
G03X6500000Y-1760000I-20000J0D01*
G01*
X6500000Y-2420000D02*
G75*
G03X6500000Y-2420000I-20000J0D01*
G01*
X6500000Y-3750000D02*
G75*
G03X6500000Y-3750000I-20000J0D01*
G01*
X6502080Y-9528556D02*
G75*
G03X6502080Y-9528556I-20000J0D01*
G01*
X6502588Y-9307068D02*
G75*
G03X6502588Y-9307068I-20000J0D01*
G01*
X6510000Y-3100000D02*
G75*
G03X6510000Y-3100000I-20000J0D01*
G01*
X6576000Y-410000D02*
G75*
G03X6576000Y-410000I-20000J0D01*
G01*
X6587678Y-8720074D02*
G75*
G03X6587678Y-8720074I-20000J0D01*
G01*
X6590000Y-821000D02*
G75*
G03X6590000Y-821000I-20000J0D01*
G01*
X6590000Y-1481000D02*
G75*
G03X6590000Y-1481000I-20000J0D01*
G01*
X6590000Y-2141000D02*
G75*
G03X6590000Y-2141000I-20000J0D01*
G01*
X6590000Y-2801000D02*
G75*
G03X6590000Y-2801000I-20000J0D01*
G01*
X6590000Y-3461000D02*
G75*
G03X6590000Y-3461000I-20000J0D01*
G01*
X6590000Y-4121000D02*
G75*
G03X6590000Y-4121000I-20000J0D01*
G01*
X6920418Y-6711950D02*
G75*
G03X6920418Y-6711950I-20000J0D01*
G01*
X6928800Y-7797800D02*
G75*
G03X6928800Y-7797800I-20000J0D01*
G01*
X6966900Y-10541000D02*
G75*
G03X6966900Y-10541000I-20000J0D01*
G01*
X6969000Y-1557000D02*
G75*
G03X6969000Y-1557000I-20000J0D01*
G01*
X6969000Y-2217000D02*
G75*
G03X6969000Y-2217000I-20000J0D01*
G01*
X6969000Y-2877000D02*
G75*
G03X6969000Y-2877000I-20000J0D01*
G01*
X6969000Y-3537000D02*
G75*
G03X6969000Y-3537000I-20000J0D01*
G01*
X6969000Y-4197000D02*
G75*
G03X6969000Y-4197000I-20000J0D01*
G01*
X6971000Y-895000D02*
G75*
G03X6971000Y-895000I-20000J0D01*
G01*
X6979600Y-8991600D02*
G75*
G03X6979600Y-8991600I-20000J0D01*
G01*
X7030400Y-6629400D02*
G75*
G03X7030400Y-6629400I-20000J0D01*
G01*
X7132000Y-7556500D02*
G75*
G03X7132000Y-7556500I-20000J0D01*
G01*
X7157400Y-7366000D02*
G75*
G03X7157400Y-7366000I-20000J0D01*
G01*
X7195500Y-7721600D02*
G75*
G03X7195500Y-7721600I-20000J0D01*
G01*
X7195500Y-8280400D02*
G75*
G03X7195500Y-8280400I-20000J0D01*
G01*
X7208200Y-6807200D02*
G75*
G03X7208200Y-6807200I-20000J0D01*
G01*
X7510460Y-11449812D02*
G75*
G03X7510460Y-11449812I-20000J0D01*
G01*
X7586500Y-6000000D02*
G75*
G03X7586500Y-6000000I-20000J0D01*
G01*
X7586500Y-6300000D02*
G75*
G03X7586500Y-6300000I-20000J0D01*
G01*
X7586500Y-6600000D02*
G75*
G03X7586500Y-6600000I-20000J0D01*
G01*
X7676500Y-6800000D02*
G75*
G03X7676500Y-6800000I-20000J0D01*
G01*
X7749728Y-7531608D02*
G75*
G03X7749728Y-7531608I-20000J0D01*
G01*
X7766500Y-6000000D02*
G75*
G03X7766500Y-6000000I-20000J0D01*
G01*
X7766500Y-6300000D02*
G75*
G03X7766500Y-6300000I-20000J0D01*
G01*
X7766500Y-6600000D02*
G75*
G03X7766500Y-6600000I-20000J0D01*
G01*
X7843200Y-8293100D02*
G75*
G03X7843200Y-8293100I-20000J0D01*
G01*
X7855900Y-7874000D02*
G75*
G03X7855900Y-7874000I-20000J0D01*
G01*
X7894000Y-7378700D02*
G75*
G03X7894000Y-7378700I-20000J0D01*
G01*
X7944800Y-8521700D02*
G75*
G03X7944800Y-8521700I-20000J0D01*
G01*
X7960000Y-240000D02*
G75*
G03X7960000Y-240000I-20000J0D01*
G01*
X7960000Y-420000D02*
G75*
G03X7960000Y-420000I-20000J0D01*
G01*
X7960000Y-960000D02*
G75*
G03X7960000Y-960000I-20000J0D01*
G01*
X7960000Y-1140000D02*
G75*
G03X7960000Y-1140000I-20000J0D01*
G01*
X7960000Y-1580000D02*
G75*
G03X7960000Y-1580000I-20000J0D01*
G01*
X7960000Y-1750000D02*
G75*
G03X7960000Y-1750000I-20000J0D01*
G01*
X7960000Y-2280000D02*
G75*
G03X7960000Y-2280000I-20000J0D01*
G01*
X7960000Y-2460000D02*
G75*
G03X7960000Y-2460000I-20000J0D01*
G01*
X7960000Y-2930000D02*
G75*
G03X7960000Y-2930000I-20000J0D01*
G01*
X7960000Y-3120000D02*
G75*
G03X7960000Y-3120000I-20000J0D01*
G01*
X8249600Y-9728200D02*
G75*
G03X8249600Y-9728200I-20000J0D01*
G01*
X8290000Y-7040000D02*
G75*
G03X8290000Y-7040000I-20000J0D01*
G01*
X8440100Y-7797800D02*
G75*
G03X8440100Y-7797800I-20000J0D01*
G01*
X8465500Y-7531100D02*
G75*
G03X8465500Y-7531100I-20000J0D01*
G01*
X8465500Y-9664700D02*
G75*
G03X8465500Y-9664700I-20000J0D01*
G01*
X8510000Y-6510000D02*
G75*
G03X8510000Y-6510000I-20000J0D01*
G01*
X8668700Y-7251700D02*
G75*
G03X8668700Y-7251700I-20000J0D01*
G01*
X8730000Y-480000D02*
G75*
G03X8730000Y-480000I-20000J0D01*
G01*
X8730000Y-1800000D02*
G75*
G03X8730000Y-1800000I-20000J0D01*
G01*
X8740000Y-1610000D02*
G75*
G03X8740000Y-1610000I-20000J0D01*
G01*
X8740000Y-2930000D02*
G75*
G03X8740000Y-2930000I-20000J0D01*
G01*
X8846500Y-9791700D02*
G75*
G03X8846500Y-9791700I-20000J0D01*
G01*
X9200000Y-550000D02*
G75*
G03X9200000Y-550000I-20000J0D01*
G01*
X9200000Y-1870000D02*
G75*
G03X9200000Y-1870000I-20000J0D01*
G01*
X9310000Y-440000D02*
G75*
G03X9310000Y-440000I-20000J0D01*
G01*
X9310000Y-1760000D02*
G75*
G03X9310000Y-1760000I-20000J0D01*
G01*
X9367200Y-10706100D02*
G75*
G03X9367200Y-10706100I-20000J0D01*
G01*
X9380000Y-660000D02*
G75*
G03X9380000Y-660000I-20000J0D01*
G01*
X9380000Y-1980000D02*
G75*
G03X9380000Y-1980000I-20000J0D01*
G01*
X9860000Y-1140000D02*
G75*
G03X9860000Y-1140000I-20000J0D01*
G01*
X9860000Y-2460000D02*
G75*
G03X9860000Y-2460000I-20000J0D01*
G01*
X9880000Y-780000D02*
G75*
G03X9880000Y-780000I-20000J0D01*
G01*
X9880000Y-2100000D02*
G75*
G03X9880000Y-2100000I-20000J0D01*
G01*
X9944999Y-394999D02*
G75*
G03X9944999Y-394999I-20000J0D01*
G01*
X9944999Y-1714999D02*
G75*
G03X9944999Y-1714999I-20000J0D01*
G01*
X10035000Y-7625000D02*
G75*
G03X10035000Y-7625000I-20000J0D01*
G01*
X10035000Y-8190000D02*
G75*
G03X10035000Y-8190000I-20000J0D01*
G01*
X10220000Y-7635000D02*
G75*
G03X10220000Y-7635000I-20000J0D01*
G01*
X10225000Y-8130000D02*
G75*
G03X10225000Y-8130000I-20000J0D01*
G01*
X10340000Y-660000D02*
G75*
G03X10340000Y-660000I-20000J0D01*
G01*
X10340000Y-1400000D02*
G75*
G03X10340000Y-1400000I-20000J0D01*
G01*
X10340000Y-1980000D02*
G75*
G03X10340000Y-1980000I-20000J0D01*
G01*
X10340000Y-2720000D02*
G75*
G03X10340000Y-2720000I-20000J0D01*
G01*
X10611800Y-4089400D02*
G75*
G03X10611800Y-4089400I-20000J0D01*
G01*
X10611800Y-4279900D02*
G75*
G03X10611800Y-4279900I-20000J0D01*
G01*
X10611800Y-4470400D02*
G75*
G03X10611800Y-4470400I-20000J0D01*
G01*
X10611800Y-4660900D02*
G75*
G03X10611800Y-4660900I-20000J0D01*
G01*
X10980100Y-3530600D02*
G75*
G03X10980100Y-3530600I-20000J0D01*
G01*
X11068238Y-11832336D02*
G75*
G03X11068238Y-11832336I-20000J0D01*
G01*
X11246800Y-3263900D02*
G75*
G03X11246800Y-3263900I-20000J0D01*
G01*
X11300000Y-3610000D02*
G75*
G03X11300000Y-3610000I-20000J0D01*
G01*
X11300000Y-3710000D02*
G75*
G03X11300000Y-3710000I-20000J0D01*
G01*
X11300000Y-3810000D02*
G75*
G03X11300000Y-3810000I-20000J0D01*
G01*
X11455000Y-6160000D02*
G75*
G03X11455000Y-6160000I-20000J0D01*
G01*
X11780000Y-2995000D02*
G75*
G03X11780000Y-2995000I-20000J0D01*
G01*
X11800000Y-3085000D02*
G75*
G03X11800000Y-3085000I-20000J0D01*
G01*
X11805000Y-635000D02*
G75*
G03X11805000Y-635000I-20000J0D01*
G01*
X11805000Y-12065000D02*
G75*
G03X11805000Y-12065000I-20000J0D01*
G01*
X11887011Y-437011D02*
G75*
G03X11887011Y-437011I-20000J0D01*
G01*
X11887011Y-832989D02*
G75*
G03X11887011Y-832989I-20000J0D01*
G01*
X11887011Y-11867011D02*
G75*
G03X11887011Y-11867011I-20000J0D01*
G01*
X11887011Y-12262989D02*
G75*
G03X11887011Y-12262989I-20000J0D01*
G01*
X11902500Y-3025000D02*
G75*
G03X11902500Y-3025000I-20000J0D01*
G01*
X11935000Y-3600000D02*
G75*
G03X11935000Y-3600000I-20000J0D01*
G01*
X12012500Y-10980000D02*
G75*
G03X12012500Y-10980000I-20000J0D01*
G01*
X12020000Y-2760000D02*
G75*
G03X12020000Y-2760000I-20000J0D01*
G01*
X12085000Y-355000D02*
G75*
G03X12085000Y-355000I-20000J0D01*
G01*
X12085000Y-915000D02*
G75*
G03X12085000Y-915000I-20000J0D01*
G01*
X12085000Y-11785000D02*
G75*
G03X12085000Y-11785000I-20000J0D01*
G01*
X12085000Y-12345000D02*
G75*
G03X12085000Y-12345000I-20000J0D01*
G01*
X12180000Y-4660000D02*
G75*
G03X12180000Y-4660000I-20000J0D01*
G01*
X12215000Y-4940000D02*
G75*
G03X12215000Y-4940000I-20000J0D01*
G01*
X12282989Y-437011D02*
G75*
G03X12282989Y-437011I-20000J0D01*
G01*
X12282989Y-832989D02*
G75*
G03X12282989Y-832989I-20000J0D01*
G01*
X12282989Y-11867011D02*
G75*
G03X12282989Y-11867011I-20000J0D01*
G01*
X12282989Y-12262989D02*
G75*
G03X12282989Y-12262989I-20000J0D01*
G01*
X12365000Y-635000D02*
G75*
G03X12365000Y-635000I-20000J0D01*
G01*
X12365000Y-12065000D02*
G75*
G03X12365000Y-12065000I-20000J0D01*
G01*
X12370000Y-4795000D02*
G75*
G03X12370000Y-4795000I-20000J0D01*
G01*
X12400000Y-4255000D02*
G75*
G03X12400000Y-4255000I-20000J0D01*
G01*
X12400234Y-3942225D02*
G75*
G03X12400234Y-3942225I-20000J0D01*
G01*
X12465000Y-6180000D02*
G75*
G03X12465000Y-6180000I-20000J0D01*
G01*
X12484699Y-3941428D02*
G75*
G03X12484699Y-3941428I-20000J0D01*
G01*
X12485000Y-4255000D02*
G75*
G03X12485000Y-4255000I-20000J0D01*
G01*
X12570000Y-4690000D02*
G75*
G03X12570000Y-4690000I-20000J0D01*
G01*
X12595000Y-3340000D02*
G75*
G03X12595000Y-3340000I-20000J0D01*
G01*
X12620000Y-4005000D02*
G75*
G03X12620000Y-4005000I-20000J0D01*
G01*
X3870000Y-4162500D02*
X3870000Y-4222500D01*
X3840000Y-4192500D02*
X3900000Y-4192500D01*
X4076700Y-11654000D02*
X4076700Y-11714000D01*
X4046700Y-11684000D02*
X4106700Y-11684000D01*
X4381500Y-10206200D02*
X4381500Y-10266200D01*
X4351500Y-10236200D02*
X4411500Y-10236200D01*
X4381500Y-10892000D02*
X4381500Y-10952000D01*
X4351500Y-10922000D02*
X4411500Y-10922000D01*
X4381500Y-11349200D02*
X4381500Y-11409200D01*
X4351500Y-11379200D02*
X4411500Y-11379200D01*
X4590000Y-2602500D02*
X4590000Y-2662500D01*
X4560000Y-2632500D02*
X4620000Y-2632500D01*
X4851400Y-10104600D02*
X4851400Y-10164600D01*
X4821400Y-10134600D02*
X4881400Y-10134600D01*
X5032756Y-8789388D02*
X5032756Y-8849388D01*
X5002756Y-8819388D02*
X5062756Y-8819388D01*
X5181600Y-9774400D02*
X5181600Y-9834400D01*
X5151600Y-9804400D02*
X5211600Y-9804400D01*
X5253990Y-8973030D02*
X5253990Y-9033030D01*
X5223990Y-9003030D02*
X5283990Y-9003030D01*
X5513578Y-8790150D02*
X5513578Y-8850150D01*
X5483578Y-8820150D02*
X5543578Y-8820150D01*
X5816600Y-7158200D02*
X5816600Y-7218200D01*
X5786600Y-7188200D02*
X5846600Y-7188200D01*
X6070600Y-6955000D02*
X6070600Y-7015000D01*
X6040600Y-6985000D02*
X6100600Y-6985000D01*
X6070600Y-7361400D02*
X6070600Y-7421400D01*
X6040600Y-7391400D02*
X6100600Y-7391400D01*
X6324600Y-7158200D02*
X6324600Y-7218200D01*
X6294600Y-7188200D02*
X6354600Y-7188200D01*
X9000000Y-1020000D02*
X9000000Y-1080000D01*
X8970000Y-1050000D02*
X9030000Y-1050000D01*
X9000000Y-2340000D02*
X9000000Y-2400000D01*
X8970000Y-2370000D02*
X9030000Y-2370000D01*
X9350000Y-1020000D02*
X9350000Y-1080000D01*
X9320000Y-1050000D02*
X9380000Y-1050000D01*
X9350000Y-2340000D02*
X9350000Y-2400000D01*
X9320000Y-2370000D02*
X9380000Y-2370000D01*
X10143981Y-9745981D02*
X10143981Y-9700019D01*
X10098019Y-9700019D01*
X10098019Y-9745981D01*
X10143981Y-9745981D01*
X10143981Y-9872981D02*
X10143981Y-9827019D01*
X10098019Y-9827019D01*
X10098019Y-9872981D01*
X10143981Y-9872981D01*
X10270981Y-9745981D02*
X10270981Y-9700019D01*
X10225019Y-9700019D01*
X10225019Y-9745981D01*
X10270981Y-9745981D01*
X10270981Y-9872981D02*
X10270981Y-9827019D01*
X10225019Y-9827019D01*
X10225019Y-9872981D01*
X10270981Y-9872981D01*
X10397981Y-9745981D02*
X10397981Y-9700019D01*
X10352019Y-9700019D01*
X10352019Y-9745981D01*
X10397981Y-9745981D01*
X10397981Y-9872981D02*
X10397981Y-9827019D01*
X10352019Y-9827019D01*
X10352019Y-9872981D01*
X10397981Y-9872981D01*
X10524981Y-9745981D02*
X10524981Y-9700019D01*
X10479019Y-9700019D01*
X10479019Y-9745981D01*
X10524981Y-9745981D01*
X10524981Y-9872981D02*
X10524981Y-9827019D01*
X10479019Y-9827019D01*
X10479019Y-9872981D01*
X10524981Y-9872981D01*
X10651981Y-9745981D02*
X10651981Y-9700019D01*
X10606019Y-9700019D01*
X10606019Y-9745981D01*
X10651981Y-9745981D01*
X10651981Y-9872981D02*
X10651981Y-9827019D01*
X10606019Y-9827019D01*
X10606019Y-9872981D01*
X10651981Y-9872981D01*
X12137981Y-10888981D02*
X12137981Y-10843019D01*
X12092019Y-10843019D01*
X12092019Y-10888981D01*
X12137981Y-10888981D01*
X12135000Y-10843500D02*
X12095000Y-10843500D01*
X12135000Y-10888500D02*
X12095000Y-10888500D01*
X12095000Y-10843500D02*
G75*
G03X12095000Y-10888500I0J-22500D01*
G01*
X12135000Y-10888500D02*
G75*
G03X12135000Y-10843500I0J22500D01*
G01*
X12137981Y-11372981D02*
X12137981Y-11327019D01*
X12092019Y-11327019D01*
X12092019Y-11372981D01*
X12137981Y-11372981D01*
X12135000Y-11327500D02*
X12095000Y-11327500D01*
X12135000Y-11372500D02*
X12095000Y-11372500D01*
X12095000Y-11327500D02*
G75*
G03X12095000Y-11372500I0J-22500D01*
G01*
X12135000Y-11372500D02*
G75*
G03X12135000Y-11327500I0J22500D01*
G01*
X12415000Y-10870000D02*
X12450000Y-10835000D01*
X12415000Y-10800000D01*
X12380000Y-10835000D01*
X12415000Y-10870000D01*
X12440000Y-10810000D02*
X12390000Y-10810000D01*
X12440000Y-10860000D02*
X12390000Y-10860000D01*
X12390000Y-10810000D02*
G75*
G03X12390000Y-10860000I0J-25000D01*
G01*
X12440000Y-10860000D02*
G75*
G03X12440000Y-10810000I0J25000D01*
G01*
X12415000Y-11416000D02*
X12450000Y-11381000D01*
X12415000Y-11346000D01*
X12380000Y-11381000D01*
X12415000Y-11416000D01*
X12440000Y-11356000D02*
X12390000Y-11356000D01*
X12440000Y-11406000D02*
X12390000Y-11406000D01*
X12390000Y-11356000D02*
G75*
G03X12390000Y-11406000I0J-25000D01*
G01*
X12440000Y-11406000D02*
G75*
G03X12440000Y-11356000I0J25000D01*
G01*
X10676191Y-7040579D02*
X10766191Y-7130579D01*
X10766191Y-7040579D02*
X10676191Y-7130579D01*
X10766191Y-7085579D02*
G75*
G03X10766191Y-7085579I-45000J0D01*
G01*
X10676191Y-7294579D02*
X10766191Y-7384579D01*
X10766191Y-7294579D02*
X10676191Y-7384579D01*
X10766191Y-7339579D02*
G75*
G03X10766191Y-7339579I-45000J0D01*
G01*
X10676191Y-7548579D02*
X10766191Y-7638579D01*
X10766191Y-7548579D02*
X10676191Y-7638579D01*
X10766191Y-7593579D02*
G75*
G03X10766191Y-7593579I-45000J0D01*
G01*
X10676191Y-7802579D02*
X10766191Y-7892579D01*
X10766191Y-7802579D02*
X10676191Y-7892579D01*
X10766191Y-7847579D02*
G75*
G03X10766191Y-7847579I-45000J0D01*
G01*
X10930191Y-7167579D02*
X11020191Y-7257579D01*
X11020191Y-7167579D02*
X10930191Y-7257579D01*
X11020191Y-7212579D02*
G75*
G03X11020191Y-7212579I-45000J0D01*
G01*
X10930191Y-7421579D02*
X11020191Y-7511579D01*
X11020191Y-7421579D02*
X10930191Y-7511579D01*
X11020191Y-7466579D02*
G75*
G03X11020191Y-7466579I-45000J0D01*
G01*
X10930191Y-7675579D02*
X11020191Y-7765579D01*
X11020191Y-7675579D02*
X10930191Y-7765579D01*
X11020191Y-7720579D02*
G75*
G03X11020191Y-7720579I-45000J0D01*
G01*
X10930191Y-7929579D02*
X11020191Y-8019579D01*
X11020191Y-7929579D02*
X10930191Y-8019579D01*
X11020191Y-7974579D02*
G75*
G03X11020191Y-7974579I-45000J0D01*
G01*
X11903000Y-7863638D02*
X11993000Y-7953638D01*
X11993000Y-7863638D02*
X11903000Y-7953638D01*
X11993000Y-7908638D02*
G75*
G03X11993000Y-7908638I-45000J0D01*
G01*
X11903050Y-6852453D02*
X11993050Y-6942453D01*
X11993050Y-6852453D02*
X11903050Y-6942453D01*
X11993050Y-6897453D02*
G75*
G03X11993050Y-6897453I-45000J0D01*
G01*
X12055000Y-7106638D02*
X12145000Y-7196638D01*
X12145000Y-7106638D02*
X12055000Y-7196638D01*
X12145000Y-7151638D02*
G75*
G03X12145000Y-7151638I-45000J0D01*
G01*
X12055050Y-8117453D02*
X12145050Y-8207453D01*
X12145050Y-8117453D02*
X12055050Y-8207453D01*
X12145050Y-8162453D02*
G75*
G03X12145050Y-8162453I-45000J0D01*
G01*
X1135000Y-10710000D02*
X1235000Y-10810000D01*
X1235000Y-10710000D02*
X1135000Y-10810000D01*
X1185000Y-10710000D02*
X1185000Y-10810000D01*
X1135000Y-10760000D02*
X1235000Y-10760000D01*
X1145000Y-10185000D02*
X1245000Y-10285000D01*
X1245000Y-10185000D02*
X1145000Y-10285000D01*
X1195000Y-10185000D02*
X1195000Y-10285000D01*
X1145000Y-10235000D02*
X1245000Y-10235000D01*
X1800000Y-10195000D02*
X1900000Y-10295000D01*
X1900000Y-10195000D02*
X1800000Y-10295000D01*
X1850000Y-10195000D02*
X1850000Y-10295000D01*
X1800000Y-10245000D02*
X1900000Y-10245000D01*
X1825000Y-10710000D02*
X1925000Y-10810000D01*
X1925000Y-10710000D02*
X1825000Y-10810000D01*
X1875000Y-10710000D02*
X1875000Y-10810000D01*
X1825000Y-10760000D02*
X1925000Y-10760000D01*
X2250000Y-11510000D02*
X2350000Y-11610000D01*
X2350000Y-11510000D02*
X2250000Y-11610000D01*
X2300000Y-11510000D02*
X2300000Y-11610000D01*
X2250000Y-11560000D02*
X2350000Y-11560000D01*
X2515000Y-10260000D02*
X2615000Y-10360000D01*
X2615000Y-10260000D02*
X2515000Y-10360000D01*
X2565000Y-10260000D02*
X2565000Y-10360000D01*
X2515000Y-10310000D02*
X2615000Y-10310000D01*
X2515000Y-10695000D02*
X2615000Y-10795000D01*
X2615000Y-10695000D02*
X2515000Y-10795000D01*
X2565000Y-10695000D02*
X2565000Y-10795000D01*
X2515000Y-10745000D02*
X2615000Y-10745000D01*
X2685000Y-10250000D02*
X2785000Y-10350000D01*
X2785000Y-10250000D02*
X2685000Y-10350000D01*
X2735000Y-10250000D02*
X2735000Y-10350000D01*
X2685000Y-10300000D02*
X2785000Y-10300000D01*
X2685000Y-10700000D02*
X2785000Y-10800000D01*
X2785000Y-10700000D02*
X2685000Y-10800000D01*
X2735000Y-10700000D02*
X2735000Y-10800000D01*
X2685000Y-10750000D02*
X2785000Y-10750000D01*
X2815000Y-9105000D02*
X2915000Y-9205000D01*
X2915000Y-9105000D02*
X2815000Y-9205000D01*
X2865000Y-9105000D02*
X2865000Y-9205000D01*
X2815000Y-9155000D02*
X2915000Y-9155000D01*
X2815000Y-9359000D02*
X2915000Y-9459000D01*
X2915000Y-9359000D02*
X2815000Y-9459000D01*
X2865000Y-9359000D02*
X2865000Y-9459000D01*
X2815000Y-9409000D02*
X2915000Y-9409000D01*
X2932500Y-2705000D02*
X3032500Y-2805000D01*
X3032500Y-2705000D02*
X2932500Y-2805000D01*
X2982500Y-2705000D02*
X2982500Y-2805000D01*
X2932500Y-2755000D02*
X3032500Y-2755000D01*
X3791000Y-1195000D02*
X3891000Y-1295000D01*
X3891000Y-1195000D02*
X3791000Y-1295000D01*
X3841000Y-1195000D02*
X3841000Y-1295000D01*
X3791000Y-1245000D02*
X3891000Y-1245000D01*
X3970000Y-8080000D02*
X4070000Y-8180000D01*
X4070000Y-8080000D02*
X3970000Y-8180000D01*
X4020000Y-8080000D02*
X4020000Y-8180000D01*
X3970000Y-8130000D02*
X4070000Y-8130000D01*
X4045000Y-1195000D02*
X4145000Y-1295000D01*
X4145000Y-1195000D02*
X4045000Y-1295000D01*
X4095000Y-1195000D02*
X4095000Y-1295000D01*
X4045000Y-1245000D02*
X4145000Y-1245000D01*
X4450000Y-8075000D02*
X4550000Y-8175000D01*
X4550000Y-8075000D02*
X4450000Y-8175000D01*
X4500000Y-8075000D02*
X4500000Y-8175000D01*
X4450000Y-8125000D02*
X4550000Y-8125000D01*
X4925000Y-5275000D02*
X5025000Y-5375000D01*
X5025000Y-5275000D02*
X4925000Y-5375000D01*
X4975000Y-5275000D02*
X4975000Y-5375000D01*
X4925000Y-5325000D02*
X5025000Y-5325000D01*
X4925000Y-5529000D02*
X5025000Y-5629000D01*
X5025000Y-5529000D02*
X4925000Y-5629000D01*
X4975000Y-5529000D02*
X4975000Y-5629000D01*
X4925000Y-5579000D02*
X5025000Y-5579000D01*
X6399000Y-4625000D02*
X6499000Y-4725000D01*
X6499000Y-4625000D02*
X6399000Y-4725000D01*
X6449000Y-4625000D02*
X6449000Y-4725000D01*
X6399000Y-4675000D02*
X6499000Y-4675000D01*
X6399000Y-5285000D02*
X6499000Y-5385000D01*
X6499000Y-5285000D02*
X6399000Y-5385000D01*
X6449000Y-5285000D02*
X6449000Y-5385000D01*
X6399000Y-5335000D02*
X6499000Y-5335000D01*
X6653000Y-4625000D02*
X6753000Y-4725000D01*
X6753000Y-4625000D02*
X6653000Y-4725000D01*
X6703000Y-4625000D02*
X6703000Y-4725000D01*
X6653000Y-4675000D02*
X6753000Y-4675000D01*
X6653000Y-5285000D02*
X6753000Y-5385000D01*
X6753000Y-5285000D02*
X6653000Y-5385000D01*
X6703000Y-5285000D02*
X6703000Y-5385000D01*
X6653000Y-5335000D02*
X6753000Y-5335000D01*
X6809000Y-665000D02*
X6909000Y-765000D01*
X6909000Y-665000D02*
X6809000Y-765000D01*
X6859000Y-665000D02*
X6859000Y-765000D01*
X6809000Y-715000D02*
X6909000Y-715000D01*
X6809000Y-1325000D02*
X6909000Y-1425000D01*
X6909000Y-1325000D02*
X6809000Y-1425000D01*
X6859000Y-1325000D02*
X6859000Y-1425000D01*
X6809000Y-1375000D02*
X6909000Y-1375000D01*
X6809000Y-1985000D02*
X6909000Y-2085000D01*
X6909000Y-1985000D02*
X6809000Y-2085000D01*
X6859000Y-1985000D02*
X6859000Y-2085000D01*
X6809000Y-2035000D02*
X6909000Y-2035000D01*
X6809000Y-2645000D02*
X6909000Y-2745000D01*
X6909000Y-2645000D02*
X6809000Y-2745000D01*
X6859000Y-2645000D02*
X6859000Y-2745000D01*
X6809000Y-2695000D02*
X6909000Y-2695000D01*
X6809000Y-3305000D02*
X6909000Y-3405000D01*
X6909000Y-3305000D02*
X6809000Y-3405000D01*
X6859000Y-3305000D02*
X6859000Y-3405000D01*
X6809000Y-3355000D02*
X6909000Y-3355000D01*
X6809000Y-3965000D02*
X6909000Y-4065000D01*
X6909000Y-3965000D02*
X6809000Y-4065000D01*
X6859000Y-3965000D02*
X6859000Y-4065000D01*
X6809000Y-4015000D02*
X6909000Y-4015000D01*
X6907000Y-4625000D02*
X7007000Y-4725000D01*
X7007000Y-4625000D02*
X6907000Y-4725000D01*
X6957000Y-4625000D02*
X6957000Y-4725000D01*
X6907000Y-4675000D02*
X7007000Y-4675000D01*
X6907000Y-5285000D02*
X7007000Y-5385000D01*
X7007000Y-5285000D02*
X6907000Y-5385000D01*
X6957000Y-5285000D02*
X6957000Y-5385000D01*
X6907000Y-5335000D02*
X7007000Y-5335000D01*
X7063000Y-665000D02*
X7163000Y-765000D01*
X7163000Y-665000D02*
X7063000Y-765000D01*
X7113000Y-665000D02*
X7113000Y-765000D01*
X7063000Y-715000D02*
X7163000Y-715000D01*
X7063000Y-1325000D02*
X7163000Y-1425000D01*
X7163000Y-1325000D02*
X7063000Y-1425000D01*
X7113000Y-1325000D02*
X7113000Y-1425000D01*
X7063000Y-1375000D02*
X7163000Y-1375000D01*
X7063000Y-1985000D02*
X7163000Y-2085000D01*
X7163000Y-1985000D02*
X7063000Y-2085000D01*
X7113000Y-1985000D02*
X7113000Y-2085000D01*
X7063000Y-2035000D02*
X7163000Y-2035000D01*
X7063000Y-2645000D02*
X7163000Y-2745000D01*
X7163000Y-2645000D02*
X7063000Y-2745000D01*
X7113000Y-2645000D02*
X7113000Y-2745000D01*
X7063000Y-2695000D02*
X7163000Y-2695000D01*
X7063000Y-3305000D02*
X7163000Y-3405000D01*
X7163000Y-3305000D02*
X7063000Y-3405000D01*
X7113000Y-3305000D02*
X7113000Y-3405000D01*
X7063000Y-3355000D02*
X7163000Y-3355000D01*
X7063000Y-3965000D02*
X7163000Y-4065000D01*
X7163000Y-3965000D02*
X7063000Y-4065000D01*
X7113000Y-3965000D02*
X7113000Y-4065000D01*
X7063000Y-4015000D02*
X7163000Y-4015000D01*
X7317000Y-665000D02*
X7417000Y-765000D01*
X7417000Y-665000D02*
X7317000Y-765000D01*
X7367000Y-665000D02*
X7367000Y-765000D01*
X7317000Y-715000D02*
X7417000Y-715000D01*
X7317000Y-1325000D02*
X7417000Y-1425000D01*
X7417000Y-1325000D02*
X7317000Y-1425000D01*
X7367000Y-1325000D02*
X7367000Y-1425000D01*
X7317000Y-1375000D02*
X7417000Y-1375000D01*
X7317000Y-1985000D02*
X7417000Y-2085000D01*
X7417000Y-1985000D02*
X7317000Y-2085000D01*
X7367000Y-1985000D02*
X7367000Y-2085000D01*
X7317000Y-2035000D02*
X7417000Y-2035000D01*
X7317000Y-2645000D02*
X7417000Y-2745000D01*
X7417000Y-2645000D02*
X7317000Y-2745000D01*
X7367000Y-2645000D02*
X7367000Y-2745000D01*
X7317000Y-2695000D02*
X7417000Y-2695000D01*
X7317000Y-3305000D02*
X7417000Y-3405000D01*
X7417000Y-3305000D02*
X7317000Y-3405000D01*
X7367000Y-3305000D02*
X7367000Y-3405000D01*
X7317000Y-3355000D02*
X7417000Y-3355000D01*
X7317000Y-3965000D02*
X7417000Y-4065000D01*
X7417000Y-3965000D02*
X7317000Y-4065000D01*
X7367000Y-3965000D02*
X7367000Y-4065000D01*
X7317000Y-4015000D02*
X7417000Y-4015000D01*
X8306000Y-665000D02*
X8406000Y-765000D01*
X8406000Y-665000D02*
X8306000Y-765000D01*
X8356000Y-665000D02*
X8356000Y-765000D01*
X8306000Y-715000D02*
X8406000Y-715000D01*
X8306000Y-1325000D02*
X8406000Y-1425000D01*
X8406000Y-1325000D02*
X8306000Y-1425000D01*
X8356000Y-1325000D02*
X8356000Y-1425000D01*
X8306000Y-1375000D02*
X8406000Y-1375000D01*
X8306000Y-1985000D02*
X8406000Y-2085000D01*
X8406000Y-1985000D02*
X8306000Y-2085000D01*
X8356000Y-1985000D02*
X8356000Y-2085000D01*
X8306000Y-2035000D02*
X8406000Y-2035000D01*
X8306000Y-2645000D02*
X8406000Y-2745000D01*
X8406000Y-2645000D02*
X8306000Y-2745000D01*
X8356000Y-2645000D02*
X8356000Y-2745000D01*
X8306000Y-2695000D02*
X8406000Y-2695000D01*
X8306000Y-3305000D02*
X8406000Y-3405000D01*
X8406000Y-3305000D02*
X8306000Y-3405000D01*
X8356000Y-3305000D02*
X8356000Y-3405000D01*
X8306000Y-3355000D02*
X8406000Y-3355000D01*
X8306000Y-3965000D02*
X8406000Y-4065000D01*
X8406000Y-3965000D02*
X8306000Y-4065000D01*
X8356000Y-3965000D02*
X8356000Y-4065000D01*
X8306000Y-4015000D02*
X8406000Y-4015000D01*
X8306000Y-4625000D02*
X8406000Y-4725000D01*
X8406000Y-4625000D02*
X8306000Y-4725000D01*
X8356000Y-4625000D02*
X8356000Y-4725000D01*
X8306000Y-4675000D02*
X8406000Y-4675000D01*
X8306000Y-5285000D02*
X8406000Y-5385000D01*
X8406000Y-5285000D02*
X8306000Y-5385000D01*
X8356000Y-5285000D02*
X8356000Y-5385000D01*
X8306000Y-5335000D02*
X8406000Y-5335000D01*
X8560000Y-665000D02*
X8660000Y-765000D01*
X8660000Y-665000D02*
X8560000Y-765000D01*
X8610000Y-665000D02*
X8610000Y-765000D01*
X8560000Y-715000D02*
X8660000Y-715000D01*
X8560000Y-1325000D02*
X8660000Y-1425000D01*
X8660000Y-1325000D02*
X8560000Y-1425000D01*
X8610000Y-1325000D02*
X8610000Y-1425000D01*
X8560000Y-1375000D02*
X8660000Y-1375000D01*
X8560000Y-1985000D02*
X8660000Y-2085000D01*
X8660000Y-1985000D02*
X8560000Y-2085000D01*
X8610000Y-1985000D02*
X8610000Y-2085000D01*
X8560000Y-2035000D02*
X8660000Y-2035000D01*
X8560000Y-2645000D02*
X8660000Y-2745000D01*
X8660000Y-2645000D02*
X8560000Y-2745000D01*
X8610000Y-2645000D02*
X8610000Y-2745000D01*
X8560000Y-2695000D02*
X8660000Y-2695000D01*
X8560000Y-3305000D02*
X8660000Y-3405000D01*
X8660000Y-3305000D02*
X8560000Y-3405000D01*
X8610000Y-3305000D02*
X8610000Y-3405000D01*
X8560000Y-3355000D02*
X8660000Y-3355000D01*
X8560000Y-3965000D02*
X8660000Y-4065000D01*
X8660000Y-3965000D02*
X8560000Y-4065000D01*
X8610000Y-3965000D02*
X8610000Y-4065000D01*
X8560000Y-4015000D02*
X8660000Y-4015000D01*
X8560000Y-4625000D02*
X8660000Y-4725000D01*
X8660000Y-4625000D02*
X8560000Y-4725000D01*
X8610000Y-4625000D02*
X8610000Y-4725000D01*
X8560000Y-4675000D02*
X8660000Y-4675000D01*
X8560000Y-5285000D02*
X8660000Y-5385000D01*
X8660000Y-5285000D02*
X8560000Y-5385000D01*
X8610000Y-5285000D02*
X8610000Y-5385000D01*
X8560000Y-5335000D02*
X8660000Y-5335000D01*
X8814000Y-665000D02*
X8914000Y-765000D01*
X8914000Y-665000D02*
X8814000Y-765000D01*
X8864000Y-665000D02*
X8864000Y-765000D01*
X8814000Y-715000D02*
X8914000Y-715000D01*
X8814000Y-1325000D02*
X8914000Y-1425000D01*
X8914000Y-1325000D02*
X8814000Y-1425000D01*
X8864000Y-1325000D02*
X8864000Y-1425000D01*
X8814000Y-1375000D02*
X8914000Y-1375000D01*
X8814000Y-1985000D02*
X8914000Y-2085000D01*
X8914000Y-1985000D02*
X8814000Y-2085000D01*
X8864000Y-1985000D02*
X8864000Y-2085000D01*
X8814000Y-2035000D02*
X8914000Y-2035000D01*
X8814000Y-2645000D02*
X8914000Y-2745000D01*
X8914000Y-2645000D02*
X8814000Y-2745000D01*
X8864000Y-2645000D02*
X8864000Y-2745000D01*
X8814000Y-2695000D02*
X8914000Y-2695000D01*
X8814000Y-3305000D02*
X8914000Y-3405000D01*
X8914000Y-3305000D02*
X8814000Y-3405000D01*
X8864000Y-3305000D02*
X8864000Y-3405000D01*
X8814000Y-3355000D02*
X8914000Y-3355000D01*
X8814000Y-3965000D02*
X8914000Y-4065000D01*
X8914000Y-3965000D02*
X8814000Y-4065000D01*
X8864000Y-3965000D02*
X8864000Y-4065000D01*
X8814000Y-4015000D02*
X8914000Y-4015000D01*
X8814000Y-4625000D02*
X8914000Y-4725000D01*
X8914000Y-4625000D02*
X8814000Y-4725000D01*
X8864000Y-4625000D02*
X8864000Y-4725000D01*
X8814000Y-4675000D02*
X8914000Y-4675000D01*
X8814000Y-5285000D02*
X8914000Y-5385000D01*
X8914000Y-5285000D02*
X8814000Y-5385000D01*
X8864000Y-5285000D02*
X8864000Y-5385000D01*
X8814000Y-5335000D02*
X8914000Y-5335000D01*
X9567000Y-11967500D02*
X9667000Y-12067500D01*
X9667000Y-11967500D02*
X9567000Y-12067500D01*
X9617000Y-11967500D02*
X9617000Y-12067500D01*
X9567000Y-12017500D02*
X9667000Y-12017500D01*
X9567000Y-12221500D02*
X9667000Y-12321500D01*
X9667000Y-12221500D02*
X9567000Y-12321500D01*
X9617000Y-12221500D02*
X9617000Y-12321500D01*
X9567000Y-12271500D02*
X9667000Y-12271500D01*
X9821000Y-11967500D02*
X9921000Y-12067500D01*
X9921000Y-11967500D02*
X9821000Y-12067500D01*
X9871000Y-11967500D02*
X9871000Y-12067500D01*
X9821000Y-12017500D02*
X9921000Y-12017500D01*
X9821000Y-12221500D02*
X9921000Y-12321500D01*
X9921000Y-12221500D02*
X9821000Y-12321500D01*
X9871000Y-12221500D02*
X9871000Y-12321500D01*
X9821000Y-12271500D02*
X9921000Y-12271500D01*
X10075000Y-11967500D02*
X10175000Y-12067500D01*
X10175000Y-11967500D02*
X10075000Y-12067500D01*
X10125000Y-11967500D02*
X10125000Y-12067500D01*
X10075000Y-12017500D02*
X10175000Y-12017500D01*
X10075000Y-12221500D02*
X10175000Y-12321500D01*
X10175000Y-12221500D02*
X10075000Y-12321500D01*
X10125000Y-12221500D02*
X10125000Y-12321500D01*
X10075000Y-12271500D02*
X10175000Y-12271500D01*
X12116000Y-9981000D02*
X12216000Y-10081000D01*
X12216000Y-9981000D02*
X12116000Y-10081000D01*
X12166000Y-9981000D02*
X12166000Y-10081000D01*
X12116000Y-10031000D02*
X12216000Y-10031000D01*
X12116000Y-10235000D02*
X12216000Y-10335000D01*
X12216000Y-10235000D02*
X12116000Y-10335000D01*
X12166000Y-10235000D02*
X12166000Y-10335000D01*
X12116000Y-10285000D02*
X12216000Y-10285000D01*
X12370000Y-9981000D02*
X12470000Y-10081000D01*
X12470000Y-9981000D02*
X12370000Y-10081000D01*
X12420000Y-9981000D02*
X12420000Y-10081000D01*
X12370000Y-10031000D02*
X12470000Y-10031000D01*
X12370000Y-10235000D02*
X12470000Y-10335000D01*
X12470000Y-10235000D02*
X12370000Y-10335000D01*
X12420000Y-10235000D02*
X12420000Y-10335000D01*
X12370000Y-10285000D02*
X12470000Y-10285000D01*
X12540000Y-10542500D02*
X12640000Y-10642500D01*
X12640000Y-10542500D02*
X12540000Y-10642500D01*
X12590000Y-10542500D02*
X12590000Y-10642500D01*
X12540000Y-10592500D02*
X12640000Y-10592500D01*
X12540000Y-11542500D02*
X12640000Y-11642500D01*
X12640000Y-11542500D02*
X12540000Y-11642500D01*
X12590000Y-11542500D02*
X12590000Y-11642500D01*
X12540000Y-11592500D02*
X12640000Y-11592500D01*
X11225191Y-6662579D02*
X11385191Y-6822579D01*
X11385191Y-6662579D02*
X11225191Y-6822579D01*
X11361760Y-6799148D02*
X11361760Y-6686010D01*
X11248622Y-6686010D01*
X11248622Y-6799148D01*
X11361760Y-6799148D01*
X11225191Y-8237579D02*
X11385191Y-8397579D01*
X11385191Y-8237579D02*
X11225191Y-8397579D01*
X11361760Y-8374148D02*
X11361760Y-8261010D01*
X11248622Y-8261010D01*
X11248622Y-8374148D01*
X11361760Y-8374148D01*
X542000Y-2378500D02*
X720000Y-2556500D01*
X720000Y-2378500D02*
X542000Y-2556500D01*
X631000Y-2556500D02*
X720000Y-2467500D01*
X631000Y-2378500D01*
X542000Y-2467500D01*
X631000Y-2556500D01*
X542000Y-3013500D02*
X720000Y-3191500D01*
X720000Y-3013500D02*
X542000Y-3191500D01*
X631000Y-3191500D02*
X720000Y-3102500D01*
X631000Y-3013500D01*
X542000Y-3102500D01*
X631000Y-3191500D01*
X542000Y-3648500D02*
X720000Y-3826500D01*
X720000Y-3648500D02*
X542000Y-3826500D01*
X631000Y-3826500D02*
X720000Y-3737500D01*
X631000Y-3648500D01*
X542000Y-3737500D01*
X631000Y-3826500D01*
X542000Y-4283500D02*
X720000Y-4461500D01*
X720000Y-4283500D02*
X542000Y-4461500D01*
X631000Y-4461500D02*
X720000Y-4372500D01*
X631000Y-4283500D01*
X542000Y-4372500D01*
X631000Y-4461500D01*
X542000Y-7043500D02*
X720000Y-7221500D01*
X720000Y-7043500D02*
X542000Y-7221500D01*
X631000Y-7221500D02*
X720000Y-7132500D01*
X631000Y-7043500D01*
X542000Y-7132500D01*
X631000Y-7221500D01*
X542000Y-7678500D02*
X720000Y-7856500D01*
X720000Y-7678500D02*
X542000Y-7856500D01*
X631000Y-7856500D02*
X720000Y-7767500D01*
X631000Y-7678500D01*
X542000Y-7767500D01*
X631000Y-7856500D01*
X542000Y-10440500D02*
X720000Y-10618500D01*
X720000Y-10440500D02*
X542000Y-10618500D01*
X631000Y-10618500D02*
X720000Y-10529500D01*
X631000Y-10440500D01*
X542000Y-10529500D01*
X631000Y-10618500D01*
X542000Y-11075500D02*
X720000Y-11253500D01*
X720000Y-11075500D02*
X542000Y-11253500D01*
X631000Y-11253500D02*
X720000Y-11164500D01*
X631000Y-11075500D01*
X542000Y-11164500D01*
X631000Y-11253500D01*
X2015000Y-2378500D02*
X2193000Y-2556500D01*
X2193000Y-2378500D02*
X2015000Y-2556500D01*
X2104000Y-2556500D02*
X2193000Y-2467500D01*
X2104000Y-2378500D01*
X2015000Y-2467500D01*
X2104000Y-2556500D01*
X2015000Y-3013500D02*
X2193000Y-3191500D01*
X2193000Y-3013500D02*
X2015000Y-3191500D01*
X2104000Y-3191500D02*
X2193000Y-3102500D01*
X2104000Y-3013500D01*
X2015000Y-3102500D01*
X2104000Y-3191500D01*
X2015000Y-3648500D02*
X2193000Y-3826500D01*
X2193000Y-3648500D02*
X2015000Y-3826500D01*
X2104000Y-3826500D02*
X2193000Y-3737500D01*
X2104000Y-3648500D01*
X2015000Y-3737500D01*
X2104000Y-3826500D01*
X2015000Y-4283500D02*
X2193000Y-4461500D01*
X2193000Y-4283500D02*
X2015000Y-4461500D01*
X2104000Y-4461500D02*
X2193000Y-4372500D01*
X2104000Y-4283500D01*
X2015000Y-4372500D01*
X2104000Y-4461500D01*
X2015000Y-7043500D02*
X2193000Y-7221500D01*
X2193000Y-7043500D02*
X2015000Y-7221500D01*
X2104000Y-7221500D02*
X2193000Y-7132500D01*
X2104000Y-7043500D01*
X2015000Y-7132500D01*
X2104000Y-7221500D01*
X2015000Y-7678500D02*
X2193000Y-7856500D01*
X2193000Y-7678500D02*
X2015000Y-7856500D01*
X2104000Y-7856500D02*
X2193000Y-7767500D01*
X2104000Y-7678500D01*
X2015000Y-7767500D01*
X2104000Y-7856500D01*
X2015000Y-10440500D02*
X2193000Y-10618500D01*
X2193000Y-10440500D02*
X2015000Y-10618500D01*
X2104000Y-10618500D02*
X2193000Y-10529500D01*
X2104000Y-10440500D01*
X2015000Y-10529500D01*
X2104000Y-10618500D01*
X2015000Y-11075500D02*
X2193000Y-11253500D01*
X2193000Y-11075500D02*
X2015000Y-11253500D01*
X2104000Y-11253500D02*
X2193000Y-11164500D01*
X2104000Y-11075500D01*
X2015000Y-11164500D01*
X2104000Y-11253500D01*
X2393500Y-542000D02*
X2571500Y-720000D01*
X2571500Y-542000D02*
X2393500Y-720000D01*
X2482500Y-720000D02*
X2571500Y-631000D01*
X2482500Y-542000D01*
X2393500Y-631000D01*
X2482500Y-720000D01*
X3028500Y-542000D02*
X3206500Y-720000D01*
X3206500Y-542000D02*
X3028500Y-720000D01*
X3117500Y-720000D02*
X3206500Y-631000D01*
X3117500Y-542000D01*
X3028500Y-631000D01*
X3117500Y-720000D01*
X3488000Y-7043500D02*
X3666000Y-7221500D01*
X3666000Y-7043500D02*
X3488000Y-7221500D01*
X3577000Y-7221500D02*
X3666000Y-7132500D01*
X3577000Y-7043500D01*
X3488000Y-7132500D01*
X3577000Y-7221500D01*
X3488000Y-7678500D02*
X3666000Y-7856500D01*
X3666000Y-7678500D02*
X3488000Y-7856500D01*
X3577000Y-7856500D02*
X3666000Y-7767500D01*
X3577000Y-7678500D01*
X3488000Y-7767500D01*
X3577000Y-7856500D01*
X3488000Y-10440500D02*
X3666000Y-10618500D01*
X3666000Y-10440500D02*
X3488000Y-10618500D01*
X3577000Y-10618500D02*
X3666000Y-10529500D01*
X3577000Y-10440500D01*
X3488000Y-10529500D01*
X3577000Y-10618500D01*
X3488000Y-11075500D02*
X3666000Y-11253500D01*
X3666000Y-11075500D02*
X3488000Y-11253500D01*
X3577000Y-11253500D02*
X3666000Y-11164500D01*
X3577000Y-11075500D01*
X3488000Y-11164500D01*
X3577000Y-11253500D01*
X4961000Y-7043500D02*
X5139000Y-7221500D01*
X5139000Y-7043500D02*
X4961000Y-7221500D01*
X5050000Y-7221500D02*
X5139000Y-7132500D01*
X5050000Y-7043500D01*
X4961000Y-7132500D01*
X5050000Y-7221500D01*
X4961000Y-7678500D02*
X5139000Y-7856500D01*
X5139000Y-7678500D02*
X4961000Y-7856500D01*
X5050000Y-7856500D02*
X5139000Y-7767500D01*
X5050000Y-7678500D01*
X4961000Y-7767500D01*
X5050000Y-7856500D01*
X4961000Y-10440500D02*
X5139000Y-10618500D01*
X5139000Y-10440500D02*
X4961000Y-10618500D01*
X5050000Y-10618500D02*
X5139000Y-10529500D01*
X5050000Y-10440500D01*
X4961000Y-10529500D01*
X5050000Y-10618500D01*
X4961000Y-11075500D02*
X5139000Y-11253500D01*
X5139000Y-11075500D02*
X4961000Y-11253500D01*
X5050000Y-11253500D02*
X5139000Y-11164500D01*
X5050000Y-11075500D01*
X4961000Y-11164500D01*
X5050000Y-11253500D01*
X635000Y-460000D02*
X635000Y-810000D01*
X460000Y-635000D02*
X810000Y-635000D01*
X810000Y-635000D02*
G75*
G03X810000Y-635000I-175000J0D01*
G01*
X635000Y-11890000D02*
X635000Y-12240000D01*
X460000Y-12065000D02*
X810000Y-12065000D01*
X810000Y-12065000D02*
G75*
G03X810000Y-12065000I-175000J0D01*
G01*
X12065000Y-460000D02*
X12065000Y-810000D01*
X11890000Y-635000D02*
X12240000Y-635000D01*
X12240000Y-635000D02*
G75*
G03X12240000Y-635000I-175000J0D01*
G01*
X12065000Y-11890000D02*
X12065000Y-12240000D01*
X11890000Y-12065000D02*
X12240000Y-12065000D01*
X12240000Y-12065000D02*
G75*
G03X12240000Y-12065000I-175000J0D01*
G01*
D13*
X263929Y-13173214D02*
X263929Y-12873214D01*
X335357Y-12873214D01*
X378214Y-12887500D01*
X406786Y-12916071D01*
X421071Y-12944643D01*
X435357Y-13001786D01*
X435357Y-13044643D01*
X421071Y-13101786D01*
X406786Y-13130357D01*
X378214Y-13158929D01*
X335357Y-13173214D01*
X263929Y-13173214D01*
X563929Y-13173214D02*
X563929Y-12973214D01*
X563929Y-13030357D02*
X578214Y-13001786D01*
X592500Y-12987500D01*
X621071Y-12973214D01*
X649643Y-12973214D01*
X749643Y-13173214D02*
X749643Y-12973214D01*
X749643Y-12873214D02*
X735357Y-12887500D01*
X749643Y-12901786D01*
X763928Y-12887500D01*
X749643Y-12873214D01*
X749643Y-12901786D01*
X935357Y-13173214D02*
X906786Y-13158929D01*
X892500Y-13130357D01*
X892500Y-12873214D01*
X1092500Y-13173214D02*
X1063929Y-13158929D01*
X1049643Y-13130357D01*
X1049643Y-12873214D01*
X1435357Y-13173214D02*
X1435357Y-12873214D01*
X1535357Y-13087500D01*
X1635357Y-12873214D01*
X1635357Y-13173214D01*
X1906786Y-13173214D02*
X1906786Y-13016071D01*
X1892500Y-12987500D01*
X1863928Y-12973214D01*
X1806786Y-12973214D01*
X1778214Y-12987500D01*
X1906786Y-13158929D02*
X1878214Y-13173214D01*
X1806786Y-13173214D01*
X1778214Y-13158929D01*
X1763928Y-13130357D01*
X1763928Y-13101786D01*
X1778214Y-13073214D01*
X1806786Y-13058929D01*
X1878214Y-13058929D01*
X1906786Y-13044643D01*
X2049643Y-12973214D02*
X2049643Y-13273214D01*
X2049643Y-12987500D02*
X2078214Y-12973214D01*
X2135357Y-12973214D01*
X2163929Y-12987500D01*
X2178214Y-13001786D01*
X2192500Y-13030357D01*
X2192500Y-13116071D01*
X2178214Y-13144643D01*
X2163929Y-13158929D01*
X2135357Y-13173214D01*
X2078214Y-13173214D01*
X2049643Y-13158929D01*
X2321071Y-13144643D02*
X2335357Y-13158929D01*
X2321071Y-13173214D01*
X2306786Y-13158929D01*
X2321071Y-13144643D01*
X2321071Y-13173214D01*
X2321071Y-12987500D02*
X2335357Y-13001786D01*
X2321071Y-13016071D01*
X2306786Y-13001786D01*
X2321071Y-12987500D01*
X2321071Y-13016071D01*
X-37500Y-13652500D02*
X-7500Y-13682500D01*
X-7500Y-13652500D02*
X-37500Y-13682500D01*
X321071Y-13503214D02*
X349643Y-13503214D01*
X378214Y-13517500D01*
X392500Y-13531786D01*
X406786Y-13560357D01*
X421071Y-13617500D01*
X421071Y-13688929D01*
X406786Y-13746071D01*
X392500Y-13774643D01*
X378214Y-13788929D01*
X349643Y-13803214D01*
X321071Y-13803214D01*
X292500Y-13788929D01*
X278214Y-13774643D01*
X263929Y-13746071D01*
X249643Y-13688929D01*
X249643Y-13617500D01*
X263929Y-13560357D01*
X278214Y-13531786D01*
X292500Y-13517500D01*
X321071Y-13503214D01*
X549643Y-13774643D02*
X563929Y-13788929D01*
X549643Y-13803214D01*
X535357Y-13788929D01*
X549643Y-13774643D01*
X549643Y-13803214D01*
X663928Y-13503214D02*
X849643Y-13503214D01*
X749643Y-13617500D01*
X792500Y-13617500D01*
X821071Y-13631786D01*
X835357Y-13646071D01*
X849643Y-13674643D01*
X849643Y-13746071D01*
X835357Y-13774643D01*
X821071Y-13788929D01*
X792500Y-13803214D01*
X706786Y-13803214D01*
X678214Y-13788929D01*
X663928Y-13774643D01*
X1035357Y-13503214D02*
X1063929Y-13503214D01*
X1092500Y-13517500D01*
X1106786Y-13531786D01*
X1121071Y-13560357D01*
X1135357Y-13617500D01*
X1135357Y-13688929D01*
X1121071Y-13746071D01*
X1106786Y-13774643D01*
X1092500Y-13788929D01*
X1063929Y-13803214D01*
X1035357Y-13803214D01*
X1006786Y-13788929D01*
X992500Y-13774643D01*
X978214Y-13746071D01*
X963928Y-13688929D01*
X963928Y-13617500D01*
X978214Y-13560357D01*
X992500Y-13531786D01*
X1006786Y-13517500D01*
X1035357Y-13503214D01*
X1263929Y-13803214D02*
X1263929Y-13603214D01*
X1263929Y-13631786D02*
X1278214Y-13617500D01*
X1306786Y-13603214D01*
X1349643Y-13603214D01*
X1378214Y-13617500D01*
X1392500Y-13646071D01*
X1392500Y-13803214D01*
X1392500Y-13646071D02*
X1406786Y-13617500D01*
X1435357Y-13603214D01*
X1478214Y-13603214D01*
X1506786Y-13617500D01*
X1521071Y-13646071D01*
X1521071Y-13803214D01*
X1663928Y-13803214D02*
X1663928Y-13603214D01*
X1663928Y-13631786D02*
X1678214Y-13617500D01*
X1706786Y-13603214D01*
X1749643Y-13603214D01*
X1778214Y-13617500D01*
X1792500Y-13646071D01*
X1792500Y-13803214D01*
X1792500Y-13646071D02*
X1806786Y-13617500D01*
X1835357Y-13603214D01*
X1878214Y-13603214D01*
X1906786Y-13617500D01*
X1921071Y-13646071D01*
X1921071Y-13803214D01*
X2506786Y-13488929D02*
X2249643Y-13874643D01*
X2892500Y-13503214D02*
X2921071Y-13503214D01*
X2949643Y-13517500D01*
X2963928Y-13531786D01*
X2978214Y-13560357D01*
X2992500Y-13617500D01*
X2992500Y-13688929D01*
X2978214Y-13746071D01*
X2963928Y-13774643D01*
X2949643Y-13788929D01*
X2921071Y-13803214D01*
X2892500Y-13803214D01*
X2863928Y-13788929D01*
X2849643Y-13774643D01*
X2835357Y-13746071D01*
X2821071Y-13688929D01*
X2821071Y-13617500D01*
X2835357Y-13560357D01*
X2849643Y-13531786D01*
X2863928Y-13517500D01*
X2892500Y-13503214D01*
X3121071Y-13774643D02*
X3135357Y-13788929D01*
X3121071Y-13803214D01*
X3106786Y-13788929D01*
X3121071Y-13774643D01*
X3121071Y-13803214D01*
X3321071Y-13503214D02*
X3349643Y-13503214D01*
X3378214Y-13517500D01*
X3392500Y-13531786D01*
X3406785Y-13560357D01*
X3421071Y-13617500D01*
X3421071Y-13688929D01*
X3406785Y-13746071D01*
X3392500Y-13774643D01*
X3378214Y-13788929D01*
X3349643Y-13803214D01*
X3321071Y-13803214D01*
X3292500Y-13788929D01*
X3278214Y-13774643D01*
X3263928Y-13746071D01*
X3249643Y-13688929D01*
X3249643Y-13617500D01*
X3263928Y-13560357D01*
X3278214Y-13531786D01*
X3292500Y-13517500D01*
X3321071Y-13503214D01*
X3706785Y-13803214D02*
X3535357Y-13803214D01*
X3621071Y-13803214D02*
X3621071Y-13503214D01*
X3592500Y-13546071D01*
X3563928Y-13574643D01*
X3535357Y-13588929D01*
X3821071Y-13531786D02*
X3835357Y-13517500D01*
X3863928Y-13503214D01*
X3935357Y-13503214D01*
X3963928Y-13517500D01*
X3978214Y-13531786D01*
X3992500Y-13560357D01*
X3992500Y-13588929D01*
X3978214Y-13631786D01*
X3806785Y-13803214D01*
X3992500Y-13803214D01*
X4106786Y-13503214D02*
X4106786Y-13560357D01*
X4221071Y-13503214D02*
X4221071Y-13560357D01*
X4663928Y-13917500D02*
X4649643Y-13903214D01*
X4621071Y-13860357D01*
X4606786Y-13831786D01*
X4592500Y-13788929D01*
X4578214Y-13717500D01*
X4578214Y-13660357D01*
X4592500Y-13588929D01*
X4606786Y-13546071D01*
X4621071Y-13517500D01*
X4649643Y-13474643D01*
X4663928Y-13460357D01*
X4935357Y-13803214D02*
X4763928Y-13803214D01*
X4849643Y-13803214D02*
X4849643Y-13503214D01*
X4821071Y-13546071D01*
X4792500Y-13574643D01*
X4763928Y-13588929D01*
X5121071Y-13503214D02*
X5149643Y-13503214D01*
X5178214Y-13517500D01*
X5192500Y-13531786D01*
X5206786Y-13560357D01*
X5221071Y-13617500D01*
X5221071Y-13688929D01*
X5206786Y-13746071D01*
X5192500Y-13774643D01*
X5178214Y-13788929D01*
X5149643Y-13803214D01*
X5121071Y-13803214D01*
X5092500Y-13788929D01*
X5078214Y-13774643D01*
X5063928Y-13746071D01*
X5049643Y-13688929D01*
X5049643Y-13617500D01*
X5063928Y-13560357D01*
X5078214Y-13531786D01*
X5092500Y-13517500D01*
X5121071Y-13503214D01*
X5578214Y-13803214D02*
X5578214Y-13503214D01*
X5706785Y-13803214D02*
X5706785Y-13646071D01*
X5692500Y-13617500D01*
X5663928Y-13603214D01*
X5621071Y-13603214D01*
X5592500Y-13617500D01*
X5578214Y-13631786D01*
X5892500Y-13803214D02*
X5863928Y-13788929D01*
X5849643Y-13774643D01*
X5835357Y-13746071D01*
X5835357Y-13660357D01*
X5849643Y-13631786D01*
X5863928Y-13617500D01*
X5892500Y-13603214D01*
X5935357Y-13603214D01*
X5963928Y-13617500D01*
X5978214Y-13631786D01*
X5992500Y-13660357D01*
X5992500Y-13746071D01*
X5978214Y-13774643D01*
X5963928Y-13788929D01*
X5935357Y-13803214D01*
X5892500Y-13803214D01*
X6163928Y-13803214D02*
X6135357Y-13788929D01*
X6121071Y-13760357D01*
X6121071Y-13503214D01*
X6392500Y-13788929D02*
X6363928Y-13803214D01*
X6306786Y-13803214D01*
X6278214Y-13788929D01*
X6263928Y-13760357D01*
X6263928Y-13646071D01*
X6278214Y-13617500D01*
X6306786Y-13603214D01*
X6363928Y-13603214D01*
X6392500Y-13617500D01*
X6406786Y-13646071D01*
X6406786Y-13674643D01*
X6263928Y-13703214D01*
X6521071Y-13788929D02*
X6549643Y-13803214D01*
X6606786Y-13803214D01*
X6635357Y-13788929D01*
X6649643Y-13760357D01*
X6649643Y-13746071D01*
X6635357Y-13717500D01*
X6606786Y-13703214D01*
X6563928Y-13703214D01*
X6535357Y-13688929D01*
X6521071Y-13660357D01*
X6521071Y-13646071D01*
X6535357Y-13617500D01*
X6563928Y-13603214D01*
X6606786Y-13603214D01*
X6635357Y-13617500D01*
X6749643Y-13917500D02*
X6763928Y-13903214D01*
X6792500Y-13860357D01*
X6806786Y-13831786D01*
X6821071Y-13788929D01*
X6835357Y-13717500D01*
X6835357Y-13660357D01*
X6821071Y-13588929D01*
X6806786Y-13546071D01*
X6792500Y-13517500D01*
X6763928Y-13474643D01*
X6749643Y-13460357D01*
X-7500Y-14063500D02*
G75*
G03X-7500Y-14063500I-20000J0D01*
G01*
X321071Y-13899214D02*
X349643Y-13899214D01*
X378214Y-13913500D01*
X392500Y-13927786D01*
X406786Y-13956357D01*
X421071Y-14013500D01*
X421071Y-14084929D01*
X406786Y-14142071D01*
X392500Y-14170643D01*
X378214Y-14184929D01*
X349643Y-14199214D01*
X321071Y-14199214D01*
X292500Y-14184929D01*
X278214Y-14170643D01*
X263929Y-14142071D01*
X249643Y-14084929D01*
X249643Y-14013500D01*
X263929Y-13956357D01*
X278214Y-13927786D01*
X292500Y-13913500D01*
X321071Y-13899214D01*
X549643Y-14170643D02*
X563929Y-14184929D01*
X549643Y-14199214D01*
X535357Y-14184929D01*
X549643Y-14170643D01*
X549643Y-14199214D01*
X821071Y-13999214D02*
X821071Y-14199214D01*
X749643Y-13884929D02*
X678214Y-14099214D01*
X863928Y-14099214D01*
X1035357Y-13899214D02*
X1063929Y-13899214D01*
X1092500Y-13913500D01*
X1106786Y-13927786D01*
X1121071Y-13956357D01*
X1135357Y-14013500D01*
X1135357Y-14084929D01*
X1121071Y-14142071D01*
X1106786Y-14170643D01*
X1092500Y-14184929D01*
X1063929Y-14199214D01*
X1035357Y-14199214D01*
X1006786Y-14184929D01*
X992500Y-14170643D01*
X978214Y-14142071D01*
X963928Y-14084929D01*
X963928Y-14013500D01*
X978214Y-13956357D01*
X992500Y-13927786D01*
X1006786Y-13913500D01*
X1035357Y-13899214D01*
X1263929Y-14199214D02*
X1263929Y-13999214D01*
X1263929Y-14027786D02*
X1278214Y-14013500D01*
X1306786Y-13999214D01*
X1349643Y-13999214D01*
X1378214Y-14013500D01*
X1392500Y-14042071D01*
X1392500Y-14199214D01*
X1392500Y-14042071D02*
X1406786Y-14013500D01*
X1435357Y-13999214D01*
X1478214Y-13999214D01*
X1506786Y-14013500D01*
X1521071Y-14042071D01*
X1521071Y-14199214D01*
X1663928Y-14199214D02*
X1663928Y-13999214D01*
X1663928Y-14027786D02*
X1678214Y-14013500D01*
X1706786Y-13999214D01*
X1749643Y-13999214D01*
X1778214Y-14013500D01*
X1792500Y-14042071D01*
X1792500Y-14199214D01*
X1792500Y-14042071D02*
X1806786Y-14013500D01*
X1835357Y-13999214D01*
X1878214Y-13999214D01*
X1906786Y-14013500D01*
X1921071Y-14042071D01*
X1921071Y-14199214D01*
X2506786Y-13884929D02*
X2249643Y-14270643D01*
X2892500Y-13899214D02*
X2921071Y-13899214D01*
X2949643Y-13913500D01*
X2963928Y-13927786D01*
X2978214Y-13956357D01*
X2992500Y-14013500D01*
X2992500Y-14084929D01*
X2978214Y-14142071D01*
X2963928Y-14170643D01*
X2949643Y-14184929D01*
X2921071Y-14199214D01*
X2892500Y-14199214D01*
X2863928Y-14184929D01*
X2849643Y-14170643D01*
X2835357Y-14142071D01*
X2821071Y-14084929D01*
X2821071Y-14013500D01*
X2835357Y-13956357D01*
X2849643Y-13927786D01*
X2863928Y-13913500D01*
X2892500Y-13899214D01*
X3121071Y-14170643D02*
X3135357Y-14184929D01*
X3121071Y-14199214D01*
X3106786Y-14184929D01*
X3121071Y-14170643D01*
X3121071Y-14199214D01*
X3321071Y-13899214D02*
X3349643Y-13899214D01*
X3378214Y-13913500D01*
X3392500Y-13927786D01*
X3406785Y-13956357D01*
X3421071Y-14013500D01*
X3421071Y-14084929D01*
X3406785Y-14142071D01*
X3392500Y-14170643D01*
X3378214Y-14184929D01*
X3349643Y-14199214D01*
X3321071Y-14199214D01*
X3292500Y-14184929D01*
X3278214Y-14170643D01*
X3263928Y-14142071D01*
X3249643Y-14084929D01*
X3249643Y-14013500D01*
X3263928Y-13956357D01*
X3278214Y-13927786D01*
X3292500Y-13913500D01*
X3321071Y-13899214D01*
X3706785Y-14199214D02*
X3535357Y-14199214D01*
X3621071Y-14199214D02*
X3621071Y-13899214D01*
X3592500Y-13942071D01*
X3563928Y-13970643D01*
X3535357Y-13984929D01*
X3963928Y-13899214D02*
X3906785Y-13899214D01*
X3878214Y-13913500D01*
X3863928Y-13927786D01*
X3835357Y-13970643D01*
X3821071Y-14027786D01*
X3821071Y-14142071D01*
X3835357Y-14170643D01*
X3849643Y-14184929D01*
X3878214Y-14199214D01*
X3935357Y-14199214D01*
X3963928Y-14184929D01*
X3978214Y-14170643D01*
X3992500Y-14142071D01*
X3992500Y-14070643D01*
X3978214Y-14042071D01*
X3963928Y-14027786D01*
X3935357Y-14013500D01*
X3878214Y-14013500D01*
X3849643Y-14027786D01*
X3835357Y-14042071D01*
X3821071Y-14070643D01*
X4106786Y-13899214D02*
X4106786Y-13956357D01*
X4221071Y-13899214D02*
X4221071Y-13956357D01*
X4663928Y-14313500D02*
X4649643Y-14299214D01*
X4621071Y-14256357D01*
X4606786Y-14227786D01*
X4592500Y-14184929D01*
X4578214Y-14113500D01*
X4578214Y-14056357D01*
X4592500Y-13984929D01*
X4606786Y-13942071D01*
X4621071Y-13913500D01*
X4649643Y-13870643D01*
X4663928Y-13856357D01*
X4749643Y-13899214D02*
X4935357Y-13899214D01*
X4835357Y-14013500D01*
X4878214Y-14013500D01*
X4906786Y-14027786D01*
X4921071Y-14042071D01*
X4935357Y-14070643D01*
X4935357Y-14142071D01*
X4921071Y-14170643D01*
X4906786Y-14184929D01*
X4878214Y-14199214D01*
X4792500Y-14199214D01*
X4763928Y-14184929D01*
X4749643Y-14170643D01*
X5121071Y-13899214D02*
X5149643Y-13899214D01*
X5178214Y-13913500D01*
X5192500Y-13927786D01*
X5206786Y-13956357D01*
X5221071Y-14013500D01*
X5221071Y-14084929D01*
X5206786Y-14142071D01*
X5192500Y-14170643D01*
X5178214Y-14184929D01*
X5149643Y-14199214D01*
X5121071Y-14199214D01*
X5092500Y-14184929D01*
X5078214Y-14170643D01*
X5063928Y-14142071D01*
X5049643Y-14084929D01*
X5049643Y-14013500D01*
X5063928Y-13956357D01*
X5078214Y-13927786D01*
X5092500Y-13913500D01*
X5121071Y-13899214D01*
X5335357Y-13927786D02*
X5349643Y-13913500D01*
X5378214Y-13899214D01*
X5449643Y-13899214D01*
X5478214Y-13913500D01*
X5492500Y-13927786D01*
X5506786Y-13956357D01*
X5506786Y-13984929D01*
X5492500Y-14027786D01*
X5321071Y-14199214D01*
X5506786Y-14199214D01*
X5863928Y-14199214D02*
X5863928Y-13899214D01*
X5992500Y-14199214D02*
X5992500Y-14042071D01*
X5978214Y-14013500D01*
X5949643Y-13999214D01*
X5906785Y-13999214D01*
X5878214Y-14013500D01*
X5863928Y-14027786D01*
X6178214Y-14199214D02*
X6149643Y-14184929D01*
X6135357Y-14170643D01*
X6121071Y-14142071D01*
X6121071Y-14056357D01*
X6135357Y-14027786D01*
X6149643Y-14013500D01*
X6178214Y-13999214D01*
X6221071Y-13999214D01*
X6249643Y-14013500D01*
X6263928Y-14027786D01*
X6278214Y-14056357D01*
X6278214Y-14142071D01*
X6263928Y-14170643D01*
X6249643Y-14184929D01*
X6221071Y-14199214D01*
X6178214Y-14199214D01*
X6449643Y-14199214D02*
X6421071Y-14184929D01*
X6406786Y-14156357D01*
X6406786Y-13899214D01*
X6678214Y-14184929D02*
X6649643Y-14199214D01*
X6592500Y-14199214D01*
X6563928Y-14184929D01*
X6549643Y-14156357D01*
X6549643Y-14042071D01*
X6563928Y-14013500D01*
X6592500Y-13999214D01*
X6649643Y-13999214D01*
X6678214Y-14013500D01*
X6692500Y-14042071D01*
X6692500Y-14070643D01*
X6549643Y-14099214D01*
X6806786Y-14184929D02*
X6835357Y-14199214D01*
X6892500Y-14199214D01*
X6921071Y-14184929D01*
X6935357Y-14156357D01*
X6935357Y-14142071D01*
X6921071Y-14113500D01*
X6892500Y-14099214D01*
X6849643Y-14099214D01*
X6821071Y-14084929D01*
X6806786Y-14056357D01*
X6806786Y-14042071D01*
X6821071Y-14013500D01*
X6849643Y-13999214D01*
X6892500Y-13999214D01*
X6921071Y-14013500D01*
X7035357Y-14313500D02*
X7049643Y-14299214D01*
X7078214Y-14256357D01*
X7092500Y-14227786D01*
X7106786Y-14184929D01*
X7121071Y-14113500D01*
X7121071Y-14056357D01*
X7106786Y-13984929D01*
X7092500Y-13942071D01*
X7078214Y-13913500D01*
X7049643Y-13870643D01*
X7035357Y-13856357D01*
X-37500Y-14429500D02*
X-37500Y-14489500D01*
X-67500Y-14459500D02*
X-7500Y-14459500D01*
X321071Y-14295214D02*
X349643Y-14295214D01*
X378214Y-14309500D01*
X392500Y-14323786D01*
X406786Y-14352357D01*
X421071Y-14409500D01*
X421071Y-14480929D01*
X406786Y-14538071D01*
X392500Y-14566643D01*
X378214Y-14580929D01*
X349643Y-14595214D01*
X321071Y-14595214D01*
X292500Y-14580929D01*
X278214Y-14566643D01*
X263929Y-14538071D01*
X249643Y-14480929D01*
X249643Y-14409500D01*
X263929Y-14352357D01*
X278214Y-14323786D01*
X292500Y-14309500D01*
X321071Y-14295214D01*
X549643Y-14566643D02*
X563929Y-14580929D01*
X549643Y-14595214D01*
X535357Y-14580929D01*
X549643Y-14566643D01*
X549643Y-14595214D01*
X821071Y-14295214D02*
X763928Y-14295214D01*
X735357Y-14309500D01*
X721071Y-14323786D01*
X692500Y-14366643D01*
X678214Y-14423786D01*
X678214Y-14538071D01*
X692500Y-14566643D01*
X706786Y-14580929D01*
X735357Y-14595214D01*
X792500Y-14595214D01*
X821071Y-14580929D01*
X835357Y-14566643D01*
X849643Y-14538071D01*
X849643Y-14466643D01*
X835357Y-14438071D01*
X821071Y-14423786D01*
X792500Y-14409500D01*
X735357Y-14409500D01*
X706786Y-14423786D01*
X692500Y-14438071D01*
X678214Y-14466643D01*
X1035357Y-14295214D02*
X1063929Y-14295214D01*
X1092500Y-14309500D01*
X1106786Y-14323786D01*
X1121071Y-14352357D01*
X1135357Y-14409500D01*
X1135357Y-14480929D01*
X1121071Y-14538071D01*
X1106786Y-14566643D01*
X1092500Y-14580929D01*
X1063929Y-14595214D01*
X1035357Y-14595214D01*
X1006786Y-14580929D01*
X992500Y-14566643D01*
X978214Y-14538071D01*
X963928Y-14480929D01*
X963928Y-14409500D01*
X978214Y-14352357D01*
X992500Y-14323786D01*
X1006786Y-14309500D01*
X1035357Y-14295214D01*
X1263929Y-14595214D02*
X1263929Y-14395214D01*
X1263929Y-14423786D02*
X1278214Y-14409500D01*
X1306786Y-14395214D01*
X1349643Y-14395214D01*
X1378214Y-14409500D01*
X1392500Y-14438071D01*
X1392500Y-14595214D01*
X1392500Y-14438071D02*
X1406786Y-14409500D01*
X1435357Y-14395214D01*
X1478214Y-14395214D01*
X1506786Y-14409500D01*
X1521071Y-14438071D01*
X1521071Y-14595214D01*
X1663928Y-14595214D02*
X1663928Y-14395214D01*
X1663928Y-14423786D02*
X1678214Y-14409500D01*
X1706786Y-14395214D01*
X1749643Y-14395214D01*
X1778214Y-14409500D01*
X1792500Y-14438071D01*
X1792500Y-14595214D01*
X1792500Y-14438071D02*
X1806786Y-14409500D01*
X1835357Y-14395214D01*
X1878214Y-14395214D01*
X1906786Y-14409500D01*
X1921071Y-14438071D01*
X1921071Y-14595214D01*
X2506786Y-14280929D02*
X2249643Y-14666643D01*
X2892500Y-14295214D02*
X2921071Y-14295214D01*
X2949643Y-14309500D01*
X2963928Y-14323786D01*
X2978214Y-14352357D01*
X2992500Y-14409500D01*
X2992500Y-14480929D01*
X2978214Y-14538071D01*
X2963928Y-14566643D01*
X2949643Y-14580929D01*
X2921071Y-14595214D01*
X2892500Y-14595214D01*
X2863928Y-14580929D01*
X2849643Y-14566643D01*
X2835357Y-14538071D01*
X2821071Y-14480929D01*
X2821071Y-14409500D01*
X2835357Y-14352357D01*
X2849643Y-14323786D01*
X2863928Y-14309500D01*
X2892500Y-14295214D01*
X3121071Y-14566643D02*
X3135357Y-14580929D01*
X3121071Y-14595214D01*
X3106786Y-14580929D01*
X3121071Y-14566643D01*
X3121071Y-14595214D01*
X3321071Y-14295214D02*
X3349643Y-14295214D01*
X3378214Y-14309500D01*
X3392500Y-14323786D01*
X3406785Y-14352357D01*
X3421071Y-14409500D01*
X3421071Y-14480929D01*
X3406785Y-14538071D01*
X3392500Y-14566643D01*
X3378214Y-14580929D01*
X3349643Y-14595214D01*
X3321071Y-14595214D01*
X3292500Y-14580929D01*
X3278214Y-14566643D01*
X3263928Y-14538071D01*
X3249643Y-14480929D01*
X3249643Y-14409500D01*
X3263928Y-14352357D01*
X3278214Y-14323786D01*
X3292500Y-14309500D01*
X3321071Y-14295214D01*
X3535357Y-14323786D02*
X3549643Y-14309500D01*
X3578214Y-14295214D01*
X3649643Y-14295214D01*
X3678214Y-14309500D01*
X3692500Y-14323786D01*
X3706785Y-14352357D01*
X3706785Y-14380929D01*
X3692500Y-14423786D01*
X3521071Y-14595214D01*
X3706785Y-14595214D01*
X3963928Y-14395214D02*
X3963928Y-14595214D01*
X3892500Y-14280929D02*
X3821071Y-14495214D01*
X4006785Y-14495214D01*
X4106786Y-14295214D02*
X4106786Y-14352357D01*
X4221071Y-14295214D02*
X4221071Y-14352357D01*
X4663928Y-14709500D02*
X4649643Y-14695214D01*
X4621071Y-14652357D01*
X4606786Y-14623786D01*
X4592500Y-14580929D01*
X4578214Y-14509500D01*
X4578214Y-14452357D01*
X4592500Y-14380929D01*
X4606786Y-14338071D01*
X4621071Y-14309500D01*
X4649643Y-14266643D01*
X4663928Y-14252357D01*
X4935357Y-14595214D02*
X4763928Y-14595214D01*
X4849643Y-14595214D02*
X4849643Y-14295214D01*
X4821071Y-14338071D01*
X4792500Y-14366643D01*
X4763928Y-14380929D01*
X5078214Y-14595214D02*
X5135357Y-14595214D01*
X5163928Y-14580929D01*
X5178214Y-14566643D01*
X5206786Y-14523786D01*
X5221071Y-14466643D01*
X5221071Y-14352357D01*
X5206786Y-14323786D01*
X5192500Y-14309500D01*
X5163928Y-14295214D01*
X5106786Y-14295214D01*
X5078214Y-14309500D01*
X5063928Y-14323786D01*
X5049643Y-14352357D01*
X5049643Y-14423786D01*
X5063928Y-14452357D01*
X5078214Y-14466643D01*
X5106786Y-14480929D01*
X5163928Y-14480929D01*
X5192500Y-14466643D01*
X5206786Y-14452357D01*
X5221071Y-14423786D01*
X5578214Y-14595214D02*
X5578214Y-14295214D01*
X5706785Y-14595214D02*
X5706785Y-14438071D01*
X5692500Y-14409500D01*
X5663928Y-14395214D01*
X5621071Y-14395214D01*
X5592500Y-14409500D01*
X5578214Y-14423786D01*
X5892500Y-14595214D02*
X5863928Y-14580929D01*
X5849643Y-14566643D01*
X5835357Y-14538071D01*
X5835357Y-14452357D01*
X5849643Y-14423786D01*
X5863928Y-14409500D01*
X5892500Y-14395214D01*
X5935357Y-14395214D01*
X5963928Y-14409500D01*
X5978214Y-14423786D01*
X5992500Y-14452357D01*
X5992500Y-14538071D01*
X5978214Y-14566643D01*
X5963928Y-14580929D01*
X5935357Y-14595214D01*
X5892500Y-14595214D01*
X6163928Y-14595214D02*
X6135357Y-14580929D01*
X6121071Y-14552357D01*
X6121071Y-14295214D01*
X6392500Y-14580929D02*
X6363928Y-14595214D01*
X6306786Y-14595214D01*
X6278214Y-14580929D01*
X6263928Y-14552357D01*
X6263928Y-14438071D01*
X6278214Y-14409500D01*
X6306786Y-14395214D01*
X6363928Y-14395214D01*
X6392500Y-14409500D01*
X6406786Y-14438071D01*
X6406786Y-14466643D01*
X6263928Y-14495214D01*
X6521071Y-14580929D02*
X6549643Y-14595214D01*
X6606786Y-14595214D01*
X6635357Y-14580929D01*
X6649643Y-14552357D01*
X6649643Y-14538071D01*
X6635357Y-14509500D01*
X6606786Y-14495214D01*
X6563928Y-14495214D01*
X6535357Y-14480929D01*
X6521071Y-14452357D01*
X6521071Y-14438071D01*
X6535357Y-14409500D01*
X6563928Y-14395214D01*
X6606786Y-14395214D01*
X6635357Y-14409500D01*
X6749643Y-14709500D02*
X6763928Y-14695214D01*
X6792500Y-14652357D01*
X6806786Y-14623786D01*
X6821071Y-14580929D01*
X6835357Y-14509500D01*
X6835357Y-14452357D01*
X6821071Y-14380929D01*
X6806786Y-14338071D01*
X6792500Y-14309500D01*
X6763928Y-14266643D01*
X6749643Y-14252357D01*
X-17019Y-14878481D02*
X-17019Y-14832519D01*
X-62981Y-14832519D01*
X-62981Y-14878481D01*
X-17019Y-14878481D01*
X321071Y-14691214D02*
X349643Y-14691214D01*
X378214Y-14705500D01*
X392500Y-14719786D01*
X406786Y-14748357D01*
X421071Y-14805500D01*
X421071Y-14876929D01*
X406786Y-14934071D01*
X392500Y-14962643D01*
X378214Y-14976929D01*
X349643Y-14991214D01*
X321071Y-14991214D01*
X292500Y-14976929D01*
X278214Y-14962643D01*
X263929Y-14934071D01*
X249643Y-14876929D01*
X249643Y-14805500D01*
X263929Y-14748357D01*
X278214Y-14719786D01*
X292500Y-14705500D01*
X321071Y-14691214D01*
X549643Y-14962643D02*
X563929Y-14976929D01*
X549643Y-14991214D01*
X535357Y-14976929D01*
X549643Y-14962643D01*
X549643Y-14991214D01*
X821071Y-14691214D02*
X763928Y-14691214D01*
X735357Y-14705500D01*
X721071Y-14719786D01*
X692500Y-14762643D01*
X678214Y-14819786D01*
X678214Y-14934071D01*
X692500Y-14962643D01*
X706786Y-14976929D01*
X735357Y-14991214D01*
X792500Y-14991214D01*
X821071Y-14976929D01*
X835357Y-14962643D01*
X849643Y-14934071D01*
X849643Y-14862643D01*
X835357Y-14834071D01*
X821071Y-14819786D01*
X792500Y-14805500D01*
X735357Y-14805500D01*
X706786Y-14819786D01*
X692500Y-14834071D01*
X678214Y-14862643D01*
X1121071Y-14691214D02*
X978214Y-14691214D01*
X963928Y-14834071D01*
X978214Y-14819786D01*
X1006786Y-14805500D01*
X1078214Y-14805500D01*
X1106786Y-14819786D01*
X1121071Y-14834071D01*
X1135357Y-14862643D01*
X1135357Y-14934071D01*
X1121071Y-14962643D01*
X1106786Y-14976929D01*
X1078214Y-14991214D01*
X1006786Y-14991214D01*
X978214Y-14976929D01*
X963928Y-14962643D01*
X1263929Y-14991214D02*
X1263929Y-14791214D01*
X1263929Y-14819786D02*
X1278214Y-14805500D01*
X1306786Y-14791214D01*
X1349643Y-14791214D01*
X1378214Y-14805500D01*
X1392500Y-14834071D01*
X1392500Y-14991214D01*
X1392500Y-14834071D02*
X1406786Y-14805500D01*
X1435357Y-14791214D01*
X1478214Y-14791214D01*
X1506786Y-14805500D01*
X1521071Y-14834071D01*
X1521071Y-14991214D01*
X1663928Y-14991214D02*
X1663928Y-14791214D01*
X1663928Y-14819786D02*
X1678214Y-14805500D01*
X1706786Y-14791214D01*
X1749643Y-14791214D01*
X1778214Y-14805500D01*
X1792500Y-14834071D01*
X1792500Y-14991214D01*
X1792500Y-14834071D02*
X1806786Y-14805500D01*
X1835357Y-14791214D01*
X1878214Y-14791214D01*
X1906786Y-14805500D01*
X1921071Y-14834071D01*
X1921071Y-14991214D01*
X2506786Y-14676929D02*
X2249643Y-15062643D01*
X2892500Y-14691214D02*
X2921071Y-14691214D01*
X2949643Y-14705500D01*
X2963928Y-14719786D01*
X2978214Y-14748357D01*
X2992500Y-14805500D01*
X2992500Y-14876929D01*
X2978214Y-14934071D01*
X2963928Y-14962643D01*
X2949643Y-14976929D01*
X2921071Y-14991214D01*
X2892500Y-14991214D01*
X2863928Y-14976929D01*
X2849643Y-14962643D01*
X2835357Y-14934071D01*
X2821071Y-14876929D01*
X2821071Y-14805500D01*
X2835357Y-14748357D01*
X2849643Y-14719786D01*
X2863928Y-14705500D01*
X2892500Y-14691214D01*
X3121071Y-14962643D02*
X3135357Y-14976929D01*
X3121071Y-14991214D01*
X3106786Y-14976929D01*
X3121071Y-14962643D01*
X3121071Y-14991214D01*
X3321071Y-14691214D02*
X3349643Y-14691214D01*
X3378214Y-14705500D01*
X3392500Y-14719786D01*
X3406785Y-14748357D01*
X3421071Y-14805500D01*
X3421071Y-14876929D01*
X3406785Y-14934071D01*
X3392500Y-14962643D01*
X3378214Y-14976929D01*
X3349643Y-14991214D01*
X3321071Y-14991214D01*
X3292500Y-14976929D01*
X3278214Y-14962643D01*
X3263928Y-14934071D01*
X3249643Y-14876929D01*
X3249643Y-14805500D01*
X3263928Y-14748357D01*
X3278214Y-14719786D01*
X3292500Y-14705500D01*
X3321071Y-14691214D01*
X3535357Y-14719786D02*
X3549643Y-14705500D01*
X3578214Y-14691214D01*
X3649643Y-14691214D01*
X3678214Y-14705500D01*
X3692500Y-14719786D01*
X3706785Y-14748357D01*
X3706785Y-14776929D01*
X3692500Y-14819786D01*
X3521071Y-14991214D01*
X3706785Y-14991214D01*
X3963928Y-14691214D02*
X3906785Y-14691214D01*
X3878214Y-14705500D01*
X3863928Y-14719786D01*
X3835357Y-14762643D01*
X3821071Y-14819786D01*
X3821071Y-14934071D01*
X3835357Y-14962643D01*
X3849643Y-14976929D01*
X3878214Y-14991214D01*
X3935357Y-14991214D01*
X3963928Y-14976929D01*
X3978214Y-14962643D01*
X3992500Y-14934071D01*
X3992500Y-14862643D01*
X3978214Y-14834071D01*
X3963928Y-14819786D01*
X3935357Y-14805500D01*
X3878214Y-14805500D01*
X3849643Y-14819786D01*
X3835357Y-14834071D01*
X3821071Y-14862643D01*
X4106786Y-14691214D02*
X4106786Y-14748357D01*
X4221071Y-14691214D02*
X4221071Y-14748357D01*
X4663928Y-15105500D02*
X4649643Y-15091214D01*
X4621071Y-15048357D01*
X4606786Y-15019786D01*
X4592500Y-14976929D01*
X4578214Y-14905500D01*
X4578214Y-14848357D01*
X4592500Y-14776929D01*
X4606786Y-14734071D01*
X4621071Y-14705500D01*
X4649643Y-14662643D01*
X4663928Y-14648357D01*
X4935357Y-14991214D02*
X4763928Y-14991214D01*
X4849643Y-14991214D02*
X4849643Y-14691214D01*
X4821071Y-14734071D01*
X4792500Y-14762643D01*
X4763928Y-14776929D01*
X5121071Y-14691214D02*
X5149643Y-14691214D01*
X5178214Y-14705500D01*
X5192500Y-14719786D01*
X5206786Y-14748357D01*
X5221071Y-14805500D01*
X5221071Y-14876929D01*
X5206786Y-14934071D01*
X5192500Y-14962643D01*
X5178214Y-14976929D01*
X5149643Y-14991214D01*
X5121071Y-14991214D01*
X5092500Y-14976929D01*
X5078214Y-14962643D01*
X5063928Y-14934071D01*
X5049643Y-14876929D01*
X5049643Y-14805500D01*
X5063928Y-14748357D01*
X5078214Y-14719786D01*
X5092500Y-14705500D01*
X5121071Y-14691214D01*
X5578214Y-14991214D02*
X5578214Y-14691214D01*
X5706785Y-14991214D02*
X5706785Y-14834071D01*
X5692500Y-14805500D01*
X5663928Y-14791214D01*
X5621071Y-14791214D01*
X5592500Y-14805500D01*
X5578214Y-14819786D01*
X5892500Y-14991214D02*
X5863928Y-14976929D01*
X5849643Y-14962643D01*
X5835357Y-14934071D01*
X5835357Y-14848357D01*
X5849643Y-14819786D01*
X5863928Y-14805500D01*
X5892500Y-14791214D01*
X5935357Y-14791214D01*
X5963928Y-14805500D01*
X5978214Y-14819786D01*
X5992500Y-14848357D01*
X5992500Y-14934071D01*
X5978214Y-14962643D01*
X5963928Y-14976929D01*
X5935357Y-14991214D01*
X5892500Y-14991214D01*
X6163928Y-14991214D02*
X6135357Y-14976929D01*
X6121071Y-14948357D01*
X6121071Y-14691214D01*
X6392500Y-14976929D02*
X6363928Y-14991214D01*
X6306786Y-14991214D01*
X6278214Y-14976929D01*
X6263928Y-14948357D01*
X6263928Y-14834071D01*
X6278214Y-14805500D01*
X6306786Y-14791214D01*
X6363928Y-14791214D01*
X6392500Y-14805500D01*
X6406786Y-14834071D01*
X6406786Y-14862643D01*
X6263928Y-14891214D01*
X6521071Y-14976929D02*
X6549643Y-14991214D01*
X6606786Y-14991214D01*
X6635357Y-14976929D01*
X6649643Y-14948357D01*
X6649643Y-14934071D01*
X6635357Y-14905500D01*
X6606786Y-14891214D01*
X6563928Y-14891214D01*
X6535357Y-14876929D01*
X6521071Y-14848357D01*
X6521071Y-14834071D01*
X6535357Y-14805500D01*
X6563928Y-14791214D01*
X6606786Y-14791214D01*
X6635357Y-14805500D01*
X7006786Y-14876929D02*
X7235357Y-14876929D01*
X7121071Y-14991214D02*
X7121071Y-14762643D01*
X7592500Y-14719786D02*
X7606786Y-14705500D01*
X7635357Y-14691214D01*
X7706786Y-14691214D01*
X7735357Y-14705500D01*
X7749643Y-14719786D01*
X7763928Y-14748357D01*
X7763928Y-14776929D01*
X7749643Y-14819786D01*
X7578214Y-14991214D01*
X7763928Y-14991214D01*
X8106786Y-14976929D02*
X8135357Y-14991214D01*
X8192500Y-14991214D01*
X8221071Y-14976929D01*
X8235357Y-14948357D01*
X8235357Y-14934071D01*
X8221071Y-14905500D01*
X8192500Y-14891214D01*
X8149643Y-14891214D01*
X8121071Y-14876929D01*
X8106786Y-14848357D01*
X8106786Y-14834071D01*
X8121071Y-14805500D01*
X8149643Y-14791214D01*
X8192500Y-14791214D01*
X8221071Y-14805500D01*
X8406786Y-14991214D02*
X8378214Y-14976929D01*
X8363928Y-14948357D01*
X8363928Y-14691214D01*
X8563928Y-14991214D02*
X8535357Y-14976929D01*
X8521071Y-14962643D01*
X8506786Y-14934071D01*
X8506786Y-14848357D01*
X8521071Y-14819786D01*
X8535357Y-14805500D01*
X8563928Y-14791214D01*
X8606786Y-14791214D01*
X8635357Y-14805500D01*
X8649643Y-14819786D01*
X8663928Y-14848357D01*
X8663928Y-14934071D01*
X8649643Y-14962643D01*
X8635357Y-14976929D01*
X8606786Y-14991214D01*
X8563928Y-14991214D01*
X8749643Y-14791214D02*
X8863928Y-14791214D01*
X8792500Y-14691214D02*
X8792500Y-14948357D01*
X8806786Y-14976929D01*
X8835357Y-14991214D01*
X8863928Y-14991214D01*
X8949643Y-14976929D02*
X8978214Y-14991214D01*
X9035357Y-14991214D01*
X9063929Y-14976929D01*
X9078214Y-14948357D01*
X9078214Y-14934071D01*
X9063929Y-14905500D01*
X9035357Y-14891214D01*
X8992500Y-14891214D01*
X8963929Y-14876929D01*
X8949643Y-14848357D01*
X8949643Y-14834071D01*
X8963929Y-14805500D01*
X8992500Y-14791214D01*
X9035357Y-14791214D01*
X9063929Y-14805500D01*
X9178214Y-15105500D02*
X9192500Y-15091214D01*
X9221071Y-15048357D01*
X9235357Y-15019786D01*
X9249643Y-14976929D01*
X9263928Y-14905500D01*
X9263928Y-14848357D01*
X9249643Y-14776929D01*
X9235357Y-14734071D01*
X9221071Y-14705500D01*
X9192500Y-14662643D01*
X9178214Y-14648357D01*
X-42500Y-15286500D02*
X-7500Y-15251500D01*
X-42500Y-15216500D01*
X-77500Y-15251500D01*
X-42500Y-15286500D01*
X321071Y-15087214D02*
X349643Y-15087214D01*
X378214Y-15101500D01*
X392500Y-15115786D01*
X406786Y-15144357D01*
X421071Y-15201500D01*
X421071Y-15272929D01*
X406786Y-15330071D01*
X392500Y-15358643D01*
X378214Y-15372929D01*
X349643Y-15387214D01*
X321071Y-15387214D01*
X292500Y-15372929D01*
X278214Y-15358643D01*
X263929Y-15330071D01*
X249643Y-15272929D01*
X249643Y-15201500D01*
X263929Y-15144357D01*
X278214Y-15115786D01*
X292500Y-15101500D01*
X321071Y-15087214D01*
X549643Y-15358643D02*
X563929Y-15372929D01*
X549643Y-15387214D01*
X535357Y-15372929D01*
X549643Y-15358643D01*
X549643Y-15387214D01*
X663928Y-15087214D02*
X863928Y-15087214D01*
X735357Y-15387214D01*
X1035357Y-15087214D02*
X1063929Y-15087214D01*
X1092500Y-15101500D01*
X1106786Y-15115786D01*
X1121071Y-15144357D01*
X1135357Y-15201500D01*
X1135357Y-15272929D01*
X1121071Y-15330071D01*
X1106786Y-15358643D01*
X1092500Y-15372929D01*
X1063929Y-15387214D01*
X1035357Y-15387214D01*
X1006786Y-15372929D01*
X992500Y-15358643D01*
X978214Y-15330071D01*
X963928Y-15272929D01*
X963928Y-15201500D01*
X978214Y-15144357D01*
X992500Y-15115786D01*
X1006786Y-15101500D01*
X1035357Y-15087214D01*
X1263929Y-15387214D02*
X1263929Y-15187214D01*
X1263929Y-15215786D02*
X1278214Y-15201500D01*
X1306786Y-15187214D01*
X1349643Y-15187214D01*
X1378214Y-15201500D01*
X1392500Y-15230071D01*
X1392500Y-15387214D01*
X1392500Y-15230071D02*
X1406786Y-15201500D01*
X1435357Y-15187214D01*
X1478214Y-15187214D01*
X1506786Y-15201500D01*
X1521071Y-15230071D01*
X1521071Y-15387214D01*
X1663928Y-15387214D02*
X1663928Y-15187214D01*
X1663928Y-15215786D02*
X1678214Y-15201500D01*
X1706786Y-15187214D01*
X1749643Y-15187214D01*
X1778214Y-15201500D01*
X1792500Y-15230071D01*
X1792500Y-15387214D01*
X1792500Y-15230071D02*
X1806786Y-15201500D01*
X1835357Y-15187214D01*
X1878214Y-15187214D01*
X1906786Y-15201500D01*
X1921071Y-15230071D01*
X1921071Y-15387214D01*
X2506786Y-15072929D02*
X2249643Y-15458643D01*
X2892500Y-15087214D02*
X2921071Y-15087214D01*
X2949643Y-15101500D01*
X2963928Y-15115786D01*
X2978214Y-15144357D01*
X2992500Y-15201500D01*
X2992500Y-15272929D01*
X2978214Y-15330071D01*
X2963928Y-15358643D01*
X2949643Y-15372929D01*
X2921071Y-15387214D01*
X2892500Y-15387214D01*
X2863928Y-15372929D01*
X2849643Y-15358643D01*
X2835357Y-15330071D01*
X2821071Y-15272929D01*
X2821071Y-15201500D01*
X2835357Y-15144357D01*
X2849643Y-15115786D01*
X2863928Y-15101500D01*
X2892500Y-15087214D01*
X3121071Y-15358643D02*
X3135357Y-15372929D01*
X3121071Y-15387214D01*
X3106786Y-15372929D01*
X3121071Y-15358643D01*
X3121071Y-15387214D01*
X3321071Y-15087214D02*
X3349643Y-15087214D01*
X3378214Y-15101500D01*
X3392500Y-15115786D01*
X3406785Y-15144357D01*
X3421071Y-15201500D01*
X3421071Y-15272929D01*
X3406785Y-15330071D01*
X3392500Y-15358643D01*
X3378214Y-15372929D01*
X3349643Y-15387214D01*
X3321071Y-15387214D01*
X3292500Y-15372929D01*
X3278214Y-15358643D01*
X3263928Y-15330071D01*
X3249643Y-15272929D01*
X3249643Y-15201500D01*
X3263928Y-15144357D01*
X3278214Y-15115786D01*
X3292500Y-15101500D01*
X3321071Y-15087214D01*
X3535357Y-15115786D02*
X3549643Y-15101500D01*
X3578214Y-15087214D01*
X3649643Y-15087214D01*
X3678214Y-15101500D01*
X3692500Y-15115786D01*
X3706785Y-15144357D01*
X3706785Y-15172929D01*
X3692500Y-15215786D01*
X3521071Y-15387214D01*
X3706785Y-15387214D01*
X3878214Y-15215786D02*
X3849643Y-15201500D01*
X3835357Y-15187214D01*
X3821071Y-15158643D01*
X3821071Y-15144357D01*
X3835357Y-15115786D01*
X3849643Y-15101500D01*
X3878214Y-15087214D01*
X3935357Y-15087214D01*
X3963928Y-15101500D01*
X3978214Y-15115786D01*
X3992500Y-15144357D01*
X3992500Y-15158643D01*
X3978214Y-15187214D01*
X3963928Y-15201500D01*
X3935357Y-15215786D01*
X3878214Y-15215786D01*
X3849643Y-15230071D01*
X3835357Y-15244357D01*
X3821071Y-15272929D01*
X3821071Y-15330071D01*
X3835357Y-15358643D01*
X3849643Y-15372929D01*
X3878214Y-15387214D01*
X3935357Y-15387214D01*
X3963928Y-15372929D01*
X3978214Y-15358643D01*
X3992500Y-15330071D01*
X3992500Y-15272929D01*
X3978214Y-15244357D01*
X3963928Y-15230071D01*
X3935357Y-15215786D01*
X4106786Y-15087214D02*
X4106786Y-15144357D01*
X4221071Y-15087214D02*
X4221071Y-15144357D01*
X4663928Y-15501500D02*
X4649643Y-15487214D01*
X4621071Y-15444357D01*
X4606786Y-15415786D01*
X4592500Y-15372929D01*
X4578214Y-15301500D01*
X4578214Y-15244357D01*
X4592500Y-15172929D01*
X4606786Y-15130071D01*
X4621071Y-15101500D01*
X4649643Y-15058643D01*
X4663928Y-15044357D01*
X4835357Y-15087214D02*
X4863928Y-15087214D01*
X4892500Y-15101500D01*
X4906786Y-15115786D01*
X4921071Y-15144357D01*
X4935357Y-15201500D01*
X4935357Y-15272929D01*
X4921071Y-15330071D01*
X4906786Y-15358643D01*
X4892500Y-15372929D01*
X4863928Y-15387214D01*
X4835357Y-15387214D01*
X4806786Y-15372929D01*
X4792500Y-15358643D01*
X4778214Y-15330071D01*
X4763928Y-15272929D01*
X4763928Y-15201500D01*
X4778214Y-15144357D01*
X4792500Y-15115786D01*
X4806786Y-15101500D01*
X4835357Y-15087214D01*
X5292500Y-15387214D02*
X5292500Y-15087214D01*
X5421071Y-15387214D02*
X5421071Y-15230071D01*
X5406786Y-15201500D01*
X5378214Y-15187214D01*
X5335357Y-15187214D01*
X5306786Y-15201500D01*
X5292500Y-15215786D01*
X5606785Y-15387214D02*
X5578214Y-15372929D01*
X5563928Y-15358643D01*
X5549643Y-15330071D01*
X5549643Y-15244357D01*
X5563928Y-15215786D01*
X5578214Y-15201500D01*
X5606785Y-15187214D01*
X5649643Y-15187214D01*
X5678214Y-15201500D01*
X5692500Y-15215786D01*
X5706785Y-15244357D01*
X5706785Y-15330071D01*
X5692500Y-15358643D01*
X5678214Y-15372929D01*
X5649643Y-15387214D01*
X5606785Y-15387214D01*
X5878214Y-15387214D02*
X5849643Y-15372929D01*
X5835357Y-15344357D01*
X5835357Y-15087214D01*
X6106786Y-15372929D02*
X6078214Y-15387214D01*
X6021071Y-15387214D01*
X5992500Y-15372929D01*
X5978214Y-15344357D01*
X5978214Y-15230071D01*
X5992500Y-15201500D01*
X6021071Y-15187214D01*
X6078214Y-15187214D01*
X6106786Y-15201500D01*
X6121071Y-15230071D01*
X6121071Y-15258643D01*
X5978214Y-15287214D01*
X6235357Y-15372929D02*
X6263928Y-15387214D01*
X6321071Y-15387214D01*
X6349643Y-15372929D01*
X6363928Y-15344357D01*
X6363928Y-15330071D01*
X6349643Y-15301500D01*
X6321071Y-15287214D01*
X6278214Y-15287214D01*
X6249643Y-15272929D01*
X6235357Y-15244357D01*
X6235357Y-15230071D01*
X6249643Y-15201500D01*
X6278214Y-15187214D01*
X6321071Y-15187214D01*
X6349643Y-15201500D01*
X6721071Y-15272929D02*
X6949643Y-15272929D01*
X6835357Y-15387214D02*
X6835357Y-15158643D01*
X7306786Y-15115786D02*
X7321071Y-15101500D01*
X7349643Y-15087214D01*
X7421071Y-15087214D01*
X7449643Y-15101500D01*
X7463928Y-15115786D01*
X7478214Y-15144357D01*
X7478214Y-15172929D01*
X7463928Y-15215786D01*
X7292500Y-15387214D01*
X7478214Y-15387214D01*
X7821071Y-15372929D02*
X7849643Y-15387214D01*
X7906785Y-15387214D01*
X7935357Y-15372929D01*
X7949643Y-15344357D01*
X7949643Y-15330071D01*
X7935357Y-15301500D01*
X7906785Y-15287214D01*
X7863928Y-15287214D01*
X7835357Y-15272929D01*
X7821071Y-15244357D01*
X7821071Y-15230071D01*
X7835357Y-15201500D01*
X7863928Y-15187214D01*
X7906785Y-15187214D01*
X7935357Y-15201500D01*
X8121071Y-15387214D02*
X8092500Y-15372929D01*
X8078214Y-15344357D01*
X8078214Y-15087214D01*
X8278214Y-15387214D02*
X8249643Y-15372929D01*
X8235357Y-15358643D01*
X8221071Y-15330071D01*
X8221071Y-15244357D01*
X8235357Y-15215786D01*
X8249643Y-15201500D01*
X8278214Y-15187214D01*
X8321071Y-15187214D01*
X8349643Y-15201500D01*
X8363928Y-15215786D01*
X8378214Y-15244357D01*
X8378214Y-15330071D01*
X8363928Y-15358643D01*
X8349643Y-15372929D01*
X8321071Y-15387214D01*
X8278214Y-15387214D01*
X8463928Y-15187214D02*
X8578214Y-15187214D01*
X8506786Y-15087214D02*
X8506786Y-15344357D01*
X8521071Y-15372929D01*
X8549643Y-15387214D01*
X8578214Y-15387214D01*
X8663929Y-15372929D02*
X8692500Y-15387214D01*
X8749643Y-15387214D01*
X8778214Y-15372929D01*
X8792500Y-15344357D01*
X8792500Y-15330071D01*
X8778214Y-15301500D01*
X8749643Y-15287214D01*
X8706786Y-15287214D01*
X8678214Y-15272929D01*
X8663929Y-15244357D01*
X8663929Y-15230071D01*
X8678214Y-15201500D01*
X8706786Y-15187214D01*
X8749643Y-15187214D01*
X8778214Y-15201500D01*
X8892500Y-15501500D02*
X8906786Y-15487214D01*
X8935357Y-15444357D01*
X8949643Y-15415786D01*
X8963928Y-15372929D01*
X8978214Y-15301500D01*
X8978214Y-15244357D01*
X8963928Y-15172929D01*
X8949643Y-15130071D01*
X8935357Y-15101500D01*
X8906786Y-15058643D01*
X8892500Y-15044357D01*
X-97500Y-15602500D02*
X-7500Y-15692500D01*
X-7500Y-15602500D02*
X-97500Y-15692500D01*
X-7500Y-15647500D02*
G75*
G03X-7500Y-15647500I-45000J0D01*
G01*
X321071Y-15483214D02*
X349643Y-15483214D01*
X378214Y-15497500D01*
X392500Y-15511786D01*
X406786Y-15540357D01*
X421071Y-15597500D01*
X421071Y-15668929D01*
X406786Y-15726071D01*
X392500Y-15754643D01*
X378214Y-15768929D01*
X349643Y-15783214D01*
X321071Y-15783214D01*
X292500Y-15768929D01*
X278214Y-15754643D01*
X263929Y-15726071D01*
X249643Y-15668929D01*
X249643Y-15597500D01*
X263929Y-15540357D01*
X278214Y-15511786D01*
X292500Y-15497500D01*
X321071Y-15483214D01*
X549643Y-15754643D02*
X563929Y-15768929D01*
X549643Y-15783214D01*
X535357Y-15768929D01*
X549643Y-15754643D01*
X549643Y-15783214D01*
X706786Y-15783214D02*
X763928Y-15783214D01*
X792500Y-15768929D01*
X806786Y-15754643D01*
X835357Y-15711786D01*
X849643Y-15654643D01*
X849643Y-15540357D01*
X835357Y-15511786D01*
X821071Y-15497500D01*
X792500Y-15483214D01*
X735357Y-15483214D01*
X706786Y-15497500D01*
X692500Y-15511786D01*
X678214Y-15540357D01*
X678214Y-15611786D01*
X692500Y-15640357D01*
X706786Y-15654643D01*
X735357Y-15668929D01*
X792500Y-15668929D01*
X821071Y-15654643D01*
X835357Y-15640357D01*
X849643Y-15611786D01*
X1035357Y-15483214D02*
X1063929Y-15483214D01*
X1092500Y-15497500D01*
X1106786Y-15511786D01*
X1121071Y-15540357D01*
X1135357Y-15597500D01*
X1135357Y-15668929D01*
X1121071Y-15726071D01*
X1106786Y-15754643D01*
X1092500Y-15768929D01*
X1063929Y-15783214D01*
X1035357Y-15783214D01*
X1006786Y-15768929D01*
X992500Y-15754643D01*
X978214Y-15726071D01*
X963928Y-15668929D01*
X963928Y-15597500D01*
X978214Y-15540357D01*
X992500Y-15511786D01*
X1006786Y-15497500D01*
X1035357Y-15483214D01*
X1263929Y-15783214D02*
X1263929Y-15583214D01*
X1263929Y-15611786D02*
X1278214Y-15597500D01*
X1306786Y-15583214D01*
X1349643Y-15583214D01*
X1378214Y-15597500D01*
X1392500Y-15626071D01*
X1392500Y-15783214D01*
X1392500Y-15626071D02*
X1406786Y-15597500D01*
X1435357Y-15583214D01*
X1478214Y-15583214D01*
X1506786Y-15597500D01*
X1521071Y-15626071D01*
X1521071Y-15783214D01*
X1663928Y-15783214D02*
X1663928Y-15583214D01*
X1663928Y-15611786D02*
X1678214Y-15597500D01*
X1706786Y-15583214D01*
X1749643Y-15583214D01*
X1778214Y-15597500D01*
X1792500Y-15626071D01*
X1792500Y-15783214D01*
X1792500Y-15626071D02*
X1806786Y-15597500D01*
X1835357Y-15583214D01*
X1878214Y-15583214D01*
X1906786Y-15597500D01*
X1921071Y-15626071D01*
X1921071Y-15783214D01*
X2506786Y-15468929D02*
X2249643Y-15854643D01*
X2892500Y-15483214D02*
X2921071Y-15483214D01*
X2949643Y-15497500D01*
X2963928Y-15511786D01*
X2978214Y-15540357D01*
X2992500Y-15597500D01*
X2992500Y-15668929D01*
X2978214Y-15726071D01*
X2963928Y-15754643D01*
X2949643Y-15768929D01*
X2921071Y-15783214D01*
X2892500Y-15783214D01*
X2863928Y-15768929D01*
X2849643Y-15754643D01*
X2835357Y-15726071D01*
X2821071Y-15668929D01*
X2821071Y-15597500D01*
X2835357Y-15540357D01*
X2849643Y-15511786D01*
X2863928Y-15497500D01*
X2892500Y-15483214D01*
X3121071Y-15754643D02*
X3135357Y-15768929D01*
X3121071Y-15783214D01*
X3106786Y-15768929D01*
X3121071Y-15754643D01*
X3121071Y-15783214D01*
X3321071Y-15483214D02*
X3349643Y-15483214D01*
X3378214Y-15497500D01*
X3392500Y-15511786D01*
X3406785Y-15540357D01*
X3421071Y-15597500D01*
X3421071Y-15668929D01*
X3406785Y-15726071D01*
X3392500Y-15754643D01*
X3378214Y-15768929D01*
X3349643Y-15783214D01*
X3321071Y-15783214D01*
X3292500Y-15768929D01*
X3278214Y-15754643D01*
X3263928Y-15726071D01*
X3249643Y-15668929D01*
X3249643Y-15597500D01*
X3263928Y-15540357D01*
X3278214Y-15511786D01*
X3292500Y-15497500D01*
X3321071Y-15483214D01*
X3521071Y-15483214D02*
X3706785Y-15483214D01*
X3606785Y-15597500D01*
X3649643Y-15597500D01*
X3678214Y-15611786D01*
X3692500Y-15626071D01*
X3706785Y-15654643D01*
X3706785Y-15726071D01*
X3692500Y-15754643D01*
X3678214Y-15768929D01*
X3649643Y-15783214D01*
X3563928Y-15783214D01*
X3535357Y-15768929D01*
X3521071Y-15754643D01*
X3978214Y-15483214D02*
X3835357Y-15483214D01*
X3821071Y-15626071D01*
X3835357Y-15611786D01*
X3863928Y-15597500D01*
X3935357Y-15597500D01*
X3963928Y-15611786D01*
X3978214Y-15626071D01*
X3992500Y-15654643D01*
X3992500Y-15726071D01*
X3978214Y-15754643D01*
X3963928Y-15768929D01*
X3935357Y-15783214D01*
X3863928Y-15783214D01*
X3835357Y-15768929D01*
X3821071Y-15754643D01*
X4106786Y-15483214D02*
X4106786Y-15540357D01*
X4221071Y-15483214D02*
X4221071Y-15540357D01*
X4663928Y-15897500D02*
X4649643Y-15883214D01*
X4621071Y-15840357D01*
X4606786Y-15811786D01*
X4592500Y-15768929D01*
X4578214Y-15697500D01*
X4578214Y-15640357D01*
X4592500Y-15568929D01*
X4606786Y-15526071D01*
X4621071Y-15497500D01*
X4649643Y-15454643D01*
X4663928Y-15440357D01*
X4935357Y-15783214D02*
X4763928Y-15783214D01*
X4849643Y-15783214D02*
X4849643Y-15483214D01*
X4821071Y-15526071D01*
X4792500Y-15554643D01*
X4763928Y-15568929D01*
X5049643Y-15511786D02*
X5063928Y-15497500D01*
X5092500Y-15483214D01*
X5163928Y-15483214D01*
X5192500Y-15497500D01*
X5206786Y-15511786D01*
X5221071Y-15540357D01*
X5221071Y-15568929D01*
X5206786Y-15611786D01*
X5035357Y-15783214D01*
X5221071Y-15783214D01*
X5578214Y-15783214D02*
X5578214Y-15483214D01*
X5706785Y-15783214D02*
X5706785Y-15626071D01*
X5692500Y-15597500D01*
X5663928Y-15583214D01*
X5621071Y-15583214D01*
X5592500Y-15597500D01*
X5578214Y-15611786D01*
X5892500Y-15783214D02*
X5863928Y-15768929D01*
X5849643Y-15754643D01*
X5835357Y-15726071D01*
X5835357Y-15640357D01*
X5849643Y-15611786D01*
X5863928Y-15597500D01*
X5892500Y-15583214D01*
X5935357Y-15583214D01*
X5963928Y-15597500D01*
X5978214Y-15611786D01*
X5992500Y-15640357D01*
X5992500Y-15726071D01*
X5978214Y-15754643D01*
X5963928Y-15768929D01*
X5935357Y-15783214D01*
X5892500Y-15783214D01*
X6163928Y-15783214D02*
X6135357Y-15768929D01*
X6121071Y-15740357D01*
X6121071Y-15483214D01*
X6392500Y-15768929D02*
X6363928Y-15783214D01*
X6306786Y-15783214D01*
X6278214Y-15768929D01*
X6263928Y-15740357D01*
X6263928Y-15626071D01*
X6278214Y-15597500D01*
X6306786Y-15583214D01*
X6363928Y-15583214D01*
X6392500Y-15597500D01*
X6406786Y-15626071D01*
X6406786Y-15654643D01*
X6263928Y-15683214D01*
X6521071Y-15768929D02*
X6549643Y-15783214D01*
X6606786Y-15783214D01*
X6635357Y-15768929D01*
X6649643Y-15740357D01*
X6649643Y-15726071D01*
X6635357Y-15697500D01*
X6606786Y-15683214D01*
X6563928Y-15683214D01*
X6535357Y-15668929D01*
X6521071Y-15640357D01*
X6521071Y-15626071D01*
X6535357Y-15597500D01*
X6563928Y-15583214D01*
X6606786Y-15583214D01*
X6635357Y-15597500D01*
X6749643Y-15897500D02*
X6763928Y-15883214D01*
X6792500Y-15840357D01*
X6806786Y-15811786D01*
X6821071Y-15768929D01*
X6835357Y-15697500D01*
X6835357Y-15640357D01*
X6821071Y-15568929D01*
X6806786Y-15526071D01*
X6792500Y-15497500D01*
X6763928Y-15454643D01*
X6749643Y-15440357D01*
X-107500Y-15993500D02*
X-7500Y-16093500D01*
X-7500Y-15993500D02*
X-107500Y-16093500D01*
X-57500Y-15993500D02*
X-57500Y-16093500D01*
X-107500Y-16043500D02*
X-7500Y-16043500D01*
X421071Y-16179214D02*
X249643Y-16179214D01*
X335357Y-16179214D02*
X335357Y-15879214D01*
X306786Y-15922071D01*
X278214Y-15950643D01*
X249643Y-15964929D01*
X549643Y-16150643D02*
X563929Y-16164929D01*
X549643Y-16179214D01*
X535357Y-16164929D01*
X549643Y-16150643D01*
X549643Y-16179214D01*
X749643Y-15879214D02*
X778214Y-15879214D01*
X806786Y-15893500D01*
X821071Y-15907786D01*
X835357Y-15936357D01*
X849643Y-15993500D01*
X849643Y-16064929D01*
X835357Y-16122071D01*
X821071Y-16150643D01*
X806786Y-16164929D01*
X778214Y-16179214D01*
X749643Y-16179214D01*
X721071Y-16164929D01*
X706786Y-16150643D01*
X692500Y-16122071D01*
X678214Y-16064929D01*
X678214Y-15993500D01*
X692500Y-15936357D01*
X706786Y-15907786D01*
X721071Y-15893500D01*
X749643Y-15879214D01*
X1035357Y-15879214D02*
X1063929Y-15879214D01*
X1092500Y-15893500D01*
X1106786Y-15907786D01*
X1121071Y-15936357D01*
X1135357Y-15993500D01*
X1135357Y-16064929D01*
X1121071Y-16122071D01*
X1106786Y-16150643D01*
X1092500Y-16164929D01*
X1063929Y-16179214D01*
X1035357Y-16179214D01*
X1006786Y-16164929D01*
X992500Y-16150643D01*
X978214Y-16122071D01*
X963928Y-16064929D01*
X963928Y-15993500D01*
X978214Y-15936357D01*
X992500Y-15907786D01*
X1006786Y-15893500D01*
X1035357Y-15879214D01*
X1263929Y-16179214D02*
X1263929Y-15979214D01*
X1263929Y-16007786D02*
X1278214Y-15993500D01*
X1306786Y-15979214D01*
X1349643Y-15979214D01*
X1378214Y-15993500D01*
X1392500Y-16022071D01*
X1392500Y-16179214D01*
X1392500Y-16022071D02*
X1406786Y-15993500D01*
X1435357Y-15979214D01*
X1478214Y-15979214D01*
X1506786Y-15993500D01*
X1521071Y-16022071D01*
X1521071Y-16179214D01*
X1663928Y-16179214D02*
X1663928Y-15979214D01*
X1663928Y-16007786D02*
X1678214Y-15993500D01*
X1706786Y-15979214D01*
X1749643Y-15979214D01*
X1778214Y-15993500D01*
X1792500Y-16022071D01*
X1792500Y-16179214D01*
X1792500Y-16022071D02*
X1806786Y-15993500D01*
X1835357Y-15979214D01*
X1878214Y-15979214D01*
X1906786Y-15993500D01*
X1921071Y-16022071D01*
X1921071Y-16179214D01*
X2506786Y-15864929D02*
X2249643Y-16250643D01*
X2892500Y-15879214D02*
X2921071Y-15879214D01*
X2949643Y-15893500D01*
X2963928Y-15907786D01*
X2978214Y-15936357D01*
X2992500Y-15993500D01*
X2992500Y-16064929D01*
X2978214Y-16122071D01*
X2963928Y-16150643D01*
X2949643Y-16164929D01*
X2921071Y-16179214D01*
X2892500Y-16179214D01*
X2863928Y-16164929D01*
X2849643Y-16150643D01*
X2835357Y-16122071D01*
X2821071Y-16064929D01*
X2821071Y-15993500D01*
X2835357Y-15936357D01*
X2849643Y-15907786D01*
X2863928Y-15893500D01*
X2892500Y-15879214D01*
X3121071Y-16150643D02*
X3135357Y-16164929D01*
X3121071Y-16179214D01*
X3106786Y-16164929D01*
X3121071Y-16150643D01*
X3121071Y-16179214D01*
X3321071Y-15879214D02*
X3349643Y-15879214D01*
X3378214Y-15893500D01*
X3392500Y-15907786D01*
X3406785Y-15936357D01*
X3421071Y-15993500D01*
X3421071Y-16064929D01*
X3406785Y-16122071D01*
X3392500Y-16150643D01*
X3378214Y-16164929D01*
X3349643Y-16179214D01*
X3321071Y-16179214D01*
X3292500Y-16164929D01*
X3278214Y-16150643D01*
X3263928Y-16122071D01*
X3249643Y-16064929D01*
X3249643Y-15993500D01*
X3263928Y-15936357D01*
X3278214Y-15907786D01*
X3292500Y-15893500D01*
X3321071Y-15879214D01*
X3521071Y-15879214D02*
X3706785Y-15879214D01*
X3606785Y-15993500D01*
X3649643Y-15993500D01*
X3678214Y-16007786D01*
X3692500Y-16022071D01*
X3706785Y-16050643D01*
X3706785Y-16122071D01*
X3692500Y-16150643D01*
X3678214Y-16164929D01*
X3649643Y-16179214D01*
X3563928Y-16179214D01*
X3535357Y-16164929D01*
X3521071Y-16150643D01*
X3849643Y-16179214D02*
X3906785Y-16179214D01*
X3935357Y-16164929D01*
X3949643Y-16150643D01*
X3978214Y-16107786D01*
X3992500Y-16050643D01*
X3992500Y-15936357D01*
X3978214Y-15907786D01*
X3963928Y-15893500D01*
X3935357Y-15879214D01*
X3878214Y-15879214D01*
X3849643Y-15893500D01*
X3835357Y-15907786D01*
X3821071Y-15936357D01*
X3821071Y-16007786D01*
X3835357Y-16036357D01*
X3849643Y-16050643D01*
X3878214Y-16064929D01*
X3935357Y-16064929D01*
X3963928Y-16050643D01*
X3978214Y-16036357D01*
X3992500Y-16007786D01*
X4106786Y-15879214D02*
X4106786Y-15936357D01*
X4221071Y-15879214D02*
X4221071Y-15936357D01*
X4663928Y-16293500D02*
X4649643Y-16279214D01*
X4621071Y-16236357D01*
X4606786Y-16207786D01*
X4592500Y-16164929D01*
X4578214Y-16093500D01*
X4578214Y-16036357D01*
X4592500Y-15964929D01*
X4606786Y-15922071D01*
X4621071Y-15893500D01*
X4649643Y-15850643D01*
X4663928Y-15836357D01*
X4749643Y-15879214D02*
X4949643Y-15879214D01*
X4821071Y-16179214D01*
X5106786Y-16007786D02*
X5078214Y-15993500D01*
X5063928Y-15979214D01*
X5049643Y-15950643D01*
X5049643Y-15936357D01*
X5063928Y-15907786D01*
X5078214Y-15893500D01*
X5106786Y-15879214D01*
X5163928Y-15879214D01*
X5192500Y-15893500D01*
X5206786Y-15907786D01*
X5221071Y-15936357D01*
X5221071Y-15950643D01*
X5206786Y-15979214D01*
X5192500Y-15993500D01*
X5163928Y-16007786D01*
X5106786Y-16007786D01*
X5078214Y-16022071D01*
X5063928Y-16036357D01*
X5049643Y-16064929D01*
X5049643Y-16122071D01*
X5063928Y-16150643D01*
X5078214Y-16164929D01*
X5106786Y-16179214D01*
X5163928Y-16179214D01*
X5192500Y-16164929D01*
X5206786Y-16150643D01*
X5221071Y-16122071D01*
X5221071Y-16064929D01*
X5206786Y-16036357D01*
X5192500Y-16022071D01*
X5163928Y-16007786D01*
X5578214Y-16179214D02*
X5578214Y-15879214D01*
X5706785Y-16179214D02*
X5706785Y-16022071D01*
X5692500Y-15993500D01*
X5663928Y-15979214D01*
X5621071Y-15979214D01*
X5592500Y-15993500D01*
X5578214Y-16007786D01*
X5892500Y-16179214D02*
X5863928Y-16164929D01*
X5849643Y-16150643D01*
X5835357Y-16122071D01*
X5835357Y-16036357D01*
X5849643Y-16007786D01*
X5863928Y-15993500D01*
X5892500Y-15979214D01*
X5935357Y-15979214D01*
X5963928Y-15993500D01*
X5978214Y-16007786D01*
X5992500Y-16036357D01*
X5992500Y-16122071D01*
X5978214Y-16150643D01*
X5963928Y-16164929D01*
X5935357Y-16179214D01*
X5892500Y-16179214D01*
X6163928Y-16179214D02*
X6135357Y-16164929D01*
X6121071Y-16136357D01*
X6121071Y-15879214D01*
X6392500Y-16164929D02*
X6363928Y-16179214D01*
X6306786Y-16179214D01*
X6278214Y-16164929D01*
X6263928Y-16136357D01*
X6263928Y-16022071D01*
X6278214Y-15993500D01*
X6306786Y-15979214D01*
X6363928Y-15979214D01*
X6392500Y-15993500D01*
X6406786Y-16022071D01*
X6406786Y-16050643D01*
X6263928Y-16079214D01*
X6521071Y-16164929D02*
X6549643Y-16179214D01*
X6606786Y-16179214D01*
X6635357Y-16164929D01*
X6649643Y-16136357D01*
X6649643Y-16122071D01*
X6635357Y-16093500D01*
X6606786Y-16079214D01*
X6563928Y-16079214D01*
X6535357Y-16064929D01*
X6521071Y-16036357D01*
X6521071Y-16022071D01*
X6535357Y-15993500D01*
X6563928Y-15979214D01*
X6606786Y-15979214D01*
X6635357Y-15993500D01*
X6749643Y-16293500D02*
X6763928Y-16279214D01*
X6792500Y-16236357D01*
X6806786Y-16207786D01*
X6821071Y-16164929D01*
X6835357Y-16093500D01*
X6835357Y-16036357D01*
X6821071Y-15964929D01*
X6806786Y-15922071D01*
X6792500Y-15893500D01*
X6763928Y-15850643D01*
X6749643Y-15836357D01*
X-167500Y-16359500D02*
X-7500Y-16519500D01*
X-7500Y-16359500D02*
X-167500Y-16519500D01*
X-30931Y-16496069D02*
X-30931Y-16382931D01*
X-144069Y-16382931D01*
X-144069Y-16496069D01*
X-30931Y-16496069D01*
X421071Y-16575214D02*
X249643Y-16575214D01*
X335357Y-16575214D02*
X335357Y-16275214D01*
X306786Y-16318071D01*
X278214Y-16346643D01*
X249643Y-16360929D01*
X549643Y-16546643D02*
X563929Y-16560929D01*
X549643Y-16575214D01*
X535357Y-16560929D01*
X549643Y-16546643D01*
X549643Y-16575214D01*
X821071Y-16275214D02*
X763928Y-16275214D01*
X735357Y-16289500D01*
X721071Y-16303786D01*
X692500Y-16346643D01*
X678214Y-16403786D01*
X678214Y-16518071D01*
X692500Y-16546643D01*
X706786Y-16560929D01*
X735357Y-16575214D01*
X792500Y-16575214D01*
X821071Y-16560929D01*
X835357Y-16546643D01*
X849643Y-16518071D01*
X849643Y-16446643D01*
X835357Y-16418071D01*
X821071Y-16403786D01*
X792500Y-16389500D01*
X735357Y-16389500D01*
X706786Y-16403786D01*
X692500Y-16418071D01*
X678214Y-16446643D01*
X1035357Y-16275214D02*
X1063929Y-16275214D01*
X1092500Y-16289500D01*
X1106786Y-16303786D01*
X1121071Y-16332357D01*
X1135357Y-16389500D01*
X1135357Y-16460929D01*
X1121071Y-16518071D01*
X1106786Y-16546643D01*
X1092500Y-16560929D01*
X1063929Y-16575214D01*
X1035357Y-16575214D01*
X1006786Y-16560929D01*
X992500Y-16546643D01*
X978214Y-16518071D01*
X963928Y-16460929D01*
X963928Y-16389500D01*
X978214Y-16332357D01*
X992500Y-16303786D01*
X1006786Y-16289500D01*
X1035357Y-16275214D01*
X1263929Y-16575214D02*
X1263929Y-16375214D01*
X1263929Y-16403786D02*
X1278214Y-16389500D01*
X1306786Y-16375214D01*
X1349643Y-16375214D01*
X1378214Y-16389500D01*
X1392500Y-16418071D01*
X1392500Y-16575214D01*
X1392500Y-16418071D02*
X1406786Y-16389500D01*
X1435357Y-16375214D01*
X1478214Y-16375214D01*
X1506786Y-16389500D01*
X1521071Y-16418071D01*
X1521071Y-16575214D01*
X1663928Y-16575214D02*
X1663928Y-16375214D01*
X1663928Y-16403786D02*
X1678214Y-16389500D01*
X1706786Y-16375214D01*
X1749643Y-16375214D01*
X1778214Y-16389500D01*
X1792500Y-16418071D01*
X1792500Y-16575214D01*
X1792500Y-16418071D02*
X1806786Y-16389500D01*
X1835357Y-16375214D01*
X1878214Y-16375214D01*
X1906786Y-16389500D01*
X1921071Y-16418071D01*
X1921071Y-16575214D01*
X2506786Y-16260929D02*
X2249643Y-16646643D01*
X2892500Y-16275214D02*
X2921071Y-16275214D01*
X2949643Y-16289500D01*
X2963928Y-16303786D01*
X2978214Y-16332357D01*
X2992500Y-16389500D01*
X2992500Y-16460929D01*
X2978214Y-16518071D01*
X2963928Y-16546643D01*
X2949643Y-16560929D01*
X2921071Y-16575214D01*
X2892500Y-16575214D01*
X2863928Y-16560929D01*
X2849643Y-16546643D01*
X2835357Y-16518071D01*
X2821071Y-16460929D01*
X2821071Y-16389500D01*
X2835357Y-16332357D01*
X2849643Y-16303786D01*
X2863928Y-16289500D01*
X2892500Y-16275214D01*
X3121071Y-16546643D02*
X3135357Y-16560929D01*
X3121071Y-16575214D01*
X3106786Y-16560929D01*
X3121071Y-16546643D01*
X3121071Y-16575214D01*
X3321071Y-16275214D02*
X3349643Y-16275214D01*
X3378214Y-16289500D01*
X3392500Y-16303786D01*
X3406785Y-16332357D01*
X3421071Y-16389500D01*
X3421071Y-16460929D01*
X3406785Y-16518071D01*
X3392500Y-16546643D01*
X3378214Y-16560929D01*
X3349643Y-16575214D01*
X3321071Y-16575214D01*
X3292500Y-16560929D01*
X3278214Y-16546643D01*
X3263928Y-16518071D01*
X3249643Y-16460929D01*
X3249643Y-16389500D01*
X3263928Y-16332357D01*
X3278214Y-16303786D01*
X3292500Y-16289500D01*
X3321071Y-16275214D01*
X3678214Y-16275214D02*
X3621071Y-16275214D01*
X3592500Y-16289500D01*
X3578214Y-16303786D01*
X3549643Y-16346643D01*
X3535357Y-16403786D01*
X3535357Y-16518071D01*
X3549643Y-16546643D01*
X3563928Y-16560929D01*
X3592500Y-16575214D01*
X3649643Y-16575214D01*
X3678214Y-16560929D01*
X3692500Y-16546643D01*
X3706785Y-16518071D01*
X3706785Y-16446643D01*
X3692500Y-16418071D01*
X3678214Y-16403786D01*
X3649643Y-16389500D01*
X3592500Y-16389500D01*
X3563928Y-16403786D01*
X3549643Y-16418071D01*
X3535357Y-16446643D01*
X3806785Y-16275214D02*
X3992500Y-16275214D01*
X3892500Y-16389500D01*
X3935357Y-16389500D01*
X3963928Y-16403786D01*
X3978214Y-16418071D01*
X3992500Y-16446643D01*
X3992500Y-16518071D01*
X3978214Y-16546643D01*
X3963928Y-16560929D01*
X3935357Y-16575214D01*
X3849643Y-16575214D01*
X3821071Y-16560929D01*
X3806785Y-16546643D01*
X4106786Y-16275214D02*
X4106786Y-16332357D01*
X4221071Y-16275214D02*
X4221071Y-16332357D01*
X4663928Y-16689500D02*
X4649643Y-16675214D01*
X4621071Y-16632357D01*
X4606786Y-16603786D01*
X4592500Y-16560929D01*
X4578214Y-16489500D01*
X4578214Y-16432357D01*
X4592500Y-16360929D01*
X4606786Y-16318071D01*
X4621071Y-16289500D01*
X4649643Y-16246643D01*
X4663928Y-16232357D01*
X4763928Y-16303786D02*
X4778214Y-16289500D01*
X4806786Y-16275214D01*
X4878214Y-16275214D01*
X4906786Y-16289500D01*
X4921071Y-16303786D01*
X4935357Y-16332357D01*
X4935357Y-16360929D01*
X4921071Y-16403786D01*
X4749643Y-16575214D01*
X4935357Y-16575214D01*
X5292500Y-16575214D02*
X5292500Y-16275214D01*
X5421071Y-16575214D02*
X5421071Y-16418071D01*
X5406786Y-16389500D01*
X5378214Y-16375214D01*
X5335357Y-16375214D01*
X5306786Y-16389500D01*
X5292500Y-16403786D01*
X5606785Y-16575214D02*
X5578214Y-16560929D01*
X5563928Y-16546643D01*
X5549643Y-16518071D01*
X5549643Y-16432357D01*
X5563928Y-16403786D01*
X5578214Y-16389500D01*
X5606785Y-16375214D01*
X5649643Y-16375214D01*
X5678214Y-16389500D01*
X5692500Y-16403786D01*
X5706785Y-16432357D01*
X5706785Y-16518071D01*
X5692500Y-16546643D01*
X5678214Y-16560929D01*
X5649643Y-16575214D01*
X5606785Y-16575214D01*
X5878214Y-16575214D02*
X5849643Y-16560929D01*
X5835357Y-16532357D01*
X5835357Y-16275214D01*
X6106786Y-16560929D02*
X6078214Y-16575214D01*
X6021071Y-16575214D01*
X5992500Y-16560929D01*
X5978214Y-16532357D01*
X5978214Y-16418071D01*
X5992500Y-16389500D01*
X6021071Y-16375214D01*
X6078214Y-16375214D01*
X6106786Y-16389500D01*
X6121071Y-16418071D01*
X6121071Y-16446643D01*
X5978214Y-16475214D01*
X6235357Y-16560929D02*
X6263928Y-16575214D01*
X6321071Y-16575214D01*
X6349643Y-16560929D01*
X6363928Y-16532357D01*
X6363928Y-16518071D01*
X6349643Y-16489500D01*
X6321071Y-16475214D01*
X6278214Y-16475214D01*
X6249643Y-16460929D01*
X6235357Y-16432357D01*
X6235357Y-16418071D01*
X6249643Y-16389500D01*
X6278214Y-16375214D01*
X6321071Y-16375214D01*
X6349643Y-16389500D01*
X6463928Y-16689500D02*
X6478214Y-16675214D01*
X6506786Y-16632357D01*
X6521071Y-16603786D01*
X6535357Y-16560929D01*
X6549643Y-16489500D01*
X6549643Y-16432357D01*
X6535357Y-16360929D01*
X6521071Y-16318071D01*
X6506786Y-16289500D01*
X6478214Y-16246643D01*
X6463928Y-16232357D01*
X-185500Y-16746500D02*
X-7500Y-16924500D01*
X-7500Y-16746500D02*
X-185500Y-16924500D01*
X-96500Y-16924500D02*
X-7500Y-16835500D01*
X-96500Y-16746500D01*
X-185500Y-16835500D01*
X-96500Y-16924500D01*
X421071Y-16971214D02*
X249643Y-16971214D01*
X335357Y-16971214D02*
X335357Y-16671214D01*
X306786Y-16714071D01*
X278214Y-16742643D01*
X249643Y-16756929D01*
X549643Y-16942643D02*
X563929Y-16956929D01*
X549643Y-16971214D01*
X535357Y-16956929D01*
X549643Y-16942643D01*
X549643Y-16971214D01*
X663928Y-16671214D02*
X863928Y-16671214D01*
X735357Y-16971214D01*
X1021071Y-16799786D02*
X992500Y-16785500D01*
X978214Y-16771214D01*
X963928Y-16742643D01*
X963928Y-16728357D01*
X978214Y-16699786D01*
X992500Y-16685500D01*
X1021071Y-16671214D01*
X1078214Y-16671214D01*
X1106786Y-16685500D01*
X1121071Y-16699786D01*
X1135357Y-16728357D01*
X1135357Y-16742643D01*
X1121071Y-16771214D01*
X1106786Y-16785500D01*
X1078214Y-16799786D01*
X1021071Y-16799786D01*
X992500Y-16814072D01*
X978214Y-16828357D01*
X963928Y-16856929D01*
X963928Y-16914072D01*
X978214Y-16942643D01*
X992500Y-16956929D01*
X1021071Y-16971214D01*
X1078214Y-16971214D01*
X1106786Y-16956929D01*
X1121071Y-16942643D01*
X1135357Y-16914072D01*
X1135357Y-16856929D01*
X1121071Y-16828357D01*
X1106786Y-16814072D01*
X1078214Y-16799786D01*
X1263929Y-16971214D02*
X1263929Y-16771214D01*
X1263929Y-16799786D02*
X1278214Y-16785500D01*
X1306786Y-16771214D01*
X1349643Y-16771214D01*
X1378214Y-16785500D01*
X1392500Y-16814072D01*
X1392500Y-16971214D01*
X1392500Y-16814072D02*
X1406786Y-16785500D01*
X1435357Y-16771214D01*
X1478214Y-16771214D01*
X1506786Y-16785500D01*
X1521071Y-16814072D01*
X1521071Y-16971214D01*
X1663928Y-16971214D02*
X1663928Y-16771214D01*
X1663928Y-16799786D02*
X1678214Y-16785500D01*
X1706786Y-16771214D01*
X1749643Y-16771214D01*
X1778214Y-16785500D01*
X1792500Y-16814072D01*
X1792500Y-16971214D01*
X1792500Y-16814072D02*
X1806786Y-16785500D01*
X1835357Y-16771214D01*
X1878214Y-16771214D01*
X1906786Y-16785500D01*
X1921071Y-16814072D01*
X1921071Y-16971214D01*
X2506786Y-16656929D02*
X2249643Y-17042643D01*
X2892500Y-16671214D02*
X2921071Y-16671214D01*
X2949643Y-16685500D01*
X2963928Y-16699786D01*
X2978214Y-16728357D01*
X2992500Y-16785500D01*
X2992500Y-16856929D01*
X2978214Y-16914072D01*
X2963928Y-16942643D01*
X2949643Y-16956929D01*
X2921071Y-16971214D01*
X2892500Y-16971214D01*
X2863928Y-16956929D01*
X2849643Y-16942643D01*
X2835357Y-16914072D01*
X2821071Y-16856929D01*
X2821071Y-16785500D01*
X2835357Y-16728357D01*
X2849643Y-16699786D01*
X2863928Y-16685500D01*
X2892500Y-16671214D01*
X3121071Y-16942643D02*
X3135357Y-16956929D01*
X3121071Y-16971214D01*
X3106786Y-16956929D01*
X3121071Y-16942643D01*
X3121071Y-16971214D01*
X3321071Y-16671214D02*
X3349643Y-16671214D01*
X3378214Y-16685500D01*
X3392500Y-16699786D01*
X3406785Y-16728357D01*
X3421071Y-16785500D01*
X3421071Y-16856929D01*
X3406785Y-16914072D01*
X3392500Y-16942643D01*
X3378214Y-16956929D01*
X3349643Y-16971214D01*
X3321071Y-16971214D01*
X3292500Y-16956929D01*
X3278214Y-16942643D01*
X3263928Y-16914072D01*
X3249643Y-16856929D01*
X3249643Y-16785500D01*
X3263928Y-16728357D01*
X3278214Y-16699786D01*
X3292500Y-16685500D01*
X3321071Y-16671214D01*
X3521071Y-16671214D02*
X3721071Y-16671214D01*
X3592500Y-16971214D01*
X3892500Y-16671214D02*
X3921071Y-16671214D01*
X3949643Y-16685500D01*
X3963928Y-16699786D01*
X3978214Y-16728357D01*
X3992500Y-16785500D01*
X3992500Y-16856929D01*
X3978214Y-16914072D01*
X3963928Y-16942643D01*
X3949643Y-16956929D01*
X3921071Y-16971214D01*
X3892500Y-16971214D01*
X3863928Y-16956929D01*
X3849643Y-16942643D01*
X3835357Y-16914072D01*
X3821071Y-16856929D01*
X3821071Y-16785500D01*
X3835357Y-16728357D01*
X3849643Y-16699786D01*
X3863928Y-16685500D01*
X3892500Y-16671214D01*
X4106786Y-16671214D02*
X4106786Y-16728357D01*
X4221071Y-16671214D02*
X4221071Y-16728357D01*
X4663928Y-17085500D02*
X4649643Y-17071214D01*
X4621071Y-17028357D01*
X4606786Y-16999786D01*
X4592500Y-16956929D01*
X4578214Y-16885500D01*
X4578214Y-16828357D01*
X4592500Y-16756929D01*
X4606786Y-16714071D01*
X4621071Y-16685500D01*
X4649643Y-16642643D01*
X4663928Y-16628357D01*
X4763928Y-16699786D02*
X4778214Y-16685500D01*
X4806786Y-16671214D01*
X4878214Y-16671214D01*
X4906786Y-16685500D01*
X4921071Y-16699786D01*
X4935357Y-16728357D01*
X4935357Y-16756929D01*
X4921071Y-16799786D01*
X4749643Y-16971214D01*
X4935357Y-16971214D01*
X5192500Y-16671214D02*
X5135357Y-16671214D01*
X5106786Y-16685500D01*
X5092500Y-16699786D01*
X5063928Y-16742643D01*
X5049643Y-16799786D01*
X5049643Y-16914072D01*
X5063928Y-16942643D01*
X5078214Y-16956929D01*
X5106786Y-16971214D01*
X5163928Y-16971214D01*
X5192500Y-16956929D01*
X5206786Y-16942643D01*
X5221071Y-16914072D01*
X5221071Y-16842643D01*
X5206786Y-16814072D01*
X5192500Y-16799786D01*
X5163928Y-16785500D01*
X5106786Y-16785500D01*
X5078214Y-16799786D01*
X5063928Y-16814072D01*
X5049643Y-16842643D01*
X5578214Y-16971214D02*
X5578214Y-16671214D01*
X5706785Y-16971214D02*
X5706785Y-16814072D01*
X5692500Y-16785500D01*
X5663928Y-16771214D01*
X5621071Y-16771214D01*
X5592500Y-16785500D01*
X5578214Y-16799786D01*
X5892500Y-16971214D02*
X5863928Y-16956929D01*
X5849643Y-16942643D01*
X5835357Y-16914072D01*
X5835357Y-16828357D01*
X5849643Y-16799786D01*
X5863928Y-16785500D01*
X5892500Y-16771214D01*
X5935357Y-16771214D01*
X5963928Y-16785500D01*
X5978214Y-16799786D01*
X5992500Y-16828357D01*
X5992500Y-16914072D01*
X5978214Y-16942643D01*
X5963928Y-16956929D01*
X5935357Y-16971214D01*
X5892500Y-16971214D01*
X6163928Y-16971214D02*
X6135357Y-16956929D01*
X6121071Y-16928357D01*
X6121071Y-16671214D01*
X6392500Y-16956929D02*
X6363928Y-16971214D01*
X6306786Y-16971214D01*
X6278214Y-16956929D01*
X6263928Y-16928357D01*
X6263928Y-16814072D01*
X6278214Y-16785500D01*
X6306786Y-16771214D01*
X6363928Y-16771214D01*
X6392500Y-16785500D01*
X6406786Y-16814072D01*
X6406786Y-16842643D01*
X6263928Y-16871214D01*
X6521071Y-16956929D02*
X6549643Y-16971214D01*
X6606786Y-16971214D01*
X6635357Y-16956929D01*
X6649643Y-16928357D01*
X6649643Y-16914072D01*
X6635357Y-16885500D01*
X6606786Y-16871214D01*
X6563928Y-16871214D01*
X6535357Y-16856929D01*
X6521071Y-16828357D01*
X6521071Y-16814072D01*
X6535357Y-16785500D01*
X6563928Y-16771214D01*
X6606786Y-16771214D01*
X6635357Y-16785500D01*
X6749643Y-17085500D02*
X6763928Y-17071214D01*
X6792500Y-17028357D01*
X6806786Y-16999786D01*
X6821071Y-16956929D01*
X6835357Y-16885500D01*
X6835357Y-16828357D01*
X6821071Y-16756929D01*
X6806786Y-16714071D01*
X6792500Y-16685500D01*
X6763928Y-16642643D01*
X6749643Y-16628357D01*
X-182500Y-17056500D02*
X-182500Y-17406500D01*
X-357500Y-17231500D02*
X-7500Y-17231500D01*
X-7500Y-17231500D02*
G75*
G03X-7500Y-17231500I-175000J0D01*
G01*
X235357Y-17067214D02*
X421071Y-17067214D01*
X321071Y-17181500D01*
X363928Y-17181500D01*
X392500Y-17195786D01*
X406786Y-17210072D01*
X421071Y-17238643D01*
X421071Y-17310072D01*
X406786Y-17338643D01*
X392500Y-17352929D01*
X363928Y-17367214D01*
X278214Y-17367214D01*
X249643Y-17352929D01*
X235357Y-17338643D01*
X549643Y-17338643D02*
X563929Y-17352929D01*
X549643Y-17367214D01*
X535357Y-17352929D01*
X549643Y-17338643D01*
X549643Y-17367214D01*
X835357Y-17067214D02*
X692500Y-17067214D01*
X678214Y-17210072D01*
X692500Y-17195786D01*
X721071Y-17181500D01*
X792500Y-17181500D01*
X821071Y-17195786D01*
X835357Y-17210072D01*
X849643Y-17238643D01*
X849643Y-17310072D01*
X835357Y-17338643D01*
X821071Y-17352929D01*
X792500Y-17367214D01*
X721071Y-17367214D01*
X692500Y-17352929D01*
X678214Y-17338643D01*
X1035357Y-17067214D02*
X1063929Y-17067214D01*
X1092500Y-17081500D01*
X1106786Y-17095786D01*
X1121071Y-17124357D01*
X1135357Y-17181500D01*
X1135357Y-17252929D01*
X1121071Y-17310072D01*
X1106786Y-17338643D01*
X1092500Y-17352929D01*
X1063929Y-17367214D01*
X1035357Y-17367214D01*
X1006786Y-17352929D01*
X992500Y-17338643D01*
X978214Y-17310072D01*
X963928Y-17252929D01*
X963928Y-17181500D01*
X978214Y-17124357D01*
X992500Y-17095786D01*
X1006786Y-17081500D01*
X1035357Y-17067214D01*
X1263929Y-17367214D02*
X1263929Y-17167214D01*
X1263929Y-17195786D02*
X1278214Y-17181500D01*
X1306786Y-17167214D01*
X1349643Y-17167214D01*
X1378214Y-17181500D01*
X1392500Y-17210072D01*
X1392500Y-17367214D01*
X1392500Y-17210072D02*
X1406786Y-17181500D01*
X1435357Y-17167214D01*
X1478214Y-17167214D01*
X1506786Y-17181500D01*
X1521071Y-17210072D01*
X1521071Y-17367214D01*
X1663928Y-17367214D02*
X1663928Y-17167214D01*
X1663928Y-17195786D02*
X1678214Y-17181500D01*
X1706786Y-17167214D01*
X1749643Y-17167214D01*
X1778214Y-17181500D01*
X1792500Y-17210072D01*
X1792500Y-17367214D01*
X1792500Y-17210072D02*
X1806786Y-17181500D01*
X1835357Y-17167214D01*
X1878214Y-17167214D01*
X1906786Y-17181500D01*
X1921071Y-17210072D01*
X1921071Y-17367214D01*
X2506786Y-17052929D02*
X2249643Y-17438643D01*
X2892500Y-17067214D02*
X2921071Y-17067214D01*
X2949643Y-17081500D01*
X2963928Y-17095786D01*
X2978214Y-17124357D01*
X2992500Y-17181500D01*
X2992500Y-17252929D01*
X2978214Y-17310072D01*
X2963928Y-17338643D01*
X2949643Y-17352929D01*
X2921071Y-17367214D01*
X2892500Y-17367214D01*
X2863928Y-17352929D01*
X2849643Y-17338643D01*
X2835357Y-17310072D01*
X2821071Y-17252929D01*
X2821071Y-17181500D01*
X2835357Y-17124357D01*
X2849643Y-17095786D01*
X2863928Y-17081500D01*
X2892500Y-17067214D01*
X3121071Y-17338643D02*
X3135357Y-17352929D01*
X3121071Y-17367214D01*
X3106786Y-17352929D01*
X3121071Y-17338643D01*
X3121071Y-17367214D01*
X3421071Y-17367214D02*
X3249643Y-17367214D01*
X3335357Y-17367214D02*
X3335357Y-17067214D01*
X3306785Y-17110072D01*
X3278214Y-17138643D01*
X3249643Y-17152929D01*
X3521071Y-17067214D02*
X3706785Y-17067214D01*
X3606785Y-17181500D01*
X3649643Y-17181500D01*
X3678214Y-17195786D01*
X3692500Y-17210072D01*
X3706785Y-17238643D01*
X3706785Y-17310072D01*
X3692500Y-17338643D01*
X3678214Y-17352929D01*
X3649643Y-17367214D01*
X3563928Y-17367214D01*
X3535357Y-17352929D01*
X3521071Y-17338643D01*
X3878214Y-17195786D02*
X3849643Y-17181500D01*
X3835357Y-17167214D01*
X3821071Y-17138643D01*
X3821071Y-17124357D01*
X3835357Y-17095786D01*
X3849643Y-17081500D01*
X3878214Y-17067214D01*
X3935357Y-17067214D01*
X3963928Y-17081500D01*
X3978214Y-17095786D01*
X3992500Y-17124357D01*
X3992500Y-17138643D01*
X3978214Y-17167214D01*
X3963928Y-17181500D01*
X3935357Y-17195786D01*
X3878214Y-17195786D01*
X3849643Y-17210072D01*
X3835357Y-17224357D01*
X3821071Y-17252929D01*
X3821071Y-17310072D01*
X3835357Y-17338643D01*
X3849643Y-17352929D01*
X3878214Y-17367214D01*
X3935357Y-17367214D01*
X3963928Y-17352929D01*
X3978214Y-17338643D01*
X3992500Y-17310072D01*
X3992500Y-17252929D01*
X3978214Y-17224357D01*
X3963928Y-17210072D01*
X3935357Y-17195786D01*
X4106786Y-17067214D02*
X4106786Y-17124357D01*
X4221071Y-17067214D02*
X4221071Y-17124357D01*
X4663928Y-17481500D02*
X4649643Y-17467214D01*
X4621071Y-17424357D01*
X4606786Y-17395786D01*
X4592500Y-17352929D01*
X4578214Y-17281500D01*
X4578214Y-17224357D01*
X4592500Y-17152929D01*
X4606786Y-17110072D01*
X4621071Y-17081500D01*
X4649643Y-17038643D01*
X4663928Y-17024357D01*
X4906786Y-17167214D02*
X4906786Y-17367214D01*
X4835357Y-17052929D02*
X4763928Y-17267214D01*
X4949643Y-17267214D01*
X5292500Y-17367214D02*
X5292500Y-17067214D01*
X5421071Y-17367214D02*
X5421071Y-17210072D01*
X5406786Y-17181500D01*
X5378214Y-17167214D01*
X5335357Y-17167214D01*
X5306786Y-17181500D01*
X5292500Y-17195786D01*
X5606785Y-17367214D02*
X5578214Y-17352929D01*
X5563928Y-17338643D01*
X5549643Y-17310072D01*
X5549643Y-17224357D01*
X5563928Y-17195786D01*
X5578214Y-17181500D01*
X5606785Y-17167214D01*
X5649643Y-17167214D01*
X5678214Y-17181500D01*
X5692500Y-17195786D01*
X5706785Y-17224357D01*
X5706785Y-17310072D01*
X5692500Y-17338643D01*
X5678214Y-17352929D01*
X5649643Y-17367214D01*
X5606785Y-17367214D01*
X5878214Y-17367214D02*
X5849643Y-17352929D01*
X5835357Y-17324357D01*
X5835357Y-17067214D01*
X6106786Y-17352929D02*
X6078214Y-17367214D01*
X6021071Y-17367214D01*
X5992500Y-17352929D01*
X5978214Y-17324357D01*
X5978214Y-17210072D01*
X5992500Y-17181500D01*
X6021071Y-17167214D01*
X6078214Y-17167214D01*
X6106786Y-17181500D01*
X6121071Y-17210072D01*
X6121071Y-17238643D01*
X5978214Y-17267214D01*
X6235357Y-17352929D02*
X6263928Y-17367214D01*
X6321071Y-17367214D01*
X6349643Y-17352929D01*
X6363928Y-17324357D01*
X6363928Y-17310072D01*
X6349643Y-17281500D01*
X6321071Y-17267214D01*
X6278214Y-17267214D01*
X6249643Y-17252929D01*
X6235357Y-17224357D01*
X6235357Y-17210072D01*
X6249643Y-17181500D01*
X6278214Y-17167214D01*
X6321071Y-17167214D01*
X6349643Y-17181500D01*
X6463928Y-17481500D02*
X6478214Y-17467214D01*
X6506786Y-17424357D01*
X6521071Y-17395786D01*
X6535357Y-17352929D01*
X6549643Y-17281500D01*
X6549643Y-17224357D01*
X6535357Y-17152929D01*
X6521071Y-17110072D01*
X6506786Y-17081500D01*
X6478214Y-17038643D01*
X6463928Y-17024357D01*
M02*
