M48
;DRILL file {KiCad 4.0.4-stable} date Friday, December 29, 2017 'AMt' 10:56:14 AM
;FORMAT={-:-/ absolute / metric / decimal}
FMAT,2
METRIC,TZ
T1C0.300
T2C0.400
T3C0.600
T4C0.650
T5C0.700
T6C0.900
T7C1.000
T8C1.600
T9C1.780
T10C3.500
%
G90
G05
M71
T1
X13.576Y-118.582
X13.576Y-120.082
X14.326Y-119.332
X15.076Y-118.582
X15.076Y-120.082
X38.45Y-32.525
X38.45Y-34.025
X39.2Y-33.275
X39.95Y-32.525
X39.95Y-34.025
T2
X1.778Y-48.966
X2.032Y-56.134
X2.54Y-54.864
X2.9Y-12.05
X3.15Y-61.5
X3.55Y-6.35
X3.55Y-120.65
X3.767Y-65.758
X4.092Y-53.213
X4.37Y-4.37
X4.37Y-8.33
X4.37Y-118.67
X4.37Y-122.63
X4.729Y-52.004
X5.05Y-57.515
X5.4Y-61.45
X5.509Y-116.037
X5.514Y-65.837
X6.15Y-95.3
X6.35Y-3.55
X6.35Y-9.15
X6.35Y-56.615
X6.35Y-58.415
X6.35Y-117.85
X6.35Y-123.45
X7.Y-57.515
X7.65Y-56.615
X7.65Y-58.415
X8.33Y-4.37
X8.33Y-8.33
X8.33Y-118.67
X8.33Y-122.63
X8.95Y-57.515
X9.15Y-6.35
X9.15Y-120.65
X9.658Y-65.042
X9.906Y-75.545
X10.25Y-61.4
X10.44Y-65.4
X10.75Y-71.6
X10.836Y-48.905
X11.3Y-122.527
X11.32Y-65.78
X11.49Y-63.1
X11.6Y-98.1
X11.6Y-117.043
X11.806Y-88.412
X11.941Y-118.201
X12.12Y-63.73
X12.192Y-41.402
X12.532Y-124.752
X12.621Y-95.24
X12.65Y-59.7
X12.74Y-64.35
X13.16Y-49.004
X13.2Y-99.7
X13.208Y-55.118
X14.224Y-46.99
X15.789Y-75.423
X16.06Y-48.979
X16.7Y-103.75
X16.7Y-106.85
X16.9Y-71.6
X17.76Y-46.065
X17.866Y-88.214
X18.25Y-97.4
X18.506Y-53.195
X18.768Y-41.857
X19.398Y-45.88
X19.78Y-57.515
X20.03Y-61.625
X21.08Y-56.615
X21.08Y-58.415
X21.387Y-97.406
X21.4Y-61.49
X21.73Y-57.515
X21.76Y-114.91
X22.38Y-56.615
X22.38Y-58.415
X22.65Y-62.9
X23.68Y-57.515
X24.033Y-47.701
X24.15Y-62.9
X24.277Y-92.847
X24.45Y-99.1
X24.5Y-100.05
X25.Y-61.35
X25.125Y-46.
X25.433Y-89.794
X26.1Y-97.45
X26.408Y-115.052
X27.1Y-97.75
X27.7Y-43.55
X28.Y-85.8
X28.Y-87.6
X29.45Y-86.15
X29.45Y-87.1
X29.604Y-55.618
X31.669Y-111.023
X32.004Y-103.637
X32.85Y-103.693
X33.061Y-72.949
X33.081Y-70.145
X35.4Y-16.8
X35.425Y-28.25
X35.776Y-114.338
X35.814Y-124.968
X36.068Y-115.57
X36.1Y-28.825
X36.645Y-82.309
X36.68Y-85.326
X36.875Y-35.5
X37.25Y-29.175
X37.943Y-109.692
X38.55Y-29.375
X38.557Y-58.755
X40.249Y-54.793
X40.8Y-95.25
X40.874Y-96.972
X40.9Y-93.25
X40.95Y-91.3
X41.Y-89.35
X41.225Y-39.075
X41.99Y-35.89
X44.15Y-89.35
X44.255Y-34.725
X44.3Y-91.35
X44.35Y-95.25
X44.45Y-93.3
X44.455Y-97.033
X44.762Y-124.747
X44.981Y-86.586
X45.6Y-45.5
X46.55Y-45.5
X47.48Y-35.85
X47.6Y-45.5
X50.008Y-116.759
X50.5Y-2.4
X50.9Y-9.5
X52.1Y-4.4
X53.675Y-85.578
X54.5Y-49.9
X55.166Y-86.7
X56.876Y-73.32
X57.43Y-6.41
X57.43Y-13.01
X57.43Y-19.61
X57.43Y-26.21
X57.43Y-32.81
X57.43Y-39.41
X58.928Y-67.31
X59.1Y-49.9
X59.5Y-2.4
X60.823Y-92.182
X60.846Y-100.241
X61.468Y-68.58
X61.6Y-5.95
X61.6Y-12.55
X61.6Y-19.15
X61.6Y-25.75
X61.6Y-32.35
X61.6Y-38.95
X61.918Y-89.258
X62.Y-2.4
X62.4Y-48.7
X62.4Y-55.5
X62.5Y-47.
X62.5Y-53.7
X62.629Y-99.982
X62.738Y-85.344
X64.008Y-68.58
X64.8Y-11.2
X64.8Y-17.6
X64.8Y-24.2
X64.8Y-37.5
X64.821Y-95.286
X64.826Y-93.071
X64.9Y-31.
X65.56Y-4.1
X65.677Y-87.201
X65.7Y-8.21
X65.7Y-14.81
X65.7Y-21.41
X65.7Y-28.01
X65.7Y-34.61
X65.7Y-41.21
X69.004Y-67.12
X69.088Y-77.978
X69.469Y-105.41
X69.49Y-15.57
X69.49Y-22.17
X69.49Y-28.77
X69.49Y-35.37
X69.49Y-41.97
X69.51Y-8.95
X69.596Y-89.916
X70.104Y-66.294
X71.12Y-75.565
X71.374Y-73.66
X71.755Y-77.216
X71.755Y-82.804
X71.882Y-68.072
X74.905Y-114.498
X75.665Y-60.
X75.665Y-63.
X75.665Y-66.
X76.565Y-68.
X77.297Y-75.316
X77.465Y-60.
X77.465Y-63.
X77.465Y-66.
X78.232Y-82.931
X78.359Y-78.74
X78.74Y-73.787
X79.248Y-85.217
X79.4Y-2.4
X79.4Y-4.2
X79.4Y-9.6
X79.4Y-11.4
X79.4Y-15.8
X79.4Y-17.5
X79.4Y-22.8
X79.4Y-24.6
X79.4Y-29.3
X79.4Y-31.2
X82.296Y-97.282
X82.7Y-70.4
X84.201Y-77.978
X84.455Y-75.311
X84.455Y-96.647
X84.9Y-65.1
X86.487Y-72.517
X87.1Y-4.8
X87.1Y-18.
X87.2Y-16.1
X87.2Y-29.3
X88.265Y-97.917
X91.8Y-5.5
X91.8Y-18.7
X92.9Y-4.4
X92.9Y-17.6
X93.472Y-107.061
X93.6Y-6.6
X93.6Y-19.8
X98.4Y-11.4
X98.4Y-24.6
X98.6Y-7.8
X98.6Y-21.
X99.25Y-3.95
X99.25Y-17.15
X100.15Y-76.25
X100.15Y-81.9
X102.Y-76.35
X102.05Y-81.3
X103.2Y-6.6
X103.2Y-14.
X103.2Y-19.8
X103.2Y-27.2
X105.918Y-40.894
X105.918Y-42.799
X105.918Y-44.704
X105.918Y-46.609
X109.601Y-35.306
X110.482Y-118.323
X112.268Y-32.639
X112.8Y-36.1
X112.8Y-37.1
X112.8Y-38.1
X114.35Y-61.6
X117.6Y-29.95
X117.8Y-30.85
X117.85Y-6.35
X117.85Y-120.65
X118.67Y-4.37
X118.67Y-8.33
X118.67Y-118.67
X118.67Y-122.63
X118.825Y-30.25
X119.15Y-36.
X119.925Y-109.8
X120.Y-27.6
X120.65Y-3.55
X120.65Y-9.15
X120.65Y-117.85
X120.65Y-123.45
X121.6Y-46.6
X121.95Y-49.4
X122.63Y-4.37
X122.63Y-8.33
X122.63Y-118.67
X122.63Y-122.63
X123.45Y-6.35
X123.45Y-120.65
X123.5Y-47.95
X123.8Y-42.55
X123.802Y-39.422
X124.45Y-61.8
X124.647Y-39.414
X124.65Y-42.55
X125.5Y-46.9
X125.75Y-33.4
X126.Y-40.05
T3
X38.7Y-41.925
X40.767Y-116.84
X43.815Y-102.362
X43.815Y-109.22
X43.815Y-113.792
X45.9Y-26.325
X48.514Y-101.346
X50.328Y-88.194
X51.816Y-98.044
X52.54Y-90.03
X55.136Y-88.201
X58.166Y-71.882
X60.706Y-69.85
X60.706Y-73.914
X63.246Y-71.882
X90.Y-10.5
X90.Y-23.7
X93.5Y-10.5
X93.5Y-23.7
T4
X101.21Y-97.23
X101.21Y-98.5
X102.48Y-97.23
X102.48Y-98.5
X103.75Y-97.23
X103.75Y-98.5
X105.02Y-97.23
X105.02Y-98.5
X106.29Y-97.23
X106.29Y-98.5
T6
X107.212Y-70.856
X107.212Y-73.396
X107.212Y-75.936
X107.212Y-78.476
X109.752Y-72.126
X109.752Y-74.666
X109.752Y-77.206
X109.752Y-79.746
X119.48Y-79.086
X119.48Y-68.975
X121.Y-71.516
X121.Y-81.625
T7
X11.85Y-107.6
X11.95Y-102.35
X18.5Y-102.45
X18.75Y-107.6
X23.Y-115.6
X25.65Y-103.1
X25.65Y-107.45
X27.35Y-103.
X27.35Y-107.5
X28.65Y-91.55
X28.65Y-94.09
X29.825Y-27.55
X38.41Y-12.45
X40.2Y-81.3
X40.95Y-12.45
X45.Y-81.25
X49.75Y-53.25
X49.75Y-55.79
X64.49Y-46.75
X64.49Y-53.35
X67.03Y-46.75
X67.03Y-53.35
X68.59Y-7.15
X68.59Y-13.75
X68.59Y-20.35
X68.59Y-26.95
X68.59Y-33.55
X68.59Y-40.15
X69.57Y-46.75
X69.57Y-53.35
X71.13Y-7.15
X71.13Y-13.75
X71.13Y-20.35
X71.13Y-26.95
X71.13Y-33.55
X71.13Y-40.15
X73.67Y-7.15
X73.67Y-13.75
X73.67Y-20.35
X73.67Y-26.95
X73.67Y-33.55
X73.67Y-40.15
X83.56Y-7.15
X83.56Y-13.75
X83.56Y-20.35
X83.56Y-26.95
X83.56Y-33.55
X83.56Y-40.15
X83.56Y-46.75
X83.56Y-53.35
X86.1Y-7.15
X86.1Y-13.75
X86.1Y-20.35
X86.1Y-26.95
X86.1Y-33.55
X86.1Y-40.15
X86.1Y-46.75
X86.1Y-53.35
X88.64Y-7.15
X88.64Y-13.75
X88.64Y-20.35
X88.64Y-26.95
X88.64Y-33.55
X88.64Y-40.15
X88.64Y-46.75
X88.64Y-53.35
X96.17Y-120.175
X96.17Y-122.715
X98.71Y-120.175
X98.71Y-122.715
X101.25Y-120.175
X101.25Y-122.715
X121.66Y-100.31
X121.66Y-102.85
X124.2Y-100.31
X124.2Y-102.85
X125.9Y-105.925
X125.9Y-115.925
T8
X113.052Y-67.426
X113.052Y-83.176
T9
X6.31Y-24.675
X6.31Y-31.025
X6.31Y-37.375
X6.31Y-43.725
X6.31Y-71.325
X6.31Y-77.675
X6.31Y-105.295
X6.31Y-111.645
X21.04Y-24.675
X21.04Y-31.025
X21.04Y-37.375
X21.04Y-43.725
X21.04Y-71.325
X21.04Y-77.675
X21.04Y-105.295
X21.04Y-111.645
X24.825Y-6.31
X31.175Y-6.31
X35.77Y-71.325
X35.77Y-77.675
X35.77Y-105.295
X35.77Y-111.645
X50.5Y-71.325
X50.5Y-77.675
X50.5Y-105.295
X50.5Y-111.645
T10
X6.35Y-6.35
X6.35Y-120.65
X120.65Y-6.35
X120.65Y-120.65
T4
X121.35Y-108.66G85X120.95Y-108.66
G05
X121.35Y-113.5G85X120.95Y-113.5
G05
T5
X124.4Y-108.35G85X123.9Y-108.35
G05
X124.4Y-113.81G85X123.9Y-113.81
G05
T0
M30
