%FSLAX45Y45*%
G04 Gerber Fmt 4.5, Leading zero omitted, Abs format (unit mm)*
G04 Created by KiCad (PCBNEW 4.0.4-stable) date 07/05/17 18:48:01*
%MOMM*%
%LPD*%
G01*
G04 APERTURE LIST*
%ADD10C,0.127000*%
%ADD11C,0.100000*%
%ADD12C,0.200000*%
%ADD13C,0.300000*%
G04 APERTURE END LIST*
D10*
D11*
X22098000Y-21844000D02*
X1778000Y-21844000D01*
X22098000Y-21844000D02*
X22098000Y-1524000D01*
X1778000Y-1524000D02*
X1778000Y-21844000D01*
X1778000Y-1524000D02*
X22098000Y-1524000D01*
D12*
X5128246Y-17175466D02*
X5158246Y-17205466D01*
X5158246Y-17175466D02*
X5128246Y-17205466D01*
X5128246Y-17372316D02*
X5158246Y-17402316D01*
X5158246Y-17372316D02*
X5128246Y-17402316D01*
X5315190Y-19890726D02*
X5345190Y-19920726D01*
X5345190Y-19890726D02*
X5315190Y-19920726D01*
X5315190Y-20087576D02*
X5345190Y-20117576D01*
X5345190Y-20087576D02*
X5315190Y-20117576D01*
X5464796Y-17175466D02*
X5494796Y-17205466D01*
X5494796Y-17175466D02*
X5464796Y-17205466D01*
X5464796Y-17372316D02*
X5494796Y-17402316D01*
X5494796Y-17372316D02*
X5464796Y-17402316D01*
X5651740Y-19890726D02*
X5681740Y-19920726D01*
X5681740Y-19890726D02*
X5651740Y-19920726D01*
X5651740Y-20087576D02*
X5681740Y-20117576D01*
X5681740Y-20087576D02*
X5651740Y-20117576D01*
X5680696Y-17372316D02*
X5710696Y-17402316D01*
X5710696Y-17372316D02*
X5680696Y-17402316D01*
X5731496Y-17175466D02*
X5761496Y-17205466D01*
X5761496Y-17175466D02*
X5731496Y-17205466D01*
X5852146Y-17296116D02*
X5882146Y-17326116D01*
X5882146Y-17296116D02*
X5852146Y-17326116D01*
X5867640Y-20087576D02*
X5897640Y-20117576D01*
X5897640Y-20087576D02*
X5867640Y-20117576D01*
X5877546Y-17200866D02*
X5907546Y-17230866D01*
X5907546Y-17200866D02*
X5877546Y-17230866D01*
X5918440Y-19890726D02*
X5948440Y-19920726D01*
X5948440Y-19890726D02*
X5918440Y-19920726D01*
X6039090Y-20011376D02*
X6069090Y-20041376D01*
X6069090Y-20011376D02*
X6039090Y-20041376D01*
X6064490Y-19916126D02*
X6094490Y-19946126D01*
X6094490Y-19916126D02*
X6064490Y-19946126D01*
X11165826Y-14314410D02*
X11195826Y-14344410D01*
X11195826Y-14314410D02*
X11165826Y-14344410D01*
X11165826Y-14511260D02*
X11195826Y-14541260D01*
X11195826Y-14511260D02*
X11165826Y-14541260D01*
X11167350Y-5998450D02*
X11197350Y-6028450D01*
X11197350Y-5998450D02*
X11167350Y-6028450D01*
X11167350Y-6195300D02*
X11197350Y-6225300D01*
X11197350Y-6195300D02*
X11167350Y-6225300D01*
X11192750Y-3280650D02*
X11222750Y-3310650D01*
X11222750Y-3280650D02*
X11192750Y-3310650D01*
X11192750Y-3477500D02*
X11222750Y-3507500D01*
X11222750Y-3477500D02*
X11192750Y-3507500D01*
X11192750Y-8723870D02*
X11222750Y-8753870D01*
X11222750Y-8723870D02*
X11192750Y-8753870D01*
X11192750Y-8920720D02*
X11222750Y-8950720D01*
X11222750Y-8920720D02*
X11192750Y-8950720D01*
X11192750Y-11522950D02*
X11222750Y-11552950D01*
X11222750Y-11522950D02*
X11192750Y-11552950D01*
X11192750Y-11719800D02*
X11222750Y-11749800D01*
X11222750Y-11719800D02*
X11192750Y-11749800D01*
X11502376Y-14314410D02*
X11532376Y-14344410D01*
X11532376Y-14314410D02*
X11502376Y-14344410D01*
X11502376Y-14511260D02*
X11532376Y-14541260D01*
X11532376Y-14511260D02*
X11502376Y-14541260D01*
X11503900Y-5998450D02*
X11533900Y-6028450D01*
X11533900Y-5998450D02*
X11503900Y-6028450D01*
X11503900Y-6195300D02*
X11533900Y-6225300D01*
X11533900Y-6195300D02*
X11503900Y-6225300D01*
X11529300Y-3280650D02*
X11559300Y-3310650D01*
X11559300Y-3280650D02*
X11529300Y-3310650D01*
X11529300Y-3477500D02*
X11559300Y-3507500D01*
X11559300Y-3477500D02*
X11529300Y-3507500D01*
X11529300Y-8723870D02*
X11559300Y-8753870D01*
X11559300Y-8723870D02*
X11529300Y-8753870D01*
X11529300Y-8920720D02*
X11559300Y-8950720D01*
X11559300Y-8920720D02*
X11529300Y-8950720D01*
X11529300Y-11522950D02*
X11559300Y-11552950D01*
X11559300Y-11522950D02*
X11529300Y-11552950D01*
X11529300Y-11719800D02*
X11559300Y-11749800D01*
X11559300Y-11719800D02*
X11529300Y-11749800D01*
X11718276Y-14511260D02*
X11748276Y-14541260D01*
X11748276Y-14511260D02*
X11718276Y-14541260D01*
X11719800Y-6195300D02*
X11749800Y-6225300D01*
X11749800Y-6195300D02*
X11719800Y-6225300D01*
X11745200Y-8920720D02*
X11775200Y-8950720D01*
X11775200Y-8920720D02*
X11745200Y-8950720D01*
X11745200Y-11719800D02*
X11775200Y-11749800D01*
X11775200Y-11719800D02*
X11745200Y-11749800D01*
X11769076Y-14314410D02*
X11799076Y-14344410D01*
X11799076Y-14314410D02*
X11769076Y-14344410D01*
X11770600Y-5998450D02*
X11800600Y-6028450D01*
X11800600Y-5998450D02*
X11770600Y-6028450D01*
X11796000Y-3280650D02*
X11826000Y-3310650D01*
X11826000Y-3280650D02*
X11796000Y-3310650D01*
X11796000Y-3477500D02*
X11826000Y-3507500D01*
X11826000Y-3477500D02*
X11796000Y-3507500D01*
X11796000Y-8723870D02*
X11826000Y-8753870D01*
X11826000Y-8723870D02*
X11796000Y-8753870D01*
X11796000Y-11522950D02*
X11826000Y-11552950D01*
X11826000Y-11522950D02*
X11796000Y-11552950D01*
X11889726Y-14435060D02*
X11919726Y-14465060D01*
X11919726Y-14435060D02*
X11889726Y-14465060D01*
X11891250Y-6119100D02*
X11921250Y-6149100D01*
X11921250Y-6119100D02*
X11891250Y-6149100D01*
X11915126Y-14339810D02*
X11945126Y-14369810D01*
X11945126Y-14339810D02*
X11915126Y-14369810D01*
X11916650Y-6023850D02*
X11946650Y-6053850D01*
X11946650Y-6023850D02*
X11916650Y-6053850D01*
X11916650Y-8844520D02*
X11946650Y-8874520D01*
X11946650Y-8844520D02*
X11916650Y-8874520D01*
X11916650Y-11643600D02*
X11946650Y-11673600D01*
X11946650Y-11643600D02*
X11916650Y-11673600D01*
X11942050Y-3306050D02*
X11972050Y-3336050D01*
X11972050Y-3306050D02*
X11942050Y-3336050D01*
X11942050Y-3401300D02*
X11972050Y-3431300D01*
X11972050Y-3401300D02*
X11942050Y-3431300D01*
X11942050Y-8749270D02*
X11972050Y-8779270D01*
X11972050Y-8749270D02*
X11942050Y-8779270D01*
X11942050Y-11548350D02*
X11972050Y-11578350D01*
X11972050Y-11548350D02*
X11942050Y-11578350D01*
X4988240Y-16438880D02*
G75*
G03X4988240Y-16438880I-20000J0D01*
G01*
X5122860Y-19072860D02*
G75*
G03X5122860Y-19072860I-20000J0D01*
G01*
X5247320Y-16017240D02*
G75*
G03X5247320Y-16017240I-20000J0D01*
G01*
X5319964Y-19903948D02*
G75*
G03X5319964Y-19903948I-20000J0D01*
G01*
X5319964Y-20132548D02*
G75*
G03X5319964Y-20132548I-20000J0D01*
G01*
X5465760Y-18727420D02*
G75*
G03X5465760Y-18727420I-20000J0D01*
G01*
X5539928Y-16909288D02*
G75*
G03X5539928Y-16909288I-20000J0D01*
G01*
X5726364Y-19624548D02*
G75*
G03X5726364Y-19624548I-20000J0D01*
G01*
X5726364Y-19903948D02*
G75*
G03X5726364Y-19903948I-20000J0D01*
G01*
X5726364Y-20132548D02*
G75*
G03X5726364Y-20132548I-20000J0D01*
G01*
X5895528Y-17976088D02*
G75*
G03X5895528Y-17976088I-20000J0D01*
G01*
X5897560Y-16421100D02*
G75*
G03X5897560Y-16421100I-20000J0D01*
G01*
X5925500Y-19283680D02*
G75*
G03X5925500Y-19283680I-20000J0D01*
G01*
X5946328Y-16248888D02*
G75*
G03X5946328Y-16248888I-20000J0D01*
G01*
X6081964Y-20691348D02*
G75*
G03X6081964Y-20691348I-20000J0D01*
G01*
X6107364Y-19929348D02*
G75*
G03X6107364Y-19929348I-20000J0D01*
G01*
X6107364Y-20005548D02*
G75*
G03X6107364Y-20005548I-20000J0D01*
G01*
X6131240Y-16428720D02*
G75*
G03X6131240Y-16428720I-20000J0D01*
G01*
X6132764Y-18964148D02*
G75*
G03X6132764Y-18964148I-20000J0D01*
G01*
X6174928Y-17087088D02*
G75*
G03X6174928Y-17087088I-20000J0D01*
G01*
X6176960Y-17622520D02*
G75*
G03X6176960Y-17622520I-20000J0D01*
G01*
X6342060Y-19121120D02*
G75*
G03X6342060Y-19121120I-20000J0D01*
G01*
X6361364Y-19802348D02*
G75*
G03X6361364Y-19802348I-20000J0D01*
G01*
X6517320Y-20350480D02*
G75*
G03X6517320Y-20350480I-20000J0D01*
G01*
X6517828Y-16960088D02*
G75*
G03X6517828Y-16960088I-20000J0D01*
G01*
X6543228Y-16375888D02*
G75*
G03X6543228Y-16375888I-20000J0D01*
G01*
X6667180Y-17327880D02*
G75*
G03X6667180Y-17327880I-20000J0D01*
G01*
X6669720Y-16261080D02*
G75*
G03X6669720Y-16261080I-20000J0D01*
G01*
X6704264Y-19675348D02*
G75*
G03X6704264Y-19675348I-20000J0D01*
G01*
X6729664Y-19091148D02*
G75*
G03X6729664Y-19091148I-20000J0D01*
G01*
X6901876Y-15503144D02*
G75*
G03X6901876Y-15503144I-20000J0D01*
G01*
X6931340Y-18849340D02*
G75*
G03X6931340Y-18849340I-20000J0D01*
G01*
X7088312Y-18218404D02*
G75*
G03X7088312Y-18218404I-20000J0D01*
G01*
X7178228Y-17353788D02*
G75*
G03X7178228Y-17353788I-20000J0D01*
G01*
X7190420Y-18122900D02*
G75*
G03X7190420Y-18122900I-20000J0D01*
G01*
X7364664Y-20069048D02*
G75*
G03X7364664Y-20069048I-20000J0D01*
G01*
X8325800Y-20751800D02*
G75*
G03X8325800Y-20751800I-20000J0D01*
G01*
X8529000Y-18262600D02*
G75*
G03X8529000Y-18262600I-20000J0D01*
G01*
X9600880Y-19415760D02*
G75*
G03X9600880Y-19415760I-20000J0D01*
G01*
X9809160Y-17322800D02*
G75*
G03X9809160Y-17322800I-20000J0D01*
G01*
X9926000Y-17322800D02*
G75*
G03X9926000Y-17322800I-20000J0D01*
G01*
X10126660Y-17505680D02*
G75*
G03X10126660Y-17505680I-20000J0D01*
G01*
X10205400Y-16690340D02*
G75*
G03X10205400Y-16690340I-20000J0D01*
G01*
X10533060Y-17162780D02*
G75*
G03X10533060Y-17162780I-20000J0D01*
G01*
X10733720Y-16436340D02*
G75*
G03X10733720Y-16436340I-20000J0D01*
G01*
X10927776Y-13535660D02*
G75*
G03X10927776Y-13535660I-20000J0D01*
G01*
X10929300Y-5219700D02*
G75*
G03X10929300Y-5219700I-20000J0D01*
G01*
X10954700Y-2501900D02*
G75*
G03X10954700Y-2501900I-20000J0D01*
G01*
X10954700Y-7962900D02*
G75*
G03X10954700Y-7962900I-20000J0D01*
G01*
X10954700Y-10744200D02*
G75*
G03X10954700Y-10744200I-20000J0D01*
G01*
X11002960Y-16984980D02*
G75*
G03X11002960Y-16984980I-20000J0D01*
G01*
X11267120Y-13141960D02*
G75*
G03X11267120Y-13141960I-20000J0D01*
G01*
X11284900Y-4813300D02*
G75*
G03X11284900Y-4813300I-20000J0D01*
G01*
X11315380Y-7564120D02*
G75*
G03X11315380Y-7564120I-20000J0D01*
G01*
X11317920Y-10353040D02*
G75*
G03X11317920Y-10353040I-20000J0D01*
G01*
X11575476Y-14030960D02*
G75*
G03X11575476Y-14030960I-20000J0D01*
G01*
X11592240Y-8422640D02*
G75*
G03X11592240Y-8422640I-20000J0D01*
G01*
X11602400Y-11239500D02*
G75*
G03X11602400Y-11239500I-20000J0D01*
G01*
X11828460Y-9710420D02*
G75*
G03X11828460Y-9710420I-20000J0D01*
G01*
X11919900Y-13553440D02*
G75*
G03X11919900Y-13553440I-20000J0D01*
G01*
X11931076Y-15097760D02*
G75*
G03X11931076Y-15097760I-20000J0D01*
G01*
X11937680Y-10761980D02*
G75*
G03X11937680Y-10761980I-20000J0D01*
G01*
X11942760Y-5196840D02*
G75*
G03X11942760Y-5196840I-20000J0D01*
G01*
X11942760Y-6835140D02*
G75*
G03X11942760Y-6835140I-20000J0D01*
G01*
X11942760Y-7973060D02*
G75*
G03X11942760Y-7973060I-20000J0D01*
G01*
X11952920Y-2512060D02*
G75*
G03X11952920Y-2512060I-20000J0D01*
G01*
X11958000Y-4064000D02*
G75*
G03X11958000Y-4064000I-20000J0D01*
G01*
X11958000Y-12306300D02*
G75*
G03X11958000Y-12306300I-20000J0D01*
G01*
X11981876Y-13370560D02*
G75*
G03X11981876Y-13370560I-20000J0D01*
G01*
X11983400Y-5054600D02*
G75*
G03X11983400Y-5054600I-20000J0D01*
G01*
X12008800Y-2336800D02*
G75*
G03X12008800Y-2336800I-20000J0D01*
G01*
X12008800Y-4475480D02*
G75*
G03X12008800Y-4475480I-20000J0D01*
G01*
X12008800Y-7797800D02*
G75*
G03X12008800Y-7797800I-20000J0D01*
G01*
X12008800Y-10579100D02*
G75*
G03X12008800Y-10579100I-20000J0D01*
G01*
X12016420Y-4368800D02*
G75*
G03X12016420Y-4368800I-20000J0D01*
G01*
X12067220Y-4000500D02*
G75*
G03X12067220Y-4000500I-20000J0D01*
G01*
X12105320Y-17453864D02*
G75*
G03X12105320Y-17453864I-20000J0D01*
G01*
X12186600Y-2501900D02*
G75*
G03X12186600Y-2501900I-20000J0D01*
G01*
X12191680Y-13548360D02*
G75*
G03X12191680Y-13548360I-20000J0D01*
G01*
X12199300Y-7978140D02*
G75*
G03X12199300Y-7978140I-20000J0D01*
G01*
X12204380Y-10713720D02*
G75*
G03X12204380Y-10713720I-20000J0D01*
G01*
X12206920Y-14744700D02*
G75*
G03X12206920Y-14744700I-20000J0D01*
G01*
X12210476Y-14208760D02*
G75*
G03X12210476Y-14208760I-20000J0D01*
G01*
X12212000Y-5892800D02*
G75*
G03X12212000Y-5892800I-20000J0D01*
G01*
X12224700Y-5255260D02*
G75*
G03X12224700Y-5255260I-20000J0D01*
G01*
X12234860Y-3657600D02*
G75*
G03X12234860Y-3657600I-20000J0D01*
G01*
X12237400Y-3175000D02*
G75*
G03X12237400Y-3175000I-20000J0D01*
G01*
X12237400Y-8636000D02*
G75*
G03X12237400Y-8636000I-20000J0D01*
G01*
X12237400Y-9202420D02*
G75*
G03X12237400Y-9202420I-20000J0D01*
G01*
X12237400Y-11417300D02*
G75*
G03X12237400Y-11417300I-20000J0D01*
G01*
X12260260Y-4790440D02*
G75*
G03X12260260Y-4790440I-20000J0D01*
G01*
X12346620Y-18228564D02*
G75*
G03X12346620Y-18228564I-20000J0D01*
G01*
X12346620Y-18457164D02*
G75*
G03X12346620Y-18457164I-20000J0D01*
G01*
X12382180Y-5052060D02*
G75*
G03X12382180Y-5052060I-20000J0D01*
G01*
X12382180Y-6443980D02*
G75*
G03X12382180Y-6443980I-20000J0D01*
G01*
X12384720Y-8808720D02*
G75*
G03X12384720Y-8808720I-20000J0D01*
G01*
X12397420Y-11765280D02*
G75*
G03X12397420Y-11765280I-20000J0D01*
G01*
X12466000Y-17081500D02*
G75*
G03X12466000Y-17081500I-20000J0D01*
G01*
X12553376Y-14081760D02*
G75*
G03X12553376Y-14081760I-20000J0D01*
G01*
X12554900Y-5765800D02*
G75*
G03X12554900Y-5765800I-20000J0D01*
G01*
X12578776Y-13497560D02*
G75*
G03X12578776Y-13497560I-20000J0D01*
G01*
X12580300Y-3048000D02*
G75*
G03X12580300Y-3048000I-20000J0D01*
G01*
X12580300Y-5181600D02*
G75*
G03X12580300Y-5181600I-20000J0D01*
G01*
X12580300Y-8509000D02*
G75*
G03X12580300Y-8509000I-20000J0D01*
G01*
X12580300Y-11290300D02*
G75*
G03X12580300Y-11290300I-20000J0D01*
G01*
X12605700Y-2463800D02*
G75*
G03X12605700Y-2463800I-20000J0D01*
G01*
X12605700Y-7924800D02*
G75*
G03X12605700Y-7924800I-20000J0D01*
G01*
X12605700Y-10706100D02*
G75*
G03X12605700Y-10706100I-20000J0D01*
G01*
X12626020Y-6979920D02*
G75*
G03X12626020Y-6979920I-20000J0D01*
G01*
X12631100Y-4137660D02*
G75*
G03X12631100Y-4137660I-20000J0D01*
G01*
X12745400Y-7828280D02*
G75*
G03X12745400Y-7828280I-20000J0D01*
G01*
X12745400Y-10601960D02*
G75*
G03X12745400Y-10601960I-20000J0D01*
G01*
X12750480Y-13274040D02*
G75*
G03X12750480Y-13274040I-20000J0D01*
G01*
X12753020Y-17949164D02*
G75*
G03X12753020Y-17949164I-20000J0D01*
G01*
X12753020Y-18228564D02*
G75*
G03X12753020Y-18228564I-20000J0D01*
G01*
X12753020Y-18457164D02*
G75*
G03X12753020Y-18457164I-20000J0D01*
G01*
X12770800Y-20005040D02*
G75*
G03X12770800Y-20005040I-20000J0D01*
G01*
X12872400Y-4556760D02*
G75*
G03X12872400Y-4556760I-20000J0D01*
G01*
X12937424Y-12624816D02*
G75*
G03X12937424Y-12624816I-20000J0D01*
G01*
X13116240Y-4251960D02*
G75*
G03X13116240Y-4251960I-20000J0D01*
G01*
X13134020Y-18253964D02*
G75*
G03X13134020Y-18253964I-20000J0D01*
G01*
X13134020Y-18330164D02*
G75*
G03X13134020Y-18330164I-20000J0D01*
G01*
X13136560Y-17434560D02*
G75*
G03X13136560Y-17434560I-20000J0D01*
G01*
X13159420Y-17288764D02*
G75*
G03X13159420Y-17288764I-20000J0D01*
G01*
X13192440Y-19014440D02*
G75*
G03X13192440Y-19014440I-20000J0D01*
G01*
X13213776Y-14475460D02*
G75*
G03X13213776Y-14475460I-20000J0D01*
G01*
X13215300Y-6159500D02*
G75*
G03X13215300Y-6159500I-20000J0D01*
G01*
X13240700Y-3441700D02*
G75*
G03X13240700Y-3441700I-20000J0D01*
G01*
X13240700Y-8902700D02*
G75*
G03X13240700Y-8902700I-20000J0D01*
G01*
X13240700Y-11684000D02*
G75*
G03X13240700Y-11684000I-20000J0D01*
G01*
X13332140Y-15140940D02*
G75*
G03X13332140Y-15140940I-20000J0D01*
G01*
X13388020Y-18126964D02*
G75*
G03X13388020Y-18126964I-20000J0D01*
G01*
X13395640Y-17429480D02*
G75*
G03X13395640Y-17429480I-20000J0D01*
G01*
X13492160Y-12438380D02*
G75*
G03X13492160Y-12438380I-20000J0D01*
G01*
X13525180Y-10193020D02*
G75*
G03X13525180Y-10193020I-20000J0D01*
G01*
X13542960Y-4881880D02*
G75*
G03X13542960Y-4881880I-20000J0D01*
G01*
X13565820Y-10459720D02*
G75*
G03X13565820Y-10459720I-20000J0D01*
G01*
X13565820Y-10751820D02*
G75*
G03X13565820Y-10751820I-20000J0D01*
G01*
X13573440Y-5476240D02*
G75*
G03X13573440Y-5476240I-20000J0D01*
G01*
X13573440Y-7485380D02*
G75*
G03X13573440Y-7485380I-20000J0D01*
G01*
X13578520Y-5181600D02*
G75*
G03X13578520Y-5181600I-20000J0D01*
G01*
X13598840Y-7744460D02*
G75*
G03X13598840Y-7744460I-20000J0D01*
G01*
X13601380Y-8044180D02*
G75*
G03X13601380Y-8044180I-20000J0D01*
G01*
X13620000Y-2393731D02*
G75*
G03X13620000Y-2393731I-20000J0D01*
G01*
X13620000Y-2717400D02*
G75*
G03X13620000Y-2717400I-20000J0D01*
G01*
X13620000Y-2997400D02*
G75*
G03X13620000Y-2997400I-20000J0D01*
G01*
X13730920Y-17999964D02*
G75*
G03X13730920Y-17999964I-20000J0D01*
G01*
X13756320Y-17415764D02*
G75*
G03X13756320Y-17415764I-20000J0D01*
G01*
X14091600Y-12293600D02*
G75*
G03X14091600Y-12293600I-20000J0D01*
G01*
X14109380Y-14706600D02*
G75*
G03X14109380Y-14706600I-20000J0D01*
G01*
X14147480Y-13672820D02*
G75*
G03X14147480Y-13672820I-20000J0D01*
G01*
X14345600Y-18384520D02*
G75*
G03X14345600Y-18384520I-20000J0D01*
G01*
X14396400Y-11582400D02*
G75*
G03X14396400Y-11582400I-20000J0D01*
G01*
X14449740Y-21087080D02*
G75*
G03X14449740Y-21087080I-20000J0D01*
G01*
X14498000Y-12141200D02*
G75*
G03X14498000Y-12141200I-20000J0D01*
G01*
X14548800Y-10152380D02*
G75*
G03X14548800Y-10152380I-20000J0D01*
G01*
X14698660Y-4716780D02*
G75*
G03X14698660Y-4716780I-20000J0D01*
G01*
X14713392Y-17183100D02*
G75*
G03X14713392Y-17183100I-20000J0D01*
G01*
X14713900Y-15001240D02*
G75*
G03X14713900Y-15001240I-20000J0D01*
G01*
X14715932Y-16919448D02*
G75*
G03X14715932Y-16919448I-20000J0D01*
G01*
X14716440Y-7330440D02*
G75*
G03X14716440Y-7330440I-20000J0D01*
G01*
X14716440Y-17519396D02*
G75*
G03X14716440Y-17519396I-20000J0D01*
G01*
X14914560Y-17221200D02*
G75*
G03X14914560Y-17221200I-20000J0D01*
G01*
X15006000Y-17424400D02*
G75*
G03X15006000Y-17424400I-20000J0D01*
G01*
X15006000Y-17576800D02*
G75*
G03X15006000Y-17576800I-20000J0D01*
G01*
X15028860Y-14907260D02*
G75*
G03X15028860Y-14907260I-20000J0D01*
G01*
X15107600Y-13007340D02*
G75*
G03X15107600Y-13007340I-20000J0D01*
G01*
X15234600Y-13017500D02*
G75*
G03X15234600Y-13017500I-20000J0D01*
G01*
X15356520Y-13187680D02*
G75*
G03X15356520Y-13187680I-20000J0D01*
G01*
X15361600Y-9398000D02*
G75*
G03X15361600Y-9398000I-20000J0D01*
G01*
X15384460Y-14213840D02*
G75*
G03X15384460Y-14213840I-20000J0D01*
G01*
X15463200Y-5689600D02*
G75*
G03X15463200Y-5689600I-20000J0D01*
G01*
X15623220Y-14455140D02*
G75*
G03X15623220Y-14455140I-20000J0D01*
G01*
X15623220Y-14630400D02*
G75*
G03X15623220Y-14630400I-20000J0D01*
G01*
X15742600Y-18470880D02*
G75*
G03X15742600Y-18470880I-20000J0D01*
G01*
X15955960Y-14655800D02*
G75*
G03X15955960Y-14655800I-20000J0D01*
G01*
X16060100Y-4452620D02*
G75*
G03X16060100Y-4452620I-20000J0D01*
G01*
X16082960Y-14820900D02*
G75*
G03X16082960Y-14820900I-20000J0D01*
G01*
X16088040Y-16393160D02*
G75*
G03X16088040Y-16393160I-20000J0D01*
G01*
X16166780Y-19961860D02*
G75*
G03X16166780Y-19961860I-20000J0D01*
G01*
X16227740Y-14472920D02*
G75*
G03X16227740Y-14472920I-20000J0D01*
G01*
X16367440Y-18907760D02*
G75*
G03X16367440Y-18907760I-20000J0D01*
G01*
X16382680Y-20767040D02*
G75*
G03X16382680Y-20767040I-20000J0D01*
G01*
X16443640Y-19540220D02*
G75*
G03X16443640Y-19540220I-20000J0D01*
G01*
X16568100Y-19611340D02*
G75*
G03X16568100Y-19611340I-20000J0D01*
G01*
X16578260Y-4239260D02*
G75*
G03X16578260Y-4239260I-20000J0D01*
G01*
X16659540Y-20507960D02*
G75*
G03X16659540Y-20507960I-20000J0D01*
G01*
X17116740Y-20609560D02*
G75*
G03X17116740Y-20609560I-20000J0D01*
G01*
X17144680Y-19291300D02*
G75*
G03X17144680Y-19291300I-20000J0D01*
G01*
X17248820Y-20208240D02*
G75*
G03X17248820Y-20208240I-20000J0D01*
G01*
X17563780Y-4485640D02*
G75*
G03X17563780Y-4485640I-20000J0D01*
G01*
X18285140Y-4201160D02*
G75*
G03X18285140Y-4201160I-20000J0D01*
G01*
X18356260Y-20226020D02*
G75*
G03X18356260Y-20226020I-20000J0D01*
G01*
X18511200Y-8788400D02*
G75*
G03X18511200Y-8788400I-20000J0D01*
G01*
X18653440Y-15781020D02*
G75*
G03X18653440Y-15781020I-20000J0D01*
G01*
X18714400Y-5334000D02*
G75*
G03X18714400Y-5334000I-20000J0D01*
G01*
X19047140Y-5181600D02*
G75*
G03X19047140Y-5181600I-20000J0D01*
G01*
X19237640Y-15351760D02*
G75*
G03X19237640Y-15351760I-20000J0D01*
G01*
X19324000Y-4945380D02*
G75*
G03X19324000Y-4945380I-20000J0D01*
G01*
X19379880Y-19075400D02*
G75*
G03X19379880Y-19075400I-20000J0D01*
G01*
X19501800Y-3987800D02*
G75*
G03X19501800Y-3987800I-20000J0D01*
G01*
X19523390Y-4933950D02*
G75*
G03X19523390Y-4933950I-20000J0D01*
G01*
X19632610Y-6318250D02*
G75*
G03X19632610Y-6318250I-20000J0D01*
G01*
X19718970Y-5680710D02*
G75*
G03X19718970Y-5680710I-20000J0D01*
G01*
X19718970Y-6338570D02*
G75*
G03X19718970Y-6338570I-20000J0D01*
G01*
X19946300Y-4584700D02*
G75*
G03X19946300Y-4584700I-20000J0D01*
G01*
X19979320Y-6289040D02*
G75*
G03X19979320Y-6289040I-20000J0D01*
G01*
X20073300Y-14782800D02*
G75*
G03X20073300Y-14782800I-20000J0D01*
G01*
X20345080Y-19730720D02*
G75*
G03X20345080Y-19730720I-20000J0D01*
G01*
X21676040Y-8188960D02*
G75*
G03X21676040Y-8188960I-20000J0D01*
G01*
X15187676Y-17154784D02*
X15187676Y-17234784D01*
X15147676Y-17194784D02*
X15227676Y-17194784D01*
X15187676Y-17916784D02*
X15187676Y-17996784D01*
X15147676Y-17956784D02*
X15227676Y-17956784D01*
X15441676Y-17154784D02*
X15441676Y-17234784D01*
X15401676Y-17194784D02*
X15481676Y-17194784D01*
X15441676Y-17916784D02*
X15441676Y-17996784D01*
X15401676Y-17956784D02*
X15481676Y-17956784D01*
X15695676Y-17154784D02*
X15695676Y-17234784D01*
X15655676Y-17194784D02*
X15735676Y-17194784D01*
X15695676Y-17916784D02*
X15695676Y-17996784D01*
X15655676Y-17956784D02*
X15735676Y-17956784D01*
X15949676Y-17154784D02*
X15949676Y-17234784D01*
X15909676Y-17194784D02*
X15989676Y-17194784D01*
X15949676Y-17916784D02*
X15949676Y-17996784D01*
X15909676Y-17956784D02*
X15989676Y-17956784D01*
X16203676Y-17154784D02*
X16203676Y-17234784D01*
X16163676Y-17194784D02*
X16243676Y-17194784D01*
X16203676Y-17916784D02*
X16203676Y-17996784D01*
X16163676Y-17956784D02*
X16243676Y-17956784D01*
X16457676Y-17154784D02*
X16457676Y-17234784D01*
X16417676Y-17194784D02*
X16497676Y-17194784D01*
X16457676Y-17916784D02*
X16457676Y-17996784D01*
X16417676Y-17956784D02*
X16497676Y-17956784D01*
X16711676Y-17154784D02*
X16711676Y-17234784D01*
X16671676Y-17194784D02*
X16751676Y-17194784D01*
X16711676Y-17916784D02*
X16711676Y-17996784D01*
X16671676Y-17956784D02*
X16751676Y-17956784D01*
X16965676Y-17154784D02*
X16965676Y-17234784D01*
X16925676Y-17194784D02*
X17005676Y-17194784D01*
X16965676Y-17916784D02*
X16965676Y-17996784D01*
X16925676Y-17956784D02*
X17005676Y-17956784D01*
X17219676Y-17154784D02*
X17219676Y-17234784D01*
X17179676Y-17194784D02*
X17259676Y-17194784D01*
X17219676Y-17916784D02*
X17219676Y-17996784D01*
X17179676Y-17956784D02*
X17259676Y-17956784D01*
X17473676Y-17154784D02*
X17473676Y-17234784D01*
X17433676Y-17194784D02*
X17513676Y-17194784D01*
X17473676Y-17916784D02*
X17473676Y-17996784D01*
X17433676Y-17956784D02*
X17513676Y-17956784D01*
X17727676Y-17154784D02*
X17727676Y-17234784D01*
X17687676Y-17194784D02*
X17767676Y-17194784D01*
X17727676Y-17916784D02*
X17727676Y-17996784D01*
X17687676Y-17956784D02*
X17767676Y-17956784D01*
X17856200Y-18603600D02*
X17856200Y-18683600D01*
X17816200Y-18643600D02*
X17896200Y-18643600D01*
X17981676Y-17154784D02*
X17981676Y-17234784D01*
X17941676Y-17194784D02*
X18021676Y-17194784D01*
X17981676Y-17916784D02*
X17981676Y-17996784D01*
X17941676Y-17956784D02*
X18021676Y-17956784D01*
X18235676Y-17154784D02*
X18235676Y-17234784D01*
X18195676Y-17194784D02*
X18275676Y-17194784D01*
X18235676Y-17916784D02*
X18235676Y-17996784D01*
X18195676Y-17956784D02*
X18275676Y-17956784D01*
X18344200Y-18603600D02*
X18344200Y-18683600D01*
X18304200Y-18643600D02*
X18384200Y-18643600D01*
X18489676Y-17154784D02*
X18489676Y-17234784D01*
X18449676Y-17194784D02*
X18529676Y-17194784D01*
X18489676Y-17916784D02*
X18489676Y-17996784D01*
X18449676Y-17956784D02*
X18529676Y-17956784D01*
X6400596Y-17627396D02*
X6400596Y-17556684D01*
X6329884Y-17556684D01*
X6329884Y-17627396D01*
X6400596Y-17627396D01*
X6629196Y-18211596D02*
X6629196Y-18140884D01*
X6558484Y-18140884D01*
X6558484Y-18211596D01*
X6629196Y-18211596D01*
X6911136Y-20365516D02*
X6911136Y-20294804D01*
X6840424Y-20294804D01*
X6840424Y-20365516D01*
X6911136Y-20365516D01*
X6936536Y-20873516D02*
X6936536Y-20802804D01*
X6865824Y-20802804D01*
X6865824Y-20873516D01*
X6936536Y-20873516D01*
X12730276Y-6875576D02*
X12730276Y-6804864D01*
X12659564Y-6804864D01*
X12659564Y-6875576D01*
X12730276Y-6875576D01*
X12750596Y-9159036D02*
X12750596Y-9088324D01*
X12679884Y-9088324D01*
X12679884Y-9159036D01*
X12750596Y-9159036D01*
X12790768Y-14732406D02*
X12790768Y-14661694D01*
X12720057Y-14661694D01*
X12720057Y-14732406D01*
X12790768Y-14732406D01*
X12796316Y-6390436D02*
X12796316Y-6319724D01*
X12725604Y-6319724D01*
X12725604Y-6390436D01*
X12796316Y-6390436D01*
X12819176Y-9636556D02*
X12819176Y-9565844D01*
X12748464Y-9565844D01*
X12748464Y-9636556D01*
X12819176Y-9636556D01*
X12821716Y-11902236D02*
X12821716Y-11831524D01*
X12751004Y-11831524D01*
X12751004Y-11902236D01*
X12821716Y-11902236D01*
X12824256Y-3631996D02*
X12824256Y-3561284D01*
X12753544Y-3561284D01*
X12753544Y-3631996D01*
X12824256Y-3631996D01*
X13172236Y-15514116D02*
X13172236Y-15443404D01*
X13101524Y-15443404D01*
X13101524Y-15514116D01*
X13172236Y-15514116D01*
X13268756Y-12443256D02*
X13268756Y-12372544D01*
X13198044Y-12372544D01*
X13198044Y-12443256D01*
X13268756Y-12443256D01*
X14711476Y-4528616D02*
X14711476Y-4457904D01*
X14640764Y-4457904D01*
X14640764Y-4528616D01*
X14711476Y-4528616D01*
X14884196Y-16001796D02*
X14884196Y-15931084D01*
X14813484Y-15931084D01*
X14813484Y-16001796D01*
X14884196Y-16001796D01*
X3022600Y-6049400D02*
X3077600Y-5994400D01*
X3022600Y-5939400D01*
X2967600Y-5994400D01*
X3022600Y-6049400D01*
X3022600Y-6303400D02*
X3077600Y-6248400D01*
X3022600Y-6193400D01*
X2967600Y-6248400D01*
X3022600Y-6303400D01*
X3022600Y-14355200D02*
X3077600Y-14300200D01*
X3022600Y-14245200D01*
X2967600Y-14300200D01*
X3022600Y-14355200D01*
X3022600Y-14609200D02*
X3077600Y-14554200D01*
X3022600Y-14499200D01*
X2967600Y-14554200D01*
X3022600Y-14609200D01*
X3048000Y-3306200D02*
X3103000Y-3251200D01*
X3048000Y-3196200D01*
X2993000Y-3251200D01*
X3048000Y-3306200D01*
X3048000Y-3560200D02*
X3103000Y-3505200D01*
X3048000Y-3450200D01*
X2993000Y-3505200D01*
X3048000Y-3560200D01*
X3048000Y-8767200D02*
X3103000Y-8712200D01*
X3048000Y-8657200D01*
X2993000Y-8712200D01*
X3048000Y-8767200D01*
X3048000Y-9021200D02*
X3103000Y-8966200D01*
X3048000Y-8911200D01*
X2993000Y-8966200D01*
X3048000Y-9021200D01*
X3048000Y-11561200D02*
X3103000Y-11506200D01*
X3048000Y-11451200D01*
X2993000Y-11506200D01*
X3048000Y-11561200D01*
X3048000Y-11815200D02*
X3103000Y-11760200D01*
X3048000Y-11705200D01*
X2993000Y-11760200D01*
X3048000Y-11815200D01*
X3276600Y-6049400D02*
X3331600Y-5994400D01*
X3276600Y-5939400D01*
X3221600Y-5994400D01*
X3276600Y-6049400D01*
X3276600Y-6303400D02*
X3331600Y-6248400D01*
X3276600Y-6193400D01*
X3221600Y-6248400D01*
X3276600Y-6303400D01*
X3276600Y-14355200D02*
X3331600Y-14300200D01*
X3276600Y-14245200D01*
X3221600Y-14300200D01*
X3276600Y-14355200D01*
X3276600Y-14609200D02*
X3331600Y-14554200D01*
X3276600Y-14499200D01*
X3221600Y-14554200D01*
X3276600Y-14609200D01*
X3302000Y-3306200D02*
X3357000Y-3251200D01*
X3302000Y-3196200D01*
X3247000Y-3251200D01*
X3302000Y-3306200D01*
X3302000Y-3560200D02*
X3357000Y-3505200D01*
X3302000Y-3450200D01*
X3247000Y-3505200D01*
X3302000Y-3560200D01*
X3302000Y-8767200D02*
X3357000Y-8712200D01*
X3302000Y-8657200D01*
X3247000Y-8712200D01*
X3302000Y-8767200D01*
X3302000Y-9021200D02*
X3357000Y-8966200D01*
X3302000Y-8911200D01*
X3247000Y-8966200D01*
X3302000Y-9021200D01*
X3302000Y-11561200D02*
X3357000Y-11506200D01*
X3302000Y-11451200D01*
X3247000Y-11506200D01*
X3302000Y-11561200D01*
X3302000Y-11815200D02*
X3357000Y-11760200D01*
X3302000Y-11705200D01*
X3247000Y-11760200D01*
X3302000Y-11815200D01*
X3530600Y-6049400D02*
X3585600Y-5994400D01*
X3530600Y-5939400D01*
X3475600Y-5994400D01*
X3530600Y-6049400D01*
X3530600Y-6303400D02*
X3585600Y-6248400D01*
X3530600Y-6193400D01*
X3475600Y-6248400D01*
X3530600Y-6303400D01*
X3530600Y-14355200D02*
X3585600Y-14300200D01*
X3530600Y-14245200D01*
X3475600Y-14300200D01*
X3530600Y-14355200D01*
X3530600Y-14609200D02*
X3585600Y-14554200D01*
X3530600Y-14499200D01*
X3475600Y-14554200D01*
X3530600Y-14609200D01*
X3556000Y-3306200D02*
X3611000Y-3251200D01*
X3556000Y-3196200D01*
X3501000Y-3251200D01*
X3556000Y-3306200D01*
X3556000Y-3560200D02*
X3611000Y-3505200D01*
X3556000Y-3450200D01*
X3501000Y-3505200D01*
X3556000Y-3560200D01*
X3556000Y-8767200D02*
X3611000Y-8712200D01*
X3556000Y-8657200D01*
X3501000Y-8712200D01*
X3556000Y-8767200D01*
X3556000Y-9021200D02*
X3611000Y-8966200D01*
X3556000Y-8911200D01*
X3501000Y-8966200D01*
X3556000Y-9021200D01*
X3556000Y-11561200D02*
X3611000Y-11506200D01*
X3556000Y-11451200D01*
X3501000Y-11506200D01*
X3556000Y-11561200D01*
X3556000Y-11815200D02*
X3611000Y-11760200D01*
X3556000Y-11705200D01*
X3501000Y-11760200D01*
X3556000Y-11815200D01*
X3784600Y-6049400D02*
X3839600Y-5994400D01*
X3784600Y-5939400D01*
X3729600Y-5994400D01*
X3784600Y-6049400D01*
X3784600Y-6303400D02*
X3839600Y-6248400D01*
X3784600Y-6193400D01*
X3729600Y-6248400D01*
X3784600Y-6303400D01*
X3784600Y-14355200D02*
X3839600Y-14300200D01*
X3784600Y-14245200D01*
X3729600Y-14300200D01*
X3784600Y-14355200D01*
X3784600Y-14609200D02*
X3839600Y-14554200D01*
X3784600Y-14499200D01*
X3729600Y-14554200D01*
X3784600Y-14609200D01*
X3810000Y-3306200D02*
X3865000Y-3251200D01*
X3810000Y-3196200D01*
X3755000Y-3251200D01*
X3810000Y-3306200D01*
X3810000Y-3560200D02*
X3865000Y-3505200D01*
X3810000Y-3450200D01*
X3755000Y-3505200D01*
X3810000Y-3560200D01*
X3810000Y-8767200D02*
X3865000Y-8712200D01*
X3810000Y-8657200D01*
X3755000Y-8712200D01*
X3810000Y-8767200D01*
X3810000Y-9021200D02*
X3865000Y-8966200D01*
X3810000Y-8911200D01*
X3755000Y-8966200D01*
X3810000Y-9021200D01*
X3810000Y-11561200D02*
X3865000Y-11506200D01*
X3810000Y-11451200D01*
X3755000Y-11506200D01*
X3810000Y-11561200D01*
X3810000Y-11815200D02*
X3865000Y-11760200D01*
X3810000Y-11705200D01*
X3755000Y-11760200D01*
X3810000Y-11815200D01*
X4038600Y-6049400D02*
X4093600Y-5994400D01*
X4038600Y-5939400D01*
X3983600Y-5994400D01*
X4038600Y-6049400D01*
X4038600Y-6303400D02*
X4093600Y-6248400D01*
X4038600Y-6193400D01*
X3983600Y-6248400D01*
X4038600Y-6303400D01*
X4038600Y-14355200D02*
X4093600Y-14300200D01*
X4038600Y-14245200D01*
X3983600Y-14300200D01*
X4038600Y-14355200D01*
X4038600Y-14609200D02*
X4093600Y-14554200D01*
X4038600Y-14499200D01*
X3983600Y-14554200D01*
X4038600Y-14609200D01*
X4064000Y-3306200D02*
X4119000Y-3251200D01*
X4064000Y-3196200D01*
X4009000Y-3251200D01*
X4064000Y-3306200D01*
X4064000Y-3560200D02*
X4119000Y-3505200D01*
X4064000Y-3450200D01*
X4009000Y-3505200D01*
X4064000Y-3560200D01*
X4064000Y-8767200D02*
X4119000Y-8712200D01*
X4064000Y-8657200D01*
X4009000Y-8712200D01*
X4064000Y-8767200D01*
X4064000Y-9021200D02*
X4119000Y-8966200D01*
X4064000Y-8911200D01*
X4009000Y-8966200D01*
X4064000Y-9021200D01*
X4064000Y-11561200D02*
X4119000Y-11506200D01*
X4064000Y-11451200D01*
X4009000Y-11506200D01*
X4064000Y-11561200D01*
X4064000Y-11815200D02*
X4119000Y-11760200D01*
X4064000Y-11705200D01*
X4009000Y-11760200D01*
X4064000Y-11815200D01*
X4292600Y-6049400D02*
X4347600Y-5994400D01*
X4292600Y-5939400D01*
X4237600Y-5994400D01*
X4292600Y-6049400D01*
X4292600Y-6303400D02*
X4347600Y-6248400D01*
X4292600Y-6193400D01*
X4237600Y-6248400D01*
X4292600Y-6303400D01*
X4292600Y-14355200D02*
X4347600Y-14300200D01*
X4292600Y-14245200D01*
X4237600Y-14300200D01*
X4292600Y-14355200D01*
X4292600Y-14609200D02*
X4347600Y-14554200D01*
X4292600Y-14499200D01*
X4237600Y-14554200D01*
X4292600Y-14609200D01*
X4318000Y-3306200D02*
X4373000Y-3251200D01*
X4318000Y-3196200D01*
X4263000Y-3251200D01*
X4318000Y-3306200D01*
X4318000Y-3560200D02*
X4373000Y-3505200D01*
X4318000Y-3450200D01*
X4263000Y-3505200D01*
X4318000Y-3560200D01*
X4318000Y-8767200D02*
X4373000Y-8712200D01*
X4318000Y-8657200D01*
X4263000Y-8712200D01*
X4318000Y-8767200D01*
X4318000Y-9021200D02*
X4373000Y-8966200D01*
X4318000Y-8911200D01*
X4263000Y-8966200D01*
X4318000Y-9021200D01*
X4318000Y-11561200D02*
X4373000Y-11506200D01*
X4318000Y-11451200D01*
X4263000Y-11506200D01*
X4318000Y-11561200D01*
X4318000Y-11815200D02*
X4373000Y-11760200D01*
X4318000Y-11705200D01*
X4263000Y-11760200D01*
X4318000Y-11815200D01*
X4546600Y-6049400D02*
X4601600Y-5994400D01*
X4546600Y-5939400D01*
X4491600Y-5994400D01*
X4546600Y-6049400D01*
X4546600Y-6303400D02*
X4601600Y-6248400D01*
X4546600Y-6193400D01*
X4491600Y-6248400D01*
X4546600Y-6303400D01*
X4546600Y-14355200D02*
X4601600Y-14300200D01*
X4546600Y-14245200D01*
X4491600Y-14300200D01*
X4546600Y-14355200D01*
X4546600Y-14609200D02*
X4601600Y-14554200D01*
X4546600Y-14499200D01*
X4491600Y-14554200D01*
X4546600Y-14609200D01*
X4572000Y-3306200D02*
X4627000Y-3251200D01*
X4572000Y-3196200D01*
X4517000Y-3251200D01*
X4572000Y-3306200D01*
X4572000Y-3560200D02*
X4627000Y-3505200D01*
X4572000Y-3450200D01*
X4517000Y-3505200D01*
X4572000Y-3560200D01*
X4572000Y-8767200D02*
X4627000Y-8712200D01*
X4572000Y-8657200D01*
X4517000Y-8712200D01*
X4572000Y-8767200D01*
X4572000Y-9021200D02*
X4627000Y-8966200D01*
X4572000Y-8911200D01*
X4517000Y-8966200D01*
X4572000Y-9021200D01*
X4572000Y-11561200D02*
X4627000Y-11506200D01*
X4572000Y-11451200D01*
X4517000Y-11506200D01*
X4572000Y-11561200D01*
X4572000Y-11815200D02*
X4627000Y-11760200D01*
X4572000Y-11705200D01*
X4517000Y-11760200D01*
X4572000Y-11815200D01*
X4800600Y-6049400D02*
X4855600Y-5994400D01*
X4800600Y-5939400D01*
X4745600Y-5994400D01*
X4800600Y-6049400D01*
X4800600Y-6303400D02*
X4855600Y-6248400D01*
X4800600Y-6193400D01*
X4745600Y-6248400D01*
X4800600Y-6303400D01*
X4800600Y-14355200D02*
X4855600Y-14300200D01*
X4800600Y-14245200D01*
X4745600Y-14300200D01*
X4800600Y-14355200D01*
X4800600Y-14609200D02*
X4855600Y-14554200D01*
X4800600Y-14499200D01*
X4745600Y-14554200D01*
X4800600Y-14609200D01*
X4826000Y-3306200D02*
X4881000Y-3251200D01*
X4826000Y-3196200D01*
X4771000Y-3251200D01*
X4826000Y-3306200D01*
X4826000Y-3560200D02*
X4881000Y-3505200D01*
X4826000Y-3450200D01*
X4771000Y-3505200D01*
X4826000Y-3560200D01*
X4826000Y-8767200D02*
X4881000Y-8712200D01*
X4826000Y-8657200D01*
X4771000Y-8712200D01*
X4826000Y-8767200D01*
X4826000Y-9021200D02*
X4881000Y-8966200D01*
X4826000Y-8911200D01*
X4771000Y-8966200D01*
X4826000Y-9021200D01*
X4826000Y-11561200D02*
X4881000Y-11506200D01*
X4826000Y-11451200D01*
X4771000Y-11506200D01*
X4826000Y-11561200D01*
X4826000Y-11815200D02*
X4881000Y-11760200D01*
X4826000Y-11705200D01*
X4771000Y-11760200D01*
X4826000Y-11815200D01*
X5054600Y-6049400D02*
X5109600Y-5994400D01*
X5054600Y-5939400D01*
X4999600Y-5994400D01*
X5054600Y-6049400D01*
X5054600Y-6303400D02*
X5109600Y-6248400D01*
X5054600Y-6193400D01*
X4999600Y-6248400D01*
X5054600Y-6303400D01*
X5054600Y-14355200D02*
X5109600Y-14300200D01*
X5054600Y-14245200D01*
X4999600Y-14300200D01*
X5054600Y-14355200D01*
X5054600Y-14609200D02*
X5109600Y-14554200D01*
X5054600Y-14499200D01*
X4999600Y-14554200D01*
X5054600Y-14609200D01*
X5080000Y-3306200D02*
X5135000Y-3251200D01*
X5080000Y-3196200D01*
X5025000Y-3251200D01*
X5080000Y-3306200D01*
X5080000Y-3560200D02*
X5135000Y-3505200D01*
X5080000Y-3450200D01*
X5025000Y-3505200D01*
X5080000Y-3560200D01*
X5080000Y-8767200D02*
X5135000Y-8712200D01*
X5080000Y-8657200D01*
X5025000Y-8712200D01*
X5080000Y-8767200D01*
X5080000Y-9021200D02*
X5135000Y-8966200D01*
X5080000Y-8911200D01*
X5025000Y-8966200D01*
X5080000Y-9021200D01*
X5080000Y-11561200D02*
X5135000Y-11506200D01*
X5080000Y-11451200D01*
X5025000Y-11506200D01*
X5080000Y-11561200D01*
X5080000Y-11815200D02*
X5135000Y-11760200D01*
X5080000Y-11705200D01*
X5025000Y-11760200D01*
X5080000Y-11815200D01*
X5308600Y-6049400D02*
X5363600Y-5994400D01*
X5308600Y-5939400D01*
X5253600Y-5994400D01*
X5308600Y-6049400D01*
X5308600Y-6303400D02*
X5363600Y-6248400D01*
X5308600Y-6193400D01*
X5253600Y-6248400D01*
X5308600Y-6303400D01*
X5308600Y-14355200D02*
X5363600Y-14300200D01*
X5308600Y-14245200D01*
X5253600Y-14300200D01*
X5308600Y-14355200D01*
X5308600Y-14609200D02*
X5363600Y-14554200D01*
X5308600Y-14499200D01*
X5253600Y-14554200D01*
X5308600Y-14609200D01*
X5334000Y-3306200D02*
X5389000Y-3251200D01*
X5334000Y-3196200D01*
X5279000Y-3251200D01*
X5334000Y-3306200D01*
X5334000Y-3560200D02*
X5389000Y-3505200D01*
X5334000Y-3450200D01*
X5279000Y-3505200D01*
X5334000Y-3560200D01*
X5334000Y-8767200D02*
X5389000Y-8712200D01*
X5334000Y-8657200D01*
X5279000Y-8712200D01*
X5334000Y-8767200D01*
X5334000Y-9021200D02*
X5389000Y-8966200D01*
X5334000Y-8911200D01*
X5279000Y-8966200D01*
X5334000Y-9021200D01*
X5334000Y-11561200D02*
X5389000Y-11506200D01*
X5334000Y-11451200D01*
X5279000Y-11506200D01*
X5334000Y-11561200D01*
X5334000Y-11815200D02*
X5389000Y-11760200D01*
X5334000Y-11705200D01*
X5279000Y-11760200D01*
X5334000Y-11815200D01*
X5562600Y-6049400D02*
X5617600Y-5994400D01*
X5562600Y-5939400D01*
X5507600Y-5994400D01*
X5562600Y-6049400D01*
X5562600Y-6303400D02*
X5617600Y-6248400D01*
X5562600Y-6193400D01*
X5507600Y-6248400D01*
X5562600Y-6303400D01*
X5562600Y-14355200D02*
X5617600Y-14300200D01*
X5562600Y-14245200D01*
X5507600Y-14300200D01*
X5562600Y-14355200D01*
X5562600Y-14609200D02*
X5617600Y-14554200D01*
X5562600Y-14499200D01*
X5507600Y-14554200D01*
X5562600Y-14609200D01*
X5588000Y-3306200D02*
X5643000Y-3251200D01*
X5588000Y-3196200D01*
X5533000Y-3251200D01*
X5588000Y-3306200D01*
X5588000Y-3560200D02*
X5643000Y-3505200D01*
X5588000Y-3450200D01*
X5533000Y-3505200D01*
X5588000Y-3560200D01*
X5588000Y-8767200D02*
X5643000Y-8712200D01*
X5588000Y-8657200D01*
X5533000Y-8712200D01*
X5588000Y-8767200D01*
X5588000Y-9021200D02*
X5643000Y-8966200D01*
X5588000Y-8911200D01*
X5533000Y-8966200D01*
X5588000Y-9021200D01*
X5588000Y-11561200D02*
X5643000Y-11506200D01*
X5588000Y-11451200D01*
X5533000Y-11506200D01*
X5588000Y-11561200D01*
X5588000Y-11815200D02*
X5643000Y-11760200D01*
X5588000Y-11705200D01*
X5533000Y-11760200D01*
X5588000Y-11815200D01*
X5816600Y-6049400D02*
X5871600Y-5994400D01*
X5816600Y-5939400D01*
X5761600Y-5994400D01*
X5816600Y-6049400D01*
X5816600Y-6303400D02*
X5871600Y-6248400D01*
X5816600Y-6193400D01*
X5761600Y-6248400D01*
X5816600Y-6303400D01*
X5816600Y-14355200D02*
X5871600Y-14300200D01*
X5816600Y-14245200D01*
X5761600Y-14300200D01*
X5816600Y-14355200D01*
X5816600Y-14609200D02*
X5871600Y-14554200D01*
X5816600Y-14499200D01*
X5761600Y-14554200D01*
X5816600Y-14609200D01*
X5842000Y-3306200D02*
X5897000Y-3251200D01*
X5842000Y-3196200D01*
X5787000Y-3251200D01*
X5842000Y-3306200D01*
X5842000Y-3560200D02*
X5897000Y-3505200D01*
X5842000Y-3450200D01*
X5787000Y-3505200D01*
X5842000Y-3560200D01*
X5842000Y-8767200D02*
X5897000Y-8712200D01*
X5842000Y-8657200D01*
X5787000Y-8712200D01*
X5842000Y-8767200D01*
X5842000Y-9021200D02*
X5897000Y-8966200D01*
X5842000Y-8911200D01*
X5787000Y-8966200D01*
X5842000Y-9021200D01*
X5842000Y-11561200D02*
X5897000Y-11506200D01*
X5842000Y-11451200D01*
X5787000Y-11506200D01*
X5842000Y-11561200D01*
X5842000Y-11815200D02*
X5897000Y-11760200D01*
X5842000Y-11705200D01*
X5787000Y-11760200D01*
X5842000Y-11815200D01*
X6070600Y-6049400D02*
X6125600Y-5994400D01*
X6070600Y-5939400D01*
X6015600Y-5994400D01*
X6070600Y-6049400D01*
X6070600Y-6303400D02*
X6125600Y-6248400D01*
X6070600Y-6193400D01*
X6015600Y-6248400D01*
X6070600Y-6303400D01*
X6070600Y-14355200D02*
X6125600Y-14300200D01*
X6070600Y-14245200D01*
X6015600Y-14300200D01*
X6070600Y-14355200D01*
X6070600Y-14609200D02*
X6125600Y-14554200D01*
X6070600Y-14499200D01*
X6015600Y-14554200D01*
X6070600Y-14609200D01*
X6096000Y-3306200D02*
X6151000Y-3251200D01*
X6096000Y-3196200D01*
X6041000Y-3251200D01*
X6096000Y-3306200D01*
X6096000Y-3560200D02*
X6151000Y-3505200D01*
X6096000Y-3450200D01*
X6041000Y-3505200D01*
X6096000Y-3560200D01*
X6096000Y-8767200D02*
X6151000Y-8712200D01*
X6096000Y-8657200D01*
X6041000Y-8712200D01*
X6096000Y-8767200D01*
X6096000Y-9021200D02*
X6151000Y-8966200D01*
X6096000Y-8911200D01*
X6041000Y-8966200D01*
X6096000Y-9021200D01*
X6096000Y-11561200D02*
X6151000Y-11506200D01*
X6096000Y-11451200D01*
X6041000Y-11506200D01*
X6096000Y-11561200D01*
X6096000Y-11815200D02*
X6151000Y-11760200D01*
X6096000Y-11705200D01*
X6041000Y-11760200D01*
X6096000Y-11815200D01*
X6324600Y-6049400D02*
X6379600Y-5994400D01*
X6324600Y-5939400D01*
X6269600Y-5994400D01*
X6324600Y-6049400D01*
X6324600Y-6303400D02*
X6379600Y-6248400D01*
X6324600Y-6193400D01*
X6269600Y-6248400D01*
X6324600Y-6303400D01*
X6324600Y-14355200D02*
X6379600Y-14300200D01*
X6324600Y-14245200D01*
X6269600Y-14300200D01*
X6324600Y-14355200D01*
X6324600Y-14609200D02*
X6379600Y-14554200D01*
X6324600Y-14499200D01*
X6269600Y-14554200D01*
X6324600Y-14609200D01*
X6350000Y-3306200D02*
X6405000Y-3251200D01*
X6350000Y-3196200D01*
X6295000Y-3251200D01*
X6350000Y-3306200D01*
X6350000Y-3560200D02*
X6405000Y-3505200D01*
X6350000Y-3450200D01*
X6295000Y-3505200D01*
X6350000Y-3560200D01*
X6350000Y-8767200D02*
X6405000Y-8712200D01*
X6350000Y-8657200D01*
X6295000Y-8712200D01*
X6350000Y-8767200D01*
X6350000Y-9021200D02*
X6405000Y-8966200D01*
X6350000Y-8911200D01*
X6295000Y-8966200D01*
X6350000Y-9021200D01*
X6350000Y-11561200D02*
X6405000Y-11506200D01*
X6350000Y-11451200D01*
X6295000Y-11506200D01*
X6350000Y-11561200D01*
X6350000Y-11815200D02*
X6405000Y-11760200D01*
X6350000Y-11705200D01*
X6295000Y-11760200D01*
X6350000Y-11815200D01*
X6578600Y-6049400D02*
X6633600Y-5994400D01*
X6578600Y-5939400D01*
X6523600Y-5994400D01*
X6578600Y-6049400D01*
X6578600Y-6303400D02*
X6633600Y-6248400D01*
X6578600Y-6193400D01*
X6523600Y-6248400D01*
X6578600Y-6303400D01*
X6578600Y-14355200D02*
X6633600Y-14300200D01*
X6578600Y-14245200D01*
X6523600Y-14300200D01*
X6578600Y-14355200D01*
X6578600Y-14609200D02*
X6633600Y-14554200D01*
X6578600Y-14499200D01*
X6523600Y-14554200D01*
X6578600Y-14609200D01*
X6604000Y-3306200D02*
X6659000Y-3251200D01*
X6604000Y-3196200D01*
X6549000Y-3251200D01*
X6604000Y-3306200D01*
X6604000Y-3560200D02*
X6659000Y-3505200D01*
X6604000Y-3450200D01*
X6549000Y-3505200D01*
X6604000Y-3560200D01*
X6604000Y-8767200D02*
X6659000Y-8712200D01*
X6604000Y-8657200D01*
X6549000Y-8712200D01*
X6604000Y-8767200D01*
X6604000Y-9021200D02*
X6659000Y-8966200D01*
X6604000Y-8911200D01*
X6549000Y-8966200D01*
X6604000Y-9021200D01*
X6604000Y-11561200D02*
X6659000Y-11506200D01*
X6604000Y-11451200D01*
X6549000Y-11506200D01*
X6604000Y-11561200D01*
X6604000Y-11815200D02*
X6659000Y-11760200D01*
X6604000Y-11705200D01*
X6549000Y-11760200D01*
X6604000Y-11815200D01*
X6832600Y-6049400D02*
X6887600Y-5994400D01*
X6832600Y-5939400D01*
X6777600Y-5994400D01*
X6832600Y-6049400D01*
X6832600Y-6303400D02*
X6887600Y-6248400D01*
X6832600Y-6193400D01*
X6777600Y-6248400D01*
X6832600Y-6303400D01*
X6832600Y-14355200D02*
X6887600Y-14300200D01*
X6832600Y-14245200D01*
X6777600Y-14300200D01*
X6832600Y-14355200D01*
X6832600Y-14609200D02*
X6887600Y-14554200D01*
X6832600Y-14499200D01*
X6777600Y-14554200D01*
X6832600Y-14609200D01*
X6858000Y-3306200D02*
X6913000Y-3251200D01*
X6858000Y-3196200D01*
X6803000Y-3251200D01*
X6858000Y-3306200D01*
X6858000Y-3560200D02*
X6913000Y-3505200D01*
X6858000Y-3450200D01*
X6803000Y-3505200D01*
X6858000Y-3560200D01*
X6858000Y-8767200D02*
X6913000Y-8712200D01*
X6858000Y-8657200D01*
X6803000Y-8712200D01*
X6858000Y-8767200D01*
X6858000Y-9021200D02*
X6913000Y-8966200D01*
X6858000Y-8911200D01*
X6803000Y-8966200D01*
X6858000Y-9021200D01*
X6858000Y-11561200D02*
X6913000Y-11506200D01*
X6858000Y-11451200D01*
X6803000Y-11506200D01*
X6858000Y-11561200D01*
X6858000Y-11815200D02*
X6913000Y-11760200D01*
X6858000Y-11705200D01*
X6803000Y-11760200D01*
X6858000Y-11815200D01*
X7086600Y-6049400D02*
X7141600Y-5994400D01*
X7086600Y-5939400D01*
X7031600Y-5994400D01*
X7086600Y-6049400D01*
X7086600Y-6303400D02*
X7141600Y-6248400D01*
X7086600Y-6193400D01*
X7031600Y-6248400D01*
X7086600Y-6303400D01*
X7086600Y-14355200D02*
X7141600Y-14300200D01*
X7086600Y-14245200D01*
X7031600Y-14300200D01*
X7086600Y-14355200D01*
X7086600Y-14609200D02*
X7141600Y-14554200D01*
X7086600Y-14499200D01*
X7031600Y-14554200D01*
X7086600Y-14609200D01*
X7112000Y-3306200D02*
X7167000Y-3251200D01*
X7112000Y-3196200D01*
X7057000Y-3251200D01*
X7112000Y-3306200D01*
X7112000Y-3560200D02*
X7167000Y-3505200D01*
X7112000Y-3450200D01*
X7057000Y-3505200D01*
X7112000Y-3560200D01*
X7112000Y-8767200D02*
X7167000Y-8712200D01*
X7112000Y-8657200D01*
X7057000Y-8712200D01*
X7112000Y-8767200D01*
X7112000Y-9021200D02*
X7167000Y-8966200D01*
X7112000Y-8911200D01*
X7057000Y-8966200D01*
X7112000Y-9021200D01*
X7112000Y-11561200D02*
X7167000Y-11506200D01*
X7112000Y-11451200D01*
X7057000Y-11506200D01*
X7112000Y-11561200D01*
X7112000Y-11815200D02*
X7167000Y-11760200D01*
X7112000Y-11705200D01*
X7057000Y-11760200D01*
X7112000Y-11815200D01*
X7340600Y-6049400D02*
X7395600Y-5994400D01*
X7340600Y-5939400D01*
X7285600Y-5994400D01*
X7340600Y-6049400D01*
X7340600Y-6303400D02*
X7395600Y-6248400D01*
X7340600Y-6193400D01*
X7285600Y-6248400D01*
X7340600Y-6303400D01*
X7340600Y-14355200D02*
X7395600Y-14300200D01*
X7340600Y-14245200D01*
X7285600Y-14300200D01*
X7340600Y-14355200D01*
X7340600Y-14609200D02*
X7395600Y-14554200D01*
X7340600Y-14499200D01*
X7285600Y-14554200D01*
X7340600Y-14609200D01*
X7366000Y-3306200D02*
X7421000Y-3251200D01*
X7366000Y-3196200D01*
X7311000Y-3251200D01*
X7366000Y-3306200D01*
X7366000Y-3560200D02*
X7421000Y-3505200D01*
X7366000Y-3450200D01*
X7311000Y-3505200D01*
X7366000Y-3560200D01*
X7366000Y-8767200D02*
X7421000Y-8712200D01*
X7366000Y-8657200D01*
X7311000Y-8712200D01*
X7366000Y-8767200D01*
X7366000Y-9021200D02*
X7421000Y-8966200D01*
X7366000Y-8911200D01*
X7311000Y-8966200D01*
X7366000Y-9021200D01*
X7366000Y-11561200D02*
X7421000Y-11506200D01*
X7366000Y-11451200D01*
X7311000Y-11506200D01*
X7366000Y-11561200D01*
X7366000Y-11815200D02*
X7421000Y-11760200D01*
X7366000Y-11705200D01*
X7311000Y-11760200D01*
X7366000Y-11815200D01*
X7594600Y-6049400D02*
X7649600Y-5994400D01*
X7594600Y-5939400D01*
X7539600Y-5994400D01*
X7594600Y-6049400D01*
X7594600Y-6303400D02*
X7649600Y-6248400D01*
X7594600Y-6193400D01*
X7539600Y-6248400D01*
X7594600Y-6303400D01*
X7594600Y-14355200D02*
X7649600Y-14300200D01*
X7594600Y-14245200D01*
X7539600Y-14300200D01*
X7594600Y-14355200D01*
X7594600Y-14609200D02*
X7649600Y-14554200D01*
X7594600Y-14499200D01*
X7539600Y-14554200D01*
X7594600Y-14609200D01*
X7620000Y-3306200D02*
X7675000Y-3251200D01*
X7620000Y-3196200D01*
X7565000Y-3251200D01*
X7620000Y-3306200D01*
X7620000Y-3560200D02*
X7675000Y-3505200D01*
X7620000Y-3450200D01*
X7565000Y-3505200D01*
X7620000Y-3560200D01*
X7620000Y-8767200D02*
X7675000Y-8712200D01*
X7620000Y-8657200D01*
X7565000Y-8712200D01*
X7620000Y-8767200D01*
X7620000Y-9021200D02*
X7675000Y-8966200D01*
X7620000Y-8911200D01*
X7565000Y-8966200D01*
X7620000Y-9021200D01*
X7620000Y-11561200D02*
X7675000Y-11506200D01*
X7620000Y-11451200D01*
X7565000Y-11506200D01*
X7620000Y-11561200D01*
X7620000Y-11815200D02*
X7675000Y-11760200D01*
X7620000Y-11705200D01*
X7565000Y-11760200D01*
X7620000Y-11815200D01*
X7848600Y-6049400D02*
X7903600Y-5994400D01*
X7848600Y-5939400D01*
X7793600Y-5994400D01*
X7848600Y-6049400D01*
X7848600Y-6303400D02*
X7903600Y-6248400D01*
X7848600Y-6193400D01*
X7793600Y-6248400D01*
X7848600Y-6303400D01*
X7848600Y-14355200D02*
X7903600Y-14300200D01*
X7848600Y-14245200D01*
X7793600Y-14300200D01*
X7848600Y-14355200D01*
X7848600Y-14609200D02*
X7903600Y-14554200D01*
X7848600Y-14499200D01*
X7793600Y-14554200D01*
X7848600Y-14609200D01*
X7874000Y-3306200D02*
X7929000Y-3251200D01*
X7874000Y-3196200D01*
X7819000Y-3251200D01*
X7874000Y-3306200D01*
X7874000Y-3560200D02*
X7929000Y-3505200D01*
X7874000Y-3450200D01*
X7819000Y-3505200D01*
X7874000Y-3560200D01*
X7874000Y-8767200D02*
X7929000Y-8712200D01*
X7874000Y-8657200D01*
X7819000Y-8712200D01*
X7874000Y-8767200D01*
X7874000Y-9021200D02*
X7929000Y-8966200D01*
X7874000Y-8911200D01*
X7819000Y-8966200D01*
X7874000Y-9021200D01*
X7874000Y-11561200D02*
X7929000Y-11506200D01*
X7874000Y-11451200D01*
X7819000Y-11506200D01*
X7874000Y-11561200D01*
X7874000Y-11815200D02*
X7929000Y-11760200D01*
X7874000Y-11705200D01*
X7819000Y-11760200D01*
X7874000Y-11815200D01*
X8102600Y-6049400D02*
X8157600Y-5994400D01*
X8102600Y-5939400D01*
X8047600Y-5994400D01*
X8102600Y-6049400D01*
X8102600Y-6303400D02*
X8157600Y-6248400D01*
X8102600Y-6193400D01*
X8047600Y-6248400D01*
X8102600Y-6303400D01*
X8102600Y-14355200D02*
X8157600Y-14300200D01*
X8102600Y-14245200D01*
X8047600Y-14300200D01*
X8102600Y-14355200D01*
X8102600Y-14609200D02*
X8157600Y-14554200D01*
X8102600Y-14499200D01*
X8047600Y-14554200D01*
X8102600Y-14609200D01*
X8128000Y-3306200D02*
X8183000Y-3251200D01*
X8128000Y-3196200D01*
X8073000Y-3251200D01*
X8128000Y-3306200D01*
X8128000Y-3560200D02*
X8183000Y-3505200D01*
X8128000Y-3450200D01*
X8073000Y-3505200D01*
X8128000Y-3560200D01*
X8128000Y-8767200D02*
X8183000Y-8712200D01*
X8128000Y-8657200D01*
X8073000Y-8712200D01*
X8128000Y-8767200D01*
X8128000Y-9021200D02*
X8183000Y-8966200D01*
X8128000Y-8911200D01*
X8073000Y-8966200D01*
X8128000Y-9021200D01*
X8128000Y-11561200D02*
X8183000Y-11506200D01*
X8128000Y-11451200D01*
X8073000Y-11506200D01*
X8128000Y-11561200D01*
X8128000Y-11815200D02*
X8183000Y-11760200D01*
X8128000Y-11705200D01*
X8073000Y-11760200D01*
X8128000Y-11815200D01*
X8356600Y-6049400D02*
X8411600Y-5994400D01*
X8356600Y-5939400D01*
X8301600Y-5994400D01*
X8356600Y-6049400D01*
X8356600Y-6303400D02*
X8411600Y-6248400D01*
X8356600Y-6193400D01*
X8301600Y-6248400D01*
X8356600Y-6303400D01*
X8356600Y-14355200D02*
X8411600Y-14300200D01*
X8356600Y-14245200D01*
X8301600Y-14300200D01*
X8356600Y-14355200D01*
X8356600Y-14609200D02*
X8411600Y-14554200D01*
X8356600Y-14499200D01*
X8301600Y-14554200D01*
X8356600Y-14609200D01*
X8382000Y-3306200D02*
X8437000Y-3251200D01*
X8382000Y-3196200D01*
X8327000Y-3251200D01*
X8382000Y-3306200D01*
X8382000Y-3560200D02*
X8437000Y-3505200D01*
X8382000Y-3450200D01*
X8327000Y-3505200D01*
X8382000Y-3560200D01*
X8382000Y-8767200D02*
X8437000Y-8712200D01*
X8382000Y-8657200D01*
X8327000Y-8712200D01*
X8382000Y-8767200D01*
X8382000Y-9021200D02*
X8437000Y-8966200D01*
X8382000Y-8911200D01*
X8327000Y-8966200D01*
X8382000Y-9021200D01*
X8382000Y-11561200D02*
X8437000Y-11506200D01*
X8382000Y-11451200D01*
X8327000Y-11506200D01*
X8382000Y-11561200D01*
X8382000Y-11815200D02*
X8437000Y-11760200D01*
X8382000Y-11705200D01*
X8327000Y-11760200D01*
X8382000Y-11815200D01*
X8610600Y-6049400D02*
X8665600Y-5994400D01*
X8610600Y-5939400D01*
X8555600Y-5994400D01*
X8610600Y-6049400D01*
X8610600Y-6303400D02*
X8665600Y-6248400D01*
X8610600Y-6193400D01*
X8555600Y-6248400D01*
X8610600Y-6303400D01*
X8610600Y-14355200D02*
X8665600Y-14300200D01*
X8610600Y-14245200D01*
X8555600Y-14300200D01*
X8610600Y-14355200D01*
X8610600Y-14609200D02*
X8665600Y-14554200D01*
X8610600Y-14499200D01*
X8555600Y-14554200D01*
X8610600Y-14609200D01*
X8636000Y-3306200D02*
X8691000Y-3251200D01*
X8636000Y-3196200D01*
X8581000Y-3251200D01*
X8636000Y-3306200D01*
X8636000Y-3560200D02*
X8691000Y-3505200D01*
X8636000Y-3450200D01*
X8581000Y-3505200D01*
X8636000Y-3560200D01*
X8636000Y-8767200D02*
X8691000Y-8712200D01*
X8636000Y-8657200D01*
X8581000Y-8712200D01*
X8636000Y-8767200D01*
X8636000Y-9021200D02*
X8691000Y-8966200D01*
X8636000Y-8911200D01*
X8581000Y-8966200D01*
X8636000Y-9021200D01*
X8636000Y-11561200D02*
X8691000Y-11506200D01*
X8636000Y-11451200D01*
X8581000Y-11506200D01*
X8636000Y-11561200D01*
X8636000Y-11815200D02*
X8691000Y-11760200D01*
X8636000Y-11705200D01*
X8581000Y-11760200D01*
X8636000Y-11815200D01*
X8864600Y-6049400D02*
X8919600Y-5994400D01*
X8864600Y-5939400D01*
X8809600Y-5994400D01*
X8864600Y-6049400D01*
X8864600Y-6303400D02*
X8919600Y-6248400D01*
X8864600Y-6193400D01*
X8809600Y-6248400D01*
X8864600Y-6303400D01*
X8864600Y-14355200D02*
X8919600Y-14300200D01*
X8864600Y-14245200D01*
X8809600Y-14300200D01*
X8864600Y-14355200D01*
X8864600Y-14609200D02*
X8919600Y-14554200D01*
X8864600Y-14499200D01*
X8809600Y-14554200D01*
X8864600Y-14609200D01*
X8890000Y-3306200D02*
X8945000Y-3251200D01*
X8890000Y-3196200D01*
X8835000Y-3251200D01*
X8890000Y-3306200D01*
X8890000Y-3560200D02*
X8945000Y-3505200D01*
X8890000Y-3450200D01*
X8835000Y-3505200D01*
X8890000Y-3560200D01*
X8890000Y-8767200D02*
X8945000Y-8712200D01*
X8890000Y-8657200D01*
X8835000Y-8712200D01*
X8890000Y-8767200D01*
X8890000Y-9021200D02*
X8945000Y-8966200D01*
X8890000Y-8911200D01*
X8835000Y-8966200D01*
X8890000Y-9021200D01*
X8890000Y-11561200D02*
X8945000Y-11506200D01*
X8890000Y-11451200D01*
X8835000Y-11506200D01*
X8890000Y-11561200D01*
X8890000Y-11815200D02*
X8945000Y-11760200D01*
X8890000Y-11705200D01*
X8835000Y-11760200D01*
X8890000Y-11815200D01*
X9118600Y-6049400D02*
X9173600Y-5994400D01*
X9118600Y-5939400D01*
X9063600Y-5994400D01*
X9118600Y-6049400D01*
X9118600Y-6303400D02*
X9173600Y-6248400D01*
X9118600Y-6193400D01*
X9063600Y-6248400D01*
X9118600Y-6303400D01*
X9118600Y-14355200D02*
X9173600Y-14300200D01*
X9118600Y-14245200D01*
X9063600Y-14300200D01*
X9118600Y-14355200D01*
X9118600Y-14609200D02*
X9173600Y-14554200D01*
X9118600Y-14499200D01*
X9063600Y-14554200D01*
X9118600Y-14609200D01*
X9144000Y-3306200D02*
X9199000Y-3251200D01*
X9144000Y-3196200D01*
X9089000Y-3251200D01*
X9144000Y-3306200D01*
X9144000Y-3560200D02*
X9199000Y-3505200D01*
X9144000Y-3450200D01*
X9089000Y-3505200D01*
X9144000Y-3560200D01*
X9144000Y-8767200D02*
X9199000Y-8712200D01*
X9144000Y-8657200D01*
X9089000Y-8712200D01*
X9144000Y-8767200D01*
X9144000Y-9021200D02*
X9199000Y-8966200D01*
X9144000Y-8911200D01*
X9089000Y-8966200D01*
X9144000Y-9021200D01*
X9144000Y-11561200D02*
X9199000Y-11506200D01*
X9144000Y-11451200D01*
X9089000Y-11506200D01*
X9144000Y-11561200D01*
X9144000Y-11815200D02*
X9199000Y-11760200D01*
X9144000Y-11705200D01*
X9089000Y-11760200D01*
X9144000Y-11815200D01*
X15748000Y-7294000D02*
X15803000Y-7239000D01*
X15748000Y-7184000D01*
X15693000Y-7239000D01*
X15748000Y-7294000D01*
X15748000Y-7548000D02*
X15803000Y-7493000D01*
X15748000Y-7438000D01*
X15693000Y-7493000D01*
X15748000Y-7548000D01*
X15748000Y-7802000D02*
X15803000Y-7747000D01*
X15748000Y-7692000D01*
X15693000Y-7747000D01*
X15748000Y-7802000D01*
X15748000Y-8056000D02*
X15803000Y-8001000D01*
X15748000Y-7946000D01*
X15693000Y-8001000D01*
X15748000Y-8056000D01*
X15748000Y-8310000D02*
X15803000Y-8255000D01*
X15748000Y-8200000D01*
X15693000Y-8255000D01*
X15748000Y-8310000D01*
X15748000Y-8564000D02*
X15803000Y-8509000D01*
X15748000Y-8454000D01*
X15693000Y-8509000D01*
X15748000Y-8564000D01*
X15748000Y-8818000D02*
X15803000Y-8763000D01*
X15748000Y-8708000D01*
X15693000Y-8763000D01*
X15748000Y-8818000D01*
X15748000Y-9072000D02*
X15803000Y-9017000D01*
X15748000Y-8962000D01*
X15693000Y-9017000D01*
X15748000Y-9072000D01*
X15748000Y-9326000D02*
X15803000Y-9271000D01*
X15748000Y-9216000D01*
X15693000Y-9271000D01*
X15748000Y-9326000D01*
X15748000Y-9580000D02*
X15803000Y-9525000D01*
X15748000Y-9470000D01*
X15693000Y-9525000D01*
X15748000Y-9580000D01*
X15748000Y-9834000D02*
X15803000Y-9779000D01*
X15748000Y-9724000D01*
X15693000Y-9779000D01*
X15748000Y-9834000D01*
X15748000Y-10088000D02*
X15803000Y-10033000D01*
X15748000Y-9978000D01*
X15693000Y-10033000D01*
X15748000Y-10088000D01*
X15748000Y-10342000D02*
X15803000Y-10287000D01*
X15748000Y-10232000D01*
X15693000Y-10287000D01*
X15748000Y-10342000D01*
X15748000Y-10596000D02*
X15803000Y-10541000D01*
X15748000Y-10486000D01*
X15693000Y-10541000D01*
X15748000Y-10596000D01*
X15748000Y-10850000D02*
X15803000Y-10795000D01*
X15748000Y-10740000D01*
X15693000Y-10795000D01*
X15748000Y-10850000D01*
X15748000Y-11104000D02*
X15803000Y-11049000D01*
X15748000Y-10994000D01*
X15693000Y-11049000D01*
X15748000Y-11104000D01*
X15748000Y-11358000D02*
X15803000Y-11303000D01*
X15748000Y-11248000D01*
X15693000Y-11303000D01*
X15748000Y-11358000D01*
X15748000Y-11612000D02*
X15803000Y-11557000D01*
X15748000Y-11502000D01*
X15693000Y-11557000D01*
X15748000Y-11612000D01*
X15748000Y-11866000D02*
X15803000Y-11811000D01*
X15748000Y-11756000D01*
X15693000Y-11811000D01*
X15748000Y-11866000D01*
X15748000Y-12120000D02*
X15803000Y-12065000D01*
X15748000Y-12010000D01*
X15693000Y-12065000D01*
X15748000Y-12120000D01*
X15748000Y-12374000D02*
X15803000Y-12319000D01*
X15748000Y-12264000D01*
X15693000Y-12319000D01*
X15748000Y-12374000D01*
X15748000Y-12628000D02*
X15803000Y-12573000D01*
X15748000Y-12518000D01*
X15693000Y-12573000D01*
X15748000Y-12628000D01*
X15748000Y-12882000D02*
X15803000Y-12827000D01*
X15748000Y-12772000D01*
X15693000Y-12827000D01*
X15748000Y-12882000D01*
X15834000Y-2330000D02*
X15889000Y-2275000D01*
X15834000Y-2220000D01*
X15779000Y-2275000D01*
X15834000Y-2330000D01*
X16002000Y-7294000D02*
X16057000Y-7239000D01*
X16002000Y-7184000D01*
X15947000Y-7239000D01*
X16002000Y-7294000D01*
X16002000Y-7548000D02*
X16057000Y-7493000D01*
X16002000Y-7438000D01*
X15947000Y-7493000D01*
X16002000Y-7548000D01*
X16002000Y-7802000D02*
X16057000Y-7747000D01*
X16002000Y-7692000D01*
X15947000Y-7747000D01*
X16002000Y-7802000D01*
X16002000Y-8056000D02*
X16057000Y-8001000D01*
X16002000Y-7946000D01*
X15947000Y-8001000D01*
X16002000Y-8056000D01*
X16002000Y-8310000D02*
X16057000Y-8255000D01*
X16002000Y-8200000D01*
X15947000Y-8255000D01*
X16002000Y-8310000D01*
X16002000Y-8564000D02*
X16057000Y-8509000D01*
X16002000Y-8454000D01*
X15947000Y-8509000D01*
X16002000Y-8564000D01*
X16002000Y-8818000D02*
X16057000Y-8763000D01*
X16002000Y-8708000D01*
X15947000Y-8763000D01*
X16002000Y-8818000D01*
X16002000Y-9072000D02*
X16057000Y-9017000D01*
X16002000Y-8962000D01*
X15947000Y-9017000D01*
X16002000Y-9072000D01*
X16002000Y-9326000D02*
X16057000Y-9271000D01*
X16002000Y-9216000D01*
X15947000Y-9271000D01*
X16002000Y-9326000D01*
X16002000Y-9580000D02*
X16057000Y-9525000D01*
X16002000Y-9470000D01*
X15947000Y-9525000D01*
X16002000Y-9580000D01*
X16002000Y-9834000D02*
X16057000Y-9779000D01*
X16002000Y-9724000D01*
X15947000Y-9779000D01*
X16002000Y-9834000D01*
X16002000Y-10088000D02*
X16057000Y-10033000D01*
X16002000Y-9978000D01*
X15947000Y-10033000D01*
X16002000Y-10088000D01*
X16002000Y-10342000D02*
X16057000Y-10287000D01*
X16002000Y-10232000D01*
X15947000Y-10287000D01*
X16002000Y-10342000D01*
X16002000Y-10596000D02*
X16057000Y-10541000D01*
X16002000Y-10486000D01*
X15947000Y-10541000D01*
X16002000Y-10596000D01*
X16002000Y-10850000D02*
X16057000Y-10795000D01*
X16002000Y-10740000D01*
X15947000Y-10795000D01*
X16002000Y-10850000D01*
X16002000Y-11104000D02*
X16057000Y-11049000D01*
X16002000Y-10994000D01*
X15947000Y-11049000D01*
X16002000Y-11104000D01*
X16002000Y-11358000D02*
X16057000Y-11303000D01*
X16002000Y-11248000D01*
X15947000Y-11303000D01*
X16002000Y-11358000D01*
X16002000Y-11612000D02*
X16057000Y-11557000D01*
X16002000Y-11502000D01*
X15947000Y-11557000D01*
X16002000Y-11612000D01*
X16002000Y-11866000D02*
X16057000Y-11811000D01*
X16002000Y-11756000D01*
X15947000Y-11811000D01*
X16002000Y-11866000D01*
X16002000Y-12120000D02*
X16057000Y-12065000D01*
X16002000Y-12010000D01*
X15947000Y-12065000D01*
X16002000Y-12120000D01*
X16002000Y-12374000D02*
X16057000Y-12319000D01*
X16002000Y-12264000D01*
X15947000Y-12319000D01*
X16002000Y-12374000D01*
X16002000Y-12628000D02*
X16057000Y-12573000D01*
X16002000Y-12518000D01*
X15947000Y-12573000D01*
X16002000Y-12628000D01*
X16002000Y-12882000D02*
X16057000Y-12827000D01*
X16002000Y-12772000D01*
X15947000Y-12827000D01*
X16002000Y-12882000D01*
X16088000Y-2330000D02*
X16143000Y-2275000D01*
X16088000Y-2220000D01*
X16033000Y-2275000D01*
X16088000Y-2330000D01*
X16342000Y-2330000D02*
X16397000Y-2275000D01*
X16342000Y-2220000D01*
X16287000Y-2275000D01*
X16342000Y-2330000D01*
X16573500Y-7294000D02*
X16628500Y-7239000D01*
X16573500Y-7184000D01*
X16518500Y-7239000D01*
X16573500Y-7294000D01*
X16573500Y-7548000D02*
X16628500Y-7493000D01*
X16573500Y-7438000D01*
X16518500Y-7493000D01*
X16573500Y-7548000D01*
X16573500Y-7802000D02*
X16628500Y-7747000D01*
X16573500Y-7692000D01*
X16518500Y-7747000D01*
X16573500Y-7802000D01*
X16573500Y-8056000D02*
X16628500Y-8001000D01*
X16573500Y-7946000D01*
X16518500Y-8001000D01*
X16573500Y-8056000D01*
X16573500Y-8310000D02*
X16628500Y-8255000D01*
X16573500Y-8200000D01*
X16518500Y-8255000D01*
X16573500Y-8310000D01*
X16573500Y-8564000D02*
X16628500Y-8509000D01*
X16573500Y-8454000D01*
X16518500Y-8509000D01*
X16573500Y-8564000D01*
X16573500Y-8818000D02*
X16628500Y-8763000D01*
X16573500Y-8708000D01*
X16518500Y-8763000D01*
X16573500Y-8818000D01*
X16573500Y-9072000D02*
X16628500Y-9017000D01*
X16573500Y-8962000D01*
X16518500Y-9017000D01*
X16573500Y-9072000D01*
X16573500Y-9326000D02*
X16628500Y-9271000D01*
X16573500Y-9216000D01*
X16518500Y-9271000D01*
X16573500Y-9326000D01*
X16573500Y-9580000D02*
X16628500Y-9525000D01*
X16573500Y-9470000D01*
X16518500Y-9525000D01*
X16573500Y-9580000D01*
X16573500Y-9834000D02*
X16628500Y-9779000D01*
X16573500Y-9724000D01*
X16518500Y-9779000D01*
X16573500Y-9834000D01*
X16573500Y-10088000D02*
X16628500Y-10033000D01*
X16573500Y-9978000D01*
X16518500Y-10033000D01*
X16573500Y-10088000D01*
X16573500Y-10342000D02*
X16628500Y-10287000D01*
X16573500Y-10232000D01*
X16518500Y-10287000D01*
X16573500Y-10342000D01*
X16573500Y-10596000D02*
X16628500Y-10541000D01*
X16573500Y-10486000D01*
X16518500Y-10541000D01*
X16573500Y-10596000D01*
X16573500Y-10850000D02*
X16628500Y-10795000D01*
X16573500Y-10740000D01*
X16518500Y-10795000D01*
X16573500Y-10850000D01*
X16573500Y-11104000D02*
X16628500Y-11049000D01*
X16573500Y-10994000D01*
X16518500Y-11049000D01*
X16573500Y-11104000D01*
X16573500Y-11358000D02*
X16628500Y-11303000D01*
X16573500Y-11248000D01*
X16518500Y-11303000D01*
X16573500Y-11358000D01*
X16573500Y-11612000D02*
X16628500Y-11557000D01*
X16573500Y-11502000D01*
X16518500Y-11557000D01*
X16573500Y-11612000D01*
X16573500Y-11866000D02*
X16628500Y-11811000D01*
X16573500Y-11756000D01*
X16518500Y-11811000D01*
X16573500Y-11866000D01*
X16573500Y-12120000D02*
X16628500Y-12065000D01*
X16573500Y-12010000D01*
X16518500Y-12065000D01*
X16573500Y-12120000D01*
X16573500Y-12374000D02*
X16628500Y-12319000D01*
X16573500Y-12264000D01*
X16518500Y-12319000D01*
X16573500Y-12374000D01*
X16573500Y-12628000D02*
X16628500Y-12573000D01*
X16573500Y-12518000D01*
X16518500Y-12573000D01*
X16573500Y-12628000D01*
X16573500Y-12882000D02*
X16628500Y-12827000D01*
X16573500Y-12772000D01*
X16518500Y-12827000D01*
X16573500Y-12882000D01*
X16596000Y-2330000D02*
X16651000Y-2275000D01*
X16596000Y-2220000D01*
X16541000Y-2275000D01*
X16596000Y-2330000D01*
X16827500Y-7294000D02*
X16882500Y-7239000D01*
X16827500Y-7184000D01*
X16772500Y-7239000D01*
X16827500Y-7294000D01*
X16827500Y-7548000D02*
X16882500Y-7493000D01*
X16827500Y-7438000D01*
X16772500Y-7493000D01*
X16827500Y-7548000D01*
X16827500Y-7802000D02*
X16882500Y-7747000D01*
X16827500Y-7692000D01*
X16772500Y-7747000D01*
X16827500Y-7802000D01*
X16827500Y-8056000D02*
X16882500Y-8001000D01*
X16827500Y-7946000D01*
X16772500Y-8001000D01*
X16827500Y-8056000D01*
X16827500Y-8310000D02*
X16882500Y-8255000D01*
X16827500Y-8200000D01*
X16772500Y-8255000D01*
X16827500Y-8310000D01*
X16827500Y-8564000D02*
X16882500Y-8509000D01*
X16827500Y-8454000D01*
X16772500Y-8509000D01*
X16827500Y-8564000D01*
X16827500Y-8818000D02*
X16882500Y-8763000D01*
X16827500Y-8708000D01*
X16772500Y-8763000D01*
X16827500Y-8818000D01*
X16827500Y-9072000D02*
X16882500Y-9017000D01*
X16827500Y-8962000D01*
X16772500Y-9017000D01*
X16827500Y-9072000D01*
X16827500Y-9326000D02*
X16882500Y-9271000D01*
X16827500Y-9216000D01*
X16772500Y-9271000D01*
X16827500Y-9326000D01*
X16827500Y-9580000D02*
X16882500Y-9525000D01*
X16827500Y-9470000D01*
X16772500Y-9525000D01*
X16827500Y-9580000D01*
X16827500Y-9834000D02*
X16882500Y-9779000D01*
X16827500Y-9724000D01*
X16772500Y-9779000D01*
X16827500Y-9834000D01*
X16827500Y-10088000D02*
X16882500Y-10033000D01*
X16827500Y-9978000D01*
X16772500Y-10033000D01*
X16827500Y-10088000D01*
X16827500Y-10342000D02*
X16882500Y-10287000D01*
X16827500Y-10232000D01*
X16772500Y-10287000D01*
X16827500Y-10342000D01*
X16827500Y-10596000D02*
X16882500Y-10541000D01*
X16827500Y-10486000D01*
X16772500Y-10541000D01*
X16827500Y-10596000D01*
X16827500Y-10850000D02*
X16882500Y-10795000D01*
X16827500Y-10740000D01*
X16772500Y-10795000D01*
X16827500Y-10850000D01*
X16827500Y-11104000D02*
X16882500Y-11049000D01*
X16827500Y-10994000D01*
X16772500Y-11049000D01*
X16827500Y-11104000D01*
X16827500Y-11358000D02*
X16882500Y-11303000D01*
X16827500Y-11248000D01*
X16772500Y-11303000D01*
X16827500Y-11358000D01*
X16827500Y-11612000D02*
X16882500Y-11557000D01*
X16827500Y-11502000D01*
X16772500Y-11557000D01*
X16827500Y-11612000D01*
X16827500Y-11866000D02*
X16882500Y-11811000D01*
X16827500Y-11756000D01*
X16772500Y-11811000D01*
X16827500Y-11866000D01*
X16827500Y-12120000D02*
X16882500Y-12065000D01*
X16827500Y-12010000D01*
X16772500Y-12065000D01*
X16827500Y-12120000D01*
X16827500Y-12374000D02*
X16882500Y-12319000D01*
X16827500Y-12264000D01*
X16772500Y-12319000D01*
X16827500Y-12374000D01*
X16827500Y-12628000D02*
X16882500Y-12573000D01*
X16827500Y-12518000D01*
X16772500Y-12573000D01*
X16827500Y-12628000D01*
X16827500Y-12882000D02*
X16882500Y-12827000D01*
X16827500Y-12772000D01*
X16772500Y-12827000D01*
X16827500Y-12882000D01*
X17399000Y-7294000D02*
X17454000Y-7239000D01*
X17399000Y-7184000D01*
X17344000Y-7239000D01*
X17399000Y-7294000D01*
X17399000Y-7548000D02*
X17454000Y-7493000D01*
X17399000Y-7438000D01*
X17344000Y-7493000D01*
X17399000Y-7548000D01*
X17399000Y-7802000D02*
X17454000Y-7747000D01*
X17399000Y-7692000D01*
X17344000Y-7747000D01*
X17399000Y-7802000D01*
X17399000Y-8056000D02*
X17454000Y-8001000D01*
X17399000Y-7946000D01*
X17344000Y-8001000D01*
X17399000Y-8056000D01*
X17399000Y-8310000D02*
X17454000Y-8255000D01*
X17399000Y-8200000D01*
X17344000Y-8255000D01*
X17399000Y-8310000D01*
X17399000Y-8564000D02*
X17454000Y-8509000D01*
X17399000Y-8454000D01*
X17344000Y-8509000D01*
X17399000Y-8564000D01*
X17399000Y-8818000D02*
X17454000Y-8763000D01*
X17399000Y-8708000D01*
X17344000Y-8763000D01*
X17399000Y-8818000D01*
X17399000Y-9072000D02*
X17454000Y-9017000D01*
X17399000Y-8962000D01*
X17344000Y-9017000D01*
X17399000Y-9072000D01*
X17399000Y-9326000D02*
X17454000Y-9271000D01*
X17399000Y-9216000D01*
X17344000Y-9271000D01*
X17399000Y-9326000D01*
X17399000Y-9580000D02*
X17454000Y-9525000D01*
X17399000Y-9470000D01*
X17344000Y-9525000D01*
X17399000Y-9580000D01*
X17399000Y-9834000D02*
X17454000Y-9779000D01*
X17399000Y-9724000D01*
X17344000Y-9779000D01*
X17399000Y-9834000D01*
X17399000Y-10088000D02*
X17454000Y-10033000D01*
X17399000Y-9978000D01*
X17344000Y-10033000D01*
X17399000Y-10088000D01*
X17399000Y-10342000D02*
X17454000Y-10287000D01*
X17399000Y-10232000D01*
X17344000Y-10287000D01*
X17399000Y-10342000D01*
X17399000Y-10596000D02*
X17454000Y-10541000D01*
X17399000Y-10486000D01*
X17344000Y-10541000D01*
X17399000Y-10596000D01*
X17399000Y-10850000D02*
X17454000Y-10795000D01*
X17399000Y-10740000D01*
X17344000Y-10795000D01*
X17399000Y-10850000D01*
X17399000Y-11104000D02*
X17454000Y-11049000D01*
X17399000Y-10994000D01*
X17344000Y-11049000D01*
X17399000Y-11104000D01*
X17399000Y-11358000D02*
X17454000Y-11303000D01*
X17399000Y-11248000D01*
X17344000Y-11303000D01*
X17399000Y-11358000D01*
X17399000Y-11612000D02*
X17454000Y-11557000D01*
X17399000Y-11502000D01*
X17344000Y-11557000D01*
X17399000Y-11612000D01*
X17399000Y-11866000D02*
X17454000Y-11811000D01*
X17399000Y-11756000D01*
X17344000Y-11811000D01*
X17399000Y-11866000D01*
X17399000Y-12120000D02*
X17454000Y-12065000D01*
X17399000Y-12010000D01*
X17344000Y-12065000D01*
X17399000Y-12120000D01*
X17399000Y-12374000D02*
X17454000Y-12319000D01*
X17399000Y-12264000D01*
X17344000Y-12319000D01*
X17399000Y-12374000D01*
X17399000Y-12628000D02*
X17454000Y-12573000D01*
X17399000Y-12518000D01*
X17344000Y-12573000D01*
X17399000Y-12628000D01*
X17399000Y-12882000D02*
X17454000Y-12827000D01*
X17399000Y-12772000D01*
X17344000Y-12827000D01*
X17399000Y-12882000D01*
X17474344Y-2305600D02*
X17529344Y-2250600D01*
X17474344Y-2195600D01*
X17419344Y-2250600D01*
X17474344Y-2305600D01*
X17653000Y-7294000D02*
X17708000Y-7239000D01*
X17653000Y-7184000D01*
X17598000Y-7239000D01*
X17653000Y-7294000D01*
X17653000Y-7548000D02*
X17708000Y-7493000D01*
X17653000Y-7438000D01*
X17598000Y-7493000D01*
X17653000Y-7548000D01*
X17653000Y-7802000D02*
X17708000Y-7747000D01*
X17653000Y-7692000D01*
X17598000Y-7747000D01*
X17653000Y-7802000D01*
X17653000Y-8056000D02*
X17708000Y-8001000D01*
X17653000Y-7946000D01*
X17598000Y-8001000D01*
X17653000Y-8056000D01*
X17653000Y-8310000D02*
X17708000Y-8255000D01*
X17653000Y-8200000D01*
X17598000Y-8255000D01*
X17653000Y-8310000D01*
X17653000Y-8564000D02*
X17708000Y-8509000D01*
X17653000Y-8454000D01*
X17598000Y-8509000D01*
X17653000Y-8564000D01*
X17653000Y-8818000D02*
X17708000Y-8763000D01*
X17653000Y-8708000D01*
X17598000Y-8763000D01*
X17653000Y-8818000D01*
X17653000Y-9072000D02*
X17708000Y-9017000D01*
X17653000Y-8962000D01*
X17598000Y-9017000D01*
X17653000Y-9072000D01*
X17653000Y-9326000D02*
X17708000Y-9271000D01*
X17653000Y-9216000D01*
X17598000Y-9271000D01*
X17653000Y-9326000D01*
X17653000Y-9580000D02*
X17708000Y-9525000D01*
X17653000Y-9470000D01*
X17598000Y-9525000D01*
X17653000Y-9580000D01*
X17653000Y-9834000D02*
X17708000Y-9779000D01*
X17653000Y-9724000D01*
X17598000Y-9779000D01*
X17653000Y-9834000D01*
X17653000Y-10088000D02*
X17708000Y-10033000D01*
X17653000Y-9978000D01*
X17598000Y-10033000D01*
X17653000Y-10088000D01*
X17653000Y-10342000D02*
X17708000Y-10287000D01*
X17653000Y-10232000D01*
X17598000Y-10287000D01*
X17653000Y-10342000D01*
X17653000Y-10596000D02*
X17708000Y-10541000D01*
X17653000Y-10486000D01*
X17598000Y-10541000D01*
X17653000Y-10596000D01*
X17653000Y-10850000D02*
X17708000Y-10795000D01*
X17653000Y-10740000D01*
X17598000Y-10795000D01*
X17653000Y-10850000D01*
X17653000Y-11104000D02*
X17708000Y-11049000D01*
X17653000Y-10994000D01*
X17598000Y-11049000D01*
X17653000Y-11104000D01*
X17653000Y-11358000D02*
X17708000Y-11303000D01*
X17653000Y-11248000D01*
X17598000Y-11303000D01*
X17653000Y-11358000D01*
X17653000Y-11612000D02*
X17708000Y-11557000D01*
X17653000Y-11502000D01*
X17598000Y-11557000D01*
X17653000Y-11612000D01*
X17653000Y-11866000D02*
X17708000Y-11811000D01*
X17653000Y-11756000D01*
X17598000Y-11811000D01*
X17653000Y-11866000D01*
X17653000Y-12120000D02*
X17708000Y-12065000D01*
X17653000Y-12010000D01*
X17598000Y-12065000D01*
X17653000Y-12120000D01*
X17653000Y-12374000D02*
X17708000Y-12319000D01*
X17653000Y-12264000D01*
X17598000Y-12319000D01*
X17653000Y-12374000D01*
X17653000Y-12628000D02*
X17708000Y-12573000D01*
X17653000Y-12518000D01*
X17598000Y-12573000D01*
X17653000Y-12628000D01*
X17653000Y-12882000D02*
X17708000Y-12827000D01*
X17653000Y-12772000D01*
X17598000Y-12827000D01*
X17653000Y-12882000D01*
X17728344Y-2305600D02*
X17783344Y-2250600D01*
X17728344Y-2195600D01*
X17673344Y-2250600D01*
X17728344Y-2305600D01*
X17982344Y-2305600D02*
X18037344Y-2250600D01*
X17982344Y-2195600D01*
X17927344Y-2250600D01*
X17982344Y-2305600D01*
X18236344Y-2305600D02*
X18291344Y-2250600D01*
X18236344Y-2195600D01*
X18181344Y-2250600D01*
X18236344Y-2305600D01*
X19341020Y-2313060D02*
X19396020Y-2258060D01*
X19341020Y-2203060D01*
X19286020Y-2258060D01*
X19341020Y-2313060D01*
X19532600Y-8701160D02*
X19587600Y-8646160D01*
X19532600Y-8591160D01*
X19477600Y-8646160D01*
X19532600Y-8701160D01*
X19532600Y-8955160D02*
X19587600Y-8900160D01*
X19532600Y-8845160D01*
X19477600Y-8900160D01*
X19532600Y-8955160D01*
X19532600Y-9209160D02*
X19587600Y-9154160D01*
X19532600Y-9099160D01*
X19477600Y-9154160D01*
X19532600Y-9209160D01*
X19532600Y-9463160D02*
X19587600Y-9408160D01*
X19532600Y-9353160D01*
X19477600Y-9408160D01*
X19532600Y-9463160D01*
X19532600Y-9717160D02*
X19587600Y-9662160D01*
X19532600Y-9607160D01*
X19477600Y-9662160D01*
X19532600Y-9717160D01*
X19532600Y-9971160D02*
X19587600Y-9916160D01*
X19532600Y-9861160D01*
X19477600Y-9916160D01*
X19532600Y-9971160D01*
X19532600Y-10225160D02*
X19587600Y-10170160D01*
X19532600Y-10115160D01*
X19477600Y-10170160D01*
X19532600Y-10225160D01*
X19532600Y-10479160D02*
X19587600Y-10424160D01*
X19532600Y-10369160D01*
X19477600Y-10424160D01*
X19532600Y-10479160D01*
X19532600Y-10733160D02*
X19587600Y-10678160D01*
X19532600Y-10623160D01*
X19477600Y-10678160D01*
X19532600Y-10733160D01*
X19532600Y-10987160D02*
X19587600Y-10932160D01*
X19532600Y-10877160D01*
X19477600Y-10932160D01*
X19532600Y-10987160D01*
X19532600Y-11241160D02*
X19587600Y-11186160D01*
X19532600Y-11131160D01*
X19477600Y-11186160D01*
X19532600Y-11241160D01*
X19532600Y-11495160D02*
X19587600Y-11440160D01*
X19532600Y-11385160D01*
X19477600Y-11440160D01*
X19532600Y-11495160D01*
X19532600Y-11749160D02*
X19587600Y-11694160D01*
X19532600Y-11639160D01*
X19477600Y-11694160D01*
X19532600Y-11749160D01*
X19532600Y-12003160D02*
X19587600Y-11948160D01*
X19532600Y-11893160D01*
X19477600Y-11948160D01*
X19532600Y-12003160D01*
X19532600Y-12257160D02*
X19587600Y-12202160D01*
X19532600Y-12147160D01*
X19477600Y-12202160D01*
X19532600Y-12257160D01*
X19532600Y-12511160D02*
X19587600Y-12456160D01*
X19532600Y-12401160D01*
X19477600Y-12456160D01*
X19532600Y-12511160D01*
X19532600Y-12765160D02*
X19587600Y-12710160D01*
X19532600Y-12655160D01*
X19477600Y-12710160D01*
X19532600Y-12765160D01*
X19532600Y-13019160D02*
X19587600Y-12964160D01*
X19532600Y-12909160D01*
X19477600Y-12964160D01*
X19532600Y-13019160D01*
X19532600Y-13273160D02*
X19587600Y-13218160D01*
X19532600Y-13163160D01*
X19477600Y-13218160D01*
X19532600Y-13273160D01*
X19532600Y-13527160D02*
X19587600Y-13472160D01*
X19532600Y-13417160D01*
X19477600Y-13472160D01*
X19532600Y-13527160D01*
X19532600Y-13781160D02*
X19587600Y-13726160D01*
X19532600Y-13671160D01*
X19477600Y-13726160D01*
X19532600Y-13781160D01*
X19532600Y-14035160D02*
X19587600Y-13980160D01*
X19532600Y-13925160D01*
X19477600Y-13980160D01*
X19532600Y-14035160D01*
X19532600Y-14289160D02*
X19587600Y-14234160D01*
X19532600Y-14179160D01*
X19477600Y-14234160D01*
X19532600Y-14289160D01*
X19591020Y-2313060D02*
X19646020Y-2258060D01*
X19591020Y-2203060D01*
X19536020Y-2258060D01*
X19591020Y-2313060D01*
X19786600Y-8701160D02*
X19841600Y-8646160D01*
X19786600Y-8591160D01*
X19731600Y-8646160D01*
X19786600Y-8701160D01*
X19786600Y-8955160D02*
X19841600Y-8900160D01*
X19786600Y-8845160D01*
X19731600Y-8900160D01*
X19786600Y-8955160D01*
X19786600Y-9209160D02*
X19841600Y-9154160D01*
X19786600Y-9099160D01*
X19731600Y-9154160D01*
X19786600Y-9209160D01*
X19786600Y-9463160D02*
X19841600Y-9408160D01*
X19786600Y-9353160D01*
X19731600Y-9408160D01*
X19786600Y-9463160D01*
X19786600Y-9717160D02*
X19841600Y-9662160D01*
X19786600Y-9607160D01*
X19731600Y-9662160D01*
X19786600Y-9717160D01*
X19786600Y-9971160D02*
X19841600Y-9916160D01*
X19786600Y-9861160D01*
X19731600Y-9916160D01*
X19786600Y-9971160D01*
X19786600Y-10225160D02*
X19841600Y-10170160D01*
X19786600Y-10115160D01*
X19731600Y-10170160D01*
X19786600Y-10225160D01*
X19786600Y-10479160D02*
X19841600Y-10424160D01*
X19786600Y-10369160D01*
X19731600Y-10424160D01*
X19786600Y-10479160D01*
X19786600Y-10733160D02*
X19841600Y-10678160D01*
X19786600Y-10623160D01*
X19731600Y-10678160D01*
X19786600Y-10733160D01*
X19786600Y-10987160D02*
X19841600Y-10932160D01*
X19786600Y-10877160D01*
X19731600Y-10932160D01*
X19786600Y-10987160D01*
X19786600Y-11241160D02*
X19841600Y-11186160D01*
X19786600Y-11131160D01*
X19731600Y-11186160D01*
X19786600Y-11241160D01*
X19786600Y-11495160D02*
X19841600Y-11440160D01*
X19786600Y-11385160D01*
X19731600Y-11440160D01*
X19786600Y-11495160D01*
X19786600Y-11749160D02*
X19841600Y-11694160D01*
X19786600Y-11639160D01*
X19731600Y-11694160D01*
X19786600Y-11749160D01*
X19786600Y-12003160D02*
X19841600Y-11948160D01*
X19786600Y-11893160D01*
X19731600Y-11948160D01*
X19786600Y-12003160D01*
X19786600Y-12257160D02*
X19841600Y-12202160D01*
X19786600Y-12147160D01*
X19731600Y-12202160D01*
X19786600Y-12257160D01*
X19786600Y-12511160D02*
X19841600Y-12456160D01*
X19786600Y-12401160D01*
X19731600Y-12456160D01*
X19786600Y-12511160D01*
X19786600Y-12765160D02*
X19841600Y-12710160D01*
X19786600Y-12655160D01*
X19731600Y-12710160D01*
X19786600Y-12765160D01*
X19786600Y-13019160D02*
X19841600Y-12964160D01*
X19786600Y-12909160D01*
X19731600Y-12964160D01*
X19786600Y-13019160D01*
X19786600Y-13273160D02*
X19841600Y-13218160D01*
X19786600Y-13163160D01*
X19731600Y-13218160D01*
X19786600Y-13273160D01*
X19786600Y-13527160D02*
X19841600Y-13472160D01*
X19786600Y-13417160D01*
X19731600Y-13472160D01*
X19786600Y-13527160D01*
X19786600Y-13781160D02*
X19841600Y-13726160D01*
X19786600Y-13671160D01*
X19731600Y-13726160D01*
X19786600Y-13781160D01*
X19786600Y-14035160D02*
X19841600Y-13980160D01*
X19786600Y-13925160D01*
X19731600Y-13980160D01*
X19786600Y-14035160D01*
X19786600Y-14289160D02*
X19841600Y-14234160D01*
X19786600Y-14179160D01*
X19731600Y-14234160D01*
X19786600Y-14289160D01*
X20363900Y-8699600D02*
X20418900Y-8644600D01*
X20363900Y-8589600D01*
X20308900Y-8644600D01*
X20363900Y-8699600D01*
X20363900Y-8953600D02*
X20418900Y-8898600D01*
X20363900Y-8843600D01*
X20308900Y-8898600D01*
X20363900Y-8953600D01*
X20363900Y-9207600D02*
X20418900Y-9152600D01*
X20363900Y-9097600D01*
X20308900Y-9152600D01*
X20363900Y-9207600D01*
X20363900Y-9461600D02*
X20418900Y-9406600D01*
X20363900Y-9351600D01*
X20308900Y-9406600D01*
X20363900Y-9461600D01*
X20363900Y-9715600D02*
X20418900Y-9660600D01*
X20363900Y-9605600D01*
X20308900Y-9660600D01*
X20363900Y-9715600D01*
X20363900Y-9969600D02*
X20418900Y-9914600D01*
X20363900Y-9859600D01*
X20308900Y-9914600D01*
X20363900Y-9969600D01*
X20363900Y-10223600D02*
X20418900Y-10168600D01*
X20363900Y-10113600D01*
X20308900Y-10168600D01*
X20363900Y-10223600D01*
X20363900Y-10477600D02*
X20418900Y-10422600D01*
X20363900Y-10367600D01*
X20308900Y-10422600D01*
X20363900Y-10477600D01*
X20363900Y-10731600D02*
X20418900Y-10676600D01*
X20363900Y-10621600D01*
X20308900Y-10676600D01*
X20363900Y-10731600D01*
X20363900Y-10985600D02*
X20418900Y-10930600D01*
X20363900Y-10875600D01*
X20308900Y-10930600D01*
X20363900Y-10985600D01*
X20363900Y-11239600D02*
X20418900Y-11184600D01*
X20363900Y-11129600D01*
X20308900Y-11184600D01*
X20363900Y-11239600D01*
X20363900Y-11493600D02*
X20418900Y-11438600D01*
X20363900Y-11383600D01*
X20308900Y-11438600D01*
X20363900Y-11493600D01*
X20363900Y-11747600D02*
X20418900Y-11692600D01*
X20363900Y-11637600D01*
X20308900Y-11692600D01*
X20363900Y-11747600D01*
X20363900Y-12001600D02*
X20418900Y-11946600D01*
X20363900Y-11891600D01*
X20308900Y-11946600D01*
X20363900Y-12001600D01*
X20363900Y-12255600D02*
X20418900Y-12200600D01*
X20363900Y-12145600D01*
X20308900Y-12200600D01*
X20363900Y-12255600D01*
X20363900Y-12509600D02*
X20418900Y-12454600D01*
X20363900Y-12399600D01*
X20308900Y-12454600D01*
X20363900Y-12509600D01*
X20363900Y-12763600D02*
X20418900Y-12708600D01*
X20363900Y-12653600D01*
X20308900Y-12708600D01*
X20363900Y-12763600D01*
X20363900Y-13017600D02*
X20418900Y-12962600D01*
X20363900Y-12907600D01*
X20308900Y-12962600D01*
X20363900Y-13017600D01*
X20363900Y-13271600D02*
X20418900Y-13216600D01*
X20363900Y-13161600D01*
X20308900Y-13216600D01*
X20363900Y-13271600D01*
X20363900Y-13525600D02*
X20418900Y-13470600D01*
X20363900Y-13415600D01*
X20308900Y-13470600D01*
X20363900Y-13525600D01*
X20363900Y-13779600D02*
X20418900Y-13724600D01*
X20363900Y-13669600D01*
X20308900Y-13724600D01*
X20363900Y-13779600D01*
X20363900Y-14033600D02*
X20418900Y-13978600D01*
X20363900Y-13923600D01*
X20308900Y-13978600D01*
X20363900Y-14033600D01*
X20363900Y-14287600D02*
X20418900Y-14232600D01*
X20363900Y-14177600D01*
X20308900Y-14232600D01*
X20363900Y-14287600D01*
X20617900Y-8699600D02*
X20672900Y-8644600D01*
X20617900Y-8589600D01*
X20562900Y-8644600D01*
X20617900Y-8699600D01*
X20617900Y-8953600D02*
X20672900Y-8898600D01*
X20617900Y-8843600D01*
X20562900Y-8898600D01*
X20617900Y-8953600D01*
X20617900Y-9207600D02*
X20672900Y-9152600D01*
X20617900Y-9097600D01*
X20562900Y-9152600D01*
X20617900Y-9207600D01*
X20617900Y-9461600D02*
X20672900Y-9406600D01*
X20617900Y-9351600D01*
X20562900Y-9406600D01*
X20617900Y-9461600D01*
X20617900Y-9715600D02*
X20672900Y-9660600D01*
X20617900Y-9605600D01*
X20562900Y-9660600D01*
X20617900Y-9715600D01*
X20617900Y-9969600D02*
X20672900Y-9914600D01*
X20617900Y-9859600D01*
X20562900Y-9914600D01*
X20617900Y-9969600D01*
X20617900Y-10223600D02*
X20672900Y-10168600D01*
X20617900Y-10113600D01*
X20562900Y-10168600D01*
X20617900Y-10223600D01*
X20617900Y-10477600D02*
X20672900Y-10422600D01*
X20617900Y-10367600D01*
X20562900Y-10422600D01*
X20617900Y-10477600D01*
X20617900Y-10731600D02*
X20672900Y-10676600D01*
X20617900Y-10621600D01*
X20562900Y-10676600D01*
X20617900Y-10731600D01*
X20617900Y-10985600D02*
X20672900Y-10930600D01*
X20617900Y-10875600D01*
X20562900Y-10930600D01*
X20617900Y-10985600D01*
X20617900Y-11239600D02*
X20672900Y-11184600D01*
X20617900Y-11129600D01*
X20562900Y-11184600D01*
X20617900Y-11239600D01*
X20617900Y-11493600D02*
X20672900Y-11438600D01*
X20617900Y-11383600D01*
X20562900Y-11438600D01*
X20617900Y-11493600D01*
X20617900Y-11747600D02*
X20672900Y-11692600D01*
X20617900Y-11637600D01*
X20562900Y-11692600D01*
X20617900Y-11747600D01*
X20617900Y-12001600D02*
X20672900Y-11946600D01*
X20617900Y-11891600D01*
X20562900Y-11946600D01*
X20617900Y-12001600D01*
X20617900Y-12255600D02*
X20672900Y-12200600D01*
X20617900Y-12145600D01*
X20562900Y-12200600D01*
X20617900Y-12255600D01*
X20617900Y-12509600D02*
X20672900Y-12454600D01*
X20617900Y-12399600D01*
X20562900Y-12454600D01*
X20617900Y-12509600D01*
X20617900Y-12763600D02*
X20672900Y-12708600D01*
X20617900Y-12653600D01*
X20562900Y-12708600D01*
X20617900Y-12763600D01*
X20617900Y-13017600D02*
X20672900Y-12962600D01*
X20617900Y-12907600D01*
X20562900Y-12962600D01*
X20617900Y-13017600D01*
X20617900Y-13271600D02*
X20672900Y-13216600D01*
X20617900Y-13161600D01*
X20562900Y-13216600D01*
X20617900Y-13271600D01*
X20617900Y-13525600D02*
X20672900Y-13470600D01*
X20617900Y-13415600D01*
X20562900Y-13470600D01*
X20617900Y-13525600D01*
X20617900Y-13779600D02*
X20672900Y-13724600D01*
X20617900Y-13669600D01*
X20562900Y-13724600D01*
X20617900Y-13779600D01*
X20617900Y-14033600D02*
X20672900Y-13978600D01*
X20617900Y-13923600D01*
X20562900Y-13978600D01*
X20617900Y-14033600D01*
X20617900Y-14287600D02*
X20672900Y-14232600D01*
X20617900Y-14177600D01*
X20562900Y-14232600D01*
X20617900Y-14287600D01*
X21188680Y-8698620D02*
X21243680Y-8643620D01*
X21188680Y-8588620D01*
X21133680Y-8643620D01*
X21188680Y-8698620D01*
X21188680Y-8952620D02*
X21243680Y-8897620D01*
X21188680Y-8842620D01*
X21133680Y-8897620D01*
X21188680Y-8952620D01*
X21188680Y-9206620D02*
X21243680Y-9151620D01*
X21188680Y-9096620D01*
X21133680Y-9151620D01*
X21188680Y-9206620D01*
X21188680Y-9460620D02*
X21243680Y-9405620D01*
X21188680Y-9350620D01*
X21133680Y-9405620D01*
X21188680Y-9460620D01*
X21188680Y-9714620D02*
X21243680Y-9659620D01*
X21188680Y-9604620D01*
X21133680Y-9659620D01*
X21188680Y-9714620D01*
X21188680Y-9968620D02*
X21243680Y-9913620D01*
X21188680Y-9858620D01*
X21133680Y-9913620D01*
X21188680Y-9968620D01*
X21188680Y-10222620D02*
X21243680Y-10167620D01*
X21188680Y-10112620D01*
X21133680Y-10167620D01*
X21188680Y-10222620D01*
X21188680Y-10476620D02*
X21243680Y-10421620D01*
X21188680Y-10366620D01*
X21133680Y-10421620D01*
X21188680Y-10476620D01*
X21188680Y-10730620D02*
X21243680Y-10675620D01*
X21188680Y-10620620D01*
X21133680Y-10675620D01*
X21188680Y-10730620D01*
X21188680Y-10984620D02*
X21243680Y-10929620D01*
X21188680Y-10874620D01*
X21133680Y-10929620D01*
X21188680Y-10984620D01*
X21188680Y-11238620D02*
X21243680Y-11183620D01*
X21188680Y-11128620D01*
X21133680Y-11183620D01*
X21188680Y-11238620D01*
X21188680Y-11492620D02*
X21243680Y-11437620D01*
X21188680Y-11382620D01*
X21133680Y-11437620D01*
X21188680Y-11492620D01*
X21188680Y-11746620D02*
X21243680Y-11691620D01*
X21188680Y-11636620D01*
X21133680Y-11691620D01*
X21188680Y-11746620D01*
X21188680Y-12000620D02*
X21243680Y-11945620D01*
X21188680Y-11890620D01*
X21133680Y-11945620D01*
X21188680Y-12000620D01*
X21188680Y-12254620D02*
X21243680Y-12199620D01*
X21188680Y-12144620D01*
X21133680Y-12199620D01*
X21188680Y-12254620D01*
X21188680Y-12508620D02*
X21243680Y-12453620D01*
X21188680Y-12398620D01*
X21133680Y-12453620D01*
X21188680Y-12508620D01*
X21188680Y-12762620D02*
X21243680Y-12707620D01*
X21188680Y-12652620D01*
X21133680Y-12707620D01*
X21188680Y-12762620D01*
X21188680Y-13016620D02*
X21243680Y-12961620D01*
X21188680Y-12906620D01*
X21133680Y-12961620D01*
X21188680Y-13016620D01*
X21188680Y-13270620D02*
X21243680Y-13215620D01*
X21188680Y-13160620D01*
X21133680Y-13215620D01*
X21188680Y-13270620D01*
X21188680Y-13524620D02*
X21243680Y-13469620D01*
X21188680Y-13414620D01*
X21133680Y-13469620D01*
X21188680Y-13524620D01*
X21188680Y-13778620D02*
X21243680Y-13723620D01*
X21188680Y-13668620D01*
X21133680Y-13723620D01*
X21188680Y-13778620D01*
X21188680Y-14032620D02*
X21243680Y-13977620D01*
X21188680Y-13922620D01*
X21133680Y-13977620D01*
X21188680Y-14032620D01*
X21188680Y-14286620D02*
X21243680Y-14231620D01*
X21188680Y-14176620D01*
X21133680Y-14231620D01*
X21188680Y-14286620D01*
X21343620Y-16144820D02*
X21398620Y-16089820D01*
X21343620Y-16034820D01*
X21288620Y-16089820D01*
X21343620Y-16144820D01*
X21343620Y-16394820D02*
X21398620Y-16339820D01*
X21343620Y-16284820D01*
X21288620Y-16339820D01*
X21343620Y-16394820D01*
X21356320Y-19224380D02*
X21411320Y-19169380D01*
X21356320Y-19114380D01*
X21301320Y-19169380D01*
X21356320Y-19224380D01*
X21356320Y-19478380D02*
X21411320Y-19423380D01*
X21356320Y-19368380D01*
X21301320Y-19423380D01*
X21356320Y-19478380D01*
X21356320Y-19732380D02*
X21411320Y-19677380D01*
X21356320Y-19622380D01*
X21301320Y-19677380D01*
X21356320Y-19732380D01*
X21356320Y-19986380D02*
X21411320Y-19931380D01*
X21356320Y-19876380D01*
X21301320Y-19931380D01*
X21356320Y-19986380D01*
X21363940Y-6826640D02*
X21418940Y-6771640D01*
X21363940Y-6716640D01*
X21308940Y-6771640D01*
X21363940Y-6826640D01*
X21363940Y-7080640D02*
X21418940Y-7025640D01*
X21363940Y-6970640D01*
X21308940Y-7025640D01*
X21363940Y-7080640D01*
X21363940Y-7334640D02*
X21418940Y-7279640D01*
X21363940Y-7224640D01*
X21308940Y-7279640D01*
X21363940Y-7334640D01*
X21363940Y-7588640D02*
X21418940Y-7533640D01*
X21363940Y-7478640D01*
X21308940Y-7533640D01*
X21363940Y-7588640D01*
X21363940Y-15189780D02*
X21418940Y-15134780D01*
X21363940Y-15079780D01*
X21308940Y-15134780D01*
X21363940Y-15189780D01*
X21363940Y-15439780D02*
X21418940Y-15384780D01*
X21363940Y-15329780D01*
X21308940Y-15384780D01*
X21363940Y-15439780D01*
X21364060Y-3176340D02*
X21419060Y-3121340D01*
X21364060Y-3066340D01*
X21309060Y-3121340D01*
X21364060Y-3176340D01*
X21364060Y-3430340D02*
X21419060Y-3375340D01*
X21364060Y-3320340D01*
X21309060Y-3375340D01*
X21364060Y-3430340D01*
X21364060Y-3684340D02*
X21419060Y-3629340D01*
X21364060Y-3574340D01*
X21309060Y-3629340D01*
X21364060Y-3684340D01*
X21364060Y-3938340D02*
X21419060Y-3883340D01*
X21364060Y-3828340D01*
X21309060Y-3883340D01*
X21364060Y-3938340D01*
X21364060Y-4556340D02*
X21419060Y-4501340D01*
X21364060Y-4446340D01*
X21309060Y-4501340D01*
X21364060Y-4556340D01*
X21364060Y-4810340D02*
X21419060Y-4755340D01*
X21364060Y-4700340D01*
X21309060Y-4755340D01*
X21364060Y-4810340D01*
X21364060Y-5064340D02*
X21419060Y-5009340D01*
X21364060Y-4954340D01*
X21309060Y-5009340D01*
X21364060Y-5064340D01*
X21364060Y-5318340D02*
X21419060Y-5263340D01*
X21364060Y-5208340D01*
X21309060Y-5263340D01*
X21364060Y-5318340D01*
X21396960Y-1843160D02*
X21451960Y-1788160D01*
X21396960Y-1733160D01*
X21341960Y-1788160D01*
X21396960Y-1843160D01*
X21396960Y-2097160D02*
X21451960Y-2042160D01*
X21396960Y-1987160D01*
X21341960Y-2042160D01*
X21396960Y-2097160D01*
X21396960Y-2351160D02*
X21451960Y-2296160D01*
X21396960Y-2241160D01*
X21341960Y-2296160D01*
X21396960Y-2351160D01*
X21396960Y-2605160D02*
X21451960Y-2550160D01*
X21396960Y-2495160D01*
X21341960Y-2550160D01*
X21396960Y-2605160D01*
X21442680Y-8698620D02*
X21497680Y-8643620D01*
X21442680Y-8588620D01*
X21387680Y-8643620D01*
X21442680Y-8698620D01*
X21442680Y-8952620D02*
X21497680Y-8897620D01*
X21442680Y-8842620D01*
X21387680Y-8897620D01*
X21442680Y-8952620D01*
X21442680Y-9206620D02*
X21497680Y-9151620D01*
X21442680Y-9096620D01*
X21387680Y-9151620D01*
X21442680Y-9206620D01*
X21442680Y-9460620D02*
X21497680Y-9405620D01*
X21442680Y-9350620D01*
X21387680Y-9405620D01*
X21442680Y-9460620D01*
X21442680Y-9714620D02*
X21497680Y-9659620D01*
X21442680Y-9604620D01*
X21387680Y-9659620D01*
X21442680Y-9714620D01*
X21442680Y-9968620D02*
X21497680Y-9913620D01*
X21442680Y-9858620D01*
X21387680Y-9913620D01*
X21442680Y-9968620D01*
X21442680Y-10222620D02*
X21497680Y-10167620D01*
X21442680Y-10112620D01*
X21387680Y-10167620D01*
X21442680Y-10222620D01*
X21442680Y-10476620D02*
X21497680Y-10421620D01*
X21442680Y-10366620D01*
X21387680Y-10421620D01*
X21442680Y-10476620D01*
X21442680Y-10730620D02*
X21497680Y-10675620D01*
X21442680Y-10620620D01*
X21387680Y-10675620D01*
X21442680Y-10730620D01*
X21442680Y-10984620D02*
X21497680Y-10929620D01*
X21442680Y-10874620D01*
X21387680Y-10929620D01*
X21442680Y-10984620D01*
X21442680Y-11238620D02*
X21497680Y-11183620D01*
X21442680Y-11128620D01*
X21387680Y-11183620D01*
X21442680Y-11238620D01*
X21442680Y-11492620D02*
X21497680Y-11437620D01*
X21442680Y-11382620D01*
X21387680Y-11437620D01*
X21442680Y-11492620D01*
X21442680Y-11746620D02*
X21497680Y-11691620D01*
X21442680Y-11636620D01*
X21387680Y-11691620D01*
X21442680Y-11746620D01*
X21442680Y-12000620D02*
X21497680Y-11945620D01*
X21442680Y-11890620D01*
X21387680Y-11945620D01*
X21442680Y-12000620D01*
X21442680Y-12254620D02*
X21497680Y-12199620D01*
X21442680Y-12144620D01*
X21387680Y-12199620D01*
X21442680Y-12254620D01*
X21442680Y-12508620D02*
X21497680Y-12453620D01*
X21442680Y-12398620D01*
X21387680Y-12453620D01*
X21442680Y-12508620D01*
X21442680Y-12762620D02*
X21497680Y-12707620D01*
X21442680Y-12652620D01*
X21387680Y-12707620D01*
X21442680Y-12762620D01*
X21442680Y-13016620D02*
X21497680Y-12961620D01*
X21442680Y-12906620D01*
X21387680Y-12961620D01*
X21442680Y-13016620D01*
X21442680Y-13270620D02*
X21497680Y-13215620D01*
X21442680Y-13160620D01*
X21387680Y-13215620D01*
X21442680Y-13270620D01*
X21442680Y-13524620D02*
X21497680Y-13469620D01*
X21442680Y-13414620D01*
X21387680Y-13469620D01*
X21442680Y-13524620D01*
X21442680Y-13778620D02*
X21497680Y-13723620D01*
X21442680Y-13668620D01*
X21387680Y-13723620D01*
X21442680Y-13778620D01*
X21442680Y-14032620D02*
X21497680Y-13977620D01*
X21442680Y-13922620D01*
X21387680Y-13977620D01*
X21442680Y-14032620D01*
X21442680Y-14286620D02*
X21497680Y-14231620D01*
X21442680Y-14176620D01*
X21387680Y-14231620D01*
X21442680Y-14286620D01*
X2378400Y-19853600D02*
X2498400Y-19973600D01*
X2498400Y-19853600D02*
X2378400Y-19973600D01*
X2498400Y-19913600D02*
G75*
G03X2498400Y-19913600I-60000J0D01*
G01*
X2378400Y-20107600D02*
X2498400Y-20227600D01*
X2498400Y-20107600D02*
X2378400Y-20227600D01*
X2498400Y-20167600D02*
G75*
G03X2498400Y-20167600I-60000J0D01*
G01*
X2403800Y-17135800D02*
X2523800Y-17255800D01*
X2523800Y-17135800D02*
X2403800Y-17255800D01*
X2523800Y-17195800D02*
G75*
G03X2523800Y-17195800I-60000J0D01*
G01*
X2403800Y-17389800D02*
X2523800Y-17509800D01*
X2523800Y-17389800D02*
X2403800Y-17509800D01*
X2523800Y-17449800D02*
G75*
G03X2523800Y-17449800I-60000J0D01*
G01*
X2632400Y-19853600D02*
X2752400Y-19973600D01*
X2752400Y-19853600D02*
X2632400Y-19973600D01*
X2752400Y-19913600D02*
G75*
G03X2752400Y-19913600I-60000J0D01*
G01*
X2632400Y-20107600D02*
X2752400Y-20227600D01*
X2752400Y-20107600D02*
X2632400Y-20227600D01*
X2752400Y-20167600D02*
G75*
G03X2752400Y-20167600I-60000J0D01*
G01*
X2657800Y-17135800D02*
X2777800Y-17255800D01*
X2777800Y-17135800D02*
X2657800Y-17255800D01*
X2777800Y-17195800D02*
G75*
G03X2777800Y-17195800I-60000J0D01*
G01*
X2657800Y-17389800D02*
X2777800Y-17509800D01*
X2777800Y-17389800D02*
X2657800Y-17509800D01*
X2777800Y-17449800D02*
G75*
G03X2777800Y-17449800I-60000J0D01*
G01*
X2886400Y-19853600D02*
X3006400Y-19973600D01*
X3006400Y-19853600D02*
X2886400Y-19973600D01*
X3006400Y-19913600D02*
G75*
G03X3006400Y-19913600I-60000J0D01*
G01*
X2886400Y-20107600D02*
X3006400Y-20227600D01*
X3006400Y-20107600D02*
X2886400Y-20227600D01*
X3006400Y-20167600D02*
G75*
G03X3006400Y-20167600I-60000J0D01*
G01*
X2911800Y-17135800D02*
X3031800Y-17255800D01*
X3031800Y-17135800D02*
X2911800Y-17255800D01*
X3031800Y-17195800D02*
G75*
G03X3031800Y-17195800I-60000J0D01*
G01*
X2911800Y-17389800D02*
X3031800Y-17509800D01*
X3031800Y-17389800D02*
X2911800Y-17509800D01*
X3031800Y-17449800D02*
G75*
G03X3031800Y-17449800I-60000J0D01*
G01*
X3140400Y-19853600D02*
X3260400Y-19973600D01*
X3260400Y-19853600D02*
X3140400Y-19973600D01*
X3260400Y-19913600D02*
G75*
G03X3260400Y-19913600I-60000J0D01*
G01*
X3140400Y-20107600D02*
X3260400Y-20227600D01*
X3260400Y-20107600D02*
X3140400Y-20227600D01*
X3260400Y-20167600D02*
G75*
G03X3260400Y-20167600I-60000J0D01*
G01*
X3165800Y-17135800D02*
X3285800Y-17255800D01*
X3285800Y-17135800D02*
X3165800Y-17255800D01*
X3285800Y-17195800D02*
G75*
G03X3285800Y-17195800I-60000J0D01*
G01*
X3165800Y-17389800D02*
X3285800Y-17509800D01*
X3285800Y-17389800D02*
X3165800Y-17509800D01*
X3285800Y-17449800D02*
G75*
G03X3285800Y-17449800I-60000J0D01*
G01*
X3394400Y-19853600D02*
X3514400Y-19973600D01*
X3514400Y-19853600D02*
X3394400Y-19973600D01*
X3514400Y-19913600D02*
G75*
G03X3514400Y-19913600I-60000J0D01*
G01*
X3394400Y-20107600D02*
X3514400Y-20227600D01*
X3514400Y-20107600D02*
X3394400Y-20227600D01*
X3514400Y-20167600D02*
G75*
G03X3514400Y-20167600I-60000J0D01*
G01*
X3419800Y-17135800D02*
X3539800Y-17255800D01*
X3539800Y-17135800D02*
X3419800Y-17255800D01*
X3539800Y-17195800D02*
G75*
G03X3539800Y-17195800I-60000J0D01*
G01*
X3419800Y-17389800D02*
X3539800Y-17509800D01*
X3539800Y-17389800D02*
X3419800Y-17509800D01*
X3539800Y-17449800D02*
G75*
G03X3539800Y-17449800I-60000J0D01*
G01*
X3648400Y-19853600D02*
X3768400Y-19973600D01*
X3768400Y-19853600D02*
X3648400Y-19973600D01*
X3768400Y-19913600D02*
G75*
G03X3768400Y-19913600I-60000J0D01*
G01*
X3648400Y-20107600D02*
X3768400Y-20227600D01*
X3768400Y-20107600D02*
X3648400Y-20227600D01*
X3768400Y-20167600D02*
G75*
G03X3768400Y-20167600I-60000J0D01*
G01*
X3673800Y-17135800D02*
X3793800Y-17255800D01*
X3793800Y-17135800D02*
X3673800Y-17255800D01*
X3793800Y-17195800D02*
G75*
G03X3793800Y-17195800I-60000J0D01*
G01*
X3673800Y-17389800D02*
X3793800Y-17509800D01*
X3793800Y-17389800D02*
X3673800Y-17509800D01*
X3793800Y-17449800D02*
G75*
G03X3793800Y-17449800I-60000J0D01*
G01*
X3902400Y-19853600D02*
X4022400Y-19973600D01*
X4022400Y-19853600D02*
X3902400Y-19973600D01*
X4022400Y-19913600D02*
G75*
G03X4022400Y-19913600I-60000J0D01*
G01*
X3902400Y-20107600D02*
X4022400Y-20227600D01*
X4022400Y-20107600D02*
X3902400Y-20227600D01*
X4022400Y-20167600D02*
G75*
G03X4022400Y-20167600I-60000J0D01*
G01*
X3927800Y-17135800D02*
X4047800Y-17255800D01*
X4047800Y-17135800D02*
X3927800Y-17255800D01*
X4047800Y-17195800D02*
G75*
G03X4047800Y-17195800I-60000J0D01*
G01*
X3927800Y-17389800D02*
X4047800Y-17509800D01*
X4047800Y-17389800D02*
X3927800Y-17509800D01*
X4047800Y-17449800D02*
G75*
G03X4047800Y-17449800I-60000J0D01*
G01*
X4156400Y-19853600D02*
X4276400Y-19973600D01*
X4276400Y-19853600D02*
X4156400Y-19973600D01*
X4276400Y-19913600D02*
G75*
G03X4276400Y-19913600I-60000J0D01*
G01*
X4156400Y-20107600D02*
X4276400Y-20227600D01*
X4276400Y-20107600D02*
X4156400Y-20227600D01*
X4276400Y-20167600D02*
G75*
G03X4276400Y-20167600I-60000J0D01*
G01*
X4181800Y-17135800D02*
X4301800Y-17255800D01*
X4301800Y-17135800D02*
X4181800Y-17255800D01*
X4301800Y-17195800D02*
G75*
G03X4301800Y-17195800I-60000J0D01*
G01*
X4181800Y-17389800D02*
X4301800Y-17509800D01*
X4301800Y-17389800D02*
X4181800Y-17509800D01*
X4301800Y-17449800D02*
G75*
G03X4301800Y-17449800I-60000J0D01*
G01*
X15673000Y-4700200D02*
X15823000Y-4850200D01*
X15823000Y-4700200D02*
X15673000Y-4850200D01*
X15748000Y-4700200D02*
X15748000Y-4850200D01*
X15673000Y-4775200D02*
X15823000Y-4775200D01*
X15773076Y-3187884D02*
X15923076Y-3337884D01*
X15923076Y-3187884D02*
X15773076Y-3337884D01*
X15848076Y-3187884D02*
X15848076Y-3337884D01*
X15773076Y-3262884D02*
X15923076Y-3262884D01*
X16506120Y-3190932D02*
X16656120Y-3340932D01*
X16656120Y-3190932D02*
X16506120Y-3340932D01*
X16581120Y-3190932D02*
X16581120Y-3340932D01*
X16506120Y-3265932D02*
X16656120Y-3265932D01*
X17392072Y-3153848D02*
X17542072Y-3303848D01*
X17542072Y-3153848D02*
X17392072Y-3303848D01*
X17467072Y-3153848D02*
X17467072Y-3303848D01*
X17392072Y-3228848D02*
X17542072Y-3228848D01*
X18111400Y-4624000D02*
X18261400Y-4774000D01*
X18261400Y-4624000D02*
X18111400Y-4774000D01*
X18186400Y-4624000D02*
X18186400Y-4774000D01*
X18111400Y-4699000D02*
X18261400Y-4699000D01*
X18251608Y-3141148D02*
X18401608Y-3291148D01*
X18401608Y-3141148D02*
X18251608Y-3291148D01*
X18326608Y-3141148D02*
X18326608Y-3291148D01*
X18251608Y-3216148D02*
X18401608Y-3216148D01*
X9248040Y-20064884D02*
X9426040Y-20242884D01*
X9426040Y-20064884D02*
X9248040Y-20242884D01*
X9399973Y-20216817D02*
X9399973Y-20090951D01*
X9274107Y-20090951D01*
X9274107Y-20216817D01*
X9399973Y-20216817D01*
X9248040Y-20699884D02*
X9426040Y-20877884D01*
X9426040Y-20699884D02*
X9248040Y-20877884D01*
X9399973Y-20851817D02*
X9399973Y-20725951D01*
X9274107Y-20725951D01*
X9274107Y-20851817D01*
X9399973Y-20851817D01*
X9248040Y-21334884D02*
X9426040Y-21512884D01*
X9426040Y-21334884D02*
X9248040Y-21512884D01*
X9399973Y-21486817D02*
X9399973Y-21360951D01*
X9274107Y-21360951D01*
X9274107Y-21486817D01*
X9399973Y-21486817D01*
X10645040Y-20064884D02*
X10823040Y-20242884D01*
X10823040Y-20064884D02*
X10645040Y-20242884D01*
X10796973Y-20216817D02*
X10796973Y-20090951D01*
X10671107Y-20090951D01*
X10671107Y-20216817D01*
X10796973Y-20216817D01*
X10645040Y-20699884D02*
X10823040Y-20877884D01*
X10823040Y-20699884D02*
X10645040Y-20877884D01*
X10796973Y-20851817D02*
X10796973Y-20725951D01*
X10671107Y-20725951D01*
X10671107Y-20851817D01*
X10796973Y-20851817D01*
X10645040Y-21334884D02*
X10823040Y-21512884D01*
X10823040Y-21334884D02*
X10645040Y-21512884D01*
X10796973Y-21486817D02*
X10796973Y-21360951D01*
X10671107Y-21360951D01*
X10671107Y-21486817D01*
X10796973Y-21486817D01*
X12042040Y-20064884D02*
X12220040Y-20242884D01*
X12220040Y-20064884D02*
X12042040Y-20242884D01*
X12193973Y-20216817D02*
X12193973Y-20090951D01*
X12068107Y-20090951D01*
X12068107Y-20216817D01*
X12193973Y-20216817D01*
X12042040Y-20699884D02*
X12220040Y-20877884D01*
X12220040Y-20699884D02*
X12042040Y-20877884D01*
X12193973Y-20851817D02*
X12193973Y-20725951D01*
X12068107Y-20725951D01*
X12068107Y-20851817D01*
X12193973Y-20851817D01*
X12042040Y-21334884D02*
X12220040Y-21512884D01*
X12220040Y-21334884D02*
X12042040Y-21512884D01*
X12193973Y-21486817D02*
X12193973Y-21360951D01*
X12068107Y-21360951D01*
X12068107Y-21486817D01*
X12193973Y-21486817D01*
X13439040Y-20064884D02*
X13617040Y-20242884D01*
X13617040Y-20064884D02*
X13439040Y-20242884D01*
X13590973Y-20216817D02*
X13590973Y-20090951D01*
X13465107Y-20090951D01*
X13465107Y-20216817D01*
X13590973Y-20216817D01*
X13439040Y-20699884D02*
X13617040Y-20877884D01*
X13617040Y-20699884D02*
X13439040Y-20877884D01*
X13590973Y-20851817D02*
X13590973Y-20725951D01*
X13465107Y-20725951D01*
X13465107Y-20851817D01*
X13590973Y-20851817D01*
X13439040Y-21334884D02*
X13617040Y-21512884D01*
X13617040Y-21334884D02*
X13439040Y-21512884D01*
X13590973Y-21486817D02*
X13590973Y-21360951D01*
X13465107Y-21360951D01*
X13465107Y-21486817D01*
X13590973Y-21486817D01*
D13*
X2044428Y-22314714D02*
X2044428Y-22014714D01*
X2115857Y-22014714D01*
X2158714Y-22029000D01*
X2187286Y-22057572D01*
X2201571Y-22086143D01*
X2215857Y-22143286D01*
X2215857Y-22186143D01*
X2201571Y-22243286D01*
X2187286Y-22271857D01*
X2158714Y-22300429D01*
X2115857Y-22314714D01*
X2044428Y-22314714D01*
X2344429Y-22314714D02*
X2344429Y-22114714D01*
X2344429Y-22171857D02*
X2358714Y-22143286D01*
X2373000Y-22129000D01*
X2401571Y-22114714D01*
X2430143Y-22114714D01*
X2530143Y-22314714D02*
X2530143Y-22114714D01*
X2530143Y-22014714D02*
X2515857Y-22029000D01*
X2530143Y-22043286D01*
X2544429Y-22029000D01*
X2530143Y-22014714D01*
X2530143Y-22043286D01*
X2715857Y-22314714D02*
X2687286Y-22300429D01*
X2673000Y-22271857D01*
X2673000Y-22014714D01*
X2873000Y-22314714D02*
X2844428Y-22300429D01*
X2830143Y-22271857D01*
X2830143Y-22014714D01*
X3215857Y-22314714D02*
X3215857Y-22014714D01*
X3315857Y-22229000D01*
X3415857Y-22014714D01*
X3415857Y-22314714D01*
X3687286Y-22314714D02*
X3687286Y-22157572D01*
X3673000Y-22129000D01*
X3644428Y-22114714D01*
X3587286Y-22114714D01*
X3558714Y-22129000D01*
X3687286Y-22300429D02*
X3658714Y-22314714D01*
X3587286Y-22314714D01*
X3558714Y-22300429D01*
X3544428Y-22271857D01*
X3544428Y-22243286D01*
X3558714Y-22214714D01*
X3587286Y-22200429D01*
X3658714Y-22200429D01*
X3687286Y-22186143D01*
X3830143Y-22114714D02*
X3830143Y-22414714D01*
X3830143Y-22129000D02*
X3858714Y-22114714D01*
X3915857Y-22114714D01*
X3944428Y-22129000D01*
X3958714Y-22143286D01*
X3973000Y-22171857D01*
X3973000Y-22257572D01*
X3958714Y-22286143D01*
X3944428Y-22300429D01*
X3915857Y-22314714D01*
X3858714Y-22314714D01*
X3830143Y-22300429D01*
X4101571Y-22286143D02*
X4115857Y-22300429D01*
X4101571Y-22314714D01*
X4087286Y-22300429D01*
X4101571Y-22286143D01*
X4101571Y-22314714D01*
X4101571Y-22129000D02*
X4115857Y-22143286D01*
X4101571Y-22157572D01*
X4087286Y-22143286D01*
X4101571Y-22129000D01*
X4101571Y-22157572D01*
X1743000Y-22794000D02*
X1773000Y-22824000D01*
X1773000Y-22794000D02*
X1743000Y-22824000D01*
X2101571Y-22644714D02*
X2130143Y-22644714D01*
X2158714Y-22659000D01*
X2173000Y-22673286D01*
X2187286Y-22701857D01*
X2201571Y-22759000D01*
X2201571Y-22830429D01*
X2187286Y-22887571D01*
X2173000Y-22916143D01*
X2158714Y-22930429D01*
X2130143Y-22944714D01*
X2101571Y-22944714D01*
X2073000Y-22930429D01*
X2058714Y-22916143D01*
X2044428Y-22887571D01*
X2030143Y-22830429D01*
X2030143Y-22759000D01*
X2044428Y-22701857D01*
X2058714Y-22673286D01*
X2073000Y-22659000D01*
X2101571Y-22644714D01*
X2330143Y-22916143D02*
X2344429Y-22930429D01*
X2330143Y-22944714D01*
X2315857Y-22930429D01*
X2330143Y-22916143D01*
X2330143Y-22944714D01*
X2444428Y-22644714D02*
X2630143Y-22644714D01*
X2530143Y-22759000D01*
X2573000Y-22759000D01*
X2601571Y-22773286D01*
X2615857Y-22787571D01*
X2630143Y-22816143D01*
X2630143Y-22887571D01*
X2615857Y-22916143D01*
X2601571Y-22930429D01*
X2573000Y-22944714D01*
X2487286Y-22944714D01*
X2458714Y-22930429D01*
X2444428Y-22916143D01*
X2815857Y-22644714D02*
X2844428Y-22644714D01*
X2873000Y-22659000D01*
X2887286Y-22673286D01*
X2901571Y-22701857D01*
X2915857Y-22759000D01*
X2915857Y-22830429D01*
X2901571Y-22887571D01*
X2887286Y-22916143D01*
X2873000Y-22930429D01*
X2844428Y-22944714D01*
X2815857Y-22944714D01*
X2787286Y-22930429D01*
X2773000Y-22916143D01*
X2758714Y-22887571D01*
X2744429Y-22830429D01*
X2744429Y-22759000D01*
X2758714Y-22701857D01*
X2773000Y-22673286D01*
X2787286Y-22659000D01*
X2815857Y-22644714D01*
X3044428Y-22944714D02*
X3044428Y-22744714D01*
X3044428Y-22773286D02*
X3058714Y-22759000D01*
X3087286Y-22744714D01*
X3130143Y-22744714D01*
X3158714Y-22759000D01*
X3173000Y-22787571D01*
X3173000Y-22944714D01*
X3173000Y-22787571D02*
X3187286Y-22759000D01*
X3215857Y-22744714D01*
X3258714Y-22744714D01*
X3287286Y-22759000D01*
X3301571Y-22787571D01*
X3301571Y-22944714D01*
X3444428Y-22944714D02*
X3444428Y-22744714D01*
X3444428Y-22773286D02*
X3458714Y-22759000D01*
X3487286Y-22744714D01*
X3530143Y-22744714D01*
X3558714Y-22759000D01*
X3573000Y-22787571D01*
X3573000Y-22944714D01*
X3573000Y-22787571D02*
X3587286Y-22759000D01*
X3615857Y-22744714D01*
X3658714Y-22744714D01*
X3687286Y-22759000D01*
X3701571Y-22787571D01*
X3701571Y-22944714D01*
X4287286Y-22630429D02*
X4030143Y-23016143D01*
X4673000Y-22644714D02*
X4701571Y-22644714D01*
X4730143Y-22659000D01*
X4744428Y-22673286D01*
X4758714Y-22701857D01*
X4773000Y-22759000D01*
X4773000Y-22830429D01*
X4758714Y-22887571D01*
X4744428Y-22916143D01*
X4730143Y-22930429D01*
X4701571Y-22944714D01*
X4673000Y-22944714D01*
X4644428Y-22930429D01*
X4630143Y-22916143D01*
X4615857Y-22887571D01*
X4601571Y-22830429D01*
X4601571Y-22759000D01*
X4615857Y-22701857D01*
X4630143Y-22673286D01*
X4644428Y-22659000D01*
X4673000Y-22644714D01*
X4901571Y-22916143D02*
X4915857Y-22930429D01*
X4901571Y-22944714D01*
X4887286Y-22930429D01*
X4901571Y-22916143D01*
X4901571Y-22944714D01*
X5101571Y-22644714D02*
X5130143Y-22644714D01*
X5158714Y-22659000D01*
X5173000Y-22673286D01*
X5187286Y-22701857D01*
X5201571Y-22759000D01*
X5201571Y-22830429D01*
X5187286Y-22887571D01*
X5173000Y-22916143D01*
X5158714Y-22930429D01*
X5130143Y-22944714D01*
X5101571Y-22944714D01*
X5073000Y-22930429D01*
X5058714Y-22916143D01*
X5044428Y-22887571D01*
X5030143Y-22830429D01*
X5030143Y-22759000D01*
X5044428Y-22701857D01*
X5058714Y-22673286D01*
X5073000Y-22659000D01*
X5101571Y-22644714D01*
X5487286Y-22944714D02*
X5315857Y-22944714D01*
X5401571Y-22944714D02*
X5401571Y-22644714D01*
X5373000Y-22687571D01*
X5344428Y-22716143D01*
X5315857Y-22730429D01*
X5601571Y-22673286D02*
X5615857Y-22659000D01*
X5644428Y-22644714D01*
X5715857Y-22644714D01*
X5744428Y-22659000D01*
X5758714Y-22673286D01*
X5773000Y-22701857D01*
X5773000Y-22730429D01*
X5758714Y-22773286D01*
X5587286Y-22944714D01*
X5773000Y-22944714D01*
X5887286Y-22644714D02*
X5887286Y-22701857D01*
X6001571Y-22644714D02*
X6001571Y-22701857D01*
X6444428Y-23059000D02*
X6430143Y-23044714D01*
X6401571Y-23001857D01*
X6387285Y-22973286D01*
X6373000Y-22930429D01*
X6358714Y-22859000D01*
X6358714Y-22801857D01*
X6373000Y-22730429D01*
X6387285Y-22687571D01*
X6401571Y-22659000D01*
X6430143Y-22616143D01*
X6444428Y-22601857D01*
X6701571Y-22644714D02*
X6558714Y-22644714D01*
X6544428Y-22787571D01*
X6558714Y-22773286D01*
X6587285Y-22759000D01*
X6658714Y-22759000D01*
X6687285Y-22773286D01*
X6701571Y-22787571D01*
X6715857Y-22816143D01*
X6715857Y-22887571D01*
X6701571Y-22916143D01*
X6687285Y-22930429D01*
X6658714Y-22944714D01*
X6587285Y-22944714D01*
X6558714Y-22930429D01*
X6544428Y-22916143D01*
X6973000Y-22644714D02*
X6915857Y-22644714D01*
X6887285Y-22659000D01*
X6873000Y-22673286D01*
X6844428Y-22716143D01*
X6830143Y-22773286D01*
X6830143Y-22887571D01*
X6844428Y-22916143D01*
X6858714Y-22930429D01*
X6887285Y-22944714D01*
X6944428Y-22944714D01*
X6973000Y-22930429D01*
X6987285Y-22916143D01*
X7001571Y-22887571D01*
X7001571Y-22816143D01*
X6987285Y-22787571D01*
X6973000Y-22773286D01*
X6944428Y-22759000D01*
X6887285Y-22759000D01*
X6858714Y-22773286D01*
X6844428Y-22787571D01*
X6830143Y-22816143D01*
X7358714Y-22944714D02*
X7358714Y-22644714D01*
X7487285Y-22944714D02*
X7487285Y-22787571D01*
X7473000Y-22759000D01*
X7444428Y-22744714D01*
X7401571Y-22744714D01*
X7373000Y-22759000D01*
X7358714Y-22773286D01*
X7673000Y-22944714D02*
X7644428Y-22930429D01*
X7630143Y-22916143D01*
X7615857Y-22887571D01*
X7615857Y-22801857D01*
X7630143Y-22773286D01*
X7644428Y-22759000D01*
X7673000Y-22744714D01*
X7715857Y-22744714D01*
X7744428Y-22759000D01*
X7758714Y-22773286D01*
X7773000Y-22801857D01*
X7773000Y-22887571D01*
X7758714Y-22916143D01*
X7744428Y-22930429D01*
X7715857Y-22944714D01*
X7673000Y-22944714D01*
X7944428Y-22944714D02*
X7915857Y-22930429D01*
X7901571Y-22901857D01*
X7901571Y-22644714D01*
X8173000Y-22930429D02*
X8144428Y-22944714D01*
X8087286Y-22944714D01*
X8058714Y-22930429D01*
X8044428Y-22901857D01*
X8044428Y-22787571D01*
X8058714Y-22759000D01*
X8087286Y-22744714D01*
X8144428Y-22744714D01*
X8173000Y-22759000D01*
X8187286Y-22787571D01*
X8187286Y-22816143D01*
X8044428Y-22844714D01*
X8301571Y-22930429D02*
X8330143Y-22944714D01*
X8387286Y-22944714D01*
X8415857Y-22930429D01*
X8430143Y-22901857D01*
X8430143Y-22887571D01*
X8415857Y-22859000D01*
X8387286Y-22844714D01*
X8344428Y-22844714D01*
X8315857Y-22830429D01*
X8301571Y-22801857D01*
X8301571Y-22787571D01*
X8315857Y-22759000D01*
X8344428Y-22744714D01*
X8387286Y-22744714D01*
X8415857Y-22759000D01*
X8530143Y-23059000D02*
X8544429Y-23044714D01*
X8573000Y-23001857D01*
X8587286Y-22973286D01*
X8601571Y-22930429D01*
X8615857Y-22859000D01*
X8615857Y-22801857D01*
X8601571Y-22730429D01*
X8587286Y-22687571D01*
X8573000Y-22659000D01*
X8544429Y-22616143D01*
X8530143Y-22601857D01*
X1773000Y-23205000D02*
G75*
G03X1773000Y-23205000I-20000J0D01*
G01*
X2101571Y-23040714D02*
X2130143Y-23040714D01*
X2158714Y-23055000D01*
X2173000Y-23069286D01*
X2187286Y-23097857D01*
X2201571Y-23155000D01*
X2201571Y-23226429D01*
X2187286Y-23283571D01*
X2173000Y-23312143D01*
X2158714Y-23326429D01*
X2130143Y-23340714D01*
X2101571Y-23340714D01*
X2073000Y-23326429D01*
X2058714Y-23312143D01*
X2044428Y-23283571D01*
X2030143Y-23226429D01*
X2030143Y-23155000D01*
X2044428Y-23097857D01*
X2058714Y-23069286D01*
X2073000Y-23055000D01*
X2101571Y-23040714D01*
X2330143Y-23312143D02*
X2344429Y-23326429D01*
X2330143Y-23340714D01*
X2315857Y-23326429D01*
X2330143Y-23312143D01*
X2330143Y-23340714D01*
X2601571Y-23140714D02*
X2601571Y-23340714D01*
X2530143Y-23026429D02*
X2458714Y-23240714D01*
X2644428Y-23240714D01*
X2815857Y-23040714D02*
X2844428Y-23040714D01*
X2873000Y-23055000D01*
X2887286Y-23069286D01*
X2901571Y-23097857D01*
X2915857Y-23155000D01*
X2915857Y-23226429D01*
X2901571Y-23283571D01*
X2887286Y-23312143D01*
X2873000Y-23326429D01*
X2844428Y-23340714D01*
X2815857Y-23340714D01*
X2787286Y-23326429D01*
X2773000Y-23312143D01*
X2758714Y-23283571D01*
X2744429Y-23226429D01*
X2744429Y-23155000D01*
X2758714Y-23097857D01*
X2773000Y-23069286D01*
X2787286Y-23055000D01*
X2815857Y-23040714D01*
X3044428Y-23340714D02*
X3044428Y-23140714D01*
X3044428Y-23169286D02*
X3058714Y-23155000D01*
X3087286Y-23140714D01*
X3130143Y-23140714D01*
X3158714Y-23155000D01*
X3173000Y-23183571D01*
X3173000Y-23340714D01*
X3173000Y-23183571D02*
X3187286Y-23155000D01*
X3215857Y-23140714D01*
X3258714Y-23140714D01*
X3287286Y-23155000D01*
X3301571Y-23183571D01*
X3301571Y-23340714D01*
X3444428Y-23340714D02*
X3444428Y-23140714D01*
X3444428Y-23169286D02*
X3458714Y-23155000D01*
X3487286Y-23140714D01*
X3530143Y-23140714D01*
X3558714Y-23155000D01*
X3573000Y-23183571D01*
X3573000Y-23340714D01*
X3573000Y-23183571D02*
X3587286Y-23155000D01*
X3615857Y-23140714D01*
X3658714Y-23140714D01*
X3687286Y-23155000D01*
X3701571Y-23183571D01*
X3701571Y-23340714D01*
X4287286Y-23026429D02*
X4030143Y-23412143D01*
X4673000Y-23040714D02*
X4701571Y-23040714D01*
X4730143Y-23055000D01*
X4744428Y-23069286D01*
X4758714Y-23097857D01*
X4773000Y-23155000D01*
X4773000Y-23226429D01*
X4758714Y-23283571D01*
X4744428Y-23312143D01*
X4730143Y-23326429D01*
X4701571Y-23340714D01*
X4673000Y-23340714D01*
X4644428Y-23326429D01*
X4630143Y-23312143D01*
X4615857Y-23283571D01*
X4601571Y-23226429D01*
X4601571Y-23155000D01*
X4615857Y-23097857D01*
X4630143Y-23069286D01*
X4644428Y-23055000D01*
X4673000Y-23040714D01*
X4901571Y-23312143D02*
X4915857Y-23326429D01*
X4901571Y-23340714D01*
X4887286Y-23326429D01*
X4901571Y-23312143D01*
X4901571Y-23340714D01*
X5101571Y-23040714D02*
X5130143Y-23040714D01*
X5158714Y-23055000D01*
X5173000Y-23069286D01*
X5187286Y-23097857D01*
X5201571Y-23155000D01*
X5201571Y-23226429D01*
X5187286Y-23283571D01*
X5173000Y-23312143D01*
X5158714Y-23326429D01*
X5130143Y-23340714D01*
X5101571Y-23340714D01*
X5073000Y-23326429D01*
X5058714Y-23312143D01*
X5044428Y-23283571D01*
X5030143Y-23226429D01*
X5030143Y-23155000D01*
X5044428Y-23097857D01*
X5058714Y-23069286D01*
X5073000Y-23055000D01*
X5101571Y-23040714D01*
X5487286Y-23340714D02*
X5315857Y-23340714D01*
X5401571Y-23340714D02*
X5401571Y-23040714D01*
X5373000Y-23083571D01*
X5344428Y-23112143D01*
X5315857Y-23126429D01*
X5744428Y-23040714D02*
X5687285Y-23040714D01*
X5658714Y-23055000D01*
X5644428Y-23069286D01*
X5615857Y-23112143D01*
X5601571Y-23169286D01*
X5601571Y-23283571D01*
X5615857Y-23312143D01*
X5630143Y-23326429D01*
X5658714Y-23340714D01*
X5715857Y-23340714D01*
X5744428Y-23326429D01*
X5758714Y-23312143D01*
X5773000Y-23283571D01*
X5773000Y-23212143D01*
X5758714Y-23183571D01*
X5744428Y-23169286D01*
X5715857Y-23155000D01*
X5658714Y-23155000D01*
X5630143Y-23169286D01*
X5615857Y-23183571D01*
X5601571Y-23212143D01*
X5887286Y-23040714D02*
X5887286Y-23097857D01*
X6001571Y-23040714D02*
X6001571Y-23097857D01*
X6444428Y-23455000D02*
X6430143Y-23440714D01*
X6401571Y-23397857D01*
X6387285Y-23369286D01*
X6373000Y-23326429D01*
X6358714Y-23255000D01*
X6358714Y-23197857D01*
X6373000Y-23126429D01*
X6387285Y-23083571D01*
X6401571Y-23055000D01*
X6430143Y-23012143D01*
X6444428Y-22997857D01*
X6544428Y-23069286D02*
X6558714Y-23055000D01*
X6587285Y-23040714D01*
X6658714Y-23040714D01*
X6687285Y-23055000D01*
X6701571Y-23069286D01*
X6715857Y-23097857D01*
X6715857Y-23126429D01*
X6701571Y-23169286D01*
X6530143Y-23340714D01*
X6715857Y-23340714D01*
X7001571Y-23340714D02*
X6830143Y-23340714D01*
X6915857Y-23340714D02*
X6915857Y-23040714D01*
X6887285Y-23083571D01*
X6858714Y-23112143D01*
X6830143Y-23126429D01*
X7187285Y-23040714D02*
X7215857Y-23040714D01*
X7244428Y-23055000D01*
X7258714Y-23069286D01*
X7273000Y-23097857D01*
X7287285Y-23155000D01*
X7287285Y-23226429D01*
X7273000Y-23283571D01*
X7258714Y-23312143D01*
X7244428Y-23326429D01*
X7215857Y-23340714D01*
X7187285Y-23340714D01*
X7158714Y-23326429D01*
X7144428Y-23312143D01*
X7130143Y-23283571D01*
X7115857Y-23226429D01*
X7115857Y-23155000D01*
X7130143Y-23097857D01*
X7144428Y-23069286D01*
X7158714Y-23055000D01*
X7187285Y-23040714D01*
X7644428Y-23340714D02*
X7644428Y-23040714D01*
X7773000Y-23340714D02*
X7773000Y-23183571D01*
X7758714Y-23155000D01*
X7730143Y-23140714D01*
X7687285Y-23140714D01*
X7658714Y-23155000D01*
X7644428Y-23169286D01*
X7958714Y-23340714D02*
X7930143Y-23326429D01*
X7915857Y-23312143D01*
X7901571Y-23283571D01*
X7901571Y-23197857D01*
X7915857Y-23169286D01*
X7930143Y-23155000D01*
X7958714Y-23140714D01*
X8001571Y-23140714D01*
X8030143Y-23155000D01*
X8044428Y-23169286D01*
X8058714Y-23197857D01*
X8058714Y-23283571D01*
X8044428Y-23312143D01*
X8030143Y-23326429D01*
X8001571Y-23340714D01*
X7958714Y-23340714D01*
X8230143Y-23340714D02*
X8201571Y-23326429D01*
X8187286Y-23297857D01*
X8187286Y-23040714D01*
X8458714Y-23326429D02*
X8430143Y-23340714D01*
X8373000Y-23340714D01*
X8344428Y-23326429D01*
X8330143Y-23297857D01*
X8330143Y-23183571D01*
X8344428Y-23155000D01*
X8373000Y-23140714D01*
X8430143Y-23140714D01*
X8458714Y-23155000D01*
X8473000Y-23183571D01*
X8473000Y-23212143D01*
X8330143Y-23240714D01*
X8587286Y-23326429D02*
X8615857Y-23340714D01*
X8673000Y-23340714D01*
X8701571Y-23326429D01*
X8715857Y-23297857D01*
X8715857Y-23283571D01*
X8701571Y-23255000D01*
X8673000Y-23240714D01*
X8630143Y-23240714D01*
X8601571Y-23226429D01*
X8587286Y-23197857D01*
X8587286Y-23183571D01*
X8601571Y-23155000D01*
X8630143Y-23140714D01*
X8673000Y-23140714D01*
X8701571Y-23155000D01*
X8815857Y-23455000D02*
X8830143Y-23440714D01*
X8858714Y-23397857D01*
X8873000Y-23369286D01*
X8887286Y-23326429D01*
X8901571Y-23255000D01*
X8901571Y-23197857D01*
X8887286Y-23126429D01*
X8873000Y-23083571D01*
X8858714Y-23055000D01*
X8830143Y-23012143D01*
X8815857Y-22997857D01*
X1733000Y-23561000D02*
X1733000Y-23641000D01*
X1693000Y-23601000D02*
X1773000Y-23601000D01*
X2101571Y-23436714D02*
X2130143Y-23436714D01*
X2158714Y-23451000D01*
X2173000Y-23465286D01*
X2187286Y-23493857D01*
X2201571Y-23551000D01*
X2201571Y-23622429D01*
X2187286Y-23679571D01*
X2173000Y-23708143D01*
X2158714Y-23722429D01*
X2130143Y-23736714D01*
X2101571Y-23736714D01*
X2073000Y-23722429D01*
X2058714Y-23708143D01*
X2044428Y-23679571D01*
X2030143Y-23622429D01*
X2030143Y-23551000D01*
X2044428Y-23493857D01*
X2058714Y-23465286D01*
X2073000Y-23451000D01*
X2101571Y-23436714D01*
X2330143Y-23708143D02*
X2344429Y-23722429D01*
X2330143Y-23736714D01*
X2315857Y-23722429D01*
X2330143Y-23708143D01*
X2330143Y-23736714D01*
X2515857Y-23565286D02*
X2487286Y-23551000D01*
X2473000Y-23536714D01*
X2458714Y-23508143D01*
X2458714Y-23493857D01*
X2473000Y-23465286D01*
X2487286Y-23451000D01*
X2515857Y-23436714D01*
X2573000Y-23436714D01*
X2601571Y-23451000D01*
X2615857Y-23465286D01*
X2630143Y-23493857D01*
X2630143Y-23508143D01*
X2615857Y-23536714D01*
X2601571Y-23551000D01*
X2573000Y-23565286D01*
X2515857Y-23565286D01*
X2487286Y-23579571D01*
X2473000Y-23593857D01*
X2458714Y-23622429D01*
X2458714Y-23679571D01*
X2473000Y-23708143D01*
X2487286Y-23722429D01*
X2515857Y-23736714D01*
X2573000Y-23736714D01*
X2601571Y-23722429D01*
X2615857Y-23708143D01*
X2630143Y-23679571D01*
X2630143Y-23622429D01*
X2615857Y-23593857D01*
X2601571Y-23579571D01*
X2573000Y-23565286D01*
X2815857Y-23436714D02*
X2844428Y-23436714D01*
X2873000Y-23451000D01*
X2887286Y-23465286D01*
X2901571Y-23493857D01*
X2915857Y-23551000D01*
X2915857Y-23622429D01*
X2901571Y-23679571D01*
X2887286Y-23708143D01*
X2873000Y-23722429D01*
X2844428Y-23736714D01*
X2815857Y-23736714D01*
X2787286Y-23722429D01*
X2773000Y-23708143D01*
X2758714Y-23679571D01*
X2744429Y-23622429D01*
X2744429Y-23551000D01*
X2758714Y-23493857D01*
X2773000Y-23465286D01*
X2787286Y-23451000D01*
X2815857Y-23436714D01*
X3044428Y-23736714D02*
X3044428Y-23536714D01*
X3044428Y-23565286D02*
X3058714Y-23551000D01*
X3087286Y-23536714D01*
X3130143Y-23536714D01*
X3158714Y-23551000D01*
X3173000Y-23579571D01*
X3173000Y-23736714D01*
X3173000Y-23579571D02*
X3187286Y-23551000D01*
X3215857Y-23536714D01*
X3258714Y-23536714D01*
X3287286Y-23551000D01*
X3301571Y-23579571D01*
X3301571Y-23736714D01*
X3444428Y-23736714D02*
X3444428Y-23536714D01*
X3444428Y-23565286D02*
X3458714Y-23551000D01*
X3487286Y-23536714D01*
X3530143Y-23536714D01*
X3558714Y-23551000D01*
X3573000Y-23579571D01*
X3573000Y-23736714D01*
X3573000Y-23579571D02*
X3587286Y-23551000D01*
X3615857Y-23536714D01*
X3658714Y-23536714D01*
X3687286Y-23551000D01*
X3701571Y-23579571D01*
X3701571Y-23736714D01*
X4287286Y-23422429D02*
X4030143Y-23808143D01*
X4673000Y-23436714D02*
X4701571Y-23436714D01*
X4730143Y-23451000D01*
X4744428Y-23465286D01*
X4758714Y-23493857D01*
X4773000Y-23551000D01*
X4773000Y-23622429D01*
X4758714Y-23679571D01*
X4744428Y-23708143D01*
X4730143Y-23722429D01*
X4701571Y-23736714D01*
X4673000Y-23736714D01*
X4644428Y-23722429D01*
X4630143Y-23708143D01*
X4615857Y-23679571D01*
X4601571Y-23622429D01*
X4601571Y-23551000D01*
X4615857Y-23493857D01*
X4630143Y-23465286D01*
X4644428Y-23451000D01*
X4673000Y-23436714D01*
X4901571Y-23708143D02*
X4915857Y-23722429D01*
X4901571Y-23736714D01*
X4887286Y-23722429D01*
X4901571Y-23708143D01*
X4901571Y-23736714D01*
X5101571Y-23436714D02*
X5130143Y-23436714D01*
X5158714Y-23451000D01*
X5173000Y-23465286D01*
X5187286Y-23493857D01*
X5201571Y-23551000D01*
X5201571Y-23622429D01*
X5187286Y-23679571D01*
X5173000Y-23708143D01*
X5158714Y-23722429D01*
X5130143Y-23736714D01*
X5101571Y-23736714D01*
X5073000Y-23722429D01*
X5058714Y-23708143D01*
X5044428Y-23679571D01*
X5030143Y-23622429D01*
X5030143Y-23551000D01*
X5044428Y-23493857D01*
X5058714Y-23465286D01*
X5073000Y-23451000D01*
X5101571Y-23436714D01*
X5301571Y-23436714D02*
X5487286Y-23436714D01*
X5387286Y-23551000D01*
X5430143Y-23551000D01*
X5458714Y-23565286D01*
X5473000Y-23579571D01*
X5487286Y-23608143D01*
X5487286Y-23679571D01*
X5473000Y-23708143D01*
X5458714Y-23722429D01*
X5430143Y-23736714D01*
X5344428Y-23736714D01*
X5315857Y-23722429D01*
X5301571Y-23708143D01*
X5773000Y-23736714D02*
X5601571Y-23736714D01*
X5687285Y-23736714D02*
X5687285Y-23436714D01*
X5658714Y-23479571D01*
X5630143Y-23508143D01*
X5601571Y-23522429D01*
X5887286Y-23436714D02*
X5887286Y-23493857D01*
X6001571Y-23436714D02*
X6001571Y-23493857D01*
X6444428Y-23851000D02*
X6430143Y-23836714D01*
X6401571Y-23793857D01*
X6387285Y-23765286D01*
X6373000Y-23722429D01*
X6358714Y-23651000D01*
X6358714Y-23593857D01*
X6373000Y-23522429D01*
X6387285Y-23479571D01*
X6401571Y-23451000D01*
X6430143Y-23408143D01*
X6444428Y-23393857D01*
X6530143Y-23436714D02*
X6715857Y-23436714D01*
X6615857Y-23551000D01*
X6658714Y-23551000D01*
X6687285Y-23565286D01*
X6701571Y-23579571D01*
X6715857Y-23608143D01*
X6715857Y-23679571D01*
X6701571Y-23708143D01*
X6687285Y-23722429D01*
X6658714Y-23736714D01*
X6573000Y-23736714D01*
X6544428Y-23722429D01*
X6530143Y-23708143D01*
X6901571Y-23436714D02*
X6930143Y-23436714D01*
X6958714Y-23451000D01*
X6973000Y-23465286D01*
X6987285Y-23493857D01*
X7001571Y-23551000D01*
X7001571Y-23622429D01*
X6987285Y-23679571D01*
X6973000Y-23708143D01*
X6958714Y-23722429D01*
X6930143Y-23736714D01*
X6901571Y-23736714D01*
X6873000Y-23722429D01*
X6858714Y-23708143D01*
X6844428Y-23679571D01*
X6830143Y-23622429D01*
X6830143Y-23551000D01*
X6844428Y-23493857D01*
X6858714Y-23465286D01*
X6873000Y-23451000D01*
X6901571Y-23436714D01*
X7358714Y-23736714D02*
X7358714Y-23436714D01*
X7487285Y-23736714D02*
X7487285Y-23579571D01*
X7473000Y-23551000D01*
X7444428Y-23536714D01*
X7401571Y-23536714D01*
X7373000Y-23551000D01*
X7358714Y-23565286D01*
X7673000Y-23736714D02*
X7644428Y-23722429D01*
X7630143Y-23708143D01*
X7615857Y-23679571D01*
X7615857Y-23593857D01*
X7630143Y-23565286D01*
X7644428Y-23551000D01*
X7673000Y-23536714D01*
X7715857Y-23536714D01*
X7744428Y-23551000D01*
X7758714Y-23565286D01*
X7773000Y-23593857D01*
X7773000Y-23679571D01*
X7758714Y-23708143D01*
X7744428Y-23722429D01*
X7715857Y-23736714D01*
X7673000Y-23736714D01*
X7944428Y-23736714D02*
X7915857Y-23722429D01*
X7901571Y-23693857D01*
X7901571Y-23436714D01*
X8173000Y-23722429D02*
X8144428Y-23736714D01*
X8087286Y-23736714D01*
X8058714Y-23722429D01*
X8044428Y-23693857D01*
X8044428Y-23579571D01*
X8058714Y-23551000D01*
X8087286Y-23536714D01*
X8144428Y-23536714D01*
X8173000Y-23551000D01*
X8187286Y-23579571D01*
X8187286Y-23608143D01*
X8044428Y-23636714D01*
X8301571Y-23722429D02*
X8330143Y-23736714D01*
X8387286Y-23736714D01*
X8415857Y-23722429D01*
X8430143Y-23693857D01*
X8430143Y-23679571D01*
X8415857Y-23651000D01*
X8387286Y-23636714D01*
X8344428Y-23636714D01*
X8315857Y-23622429D01*
X8301571Y-23593857D01*
X8301571Y-23579571D01*
X8315857Y-23551000D01*
X8344428Y-23536714D01*
X8387286Y-23536714D01*
X8415857Y-23551000D01*
X8530143Y-23851000D02*
X8544429Y-23836714D01*
X8573000Y-23793857D01*
X8587286Y-23765286D01*
X8601571Y-23722429D01*
X8615857Y-23651000D01*
X8615857Y-23593857D01*
X8601571Y-23522429D01*
X8587286Y-23479571D01*
X8573000Y-23451000D01*
X8544429Y-23408143D01*
X8530143Y-23393857D01*
X1758356Y-24032356D02*
X1758356Y-23961644D01*
X1687644Y-23961644D01*
X1687644Y-24032356D01*
X1758356Y-24032356D01*
X2201571Y-24132714D02*
X2030143Y-24132714D01*
X2115857Y-24132714D02*
X2115857Y-23832714D01*
X2087286Y-23875571D01*
X2058714Y-23904143D01*
X2030143Y-23918429D01*
X2330143Y-24104143D02*
X2344429Y-24118429D01*
X2330143Y-24132714D01*
X2315857Y-24118429D01*
X2330143Y-24104143D01*
X2330143Y-24132714D01*
X2530143Y-23832714D02*
X2558714Y-23832714D01*
X2587286Y-23847000D01*
X2601571Y-23861286D01*
X2615857Y-23889857D01*
X2630143Y-23947000D01*
X2630143Y-24018429D01*
X2615857Y-24075571D01*
X2601571Y-24104143D01*
X2587286Y-24118429D01*
X2558714Y-24132714D01*
X2530143Y-24132714D01*
X2501571Y-24118429D01*
X2487286Y-24104143D01*
X2473000Y-24075571D01*
X2458714Y-24018429D01*
X2458714Y-23947000D01*
X2473000Y-23889857D01*
X2487286Y-23861286D01*
X2501571Y-23847000D01*
X2530143Y-23832714D01*
X2815857Y-23832714D02*
X2844428Y-23832714D01*
X2873000Y-23847000D01*
X2887286Y-23861286D01*
X2901571Y-23889857D01*
X2915857Y-23947000D01*
X2915857Y-24018429D01*
X2901571Y-24075571D01*
X2887286Y-24104143D01*
X2873000Y-24118429D01*
X2844428Y-24132714D01*
X2815857Y-24132714D01*
X2787286Y-24118429D01*
X2773000Y-24104143D01*
X2758714Y-24075571D01*
X2744429Y-24018429D01*
X2744429Y-23947000D01*
X2758714Y-23889857D01*
X2773000Y-23861286D01*
X2787286Y-23847000D01*
X2815857Y-23832714D01*
X3044428Y-24132714D02*
X3044428Y-23932714D01*
X3044428Y-23961286D02*
X3058714Y-23947000D01*
X3087286Y-23932714D01*
X3130143Y-23932714D01*
X3158714Y-23947000D01*
X3173000Y-23975571D01*
X3173000Y-24132714D01*
X3173000Y-23975571D02*
X3187286Y-23947000D01*
X3215857Y-23932714D01*
X3258714Y-23932714D01*
X3287286Y-23947000D01*
X3301571Y-23975571D01*
X3301571Y-24132714D01*
X3444428Y-24132714D02*
X3444428Y-23932714D01*
X3444428Y-23961286D02*
X3458714Y-23947000D01*
X3487286Y-23932714D01*
X3530143Y-23932714D01*
X3558714Y-23947000D01*
X3573000Y-23975571D01*
X3573000Y-24132714D01*
X3573000Y-23975571D02*
X3587286Y-23947000D01*
X3615857Y-23932714D01*
X3658714Y-23932714D01*
X3687286Y-23947000D01*
X3701571Y-23975571D01*
X3701571Y-24132714D01*
X4287286Y-23818429D02*
X4030143Y-24204143D01*
X4673000Y-23832714D02*
X4701571Y-23832714D01*
X4730143Y-23847000D01*
X4744428Y-23861286D01*
X4758714Y-23889857D01*
X4773000Y-23947000D01*
X4773000Y-24018429D01*
X4758714Y-24075571D01*
X4744428Y-24104143D01*
X4730143Y-24118429D01*
X4701571Y-24132714D01*
X4673000Y-24132714D01*
X4644428Y-24118429D01*
X4630143Y-24104143D01*
X4615857Y-24075571D01*
X4601571Y-24018429D01*
X4601571Y-23947000D01*
X4615857Y-23889857D01*
X4630143Y-23861286D01*
X4644428Y-23847000D01*
X4673000Y-23832714D01*
X4901571Y-24104143D02*
X4915857Y-24118429D01*
X4901571Y-24132714D01*
X4887286Y-24118429D01*
X4901571Y-24104143D01*
X4901571Y-24132714D01*
X5101571Y-23832714D02*
X5130143Y-23832714D01*
X5158714Y-23847000D01*
X5173000Y-23861286D01*
X5187286Y-23889857D01*
X5201571Y-23947000D01*
X5201571Y-24018429D01*
X5187286Y-24075571D01*
X5173000Y-24104143D01*
X5158714Y-24118429D01*
X5130143Y-24132714D01*
X5101571Y-24132714D01*
X5073000Y-24118429D01*
X5058714Y-24104143D01*
X5044428Y-24075571D01*
X5030143Y-24018429D01*
X5030143Y-23947000D01*
X5044428Y-23889857D01*
X5058714Y-23861286D01*
X5073000Y-23847000D01*
X5101571Y-23832714D01*
X5301571Y-23832714D02*
X5487286Y-23832714D01*
X5387286Y-23947000D01*
X5430143Y-23947000D01*
X5458714Y-23961286D01*
X5473000Y-23975571D01*
X5487286Y-24004143D01*
X5487286Y-24075571D01*
X5473000Y-24104143D01*
X5458714Y-24118429D01*
X5430143Y-24132714D01*
X5344428Y-24132714D01*
X5315857Y-24118429D01*
X5301571Y-24104143D01*
X5630143Y-24132714D02*
X5687285Y-24132714D01*
X5715857Y-24118429D01*
X5730143Y-24104143D01*
X5758714Y-24061286D01*
X5773000Y-24004143D01*
X5773000Y-23889857D01*
X5758714Y-23861286D01*
X5744428Y-23847000D01*
X5715857Y-23832714D01*
X5658714Y-23832714D01*
X5630143Y-23847000D01*
X5615857Y-23861286D01*
X5601571Y-23889857D01*
X5601571Y-23961286D01*
X5615857Y-23989857D01*
X5630143Y-24004143D01*
X5658714Y-24018429D01*
X5715857Y-24018429D01*
X5744428Y-24004143D01*
X5758714Y-23989857D01*
X5773000Y-23961286D01*
X5887286Y-23832714D02*
X5887286Y-23889857D01*
X6001571Y-23832714D02*
X6001571Y-23889857D01*
X6444428Y-24247000D02*
X6430143Y-24232714D01*
X6401571Y-24189857D01*
X6387285Y-24161286D01*
X6373000Y-24118429D01*
X6358714Y-24047000D01*
X6358714Y-23989857D01*
X6373000Y-23918429D01*
X6387285Y-23875571D01*
X6401571Y-23847000D01*
X6430143Y-23804143D01*
X6444428Y-23789857D01*
X6715857Y-24132714D02*
X6544428Y-24132714D01*
X6630143Y-24132714D02*
X6630143Y-23832714D01*
X6601571Y-23875571D01*
X6573000Y-23904143D01*
X6544428Y-23918429D01*
X6987285Y-23832714D02*
X6844428Y-23832714D01*
X6830143Y-23975571D01*
X6844428Y-23961286D01*
X6873000Y-23947000D01*
X6944428Y-23947000D01*
X6973000Y-23961286D01*
X6987285Y-23975571D01*
X7001571Y-24004143D01*
X7001571Y-24075571D01*
X6987285Y-24104143D01*
X6973000Y-24118429D01*
X6944428Y-24132714D01*
X6873000Y-24132714D01*
X6844428Y-24118429D01*
X6830143Y-24104143D01*
X7358714Y-24132714D02*
X7358714Y-23832714D01*
X7487285Y-24132714D02*
X7487285Y-23975571D01*
X7473000Y-23947000D01*
X7444428Y-23932714D01*
X7401571Y-23932714D01*
X7373000Y-23947000D01*
X7358714Y-23961286D01*
X7673000Y-24132714D02*
X7644428Y-24118429D01*
X7630143Y-24104143D01*
X7615857Y-24075571D01*
X7615857Y-23989857D01*
X7630143Y-23961286D01*
X7644428Y-23947000D01*
X7673000Y-23932714D01*
X7715857Y-23932714D01*
X7744428Y-23947000D01*
X7758714Y-23961286D01*
X7773000Y-23989857D01*
X7773000Y-24075571D01*
X7758714Y-24104143D01*
X7744428Y-24118429D01*
X7715857Y-24132714D01*
X7673000Y-24132714D01*
X7944428Y-24132714D02*
X7915857Y-24118429D01*
X7901571Y-24089857D01*
X7901571Y-23832714D01*
X8173000Y-24118429D02*
X8144428Y-24132714D01*
X8087286Y-24132714D01*
X8058714Y-24118429D01*
X8044428Y-24089857D01*
X8044428Y-23975571D01*
X8058714Y-23947000D01*
X8087286Y-23932714D01*
X8144428Y-23932714D01*
X8173000Y-23947000D01*
X8187286Y-23975571D01*
X8187286Y-24004143D01*
X8044428Y-24032714D01*
X8301571Y-24118429D02*
X8330143Y-24132714D01*
X8387286Y-24132714D01*
X8415857Y-24118429D01*
X8430143Y-24089857D01*
X8430143Y-24075571D01*
X8415857Y-24047000D01*
X8387286Y-24032714D01*
X8344428Y-24032714D01*
X8315857Y-24018429D01*
X8301571Y-23989857D01*
X8301571Y-23975571D01*
X8315857Y-23947000D01*
X8344428Y-23932714D01*
X8387286Y-23932714D01*
X8415857Y-23947000D01*
X8530143Y-24247000D02*
X8544429Y-24232714D01*
X8573000Y-24189857D01*
X8587286Y-24161286D01*
X8601571Y-24118429D01*
X8615857Y-24047000D01*
X8615857Y-23989857D01*
X8601571Y-23918429D01*
X8587286Y-23875571D01*
X8573000Y-23847000D01*
X8544429Y-23804143D01*
X8530143Y-23789857D01*
X1718000Y-24448000D02*
X1773000Y-24393000D01*
X1718000Y-24338000D01*
X1663000Y-24393000D01*
X1718000Y-24448000D01*
X2201571Y-24528714D02*
X2030143Y-24528714D01*
X2115857Y-24528714D02*
X2115857Y-24228714D01*
X2087286Y-24271571D01*
X2058714Y-24300143D01*
X2030143Y-24314429D01*
X2330143Y-24500143D02*
X2344429Y-24514429D01*
X2330143Y-24528714D01*
X2315857Y-24514429D01*
X2330143Y-24500143D01*
X2330143Y-24528714D01*
X2630143Y-24528714D02*
X2458714Y-24528714D01*
X2544428Y-24528714D02*
X2544428Y-24228714D01*
X2515857Y-24271571D01*
X2487286Y-24300143D01*
X2458714Y-24314429D01*
X2815857Y-24228714D02*
X2844428Y-24228714D01*
X2873000Y-24243000D01*
X2887286Y-24257286D01*
X2901571Y-24285857D01*
X2915857Y-24343000D01*
X2915857Y-24414429D01*
X2901571Y-24471571D01*
X2887286Y-24500143D01*
X2873000Y-24514429D01*
X2844428Y-24528714D01*
X2815857Y-24528714D01*
X2787286Y-24514429D01*
X2773000Y-24500143D01*
X2758714Y-24471571D01*
X2744429Y-24414429D01*
X2744429Y-24343000D01*
X2758714Y-24285857D01*
X2773000Y-24257286D01*
X2787286Y-24243000D01*
X2815857Y-24228714D01*
X3044428Y-24528714D02*
X3044428Y-24328714D01*
X3044428Y-24357286D02*
X3058714Y-24343000D01*
X3087286Y-24328714D01*
X3130143Y-24328714D01*
X3158714Y-24343000D01*
X3173000Y-24371571D01*
X3173000Y-24528714D01*
X3173000Y-24371571D02*
X3187286Y-24343000D01*
X3215857Y-24328714D01*
X3258714Y-24328714D01*
X3287286Y-24343000D01*
X3301571Y-24371571D01*
X3301571Y-24528714D01*
X3444428Y-24528714D02*
X3444428Y-24328714D01*
X3444428Y-24357286D02*
X3458714Y-24343000D01*
X3487286Y-24328714D01*
X3530143Y-24328714D01*
X3558714Y-24343000D01*
X3573000Y-24371571D01*
X3573000Y-24528714D01*
X3573000Y-24371571D02*
X3587286Y-24343000D01*
X3615857Y-24328714D01*
X3658714Y-24328714D01*
X3687286Y-24343000D01*
X3701571Y-24371571D01*
X3701571Y-24528714D01*
X4287286Y-24214429D02*
X4030143Y-24600143D01*
X4673000Y-24228714D02*
X4701571Y-24228714D01*
X4730143Y-24243000D01*
X4744428Y-24257286D01*
X4758714Y-24285857D01*
X4773000Y-24343000D01*
X4773000Y-24414429D01*
X4758714Y-24471571D01*
X4744428Y-24500143D01*
X4730143Y-24514429D01*
X4701571Y-24528714D01*
X4673000Y-24528714D01*
X4644428Y-24514429D01*
X4630143Y-24500143D01*
X4615857Y-24471571D01*
X4601571Y-24414429D01*
X4601571Y-24343000D01*
X4615857Y-24285857D01*
X4630143Y-24257286D01*
X4644428Y-24243000D01*
X4673000Y-24228714D01*
X4901571Y-24500143D02*
X4915857Y-24514429D01*
X4901571Y-24528714D01*
X4887286Y-24514429D01*
X4901571Y-24500143D01*
X4901571Y-24528714D01*
X5101571Y-24228714D02*
X5130143Y-24228714D01*
X5158714Y-24243000D01*
X5173000Y-24257286D01*
X5187286Y-24285857D01*
X5201571Y-24343000D01*
X5201571Y-24414429D01*
X5187286Y-24471571D01*
X5173000Y-24500143D01*
X5158714Y-24514429D01*
X5130143Y-24528714D01*
X5101571Y-24528714D01*
X5073000Y-24514429D01*
X5058714Y-24500143D01*
X5044428Y-24471571D01*
X5030143Y-24414429D01*
X5030143Y-24343000D01*
X5044428Y-24285857D01*
X5058714Y-24257286D01*
X5073000Y-24243000D01*
X5101571Y-24228714D01*
X5458714Y-24328714D02*
X5458714Y-24528714D01*
X5387286Y-24214429D02*
X5315857Y-24428714D01*
X5501571Y-24428714D01*
X5587286Y-24228714D02*
X5773000Y-24228714D01*
X5673000Y-24343000D01*
X5715857Y-24343000D01*
X5744428Y-24357286D01*
X5758714Y-24371571D01*
X5773000Y-24400143D01*
X5773000Y-24471571D01*
X5758714Y-24500143D01*
X5744428Y-24514429D01*
X5715857Y-24528714D01*
X5630143Y-24528714D01*
X5601571Y-24514429D01*
X5587286Y-24500143D01*
X5887286Y-24228714D02*
X5887286Y-24285857D01*
X6001571Y-24228714D02*
X6001571Y-24285857D01*
X6444428Y-24643000D02*
X6430143Y-24628714D01*
X6401571Y-24585857D01*
X6387285Y-24557286D01*
X6373000Y-24514429D01*
X6358714Y-24443000D01*
X6358714Y-24385857D01*
X6373000Y-24314429D01*
X6387285Y-24271571D01*
X6401571Y-24243000D01*
X6430143Y-24200143D01*
X6444428Y-24185857D01*
X6701571Y-24228714D02*
X6558714Y-24228714D01*
X6544428Y-24371571D01*
X6558714Y-24357286D01*
X6587285Y-24343000D01*
X6658714Y-24343000D01*
X6687285Y-24357286D01*
X6701571Y-24371571D01*
X6715857Y-24400143D01*
X6715857Y-24471571D01*
X6701571Y-24500143D01*
X6687285Y-24514429D01*
X6658714Y-24528714D01*
X6587285Y-24528714D01*
X6558714Y-24514429D01*
X6544428Y-24500143D01*
X6973000Y-24228714D02*
X6915857Y-24228714D01*
X6887285Y-24243000D01*
X6873000Y-24257286D01*
X6844428Y-24300143D01*
X6830143Y-24357286D01*
X6830143Y-24471571D01*
X6844428Y-24500143D01*
X6858714Y-24514429D01*
X6887285Y-24528714D01*
X6944428Y-24528714D01*
X6973000Y-24514429D01*
X6987285Y-24500143D01*
X7001571Y-24471571D01*
X7001571Y-24400143D01*
X6987285Y-24371571D01*
X6973000Y-24357286D01*
X6944428Y-24343000D01*
X6887285Y-24343000D01*
X6858714Y-24357286D01*
X6844428Y-24371571D01*
X6830143Y-24400143D01*
X7187285Y-24228714D02*
X7215857Y-24228714D01*
X7244428Y-24243000D01*
X7258714Y-24257286D01*
X7273000Y-24285857D01*
X7287285Y-24343000D01*
X7287285Y-24414429D01*
X7273000Y-24471571D01*
X7258714Y-24500143D01*
X7244428Y-24514429D01*
X7215857Y-24528714D01*
X7187285Y-24528714D01*
X7158714Y-24514429D01*
X7144428Y-24500143D01*
X7130143Y-24471571D01*
X7115857Y-24414429D01*
X7115857Y-24343000D01*
X7130143Y-24285857D01*
X7144428Y-24257286D01*
X7158714Y-24243000D01*
X7187285Y-24228714D01*
X7644428Y-24528714D02*
X7644428Y-24228714D01*
X7773000Y-24528714D02*
X7773000Y-24371571D01*
X7758714Y-24343000D01*
X7730143Y-24328714D01*
X7687285Y-24328714D01*
X7658714Y-24343000D01*
X7644428Y-24357286D01*
X7958714Y-24528714D02*
X7930143Y-24514429D01*
X7915857Y-24500143D01*
X7901571Y-24471571D01*
X7901571Y-24385857D01*
X7915857Y-24357286D01*
X7930143Y-24343000D01*
X7958714Y-24328714D01*
X8001571Y-24328714D01*
X8030143Y-24343000D01*
X8044428Y-24357286D01*
X8058714Y-24385857D01*
X8058714Y-24471571D01*
X8044428Y-24500143D01*
X8030143Y-24514429D01*
X8001571Y-24528714D01*
X7958714Y-24528714D01*
X8230143Y-24528714D02*
X8201571Y-24514429D01*
X8187286Y-24485857D01*
X8187286Y-24228714D01*
X8458714Y-24514429D02*
X8430143Y-24528714D01*
X8373000Y-24528714D01*
X8344428Y-24514429D01*
X8330143Y-24485857D01*
X8330143Y-24371571D01*
X8344428Y-24343000D01*
X8373000Y-24328714D01*
X8430143Y-24328714D01*
X8458714Y-24343000D01*
X8473000Y-24371571D01*
X8473000Y-24400143D01*
X8330143Y-24428714D01*
X8587286Y-24514429D02*
X8615857Y-24528714D01*
X8673000Y-24528714D01*
X8701571Y-24514429D01*
X8715857Y-24485857D01*
X8715857Y-24471571D01*
X8701571Y-24443000D01*
X8673000Y-24428714D01*
X8630143Y-24428714D01*
X8601571Y-24414429D01*
X8587286Y-24385857D01*
X8587286Y-24371571D01*
X8601571Y-24343000D01*
X8630143Y-24328714D01*
X8673000Y-24328714D01*
X8701571Y-24343000D01*
X8815857Y-24643000D02*
X8830143Y-24628714D01*
X8858714Y-24585857D01*
X8873000Y-24557286D01*
X8887286Y-24514429D01*
X8901571Y-24443000D01*
X8901571Y-24385857D01*
X8887286Y-24314429D01*
X8873000Y-24271571D01*
X8858714Y-24243000D01*
X8830143Y-24200143D01*
X8815857Y-24185857D01*
X1653000Y-24729000D02*
X1773000Y-24849000D01*
X1773000Y-24729000D02*
X1653000Y-24849000D01*
X1773000Y-24789000D02*
G75*
G03X1773000Y-24789000I-60000J0D01*
G01*
X2201571Y-24924714D02*
X2030143Y-24924714D01*
X2115857Y-24924714D02*
X2115857Y-24624714D01*
X2087286Y-24667571D01*
X2058714Y-24696143D01*
X2030143Y-24710429D01*
X2330143Y-24896143D02*
X2344429Y-24910429D01*
X2330143Y-24924714D01*
X2315857Y-24910429D01*
X2330143Y-24896143D01*
X2330143Y-24924714D01*
X2458714Y-24653286D02*
X2473000Y-24639000D01*
X2501571Y-24624714D01*
X2573000Y-24624714D01*
X2601571Y-24639000D01*
X2615857Y-24653286D01*
X2630143Y-24681857D01*
X2630143Y-24710429D01*
X2615857Y-24753286D01*
X2444428Y-24924714D01*
X2630143Y-24924714D01*
X2815857Y-24624714D02*
X2844428Y-24624714D01*
X2873000Y-24639000D01*
X2887286Y-24653286D01*
X2901571Y-24681857D01*
X2915857Y-24739000D01*
X2915857Y-24810429D01*
X2901571Y-24867571D01*
X2887286Y-24896143D01*
X2873000Y-24910429D01*
X2844428Y-24924714D01*
X2815857Y-24924714D01*
X2787286Y-24910429D01*
X2773000Y-24896143D01*
X2758714Y-24867571D01*
X2744429Y-24810429D01*
X2744429Y-24739000D01*
X2758714Y-24681857D01*
X2773000Y-24653286D01*
X2787286Y-24639000D01*
X2815857Y-24624714D01*
X3044428Y-24924714D02*
X3044428Y-24724714D01*
X3044428Y-24753286D02*
X3058714Y-24739000D01*
X3087286Y-24724714D01*
X3130143Y-24724714D01*
X3158714Y-24739000D01*
X3173000Y-24767571D01*
X3173000Y-24924714D01*
X3173000Y-24767571D02*
X3187286Y-24739000D01*
X3215857Y-24724714D01*
X3258714Y-24724714D01*
X3287286Y-24739000D01*
X3301571Y-24767571D01*
X3301571Y-24924714D01*
X3444428Y-24924714D02*
X3444428Y-24724714D01*
X3444428Y-24753286D02*
X3458714Y-24739000D01*
X3487286Y-24724714D01*
X3530143Y-24724714D01*
X3558714Y-24739000D01*
X3573000Y-24767571D01*
X3573000Y-24924714D01*
X3573000Y-24767571D02*
X3587286Y-24739000D01*
X3615857Y-24724714D01*
X3658714Y-24724714D01*
X3687286Y-24739000D01*
X3701571Y-24767571D01*
X3701571Y-24924714D01*
X4287286Y-24610429D02*
X4030143Y-24996143D01*
X4673000Y-24624714D02*
X4701571Y-24624714D01*
X4730143Y-24639000D01*
X4744428Y-24653286D01*
X4758714Y-24681857D01*
X4773000Y-24739000D01*
X4773000Y-24810429D01*
X4758714Y-24867571D01*
X4744428Y-24896143D01*
X4730143Y-24910429D01*
X4701571Y-24924714D01*
X4673000Y-24924714D01*
X4644428Y-24910429D01*
X4630143Y-24896143D01*
X4615857Y-24867571D01*
X4601571Y-24810429D01*
X4601571Y-24739000D01*
X4615857Y-24681857D01*
X4630143Y-24653286D01*
X4644428Y-24639000D01*
X4673000Y-24624714D01*
X4901571Y-24896143D02*
X4915857Y-24910429D01*
X4901571Y-24924714D01*
X4887286Y-24910429D01*
X4901571Y-24896143D01*
X4901571Y-24924714D01*
X5101571Y-24624714D02*
X5130143Y-24624714D01*
X5158714Y-24639000D01*
X5173000Y-24653286D01*
X5187286Y-24681857D01*
X5201571Y-24739000D01*
X5201571Y-24810429D01*
X5187286Y-24867571D01*
X5173000Y-24896143D01*
X5158714Y-24910429D01*
X5130143Y-24924714D01*
X5101571Y-24924714D01*
X5073000Y-24910429D01*
X5058714Y-24896143D01*
X5044428Y-24867571D01*
X5030143Y-24810429D01*
X5030143Y-24739000D01*
X5044428Y-24681857D01*
X5058714Y-24653286D01*
X5073000Y-24639000D01*
X5101571Y-24624714D01*
X5458714Y-24724714D02*
X5458714Y-24924714D01*
X5387286Y-24610429D02*
X5315857Y-24824714D01*
X5501571Y-24824714D01*
X5587286Y-24624714D02*
X5787285Y-24624714D01*
X5658714Y-24924714D01*
X5887286Y-24624714D02*
X5887286Y-24681857D01*
X6001571Y-24624714D02*
X6001571Y-24681857D01*
X6444428Y-25039000D02*
X6430143Y-25024714D01*
X6401571Y-24981857D01*
X6387285Y-24953286D01*
X6373000Y-24910429D01*
X6358714Y-24839000D01*
X6358714Y-24781857D01*
X6373000Y-24710429D01*
X6387285Y-24667571D01*
X6401571Y-24639000D01*
X6430143Y-24596143D01*
X6444428Y-24581857D01*
X6530143Y-24624714D02*
X6715857Y-24624714D01*
X6615857Y-24739000D01*
X6658714Y-24739000D01*
X6687285Y-24753286D01*
X6701571Y-24767571D01*
X6715857Y-24796143D01*
X6715857Y-24867571D01*
X6701571Y-24896143D01*
X6687285Y-24910429D01*
X6658714Y-24924714D01*
X6573000Y-24924714D01*
X6544428Y-24910429D01*
X6530143Y-24896143D01*
X6830143Y-24653286D02*
X6844428Y-24639000D01*
X6873000Y-24624714D01*
X6944428Y-24624714D01*
X6973000Y-24639000D01*
X6987285Y-24653286D01*
X7001571Y-24681857D01*
X7001571Y-24710429D01*
X6987285Y-24753286D01*
X6815857Y-24924714D01*
X7001571Y-24924714D01*
X7358714Y-24924714D02*
X7358714Y-24624714D01*
X7487285Y-24924714D02*
X7487285Y-24767571D01*
X7473000Y-24739000D01*
X7444428Y-24724714D01*
X7401571Y-24724714D01*
X7373000Y-24739000D01*
X7358714Y-24753286D01*
X7673000Y-24924714D02*
X7644428Y-24910429D01*
X7630143Y-24896143D01*
X7615857Y-24867571D01*
X7615857Y-24781857D01*
X7630143Y-24753286D01*
X7644428Y-24739000D01*
X7673000Y-24724714D01*
X7715857Y-24724714D01*
X7744428Y-24739000D01*
X7758714Y-24753286D01*
X7773000Y-24781857D01*
X7773000Y-24867571D01*
X7758714Y-24896143D01*
X7744428Y-24910429D01*
X7715857Y-24924714D01*
X7673000Y-24924714D01*
X7944428Y-24924714D02*
X7915857Y-24910429D01*
X7901571Y-24881857D01*
X7901571Y-24624714D01*
X8173000Y-24910429D02*
X8144428Y-24924714D01*
X8087286Y-24924714D01*
X8058714Y-24910429D01*
X8044428Y-24881857D01*
X8044428Y-24767571D01*
X8058714Y-24739000D01*
X8087286Y-24724714D01*
X8144428Y-24724714D01*
X8173000Y-24739000D01*
X8187286Y-24767571D01*
X8187286Y-24796143D01*
X8044428Y-24824714D01*
X8301571Y-24910429D02*
X8330143Y-24924714D01*
X8387286Y-24924714D01*
X8415857Y-24910429D01*
X8430143Y-24881857D01*
X8430143Y-24867571D01*
X8415857Y-24839000D01*
X8387286Y-24824714D01*
X8344428Y-24824714D01*
X8315857Y-24810429D01*
X8301571Y-24781857D01*
X8301571Y-24767571D01*
X8315857Y-24739000D01*
X8344428Y-24724714D01*
X8387286Y-24724714D01*
X8415857Y-24739000D01*
X8530143Y-25039000D02*
X8544429Y-25024714D01*
X8573000Y-24981857D01*
X8587286Y-24953286D01*
X8601571Y-24910429D01*
X8615857Y-24839000D01*
X8615857Y-24781857D01*
X8601571Y-24710429D01*
X8587286Y-24667571D01*
X8573000Y-24639000D01*
X8544429Y-24596143D01*
X8530143Y-24581857D01*
X1623000Y-25110000D02*
X1773000Y-25260000D01*
X1773000Y-25110000D02*
X1623000Y-25260000D01*
X1698000Y-25110000D02*
X1698000Y-25260000D01*
X1623000Y-25185000D02*
X1773000Y-25185000D01*
X2201571Y-25320714D02*
X2030143Y-25320714D01*
X2115857Y-25320714D02*
X2115857Y-25020714D01*
X2087286Y-25063571D01*
X2058714Y-25092143D01*
X2030143Y-25106429D01*
X2330143Y-25292143D02*
X2344429Y-25306429D01*
X2330143Y-25320714D01*
X2315857Y-25306429D01*
X2330143Y-25292143D01*
X2330143Y-25320714D01*
X2615857Y-25020714D02*
X2473000Y-25020714D01*
X2458714Y-25163571D01*
X2473000Y-25149286D01*
X2501571Y-25135000D01*
X2573000Y-25135000D01*
X2601571Y-25149286D01*
X2615857Y-25163571D01*
X2630143Y-25192143D01*
X2630143Y-25263571D01*
X2615857Y-25292143D01*
X2601571Y-25306429D01*
X2573000Y-25320714D01*
X2501571Y-25320714D01*
X2473000Y-25306429D01*
X2458714Y-25292143D01*
X2815857Y-25020714D02*
X2844428Y-25020714D01*
X2873000Y-25035000D01*
X2887286Y-25049286D01*
X2901571Y-25077857D01*
X2915857Y-25135000D01*
X2915857Y-25206429D01*
X2901571Y-25263571D01*
X2887286Y-25292143D01*
X2873000Y-25306429D01*
X2844428Y-25320714D01*
X2815857Y-25320714D01*
X2787286Y-25306429D01*
X2773000Y-25292143D01*
X2758714Y-25263571D01*
X2744429Y-25206429D01*
X2744429Y-25135000D01*
X2758714Y-25077857D01*
X2773000Y-25049286D01*
X2787286Y-25035000D01*
X2815857Y-25020714D01*
X3044428Y-25320714D02*
X3044428Y-25120714D01*
X3044428Y-25149286D02*
X3058714Y-25135000D01*
X3087286Y-25120714D01*
X3130143Y-25120714D01*
X3158714Y-25135000D01*
X3173000Y-25163571D01*
X3173000Y-25320714D01*
X3173000Y-25163571D02*
X3187286Y-25135000D01*
X3215857Y-25120714D01*
X3258714Y-25120714D01*
X3287286Y-25135000D01*
X3301571Y-25163571D01*
X3301571Y-25320714D01*
X3444428Y-25320714D02*
X3444428Y-25120714D01*
X3444428Y-25149286D02*
X3458714Y-25135000D01*
X3487286Y-25120714D01*
X3530143Y-25120714D01*
X3558714Y-25135000D01*
X3573000Y-25163571D01*
X3573000Y-25320714D01*
X3573000Y-25163571D02*
X3587286Y-25135000D01*
X3615857Y-25120714D01*
X3658714Y-25120714D01*
X3687286Y-25135000D01*
X3701571Y-25163571D01*
X3701571Y-25320714D01*
X4287286Y-25006429D02*
X4030143Y-25392143D01*
X4673000Y-25020714D02*
X4701571Y-25020714D01*
X4730143Y-25035000D01*
X4744428Y-25049286D01*
X4758714Y-25077857D01*
X4773000Y-25135000D01*
X4773000Y-25206429D01*
X4758714Y-25263571D01*
X4744428Y-25292143D01*
X4730143Y-25306429D01*
X4701571Y-25320714D01*
X4673000Y-25320714D01*
X4644428Y-25306429D01*
X4630143Y-25292143D01*
X4615857Y-25263571D01*
X4601571Y-25206429D01*
X4601571Y-25135000D01*
X4615857Y-25077857D01*
X4630143Y-25049286D01*
X4644428Y-25035000D01*
X4673000Y-25020714D01*
X4901571Y-25292143D02*
X4915857Y-25306429D01*
X4901571Y-25320714D01*
X4887286Y-25306429D01*
X4901571Y-25292143D01*
X4901571Y-25320714D01*
X5101571Y-25020714D02*
X5130143Y-25020714D01*
X5158714Y-25035000D01*
X5173000Y-25049286D01*
X5187286Y-25077857D01*
X5201571Y-25135000D01*
X5201571Y-25206429D01*
X5187286Y-25263571D01*
X5173000Y-25292143D01*
X5158714Y-25306429D01*
X5130143Y-25320714D01*
X5101571Y-25320714D01*
X5073000Y-25306429D01*
X5058714Y-25292143D01*
X5044428Y-25263571D01*
X5030143Y-25206429D01*
X5030143Y-25135000D01*
X5044428Y-25077857D01*
X5058714Y-25049286D01*
X5073000Y-25035000D01*
X5101571Y-25020714D01*
X5473000Y-25020714D02*
X5330143Y-25020714D01*
X5315857Y-25163571D01*
X5330143Y-25149286D01*
X5358714Y-25135000D01*
X5430143Y-25135000D01*
X5458714Y-25149286D01*
X5473000Y-25163571D01*
X5487286Y-25192143D01*
X5487286Y-25263571D01*
X5473000Y-25292143D01*
X5458714Y-25306429D01*
X5430143Y-25320714D01*
X5358714Y-25320714D01*
X5330143Y-25306429D01*
X5315857Y-25292143D01*
X5630143Y-25320714D02*
X5687285Y-25320714D01*
X5715857Y-25306429D01*
X5730143Y-25292143D01*
X5758714Y-25249286D01*
X5773000Y-25192143D01*
X5773000Y-25077857D01*
X5758714Y-25049286D01*
X5744428Y-25035000D01*
X5715857Y-25020714D01*
X5658714Y-25020714D01*
X5630143Y-25035000D01*
X5615857Y-25049286D01*
X5601571Y-25077857D01*
X5601571Y-25149286D01*
X5615857Y-25177857D01*
X5630143Y-25192143D01*
X5658714Y-25206429D01*
X5715857Y-25206429D01*
X5744428Y-25192143D01*
X5758714Y-25177857D01*
X5773000Y-25149286D01*
X5887286Y-25020714D02*
X5887286Y-25077857D01*
X6001571Y-25020714D02*
X6001571Y-25077857D01*
X6444428Y-25435000D02*
X6430143Y-25420714D01*
X6401571Y-25377857D01*
X6387285Y-25349286D01*
X6373000Y-25306429D01*
X6358714Y-25235000D01*
X6358714Y-25177857D01*
X6373000Y-25106429D01*
X6387285Y-25063571D01*
X6401571Y-25035000D01*
X6430143Y-24992143D01*
X6444428Y-24977857D01*
X6687285Y-25020714D02*
X6630143Y-25020714D01*
X6601571Y-25035000D01*
X6587285Y-25049286D01*
X6558714Y-25092143D01*
X6544428Y-25149286D01*
X6544428Y-25263571D01*
X6558714Y-25292143D01*
X6573000Y-25306429D01*
X6601571Y-25320714D01*
X6658714Y-25320714D01*
X6687285Y-25306429D01*
X6701571Y-25292143D01*
X6715857Y-25263571D01*
X6715857Y-25192143D01*
X6701571Y-25163571D01*
X6687285Y-25149286D01*
X6658714Y-25135000D01*
X6601571Y-25135000D01*
X6573000Y-25149286D01*
X6558714Y-25163571D01*
X6544428Y-25192143D01*
X7073000Y-25320714D02*
X7073000Y-25020714D01*
X7201571Y-25320714D02*
X7201571Y-25163571D01*
X7187285Y-25135000D01*
X7158714Y-25120714D01*
X7115857Y-25120714D01*
X7087285Y-25135000D01*
X7073000Y-25149286D01*
X7387285Y-25320714D02*
X7358714Y-25306429D01*
X7344428Y-25292143D01*
X7330143Y-25263571D01*
X7330143Y-25177857D01*
X7344428Y-25149286D01*
X7358714Y-25135000D01*
X7387285Y-25120714D01*
X7430143Y-25120714D01*
X7458714Y-25135000D01*
X7473000Y-25149286D01*
X7487285Y-25177857D01*
X7487285Y-25263571D01*
X7473000Y-25292143D01*
X7458714Y-25306429D01*
X7430143Y-25320714D01*
X7387285Y-25320714D01*
X7658714Y-25320714D02*
X7630143Y-25306429D01*
X7615857Y-25277857D01*
X7615857Y-25020714D01*
X7887286Y-25306429D02*
X7858714Y-25320714D01*
X7801571Y-25320714D01*
X7773000Y-25306429D01*
X7758714Y-25277857D01*
X7758714Y-25163571D01*
X7773000Y-25135000D01*
X7801571Y-25120714D01*
X7858714Y-25120714D01*
X7887286Y-25135000D01*
X7901571Y-25163571D01*
X7901571Y-25192143D01*
X7758714Y-25220714D01*
X8015857Y-25306429D02*
X8044428Y-25320714D01*
X8101571Y-25320714D01*
X8130143Y-25306429D01*
X8144428Y-25277857D01*
X8144428Y-25263571D01*
X8130143Y-25235000D01*
X8101571Y-25220714D01*
X8058714Y-25220714D01*
X8030143Y-25206429D01*
X8015857Y-25177857D01*
X8015857Y-25163571D01*
X8030143Y-25135000D01*
X8058714Y-25120714D01*
X8101571Y-25120714D01*
X8130143Y-25135000D01*
X8244428Y-25435000D02*
X8258714Y-25420714D01*
X8287286Y-25377857D01*
X8301571Y-25349286D01*
X8315857Y-25306429D01*
X8330143Y-25235000D01*
X8330143Y-25177857D01*
X8315857Y-25106429D01*
X8301571Y-25063571D01*
X8287286Y-25035000D01*
X8258714Y-24992143D01*
X8244428Y-24977857D01*
X1595000Y-25492000D02*
X1773000Y-25670000D01*
X1773000Y-25492000D02*
X1595000Y-25670000D01*
X1746933Y-25643933D02*
X1746933Y-25518067D01*
X1621067Y-25518067D01*
X1621067Y-25643933D01*
X1746933Y-25643933D01*
X2201571Y-25716714D02*
X2030143Y-25716714D01*
X2115857Y-25716714D02*
X2115857Y-25416714D01*
X2087286Y-25459571D01*
X2058714Y-25488143D01*
X2030143Y-25502429D01*
X2330143Y-25688143D02*
X2344429Y-25702429D01*
X2330143Y-25716714D01*
X2315857Y-25702429D01*
X2330143Y-25688143D01*
X2330143Y-25716714D01*
X2444428Y-25416714D02*
X2644428Y-25416714D01*
X2515857Y-25716714D01*
X2801571Y-25545286D02*
X2773000Y-25531000D01*
X2758714Y-25516714D01*
X2744429Y-25488143D01*
X2744429Y-25473857D01*
X2758714Y-25445286D01*
X2773000Y-25431000D01*
X2801571Y-25416714D01*
X2858714Y-25416714D01*
X2887286Y-25431000D01*
X2901571Y-25445286D01*
X2915857Y-25473857D01*
X2915857Y-25488143D01*
X2901571Y-25516714D01*
X2887286Y-25531000D01*
X2858714Y-25545286D01*
X2801571Y-25545286D01*
X2773000Y-25559571D01*
X2758714Y-25573857D01*
X2744429Y-25602429D01*
X2744429Y-25659571D01*
X2758714Y-25688143D01*
X2773000Y-25702429D01*
X2801571Y-25716714D01*
X2858714Y-25716714D01*
X2887286Y-25702429D01*
X2901571Y-25688143D01*
X2915857Y-25659571D01*
X2915857Y-25602429D01*
X2901571Y-25573857D01*
X2887286Y-25559571D01*
X2858714Y-25545286D01*
X3044428Y-25716714D02*
X3044428Y-25516714D01*
X3044428Y-25545286D02*
X3058714Y-25531000D01*
X3087286Y-25516714D01*
X3130143Y-25516714D01*
X3158714Y-25531000D01*
X3173000Y-25559571D01*
X3173000Y-25716714D01*
X3173000Y-25559571D02*
X3187286Y-25531000D01*
X3215857Y-25516714D01*
X3258714Y-25516714D01*
X3287286Y-25531000D01*
X3301571Y-25559571D01*
X3301571Y-25716714D01*
X3444428Y-25716714D02*
X3444428Y-25516714D01*
X3444428Y-25545286D02*
X3458714Y-25531000D01*
X3487286Y-25516714D01*
X3530143Y-25516714D01*
X3558714Y-25531000D01*
X3573000Y-25559571D01*
X3573000Y-25716714D01*
X3573000Y-25559571D02*
X3587286Y-25531000D01*
X3615857Y-25516714D01*
X3658714Y-25516714D01*
X3687286Y-25531000D01*
X3701571Y-25559571D01*
X3701571Y-25716714D01*
X4287286Y-25402429D02*
X4030143Y-25788143D01*
X4673000Y-25416714D02*
X4701571Y-25416714D01*
X4730143Y-25431000D01*
X4744428Y-25445286D01*
X4758714Y-25473857D01*
X4773000Y-25531000D01*
X4773000Y-25602429D01*
X4758714Y-25659571D01*
X4744428Y-25688143D01*
X4730143Y-25702429D01*
X4701571Y-25716714D01*
X4673000Y-25716714D01*
X4644428Y-25702429D01*
X4630143Y-25688143D01*
X4615857Y-25659571D01*
X4601571Y-25602429D01*
X4601571Y-25531000D01*
X4615857Y-25473857D01*
X4630143Y-25445286D01*
X4644428Y-25431000D01*
X4673000Y-25416714D01*
X4901571Y-25688143D02*
X4915857Y-25702429D01*
X4901571Y-25716714D01*
X4887286Y-25702429D01*
X4901571Y-25688143D01*
X4901571Y-25716714D01*
X5101571Y-25416714D02*
X5130143Y-25416714D01*
X5158714Y-25431000D01*
X5173000Y-25445286D01*
X5187286Y-25473857D01*
X5201571Y-25531000D01*
X5201571Y-25602429D01*
X5187286Y-25659571D01*
X5173000Y-25688143D01*
X5158714Y-25702429D01*
X5130143Y-25716714D01*
X5101571Y-25716714D01*
X5073000Y-25702429D01*
X5058714Y-25688143D01*
X5044428Y-25659571D01*
X5030143Y-25602429D01*
X5030143Y-25531000D01*
X5044428Y-25473857D01*
X5058714Y-25445286D01*
X5073000Y-25431000D01*
X5101571Y-25416714D01*
X5301571Y-25416714D02*
X5501571Y-25416714D01*
X5373000Y-25716714D01*
X5673000Y-25416714D02*
X5701571Y-25416714D01*
X5730143Y-25431000D01*
X5744428Y-25445286D01*
X5758714Y-25473857D01*
X5773000Y-25531000D01*
X5773000Y-25602429D01*
X5758714Y-25659571D01*
X5744428Y-25688143D01*
X5730143Y-25702429D01*
X5701571Y-25716714D01*
X5673000Y-25716714D01*
X5644428Y-25702429D01*
X5630143Y-25688143D01*
X5615857Y-25659571D01*
X5601571Y-25602429D01*
X5601571Y-25531000D01*
X5615857Y-25473857D01*
X5630143Y-25445286D01*
X5644428Y-25431000D01*
X5673000Y-25416714D01*
X5887286Y-25416714D02*
X5887286Y-25473857D01*
X6001571Y-25416714D02*
X6001571Y-25473857D01*
X6444428Y-25831000D02*
X6430143Y-25816714D01*
X6401571Y-25773857D01*
X6387285Y-25745286D01*
X6373000Y-25702429D01*
X6358714Y-25631000D01*
X6358714Y-25573857D01*
X6373000Y-25502429D01*
X6387285Y-25459571D01*
X6401571Y-25431000D01*
X6430143Y-25388143D01*
X6444428Y-25373857D01*
X6715857Y-25716714D02*
X6544428Y-25716714D01*
X6630143Y-25716714D02*
X6630143Y-25416714D01*
X6601571Y-25459571D01*
X6573000Y-25488143D01*
X6544428Y-25502429D01*
X6830143Y-25445286D02*
X6844428Y-25431000D01*
X6873000Y-25416714D01*
X6944428Y-25416714D01*
X6973000Y-25431000D01*
X6987285Y-25445286D01*
X7001571Y-25473857D01*
X7001571Y-25502429D01*
X6987285Y-25545286D01*
X6815857Y-25716714D01*
X7001571Y-25716714D01*
X7358714Y-25716714D02*
X7358714Y-25416714D01*
X7487285Y-25716714D02*
X7487285Y-25559571D01*
X7473000Y-25531000D01*
X7444428Y-25516714D01*
X7401571Y-25516714D01*
X7373000Y-25531000D01*
X7358714Y-25545286D01*
X7673000Y-25716714D02*
X7644428Y-25702429D01*
X7630143Y-25688143D01*
X7615857Y-25659571D01*
X7615857Y-25573857D01*
X7630143Y-25545286D01*
X7644428Y-25531000D01*
X7673000Y-25516714D01*
X7715857Y-25516714D01*
X7744428Y-25531000D01*
X7758714Y-25545286D01*
X7773000Y-25573857D01*
X7773000Y-25659571D01*
X7758714Y-25688143D01*
X7744428Y-25702429D01*
X7715857Y-25716714D01*
X7673000Y-25716714D01*
X7944428Y-25716714D02*
X7915857Y-25702429D01*
X7901571Y-25673857D01*
X7901571Y-25416714D01*
X8173000Y-25702429D02*
X8144428Y-25716714D01*
X8087286Y-25716714D01*
X8058714Y-25702429D01*
X8044428Y-25673857D01*
X8044428Y-25559571D01*
X8058714Y-25531000D01*
X8087286Y-25516714D01*
X8144428Y-25516714D01*
X8173000Y-25531000D01*
X8187286Y-25559571D01*
X8187286Y-25588143D01*
X8044428Y-25616714D01*
X8301571Y-25702429D02*
X8330143Y-25716714D01*
X8387286Y-25716714D01*
X8415857Y-25702429D01*
X8430143Y-25673857D01*
X8430143Y-25659571D01*
X8415857Y-25631000D01*
X8387286Y-25616714D01*
X8344428Y-25616714D01*
X8315857Y-25602429D01*
X8301571Y-25573857D01*
X8301571Y-25559571D01*
X8315857Y-25531000D01*
X8344428Y-25516714D01*
X8387286Y-25516714D01*
X8415857Y-25531000D01*
X8530143Y-25831000D02*
X8544429Y-25816714D01*
X8573000Y-25773857D01*
X8587286Y-25745286D01*
X8601571Y-25702429D01*
X8615857Y-25631000D01*
X8615857Y-25573857D01*
X8601571Y-25502429D01*
X8587286Y-25459571D01*
X8573000Y-25431000D01*
X8544429Y-25388143D01*
X8530143Y-25373857D01*
M02*
