G04 #@! TF.FileFunction,Legend,Top*
%FSLAX46Y46*%
G04 Gerber Fmt 4.6, Leading zero omitted, Abs format (unit mm)*
G04 Created by KiCad (PCBNEW 4.0.1-stable) date Wednesday, June 29, 2016 'PMt' 09:03:30 PM*
%MOMM*%
G01*
G04 APERTURE LIST*
%ADD10C,0.100000*%
%ADD11C,0.150000*%
G04 APERTURE END LIST*
D10*
D11*
X183900000Y-98660000D02*
X182900000Y-98660000D01*
X182900000Y-100360000D02*
X183900000Y-100360000D01*
X184076000Y-86933000D02*
X187251000Y-86933000D01*
X187251000Y-86933000D02*
X187251000Y-85155000D01*
X187251000Y-85155000D02*
X184076000Y-85155000D01*
X184076000Y-91505000D02*
X187251000Y-91505000D01*
X187251000Y-91505000D02*
X187251000Y-89727000D01*
X187251000Y-89727000D02*
X184076000Y-89727000D01*
X177980000Y-84901000D02*
X184076000Y-84901000D01*
X184076000Y-84901000D02*
X184076000Y-91759000D01*
X184076000Y-91759000D02*
X176202000Y-91759000D01*
X176075000Y-91759000D02*
X176075000Y-84901000D01*
X176202000Y-84901000D02*
X177980000Y-84901000D01*
X183850000Y-94010000D02*
X182850000Y-94010000D01*
X182850000Y-95710000D02*
X183850000Y-95710000D01*
X188990000Y-96220000D02*
X188990000Y-95220000D01*
X187290000Y-95220000D02*
X187290000Y-96220000D01*
X194420000Y-84400000D02*
X189340000Y-84400000D01*
X189340000Y-84400000D02*
X189340000Y-86940000D01*
X189340000Y-86940000D02*
X194420000Y-86940000D01*
X197240000Y-87220000D02*
X195690000Y-87220000D01*
X194420000Y-86940000D02*
X194420000Y-84400000D01*
X195690000Y-84120000D02*
X197240000Y-84120000D01*
X197240000Y-84120000D02*
X197240000Y-87220000D01*
X194380000Y-99070000D02*
X189300000Y-99070000D01*
X189300000Y-99070000D02*
X189300000Y-101610000D01*
X189300000Y-101610000D02*
X194380000Y-101610000D01*
X197200000Y-101890000D02*
X195650000Y-101890000D01*
X194380000Y-101610000D02*
X194380000Y-99070000D01*
X195650000Y-98790000D02*
X197200000Y-98790000D01*
X197200000Y-98790000D02*
X197200000Y-101890000D01*
X191005000Y-96280000D02*
X191005000Y-95080000D01*
X192755000Y-95080000D02*
X192755000Y-96280000D01*
X196595000Y-95120000D02*
X196595000Y-96320000D01*
X194845000Y-96320000D02*
X194845000Y-95120000D01*
X179030000Y-98650000D02*
X179030000Y-93570000D01*
X179030000Y-93570000D02*
X176490000Y-93570000D01*
X176490000Y-93570000D02*
X176490000Y-98650000D01*
X176210000Y-101470000D02*
X176210000Y-99920000D01*
X176490000Y-98650000D02*
X179030000Y-98650000D01*
X179310000Y-99920000D02*
X179310000Y-101470000D01*
X179310000Y-101470000D02*
X176210000Y-101470000D01*
X195095000Y-92470000D02*
X195095000Y-92270000D01*
X190445000Y-92470000D02*
X190445000Y-92270000D01*
X190445000Y-89220000D02*
X190445000Y-89420000D01*
X195095000Y-89220000D02*
X195095000Y-89420000D01*
X195095000Y-92470000D02*
X190445000Y-92470000D01*
X195095000Y-89220000D02*
X190445000Y-89220000D01*
X195095000Y-92270000D02*
X196445000Y-92270000D01*
X183263334Y-98237143D02*
X183215715Y-98284762D01*
X183072858Y-98332381D01*
X182977620Y-98332381D01*
X182834762Y-98284762D01*
X182739524Y-98189524D01*
X182691905Y-98094286D01*
X182644286Y-97903810D01*
X182644286Y-97760952D01*
X182691905Y-97570476D01*
X182739524Y-97475238D01*
X182834762Y-97380000D01*
X182977620Y-97332381D01*
X183072858Y-97332381D01*
X183215715Y-97380000D01*
X183263334Y-97427619D01*
X183644286Y-97427619D02*
X183691905Y-97380000D01*
X183787143Y-97332381D01*
X184025239Y-97332381D01*
X184120477Y-97380000D01*
X184168096Y-97427619D01*
X184215715Y-97522857D01*
X184215715Y-97618095D01*
X184168096Y-97760952D01*
X183596667Y-98332381D01*
X184215715Y-98332381D01*
X174638381Y-89091905D02*
X175447905Y-89091905D01*
X175543143Y-89044286D01*
X175590762Y-88996667D01*
X175638381Y-88901429D01*
X175638381Y-88710952D01*
X175590762Y-88615714D01*
X175543143Y-88568095D01*
X175447905Y-88520476D01*
X174638381Y-88520476D01*
X175638381Y-87520476D02*
X175638381Y-88091905D01*
X175638381Y-87806191D02*
X174638381Y-87806191D01*
X174781238Y-87901429D01*
X174876476Y-87996667D01*
X174924095Y-88091905D01*
X183183334Y-93487143D02*
X183135715Y-93534762D01*
X182992858Y-93582381D01*
X182897620Y-93582381D01*
X182754762Y-93534762D01*
X182659524Y-93439524D01*
X182611905Y-93344286D01*
X182564286Y-93153810D01*
X182564286Y-93010952D01*
X182611905Y-92820476D01*
X182659524Y-92725238D01*
X182754762Y-92630000D01*
X182897620Y-92582381D01*
X182992858Y-92582381D01*
X183135715Y-92630000D01*
X183183334Y-92677619D01*
X184135715Y-93582381D02*
X183564286Y-93582381D01*
X183850000Y-93582381D02*
X183850000Y-92582381D01*
X183754762Y-92725238D01*
X183659524Y-92820476D01*
X183564286Y-92868095D01*
X186867143Y-95886666D02*
X186914762Y-95934285D01*
X186962381Y-96077142D01*
X186962381Y-96172380D01*
X186914762Y-96315238D01*
X186819524Y-96410476D01*
X186724286Y-96458095D01*
X186533810Y-96505714D01*
X186390952Y-96505714D01*
X186200476Y-96458095D01*
X186105238Y-96410476D01*
X186010000Y-96315238D01*
X185962381Y-96172380D01*
X185962381Y-96077142D01*
X186010000Y-95934285D01*
X186057619Y-95886666D01*
X185962381Y-95553333D02*
X185962381Y-94934285D01*
X186343333Y-95267619D01*
X186343333Y-95124761D01*
X186390952Y-95029523D01*
X186438571Y-94981904D01*
X186533810Y-94934285D01*
X186771905Y-94934285D01*
X186867143Y-94981904D01*
X186914762Y-95029523D01*
X186962381Y-95124761D01*
X186962381Y-95410476D01*
X186914762Y-95505714D01*
X186867143Y-95553333D01*
X198812381Y-86298095D02*
X197812381Y-86298095D01*
X197812381Y-85917142D01*
X197860000Y-85821904D01*
X197907619Y-85774285D01*
X198002857Y-85726666D01*
X198145714Y-85726666D01*
X198240952Y-85774285D01*
X198288571Y-85821904D01*
X198336190Y-85917142D01*
X198336190Y-86298095D01*
X198812381Y-84774285D02*
X198812381Y-85345714D01*
X198812381Y-85060000D02*
X197812381Y-85060000D01*
X197955238Y-85155238D01*
X198050476Y-85250476D01*
X198098095Y-85345714D01*
X198762381Y-101068095D02*
X197762381Y-101068095D01*
X197762381Y-100687142D01*
X197810000Y-100591904D01*
X197857619Y-100544285D01*
X197952857Y-100496666D01*
X198095714Y-100496666D01*
X198190952Y-100544285D01*
X198238571Y-100591904D01*
X198286190Y-100687142D01*
X198286190Y-101068095D01*
X197857619Y-100115714D02*
X197810000Y-100068095D01*
X197762381Y-99972857D01*
X197762381Y-99734761D01*
X197810000Y-99639523D01*
X197857619Y-99591904D01*
X197952857Y-99544285D01*
X198048095Y-99544285D01*
X198190952Y-99591904D01*
X198762381Y-100163333D01*
X198762381Y-99544285D01*
X190712381Y-95756666D02*
X190236190Y-96090000D01*
X190712381Y-96328095D02*
X189712381Y-96328095D01*
X189712381Y-95947142D01*
X189760000Y-95851904D01*
X189807619Y-95804285D01*
X189902857Y-95756666D01*
X190045714Y-95756666D01*
X190140952Y-95804285D01*
X190188571Y-95851904D01*
X190236190Y-95947142D01*
X190236190Y-96328095D01*
X190712381Y-94804285D02*
X190712381Y-95375714D01*
X190712381Y-95090000D02*
X189712381Y-95090000D01*
X189855238Y-95185238D01*
X189950476Y-95280476D01*
X189998095Y-95375714D01*
X194512381Y-95926666D02*
X194036190Y-96260000D01*
X194512381Y-96498095D02*
X193512381Y-96498095D01*
X193512381Y-96117142D01*
X193560000Y-96021904D01*
X193607619Y-95974285D01*
X193702857Y-95926666D01*
X193845714Y-95926666D01*
X193940952Y-95974285D01*
X193988571Y-96021904D01*
X194036190Y-96117142D01*
X194036190Y-96498095D01*
X193607619Y-95545714D02*
X193560000Y-95498095D01*
X193512381Y-95402857D01*
X193512381Y-95164761D01*
X193560000Y-95069523D01*
X193607619Y-95021904D01*
X193702857Y-94974285D01*
X193798095Y-94974285D01*
X193940952Y-95021904D01*
X194512381Y-95593333D01*
X194512381Y-94974285D01*
X180892381Y-97825238D02*
X180416190Y-98158572D01*
X180892381Y-98396667D02*
X179892381Y-98396667D01*
X179892381Y-98015714D01*
X179940000Y-97920476D01*
X179987619Y-97872857D01*
X180082857Y-97825238D01*
X180225714Y-97825238D01*
X180320952Y-97872857D01*
X180368571Y-97920476D01*
X180416190Y-98015714D01*
X180416190Y-98396667D01*
X179892381Y-97539524D02*
X180892381Y-97206191D01*
X179892381Y-96872857D01*
X180892381Y-96015714D02*
X180892381Y-96587143D01*
X180892381Y-96301429D02*
X179892381Y-96301429D01*
X180035238Y-96396667D01*
X180130476Y-96491905D01*
X180178095Y-96587143D01*
X192008095Y-87882381D02*
X192008095Y-88691905D01*
X192055714Y-88787143D01*
X192103333Y-88834762D01*
X192198571Y-88882381D01*
X192389048Y-88882381D01*
X192484286Y-88834762D01*
X192531905Y-88787143D01*
X192579524Y-88691905D01*
X192579524Y-87882381D01*
X193008095Y-87977619D02*
X193055714Y-87930000D01*
X193150952Y-87882381D01*
X193389048Y-87882381D01*
X193484286Y-87930000D01*
X193531905Y-87977619D01*
X193579524Y-88072857D01*
X193579524Y-88168095D01*
X193531905Y-88310952D01*
X192960476Y-88882381D01*
X193579524Y-88882381D01*
X202931905Y-88192381D02*
X202931905Y-87192381D01*
X203312858Y-87192381D01*
X203408096Y-87240000D01*
X203455715Y-87287619D01*
X203503334Y-87382857D01*
X203503334Y-87525714D01*
X203455715Y-87620952D01*
X203408096Y-87668571D01*
X203312858Y-87716190D01*
X202931905Y-87716190D01*
X203836667Y-87192381D02*
X204455715Y-87192381D01*
X204122381Y-87573333D01*
X204265239Y-87573333D01*
X204360477Y-87620952D01*
X204408096Y-87668571D01*
X204455715Y-87763810D01*
X204455715Y-88001905D01*
X204408096Y-88097143D01*
X204360477Y-88144762D01*
X204265239Y-88192381D01*
X203979524Y-88192381D01*
X203884286Y-88144762D01*
X203836667Y-88097143D01*
X168861905Y-88422381D02*
X168861905Y-87422381D01*
X169242858Y-87422381D01*
X169338096Y-87470000D01*
X169385715Y-87517619D01*
X169433334Y-87612857D01*
X169433334Y-87755714D01*
X169385715Y-87850952D01*
X169338096Y-87898571D01*
X169242858Y-87946190D01*
X168861905Y-87946190D01*
X170290477Y-87755714D02*
X170290477Y-88422381D01*
X170052381Y-87374762D02*
X169814286Y-88089048D01*
X170433334Y-88089048D01*
M02*
