M48
;DRILL file {KiCad 4.0.4-stable} date 08/04/17 01:11:36
;FORMAT={-:-/ absolute / metric / decimal}
FMAT,2
METRIC,TZ
T1C0.400
T2C0.600
T3C0.800
T4C1.000
T5C1.100
T6C1.200
T7C1.400
T8C1.500
T9C1.780
T10C5.500
%
G90
G05
M71
T1
X28.042Y-111.023
X29.083Y-52.222
X29.616Y-78.156
X33.401Y-23.444
X33.807Y-43.536
X34.036Y-70.256
X34.341Y-127.102
X34.519Y-98.806
X35.623Y-107.975
X36.805Y-52.997
X37.948Y-79.362
X40.805Y-98.031
X41.237Y-25.705
X41.719Y-126.149
X42.024Y-80.353
X42.367Y-53.302
X42.672Y-108.28
X43.701Y-69.19
X44.844Y-98.222
X45.072Y-42.799
X47.104Y-26.01
X47.968Y-53.188
X48.12Y-80.467
X48.12Y-126.073
X48.654Y-70.294
X49.378Y-108.28
X50.965Y-42.494
X52.045Y-69.837
X52.045Y-98.184
X54.864Y-53.302
X55.181Y-25.654
X55.702Y-80.315
X56.197Y-108.204
X56.274Y-125.882
X56.998Y-42.837
X59.741Y-98.412
X59.766Y-43.142
X60.096Y-70.46
X62.179Y-53.264
X63.03Y-26.073
X63.551Y-80.734
X63.817Y-107.937
X64.77Y-125.768
X67.196Y-70.269
X67.246Y-98.374
X67.424Y-42.862
X69.685Y-53.035
X70.015Y-25.425
X71.717Y-80.378
X72.009Y-108.128
X72.466Y-125.654
X74.765Y-98.438
X74.968Y-42.774
X75.019Y-70.637
X77.673Y-53.48
X77.864Y-25.819
X78.537Y-80.353
X79.477Y-108.204
X81.001Y-125.705
X81.356Y-98.654
X82.563Y-70.447
X82.728Y-43.167
X84.938Y-53.315
X85.407Y-25.311
X86.144Y-80.467
X86.677Y-108.356
X88.011Y-125.73
X90.03Y-71.018
X90.361Y-43.282
X93.434Y-98.489
X94.551Y-125.959
X101.397Y-132.791
X102.108Y-150.673
X102.692Y-159.436
X103.096Y-140.612
X103.096Y-142.58
X104.292Y-128.88
X104.965Y-167.764
X104.965Y-169.733
X106.121Y-155.981
X106.462Y-140.612
X106.462Y-142.58
X106.807Y-137.846
X108.255Y-150.52
X108.331Y-167.764
X108.331Y-169.733
X108.621Y-142.58
X108.687Y-164.998
X109.129Y-140.612
X109.347Y-25.019
X109.347Y-79.629
X109.347Y-107.442
X110.335Y-141.818
X110.419Y-148.468
X110.439Y-131.039
X110.49Y-169.733
X110.541Y-134.569
X110.566Y-52.934
X110.589Y-140.866
X110.719Y-161.544
X110.947Y-176.352
X110.998Y-167.764
X111.823Y-60.134
X111.823Y-62.103
X112.078Y-32.956
X112.078Y-34.925
X112.078Y-87.389
X112.078Y-89.357
X112.078Y-115.379
X112.078Y-117.348
X112.166Y-156.87
X112.204Y-168.971
X112.459Y-168.018
X112.903Y-133.477
X112.979Y-48.133
X113.208Y-75.616
X113.233Y-103.53
X113.259Y-21.006
X114.3Y-137.947
X114.3Y-140.995
X114.757Y-96.723
X114.859Y-161.595
X115.037Y-167.208
X115.189Y-60.134
X115.189Y-62.103
X115.443Y-32.956
X115.443Y-34.925
X115.443Y-87.389
X115.443Y-89.357
X115.443Y-115.379
X115.443Y-117.348
X115.799Y-84.43
X115.824Y-112.395
X115.951Y-158.42
X116.484Y-170.205
X116.865Y-141.732
X116.942Y-149.555
X117.348Y-62.103
X117.551Y-53.746
X117.602Y-34.925
X117.602Y-89.357
X117.602Y-117.348
X117.856Y-26.619
X117.856Y-60.134
X117.919Y-175.387
X117.958Y-81.229
X118.11Y-32.956
X118.11Y-87.389
X118.11Y-115.379
X118.618Y-95.479
X118.77Y-151.028
X118.821Y-130.454
X119.062Y-61.341
X119.177Y-107.62
X119.228Y-68.351
X119.316Y-34.163
X119.316Y-60.389
X119.316Y-88.595
X119.316Y-116.586
X119.38Y-40.64
X119.38Y-123.063
X119.482Y-23.216
X119.57Y-33.21
X119.57Y-87.643
X119.57Y-115.633
X119.888Y-77.978
X120.091Y-156.261
X120.142Y-139.446
X120.371Y-45.212
X120.396Y-104.318
X120.396Y-130.175
X120.701Y-98.908
X121.234Y-99.797
X121.285Y-174.549
X121.361Y-164.313
X121.869Y-124.358
X121.92Y-58.928
X121.971Y-135.026
X122.022Y-54.61
X122.123Y-101.194
X122.174Y-31.75
X122.174Y-86.36
X122.199Y-114.783
X122.707Y-36.551
X122.784Y-91.237
X123.088Y-138.074
X123.139Y-150.317
X123.139Y-160.376
X123.292Y-28.296
X123.584Y-182.476
X123.584Y-184.445
X123.622Y-64.44
X123.647Y-49.581
X123.647Y-70.815
X123.647Y-79.553
X123.647Y-88.087
X123.749Y-159.106
X123.774Y-117.653
X123.85Y-107.188
X124.612Y-83.464
X124.765Y-99.949
X124.841Y-170.459
X125.044Y-89.967
X125.044Y-99.187
X125.247Y-111.989
X125.933Y-147.625
X126.162Y-40.665
X126.492Y-191.935
X126.949Y-141.605
X126.949Y-182.476
X126.949Y-184.445
X127.305Y-179.705
X127.711Y-124.358
X127.864Y-187.604
X128.168Y-40.615
X128.549Y-132.766
X129.057Y-50.14
X129.108Y-184.445
X129.261Y-130.404
X129.286Y-37.135
X129.286Y-99.263
X129.337Y-119.786
X129.616Y-182.476
X129.642Y-105.156
X129.794Y-25.425
X129.845Y-35.103
X129.883Y-200.101
X129.896Y-49.225
X129.946Y-43.663
X129.972Y-103.581
X130.454Y-176.276
X130.658Y-77.521
X130.823Y-183.683
X131.013Y-73.127
X131.013Y-172.669
X131.064Y-56.49
X131.064Y-207.67
X131.077Y-182.73
X131.47Y-29.515
X131.851Y-95.987
X131.902Y-113.944
X132.283Y-86.462
X132.41Y-49.276
X132.664Y-92.304
X132.69Y-54.026
X133.299Y-187.604
X133.325Y-109.83
X133.515Y-192.151
X133.706Y-103.175
X133.756Y-176.174
X133.909Y-61.824
X133.909Y-81.89
X133.96Y-68.326
X134.366Y-182.728
X134.722Y-100.228
X134.976Y-90.373
X135.001Y-97.993
X135.026Y-95.098
X135.026Y-107.239
X135.712Y-155.651
X135.992Y-124.485
X136.627Y-95.123
X136.931Y-118.542
X138.709Y-171.501
X138.836Y-109.626
X140.056Y-104.47
X140.31Y-181.127
X140.995Y-173.584
X141.122Y-100.203
X141.173Y-46.584
X141.529Y-175.768
X141.58Y-188.773
X142.596Y-122.961
X144.932Y-121.31
X145.186Y-102.159
X146.355Y-121.869
X146.482Y-183.54
X146.66Y-73.152
X146.787Y-47.168
X146.863Y-122.936
X146.939Y-96.418
X147.015Y-128.854
X147.625Y-119.609
X147.676Y-106.502
X147.904Y-129.591
X148.311Y-135.585
X148.438Y-119.456
X148.742Y-186.08
X148.946Y-108.128
X149.962Y-145.009
X150.114Y-90.526
X150.139Y-117.475
X150.52Y-106.299
X150.978Y-193.192
X151.346Y-199.873
X151.587Y-123.241
X152.044Y-126.975
X152.832Y-108.229
X153.391Y-100.254
X153.899Y-166.294
X153.975Y-135.712
X154.102Y-137.973
X154.635Y-33.096
X154.813Y-100.178
X154.813Y-128.524
X154.991Y-190.551
X155.169Y-126.975
X155.448Y-107.823
X155.88Y-102.87
X155.956Y-182.677
X156.032Y-42.012
X157.226Y-74.422
X157.429Y-117.297
X157.48Y-90.297
X157.709Y-102.21
X157.759Y-193.116
X158.013Y-133.553
X158.953Y-123.241
X159.588Y-151.841
X159.8Y-48.427
X160.401Y-44.526
X160.782Y-189.535
X161.468Y-193.091
X162.814Y-189.535
X163.322Y-185.826
X163.474Y-44.602
X163.525Y-181.94
X164.516Y-198.272
X164.948Y-41.859
X165.354Y-189.687
X166.624Y-182.677
X167.869Y-181.432
X168.707Y-182.016
X169.977Y-51.359
X170.104Y-46.939
X172.339Y-37.592
X172.568Y-165.608
X172.695Y-41.326
X173.939Y-193.751
X175.743Y-203.073
X175.946Y-207.62
X176.86Y-154.229
X177.216Y-202.692
X177.851Y-175.006
X180.34Y-157.844
X182.651Y-42.012
X185.547Y-165.862
X185.572Y-168.58
X186.588Y-166.903
X186.944Y-181.254
X187.147Y-157.785
X187.909Y-181.407
X188.392Y-89.51
X188.468Y-79.299
X189.103Y-125.844
X189.154Y-182.677
X189.865Y-174.676
X189.865Y-185.979
X190.195Y-166.903
X191.135Y-183.439
X192.786Y-125.844
X192.913Y-113.64
X193.662Y-124.054
X193.726Y-146.761
X193.8Y-165.8
X196.647Y-194.539
X197.485Y-118.161
X198.857Y-193.065
X200.355Y-98.628
X202.59Y-172.987
X212.217Y-174.333
T2
X20.869Y-22.454
X22.037Y-202.082
X22.067Y-19.527
X22.067Y-25.38
X23.235Y-199.156
X23.235Y-205.009
X24.994Y-18.329
X24.994Y-26.579
X26.162Y-197.957
X26.162Y-206.207
X27.92Y-19.527
X27.92Y-25.38
X29.089Y-199.156
X29.089Y-205.009
X29.119Y-22.454
X30.287Y-202.082
X193.411Y-25.103
X193.411Y-203.403
X194.609Y-22.176
X194.609Y-28.03
X194.609Y-200.476
X194.609Y-206.33
X197.536Y-20.978
X197.536Y-29.228
X197.536Y-199.278
X197.536Y-207.528
X200.463Y-22.176
X200.463Y-28.03
X200.463Y-200.476
X200.463Y-206.33
X201.661Y-25.103
X201.661Y-203.403
T3
X151.486Y-170.536
X151.486Y-178.156
X154.026Y-170.536
X154.026Y-178.156
X156.566Y-170.536
X156.566Y-178.156
X159.106Y-170.536
X159.106Y-178.156
X160.88Y-165.506
X161.646Y-170.536
X161.646Y-178.156
X164.186Y-170.536
X164.186Y-178.156
X165.76Y-165.506
X166.726Y-170.536
X166.726Y-178.156
X169.266Y-170.536
X169.266Y-178.156
X171.806Y-170.536
X171.806Y-178.156
X174.346Y-170.536
X174.346Y-178.156
X176.886Y-170.536
X176.886Y-178.156
X179.426Y-170.536
X179.426Y-178.156
X181.966Y-170.536
X181.966Y-178.156
X184.506Y-170.536
X184.506Y-178.156
T4
X100.305Y-104.572
X113.106Y-148.996
X115.011Y-143.027
X124.46Y-96.469
X126.949Y-68.402
X127.152Y-91.237
X127.61Y-63.551
X127.864Y-118.669
X127.889Y-35.966
X133.706Y-124.587
X135.814Y-33.731
X135.865Y-40.538
X135.941Y-37.211
X138.354Y-33.731
X138.405Y-40.538
X138.481Y-37.211
X146.761Y-44.933
X148.158Y-113.589
T5
X29.096Y-87.173
X29.096Y-89.713
X29.146Y-59.982
X29.146Y-62.522
X29.197Y-115.049
X29.197Y-117.589
X29.223Y-32.652
X29.223Y-35.192
X31.636Y-87.173
X31.636Y-89.713
X31.686Y-59.982
X31.686Y-62.522
X31.737Y-115.049
X31.737Y-117.589
X31.763Y-32.652
X31.763Y-35.192
X34.176Y-87.173
X34.176Y-89.713
X34.227Y-59.982
X34.227Y-62.522
X34.277Y-115.049
X34.277Y-117.589
X34.303Y-32.652
X34.303Y-35.192
X36.716Y-87.173
X36.716Y-89.713
X36.767Y-59.982
X36.767Y-62.522
X36.817Y-115.049
X36.817Y-117.589
X36.843Y-32.652
X36.843Y-35.192
X37.465Y-137.465
X37.465Y-140.005
X37.465Y-142.545
X37.465Y-145.085
X37.465Y-147.625
X37.465Y-150.165
X37.465Y-152.705
X37.465Y-155.245
X37.465Y-157.785
X37.465Y-160.325
X37.465Y-162.865
X37.465Y-165.405
X37.465Y-167.945
X37.465Y-170.485
X37.465Y-173.025
X37.465Y-175.565
X37.465Y-178.105
X37.465Y-180.645
X37.465Y-183.185
X37.465Y-185.725
X37.465Y-188.265
X37.465Y-190.805
X37.465Y-193.345
X39.256Y-87.173
X39.256Y-89.713
X39.306Y-59.982
X39.306Y-62.522
X39.357Y-115.049
X39.357Y-117.589
X39.383Y-32.652
X39.383Y-35.192
X40.005Y-137.465
X40.005Y-140.005
X40.005Y-142.545
X40.005Y-145.085
X40.005Y-147.625
X40.005Y-150.165
X40.005Y-152.705
X40.005Y-155.245
X40.005Y-157.785
X40.005Y-160.325
X40.005Y-162.865
X40.005Y-165.405
X40.005Y-167.945
X40.005Y-170.485
X40.005Y-173.025
X40.005Y-175.565
X40.005Y-178.105
X40.005Y-180.645
X40.005Y-183.185
X40.005Y-185.725
X40.005Y-188.265
X40.005Y-190.805
X40.005Y-193.345
X41.796Y-87.173
X41.796Y-89.713
X41.846Y-59.982
X41.846Y-62.522
X41.897Y-115.049
X41.897Y-117.589
X41.923Y-32.652
X41.923Y-35.192
X44.336Y-87.173
X44.336Y-89.713
X44.386Y-59.982
X44.386Y-62.522
X44.437Y-115.049
X44.437Y-117.589
X44.463Y-32.652
X44.463Y-35.192
X45.778Y-137.449
X45.778Y-139.989
X45.778Y-142.529
X45.778Y-145.069
X45.778Y-147.609
X45.778Y-150.149
X45.778Y-152.689
X45.778Y-155.229
X45.778Y-157.769
X45.778Y-160.309
X45.778Y-162.849
X45.778Y-165.389
X45.778Y-167.929
X45.778Y-170.469
X45.778Y-173.009
X45.778Y-175.549
X45.778Y-178.089
X45.778Y-180.629
X45.778Y-183.169
X45.778Y-185.709
X45.778Y-188.249
X45.778Y-190.789
X45.778Y-193.329
X46.876Y-87.173
X46.876Y-89.713
X46.926Y-59.982
X46.926Y-62.522
X46.977Y-115.049
X46.977Y-117.589
X47.003Y-32.652
X47.003Y-35.192
X48.318Y-137.449
X48.318Y-139.989
X48.318Y-142.529
X48.318Y-145.069
X48.318Y-147.609
X48.318Y-150.149
X48.318Y-152.689
X48.318Y-155.229
X48.318Y-157.769
X48.318Y-160.309
X48.318Y-162.849
X48.318Y-165.389
X48.318Y-167.929
X48.318Y-170.469
X48.318Y-173.009
X48.318Y-175.549
X48.318Y-178.089
X48.318Y-180.629
X48.318Y-183.169
X48.318Y-185.709
X48.318Y-188.249
X48.318Y-190.789
X48.318Y-193.329
X49.416Y-87.173
X49.416Y-89.713
X49.466Y-59.982
X49.466Y-62.522
X49.517Y-115.049
X49.517Y-117.589
X49.543Y-32.652
X49.543Y-35.192
X51.956Y-87.173
X51.956Y-89.713
X52.006Y-59.982
X52.006Y-62.522
X52.057Y-115.049
X52.057Y-117.589
X52.083Y-32.652
X52.083Y-35.192
X54.026Y-137.439
X54.026Y-139.979
X54.026Y-142.519
X54.026Y-145.059
X54.026Y-147.599
X54.026Y-150.139
X54.026Y-152.679
X54.026Y-155.219
X54.026Y-157.759
X54.026Y-160.299
X54.026Y-162.839
X54.026Y-165.379
X54.026Y-167.919
X54.026Y-170.459
X54.026Y-172.999
X54.026Y-175.539
X54.026Y-178.079
X54.026Y-180.619
X54.026Y-183.159
X54.026Y-185.699
X54.026Y-188.239
X54.026Y-190.779
X54.026Y-193.319
X54.496Y-87.173
X54.496Y-89.713
X54.546Y-59.982
X54.546Y-62.522
X54.597Y-115.049
X54.597Y-117.589
X54.623Y-32.652
X54.623Y-35.192
X56.566Y-137.439
X56.566Y-139.979
X56.566Y-142.519
X56.566Y-145.059
X56.566Y-147.599
X56.566Y-150.139
X56.566Y-152.679
X56.566Y-155.219
X56.566Y-157.759
X56.566Y-160.299
X56.566Y-162.839
X56.566Y-165.379
X56.566Y-167.919
X56.566Y-170.459
X56.566Y-172.999
X56.566Y-175.539
X56.566Y-178.079
X56.566Y-180.619
X56.566Y-183.159
X56.566Y-185.699
X56.566Y-188.239
X56.566Y-190.779
X56.566Y-193.319
X57.036Y-87.173
X57.036Y-89.713
X57.087Y-59.982
X57.087Y-62.522
X57.137Y-115.049
X57.137Y-117.589
X57.163Y-32.652
X57.163Y-35.192
X59.576Y-87.173
X59.576Y-89.713
X59.627Y-59.982
X59.627Y-62.522
X59.677Y-115.049
X59.677Y-117.589
X59.703Y-32.652
X59.703Y-35.192
X62.116Y-87.173
X62.116Y-89.713
X62.166Y-59.982
X62.166Y-62.522
X62.217Y-115.049
X62.217Y-117.589
X62.243Y-32.652
X62.243Y-35.192
X64.656Y-87.173
X64.656Y-89.713
X64.706Y-59.982
X64.706Y-62.522
X64.757Y-115.049
X64.757Y-117.589
X64.783Y-32.652
X64.783Y-35.192
X67.196Y-87.173
X67.196Y-89.713
X67.246Y-59.982
X67.246Y-62.522
X67.297Y-115.049
X67.297Y-117.589
X67.323Y-32.652
X67.323Y-35.192
X69.736Y-87.173
X69.736Y-89.713
X69.787Y-59.982
X69.787Y-62.522
X69.837Y-115.049
X69.837Y-117.589
X69.863Y-32.652
X69.863Y-35.192
X72.276Y-87.173
X72.276Y-89.713
X72.326Y-59.982
X72.326Y-62.522
X72.377Y-115.049
X72.377Y-117.589
X72.403Y-32.652
X72.403Y-35.192
X74.816Y-87.173
X74.816Y-89.713
X74.867Y-59.982
X74.867Y-62.522
X74.917Y-115.049
X74.917Y-117.589
X74.943Y-32.652
X74.943Y-35.192
X77.356Y-87.173
X77.356Y-89.713
X77.406Y-59.982
X77.406Y-62.522
X77.457Y-115.049
X77.457Y-117.589
X77.483Y-32.652
X77.483Y-35.192
X79.896Y-87.173
X79.896Y-89.713
X79.947Y-59.982
X79.947Y-62.522
X79.997Y-115.049
X79.997Y-117.589
X80.023Y-32.652
X80.023Y-35.192
X82.436Y-87.173
X82.436Y-89.713
X82.486Y-59.982
X82.486Y-62.522
X82.537Y-115.049
X82.537Y-117.589
X82.563Y-32.652
X82.563Y-35.192
X84.976Y-87.173
X84.976Y-89.713
X85.026Y-59.982
X85.026Y-62.522
X85.077Y-115.049
X85.077Y-117.589
X85.103Y-32.652
X85.103Y-35.192
X87.516Y-87.173
X87.516Y-89.713
X87.566Y-59.982
X87.566Y-62.522
X87.617Y-115.049
X87.617Y-117.589
X87.643Y-32.652
X87.643Y-35.192
X90.056Y-87.173
X90.056Y-89.713
X90.106Y-59.982
X90.106Y-62.522
X90.157Y-115.049
X90.157Y-117.589
X90.183Y-32.652
X90.183Y-35.192
X163.83Y-72.441
X163.83Y-74.981
X163.83Y-77.521
X163.83Y-80.061
X163.83Y-82.601
X163.83Y-85.141
X163.83Y-87.681
X163.83Y-90.221
X163.83Y-92.761
X163.83Y-95.301
X163.83Y-97.841
X163.83Y-100.381
X163.83Y-102.921
X163.83Y-105.461
X163.83Y-108.001
X163.83Y-110.541
X163.83Y-113.081
X163.83Y-115.621
X163.83Y-118.161
X163.83Y-120.701
X163.83Y-123.241
X163.83Y-125.781
X163.83Y-128.321
X166.37Y-72.441
X166.37Y-74.981
X166.37Y-77.521
X166.37Y-80.061
X166.37Y-82.601
X166.37Y-85.141
X166.37Y-87.681
X166.37Y-90.221
X166.37Y-92.761
X166.37Y-95.301
X166.37Y-97.841
X166.37Y-100.381
X166.37Y-102.921
X166.37Y-105.461
X166.37Y-108.001
X166.37Y-110.541
X166.37Y-113.081
X166.37Y-115.621
X166.37Y-118.161
X166.37Y-120.701
X166.37Y-123.241
X166.37Y-125.781
X166.37Y-128.321
X171.958Y-185.928
X172.085Y-72.441
X172.085Y-74.981
X172.085Y-77.521
X172.085Y-80.061
X172.085Y-82.601
X172.085Y-85.141
X172.085Y-87.681
X172.085Y-90.221
X172.085Y-92.761
X172.085Y-95.301
X172.085Y-97.841
X172.085Y-100.381
X172.085Y-102.921
X172.085Y-105.461
X172.085Y-108.001
X172.085Y-110.541
X172.085Y-113.081
X172.085Y-115.621
X172.085Y-118.161
X172.085Y-120.701
X172.085Y-123.241
X172.085Y-125.781
X172.085Y-128.321
X174.498Y-185.928
X174.625Y-72.441
X174.625Y-74.981
X174.625Y-77.521
X174.625Y-80.061
X174.625Y-82.601
X174.625Y-85.141
X174.625Y-87.681
X174.625Y-90.221
X174.625Y-92.761
X174.625Y-95.301
X174.625Y-97.841
X174.625Y-100.381
X174.625Y-102.921
X174.625Y-105.461
X174.625Y-108.001
X174.625Y-110.541
X174.625Y-113.081
X174.625Y-115.621
X174.625Y-118.161
X174.625Y-120.701
X174.625Y-123.241
X174.625Y-125.781
X174.625Y-128.321
X177.038Y-185.928
X179.578Y-185.928
X180.34Y-72.441
X180.34Y-74.981
X180.34Y-77.521
X180.34Y-80.061
X180.34Y-82.601
X180.34Y-85.141
X180.34Y-87.681
X180.34Y-90.221
X180.34Y-92.761
X180.34Y-95.301
X180.34Y-97.841
X180.34Y-100.381
X180.34Y-102.921
X180.34Y-105.461
X180.34Y-108.001
X180.34Y-110.541
X180.34Y-113.081
X180.34Y-115.621
X180.34Y-118.161
X180.34Y-120.701
X180.34Y-123.241
X180.34Y-125.781
X180.34Y-128.321
X182.118Y-185.928
X182.88Y-72.441
X182.88Y-74.981
X182.88Y-77.521
X182.88Y-80.061
X182.88Y-82.601
X182.88Y-85.141
X182.88Y-87.681
X182.88Y-90.221
X182.88Y-92.761
X182.88Y-95.301
X182.88Y-97.841
X182.88Y-100.381
X182.88Y-102.921
X182.88Y-105.461
X182.88Y-108.001
X182.88Y-110.541
X182.88Y-113.081
X182.88Y-115.621
X182.88Y-118.161
X182.88Y-120.701
X182.88Y-123.241
X182.88Y-125.781
X182.88Y-128.321
X184.658Y-185.928
X206.781Y-78.755
X206.781Y-81.255
T6
X76.048Y-140.919
X76.048Y-143.459
X76.048Y-167.843
X76.048Y-170.383
X78.588Y-140.919
X78.588Y-143.459
X78.588Y-167.843
X78.588Y-170.383
X81.128Y-140.919
X81.128Y-143.459
X81.128Y-167.843
X81.128Y-170.383
X83.668Y-140.919
X83.668Y-143.459
X83.668Y-167.843
X83.668Y-170.383
X86.208Y-140.919
X86.208Y-143.459
X86.208Y-167.843
X86.208Y-170.383
X88.748Y-140.919
X88.748Y-143.459
X88.748Y-167.843
X88.748Y-170.383
X91.288Y-140.919
X91.288Y-143.459
X91.288Y-167.843
X91.288Y-170.383
X93.828Y-140.919
X93.828Y-143.459
X93.828Y-167.843
X93.828Y-170.383
X107.544Y-99.06
X107.544Y-101.6
X107.544Y-104.1
X145.466Y-171.439
X145.466Y-173.939
X145.466Y-176.479
X150.891Y-95.656
X153.391Y-95.656
X153.903Y-23.392
X155.931Y-95.656
X157.403Y-23.392
X160.903Y-23.392
X164.403Y-23.392
X174.121Y-23.316
X177.621Y-23.316
X181.121Y-23.316
X184.621Y-23.316
X205.97Y-87.812
X205.97Y-91.312
X205.97Y-94.812
X205.97Y-98.312
X206.02Y-148.213
X206.02Y-151.713
X206.02Y-155.213
X206.02Y-158.713
X206.173Y-179.607
X206.173Y-183.107
X206.173Y-186.607
X206.173Y-190.107
T7
X27.699Y-131.421
X27.699Y-136.421
X27.775Y-146.026
X27.775Y-151.026
X27.775Y-171.617
X27.775Y-176.617
X43.779Y-200.33
X48.779Y-200.33
X64.073Y-200.152
X69.073Y-200.152
X76.545Y-200.127
X81.545Y-200.127
X138.14Y-25.324
X143.14Y-25.324
X204.14Y-105.374
X204.14Y-110.374
T8
X157.48Y-47.752
X158.4Y-31.6
X165.811Y-32.659
X174.671Y-32.288
X181.864Y-46.99
X183.266Y-32.161
T9
X90.526Y-193.726
X90.526Y-200.076
X90.526Y-206.426
X101.536Y-193.827
X101.536Y-200.177
X101.536Y-206.527
X111.15Y-193.827
X111.15Y-200.177
X111.15Y-206.527
X121.272Y-193.764
X121.272Y-200.114
X121.272Y-206.464
T10
X24.994Y-22.454
X26.162Y-202.082
X197.536Y-25.103
X197.536Y-203.403
T0
M30
