G04 #@! TF.FileFunction,Soldermask,Top*
%FSLAX46Y46*%
G04 Gerber Fmt 4.6, Leading zero omitted, Abs format (unit mm)*
G04 Created by KiCad (PCBNEW 4.0.4-stable) date 08/03/17 17:46:02*
%MOMM*%
%LPD*%
G01*
G04 APERTURE LIST*
%ADD10C,0.100000*%
%ADD11C,11.000000*%
%ADD12C,0.700000*%
%ADD13C,4.500000*%
%ADD14R,1.500000X1.300000*%
%ADD15R,0.650000X0.250000*%
%ADD16R,1.050000X0.450000*%
%ADD17R,0.500000X2.300000*%
%ADD18R,2.000000X2.500000*%
%ADD19C,0.900000*%
%ADD20R,2.400000X2.400000*%
%ADD21C,2.400000*%
%ADD22R,0.450000X1.750000*%
%ADD23R,2.000000X1.000000*%
%ADD24R,0.285000X1.100000*%
%ADD25R,1.500000X1.000000*%
%ADD26C,1.800000*%
%ADD27R,1.560000X0.650000*%
%ADD28R,1.300000X1.500000*%
%ADD29R,1.200000X0.750000*%
%ADD30R,0.750000X1.200000*%
%ADD31R,0.900000X1.200000*%
%ADD32R,2.000000X3.800000*%
%ADD33R,2.000000X1.500000*%
%ADD34R,1.200000X1.200000*%
%ADD35R,1.600000X1.600000*%
%ADD36O,1.600000X1.600000*%
%ADD37R,0.600000X1.550000*%
%ADD38C,3.000000*%
%ADD39C,1.524000*%
%ADD40R,0.450000X1.450000*%
%ADD41R,1.800000X1.800000*%
%ADD42C,1.500000*%
%ADD43R,0.800000X0.900000*%
%ADD44R,1.250000X1.500000*%
%ADD45R,1.500000X1.250000*%
%ADD46R,3.500000X3.500000*%
%ADD47R,1.200000X0.900000*%
%ADD48R,1.300000X1.550000*%
%ADD49R,1.000000X0.500000*%
%ADD50C,1.600000*%
%ADD51R,0.650000X1.560000*%
%ADD52R,1.750000X0.450000*%
%ADD53R,2.000000X2.000000*%
%ADD54C,2.000000*%
%ADD55R,1.700000X1.700000*%
%ADD56R,1.550000X1.300000*%
%ADD57C,2.540000*%
%ADD58O,1.700000X1.700000*%
%ADD59C,1.700000*%
G04 APERTURE END LIST*
D10*
D11*
X197535800Y-25103200D03*
D12*
X201660800Y-25103200D03*
X200462615Y-28030015D03*
X197535800Y-29228200D03*
X194608985Y-28030015D03*
X193410800Y-25103200D03*
X194608985Y-22176385D03*
X197535800Y-20978200D03*
X200462615Y-22176385D03*
D13*
X206057500Y-139230100D03*
X164147500Y-139230100D03*
X209232500Y-205270100D03*
D14*
X35657800Y-98780600D03*
X38357800Y-98780600D03*
D13*
X160972500Y-205270100D03*
D15*
X123850400Y-99161600D03*
X123850400Y-99811600D03*
X123850400Y-100461600D03*
X122125400Y-99161600D03*
X122125400Y-99811600D03*
X122125400Y-100461600D03*
D16*
X154844800Y-105449800D03*
X154844800Y-104799800D03*
X154844800Y-104149800D03*
X154844800Y-103499800D03*
X154844800Y-102849800D03*
X154844800Y-102199800D03*
X154844800Y-101549800D03*
X154844800Y-100899800D03*
X149294800Y-100899800D03*
X149294800Y-101549800D03*
X149294800Y-102199800D03*
X149294800Y-102849800D03*
X149294800Y-103499800D03*
X149294800Y-104149800D03*
X149294800Y-104799800D03*
X149294800Y-105449800D03*
D17*
X147904400Y-201885900D03*
X148704400Y-201885900D03*
X149504400Y-201885900D03*
X150304400Y-201885900D03*
X151104400Y-201885900D03*
D18*
X145054400Y-201985900D03*
X145054400Y-207485900D03*
X153954400Y-201985900D03*
X153954400Y-207485900D03*
D19*
X147304400Y-204485900D03*
X151704400Y-204485900D03*
D20*
X111150400Y-206527400D03*
D21*
X111150400Y-200177400D03*
X111150400Y-193827400D03*
D22*
X167293000Y-184106000D03*
X166643000Y-184106000D03*
X165993000Y-184106000D03*
X165343000Y-184106000D03*
X164693000Y-184106000D03*
X164043000Y-184106000D03*
X163393000Y-184106000D03*
X162743000Y-184106000D03*
X162093000Y-184106000D03*
X161443000Y-184106000D03*
X160793000Y-184106000D03*
X160143000Y-184106000D03*
X159493000Y-184106000D03*
X158843000Y-184106000D03*
X158843000Y-191306000D03*
X159493000Y-191306000D03*
X160143000Y-191306000D03*
X160793000Y-191306000D03*
X161443000Y-191306000D03*
X162093000Y-191306000D03*
X162743000Y-191306000D03*
X163393000Y-191306000D03*
X164043000Y-191306000D03*
X164693000Y-191306000D03*
X165343000Y-191306000D03*
X165993000Y-191306000D03*
X166643000Y-191306000D03*
X167293000Y-191306000D03*
D20*
X121272300Y-206463900D03*
D21*
X121272300Y-200113900D03*
X121272300Y-193763900D03*
D23*
X119316500Y-116586000D03*
D24*
X120070000Y-113482000D03*
X119570000Y-113482000D03*
X119070000Y-113482000D03*
X118570000Y-113482000D03*
X118070000Y-113482000D03*
X117570000Y-113482000D03*
X117070000Y-113482000D03*
X116570000Y-113482000D03*
X116070000Y-113482000D03*
X115570000Y-113482000D03*
X115070000Y-113482000D03*
X114570000Y-113482000D03*
X114070000Y-113482000D03*
X113570000Y-113482000D03*
X113070000Y-113482000D03*
X112570000Y-113482000D03*
X112070000Y-113482000D03*
X111570000Y-113482000D03*
X111070000Y-113482000D03*
X111070000Y-119182000D03*
X111570000Y-119182000D03*
X112070000Y-119182000D03*
X112570000Y-119182000D03*
X113070000Y-119182000D03*
X113570000Y-119182000D03*
X114070000Y-119182000D03*
X114570000Y-119182000D03*
X115070000Y-119182000D03*
X115570000Y-119182000D03*
X116070000Y-119182000D03*
X116570000Y-119182000D03*
X117070000Y-119182000D03*
X117570000Y-119182000D03*
X118070000Y-119182000D03*
X118570000Y-119182000D03*
X119070000Y-119182000D03*
X119570000Y-119182000D03*
X120070000Y-119182000D03*
D25*
X119570500Y-115633500D03*
D26*
X93827600Y-143459200D03*
X93827600Y-140919200D03*
X91287600Y-143459200D03*
X91287600Y-140919200D03*
X88747600Y-143459200D03*
X88747600Y-140919200D03*
X86207600Y-143459200D03*
X86207600Y-140919200D03*
X83667600Y-143459200D03*
X83667600Y-140919200D03*
X81127600Y-143459200D03*
X81127600Y-140919200D03*
X78587600Y-143459200D03*
X78587600Y-140919200D03*
X76047600Y-143459200D03*
X76047600Y-140919200D03*
D27*
X107504240Y-154985680D03*
X107504240Y-155935680D03*
X107504240Y-156885680D03*
X110204240Y-156885680D03*
X110204240Y-154985680D03*
D28*
X109489240Y-159665680D03*
X109489240Y-162365680D03*
D29*
X109047240Y-175620680D03*
X110947240Y-175620680D03*
D30*
X114061240Y-161589680D03*
X114061240Y-163489680D03*
X115077240Y-170093680D03*
X115077240Y-168193680D03*
X112791240Y-156885680D03*
X112791240Y-154985680D03*
X111648240Y-161589680D03*
X111648240Y-163489680D03*
X109474000Y-134584400D03*
X109474000Y-136484400D03*
X110363000Y-129728000D03*
X110363000Y-127828000D03*
X113212880Y-142941080D03*
X113212880Y-141041080D03*
D29*
X114284800Y-137160000D03*
X112384800Y-137160000D03*
X107101600Y-148539200D03*
X109001600Y-148539200D03*
D28*
X107624880Y-132513080D03*
X107624880Y-135213080D03*
D27*
X105639880Y-127833080D03*
X105639880Y-128783080D03*
X105639880Y-129733080D03*
X108339880Y-129733080D03*
X108339880Y-127833080D03*
D30*
X118745000Y-109032000D03*
X118745000Y-110932000D03*
D31*
X114681000Y-108669000D03*
X114681000Y-106469000D03*
D29*
X110810000Y-107442000D03*
X112710000Y-107442000D03*
D30*
X119380000Y-104328000D03*
X119380000Y-102428000D03*
X122174000Y-117536000D03*
X122174000Y-115636000D03*
D29*
X124089200Y-111963200D03*
X122189200Y-111963200D03*
X116144000Y-123063000D03*
X118044000Y-123063000D03*
D28*
X116586000Y-107108000D03*
X116586000Y-109808000D03*
D27*
X114601000Y-102428000D03*
X114601000Y-103378000D03*
X114601000Y-104328000D03*
X117301000Y-104328000D03*
X117301000Y-102428000D03*
D30*
X129844800Y-176291200D03*
X129844800Y-178191200D03*
D31*
X126187200Y-175765640D03*
X126187200Y-173565640D03*
D29*
X122316200Y-174538640D03*
X124216200Y-174538640D03*
D30*
X130987800Y-171460200D03*
X130987800Y-169560200D03*
X133451600Y-184642800D03*
X133451600Y-182742800D03*
X132664200Y-176128640D03*
X132664200Y-178028640D03*
X127342900Y-190019900D03*
X127342900Y-191919900D03*
D28*
X128092200Y-174204640D03*
X128092200Y-176904640D03*
D27*
X126107200Y-169524640D03*
X126107200Y-170474640D03*
X126107200Y-171424640D03*
X128807200Y-171424640D03*
X128807200Y-169524640D03*
X114601000Y-74615000D03*
X114601000Y-75565000D03*
X114601000Y-76515000D03*
X117301000Y-76515000D03*
X117301000Y-74615000D03*
D28*
X116586000Y-79295000D03*
X116586000Y-81995000D03*
D30*
X115620800Y-94858800D03*
X115620800Y-96758800D03*
D29*
X124089200Y-84074000D03*
X122189200Y-84074000D03*
D30*
X122174000Y-89723000D03*
X122174000Y-87823000D03*
X119888000Y-76515000D03*
X119888000Y-74615000D03*
D29*
X110810000Y-79629000D03*
X112710000Y-79629000D03*
D30*
X118745000Y-81219000D03*
X118745000Y-83119000D03*
X118313200Y-53812400D03*
X118313200Y-55712400D03*
D29*
X110556000Y-52197000D03*
X112456000Y-52197000D03*
D30*
X119049800Y-45227200D03*
X119049800Y-47127200D03*
X121920000Y-62291000D03*
X121920000Y-60391000D03*
X121361200Y-54574400D03*
X121361200Y-56474400D03*
D29*
X115864600Y-68402200D03*
X117764600Y-68402200D03*
D28*
X116332000Y-51863000D03*
X116332000Y-54563000D03*
D27*
X114347000Y-47183000D03*
X114347000Y-48133000D03*
X114347000Y-49083000D03*
X117047000Y-49083000D03*
X117047000Y-47183000D03*
D32*
X188747000Y-192125600D03*
D33*
X195047000Y-192125600D03*
X195047000Y-189825600D03*
X195047000Y-194425600D03*
D27*
X114601000Y-20005000D03*
X114601000Y-20955000D03*
X114601000Y-21905000D03*
X117301000Y-21905000D03*
X117301000Y-20005000D03*
D34*
X181221560Y-202453240D03*
X179021560Y-202453240D03*
D35*
X184505600Y-170535600D03*
D36*
X151485600Y-178155600D03*
X181965600Y-170535600D03*
X154025600Y-178155600D03*
X179425600Y-170535600D03*
X156565600Y-178155600D03*
X176885600Y-170535600D03*
X159105600Y-178155600D03*
X174345600Y-170535600D03*
X161645600Y-178155600D03*
X171805600Y-170535600D03*
X164185600Y-178155600D03*
X169265600Y-170535600D03*
X166725600Y-178155600D03*
X166725600Y-170535600D03*
X169265600Y-178155600D03*
X164185600Y-170535600D03*
X171805600Y-178155600D03*
X161645600Y-170535600D03*
X174345600Y-178155600D03*
X159105600Y-170535600D03*
X176885600Y-178155600D03*
X156565600Y-170535600D03*
X179425600Y-178155600D03*
X154025600Y-170535600D03*
X181965600Y-178155600D03*
X151485600Y-170535600D03*
X184505600Y-178155600D03*
D28*
X151142700Y-195474600D03*
X151142700Y-198174600D03*
X154165300Y-195525400D03*
X154165300Y-198225400D03*
D14*
X188685160Y-202351640D03*
X185985160Y-202351640D03*
D28*
X116586000Y-24685000D03*
X116586000Y-27385000D03*
D29*
X116194800Y-40132000D03*
X118094800Y-40132000D03*
X123276400Y-29260800D03*
X121376400Y-29260800D03*
D30*
X122174000Y-35113000D03*
X122174000Y-33213000D03*
X119430800Y-21879600D03*
X119430800Y-19979600D03*
D29*
X110810000Y-25019000D03*
X112710000Y-25019000D03*
D31*
X114681000Y-26246000D03*
X114681000Y-24046000D03*
D30*
X118745000Y-26609000D03*
X118745000Y-28509000D03*
D20*
X101536500Y-206527400D03*
D21*
X101536500Y-200177400D03*
X101536500Y-193827400D03*
D20*
X90525600Y-206425800D03*
D21*
X90525600Y-200075800D03*
X90525600Y-193725800D03*
D14*
X141100000Y-89974000D03*
X143800000Y-89974000D03*
X141100000Y-62574000D03*
X143800000Y-62574000D03*
X140752840Y-117906800D03*
X143452840Y-117906800D03*
D37*
X160157160Y-41846480D03*
X161427160Y-41846480D03*
X162697160Y-41846480D03*
X163967160Y-41846480D03*
X163967160Y-36446480D03*
X162697160Y-36446480D03*
X161427160Y-36446480D03*
X160157160Y-36446480D03*
D38*
X158400000Y-31600000D03*
X165811200Y-32659320D03*
X174670720Y-32288480D03*
X183266080Y-32161480D03*
D39*
X172085000Y-72440800D03*
X174625000Y-72440800D03*
X172085000Y-74980800D03*
X174625000Y-74980800D03*
X172085000Y-77520800D03*
X174625000Y-77520800D03*
X172085000Y-80060800D03*
X174625000Y-80060800D03*
X172085000Y-82600800D03*
X174625000Y-82600800D03*
X172085000Y-85140800D03*
X174625000Y-85140800D03*
X172085000Y-87680800D03*
X174625000Y-87680800D03*
X172085000Y-90220800D03*
X174625000Y-90220800D03*
X172085000Y-92760800D03*
X174625000Y-92760800D03*
X172085000Y-95300800D03*
X174625000Y-95300800D03*
X172085000Y-97840800D03*
X174625000Y-97840800D03*
X172085000Y-100380800D03*
X174625000Y-100380800D03*
X172085000Y-102920800D03*
X174625000Y-102920800D03*
X172085000Y-105460800D03*
X174625000Y-105460800D03*
X172085000Y-108000800D03*
X174625000Y-108000800D03*
X172085000Y-110540800D03*
X174625000Y-110540800D03*
X172085000Y-113080800D03*
X174625000Y-113080800D03*
X172085000Y-115620800D03*
X174625000Y-115620800D03*
X172085000Y-118160800D03*
X174625000Y-118160800D03*
X172085000Y-120700800D03*
X174625000Y-120700800D03*
X172085000Y-123240800D03*
X174625000Y-123240800D03*
X172085000Y-125780800D03*
X174625000Y-125780800D03*
X172085000Y-128320800D03*
X174625000Y-128320800D03*
X163830000Y-72440800D03*
X166370000Y-72440800D03*
X163830000Y-74980800D03*
X166370000Y-74980800D03*
X163830000Y-77520800D03*
X166370000Y-77520800D03*
X163830000Y-80060800D03*
X166370000Y-80060800D03*
X163830000Y-82600800D03*
X166370000Y-82600800D03*
X163830000Y-85140800D03*
X166370000Y-85140800D03*
X163830000Y-87680800D03*
X166370000Y-87680800D03*
X163830000Y-90220800D03*
X166370000Y-90220800D03*
X163830000Y-92760800D03*
X166370000Y-92760800D03*
X163830000Y-95300800D03*
X166370000Y-95300800D03*
X163830000Y-97840800D03*
X166370000Y-97840800D03*
X163830000Y-100380800D03*
X166370000Y-100380800D03*
X163830000Y-102920800D03*
X166370000Y-102920800D03*
X163830000Y-105460800D03*
X166370000Y-105460800D03*
X163830000Y-108000800D03*
X166370000Y-108000800D03*
X163830000Y-110540800D03*
X166370000Y-110540800D03*
X163830000Y-113080800D03*
X166370000Y-113080800D03*
X163830000Y-115620800D03*
X166370000Y-115620800D03*
X163830000Y-118160800D03*
X166370000Y-118160800D03*
X163830000Y-120700800D03*
X166370000Y-120700800D03*
X163830000Y-123240800D03*
X166370000Y-123240800D03*
X163830000Y-125780800D03*
X166370000Y-125780800D03*
X163830000Y-128320800D03*
X166370000Y-128320800D03*
X180340000Y-72440800D03*
X182880000Y-72440800D03*
X180340000Y-74980800D03*
X182880000Y-74980800D03*
X180340000Y-77520800D03*
X182880000Y-77520800D03*
X180340000Y-80060800D03*
X182880000Y-80060800D03*
X180340000Y-82600800D03*
X182880000Y-82600800D03*
X180340000Y-85140800D03*
X182880000Y-85140800D03*
X180340000Y-87680800D03*
X182880000Y-87680800D03*
X180340000Y-90220800D03*
X182880000Y-90220800D03*
X180340000Y-92760800D03*
X182880000Y-92760800D03*
X180340000Y-95300800D03*
X182880000Y-95300800D03*
X180340000Y-97840800D03*
X182880000Y-97840800D03*
X180340000Y-100380800D03*
X182880000Y-100380800D03*
X180340000Y-102920800D03*
X182880000Y-102920800D03*
X180340000Y-105460800D03*
X182880000Y-105460800D03*
X180340000Y-108000800D03*
X182880000Y-108000800D03*
X180340000Y-110540800D03*
X182880000Y-110540800D03*
X180340000Y-113080800D03*
X182880000Y-113080800D03*
X180340000Y-115620800D03*
X182880000Y-115620800D03*
X180340000Y-118160800D03*
X182880000Y-118160800D03*
X180340000Y-120700800D03*
X182880000Y-120700800D03*
X180340000Y-123240800D03*
X182880000Y-123240800D03*
X180340000Y-125780800D03*
X182880000Y-125780800D03*
X180340000Y-128320800D03*
X182880000Y-128320800D03*
D26*
X93827600Y-170383200D03*
X93827600Y-167843200D03*
X91287600Y-170383200D03*
X91287600Y-167843200D03*
X88747600Y-170383200D03*
X88747600Y-167843200D03*
X86207600Y-170383200D03*
X86207600Y-167843200D03*
X83667600Y-170383200D03*
X83667600Y-167843200D03*
X81127600Y-170383200D03*
X81127600Y-167843200D03*
X78587600Y-170383200D03*
X78587600Y-167843200D03*
X76047600Y-170383200D03*
X76047600Y-167843200D03*
D14*
X163910000Y-47752000D03*
X161210000Y-47752000D03*
D38*
X157480000Y-47752000D03*
X181864000Y-46990000D03*
D40*
X191865800Y-157781200D03*
X191215800Y-157781200D03*
X190565800Y-157781200D03*
X189915800Y-157781200D03*
X189265800Y-157781200D03*
X188615800Y-157781200D03*
X187965800Y-157781200D03*
X187965800Y-163681200D03*
X188615800Y-163681200D03*
X189265800Y-163681200D03*
X189915800Y-163681200D03*
X190565800Y-163681200D03*
X191215800Y-163681200D03*
X191865800Y-163681200D03*
D29*
X150327400Y-107035600D03*
X148427400Y-107035600D03*
X101412000Y-132080000D03*
X103312000Y-132080000D03*
X102656600Y-158242000D03*
X104556600Y-158242000D03*
D34*
X198534200Y-181889400D03*
X196334200Y-181889400D03*
D26*
X206781400Y-81254600D03*
D41*
X206781400Y-78754600D03*
D39*
X37465000Y-137464800D03*
X40005000Y-137464800D03*
X37465000Y-140004800D03*
X40005000Y-140004800D03*
X37465000Y-142544800D03*
X40005000Y-142544800D03*
X37465000Y-145084800D03*
X40005000Y-145084800D03*
X37465000Y-147624800D03*
X40005000Y-147624800D03*
X37465000Y-150164800D03*
X40005000Y-150164800D03*
X37465000Y-152704800D03*
X40005000Y-152704800D03*
X37465000Y-155244800D03*
X40005000Y-155244800D03*
X37465000Y-157784800D03*
X40005000Y-157784800D03*
X37465000Y-160324800D03*
X40005000Y-160324800D03*
X37465000Y-162864800D03*
X40005000Y-162864800D03*
X37465000Y-165404800D03*
X40005000Y-165404800D03*
X37465000Y-167944800D03*
X40005000Y-167944800D03*
X37465000Y-170484800D03*
X40005000Y-170484800D03*
X37465000Y-173024800D03*
X40005000Y-173024800D03*
X37465000Y-175564800D03*
X40005000Y-175564800D03*
X37465000Y-178104800D03*
X40005000Y-178104800D03*
X37465000Y-180644800D03*
X40005000Y-180644800D03*
X37465000Y-183184800D03*
X40005000Y-183184800D03*
X37465000Y-185724800D03*
X40005000Y-185724800D03*
X37465000Y-188264800D03*
X40005000Y-188264800D03*
X37465000Y-190804800D03*
X40005000Y-190804800D03*
X37465000Y-193344800D03*
X40005000Y-193344800D03*
X45778000Y-137449200D03*
X48318000Y-137449200D03*
X45778000Y-139989200D03*
X48318000Y-139989200D03*
X45778000Y-142529200D03*
X48318000Y-142529200D03*
X45778000Y-145069200D03*
X48318000Y-145069200D03*
X45778000Y-147609200D03*
X48318000Y-147609200D03*
X45778000Y-150149200D03*
X48318000Y-150149200D03*
X45778000Y-152689200D03*
X48318000Y-152689200D03*
X45778000Y-155229200D03*
X48318000Y-155229200D03*
X45778000Y-157769200D03*
X48318000Y-157769200D03*
X45778000Y-160309200D03*
X48318000Y-160309200D03*
X45778000Y-162849200D03*
X48318000Y-162849200D03*
X45778000Y-165389200D03*
X48318000Y-165389200D03*
X45778000Y-167929200D03*
X48318000Y-167929200D03*
X45778000Y-170469200D03*
X48318000Y-170469200D03*
X45778000Y-173009200D03*
X48318000Y-173009200D03*
X45778000Y-175549200D03*
X48318000Y-175549200D03*
X45778000Y-178089200D03*
X48318000Y-178089200D03*
X45778000Y-180629200D03*
X48318000Y-180629200D03*
X45778000Y-183169200D03*
X48318000Y-183169200D03*
X45778000Y-185709200D03*
X48318000Y-185709200D03*
X45778000Y-188249200D03*
X48318000Y-188249200D03*
X45778000Y-190789200D03*
X48318000Y-190789200D03*
X45778000Y-193329200D03*
X48318000Y-193329200D03*
X54025800Y-137439400D03*
X56565800Y-137439400D03*
X54025800Y-139979400D03*
X56565800Y-139979400D03*
X54025800Y-142519400D03*
X56565800Y-142519400D03*
X54025800Y-145059400D03*
X56565800Y-145059400D03*
X54025800Y-147599400D03*
X56565800Y-147599400D03*
X54025800Y-150139400D03*
X56565800Y-150139400D03*
X54025800Y-152679400D03*
X56565800Y-152679400D03*
X54025800Y-155219400D03*
X56565800Y-155219400D03*
X54025800Y-157759400D03*
X56565800Y-157759400D03*
X54025800Y-160299400D03*
X56565800Y-160299400D03*
X54025800Y-162839400D03*
X56565800Y-162839400D03*
X54025800Y-165379400D03*
X56565800Y-165379400D03*
X54025800Y-167919400D03*
X56565800Y-167919400D03*
X54025800Y-170459400D03*
X56565800Y-170459400D03*
X54025800Y-172999400D03*
X56565800Y-172999400D03*
X54025800Y-175539400D03*
X56565800Y-175539400D03*
X54025800Y-178079400D03*
X56565800Y-178079400D03*
X54025800Y-180619400D03*
X56565800Y-180619400D03*
X54025800Y-183159400D03*
X56565800Y-183159400D03*
X54025800Y-185699400D03*
X56565800Y-185699400D03*
X54025800Y-188239400D03*
X56565800Y-188239400D03*
X54025800Y-190779400D03*
X56565800Y-190779400D03*
X54025800Y-193319400D03*
X56565800Y-193319400D03*
D42*
X127609600Y-63550800D03*
X127152400Y-91236800D03*
X127863600Y-118668800D03*
X115011200Y-143027400D03*
X146761200Y-44932600D03*
X126949200Y-68402200D03*
X124460000Y-96469200D03*
X133705600Y-124587000D03*
X113106200Y-148996400D03*
X148158200Y-113588800D03*
D34*
X147871000Y-109270800D03*
X150071000Y-109270800D03*
D14*
X147671800Y-111175800D03*
X150371800Y-111175800D03*
X191232800Y-181940200D03*
X193932800Y-181940200D03*
D43*
X173143200Y-195732400D03*
X175243200Y-195732400D03*
X173092400Y-197815200D03*
X175192400Y-197815200D03*
D14*
X150440400Y-190550800D03*
X153140400Y-190550800D03*
X172462200Y-191058800D03*
X175162200Y-191058800D03*
X172462200Y-200202800D03*
X175162200Y-200202800D03*
D28*
X152654000Y-188344800D03*
X152654000Y-185644800D03*
D14*
X169490400Y-193802000D03*
X172190400Y-193802000D03*
D28*
X132435600Y-204999600D03*
X132435600Y-207699600D03*
D44*
X163271200Y-195701600D03*
X163271200Y-198201600D03*
D45*
X173248000Y-204190600D03*
X175748000Y-204190600D03*
X173425800Y-206375000D03*
X175925800Y-206375000D03*
D46*
X140703300Y-203450400D03*
X140703300Y-196650400D03*
D47*
X136329600Y-203301600D03*
X134129600Y-203301600D03*
X137447200Y-206298800D03*
X135247200Y-206298800D03*
D48*
X131582600Y-200088400D03*
X131582600Y-192138400D03*
X136082600Y-200088400D03*
X136082600Y-192138400D03*
D25*
X119392700Y-34188400D03*
D24*
X120070000Y-31059000D03*
X119570000Y-31059000D03*
X119070000Y-31059000D03*
X118570000Y-31059000D03*
X118070000Y-31059000D03*
X117570000Y-31059000D03*
X117070000Y-31059000D03*
X116570000Y-31059000D03*
X116070000Y-31059000D03*
X115570000Y-31059000D03*
X115070000Y-31059000D03*
X114570000Y-31059000D03*
X114070000Y-31059000D03*
X113570000Y-31059000D03*
X113070000Y-31059000D03*
X112570000Y-31059000D03*
X112070000Y-31059000D03*
X111570000Y-31059000D03*
X111070000Y-31059000D03*
X111070000Y-36759000D03*
X111570000Y-36759000D03*
X112070000Y-36759000D03*
X112570000Y-36759000D03*
X113070000Y-36759000D03*
X113570000Y-36759000D03*
X114070000Y-36759000D03*
X114570000Y-36759000D03*
X115070000Y-36759000D03*
X115570000Y-36759000D03*
X116070000Y-36759000D03*
X116570000Y-36759000D03*
X117070000Y-36759000D03*
X117570000Y-36759000D03*
X118070000Y-36759000D03*
X118570000Y-36759000D03*
X119070000Y-36759000D03*
X119570000Y-36759000D03*
X120070000Y-36759000D03*
D25*
X119570500Y-33210500D03*
D14*
X139162800Y-96484440D03*
X141862800Y-96484440D03*
X140890000Y-93218000D03*
X143590000Y-93218000D03*
D31*
X114681000Y-80856000D03*
X114681000Y-78656000D03*
D14*
X139345680Y-69098160D03*
X142045680Y-69098160D03*
X140747760Y-65948560D03*
X143447760Y-65948560D03*
D31*
X114427000Y-53424000D03*
X114427000Y-51224000D03*
D14*
X139203440Y-124587000D03*
X141903440Y-124587000D03*
X140686800Y-121274840D03*
X143386800Y-121274840D03*
D31*
X105719880Y-134074080D03*
X105719880Y-131874080D03*
X107584240Y-161226680D03*
X107584240Y-159026680D03*
D42*
X127889000Y-35966400D03*
D23*
X119316500Y-88595200D03*
D24*
X120070000Y-85491200D03*
X119570000Y-85491200D03*
X119070000Y-85491200D03*
X118570000Y-85491200D03*
X118070000Y-85491200D03*
X117570000Y-85491200D03*
X117070000Y-85491200D03*
X116570000Y-85491200D03*
X116070000Y-85491200D03*
X115570000Y-85491200D03*
X115070000Y-85491200D03*
X114570000Y-85491200D03*
X114070000Y-85491200D03*
X113570000Y-85491200D03*
X113070000Y-85491200D03*
X112570000Y-85491200D03*
X112070000Y-85491200D03*
X111570000Y-85491200D03*
X111070000Y-85491200D03*
X111070000Y-91191200D03*
X111570000Y-91191200D03*
X112070000Y-91191200D03*
X112570000Y-91191200D03*
X113070000Y-91191200D03*
X113570000Y-91191200D03*
X114070000Y-91191200D03*
X114570000Y-91191200D03*
X115070000Y-91191200D03*
X115570000Y-91191200D03*
X116070000Y-91191200D03*
X116570000Y-91191200D03*
X117070000Y-91191200D03*
X117570000Y-91191200D03*
X118070000Y-91191200D03*
X118570000Y-91191200D03*
X119070000Y-91191200D03*
X119570000Y-91191200D03*
X120070000Y-91191200D03*
D25*
X119570500Y-87642700D03*
D23*
X119062500Y-61341000D03*
D24*
X119816000Y-58237000D03*
X119316000Y-58237000D03*
X118816000Y-58237000D03*
X118316000Y-58237000D03*
X117816000Y-58237000D03*
X117316000Y-58237000D03*
X116816000Y-58237000D03*
X116316000Y-58237000D03*
X115816000Y-58237000D03*
X115316000Y-58237000D03*
X114816000Y-58237000D03*
X114316000Y-58237000D03*
X113816000Y-58237000D03*
X113316000Y-58237000D03*
X112816000Y-58237000D03*
X112316000Y-58237000D03*
X111816000Y-58237000D03*
X111316000Y-58237000D03*
X110816000Y-58237000D03*
X110816000Y-63937000D03*
X111316000Y-63937000D03*
X111816000Y-63937000D03*
X112316000Y-63937000D03*
X112816000Y-63937000D03*
X113316000Y-63937000D03*
X113816000Y-63937000D03*
X114316000Y-63937000D03*
X114816000Y-63937000D03*
X115316000Y-63937000D03*
X115816000Y-63937000D03*
X116316000Y-63937000D03*
X116816000Y-63937000D03*
X117316000Y-63937000D03*
X117816000Y-63937000D03*
X118316000Y-63937000D03*
X118816000Y-63937000D03*
X119316000Y-63937000D03*
X119816000Y-63937000D03*
D25*
X119316500Y-60388500D03*
D49*
X109867700Y-141859000D03*
D24*
X111088560Y-138714360D03*
X110588560Y-138714360D03*
X110088560Y-138714360D03*
X109588560Y-138714360D03*
X109088560Y-138714360D03*
X108588560Y-138714360D03*
X108088560Y-138714360D03*
X107588560Y-138714360D03*
X107088560Y-138714360D03*
X106588560Y-138714360D03*
X106088560Y-138714360D03*
X105588560Y-138714360D03*
X105088560Y-138714360D03*
X104588560Y-138714360D03*
X104088560Y-138714360D03*
X103588560Y-138714360D03*
X103088560Y-138714360D03*
X102588560Y-138714360D03*
X102088560Y-138714360D03*
X102088560Y-144414360D03*
X102588560Y-144414360D03*
X103088560Y-144414360D03*
X103588560Y-144414360D03*
X104088560Y-144414360D03*
X104588560Y-144414360D03*
X105088560Y-144414360D03*
X105588560Y-144414360D03*
X106088560Y-144414360D03*
X106588560Y-144414360D03*
X107088560Y-144414360D03*
X107588560Y-144414360D03*
X108088560Y-144414360D03*
X108588560Y-144414360D03*
X109088560Y-144414360D03*
X109588560Y-144414360D03*
X110088560Y-144414360D03*
X110588560Y-144414360D03*
X111088560Y-144414360D03*
D25*
X110363000Y-140944600D03*
D23*
X112204500Y-168970960D03*
D24*
X112958000Y-165866960D03*
X112458000Y-165866960D03*
X111958000Y-165866960D03*
X111458000Y-165866960D03*
X110958000Y-165866960D03*
X110458000Y-165866960D03*
X109958000Y-165866960D03*
X109458000Y-165866960D03*
X108958000Y-165866960D03*
X108458000Y-165866960D03*
X107958000Y-165866960D03*
X107458000Y-165866960D03*
X106958000Y-165866960D03*
X106458000Y-165866960D03*
X105958000Y-165866960D03*
X105458000Y-165866960D03*
X104958000Y-165866960D03*
X104458000Y-165866960D03*
X103958000Y-165866960D03*
X103958000Y-171566960D03*
X104458000Y-171566960D03*
X104958000Y-171566960D03*
X105458000Y-171566960D03*
X105958000Y-171566960D03*
X106458000Y-171566960D03*
X106958000Y-171566960D03*
X107458000Y-171566960D03*
X107958000Y-171566960D03*
X108458000Y-171566960D03*
X108958000Y-171566960D03*
X109458000Y-171566960D03*
X109958000Y-171566960D03*
X110458000Y-171566960D03*
X110958000Y-171566960D03*
X111458000Y-171566960D03*
X111958000Y-171566960D03*
X112458000Y-171566960D03*
X112958000Y-171566960D03*
D25*
X112458500Y-168018460D03*
D37*
X176784000Y-41892200D03*
X178054000Y-41892200D03*
X179324000Y-41892200D03*
X180594000Y-41892200D03*
X180594000Y-36492200D03*
X179324000Y-36492200D03*
X178054000Y-36492200D03*
X176784000Y-36492200D03*
D42*
X165760400Y-165506400D03*
X160880400Y-165506400D03*
D14*
X114626400Y-17627600D03*
X117326400Y-17627600D03*
X113254800Y-72339200D03*
X115954800Y-72339200D03*
X114169200Y-44907200D03*
X116869200Y-44907200D03*
X114626400Y-100380800D03*
X117326400Y-100380800D03*
D28*
X102895400Y-129391400D03*
X102895400Y-126691400D03*
D14*
X106854000Y-152755600D03*
X109554000Y-152755600D03*
X125751600Y-167538400D03*
X128451600Y-167538400D03*
D31*
X173400000Y-45500000D03*
X173400000Y-47700000D03*
D47*
X177100000Y-44000000D03*
X179300000Y-44000000D03*
D31*
X158200000Y-37500000D03*
X158200000Y-35300000D03*
D47*
X159900000Y-29000000D03*
X162100000Y-29000000D03*
X159100000Y-45600000D03*
X161300000Y-45600000D03*
X160100000Y-49400000D03*
X162300000Y-49400000D03*
X175900000Y-34600000D03*
X178100000Y-34600000D03*
X176300000Y-29600000D03*
X178500000Y-29600000D03*
D28*
X195400000Y-157700000D03*
X195400000Y-160400000D03*
X183340400Y-159494400D03*
X183340400Y-162194400D03*
X195400000Y-163050000D03*
X195400000Y-165750000D03*
X180740400Y-162144400D03*
X180740400Y-159444400D03*
D50*
X171958000Y-185928000D03*
X174498000Y-185928000D03*
X177038000Y-185928000D03*
X179578000Y-185928000D03*
X182118000Y-185928000D03*
X184658000Y-185928000D03*
D23*
X130822700Y-183682640D03*
D24*
X131576200Y-180578640D03*
X131076200Y-180578640D03*
X130576200Y-180578640D03*
X130076200Y-180578640D03*
X129576200Y-180578640D03*
X129076200Y-180578640D03*
X128576200Y-180578640D03*
X128076200Y-180578640D03*
X127576200Y-180578640D03*
X127076200Y-180578640D03*
X126576200Y-180578640D03*
X126076200Y-180578640D03*
X125576200Y-180578640D03*
X125076200Y-180578640D03*
X124576200Y-180578640D03*
X124076200Y-180578640D03*
X123576200Y-180578640D03*
X123076200Y-180578640D03*
X122576200Y-180578640D03*
X122576200Y-186278640D03*
X123076200Y-186278640D03*
X123576200Y-186278640D03*
X124076200Y-186278640D03*
X124576200Y-186278640D03*
X125076200Y-186278640D03*
X125576200Y-186278640D03*
X126076200Y-186278640D03*
X126576200Y-186278640D03*
X127076200Y-186278640D03*
X127576200Y-186278640D03*
X128076200Y-186278640D03*
X128576200Y-186278640D03*
X129076200Y-186278640D03*
X129576200Y-186278640D03*
X130076200Y-186278640D03*
X130576200Y-186278640D03*
X131076200Y-186278640D03*
X131576200Y-186278640D03*
D25*
X131076700Y-182730140D03*
D47*
X172550000Y-166370000D03*
X170350000Y-166370000D03*
X153890800Y-165506400D03*
X156090800Y-165506400D03*
D29*
X154035800Y-136779000D03*
X152135800Y-136779000D03*
D30*
X157073600Y-133538000D03*
X157073600Y-131638000D03*
D29*
X154823200Y-129463800D03*
X152923200Y-129463800D03*
D51*
X152974000Y-134369800D03*
X153924000Y-134369800D03*
X154874000Y-134369800D03*
X154874000Y-131669800D03*
X152974000Y-131669800D03*
D45*
X136214800Y-172694600D03*
X138714800Y-172694600D03*
X127324800Y-26416000D03*
X129824800Y-26416000D03*
X128137600Y-78790800D03*
X130637600Y-78790800D03*
X126562800Y-51104800D03*
X129062800Y-51104800D03*
X127172400Y-106730800D03*
X129672400Y-106730800D03*
X116352000Y-131673600D03*
X118852000Y-131673600D03*
X117622000Y-157429200D03*
X120122000Y-157429200D03*
D28*
X133400800Y-97862400D03*
X133400800Y-100562400D03*
X129336800Y-97862400D03*
X129336800Y-100562400D03*
X131368800Y-97862400D03*
X131368800Y-100562400D03*
D11*
X24993600Y-22453600D03*
D12*
X29118600Y-22453600D03*
X27920415Y-25380415D03*
X24993600Y-26578600D03*
X22066785Y-25380415D03*
X20868600Y-22453600D03*
X22066785Y-19526785D03*
X24993600Y-18328600D03*
X27920415Y-19526785D03*
D11*
X26162000Y-202082400D03*
D12*
X30287000Y-202082400D03*
X29088815Y-205009215D03*
X26162000Y-206207400D03*
X23235185Y-205009215D03*
X22037000Y-202082400D03*
X23235185Y-199155585D03*
X26162000Y-197957400D03*
X29088815Y-199155585D03*
D11*
X197535800Y-203403200D03*
D12*
X201660800Y-203403200D03*
X200462615Y-206330015D03*
X197535800Y-207528200D03*
X194608985Y-206330015D03*
X193410800Y-203403200D03*
X194608985Y-200476385D03*
X197535800Y-199278200D03*
X200462615Y-200476385D03*
D27*
X129975600Y-30464800D03*
X129975600Y-29514800D03*
X129975600Y-28564800D03*
X127275600Y-28564800D03*
X127275600Y-30464800D03*
X132363200Y-82839600D03*
X132363200Y-81889600D03*
X132363200Y-80939600D03*
X129663200Y-80939600D03*
X129663200Y-82839600D03*
X131347200Y-55001200D03*
X131347200Y-54051200D03*
X131347200Y-53101200D03*
X128647200Y-53101200D03*
X128647200Y-55001200D03*
X132007600Y-110779600D03*
X132007600Y-109829600D03*
X132007600Y-108879600D03*
X129307600Y-108879600D03*
X129307600Y-110779600D03*
D45*
X128594800Y-57353200D03*
X131094800Y-57353200D03*
D27*
X139932400Y-101178400D03*
X139932400Y-100228400D03*
X139932400Y-99278400D03*
X137232400Y-99278400D03*
X137232400Y-101178400D03*
X137232400Y-100228400D03*
D45*
X127223200Y-33782000D03*
X129723200Y-33782000D03*
X129712400Y-85140800D03*
X132212400Y-85140800D03*
X129382200Y-112903000D03*
X131882200Y-112903000D03*
X117571200Y-138430000D03*
X120071200Y-138430000D03*
X118866600Y-163322000D03*
X121366600Y-163322000D03*
X137840400Y-179933600D03*
X140340400Y-179933600D03*
D27*
X140389600Y-176768800D03*
X140389600Y-175818800D03*
X140389600Y-174868800D03*
X137689600Y-174868800D03*
X137689600Y-176768800D03*
X120272800Y-136078000D03*
X120272800Y-135128000D03*
X120272800Y-134178000D03*
X117572800Y-134178000D03*
X117572800Y-136078000D03*
X121695200Y-161376400D03*
X121695200Y-160426400D03*
X121695200Y-159476400D03*
X118995200Y-159476400D03*
X118995200Y-161376400D03*
D52*
X157371600Y-123879800D03*
X157371600Y-123229800D03*
X157371600Y-122579800D03*
X157371600Y-121929800D03*
X157371600Y-121279800D03*
X157371600Y-120629800D03*
X157371600Y-119979800D03*
X157371600Y-119329800D03*
X157371600Y-118679800D03*
X157371600Y-118029800D03*
X150171600Y-118029800D03*
X150171600Y-118679800D03*
X150171600Y-119329800D03*
X150171600Y-119979800D03*
X150171600Y-120629800D03*
X150171600Y-121279800D03*
X150171600Y-121929800D03*
X150171600Y-122579800D03*
X150171600Y-123229800D03*
X150171600Y-123879800D03*
D53*
X107543600Y-99060000D03*
D54*
X107543600Y-101600000D03*
X107543600Y-104100000D03*
D55*
X100304600Y-104571800D03*
D14*
X36046400Y-26822400D03*
X33346400Y-26822400D03*
X33346400Y-24561800D03*
X36046400Y-24561800D03*
X35175200Y-41249600D03*
X37875200Y-41249600D03*
X35276800Y-43535600D03*
X37976800Y-43535600D03*
X33557200Y-80721200D03*
X30857200Y-80721200D03*
X30806400Y-78181200D03*
X33506400Y-78181200D03*
X35505400Y-96139000D03*
X38205400Y-96139000D03*
X32973000Y-54889400D03*
X30273000Y-54889400D03*
X30349200Y-52171600D03*
X33049200Y-52171600D03*
X35327600Y-67894200D03*
X38027600Y-67894200D03*
X35403800Y-70307200D03*
X38103800Y-70307200D03*
D28*
X30480000Y-107311200D03*
X30480000Y-110011200D03*
X28067000Y-110011200D03*
X28067000Y-107311200D03*
D14*
X35632400Y-123952000D03*
X38332400Y-123952000D03*
X35632400Y-127152400D03*
X38332400Y-127152400D03*
D29*
X155209200Y-126136400D03*
X157109200Y-126136400D03*
X150129200Y-125984000D03*
X152029200Y-125984000D03*
D14*
X128342400Y-149199600D03*
X131042400Y-149199600D03*
X132287000Y-142824200D03*
X129587000Y-142824200D03*
X129180600Y-145846800D03*
X131880600Y-145846800D03*
X130082300Y-161442400D03*
X132782300Y-161442400D03*
X132922000Y-154838400D03*
X130222000Y-154838400D03*
X130082300Y-158064200D03*
X132782300Y-158064200D03*
D28*
X197688200Y-190394600D03*
X197688200Y-193094600D03*
D14*
X192586600Y-187223400D03*
X189886600Y-187223400D03*
D53*
X145465800Y-176479200D03*
D54*
X145465800Y-173939200D03*
X145465800Y-171439200D03*
D28*
X190550800Y-173231800D03*
X190550800Y-170531800D03*
D56*
X204203400Y-168438000D03*
X212153400Y-168438000D03*
X204203400Y-172938000D03*
X212153400Y-172938000D03*
D57*
X199097900Y-63195200D03*
X49301400Y-131064000D03*
D30*
X188823600Y-172374600D03*
X188823600Y-170474600D03*
D14*
X197633600Y-94894400D03*
X200333600Y-94894400D03*
X197684400Y-97383600D03*
X200384400Y-97383600D03*
D54*
X184621000Y-23316200D03*
X181121000Y-23316200D03*
X177621000Y-23316200D03*
X174121000Y-23316200D03*
X164402600Y-23392400D03*
X160902600Y-23392400D03*
X157402600Y-23392400D03*
X153902600Y-23392400D03*
X206172800Y-190107400D03*
X206172800Y-186607400D03*
X206172800Y-183107400D03*
X206172800Y-179607400D03*
X205969600Y-98311800D03*
X205969600Y-94811800D03*
X205969600Y-91311800D03*
X205969600Y-87811800D03*
D21*
X76544800Y-200126600D03*
X81544800Y-200126600D03*
X143139800Y-25323800D03*
X138139800Y-25323800D03*
X27698700Y-131421500D03*
X27698700Y-136421500D03*
X64073400Y-200152000D03*
X69073400Y-200152000D03*
D55*
X135813800Y-33731200D03*
D58*
X138353800Y-33731200D03*
D55*
X135940800Y-37211000D03*
D58*
X138480800Y-37211000D03*
D55*
X135864600Y-40538400D03*
D58*
X138404600Y-40538400D03*
D14*
X166221400Y-180873400D03*
X163521400Y-180873400D03*
D29*
X156047400Y-42722800D03*
X157947400Y-42722800D03*
X174254200Y-36449000D03*
X172354200Y-36449000D03*
D30*
X154635200Y-36332200D03*
X154635200Y-34432200D03*
D34*
X136761400Y-47396400D03*
X134561400Y-47396400D03*
X127769800Y-75031600D03*
X125569800Y-75031600D03*
X132722800Y-88874600D03*
X130522800Y-88874600D03*
X133561000Y-128549400D03*
X131361000Y-128549400D03*
X99626600Y-149733000D03*
X97426600Y-149733000D03*
X115679400Y-180568600D03*
X113479400Y-180568600D03*
X129870200Y-46947000D03*
X129870200Y-44747000D03*
X146220000Y-136525000D03*
X148420000Y-136525000D03*
X120873700Y-149821900D03*
X118673700Y-149821900D03*
D53*
X155930600Y-95656400D03*
D54*
X153390600Y-95656400D03*
X150890600Y-95656400D03*
D21*
X204139800Y-110373800D03*
X204139800Y-105373800D03*
X43778800Y-200329800D03*
X48778800Y-200329800D03*
D14*
X194712600Y-113639600D03*
X197412600Y-113639600D03*
X194788800Y-117144800D03*
X197488800Y-117144800D03*
X134282001Y-45067600D03*
X136982001Y-45067600D03*
X125345200Y-72974200D03*
X128045200Y-72974200D03*
X130134001Y-90865600D03*
X132834001Y-90865600D03*
X130984000Y-126619000D03*
X133684000Y-126619000D03*
X97214201Y-151659600D03*
X99914201Y-151659600D03*
X113071401Y-178408400D03*
X115771401Y-178408400D03*
D28*
X127787400Y-44039800D03*
X127787400Y-46739800D03*
D47*
X148647162Y-139827600D03*
X146447162Y-139827600D03*
D14*
X118535962Y-153627600D03*
X121235962Y-153627600D03*
D29*
X172735200Y-42265600D03*
X174635200Y-42265600D03*
D30*
X187223400Y-168950600D03*
X187223400Y-170850600D03*
D38*
X99682300Y-116319300D03*
X19672300Y-116319300D03*
D59*
X29197300Y-117589300D03*
X29197300Y-115049300D03*
X31737300Y-117589300D03*
X31737300Y-115049300D03*
X34277300Y-117589300D03*
X34277300Y-115049300D03*
X36817300Y-117589300D03*
X36817300Y-115049300D03*
X39357300Y-117589300D03*
X39357300Y-115049300D03*
X41897300Y-117589300D03*
X41897300Y-115049300D03*
X44437300Y-117589300D03*
X44437300Y-115049300D03*
X46977300Y-117589300D03*
X46977300Y-115049300D03*
X49517300Y-117589300D03*
X49517300Y-115049300D03*
X52057300Y-117589300D03*
X52057300Y-115049300D03*
X54597300Y-117589300D03*
X54597300Y-115049300D03*
X57137300Y-117589300D03*
X57137300Y-115049300D03*
X59677300Y-117589300D03*
X59677300Y-115049300D03*
X62217300Y-117589300D03*
X62217300Y-115049300D03*
X64757300Y-117589300D03*
X64757300Y-115049300D03*
X67297300Y-117589300D03*
X67297300Y-115049300D03*
X69837300Y-117589300D03*
X69837300Y-115049300D03*
X72377300Y-117589300D03*
X72377300Y-115049300D03*
X74917300Y-117589300D03*
X74917300Y-115049300D03*
X77457300Y-117589300D03*
X77457300Y-115049300D03*
X79997300Y-117589300D03*
X79997300Y-115049300D03*
X82537300Y-117589300D03*
X82537300Y-115049300D03*
X85077300Y-117589300D03*
X85077300Y-115049300D03*
X87617300Y-117589300D03*
X87617300Y-115049300D03*
X90157300Y-117589300D03*
X90157300Y-115049300D03*
D38*
X99580700Y-88442800D03*
X19570700Y-88442800D03*
D59*
X29095700Y-89712800D03*
X29095700Y-87172800D03*
X31635700Y-89712800D03*
X31635700Y-87172800D03*
X34175700Y-89712800D03*
X34175700Y-87172800D03*
X36715700Y-89712800D03*
X36715700Y-87172800D03*
X39255700Y-89712800D03*
X39255700Y-87172800D03*
X41795700Y-89712800D03*
X41795700Y-87172800D03*
X44335700Y-89712800D03*
X44335700Y-87172800D03*
X46875700Y-89712800D03*
X46875700Y-87172800D03*
X49415700Y-89712800D03*
X49415700Y-87172800D03*
X51955700Y-89712800D03*
X51955700Y-87172800D03*
X54495700Y-89712800D03*
X54495700Y-87172800D03*
X57035700Y-89712800D03*
X57035700Y-87172800D03*
X59575700Y-89712800D03*
X59575700Y-87172800D03*
X62115700Y-89712800D03*
X62115700Y-87172800D03*
X64655700Y-89712800D03*
X64655700Y-87172800D03*
X67195700Y-89712800D03*
X67195700Y-87172800D03*
X69735700Y-89712800D03*
X69735700Y-87172800D03*
X72275700Y-89712800D03*
X72275700Y-87172800D03*
X74815700Y-89712800D03*
X74815700Y-87172800D03*
X77355700Y-89712800D03*
X77355700Y-87172800D03*
X79895700Y-89712800D03*
X79895700Y-87172800D03*
X82435700Y-89712800D03*
X82435700Y-87172800D03*
X84975700Y-89712800D03*
X84975700Y-87172800D03*
X87515700Y-89712800D03*
X87515700Y-87172800D03*
X90055700Y-89712800D03*
X90055700Y-87172800D03*
D38*
X99631500Y-61252100D03*
X19621500Y-61252100D03*
D59*
X29146500Y-62522100D03*
X29146500Y-59982100D03*
X31686500Y-62522100D03*
X31686500Y-59982100D03*
X34226500Y-62522100D03*
X34226500Y-59982100D03*
X36766500Y-62522100D03*
X36766500Y-59982100D03*
X39306500Y-62522100D03*
X39306500Y-59982100D03*
X41846500Y-62522100D03*
X41846500Y-59982100D03*
X44386500Y-62522100D03*
X44386500Y-59982100D03*
X46926500Y-62522100D03*
X46926500Y-59982100D03*
X49466500Y-62522100D03*
X49466500Y-59982100D03*
X52006500Y-62522100D03*
X52006500Y-59982100D03*
X54546500Y-62522100D03*
X54546500Y-59982100D03*
X57086500Y-62522100D03*
X57086500Y-59982100D03*
X59626500Y-62522100D03*
X59626500Y-59982100D03*
X62166500Y-62522100D03*
X62166500Y-59982100D03*
X64706500Y-62522100D03*
X64706500Y-59982100D03*
X67246500Y-62522100D03*
X67246500Y-59982100D03*
X69786500Y-62522100D03*
X69786500Y-59982100D03*
X72326500Y-62522100D03*
X72326500Y-59982100D03*
X74866500Y-62522100D03*
X74866500Y-59982100D03*
X77406500Y-62522100D03*
X77406500Y-59982100D03*
X79946500Y-62522100D03*
X79946500Y-59982100D03*
X82486500Y-62522100D03*
X82486500Y-59982100D03*
X85026500Y-62522100D03*
X85026500Y-59982100D03*
X87566500Y-62522100D03*
X87566500Y-59982100D03*
X90106500Y-62522100D03*
X90106500Y-59982100D03*
D38*
X99707700Y-33921700D03*
X19697700Y-33921700D03*
D59*
X29222700Y-35191700D03*
X29222700Y-32651700D03*
X31762700Y-35191700D03*
X31762700Y-32651700D03*
X34302700Y-35191700D03*
X34302700Y-32651700D03*
X36842700Y-35191700D03*
X36842700Y-32651700D03*
X39382700Y-35191700D03*
X39382700Y-32651700D03*
X41922700Y-35191700D03*
X41922700Y-32651700D03*
X44462700Y-35191700D03*
X44462700Y-32651700D03*
X47002700Y-35191700D03*
X47002700Y-32651700D03*
X49542700Y-35191700D03*
X49542700Y-32651700D03*
X52082700Y-35191700D03*
X52082700Y-32651700D03*
X54622700Y-35191700D03*
X54622700Y-32651700D03*
X57162700Y-35191700D03*
X57162700Y-32651700D03*
X59702700Y-35191700D03*
X59702700Y-32651700D03*
X62242700Y-35191700D03*
X62242700Y-32651700D03*
X64782700Y-35191700D03*
X64782700Y-32651700D03*
X67322700Y-35191700D03*
X67322700Y-32651700D03*
X69862700Y-35191700D03*
X69862700Y-32651700D03*
X72402700Y-35191700D03*
X72402700Y-32651700D03*
X74942700Y-35191700D03*
X74942700Y-32651700D03*
X77482700Y-35191700D03*
X77482700Y-32651700D03*
X80022700Y-35191700D03*
X80022700Y-32651700D03*
X82562700Y-35191700D03*
X82562700Y-32651700D03*
X85102700Y-35191700D03*
X85102700Y-32651700D03*
X87642700Y-35191700D03*
X87642700Y-32651700D03*
X90182700Y-35191700D03*
X90182700Y-32651700D03*
D21*
X27774900Y-146026500D03*
X27774900Y-151026500D03*
X27774900Y-171617000D03*
X27774900Y-176617000D03*
D31*
X199275700Y-150248800D03*
X199275700Y-148048800D03*
X196659500Y-155455800D03*
X196659500Y-153255800D03*
D54*
X206020400Y-158713000D03*
X206020400Y-155213000D03*
X206020400Y-151713000D03*
X206020400Y-148213000D03*
M02*
