G04 #@! TF.FileFunction,Copper,L1,Top,Signal*
%FSLAX46Y46*%
G04 Gerber Fmt 4.6, Leading zero omitted, Abs format (unit mm)*
G04 Created by KiCad (PCBNEW 4.0.4-stable) date Monday, July 17, 2017 'PMt' 06:11:06 PM*
%MOMM*%
%LPD*%
G01*
G04 APERTURE LIST*
%ADD10C,0.100000*%
%ADD11C,0.150000*%
%ADD12R,0.600000X0.700000*%
%ADD13R,0.700000X0.600000*%
%ADD14R,1.560000X0.400000*%
%ADD15R,2.000000X1.600000*%
%ADD16R,1.500000X1.250000*%
%ADD17R,1.250000X1.500000*%
%ADD18R,1.700000X2.000000*%
%ADD19C,2.000000*%
%ADD20R,1.900000X0.800000*%
%ADD21R,0.800000X1.900000*%
%ADD22R,1.500000X1.300000*%
%ADD23R,1.970000X1.946000*%
%ADD24R,2.700000X3.200000*%
%ADD25R,1.300000X1.500000*%
%ADD26R,3.200000X2.700000*%
%ADD27R,1.550000X0.600000*%
%ADD28R,1.560000X0.650000*%
%ADD29R,3.150000X1.960000*%
%ADD30C,2.400000*%
%ADD31R,1.000000X1.000000*%
%ADD32R,2.032000X5.000000*%
%ADD33C,11.000000*%
%ADD34C,0.700000*%
%ADD35C,1.000000*%
%ADD36C,0.600000*%
%ADD37C,0.500000*%
%ADD38C,1.000000*%
%ADD39C,0.250000*%
%ADD40C,2.000000*%
%ADD41C,10.000000*%
%ADD42C,6.000000*%
%ADD43C,0.254000*%
%ADD44C,0.025400*%
G04 APERTURE END LIST*
D10*
D11*
X0Y-50800000D02*
X148971000Y-50800000D01*
X0Y0D02*
X0Y-50800000D01*
X148971000Y0D02*
X148971000Y-50800000D01*
X0Y0D02*
X148971000Y0D01*
D12*
X121550000Y-48050000D03*
X122950000Y-48050000D03*
D13*
X71500000Y-36400000D03*
X71500000Y-37800000D03*
D12*
X27100000Y-38350000D03*
X25700000Y-38350000D03*
D14*
X25200000Y-46570000D03*
X25200000Y-47220000D03*
X25200000Y-47880000D03*
X25200000Y-48530000D03*
X27900000Y-48530000D03*
X27900000Y-47880000D03*
X27900000Y-47220000D03*
X27900000Y-46570000D03*
D15*
X31650000Y-45550000D03*
X35650000Y-45550000D03*
X31650000Y-47800000D03*
X35650000Y-47800000D03*
D16*
X25250000Y-40200000D03*
X27750000Y-40200000D03*
D17*
X64800000Y-35700000D03*
X64800000Y-38200000D03*
X80650000Y-35750000D03*
X80650000Y-38250000D03*
X89550000Y-38200000D03*
X89550000Y-35700000D03*
D16*
X121150000Y-46000000D03*
X123650000Y-46000000D03*
D18*
X100550000Y-6000000D03*
X100550000Y-2000000D03*
X96450000Y-6000000D03*
X96450000Y-2000000D03*
X92350000Y-5950000D03*
X92350000Y-1950000D03*
D19*
X83250000Y-8000000D03*
X79750000Y-8000000D03*
X76250000Y-8000000D03*
X72750000Y-8000000D03*
X69250000Y-8000000D03*
X65750000Y-8000000D03*
D20*
X121050000Y-24250000D03*
X121050000Y-26150000D03*
X124050000Y-25200000D03*
D21*
X94800000Y-32550000D03*
X96700000Y-32550000D03*
X95750000Y-29550000D03*
X100150000Y-32550000D03*
X102050000Y-32550000D03*
X101100000Y-29550000D03*
D22*
X36500000Y-28200000D03*
X33800000Y-28200000D03*
X42200000Y-28150000D03*
X44900000Y-28150000D03*
D23*
X35760000Y-34250000D03*
X33790000Y-34250000D03*
X33790000Y-36196000D03*
X35760000Y-36196000D03*
X35760000Y-32304000D03*
X33790000Y-32304000D03*
X44910000Y-34250000D03*
X42940000Y-34250000D03*
X42940000Y-36196000D03*
X44910000Y-36196000D03*
X44910000Y-32304000D03*
X42940000Y-32304000D03*
D22*
X123700000Y-30600000D03*
X121000000Y-30600000D03*
D24*
X93700000Y-36700000D03*
X101600000Y-36700000D03*
D22*
X121000000Y-28350000D03*
X123700000Y-28350000D03*
X123700000Y-21850000D03*
X121000000Y-21850000D03*
D25*
X100550000Y-11850000D03*
X100550000Y-9150000D03*
D22*
X25150000Y-42250000D03*
X27850000Y-42250000D03*
D25*
X74750000Y-35700000D03*
X74750000Y-38400000D03*
D22*
X25150000Y-44300000D03*
X27850000Y-44300000D03*
D25*
X77750000Y-35700000D03*
X77750000Y-38400000D03*
D22*
X121000000Y-19550000D03*
X123700000Y-19550000D03*
D25*
X92350000Y-11850000D03*
X92350000Y-9150000D03*
D26*
X98500000Y-18100000D03*
X98500000Y-26000000D03*
D25*
X96450000Y-11850000D03*
X96450000Y-9150000D03*
X61750000Y-35550000D03*
X61750000Y-38250000D03*
X68250000Y-38400000D03*
X68250000Y-35700000D03*
X86600000Y-38400000D03*
X86600000Y-35700000D03*
X83600000Y-35700000D03*
X83600000Y-38400000D03*
D22*
X123700000Y-43750000D03*
X121000000Y-43750000D03*
X123700000Y-41450000D03*
X121000000Y-41450000D03*
X123700000Y-39150000D03*
X121000000Y-39150000D03*
X121000000Y-36850000D03*
X123700000Y-36850000D03*
D27*
X85350000Y-29045000D03*
X85350000Y-30315000D03*
X85350000Y-31585000D03*
X85350000Y-32855000D03*
X90750000Y-32855000D03*
X90750000Y-31585000D03*
X90750000Y-30315000D03*
X90750000Y-29045000D03*
D28*
X123700000Y-34750000D03*
X123700000Y-33800000D03*
X123700000Y-32850000D03*
X121000000Y-32850000D03*
X121000000Y-34750000D03*
D29*
X50000000Y-7955000D03*
X50000000Y-3045000D03*
X56200000Y-3045000D03*
X56200000Y-7955000D03*
D19*
X63250000Y-19150000D03*
X85750000Y-19150000D03*
D30*
X40600000Y-10000000D03*
X35600000Y-10000000D03*
X113400000Y-10000000D03*
X108400000Y-10000000D03*
D31*
X105760000Y-22935000D03*
X106760000Y-22935000D03*
X106760000Y-23935000D03*
X105760000Y-23935000D03*
X107760000Y-23935000D03*
X108760000Y-23935000D03*
X108760000Y-22935000D03*
X107760000Y-22935000D03*
X111760000Y-22935000D03*
X112760000Y-22935000D03*
X112760000Y-23935000D03*
X111760000Y-23935000D03*
X109760000Y-23935000D03*
X110760000Y-23935000D03*
X110760000Y-22935000D03*
X109760000Y-22935000D03*
X113760000Y-22935000D03*
X113760000Y-23935000D03*
X114760000Y-23935000D03*
X115760000Y-23935000D03*
X115760000Y-22935000D03*
X114760000Y-22935000D03*
X114760000Y-24935000D03*
X115760000Y-24935000D03*
X115760000Y-25935000D03*
X114760000Y-25935000D03*
X113760000Y-25935000D03*
X113760000Y-24935000D03*
X109760000Y-24935000D03*
X110760000Y-24935000D03*
X110760000Y-25935000D03*
X109760000Y-25935000D03*
X111760000Y-25935000D03*
X112760000Y-25935000D03*
X112760000Y-24935000D03*
X111760000Y-24935000D03*
X107760000Y-24935000D03*
X108760000Y-24935000D03*
X108760000Y-25935000D03*
X107760000Y-25935000D03*
X105760000Y-25935000D03*
X106760000Y-25935000D03*
X106760000Y-24935000D03*
X105760000Y-24935000D03*
D32*
X108220000Y-37350000D03*
X113300000Y-37350000D03*
D31*
X105760000Y-27705000D03*
X105760000Y-26925000D03*
X106760000Y-26925000D03*
X106760000Y-27705000D03*
X107760000Y-27705000D03*
X108760000Y-27705000D03*
X108760000Y-26925000D03*
X109760000Y-27705000D03*
X110760000Y-26925000D03*
X107760000Y-26925000D03*
X110760000Y-27705000D03*
X109760000Y-26925000D03*
X109760000Y-28705000D03*
X110760000Y-28705000D03*
X110760000Y-29705000D03*
X109760000Y-29705000D03*
X111760000Y-29705000D03*
X108760000Y-28705000D03*
X111760000Y-28705000D03*
X108760000Y-29705000D03*
X114760000Y-27705000D03*
X115760000Y-27705000D03*
X115760000Y-26925000D03*
X114760000Y-28705000D03*
X114760000Y-26925000D03*
X115760000Y-28705000D03*
X107760000Y-29705000D03*
X105760000Y-29705000D03*
X106760000Y-29705000D03*
X106760000Y-28705000D03*
X107760000Y-28705000D03*
X105760000Y-28705000D03*
X112760000Y-29705000D03*
X113760000Y-28705000D03*
X115760000Y-29705000D03*
X114760000Y-29705000D03*
X113760000Y-29705000D03*
X112760000Y-28705000D03*
X112760000Y-26925000D03*
X111760000Y-27705000D03*
X113760000Y-26925000D03*
X113760000Y-27705000D03*
X112760000Y-27705000D03*
X111760000Y-26925000D03*
D18*
X43300000Y-41200000D03*
X43300000Y-45200000D03*
D33*
X9398000Y-9525000D03*
D34*
X13523000Y-9525000D03*
X12324815Y-12451815D03*
X9398000Y-13650000D03*
X6471185Y-12451815D03*
X5273000Y-9525000D03*
X6471185Y-6598185D03*
X9398000Y-5400000D03*
X12324815Y-6598185D03*
D33*
X139573000Y-9525000D03*
D34*
X143698000Y-9525000D03*
X142499815Y-12451815D03*
X139573000Y-13650000D03*
X136646185Y-12451815D03*
X135448000Y-9525000D03*
X136646185Y-6598185D03*
X139573000Y-5400000D03*
X142499815Y-6598185D03*
D33*
X139573000Y-41275000D03*
D34*
X143698000Y-41275000D03*
X142499815Y-44201815D03*
X139573000Y-45400000D03*
X136646185Y-44201815D03*
X135448000Y-41275000D03*
X136646185Y-38348185D03*
X139573000Y-37150000D03*
X142499815Y-38348185D03*
D33*
X9398000Y-41275000D03*
D34*
X13523000Y-41275000D03*
X12324815Y-44201815D03*
X9398000Y-45400000D03*
X6471185Y-44201815D03*
X5273000Y-41275000D03*
X6471185Y-38348185D03*
X9398000Y-37150000D03*
X12324815Y-38348185D03*
D35*
X29750000Y-49650000D03*
D36*
X85100000Y-34650000D03*
X85100000Y-36700000D03*
X70150000Y-34700000D03*
X70150000Y-36750000D03*
D35*
X61750000Y-33700000D03*
X128150000Y-48200000D03*
D36*
X127050000Y-37950000D03*
X125250000Y-37950000D03*
X124050000Y-31950000D03*
X121200000Y-33900000D03*
X118700000Y-20700000D03*
X118700000Y-22950000D03*
D35*
X27300000Y-49800000D03*
D36*
X33250000Y-47800000D03*
D35*
X34150000Y-39200000D03*
X22150000Y-36700000D03*
D36*
X122300000Y-41450000D03*
X129700000Y-41200000D03*
X122700000Y-1700000D03*
X92200000Y-24700000D03*
X92600000Y-26700000D03*
X98850000Y-33450000D03*
X92200000Y-31700000D03*
X86700000Y-31650000D03*
X126100000Y-29500000D03*
X126100000Y-27200000D03*
X23050000Y-45550000D03*
X29000000Y-41400000D03*
X23900000Y-44100000D03*
X75650000Y-30500000D03*
X76150000Y-37200000D03*
X23450000Y-48700000D03*
X23450000Y-47200000D03*
X23900000Y-47900000D03*
D35*
X35900000Y-43800000D03*
D36*
X44700000Y-45200000D03*
X41900000Y-45200000D03*
X29400000Y-43250000D03*
X29000000Y-39550000D03*
X43300000Y-46700000D03*
X100550000Y-10500000D03*
X92350000Y-10500000D03*
X122650000Y-46000000D03*
X122450000Y-36850000D03*
X126150000Y-34700000D03*
X86700000Y-29100000D03*
X90800000Y-38000000D03*
X80800000Y-34400000D03*
D37*
X121050000Y-26150000D02*
X122600000Y-26150000D01*
X122600000Y-26150000D02*
X123550000Y-27100000D01*
X123550000Y-27100000D02*
X123550000Y-28200000D01*
X123550000Y-28200000D02*
X123700000Y-28350000D01*
D38*
X29450000Y-47750000D02*
X29450000Y-48500000D01*
X29450000Y-48500000D02*
X29450000Y-49350000D01*
D39*
X27900000Y-47880000D02*
X28930000Y-47880000D01*
X28930000Y-47880000D02*
X29450000Y-48400000D01*
X29450000Y-48400000D02*
X29450000Y-48500000D01*
X26914998Y-45350000D02*
X30100000Y-45350000D01*
X30100000Y-45350000D02*
X30300000Y-45550000D01*
X26774999Y-45188589D02*
X26774999Y-45210001D01*
X26774999Y-45210001D02*
X26914998Y-45350000D01*
D38*
X29450000Y-46400000D02*
X29450000Y-47750000D01*
X31650000Y-45550000D02*
X30300000Y-45550000D01*
X30300000Y-45550000D02*
X29450000Y-46400000D01*
X29450000Y-49350000D02*
X29750000Y-49650000D01*
D39*
X26550000Y-44950000D02*
X26550000Y-42650000D01*
X26550000Y-42650000D02*
X26550000Y-41050000D01*
X26150000Y-42250000D02*
X26550000Y-42650000D01*
X26774999Y-45188589D02*
X26543205Y-44956795D01*
X26543205Y-44956795D02*
X26550000Y-44950000D01*
X26550000Y-41050000D02*
X26500000Y-41000000D01*
X26500000Y-41000000D02*
X26500000Y-39200000D01*
X26500000Y-39200000D02*
X25700000Y-38400000D01*
X25700000Y-38400000D02*
X25700000Y-38350000D01*
D37*
X85100000Y-34650000D02*
X85100000Y-33105000D01*
X85100000Y-33105000D02*
X85350000Y-32855000D01*
X86600000Y-38400000D02*
X86600000Y-38200000D01*
X86600000Y-38200000D02*
X85100000Y-36700000D01*
X87800000Y-30250000D02*
X89005000Y-29045000D01*
X89005000Y-29045000D02*
X90750000Y-29045000D01*
X87800000Y-31680000D02*
X87800000Y-30250000D01*
X85350000Y-32855000D02*
X86625000Y-32855000D01*
X86625000Y-32855000D02*
X87800000Y-31680000D01*
X68250000Y-38400000D02*
X68500000Y-38400000D01*
X68500000Y-38400000D02*
X70150000Y-36750000D01*
D38*
X61750000Y-33700000D02*
X68400000Y-33700000D01*
X68400000Y-33700000D02*
X70350000Y-33700000D01*
D37*
X70150000Y-34700000D02*
X70150000Y-34275736D01*
X70150000Y-34275736D02*
X69574264Y-33700000D01*
X69574264Y-33700000D02*
X68400000Y-33700000D01*
X71500000Y-37800000D02*
X71200000Y-37800000D01*
X71200000Y-37800000D02*
X70150000Y-36750000D01*
X90750000Y-29045000D02*
X90750000Y-27950000D01*
X90750000Y-27950000D02*
X90650000Y-27850000D01*
D38*
X90050000Y-27250000D02*
X90650000Y-27850000D01*
X81200000Y-27250000D02*
X90050000Y-27250000D01*
X76400000Y-32050000D02*
X81200000Y-27250000D01*
X72000000Y-32050000D02*
X76400000Y-32050000D01*
X70350000Y-33700000D02*
X72000000Y-32050000D01*
X61750000Y-35550000D02*
X61750000Y-33700000D01*
D39*
X25150000Y-42250000D02*
X26150000Y-42250000D01*
D38*
X128150000Y-26750000D02*
X128150000Y-29800000D01*
X128150000Y-29800000D02*
X128150000Y-30400000D01*
D37*
X123700000Y-28350000D02*
X126700000Y-28350000D01*
X126700000Y-28350000D02*
X128150000Y-29800000D01*
D38*
X128150000Y-30400000D02*
X128150000Y-33450000D01*
X128150000Y-33450000D02*
X128150000Y-36800000D01*
D37*
X124050000Y-31950000D02*
X126650000Y-31950000D01*
X126650000Y-31950000D02*
X128150000Y-33450000D01*
D38*
X128150000Y-48200000D02*
X128150000Y-45400000D01*
X128150000Y-45400000D02*
X128150000Y-41450000D01*
D37*
X123700000Y-43750000D02*
X126500000Y-43750000D01*
X126500000Y-43750000D02*
X128150000Y-45400000D01*
D38*
X128150000Y-36800000D02*
X128150000Y-39050000D01*
X128150000Y-39050000D02*
X128150000Y-41450000D01*
D37*
X127050000Y-37950000D02*
X127349999Y-38249999D01*
X127349999Y-38249999D02*
X128150000Y-39050000D01*
D38*
X128150000Y-9900000D02*
X128150000Y-26750000D01*
D37*
X121000000Y-34750000D02*
X121000000Y-34100000D01*
X121000000Y-34100000D02*
X121200000Y-33900000D01*
X128150000Y-37100000D02*
X128150000Y-36800000D01*
X123700000Y-39150000D02*
X124050000Y-39150000D01*
X124050000Y-39150000D02*
X125250000Y-37950000D01*
D38*
X120250000Y-2000000D02*
X128150000Y-9900000D01*
X115500000Y-2000000D02*
X120250000Y-2000000D01*
X102400000Y-2000000D02*
X115500000Y-2000000D01*
X100550000Y-2000000D02*
X102400000Y-2000000D01*
X96450000Y-2000000D02*
X100550000Y-2000000D01*
D37*
X113300000Y-34350000D02*
X113300000Y-37350000D01*
X113900000Y-33750000D02*
X113300000Y-34350000D01*
X117050000Y-33750000D02*
X113900000Y-33750000D01*
X118700000Y-32100000D02*
X117050000Y-33750000D01*
X118700000Y-22950000D02*
X118700000Y-32100000D01*
D40*
X43300000Y-41200000D02*
X43300000Y-36556000D01*
X43300000Y-36556000D02*
X42940000Y-36196000D01*
D41*
X91600000Y-45150000D02*
X98900000Y-45150000D01*
D40*
X101600000Y-38650000D02*
X98900000Y-41350000D01*
D41*
X98900000Y-45150000D02*
X109700000Y-45150000D01*
D40*
X98900000Y-41350000D02*
X98900000Y-45150000D01*
X101600000Y-36700000D02*
X101600000Y-38650000D01*
D37*
X123100000Y-17400000D02*
X123700000Y-18000000D01*
X123700000Y-18000000D02*
X123700000Y-19550000D01*
X119650000Y-17400000D02*
X123100000Y-17400000D01*
X118700000Y-18350000D02*
X119650000Y-17400000D01*
X118700000Y-20700000D02*
X118700000Y-18350000D01*
D40*
X113300000Y-38834000D02*
X113300000Y-41600000D01*
X113300000Y-37350000D02*
X113300000Y-38834000D01*
X113300000Y-38834000D02*
X109700000Y-42434000D01*
X109700000Y-42434000D02*
X109700000Y-45150000D01*
D41*
X55200000Y-45150000D02*
X91600000Y-45150000D01*
X51650000Y-41600000D02*
X55200000Y-45150000D01*
X51650000Y-36200000D02*
X51650000Y-41600000D01*
X51650000Y-36200000D02*
X51650000Y-40800000D01*
D39*
X44910000Y-32304000D02*
X44910000Y-32190000D01*
X44910000Y-32190000D02*
X45800000Y-31300000D01*
X45800000Y-31300000D02*
X45800000Y-28950000D01*
X45800000Y-28950000D02*
X45000000Y-28150000D01*
X45000000Y-28150000D02*
X44900000Y-28150000D01*
D40*
X44910000Y-34250000D02*
X49700000Y-34250000D01*
X49700000Y-34250000D02*
X51650000Y-36200000D01*
X44910000Y-32304000D02*
X47895000Y-32304000D01*
X47895000Y-32304000D02*
X51650000Y-36059000D01*
X51650000Y-36059000D02*
X51650000Y-36200000D01*
D41*
X51650000Y-36200000D02*
X51650000Y-40700000D01*
D40*
X50650000Y-36200000D02*
X51650000Y-36200000D01*
X47899000Y-36200000D02*
X50650000Y-36200000D01*
X44910000Y-36196000D02*
X47895000Y-36196000D01*
X47895000Y-36196000D02*
X47899000Y-36200000D01*
D39*
X22700000Y-49250000D02*
X23250000Y-49800000D01*
X23250000Y-49800000D02*
X23900000Y-49800000D01*
X22700000Y-46700000D02*
X22700000Y-49250000D01*
X23100000Y-46300000D02*
X22700000Y-46700000D01*
X23900000Y-46300000D02*
X23100000Y-46300000D01*
X25200000Y-46570000D02*
X24170000Y-46570000D01*
X24170000Y-46570000D02*
X23900000Y-46300000D01*
D38*
X33250000Y-47800000D02*
X33250000Y-47375736D01*
X33250000Y-47375736D02*
X33650001Y-46975735D01*
X33650001Y-46975735D02*
X33650001Y-39699999D01*
X33650001Y-39699999D02*
X34150000Y-39200000D01*
D37*
X27900000Y-48980000D02*
X27900000Y-49200000D01*
X27900000Y-49200000D02*
X27300000Y-49800000D01*
D39*
X27900000Y-48530000D02*
X27900000Y-48980000D01*
X27300000Y-49800000D02*
X23900000Y-49800000D01*
D37*
X31650000Y-47800000D02*
X33250000Y-47800000D01*
D38*
X20200000Y-34750000D02*
X22150000Y-36700000D01*
X20200000Y-10450000D02*
X20200000Y-34750000D01*
X27605000Y-3045000D02*
X20200000Y-10450000D01*
X50000000Y-3045000D02*
X27605000Y-3045000D01*
D39*
X27900000Y-46570000D02*
X27900000Y-46120000D01*
X27900000Y-46120000D02*
X27580010Y-45800010D01*
X27580010Y-45800010D02*
X26728598Y-45800010D01*
X26728598Y-45800010D02*
X26203589Y-45275001D01*
X23274999Y-44624999D02*
X23925001Y-45275001D01*
X23925001Y-45275001D02*
X26203589Y-45275001D01*
X23274999Y-40925001D02*
X23274999Y-44624999D01*
X23274999Y-40925001D02*
X24000000Y-40200000D01*
X24000000Y-40200000D02*
X25250000Y-40200000D01*
D37*
X68250000Y-35700000D02*
X64800000Y-35700000D01*
X68250000Y-35700000D02*
X71400000Y-35700000D01*
X71400000Y-35700000D02*
X71500000Y-35600000D01*
X71500000Y-36400000D02*
X71500000Y-35600000D01*
X77750000Y-34050000D02*
X81485000Y-30315000D01*
X71500000Y-35600000D02*
X73050000Y-34050000D01*
X73050000Y-34050000D02*
X77750000Y-34050000D01*
X81485000Y-30315000D02*
X85350000Y-30315000D01*
X122300000Y-41450000D02*
X121000000Y-41450000D01*
X130150000Y-40750000D02*
X129700000Y-41200000D01*
X130150000Y-9150000D02*
X130150000Y-40750000D01*
X122700000Y-1700000D02*
X130150000Y-9150000D01*
X76250000Y-8000000D02*
X76250000Y-9414213D01*
X76250000Y-9414213D02*
X70150000Y-15514213D01*
X70150000Y-15514213D02*
X70150000Y-22250000D01*
X59150000Y-37250000D02*
X60150000Y-38250000D01*
X70150000Y-22250000D02*
X59150000Y-33250000D01*
X59150000Y-33250000D02*
X59150000Y-37250000D01*
X60150000Y-38250000D02*
X61750000Y-38250000D01*
X61750000Y-38250000D02*
X64750000Y-38250000D01*
X64750000Y-38250000D02*
X64800000Y-38200000D01*
X121000000Y-43750000D02*
X120750000Y-43750000D01*
X120750000Y-43750000D02*
X119800000Y-44700000D01*
X119800000Y-44700000D02*
X119800000Y-47150000D01*
X119800000Y-47150000D02*
X120700000Y-48050000D01*
X120700000Y-48050000D02*
X121550000Y-48050000D01*
X121000000Y-41450000D02*
X121000000Y-43750000D01*
X83600000Y-38400000D02*
X80800000Y-38400000D01*
X80800000Y-38400000D02*
X80650000Y-38250000D01*
X90750000Y-32855000D02*
X90750000Y-34500000D01*
X90750000Y-34500000D02*
X89550000Y-35700000D01*
X121400000Y-46000000D02*
X121400000Y-46450000D01*
X121400000Y-46450000D02*
X122950000Y-48000000D01*
X122950000Y-48000000D02*
X122950000Y-48050000D01*
X121150000Y-46000000D02*
X121400000Y-46000000D01*
X122300000Y-44975000D02*
X122300000Y-42750000D01*
X122300000Y-42750000D02*
X123600000Y-41450000D01*
X123600000Y-41450000D02*
X123700000Y-41450000D01*
X121150000Y-46000000D02*
X121275000Y-46000000D01*
X121275000Y-46000000D02*
X122300000Y-44975000D01*
X126250000Y-40200000D02*
X125000000Y-41450000D01*
X125000000Y-41450000D02*
X123700000Y-41450000D01*
X126250000Y-36020000D02*
X126250000Y-40200000D01*
X123700000Y-34750000D02*
X124980000Y-34750000D01*
X124980000Y-34750000D02*
X126250000Y-36020000D01*
X123700000Y-34750000D02*
X124155000Y-34750000D01*
X100550000Y-6000000D02*
X100550000Y-9150000D01*
X96450000Y-6000000D02*
X96450000Y-9150000D01*
X92350000Y-5950000D02*
X92350000Y-9150000D01*
X92200000Y-24700000D02*
X93850000Y-23050000D01*
X93850000Y-23050000D02*
X93850000Y-3550000D01*
X92350000Y-2100000D02*
X92350000Y-1950000D01*
X93850000Y-3550000D02*
X93800000Y-3550000D01*
X93800000Y-3550000D02*
X92350000Y-2100000D01*
X92200000Y-31700000D02*
X92200000Y-27100000D01*
X92200000Y-27100000D02*
X92600000Y-26700000D01*
X77750000Y-35700000D02*
X77750000Y-35600000D01*
X77750000Y-35600000D02*
X81765000Y-31585000D01*
X81765000Y-31585000D02*
X85350000Y-31585000D01*
X74750000Y-35700000D02*
X77750000Y-35700000D01*
X98850000Y-33450000D02*
X99250000Y-33450000D01*
X99250000Y-33450000D02*
X100150000Y-32550000D01*
X92200000Y-31700000D02*
X93950000Y-31700000D01*
X93950000Y-31700000D02*
X94800000Y-32550000D01*
X85350000Y-31585000D02*
X86635000Y-31585000D01*
X86635000Y-31585000D02*
X86700000Y-31650000D01*
D39*
X42200000Y-28150000D02*
X40100000Y-28150000D01*
X39650000Y-23750000D02*
X52200000Y-11200000D01*
X70650000Y-11200000D02*
X71150000Y-10700000D01*
X40100000Y-28150000D02*
X39650000Y-27700000D01*
X39650000Y-27700000D02*
X39650000Y-23750000D01*
X52200000Y-11200000D02*
X70650000Y-11200000D01*
X71150000Y-10700000D02*
X71150000Y-8700000D01*
X71150000Y-8700000D02*
X71850000Y-8000000D01*
X71850000Y-8000000D02*
X72750000Y-8000000D01*
X36500000Y-28200000D02*
X38650000Y-28200000D01*
X70650000Y-8700000D02*
X69950000Y-8000000D01*
X38650000Y-28200000D02*
X39150000Y-27700000D01*
X39150000Y-27700000D02*
X39150000Y-23613590D01*
X52063590Y-10700000D02*
X70500000Y-10700000D01*
X39150000Y-23613590D02*
X52063590Y-10700000D01*
X70500000Y-10700000D02*
X70650000Y-10550000D01*
X70650000Y-10550000D02*
X70650000Y-8700000D01*
X69950000Y-8000000D02*
X69250000Y-8000000D01*
D37*
X123700000Y-21850000D02*
X123700000Y-24850000D01*
X123700000Y-24850000D02*
X124050000Y-25200000D01*
D39*
X33790000Y-32304000D02*
X33790000Y-32190000D01*
X33790000Y-32190000D02*
X32950000Y-31350000D01*
X32950000Y-31350000D02*
X32950000Y-28950000D01*
X32950000Y-28950000D02*
X33700000Y-28200000D01*
X33700000Y-28200000D02*
X33800000Y-28200000D01*
D40*
X27500000Y-19800000D02*
X27500000Y-18100000D01*
X29650000Y-35350000D02*
X30496000Y-36196000D01*
X30496000Y-36196000D02*
X33790000Y-36196000D01*
X29650000Y-34250000D02*
X29650000Y-35350000D01*
X27500000Y-32100000D02*
X29650000Y-34250000D01*
X29650000Y-34250000D02*
X33790000Y-34250000D01*
X27500000Y-32100000D02*
X27704000Y-32304000D01*
X27704000Y-32304000D02*
X33790000Y-32304000D01*
D41*
X27500000Y-19800000D02*
X27500000Y-32100000D01*
X32297056Y-15002944D02*
X27500000Y-19800000D01*
X32297056Y-15000000D02*
X32297056Y-15002944D01*
D42*
X35600000Y-10000000D02*
X35600000Y-11697056D01*
X35600000Y-11697056D02*
X32297056Y-15000000D01*
D37*
X125000000Y-30600000D02*
X123700000Y-30600000D01*
X126100000Y-29500000D02*
X125000000Y-30600000D01*
X126650000Y-10850000D02*
X126650000Y-26650000D01*
X126650000Y-26650000D02*
X126100000Y-27200000D01*
X119500000Y-3700000D02*
X126650000Y-10850000D01*
X99750000Y-3700000D02*
X119500000Y-3700000D01*
X98000000Y-5450000D02*
X99750000Y-3700000D01*
X98000000Y-11450000D02*
X98000000Y-5450000D01*
X96450000Y-11850000D02*
X97600000Y-11850000D01*
X97600000Y-11850000D02*
X98000000Y-11450000D01*
X123700000Y-30600000D02*
X123250000Y-30600000D01*
X123250000Y-30600000D02*
X121000000Y-32850000D01*
D38*
X123600000Y-30600000D02*
X123700000Y-30600000D01*
D39*
X23050000Y-45550000D02*
X23563590Y-45550000D01*
X23563590Y-45550000D02*
X23738601Y-45725011D01*
X26017189Y-45725011D02*
X26600000Y-46307822D01*
X23738601Y-45725011D02*
X26017189Y-45725011D01*
X26600000Y-46307822D02*
X26600000Y-46950000D01*
X26600000Y-46950000D02*
X26870000Y-47220000D01*
X26870000Y-47220000D02*
X27900000Y-47220000D01*
X25250000Y-44300000D02*
X25150000Y-44300000D01*
D37*
X29000000Y-41400000D02*
X28700000Y-41400000D01*
X28700000Y-41400000D02*
X27850000Y-42250000D01*
X25150000Y-44300000D02*
X24100000Y-44300000D01*
X24100000Y-44300000D02*
X23900000Y-44100000D01*
X25150000Y-44300000D02*
X25200000Y-44300000D01*
X27700000Y-42250000D02*
X27850000Y-42250000D01*
X75650000Y-30500000D02*
X80450000Y-25700000D01*
X80450000Y-25700000D02*
X93150000Y-25700000D01*
X93150000Y-25700000D02*
X98500000Y-20350000D01*
X98500000Y-20350000D02*
X98500000Y-18100000D01*
X77750000Y-38400000D02*
X77350000Y-38400000D01*
X77350000Y-38400000D02*
X76150000Y-37200000D01*
D40*
X98500000Y-18100000D02*
X100300000Y-18100000D01*
X100300000Y-18100000D02*
X108400000Y-10000000D01*
X108760000Y-22935000D02*
X108760000Y-17410000D01*
X108760000Y-17410000D02*
X108400000Y-17050000D01*
X107760000Y-22935000D02*
X107760000Y-17690000D01*
X107760000Y-17690000D02*
X108400000Y-17050000D01*
X106760000Y-22935000D02*
X106760000Y-18690000D01*
X106760000Y-18690000D02*
X108400000Y-17050000D01*
D38*
X105750000Y-18650000D02*
X106800000Y-18650000D01*
X106800000Y-18650000D02*
X108400000Y-17050000D01*
X105750000Y-21425000D02*
X105750000Y-18650000D01*
X105760000Y-22935000D02*
X105760000Y-21435000D01*
X105760000Y-21435000D02*
X105750000Y-21425000D01*
D40*
X113350000Y-22000000D02*
X114325000Y-22000000D01*
X114325000Y-22000000D02*
X114760000Y-22435000D01*
X114760000Y-22435000D02*
X114760000Y-24425000D01*
X114760000Y-24425000D02*
X114760000Y-26925000D01*
D42*
X108400000Y-17050000D02*
X113350000Y-22000000D01*
X108400000Y-14800000D02*
X108400000Y-17050000D01*
X108400000Y-11697056D02*
X108400000Y-14800000D01*
X108400000Y-10000000D02*
X108400000Y-11697056D01*
D37*
X83600000Y-35700000D02*
X86600000Y-35700000D01*
X90750000Y-30315000D02*
X90750000Y-31585000D01*
X89600000Y-31600000D02*
X90735000Y-31600000D01*
X90735000Y-31600000D02*
X90750000Y-31585000D01*
X89400000Y-31800000D02*
X89600000Y-31600000D01*
X89400000Y-32800000D02*
X89400000Y-31800000D01*
X86600000Y-35700000D02*
X86600000Y-35600000D01*
X86600000Y-35600000D02*
X89400000Y-32800000D01*
X122350000Y-33234998D02*
X122350000Y-35600000D01*
X122350000Y-35600000D02*
X121100000Y-36850000D01*
X121100000Y-36850000D02*
X121000000Y-36850000D01*
X123700000Y-32850000D02*
X122734998Y-32850000D01*
X122734998Y-32850000D02*
X122350000Y-33234998D01*
X121000000Y-36850000D02*
X121000000Y-39150000D01*
D40*
X56200000Y-3045000D02*
X58405000Y-3045000D01*
X59750000Y-1700000D02*
X78364213Y-1700000D01*
X58405000Y-3045000D02*
X59750000Y-1700000D01*
X78364213Y-1700000D02*
X83250000Y-6585787D01*
X83250000Y-6585787D02*
X83250000Y-8000000D01*
X60154990Y-5245010D02*
X76995010Y-5245010D01*
X76995010Y-5245010D02*
X79750000Y-8000000D01*
X57445000Y-7955000D02*
X60154990Y-5245010D01*
X56200000Y-7955000D02*
X57445000Y-7955000D01*
D38*
X44600000Y-7950000D02*
X44605000Y-7955000D01*
X44605000Y-7955000D02*
X50000000Y-7955000D01*
X42550000Y-10000000D02*
X44600000Y-7950000D01*
X40600000Y-10000000D02*
X42550000Y-10000000D01*
D37*
X121000000Y-21850000D02*
X117650000Y-21850000D01*
X117650000Y-21850000D02*
X117300000Y-22200000D01*
X109850000Y-31200000D02*
X108220000Y-32830000D01*
X117300000Y-22200000D02*
X117300000Y-30850000D01*
X117300000Y-30850000D02*
X116950000Y-31200000D01*
X116950000Y-31200000D02*
X109850000Y-31200000D01*
X108220000Y-32830000D02*
X108220000Y-37350000D01*
X121000000Y-19550000D02*
X121000000Y-21850000D01*
D38*
X108200000Y-37330000D02*
X108220000Y-37350000D01*
D37*
X74750000Y-38400000D02*
X76049990Y-39699990D01*
X93700000Y-37150000D02*
X93700000Y-36700000D01*
X76049990Y-39699990D02*
X91150010Y-39699990D01*
X91150010Y-39699990D02*
X93700000Y-37150000D01*
X100450000Y-29550000D02*
X101100000Y-29550000D01*
D40*
X99450000Y-29550000D02*
X100450000Y-29550000D01*
X96700000Y-32300000D02*
X99450000Y-29550000D01*
X96700000Y-32550000D02*
X96700000Y-32300000D01*
X96700000Y-32550000D02*
X96700000Y-36100000D01*
X96100000Y-36700000D02*
X93700000Y-36700000D01*
X96700000Y-36100000D02*
X96100000Y-36700000D01*
X95750000Y-28350000D02*
X98100000Y-26000000D01*
X98100000Y-26000000D02*
X98500000Y-26000000D01*
X95750000Y-29550000D02*
X95750000Y-28350000D01*
X102050000Y-32550000D02*
X103000000Y-32550000D01*
X103000000Y-32550000D02*
X103500000Y-32050000D01*
X103500000Y-32050000D02*
X103500000Y-26900000D01*
X103500000Y-26900000D02*
X102600000Y-26000000D01*
X102600000Y-26000000D02*
X98500000Y-26000000D01*
D39*
X23870000Y-48530000D02*
X23620000Y-48530000D01*
X23620000Y-48530000D02*
X23450000Y-48700000D01*
X23700000Y-47220000D02*
X23470000Y-47220000D01*
X23470000Y-47220000D02*
X23450000Y-47200000D01*
X25200000Y-48530000D02*
X23870000Y-48530000D01*
X25200000Y-47880000D02*
X23920000Y-47880000D01*
X23920000Y-47880000D02*
X23900000Y-47900000D01*
X25200000Y-47220000D02*
X23700000Y-47220000D01*
D38*
X35650000Y-45550000D02*
X35650000Y-44050000D01*
X35650000Y-44050000D02*
X35900000Y-43800000D01*
X35650000Y-47800000D02*
X35650000Y-45550000D01*
D39*
X25200000Y-47880000D02*
X25200000Y-47220000D01*
X25200000Y-48530000D02*
X25200000Y-47880000D01*
D37*
X92350000Y-10500000D02*
X92350000Y-11850000D01*
X100550000Y-10500000D02*
X100550000Y-11850000D01*
X43300000Y-45200000D02*
X44700000Y-45200000D01*
X43300000Y-45200000D02*
X41900000Y-45200000D01*
X27100000Y-38350000D02*
X27750000Y-39000000D01*
X27750000Y-39000000D02*
X27750000Y-40200000D01*
X27850000Y-44300000D02*
X28350000Y-44300000D01*
X28350000Y-44300000D02*
X29400000Y-43250000D01*
X27750000Y-40200000D02*
X28350000Y-40200000D01*
X28350000Y-40200000D02*
X29000000Y-39550000D01*
X43300000Y-45200000D02*
X43300000Y-46700000D01*
X123650000Y-46000000D02*
X122650000Y-46000000D01*
X123700000Y-36850000D02*
X122450000Y-36850000D01*
X123700000Y-33800000D02*
X125250000Y-33800000D01*
X125250000Y-33800000D02*
X126150000Y-34700000D01*
X85350000Y-29045000D02*
X86645000Y-29045000D01*
X86645000Y-29045000D02*
X86700000Y-29100000D01*
X89550000Y-38200000D02*
X90600000Y-38200000D01*
X90600000Y-38200000D02*
X90800000Y-38000000D01*
X80650000Y-35750000D02*
X80650000Y-34550000D01*
X80650000Y-34550000D02*
X80800000Y-34400000D01*
D39*
X119500000Y-26950000D02*
X119500000Y-25250000D01*
X119500000Y-25250000D02*
X120500000Y-24250000D01*
X120500000Y-24250000D02*
X121050000Y-24250000D01*
X120900000Y-28350000D02*
X119500000Y-26950000D01*
X121000000Y-28350000D02*
X120900000Y-28350000D01*
D37*
X121000000Y-28350000D02*
X121000000Y-30600000D01*
X121050000Y-28300000D02*
X121000000Y-28350000D01*
D43*
G36*
X35078777Y-8219201D02*
X34605565Y-8415212D01*
X34482430Y-8702825D01*
X35600000Y-9820395D01*
X35614143Y-9806253D01*
X35793748Y-9985858D01*
X35779605Y-10000000D01*
X36897175Y-11117570D01*
X37184788Y-10994435D01*
X37187606Y-10987039D01*
X38356580Y-12521317D01*
X36985825Y-16208178D01*
X29309404Y-11297175D01*
X34482430Y-11297175D01*
X34605565Y-11584788D01*
X35287734Y-11844707D01*
X36017443Y-11823786D01*
X36594435Y-11584788D01*
X36717570Y-11297175D01*
X35600000Y-10179605D01*
X34482430Y-11297175D01*
X29309404Y-11297175D01*
X29224170Y-11242647D01*
X31335779Y-9687734D01*
X33755293Y-9687734D01*
X33776214Y-10417443D01*
X34015212Y-10994435D01*
X34302825Y-11117570D01*
X35420395Y-10000000D01*
X34302825Y-8882430D01*
X34015212Y-9005565D01*
X33755293Y-9687734D01*
X31335779Y-9687734D01*
X34450295Y-7394318D01*
X35078777Y-8219201D01*
X35078777Y-8219201D01*
G37*
X35078777Y-8219201D02*
X34605565Y-8415212D01*
X34482430Y-8702825D01*
X35600000Y-9820395D01*
X35614143Y-9806253D01*
X35793748Y-9985858D01*
X35779605Y-10000000D01*
X36897175Y-11117570D01*
X37184788Y-10994435D01*
X37187606Y-10987039D01*
X38356580Y-12521317D01*
X36985825Y-16208178D01*
X29309404Y-11297175D01*
X34482430Y-11297175D01*
X34605565Y-11584788D01*
X35287734Y-11844707D01*
X36017443Y-11823786D01*
X36594435Y-11584788D01*
X36717570Y-11297175D01*
X35600000Y-10179605D01*
X34482430Y-11297175D01*
X29309404Y-11297175D01*
X29224170Y-11242647D01*
X31335779Y-9687734D01*
X33755293Y-9687734D01*
X33776214Y-10417443D01*
X34015212Y-10994435D01*
X34302825Y-11117570D01*
X35420395Y-10000000D01*
X34302825Y-8882430D01*
X34015212Y-9005565D01*
X33755293Y-9687734D01*
X31335779Y-9687734D01*
X34450295Y-7394318D01*
X35078777Y-8219201D01*
D44*
G36*
X51537300Y-32537300D02*
X47863218Y-32537300D01*
X47912216Y-31312370D01*
X51537300Y-31213052D01*
X51537300Y-32537300D01*
X51537300Y-32537300D01*
G37*
X51537300Y-32537300D02*
X47863218Y-32537300D01*
X47912216Y-31312370D01*
X51537300Y-31213052D01*
X51537300Y-32537300D01*
G36*
X113541300Y-40240525D02*
X113671475Y-40370700D01*
X114397823Y-40370700D01*
X114685075Y-45361703D01*
X112015620Y-42099035D01*
X113541300Y-39677847D01*
X113541300Y-40240525D01*
X113541300Y-40240525D01*
G37*
X113541300Y-40240525D02*
X113671475Y-40370700D01*
X114397823Y-40370700D01*
X114685075Y-45361703D01*
X112015620Y-42099035D01*
X113541300Y-39677847D01*
X113541300Y-40240525D01*
M02*
