G04 #@! TF.FileFunction,Copper,L2,Bot,Signal*
%FSLAX46Y46*%
G04 Gerber Fmt 4.6, Leading zero omitted, Abs format (unit mm)*
G04 Created by KiCad (PCBNEW 4.0.4-stable) date Saturday, July 15, 2017 'PMt' 05:06:53 PM*
%MOMM*%
%LPD*%
G01*
G04 APERTURE LIST*
%ADD10C,0.100000*%
%ADD11C,0.150000*%
%ADD12C,0.300000*%
%ADD13C,0.400000*%
%ADD14C,2.000000*%
%ADD15R,1.970000X1.946000*%
%ADD16C,2.400000*%
%ADD17R,1.000000X1.000000*%
%ADD18C,0.600000*%
%ADD19C,1.000000*%
%ADD20C,0.500000*%
%ADD21C,1.000000*%
%ADD22C,10.000000*%
%ADD23C,5.000000*%
%ADD24C,0.254000*%
G04 APERTURE END LIST*
D10*
D11*
X177002200Y-166007200D02*
X177002200Y-198007200D01*
X285002200Y-198007200D01*
X285002200Y-166007200D01*
X177002200Y-166007200D01*
D10*
D11*
X10000000Y-10000000D02*
X10000000Y-200007200D01*
X287002200Y-200007200D01*
X287002200Y-10000000D01*
X10000000Y-10000000D01*
D10*
D11*
X12000000Y-12000000D02*
X12000000Y-198007200D01*
X285002200Y-198007200D01*
X285002200Y-12000000D01*
X12000000Y-12000000D01*
D10*
D11*
X60000000Y-12000000D02*
X60000000Y-10000000D01*
D10*
D11*
X110000000Y-12000000D02*
X110000000Y-10000000D01*
D10*
D11*
X160000000Y-12000000D02*
X160000000Y-10000000D01*
D10*
D11*
X210000000Y-12000000D02*
X210000000Y-10000000D01*
D10*
D11*
X260000000Y-12000000D02*
X260000000Y-10000000D01*
D10*
D11*
X35990476Y-11588095D02*
X35247619Y-11588095D01*
X35619048Y-11588095D02*
X35619048Y-10288095D01*
X35495238Y-10473810D01*
X35371429Y-10597619D01*
X35247619Y-10659524D01*
D10*
D11*
X85247619Y-10411905D02*
X85309524Y-10350000D01*
X85433333Y-10288095D01*
X85742857Y-10288095D01*
X85866667Y-10350000D01*
X85928571Y-10411905D01*
X85990476Y-10535714D01*
X85990476Y-10659524D01*
X85928571Y-10845238D01*
X85185714Y-11588095D01*
X85990476Y-11588095D01*
D10*
D11*
X135185714Y-10288095D02*
X135990476Y-10288095D01*
X135557143Y-10783333D01*
X135742857Y-10783333D01*
X135866667Y-10845238D01*
X135928571Y-10907143D01*
X135990476Y-11030952D01*
X135990476Y-11340476D01*
X135928571Y-11464286D01*
X135866667Y-11526190D01*
X135742857Y-11588095D01*
X135371429Y-11588095D01*
X135247619Y-11526190D01*
X135185714Y-11464286D01*
D10*
D11*
X185866667Y-10721429D02*
X185866667Y-11588095D01*
X185557143Y-10226190D02*
X185247619Y-11154762D01*
X186052381Y-11154762D01*
D10*
D11*
X235928571Y-10288095D02*
X235309524Y-10288095D01*
X235247619Y-10907143D01*
X235309524Y-10845238D01*
X235433333Y-10783333D01*
X235742857Y-10783333D01*
X235866667Y-10845238D01*
X235928571Y-10907143D01*
X235990476Y-11030952D01*
X235990476Y-11340476D01*
X235928571Y-11464286D01*
X235866667Y-11526190D01*
X235742857Y-11588095D01*
X235433333Y-11588095D01*
X235309524Y-11526190D01*
X235247619Y-11464286D01*
D10*
D11*
X285866667Y-10288095D02*
X285619048Y-10288095D01*
X285495238Y-10350000D01*
X285433333Y-10411905D01*
X285309524Y-10597619D01*
X285247619Y-10845238D01*
X285247619Y-11340476D01*
X285309524Y-11464286D01*
X285371429Y-11526190D01*
X285495238Y-11588095D01*
X285742857Y-11588095D01*
X285866667Y-11526190D01*
X285928571Y-11464286D01*
X285990476Y-11340476D01*
X285990476Y-11030952D01*
X285928571Y-10907143D01*
X285866667Y-10845238D01*
X285742857Y-10783333D01*
X285495238Y-10783333D01*
X285371429Y-10845238D01*
X285309524Y-10907143D01*
X285247619Y-11030952D01*
D10*
D11*
X60000000Y-198007200D02*
X60000000Y-200007200D01*
D10*
D11*
X110000000Y-198007200D02*
X110000000Y-200007200D01*
D10*
D11*
X160000000Y-198007200D02*
X160000000Y-200007200D01*
D10*
D11*
X210000000Y-198007200D02*
X210000000Y-200007200D01*
D10*
D11*
X260000000Y-198007200D02*
X260000000Y-200007200D01*
D10*
D11*
X35990476Y-199595295D02*
X35247619Y-199595295D01*
X35619048Y-199595295D02*
X35619048Y-198295295D01*
X35495238Y-198481010D01*
X35371429Y-198604819D01*
X35247619Y-198666724D01*
D10*
D11*
X85247619Y-198419105D02*
X85309524Y-198357200D01*
X85433333Y-198295295D01*
X85742857Y-198295295D01*
X85866667Y-198357200D01*
X85928571Y-198419105D01*
X85990476Y-198542914D01*
X85990476Y-198666724D01*
X85928571Y-198852438D01*
X85185714Y-199595295D01*
X85990476Y-199595295D01*
D10*
D11*
X135185714Y-198295295D02*
X135990476Y-198295295D01*
X135557143Y-198790533D01*
X135742857Y-198790533D01*
X135866667Y-198852438D01*
X135928571Y-198914343D01*
X135990476Y-199038152D01*
X135990476Y-199347676D01*
X135928571Y-199471486D01*
X135866667Y-199533390D01*
X135742857Y-199595295D01*
X135371429Y-199595295D01*
X135247619Y-199533390D01*
X135185714Y-199471486D01*
D10*
D11*
X185866667Y-198728629D02*
X185866667Y-199595295D01*
X185557143Y-198233390D02*
X185247619Y-199161962D01*
X186052381Y-199161962D01*
D10*
D11*
X235928571Y-198295295D02*
X235309524Y-198295295D01*
X235247619Y-198914343D01*
X235309524Y-198852438D01*
X235433333Y-198790533D01*
X235742857Y-198790533D01*
X235866667Y-198852438D01*
X235928571Y-198914343D01*
X235990476Y-199038152D01*
X235990476Y-199347676D01*
X235928571Y-199471486D01*
X235866667Y-199533390D01*
X235742857Y-199595295D01*
X235433333Y-199595295D01*
X235309524Y-199533390D01*
X235247619Y-199471486D01*
D10*
D11*
X285866667Y-198295295D02*
X285619048Y-198295295D01*
X285495238Y-198357200D01*
X285433333Y-198419105D01*
X285309524Y-198604819D01*
X285247619Y-198852438D01*
X285247619Y-199347676D01*
X285309524Y-199471486D01*
X285371429Y-199533390D01*
X285495238Y-199595295D01*
X285742857Y-199595295D01*
X285866667Y-199533390D01*
X285928571Y-199471486D01*
X285990476Y-199347676D01*
X285990476Y-199038152D01*
X285928571Y-198914343D01*
X285866667Y-198852438D01*
X285742857Y-198790533D01*
X285495238Y-198790533D01*
X285371429Y-198852438D01*
X285309524Y-198914343D01*
X285247619Y-199038152D01*
D10*
D11*
X10000000Y-60000000D02*
X12000000Y-60000000D01*
D10*
D11*
X10000000Y-110000000D02*
X12000000Y-110000000D01*
D10*
D11*
X10000000Y-160000000D02*
X12000000Y-160000000D01*
D10*
D11*
X10690476Y-35216667D02*
X11309524Y-35216667D01*
X10566667Y-35588095D02*
X11000000Y-34288095D01*
X11433333Y-35588095D01*
D10*
D11*
X11092857Y-84907143D02*
X11278571Y-84969048D01*
X11340476Y-85030952D01*
X11402381Y-85154762D01*
X11402381Y-85340476D01*
X11340476Y-85464286D01*
X11278571Y-85526190D01*
X11154762Y-85588095D01*
X10659524Y-85588095D01*
X10659524Y-84288095D01*
X11092857Y-84288095D01*
X11216667Y-84350000D01*
X11278571Y-84411905D01*
X11340476Y-84535714D01*
X11340476Y-84659524D01*
X11278571Y-84783333D01*
X11216667Y-84845238D01*
X11092857Y-84907143D01*
X10659524Y-84907143D01*
D10*
D11*
X11402381Y-135464286D02*
X11340476Y-135526190D01*
X11154762Y-135588095D01*
X11030952Y-135588095D01*
X10845238Y-135526190D01*
X10721429Y-135402381D01*
X10659524Y-135278571D01*
X10597619Y-135030952D01*
X10597619Y-134845238D01*
X10659524Y-134597619D01*
X10721429Y-134473810D01*
X10845238Y-134350000D01*
X11030952Y-134288095D01*
X11154762Y-134288095D01*
X11340476Y-134350000D01*
X11402381Y-134411905D01*
D10*
D11*
X10659524Y-185588095D02*
X10659524Y-184288095D01*
X10969048Y-184288095D01*
X11154762Y-184350000D01*
X11278571Y-184473810D01*
X11340476Y-184597619D01*
X11402381Y-184845238D01*
X11402381Y-185030952D01*
X11340476Y-185278571D01*
X11278571Y-185402381D01*
X11154762Y-185526190D01*
X10969048Y-185588095D01*
X10659524Y-185588095D01*
D10*
D11*
X287002200Y-60000000D02*
X285002200Y-60000000D01*
D10*
D11*
X287002200Y-110000000D02*
X285002200Y-110000000D01*
D10*
D11*
X287002200Y-160000000D02*
X285002200Y-160000000D01*
D10*
D11*
X285692676Y-35216667D02*
X286311724Y-35216667D01*
X285568867Y-35588095D02*
X286002200Y-34288095D01*
X286435533Y-35588095D01*
D10*
D11*
X286095057Y-84907143D02*
X286280771Y-84969048D01*
X286342676Y-85030952D01*
X286404581Y-85154762D01*
X286404581Y-85340476D01*
X286342676Y-85464286D01*
X286280771Y-85526190D01*
X286156962Y-85588095D01*
X285661724Y-85588095D01*
X285661724Y-84288095D01*
X286095057Y-84288095D01*
X286218867Y-84350000D01*
X286280771Y-84411905D01*
X286342676Y-84535714D01*
X286342676Y-84659524D01*
X286280771Y-84783333D01*
X286218867Y-84845238D01*
X286095057Y-84907143D01*
X285661724Y-84907143D01*
D10*
D11*
X286404581Y-135464286D02*
X286342676Y-135526190D01*
X286156962Y-135588095D01*
X286033152Y-135588095D01*
X285847438Y-135526190D01*
X285723629Y-135402381D01*
X285661724Y-135278571D01*
X285599819Y-135030952D01*
X285599819Y-134845238D01*
X285661724Y-134597619D01*
X285723629Y-134473810D01*
X285847438Y-134350000D01*
X286033152Y-134288095D01*
X286156962Y-134288095D01*
X286342676Y-134350000D01*
X286404581Y-134411905D01*
D10*
D11*
X285661724Y-185588095D02*
X285661724Y-184288095D01*
X285971248Y-184288095D01*
X286156962Y-184350000D01*
X286280771Y-184473810D01*
X286342676Y-184597619D01*
X286404581Y-184845238D01*
X286404581Y-185030952D01*
X286342676Y-185278571D01*
X286280771Y-185402381D01*
X286156962Y-185526190D01*
X285971248Y-185588095D01*
X285661724Y-185588095D01*
D10*
D11*
X200359343Y-193785771D02*
X200359343Y-192285771D01*
X200716486Y-192285771D01*
X200930771Y-192357200D01*
X201073629Y-192500057D01*
X201145057Y-192642914D01*
X201216486Y-192928629D01*
X201216486Y-193142914D01*
X201145057Y-193428629D01*
X201073629Y-193571486D01*
X200930771Y-193714343D01*
X200716486Y-193785771D01*
X200359343Y-193785771D01*
X202502200Y-193785771D02*
X202502200Y-193000057D01*
X202430771Y-192857200D01*
X202287914Y-192785771D01*
X202002200Y-192785771D01*
X201859343Y-192857200D01*
X202502200Y-193714343D02*
X202359343Y-193785771D01*
X202002200Y-193785771D01*
X201859343Y-193714343D01*
X201787914Y-193571486D01*
X201787914Y-193428629D01*
X201859343Y-193285771D01*
X202002200Y-193214343D01*
X202359343Y-193214343D01*
X202502200Y-193142914D01*
X203002200Y-192785771D02*
X203573629Y-192785771D01*
X203216486Y-192285771D02*
X203216486Y-193571486D01*
X203287914Y-193714343D01*
X203430772Y-193785771D01*
X203573629Y-193785771D01*
X204645057Y-193714343D02*
X204502200Y-193785771D01*
X204216486Y-193785771D01*
X204073629Y-193714343D01*
X204002200Y-193571486D01*
X204002200Y-193000057D01*
X204073629Y-192857200D01*
X204216486Y-192785771D01*
X204502200Y-192785771D01*
X204645057Y-192857200D01*
X204716486Y-193000057D01*
X204716486Y-193142914D01*
X204002200Y-193285771D01*
X205359343Y-193642914D02*
X205430771Y-193714343D01*
X205359343Y-193785771D01*
X205287914Y-193714343D01*
X205359343Y-193642914D01*
X205359343Y-193785771D01*
X205359343Y-192857200D02*
X205430771Y-192928629D01*
X205359343Y-193000057D01*
X205287914Y-192928629D01*
X205359343Y-192857200D01*
X205359343Y-193000057D01*
D10*
D11*
X177002200Y-194507200D02*
X285002200Y-194507200D01*
D10*
D11*
X178359343Y-196585771D02*
X178359343Y-195085771D01*
X179216486Y-196585771D02*
X178573629Y-195728629D01*
X179216486Y-195085771D02*
X178359343Y-195942914D01*
X179859343Y-196585771D02*
X179859343Y-195585771D01*
X179859343Y-195085771D02*
X179787914Y-195157200D01*
X179859343Y-195228629D01*
X179930771Y-195157200D01*
X179859343Y-195085771D01*
X179859343Y-195228629D01*
X181430772Y-196442914D02*
X181359343Y-196514343D01*
X181145057Y-196585771D01*
X181002200Y-196585771D01*
X180787915Y-196514343D01*
X180645057Y-196371486D01*
X180573629Y-196228629D01*
X180502200Y-195942914D01*
X180502200Y-195728629D01*
X180573629Y-195442914D01*
X180645057Y-195300057D01*
X180787915Y-195157200D01*
X181002200Y-195085771D01*
X181145057Y-195085771D01*
X181359343Y-195157200D01*
X181430772Y-195228629D01*
X182716486Y-196585771D02*
X182716486Y-195800057D01*
X182645057Y-195657200D01*
X182502200Y-195585771D01*
X182216486Y-195585771D01*
X182073629Y-195657200D01*
X182716486Y-196514343D02*
X182573629Y-196585771D01*
X182216486Y-196585771D01*
X182073629Y-196514343D01*
X182002200Y-196371486D01*
X182002200Y-196228629D01*
X182073629Y-196085771D01*
X182216486Y-196014343D01*
X182573629Y-196014343D01*
X182716486Y-195942914D01*
X184073629Y-196585771D02*
X184073629Y-195085771D01*
X184073629Y-196514343D02*
X183930772Y-196585771D01*
X183645058Y-196585771D01*
X183502200Y-196514343D01*
X183430772Y-196442914D01*
X183359343Y-196300057D01*
X183359343Y-195871486D01*
X183430772Y-195728629D01*
X183502200Y-195657200D01*
X183645058Y-195585771D01*
X183930772Y-195585771D01*
X184073629Y-195657200D01*
X185930772Y-195800057D02*
X186430772Y-195800057D01*
X186645058Y-196585771D02*
X185930772Y-196585771D01*
X185930772Y-195085771D01*
X186645058Y-195085771D01*
X187287915Y-196442914D02*
X187359343Y-196514343D01*
X187287915Y-196585771D01*
X187216486Y-196514343D01*
X187287915Y-196442914D01*
X187287915Y-196585771D01*
X188002201Y-196585771D02*
X188002201Y-195085771D01*
X188359344Y-195085771D01*
X188573629Y-195157200D01*
X188716487Y-195300057D01*
X188787915Y-195442914D01*
X188859344Y-195728629D01*
X188859344Y-195942914D01*
X188787915Y-196228629D01*
X188716487Y-196371486D01*
X188573629Y-196514343D01*
X188359344Y-196585771D01*
X188002201Y-196585771D01*
X189502201Y-196442914D02*
X189573629Y-196514343D01*
X189502201Y-196585771D01*
X189430772Y-196514343D01*
X189502201Y-196442914D01*
X189502201Y-196585771D01*
X190145058Y-196157200D02*
X190859344Y-196157200D01*
X190002201Y-196585771D02*
X190502201Y-195085771D01*
X191002201Y-196585771D01*
X191502201Y-196442914D02*
X191573629Y-196514343D01*
X191502201Y-196585771D01*
X191430772Y-196514343D01*
X191502201Y-196442914D01*
X191502201Y-196585771D01*
X194502201Y-196585771D02*
X194502201Y-195085771D01*
X194645058Y-196014343D02*
X195073629Y-196585771D01*
X195073629Y-195585771D02*
X194502201Y-196157200D01*
X195716487Y-196585771D02*
X195716487Y-195585771D01*
X195716487Y-195085771D02*
X195645058Y-195157200D01*
X195716487Y-195228629D01*
X195787915Y-195157200D01*
X195716487Y-195085771D01*
X195716487Y-195228629D01*
X197073630Y-196514343D02*
X196930773Y-196585771D01*
X196645059Y-196585771D01*
X196502201Y-196514343D01*
X196430773Y-196442914D01*
X196359344Y-196300057D01*
X196359344Y-195871486D01*
X196430773Y-195728629D01*
X196502201Y-195657200D01*
X196645059Y-195585771D01*
X196930773Y-195585771D01*
X197073630Y-195657200D01*
X198359344Y-196585771D02*
X198359344Y-195800057D01*
X198287915Y-195657200D01*
X198145058Y-195585771D01*
X197859344Y-195585771D01*
X197716487Y-195657200D01*
X198359344Y-196514343D02*
X198216487Y-196585771D01*
X197859344Y-196585771D01*
X197716487Y-196514343D01*
X197645058Y-196371486D01*
X197645058Y-196228629D01*
X197716487Y-196085771D01*
X197859344Y-196014343D01*
X198216487Y-196014343D01*
X198359344Y-195942914D01*
X199716487Y-196585771D02*
X199716487Y-195085771D01*
X199716487Y-196514343D02*
X199573630Y-196585771D01*
X199287916Y-196585771D01*
X199145058Y-196514343D01*
X199073630Y-196442914D01*
X199002201Y-196300057D01*
X199002201Y-195871486D01*
X199073630Y-195728629D01*
X199145058Y-195657200D01*
X199287916Y-195585771D01*
X199573630Y-195585771D01*
X199716487Y-195657200D01*
X202216487Y-195585771D02*
X202216487Y-196585771D01*
X201859344Y-195014343D02*
X201502201Y-196085771D01*
X202430773Y-196085771D01*
X203002201Y-196442914D02*
X203073629Y-196514343D01*
X203002201Y-196585771D01*
X202930772Y-196514343D01*
X203002201Y-196442914D01*
X203002201Y-196585771D01*
X204002201Y-195085771D02*
X204145058Y-195085771D01*
X204287915Y-195157200D01*
X204359344Y-195228629D01*
X204430773Y-195371486D01*
X204502201Y-195657200D01*
X204502201Y-196014343D01*
X204430773Y-196300057D01*
X204359344Y-196442914D01*
X204287915Y-196514343D01*
X204145058Y-196585771D01*
X204002201Y-196585771D01*
X203859344Y-196514343D01*
X203787915Y-196442914D01*
X203716487Y-196300057D01*
X203645058Y-196014343D01*
X203645058Y-195657200D01*
X203716487Y-195371486D01*
X203787915Y-195228629D01*
X203859344Y-195157200D01*
X204002201Y-195085771D01*
X205145058Y-196442914D02*
X205216486Y-196514343D01*
X205145058Y-196585771D01*
X205073629Y-196514343D01*
X205145058Y-196442914D01*
X205145058Y-196585771D01*
X206502201Y-195585771D02*
X206502201Y-196585771D01*
X206145058Y-195014343D02*
X205787915Y-196085771D01*
X206716487Y-196085771D01*
X207287915Y-196014343D02*
X208430772Y-196014343D01*
X209073629Y-196514343D02*
X209216486Y-196585771D01*
X209502201Y-196585771D01*
X209645058Y-196514343D01*
X209716486Y-196371486D01*
X209716486Y-196300057D01*
X209645058Y-196157200D01*
X209502201Y-196085771D01*
X209287915Y-196085771D01*
X209145058Y-196014343D01*
X209073629Y-195871486D01*
X209073629Y-195800057D01*
X209145058Y-195657200D01*
X209287915Y-195585771D01*
X209502201Y-195585771D01*
X209645058Y-195657200D01*
X210145058Y-195585771D02*
X210716487Y-195585771D01*
X210359344Y-195085771D02*
X210359344Y-196371486D01*
X210430772Y-196514343D01*
X210573630Y-196585771D01*
X210716487Y-196585771D01*
X211859344Y-196585771D02*
X211859344Y-195800057D01*
X211787915Y-195657200D01*
X211645058Y-195585771D01*
X211359344Y-195585771D01*
X211216487Y-195657200D01*
X211859344Y-196514343D02*
X211716487Y-196585771D01*
X211359344Y-196585771D01*
X211216487Y-196514343D01*
X211145058Y-196371486D01*
X211145058Y-196228629D01*
X211216487Y-196085771D01*
X211359344Y-196014343D01*
X211716487Y-196014343D01*
X211859344Y-195942914D01*
X212573630Y-196585771D02*
X212573630Y-195085771D01*
X212573630Y-195657200D02*
X212716487Y-195585771D01*
X213002201Y-195585771D01*
X213145058Y-195657200D01*
X213216487Y-195728629D01*
X213287916Y-195871486D01*
X213287916Y-196300057D01*
X213216487Y-196442914D01*
X213145058Y-196514343D01*
X213002201Y-196585771D01*
X212716487Y-196585771D01*
X212573630Y-196514343D01*
X214145059Y-196585771D02*
X214002201Y-196514343D01*
X213930773Y-196371486D01*
X213930773Y-195085771D01*
X215287915Y-196514343D02*
X215145058Y-196585771D01*
X214859344Y-196585771D01*
X214716487Y-196514343D01*
X214645058Y-196371486D01*
X214645058Y-195800057D01*
X214716487Y-195657200D01*
X214859344Y-195585771D01*
X215145058Y-195585771D01*
X215287915Y-195657200D01*
X215359344Y-195800057D01*
X215359344Y-195942914D01*
X214645058Y-196085771D01*
D10*
D11*
X177002200Y-191507200D02*
X285002200Y-191507200D01*
D10*
D12*
X264216486Y-193785771D02*
X263716486Y-193071486D01*
X263359343Y-193785771D02*
X263359343Y-192285771D01*
X263930771Y-192285771D01*
X264073629Y-192357200D01*
X264145057Y-192428629D01*
X264216486Y-192571486D01*
X264216486Y-192785771D01*
X264145057Y-192928629D01*
X264073629Y-193000057D01*
X263930771Y-193071486D01*
X263359343Y-193071486D01*
X265430771Y-193714343D02*
X265287914Y-193785771D01*
X265002200Y-193785771D01*
X264859343Y-193714343D01*
X264787914Y-193571486D01*
X264787914Y-193000057D01*
X264859343Y-192857200D01*
X265002200Y-192785771D01*
X265287914Y-192785771D01*
X265430771Y-192857200D01*
X265502200Y-193000057D01*
X265502200Y-193142914D01*
X264787914Y-193285771D01*
X266002200Y-192785771D02*
X266359343Y-193785771D01*
X266716485Y-192785771D01*
X267287914Y-193642914D02*
X267359342Y-193714343D01*
X267287914Y-193785771D01*
X267216485Y-193714343D01*
X267287914Y-193642914D01*
X267287914Y-193785771D01*
X267287914Y-192857200D02*
X267359342Y-192928629D01*
X267287914Y-193000057D01*
X267216485Y-192928629D01*
X267287914Y-192857200D01*
X267287914Y-193000057D01*
D10*
D11*
X178287914Y-193714343D02*
X178502200Y-193785771D01*
X178859343Y-193785771D01*
X179002200Y-193714343D01*
X179073629Y-193642914D01*
X179145057Y-193500057D01*
X179145057Y-193357200D01*
X179073629Y-193214343D01*
X179002200Y-193142914D01*
X178859343Y-193071486D01*
X178573629Y-193000057D01*
X178430771Y-192928629D01*
X178359343Y-192857200D01*
X178287914Y-192714343D01*
X178287914Y-192571486D01*
X178359343Y-192428629D01*
X178430771Y-192357200D01*
X178573629Y-192285771D01*
X178930771Y-192285771D01*
X179145057Y-192357200D01*
X179787914Y-193785771D02*
X179787914Y-192785771D01*
X179787914Y-192285771D02*
X179716485Y-192357200D01*
X179787914Y-192428629D01*
X179859342Y-192357200D01*
X179787914Y-192285771D01*
X179787914Y-192428629D01*
X180359343Y-192785771D02*
X181145057Y-192785771D01*
X180359343Y-193785771D01*
X181145057Y-193785771D01*
X182287914Y-193714343D02*
X182145057Y-193785771D01*
X181859343Y-193785771D01*
X181716486Y-193714343D01*
X181645057Y-193571486D01*
X181645057Y-193000057D01*
X181716486Y-192857200D01*
X181859343Y-192785771D01*
X182145057Y-192785771D01*
X182287914Y-192857200D01*
X182359343Y-193000057D01*
X182359343Y-193142914D01*
X181645057Y-193285771D01*
X183002200Y-193642914D02*
X183073628Y-193714343D01*
X183002200Y-193785771D01*
X182930771Y-193714343D01*
X183002200Y-193642914D01*
X183002200Y-193785771D01*
X183002200Y-192857200D02*
X183073628Y-192928629D01*
X183002200Y-193000057D01*
X182930771Y-192928629D01*
X183002200Y-192857200D01*
X183002200Y-193000057D01*
X184787914Y-193357200D02*
X185502200Y-193357200D01*
X184645057Y-193785771D02*
X185145057Y-192285771D01*
X185645057Y-193785771D01*
X186787914Y-192785771D02*
X186787914Y-193785771D01*
X186430771Y-192214343D02*
X186073628Y-193285771D01*
X187002200Y-193285771D01*
D10*
D11*
X263359343Y-196585771D02*
X263359343Y-195085771D01*
X264716486Y-196585771D02*
X264716486Y-195085771D01*
X264716486Y-196514343D02*
X264573629Y-196585771D01*
X264287915Y-196585771D01*
X264145057Y-196514343D01*
X264073629Y-196442914D01*
X264002200Y-196300057D01*
X264002200Y-195871486D01*
X264073629Y-195728629D01*
X264145057Y-195657200D01*
X264287915Y-195585771D01*
X264573629Y-195585771D01*
X264716486Y-195657200D01*
X265430772Y-196442914D02*
X265502200Y-196514343D01*
X265430772Y-196585771D01*
X265359343Y-196514343D01*
X265430772Y-196442914D01*
X265430772Y-196585771D01*
X265430772Y-195657200D02*
X265502200Y-195728629D01*
X265430772Y-195800057D01*
X265359343Y-195728629D01*
X265430772Y-195657200D01*
X265430772Y-195800057D01*
X268073629Y-196585771D02*
X267216486Y-196585771D01*
X267645058Y-196585771D02*
X267645058Y-195085771D01*
X267502201Y-195300057D01*
X267359343Y-195442914D01*
X267216486Y-195514343D01*
X269787914Y-195014343D02*
X268502200Y-196942914D01*
X271073629Y-196585771D02*
X270216486Y-196585771D01*
X270645058Y-196585771D02*
X270645058Y-195085771D01*
X270502201Y-195300057D01*
X270359343Y-195442914D01*
X270216486Y-195514343D01*
D10*
D11*
X177002200Y-187507200D02*
X285002200Y-187507200D01*
D10*
D13*
X178454581Y-188211962D02*
X179597438Y-188211962D01*
X178776010Y-190211962D02*
X179026010Y-188211962D01*
X180014105Y-190211962D02*
X180180771Y-188878629D01*
X180264105Y-188211962D02*
X180156962Y-188307200D01*
X180240295Y-188402438D01*
X180347439Y-188307200D01*
X180264105Y-188211962D01*
X180240295Y-188402438D01*
X180847438Y-188878629D02*
X181609343Y-188878629D01*
X181216486Y-188211962D02*
X181002200Y-189926248D01*
X181073630Y-190116724D01*
X181252201Y-190211962D01*
X181442677Y-190211962D01*
X182395058Y-190211962D02*
X182216487Y-190116724D01*
X182145057Y-189926248D01*
X182359343Y-188211962D01*
X183930772Y-190116724D02*
X183728391Y-190211962D01*
X183347439Y-190211962D01*
X183168867Y-190116724D01*
X183097438Y-189926248D01*
X183192676Y-189164343D01*
X183311724Y-188973867D01*
X183514105Y-188878629D01*
X183895057Y-188878629D01*
X184073629Y-188973867D01*
X184145057Y-189164343D01*
X184121248Y-189354819D01*
X183145057Y-189545295D01*
X184895057Y-190021486D02*
X184978392Y-190116724D01*
X184871248Y-190211962D01*
X184787915Y-190116724D01*
X184895057Y-190021486D01*
X184871248Y-190211962D01*
X185026010Y-188973867D02*
X185109344Y-189069105D01*
X185002200Y-189164343D01*
X184918867Y-189069105D01*
X185026010Y-188973867D01*
X185002200Y-189164343D01*
D10*
D11*
X178859343Y-185600057D02*
X178359343Y-185600057D01*
X178359343Y-186385771D02*
X178359343Y-184885771D01*
X179073629Y-184885771D01*
X179645057Y-186385771D02*
X179645057Y-185385771D01*
X179645057Y-184885771D02*
X179573628Y-184957200D01*
X179645057Y-185028629D01*
X179716485Y-184957200D01*
X179645057Y-184885771D01*
X179645057Y-185028629D01*
X180573629Y-186385771D02*
X180430771Y-186314343D01*
X180359343Y-186171486D01*
X180359343Y-184885771D01*
X181716485Y-186314343D02*
X181573628Y-186385771D01*
X181287914Y-186385771D01*
X181145057Y-186314343D01*
X181073628Y-186171486D01*
X181073628Y-185600057D01*
X181145057Y-185457200D01*
X181287914Y-185385771D01*
X181573628Y-185385771D01*
X181716485Y-185457200D01*
X181787914Y-185600057D01*
X181787914Y-185742914D01*
X181073628Y-185885771D01*
X182430771Y-186242914D02*
X182502199Y-186314343D01*
X182430771Y-186385771D01*
X182359342Y-186314343D01*
X182430771Y-186242914D01*
X182430771Y-186385771D01*
X182430771Y-185457200D02*
X182502199Y-185528629D01*
X182430771Y-185600057D01*
X182359342Y-185528629D01*
X182430771Y-185457200D01*
X182430771Y-185600057D01*
X184787914Y-185600057D02*
X185002200Y-185671486D01*
X185073628Y-185742914D01*
X185145057Y-185885771D01*
X185145057Y-186100057D01*
X185073628Y-186242914D01*
X185002200Y-186314343D01*
X184859342Y-186385771D01*
X184287914Y-186385771D01*
X184287914Y-184885771D01*
X184787914Y-184885771D01*
X184930771Y-184957200D01*
X185002200Y-185028629D01*
X185073628Y-185171486D01*
X185073628Y-185314343D01*
X185002200Y-185457200D01*
X184930771Y-185528629D01*
X184787914Y-185600057D01*
X184287914Y-185600057D01*
X186430771Y-186385771D02*
X186430771Y-185600057D01*
X186359342Y-185457200D01*
X186216485Y-185385771D01*
X185930771Y-185385771D01*
X185787914Y-185457200D01*
X186430771Y-186314343D02*
X186287914Y-186385771D01*
X185930771Y-186385771D01*
X185787914Y-186314343D01*
X185716485Y-186171486D01*
X185716485Y-186028629D01*
X185787914Y-185885771D01*
X185930771Y-185814343D01*
X186287914Y-185814343D01*
X186430771Y-185742914D01*
X186930771Y-185385771D02*
X187502200Y-185385771D01*
X187145057Y-184885771D02*
X187145057Y-186171486D01*
X187216485Y-186314343D01*
X187359343Y-186385771D01*
X187502200Y-186385771D01*
X187787914Y-185385771D02*
X188359343Y-185385771D01*
X188002200Y-184885771D02*
X188002200Y-186171486D01*
X188073628Y-186314343D01*
X188216486Y-186385771D01*
X188359343Y-186385771D01*
X189430771Y-186314343D02*
X189287914Y-186385771D01*
X189002200Y-186385771D01*
X188859343Y-186314343D01*
X188787914Y-186171486D01*
X188787914Y-185600057D01*
X188859343Y-185457200D01*
X189002200Y-185385771D01*
X189287914Y-185385771D01*
X189430771Y-185457200D01*
X189502200Y-185600057D01*
X189502200Y-185742914D01*
X188787914Y-185885771D01*
X190145057Y-186385771D02*
X190145057Y-185385771D01*
X190145057Y-185671486D02*
X190216485Y-185528629D01*
X190287914Y-185457200D01*
X190430771Y-185385771D01*
X190573628Y-185385771D01*
X190930771Y-185385771D02*
X191287914Y-186385771D01*
X191645056Y-185385771D02*
X191287914Y-186385771D01*
X191145056Y-186742914D01*
X191073628Y-186814343D01*
X190930771Y-186885771D01*
X192716485Y-185600057D02*
X192930771Y-185671486D01*
X193002199Y-185742914D01*
X193073628Y-185885771D01*
X193073628Y-186100057D01*
X193002199Y-186242914D01*
X192930771Y-186314343D01*
X192787913Y-186385771D01*
X192216485Y-186385771D01*
X192216485Y-184885771D01*
X192716485Y-184885771D01*
X192859342Y-184957200D01*
X192930771Y-185028629D01*
X193002199Y-185171486D01*
X193002199Y-185314343D01*
X192930771Y-185457200D01*
X192859342Y-185528629D01*
X192716485Y-185600057D01*
X192216485Y-185600057D01*
X193930771Y-186385771D02*
X193787913Y-186314343D01*
X193716485Y-186242914D01*
X193645056Y-186100057D01*
X193645056Y-185671486D01*
X193716485Y-185528629D01*
X193787913Y-185457200D01*
X193930771Y-185385771D01*
X194145056Y-185385771D01*
X194287913Y-185457200D01*
X194359342Y-185528629D01*
X194430771Y-185671486D01*
X194430771Y-186100057D01*
X194359342Y-186242914D01*
X194287913Y-186314343D01*
X194145056Y-186385771D01*
X193930771Y-186385771D01*
X195716485Y-186385771D02*
X195716485Y-185600057D01*
X195645056Y-185457200D01*
X195502199Y-185385771D01*
X195216485Y-185385771D01*
X195073628Y-185457200D01*
X195716485Y-186314343D02*
X195573628Y-186385771D01*
X195216485Y-186385771D01*
X195073628Y-186314343D01*
X195002199Y-186171486D01*
X195002199Y-186028629D01*
X195073628Y-185885771D01*
X195216485Y-185814343D01*
X195573628Y-185814343D01*
X195716485Y-185742914D01*
X196430771Y-186385771D02*
X196430771Y-185385771D01*
X196430771Y-185671486D02*
X196502199Y-185528629D01*
X196573628Y-185457200D01*
X196716485Y-185385771D01*
X196859342Y-185385771D01*
X198002199Y-186385771D02*
X198002199Y-184885771D01*
X198002199Y-186314343D02*
X197859342Y-186385771D01*
X197573628Y-186385771D01*
X197430770Y-186314343D01*
X197359342Y-186242914D01*
X197287913Y-186100057D01*
X197287913Y-185671486D01*
X197359342Y-185528629D01*
X197430770Y-185457200D01*
X197573628Y-185385771D01*
X197859342Y-185385771D01*
X198002199Y-185457200D01*
X198716485Y-186242914D02*
X198787913Y-186314343D01*
X198716485Y-186385771D01*
X198645056Y-186314343D01*
X198716485Y-186242914D01*
X198716485Y-186385771D01*
X199430771Y-186385771D02*
X199430771Y-184885771D01*
X199573628Y-185814343D02*
X200002199Y-186385771D01*
X200002199Y-185385771D02*
X199430771Y-185957200D01*
X200645057Y-186385771D02*
X200645057Y-185385771D01*
X200645057Y-184885771D02*
X200573628Y-184957200D01*
X200645057Y-185028629D01*
X200716485Y-184957200D01*
X200645057Y-184885771D01*
X200645057Y-185028629D01*
X202002200Y-186314343D02*
X201859343Y-186385771D01*
X201573629Y-186385771D01*
X201430771Y-186314343D01*
X201359343Y-186242914D01*
X201287914Y-186100057D01*
X201287914Y-185671486D01*
X201359343Y-185528629D01*
X201430771Y-185457200D01*
X201573629Y-185385771D01*
X201859343Y-185385771D01*
X202002200Y-185457200D01*
X203287914Y-186385771D02*
X203287914Y-185600057D01*
X203216485Y-185457200D01*
X203073628Y-185385771D01*
X202787914Y-185385771D01*
X202645057Y-185457200D01*
X203287914Y-186314343D02*
X203145057Y-186385771D01*
X202787914Y-186385771D01*
X202645057Y-186314343D01*
X202573628Y-186171486D01*
X202573628Y-186028629D01*
X202645057Y-185885771D01*
X202787914Y-185814343D01*
X203145057Y-185814343D01*
X203287914Y-185742914D01*
X204645057Y-186385771D02*
X204645057Y-184885771D01*
X204645057Y-186314343D02*
X204502200Y-186385771D01*
X204216486Y-186385771D01*
X204073628Y-186314343D01*
X204002200Y-186242914D01*
X203930771Y-186100057D01*
X203930771Y-185671486D01*
X204002200Y-185528629D01*
X204073628Y-185457200D01*
X204216486Y-185385771D01*
X204502200Y-185385771D01*
X204645057Y-185457200D01*
X205002200Y-186528629D02*
X206145057Y-186528629D01*
X206502200Y-185385771D02*
X206502200Y-186885771D01*
X206502200Y-185457200D02*
X206645057Y-185385771D01*
X206930771Y-185385771D01*
X207073628Y-185457200D01*
X207145057Y-185528629D01*
X207216486Y-185671486D01*
X207216486Y-186100057D01*
X207145057Y-186242914D01*
X207073628Y-186314343D01*
X206930771Y-186385771D01*
X206645057Y-186385771D01*
X206502200Y-186314343D01*
X208502200Y-186314343D02*
X208359343Y-186385771D01*
X208073629Y-186385771D01*
X207930771Y-186314343D01*
X207859343Y-186242914D01*
X207787914Y-186100057D01*
X207787914Y-185671486D01*
X207859343Y-185528629D01*
X207930771Y-185457200D01*
X208073629Y-185385771D01*
X208359343Y-185385771D01*
X208502200Y-185457200D01*
X209145057Y-186385771D02*
X209145057Y-184885771D01*
X209145057Y-185457200D02*
X209287914Y-185385771D01*
X209573628Y-185385771D01*
X209716485Y-185457200D01*
X209787914Y-185528629D01*
X209859343Y-185671486D01*
X209859343Y-186100057D01*
X209787914Y-186242914D01*
X209716485Y-186314343D01*
X209573628Y-186385771D01*
X209287914Y-186385771D01*
X209145057Y-186314343D01*
D10*
D11*
X177002200Y-181507200D02*
X285002200Y-181507200D01*
D10*
D11*
X178287914Y-183614343D02*
X178502200Y-183685771D01*
X178859343Y-183685771D01*
X179002200Y-183614343D01*
X179073629Y-183542914D01*
X179145057Y-183400057D01*
X179145057Y-183257200D01*
X179073629Y-183114343D01*
X179002200Y-183042914D01*
X178859343Y-182971486D01*
X178573629Y-182900057D01*
X178430771Y-182828629D01*
X178359343Y-182757200D01*
X178287914Y-182614343D01*
X178287914Y-182471486D01*
X178359343Y-182328629D01*
X178430771Y-182257200D01*
X178573629Y-182185771D01*
X178930771Y-182185771D01*
X179145057Y-182257200D01*
X179787914Y-183685771D02*
X179787914Y-182185771D01*
X180430771Y-183685771D02*
X180430771Y-182900057D01*
X180359342Y-182757200D01*
X180216485Y-182685771D01*
X180002200Y-182685771D01*
X179859342Y-182757200D01*
X179787914Y-182828629D01*
X181716485Y-183614343D02*
X181573628Y-183685771D01*
X181287914Y-183685771D01*
X181145057Y-183614343D01*
X181073628Y-183471486D01*
X181073628Y-182900057D01*
X181145057Y-182757200D01*
X181287914Y-182685771D01*
X181573628Y-182685771D01*
X181716485Y-182757200D01*
X181787914Y-182900057D01*
X181787914Y-183042914D01*
X181073628Y-183185771D01*
X183002199Y-183614343D02*
X182859342Y-183685771D01*
X182573628Y-183685771D01*
X182430771Y-183614343D01*
X182359342Y-183471486D01*
X182359342Y-182900057D01*
X182430771Y-182757200D01*
X182573628Y-182685771D01*
X182859342Y-182685771D01*
X183002199Y-182757200D01*
X183073628Y-182900057D01*
X183073628Y-183042914D01*
X182359342Y-183185771D01*
X183502199Y-182685771D02*
X184073628Y-182685771D01*
X183716485Y-182185771D02*
X183716485Y-183471486D01*
X183787913Y-183614343D01*
X183930771Y-183685771D01*
X184073628Y-183685771D01*
X184573628Y-183542914D02*
X184645056Y-183614343D01*
X184573628Y-183685771D01*
X184502199Y-183614343D01*
X184573628Y-183542914D01*
X184573628Y-183685771D01*
X184573628Y-182757200D02*
X184645056Y-182828629D01*
X184573628Y-182900057D01*
X184502199Y-182828629D01*
X184573628Y-182757200D01*
X184573628Y-182900057D01*
D10*
D11*
X197002200Y-191507200D02*
X197002200Y-194507200D01*
D10*
D11*
X261002200Y-191507200D02*
X261002200Y-198007200D01*
X0Y-50800000D02*
X148971000Y-50800000D01*
X0Y0D02*
X0Y-50800000D01*
X148971000Y0D02*
X148971000Y-50800000D01*
X0Y0D02*
X148971000Y0D01*
D14*
X83250000Y-8000000D03*
X79750000Y-8000000D03*
X76250000Y-8000000D03*
X72750000Y-8000000D03*
X69250000Y-8000000D03*
X65750000Y-8000000D03*
D15*
X35760000Y-34250000D03*
X33790000Y-34250000D03*
X33790000Y-36196000D03*
X35760000Y-36196000D03*
X35760000Y-32304000D03*
X33790000Y-32304000D03*
X44910000Y-34250000D03*
X42940000Y-34250000D03*
X42940000Y-36196000D03*
X44910000Y-36196000D03*
X44910000Y-32304000D03*
X42940000Y-32304000D03*
D14*
X63250000Y-19150000D03*
X85750000Y-19150000D03*
D16*
X40600000Y-10000000D03*
X35600000Y-10000000D03*
X113400000Y-10000000D03*
X108400000Y-10000000D03*
D17*
X105760000Y-22935000D03*
X106760000Y-22935000D03*
X106760000Y-23935000D03*
X105760000Y-23935000D03*
X107760000Y-23935000D03*
X108760000Y-23935000D03*
X108760000Y-22935000D03*
X107760000Y-22935000D03*
X111760000Y-22935000D03*
X112760000Y-22935000D03*
X112760000Y-23935000D03*
X111760000Y-23935000D03*
X109760000Y-23935000D03*
X110760000Y-23935000D03*
X110760000Y-22935000D03*
X109760000Y-22935000D03*
X113760000Y-22935000D03*
X113760000Y-23935000D03*
X114760000Y-23935000D03*
X115760000Y-23935000D03*
X115760000Y-22935000D03*
X114760000Y-22935000D03*
X114760000Y-24935000D03*
X115760000Y-24935000D03*
X115760000Y-25935000D03*
X114760000Y-25935000D03*
X113760000Y-25935000D03*
X113760000Y-24935000D03*
X109760000Y-24935000D03*
X110760000Y-24935000D03*
X110760000Y-25935000D03*
X109760000Y-25935000D03*
X111760000Y-25935000D03*
X112760000Y-25935000D03*
X112760000Y-24935000D03*
X111760000Y-24935000D03*
X107760000Y-24935000D03*
X108760000Y-24935000D03*
X108760000Y-25935000D03*
X107760000Y-25935000D03*
X105760000Y-25935000D03*
X106760000Y-25935000D03*
X106760000Y-24935000D03*
X105760000Y-24935000D03*
X105760000Y-27705000D03*
X105760000Y-26925000D03*
X106760000Y-26925000D03*
X106760000Y-27705000D03*
X107760000Y-27705000D03*
X108760000Y-27705000D03*
X108760000Y-26925000D03*
X109760000Y-27705000D03*
X110760000Y-26925000D03*
X107760000Y-26925000D03*
X110760000Y-27705000D03*
X109760000Y-26925000D03*
X109760000Y-28705000D03*
X110760000Y-28705000D03*
X110760000Y-29705000D03*
X109760000Y-29705000D03*
X111760000Y-29705000D03*
X108760000Y-28705000D03*
X111760000Y-28705000D03*
X108760000Y-29705000D03*
X114760000Y-27705000D03*
X115760000Y-27705000D03*
X115760000Y-26925000D03*
X114760000Y-28705000D03*
X114760000Y-26925000D03*
X115760000Y-28705000D03*
X107760000Y-29705000D03*
X105760000Y-29705000D03*
X106760000Y-29705000D03*
X106760000Y-28705000D03*
X107760000Y-28705000D03*
X105760000Y-28705000D03*
X112760000Y-29705000D03*
X113760000Y-28705000D03*
X115760000Y-29705000D03*
X114760000Y-29705000D03*
X113760000Y-29705000D03*
X112760000Y-28705000D03*
X112760000Y-26925000D03*
X111760000Y-27705000D03*
X113760000Y-26925000D03*
X113760000Y-27705000D03*
X112760000Y-27705000D03*
X111760000Y-26925000D03*
D18*
X85100000Y-34650000D03*
X85100000Y-36700000D03*
X70150000Y-34700000D03*
X70150000Y-36750000D03*
D19*
X61750000Y-33700000D03*
X128150000Y-48200000D03*
D18*
X127050000Y-37950000D03*
X125250000Y-37950000D03*
D19*
X21600000Y-49650000D03*
D18*
X124050000Y-31950000D03*
X121200000Y-33900000D03*
X118700000Y-20700000D03*
X118700000Y-22950000D03*
D19*
X34150000Y-39200000D03*
X22150000Y-36700000D03*
D18*
X122300000Y-41450000D03*
X129700000Y-41200000D03*
X122700000Y-1700000D03*
X92200000Y-24700000D03*
X92600000Y-26700000D03*
X98850000Y-33450000D03*
X92200000Y-31700000D03*
X86700000Y-31650000D03*
X126100000Y-29500000D03*
X126100000Y-27200000D03*
X29000000Y-41400000D03*
X23900000Y-44100000D03*
X75650000Y-30500000D03*
X76150000Y-37200000D03*
X44700000Y-45200000D03*
X41900000Y-45200000D03*
D19*
X21600000Y-45650000D03*
D18*
X29400000Y-43250000D03*
X29000000Y-39550000D03*
X29200000Y-46300000D03*
X34650000Y-46500000D03*
X43300000Y-46700000D03*
X100550000Y-10600000D03*
X92350000Y-10600000D03*
X122650000Y-46000000D03*
X122450000Y-36850000D03*
X126150000Y-34700000D03*
X86700000Y-29100000D03*
X90800000Y-38000000D03*
X80800000Y-34400000D03*
D20*
X85100000Y-36700000D02*
X85100000Y-34650000D01*
X70150000Y-36750000D02*
X70150000Y-34700000D01*
D21*
X21600000Y-49650000D02*
X55600000Y-49650000D01*
X55600000Y-49650000D02*
X126700000Y-49650000D01*
X61750000Y-33700000D02*
X61750000Y-43500000D01*
X61750000Y-43500000D02*
X55600000Y-49650000D01*
D20*
X125250000Y-37950000D02*
X127050000Y-37950000D01*
D21*
X126700000Y-49650000D02*
X128150000Y-48200000D01*
D20*
X122725736Y-31950000D02*
X124050000Y-31950000D01*
X121200000Y-33900000D02*
X121200000Y-33475736D01*
X121200000Y-33475736D02*
X122725736Y-31950000D01*
X118700000Y-22950000D02*
X118700000Y-20700000D01*
D21*
X30050000Y-36700000D02*
X32550000Y-39200000D01*
X32550000Y-39200000D02*
X34150000Y-39200000D01*
X22857106Y-36700000D02*
X30050000Y-36700000D01*
X22150000Y-36700000D02*
X22857106Y-36700000D01*
D20*
X129700000Y-41200000D02*
X122550000Y-41200000D01*
X122550000Y-41200000D02*
X122300000Y-41450000D01*
X83550000Y-700000D02*
X121700000Y-700000D01*
X121700000Y-700000D02*
X122700000Y-1700000D01*
X76250000Y-8000000D02*
X83550000Y-700000D01*
X92600000Y-26700000D02*
X92600000Y-25100000D01*
X92600000Y-25100000D02*
X92200000Y-24700000D01*
X92200000Y-31700000D02*
X97100000Y-31700000D01*
X97100000Y-31700000D02*
X98850000Y-33450000D01*
X86700000Y-31650000D02*
X92150000Y-31650000D01*
X92150000Y-31650000D02*
X92200000Y-31700000D01*
X126100000Y-27200000D02*
X126100000Y-29500000D01*
X23900000Y-44100000D02*
X26600000Y-41400000D01*
X26600000Y-41400000D02*
X29000000Y-41400000D01*
X76150000Y-36775736D02*
X76150000Y-31000000D01*
X76150000Y-31000000D02*
X75650000Y-30500000D01*
X76150000Y-37200000D02*
X76150000Y-36775736D01*
D22*
X42800000Y-13900000D02*
X48050000Y-19150000D01*
X48050000Y-19150000D02*
X63250000Y-19150000D01*
X42650000Y-13900000D02*
X42800000Y-13900000D01*
D23*
X40600000Y-11850000D02*
X42650000Y-13900000D01*
X40600000Y-10000000D02*
X40600000Y-11850000D01*
X114700000Y-11300000D02*
X114700000Y-19300000D01*
X113400000Y-10000000D02*
X114700000Y-11300000D01*
X113400000Y-10000000D02*
X113400000Y-12600000D01*
X113400000Y-12600000D02*
X109200000Y-16800000D01*
D22*
X88100000Y-16800000D02*
X109200000Y-16800000D01*
X85750000Y-19150000D02*
X88100000Y-16800000D01*
D24*
G36*
X76429472Y-5873156D02*
X75828770Y-5872632D01*
X75046726Y-6195766D01*
X74499570Y-6741967D01*
X73956422Y-6197869D01*
X73174943Y-5873370D01*
X72328770Y-5872632D01*
X71546726Y-6195766D01*
X70999570Y-6741967D01*
X70456422Y-6197869D01*
X69674943Y-5873370D01*
X68828770Y-5872632D01*
X68046726Y-6195766D01*
X67447869Y-6793578D01*
X67239579Y-7295195D01*
X67169387Y-7125736D01*
X66902532Y-7027073D01*
X65929605Y-8000000D01*
X66902532Y-8972927D01*
X67169387Y-8874264D01*
X67235875Y-8695299D01*
X67445766Y-9203274D01*
X68043578Y-9802131D01*
X68825057Y-10126630D01*
X69671230Y-10127368D01*
X70453274Y-9804234D01*
X71000430Y-9258033D01*
X71543578Y-9802131D01*
X72325057Y-10126630D01*
X73171230Y-10127368D01*
X73953274Y-9804234D01*
X74500430Y-9258033D01*
X75043578Y-9802131D01*
X75825057Y-10126630D01*
X76671230Y-10127368D01*
X77453274Y-9804234D01*
X78000430Y-9258033D01*
X78543578Y-9802131D01*
X79325057Y-10126630D01*
X80171230Y-10127368D01*
X80953274Y-9804234D01*
X81500430Y-9258033D01*
X82043578Y-9802131D01*
X82825057Y-10126630D01*
X83671230Y-10127368D01*
X84453274Y-9804234D01*
X85052131Y-9206422D01*
X85376630Y-8424943D01*
X85377368Y-7578770D01*
X85054234Y-6796726D01*
X84456422Y-6197869D01*
X83674943Y-5873370D01*
X82828770Y-5872632D01*
X82046726Y-6195766D01*
X81499570Y-6741967D01*
X80956422Y-6197869D01*
X80280267Y-5917105D01*
X84120372Y-2077000D01*
X121129628Y-2077000D01*
X121440000Y-2387372D01*
X121489543Y-2507275D01*
X121890614Y-2909047D01*
X122414907Y-3126752D01*
X122982603Y-3127248D01*
X123507275Y-2910457D01*
X123909047Y-2509386D01*
X124126752Y-1985093D01*
X124127248Y-1417397D01*
X124038247Y-1202000D01*
X147769000Y-1202000D01*
X147769000Y-49598000D01*
X129052925Y-49598000D01*
X129299459Y-49351466D01*
X129528499Y-49122825D01*
X129776717Y-48525050D01*
X129777282Y-47877789D01*
X129530108Y-47279582D01*
X129072825Y-46821501D01*
X128475050Y-46573283D01*
X128150001Y-46572999D01*
X128149999Y-46572999D01*
X127827789Y-46572718D01*
X127229582Y-46819892D01*
X126771501Y-47277175D01*
X126771218Y-47277857D01*
X126026074Y-48023000D01*
X59527926Y-48023000D01*
X62900460Y-44650465D01*
X62900463Y-44650463D01*
X63253152Y-44122626D01*
X63377000Y-43500000D01*
X63377000Y-41732603D01*
X120872752Y-41732603D01*
X121089543Y-42257275D01*
X121490614Y-42659047D01*
X122014907Y-42876752D01*
X122582603Y-42877248D01*
X123107275Y-42660457D01*
X123190878Y-42577000D01*
X129295091Y-42577000D01*
X129414907Y-42626752D01*
X129982603Y-42627248D01*
X130507275Y-42410457D01*
X130909047Y-42009386D01*
X131126752Y-41485093D01*
X131127248Y-40917397D01*
X130910457Y-40392725D01*
X130509386Y-39990953D01*
X129985093Y-39773248D01*
X129417397Y-39772752D01*
X129295788Y-39823000D01*
X122550000Y-39823000D01*
X122023045Y-39927818D01*
X121659885Y-40170473D01*
X121492725Y-40239543D01*
X121090953Y-40640614D01*
X120873248Y-41164907D01*
X120872752Y-41732603D01*
X63377000Y-41732603D01*
X63377000Y-34982603D01*
X68722752Y-34982603D01*
X68773000Y-35104212D01*
X68773000Y-36345091D01*
X68723248Y-36464907D01*
X68722752Y-37032603D01*
X68939543Y-37557275D01*
X69340614Y-37959047D01*
X69864907Y-38176752D01*
X70432603Y-38177248D01*
X70957275Y-37960457D01*
X71359047Y-37559386D01*
X71576752Y-37035093D01*
X71577248Y-36467397D01*
X71527000Y-36345788D01*
X71527000Y-35104909D01*
X71576752Y-34985093D01*
X71577248Y-34417397D01*
X71360457Y-33892725D01*
X70959386Y-33490953D01*
X70435093Y-33273248D01*
X69867397Y-33272752D01*
X69342725Y-33489543D01*
X68940953Y-33890614D01*
X68723248Y-34414907D01*
X68722752Y-34982603D01*
X63377000Y-34982603D01*
X63377000Y-33700847D01*
X63377282Y-33377789D01*
X63130108Y-32779582D01*
X62672825Y-32321501D01*
X62075050Y-32073283D01*
X61427789Y-32072718D01*
X60829582Y-32319892D01*
X60371501Y-32777175D01*
X60123283Y-33374950D01*
X60122718Y-34022211D01*
X60123000Y-34022893D01*
X60123000Y-42826075D01*
X54926074Y-48023000D01*
X21600847Y-48023000D01*
X21277789Y-48022718D01*
X20679582Y-48269892D01*
X20221501Y-48727175D01*
X19973283Y-49324950D01*
X19973045Y-49598000D01*
X1202000Y-49598000D01*
X1202000Y-44382603D01*
X22472752Y-44382603D01*
X22689543Y-44907275D01*
X23090614Y-45309047D01*
X23614907Y-45526752D01*
X24182603Y-45527248D01*
X24707275Y-45310457D01*
X25109047Y-44909386D01*
X25159507Y-44787865D01*
X27170372Y-42777000D01*
X28595091Y-42777000D01*
X28714907Y-42826752D01*
X29282603Y-42827248D01*
X29807275Y-42610457D01*
X30209047Y-42209386D01*
X30426752Y-41685093D01*
X30427248Y-41117397D01*
X30210457Y-40592725D01*
X29809386Y-40190953D01*
X29285093Y-39973248D01*
X28717397Y-39972752D01*
X28595788Y-40023000D01*
X26600000Y-40023000D01*
X26073045Y-40127818D01*
X25626314Y-40426314D01*
X23212628Y-42840000D01*
X23092725Y-42889543D01*
X22690953Y-43290614D01*
X22473248Y-43814907D01*
X22472752Y-44382603D01*
X1202000Y-44382603D01*
X1202000Y-37022211D01*
X20522718Y-37022211D01*
X20769892Y-37620418D01*
X21227175Y-38078499D01*
X21824950Y-38326717D01*
X22472211Y-38327282D01*
X22472893Y-38327000D01*
X29376074Y-38327000D01*
X31399537Y-40350463D01*
X31927374Y-40703152D01*
X32550000Y-40827000D01*
X34149153Y-40827000D01*
X34472211Y-40827282D01*
X35070418Y-40580108D01*
X35528499Y-40122825D01*
X35776717Y-39525050D01*
X35777282Y-38877789D01*
X35546015Y-38318079D01*
X36745000Y-38318079D01*
X37162641Y-38239494D01*
X37546219Y-37992669D01*
X37803548Y-37616056D01*
X37894079Y-37169000D01*
X37894079Y-31331000D01*
X40805921Y-31331000D01*
X40805921Y-37169000D01*
X40884506Y-37586641D01*
X41131331Y-37970219D01*
X41507944Y-38227548D01*
X41955000Y-38318079D01*
X45895000Y-38318079D01*
X46312641Y-38239494D01*
X46696219Y-37992669D01*
X46953548Y-37616056D01*
X47044079Y-37169000D01*
X47044079Y-31331000D01*
X46965494Y-30913359D01*
X46881356Y-30782603D01*
X74222752Y-30782603D01*
X74439543Y-31307275D01*
X74773000Y-31641315D01*
X74773000Y-36795091D01*
X74723248Y-36914907D01*
X74722752Y-37482603D01*
X74939543Y-38007275D01*
X75340614Y-38409047D01*
X75864907Y-38626752D01*
X76432603Y-38627248D01*
X76957275Y-38410457D01*
X77135439Y-38232603D01*
X123822752Y-38232603D01*
X124039543Y-38757275D01*
X124440614Y-39159047D01*
X124964907Y-39376752D01*
X125532603Y-39377248D01*
X125654212Y-39327000D01*
X126645091Y-39327000D01*
X126764907Y-39376752D01*
X127332603Y-39377248D01*
X127857275Y-39160457D01*
X128259047Y-38759386D01*
X128476752Y-38235093D01*
X128477248Y-37667397D01*
X128260457Y-37142725D01*
X127859386Y-36740953D01*
X127335093Y-36523248D01*
X126767397Y-36522752D01*
X126645788Y-36573000D01*
X125654909Y-36573000D01*
X125535093Y-36523248D01*
X124967397Y-36522752D01*
X124442725Y-36739543D01*
X124040953Y-37140614D01*
X123823248Y-37664907D01*
X123822752Y-38232603D01*
X77135439Y-38232603D01*
X77359047Y-38009386D01*
X77576752Y-37485093D01*
X77577248Y-36917397D01*
X77527000Y-36795788D01*
X77527000Y-34932603D01*
X83672752Y-34932603D01*
X83723000Y-35054212D01*
X83723000Y-36295091D01*
X83673248Y-36414907D01*
X83672752Y-36982603D01*
X83889543Y-37507275D01*
X84290614Y-37909047D01*
X84814907Y-38126752D01*
X85382603Y-38127248D01*
X85907275Y-37910457D01*
X86309047Y-37509386D01*
X86526752Y-36985093D01*
X86527248Y-36417397D01*
X86477000Y-36295788D01*
X86477000Y-35054909D01*
X86526752Y-34935093D01*
X86527248Y-34367397D01*
X86310457Y-33842725D01*
X85909386Y-33440953D01*
X85385093Y-33223248D01*
X84817397Y-33222752D01*
X84292725Y-33439543D01*
X83890953Y-33840614D01*
X83673248Y-34364907D01*
X83672752Y-34932603D01*
X77527000Y-34932603D01*
X77527000Y-31932603D01*
X85272752Y-31932603D01*
X85489543Y-32457275D01*
X85890614Y-32859047D01*
X86414907Y-33076752D01*
X86982603Y-33077248D01*
X87104212Y-33027000D01*
X91674677Y-33027000D01*
X91914907Y-33126752D01*
X92482603Y-33127248D01*
X92604212Y-33077000D01*
X96529628Y-33077000D01*
X97590000Y-34137372D01*
X97639543Y-34257275D01*
X98040614Y-34659047D01*
X98564907Y-34876752D01*
X99132603Y-34877248D01*
X99657275Y-34660457D01*
X100059047Y-34259386D01*
X100090930Y-34182603D01*
X119772752Y-34182603D01*
X119989543Y-34707275D01*
X120390614Y-35109047D01*
X120914907Y-35326752D01*
X121482603Y-35327248D01*
X122007275Y-35110457D01*
X122409047Y-34709386D01*
X122626752Y-34185093D01*
X122626917Y-33996191D01*
X123296108Y-33327000D01*
X123645091Y-33327000D01*
X123764907Y-33376752D01*
X124332603Y-33377248D01*
X124857275Y-33160457D01*
X125259047Y-32759386D01*
X125476752Y-32235093D01*
X125477248Y-31667397D01*
X125260457Y-31142725D01*
X124859386Y-30740953D01*
X124335093Y-30523248D01*
X123767397Y-30522752D01*
X123645788Y-30573000D01*
X122725736Y-30573000D01*
X122198781Y-30677818D01*
X121752050Y-30976314D01*
X120226314Y-32502050D01*
X119927818Y-32948781D01*
X119823000Y-33475736D01*
X119823000Y-33495091D01*
X119773248Y-33614907D01*
X119772752Y-34182603D01*
X100090930Y-34182603D01*
X100276752Y-33735093D01*
X100277248Y-33167397D01*
X100060457Y-32642725D01*
X99659386Y-32240953D01*
X99537865Y-32190493D01*
X98073686Y-30726314D01*
X97626955Y-30427818D01*
X97100000Y-30323000D01*
X92604909Y-30323000D01*
X92485093Y-30273248D01*
X91917397Y-30272752D01*
X91916797Y-30273000D01*
X87104909Y-30273000D01*
X86985093Y-30223248D01*
X86417397Y-30222752D01*
X85892725Y-30439543D01*
X85490953Y-30840614D01*
X85273248Y-31364907D01*
X85272752Y-31932603D01*
X77527000Y-31932603D01*
X77527000Y-31000000D01*
X77422182Y-30473045D01*
X77123686Y-30026314D01*
X76910000Y-29812628D01*
X76860457Y-29692725D01*
X76459386Y-29290953D01*
X75935093Y-29073248D01*
X75367397Y-29072752D01*
X74842725Y-29289543D01*
X74440953Y-29690614D01*
X74223248Y-30214907D01*
X74222752Y-30782603D01*
X46881356Y-30782603D01*
X46718669Y-30529781D01*
X46342056Y-30272452D01*
X45895000Y-30181921D01*
X41955000Y-30181921D01*
X41537359Y-30260506D01*
X41153781Y-30507331D01*
X40896452Y-30883944D01*
X40805921Y-31331000D01*
X37894079Y-31331000D01*
X37815494Y-30913359D01*
X37568669Y-30529781D01*
X37192056Y-30272452D01*
X36745000Y-30181921D01*
X32805000Y-30181921D01*
X32387359Y-30260506D01*
X32003781Y-30507331D01*
X31746452Y-30883944D01*
X31655921Y-31331000D01*
X31655921Y-36004995D01*
X31200463Y-35549537D01*
X30672626Y-35196848D01*
X30050000Y-35073000D01*
X22150847Y-35073000D01*
X21827789Y-35072718D01*
X21229582Y-35319892D01*
X20771501Y-35777175D01*
X20523283Y-36374950D01*
X20522718Y-37022211D01*
X1202000Y-37022211D01*
X1202000Y-10460838D01*
X33272597Y-10460838D01*
X33626115Y-11316418D01*
X34280139Y-11971585D01*
X35135100Y-12326596D01*
X36060838Y-12327403D01*
X36905207Y-11978517D01*
X36523000Y-13900000D01*
X36989390Y-16244701D01*
X38317557Y-18232443D01*
X38769608Y-18534494D01*
X43717557Y-23482443D01*
X45705298Y-24810610D01*
X48050000Y-25277000D01*
X63250000Y-25277000D01*
X65594701Y-24810610D01*
X67582443Y-23482443D01*
X68910610Y-21494701D01*
X69377000Y-19150000D01*
X79623000Y-19150000D01*
X80089390Y-21494702D01*
X81417557Y-23482443D01*
X83405298Y-24810610D01*
X85750000Y-25277000D01*
X87230034Y-24982603D01*
X90772752Y-24982603D01*
X90989543Y-25507275D01*
X91223000Y-25741140D01*
X91223000Y-26295091D01*
X91173248Y-26414907D01*
X91172752Y-26982603D01*
X91389543Y-27507275D01*
X91790614Y-27909047D01*
X92314907Y-28126752D01*
X92882603Y-28127248D01*
X93407275Y-27910457D01*
X93809047Y-27509386D01*
X94026752Y-26985093D01*
X94027248Y-26417397D01*
X93977000Y-26295788D01*
X93977000Y-25100000D01*
X93872182Y-24573045D01*
X93573686Y-24126314D01*
X93460000Y-24012628D01*
X93410457Y-23892725D01*
X93009386Y-23490953D01*
X92485093Y-23273248D01*
X91917397Y-23272752D01*
X91392725Y-23489543D01*
X90990953Y-23890614D01*
X90773248Y-24414907D01*
X90772752Y-24982603D01*
X87230034Y-24982603D01*
X88094702Y-24810610D01*
X90082443Y-23482443D01*
X90637886Y-22927000D01*
X104110921Y-22927000D01*
X104110921Y-30205000D01*
X104189506Y-30622641D01*
X104436331Y-31006219D01*
X104812944Y-31263548D01*
X105260000Y-31354079D01*
X116260000Y-31354079D01*
X116677641Y-31275494D01*
X117061219Y-31028669D01*
X117318548Y-30652056D01*
X117409079Y-30205000D01*
X117409079Y-27482603D01*
X124672752Y-27482603D01*
X124723000Y-27604212D01*
X124723000Y-29095091D01*
X124673248Y-29214907D01*
X124672752Y-29782603D01*
X124889543Y-30307275D01*
X125290614Y-30709047D01*
X125814907Y-30926752D01*
X126382603Y-30927248D01*
X126907275Y-30710457D01*
X127309047Y-30309386D01*
X127526752Y-29785093D01*
X127527248Y-29217397D01*
X127477000Y-29095788D01*
X127477000Y-27604909D01*
X127526752Y-27485093D01*
X127527248Y-26917397D01*
X127310457Y-26392725D01*
X126909386Y-25990953D01*
X126385093Y-25773248D01*
X125817397Y-25772752D01*
X125292725Y-25989543D01*
X124890953Y-26390614D01*
X124673248Y-26914907D01*
X124672752Y-27482603D01*
X117409079Y-27482603D01*
X117409079Y-23562538D01*
X117489543Y-23757275D01*
X117890614Y-24159047D01*
X118414907Y-24376752D01*
X118982603Y-24377248D01*
X119507275Y-24160457D01*
X119909047Y-23759386D01*
X120126752Y-23235093D01*
X120127248Y-22667397D01*
X120077000Y-22545788D01*
X120077000Y-21104909D01*
X120126752Y-20985093D01*
X120127248Y-20417397D01*
X119910457Y-19892725D01*
X119509386Y-19490953D01*
X118985093Y-19273248D01*
X118417397Y-19272752D01*
X118324810Y-19311008D01*
X118327000Y-19300000D01*
X118327000Y-11300000D01*
X118050911Y-9912007D01*
X117721753Y-9419387D01*
X117264677Y-8735324D01*
X115964676Y-7435324D01*
X114787993Y-6649089D01*
X113400000Y-6373000D01*
X112012007Y-6649089D01*
X110835324Y-7435324D01*
X110150671Y-8459978D01*
X109719861Y-8028415D01*
X108864900Y-7673404D01*
X107939162Y-7672597D01*
X107083582Y-8026115D01*
X106428415Y-8680139D01*
X106073404Y-9535100D01*
X106072597Y-10460838D01*
X106160260Y-10673000D01*
X88100000Y-10673000D01*
X85755298Y-11139390D01*
X83767557Y-12467557D01*
X81417557Y-14817557D01*
X80089390Y-16805298D01*
X79623000Y-19150000D01*
X69377000Y-19150000D01*
X68910610Y-16805299D01*
X67582443Y-14817557D01*
X65594701Y-13489390D01*
X63250000Y-13023000D01*
X50587886Y-13023000D01*
X47132443Y-9567557D01*
X46511315Y-9152532D01*
X64777073Y-9152532D01*
X64875736Y-9419387D01*
X65485461Y-9645908D01*
X66135460Y-9621856D01*
X66624264Y-9419387D01*
X66722927Y-9152532D01*
X65750000Y-8179605D01*
X64777073Y-9152532D01*
X46511315Y-9152532D01*
X45144702Y-8239390D01*
X43480787Y-7908417D01*
X43365222Y-7735461D01*
X64104092Y-7735461D01*
X64128144Y-8385460D01*
X64330613Y-8874264D01*
X64597468Y-8972927D01*
X65570395Y-8000000D01*
X64597468Y-7027073D01*
X64330613Y-7125736D01*
X64104092Y-7735461D01*
X43365222Y-7735461D01*
X43164676Y-7435324D01*
X42284888Y-6847468D01*
X64777073Y-6847468D01*
X65750000Y-7820395D01*
X66722927Y-6847468D01*
X66624264Y-6580613D01*
X66014539Y-6354092D01*
X65364540Y-6378144D01*
X64875736Y-6580613D01*
X64777073Y-6847468D01*
X42284888Y-6847468D01*
X41987993Y-6649089D01*
X40600000Y-6373000D01*
X39212007Y-6649089D01*
X38035324Y-7435324D01*
X37350671Y-8459978D01*
X36919861Y-8028415D01*
X36064900Y-7673404D01*
X35139162Y-7672597D01*
X34283582Y-8026115D01*
X33628415Y-8680139D01*
X33273404Y-9535100D01*
X33272597Y-10460838D01*
X1202000Y-10460838D01*
X1202000Y-1202000D01*
X81100628Y-1202000D01*
X76429472Y-5873156D01*
X76429472Y-5873156D01*
G37*
X76429472Y-5873156D02*
X75828770Y-5872632D01*
X75046726Y-6195766D01*
X74499570Y-6741967D01*
X73956422Y-6197869D01*
X73174943Y-5873370D01*
X72328770Y-5872632D01*
X71546726Y-6195766D01*
X70999570Y-6741967D01*
X70456422Y-6197869D01*
X69674943Y-5873370D01*
X68828770Y-5872632D01*
X68046726Y-6195766D01*
X67447869Y-6793578D01*
X67239579Y-7295195D01*
X67169387Y-7125736D01*
X66902532Y-7027073D01*
X65929605Y-8000000D01*
X66902532Y-8972927D01*
X67169387Y-8874264D01*
X67235875Y-8695299D01*
X67445766Y-9203274D01*
X68043578Y-9802131D01*
X68825057Y-10126630D01*
X69671230Y-10127368D01*
X70453274Y-9804234D01*
X71000430Y-9258033D01*
X71543578Y-9802131D01*
X72325057Y-10126630D01*
X73171230Y-10127368D01*
X73953274Y-9804234D01*
X74500430Y-9258033D01*
X75043578Y-9802131D01*
X75825057Y-10126630D01*
X76671230Y-10127368D01*
X77453274Y-9804234D01*
X78000430Y-9258033D01*
X78543578Y-9802131D01*
X79325057Y-10126630D01*
X80171230Y-10127368D01*
X80953274Y-9804234D01*
X81500430Y-9258033D01*
X82043578Y-9802131D01*
X82825057Y-10126630D01*
X83671230Y-10127368D01*
X84453274Y-9804234D01*
X85052131Y-9206422D01*
X85376630Y-8424943D01*
X85377368Y-7578770D01*
X85054234Y-6796726D01*
X84456422Y-6197869D01*
X83674943Y-5873370D01*
X82828770Y-5872632D01*
X82046726Y-6195766D01*
X81499570Y-6741967D01*
X80956422Y-6197869D01*
X80280267Y-5917105D01*
X84120372Y-2077000D01*
X121129628Y-2077000D01*
X121440000Y-2387372D01*
X121489543Y-2507275D01*
X121890614Y-2909047D01*
X122414907Y-3126752D01*
X122982603Y-3127248D01*
X123507275Y-2910457D01*
X123909047Y-2509386D01*
X124126752Y-1985093D01*
X124127248Y-1417397D01*
X124038247Y-1202000D01*
X147769000Y-1202000D01*
X147769000Y-49598000D01*
X129052925Y-49598000D01*
X129299459Y-49351466D01*
X129528499Y-49122825D01*
X129776717Y-48525050D01*
X129777282Y-47877789D01*
X129530108Y-47279582D01*
X129072825Y-46821501D01*
X128475050Y-46573283D01*
X128150001Y-46572999D01*
X128149999Y-46572999D01*
X127827789Y-46572718D01*
X127229582Y-46819892D01*
X126771501Y-47277175D01*
X126771218Y-47277857D01*
X126026074Y-48023000D01*
X59527926Y-48023000D01*
X62900460Y-44650465D01*
X62900463Y-44650463D01*
X63253152Y-44122626D01*
X63377000Y-43500000D01*
X63377000Y-41732603D01*
X120872752Y-41732603D01*
X121089543Y-42257275D01*
X121490614Y-42659047D01*
X122014907Y-42876752D01*
X122582603Y-42877248D01*
X123107275Y-42660457D01*
X123190878Y-42577000D01*
X129295091Y-42577000D01*
X129414907Y-42626752D01*
X129982603Y-42627248D01*
X130507275Y-42410457D01*
X130909047Y-42009386D01*
X131126752Y-41485093D01*
X131127248Y-40917397D01*
X130910457Y-40392725D01*
X130509386Y-39990953D01*
X129985093Y-39773248D01*
X129417397Y-39772752D01*
X129295788Y-39823000D01*
X122550000Y-39823000D01*
X122023045Y-39927818D01*
X121659885Y-40170473D01*
X121492725Y-40239543D01*
X121090953Y-40640614D01*
X120873248Y-41164907D01*
X120872752Y-41732603D01*
X63377000Y-41732603D01*
X63377000Y-34982603D01*
X68722752Y-34982603D01*
X68773000Y-35104212D01*
X68773000Y-36345091D01*
X68723248Y-36464907D01*
X68722752Y-37032603D01*
X68939543Y-37557275D01*
X69340614Y-37959047D01*
X69864907Y-38176752D01*
X70432603Y-38177248D01*
X70957275Y-37960457D01*
X71359047Y-37559386D01*
X71576752Y-37035093D01*
X71577248Y-36467397D01*
X71527000Y-36345788D01*
X71527000Y-35104909D01*
X71576752Y-34985093D01*
X71577248Y-34417397D01*
X71360457Y-33892725D01*
X70959386Y-33490953D01*
X70435093Y-33273248D01*
X69867397Y-33272752D01*
X69342725Y-33489543D01*
X68940953Y-33890614D01*
X68723248Y-34414907D01*
X68722752Y-34982603D01*
X63377000Y-34982603D01*
X63377000Y-33700847D01*
X63377282Y-33377789D01*
X63130108Y-32779582D01*
X62672825Y-32321501D01*
X62075050Y-32073283D01*
X61427789Y-32072718D01*
X60829582Y-32319892D01*
X60371501Y-32777175D01*
X60123283Y-33374950D01*
X60122718Y-34022211D01*
X60123000Y-34022893D01*
X60123000Y-42826075D01*
X54926074Y-48023000D01*
X21600847Y-48023000D01*
X21277789Y-48022718D01*
X20679582Y-48269892D01*
X20221501Y-48727175D01*
X19973283Y-49324950D01*
X19973045Y-49598000D01*
X1202000Y-49598000D01*
X1202000Y-44382603D01*
X22472752Y-44382603D01*
X22689543Y-44907275D01*
X23090614Y-45309047D01*
X23614907Y-45526752D01*
X24182603Y-45527248D01*
X24707275Y-45310457D01*
X25109047Y-44909386D01*
X25159507Y-44787865D01*
X27170372Y-42777000D01*
X28595091Y-42777000D01*
X28714907Y-42826752D01*
X29282603Y-42827248D01*
X29807275Y-42610457D01*
X30209047Y-42209386D01*
X30426752Y-41685093D01*
X30427248Y-41117397D01*
X30210457Y-40592725D01*
X29809386Y-40190953D01*
X29285093Y-39973248D01*
X28717397Y-39972752D01*
X28595788Y-40023000D01*
X26600000Y-40023000D01*
X26073045Y-40127818D01*
X25626314Y-40426314D01*
X23212628Y-42840000D01*
X23092725Y-42889543D01*
X22690953Y-43290614D01*
X22473248Y-43814907D01*
X22472752Y-44382603D01*
X1202000Y-44382603D01*
X1202000Y-37022211D01*
X20522718Y-37022211D01*
X20769892Y-37620418D01*
X21227175Y-38078499D01*
X21824950Y-38326717D01*
X22472211Y-38327282D01*
X22472893Y-38327000D01*
X29376074Y-38327000D01*
X31399537Y-40350463D01*
X31927374Y-40703152D01*
X32550000Y-40827000D01*
X34149153Y-40827000D01*
X34472211Y-40827282D01*
X35070418Y-40580108D01*
X35528499Y-40122825D01*
X35776717Y-39525050D01*
X35777282Y-38877789D01*
X35546015Y-38318079D01*
X36745000Y-38318079D01*
X37162641Y-38239494D01*
X37546219Y-37992669D01*
X37803548Y-37616056D01*
X37894079Y-37169000D01*
X37894079Y-31331000D01*
X40805921Y-31331000D01*
X40805921Y-37169000D01*
X40884506Y-37586641D01*
X41131331Y-37970219D01*
X41507944Y-38227548D01*
X41955000Y-38318079D01*
X45895000Y-38318079D01*
X46312641Y-38239494D01*
X46696219Y-37992669D01*
X46953548Y-37616056D01*
X47044079Y-37169000D01*
X47044079Y-31331000D01*
X46965494Y-30913359D01*
X46881356Y-30782603D01*
X74222752Y-30782603D01*
X74439543Y-31307275D01*
X74773000Y-31641315D01*
X74773000Y-36795091D01*
X74723248Y-36914907D01*
X74722752Y-37482603D01*
X74939543Y-38007275D01*
X75340614Y-38409047D01*
X75864907Y-38626752D01*
X76432603Y-38627248D01*
X76957275Y-38410457D01*
X77135439Y-38232603D01*
X123822752Y-38232603D01*
X124039543Y-38757275D01*
X124440614Y-39159047D01*
X124964907Y-39376752D01*
X125532603Y-39377248D01*
X125654212Y-39327000D01*
X126645091Y-39327000D01*
X126764907Y-39376752D01*
X127332603Y-39377248D01*
X127857275Y-39160457D01*
X128259047Y-38759386D01*
X128476752Y-38235093D01*
X128477248Y-37667397D01*
X128260457Y-37142725D01*
X127859386Y-36740953D01*
X127335093Y-36523248D01*
X126767397Y-36522752D01*
X126645788Y-36573000D01*
X125654909Y-36573000D01*
X125535093Y-36523248D01*
X124967397Y-36522752D01*
X124442725Y-36739543D01*
X124040953Y-37140614D01*
X123823248Y-37664907D01*
X123822752Y-38232603D01*
X77135439Y-38232603D01*
X77359047Y-38009386D01*
X77576752Y-37485093D01*
X77577248Y-36917397D01*
X77527000Y-36795788D01*
X77527000Y-34932603D01*
X83672752Y-34932603D01*
X83723000Y-35054212D01*
X83723000Y-36295091D01*
X83673248Y-36414907D01*
X83672752Y-36982603D01*
X83889543Y-37507275D01*
X84290614Y-37909047D01*
X84814907Y-38126752D01*
X85382603Y-38127248D01*
X85907275Y-37910457D01*
X86309047Y-37509386D01*
X86526752Y-36985093D01*
X86527248Y-36417397D01*
X86477000Y-36295788D01*
X86477000Y-35054909D01*
X86526752Y-34935093D01*
X86527248Y-34367397D01*
X86310457Y-33842725D01*
X85909386Y-33440953D01*
X85385093Y-33223248D01*
X84817397Y-33222752D01*
X84292725Y-33439543D01*
X83890953Y-33840614D01*
X83673248Y-34364907D01*
X83672752Y-34932603D01*
X77527000Y-34932603D01*
X77527000Y-31932603D01*
X85272752Y-31932603D01*
X85489543Y-32457275D01*
X85890614Y-32859047D01*
X86414907Y-33076752D01*
X86982603Y-33077248D01*
X87104212Y-33027000D01*
X91674677Y-33027000D01*
X91914907Y-33126752D01*
X92482603Y-33127248D01*
X92604212Y-33077000D01*
X96529628Y-33077000D01*
X97590000Y-34137372D01*
X97639543Y-34257275D01*
X98040614Y-34659047D01*
X98564907Y-34876752D01*
X99132603Y-34877248D01*
X99657275Y-34660457D01*
X100059047Y-34259386D01*
X100090930Y-34182603D01*
X119772752Y-34182603D01*
X119989543Y-34707275D01*
X120390614Y-35109047D01*
X120914907Y-35326752D01*
X121482603Y-35327248D01*
X122007275Y-35110457D01*
X122409047Y-34709386D01*
X122626752Y-34185093D01*
X122626917Y-33996191D01*
X123296108Y-33327000D01*
X123645091Y-33327000D01*
X123764907Y-33376752D01*
X124332603Y-33377248D01*
X124857275Y-33160457D01*
X125259047Y-32759386D01*
X125476752Y-32235093D01*
X125477248Y-31667397D01*
X125260457Y-31142725D01*
X124859386Y-30740953D01*
X124335093Y-30523248D01*
X123767397Y-30522752D01*
X123645788Y-30573000D01*
X122725736Y-30573000D01*
X122198781Y-30677818D01*
X121752050Y-30976314D01*
X120226314Y-32502050D01*
X119927818Y-32948781D01*
X119823000Y-33475736D01*
X119823000Y-33495091D01*
X119773248Y-33614907D01*
X119772752Y-34182603D01*
X100090930Y-34182603D01*
X100276752Y-33735093D01*
X100277248Y-33167397D01*
X100060457Y-32642725D01*
X99659386Y-32240953D01*
X99537865Y-32190493D01*
X98073686Y-30726314D01*
X97626955Y-30427818D01*
X97100000Y-30323000D01*
X92604909Y-30323000D01*
X92485093Y-30273248D01*
X91917397Y-30272752D01*
X91916797Y-30273000D01*
X87104909Y-30273000D01*
X86985093Y-30223248D01*
X86417397Y-30222752D01*
X85892725Y-30439543D01*
X85490953Y-30840614D01*
X85273248Y-31364907D01*
X85272752Y-31932603D01*
X77527000Y-31932603D01*
X77527000Y-31000000D01*
X77422182Y-30473045D01*
X77123686Y-30026314D01*
X76910000Y-29812628D01*
X76860457Y-29692725D01*
X76459386Y-29290953D01*
X75935093Y-29073248D01*
X75367397Y-29072752D01*
X74842725Y-29289543D01*
X74440953Y-29690614D01*
X74223248Y-30214907D01*
X74222752Y-30782603D01*
X46881356Y-30782603D01*
X46718669Y-30529781D01*
X46342056Y-30272452D01*
X45895000Y-30181921D01*
X41955000Y-30181921D01*
X41537359Y-30260506D01*
X41153781Y-30507331D01*
X40896452Y-30883944D01*
X40805921Y-31331000D01*
X37894079Y-31331000D01*
X37815494Y-30913359D01*
X37568669Y-30529781D01*
X37192056Y-30272452D01*
X36745000Y-30181921D01*
X32805000Y-30181921D01*
X32387359Y-30260506D01*
X32003781Y-30507331D01*
X31746452Y-30883944D01*
X31655921Y-31331000D01*
X31655921Y-36004995D01*
X31200463Y-35549537D01*
X30672626Y-35196848D01*
X30050000Y-35073000D01*
X22150847Y-35073000D01*
X21827789Y-35072718D01*
X21229582Y-35319892D01*
X20771501Y-35777175D01*
X20523283Y-36374950D01*
X20522718Y-37022211D01*
X1202000Y-37022211D01*
X1202000Y-10460838D01*
X33272597Y-10460838D01*
X33626115Y-11316418D01*
X34280139Y-11971585D01*
X35135100Y-12326596D01*
X36060838Y-12327403D01*
X36905207Y-11978517D01*
X36523000Y-13900000D01*
X36989390Y-16244701D01*
X38317557Y-18232443D01*
X38769608Y-18534494D01*
X43717557Y-23482443D01*
X45705298Y-24810610D01*
X48050000Y-25277000D01*
X63250000Y-25277000D01*
X65594701Y-24810610D01*
X67582443Y-23482443D01*
X68910610Y-21494701D01*
X69377000Y-19150000D01*
X79623000Y-19150000D01*
X80089390Y-21494702D01*
X81417557Y-23482443D01*
X83405298Y-24810610D01*
X85750000Y-25277000D01*
X87230034Y-24982603D01*
X90772752Y-24982603D01*
X90989543Y-25507275D01*
X91223000Y-25741140D01*
X91223000Y-26295091D01*
X91173248Y-26414907D01*
X91172752Y-26982603D01*
X91389543Y-27507275D01*
X91790614Y-27909047D01*
X92314907Y-28126752D01*
X92882603Y-28127248D01*
X93407275Y-27910457D01*
X93809047Y-27509386D01*
X94026752Y-26985093D01*
X94027248Y-26417397D01*
X93977000Y-26295788D01*
X93977000Y-25100000D01*
X93872182Y-24573045D01*
X93573686Y-24126314D01*
X93460000Y-24012628D01*
X93410457Y-23892725D01*
X93009386Y-23490953D01*
X92485093Y-23273248D01*
X91917397Y-23272752D01*
X91392725Y-23489543D01*
X90990953Y-23890614D01*
X90773248Y-24414907D01*
X90772752Y-24982603D01*
X87230034Y-24982603D01*
X88094702Y-24810610D01*
X90082443Y-23482443D01*
X90637886Y-22927000D01*
X104110921Y-22927000D01*
X104110921Y-30205000D01*
X104189506Y-30622641D01*
X104436331Y-31006219D01*
X104812944Y-31263548D01*
X105260000Y-31354079D01*
X116260000Y-31354079D01*
X116677641Y-31275494D01*
X117061219Y-31028669D01*
X117318548Y-30652056D01*
X117409079Y-30205000D01*
X117409079Y-27482603D01*
X124672752Y-27482603D01*
X124723000Y-27604212D01*
X124723000Y-29095091D01*
X124673248Y-29214907D01*
X124672752Y-29782603D01*
X124889543Y-30307275D01*
X125290614Y-30709047D01*
X125814907Y-30926752D01*
X126382603Y-30927248D01*
X126907275Y-30710457D01*
X127309047Y-30309386D01*
X127526752Y-29785093D01*
X127527248Y-29217397D01*
X127477000Y-29095788D01*
X127477000Y-27604909D01*
X127526752Y-27485093D01*
X127527248Y-26917397D01*
X127310457Y-26392725D01*
X126909386Y-25990953D01*
X126385093Y-25773248D01*
X125817397Y-25772752D01*
X125292725Y-25989543D01*
X124890953Y-26390614D01*
X124673248Y-26914907D01*
X124672752Y-27482603D01*
X117409079Y-27482603D01*
X117409079Y-23562538D01*
X117489543Y-23757275D01*
X117890614Y-24159047D01*
X118414907Y-24376752D01*
X118982603Y-24377248D01*
X119507275Y-24160457D01*
X119909047Y-23759386D01*
X120126752Y-23235093D01*
X120127248Y-22667397D01*
X120077000Y-22545788D01*
X120077000Y-21104909D01*
X120126752Y-20985093D01*
X120127248Y-20417397D01*
X119910457Y-19892725D01*
X119509386Y-19490953D01*
X118985093Y-19273248D01*
X118417397Y-19272752D01*
X118324810Y-19311008D01*
X118327000Y-19300000D01*
X118327000Y-11300000D01*
X118050911Y-9912007D01*
X117721753Y-9419387D01*
X117264677Y-8735324D01*
X115964676Y-7435324D01*
X114787993Y-6649089D01*
X113400000Y-6373000D01*
X112012007Y-6649089D01*
X110835324Y-7435324D01*
X110150671Y-8459978D01*
X109719861Y-8028415D01*
X108864900Y-7673404D01*
X107939162Y-7672597D01*
X107083582Y-8026115D01*
X106428415Y-8680139D01*
X106073404Y-9535100D01*
X106072597Y-10460838D01*
X106160260Y-10673000D01*
X88100000Y-10673000D01*
X85755298Y-11139390D01*
X83767557Y-12467557D01*
X81417557Y-14817557D01*
X80089390Y-16805298D01*
X79623000Y-19150000D01*
X69377000Y-19150000D01*
X68910610Y-16805299D01*
X67582443Y-14817557D01*
X65594701Y-13489390D01*
X63250000Y-13023000D01*
X50587886Y-13023000D01*
X47132443Y-9567557D01*
X46511315Y-9152532D01*
X64777073Y-9152532D01*
X64875736Y-9419387D01*
X65485461Y-9645908D01*
X66135460Y-9621856D01*
X66624264Y-9419387D01*
X66722927Y-9152532D01*
X65750000Y-8179605D01*
X64777073Y-9152532D01*
X46511315Y-9152532D01*
X45144702Y-8239390D01*
X43480787Y-7908417D01*
X43365222Y-7735461D01*
X64104092Y-7735461D01*
X64128144Y-8385460D01*
X64330613Y-8874264D01*
X64597468Y-8972927D01*
X65570395Y-8000000D01*
X64597468Y-7027073D01*
X64330613Y-7125736D01*
X64104092Y-7735461D01*
X43365222Y-7735461D01*
X43164676Y-7435324D01*
X42284888Y-6847468D01*
X64777073Y-6847468D01*
X65750000Y-7820395D01*
X66722927Y-6847468D01*
X66624264Y-6580613D01*
X66014539Y-6354092D01*
X65364540Y-6378144D01*
X64875736Y-6580613D01*
X64777073Y-6847468D01*
X42284888Y-6847468D01*
X41987993Y-6649089D01*
X40600000Y-6373000D01*
X39212007Y-6649089D01*
X38035324Y-7435324D01*
X37350671Y-8459978D01*
X36919861Y-8028415D01*
X36064900Y-7673404D01*
X35139162Y-7672597D01*
X34283582Y-8026115D01*
X33628415Y-8680139D01*
X33273404Y-9535100D01*
X33272597Y-10460838D01*
X1202000Y-10460838D01*
X1202000Y-1202000D01*
X81100628Y-1202000D01*
X76429472Y-5873156D01*
M02*
