G04 #@! TF.FileFunction,Soldermask,Bot*
%FSLAX46Y46*%
G04 Gerber Fmt 4.6, Leading zero omitted, Abs format (unit mm)*
G04 Created by KiCad (PCBNEW 4.0.4-stable) date Monday, July 17, 2017 'PMt' 04:09:52 PM*
%MOMM*%
%LPD*%
G01*
G04 APERTURE LIST*
%ADD10C,0.100000*%
%ADD11C,0.150000*%
%ADD12C,2.400000*%
%ADD13R,2.370000X2.346000*%
%ADD14C,2.800000*%
%ADD15R,1.400000X1.400000*%
%ADD16C,11.400000*%
%ADD17C,1.100000*%
G04 APERTURE END LIST*
D10*
D11*
X0Y-50800000D02*
X148971000Y-50800000D01*
X0Y0D02*
X0Y-50800000D01*
X148971000Y0D02*
X148971000Y-50800000D01*
X0Y0D02*
X148971000Y0D01*
D12*
X83250000Y-8000000D03*
X79750000Y-8000000D03*
X76250000Y-8000000D03*
X72750000Y-8000000D03*
X69250000Y-8000000D03*
X65750000Y-8000000D03*
D13*
X35760000Y-34250000D03*
X33790000Y-34250000D03*
X33790000Y-36196000D03*
X35760000Y-36196000D03*
X35760000Y-32304000D03*
X33790000Y-32304000D03*
X44910000Y-34250000D03*
X42940000Y-34250000D03*
X42940000Y-36196000D03*
X44910000Y-36196000D03*
X44910000Y-32304000D03*
X42940000Y-32304000D03*
D12*
X63250000Y-19150000D03*
X85750000Y-19150000D03*
D14*
X40600000Y-10000000D03*
X35600000Y-10000000D03*
X113400000Y-10000000D03*
X108400000Y-10000000D03*
D15*
X105760000Y-22935000D03*
X106760000Y-22935000D03*
X106760000Y-23935000D03*
X105760000Y-23935000D03*
X107760000Y-23935000D03*
X108760000Y-23935000D03*
X108760000Y-22935000D03*
X107760000Y-22935000D03*
X111760000Y-22935000D03*
X112760000Y-22935000D03*
X112760000Y-23935000D03*
X111760000Y-23935000D03*
X109760000Y-23935000D03*
X110760000Y-23935000D03*
X110760000Y-22935000D03*
X109760000Y-22935000D03*
X113760000Y-22935000D03*
X113760000Y-23935000D03*
X114760000Y-23935000D03*
X115760000Y-23935000D03*
X115760000Y-22935000D03*
X114760000Y-22935000D03*
X114760000Y-24935000D03*
X115760000Y-24935000D03*
X115760000Y-25935000D03*
X114760000Y-25935000D03*
X113760000Y-25935000D03*
X113760000Y-24935000D03*
X109760000Y-24935000D03*
X110760000Y-24935000D03*
X110760000Y-25935000D03*
X109760000Y-25935000D03*
X111760000Y-25935000D03*
X112760000Y-25935000D03*
X112760000Y-24935000D03*
X111760000Y-24935000D03*
X107760000Y-24935000D03*
X108760000Y-24935000D03*
X108760000Y-25935000D03*
X107760000Y-25935000D03*
X105760000Y-25935000D03*
X106760000Y-25935000D03*
X106760000Y-24935000D03*
X105760000Y-24935000D03*
X105760000Y-27705000D03*
X105760000Y-26925000D03*
X106760000Y-26925000D03*
X106760000Y-27705000D03*
X107760000Y-27705000D03*
X108760000Y-27705000D03*
X108760000Y-26925000D03*
X109760000Y-27705000D03*
X110760000Y-26925000D03*
X107760000Y-26925000D03*
X110760000Y-27705000D03*
X109760000Y-26925000D03*
X109760000Y-28705000D03*
X110760000Y-28705000D03*
X110760000Y-29705000D03*
X109760000Y-29705000D03*
X111760000Y-29705000D03*
X108760000Y-28705000D03*
X111760000Y-28705000D03*
X108760000Y-29705000D03*
X114760000Y-27705000D03*
X115760000Y-27705000D03*
X115760000Y-26925000D03*
X114760000Y-28705000D03*
X114760000Y-26925000D03*
X115760000Y-28705000D03*
X107760000Y-29705000D03*
X105760000Y-29705000D03*
X106760000Y-29705000D03*
X106760000Y-28705000D03*
X107760000Y-28705000D03*
X105760000Y-28705000D03*
X112760000Y-29705000D03*
X113760000Y-28705000D03*
X115760000Y-29705000D03*
X114760000Y-29705000D03*
X113760000Y-29705000D03*
X112760000Y-28705000D03*
X112760000Y-26925000D03*
X111760000Y-27705000D03*
X113760000Y-26925000D03*
X113760000Y-27705000D03*
X112760000Y-27705000D03*
X111760000Y-26925000D03*
D16*
X9398000Y-9525000D03*
D17*
X13523000Y-9525000D03*
X12324815Y-12451815D03*
X9398000Y-13650000D03*
X6471185Y-12451815D03*
X5273000Y-9525000D03*
X6471185Y-6598185D03*
X9398000Y-5400000D03*
X12324815Y-6598185D03*
D16*
X139573000Y-9525000D03*
D17*
X143698000Y-9525000D03*
X142499815Y-12451815D03*
X139573000Y-13650000D03*
X136646185Y-12451815D03*
X135448000Y-9525000D03*
X136646185Y-6598185D03*
X139573000Y-5400000D03*
X142499815Y-6598185D03*
D16*
X139573000Y-41275000D03*
D17*
X143698000Y-41275000D03*
X142499815Y-44201815D03*
X139573000Y-45400000D03*
X136646185Y-44201815D03*
X135448000Y-41275000D03*
X136646185Y-38348185D03*
X139573000Y-37150000D03*
X142499815Y-38348185D03*
D16*
X9398000Y-41275000D03*
D17*
X13523000Y-41275000D03*
X12324815Y-44201815D03*
X9398000Y-45400000D03*
X6471185Y-44201815D03*
X5273000Y-41275000D03*
X6471185Y-38348185D03*
X9398000Y-37150000D03*
X12324815Y-38348185D03*
M02*
