M48
;DRILL file {KiCad 4.0.4-stable} date Saturday, July 15, 2017 'PMt' 05:07:01 PM
;FORMAT={-:-/ absolute / metric / decimal}
FMAT,2
METRIC,TZ
T1C0.400
T2C0.600
T3C0.762
T4C1.200
T5C1.400
%
G90
G05
M71
T1
X23.9Y-44.1
X29.Y-39.55
X29.Y-41.4
X29.2Y-46.3
X29.4Y-43.25
X34.65Y-46.5
X41.9Y-45.2
X43.3Y-46.7
X44.7Y-45.2
X70.15Y-34.7
X70.15Y-36.75
X75.65Y-30.5
X76.15Y-37.2
X80.8Y-34.4
X85.1Y-34.65
X85.1Y-36.7
X86.7Y-29.1
X86.7Y-31.65
X90.8Y-38.
X92.2Y-24.7
X92.2Y-31.7
X92.35Y-10.6
X92.6Y-26.7
X98.85Y-33.45
X100.55Y-10.6
X105.76Y-22.935
X105.76Y-23.935
X105.76Y-24.935
X105.76Y-25.935
X105.76Y-26.925
X105.76Y-27.705
X105.76Y-28.705
X105.76Y-29.705
X106.76Y-22.935
X106.76Y-23.935
X106.76Y-24.935
X106.76Y-25.935
X106.76Y-26.925
X106.76Y-27.705
X106.76Y-28.705
X106.76Y-29.705
X107.76Y-22.935
X107.76Y-23.935
X107.76Y-24.935
X107.76Y-25.935
X107.76Y-26.925
X107.76Y-27.705
X107.76Y-28.705
X107.76Y-29.705
X108.76Y-22.935
X108.76Y-23.935
X108.76Y-24.935
X108.76Y-25.935
X108.76Y-26.925
X108.76Y-27.705
X108.76Y-28.705
X108.76Y-29.705
X109.76Y-22.935
X109.76Y-23.935
X109.76Y-24.935
X109.76Y-25.935
X109.76Y-26.925
X109.76Y-27.705
X109.76Y-28.705
X109.76Y-29.705
X110.76Y-22.935
X110.76Y-23.935
X110.76Y-24.935
X110.76Y-25.935
X110.76Y-26.925
X110.76Y-27.705
X110.76Y-28.705
X110.76Y-29.705
X111.76Y-22.935
X111.76Y-23.935
X111.76Y-24.935
X111.76Y-25.935
X111.76Y-26.925
X111.76Y-27.705
X111.76Y-28.705
X111.76Y-29.705
X112.76Y-22.935
X112.76Y-23.935
X112.76Y-24.935
X112.76Y-25.935
X112.76Y-26.925
X112.76Y-27.705
X112.76Y-28.705
X112.76Y-29.705
X113.76Y-22.935
X113.76Y-23.935
X113.76Y-24.935
X113.76Y-25.935
X113.76Y-26.925
X113.76Y-27.705
X113.76Y-28.705
X113.76Y-29.705
X114.76Y-22.935
X114.76Y-23.935
X114.76Y-24.935
X114.76Y-25.935
X114.76Y-26.925
X114.76Y-27.705
X114.76Y-28.705
X114.76Y-29.705
X115.76Y-22.935
X115.76Y-23.935
X115.76Y-24.935
X115.76Y-25.935
X115.76Y-26.925
X115.76Y-27.705
X115.76Y-28.705
X115.76Y-29.705
X118.7Y-20.7
X118.7Y-22.95
X121.2Y-33.9
X122.3Y-41.45
X122.45Y-36.85
X122.65Y-46.
X122.7Y-1.7
X124.05Y-31.95
X125.25Y-37.95
X126.1Y-27.2
X126.1Y-29.5
X126.15Y-34.7
X127.05Y-37.95
X129.7Y-41.2
T2
X21.6Y-45.65
X21.6Y-49.65
X22.15Y-36.7
X34.15Y-39.2
X61.75Y-33.7
X128.15Y-48.2
T3
X33.79Y-32.304
X33.79Y-34.25
X33.79Y-36.196
X35.76Y-32.304
X35.76Y-34.25
X35.76Y-36.196
X42.94Y-32.304
X42.94Y-34.25
X42.94Y-36.196
X44.91Y-32.304
X44.91Y-34.25
X44.91Y-36.196
T4
X65.75Y-8.
X69.25Y-8.
X72.75Y-8.
X76.25Y-8.
X79.75Y-8.
X83.25Y-8.
T5
X35.6Y-10.
X40.6Y-10.
X63.25Y-19.15
X85.75Y-19.15
X108.4Y-10.
X113.4Y-10.
T0
M30
