G04 #@! TF.FileFunction,Copper,L2,Bot,Signal*
%FSLAX46Y46*%
G04 Gerber Fmt 4.6, Leading zero omitted, Abs format (unit mm)*
G04 Created by KiCad (PCBNEW 4.0.4-stable) date Monday, July 17, 2017 'PMt' 04:09:52 PM*
%MOMM*%
%LPD*%
G01*
G04 APERTURE LIST*
%ADD10C,0.100000*%
%ADD11C,0.150000*%
%ADD12C,2.000000*%
%ADD13R,1.970000X1.946000*%
%ADD14C,2.400000*%
%ADD15R,1.000000X1.000000*%
%ADD16C,11.000000*%
%ADD17C,0.700000*%
%ADD18C,1.000000*%
%ADD19C,0.600000*%
%ADD20C,1.000000*%
%ADD21C,0.500000*%
%ADD22C,0.250000*%
%ADD23C,10.000000*%
%ADD24C,5.000000*%
%ADD25C,0.254000*%
G04 APERTURE END LIST*
D10*
D11*
X0Y-50800000D02*
X148971000Y-50800000D01*
X0Y0D02*
X0Y-50800000D01*
X148971000Y0D02*
X148971000Y-50800000D01*
X0Y0D02*
X148971000Y0D01*
D12*
X83250000Y-8000000D03*
X79750000Y-8000000D03*
X76250000Y-8000000D03*
X72750000Y-8000000D03*
X69250000Y-8000000D03*
X65750000Y-8000000D03*
D13*
X35760000Y-34250000D03*
X33790000Y-34250000D03*
X33790000Y-36196000D03*
X35760000Y-36196000D03*
X35760000Y-32304000D03*
X33790000Y-32304000D03*
X44910000Y-34250000D03*
X42940000Y-34250000D03*
X42940000Y-36196000D03*
X44910000Y-36196000D03*
X44910000Y-32304000D03*
X42940000Y-32304000D03*
D12*
X63250000Y-19150000D03*
X85750000Y-19150000D03*
D14*
X40600000Y-10000000D03*
X35600000Y-10000000D03*
X113400000Y-10000000D03*
X108400000Y-10000000D03*
D15*
X105760000Y-22935000D03*
X106760000Y-22935000D03*
X106760000Y-23935000D03*
X105760000Y-23935000D03*
X107760000Y-23935000D03*
X108760000Y-23935000D03*
X108760000Y-22935000D03*
X107760000Y-22935000D03*
X111760000Y-22935000D03*
X112760000Y-22935000D03*
X112760000Y-23935000D03*
X111760000Y-23935000D03*
X109760000Y-23935000D03*
X110760000Y-23935000D03*
X110760000Y-22935000D03*
X109760000Y-22935000D03*
X113760000Y-22935000D03*
X113760000Y-23935000D03*
X114760000Y-23935000D03*
X115760000Y-23935000D03*
X115760000Y-22935000D03*
X114760000Y-22935000D03*
X114760000Y-24935000D03*
X115760000Y-24935000D03*
X115760000Y-25935000D03*
X114760000Y-25935000D03*
X113760000Y-25935000D03*
X113760000Y-24935000D03*
X109760000Y-24935000D03*
X110760000Y-24935000D03*
X110760000Y-25935000D03*
X109760000Y-25935000D03*
X111760000Y-25935000D03*
X112760000Y-25935000D03*
X112760000Y-24935000D03*
X111760000Y-24935000D03*
X107760000Y-24935000D03*
X108760000Y-24935000D03*
X108760000Y-25935000D03*
X107760000Y-25935000D03*
X105760000Y-25935000D03*
X106760000Y-25935000D03*
X106760000Y-24935000D03*
X105760000Y-24935000D03*
X105760000Y-27705000D03*
X105760000Y-26925000D03*
X106760000Y-26925000D03*
X106760000Y-27705000D03*
X107760000Y-27705000D03*
X108760000Y-27705000D03*
X108760000Y-26925000D03*
X109760000Y-27705000D03*
X110760000Y-26925000D03*
X107760000Y-26925000D03*
X110760000Y-27705000D03*
X109760000Y-26925000D03*
X109760000Y-28705000D03*
X110760000Y-28705000D03*
X110760000Y-29705000D03*
X109760000Y-29705000D03*
X111760000Y-29705000D03*
X108760000Y-28705000D03*
X111760000Y-28705000D03*
X108760000Y-29705000D03*
X114760000Y-27705000D03*
X115760000Y-27705000D03*
X115760000Y-26925000D03*
X114760000Y-28705000D03*
X114760000Y-26925000D03*
X115760000Y-28705000D03*
X107760000Y-29705000D03*
X105760000Y-29705000D03*
X106760000Y-29705000D03*
X106760000Y-28705000D03*
X107760000Y-28705000D03*
X105760000Y-28705000D03*
X112760000Y-29705000D03*
X113760000Y-28705000D03*
X115760000Y-29705000D03*
X114760000Y-29705000D03*
X113760000Y-29705000D03*
X112760000Y-28705000D03*
X112760000Y-26925000D03*
X111760000Y-27705000D03*
X113760000Y-26925000D03*
X113760000Y-27705000D03*
X112760000Y-27705000D03*
X111760000Y-26925000D03*
D16*
X9398000Y-9525000D03*
D17*
X13523000Y-9525000D03*
X12324815Y-12451815D03*
X9398000Y-13650000D03*
X6471185Y-12451815D03*
X5273000Y-9525000D03*
X6471185Y-6598185D03*
X9398000Y-5400000D03*
X12324815Y-6598185D03*
D16*
X139573000Y-9525000D03*
D17*
X143698000Y-9525000D03*
X142499815Y-12451815D03*
X139573000Y-13650000D03*
X136646185Y-12451815D03*
X135448000Y-9525000D03*
X136646185Y-6598185D03*
X139573000Y-5400000D03*
X142499815Y-6598185D03*
D16*
X139573000Y-41275000D03*
D17*
X143698000Y-41275000D03*
X142499815Y-44201815D03*
X139573000Y-45400000D03*
X136646185Y-44201815D03*
X135448000Y-41275000D03*
X136646185Y-38348185D03*
X139573000Y-37150000D03*
X142499815Y-38348185D03*
D16*
X9398000Y-41275000D03*
D17*
X13523000Y-41275000D03*
X12324815Y-44201815D03*
X9398000Y-45400000D03*
X6471185Y-44201815D03*
X5273000Y-41275000D03*
X6471185Y-38348185D03*
X9398000Y-37150000D03*
X12324815Y-38348185D03*
D18*
X29750000Y-49650000D03*
D19*
X85100000Y-34650000D03*
X85100000Y-36700000D03*
X70150000Y-34700000D03*
X70150000Y-36750000D03*
D18*
X61750000Y-33700000D03*
X128150000Y-48200000D03*
D19*
X127050000Y-37950000D03*
X125250000Y-37950000D03*
X124050000Y-31950000D03*
X121200000Y-33900000D03*
X118700000Y-20700000D03*
X118700000Y-22950000D03*
D18*
X27300000Y-49800000D03*
D19*
X33250000Y-47800000D03*
D18*
X34150000Y-39200000D03*
X22150000Y-36700000D03*
D19*
X122300000Y-41450000D03*
X129700000Y-41200000D03*
X122700000Y-1700000D03*
X92200000Y-24700000D03*
X92600000Y-26700000D03*
X98850000Y-33450000D03*
X92200000Y-31700000D03*
X86700000Y-31650000D03*
X126100000Y-29500000D03*
X126100000Y-27200000D03*
X23050000Y-45550000D03*
X29000000Y-41400000D03*
X23900000Y-44100000D03*
X75650000Y-30500000D03*
X76150000Y-37200000D03*
D18*
X35900000Y-43800000D03*
D19*
X23800000Y-48550000D03*
X23800000Y-47900000D03*
X23800000Y-47250000D03*
X44700000Y-45200000D03*
X41900000Y-45200000D03*
X29400000Y-43250000D03*
X29000000Y-39550000D03*
X43300000Y-46700000D03*
X100550000Y-10500000D03*
X92350000Y-10500000D03*
X122650000Y-46000000D03*
X122450000Y-36850000D03*
X126150000Y-34700000D03*
X86700000Y-29100000D03*
X90800000Y-38000000D03*
X80800000Y-34400000D03*
D20*
X29750000Y-49650000D02*
X55600000Y-49650000D01*
D21*
X85100000Y-36700000D02*
X85100000Y-34650000D01*
X70150000Y-36750000D02*
X70150000Y-34700000D01*
D20*
X55600000Y-49650000D02*
X126700000Y-49650000D01*
X61750000Y-33700000D02*
X61750000Y-43500000D01*
X61750000Y-43500000D02*
X55600000Y-49650000D01*
D21*
X125250000Y-37950000D02*
X127050000Y-37950000D01*
D20*
X126700000Y-49650000D02*
X128150000Y-48200000D01*
D21*
X122725736Y-31950000D02*
X124050000Y-31950000D01*
X121200000Y-33900000D02*
X121200000Y-33475736D01*
X121200000Y-33475736D02*
X122725736Y-31950000D01*
X118700000Y-22950000D02*
X118700000Y-20700000D01*
D20*
X33250000Y-47800000D02*
X32750000Y-48300000D01*
X32750000Y-48300000D02*
X28800000Y-48300000D01*
X28800000Y-48300000D02*
X27300000Y-49800000D01*
X30050000Y-36700000D02*
X32550000Y-39200000D01*
X32550000Y-39200000D02*
X34150000Y-39200000D01*
X22857106Y-36700000D02*
X30050000Y-36700000D01*
X22150000Y-36700000D02*
X22857106Y-36700000D01*
D21*
X129700000Y-41200000D02*
X122550000Y-41200000D01*
X122550000Y-41200000D02*
X122300000Y-41450000D01*
X83550000Y-700000D02*
X121700000Y-700000D01*
X121700000Y-700000D02*
X122700000Y-1700000D01*
X76250000Y-8000000D02*
X83550000Y-700000D01*
X92600000Y-26700000D02*
X92600000Y-25100000D01*
X92600000Y-25100000D02*
X92200000Y-24700000D01*
X92200000Y-31700000D02*
X97100000Y-31700000D01*
X97100000Y-31700000D02*
X98850000Y-33450000D01*
X86700000Y-31650000D02*
X92150000Y-31650000D01*
X92150000Y-31650000D02*
X92200000Y-31700000D01*
X126100000Y-27200000D02*
X126100000Y-29500000D01*
D22*
X23900000Y-44100000D02*
X23900000Y-44700000D01*
X23900000Y-44700000D02*
X23050000Y-45550000D01*
X23900000Y-44100000D02*
X23899999Y-44100000D01*
D21*
X23900000Y-44100000D02*
X26600000Y-41400000D01*
X26600000Y-41400000D02*
X29000000Y-41400000D01*
X76150000Y-36775736D02*
X76150000Y-31000000D01*
X76150000Y-31000000D02*
X75650000Y-30500000D01*
X76150000Y-37200000D02*
X76150000Y-36775736D01*
D23*
X42800000Y-13900000D02*
X48050000Y-19150000D01*
X48050000Y-19150000D02*
X63250000Y-19150000D01*
X42650000Y-13900000D02*
X42800000Y-13900000D01*
D24*
X40600000Y-11850000D02*
X42650000Y-13900000D01*
X40600000Y-10000000D02*
X40600000Y-11850000D01*
X114700000Y-11300000D02*
X114700000Y-19300000D01*
X113400000Y-10000000D02*
X114700000Y-11300000D01*
X113400000Y-10000000D02*
X113400000Y-12600000D01*
X113400000Y-12600000D02*
X109200000Y-16800000D01*
D23*
X88100000Y-16800000D02*
X109200000Y-16800000D01*
X85750000Y-19150000D02*
X88100000Y-16800000D01*
D25*
G36*
X76429472Y-5873156D02*
X75828770Y-5872632D01*
X75046726Y-6195766D01*
X74499570Y-6741967D01*
X73956422Y-6197869D01*
X73174943Y-5873370D01*
X72328770Y-5872632D01*
X71546726Y-6195766D01*
X70999570Y-6741967D01*
X70456422Y-6197869D01*
X69674943Y-5873370D01*
X68828770Y-5872632D01*
X68046726Y-6195766D01*
X67447869Y-6793578D01*
X67239579Y-7295195D01*
X67169387Y-7125736D01*
X66902532Y-7027073D01*
X65929605Y-8000000D01*
X66902532Y-8972927D01*
X67169387Y-8874264D01*
X67235875Y-8695299D01*
X67445766Y-9203274D01*
X68043578Y-9802131D01*
X68825057Y-10126630D01*
X69671230Y-10127368D01*
X70453274Y-9804234D01*
X71000430Y-9258033D01*
X71543578Y-9802131D01*
X72325057Y-10126630D01*
X73171230Y-10127368D01*
X73953274Y-9804234D01*
X74500430Y-9258033D01*
X75043578Y-9802131D01*
X75825057Y-10126630D01*
X76671230Y-10127368D01*
X77453274Y-9804234D01*
X78000430Y-9258033D01*
X78543578Y-9802131D01*
X79325057Y-10126630D01*
X80171230Y-10127368D01*
X80953274Y-9804234D01*
X81500430Y-9258033D01*
X82043578Y-9802131D01*
X82825057Y-10126630D01*
X83671230Y-10127368D01*
X84453274Y-9804234D01*
X85052131Y-9206422D01*
X85376630Y-8424943D01*
X85377368Y-7578770D01*
X85054234Y-6796726D01*
X84456422Y-6197869D01*
X83674943Y-5873370D01*
X82828770Y-5872632D01*
X82046726Y-6195766D01*
X81499570Y-6741967D01*
X80956422Y-6197869D01*
X80280267Y-5917105D01*
X84120372Y-2077000D01*
X121129628Y-2077000D01*
X121440000Y-2387372D01*
X121489543Y-2507275D01*
X121890614Y-2909047D01*
X122414907Y-3126752D01*
X122982603Y-3127248D01*
X123507275Y-2910457D01*
X123909047Y-2509386D01*
X124126752Y-1985093D01*
X124127248Y-1417397D01*
X124038247Y-1202000D01*
X147769000Y-1202000D01*
X147769000Y-49598000D01*
X129052925Y-49598000D01*
X129299459Y-49351466D01*
X129528499Y-49122825D01*
X129776717Y-48525050D01*
X129777282Y-47877789D01*
X129530108Y-47279582D01*
X129072825Y-46821501D01*
X128475050Y-46573283D01*
X128150001Y-46572999D01*
X128149999Y-46572999D01*
X127827789Y-46572718D01*
X127229582Y-46819892D01*
X126771501Y-47277175D01*
X126771218Y-47277857D01*
X126026074Y-48023000D01*
X59527926Y-48023000D01*
X62900460Y-44650465D01*
X62900463Y-44650463D01*
X63253152Y-44122626D01*
X63377000Y-43500000D01*
X63377000Y-41732603D01*
X120872752Y-41732603D01*
X121089543Y-42257275D01*
X121490614Y-42659047D01*
X122014907Y-42876752D01*
X122582603Y-42877248D01*
X123107275Y-42660457D01*
X123190878Y-42577000D01*
X129295091Y-42577000D01*
X129414907Y-42626752D01*
X129982603Y-42627248D01*
X130079020Y-42587409D01*
X132944852Y-42587409D01*
X133951627Y-45023990D01*
X135814205Y-46889822D01*
X138249025Y-47900848D01*
X140885409Y-47903148D01*
X143321990Y-46896373D01*
X145187822Y-45033795D01*
X146198848Y-42598975D01*
X146201148Y-39962591D01*
X145194373Y-37526010D01*
X143331795Y-35660178D01*
X140896975Y-34649152D01*
X138260591Y-34646852D01*
X135824010Y-35653627D01*
X133958178Y-37516205D01*
X132947152Y-39951025D01*
X132944852Y-42587409D01*
X130079020Y-42587409D01*
X130507275Y-42410457D01*
X130909047Y-42009386D01*
X131126752Y-41485093D01*
X131127248Y-40917397D01*
X130910457Y-40392725D01*
X130509386Y-39990953D01*
X129985093Y-39773248D01*
X129417397Y-39772752D01*
X129295788Y-39823000D01*
X122550000Y-39823000D01*
X122023045Y-39927818D01*
X121659885Y-40170473D01*
X121492725Y-40239543D01*
X121090953Y-40640614D01*
X120873248Y-41164907D01*
X120872752Y-41732603D01*
X63377000Y-41732603D01*
X63377000Y-34982603D01*
X68722752Y-34982603D01*
X68773000Y-35104212D01*
X68773000Y-36345091D01*
X68723248Y-36464907D01*
X68722752Y-37032603D01*
X68939543Y-37557275D01*
X69340614Y-37959047D01*
X69864907Y-38176752D01*
X70432603Y-38177248D01*
X70957275Y-37960457D01*
X71359047Y-37559386D01*
X71576752Y-37035093D01*
X71577248Y-36467397D01*
X71527000Y-36345788D01*
X71527000Y-35104909D01*
X71576752Y-34985093D01*
X71577248Y-34417397D01*
X71360457Y-33892725D01*
X70959386Y-33490953D01*
X70435093Y-33273248D01*
X69867397Y-33272752D01*
X69342725Y-33489543D01*
X68940953Y-33890614D01*
X68723248Y-34414907D01*
X68722752Y-34982603D01*
X63377000Y-34982603D01*
X63377000Y-33700847D01*
X63377282Y-33377789D01*
X63130108Y-32779582D01*
X62672825Y-32321501D01*
X62075050Y-32073283D01*
X61427789Y-32072718D01*
X60829582Y-32319892D01*
X60371501Y-32777175D01*
X60123283Y-33374950D01*
X60122718Y-34022211D01*
X60123000Y-34022893D01*
X60123000Y-42826075D01*
X54926074Y-48023000D01*
X34832643Y-48023000D01*
X34877001Y-47800000D01*
X34753152Y-47177374D01*
X34400463Y-46649537D01*
X33872626Y-46296848D01*
X33250000Y-46172999D01*
X32627374Y-46296848D01*
X32099537Y-46649537D01*
X32076074Y-46673000D01*
X28800000Y-46673000D01*
X28177374Y-46796848D01*
X27649537Y-47149537D01*
X27649535Y-47149540D01*
X26149968Y-48649106D01*
X25921501Y-48877175D01*
X25673283Y-49474950D01*
X25673176Y-49598000D01*
X1202000Y-49598000D01*
X1202000Y-42587409D01*
X2769852Y-42587409D01*
X3776627Y-45023990D01*
X5639205Y-46889822D01*
X8074025Y-47900848D01*
X10710409Y-47903148D01*
X13146990Y-46896373D01*
X14212618Y-45832603D01*
X21622752Y-45832603D01*
X21839543Y-46357275D01*
X22240614Y-46759047D01*
X22764907Y-46976752D01*
X23332603Y-46977248D01*
X23857275Y-46760457D01*
X24259047Y-46359386D01*
X24435034Y-45935561D01*
X24785295Y-45585300D01*
X24785298Y-45585298D01*
X25056697Y-45179120D01*
X25056698Y-45179119D01*
X25111551Y-44903356D01*
X25159507Y-44787865D01*
X27170372Y-42777000D01*
X28595091Y-42777000D01*
X28714907Y-42826752D01*
X29282603Y-42827248D01*
X29807275Y-42610457D01*
X30209047Y-42209386D01*
X30426752Y-41685093D01*
X30427248Y-41117397D01*
X30210457Y-40592725D01*
X29809386Y-40190953D01*
X29285093Y-39973248D01*
X28717397Y-39972752D01*
X28595788Y-40023000D01*
X26600000Y-40023000D01*
X26073045Y-40127818D01*
X25626314Y-40426314D01*
X23212628Y-42840000D01*
X23092725Y-42889543D01*
X22690953Y-43290614D01*
X22473248Y-43814907D01*
X22472873Y-44244447D01*
X22242725Y-44339543D01*
X21840953Y-44740614D01*
X21623248Y-45264907D01*
X21622752Y-45832603D01*
X14212618Y-45832603D01*
X15012822Y-45033795D01*
X16023848Y-42598975D01*
X16026148Y-39962591D01*
X15019373Y-37526010D01*
X14516453Y-37022211D01*
X20522718Y-37022211D01*
X20769892Y-37620418D01*
X21227175Y-38078499D01*
X21824950Y-38326717D01*
X22472211Y-38327282D01*
X22472893Y-38327000D01*
X29376074Y-38327000D01*
X31399537Y-40350463D01*
X31927374Y-40703152D01*
X32550000Y-40827000D01*
X34149153Y-40827000D01*
X34472211Y-40827282D01*
X35070418Y-40580108D01*
X35528499Y-40122825D01*
X35776717Y-39525050D01*
X35777282Y-38877789D01*
X35546015Y-38318079D01*
X36745000Y-38318079D01*
X37162641Y-38239494D01*
X37546219Y-37992669D01*
X37803548Y-37616056D01*
X37894079Y-37169000D01*
X37894079Y-31331000D01*
X40805921Y-31331000D01*
X40805921Y-37169000D01*
X40884506Y-37586641D01*
X41131331Y-37970219D01*
X41507944Y-38227548D01*
X41955000Y-38318079D01*
X45895000Y-38318079D01*
X46312641Y-38239494D01*
X46696219Y-37992669D01*
X46953548Y-37616056D01*
X47044079Y-37169000D01*
X47044079Y-31331000D01*
X46965494Y-30913359D01*
X46881356Y-30782603D01*
X74222752Y-30782603D01*
X74439543Y-31307275D01*
X74773000Y-31641315D01*
X74773000Y-36795091D01*
X74723248Y-36914907D01*
X74722752Y-37482603D01*
X74939543Y-38007275D01*
X75340614Y-38409047D01*
X75864907Y-38626752D01*
X76432603Y-38627248D01*
X76957275Y-38410457D01*
X77135439Y-38232603D01*
X123822752Y-38232603D01*
X124039543Y-38757275D01*
X124440614Y-39159047D01*
X124964907Y-39376752D01*
X125532603Y-39377248D01*
X125654212Y-39327000D01*
X126645091Y-39327000D01*
X126764907Y-39376752D01*
X127332603Y-39377248D01*
X127857275Y-39160457D01*
X128259047Y-38759386D01*
X128476752Y-38235093D01*
X128477248Y-37667397D01*
X128260457Y-37142725D01*
X127859386Y-36740953D01*
X127335093Y-36523248D01*
X126767397Y-36522752D01*
X126645788Y-36573000D01*
X125654909Y-36573000D01*
X125535093Y-36523248D01*
X124967397Y-36522752D01*
X124442725Y-36739543D01*
X124040953Y-37140614D01*
X123823248Y-37664907D01*
X123822752Y-38232603D01*
X77135439Y-38232603D01*
X77359047Y-38009386D01*
X77576752Y-37485093D01*
X77577248Y-36917397D01*
X77527000Y-36795788D01*
X77527000Y-34932603D01*
X83672752Y-34932603D01*
X83723000Y-35054212D01*
X83723000Y-36295091D01*
X83673248Y-36414907D01*
X83672752Y-36982603D01*
X83889543Y-37507275D01*
X84290614Y-37909047D01*
X84814907Y-38126752D01*
X85382603Y-38127248D01*
X85907275Y-37910457D01*
X86309047Y-37509386D01*
X86526752Y-36985093D01*
X86527248Y-36417397D01*
X86477000Y-36295788D01*
X86477000Y-35054909D01*
X86526752Y-34935093D01*
X86527248Y-34367397D01*
X86310457Y-33842725D01*
X85909386Y-33440953D01*
X85385093Y-33223248D01*
X84817397Y-33222752D01*
X84292725Y-33439543D01*
X83890953Y-33840614D01*
X83673248Y-34364907D01*
X83672752Y-34932603D01*
X77527000Y-34932603D01*
X77527000Y-31932603D01*
X85272752Y-31932603D01*
X85489543Y-32457275D01*
X85890614Y-32859047D01*
X86414907Y-33076752D01*
X86982603Y-33077248D01*
X87104212Y-33027000D01*
X91674677Y-33027000D01*
X91914907Y-33126752D01*
X92482603Y-33127248D01*
X92604212Y-33077000D01*
X96529628Y-33077000D01*
X97590000Y-34137372D01*
X97639543Y-34257275D01*
X98040614Y-34659047D01*
X98564907Y-34876752D01*
X99132603Y-34877248D01*
X99657275Y-34660457D01*
X100059047Y-34259386D01*
X100090930Y-34182603D01*
X119772752Y-34182603D01*
X119989543Y-34707275D01*
X120390614Y-35109047D01*
X120914907Y-35326752D01*
X121482603Y-35327248D01*
X122007275Y-35110457D01*
X122409047Y-34709386D01*
X122626752Y-34185093D01*
X122626917Y-33996191D01*
X123296108Y-33327000D01*
X123645091Y-33327000D01*
X123764907Y-33376752D01*
X124332603Y-33377248D01*
X124857275Y-33160457D01*
X125259047Y-32759386D01*
X125476752Y-32235093D01*
X125477248Y-31667397D01*
X125260457Y-31142725D01*
X124859386Y-30740953D01*
X124335093Y-30523248D01*
X123767397Y-30522752D01*
X123645788Y-30573000D01*
X122725736Y-30573000D01*
X122198781Y-30677818D01*
X121752050Y-30976314D01*
X120226314Y-32502050D01*
X119927818Y-32948781D01*
X119823000Y-33475736D01*
X119823000Y-33495091D01*
X119773248Y-33614907D01*
X119772752Y-34182603D01*
X100090930Y-34182603D01*
X100276752Y-33735093D01*
X100277248Y-33167397D01*
X100060457Y-32642725D01*
X99659386Y-32240953D01*
X99537865Y-32190493D01*
X98073686Y-30726314D01*
X97626955Y-30427818D01*
X97100000Y-30323000D01*
X92604909Y-30323000D01*
X92485093Y-30273248D01*
X91917397Y-30272752D01*
X91916797Y-30273000D01*
X87104909Y-30273000D01*
X86985093Y-30223248D01*
X86417397Y-30222752D01*
X85892725Y-30439543D01*
X85490953Y-30840614D01*
X85273248Y-31364907D01*
X85272752Y-31932603D01*
X77527000Y-31932603D01*
X77527000Y-31000000D01*
X77422182Y-30473045D01*
X77123686Y-30026314D01*
X76910000Y-29812628D01*
X76860457Y-29692725D01*
X76459386Y-29290953D01*
X75935093Y-29073248D01*
X75367397Y-29072752D01*
X74842725Y-29289543D01*
X74440953Y-29690614D01*
X74223248Y-30214907D01*
X74222752Y-30782603D01*
X46881356Y-30782603D01*
X46718669Y-30529781D01*
X46342056Y-30272452D01*
X45895000Y-30181921D01*
X41955000Y-30181921D01*
X41537359Y-30260506D01*
X41153781Y-30507331D01*
X40896452Y-30883944D01*
X40805921Y-31331000D01*
X37894079Y-31331000D01*
X37815494Y-30913359D01*
X37568669Y-30529781D01*
X37192056Y-30272452D01*
X36745000Y-30181921D01*
X32805000Y-30181921D01*
X32387359Y-30260506D01*
X32003781Y-30507331D01*
X31746452Y-30883944D01*
X31655921Y-31331000D01*
X31655921Y-36004995D01*
X31200463Y-35549537D01*
X30672626Y-35196848D01*
X30050000Y-35073000D01*
X22150847Y-35073000D01*
X21827789Y-35072718D01*
X21229582Y-35319892D01*
X20771501Y-35777175D01*
X20523283Y-36374950D01*
X20522718Y-37022211D01*
X14516453Y-37022211D01*
X13156795Y-35660178D01*
X10721975Y-34649152D01*
X8085591Y-34646852D01*
X5649010Y-35653627D01*
X3783178Y-37516205D01*
X2772152Y-39951025D01*
X2769852Y-42587409D01*
X1202000Y-42587409D01*
X1202000Y-10837409D01*
X2769852Y-10837409D01*
X3776627Y-13273990D01*
X5639205Y-15139822D01*
X8074025Y-16150848D01*
X10710409Y-16153148D01*
X13146990Y-15146373D01*
X15012822Y-13283795D01*
X16023848Y-10848975D01*
X16024186Y-10460838D01*
X33272597Y-10460838D01*
X33626115Y-11316418D01*
X34280139Y-11971585D01*
X35135100Y-12326596D01*
X36060838Y-12327403D01*
X36905207Y-11978517D01*
X36523000Y-13900000D01*
X36989390Y-16244701D01*
X38317557Y-18232443D01*
X38769608Y-18534494D01*
X43717557Y-23482443D01*
X45705298Y-24810610D01*
X48050000Y-25277000D01*
X63250000Y-25277000D01*
X65594701Y-24810610D01*
X67582443Y-23482443D01*
X68910610Y-21494701D01*
X69377000Y-19150000D01*
X79623000Y-19150000D01*
X80089390Y-21494702D01*
X81417557Y-23482443D01*
X83405298Y-24810610D01*
X85750000Y-25277000D01*
X87230034Y-24982603D01*
X90772752Y-24982603D01*
X90989543Y-25507275D01*
X91223000Y-25741140D01*
X91223000Y-26295091D01*
X91173248Y-26414907D01*
X91172752Y-26982603D01*
X91389543Y-27507275D01*
X91790614Y-27909047D01*
X92314907Y-28126752D01*
X92882603Y-28127248D01*
X93407275Y-27910457D01*
X93809047Y-27509386D01*
X94026752Y-26985093D01*
X94027248Y-26417397D01*
X93977000Y-26295788D01*
X93977000Y-25100000D01*
X93872182Y-24573045D01*
X93573686Y-24126314D01*
X93460000Y-24012628D01*
X93410457Y-23892725D01*
X93009386Y-23490953D01*
X92485093Y-23273248D01*
X91917397Y-23272752D01*
X91392725Y-23489543D01*
X90990953Y-23890614D01*
X90773248Y-24414907D01*
X90772752Y-24982603D01*
X87230034Y-24982603D01*
X88094702Y-24810610D01*
X90082443Y-23482443D01*
X90637886Y-22927000D01*
X104110921Y-22927000D01*
X104110921Y-30205000D01*
X104189506Y-30622641D01*
X104436331Y-31006219D01*
X104812944Y-31263548D01*
X105260000Y-31354079D01*
X116260000Y-31354079D01*
X116677641Y-31275494D01*
X117061219Y-31028669D01*
X117318548Y-30652056D01*
X117409079Y-30205000D01*
X117409079Y-27482603D01*
X124672752Y-27482603D01*
X124723000Y-27604212D01*
X124723000Y-29095091D01*
X124673248Y-29214907D01*
X124672752Y-29782603D01*
X124889543Y-30307275D01*
X125290614Y-30709047D01*
X125814907Y-30926752D01*
X126382603Y-30927248D01*
X126907275Y-30710457D01*
X127309047Y-30309386D01*
X127526752Y-29785093D01*
X127527248Y-29217397D01*
X127477000Y-29095788D01*
X127477000Y-27604909D01*
X127526752Y-27485093D01*
X127527248Y-26917397D01*
X127310457Y-26392725D01*
X126909386Y-25990953D01*
X126385093Y-25773248D01*
X125817397Y-25772752D01*
X125292725Y-25989543D01*
X124890953Y-26390614D01*
X124673248Y-26914907D01*
X124672752Y-27482603D01*
X117409079Y-27482603D01*
X117409079Y-23562538D01*
X117489543Y-23757275D01*
X117890614Y-24159047D01*
X118414907Y-24376752D01*
X118982603Y-24377248D01*
X119507275Y-24160457D01*
X119909047Y-23759386D01*
X120126752Y-23235093D01*
X120127248Y-22667397D01*
X120077000Y-22545788D01*
X120077000Y-21104909D01*
X120126752Y-20985093D01*
X120127248Y-20417397D01*
X119910457Y-19892725D01*
X119509386Y-19490953D01*
X118985093Y-19273248D01*
X118417397Y-19272752D01*
X118324810Y-19311008D01*
X118327000Y-19300000D01*
X118327000Y-11300000D01*
X118234985Y-10837409D01*
X132944852Y-10837409D01*
X133951627Y-13273990D01*
X135814205Y-15139822D01*
X138249025Y-16150848D01*
X140885409Y-16153148D01*
X143321990Y-15146373D01*
X145187822Y-13283795D01*
X146198848Y-10848975D01*
X146201148Y-8212591D01*
X145194373Y-5776010D01*
X143331795Y-3910178D01*
X140896975Y-2899152D01*
X138260591Y-2896852D01*
X135824010Y-3903627D01*
X133958178Y-5766205D01*
X132947152Y-8201025D01*
X132944852Y-10837409D01*
X118234985Y-10837409D01*
X118050911Y-9912007D01*
X117721753Y-9419387D01*
X117264677Y-8735324D01*
X115964676Y-7435324D01*
X114787993Y-6649089D01*
X113400000Y-6373000D01*
X112012007Y-6649089D01*
X110835324Y-7435324D01*
X110150671Y-8459978D01*
X109719861Y-8028415D01*
X108864900Y-7673404D01*
X107939162Y-7672597D01*
X107083582Y-8026115D01*
X106428415Y-8680139D01*
X106073404Y-9535100D01*
X106072597Y-10460838D01*
X106160260Y-10673000D01*
X88100000Y-10673000D01*
X85755298Y-11139390D01*
X83767557Y-12467557D01*
X81417557Y-14817557D01*
X80089390Y-16805298D01*
X79623000Y-19150000D01*
X69377000Y-19150000D01*
X68910610Y-16805299D01*
X67582443Y-14817557D01*
X65594701Y-13489390D01*
X63250000Y-13023000D01*
X50587886Y-13023000D01*
X47132443Y-9567557D01*
X46511315Y-9152532D01*
X64777073Y-9152532D01*
X64875736Y-9419387D01*
X65485461Y-9645908D01*
X66135460Y-9621856D01*
X66624264Y-9419387D01*
X66722927Y-9152532D01*
X65750000Y-8179605D01*
X64777073Y-9152532D01*
X46511315Y-9152532D01*
X45144702Y-8239390D01*
X43480787Y-7908417D01*
X43365222Y-7735461D01*
X64104092Y-7735461D01*
X64128144Y-8385460D01*
X64330613Y-8874264D01*
X64597468Y-8972927D01*
X65570395Y-8000000D01*
X64597468Y-7027073D01*
X64330613Y-7125736D01*
X64104092Y-7735461D01*
X43365222Y-7735461D01*
X43164676Y-7435324D01*
X42284888Y-6847468D01*
X64777073Y-6847468D01*
X65750000Y-7820395D01*
X66722927Y-6847468D01*
X66624264Y-6580613D01*
X66014539Y-6354092D01*
X65364540Y-6378144D01*
X64875736Y-6580613D01*
X64777073Y-6847468D01*
X42284888Y-6847468D01*
X41987993Y-6649089D01*
X40600000Y-6373000D01*
X39212007Y-6649089D01*
X38035324Y-7435324D01*
X37350671Y-8459978D01*
X36919861Y-8028415D01*
X36064900Y-7673404D01*
X35139162Y-7672597D01*
X34283582Y-8026115D01*
X33628415Y-8680139D01*
X33273404Y-9535100D01*
X33272597Y-10460838D01*
X16024186Y-10460838D01*
X16026148Y-8212591D01*
X15019373Y-5776010D01*
X13156795Y-3910178D01*
X10721975Y-2899152D01*
X8085591Y-2896852D01*
X5649010Y-3903627D01*
X3783178Y-5766205D01*
X2772152Y-8201025D01*
X2769852Y-10837409D01*
X1202000Y-10837409D01*
X1202000Y-1202000D01*
X81100628Y-1202000D01*
X76429472Y-5873156D01*
X76429472Y-5873156D01*
G37*
X76429472Y-5873156D02*
X75828770Y-5872632D01*
X75046726Y-6195766D01*
X74499570Y-6741967D01*
X73956422Y-6197869D01*
X73174943Y-5873370D01*
X72328770Y-5872632D01*
X71546726Y-6195766D01*
X70999570Y-6741967D01*
X70456422Y-6197869D01*
X69674943Y-5873370D01*
X68828770Y-5872632D01*
X68046726Y-6195766D01*
X67447869Y-6793578D01*
X67239579Y-7295195D01*
X67169387Y-7125736D01*
X66902532Y-7027073D01*
X65929605Y-8000000D01*
X66902532Y-8972927D01*
X67169387Y-8874264D01*
X67235875Y-8695299D01*
X67445766Y-9203274D01*
X68043578Y-9802131D01*
X68825057Y-10126630D01*
X69671230Y-10127368D01*
X70453274Y-9804234D01*
X71000430Y-9258033D01*
X71543578Y-9802131D01*
X72325057Y-10126630D01*
X73171230Y-10127368D01*
X73953274Y-9804234D01*
X74500430Y-9258033D01*
X75043578Y-9802131D01*
X75825057Y-10126630D01*
X76671230Y-10127368D01*
X77453274Y-9804234D01*
X78000430Y-9258033D01*
X78543578Y-9802131D01*
X79325057Y-10126630D01*
X80171230Y-10127368D01*
X80953274Y-9804234D01*
X81500430Y-9258033D01*
X82043578Y-9802131D01*
X82825057Y-10126630D01*
X83671230Y-10127368D01*
X84453274Y-9804234D01*
X85052131Y-9206422D01*
X85376630Y-8424943D01*
X85377368Y-7578770D01*
X85054234Y-6796726D01*
X84456422Y-6197869D01*
X83674943Y-5873370D01*
X82828770Y-5872632D01*
X82046726Y-6195766D01*
X81499570Y-6741967D01*
X80956422Y-6197869D01*
X80280267Y-5917105D01*
X84120372Y-2077000D01*
X121129628Y-2077000D01*
X121440000Y-2387372D01*
X121489543Y-2507275D01*
X121890614Y-2909047D01*
X122414907Y-3126752D01*
X122982603Y-3127248D01*
X123507275Y-2910457D01*
X123909047Y-2509386D01*
X124126752Y-1985093D01*
X124127248Y-1417397D01*
X124038247Y-1202000D01*
X147769000Y-1202000D01*
X147769000Y-49598000D01*
X129052925Y-49598000D01*
X129299459Y-49351466D01*
X129528499Y-49122825D01*
X129776717Y-48525050D01*
X129777282Y-47877789D01*
X129530108Y-47279582D01*
X129072825Y-46821501D01*
X128475050Y-46573283D01*
X128150001Y-46572999D01*
X128149999Y-46572999D01*
X127827789Y-46572718D01*
X127229582Y-46819892D01*
X126771501Y-47277175D01*
X126771218Y-47277857D01*
X126026074Y-48023000D01*
X59527926Y-48023000D01*
X62900460Y-44650465D01*
X62900463Y-44650463D01*
X63253152Y-44122626D01*
X63377000Y-43500000D01*
X63377000Y-41732603D01*
X120872752Y-41732603D01*
X121089543Y-42257275D01*
X121490614Y-42659047D01*
X122014907Y-42876752D01*
X122582603Y-42877248D01*
X123107275Y-42660457D01*
X123190878Y-42577000D01*
X129295091Y-42577000D01*
X129414907Y-42626752D01*
X129982603Y-42627248D01*
X130079020Y-42587409D01*
X132944852Y-42587409D01*
X133951627Y-45023990D01*
X135814205Y-46889822D01*
X138249025Y-47900848D01*
X140885409Y-47903148D01*
X143321990Y-46896373D01*
X145187822Y-45033795D01*
X146198848Y-42598975D01*
X146201148Y-39962591D01*
X145194373Y-37526010D01*
X143331795Y-35660178D01*
X140896975Y-34649152D01*
X138260591Y-34646852D01*
X135824010Y-35653627D01*
X133958178Y-37516205D01*
X132947152Y-39951025D01*
X132944852Y-42587409D01*
X130079020Y-42587409D01*
X130507275Y-42410457D01*
X130909047Y-42009386D01*
X131126752Y-41485093D01*
X131127248Y-40917397D01*
X130910457Y-40392725D01*
X130509386Y-39990953D01*
X129985093Y-39773248D01*
X129417397Y-39772752D01*
X129295788Y-39823000D01*
X122550000Y-39823000D01*
X122023045Y-39927818D01*
X121659885Y-40170473D01*
X121492725Y-40239543D01*
X121090953Y-40640614D01*
X120873248Y-41164907D01*
X120872752Y-41732603D01*
X63377000Y-41732603D01*
X63377000Y-34982603D01*
X68722752Y-34982603D01*
X68773000Y-35104212D01*
X68773000Y-36345091D01*
X68723248Y-36464907D01*
X68722752Y-37032603D01*
X68939543Y-37557275D01*
X69340614Y-37959047D01*
X69864907Y-38176752D01*
X70432603Y-38177248D01*
X70957275Y-37960457D01*
X71359047Y-37559386D01*
X71576752Y-37035093D01*
X71577248Y-36467397D01*
X71527000Y-36345788D01*
X71527000Y-35104909D01*
X71576752Y-34985093D01*
X71577248Y-34417397D01*
X71360457Y-33892725D01*
X70959386Y-33490953D01*
X70435093Y-33273248D01*
X69867397Y-33272752D01*
X69342725Y-33489543D01*
X68940953Y-33890614D01*
X68723248Y-34414907D01*
X68722752Y-34982603D01*
X63377000Y-34982603D01*
X63377000Y-33700847D01*
X63377282Y-33377789D01*
X63130108Y-32779582D01*
X62672825Y-32321501D01*
X62075050Y-32073283D01*
X61427789Y-32072718D01*
X60829582Y-32319892D01*
X60371501Y-32777175D01*
X60123283Y-33374950D01*
X60122718Y-34022211D01*
X60123000Y-34022893D01*
X60123000Y-42826075D01*
X54926074Y-48023000D01*
X34832643Y-48023000D01*
X34877001Y-47800000D01*
X34753152Y-47177374D01*
X34400463Y-46649537D01*
X33872626Y-46296848D01*
X33250000Y-46172999D01*
X32627374Y-46296848D01*
X32099537Y-46649537D01*
X32076074Y-46673000D01*
X28800000Y-46673000D01*
X28177374Y-46796848D01*
X27649537Y-47149537D01*
X27649535Y-47149540D01*
X26149968Y-48649106D01*
X25921501Y-48877175D01*
X25673283Y-49474950D01*
X25673176Y-49598000D01*
X1202000Y-49598000D01*
X1202000Y-42587409D01*
X2769852Y-42587409D01*
X3776627Y-45023990D01*
X5639205Y-46889822D01*
X8074025Y-47900848D01*
X10710409Y-47903148D01*
X13146990Y-46896373D01*
X14212618Y-45832603D01*
X21622752Y-45832603D01*
X21839543Y-46357275D01*
X22240614Y-46759047D01*
X22764907Y-46976752D01*
X23332603Y-46977248D01*
X23857275Y-46760457D01*
X24259047Y-46359386D01*
X24435034Y-45935561D01*
X24785295Y-45585300D01*
X24785298Y-45585298D01*
X25056697Y-45179120D01*
X25056698Y-45179119D01*
X25111551Y-44903356D01*
X25159507Y-44787865D01*
X27170372Y-42777000D01*
X28595091Y-42777000D01*
X28714907Y-42826752D01*
X29282603Y-42827248D01*
X29807275Y-42610457D01*
X30209047Y-42209386D01*
X30426752Y-41685093D01*
X30427248Y-41117397D01*
X30210457Y-40592725D01*
X29809386Y-40190953D01*
X29285093Y-39973248D01*
X28717397Y-39972752D01*
X28595788Y-40023000D01*
X26600000Y-40023000D01*
X26073045Y-40127818D01*
X25626314Y-40426314D01*
X23212628Y-42840000D01*
X23092725Y-42889543D01*
X22690953Y-43290614D01*
X22473248Y-43814907D01*
X22472873Y-44244447D01*
X22242725Y-44339543D01*
X21840953Y-44740614D01*
X21623248Y-45264907D01*
X21622752Y-45832603D01*
X14212618Y-45832603D01*
X15012822Y-45033795D01*
X16023848Y-42598975D01*
X16026148Y-39962591D01*
X15019373Y-37526010D01*
X14516453Y-37022211D01*
X20522718Y-37022211D01*
X20769892Y-37620418D01*
X21227175Y-38078499D01*
X21824950Y-38326717D01*
X22472211Y-38327282D01*
X22472893Y-38327000D01*
X29376074Y-38327000D01*
X31399537Y-40350463D01*
X31927374Y-40703152D01*
X32550000Y-40827000D01*
X34149153Y-40827000D01*
X34472211Y-40827282D01*
X35070418Y-40580108D01*
X35528499Y-40122825D01*
X35776717Y-39525050D01*
X35777282Y-38877789D01*
X35546015Y-38318079D01*
X36745000Y-38318079D01*
X37162641Y-38239494D01*
X37546219Y-37992669D01*
X37803548Y-37616056D01*
X37894079Y-37169000D01*
X37894079Y-31331000D01*
X40805921Y-31331000D01*
X40805921Y-37169000D01*
X40884506Y-37586641D01*
X41131331Y-37970219D01*
X41507944Y-38227548D01*
X41955000Y-38318079D01*
X45895000Y-38318079D01*
X46312641Y-38239494D01*
X46696219Y-37992669D01*
X46953548Y-37616056D01*
X47044079Y-37169000D01*
X47044079Y-31331000D01*
X46965494Y-30913359D01*
X46881356Y-30782603D01*
X74222752Y-30782603D01*
X74439543Y-31307275D01*
X74773000Y-31641315D01*
X74773000Y-36795091D01*
X74723248Y-36914907D01*
X74722752Y-37482603D01*
X74939543Y-38007275D01*
X75340614Y-38409047D01*
X75864907Y-38626752D01*
X76432603Y-38627248D01*
X76957275Y-38410457D01*
X77135439Y-38232603D01*
X123822752Y-38232603D01*
X124039543Y-38757275D01*
X124440614Y-39159047D01*
X124964907Y-39376752D01*
X125532603Y-39377248D01*
X125654212Y-39327000D01*
X126645091Y-39327000D01*
X126764907Y-39376752D01*
X127332603Y-39377248D01*
X127857275Y-39160457D01*
X128259047Y-38759386D01*
X128476752Y-38235093D01*
X128477248Y-37667397D01*
X128260457Y-37142725D01*
X127859386Y-36740953D01*
X127335093Y-36523248D01*
X126767397Y-36522752D01*
X126645788Y-36573000D01*
X125654909Y-36573000D01*
X125535093Y-36523248D01*
X124967397Y-36522752D01*
X124442725Y-36739543D01*
X124040953Y-37140614D01*
X123823248Y-37664907D01*
X123822752Y-38232603D01*
X77135439Y-38232603D01*
X77359047Y-38009386D01*
X77576752Y-37485093D01*
X77577248Y-36917397D01*
X77527000Y-36795788D01*
X77527000Y-34932603D01*
X83672752Y-34932603D01*
X83723000Y-35054212D01*
X83723000Y-36295091D01*
X83673248Y-36414907D01*
X83672752Y-36982603D01*
X83889543Y-37507275D01*
X84290614Y-37909047D01*
X84814907Y-38126752D01*
X85382603Y-38127248D01*
X85907275Y-37910457D01*
X86309047Y-37509386D01*
X86526752Y-36985093D01*
X86527248Y-36417397D01*
X86477000Y-36295788D01*
X86477000Y-35054909D01*
X86526752Y-34935093D01*
X86527248Y-34367397D01*
X86310457Y-33842725D01*
X85909386Y-33440953D01*
X85385093Y-33223248D01*
X84817397Y-33222752D01*
X84292725Y-33439543D01*
X83890953Y-33840614D01*
X83673248Y-34364907D01*
X83672752Y-34932603D01*
X77527000Y-34932603D01*
X77527000Y-31932603D01*
X85272752Y-31932603D01*
X85489543Y-32457275D01*
X85890614Y-32859047D01*
X86414907Y-33076752D01*
X86982603Y-33077248D01*
X87104212Y-33027000D01*
X91674677Y-33027000D01*
X91914907Y-33126752D01*
X92482603Y-33127248D01*
X92604212Y-33077000D01*
X96529628Y-33077000D01*
X97590000Y-34137372D01*
X97639543Y-34257275D01*
X98040614Y-34659047D01*
X98564907Y-34876752D01*
X99132603Y-34877248D01*
X99657275Y-34660457D01*
X100059047Y-34259386D01*
X100090930Y-34182603D01*
X119772752Y-34182603D01*
X119989543Y-34707275D01*
X120390614Y-35109047D01*
X120914907Y-35326752D01*
X121482603Y-35327248D01*
X122007275Y-35110457D01*
X122409047Y-34709386D01*
X122626752Y-34185093D01*
X122626917Y-33996191D01*
X123296108Y-33327000D01*
X123645091Y-33327000D01*
X123764907Y-33376752D01*
X124332603Y-33377248D01*
X124857275Y-33160457D01*
X125259047Y-32759386D01*
X125476752Y-32235093D01*
X125477248Y-31667397D01*
X125260457Y-31142725D01*
X124859386Y-30740953D01*
X124335093Y-30523248D01*
X123767397Y-30522752D01*
X123645788Y-30573000D01*
X122725736Y-30573000D01*
X122198781Y-30677818D01*
X121752050Y-30976314D01*
X120226314Y-32502050D01*
X119927818Y-32948781D01*
X119823000Y-33475736D01*
X119823000Y-33495091D01*
X119773248Y-33614907D01*
X119772752Y-34182603D01*
X100090930Y-34182603D01*
X100276752Y-33735093D01*
X100277248Y-33167397D01*
X100060457Y-32642725D01*
X99659386Y-32240953D01*
X99537865Y-32190493D01*
X98073686Y-30726314D01*
X97626955Y-30427818D01*
X97100000Y-30323000D01*
X92604909Y-30323000D01*
X92485093Y-30273248D01*
X91917397Y-30272752D01*
X91916797Y-30273000D01*
X87104909Y-30273000D01*
X86985093Y-30223248D01*
X86417397Y-30222752D01*
X85892725Y-30439543D01*
X85490953Y-30840614D01*
X85273248Y-31364907D01*
X85272752Y-31932603D01*
X77527000Y-31932603D01*
X77527000Y-31000000D01*
X77422182Y-30473045D01*
X77123686Y-30026314D01*
X76910000Y-29812628D01*
X76860457Y-29692725D01*
X76459386Y-29290953D01*
X75935093Y-29073248D01*
X75367397Y-29072752D01*
X74842725Y-29289543D01*
X74440953Y-29690614D01*
X74223248Y-30214907D01*
X74222752Y-30782603D01*
X46881356Y-30782603D01*
X46718669Y-30529781D01*
X46342056Y-30272452D01*
X45895000Y-30181921D01*
X41955000Y-30181921D01*
X41537359Y-30260506D01*
X41153781Y-30507331D01*
X40896452Y-30883944D01*
X40805921Y-31331000D01*
X37894079Y-31331000D01*
X37815494Y-30913359D01*
X37568669Y-30529781D01*
X37192056Y-30272452D01*
X36745000Y-30181921D01*
X32805000Y-30181921D01*
X32387359Y-30260506D01*
X32003781Y-30507331D01*
X31746452Y-30883944D01*
X31655921Y-31331000D01*
X31655921Y-36004995D01*
X31200463Y-35549537D01*
X30672626Y-35196848D01*
X30050000Y-35073000D01*
X22150847Y-35073000D01*
X21827789Y-35072718D01*
X21229582Y-35319892D01*
X20771501Y-35777175D01*
X20523283Y-36374950D01*
X20522718Y-37022211D01*
X14516453Y-37022211D01*
X13156795Y-35660178D01*
X10721975Y-34649152D01*
X8085591Y-34646852D01*
X5649010Y-35653627D01*
X3783178Y-37516205D01*
X2772152Y-39951025D01*
X2769852Y-42587409D01*
X1202000Y-42587409D01*
X1202000Y-10837409D01*
X2769852Y-10837409D01*
X3776627Y-13273990D01*
X5639205Y-15139822D01*
X8074025Y-16150848D01*
X10710409Y-16153148D01*
X13146990Y-15146373D01*
X15012822Y-13283795D01*
X16023848Y-10848975D01*
X16024186Y-10460838D01*
X33272597Y-10460838D01*
X33626115Y-11316418D01*
X34280139Y-11971585D01*
X35135100Y-12326596D01*
X36060838Y-12327403D01*
X36905207Y-11978517D01*
X36523000Y-13900000D01*
X36989390Y-16244701D01*
X38317557Y-18232443D01*
X38769608Y-18534494D01*
X43717557Y-23482443D01*
X45705298Y-24810610D01*
X48050000Y-25277000D01*
X63250000Y-25277000D01*
X65594701Y-24810610D01*
X67582443Y-23482443D01*
X68910610Y-21494701D01*
X69377000Y-19150000D01*
X79623000Y-19150000D01*
X80089390Y-21494702D01*
X81417557Y-23482443D01*
X83405298Y-24810610D01*
X85750000Y-25277000D01*
X87230034Y-24982603D01*
X90772752Y-24982603D01*
X90989543Y-25507275D01*
X91223000Y-25741140D01*
X91223000Y-26295091D01*
X91173248Y-26414907D01*
X91172752Y-26982603D01*
X91389543Y-27507275D01*
X91790614Y-27909047D01*
X92314907Y-28126752D01*
X92882603Y-28127248D01*
X93407275Y-27910457D01*
X93809047Y-27509386D01*
X94026752Y-26985093D01*
X94027248Y-26417397D01*
X93977000Y-26295788D01*
X93977000Y-25100000D01*
X93872182Y-24573045D01*
X93573686Y-24126314D01*
X93460000Y-24012628D01*
X93410457Y-23892725D01*
X93009386Y-23490953D01*
X92485093Y-23273248D01*
X91917397Y-23272752D01*
X91392725Y-23489543D01*
X90990953Y-23890614D01*
X90773248Y-24414907D01*
X90772752Y-24982603D01*
X87230034Y-24982603D01*
X88094702Y-24810610D01*
X90082443Y-23482443D01*
X90637886Y-22927000D01*
X104110921Y-22927000D01*
X104110921Y-30205000D01*
X104189506Y-30622641D01*
X104436331Y-31006219D01*
X104812944Y-31263548D01*
X105260000Y-31354079D01*
X116260000Y-31354079D01*
X116677641Y-31275494D01*
X117061219Y-31028669D01*
X117318548Y-30652056D01*
X117409079Y-30205000D01*
X117409079Y-27482603D01*
X124672752Y-27482603D01*
X124723000Y-27604212D01*
X124723000Y-29095091D01*
X124673248Y-29214907D01*
X124672752Y-29782603D01*
X124889543Y-30307275D01*
X125290614Y-30709047D01*
X125814907Y-30926752D01*
X126382603Y-30927248D01*
X126907275Y-30710457D01*
X127309047Y-30309386D01*
X127526752Y-29785093D01*
X127527248Y-29217397D01*
X127477000Y-29095788D01*
X127477000Y-27604909D01*
X127526752Y-27485093D01*
X127527248Y-26917397D01*
X127310457Y-26392725D01*
X126909386Y-25990953D01*
X126385093Y-25773248D01*
X125817397Y-25772752D01*
X125292725Y-25989543D01*
X124890953Y-26390614D01*
X124673248Y-26914907D01*
X124672752Y-27482603D01*
X117409079Y-27482603D01*
X117409079Y-23562538D01*
X117489543Y-23757275D01*
X117890614Y-24159047D01*
X118414907Y-24376752D01*
X118982603Y-24377248D01*
X119507275Y-24160457D01*
X119909047Y-23759386D01*
X120126752Y-23235093D01*
X120127248Y-22667397D01*
X120077000Y-22545788D01*
X120077000Y-21104909D01*
X120126752Y-20985093D01*
X120127248Y-20417397D01*
X119910457Y-19892725D01*
X119509386Y-19490953D01*
X118985093Y-19273248D01*
X118417397Y-19272752D01*
X118324810Y-19311008D01*
X118327000Y-19300000D01*
X118327000Y-11300000D01*
X118234985Y-10837409D01*
X132944852Y-10837409D01*
X133951627Y-13273990D01*
X135814205Y-15139822D01*
X138249025Y-16150848D01*
X140885409Y-16153148D01*
X143321990Y-15146373D01*
X145187822Y-13283795D01*
X146198848Y-10848975D01*
X146201148Y-8212591D01*
X145194373Y-5776010D01*
X143331795Y-3910178D01*
X140896975Y-2899152D01*
X138260591Y-2896852D01*
X135824010Y-3903627D01*
X133958178Y-5766205D01*
X132947152Y-8201025D01*
X132944852Y-10837409D01*
X118234985Y-10837409D01*
X118050911Y-9912007D01*
X117721753Y-9419387D01*
X117264677Y-8735324D01*
X115964676Y-7435324D01*
X114787993Y-6649089D01*
X113400000Y-6373000D01*
X112012007Y-6649089D01*
X110835324Y-7435324D01*
X110150671Y-8459978D01*
X109719861Y-8028415D01*
X108864900Y-7673404D01*
X107939162Y-7672597D01*
X107083582Y-8026115D01*
X106428415Y-8680139D01*
X106073404Y-9535100D01*
X106072597Y-10460838D01*
X106160260Y-10673000D01*
X88100000Y-10673000D01*
X85755298Y-11139390D01*
X83767557Y-12467557D01*
X81417557Y-14817557D01*
X80089390Y-16805298D01*
X79623000Y-19150000D01*
X69377000Y-19150000D01*
X68910610Y-16805299D01*
X67582443Y-14817557D01*
X65594701Y-13489390D01*
X63250000Y-13023000D01*
X50587886Y-13023000D01*
X47132443Y-9567557D01*
X46511315Y-9152532D01*
X64777073Y-9152532D01*
X64875736Y-9419387D01*
X65485461Y-9645908D01*
X66135460Y-9621856D01*
X66624264Y-9419387D01*
X66722927Y-9152532D01*
X65750000Y-8179605D01*
X64777073Y-9152532D01*
X46511315Y-9152532D01*
X45144702Y-8239390D01*
X43480787Y-7908417D01*
X43365222Y-7735461D01*
X64104092Y-7735461D01*
X64128144Y-8385460D01*
X64330613Y-8874264D01*
X64597468Y-8972927D01*
X65570395Y-8000000D01*
X64597468Y-7027073D01*
X64330613Y-7125736D01*
X64104092Y-7735461D01*
X43365222Y-7735461D01*
X43164676Y-7435324D01*
X42284888Y-6847468D01*
X64777073Y-6847468D01*
X65750000Y-7820395D01*
X66722927Y-6847468D01*
X66624264Y-6580613D01*
X66014539Y-6354092D01*
X65364540Y-6378144D01*
X64875736Y-6580613D01*
X64777073Y-6847468D01*
X42284888Y-6847468D01*
X41987993Y-6649089D01*
X40600000Y-6373000D01*
X39212007Y-6649089D01*
X38035324Y-7435324D01*
X37350671Y-8459978D01*
X36919861Y-8028415D01*
X36064900Y-7673404D01*
X35139162Y-7672597D01*
X34283582Y-8026115D01*
X33628415Y-8680139D01*
X33273404Y-9535100D01*
X33272597Y-10460838D01*
X16024186Y-10460838D01*
X16026148Y-8212591D01*
X15019373Y-5776010D01*
X13156795Y-3910178D01*
X10721975Y-2899152D01*
X8085591Y-2896852D01*
X5649010Y-3903627D01*
X3783178Y-5766205D01*
X2772152Y-8201025D01*
X2769852Y-10837409D01*
X1202000Y-10837409D01*
X1202000Y-1202000D01*
X81100628Y-1202000D01*
X76429472Y-5873156D01*
M02*
