G04 #@! TF.FileFunction,Soldermask,Top*
%FSLAX46Y46*%
G04 Gerber Fmt 4.6, Leading zero omitted, Abs format (unit mm)*
G04 Created by KiCad (PCBNEW 4.0.4-stable) date Monday, July 17, 2017 'PMt' 04:09:52 PM*
%MOMM*%
%LPD*%
G01*
G04 APERTURE LIST*
%ADD10C,0.100000*%
%ADD11C,0.150000*%
%ADD12C,0.450000*%
%ADD13C,0.215000*%
%ADD14R,1.000000X1.100000*%
%ADD15R,1.100000X1.000000*%
%ADD16R,1.960000X0.800000*%
%ADD17R,2.400000X2.000000*%
%ADD18R,1.900000X1.650000*%
%ADD19R,1.650000X1.900000*%
%ADD20R,2.100000X2.400000*%
%ADD21C,2.400000*%
%ADD22R,2.300000X1.200000*%
%ADD23R,1.200000X2.300000*%
%ADD24R,1.900000X1.700000*%
%ADD25R,2.370000X2.346000*%
%ADD26R,3.100000X3.600000*%
%ADD27R,1.700000X1.900000*%
%ADD28R,3.600000X3.100000*%
%ADD29R,1.950000X1.000000*%
%ADD30R,1.960000X1.050000*%
%ADD31R,3.550000X2.360000*%
%ADD32C,2.800000*%
%ADD33R,2.432000X5.400000*%
%ADD34C,11.400000*%
%ADD35C,1.100000*%
G04 APERTURE END LIST*
D10*
D11*
X0Y-50800000D02*
X148971000Y-50800000D01*
X0Y0D02*
X0Y-50800000D01*
X148971000Y0D02*
X148971000Y-50800000D01*
X0Y0D02*
X148971000Y0D01*
D12*
X105260000Y-22435000D02*
X116260000Y-22435000D01*
X116260000Y-22435000D02*
X116260000Y-30215000D01*
X116260000Y-30215000D02*
X105260000Y-30215000D01*
X105260000Y-30215000D02*
X105260000Y-22435000D01*
D13*
X114860000Y-25935000D02*
G75*
G03X114860000Y-25935000I-100000J0D01*
G01*
X113860000Y-25935000D02*
G75*
G03X113860000Y-25935000I-100000J0D01*
G01*
X115860000Y-25935000D02*
G75*
G03X115860000Y-25935000I-100000J0D01*
G01*
X108860000Y-25935000D02*
G75*
G03X108860000Y-25935000I-100000J0D01*
G01*
X107860000Y-25935000D02*
G75*
G03X107860000Y-25935000I-100000J0D01*
G01*
X105860000Y-25935000D02*
G75*
G03X105860000Y-25935000I-100000J0D01*
G01*
X106860000Y-25935000D02*
G75*
G03X106860000Y-25935000I-100000J0D01*
G01*
X110860000Y-25935000D02*
G75*
G03X110860000Y-25935000I-100000J0D01*
G01*
X109860000Y-25935000D02*
G75*
G03X109860000Y-25935000I-100000J0D01*
G01*
X111860000Y-25935000D02*
G75*
G03X111860000Y-25935000I-100000J0D01*
G01*
X112860000Y-22935000D02*
G75*
G03X112860000Y-22935000I-100000J0D01*
G01*
X111860000Y-22935000D02*
G75*
G03X111860000Y-22935000I-100000J0D01*
G01*
X113860000Y-22935000D02*
G75*
G03X113860000Y-22935000I-100000J0D01*
G01*
X114860000Y-22935000D02*
G75*
G03X114860000Y-22935000I-100000J0D01*
G01*
X111860000Y-23935000D02*
G75*
G03X111860000Y-23935000I-100000J0D01*
G01*
X110860000Y-23935000D02*
G75*
G03X110860000Y-23935000I-100000J0D01*
G01*
X108860000Y-23935000D02*
G75*
G03X108860000Y-23935000I-100000J0D01*
G01*
X109860000Y-23935000D02*
G75*
G03X109860000Y-23935000I-100000J0D01*
G01*
X114860000Y-24935000D02*
G75*
G03X114860000Y-24935000I-100000J0D01*
G01*
X113860000Y-24935000D02*
G75*
G03X113860000Y-24935000I-100000J0D01*
G01*
X115860000Y-24935000D02*
G75*
G03X115860000Y-24935000I-100000J0D01*
G01*
X112860000Y-25935000D02*
G75*
G03X112860000Y-25935000I-100000J0D01*
G01*
X108860000Y-24935000D02*
G75*
G03X108860000Y-24935000I-100000J0D01*
G01*
X107860000Y-24935000D02*
G75*
G03X107860000Y-24935000I-100000J0D01*
G01*
X105860000Y-24935000D02*
G75*
G03X105860000Y-24935000I-100000J0D01*
G01*
X106860000Y-24935000D02*
G75*
G03X106860000Y-24935000I-100000J0D01*
G01*
X113860000Y-23935000D02*
G75*
G03X113860000Y-23935000I-100000J0D01*
G01*
X112860000Y-23935000D02*
G75*
G03X112860000Y-23935000I-100000J0D01*
G01*
X114860000Y-23935000D02*
G75*
G03X114860000Y-23935000I-100000J0D01*
G01*
X115860000Y-23935000D02*
G75*
G03X115860000Y-23935000I-100000J0D01*
G01*
X112860000Y-24935000D02*
G75*
G03X112860000Y-24935000I-100000J0D01*
G01*
X111860000Y-24935000D02*
G75*
G03X111860000Y-24935000I-100000J0D01*
G01*
X109860000Y-24935000D02*
G75*
G03X109860000Y-24935000I-100000J0D01*
G01*
X110860000Y-24935000D02*
G75*
G03X110860000Y-24935000I-100000J0D01*
G01*
X105860000Y-23935000D02*
G75*
G03X105860000Y-23935000I-100000J0D01*
G01*
X115860000Y-22935000D02*
G75*
G03X115860000Y-22935000I-100000J0D01*
G01*
X106860000Y-23935000D02*
G75*
G03X106860000Y-23935000I-100000J0D01*
G01*
X107860000Y-23935000D02*
G75*
G03X107860000Y-23935000I-100000J0D01*
G01*
X110860000Y-22935000D02*
G75*
G03X110860000Y-22935000I-100000J0D01*
G01*
X109860000Y-22935000D02*
G75*
G03X109860000Y-22935000I-100000J0D01*
G01*
X107860000Y-22935000D02*
G75*
G03X107860000Y-22935000I-100000J0D01*
G01*
X108860000Y-22935000D02*
G75*
G03X108860000Y-22935000I-100000J0D01*
G01*
X106860000Y-22935000D02*
G75*
G03X106860000Y-22935000I-100000J0D01*
G01*
X105860000Y-22935000D02*
G75*
G03X105860000Y-22935000I-100000J0D01*
G01*
D12*
X105510000Y-25435000D02*
X116010000Y-25435000D01*
X105510000Y-24435000D02*
X116010000Y-24435000D01*
X105510000Y-23435000D02*
X116010000Y-23435000D01*
X115260000Y-22635000D02*
X115260000Y-30215000D01*
X114260000Y-22635000D02*
X114260000Y-30215000D01*
X113260000Y-22635000D02*
X113260000Y-30215000D01*
X112260000Y-22635000D02*
X112260000Y-30215000D01*
X111260000Y-22635000D02*
X111260000Y-30215000D01*
X110260000Y-22635000D02*
X110260000Y-30215000D01*
X109260000Y-22635000D02*
X109260000Y-30215000D01*
X108260000Y-22635000D02*
X108260000Y-30215000D01*
X107260000Y-22635000D02*
X107260000Y-30215000D01*
X106260000Y-22635000D02*
X106260000Y-30215000D01*
D13*
X106860000Y-28705000D02*
G75*
G03X106860000Y-28705000I-100000J0D01*
G01*
X105860000Y-28705000D02*
G75*
G03X105860000Y-28705000I-100000J0D01*
G01*
X105860000Y-29705000D02*
G75*
G03X105860000Y-29705000I-100000J0D01*
G01*
X106860000Y-29705000D02*
G75*
G03X106860000Y-29705000I-100000J0D01*
G01*
X107860000Y-28705000D02*
G75*
G03X107860000Y-28705000I-100000J0D01*
G01*
X108860000Y-29705000D02*
G75*
G03X108860000Y-29705000I-100000J0D01*
G01*
X107860000Y-29705000D02*
G75*
G03X107860000Y-29705000I-100000J0D01*
G01*
X108860000Y-27705000D02*
G75*
G03X108860000Y-27705000I-100000J0D01*
G01*
X108860000Y-28705000D02*
G75*
G03X108860000Y-28705000I-100000J0D01*
G01*
X107860000Y-27705000D02*
G75*
G03X107860000Y-27705000I-100000J0D01*
G01*
D12*
X105510000Y-28205000D02*
X116010000Y-28205000D01*
X105510000Y-27425000D02*
X116010000Y-27425000D01*
D13*
X105860000Y-27705000D02*
G75*
G03X105860000Y-27705000I-100000J0D01*
G01*
X106860000Y-27705000D02*
G75*
G03X106860000Y-27705000I-100000J0D01*
G01*
D12*
X105510000Y-29205000D02*
X116010000Y-29205000D01*
D13*
X111860000Y-29705000D02*
G75*
G03X111860000Y-29705000I-100000J0D01*
G01*
X110860000Y-29705000D02*
G75*
G03X110860000Y-29705000I-100000J0D01*
G01*
X109860000Y-29705000D02*
G75*
G03X109860000Y-29705000I-100000J0D01*
G01*
X112860000Y-28705000D02*
G75*
G03X112860000Y-28705000I-100000J0D01*
G01*
X111860000Y-28705000D02*
G75*
G03X111860000Y-28705000I-100000J0D01*
G01*
X109860000Y-28705000D02*
G75*
G03X109860000Y-28705000I-100000J0D01*
G01*
X112860000Y-29705000D02*
G75*
G03X112860000Y-29705000I-100000J0D01*
G01*
X110860000Y-28705000D02*
G75*
G03X110860000Y-28705000I-100000J0D01*
G01*
X113860000Y-28705000D02*
G75*
G03X113860000Y-28705000I-100000J0D01*
G01*
X113860000Y-27705000D02*
G75*
G03X113860000Y-27705000I-100000J0D01*
G01*
X112860000Y-27705000D02*
G75*
G03X112860000Y-27705000I-100000J0D01*
G01*
X111860000Y-27705000D02*
G75*
G03X111860000Y-27705000I-100000J0D01*
G01*
X110860000Y-27705000D02*
G75*
G03X110860000Y-27705000I-100000J0D01*
G01*
X109860000Y-27705000D02*
G75*
G03X109860000Y-27705000I-100000J0D01*
G01*
X115860000Y-29705000D02*
G75*
G03X115860000Y-29705000I-100000J0D01*
G01*
X114860000Y-29705000D02*
G75*
G03X114860000Y-29705000I-100000J0D01*
G01*
X113860000Y-29705000D02*
G75*
G03X113860000Y-29705000I-100000J0D01*
G01*
X114860000Y-28705000D02*
G75*
G03X114860000Y-28705000I-100000J0D01*
G01*
X115860000Y-28705000D02*
G75*
G03X115860000Y-28705000I-100000J0D01*
G01*
X114860000Y-27705000D02*
G75*
G03X114860000Y-27705000I-100000J0D01*
G01*
X115860000Y-27705000D02*
G75*
G03X115860000Y-27705000I-100000J0D01*
G01*
D12*
X105520000Y-26415000D02*
X116020000Y-26415000D01*
X105840000Y-22605000D02*
X105840000Y-30185000D01*
X105500000Y-22605000D02*
X105500000Y-30185000D01*
X107360000Y-22635000D02*
X107360000Y-30215000D01*
X106940000Y-22605000D02*
X106940000Y-30185000D01*
X106600000Y-22605000D02*
X106600000Y-30185000D01*
X108390000Y-22585000D02*
X108390000Y-30165000D01*
X107970000Y-22555000D02*
X107970000Y-30135000D01*
X107630000Y-22555000D02*
X107630000Y-30135000D01*
X109230000Y-22585000D02*
X109230000Y-30165000D01*
X108810000Y-22555000D02*
X108810000Y-30135000D01*
X108470000Y-22555000D02*
X108470000Y-30135000D01*
X110330000Y-22555000D02*
X110330000Y-30135000D01*
X109910000Y-22525000D02*
X109910000Y-30105000D01*
X109570000Y-22525000D02*
X109570000Y-30105000D01*
X111270000Y-22555000D02*
X111270000Y-30135000D01*
X110850000Y-22525000D02*
X110850000Y-30105000D01*
X110510000Y-22525000D02*
X110510000Y-30105000D01*
X112250000Y-22585000D02*
X112250000Y-30165000D01*
X111830000Y-22555000D02*
X111830000Y-30135000D01*
X111490000Y-22555000D02*
X111490000Y-30135000D01*
X113230000Y-22585000D02*
X113230000Y-30165000D01*
X112810000Y-22555000D02*
X112810000Y-30135000D01*
X112470000Y-22555000D02*
X112470000Y-30135000D01*
X114140000Y-22535000D02*
X114140000Y-30115000D01*
X113720000Y-22505000D02*
X113720000Y-30085000D01*
X113380000Y-22505000D02*
X113380000Y-30085000D01*
X115340000Y-22555000D02*
X115340000Y-30135000D01*
X114920000Y-22525000D02*
X114920000Y-30105000D01*
X114580000Y-22525000D02*
X114580000Y-30105000D01*
X115980000Y-22515000D02*
X115980000Y-30095000D01*
X115560000Y-22485000D02*
X115560000Y-30065000D01*
X115220000Y-22485000D02*
X115220000Y-30065000D01*
D14*
X121550000Y-48050000D03*
X122950000Y-48050000D03*
D15*
X71500000Y-36400000D03*
X71500000Y-37800000D03*
D14*
X27100000Y-38350000D03*
X25700000Y-38350000D03*
D16*
X25200000Y-46570000D03*
X25200000Y-47220000D03*
X25200000Y-47880000D03*
X25200000Y-48530000D03*
X27900000Y-48530000D03*
X27900000Y-47880000D03*
X27900000Y-47220000D03*
X27900000Y-46570000D03*
D17*
X31650000Y-45550000D03*
X35650000Y-45550000D03*
X31650000Y-47800000D03*
X35650000Y-47800000D03*
D18*
X25250000Y-40200000D03*
X27750000Y-40200000D03*
D19*
X64800000Y-35700000D03*
X64800000Y-38200000D03*
X80650000Y-35750000D03*
X80650000Y-38250000D03*
X89550000Y-38200000D03*
X89550000Y-35700000D03*
D18*
X121150000Y-46000000D03*
X123650000Y-46000000D03*
D20*
X100550000Y-6000000D03*
X100550000Y-2000000D03*
X96450000Y-6000000D03*
X96450000Y-2000000D03*
X92350000Y-5950000D03*
X92350000Y-1950000D03*
D21*
X83250000Y-8000000D03*
X79750000Y-8000000D03*
X76250000Y-8000000D03*
X72750000Y-8000000D03*
X69250000Y-8000000D03*
X65750000Y-8000000D03*
D22*
X121050000Y-24250000D03*
X121050000Y-26150000D03*
X124050000Y-25200000D03*
D23*
X94800000Y-32550000D03*
X96700000Y-32550000D03*
X95750000Y-29550000D03*
X100150000Y-32550000D03*
X102050000Y-32550000D03*
X101100000Y-29550000D03*
D24*
X36500000Y-28200000D03*
X33800000Y-28200000D03*
X42200000Y-28150000D03*
X44900000Y-28150000D03*
D25*
X35760000Y-34250000D03*
X33790000Y-34250000D03*
X33790000Y-36196000D03*
X35760000Y-36196000D03*
X35760000Y-32304000D03*
X33790000Y-32304000D03*
X44910000Y-34250000D03*
X42940000Y-34250000D03*
X42940000Y-36196000D03*
X44910000Y-36196000D03*
X44910000Y-32304000D03*
X42940000Y-32304000D03*
D24*
X123700000Y-30600000D03*
X121000000Y-30600000D03*
D26*
X93700000Y-36700000D03*
X101600000Y-36700000D03*
D24*
X121000000Y-28350000D03*
X123700000Y-28350000D03*
X123700000Y-21850000D03*
X121000000Y-21850000D03*
D27*
X100550000Y-11850000D03*
X100550000Y-9150000D03*
D24*
X25150000Y-42250000D03*
X27850000Y-42250000D03*
D27*
X74750000Y-35700000D03*
X74750000Y-38400000D03*
D24*
X25150000Y-44300000D03*
X27850000Y-44300000D03*
D27*
X77750000Y-35700000D03*
X77750000Y-38400000D03*
D24*
X121000000Y-19550000D03*
X123700000Y-19550000D03*
D27*
X92350000Y-11850000D03*
X92350000Y-9150000D03*
D28*
X98500000Y-18100000D03*
X98500000Y-26000000D03*
D27*
X96450000Y-11850000D03*
X96450000Y-9150000D03*
X61750000Y-35550000D03*
X61750000Y-38250000D03*
X68250000Y-38400000D03*
X68250000Y-35700000D03*
X86600000Y-38400000D03*
X86600000Y-35700000D03*
X83600000Y-35700000D03*
X83600000Y-38400000D03*
D24*
X123700000Y-43750000D03*
X121000000Y-43750000D03*
X123700000Y-41450000D03*
X121000000Y-41450000D03*
X123700000Y-39150000D03*
X121000000Y-39150000D03*
X121000000Y-36850000D03*
X123700000Y-36850000D03*
D29*
X85350000Y-29045000D03*
X85350000Y-30315000D03*
X85350000Y-31585000D03*
X85350000Y-32855000D03*
X90750000Y-32855000D03*
X90750000Y-31585000D03*
X90750000Y-30315000D03*
X90750000Y-29045000D03*
D30*
X123700000Y-34750000D03*
X123700000Y-33800000D03*
X123700000Y-32850000D03*
X121000000Y-32850000D03*
X121000000Y-34750000D03*
D31*
X50000000Y-7955000D03*
X50000000Y-3045000D03*
X56200000Y-3045000D03*
X56200000Y-7955000D03*
D21*
X63250000Y-19150000D03*
X85750000Y-19150000D03*
D32*
X40600000Y-10000000D03*
X35600000Y-10000000D03*
X113400000Y-10000000D03*
X108400000Y-10000000D03*
D33*
X108220000Y-37350000D03*
X113300000Y-37350000D03*
D20*
X43300000Y-41200000D03*
X43300000Y-45200000D03*
D34*
X9398000Y-9525000D03*
D35*
X13523000Y-9525000D03*
X12324815Y-12451815D03*
X9398000Y-13650000D03*
X6471185Y-12451815D03*
X5273000Y-9525000D03*
X6471185Y-6598185D03*
X9398000Y-5400000D03*
X12324815Y-6598185D03*
D34*
X139573000Y-9525000D03*
D35*
X143698000Y-9525000D03*
X142499815Y-12451815D03*
X139573000Y-13650000D03*
X136646185Y-12451815D03*
X135448000Y-9525000D03*
X136646185Y-6598185D03*
X139573000Y-5400000D03*
X142499815Y-6598185D03*
D34*
X139573000Y-41275000D03*
D35*
X143698000Y-41275000D03*
X142499815Y-44201815D03*
X139573000Y-45400000D03*
X136646185Y-44201815D03*
X135448000Y-41275000D03*
X136646185Y-38348185D03*
X139573000Y-37150000D03*
X142499815Y-38348185D03*
D34*
X9398000Y-41275000D03*
D35*
X13523000Y-41275000D03*
X12324815Y-44201815D03*
X9398000Y-45400000D03*
X6471185Y-44201815D03*
X5273000Y-41275000D03*
X6471185Y-38348185D03*
X9398000Y-37150000D03*
X12324815Y-38348185D03*
M02*
