G04 #@! TF.FileFunction,Legend,Top*
%FSLAX46Y46*%
G04 Gerber Fmt 4.6, Leading zero omitted, Abs format (unit mm)*
G04 Created by KiCad (PCBNEW 4.0.4-stable) date Saturday, July 15, 2017 'PMt' 05:06:53 PM*
%MOMM*%
%LPD*%
G01*
G04 APERTURE LIST*
%ADD10C,0.100000*%
%ADD11C,0.150000*%
%ADD12C,0.300000*%
%ADD13C,0.400000*%
%ADD14C,0.120000*%
G04 APERTURE END LIST*
D10*
D11*
X177002200Y-166007200D02*
X177002200Y-198007200D01*
X285002200Y-198007200D01*
X285002200Y-166007200D01*
X177002200Y-166007200D01*
D10*
D11*
X10000000Y-10000000D02*
X10000000Y-200007200D01*
X287002200Y-200007200D01*
X287002200Y-10000000D01*
X10000000Y-10000000D01*
D10*
D11*
X12000000Y-12000000D02*
X12000000Y-198007200D01*
X285002200Y-198007200D01*
X285002200Y-12000000D01*
X12000000Y-12000000D01*
D10*
D11*
X60000000Y-12000000D02*
X60000000Y-10000000D01*
D10*
D11*
X110000000Y-12000000D02*
X110000000Y-10000000D01*
D10*
D11*
X160000000Y-12000000D02*
X160000000Y-10000000D01*
D10*
D11*
X210000000Y-12000000D02*
X210000000Y-10000000D01*
D10*
D11*
X260000000Y-12000000D02*
X260000000Y-10000000D01*
D10*
D11*
X35990476Y-11588095D02*
X35247619Y-11588095D01*
X35619048Y-11588095D02*
X35619048Y-10288095D01*
X35495238Y-10473810D01*
X35371429Y-10597619D01*
X35247619Y-10659524D01*
D10*
D11*
X85247619Y-10411905D02*
X85309524Y-10350000D01*
X85433333Y-10288095D01*
X85742857Y-10288095D01*
X85866667Y-10350000D01*
X85928571Y-10411905D01*
X85990476Y-10535714D01*
X85990476Y-10659524D01*
X85928571Y-10845238D01*
X85185714Y-11588095D01*
X85990476Y-11588095D01*
D10*
D11*
X135185714Y-10288095D02*
X135990476Y-10288095D01*
X135557143Y-10783333D01*
X135742857Y-10783333D01*
X135866667Y-10845238D01*
X135928571Y-10907143D01*
X135990476Y-11030952D01*
X135990476Y-11340476D01*
X135928571Y-11464286D01*
X135866667Y-11526190D01*
X135742857Y-11588095D01*
X135371429Y-11588095D01*
X135247619Y-11526190D01*
X135185714Y-11464286D01*
D10*
D11*
X185866667Y-10721429D02*
X185866667Y-11588095D01*
X185557143Y-10226190D02*
X185247619Y-11154762D01*
X186052381Y-11154762D01*
D10*
D11*
X235928571Y-10288095D02*
X235309524Y-10288095D01*
X235247619Y-10907143D01*
X235309524Y-10845238D01*
X235433333Y-10783333D01*
X235742857Y-10783333D01*
X235866667Y-10845238D01*
X235928571Y-10907143D01*
X235990476Y-11030952D01*
X235990476Y-11340476D01*
X235928571Y-11464286D01*
X235866667Y-11526190D01*
X235742857Y-11588095D01*
X235433333Y-11588095D01*
X235309524Y-11526190D01*
X235247619Y-11464286D01*
D10*
D11*
X285866667Y-10288095D02*
X285619048Y-10288095D01*
X285495238Y-10350000D01*
X285433333Y-10411905D01*
X285309524Y-10597619D01*
X285247619Y-10845238D01*
X285247619Y-11340476D01*
X285309524Y-11464286D01*
X285371429Y-11526190D01*
X285495238Y-11588095D01*
X285742857Y-11588095D01*
X285866667Y-11526190D01*
X285928571Y-11464286D01*
X285990476Y-11340476D01*
X285990476Y-11030952D01*
X285928571Y-10907143D01*
X285866667Y-10845238D01*
X285742857Y-10783333D01*
X285495238Y-10783333D01*
X285371429Y-10845238D01*
X285309524Y-10907143D01*
X285247619Y-11030952D01*
D10*
D11*
X60000000Y-198007200D02*
X60000000Y-200007200D01*
D10*
D11*
X110000000Y-198007200D02*
X110000000Y-200007200D01*
D10*
D11*
X160000000Y-198007200D02*
X160000000Y-200007200D01*
D10*
D11*
X210000000Y-198007200D02*
X210000000Y-200007200D01*
D10*
D11*
X260000000Y-198007200D02*
X260000000Y-200007200D01*
D10*
D11*
X35990476Y-199595295D02*
X35247619Y-199595295D01*
X35619048Y-199595295D02*
X35619048Y-198295295D01*
X35495238Y-198481010D01*
X35371429Y-198604819D01*
X35247619Y-198666724D01*
D10*
D11*
X85247619Y-198419105D02*
X85309524Y-198357200D01*
X85433333Y-198295295D01*
X85742857Y-198295295D01*
X85866667Y-198357200D01*
X85928571Y-198419105D01*
X85990476Y-198542914D01*
X85990476Y-198666724D01*
X85928571Y-198852438D01*
X85185714Y-199595295D01*
X85990476Y-199595295D01*
D10*
D11*
X135185714Y-198295295D02*
X135990476Y-198295295D01*
X135557143Y-198790533D01*
X135742857Y-198790533D01*
X135866667Y-198852438D01*
X135928571Y-198914343D01*
X135990476Y-199038152D01*
X135990476Y-199347676D01*
X135928571Y-199471486D01*
X135866667Y-199533390D01*
X135742857Y-199595295D01*
X135371429Y-199595295D01*
X135247619Y-199533390D01*
X135185714Y-199471486D01*
D10*
D11*
X185866667Y-198728629D02*
X185866667Y-199595295D01*
X185557143Y-198233390D02*
X185247619Y-199161962D01*
X186052381Y-199161962D01*
D10*
D11*
X235928571Y-198295295D02*
X235309524Y-198295295D01*
X235247619Y-198914343D01*
X235309524Y-198852438D01*
X235433333Y-198790533D01*
X235742857Y-198790533D01*
X235866667Y-198852438D01*
X235928571Y-198914343D01*
X235990476Y-199038152D01*
X235990476Y-199347676D01*
X235928571Y-199471486D01*
X235866667Y-199533390D01*
X235742857Y-199595295D01*
X235433333Y-199595295D01*
X235309524Y-199533390D01*
X235247619Y-199471486D01*
D10*
D11*
X285866667Y-198295295D02*
X285619048Y-198295295D01*
X285495238Y-198357200D01*
X285433333Y-198419105D01*
X285309524Y-198604819D01*
X285247619Y-198852438D01*
X285247619Y-199347676D01*
X285309524Y-199471486D01*
X285371429Y-199533390D01*
X285495238Y-199595295D01*
X285742857Y-199595295D01*
X285866667Y-199533390D01*
X285928571Y-199471486D01*
X285990476Y-199347676D01*
X285990476Y-199038152D01*
X285928571Y-198914343D01*
X285866667Y-198852438D01*
X285742857Y-198790533D01*
X285495238Y-198790533D01*
X285371429Y-198852438D01*
X285309524Y-198914343D01*
X285247619Y-199038152D01*
D10*
D11*
X10000000Y-60000000D02*
X12000000Y-60000000D01*
D10*
D11*
X10000000Y-110000000D02*
X12000000Y-110000000D01*
D10*
D11*
X10000000Y-160000000D02*
X12000000Y-160000000D01*
D10*
D11*
X10690476Y-35216667D02*
X11309524Y-35216667D01*
X10566667Y-35588095D02*
X11000000Y-34288095D01*
X11433333Y-35588095D01*
D10*
D11*
X11092857Y-84907143D02*
X11278571Y-84969048D01*
X11340476Y-85030952D01*
X11402381Y-85154762D01*
X11402381Y-85340476D01*
X11340476Y-85464286D01*
X11278571Y-85526190D01*
X11154762Y-85588095D01*
X10659524Y-85588095D01*
X10659524Y-84288095D01*
X11092857Y-84288095D01*
X11216667Y-84350000D01*
X11278571Y-84411905D01*
X11340476Y-84535714D01*
X11340476Y-84659524D01*
X11278571Y-84783333D01*
X11216667Y-84845238D01*
X11092857Y-84907143D01*
X10659524Y-84907143D01*
D10*
D11*
X11402381Y-135464286D02*
X11340476Y-135526190D01*
X11154762Y-135588095D01*
X11030952Y-135588095D01*
X10845238Y-135526190D01*
X10721429Y-135402381D01*
X10659524Y-135278571D01*
X10597619Y-135030952D01*
X10597619Y-134845238D01*
X10659524Y-134597619D01*
X10721429Y-134473810D01*
X10845238Y-134350000D01*
X11030952Y-134288095D01*
X11154762Y-134288095D01*
X11340476Y-134350000D01*
X11402381Y-134411905D01*
D10*
D11*
X10659524Y-185588095D02*
X10659524Y-184288095D01*
X10969048Y-184288095D01*
X11154762Y-184350000D01*
X11278571Y-184473810D01*
X11340476Y-184597619D01*
X11402381Y-184845238D01*
X11402381Y-185030952D01*
X11340476Y-185278571D01*
X11278571Y-185402381D01*
X11154762Y-185526190D01*
X10969048Y-185588095D01*
X10659524Y-185588095D01*
D10*
D11*
X287002200Y-60000000D02*
X285002200Y-60000000D01*
D10*
D11*
X287002200Y-110000000D02*
X285002200Y-110000000D01*
D10*
D11*
X287002200Y-160000000D02*
X285002200Y-160000000D01*
D10*
D11*
X285692676Y-35216667D02*
X286311724Y-35216667D01*
X285568867Y-35588095D02*
X286002200Y-34288095D01*
X286435533Y-35588095D01*
D10*
D11*
X286095057Y-84907143D02*
X286280771Y-84969048D01*
X286342676Y-85030952D01*
X286404581Y-85154762D01*
X286404581Y-85340476D01*
X286342676Y-85464286D01*
X286280771Y-85526190D01*
X286156962Y-85588095D01*
X285661724Y-85588095D01*
X285661724Y-84288095D01*
X286095057Y-84288095D01*
X286218867Y-84350000D01*
X286280771Y-84411905D01*
X286342676Y-84535714D01*
X286342676Y-84659524D01*
X286280771Y-84783333D01*
X286218867Y-84845238D01*
X286095057Y-84907143D01*
X285661724Y-84907143D01*
D10*
D11*
X286404581Y-135464286D02*
X286342676Y-135526190D01*
X286156962Y-135588095D01*
X286033152Y-135588095D01*
X285847438Y-135526190D01*
X285723629Y-135402381D01*
X285661724Y-135278571D01*
X285599819Y-135030952D01*
X285599819Y-134845238D01*
X285661724Y-134597619D01*
X285723629Y-134473810D01*
X285847438Y-134350000D01*
X286033152Y-134288095D01*
X286156962Y-134288095D01*
X286342676Y-134350000D01*
X286404581Y-134411905D01*
D10*
D11*
X285661724Y-185588095D02*
X285661724Y-184288095D01*
X285971248Y-184288095D01*
X286156962Y-184350000D01*
X286280771Y-184473810D01*
X286342676Y-184597619D01*
X286404581Y-184845238D01*
X286404581Y-185030952D01*
X286342676Y-185278571D01*
X286280771Y-185402381D01*
X286156962Y-185526190D01*
X285971248Y-185588095D01*
X285661724Y-185588095D01*
D10*
D11*
X200359343Y-193785771D02*
X200359343Y-192285771D01*
X200716486Y-192285771D01*
X200930771Y-192357200D01*
X201073629Y-192500057D01*
X201145057Y-192642914D01*
X201216486Y-192928629D01*
X201216486Y-193142914D01*
X201145057Y-193428629D01*
X201073629Y-193571486D01*
X200930771Y-193714343D01*
X200716486Y-193785771D01*
X200359343Y-193785771D01*
X202502200Y-193785771D02*
X202502200Y-193000057D01*
X202430771Y-192857200D01*
X202287914Y-192785771D01*
X202002200Y-192785771D01*
X201859343Y-192857200D01*
X202502200Y-193714343D02*
X202359343Y-193785771D01*
X202002200Y-193785771D01*
X201859343Y-193714343D01*
X201787914Y-193571486D01*
X201787914Y-193428629D01*
X201859343Y-193285771D01*
X202002200Y-193214343D01*
X202359343Y-193214343D01*
X202502200Y-193142914D01*
X203002200Y-192785771D02*
X203573629Y-192785771D01*
X203216486Y-192285771D02*
X203216486Y-193571486D01*
X203287914Y-193714343D01*
X203430772Y-193785771D01*
X203573629Y-193785771D01*
X204645057Y-193714343D02*
X204502200Y-193785771D01*
X204216486Y-193785771D01*
X204073629Y-193714343D01*
X204002200Y-193571486D01*
X204002200Y-193000057D01*
X204073629Y-192857200D01*
X204216486Y-192785771D01*
X204502200Y-192785771D01*
X204645057Y-192857200D01*
X204716486Y-193000057D01*
X204716486Y-193142914D01*
X204002200Y-193285771D01*
X205359343Y-193642914D02*
X205430771Y-193714343D01*
X205359343Y-193785771D01*
X205287914Y-193714343D01*
X205359343Y-193642914D01*
X205359343Y-193785771D01*
X205359343Y-192857200D02*
X205430771Y-192928629D01*
X205359343Y-193000057D01*
X205287914Y-192928629D01*
X205359343Y-192857200D01*
X205359343Y-193000057D01*
D10*
D11*
X177002200Y-194507200D02*
X285002200Y-194507200D01*
D10*
D11*
X178359343Y-196585771D02*
X178359343Y-195085771D01*
X179216486Y-196585771D02*
X178573629Y-195728629D01*
X179216486Y-195085771D02*
X178359343Y-195942914D01*
X179859343Y-196585771D02*
X179859343Y-195585771D01*
X179859343Y-195085771D02*
X179787914Y-195157200D01*
X179859343Y-195228629D01*
X179930771Y-195157200D01*
X179859343Y-195085771D01*
X179859343Y-195228629D01*
X181430772Y-196442914D02*
X181359343Y-196514343D01*
X181145057Y-196585771D01*
X181002200Y-196585771D01*
X180787915Y-196514343D01*
X180645057Y-196371486D01*
X180573629Y-196228629D01*
X180502200Y-195942914D01*
X180502200Y-195728629D01*
X180573629Y-195442914D01*
X180645057Y-195300057D01*
X180787915Y-195157200D01*
X181002200Y-195085771D01*
X181145057Y-195085771D01*
X181359343Y-195157200D01*
X181430772Y-195228629D01*
X182716486Y-196585771D02*
X182716486Y-195800057D01*
X182645057Y-195657200D01*
X182502200Y-195585771D01*
X182216486Y-195585771D01*
X182073629Y-195657200D01*
X182716486Y-196514343D02*
X182573629Y-196585771D01*
X182216486Y-196585771D01*
X182073629Y-196514343D01*
X182002200Y-196371486D01*
X182002200Y-196228629D01*
X182073629Y-196085771D01*
X182216486Y-196014343D01*
X182573629Y-196014343D01*
X182716486Y-195942914D01*
X184073629Y-196585771D02*
X184073629Y-195085771D01*
X184073629Y-196514343D02*
X183930772Y-196585771D01*
X183645058Y-196585771D01*
X183502200Y-196514343D01*
X183430772Y-196442914D01*
X183359343Y-196300057D01*
X183359343Y-195871486D01*
X183430772Y-195728629D01*
X183502200Y-195657200D01*
X183645058Y-195585771D01*
X183930772Y-195585771D01*
X184073629Y-195657200D01*
X185930772Y-195800057D02*
X186430772Y-195800057D01*
X186645058Y-196585771D02*
X185930772Y-196585771D01*
X185930772Y-195085771D01*
X186645058Y-195085771D01*
X187287915Y-196442914D02*
X187359343Y-196514343D01*
X187287915Y-196585771D01*
X187216486Y-196514343D01*
X187287915Y-196442914D01*
X187287915Y-196585771D01*
X188002201Y-196585771D02*
X188002201Y-195085771D01*
X188359344Y-195085771D01*
X188573629Y-195157200D01*
X188716487Y-195300057D01*
X188787915Y-195442914D01*
X188859344Y-195728629D01*
X188859344Y-195942914D01*
X188787915Y-196228629D01*
X188716487Y-196371486D01*
X188573629Y-196514343D01*
X188359344Y-196585771D01*
X188002201Y-196585771D01*
X189502201Y-196442914D02*
X189573629Y-196514343D01*
X189502201Y-196585771D01*
X189430772Y-196514343D01*
X189502201Y-196442914D01*
X189502201Y-196585771D01*
X190145058Y-196157200D02*
X190859344Y-196157200D01*
X190002201Y-196585771D02*
X190502201Y-195085771D01*
X191002201Y-196585771D01*
X191502201Y-196442914D02*
X191573629Y-196514343D01*
X191502201Y-196585771D01*
X191430772Y-196514343D01*
X191502201Y-196442914D01*
X191502201Y-196585771D01*
X194502201Y-196585771D02*
X194502201Y-195085771D01*
X194645058Y-196014343D02*
X195073629Y-196585771D01*
X195073629Y-195585771D02*
X194502201Y-196157200D01*
X195716487Y-196585771D02*
X195716487Y-195585771D01*
X195716487Y-195085771D02*
X195645058Y-195157200D01*
X195716487Y-195228629D01*
X195787915Y-195157200D01*
X195716487Y-195085771D01*
X195716487Y-195228629D01*
X197073630Y-196514343D02*
X196930773Y-196585771D01*
X196645059Y-196585771D01*
X196502201Y-196514343D01*
X196430773Y-196442914D01*
X196359344Y-196300057D01*
X196359344Y-195871486D01*
X196430773Y-195728629D01*
X196502201Y-195657200D01*
X196645059Y-195585771D01*
X196930773Y-195585771D01*
X197073630Y-195657200D01*
X198359344Y-196585771D02*
X198359344Y-195800057D01*
X198287915Y-195657200D01*
X198145058Y-195585771D01*
X197859344Y-195585771D01*
X197716487Y-195657200D01*
X198359344Y-196514343D02*
X198216487Y-196585771D01*
X197859344Y-196585771D01*
X197716487Y-196514343D01*
X197645058Y-196371486D01*
X197645058Y-196228629D01*
X197716487Y-196085771D01*
X197859344Y-196014343D01*
X198216487Y-196014343D01*
X198359344Y-195942914D01*
X199716487Y-196585771D02*
X199716487Y-195085771D01*
X199716487Y-196514343D02*
X199573630Y-196585771D01*
X199287916Y-196585771D01*
X199145058Y-196514343D01*
X199073630Y-196442914D01*
X199002201Y-196300057D01*
X199002201Y-195871486D01*
X199073630Y-195728629D01*
X199145058Y-195657200D01*
X199287916Y-195585771D01*
X199573630Y-195585771D01*
X199716487Y-195657200D01*
X202216487Y-195585771D02*
X202216487Y-196585771D01*
X201859344Y-195014343D02*
X201502201Y-196085771D01*
X202430773Y-196085771D01*
X203002201Y-196442914D02*
X203073629Y-196514343D01*
X203002201Y-196585771D01*
X202930772Y-196514343D01*
X203002201Y-196442914D01*
X203002201Y-196585771D01*
X204002201Y-195085771D02*
X204145058Y-195085771D01*
X204287915Y-195157200D01*
X204359344Y-195228629D01*
X204430773Y-195371486D01*
X204502201Y-195657200D01*
X204502201Y-196014343D01*
X204430773Y-196300057D01*
X204359344Y-196442914D01*
X204287915Y-196514343D01*
X204145058Y-196585771D01*
X204002201Y-196585771D01*
X203859344Y-196514343D01*
X203787915Y-196442914D01*
X203716487Y-196300057D01*
X203645058Y-196014343D01*
X203645058Y-195657200D01*
X203716487Y-195371486D01*
X203787915Y-195228629D01*
X203859344Y-195157200D01*
X204002201Y-195085771D01*
X205145058Y-196442914D02*
X205216486Y-196514343D01*
X205145058Y-196585771D01*
X205073629Y-196514343D01*
X205145058Y-196442914D01*
X205145058Y-196585771D01*
X206502201Y-195585771D02*
X206502201Y-196585771D01*
X206145058Y-195014343D02*
X205787915Y-196085771D01*
X206716487Y-196085771D01*
X207287915Y-196014343D02*
X208430772Y-196014343D01*
X209073629Y-196514343D02*
X209216486Y-196585771D01*
X209502201Y-196585771D01*
X209645058Y-196514343D01*
X209716486Y-196371486D01*
X209716486Y-196300057D01*
X209645058Y-196157200D01*
X209502201Y-196085771D01*
X209287915Y-196085771D01*
X209145058Y-196014343D01*
X209073629Y-195871486D01*
X209073629Y-195800057D01*
X209145058Y-195657200D01*
X209287915Y-195585771D01*
X209502201Y-195585771D01*
X209645058Y-195657200D01*
X210145058Y-195585771D02*
X210716487Y-195585771D01*
X210359344Y-195085771D02*
X210359344Y-196371486D01*
X210430772Y-196514343D01*
X210573630Y-196585771D01*
X210716487Y-196585771D01*
X211859344Y-196585771D02*
X211859344Y-195800057D01*
X211787915Y-195657200D01*
X211645058Y-195585771D01*
X211359344Y-195585771D01*
X211216487Y-195657200D01*
X211859344Y-196514343D02*
X211716487Y-196585771D01*
X211359344Y-196585771D01*
X211216487Y-196514343D01*
X211145058Y-196371486D01*
X211145058Y-196228629D01*
X211216487Y-196085771D01*
X211359344Y-196014343D01*
X211716487Y-196014343D01*
X211859344Y-195942914D01*
X212573630Y-196585771D02*
X212573630Y-195085771D01*
X212573630Y-195657200D02*
X212716487Y-195585771D01*
X213002201Y-195585771D01*
X213145058Y-195657200D01*
X213216487Y-195728629D01*
X213287916Y-195871486D01*
X213287916Y-196300057D01*
X213216487Y-196442914D01*
X213145058Y-196514343D01*
X213002201Y-196585771D01*
X212716487Y-196585771D01*
X212573630Y-196514343D01*
X214145059Y-196585771D02*
X214002201Y-196514343D01*
X213930773Y-196371486D01*
X213930773Y-195085771D01*
X215287915Y-196514343D02*
X215145058Y-196585771D01*
X214859344Y-196585771D01*
X214716487Y-196514343D01*
X214645058Y-196371486D01*
X214645058Y-195800057D01*
X214716487Y-195657200D01*
X214859344Y-195585771D01*
X215145058Y-195585771D01*
X215287915Y-195657200D01*
X215359344Y-195800057D01*
X215359344Y-195942914D01*
X214645058Y-196085771D01*
D10*
D11*
X177002200Y-191507200D02*
X285002200Y-191507200D01*
D10*
D12*
X264216486Y-193785771D02*
X263716486Y-193071486D01*
X263359343Y-193785771D02*
X263359343Y-192285771D01*
X263930771Y-192285771D01*
X264073629Y-192357200D01*
X264145057Y-192428629D01*
X264216486Y-192571486D01*
X264216486Y-192785771D01*
X264145057Y-192928629D01*
X264073629Y-193000057D01*
X263930771Y-193071486D01*
X263359343Y-193071486D01*
X265430771Y-193714343D02*
X265287914Y-193785771D01*
X265002200Y-193785771D01*
X264859343Y-193714343D01*
X264787914Y-193571486D01*
X264787914Y-193000057D01*
X264859343Y-192857200D01*
X265002200Y-192785771D01*
X265287914Y-192785771D01*
X265430771Y-192857200D01*
X265502200Y-193000057D01*
X265502200Y-193142914D01*
X264787914Y-193285771D01*
X266002200Y-192785771D02*
X266359343Y-193785771D01*
X266716485Y-192785771D01*
X267287914Y-193642914D02*
X267359342Y-193714343D01*
X267287914Y-193785771D01*
X267216485Y-193714343D01*
X267287914Y-193642914D01*
X267287914Y-193785771D01*
X267287914Y-192857200D02*
X267359342Y-192928629D01*
X267287914Y-193000057D01*
X267216485Y-192928629D01*
X267287914Y-192857200D01*
X267287914Y-193000057D01*
D10*
D11*
X178287914Y-193714343D02*
X178502200Y-193785771D01*
X178859343Y-193785771D01*
X179002200Y-193714343D01*
X179073629Y-193642914D01*
X179145057Y-193500057D01*
X179145057Y-193357200D01*
X179073629Y-193214343D01*
X179002200Y-193142914D01*
X178859343Y-193071486D01*
X178573629Y-193000057D01*
X178430771Y-192928629D01*
X178359343Y-192857200D01*
X178287914Y-192714343D01*
X178287914Y-192571486D01*
X178359343Y-192428629D01*
X178430771Y-192357200D01*
X178573629Y-192285771D01*
X178930771Y-192285771D01*
X179145057Y-192357200D01*
X179787914Y-193785771D02*
X179787914Y-192785771D01*
X179787914Y-192285771D02*
X179716485Y-192357200D01*
X179787914Y-192428629D01*
X179859342Y-192357200D01*
X179787914Y-192285771D01*
X179787914Y-192428629D01*
X180359343Y-192785771D02*
X181145057Y-192785771D01*
X180359343Y-193785771D01*
X181145057Y-193785771D01*
X182287914Y-193714343D02*
X182145057Y-193785771D01*
X181859343Y-193785771D01*
X181716486Y-193714343D01*
X181645057Y-193571486D01*
X181645057Y-193000057D01*
X181716486Y-192857200D01*
X181859343Y-192785771D01*
X182145057Y-192785771D01*
X182287914Y-192857200D01*
X182359343Y-193000057D01*
X182359343Y-193142914D01*
X181645057Y-193285771D01*
X183002200Y-193642914D02*
X183073628Y-193714343D01*
X183002200Y-193785771D01*
X182930771Y-193714343D01*
X183002200Y-193642914D01*
X183002200Y-193785771D01*
X183002200Y-192857200D02*
X183073628Y-192928629D01*
X183002200Y-193000057D01*
X182930771Y-192928629D01*
X183002200Y-192857200D01*
X183002200Y-193000057D01*
X184787914Y-193357200D02*
X185502200Y-193357200D01*
X184645057Y-193785771D02*
X185145057Y-192285771D01*
X185645057Y-193785771D01*
X186787914Y-192785771D02*
X186787914Y-193785771D01*
X186430771Y-192214343D02*
X186073628Y-193285771D01*
X187002200Y-193285771D01*
D10*
D11*
X263359343Y-196585771D02*
X263359343Y-195085771D01*
X264716486Y-196585771D02*
X264716486Y-195085771D01*
X264716486Y-196514343D02*
X264573629Y-196585771D01*
X264287915Y-196585771D01*
X264145057Y-196514343D01*
X264073629Y-196442914D01*
X264002200Y-196300057D01*
X264002200Y-195871486D01*
X264073629Y-195728629D01*
X264145057Y-195657200D01*
X264287915Y-195585771D01*
X264573629Y-195585771D01*
X264716486Y-195657200D01*
X265430772Y-196442914D02*
X265502200Y-196514343D01*
X265430772Y-196585771D01*
X265359343Y-196514343D01*
X265430772Y-196442914D01*
X265430772Y-196585771D01*
X265430772Y-195657200D02*
X265502200Y-195728629D01*
X265430772Y-195800057D01*
X265359343Y-195728629D01*
X265430772Y-195657200D01*
X265430772Y-195800057D01*
X268073629Y-196585771D02*
X267216486Y-196585771D01*
X267645058Y-196585771D02*
X267645058Y-195085771D01*
X267502201Y-195300057D01*
X267359343Y-195442914D01*
X267216486Y-195514343D01*
X269787914Y-195014343D02*
X268502200Y-196942914D01*
X271073629Y-196585771D02*
X270216486Y-196585771D01*
X270645058Y-196585771D02*
X270645058Y-195085771D01*
X270502201Y-195300057D01*
X270359343Y-195442914D01*
X270216486Y-195514343D01*
D10*
D11*
X177002200Y-187507200D02*
X285002200Y-187507200D01*
D10*
D13*
X178454581Y-188211962D02*
X179597438Y-188211962D01*
X178776010Y-190211962D02*
X179026010Y-188211962D01*
X180014105Y-190211962D02*
X180180771Y-188878629D01*
X180264105Y-188211962D02*
X180156962Y-188307200D01*
X180240295Y-188402438D01*
X180347439Y-188307200D01*
X180264105Y-188211962D01*
X180240295Y-188402438D01*
X180847438Y-188878629D02*
X181609343Y-188878629D01*
X181216486Y-188211962D02*
X181002200Y-189926248D01*
X181073630Y-190116724D01*
X181252201Y-190211962D01*
X181442677Y-190211962D01*
X182395058Y-190211962D02*
X182216487Y-190116724D01*
X182145057Y-189926248D01*
X182359343Y-188211962D01*
X183930772Y-190116724D02*
X183728391Y-190211962D01*
X183347439Y-190211962D01*
X183168867Y-190116724D01*
X183097438Y-189926248D01*
X183192676Y-189164343D01*
X183311724Y-188973867D01*
X183514105Y-188878629D01*
X183895057Y-188878629D01*
X184073629Y-188973867D01*
X184145057Y-189164343D01*
X184121248Y-189354819D01*
X183145057Y-189545295D01*
X184895057Y-190021486D02*
X184978392Y-190116724D01*
X184871248Y-190211962D01*
X184787915Y-190116724D01*
X184895057Y-190021486D01*
X184871248Y-190211962D01*
X185026010Y-188973867D02*
X185109344Y-189069105D01*
X185002200Y-189164343D01*
X184918867Y-189069105D01*
X185026010Y-188973867D01*
X185002200Y-189164343D01*
D10*
D11*
X178859343Y-185600057D02*
X178359343Y-185600057D01*
X178359343Y-186385771D02*
X178359343Y-184885771D01*
X179073629Y-184885771D01*
X179645057Y-186385771D02*
X179645057Y-185385771D01*
X179645057Y-184885771D02*
X179573628Y-184957200D01*
X179645057Y-185028629D01*
X179716485Y-184957200D01*
X179645057Y-184885771D01*
X179645057Y-185028629D01*
X180573629Y-186385771D02*
X180430771Y-186314343D01*
X180359343Y-186171486D01*
X180359343Y-184885771D01*
X181716485Y-186314343D02*
X181573628Y-186385771D01*
X181287914Y-186385771D01*
X181145057Y-186314343D01*
X181073628Y-186171486D01*
X181073628Y-185600057D01*
X181145057Y-185457200D01*
X181287914Y-185385771D01*
X181573628Y-185385771D01*
X181716485Y-185457200D01*
X181787914Y-185600057D01*
X181787914Y-185742914D01*
X181073628Y-185885771D01*
X182430771Y-186242914D02*
X182502199Y-186314343D01*
X182430771Y-186385771D01*
X182359342Y-186314343D01*
X182430771Y-186242914D01*
X182430771Y-186385771D01*
X182430771Y-185457200D02*
X182502199Y-185528629D01*
X182430771Y-185600057D01*
X182359342Y-185528629D01*
X182430771Y-185457200D01*
X182430771Y-185600057D01*
X184787914Y-185600057D02*
X185002200Y-185671486D01*
X185073628Y-185742914D01*
X185145057Y-185885771D01*
X185145057Y-186100057D01*
X185073628Y-186242914D01*
X185002200Y-186314343D01*
X184859342Y-186385771D01*
X184287914Y-186385771D01*
X184287914Y-184885771D01*
X184787914Y-184885771D01*
X184930771Y-184957200D01*
X185002200Y-185028629D01*
X185073628Y-185171486D01*
X185073628Y-185314343D01*
X185002200Y-185457200D01*
X184930771Y-185528629D01*
X184787914Y-185600057D01*
X184287914Y-185600057D01*
X186430771Y-186385771D02*
X186430771Y-185600057D01*
X186359342Y-185457200D01*
X186216485Y-185385771D01*
X185930771Y-185385771D01*
X185787914Y-185457200D01*
X186430771Y-186314343D02*
X186287914Y-186385771D01*
X185930771Y-186385771D01*
X185787914Y-186314343D01*
X185716485Y-186171486D01*
X185716485Y-186028629D01*
X185787914Y-185885771D01*
X185930771Y-185814343D01*
X186287914Y-185814343D01*
X186430771Y-185742914D01*
X186930771Y-185385771D02*
X187502200Y-185385771D01*
X187145057Y-184885771D02*
X187145057Y-186171486D01*
X187216485Y-186314343D01*
X187359343Y-186385771D01*
X187502200Y-186385771D01*
X187787914Y-185385771D02*
X188359343Y-185385771D01*
X188002200Y-184885771D02*
X188002200Y-186171486D01*
X188073628Y-186314343D01*
X188216486Y-186385771D01*
X188359343Y-186385771D01*
X189430771Y-186314343D02*
X189287914Y-186385771D01*
X189002200Y-186385771D01*
X188859343Y-186314343D01*
X188787914Y-186171486D01*
X188787914Y-185600057D01*
X188859343Y-185457200D01*
X189002200Y-185385771D01*
X189287914Y-185385771D01*
X189430771Y-185457200D01*
X189502200Y-185600057D01*
X189502200Y-185742914D01*
X188787914Y-185885771D01*
X190145057Y-186385771D02*
X190145057Y-185385771D01*
X190145057Y-185671486D02*
X190216485Y-185528629D01*
X190287914Y-185457200D01*
X190430771Y-185385771D01*
X190573628Y-185385771D01*
X190930771Y-185385771D02*
X191287914Y-186385771D01*
X191645056Y-185385771D02*
X191287914Y-186385771D01*
X191145056Y-186742914D01*
X191073628Y-186814343D01*
X190930771Y-186885771D01*
X192716485Y-185600057D02*
X192930771Y-185671486D01*
X193002199Y-185742914D01*
X193073628Y-185885771D01*
X193073628Y-186100057D01*
X193002199Y-186242914D01*
X192930771Y-186314343D01*
X192787913Y-186385771D01*
X192216485Y-186385771D01*
X192216485Y-184885771D01*
X192716485Y-184885771D01*
X192859342Y-184957200D01*
X192930771Y-185028629D01*
X193002199Y-185171486D01*
X193002199Y-185314343D01*
X192930771Y-185457200D01*
X192859342Y-185528629D01*
X192716485Y-185600057D01*
X192216485Y-185600057D01*
X193930771Y-186385771D02*
X193787913Y-186314343D01*
X193716485Y-186242914D01*
X193645056Y-186100057D01*
X193645056Y-185671486D01*
X193716485Y-185528629D01*
X193787913Y-185457200D01*
X193930771Y-185385771D01*
X194145056Y-185385771D01*
X194287913Y-185457200D01*
X194359342Y-185528629D01*
X194430771Y-185671486D01*
X194430771Y-186100057D01*
X194359342Y-186242914D01*
X194287913Y-186314343D01*
X194145056Y-186385771D01*
X193930771Y-186385771D01*
X195716485Y-186385771D02*
X195716485Y-185600057D01*
X195645056Y-185457200D01*
X195502199Y-185385771D01*
X195216485Y-185385771D01*
X195073628Y-185457200D01*
X195716485Y-186314343D02*
X195573628Y-186385771D01*
X195216485Y-186385771D01*
X195073628Y-186314343D01*
X195002199Y-186171486D01*
X195002199Y-186028629D01*
X195073628Y-185885771D01*
X195216485Y-185814343D01*
X195573628Y-185814343D01*
X195716485Y-185742914D01*
X196430771Y-186385771D02*
X196430771Y-185385771D01*
X196430771Y-185671486D02*
X196502199Y-185528629D01*
X196573628Y-185457200D01*
X196716485Y-185385771D01*
X196859342Y-185385771D01*
X198002199Y-186385771D02*
X198002199Y-184885771D01*
X198002199Y-186314343D02*
X197859342Y-186385771D01*
X197573628Y-186385771D01*
X197430770Y-186314343D01*
X197359342Y-186242914D01*
X197287913Y-186100057D01*
X197287913Y-185671486D01*
X197359342Y-185528629D01*
X197430770Y-185457200D01*
X197573628Y-185385771D01*
X197859342Y-185385771D01*
X198002199Y-185457200D01*
X198716485Y-186242914D02*
X198787913Y-186314343D01*
X198716485Y-186385771D01*
X198645056Y-186314343D01*
X198716485Y-186242914D01*
X198716485Y-186385771D01*
X199430771Y-186385771D02*
X199430771Y-184885771D01*
X199573628Y-185814343D02*
X200002199Y-186385771D01*
X200002199Y-185385771D02*
X199430771Y-185957200D01*
X200645057Y-186385771D02*
X200645057Y-185385771D01*
X200645057Y-184885771D02*
X200573628Y-184957200D01*
X200645057Y-185028629D01*
X200716485Y-184957200D01*
X200645057Y-184885771D01*
X200645057Y-185028629D01*
X202002200Y-186314343D02*
X201859343Y-186385771D01*
X201573629Y-186385771D01*
X201430771Y-186314343D01*
X201359343Y-186242914D01*
X201287914Y-186100057D01*
X201287914Y-185671486D01*
X201359343Y-185528629D01*
X201430771Y-185457200D01*
X201573629Y-185385771D01*
X201859343Y-185385771D01*
X202002200Y-185457200D01*
X203287914Y-186385771D02*
X203287914Y-185600057D01*
X203216485Y-185457200D01*
X203073628Y-185385771D01*
X202787914Y-185385771D01*
X202645057Y-185457200D01*
X203287914Y-186314343D02*
X203145057Y-186385771D01*
X202787914Y-186385771D01*
X202645057Y-186314343D01*
X202573628Y-186171486D01*
X202573628Y-186028629D01*
X202645057Y-185885771D01*
X202787914Y-185814343D01*
X203145057Y-185814343D01*
X203287914Y-185742914D01*
X204645057Y-186385771D02*
X204645057Y-184885771D01*
X204645057Y-186314343D02*
X204502200Y-186385771D01*
X204216486Y-186385771D01*
X204073628Y-186314343D01*
X204002200Y-186242914D01*
X203930771Y-186100057D01*
X203930771Y-185671486D01*
X204002200Y-185528629D01*
X204073628Y-185457200D01*
X204216486Y-185385771D01*
X204502200Y-185385771D01*
X204645057Y-185457200D01*
X205002200Y-186528629D02*
X206145057Y-186528629D01*
X206502200Y-185385771D02*
X206502200Y-186885771D01*
X206502200Y-185457200D02*
X206645057Y-185385771D01*
X206930771Y-185385771D01*
X207073628Y-185457200D01*
X207145057Y-185528629D01*
X207216486Y-185671486D01*
X207216486Y-186100057D01*
X207145057Y-186242914D01*
X207073628Y-186314343D01*
X206930771Y-186385771D01*
X206645057Y-186385771D01*
X206502200Y-186314343D01*
X208502200Y-186314343D02*
X208359343Y-186385771D01*
X208073629Y-186385771D01*
X207930771Y-186314343D01*
X207859343Y-186242914D01*
X207787914Y-186100057D01*
X207787914Y-185671486D01*
X207859343Y-185528629D01*
X207930771Y-185457200D01*
X208073629Y-185385771D01*
X208359343Y-185385771D01*
X208502200Y-185457200D01*
X209145057Y-186385771D02*
X209145057Y-184885771D01*
X209145057Y-185457200D02*
X209287914Y-185385771D01*
X209573628Y-185385771D01*
X209716485Y-185457200D01*
X209787914Y-185528629D01*
X209859343Y-185671486D01*
X209859343Y-186100057D01*
X209787914Y-186242914D01*
X209716485Y-186314343D01*
X209573628Y-186385771D01*
X209287914Y-186385771D01*
X209145057Y-186314343D01*
D10*
D11*
X177002200Y-181507200D02*
X285002200Y-181507200D01*
D10*
D11*
X178287914Y-183614343D02*
X178502200Y-183685771D01*
X178859343Y-183685771D01*
X179002200Y-183614343D01*
X179073629Y-183542914D01*
X179145057Y-183400057D01*
X179145057Y-183257200D01*
X179073629Y-183114343D01*
X179002200Y-183042914D01*
X178859343Y-182971486D01*
X178573629Y-182900057D01*
X178430771Y-182828629D01*
X178359343Y-182757200D01*
X178287914Y-182614343D01*
X178287914Y-182471486D01*
X178359343Y-182328629D01*
X178430771Y-182257200D01*
X178573629Y-182185771D01*
X178930771Y-182185771D01*
X179145057Y-182257200D01*
X179787914Y-183685771D02*
X179787914Y-182185771D01*
X180430771Y-183685771D02*
X180430771Y-182900057D01*
X180359342Y-182757200D01*
X180216485Y-182685771D01*
X180002200Y-182685771D01*
X179859342Y-182757200D01*
X179787914Y-182828629D01*
X181716485Y-183614343D02*
X181573628Y-183685771D01*
X181287914Y-183685771D01*
X181145057Y-183614343D01*
X181073628Y-183471486D01*
X181073628Y-182900057D01*
X181145057Y-182757200D01*
X181287914Y-182685771D01*
X181573628Y-182685771D01*
X181716485Y-182757200D01*
X181787914Y-182900057D01*
X181787914Y-183042914D01*
X181073628Y-183185771D01*
X183002199Y-183614343D02*
X182859342Y-183685771D01*
X182573628Y-183685771D01*
X182430771Y-183614343D01*
X182359342Y-183471486D01*
X182359342Y-182900057D01*
X182430771Y-182757200D01*
X182573628Y-182685771D01*
X182859342Y-182685771D01*
X183002199Y-182757200D01*
X183073628Y-182900057D01*
X183073628Y-183042914D01*
X182359342Y-183185771D01*
X183502199Y-182685771D02*
X184073628Y-182685771D01*
X183716485Y-182185771D02*
X183716485Y-183471486D01*
X183787913Y-183614343D01*
X183930771Y-183685771D01*
X184073628Y-183685771D01*
X184573628Y-183542914D02*
X184645056Y-183614343D01*
X184573628Y-183685771D01*
X184502199Y-183614343D01*
X184573628Y-183542914D01*
X184573628Y-183685771D01*
X184573628Y-182757200D02*
X184645056Y-182828629D01*
X184573628Y-182900057D01*
X184502199Y-182828629D01*
X184573628Y-182757200D01*
X184573628Y-182900057D01*
D10*
D11*
X197002200Y-191507200D02*
X197002200Y-194507200D01*
D10*
D11*
X261002200Y-191507200D02*
X261002200Y-198007200D01*
X83802381Y-12583333D02*
X82802381Y-12583333D01*
X82802381Y-12202380D01*
X82850000Y-12107142D01*
X82897619Y-12059523D01*
X82992857Y-12011904D01*
X83135714Y-12011904D01*
X83230952Y-12059523D01*
X83278571Y-12107142D01*
X83326190Y-12202380D01*
X83326190Y-12583333D01*
X82802381Y-11678571D02*
X83802381Y-11440476D01*
X83088095Y-11249999D01*
X83802381Y-11059523D01*
X82802381Y-10821428D01*
X83802381Y-9869047D02*
X83326190Y-10202381D01*
X83802381Y-10440476D02*
X82802381Y-10440476D01*
X82802381Y-10059523D01*
X82850000Y-9964285D01*
X82897619Y-9916666D01*
X82992857Y-9869047D01*
X83135714Y-9869047D01*
X83230952Y-9916666D01*
X83278571Y-9964285D01*
X83326190Y-10059523D01*
X83326190Y-10440476D01*
X80352381Y-13502381D02*
X79352381Y-13502381D01*
X79352381Y-13121428D01*
X79400000Y-13026190D01*
X79447619Y-12978571D01*
X79542857Y-12930952D01*
X79685714Y-12930952D01*
X79780952Y-12978571D01*
X79828571Y-13026190D01*
X79876190Y-13121428D01*
X79876190Y-13502381D01*
X79352381Y-12597619D02*
X80352381Y-12359524D01*
X79638095Y-12169047D01*
X80352381Y-11978571D01*
X79352381Y-11740476D01*
X80352381Y-10788095D02*
X79876190Y-11121429D01*
X80352381Y-11359524D02*
X79352381Y-11359524D01*
X79352381Y-10978571D01*
X79400000Y-10883333D01*
X79447619Y-10835714D01*
X79542857Y-10788095D01*
X79685714Y-10788095D01*
X79780952Y-10835714D01*
X79828571Y-10883333D01*
X79876190Y-10978571D01*
X79876190Y-11359524D01*
X80447619Y-10597619D02*
X80447619Y-9835714D01*
X80352381Y-9597619D02*
X79352381Y-9597619D01*
X76852381Y-12438095D02*
X75852381Y-12438095D01*
X75852381Y-12200000D01*
X75900000Y-12057142D01*
X75995238Y-11961904D01*
X76090476Y-11914285D01*
X76280952Y-11866666D01*
X76423810Y-11866666D01*
X76614286Y-11914285D01*
X76709524Y-11961904D01*
X76804762Y-12057142D01*
X76852381Y-12200000D01*
X76852381Y-12438095D01*
X76804762Y-11485714D02*
X76852381Y-11342857D01*
X76852381Y-11104761D01*
X76804762Y-11009523D01*
X76757143Y-10961904D01*
X76661905Y-10914285D01*
X76566667Y-10914285D01*
X76471429Y-10961904D01*
X76423810Y-11009523D01*
X76376190Y-11104761D01*
X76328571Y-11295238D01*
X76280952Y-11390476D01*
X76233333Y-11438095D01*
X76138095Y-11485714D01*
X76042857Y-11485714D01*
X75947619Y-11438095D01*
X75900000Y-11390476D01*
X75852381Y-11295238D01*
X75852381Y-11057142D01*
X75900000Y-10914285D01*
X75900000Y-9961904D02*
X75852381Y-10057142D01*
X75852381Y-10199999D01*
X75900000Y-10342857D01*
X75995238Y-10438095D01*
X76090476Y-10485714D01*
X76280952Y-10533333D01*
X76423810Y-10533333D01*
X76614286Y-10485714D01*
X76709524Y-10438095D01*
X76804762Y-10342857D01*
X76852381Y-10199999D01*
X76852381Y-10104761D01*
X76804762Y-9961904D01*
X76757143Y-9914285D01*
X76423810Y-9914285D01*
X76423810Y-10104761D01*
X73304762Y-13040476D02*
X73352381Y-12897619D01*
X73352381Y-12659523D01*
X73304762Y-12564285D01*
X73257143Y-12516666D01*
X73161905Y-12469047D01*
X73066667Y-12469047D01*
X72971429Y-12516666D01*
X72923810Y-12564285D01*
X72876190Y-12659523D01*
X72828571Y-12850000D01*
X72780952Y-12945238D01*
X72733333Y-12992857D01*
X72638095Y-13040476D01*
X72542857Y-13040476D01*
X72447619Y-12992857D01*
X72400000Y-12945238D01*
X72352381Y-12850000D01*
X72352381Y-12611904D01*
X72400000Y-12469047D01*
X73352381Y-12040476D02*
X72352381Y-12040476D01*
X72828571Y-12040476D02*
X72828571Y-11469047D01*
X73352381Y-11469047D02*
X72352381Y-11469047D01*
X73447619Y-11230952D02*
X73447619Y-10469047D01*
X73352381Y-10230952D02*
X72352381Y-10230952D01*
X72352381Y-9849999D01*
X72400000Y-9754761D01*
X72447619Y-9707142D01*
X72542857Y-9659523D01*
X72685714Y-9659523D01*
X72780952Y-9707142D01*
X72828571Y-9754761D01*
X72876190Y-9849999D01*
X72876190Y-10230952D01*
X69754762Y-13114286D02*
X69802381Y-12971429D01*
X69802381Y-12733333D01*
X69754762Y-12638095D01*
X69707143Y-12590476D01*
X69611905Y-12542857D01*
X69516667Y-12542857D01*
X69421429Y-12590476D01*
X69373810Y-12638095D01*
X69326190Y-12733333D01*
X69278571Y-12923810D01*
X69230952Y-13019048D01*
X69183333Y-13066667D01*
X69088095Y-13114286D01*
X68992857Y-13114286D01*
X68897619Y-13066667D01*
X68850000Y-13019048D01*
X68802381Y-12923810D01*
X68802381Y-12685714D01*
X68850000Y-12542857D01*
X69802381Y-12114286D02*
X68802381Y-12114286D01*
X69278571Y-12114286D02*
X69278571Y-11542857D01*
X69802381Y-11542857D02*
X68802381Y-11542857D01*
X69897619Y-11304762D02*
X69897619Y-10542857D01*
X69802381Y-10304762D02*
X68802381Y-10304762D01*
X69802381Y-9733333D01*
X68802381Y-9733333D01*
X65250000Y-11861904D02*
X65202381Y-11957142D01*
X65202381Y-12099999D01*
X65250000Y-12242857D01*
X65345238Y-12338095D01*
X65440476Y-12385714D01*
X65630952Y-12433333D01*
X65773810Y-12433333D01*
X65964286Y-12385714D01*
X66059524Y-12338095D01*
X66154762Y-12242857D01*
X66202381Y-12099999D01*
X66202381Y-12004761D01*
X66154762Y-11861904D01*
X66107143Y-11814285D01*
X65773810Y-11814285D01*
X65773810Y-12004761D01*
X66202381Y-11385714D02*
X65202381Y-11385714D01*
X66202381Y-10814285D01*
X65202381Y-10814285D01*
X66202381Y-10338095D02*
X65202381Y-10338095D01*
X65202381Y-10100000D01*
X65250000Y-9957142D01*
X65345238Y-9861904D01*
X65440476Y-9814285D01*
X65630952Y-9766666D01*
X65773810Y-9766666D01*
X65964286Y-9814285D01*
X66059524Y-9861904D01*
X66154762Y-9957142D01*
X66202381Y-10100000D01*
X66202381Y-10338095D01*
D12*
X107642857Y-15628571D02*
X107928571Y-15628571D01*
X108071429Y-15700000D01*
X108214286Y-15842857D01*
X108285714Y-16128571D01*
X108285714Y-16628571D01*
X108214286Y-16914286D01*
X108071429Y-17057143D01*
X107928571Y-17128571D01*
X107642857Y-17128571D01*
X107500000Y-17057143D01*
X107357143Y-16914286D01*
X107285714Y-16628571D01*
X107285714Y-16128571D01*
X107357143Y-15842857D01*
X107500000Y-15700000D01*
X107642857Y-15628571D01*
X108928572Y-15628571D02*
X108928572Y-16842857D01*
X109000000Y-16985714D01*
X109071429Y-17057143D01*
X109214286Y-17128571D01*
X109500000Y-17128571D01*
X109642858Y-17057143D01*
X109714286Y-16985714D01*
X109785715Y-16842857D01*
X109785715Y-15628571D01*
X110285715Y-15628571D02*
X111142858Y-15628571D01*
X110714287Y-17128571D02*
X110714287Y-15628571D01*
X111642858Y-17128571D02*
X111642858Y-15628571D01*
X112214286Y-15628571D01*
X112357144Y-15700000D01*
X112428572Y-15771429D01*
X112500001Y-15914286D01*
X112500001Y-16128571D01*
X112428572Y-16271429D01*
X112357144Y-16342857D01*
X112214286Y-16414286D01*
X111642858Y-16414286D01*
X113142858Y-15628571D02*
X113142858Y-16842857D01*
X113214286Y-16985714D01*
X113285715Y-17057143D01*
X113428572Y-17128571D01*
X113714286Y-17128571D01*
X113857144Y-17057143D01*
X113928572Y-16985714D01*
X114000001Y-16842857D01*
X114000001Y-15628571D01*
X114500001Y-15628571D02*
X115357144Y-15628571D01*
X114928573Y-17128571D02*
X114928573Y-15628571D01*
X35107143Y-17928571D02*
X35107143Y-16428571D01*
X35821429Y-17928571D02*
X35821429Y-16428571D01*
X36678572Y-17928571D01*
X36678572Y-16428571D01*
X37392858Y-17928571D02*
X37392858Y-16428571D01*
X37964286Y-16428571D01*
X38107144Y-16500000D01*
X38178572Y-16571429D01*
X38250001Y-16714286D01*
X38250001Y-16928571D01*
X38178572Y-17071429D01*
X38107144Y-17142857D01*
X37964286Y-17214286D01*
X37392858Y-17214286D01*
X38892858Y-16428571D02*
X38892858Y-17642857D01*
X38964286Y-17785714D01*
X39035715Y-17857143D01*
X39178572Y-17928571D01*
X39464286Y-17928571D01*
X39607144Y-17857143D01*
X39678572Y-17785714D01*
X39750001Y-17642857D01*
X39750001Y-16428571D01*
X40250001Y-16428571D02*
X41107144Y-16428571D01*
X40678573Y-17928571D02*
X40678573Y-16428571D01*
X107447619Y-13828571D02*
X109352381Y-13828571D01*
X112547619Y-13878571D02*
X114452381Y-13878571D01*
X113500000Y-14830952D02*
X113500000Y-12926190D01*
X34597619Y-14028571D02*
X36502381Y-14028571D01*
X39697619Y-14078571D02*
X41602381Y-14078571D01*
X40650000Y-15030952D02*
X40650000Y-13126190D01*
D11*
X0Y-50800000D02*
X148971000Y-50800000D01*
X0Y0D02*
X0Y-50800000D01*
X148971000Y0D02*
X148971000Y-50800000D01*
X0Y0D02*
X148971000Y0D01*
D14*
X20580000Y-44950000D02*
X20580000Y-46950000D01*
X22620000Y-46950000D02*
X22620000Y-44950000D01*
X33650000Y-46780000D02*
X31650000Y-46780000D01*
X31650000Y-48820000D02*
X33650000Y-48820000D01*
X27000000Y-39350000D02*
X26000000Y-39350000D01*
X26000000Y-41050000D02*
X27000000Y-41050000D01*
X65650000Y-37450000D02*
X65650000Y-36450000D01*
X63950000Y-36450000D02*
X63950000Y-37450000D01*
X81500000Y-37500000D02*
X81500000Y-36500000D01*
X79800000Y-36500000D02*
X79800000Y-37500000D01*
X88700000Y-36450000D02*
X88700000Y-37450000D01*
X90400000Y-37450000D02*
X90400000Y-36450000D01*
X122900000Y-45150000D02*
X121900000Y-45150000D01*
X121900000Y-46850000D02*
X122900000Y-46850000D01*
X99600000Y-7100000D02*
X101500000Y-7100000D01*
X101500000Y-7100000D02*
X101500000Y-2400000D01*
X99600000Y-7100000D02*
X99600000Y-2400000D01*
X95500000Y-7100000D02*
X97400000Y-7100000D01*
X97400000Y-7100000D02*
X97400000Y-2400000D01*
X95500000Y-7100000D02*
X95500000Y-2400000D01*
X91400000Y-7050000D02*
X93300000Y-7050000D01*
X93300000Y-7050000D02*
X93300000Y-2350000D01*
X91400000Y-7050000D02*
X91400000Y-2350000D01*
X70900000Y-38250000D02*
X72100000Y-38250000D01*
X70900000Y-36400000D02*
X70900000Y-38250000D01*
X72100000Y-36400000D02*
X72100000Y-38250000D01*
X123400000Y-48650000D02*
X123400000Y-47450000D01*
X121550000Y-48650000D02*
X123400000Y-48650000D01*
X121550000Y-47450000D02*
X123400000Y-47450000D01*
D11*
X85505982Y-10210000D02*
G75*
G03X85505982Y-10210000I-445982J0D01*
G01*
X63300000Y0D02*
X63300000Y-9200000D01*
X85700000Y-9200000D02*
X63300000Y-9200000D01*
X85700000Y0D02*
X85700000Y-9200000D01*
X85700000Y0D02*
X63300000Y0D01*
D14*
X123310000Y-26780000D02*
X123310000Y-25850000D01*
X123310000Y-23620000D02*
X123310000Y-24550000D01*
X123310000Y-23620000D02*
X120150000Y-23620000D01*
X123310000Y-26780000D02*
X121850000Y-26780000D01*
X97330000Y-30290000D02*
X96400000Y-30290000D01*
X94170000Y-30290000D02*
X95100000Y-30290000D01*
X94170000Y-30290000D02*
X94170000Y-33450000D01*
X97330000Y-30290000D02*
X97330000Y-31750000D01*
X102680000Y-30290000D02*
X101750000Y-30290000D01*
X99520000Y-30290000D02*
X100450000Y-30290000D01*
X99520000Y-30290000D02*
X99520000Y-33450000D01*
X102680000Y-30290000D02*
X102680000Y-31750000D01*
X34550000Y-27320000D02*
X35750000Y-27320000D01*
X35750000Y-29080000D02*
X34550000Y-29080000D01*
X44150000Y-29030000D02*
X42950000Y-29030000D01*
X42950000Y-27270000D02*
X44150000Y-27270000D01*
D11*
X33163500Y-37803500D02*
X33163500Y-30696500D01*
X45536500Y-30696500D02*
X33163500Y-30696500D01*
X45536500Y-37803500D02*
X45536500Y-30696500D01*
X45536500Y-37803500D02*
X33163500Y-37803500D01*
D14*
X121750000Y-29720000D02*
X122950000Y-29720000D01*
X122950000Y-31480000D02*
X121750000Y-31480000D01*
X100250000Y-38520000D02*
X95050000Y-38520000D01*
X95050000Y-34880000D02*
X100250000Y-34880000D01*
X122950000Y-29230000D02*
X121750000Y-29230000D01*
X121750000Y-27470000D02*
X122950000Y-27470000D01*
X121750000Y-20970000D02*
X122950000Y-20970000D01*
X122950000Y-22730000D02*
X121750000Y-22730000D01*
X101430000Y-9900000D02*
X101430000Y-11100000D01*
X99670000Y-11100000D02*
X99670000Y-9900000D01*
X27100000Y-43130000D02*
X25900000Y-43130000D01*
X25900000Y-41370000D02*
X27100000Y-41370000D01*
X73870000Y-37650000D02*
X73870000Y-36450000D01*
X75630000Y-36450000D02*
X75630000Y-37650000D01*
X27100000Y-45180000D02*
X25900000Y-45180000D01*
X25900000Y-43420000D02*
X27100000Y-43420000D01*
X76870000Y-37650000D02*
X76870000Y-36450000D01*
X78630000Y-36450000D02*
X78630000Y-37650000D01*
X122950000Y-20430000D02*
X121750000Y-20430000D01*
X121750000Y-18670000D02*
X122950000Y-18670000D01*
X93230000Y-9900000D02*
X93230000Y-11100000D01*
X91470000Y-11100000D02*
X91470000Y-9900000D01*
X96680000Y-24650000D02*
X96680000Y-19450000D01*
X100320000Y-19450000D02*
X100320000Y-24650000D01*
X97330000Y-9900000D02*
X97330000Y-11100000D01*
X95570000Y-11100000D02*
X95570000Y-9900000D01*
X60870000Y-37500000D02*
X60870000Y-36300000D01*
X62630000Y-36300000D02*
X62630000Y-37500000D01*
X69130000Y-36450000D02*
X69130000Y-37650000D01*
X67370000Y-37650000D02*
X67370000Y-36450000D01*
X87480000Y-36450000D02*
X87480000Y-37650000D01*
X85720000Y-37650000D02*
X85720000Y-36450000D01*
X82720000Y-37650000D02*
X82720000Y-36450000D01*
X84480000Y-36450000D02*
X84480000Y-37650000D01*
X121750000Y-42870000D02*
X122950000Y-42870000D01*
X122950000Y-44630000D02*
X121750000Y-44630000D01*
X121750000Y-40570000D02*
X122950000Y-40570000D01*
X122950000Y-42330000D02*
X121750000Y-42330000D01*
X121750000Y-38270000D02*
X122950000Y-38270000D01*
X122950000Y-40030000D02*
X121750000Y-40030000D01*
X122950000Y-37730000D02*
X121750000Y-37730000D01*
X121750000Y-35970000D02*
X122950000Y-35970000D01*
X25650000Y-49010000D02*
X27450000Y-49010000D01*
X27450000Y-45790000D02*
X24500000Y-45790000D01*
D11*
X85975000Y-28375000D02*
X85975000Y-28425000D01*
X90125000Y-28375000D02*
X90125000Y-28520000D01*
X90125000Y-33525000D02*
X90125000Y-33380000D01*
X85975000Y-33525000D02*
X85975000Y-33380000D01*
X85975000Y-28375000D02*
X90125000Y-28375000D01*
X85975000Y-33525000D02*
X90125000Y-33525000D01*
X85975000Y-28425000D02*
X84575000Y-28425000D01*
D14*
X123250000Y-32190000D02*
X121450000Y-32190000D01*
X121450000Y-35410000D02*
X123900000Y-35410000D01*
D11*
X48160000Y-6730000D02*
X48160000Y-4270000D01*
X51840000Y-6730000D02*
X51840000Y-4270000D01*
X58040000Y-4270000D02*
X58040000Y-6730000D01*
X54360000Y-4270000D02*
X54360000Y-6730000D01*
X63250000Y-14250000D02*
X85750000Y-14250000D01*
X63250000Y-20450000D02*
X63250000Y-24050000D01*
X63250000Y-14250000D02*
X63250000Y-17850000D01*
X85750000Y-20450000D02*
X85750000Y-24050000D01*
X85750000Y-14250000D02*
X85750000Y-17850000D01*
X63250000Y-24050000D02*
X85750000Y-24050000D01*
X44816563Y-13160000D02*
G75*
G03X44816563Y-13160000I-376563J0D01*
G01*
X44180000Y-12000000D02*
X32020000Y-12000000D01*
X44180000Y0D02*
X44180000Y-12000000D01*
X44180000Y0D02*
X32020000Y0D01*
X32020000Y0D02*
X32020000Y-12000000D01*
X117616563Y-13160000D02*
G75*
G03X117616563Y-13160000I-376563J0D01*
G01*
X116980000Y-12000000D02*
X104820000Y-12000000D01*
X116980000Y0D02*
X116980000Y-12000000D01*
X116980000Y0D02*
X104820000Y0D01*
X104820000Y0D02*
X104820000Y-12000000D01*
D14*
X25250000Y-37750000D02*
X25250000Y-38950000D01*
X27100000Y-37750000D02*
X25250000Y-37750000D01*
X27100000Y-38950000D02*
X25250000Y-38950000D01*
D11*
X114760500Y-30735000D02*
X116759480Y-30735000D01*
X116759480Y-30735000D02*
X116759480Y-22235000D01*
X104760520Y-22235000D02*
X104760520Y-30735000D01*
X104760520Y-30735000D02*
X106759500Y-30735000D01*
D14*
X42230000Y-44200000D02*
X42230000Y-42200000D01*
X44370000Y-42200000D02*
X44370000Y-44200000D01*
D11*
X22057143Y-41769047D02*
X22104762Y-41816666D01*
X22152381Y-41959523D01*
X22152381Y-42054761D01*
X22104762Y-42197619D01*
X22009524Y-42292857D01*
X21914286Y-42340476D01*
X21723810Y-42388095D01*
X21580952Y-42388095D01*
X21390476Y-42340476D01*
X21295238Y-42292857D01*
X21200000Y-42197619D01*
X21152381Y-42054761D01*
X21152381Y-41959523D01*
X21200000Y-41816666D01*
X21247619Y-41769047D01*
X22152381Y-40816666D02*
X22152381Y-41388095D01*
X22152381Y-41102381D02*
X21152381Y-41102381D01*
X21295238Y-41197619D01*
X21390476Y-41292857D01*
X21438095Y-41388095D01*
X21152381Y-40197619D02*
X21152381Y-40102380D01*
X21200000Y-40007142D01*
X21247619Y-39959523D01*
X21342857Y-39911904D01*
X21533333Y-39864285D01*
X21771429Y-39864285D01*
X21961905Y-39911904D01*
X22057143Y-39959523D01*
X22104762Y-40007142D01*
X22152381Y-40102380D01*
X22152381Y-40197619D01*
X22104762Y-40292857D01*
X22057143Y-40340476D01*
X21961905Y-40388095D01*
X21771429Y-40435714D01*
X21533333Y-40435714D01*
X21342857Y-40388095D01*
X21247619Y-40340476D01*
X21200000Y-40292857D01*
X21152381Y-40197619D01*
X22152381Y-38911904D02*
X22152381Y-39483333D01*
X22152381Y-39197619D02*
X21152381Y-39197619D01*
X21295238Y-39292857D01*
X21390476Y-39388095D01*
X21438095Y-39483333D01*
X37180953Y-48157143D02*
X37133334Y-48204762D01*
X36990477Y-48252381D01*
X36895239Y-48252381D01*
X36752381Y-48204762D01*
X36657143Y-48109524D01*
X36609524Y-48014286D01*
X36561905Y-47823810D01*
X36561905Y-47680952D01*
X36609524Y-47490476D01*
X36657143Y-47395238D01*
X36752381Y-47300000D01*
X36895239Y-47252381D01*
X36990477Y-47252381D01*
X37133334Y-47300000D01*
X37180953Y-47347619D01*
X38133334Y-48252381D02*
X37561905Y-48252381D01*
X37847619Y-48252381D02*
X37847619Y-47252381D01*
X37752381Y-47395238D01*
X37657143Y-47490476D01*
X37561905Y-47538095D01*
X38752381Y-47252381D02*
X38847620Y-47252381D01*
X38942858Y-47300000D01*
X38990477Y-47347619D01*
X39038096Y-47442857D01*
X39085715Y-47633333D01*
X39085715Y-47871429D01*
X39038096Y-48061905D01*
X38990477Y-48157143D01*
X38942858Y-48204762D01*
X38847620Y-48252381D01*
X38752381Y-48252381D01*
X38657143Y-48204762D01*
X38609524Y-48157143D01*
X38561905Y-48061905D01*
X38514286Y-47871429D01*
X38514286Y-47633333D01*
X38561905Y-47442857D01*
X38609524Y-47347619D01*
X38657143Y-47300000D01*
X38752381Y-47252381D01*
X39466667Y-47347619D02*
X39514286Y-47300000D01*
X39609524Y-47252381D01*
X39847620Y-47252381D01*
X39942858Y-47300000D01*
X39990477Y-47347619D01*
X40038096Y-47442857D01*
X40038096Y-47538095D01*
X39990477Y-47680952D01*
X39419048Y-48252381D01*
X40038096Y-48252381D01*
X29730953Y-40707143D02*
X29683334Y-40754762D01*
X29540477Y-40802381D01*
X29445239Y-40802381D01*
X29302381Y-40754762D01*
X29207143Y-40659524D01*
X29159524Y-40564286D01*
X29111905Y-40373810D01*
X29111905Y-40230952D01*
X29159524Y-40040476D01*
X29207143Y-39945238D01*
X29302381Y-39850000D01*
X29445239Y-39802381D01*
X29540477Y-39802381D01*
X29683334Y-39850000D01*
X29730953Y-39897619D01*
X30683334Y-40802381D02*
X30111905Y-40802381D01*
X30397619Y-40802381D02*
X30397619Y-39802381D01*
X30302381Y-39945238D01*
X30207143Y-40040476D01*
X30111905Y-40088095D01*
X31302381Y-39802381D02*
X31397620Y-39802381D01*
X31492858Y-39850000D01*
X31540477Y-39897619D01*
X31588096Y-39992857D01*
X31635715Y-40183333D01*
X31635715Y-40421429D01*
X31588096Y-40611905D01*
X31540477Y-40707143D01*
X31492858Y-40754762D01*
X31397620Y-40802381D01*
X31302381Y-40802381D01*
X31207143Y-40754762D01*
X31159524Y-40707143D01*
X31111905Y-40611905D01*
X31064286Y-40421429D01*
X31064286Y-40183333D01*
X31111905Y-39992857D01*
X31159524Y-39897619D01*
X31207143Y-39850000D01*
X31302381Y-39802381D01*
X31969048Y-39802381D02*
X32588096Y-39802381D01*
X32254762Y-40183333D01*
X32397620Y-40183333D01*
X32492858Y-40230952D01*
X32540477Y-40278571D01*
X32588096Y-40373810D01*
X32588096Y-40611905D01*
X32540477Y-40707143D01*
X32492858Y-40754762D01*
X32397620Y-40802381D01*
X32111905Y-40802381D01*
X32016667Y-40754762D01*
X31969048Y-40707143D01*
X65157143Y-42619047D02*
X65204762Y-42666666D01*
X65252381Y-42809523D01*
X65252381Y-42904761D01*
X65204762Y-43047619D01*
X65109524Y-43142857D01*
X65014286Y-43190476D01*
X64823810Y-43238095D01*
X64680952Y-43238095D01*
X64490476Y-43190476D01*
X64395238Y-43142857D01*
X64300000Y-43047619D01*
X64252381Y-42904761D01*
X64252381Y-42809523D01*
X64300000Y-42666666D01*
X64347619Y-42619047D01*
X64347619Y-42238095D02*
X64300000Y-42190476D01*
X64252381Y-42095238D01*
X64252381Y-41857142D01*
X64300000Y-41761904D01*
X64347619Y-41714285D01*
X64442857Y-41666666D01*
X64538095Y-41666666D01*
X64680952Y-41714285D01*
X65252381Y-42285714D01*
X65252381Y-41666666D01*
X64252381Y-41047619D02*
X64252381Y-40952380D01*
X64300000Y-40857142D01*
X64347619Y-40809523D01*
X64442857Y-40761904D01*
X64633333Y-40714285D01*
X64871429Y-40714285D01*
X65061905Y-40761904D01*
X65157143Y-40809523D01*
X65204762Y-40857142D01*
X65252381Y-40952380D01*
X65252381Y-41047619D01*
X65204762Y-41142857D01*
X65157143Y-41190476D01*
X65061905Y-41238095D01*
X64871429Y-41285714D01*
X64633333Y-41285714D01*
X64442857Y-41238095D01*
X64347619Y-41190476D01*
X64300000Y-41142857D01*
X64252381Y-41047619D01*
X65252381Y-39761904D02*
X65252381Y-40333333D01*
X65252381Y-40047619D02*
X64252381Y-40047619D01*
X64395238Y-40142857D01*
X64490476Y-40238095D01*
X64538095Y-40333333D01*
X81007143Y-42669047D02*
X81054762Y-42716666D01*
X81102381Y-42859523D01*
X81102381Y-42954761D01*
X81054762Y-43097619D01*
X80959524Y-43192857D01*
X80864286Y-43240476D01*
X80673810Y-43288095D01*
X80530952Y-43288095D01*
X80340476Y-43240476D01*
X80245238Y-43192857D01*
X80150000Y-43097619D01*
X80102381Y-42954761D01*
X80102381Y-42859523D01*
X80150000Y-42716666D01*
X80197619Y-42669047D01*
X80197619Y-42288095D02*
X80150000Y-42240476D01*
X80102381Y-42145238D01*
X80102381Y-41907142D01*
X80150000Y-41811904D01*
X80197619Y-41764285D01*
X80292857Y-41716666D01*
X80388095Y-41716666D01*
X80530952Y-41764285D01*
X81102381Y-42335714D01*
X81102381Y-41716666D01*
X80102381Y-41097619D02*
X80102381Y-41002380D01*
X80150000Y-40907142D01*
X80197619Y-40859523D01*
X80292857Y-40811904D01*
X80483333Y-40764285D01*
X80721429Y-40764285D01*
X80911905Y-40811904D01*
X81007143Y-40859523D01*
X81054762Y-40907142D01*
X81102381Y-41002380D01*
X81102381Y-41097619D01*
X81054762Y-41192857D01*
X81007143Y-41240476D01*
X80911905Y-41288095D01*
X80721429Y-41335714D01*
X80483333Y-41335714D01*
X80292857Y-41288095D01*
X80197619Y-41240476D01*
X80150000Y-41192857D01*
X80102381Y-41097619D01*
X80197619Y-40383333D02*
X80150000Y-40335714D01*
X80102381Y-40240476D01*
X80102381Y-40002380D01*
X80150000Y-39907142D01*
X80197619Y-39859523D01*
X80292857Y-39811904D01*
X80388095Y-39811904D01*
X80530952Y-39859523D01*
X81102381Y-40430952D01*
X81102381Y-39811904D01*
X89907143Y-42769047D02*
X89954762Y-42816666D01*
X90002381Y-42959523D01*
X90002381Y-43054761D01*
X89954762Y-43197619D01*
X89859524Y-43292857D01*
X89764286Y-43340476D01*
X89573810Y-43388095D01*
X89430952Y-43388095D01*
X89240476Y-43340476D01*
X89145238Y-43292857D01*
X89050000Y-43197619D01*
X89002381Y-43054761D01*
X89002381Y-42959523D01*
X89050000Y-42816666D01*
X89097619Y-42769047D01*
X89097619Y-42388095D02*
X89050000Y-42340476D01*
X89002381Y-42245238D01*
X89002381Y-42007142D01*
X89050000Y-41911904D01*
X89097619Y-41864285D01*
X89192857Y-41816666D01*
X89288095Y-41816666D01*
X89430952Y-41864285D01*
X90002381Y-42435714D01*
X90002381Y-41816666D01*
X89002381Y-41197619D02*
X89002381Y-41102380D01*
X89050000Y-41007142D01*
X89097619Y-40959523D01*
X89192857Y-40911904D01*
X89383333Y-40864285D01*
X89621429Y-40864285D01*
X89811905Y-40911904D01*
X89907143Y-40959523D01*
X89954762Y-41007142D01*
X90002381Y-41102380D01*
X90002381Y-41197619D01*
X89954762Y-41292857D01*
X89907143Y-41340476D01*
X89811905Y-41388095D01*
X89621429Y-41435714D01*
X89383333Y-41435714D01*
X89192857Y-41388095D01*
X89097619Y-41340476D01*
X89050000Y-41292857D01*
X89002381Y-41197619D01*
X89002381Y-40530952D02*
X89002381Y-39911904D01*
X89383333Y-40245238D01*
X89383333Y-40102380D01*
X89430952Y-40007142D01*
X89478571Y-39959523D01*
X89573810Y-39911904D01*
X89811905Y-39911904D01*
X89907143Y-39959523D01*
X89954762Y-40007142D01*
X90002381Y-40102380D01*
X90002381Y-40388095D01*
X89954762Y-40483333D01*
X89907143Y-40530952D01*
X125830953Y-46357143D02*
X125783334Y-46404762D01*
X125640477Y-46452381D01*
X125545239Y-46452381D01*
X125402381Y-46404762D01*
X125307143Y-46309524D01*
X125259524Y-46214286D01*
X125211905Y-46023810D01*
X125211905Y-45880952D01*
X125259524Y-45690476D01*
X125307143Y-45595238D01*
X125402381Y-45500000D01*
X125545239Y-45452381D01*
X125640477Y-45452381D01*
X125783334Y-45500000D01*
X125830953Y-45547619D01*
X126164286Y-45452381D02*
X126783334Y-45452381D01*
X126450000Y-45833333D01*
X126592858Y-45833333D01*
X126688096Y-45880952D01*
X126735715Y-45928571D01*
X126783334Y-46023810D01*
X126783334Y-46261905D01*
X126735715Y-46357143D01*
X126688096Y-46404762D01*
X126592858Y-46452381D01*
X126307143Y-46452381D01*
X126211905Y-46404762D01*
X126164286Y-46357143D01*
X127402381Y-45452381D02*
X127497620Y-45452381D01*
X127592858Y-45500000D01*
X127640477Y-45547619D01*
X127688096Y-45642857D01*
X127735715Y-45833333D01*
X127735715Y-46071429D01*
X127688096Y-46261905D01*
X127640477Y-46357143D01*
X127592858Y-46404762D01*
X127497620Y-46452381D01*
X127402381Y-46452381D01*
X127307143Y-46404762D01*
X127259524Y-46357143D01*
X127211905Y-46261905D01*
X127164286Y-46071429D01*
X127164286Y-45833333D01*
X127211905Y-45642857D01*
X127259524Y-45547619D01*
X127307143Y-45500000D01*
X127402381Y-45452381D01*
X128688096Y-46452381D02*
X128116667Y-46452381D01*
X128402381Y-46452381D02*
X128402381Y-45452381D01*
X128307143Y-45595238D01*
X128211905Y-45690476D01*
X128116667Y-45738095D01*
X99152381Y-5690476D02*
X98152381Y-5690476D01*
X98152381Y-5452381D01*
X98200000Y-5309523D01*
X98295238Y-5214285D01*
X98390476Y-5166666D01*
X98580952Y-5119047D01*
X98723810Y-5119047D01*
X98914286Y-5166666D01*
X99009524Y-5214285D01*
X99104762Y-5309523D01*
X99152381Y-5452381D01*
X99152381Y-5690476D01*
X99152381Y-4166666D02*
X99152381Y-4738095D01*
X99152381Y-4452381D02*
X98152381Y-4452381D01*
X98295238Y-4547619D01*
X98390476Y-4642857D01*
X98438095Y-4738095D01*
X98152381Y-3547619D02*
X98152381Y-3452380D01*
X98200000Y-3357142D01*
X98247619Y-3309523D01*
X98342857Y-3261904D01*
X98533333Y-3214285D01*
X98771429Y-3214285D01*
X98961905Y-3261904D01*
X99057143Y-3309523D01*
X99104762Y-3357142D01*
X99152381Y-3452380D01*
X99152381Y-3547619D01*
X99104762Y-3642857D01*
X99057143Y-3690476D01*
X98961905Y-3738095D01*
X98771429Y-3785714D01*
X98533333Y-3785714D01*
X98342857Y-3738095D01*
X98247619Y-3690476D01*
X98200000Y-3642857D01*
X98152381Y-3547619D01*
X98247619Y-2833333D02*
X98200000Y-2785714D01*
X98152381Y-2690476D01*
X98152381Y-2452380D01*
X98200000Y-2357142D01*
X98247619Y-2309523D01*
X98342857Y-2261904D01*
X98438095Y-2261904D01*
X98580952Y-2309523D01*
X99152381Y-2880952D01*
X99152381Y-2261904D01*
X95052381Y-5690476D02*
X94052381Y-5690476D01*
X94052381Y-5452381D01*
X94100000Y-5309523D01*
X94195238Y-5214285D01*
X94290476Y-5166666D01*
X94480952Y-5119047D01*
X94623810Y-5119047D01*
X94814286Y-5166666D01*
X94909524Y-5214285D01*
X95004762Y-5309523D01*
X95052381Y-5452381D01*
X95052381Y-5690476D01*
X95052381Y-4166666D02*
X95052381Y-4738095D01*
X95052381Y-4452381D02*
X94052381Y-4452381D01*
X94195238Y-4547619D01*
X94290476Y-4642857D01*
X94338095Y-4738095D01*
X94052381Y-3547619D02*
X94052381Y-3452380D01*
X94100000Y-3357142D01*
X94147619Y-3309523D01*
X94242857Y-3261904D01*
X94433333Y-3214285D01*
X94671429Y-3214285D01*
X94861905Y-3261904D01*
X94957143Y-3309523D01*
X95004762Y-3357142D01*
X95052381Y-3452380D01*
X95052381Y-3547619D01*
X95004762Y-3642857D01*
X94957143Y-3690476D01*
X94861905Y-3738095D01*
X94671429Y-3785714D01*
X94433333Y-3785714D01*
X94242857Y-3738095D01*
X94147619Y-3690476D01*
X94100000Y-3642857D01*
X94052381Y-3547619D01*
X94052381Y-2880952D02*
X94052381Y-2261904D01*
X94433333Y-2595238D01*
X94433333Y-2452380D01*
X94480952Y-2357142D01*
X94528571Y-2309523D01*
X94623810Y-2261904D01*
X94861905Y-2261904D01*
X94957143Y-2309523D01*
X95004762Y-2357142D01*
X95052381Y-2452380D01*
X95052381Y-2738095D01*
X95004762Y-2833333D01*
X94957143Y-2880952D01*
X90952381Y-5640476D02*
X89952381Y-5640476D01*
X89952381Y-5402381D01*
X90000000Y-5259523D01*
X90095238Y-5164285D01*
X90190476Y-5116666D01*
X90380952Y-5069047D01*
X90523810Y-5069047D01*
X90714286Y-5116666D01*
X90809524Y-5164285D01*
X90904762Y-5259523D01*
X90952381Y-5402381D01*
X90952381Y-5640476D01*
X90952381Y-4116666D02*
X90952381Y-4688095D01*
X90952381Y-4402381D02*
X89952381Y-4402381D01*
X90095238Y-4497619D01*
X90190476Y-4592857D01*
X90238095Y-4688095D01*
X89952381Y-3497619D02*
X89952381Y-3402380D01*
X90000000Y-3307142D01*
X90047619Y-3259523D01*
X90142857Y-3211904D01*
X90333333Y-3164285D01*
X90571429Y-3164285D01*
X90761905Y-3211904D01*
X90857143Y-3259523D01*
X90904762Y-3307142D01*
X90952381Y-3402380D01*
X90952381Y-3497619D01*
X90904762Y-3592857D01*
X90857143Y-3640476D01*
X90761905Y-3688095D01*
X90571429Y-3735714D01*
X90333333Y-3735714D01*
X90142857Y-3688095D01*
X90047619Y-3640476D01*
X90000000Y-3592857D01*
X89952381Y-3497619D01*
X90285714Y-2307142D02*
X90952381Y-2307142D01*
X89904762Y-2545238D02*
X90619048Y-2783333D01*
X90619048Y-2164285D01*
X71952381Y-42190476D02*
X70952381Y-42190476D01*
X70952381Y-41952381D01*
X71000000Y-41809523D01*
X71095238Y-41714285D01*
X71190476Y-41666666D01*
X71380952Y-41619047D01*
X71523810Y-41619047D01*
X71714286Y-41666666D01*
X71809524Y-41714285D01*
X71904762Y-41809523D01*
X71952381Y-41952381D01*
X71952381Y-42190476D01*
X71047619Y-41238095D02*
X71000000Y-41190476D01*
X70952381Y-41095238D01*
X70952381Y-40857142D01*
X71000000Y-40761904D01*
X71047619Y-40714285D01*
X71142857Y-40666666D01*
X71238095Y-40666666D01*
X71380952Y-40714285D01*
X71952381Y-41285714D01*
X71952381Y-40666666D01*
X70952381Y-40047619D02*
X70952381Y-39952380D01*
X71000000Y-39857142D01*
X71047619Y-39809523D01*
X71142857Y-39761904D01*
X71333333Y-39714285D01*
X71571429Y-39714285D01*
X71761905Y-39761904D01*
X71857143Y-39809523D01*
X71904762Y-39857142D01*
X71952381Y-39952380D01*
X71952381Y-40047619D01*
X71904762Y-40142857D01*
X71857143Y-40190476D01*
X71761905Y-40238095D01*
X71571429Y-40285714D01*
X71333333Y-40285714D01*
X71142857Y-40238095D01*
X71047619Y-40190476D01*
X71000000Y-40142857D01*
X70952381Y-40047619D01*
X71952381Y-38761904D02*
X71952381Y-39333333D01*
X71952381Y-39047619D02*
X70952381Y-39047619D01*
X71095238Y-39142857D01*
X71190476Y-39238095D01*
X71238095Y-39333333D01*
X124209524Y-48502381D02*
X124209524Y-47502381D01*
X124447619Y-47502381D01*
X124590477Y-47550000D01*
X124685715Y-47645238D01*
X124733334Y-47740476D01*
X124780953Y-47930952D01*
X124780953Y-48073810D01*
X124733334Y-48264286D01*
X124685715Y-48359524D01*
X124590477Y-48454762D01*
X124447619Y-48502381D01*
X124209524Y-48502381D01*
X125114286Y-47502381D02*
X125733334Y-47502381D01*
X125400000Y-47883333D01*
X125542858Y-47883333D01*
X125638096Y-47930952D01*
X125685715Y-47978571D01*
X125733334Y-48073810D01*
X125733334Y-48311905D01*
X125685715Y-48407143D01*
X125638096Y-48454762D01*
X125542858Y-48502381D01*
X125257143Y-48502381D01*
X125161905Y-48454762D01*
X125114286Y-48407143D01*
X126352381Y-47502381D02*
X126447620Y-47502381D01*
X126542858Y-47550000D01*
X126590477Y-47597619D01*
X126638096Y-47692857D01*
X126685715Y-47883333D01*
X126685715Y-48121429D01*
X126638096Y-48311905D01*
X126590477Y-48407143D01*
X126542858Y-48454762D01*
X126447620Y-48502381D01*
X126352381Y-48502381D01*
X126257143Y-48454762D01*
X126209524Y-48407143D01*
X126161905Y-48311905D01*
X126114286Y-48121429D01*
X126114286Y-47883333D01*
X126161905Y-47692857D01*
X126209524Y-47597619D01*
X126257143Y-47550000D01*
X126352381Y-47502381D01*
X127638096Y-48502381D02*
X127066667Y-48502381D01*
X127352381Y-48502381D02*
X127352381Y-47502381D01*
X127257143Y-47645238D01*
X127161905Y-47740476D01*
X127066667Y-47788095D01*
X61734381Y-8297714D02*
X62448667Y-8297714D01*
X62591524Y-8345334D01*
X62686762Y-8440572D01*
X62734381Y-8583429D01*
X62734381Y-8678667D01*
X62734381Y-7297714D02*
X62734381Y-7869143D01*
X62734381Y-7583429D02*
X61734381Y-7583429D01*
X61877238Y-7678667D01*
X61972476Y-7773905D01*
X62020095Y-7869143D01*
X61734381Y-6678667D02*
X61734381Y-6583428D01*
X61782000Y-6488190D01*
X61829619Y-6440571D01*
X61924857Y-6392952D01*
X62115333Y-6345333D01*
X62353429Y-6345333D01*
X62543905Y-6392952D01*
X62639143Y-6440571D01*
X62686762Y-6488190D01*
X62734381Y-6583428D01*
X62734381Y-6678667D01*
X62686762Y-6773905D01*
X62639143Y-6821524D01*
X62543905Y-6869143D01*
X62353429Y-6916762D01*
X62115333Y-6916762D01*
X61924857Y-6869143D01*
X61829619Y-6821524D01*
X61782000Y-6773905D01*
X61734381Y-6678667D01*
X62734381Y-5392952D02*
X62734381Y-5964381D01*
X62734381Y-5678667D02*
X61734381Y-5678667D01*
X61877238Y-5773905D01*
X61972476Y-5869143D01*
X62020095Y-5964381D01*
X126652381Y-25797619D02*
X126557143Y-25750000D01*
X126461905Y-25654762D01*
X126319048Y-25511905D01*
X126223809Y-25464286D01*
X126128571Y-25464286D01*
X126176190Y-25702381D02*
X126080952Y-25654762D01*
X125985714Y-25559524D01*
X125938095Y-25369048D01*
X125938095Y-25035714D01*
X125985714Y-24845238D01*
X126080952Y-24750000D01*
X126176190Y-24702381D01*
X126366667Y-24702381D01*
X126461905Y-24750000D01*
X126557143Y-24845238D01*
X126604762Y-25035714D01*
X126604762Y-25369048D01*
X126557143Y-25559524D01*
X126461905Y-25654762D01*
X126366667Y-25702381D01*
X126176190Y-25702381D01*
X127557143Y-25702381D02*
X126985714Y-25702381D01*
X127271428Y-25702381D02*
X127271428Y-24702381D01*
X127176190Y-24845238D01*
X127080952Y-24940476D01*
X126985714Y-24988095D01*
X128176190Y-24702381D02*
X128271429Y-24702381D01*
X128366667Y-24750000D01*
X128414286Y-24797619D01*
X128461905Y-24892857D01*
X128509524Y-25083333D01*
X128509524Y-25321429D01*
X128461905Y-25511905D01*
X128414286Y-25607143D01*
X128366667Y-25654762D01*
X128271429Y-25702381D01*
X128176190Y-25702381D01*
X128080952Y-25654762D01*
X128033333Y-25607143D01*
X127985714Y-25511905D01*
X127938095Y-25321429D01*
X127938095Y-25083333D01*
X127985714Y-24892857D01*
X128033333Y-24797619D01*
X128080952Y-24750000D01*
X128176190Y-24702381D01*
X129461905Y-25702381D02*
X128890476Y-25702381D01*
X129176190Y-25702381D02*
X129176190Y-24702381D01*
X129080952Y-24845238D01*
X128985714Y-24940476D01*
X128890476Y-24988095D01*
X93797619Y-32097619D02*
X93750000Y-32192857D01*
X93654762Y-32288095D01*
X93511905Y-32430952D01*
X93464286Y-32526191D01*
X93464286Y-32621429D01*
X93702381Y-32573810D02*
X93654762Y-32669048D01*
X93559524Y-32764286D01*
X93369048Y-32811905D01*
X93035714Y-32811905D01*
X92845238Y-32764286D01*
X92750000Y-32669048D01*
X92702381Y-32573810D01*
X92702381Y-32383333D01*
X92750000Y-32288095D01*
X92845238Y-32192857D01*
X93035714Y-32145238D01*
X93369048Y-32145238D01*
X93559524Y-32192857D01*
X93654762Y-32288095D01*
X93702381Y-32383333D01*
X93702381Y-32573810D01*
X93702381Y-31192857D02*
X93702381Y-31764286D01*
X93702381Y-31478572D02*
X92702381Y-31478572D01*
X92845238Y-31573810D01*
X92940476Y-31669048D01*
X92988095Y-31764286D01*
X92702381Y-30573810D02*
X92702381Y-30478571D01*
X92750000Y-30383333D01*
X92797619Y-30335714D01*
X92892857Y-30288095D01*
X93083333Y-30240476D01*
X93321429Y-30240476D01*
X93511905Y-30288095D01*
X93607143Y-30335714D01*
X93654762Y-30383333D01*
X93702381Y-30478571D01*
X93702381Y-30573810D01*
X93654762Y-30669048D01*
X93607143Y-30716667D01*
X93511905Y-30764286D01*
X93321429Y-30811905D01*
X93083333Y-30811905D01*
X92892857Y-30764286D01*
X92797619Y-30716667D01*
X92750000Y-30669048D01*
X92702381Y-30573810D01*
X92702381Y-29907143D02*
X92702381Y-29288095D01*
X93083333Y-29621429D01*
X93083333Y-29478571D01*
X93130952Y-29383333D01*
X93178571Y-29335714D01*
X93273810Y-29288095D01*
X93511905Y-29288095D01*
X93607143Y-29335714D01*
X93654762Y-29383333D01*
X93702381Y-29478571D01*
X93702381Y-29764286D01*
X93654762Y-29859524D01*
X93607143Y-29907143D01*
X99147619Y-32097619D02*
X99100000Y-32192857D01*
X99004762Y-32288095D01*
X98861905Y-32430952D01*
X98814286Y-32526191D01*
X98814286Y-32621429D01*
X99052381Y-32573810D02*
X99004762Y-32669048D01*
X98909524Y-32764286D01*
X98719048Y-32811905D01*
X98385714Y-32811905D01*
X98195238Y-32764286D01*
X98100000Y-32669048D01*
X98052381Y-32573810D01*
X98052381Y-32383333D01*
X98100000Y-32288095D01*
X98195238Y-32192857D01*
X98385714Y-32145238D01*
X98719048Y-32145238D01*
X98909524Y-32192857D01*
X99004762Y-32288095D01*
X99052381Y-32383333D01*
X99052381Y-32573810D01*
X99052381Y-31192857D02*
X99052381Y-31764286D01*
X99052381Y-31478572D02*
X98052381Y-31478572D01*
X98195238Y-31573810D01*
X98290476Y-31669048D01*
X98338095Y-31764286D01*
X98052381Y-30573810D02*
X98052381Y-30478571D01*
X98100000Y-30383333D01*
X98147619Y-30335714D01*
X98242857Y-30288095D01*
X98433333Y-30240476D01*
X98671429Y-30240476D01*
X98861905Y-30288095D01*
X98957143Y-30335714D01*
X99004762Y-30383333D01*
X99052381Y-30478571D01*
X99052381Y-30573810D01*
X99004762Y-30669048D01*
X98957143Y-30716667D01*
X98861905Y-30764286D01*
X98671429Y-30811905D01*
X98433333Y-30811905D01*
X98242857Y-30764286D01*
X98147619Y-30716667D01*
X98100000Y-30669048D01*
X98052381Y-30573810D01*
X98385714Y-29383333D02*
X99052381Y-29383333D01*
X98004762Y-29621429D02*
X98719048Y-29859524D01*
X98719048Y-29240476D01*
X34030953Y-26952381D02*
X33697619Y-26476190D01*
X33459524Y-26952381D02*
X33459524Y-25952381D01*
X33840477Y-25952381D01*
X33935715Y-26000000D01*
X33983334Y-26047619D01*
X34030953Y-26142857D01*
X34030953Y-26285714D01*
X33983334Y-26380952D01*
X33935715Y-26428571D01*
X33840477Y-26476190D01*
X33459524Y-26476190D01*
X34983334Y-26952381D02*
X34411905Y-26952381D01*
X34697619Y-26952381D02*
X34697619Y-25952381D01*
X34602381Y-26095238D01*
X34507143Y-26190476D01*
X34411905Y-26238095D01*
X35602381Y-25952381D02*
X35697620Y-25952381D01*
X35792858Y-26000000D01*
X35840477Y-26047619D01*
X35888096Y-26142857D01*
X35935715Y-26333333D01*
X35935715Y-26571429D01*
X35888096Y-26761905D01*
X35840477Y-26857143D01*
X35792858Y-26904762D01*
X35697620Y-26952381D01*
X35602381Y-26952381D01*
X35507143Y-26904762D01*
X35459524Y-26857143D01*
X35411905Y-26761905D01*
X35364286Y-26571429D01*
X35364286Y-26333333D01*
X35411905Y-26142857D01*
X35459524Y-26047619D01*
X35507143Y-26000000D01*
X35602381Y-25952381D01*
X36888096Y-26952381D02*
X36316667Y-26952381D01*
X36602381Y-26952381D02*
X36602381Y-25952381D01*
X36507143Y-26095238D01*
X36411905Y-26190476D01*
X36316667Y-26238095D01*
X42430953Y-26902381D02*
X42097619Y-26426190D01*
X41859524Y-26902381D02*
X41859524Y-25902381D01*
X42240477Y-25902381D01*
X42335715Y-25950000D01*
X42383334Y-25997619D01*
X42430953Y-26092857D01*
X42430953Y-26235714D01*
X42383334Y-26330952D01*
X42335715Y-26378571D01*
X42240477Y-26426190D01*
X41859524Y-26426190D01*
X43383334Y-26902381D02*
X42811905Y-26902381D01*
X43097619Y-26902381D02*
X43097619Y-25902381D01*
X43002381Y-26045238D01*
X42907143Y-26140476D01*
X42811905Y-26188095D01*
X44002381Y-25902381D02*
X44097620Y-25902381D01*
X44192858Y-25950000D01*
X44240477Y-25997619D01*
X44288096Y-26092857D01*
X44335715Y-26283333D01*
X44335715Y-26521429D01*
X44288096Y-26711905D01*
X44240477Y-26807143D01*
X44192858Y-26854762D01*
X44097620Y-26902381D01*
X44002381Y-26902381D01*
X43907143Y-26854762D01*
X43859524Y-26807143D01*
X43811905Y-26711905D01*
X43764286Y-26521429D01*
X43764286Y-26283333D01*
X43811905Y-26092857D01*
X43859524Y-25997619D01*
X43907143Y-25950000D01*
X44002381Y-25902381D01*
X44716667Y-25997619D02*
X44764286Y-25950000D01*
X44859524Y-25902381D01*
X45097620Y-25902381D01*
X45192858Y-25950000D01*
X45240477Y-25997619D01*
X45288096Y-26092857D01*
X45288096Y-26188095D01*
X45240477Y-26330952D01*
X44669048Y-26902381D01*
X45288096Y-26902381D01*
X36960953Y-39322381D02*
X36627619Y-38846190D01*
X36389524Y-39322381D02*
X36389524Y-38322381D01*
X36770477Y-38322381D01*
X36865715Y-38370000D01*
X36913334Y-38417619D01*
X36960953Y-38512857D01*
X36960953Y-38655714D01*
X36913334Y-38750952D01*
X36865715Y-38798571D01*
X36770477Y-38846190D01*
X36389524Y-38846190D01*
X37913334Y-39322381D02*
X37341905Y-39322381D01*
X37627619Y-39322381D02*
X37627619Y-38322381D01*
X37532381Y-38465238D01*
X37437143Y-38560476D01*
X37341905Y-38608095D01*
X38532381Y-38322381D02*
X38627620Y-38322381D01*
X38722858Y-38370000D01*
X38770477Y-38417619D01*
X38818096Y-38512857D01*
X38865715Y-38703333D01*
X38865715Y-38941429D01*
X38818096Y-39131905D01*
X38770477Y-39227143D01*
X38722858Y-39274762D01*
X38627620Y-39322381D01*
X38532381Y-39322381D01*
X38437143Y-39274762D01*
X38389524Y-39227143D01*
X38341905Y-39131905D01*
X38294286Y-38941429D01*
X38294286Y-38703333D01*
X38341905Y-38512857D01*
X38389524Y-38417619D01*
X38437143Y-38370000D01*
X38532381Y-38322381D01*
X39199048Y-38322381D02*
X39818096Y-38322381D01*
X39484762Y-38703333D01*
X39627620Y-38703333D01*
X39722858Y-38750952D01*
X39770477Y-38798571D01*
X39818096Y-38893810D01*
X39818096Y-39131905D01*
X39770477Y-39227143D01*
X39722858Y-39274762D01*
X39627620Y-39322381D01*
X39341905Y-39322381D01*
X39246667Y-39274762D01*
X39199048Y-39227143D01*
X125780953Y-31052381D02*
X125447619Y-30576190D01*
X125209524Y-31052381D02*
X125209524Y-30052381D01*
X125590477Y-30052381D01*
X125685715Y-30100000D01*
X125733334Y-30147619D01*
X125780953Y-30242857D01*
X125780953Y-30385714D01*
X125733334Y-30480952D01*
X125685715Y-30528571D01*
X125590477Y-30576190D01*
X125209524Y-30576190D01*
X126733334Y-31052381D02*
X126161905Y-31052381D01*
X126447619Y-31052381D02*
X126447619Y-30052381D01*
X126352381Y-30195238D01*
X126257143Y-30290476D01*
X126161905Y-30338095D01*
X127352381Y-30052381D02*
X127447620Y-30052381D01*
X127542858Y-30100000D01*
X127590477Y-30147619D01*
X127638096Y-30242857D01*
X127685715Y-30433333D01*
X127685715Y-30671429D01*
X127638096Y-30861905D01*
X127590477Y-30957143D01*
X127542858Y-31004762D01*
X127447620Y-31052381D01*
X127352381Y-31052381D01*
X127257143Y-31004762D01*
X127209524Y-30957143D01*
X127161905Y-30861905D01*
X127114286Y-30671429D01*
X127114286Y-30433333D01*
X127161905Y-30242857D01*
X127209524Y-30147619D01*
X127257143Y-30100000D01*
X127352381Y-30052381D01*
X128542858Y-30385714D02*
X128542858Y-31052381D01*
X128304762Y-30004762D02*
X128066667Y-30719048D01*
X128685715Y-30719048D01*
X96530953Y-39802381D02*
X96197619Y-39326190D01*
X95959524Y-39802381D02*
X95959524Y-38802381D01*
X96340477Y-38802381D01*
X96435715Y-38850000D01*
X96483334Y-38897619D01*
X96530953Y-38992857D01*
X96530953Y-39135714D01*
X96483334Y-39230952D01*
X96435715Y-39278571D01*
X96340477Y-39326190D01*
X95959524Y-39326190D01*
X97483334Y-39802381D02*
X96911905Y-39802381D01*
X97197619Y-39802381D02*
X97197619Y-38802381D01*
X97102381Y-38945238D01*
X97007143Y-39040476D01*
X96911905Y-39088095D01*
X98102381Y-38802381D02*
X98197620Y-38802381D01*
X98292858Y-38850000D01*
X98340477Y-38897619D01*
X98388096Y-38992857D01*
X98435715Y-39183333D01*
X98435715Y-39421429D01*
X98388096Y-39611905D01*
X98340477Y-39707143D01*
X98292858Y-39754762D01*
X98197620Y-39802381D01*
X98102381Y-39802381D01*
X98007143Y-39754762D01*
X97959524Y-39707143D01*
X97911905Y-39611905D01*
X97864286Y-39421429D01*
X97864286Y-39183333D01*
X97911905Y-38992857D01*
X97959524Y-38897619D01*
X98007143Y-38850000D01*
X98102381Y-38802381D01*
X99340477Y-38802381D02*
X98864286Y-38802381D01*
X98816667Y-39278571D01*
X98864286Y-39230952D01*
X98959524Y-39183333D01*
X99197620Y-39183333D01*
X99292858Y-39230952D01*
X99340477Y-39278571D01*
X99388096Y-39373810D01*
X99388096Y-39611905D01*
X99340477Y-39707143D01*
X99292858Y-39754762D01*
X99197620Y-39802381D01*
X98959524Y-39802381D01*
X98864286Y-39754762D01*
X98816667Y-39707143D01*
X125780953Y-28802381D02*
X125447619Y-28326190D01*
X125209524Y-28802381D02*
X125209524Y-27802381D01*
X125590477Y-27802381D01*
X125685715Y-27850000D01*
X125733334Y-27897619D01*
X125780953Y-27992857D01*
X125780953Y-28135714D01*
X125733334Y-28230952D01*
X125685715Y-28278571D01*
X125590477Y-28326190D01*
X125209524Y-28326190D01*
X126733334Y-28802381D02*
X126161905Y-28802381D01*
X126447619Y-28802381D02*
X126447619Y-27802381D01*
X126352381Y-27945238D01*
X126257143Y-28040476D01*
X126161905Y-28088095D01*
X127352381Y-27802381D02*
X127447620Y-27802381D01*
X127542858Y-27850000D01*
X127590477Y-27897619D01*
X127638096Y-27992857D01*
X127685715Y-28183333D01*
X127685715Y-28421429D01*
X127638096Y-28611905D01*
X127590477Y-28707143D01*
X127542858Y-28754762D01*
X127447620Y-28802381D01*
X127352381Y-28802381D01*
X127257143Y-28754762D01*
X127209524Y-28707143D01*
X127161905Y-28611905D01*
X127114286Y-28421429D01*
X127114286Y-28183333D01*
X127161905Y-27992857D01*
X127209524Y-27897619D01*
X127257143Y-27850000D01*
X127352381Y-27802381D01*
X128542858Y-27802381D02*
X128352381Y-27802381D01*
X128257143Y-27850000D01*
X128209524Y-27897619D01*
X128114286Y-28040476D01*
X128066667Y-28230952D01*
X128066667Y-28611905D01*
X128114286Y-28707143D01*
X128161905Y-28754762D01*
X128257143Y-28802381D01*
X128447620Y-28802381D01*
X128542858Y-28754762D01*
X128590477Y-28707143D01*
X128638096Y-28611905D01*
X128638096Y-28373810D01*
X128590477Y-28278571D01*
X128542858Y-28230952D01*
X128447620Y-28183333D01*
X128257143Y-28183333D01*
X128161905Y-28230952D01*
X128114286Y-28278571D01*
X128066667Y-28373810D01*
X125780953Y-22302381D02*
X125447619Y-21826190D01*
X125209524Y-22302381D02*
X125209524Y-21302381D01*
X125590477Y-21302381D01*
X125685715Y-21350000D01*
X125733334Y-21397619D01*
X125780953Y-21492857D01*
X125780953Y-21635714D01*
X125733334Y-21730952D01*
X125685715Y-21778571D01*
X125590477Y-21826190D01*
X125209524Y-21826190D01*
X126733334Y-22302381D02*
X126161905Y-22302381D01*
X126447619Y-22302381D02*
X126447619Y-21302381D01*
X126352381Y-21445238D01*
X126257143Y-21540476D01*
X126161905Y-21588095D01*
X127352381Y-21302381D02*
X127447620Y-21302381D01*
X127542858Y-21350000D01*
X127590477Y-21397619D01*
X127638096Y-21492857D01*
X127685715Y-21683333D01*
X127685715Y-21921429D01*
X127638096Y-22111905D01*
X127590477Y-22207143D01*
X127542858Y-22254762D01*
X127447620Y-22302381D01*
X127352381Y-22302381D01*
X127257143Y-22254762D01*
X127209524Y-22207143D01*
X127161905Y-22111905D01*
X127114286Y-21921429D01*
X127114286Y-21683333D01*
X127161905Y-21492857D01*
X127209524Y-21397619D01*
X127257143Y-21350000D01*
X127352381Y-21302381D01*
X128019048Y-21302381D02*
X128685715Y-21302381D01*
X128257143Y-22302381D01*
X99302381Y-11619047D02*
X98826190Y-11952381D01*
X99302381Y-12190476D02*
X98302381Y-12190476D01*
X98302381Y-11809523D01*
X98350000Y-11714285D01*
X98397619Y-11666666D01*
X98492857Y-11619047D01*
X98635714Y-11619047D01*
X98730952Y-11666666D01*
X98778571Y-11714285D01*
X98826190Y-11809523D01*
X98826190Y-12190476D01*
X99302381Y-10666666D02*
X99302381Y-11238095D01*
X99302381Y-10952381D02*
X98302381Y-10952381D01*
X98445238Y-11047619D01*
X98540476Y-11142857D01*
X98588095Y-11238095D01*
X98302381Y-10047619D02*
X98302381Y-9952380D01*
X98350000Y-9857142D01*
X98397619Y-9809523D01*
X98492857Y-9761904D01*
X98683333Y-9714285D01*
X98921429Y-9714285D01*
X99111905Y-9761904D01*
X99207143Y-9809523D01*
X99254762Y-9857142D01*
X99302381Y-9952380D01*
X99302381Y-10047619D01*
X99254762Y-10142857D01*
X99207143Y-10190476D01*
X99111905Y-10238095D01*
X98921429Y-10285714D01*
X98683333Y-10285714D01*
X98492857Y-10238095D01*
X98397619Y-10190476D01*
X98350000Y-10142857D01*
X98302381Y-10047619D01*
X98730952Y-9142857D02*
X98683333Y-9238095D01*
X98635714Y-9285714D01*
X98540476Y-9333333D01*
X98492857Y-9333333D01*
X98397619Y-9285714D01*
X98350000Y-9238095D01*
X98302381Y-9142857D01*
X98302381Y-8952380D01*
X98350000Y-8857142D01*
X98397619Y-8809523D01*
X98492857Y-8761904D01*
X98540476Y-8761904D01*
X98635714Y-8809523D01*
X98683333Y-8857142D01*
X98730952Y-8952380D01*
X98730952Y-9142857D01*
X98778571Y-9238095D01*
X98826190Y-9285714D01*
X98921429Y-9333333D01*
X99111905Y-9333333D01*
X99207143Y-9285714D01*
X99254762Y-9238095D01*
X99302381Y-9142857D01*
X99302381Y-8952380D01*
X99254762Y-8857142D01*
X99207143Y-8809523D01*
X99111905Y-8761904D01*
X98921429Y-8761904D01*
X98826190Y-8809523D01*
X98778571Y-8857142D01*
X98730952Y-8952380D01*
X29880953Y-42702381D02*
X29547619Y-42226190D01*
X29309524Y-42702381D02*
X29309524Y-41702381D01*
X29690477Y-41702381D01*
X29785715Y-41750000D01*
X29833334Y-41797619D01*
X29880953Y-41892857D01*
X29880953Y-42035714D01*
X29833334Y-42130952D01*
X29785715Y-42178571D01*
X29690477Y-42226190D01*
X29309524Y-42226190D01*
X30833334Y-42702381D02*
X30261905Y-42702381D01*
X30547619Y-42702381D02*
X30547619Y-41702381D01*
X30452381Y-41845238D01*
X30357143Y-41940476D01*
X30261905Y-41988095D01*
X31452381Y-41702381D02*
X31547620Y-41702381D01*
X31642858Y-41750000D01*
X31690477Y-41797619D01*
X31738096Y-41892857D01*
X31785715Y-42083333D01*
X31785715Y-42321429D01*
X31738096Y-42511905D01*
X31690477Y-42607143D01*
X31642858Y-42654762D01*
X31547620Y-42702381D01*
X31452381Y-42702381D01*
X31357143Y-42654762D01*
X31309524Y-42607143D01*
X31261905Y-42511905D01*
X31214286Y-42321429D01*
X31214286Y-42083333D01*
X31261905Y-41892857D01*
X31309524Y-41797619D01*
X31357143Y-41750000D01*
X31452381Y-41702381D01*
X32261905Y-42702381D02*
X32452381Y-42702381D01*
X32547620Y-42654762D01*
X32595239Y-42607143D01*
X32690477Y-42464286D01*
X32738096Y-42273810D01*
X32738096Y-41892857D01*
X32690477Y-41797619D01*
X32642858Y-41750000D01*
X32547620Y-41702381D01*
X32357143Y-41702381D01*
X32261905Y-41750000D01*
X32214286Y-41797619D01*
X32166667Y-41892857D01*
X32166667Y-42130952D01*
X32214286Y-42226190D01*
X32261905Y-42273810D01*
X32357143Y-42321429D01*
X32547620Y-42321429D01*
X32642858Y-42273810D01*
X32690477Y-42226190D01*
X32738096Y-42130952D01*
X75202381Y-42669047D02*
X74726190Y-43002381D01*
X75202381Y-43240476D02*
X74202381Y-43240476D01*
X74202381Y-42859523D01*
X74250000Y-42764285D01*
X74297619Y-42716666D01*
X74392857Y-42669047D01*
X74535714Y-42669047D01*
X74630952Y-42716666D01*
X74678571Y-42764285D01*
X74726190Y-42859523D01*
X74726190Y-43240476D01*
X75202381Y-41716666D02*
X75202381Y-42288095D01*
X75202381Y-42002381D02*
X74202381Y-42002381D01*
X74345238Y-42097619D01*
X74440476Y-42192857D01*
X74488095Y-42288095D01*
X75202381Y-40764285D02*
X75202381Y-41335714D01*
X75202381Y-41050000D02*
X74202381Y-41050000D01*
X74345238Y-41145238D01*
X74440476Y-41240476D01*
X74488095Y-41335714D01*
X74202381Y-40145238D02*
X74202381Y-40049999D01*
X74250000Y-39954761D01*
X74297619Y-39907142D01*
X74392857Y-39859523D01*
X74583333Y-39811904D01*
X74821429Y-39811904D01*
X75011905Y-39859523D01*
X75107143Y-39907142D01*
X75154762Y-39954761D01*
X75202381Y-40049999D01*
X75202381Y-40145238D01*
X75154762Y-40240476D01*
X75107143Y-40288095D01*
X75011905Y-40335714D01*
X74821429Y-40383333D01*
X74583333Y-40383333D01*
X74392857Y-40335714D01*
X74297619Y-40288095D01*
X74250000Y-40240476D01*
X74202381Y-40145238D01*
X29880953Y-44852381D02*
X29547619Y-44376190D01*
X29309524Y-44852381D02*
X29309524Y-43852381D01*
X29690477Y-43852381D01*
X29785715Y-43900000D01*
X29833334Y-43947619D01*
X29880953Y-44042857D01*
X29880953Y-44185714D01*
X29833334Y-44280952D01*
X29785715Y-44328571D01*
X29690477Y-44376190D01*
X29309524Y-44376190D01*
X30833334Y-44852381D02*
X30261905Y-44852381D01*
X30547619Y-44852381D02*
X30547619Y-43852381D01*
X30452381Y-43995238D01*
X30357143Y-44090476D01*
X30261905Y-44138095D01*
X31785715Y-44852381D02*
X31214286Y-44852381D01*
X31500000Y-44852381D02*
X31500000Y-43852381D01*
X31404762Y-43995238D01*
X31309524Y-44090476D01*
X31214286Y-44138095D01*
X32738096Y-44852381D02*
X32166667Y-44852381D01*
X32452381Y-44852381D02*
X32452381Y-43852381D01*
X32357143Y-43995238D01*
X32261905Y-44090476D01*
X32166667Y-44138095D01*
X78252381Y-42669047D02*
X77776190Y-43002381D01*
X78252381Y-43240476D02*
X77252381Y-43240476D01*
X77252381Y-42859523D01*
X77300000Y-42764285D01*
X77347619Y-42716666D01*
X77442857Y-42669047D01*
X77585714Y-42669047D01*
X77680952Y-42716666D01*
X77728571Y-42764285D01*
X77776190Y-42859523D01*
X77776190Y-43240476D01*
X78252381Y-41716666D02*
X78252381Y-42288095D01*
X78252381Y-42002381D02*
X77252381Y-42002381D01*
X77395238Y-42097619D01*
X77490476Y-42192857D01*
X77538095Y-42288095D01*
X78252381Y-40764285D02*
X78252381Y-41335714D01*
X78252381Y-41050000D02*
X77252381Y-41050000D01*
X77395238Y-41145238D01*
X77490476Y-41240476D01*
X77538095Y-41335714D01*
X77347619Y-40383333D02*
X77300000Y-40335714D01*
X77252381Y-40240476D01*
X77252381Y-40002380D01*
X77300000Y-39907142D01*
X77347619Y-39859523D01*
X77442857Y-39811904D01*
X77538095Y-39811904D01*
X77680952Y-39859523D01*
X78252381Y-40430952D01*
X78252381Y-39811904D01*
X125780953Y-19952381D02*
X125447619Y-19476190D01*
X125209524Y-19952381D02*
X125209524Y-18952381D01*
X125590477Y-18952381D01*
X125685715Y-19000000D01*
X125733334Y-19047619D01*
X125780953Y-19142857D01*
X125780953Y-19285714D01*
X125733334Y-19380952D01*
X125685715Y-19428571D01*
X125590477Y-19476190D01*
X125209524Y-19476190D01*
X126733334Y-19952381D02*
X126161905Y-19952381D01*
X126447619Y-19952381D02*
X126447619Y-18952381D01*
X126352381Y-19095238D01*
X126257143Y-19190476D01*
X126161905Y-19238095D01*
X127685715Y-19952381D02*
X127114286Y-19952381D01*
X127400000Y-19952381D02*
X127400000Y-18952381D01*
X127304762Y-19095238D01*
X127209524Y-19190476D01*
X127114286Y-19238095D01*
X128019048Y-18952381D02*
X128638096Y-18952381D01*
X128304762Y-19333333D01*
X128447620Y-19333333D01*
X128542858Y-19380952D01*
X128590477Y-19428571D01*
X128638096Y-19523810D01*
X128638096Y-19761905D01*
X128590477Y-19857143D01*
X128542858Y-19904762D01*
X128447620Y-19952381D01*
X128161905Y-19952381D01*
X128066667Y-19904762D01*
X128019048Y-19857143D01*
X91102381Y-11619047D02*
X90626190Y-11952381D01*
X91102381Y-12190476D02*
X90102381Y-12190476D01*
X90102381Y-11809523D01*
X90150000Y-11714285D01*
X90197619Y-11666666D01*
X90292857Y-11619047D01*
X90435714Y-11619047D01*
X90530952Y-11666666D01*
X90578571Y-11714285D01*
X90626190Y-11809523D01*
X90626190Y-12190476D01*
X91102381Y-10666666D02*
X91102381Y-11238095D01*
X91102381Y-10952381D02*
X90102381Y-10952381D01*
X90245238Y-11047619D01*
X90340476Y-11142857D01*
X90388095Y-11238095D01*
X91102381Y-9714285D02*
X91102381Y-10285714D01*
X91102381Y-10000000D02*
X90102381Y-10000000D01*
X90245238Y-10095238D01*
X90340476Y-10190476D01*
X90388095Y-10285714D01*
X90435714Y-8857142D02*
X91102381Y-8857142D01*
X90054762Y-9095238D02*
X90769048Y-9333333D01*
X90769048Y-8714285D01*
X96302381Y-23169047D02*
X95826190Y-23502381D01*
X96302381Y-23740476D02*
X95302381Y-23740476D01*
X95302381Y-23359523D01*
X95350000Y-23264285D01*
X95397619Y-23216666D01*
X95492857Y-23169047D01*
X95635714Y-23169047D01*
X95730952Y-23216666D01*
X95778571Y-23264285D01*
X95826190Y-23359523D01*
X95826190Y-23740476D01*
X96302381Y-22216666D02*
X96302381Y-22788095D01*
X96302381Y-22502381D02*
X95302381Y-22502381D01*
X95445238Y-22597619D01*
X95540476Y-22692857D01*
X95588095Y-22788095D01*
X96302381Y-21264285D02*
X96302381Y-21835714D01*
X96302381Y-21550000D02*
X95302381Y-21550000D01*
X95445238Y-21645238D01*
X95540476Y-21740476D01*
X95588095Y-21835714D01*
X95302381Y-20407142D02*
X95302381Y-20597619D01*
X95350000Y-20692857D01*
X95397619Y-20740476D01*
X95540476Y-20835714D01*
X95730952Y-20883333D01*
X96111905Y-20883333D01*
X96207143Y-20835714D01*
X96254762Y-20788095D01*
X96302381Y-20692857D01*
X96302381Y-20502380D01*
X96254762Y-20407142D01*
X96207143Y-20359523D01*
X96111905Y-20311904D01*
X95873810Y-20311904D01*
X95778571Y-20359523D01*
X95730952Y-20407142D01*
X95683333Y-20502380D01*
X95683333Y-20692857D01*
X95730952Y-20788095D01*
X95778571Y-20835714D01*
X95873810Y-20883333D01*
X95202381Y-11619047D02*
X94726190Y-11952381D01*
X95202381Y-12190476D02*
X94202381Y-12190476D01*
X94202381Y-11809523D01*
X94250000Y-11714285D01*
X94297619Y-11666666D01*
X94392857Y-11619047D01*
X94535714Y-11619047D01*
X94630952Y-11666666D01*
X94678571Y-11714285D01*
X94726190Y-11809523D01*
X94726190Y-12190476D01*
X95202381Y-10666666D02*
X95202381Y-11238095D01*
X95202381Y-10952381D02*
X94202381Y-10952381D01*
X94345238Y-11047619D01*
X94440476Y-11142857D01*
X94488095Y-11238095D01*
X95202381Y-9714285D02*
X95202381Y-10285714D01*
X95202381Y-10000000D02*
X94202381Y-10000000D01*
X94345238Y-10095238D01*
X94440476Y-10190476D01*
X94488095Y-10285714D01*
X94630952Y-9142857D02*
X94583333Y-9238095D01*
X94535714Y-9285714D01*
X94440476Y-9333333D01*
X94392857Y-9333333D01*
X94297619Y-9285714D01*
X94250000Y-9238095D01*
X94202381Y-9142857D01*
X94202381Y-8952380D01*
X94250000Y-8857142D01*
X94297619Y-8809523D01*
X94392857Y-8761904D01*
X94440476Y-8761904D01*
X94535714Y-8809523D01*
X94583333Y-8857142D01*
X94630952Y-8952380D01*
X94630952Y-9142857D01*
X94678571Y-9238095D01*
X94726190Y-9285714D01*
X94821429Y-9333333D01*
X95011905Y-9333333D01*
X95107143Y-9285714D01*
X95154762Y-9238095D01*
X95202381Y-9142857D01*
X95202381Y-8952380D01*
X95154762Y-8857142D01*
X95107143Y-8809523D01*
X95011905Y-8761904D01*
X94821429Y-8761904D01*
X94726190Y-8809523D01*
X94678571Y-8857142D01*
X94630952Y-8952380D01*
X62202381Y-42569047D02*
X61726190Y-42902381D01*
X62202381Y-43140476D02*
X61202381Y-43140476D01*
X61202381Y-42759523D01*
X61250000Y-42664285D01*
X61297619Y-42616666D01*
X61392857Y-42569047D01*
X61535714Y-42569047D01*
X61630952Y-42616666D01*
X61678571Y-42664285D01*
X61726190Y-42759523D01*
X61726190Y-43140476D01*
X61297619Y-42188095D02*
X61250000Y-42140476D01*
X61202381Y-42045238D01*
X61202381Y-41807142D01*
X61250000Y-41711904D01*
X61297619Y-41664285D01*
X61392857Y-41616666D01*
X61488095Y-41616666D01*
X61630952Y-41664285D01*
X62202381Y-42235714D01*
X62202381Y-41616666D01*
X61202381Y-40997619D02*
X61202381Y-40902380D01*
X61250000Y-40807142D01*
X61297619Y-40759523D01*
X61392857Y-40711904D01*
X61583333Y-40664285D01*
X61821429Y-40664285D01*
X62011905Y-40711904D01*
X62107143Y-40759523D01*
X62154762Y-40807142D01*
X62202381Y-40902380D01*
X62202381Y-40997619D01*
X62154762Y-41092857D01*
X62107143Y-41140476D01*
X62011905Y-41188095D01*
X61821429Y-41235714D01*
X61583333Y-41235714D01*
X61392857Y-41188095D01*
X61297619Y-41140476D01*
X61250000Y-41092857D01*
X61202381Y-40997619D01*
X62202381Y-39711904D02*
X62202381Y-40283333D01*
X62202381Y-39997619D02*
X61202381Y-39997619D01*
X61345238Y-40092857D01*
X61440476Y-40188095D01*
X61488095Y-40283333D01*
X68702381Y-42719047D02*
X68226190Y-43052381D01*
X68702381Y-43290476D02*
X67702381Y-43290476D01*
X67702381Y-42909523D01*
X67750000Y-42814285D01*
X67797619Y-42766666D01*
X67892857Y-42719047D01*
X68035714Y-42719047D01*
X68130952Y-42766666D01*
X68178571Y-42814285D01*
X68226190Y-42909523D01*
X68226190Y-43290476D01*
X67797619Y-42338095D02*
X67750000Y-42290476D01*
X67702381Y-42195238D01*
X67702381Y-41957142D01*
X67750000Y-41861904D01*
X67797619Y-41814285D01*
X67892857Y-41766666D01*
X67988095Y-41766666D01*
X68130952Y-41814285D01*
X68702381Y-42385714D01*
X68702381Y-41766666D01*
X67702381Y-41147619D02*
X67702381Y-41052380D01*
X67750000Y-40957142D01*
X67797619Y-40909523D01*
X67892857Y-40861904D01*
X68083333Y-40814285D01*
X68321429Y-40814285D01*
X68511905Y-40861904D01*
X68607143Y-40909523D01*
X68654762Y-40957142D01*
X68702381Y-41052380D01*
X68702381Y-41147619D01*
X68654762Y-41242857D01*
X68607143Y-41290476D01*
X68511905Y-41338095D01*
X68321429Y-41385714D01*
X68083333Y-41385714D01*
X67892857Y-41338095D01*
X67797619Y-41290476D01*
X67750000Y-41242857D01*
X67702381Y-41147619D01*
X67797619Y-40433333D02*
X67750000Y-40385714D01*
X67702381Y-40290476D01*
X67702381Y-40052380D01*
X67750000Y-39957142D01*
X67797619Y-39909523D01*
X67892857Y-39861904D01*
X67988095Y-39861904D01*
X68130952Y-39909523D01*
X68702381Y-40480952D01*
X68702381Y-39861904D01*
X87052381Y-42719047D02*
X86576190Y-43052381D01*
X87052381Y-43290476D02*
X86052381Y-43290476D01*
X86052381Y-42909523D01*
X86100000Y-42814285D01*
X86147619Y-42766666D01*
X86242857Y-42719047D01*
X86385714Y-42719047D01*
X86480952Y-42766666D01*
X86528571Y-42814285D01*
X86576190Y-42909523D01*
X86576190Y-43290476D01*
X86147619Y-42338095D02*
X86100000Y-42290476D01*
X86052381Y-42195238D01*
X86052381Y-41957142D01*
X86100000Y-41861904D01*
X86147619Y-41814285D01*
X86242857Y-41766666D01*
X86338095Y-41766666D01*
X86480952Y-41814285D01*
X87052381Y-42385714D01*
X87052381Y-41766666D01*
X86052381Y-41147619D02*
X86052381Y-41052380D01*
X86100000Y-40957142D01*
X86147619Y-40909523D01*
X86242857Y-40861904D01*
X86433333Y-40814285D01*
X86671429Y-40814285D01*
X86861905Y-40861904D01*
X86957143Y-40909523D01*
X87004762Y-40957142D01*
X87052381Y-41052380D01*
X87052381Y-41147619D01*
X87004762Y-41242857D01*
X86957143Y-41290476D01*
X86861905Y-41338095D01*
X86671429Y-41385714D01*
X86433333Y-41385714D01*
X86242857Y-41338095D01*
X86147619Y-41290476D01*
X86100000Y-41242857D01*
X86052381Y-41147619D01*
X86052381Y-40480952D02*
X86052381Y-39861904D01*
X86433333Y-40195238D01*
X86433333Y-40052380D01*
X86480952Y-39957142D01*
X86528571Y-39909523D01*
X86623810Y-39861904D01*
X86861905Y-39861904D01*
X86957143Y-39909523D01*
X87004762Y-39957142D01*
X87052381Y-40052380D01*
X87052381Y-40338095D01*
X87004762Y-40433333D01*
X86957143Y-40480952D01*
X84052381Y-42669047D02*
X83576190Y-43002381D01*
X84052381Y-43240476D02*
X83052381Y-43240476D01*
X83052381Y-42859523D01*
X83100000Y-42764285D01*
X83147619Y-42716666D01*
X83242857Y-42669047D01*
X83385714Y-42669047D01*
X83480952Y-42716666D01*
X83528571Y-42764285D01*
X83576190Y-42859523D01*
X83576190Y-43240476D01*
X83147619Y-42288095D02*
X83100000Y-42240476D01*
X83052381Y-42145238D01*
X83052381Y-41907142D01*
X83100000Y-41811904D01*
X83147619Y-41764285D01*
X83242857Y-41716666D01*
X83338095Y-41716666D01*
X83480952Y-41764285D01*
X84052381Y-42335714D01*
X84052381Y-41716666D01*
X83052381Y-41097619D02*
X83052381Y-41002380D01*
X83100000Y-40907142D01*
X83147619Y-40859523D01*
X83242857Y-40811904D01*
X83433333Y-40764285D01*
X83671429Y-40764285D01*
X83861905Y-40811904D01*
X83957143Y-40859523D01*
X84004762Y-40907142D01*
X84052381Y-41002380D01*
X84052381Y-41097619D01*
X84004762Y-41192857D01*
X83957143Y-41240476D01*
X83861905Y-41288095D01*
X83671429Y-41335714D01*
X83433333Y-41335714D01*
X83242857Y-41288095D01*
X83147619Y-41240476D01*
X83100000Y-41192857D01*
X83052381Y-41097619D01*
X83385714Y-39907142D02*
X84052381Y-39907142D01*
X83004762Y-40145238D02*
X83719048Y-40383333D01*
X83719048Y-39764285D01*
X125780953Y-44202381D02*
X125447619Y-43726190D01*
X125209524Y-44202381D02*
X125209524Y-43202381D01*
X125590477Y-43202381D01*
X125685715Y-43250000D01*
X125733334Y-43297619D01*
X125780953Y-43392857D01*
X125780953Y-43535714D01*
X125733334Y-43630952D01*
X125685715Y-43678571D01*
X125590477Y-43726190D01*
X125209524Y-43726190D01*
X126114286Y-43202381D02*
X126733334Y-43202381D01*
X126400000Y-43583333D01*
X126542858Y-43583333D01*
X126638096Y-43630952D01*
X126685715Y-43678571D01*
X126733334Y-43773810D01*
X126733334Y-44011905D01*
X126685715Y-44107143D01*
X126638096Y-44154762D01*
X126542858Y-44202381D01*
X126257143Y-44202381D01*
X126161905Y-44154762D01*
X126114286Y-44107143D01*
X127352381Y-43202381D02*
X127447620Y-43202381D01*
X127542858Y-43250000D01*
X127590477Y-43297619D01*
X127638096Y-43392857D01*
X127685715Y-43583333D01*
X127685715Y-43821429D01*
X127638096Y-44011905D01*
X127590477Y-44107143D01*
X127542858Y-44154762D01*
X127447620Y-44202381D01*
X127352381Y-44202381D01*
X127257143Y-44154762D01*
X127209524Y-44107143D01*
X127161905Y-44011905D01*
X127114286Y-43821429D01*
X127114286Y-43583333D01*
X127161905Y-43392857D01*
X127209524Y-43297619D01*
X127257143Y-43250000D01*
X127352381Y-43202381D01*
X128638096Y-44202381D02*
X128066667Y-44202381D01*
X128352381Y-44202381D02*
X128352381Y-43202381D01*
X128257143Y-43345238D01*
X128161905Y-43440476D01*
X128066667Y-43488095D01*
X125780953Y-41902381D02*
X125447619Y-41426190D01*
X125209524Y-41902381D02*
X125209524Y-40902381D01*
X125590477Y-40902381D01*
X125685715Y-40950000D01*
X125733334Y-40997619D01*
X125780953Y-41092857D01*
X125780953Y-41235714D01*
X125733334Y-41330952D01*
X125685715Y-41378571D01*
X125590477Y-41426190D01*
X125209524Y-41426190D01*
X126114286Y-40902381D02*
X126733334Y-40902381D01*
X126400000Y-41283333D01*
X126542858Y-41283333D01*
X126638096Y-41330952D01*
X126685715Y-41378571D01*
X126733334Y-41473810D01*
X126733334Y-41711905D01*
X126685715Y-41807143D01*
X126638096Y-41854762D01*
X126542858Y-41902381D01*
X126257143Y-41902381D01*
X126161905Y-41854762D01*
X126114286Y-41807143D01*
X127352381Y-40902381D02*
X127447620Y-40902381D01*
X127542858Y-40950000D01*
X127590477Y-40997619D01*
X127638096Y-41092857D01*
X127685715Y-41283333D01*
X127685715Y-41521429D01*
X127638096Y-41711905D01*
X127590477Y-41807143D01*
X127542858Y-41854762D01*
X127447620Y-41902381D01*
X127352381Y-41902381D01*
X127257143Y-41854762D01*
X127209524Y-41807143D01*
X127161905Y-41711905D01*
X127114286Y-41521429D01*
X127114286Y-41283333D01*
X127161905Y-41092857D01*
X127209524Y-40997619D01*
X127257143Y-40950000D01*
X127352381Y-40902381D01*
X128066667Y-40997619D02*
X128114286Y-40950000D01*
X128209524Y-40902381D01*
X128447620Y-40902381D01*
X128542858Y-40950000D01*
X128590477Y-40997619D01*
X128638096Y-41092857D01*
X128638096Y-41188095D01*
X128590477Y-41330952D01*
X128019048Y-41902381D01*
X128638096Y-41902381D01*
X125780953Y-39602381D02*
X125447619Y-39126190D01*
X125209524Y-39602381D02*
X125209524Y-38602381D01*
X125590477Y-38602381D01*
X125685715Y-38650000D01*
X125733334Y-38697619D01*
X125780953Y-38792857D01*
X125780953Y-38935714D01*
X125733334Y-39030952D01*
X125685715Y-39078571D01*
X125590477Y-39126190D01*
X125209524Y-39126190D01*
X126114286Y-38602381D02*
X126733334Y-38602381D01*
X126400000Y-38983333D01*
X126542858Y-38983333D01*
X126638096Y-39030952D01*
X126685715Y-39078571D01*
X126733334Y-39173810D01*
X126733334Y-39411905D01*
X126685715Y-39507143D01*
X126638096Y-39554762D01*
X126542858Y-39602381D01*
X126257143Y-39602381D01*
X126161905Y-39554762D01*
X126114286Y-39507143D01*
X127352381Y-38602381D02*
X127447620Y-38602381D01*
X127542858Y-38650000D01*
X127590477Y-38697619D01*
X127638096Y-38792857D01*
X127685715Y-38983333D01*
X127685715Y-39221429D01*
X127638096Y-39411905D01*
X127590477Y-39507143D01*
X127542858Y-39554762D01*
X127447620Y-39602381D01*
X127352381Y-39602381D01*
X127257143Y-39554762D01*
X127209524Y-39507143D01*
X127161905Y-39411905D01*
X127114286Y-39221429D01*
X127114286Y-38983333D01*
X127161905Y-38792857D01*
X127209524Y-38697619D01*
X127257143Y-38650000D01*
X127352381Y-38602381D01*
X128019048Y-38602381D02*
X128638096Y-38602381D01*
X128304762Y-38983333D01*
X128447620Y-38983333D01*
X128542858Y-39030952D01*
X128590477Y-39078571D01*
X128638096Y-39173810D01*
X128638096Y-39411905D01*
X128590477Y-39507143D01*
X128542858Y-39554762D01*
X128447620Y-39602381D01*
X128161905Y-39602381D01*
X128066667Y-39554762D01*
X128019048Y-39507143D01*
X125780953Y-37302381D02*
X125447619Y-36826190D01*
X125209524Y-37302381D02*
X125209524Y-36302381D01*
X125590477Y-36302381D01*
X125685715Y-36350000D01*
X125733334Y-36397619D01*
X125780953Y-36492857D01*
X125780953Y-36635714D01*
X125733334Y-36730952D01*
X125685715Y-36778571D01*
X125590477Y-36826190D01*
X125209524Y-36826190D01*
X126114286Y-36302381D02*
X126733334Y-36302381D01*
X126400000Y-36683333D01*
X126542858Y-36683333D01*
X126638096Y-36730952D01*
X126685715Y-36778571D01*
X126733334Y-36873810D01*
X126733334Y-37111905D01*
X126685715Y-37207143D01*
X126638096Y-37254762D01*
X126542858Y-37302381D01*
X126257143Y-37302381D01*
X126161905Y-37254762D01*
X126114286Y-37207143D01*
X127352381Y-36302381D02*
X127447620Y-36302381D01*
X127542858Y-36350000D01*
X127590477Y-36397619D01*
X127638096Y-36492857D01*
X127685715Y-36683333D01*
X127685715Y-36921429D01*
X127638096Y-37111905D01*
X127590477Y-37207143D01*
X127542858Y-37254762D01*
X127447620Y-37302381D01*
X127352381Y-37302381D01*
X127257143Y-37254762D01*
X127209524Y-37207143D01*
X127161905Y-37111905D01*
X127114286Y-36921429D01*
X127114286Y-36683333D01*
X127161905Y-36492857D01*
X127209524Y-36397619D01*
X127257143Y-36350000D01*
X127352381Y-36302381D01*
X128542858Y-36635714D02*
X128542858Y-37302381D01*
X128304762Y-36254762D02*
X128066667Y-36969048D01*
X128685715Y-36969048D01*
X24835714Y-49352381D02*
X24835714Y-50161905D01*
X24883333Y-50257143D01*
X24930952Y-50304762D01*
X25026190Y-50352381D01*
X25216667Y-50352381D01*
X25311905Y-50304762D01*
X25359524Y-50257143D01*
X25407143Y-50161905D01*
X25407143Y-49352381D01*
X26407143Y-50352381D02*
X25835714Y-50352381D01*
X26121428Y-50352381D02*
X26121428Y-49352381D01*
X26026190Y-49495238D01*
X25930952Y-49590476D01*
X25835714Y-49638095D01*
X27026190Y-49352381D02*
X27121429Y-49352381D01*
X27216667Y-49400000D01*
X27264286Y-49447619D01*
X27311905Y-49542857D01*
X27359524Y-49733333D01*
X27359524Y-49971429D01*
X27311905Y-50161905D01*
X27264286Y-50257143D01*
X27216667Y-50304762D01*
X27121429Y-50352381D01*
X27026190Y-50352381D01*
X26930952Y-50304762D01*
X26883333Y-50257143D01*
X26835714Y-50161905D01*
X26788095Y-49971429D01*
X26788095Y-49733333D01*
X26835714Y-49542857D01*
X26883333Y-49447619D01*
X26930952Y-49400000D01*
X27026190Y-49352381D01*
X28311905Y-50352381D02*
X27740476Y-50352381D01*
X28026190Y-50352381D02*
X28026190Y-49352381D01*
X27930952Y-49495238D01*
X27835714Y-49590476D01*
X27740476Y-49638095D01*
X86335714Y-26902381D02*
X86335714Y-27711905D01*
X86383333Y-27807143D01*
X86430952Y-27854762D01*
X86526190Y-27902381D01*
X86716667Y-27902381D01*
X86811905Y-27854762D01*
X86859524Y-27807143D01*
X86907143Y-27711905D01*
X86907143Y-26902381D01*
X87335714Y-26997619D02*
X87383333Y-26950000D01*
X87478571Y-26902381D01*
X87716667Y-26902381D01*
X87811905Y-26950000D01*
X87859524Y-26997619D01*
X87907143Y-27092857D01*
X87907143Y-27188095D01*
X87859524Y-27330952D01*
X87288095Y-27902381D01*
X87907143Y-27902381D01*
X88526190Y-26902381D02*
X88621429Y-26902381D01*
X88716667Y-26950000D01*
X88764286Y-26997619D01*
X88811905Y-27092857D01*
X88859524Y-27283333D01*
X88859524Y-27521429D01*
X88811905Y-27711905D01*
X88764286Y-27807143D01*
X88716667Y-27854762D01*
X88621429Y-27902381D01*
X88526190Y-27902381D01*
X88430952Y-27854762D01*
X88383333Y-27807143D01*
X88335714Y-27711905D01*
X88288095Y-27521429D01*
X88288095Y-27283333D01*
X88335714Y-27092857D01*
X88383333Y-26997619D01*
X88430952Y-26950000D01*
X88526190Y-26902381D01*
X89811905Y-27902381D02*
X89240476Y-27902381D01*
X89526190Y-27902381D02*
X89526190Y-26902381D01*
X89430952Y-27045238D01*
X89335714Y-27140476D01*
X89240476Y-27188095D01*
X125185714Y-33252381D02*
X125185714Y-34061905D01*
X125233333Y-34157143D01*
X125280952Y-34204762D01*
X125376190Y-34252381D01*
X125566667Y-34252381D01*
X125661905Y-34204762D01*
X125709524Y-34157143D01*
X125757143Y-34061905D01*
X125757143Y-33252381D01*
X126138095Y-33252381D02*
X126757143Y-33252381D01*
X126423809Y-33633333D01*
X126566667Y-33633333D01*
X126661905Y-33680952D01*
X126709524Y-33728571D01*
X126757143Y-33823810D01*
X126757143Y-34061905D01*
X126709524Y-34157143D01*
X126661905Y-34204762D01*
X126566667Y-34252381D01*
X126280952Y-34252381D01*
X126185714Y-34204762D01*
X126138095Y-34157143D01*
X127376190Y-33252381D02*
X127471429Y-33252381D01*
X127566667Y-33300000D01*
X127614286Y-33347619D01*
X127661905Y-33442857D01*
X127709524Y-33633333D01*
X127709524Y-33871429D01*
X127661905Y-34061905D01*
X127614286Y-34157143D01*
X127566667Y-34204762D01*
X127471429Y-34252381D01*
X127376190Y-34252381D01*
X127280952Y-34204762D01*
X127233333Y-34157143D01*
X127185714Y-34061905D01*
X127138095Y-33871429D01*
X127138095Y-33633333D01*
X127185714Y-33442857D01*
X127233333Y-33347619D01*
X127280952Y-33300000D01*
X127376190Y-33252381D01*
X128661905Y-34252381D02*
X128090476Y-34252381D01*
X128376190Y-34252381D02*
X128376190Y-33252381D01*
X128280952Y-33395238D01*
X128185714Y-33490476D01*
X128090476Y-33538095D01*
X47178571Y-6985714D02*
X47178571Y-7319048D01*
X47702381Y-7319048D02*
X46702381Y-7319048D01*
X46702381Y-6842857D01*
X47702381Y-5938095D02*
X47702381Y-6509524D01*
X47702381Y-6223810D02*
X46702381Y-6223810D01*
X46845238Y-6319048D01*
X46940476Y-6414286D01*
X46988095Y-6509524D01*
X46702381Y-5319048D02*
X46702381Y-5223809D01*
X46750000Y-5128571D01*
X46797619Y-5080952D01*
X46892857Y-5033333D01*
X47083333Y-4985714D01*
X47321429Y-4985714D01*
X47511905Y-5033333D01*
X47607143Y-5080952D01*
X47654762Y-5128571D01*
X47702381Y-5223809D01*
X47702381Y-5319048D01*
X47654762Y-5414286D01*
X47607143Y-5461905D01*
X47511905Y-5509524D01*
X47321429Y-5557143D01*
X47083333Y-5557143D01*
X46892857Y-5509524D01*
X46797619Y-5461905D01*
X46750000Y-5414286D01*
X46702381Y-5319048D01*
X46797619Y-4604762D02*
X46750000Y-4557143D01*
X46702381Y-4461905D01*
X46702381Y-4223809D01*
X46750000Y-4128571D01*
X46797619Y-4080952D01*
X46892857Y-4033333D01*
X46988095Y-4033333D01*
X47130952Y-4080952D01*
X47702381Y-4652381D01*
X47702381Y-4033333D01*
X53338571Y-7005714D02*
X53338571Y-7339048D01*
X53862381Y-7339048D02*
X52862381Y-7339048D01*
X52862381Y-6862857D01*
X53862381Y-5958095D02*
X53862381Y-6529524D01*
X53862381Y-6243810D02*
X52862381Y-6243810D01*
X53005238Y-6339048D01*
X53100476Y-6434286D01*
X53148095Y-6529524D01*
X52862381Y-5339048D02*
X52862381Y-5243809D01*
X52910000Y-5148571D01*
X52957619Y-5100952D01*
X53052857Y-5053333D01*
X53243333Y-5005714D01*
X53481429Y-5005714D01*
X53671905Y-5053333D01*
X53767143Y-5100952D01*
X53814762Y-5148571D01*
X53862381Y-5243809D01*
X53862381Y-5339048D01*
X53814762Y-5434286D01*
X53767143Y-5481905D01*
X53671905Y-5529524D01*
X53481429Y-5577143D01*
X53243333Y-5577143D01*
X53052857Y-5529524D01*
X52957619Y-5481905D01*
X52910000Y-5434286D01*
X52862381Y-5339048D01*
X52862381Y-4672381D02*
X52862381Y-4053333D01*
X53243333Y-4386667D01*
X53243333Y-4243809D01*
X53290952Y-4148571D01*
X53338571Y-4100952D01*
X53433810Y-4053333D01*
X53671905Y-4053333D01*
X53767143Y-4100952D01*
X53814762Y-4148571D01*
X53862381Y-4243809D01*
X53862381Y-4529524D01*
X53814762Y-4624762D01*
X53767143Y-4672381D01*
X82954286Y-25128571D02*
X82620952Y-25128571D01*
X82620952Y-25652381D02*
X82620952Y-24652381D01*
X83097143Y-24652381D01*
X84001905Y-25652381D02*
X83430476Y-25652381D01*
X83716190Y-25652381D02*
X83716190Y-24652381D01*
X83620952Y-24795238D01*
X83525714Y-24890476D01*
X83430476Y-24938095D01*
X84620952Y-24652381D02*
X84716191Y-24652381D01*
X84811429Y-24700000D01*
X84859048Y-24747619D01*
X84906667Y-24842857D01*
X84954286Y-25033333D01*
X84954286Y-25271429D01*
X84906667Y-25461905D01*
X84859048Y-25557143D01*
X84811429Y-25604762D01*
X84716191Y-25652381D01*
X84620952Y-25652381D01*
X84525714Y-25604762D01*
X84478095Y-25557143D01*
X84430476Y-25461905D01*
X84382857Y-25271429D01*
X84382857Y-25033333D01*
X84430476Y-24842857D01*
X84478095Y-24747619D01*
X84525714Y-24700000D01*
X84620952Y-24652381D01*
X85906667Y-25652381D02*
X85335238Y-25652381D01*
X85620952Y-25652381D02*
X85620952Y-24652381D01*
X85525714Y-24795238D01*
X85430476Y-24890476D01*
X85335238Y-24938095D01*
X30602381Y-11435714D02*
X31316667Y-11435714D01*
X31459524Y-11483334D01*
X31554762Y-11578572D01*
X31602381Y-11721429D01*
X31602381Y-11816667D01*
X31602381Y-10435714D02*
X31602381Y-11007143D01*
X31602381Y-10721429D02*
X30602381Y-10721429D01*
X30745238Y-10816667D01*
X30840476Y-10911905D01*
X30888095Y-11007143D01*
X30602381Y-9816667D02*
X30602381Y-9721428D01*
X30650000Y-9626190D01*
X30697619Y-9578571D01*
X30792857Y-9530952D01*
X30983333Y-9483333D01*
X31221429Y-9483333D01*
X31411905Y-9530952D01*
X31507143Y-9578571D01*
X31554762Y-9626190D01*
X31602381Y-9721428D01*
X31602381Y-9816667D01*
X31554762Y-9911905D01*
X31507143Y-9959524D01*
X31411905Y-10007143D01*
X31221429Y-10054762D01*
X30983333Y-10054762D01*
X30792857Y-10007143D01*
X30697619Y-9959524D01*
X30650000Y-9911905D01*
X30602381Y-9816667D01*
X30697619Y-9102381D02*
X30650000Y-9054762D01*
X30602381Y-8959524D01*
X30602381Y-8721428D01*
X30650000Y-8626190D01*
X30697619Y-8578571D01*
X30792857Y-8530952D01*
X30888095Y-8530952D01*
X31030952Y-8578571D01*
X31602381Y-9150000D01*
X31602381Y-8530952D01*
X103452381Y-11435714D02*
X104166667Y-11435714D01*
X104309524Y-11483334D01*
X104404762Y-11578572D01*
X104452381Y-11721429D01*
X104452381Y-11816667D01*
X104452381Y-10435714D02*
X104452381Y-11007143D01*
X104452381Y-10721429D02*
X103452381Y-10721429D01*
X103595238Y-10816667D01*
X103690476Y-10911905D01*
X103738095Y-11007143D01*
X103452381Y-9816667D02*
X103452381Y-9721428D01*
X103500000Y-9626190D01*
X103547619Y-9578571D01*
X103642857Y-9530952D01*
X103833333Y-9483333D01*
X104071429Y-9483333D01*
X104261905Y-9530952D01*
X104357143Y-9578571D01*
X104404762Y-9626190D01*
X104452381Y-9721428D01*
X104452381Y-9816667D01*
X104404762Y-9911905D01*
X104357143Y-9959524D01*
X104261905Y-10007143D01*
X104071429Y-10054762D01*
X103833333Y-10054762D01*
X103642857Y-10007143D01*
X103547619Y-9959524D01*
X103500000Y-9911905D01*
X103452381Y-9816667D01*
X103452381Y-9150000D02*
X103452381Y-8530952D01*
X103833333Y-8864286D01*
X103833333Y-8721428D01*
X103880952Y-8626190D01*
X103928571Y-8578571D01*
X104023810Y-8530952D01*
X104261905Y-8530952D01*
X104357143Y-8578571D01*
X104404762Y-8626190D01*
X104452381Y-8721428D01*
X104452381Y-9007143D01*
X104404762Y-9102381D01*
X104357143Y-9150000D01*
X28109524Y-38802381D02*
X28109524Y-37802381D01*
X28347619Y-37802381D01*
X28490477Y-37850000D01*
X28585715Y-37945238D01*
X28633334Y-38040476D01*
X28680953Y-38230952D01*
X28680953Y-38373810D01*
X28633334Y-38564286D01*
X28585715Y-38659524D01*
X28490477Y-38754762D01*
X28347619Y-38802381D01*
X28109524Y-38802381D01*
X29633334Y-38802381D02*
X29061905Y-38802381D01*
X29347619Y-38802381D02*
X29347619Y-37802381D01*
X29252381Y-37945238D01*
X29157143Y-38040476D01*
X29061905Y-38088095D01*
X30252381Y-37802381D02*
X30347620Y-37802381D01*
X30442858Y-37850000D01*
X30490477Y-37897619D01*
X30538096Y-37992857D01*
X30585715Y-38183333D01*
X30585715Y-38421429D01*
X30538096Y-38611905D01*
X30490477Y-38707143D01*
X30442858Y-38754762D01*
X30347620Y-38802381D01*
X30252381Y-38802381D01*
X30157143Y-38754762D01*
X30109524Y-38707143D01*
X30061905Y-38611905D01*
X30014286Y-38421429D01*
X30014286Y-38183333D01*
X30061905Y-37992857D01*
X30109524Y-37897619D01*
X30157143Y-37850000D01*
X30252381Y-37802381D01*
X31538096Y-38802381D02*
X30966667Y-38802381D01*
X31252381Y-38802381D02*
X31252381Y-37802381D01*
X31157143Y-37945238D01*
X31061905Y-38040476D01*
X30966667Y-38088095D01*
X109662381Y-21382619D02*
X109567143Y-21335000D01*
X109471905Y-21239762D01*
X109329048Y-21096905D01*
X109233809Y-21049286D01*
X109138571Y-21049286D01*
X109186190Y-21287381D02*
X109090952Y-21239762D01*
X108995714Y-21144524D01*
X108948095Y-20954048D01*
X108948095Y-20620714D01*
X108995714Y-20430238D01*
X109090952Y-20335000D01*
X109186190Y-20287381D01*
X109376667Y-20287381D01*
X109471905Y-20335000D01*
X109567143Y-20430238D01*
X109614762Y-20620714D01*
X109614762Y-20954048D01*
X109567143Y-21144524D01*
X109471905Y-21239762D01*
X109376667Y-21287381D01*
X109186190Y-21287381D01*
X110567143Y-21287381D02*
X109995714Y-21287381D01*
X110281428Y-21287381D02*
X110281428Y-20287381D01*
X110186190Y-20430238D01*
X110090952Y-20525476D01*
X109995714Y-20573095D01*
X111186190Y-20287381D02*
X111281429Y-20287381D01*
X111376667Y-20335000D01*
X111424286Y-20382619D01*
X111471905Y-20477857D01*
X111519524Y-20668333D01*
X111519524Y-20906429D01*
X111471905Y-21096905D01*
X111424286Y-21192143D01*
X111376667Y-21239762D01*
X111281429Y-21287381D01*
X111186190Y-21287381D01*
X111090952Y-21239762D01*
X111043333Y-21192143D01*
X110995714Y-21096905D01*
X110948095Y-20906429D01*
X110948095Y-20668333D01*
X110995714Y-20477857D01*
X111043333Y-20382619D01*
X111090952Y-20335000D01*
X111186190Y-20287381D01*
X111900476Y-20382619D02*
X111948095Y-20335000D01*
X112043333Y-20287381D01*
X112281429Y-20287381D01*
X112376667Y-20335000D01*
X112424286Y-20382619D01*
X112471905Y-20477857D01*
X112471905Y-20573095D01*
X112424286Y-20715952D01*
X111852857Y-21287381D01*
X112471905Y-21287381D01*
X45602381Y-44319047D02*
X45126190Y-44652381D01*
X45602381Y-44890476D02*
X44602381Y-44890476D01*
X44602381Y-44509523D01*
X44650000Y-44414285D01*
X44697619Y-44366666D01*
X44792857Y-44319047D01*
X44935714Y-44319047D01*
X45030952Y-44366666D01*
X45078571Y-44414285D01*
X45126190Y-44509523D01*
X45126190Y-44890476D01*
X45602381Y-43366666D02*
X45602381Y-43938095D01*
X45602381Y-43652381D02*
X44602381Y-43652381D01*
X44745238Y-43747619D01*
X44840476Y-43842857D01*
X44888095Y-43938095D01*
X45602381Y-42414285D02*
X45602381Y-42985714D01*
X45602381Y-42700000D02*
X44602381Y-42700000D01*
X44745238Y-42795238D01*
X44840476Y-42890476D01*
X44888095Y-42985714D01*
X44602381Y-41509523D02*
X44602381Y-41985714D01*
X45078571Y-42033333D01*
X45030952Y-41985714D01*
X44983333Y-41890476D01*
X44983333Y-41652380D01*
X45030952Y-41557142D01*
X45078571Y-41509523D01*
X45173810Y-41461904D01*
X45411905Y-41461904D01*
X45507143Y-41509523D01*
X45554762Y-41557142D01*
X45602381Y-41652380D01*
X45602381Y-41890476D01*
X45554762Y-41985714D01*
X45507143Y-42033333D01*
M02*
