G04 #@! TF.FileFunction,Copper,L1,Top,Signal*
%FSLAX46Y46*%
G04 Gerber Fmt 4.6, Leading zero omitted, Abs format (unit mm)*
G04 Created by KiCad (PCBNEW 4.0.4-stable) date Tuesday, December 27, 2016 'AMt' 12:33:23 AM*
%MOMM*%
%LPD*%
G01*
G04 APERTURE LIST*
%ADD10C,0.100000*%
%ADD11C,2.000000*%
%ADD12R,0.800000X1.900000*%
%ADD13R,1.000000X1.000000*%
%ADD14R,0.600000X0.800000*%
%ADD15R,1.970000X1.946000*%
%ADD16R,1.250000X1.500000*%
%ADD17R,1.500000X1.250000*%
%ADD18R,2.000000X1.600000*%
%ADD19R,2.000000X2.500000*%
%ADD20R,2.032000X5.000000*%
%ADD21R,1.597660X1.800860*%
%ADD22R,3.500120X2.301240*%
%ADD23R,4.500880X3.299460*%
%ADD24R,4.498340X3.299460*%
%ADD25C,11.000000*%
%ADD26C,0.700000*%
%ADD27R,1.900000X0.800000*%
%ADD28R,4.600000X1.390000*%
%ADD29R,9.400000X10.800000*%
%ADD30R,1.300000X1.500000*%
%ADD31R,3.200000X2.700000*%
%ADD32R,1.500000X1.300000*%
%ADD33C,1.500000*%
%ADD34R,2.000000X1.700000*%
%ADD35R,1.600000X0.300000*%
%ADD36R,0.300000X1.600000*%
%ADD37R,1.220000X0.910000*%
%ADD38R,0.910000X1.220000*%
%ADD39C,1.800000*%
%ADD40C,1.600000*%
%ADD41C,0.600000*%
%ADD42C,1.000000*%
%ADD43C,2.000000*%
%ADD44C,0.250000*%
%ADD45C,0.500000*%
%ADD46C,1.000000*%
%ADD47C,6.000000*%
%ADD48C,3.000000*%
%ADD49C,4.000000*%
G04 APERTURE END LIST*
D10*
D11*
X108000000Y-55500000D03*
X111500000Y-55500000D03*
X131700000Y-23000000D03*
X131700000Y-19500000D03*
X85000000Y-8000000D03*
X81500000Y-8000000D03*
X73500000Y-8000000D03*
X70000000Y-8000000D03*
D12*
X82350000Y-32475000D03*
X80450000Y-32475000D03*
X81400000Y-35475000D03*
D13*
X78050000Y-52325000D03*
X80550000Y-52325000D03*
X78050000Y-50275000D03*
X80550000Y-50275000D03*
D14*
X34025000Y-3000000D03*
X32325000Y-3000000D03*
D15*
X116210000Y-20600000D03*
X114240000Y-20600000D03*
X114240000Y-22546000D03*
X116210000Y-22546000D03*
X116210000Y-18654000D03*
X114240000Y-18654000D03*
X125360000Y-20600000D03*
X123390000Y-20600000D03*
X123390000Y-22546000D03*
X125360000Y-22546000D03*
X125360000Y-18654000D03*
X123390000Y-18654000D03*
D16*
X64975000Y-29550000D03*
X64975000Y-27050000D03*
D17*
X99325000Y-3475000D03*
X96825000Y-3475000D03*
D16*
X70125000Y-21475000D03*
X70125000Y-23975000D03*
X21800000Y-20550000D03*
X21800000Y-18050000D03*
X25750000Y-23000000D03*
X25750000Y-20500000D03*
X21800000Y-25500000D03*
X21800000Y-23000000D03*
X25750000Y-28000000D03*
X25750000Y-25500000D03*
X21800000Y-30500000D03*
X21800000Y-28000000D03*
X25750000Y-32800000D03*
X25750000Y-30300000D03*
X21850000Y-35550000D03*
X21850000Y-33050000D03*
X25750000Y-38150000D03*
X25750000Y-35650000D03*
X21850000Y-40650000D03*
X21850000Y-38150000D03*
X25750000Y-43200000D03*
X25750000Y-40700000D03*
X21850000Y-45700000D03*
X21850000Y-43200000D03*
X25750000Y-48050000D03*
X25750000Y-45550000D03*
D17*
X115675000Y-11250000D03*
X113175000Y-11250000D03*
X115725000Y-15150000D03*
X113225000Y-15150000D03*
X115625000Y-9050000D03*
X113125000Y-9050000D03*
X50875000Y-39050000D03*
X48375000Y-39050000D03*
D16*
X113800000Y-31750000D03*
X113800000Y-34250000D03*
D18*
X24800000Y-6075000D03*
X20800000Y-6075000D03*
D16*
X113800000Y-37700000D03*
X113800000Y-40200000D03*
D19*
X43100000Y-21000000D03*
X39100000Y-21000000D03*
X40050000Y-40450000D03*
X44050000Y-40450000D03*
D17*
X48400000Y-32575000D03*
X50900000Y-32575000D03*
X39775000Y-23850000D03*
X42275000Y-23850000D03*
X50925000Y-34675000D03*
X48425000Y-34675000D03*
D13*
X136300000Y-46870000D03*
X135300000Y-46870000D03*
X135300000Y-45870000D03*
X136300000Y-45870000D03*
X134300000Y-45870000D03*
X133300000Y-45870000D03*
X133300000Y-46870000D03*
X134300000Y-46870000D03*
X130300000Y-46870000D03*
X129300000Y-46870000D03*
X129300000Y-45870000D03*
X130300000Y-45870000D03*
X132300000Y-45870000D03*
X131300000Y-45870000D03*
X131300000Y-46870000D03*
X132300000Y-46870000D03*
X128300000Y-46870000D03*
X128300000Y-45870000D03*
X127300000Y-45870000D03*
X126300000Y-45870000D03*
X126300000Y-46870000D03*
X127300000Y-46870000D03*
X127300000Y-44870000D03*
X126300000Y-44870000D03*
X126300000Y-43870000D03*
X127300000Y-43870000D03*
X128300000Y-43870000D03*
X128300000Y-44870000D03*
X132300000Y-44870000D03*
X131300000Y-44870000D03*
X131300000Y-43870000D03*
X132300000Y-43870000D03*
X130300000Y-43870000D03*
X129300000Y-43870000D03*
X129300000Y-44870000D03*
X130300000Y-44870000D03*
X134300000Y-44870000D03*
X133300000Y-44870000D03*
X133300000Y-43870000D03*
X134300000Y-43870000D03*
X136300000Y-43870000D03*
X135300000Y-43870000D03*
X135300000Y-44870000D03*
X136300000Y-44870000D03*
D20*
X133840000Y-32455000D03*
X128760000Y-32455000D03*
D13*
X136300000Y-42100000D03*
X136300000Y-42880000D03*
X135300000Y-42880000D03*
X135300000Y-42100000D03*
X134300000Y-42100000D03*
X133300000Y-42100000D03*
X133300000Y-42880000D03*
X132300000Y-42100000D03*
X131300000Y-42880000D03*
X134300000Y-42880000D03*
X131300000Y-42100000D03*
X132300000Y-42880000D03*
X132300000Y-41100000D03*
X131300000Y-41100000D03*
X131300000Y-40100000D03*
X132300000Y-40100000D03*
X130300000Y-40100000D03*
X133300000Y-41100000D03*
X130300000Y-41100000D03*
X133300000Y-40100000D03*
X127300000Y-42100000D03*
X126300000Y-42100000D03*
X126300000Y-42880000D03*
X127300000Y-41100000D03*
X127300000Y-42880000D03*
X126300000Y-41100000D03*
X134300000Y-40100000D03*
X136300000Y-40100000D03*
X135300000Y-40100000D03*
X135300000Y-41100000D03*
X134300000Y-41100000D03*
X136300000Y-41100000D03*
X129300000Y-40100000D03*
X128300000Y-41100000D03*
X126300000Y-40100000D03*
X127300000Y-40100000D03*
X128300000Y-40100000D03*
X129300000Y-41100000D03*
X129300000Y-42880000D03*
X130300000Y-42100000D03*
X128300000Y-42880000D03*
X128300000Y-42100000D03*
X129300000Y-42100000D03*
X130300000Y-42880000D03*
D21*
X80719860Y-28700000D03*
X77880140Y-28700000D03*
X80744860Y-25950000D03*
X77905140Y-25950000D03*
X80744860Y-23225000D03*
X77905140Y-23225000D03*
X80719860Y-20550000D03*
X77880140Y-20550000D03*
X80719860Y-17925000D03*
X77880140Y-17925000D03*
D22*
X118900020Y-46825000D03*
X113499980Y-46825000D03*
D23*
X116324280Y-4225000D03*
D24*
X107525720Y-4225000D03*
D11*
X64600000Y-55500000D03*
X68100000Y-55500000D03*
X71600000Y-55500000D03*
X75100000Y-55500000D03*
D25*
X131926815Y-55573185D03*
D26*
X136051815Y-55573185D03*
X134853630Y-58500000D03*
X131926815Y-59698185D03*
X129000000Y-58500000D03*
X127801815Y-55573185D03*
X129000000Y-52646370D03*
X131926815Y-51448185D03*
X134853630Y-52646370D03*
D25*
X132000000Y-7775000D03*
D26*
X136125000Y-7775000D03*
X134926815Y-10701815D03*
X132000000Y-11900000D03*
X129073185Y-10701815D03*
X127875000Y-7775000D03*
X129073185Y-4848185D03*
X132000000Y-3650000D03*
X134926815Y-4848185D03*
D25*
X7773185Y-55573185D03*
D26*
X11898185Y-55573185D03*
X10700000Y-58500000D03*
X7773185Y-59698185D03*
X4846370Y-58500000D03*
X3648185Y-55573185D03*
X4846370Y-52646370D03*
X7773185Y-51448185D03*
X10700000Y-52646370D03*
D25*
X7775000Y-7800000D03*
D26*
X11900000Y-7800000D03*
X10701815Y-10726815D03*
X7775000Y-11925000D03*
X4848185Y-10726815D03*
X3650000Y-7800000D03*
X4848185Y-4873185D03*
X7775000Y-3675000D03*
X10701815Y-4873185D03*
D12*
X90650000Y-31800000D03*
X88750000Y-31800000D03*
X89700000Y-34800000D03*
D27*
X96500000Y-10125000D03*
X96500000Y-12025000D03*
X99500000Y-11075000D03*
X91975000Y-16500000D03*
X91975000Y-14600000D03*
X88975000Y-15550000D03*
D28*
X106600000Y-31760000D03*
D29*
X97450000Y-31760000D03*
D28*
X106600000Y-29220000D03*
X106600000Y-34300000D03*
X106675000Y-43300000D03*
D29*
X97525000Y-43300000D03*
D28*
X106675000Y-40760000D03*
X106675000Y-45840000D03*
D27*
X24500000Y-14625000D03*
X24500000Y-12725000D03*
X21500000Y-13675000D03*
D12*
X93750000Y-55900000D03*
X91850000Y-55900000D03*
X92800000Y-58900000D03*
D30*
X64600000Y-49775000D03*
X64600000Y-52475000D03*
X68100000Y-49825000D03*
X68100000Y-52525000D03*
X71625000Y-49825000D03*
X71625000Y-52525000D03*
X75100000Y-49850000D03*
X75100000Y-52550000D03*
D31*
X122725000Y-33050000D03*
X122725000Y-40950000D03*
D32*
X57675000Y-34650000D03*
X60375000Y-34650000D03*
D30*
X78525000Y-32725000D03*
X78525000Y-35425000D03*
D31*
X89700000Y-39350000D03*
X89700000Y-47250000D03*
D32*
X57675000Y-32575000D03*
X60375000Y-32575000D03*
D30*
X86675000Y-32400000D03*
X86675000Y-35100000D03*
D32*
X57675000Y-36750000D03*
X60375000Y-36750000D03*
X57650000Y-30475000D03*
X60350000Y-30475000D03*
X91150000Y-27100000D03*
X88450000Y-27100000D03*
X60450000Y-41100000D03*
X63150000Y-41100000D03*
X48675000Y-50400000D03*
X51375000Y-50400000D03*
X48675000Y-52525000D03*
X51375000Y-52525000D03*
X70475000Y-19000000D03*
X67775000Y-19000000D03*
X50100000Y-54800000D03*
X52800000Y-54800000D03*
D30*
X83875000Y-43775000D03*
X83875000Y-41075000D03*
X72925000Y-15975000D03*
X72925000Y-18675000D03*
X66389585Y-46233133D03*
X66389585Y-43533133D03*
X68564585Y-46208133D03*
X68564585Y-43508133D03*
D32*
X59625000Y-46425000D03*
X62325000Y-46425000D03*
X77975000Y-46050000D03*
X80675000Y-46050000D03*
X59625000Y-48525000D03*
X62325000Y-48525000D03*
X99425000Y-7975000D03*
X96725000Y-7975000D03*
X99475000Y-5700000D03*
X96775000Y-5700000D03*
X77975000Y-48175000D03*
X80675000Y-48175000D03*
D30*
X70700000Y-46200000D03*
X70700000Y-43500000D03*
X72825000Y-46200000D03*
X72825000Y-43500000D03*
X91825000Y-12500000D03*
X91825000Y-9800000D03*
X89750000Y-9850000D03*
X89750000Y-12550000D03*
X94400000Y-17600000D03*
X94400000Y-14900000D03*
D32*
X65140001Y-24035000D03*
X67840001Y-24035000D03*
X65125000Y-21950000D03*
X67825000Y-21950000D03*
D30*
X72225000Y-21400000D03*
X72225000Y-24100000D03*
D32*
X81225000Y-41925000D03*
X78525000Y-41925000D03*
X12800000Y-18050000D03*
X15500000Y-18050000D03*
X12800000Y-20500000D03*
X15500000Y-20500000D03*
X12800000Y-23000000D03*
X15500000Y-23000000D03*
X12800000Y-25500000D03*
X15500000Y-25500000D03*
X12800000Y-28000000D03*
X15500000Y-28000000D03*
X12800000Y-30500000D03*
X15500000Y-30500000D03*
X12800000Y-33050000D03*
X15500000Y-33050000D03*
X12800000Y-35600000D03*
X15500000Y-35600000D03*
X12800000Y-38150000D03*
X15500000Y-38150000D03*
X12800000Y-40650000D03*
X15500000Y-40650000D03*
X12800000Y-43200000D03*
X15500000Y-43200000D03*
X12800000Y-45700000D03*
X15500000Y-45700000D03*
X117975000Y-15150000D03*
X120675000Y-15150000D03*
X110975000Y-15150000D03*
X108275000Y-15150000D03*
X48275000Y-36875000D03*
X50975000Y-36875000D03*
X96250000Y-23000000D03*
X98950000Y-23000000D03*
X21725000Y-8450000D03*
X24425000Y-8450000D03*
X91350000Y-23000000D03*
X94050000Y-23000000D03*
X16275000Y-13675000D03*
X18975000Y-13675000D03*
X99000000Y-60800000D03*
X96300000Y-60800000D03*
X96250000Y-58600000D03*
X98950000Y-58600000D03*
X98950000Y-52000000D03*
X96250000Y-52000000D03*
X39750000Y-18225000D03*
X42450000Y-18225000D03*
X21675000Y-52400000D03*
X24375000Y-52400000D03*
D30*
X37450000Y-39050000D03*
X37450000Y-41750000D03*
D33*
X44300000Y-5000000D03*
X49300000Y-5000000D03*
X44300000Y-10000000D03*
X49300000Y-10000000D03*
X31325000Y-53075000D03*
X36325000Y-53075000D03*
X31325000Y-58075000D03*
X36325000Y-58075000D03*
D34*
X44175000Y-60000000D03*
X48175000Y-60000000D03*
X62100000Y-2425000D03*
X58100000Y-2425000D03*
D35*
X43900000Y-36400000D03*
X43900000Y-35900000D03*
X43900000Y-35400000D03*
X43900000Y-34900000D03*
X43900000Y-34400000D03*
X43900000Y-33900000D03*
X43900000Y-33400000D03*
X43900000Y-32900000D03*
X43900000Y-32400000D03*
X43900000Y-31900000D03*
X43900000Y-31400000D03*
X43900000Y-30900000D03*
X43900000Y-30400000D03*
X43900000Y-29900000D03*
X43900000Y-29400000D03*
X38300000Y-29400000D03*
X38300000Y-29900000D03*
X38300000Y-30400000D03*
X38300000Y-30900000D03*
X38300000Y-31400000D03*
X38300000Y-31900000D03*
X38300000Y-32400000D03*
X38300000Y-32900000D03*
X38300000Y-33400000D03*
X38300000Y-33900000D03*
X38300000Y-34400000D03*
X38300000Y-34900000D03*
X38300000Y-35400000D03*
X38300000Y-35900000D03*
X38300000Y-36400000D03*
D36*
X67575000Y-35000000D03*
X68075000Y-35000000D03*
X68575000Y-35000000D03*
X69075000Y-35000000D03*
X69575000Y-35000000D03*
X70075000Y-35000000D03*
X70575000Y-35000000D03*
X71075000Y-35000000D03*
X71575000Y-35000000D03*
X72075000Y-35000000D03*
X72575000Y-35000000D03*
X73075000Y-35000000D03*
X73575000Y-35000000D03*
X74075000Y-35000000D03*
X74575000Y-35000000D03*
X74575000Y-29400000D03*
X74075000Y-29400000D03*
X73575000Y-29400000D03*
X73075000Y-29400000D03*
X72575000Y-29400000D03*
X72075000Y-29400000D03*
X71575000Y-29400000D03*
X71075000Y-29400000D03*
X70575000Y-29400000D03*
X70075000Y-29400000D03*
X69575000Y-29400000D03*
X69075000Y-29400000D03*
X68575000Y-29400000D03*
X68075000Y-29400000D03*
X67575000Y-29400000D03*
D37*
X84400000Y-35385000D03*
X84400000Y-32115000D03*
D38*
X91435000Y-29300000D03*
X88165000Y-29300000D03*
D37*
X94000000Y-12785000D03*
X94000000Y-9515000D03*
D38*
X24710000Y-10700000D03*
X21440000Y-10700000D03*
X99235000Y-56400000D03*
X95965000Y-56400000D03*
X99235000Y-54200000D03*
X95965000Y-54200000D03*
X42660000Y-26050000D03*
X39390000Y-26050000D03*
D37*
X35225000Y-41985000D03*
X35225000Y-38715000D03*
D38*
X34860000Y-12950000D03*
X31590000Y-12950000D03*
D27*
X34625000Y-8975000D03*
X34625000Y-7075000D03*
X31625000Y-8025000D03*
D32*
X34500000Y-5100000D03*
X31800000Y-5100000D03*
X31900000Y-10850000D03*
X34600000Y-10850000D03*
D39*
X8900000Y-19200000D03*
X8900000Y-21700000D03*
X8900000Y-24200000D03*
X8900000Y-26700000D03*
X8900000Y-29200000D03*
X8900000Y-31700000D03*
X8900000Y-34200000D03*
X8900000Y-36700000D03*
X8900000Y-39200000D03*
X8900000Y-41700000D03*
X8900000Y-44200000D03*
X8900000Y-46700000D03*
D40*
X107401440Y-3950000D03*
D41*
X91975000Y-14600000D03*
X96825000Y-3475000D03*
X96775000Y-5700000D03*
X72925000Y-15975000D03*
X83875000Y-43775000D03*
X50100000Y-54800000D03*
X48675000Y-52525000D03*
X48675000Y-50400000D03*
X60450000Y-41100000D03*
X70125000Y-21475000D03*
X70475000Y-19000000D03*
D42*
X67840001Y-24035000D03*
X71325001Y-30560558D03*
X64975000Y-29550000D03*
D41*
X34875000Y-3000000D03*
X31590000Y-12950000D03*
X43625000Y-37275000D03*
X75100000Y-49850000D03*
X71625000Y-49825000D03*
X48175000Y-60000000D03*
D42*
X44050000Y-40450000D03*
X50900000Y-32575000D03*
X50925000Y-34675000D03*
X50975000Y-36875000D03*
X48375000Y-39050000D03*
X20800000Y-6075000D03*
X25750000Y-45550000D03*
X21850000Y-45700000D03*
D41*
X93750000Y-55900000D03*
D42*
X64150000Y-44450000D03*
D41*
X85225000Y-19100000D03*
X86825000Y-19125000D03*
X90300000Y-19125000D03*
X92200000Y-19450000D03*
X72225000Y-21400000D03*
D42*
X81225000Y-41925000D03*
X80744860Y-25950000D03*
X64975000Y-27050000D03*
D41*
X87225000Y-9200000D03*
X83225000Y-13200000D03*
X72950000Y-31075000D03*
X70900000Y-33000000D03*
X35225000Y-41985000D03*
X24500000Y-14625000D03*
X42075000Y-31675000D03*
X25750000Y-30300000D03*
X41350000Y-34450000D03*
X35975000Y-37400000D03*
X98700000Y-13450000D03*
X88100000Y-11625000D03*
X61025000Y-23450000D03*
X59000000Y-23950000D03*
X53700000Y-26325000D03*
X40982550Y-35374999D03*
X98575000Y-14500000D03*
X87573195Y-12227063D03*
X61675000Y-24300000D03*
X58875000Y-25175000D03*
X53775000Y-27300000D03*
X40400000Y-36150000D03*
D42*
X113125000Y-9050000D03*
X110975000Y-15150000D03*
D41*
X113800000Y-31750000D03*
X98900000Y-23000000D03*
X106600000Y-29220000D03*
X40075000Y-28700000D03*
X38100000Y-27025000D03*
X30250000Y-18075000D03*
X29200000Y-15025000D03*
D40*
X113499980Y-46825000D03*
D41*
X86825000Y-50500000D03*
X85425000Y-50350000D03*
X88750000Y-31800000D03*
X106700000Y-40800000D03*
X113800000Y-40200000D03*
D42*
X103975000Y-12550000D03*
D41*
X96500000Y-12025000D03*
X93900000Y-7225000D03*
X71700000Y-3375000D03*
X61325000Y-8675000D03*
X20350000Y-34225000D03*
X37450000Y-39050000D03*
X58725000Y-39950000D03*
X41950000Y-38850000D03*
X41625000Y-37275000D03*
X59800000Y-26750000D03*
X55250000Y-24675000D03*
X50850000Y-24975000D03*
X77575000Y-32050000D03*
X81650000Y-32475000D03*
X78975000Y-37300000D03*
X83725000Y-37275000D03*
D40*
X98490000Y-28950000D03*
X106600000Y-31760000D03*
X97525000Y-43300000D03*
X106675000Y-43300000D03*
D41*
X46300000Y-36725000D03*
X46875000Y-38450000D03*
X50275000Y-42975000D03*
X51925000Y-47525000D03*
X52450000Y-36375000D03*
X45450000Y-35025000D03*
X53050000Y-30425000D03*
X56400000Y-30475000D03*
X45400000Y-34175000D03*
X47475000Y-30400000D03*
X53275000Y-45650000D03*
X51775000Y-48475000D03*
X52800000Y-50400000D03*
X53729442Y-46729442D03*
X66475000Y-21175000D03*
X66467831Y-23767831D03*
X53850000Y-51725000D03*
X54375000Y-47900000D03*
X79000000Y-38125000D03*
X73125000Y-13075000D03*
X84525000Y-30825000D03*
X84525000Y-33350000D03*
X82550000Y-38125000D03*
X83050000Y-14475000D03*
X81575000Y-13625000D03*
X65425000Y-11075000D03*
X86125000Y-49650000D03*
X45350000Y-36825000D03*
X46200000Y-39075000D03*
X49200000Y-43100000D03*
X51075000Y-45750000D03*
X88200000Y-24200000D03*
D43*
X125360000Y-20600000D02*
X125360000Y-22546000D01*
X123390000Y-18654000D02*
X123390000Y-20600000D01*
X123390000Y-22546000D02*
X123390000Y-18654000D01*
X125360000Y-22546000D02*
X123390000Y-22546000D01*
X125360000Y-18654000D02*
X125360000Y-22546000D01*
X123390000Y-18654000D02*
X125360000Y-18654000D01*
D44*
X120675000Y-15150000D02*
X120675000Y-16050000D01*
X126100000Y-16375000D02*
X126225000Y-16500000D01*
X120675000Y-16050000D02*
X121000000Y-16375000D01*
X126225000Y-17789000D02*
X125360000Y-18654000D01*
X121000000Y-16375000D02*
X126100000Y-16375000D01*
X126225000Y-16500000D02*
X126225000Y-17789000D01*
X71575000Y-29400000D02*
X71575000Y-30310559D01*
X71575000Y-30310559D02*
X71325001Y-30560558D01*
X71075000Y-29400000D02*
X71075000Y-30310557D01*
X71075000Y-30310557D02*
X71325001Y-30560558D01*
X70075000Y-29400000D02*
X70075000Y-30450000D01*
X70075000Y-30450000D02*
X70185558Y-30560558D01*
X70185558Y-30560558D02*
X71325001Y-30560558D01*
D45*
X34025000Y-3000000D02*
X34875000Y-3000000D01*
D44*
X43900000Y-35400000D02*
X42850000Y-35400000D01*
X42850000Y-35400000D02*
X42774999Y-35475001D01*
X43239998Y-37275000D02*
X43625000Y-37275000D01*
X42774999Y-35475001D02*
X42774999Y-36810001D01*
X42774999Y-36810001D02*
X43239998Y-37275000D01*
X125546000Y-18654000D02*
X125360000Y-18654000D01*
D45*
X115675000Y-11250000D02*
X115675000Y-9100000D01*
X115675000Y-9100000D02*
X115625000Y-9050000D01*
X120675000Y-15150000D02*
X120575000Y-15150000D01*
X120575000Y-15150000D02*
X116675000Y-11250000D01*
X116675000Y-11250000D02*
X115675000Y-11250000D01*
X8900000Y-44200000D02*
X11300000Y-44200000D01*
X11300000Y-44200000D02*
X12800000Y-45700000D01*
D46*
X80450000Y-32475000D02*
X80200000Y-32725000D01*
X80200000Y-32725000D02*
X80200000Y-39250000D01*
X80200000Y-39250000D02*
X81225000Y-40275000D01*
X81225000Y-40275000D02*
X81225000Y-41925000D01*
X80719860Y-30344860D02*
X80630140Y-30344860D01*
X80630140Y-30344860D02*
X80450000Y-30525000D01*
X80450000Y-30525000D02*
X80450000Y-32475000D01*
X60975000Y-45050000D02*
X61575000Y-44450000D01*
X61575000Y-44450000D02*
X64150000Y-44450000D01*
X60975000Y-45075000D02*
X60975000Y-45050000D01*
D45*
X85225000Y-19100000D02*
X81894860Y-19100000D01*
X81894860Y-19100000D02*
X80719860Y-17925000D01*
X90300000Y-19125000D02*
X86825000Y-19125000D01*
X94400000Y-17600000D02*
X94050000Y-17600000D01*
X94050000Y-17600000D02*
X92200000Y-19450000D01*
D46*
X59625000Y-46425000D02*
X59625000Y-48525000D01*
X60975000Y-45075000D02*
X59625000Y-46425000D01*
D45*
X65125000Y-21950000D02*
X65014999Y-21950000D01*
X63850000Y-25800000D02*
X64975000Y-26925000D01*
X65014999Y-21950000D02*
X63850000Y-23114999D01*
X64975000Y-26925000D02*
X64975000Y-27050000D01*
X63850000Y-23114999D02*
X63850000Y-25800000D01*
D46*
X81400000Y-41750000D02*
X81225000Y-41925000D01*
D44*
X68825000Y-31600000D02*
X69575000Y-30850000D01*
X69575000Y-30850000D02*
X69575000Y-29400000D01*
X67050000Y-31600000D02*
X68825000Y-31600000D01*
X66000000Y-30550000D02*
X67050000Y-31600000D01*
X66000000Y-29360002D02*
X66000000Y-30550000D01*
X65975000Y-27175000D02*
X65975000Y-29335002D01*
X65975000Y-29335002D02*
X66000000Y-29360002D01*
X64975000Y-27050000D02*
X65850000Y-27050000D01*
X65850000Y-27050000D02*
X65975000Y-27175000D01*
D46*
X80719860Y-20550000D02*
X80719860Y-17925000D01*
X80744860Y-23225000D02*
X80744860Y-20575000D01*
X80744860Y-20575000D02*
X80719860Y-20550000D01*
X80744860Y-25950000D02*
X80744860Y-23225000D01*
X80719860Y-28700000D02*
X80719860Y-25975000D01*
X80719860Y-25975000D02*
X80744860Y-25950000D01*
X80719860Y-30344860D02*
X80719860Y-28700000D01*
X54675000Y-30650000D02*
X56325000Y-29000000D01*
X56325000Y-29000000D02*
X59550000Y-29000000D01*
X59550000Y-29000000D02*
X61500000Y-27050000D01*
X61500000Y-27050000D02*
X64975000Y-27050000D01*
D45*
X53825001Y-31499999D02*
X54675000Y-30650000D01*
X49600001Y-31499999D02*
X53825001Y-31499999D01*
X56425000Y-32575000D02*
X56425000Y-33500000D01*
X56425000Y-33500000D02*
X57575000Y-34650000D01*
X57575000Y-34650000D02*
X57675000Y-34650000D01*
X48400000Y-32575000D02*
X48525000Y-32575000D01*
X48525000Y-32575000D02*
X49600001Y-31499999D01*
X49600001Y-31499999D02*
X55349999Y-31499999D01*
X55349999Y-31499999D02*
X56425000Y-32575000D01*
X56425000Y-32575000D02*
X57675000Y-32575000D01*
D44*
X48400000Y-32575000D02*
X47400000Y-32575000D01*
X47400000Y-32575000D02*
X47075000Y-32900000D01*
X47075000Y-32900000D02*
X44950000Y-32900000D01*
X44950000Y-32900000D02*
X43900000Y-32900000D01*
X87225000Y-9200000D02*
X87524999Y-8900001D01*
X87524999Y-8835599D02*
X88385598Y-7975000D01*
X87524999Y-8900001D02*
X87524999Y-8835599D01*
X79596029Y-16764569D02*
X79661029Y-16699569D01*
X79661029Y-16699569D02*
X79725431Y-16699569D01*
X79725431Y-16699569D02*
X83225000Y-13200000D01*
D45*
X99475000Y-5700000D02*
X99000000Y-5700000D01*
X99000000Y-5700000D02*
X96725000Y-7975000D01*
X99325000Y-3475000D02*
X99325000Y-5550000D01*
X99325000Y-5550000D02*
X99475000Y-5700000D01*
D44*
X72950000Y-31075000D02*
X77789402Y-31075000D01*
X77789402Y-31075000D02*
X79596029Y-29268373D01*
X79596029Y-29268373D02*
X79596029Y-16764569D01*
X88385598Y-7975000D02*
X95725000Y-7975000D01*
X95725000Y-7975000D02*
X96725000Y-7975000D01*
X70575000Y-35000000D02*
X70575000Y-33325000D01*
X70575000Y-33325000D02*
X70900000Y-33000000D01*
X69075000Y-29400000D02*
X69075000Y-24150000D01*
X69075000Y-24150000D02*
X69250000Y-23975000D01*
X69250000Y-23975000D02*
X70125000Y-23975000D01*
X25750000Y-20500000D02*
X26625000Y-20500000D01*
X26625000Y-20500000D02*
X36025000Y-29900000D01*
X36025000Y-29900000D02*
X37250000Y-29900000D01*
X37250000Y-29900000D02*
X38300000Y-29900000D01*
D45*
X21800000Y-20550000D02*
X25700000Y-20550000D01*
X25700000Y-20550000D02*
X25750000Y-20500000D01*
X15500000Y-20500000D02*
X21750000Y-20500000D01*
X21750000Y-20500000D02*
X21800000Y-20550000D01*
X38300000Y-28575000D02*
X39390000Y-27485000D01*
X39390000Y-27485000D02*
X39390000Y-26050000D01*
D44*
X38300000Y-29400000D02*
X38300000Y-28575000D01*
X21800000Y-18050000D02*
X27350000Y-18050000D01*
X27350000Y-18050000D02*
X38300000Y-29000000D01*
X38300000Y-29000000D02*
X38300000Y-29400000D01*
D45*
X15500000Y-18050000D02*
X16750000Y-18050000D01*
X16750000Y-18050000D02*
X21800000Y-18050000D01*
D44*
X25750000Y-23000000D02*
X26625000Y-23000000D01*
X37250000Y-30400000D02*
X38300000Y-30400000D01*
X26625000Y-23000000D02*
X34025000Y-30400000D01*
X34025000Y-30400000D02*
X37250000Y-30400000D01*
D45*
X21800000Y-23000000D02*
X25750000Y-23000000D01*
X15500000Y-23000000D02*
X21800000Y-23000000D01*
D44*
X25750000Y-25500000D02*
X28488590Y-25500000D01*
X28488590Y-25500000D02*
X33888590Y-30900000D01*
X33888590Y-30900000D02*
X37250000Y-30900000D01*
X37250000Y-30900000D02*
X38300000Y-30900000D01*
D45*
X21800000Y-25500000D02*
X25750000Y-25500000D01*
X15500000Y-25500000D02*
X21800000Y-25500000D01*
D44*
X25750000Y-28000000D02*
X26625000Y-28000000D01*
X26625000Y-28000000D02*
X30025000Y-31400000D01*
X30025000Y-31400000D02*
X37250000Y-31400000D01*
X37250000Y-31400000D02*
X38300000Y-31400000D01*
D45*
X21800000Y-28000000D02*
X25750000Y-28000000D01*
X15500000Y-28000000D02*
X21800000Y-28000000D01*
X42075000Y-31675000D02*
X41650736Y-31675000D01*
X41650736Y-31675000D02*
X41054989Y-31079253D01*
X41054989Y-31079253D02*
X41054989Y-25004989D01*
X41054989Y-25004989D02*
X39900000Y-23850000D01*
X39900000Y-23850000D02*
X39775000Y-23850000D01*
D44*
X43900000Y-31900000D02*
X42300000Y-31900000D01*
X42300000Y-31900000D02*
X42075000Y-31675000D01*
D45*
X46475000Y-30875000D02*
X46475000Y-30289998D01*
X46475000Y-30289998D02*
X51039997Y-25725001D01*
X51039997Y-25725001D02*
X52274999Y-25725001D01*
X52274999Y-25725001D02*
X69000001Y-8999999D01*
X69000001Y-8999999D02*
X70000000Y-8000000D01*
X45049999Y-31875001D02*
X45474999Y-31875001D01*
X45474999Y-31875001D02*
X46475000Y-30875000D01*
X64825000Y-8000000D02*
X63825000Y-8000000D01*
X63825000Y-8000000D02*
X58250000Y-2425000D01*
X58250000Y-2425000D02*
X58100000Y-2425000D01*
X64825000Y-8000000D02*
X68585787Y-8000000D01*
X68585787Y-8000000D02*
X70000000Y-8000000D01*
X45049999Y-31875001D02*
X45224999Y-31875001D01*
D44*
X43900000Y-31900000D02*
X44675000Y-31900000D01*
X44675000Y-31900000D02*
X44699999Y-31875001D01*
X44699999Y-31875001D02*
X45049999Y-31875001D01*
D45*
X39100000Y-21000000D02*
X39100000Y-23175000D01*
X39100000Y-23175000D02*
X39775000Y-23850000D01*
X37450000Y-41750000D02*
X38750000Y-41750000D01*
X38750000Y-41750000D02*
X40050000Y-40450000D01*
X35225000Y-41985000D02*
X37215000Y-41985000D01*
X37215000Y-41985000D02*
X37450000Y-41750000D01*
X21800000Y-30500000D02*
X25550000Y-30500000D01*
X25550000Y-30500000D02*
X25750000Y-30300000D01*
D44*
X25750000Y-32800000D02*
X26625000Y-32800000D01*
X26625000Y-32800000D02*
X27525000Y-31900000D01*
X27525000Y-31900000D02*
X37250000Y-31900000D01*
X37250000Y-31900000D02*
X38300000Y-31900000D01*
D45*
X15500000Y-30500000D02*
X16750000Y-30500000D01*
X16750000Y-30500000D02*
X18099999Y-31849999D01*
X18099999Y-31849999D02*
X23674999Y-31849999D01*
X23674999Y-31849999D02*
X24625000Y-32800000D01*
X24625000Y-32800000D02*
X25750000Y-32800000D01*
D44*
X29600000Y-32900000D02*
X26850000Y-35650000D01*
X26850000Y-35650000D02*
X26625000Y-35650000D01*
X38300000Y-32900000D02*
X29600000Y-32900000D01*
X26625000Y-35650000D02*
X25750000Y-35650000D01*
D45*
X21850000Y-35550000D02*
X25650000Y-35550000D01*
X25650000Y-35550000D02*
X25750000Y-35650000D01*
X15500000Y-35600000D02*
X21800000Y-35600000D01*
X21800000Y-35600000D02*
X21850000Y-35550000D01*
D44*
X39350000Y-32400000D02*
X39350000Y-32450000D01*
X39350000Y-32450000D02*
X41350000Y-34450000D01*
X39350000Y-32400000D02*
X38300000Y-32400000D01*
X35225000Y-38715000D02*
X35225000Y-38150000D01*
X35225000Y-38150000D02*
X35975000Y-37400000D01*
X38300000Y-32400000D02*
X28450000Y-32400000D01*
X28450000Y-32400000D02*
X26974999Y-33875001D01*
X26974999Y-33875001D02*
X23550001Y-33875001D01*
X23550001Y-33875001D02*
X22725000Y-33050000D01*
X22725000Y-33050000D02*
X21850000Y-33050000D01*
D45*
X15500000Y-33050000D02*
X21850000Y-33050000D01*
D44*
X25750000Y-38150000D02*
X26625000Y-38150000D01*
X26625000Y-38150000D02*
X31375000Y-33400000D01*
X37250000Y-33400000D02*
X38300000Y-33400000D01*
X31375000Y-33400000D02*
X37250000Y-33400000D01*
D45*
X21850000Y-38150000D02*
X25750000Y-38150000D01*
X15500000Y-38150000D02*
X21850000Y-38150000D01*
D44*
X25750000Y-40700000D02*
X26625000Y-40700000D01*
X26625000Y-40700000D02*
X33425000Y-33900000D01*
X33425000Y-33900000D02*
X37250000Y-33900000D01*
X37250000Y-33900000D02*
X38300000Y-33900000D01*
D45*
X21850000Y-40650000D02*
X25700000Y-40650000D01*
X25700000Y-40650000D02*
X25750000Y-40700000D01*
X15500000Y-40650000D02*
X21850000Y-40650000D01*
D44*
X21675000Y-52400000D02*
X20214998Y-52400000D01*
X20214998Y-52400000D02*
X14424999Y-46610001D01*
X15400000Y-43200000D02*
X15500000Y-43200000D01*
X14424999Y-46610001D02*
X14424999Y-44175001D01*
X14424999Y-44175001D02*
X15400000Y-43200000D01*
X25750000Y-43200000D02*
X26625000Y-43200000D01*
X26625000Y-43200000D02*
X35425000Y-34400000D01*
X35425000Y-34400000D02*
X37250000Y-34400000D01*
X37250000Y-34400000D02*
X38300000Y-34400000D01*
D45*
X21850000Y-43200000D02*
X25750000Y-43200000D01*
X15500000Y-43200000D02*
X21850000Y-43200000D01*
D44*
X27850000Y-43150000D02*
X36100000Y-34900000D01*
X36100000Y-34900000D02*
X38300000Y-34900000D01*
X27850000Y-45825000D02*
X27850000Y-43150000D01*
X25750000Y-48050000D02*
X25750000Y-47925000D01*
X25750000Y-47925000D02*
X27850000Y-45825000D01*
D45*
X15500000Y-45700000D02*
X16750000Y-45700000D01*
X16750000Y-45700000D02*
X19100000Y-48050000D01*
X19100000Y-48050000D02*
X24625000Y-48050000D01*
X24625000Y-48050000D02*
X25750000Y-48050000D01*
D44*
X98700000Y-13450000D02*
X108350000Y-13450000D01*
X108350000Y-13450000D02*
X110550000Y-11250000D01*
X110550000Y-11250000D02*
X113175000Y-11250000D01*
X72699990Y-11125010D02*
X87600010Y-11125010D01*
X87600010Y-11125010D02*
X88100000Y-11625000D01*
X61025000Y-23450000D02*
X61324999Y-23150001D01*
X61324999Y-23150001D02*
X61324999Y-22500001D01*
X61324999Y-22500001D02*
X72699990Y-11125010D01*
X112175000Y-11250000D02*
X113175000Y-11250000D01*
X53700000Y-26325000D02*
X56625000Y-26325000D01*
X56625000Y-26325000D02*
X59000000Y-23950000D01*
X38300000Y-35400000D02*
X40957549Y-35400000D01*
X40957549Y-35400000D02*
X40982550Y-35374999D01*
D45*
X115725000Y-15150000D02*
X115725000Y-13675000D01*
X115725000Y-13675000D02*
X113300000Y-11250000D01*
X113300000Y-11250000D02*
X113175000Y-11250000D01*
X117975000Y-15150000D02*
X115725000Y-15150000D01*
D44*
X109750000Y-14025000D02*
X110875000Y-15150000D01*
X100600000Y-14500000D02*
X101125000Y-13975000D01*
X101125000Y-13975000D02*
X109700000Y-13975000D01*
X109700000Y-13975000D02*
X109750000Y-14025000D01*
X98575000Y-14500000D02*
X100600000Y-14500000D01*
X72886390Y-11575020D02*
X86921152Y-11575020D01*
X86921152Y-11575020D02*
X87573195Y-12227063D01*
X110875000Y-15150000D02*
X110975000Y-15150000D01*
X62000000Y-22461410D02*
X72886390Y-11575020D01*
X61974999Y-22674999D02*
X62000000Y-22649998D01*
X62000000Y-22649998D02*
X62000000Y-22461410D01*
X61675000Y-24300000D02*
X61974999Y-24000001D01*
X61974999Y-24000001D02*
X61974999Y-22674999D01*
X53775000Y-27300000D02*
X56750000Y-27300000D01*
X56750000Y-27300000D02*
X58875000Y-25175000D01*
X38300000Y-35900000D02*
X40150000Y-35900000D01*
X40150000Y-35900000D02*
X40400000Y-36150000D01*
D45*
X113225000Y-15150000D02*
X110975000Y-15150000D01*
D44*
X68075000Y-35000000D02*
X68075000Y-33964998D01*
X68075000Y-33964998D02*
X67560002Y-33450000D01*
X67560002Y-33450000D02*
X66300000Y-33450000D01*
X66300000Y-33450000D02*
X61975000Y-37775000D01*
X61975000Y-37775000D02*
X52275000Y-37775000D01*
X52275000Y-37775000D02*
X51000000Y-39050000D01*
X51000000Y-39050000D02*
X50875000Y-39050000D01*
X38300000Y-36400000D02*
X39575000Y-36400000D01*
X39575000Y-36400000D02*
X41125000Y-37950000D01*
X41125000Y-37950000D02*
X46200000Y-37950000D01*
X46200000Y-37950000D02*
X47275000Y-36875000D01*
X47275000Y-36875000D02*
X48275000Y-36875000D01*
D45*
X48275000Y-36875000D02*
X48700000Y-36875000D01*
X48700000Y-36875000D02*
X50875000Y-39050000D01*
D43*
X116210000Y-20600000D02*
X116210000Y-22546000D01*
X114240000Y-18654000D02*
X116210000Y-18654000D01*
X114240000Y-22546000D02*
X114240000Y-18654000D01*
X116210000Y-22546000D02*
X114240000Y-22546000D01*
X116210000Y-18654000D02*
X116210000Y-22546000D01*
D47*
X114240000Y-20600000D02*
X113350000Y-20600000D01*
X113350000Y-20600000D02*
X111550000Y-20600000D01*
D44*
X113375000Y-16700000D02*
X113375000Y-20575000D01*
X113375000Y-20575000D02*
X113350000Y-20600000D01*
X113125000Y-16450000D02*
X113375000Y-16700000D01*
X108675000Y-16450000D02*
X113125000Y-16450000D01*
X108275000Y-15150000D02*
X108275000Y-16050000D01*
X108275000Y-16050000D02*
X108675000Y-16450000D01*
D43*
X106975000Y-24775000D02*
X106600000Y-25150000D01*
X106600000Y-25150000D02*
X106600000Y-29220000D01*
D47*
X106975000Y-24775000D02*
X106975000Y-27375000D01*
X111150000Y-20600000D02*
X106975000Y-24775000D01*
X114240000Y-20600000D02*
X111150000Y-20600000D01*
X111550000Y-20600000D02*
X111525000Y-20575000D01*
D44*
X113400000Y-17814000D02*
X114240000Y-18654000D01*
D45*
X113800000Y-37700000D02*
X113800000Y-34250000D01*
D44*
X41485774Y-32500000D02*
X41585774Y-32400000D01*
X41585774Y-32400000D02*
X43900000Y-32400000D01*
D45*
X40075000Y-28700000D02*
X40075000Y-31089226D01*
X40075000Y-31089226D02*
X41485774Y-32500000D01*
X30250000Y-18075000D02*
X38100000Y-25925000D01*
X38100000Y-25925000D02*
X38100000Y-27025000D01*
X24710000Y-10700000D02*
X24710000Y-10855000D01*
X24710000Y-10855000D02*
X28880000Y-15025000D01*
X28880000Y-15025000D02*
X29200000Y-15025000D01*
D46*
X24425000Y-8450000D02*
X24425000Y-10415000D01*
X24425000Y-10415000D02*
X24710000Y-10700000D01*
X24800000Y-6075000D02*
X24800000Y-8075000D01*
X24800000Y-8075000D02*
X24425000Y-8450000D01*
D48*
X106700000Y-40800000D02*
X110600000Y-40800000D01*
X110600000Y-40800000D02*
X113200000Y-40800000D01*
D49*
X113499980Y-46825000D02*
X113499980Y-41674380D01*
X113499980Y-41674380D02*
X112625600Y-40800000D01*
X112625600Y-40800000D02*
X110600000Y-40800000D01*
D48*
X113200000Y-40800000D02*
X113800000Y-40200000D01*
D45*
X96250000Y-50850000D02*
X96800000Y-50300000D01*
X96800000Y-50300000D02*
X97100000Y-50000000D01*
X86825000Y-50500000D02*
X96600000Y-50500000D01*
X96600000Y-50500000D02*
X96800000Y-50300000D01*
X80550000Y-50275000D02*
X85350000Y-50275000D01*
X85350000Y-50275000D02*
X85425000Y-50350000D01*
X80550000Y-50275000D02*
X80550000Y-52325000D01*
X80675000Y-48175000D02*
X80675000Y-50150000D01*
X80675000Y-50150000D02*
X80550000Y-50275000D01*
X80675000Y-46050000D02*
X80675000Y-48175000D01*
X88750000Y-31800000D02*
X88750000Y-29885000D01*
X88750000Y-29885000D02*
X88165000Y-29300000D01*
X88165000Y-29300000D02*
X88165000Y-27385000D01*
X88165000Y-27385000D02*
X88450000Y-27100000D01*
X96250000Y-52000000D02*
X96250000Y-53915000D01*
X96250000Y-53915000D02*
X95965000Y-54200000D01*
X103200000Y-41100000D02*
X103540000Y-40760000D01*
X103540000Y-40760000D02*
X106675000Y-40760000D01*
X103200000Y-49200000D02*
X103200000Y-41100000D01*
X102400000Y-50000000D02*
X103200000Y-49200000D01*
X97100000Y-50000000D02*
X102400000Y-50000000D01*
X96250000Y-52000000D02*
X96250000Y-50850000D01*
X43100000Y-21000000D02*
X43100000Y-18875000D01*
X43100000Y-18875000D02*
X42450000Y-18225000D01*
X43100000Y-21000000D02*
X43100000Y-21250000D01*
X43100000Y-21250000D02*
X43615000Y-21765000D01*
X43615000Y-21765000D02*
X43615000Y-24940000D01*
X43615000Y-24940000D02*
X42660000Y-25895000D01*
X42660000Y-25895000D02*
X42660000Y-26050000D01*
D44*
X43900000Y-28925000D02*
X43900000Y-29400000D01*
D45*
X43900000Y-28400000D02*
X43900000Y-28925000D01*
X42660000Y-26050000D02*
X42660000Y-27160000D01*
X42660000Y-27160000D02*
X43900000Y-28400000D01*
D44*
X42350000Y-29750000D02*
X42500000Y-29900000D01*
X42500000Y-29900000D02*
X43900000Y-29900000D01*
D45*
X41754999Y-29154999D02*
X42350000Y-29750000D01*
X42275000Y-23850000D02*
X42150000Y-23850000D01*
X42150000Y-23850000D02*
X41754999Y-24245001D01*
X41754999Y-24245001D02*
X41754999Y-29154999D01*
D44*
X43900000Y-30900000D02*
X42864998Y-30900000D01*
X42864998Y-30900000D02*
X42774999Y-30810001D01*
X42774999Y-30810001D02*
X42774999Y-29975001D01*
X42774999Y-29975001D02*
X42850000Y-29900000D01*
X42850000Y-29900000D02*
X43900000Y-29900000D01*
X43900000Y-31400000D02*
X43900000Y-30900000D01*
X48425000Y-34675000D02*
X47425000Y-34675000D01*
X47425000Y-34675000D02*
X46150000Y-33400000D01*
X46150000Y-33400000D02*
X44950000Y-33400000D01*
X44950000Y-33400000D02*
X43900000Y-33400000D01*
D43*
X108650000Y-9575000D02*
X114000000Y-4225000D01*
X114000000Y-4225000D02*
X116324280Y-4225000D01*
X107650000Y-9575000D02*
X108650000Y-9575000D01*
X105725000Y-11500000D02*
X107650000Y-9575000D01*
D46*
X105174999Y-12050001D02*
X105725000Y-11500000D01*
X103975000Y-12550000D02*
X104474999Y-12050001D01*
X104474999Y-12050001D02*
X105174999Y-12050001D01*
D43*
X122725000Y-33050000D02*
X118900020Y-36874980D01*
X118900020Y-36874980D02*
X118900020Y-46825000D01*
D47*
X122725000Y-33050000D02*
X122725000Y-31975000D01*
X122725000Y-31975000D02*
X128760000Y-25940000D01*
X130700000Y-24000000D02*
X128760000Y-25940000D01*
X128760000Y-25940000D02*
X128760000Y-32455000D01*
D46*
X131700000Y-23000000D02*
X130700000Y-24000000D01*
X96500000Y-12025000D02*
X96650001Y-12175001D01*
X96650001Y-12175001D02*
X103600001Y-12175001D01*
X103600001Y-12175001D02*
X103975000Y-12550000D01*
D45*
X90050000Y-3375000D02*
X93900000Y-7225000D01*
X71700000Y-3375000D02*
X90050000Y-3375000D01*
X54550000Y-15450000D02*
X61325000Y-8675000D01*
X42625000Y-15450000D02*
X54550000Y-15450000D01*
X39750000Y-18225000D02*
X39850000Y-18225000D01*
X39850000Y-18225000D02*
X42625000Y-15450000D01*
X94000000Y-12785000D02*
X95740000Y-12785000D01*
X95740000Y-12785000D02*
X96500000Y-12025000D01*
X91825000Y-12500000D02*
X93715000Y-12500000D01*
X93715000Y-12500000D02*
X94000000Y-12785000D01*
X19549999Y-16849999D02*
X31575000Y-16849999D01*
X31575000Y-16849999D02*
X37124999Y-16849999D01*
X31900000Y-10850000D02*
X32495001Y-11445001D01*
X32495001Y-11445001D02*
X32495001Y-15929998D01*
X32495001Y-15929998D02*
X31575000Y-16849999D01*
X31625000Y-8025000D02*
X31625000Y-10575000D01*
X31625000Y-10575000D02*
X31900000Y-10850000D01*
X16275000Y-13675000D02*
X16375000Y-13675000D01*
X16375000Y-13675000D02*
X19549999Y-16849999D01*
X37124999Y-16849999D02*
X38500000Y-18225000D01*
X38500000Y-18225000D02*
X39750000Y-18225000D01*
D46*
X12800000Y-18050000D02*
X12800000Y-17150000D01*
X12800000Y-17150000D02*
X16275000Y-13675000D01*
D45*
X12800000Y-18050000D02*
X12900000Y-18050000D01*
X8900000Y-19200000D02*
X11650000Y-19200000D01*
X11650000Y-19200000D02*
X12800000Y-18050000D01*
X84400000Y-35385000D02*
X86390000Y-35385000D01*
X86390000Y-35385000D02*
X86675000Y-35100000D01*
D44*
X81400000Y-35475000D02*
X81400000Y-35462178D01*
X81400000Y-35462178D02*
X83412178Y-33450000D01*
X83412178Y-33450000D02*
X83412178Y-33437822D01*
X83412178Y-33437822D02*
X84400000Y-32450000D01*
X84400000Y-32450000D02*
X84400000Y-32115000D01*
D45*
X86675000Y-32400000D02*
X87525000Y-33250000D01*
X87525000Y-33250000D02*
X89750000Y-33250000D01*
X90650000Y-32350000D02*
X90650000Y-31800000D01*
X89750000Y-33250000D02*
X90650000Y-32350000D01*
X91435000Y-29300000D02*
X91435000Y-27385000D01*
X91435000Y-27385000D02*
X91150000Y-27100000D01*
X90650000Y-31800000D02*
X90650000Y-30085000D01*
X90650000Y-30085000D02*
X91435000Y-29300000D01*
X62325000Y-46425000D02*
X66197718Y-46425000D01*
X66197718Y-46425000D02*
X66389585Y-46233133D01*
D44*
X70700000Y-43500000D02*
X70700000Y-44500000D01*
X70700000Y-44500000D02*
X70525011Y-44674989D01*
X70525011Y-44674989D02*
X67847729Y-44674989D01*
X67847729Y-44674989D02*
X66389585Y-46133133D01*
X66389585Y-46133133D02*
X66389585Y-46233133D01*
D45*
X77975000Y-46050000D02*
X77875000Y-46050000D01*
X77875000Y-46050000D02*
X74075000Y-42250000D01*
X74075000Y-42250000D02*
X71850000Y-42250000D01*
X71850000Y-42250000D02*
X70700000Y-43400000D01*
X70700000Y-43400000D02*
X70700000Y-43500000D01*
X78050000Y-50275000D02*
X79050000Y-50275000D01*
X79050000Y-50275000D02*
X79225000Y-50100000D01*
X79225000Y-50100000D02*
X79225000Y-47200000D01*
X79225000Y-47200000D02*
X78075000Y-46050000D01*
X78075000Y-46050000D02*
X77975000Y-46050000D01*
X62325000Y-48525000D02*
X65936814Y-48525000D01*
X65936814Y-48525000D02*
X66686814Y-47775000D01*
X66686814Y-47775000D02*
X67097718Y-47775000D01*
D44*
X68564585Y-46208133D02*
X68564585Y-46108133D01*
X68564585Y-46108133D02*
X69547719Y-45124999D01*
X71300001Y-45124999D02*
X72825000Y-43600000D01*
X69547719Y-45124999D02*
X71300001Y-45124999D01*
X72825000Y-43600000D02*
X72825000Y-43500000D01*
D45*
X77975000Y-48175000D02*
X77875000Y-48175000D01*
X77875000Y-48175000D02*
X73200000Y-43500000D01*
X73200000Y-43500000D02*
X72825000Y-43500000D01*
X78050000Y-52325000D02*
X76725000Y-51000000D01*
X76725000Y-51000000D02*
X76725000Y-49325000D01*
X76725000Y-49325000D02*
X77875000Y-48175000D01*
X67097718Y-47775000D02*
X68564585Y-46308133D01*
X68564585Y-46308133D02*
X68564585Y-46208133D01*
D44*
X77880140Y-28700000D02*
X75275000Y-28700000D01*
X75275000Y-28700000D02*
X74575000Y-29400000D01*
D45*
X91825000Y-9800000D02*
X89800000Y-9800000D01*
X89800000Y-9800000D02*
X89750000Y-9850000D01*
X94000000Y-9515000D02*
X92110000Y-9515000D01*
X92110000Y-9515000D02*
X91825000Y-9800000D01*
X96500000Y-10125000D02*
X94610000Y-10125000D01*
X94610000Y-10125000D02*
X94000000Y-9515000D01*
D44*
X74375000Y-27950000D02*
X74075000Y-28250000D01*
X74075000Y-28250000D02*
X74075000Y-29400000D01*
X76225000Y-27950000D02*
X74375000Y-27950000D01*
X76600000Y-27575000D02*
X76225000Y-27950000D01*
X76600000Y-26206310D02*
X76600000Y-27575000D01*
X77905140Y-25950000D02*
X76856310Y-25950000D01*
X76856310Y-25950000D02*
X76600000Y-26206310D01*
X76149991Y-27300009D02*
X75950010Y-27499990D01*
X75950010Y-27499990D02*
X74188599Y-27499991D01*
X74188599Y-27499991D02*
X73599999Y-28088591D01*
X73599999Y-28088591D02*
X73599999Y-29375001D01*
X73599999Y-29375001D02*
X73575000Y-29400000D01*
X76149991Y-23931319D02*
X76149991Y-27300009D01*
X77905140Y-23225000D02*
X76856310Y-23225000D01*
X76856310Y-23225000D02*
X76149991Y-23931319D01*
X77880140Y-20550000D02*
X76831310Y-20550000D01*
X76831310Y-20550000D02*
X75699981Y-21681329D01*
X75699981Y-21681329D02*
X75699981Y-26700019D01*
X75699981Y-26700019D02*
X75400000Y-27000000D01*
X75400000Y-27000000D02*
X74052180Y-27000000D01*
X74052180Y-27000000D02*
X73075000Y-27977180D01*
X73075000Y-27977180D02*
X73075000Y-28350000D01*
X73075000Y-28350000D02*
X73075000Y-29400000D01*
X75249971Y-26275029D02*
X74975010Y-26549990D01*
X74975010Y-26549990D02*
X73865779Y-26549991D01*
X73865779Y-26549991D02*
X72550001Y-27865769D01*
X72550001Y-27865769D02*
X72550001Y-29375001D01*
X72550001Y-29375001D02*
X72575000Y-29400000D01*
X75249971Y-19506339D02*
X75249971Y-26275029D01*
X77880140Y-17925000D02*
X76831310Y-17925000D01*
X76831310Y-17925000D02*
X75249971Y-19506339D01*
D46*
X21440000Y-10700000D02*
X21440000Y-8735000D01*
X21440000Y-8735000D02*
X21725000Y-8450000D01*
X24500000Y-12725000D02*
X23465000Y-12725000D01*
X23465000Y-12725000D02*
X21440000Y-10700000D01*
D45*
X99235000Y-56400000D02*
X99235000Y-58315000D01*
X99235000Y-58315000D02*
X98950000Y-58600000D01*
X99235000Y-54200000D02*
X99235000Y-56400000D01*
X98950000Y-52000000D02*
X98950000Y-53915000D01*
X98950000Y-53915000D02*
X99235000Y-54200000D01*
X103000000Y-52000000D02*
X106675000Y-48325000D01*
X106675000Y-48325000D02*
X106675000Y-45840000D01*
X98950000Y-52000000D02*
X103000000Y-52000000D01*
X96250000Y-58600000D02*
X96250000Y-60750000D01*
X96250000Y-60750000D02*
X96300000Y-60800000D01*
X95965000Y-56400000D02*
X95965000Y-58315000D01*
X95965000Y-58315000D02*
X96250000Y-58600000D01*
X8900000Y-21700000D02*
X12750000Y-21700000D01*
X12750000Y-21700000D02*
X12800000Y-21650000D01*
X12800000Y-21650000D02*
X12800000Y-20500000D01*
X8900000Y-24200000D02*
X12750000Y-24200000D01*
X12750000Y-24200000D02*
X12800000Y-24150000D01*
X12800000Y-24150000D02*
X12800000Y-23000000D01*
X8900000Y-26700000D02*
X12750000Y-26700000D01*
X12800000Y-26650000D02*
X12800000Y-25500000D01*
X12750000Y-26700000D02*
X12800000Y-26650000D01*
X8900000Y-29200000D02*
X12750000Y-29200000D01*
X12750000Y-29200000D02*
X12800000Y-29150000D01*
X12800000Y-29150000D02*
X12800000Y-28000000D01*
D44*
X20350000Y-34225000D02*
X14075000Y-34225000D01*
X14075000Y-34225000D02*
X12900000Y-33050000D01*
X12900000Y-33050000D02*
X12800000Y-33050000D01*
D45*
X8900000Y-31700000D02*
X12600000Y-31700000D01*
X12600000Y-31700000D02*
X12800000Y-31900000D01*
X12800000Y-31900000D02*
X12800000Y-33050000D01*
X8900000Y-31700000D02*
X12750000Y-31700000D01*
X12750000Y-31700000D02*
X12800000Y-31650000D01*
X12800000Y-31650000D02*
X12800000Y-30500000D01*
X8900000Y-34200000D02*
X12550000Y-34200000D01*
X12550000Y-34200000D02*
X12800000Y-34450000D01*
X12800000Y-34450000D02*
X12800000Y-35600000D01*
X8900000Y-36700000D02*
X11250000Y-36700000D01*
X11250000Y-36700000D02*
X12700000Y-38150000D01*
X12700000Y-38150000D02*
X12800000Y-38150000D01*
X8900000Y-39200000D02*
X11350000Y-39200000D01*
X11350000Y-39200000D02*
X12800000Y-40650000D01*
X8900000Y-41700000D02*
X11300000Y-41700000D01*
X11300000Y-41700000D02*
X12800000Y-43200000D01*
X64600000Y-55500000D02*
X64600000Y-52475000D01*
X68100000Y-55500000D02*
X68100000Y-52525000D01*
X71600000Y-55500000D02*
X71600000Y-52550000D01*
X71600000Y-52550000D02*
X71625000Y-52525000D01*
X75100000Y-55500000D02*
X75100000Y-52550000D01*
X41950000Y-44600000D02*
X54075000Y-44600000D01*
X54075000Y-44600000D02*
X58725000Y-39950000D01*
X41950000Y-38850000D02*
X41950000Y-44600000D01*
X41950000Y-44600000D02*
X34675001Y-51874999D01*
X34675001Y-51874999D02*
X32525001Y-51874999D01*
D44*
X43900000Y-33900000D02*
X42850000Y-33900000D01*
X42850000Y-33900000D02*
X41625000Y-35125000D01*
X41625000Y-35125000D02*
X41625000Y-37275000D01*
D45*
X31325000Y-53075000D02*
X32525001Y-51874999D01*
X32525001Y-51874999D02*
X37399999Y-51874999D01*
X37399999Y-51874999D02*
X44175000Y-58650000D01*
X44175000Y-58650000D02*
X44175000Y-60000000D01*
X59800000Y-25800000D02*
X59800000Y-26750000D01*
X59800000Y-25800000D02*
X59800000Y-22550000D01*
X71800000Y-10550000D02*
X82450000Y-10550000D01*
X82450000Y-10550000D02*
X85000000Y-8000000D01*
X59800000Y-22550000D02*
X71800000Y-10550000D01*
D44*
X55250000Y-24675000D02*
X68200000Y-11725000D01*
X68200000Y-11725000D02*
X69775000Y-11725000D01*
X69775000Y-11725000D02*
X73500000Y-8000000D01*
X50375000Y-24975000D02*
X50850000Y-24975000D01*
X43900000Y-30400000D02*
X44950000Y-30400000D01*
X44950000Y-30400000D02*
X50375000Y-24975000D01*
D45*
X62100000Y-2425000D02*
X67925000Y-2425000D01*
X67925000Y-2425000D02*
X73500000Y-8000000D01*
D44*
X77575000Y-32050000D02*
X77850000Y-32050000D01*
X77850000Y-32050000D02*
X78525000Y-32725000D01*
X82350000Y-32475000D02*
X81650000Y-32475000D01*
D45*
X78775000Y-32475000D02*
X78525000Y-32725000D01*
D46*
X89700000Y-39350000D02*
X89700000Y-34800000D01*
D45*
X99425000Y-7975000D02*
X99425000Y-11000000D01*
X99425000Y-11000000D02*
X99500000Y-11075000D01*
D44*
X78414998Y-37300000D02*
X78975000Y-37300000D01*
X83725000Y-37275000D02*
X83725000Y-36850736D01*
X83725000Y-36850736D02*
X83375000Y-36500736D01*
X83375000Y-36500736D02*
X83375000Y-34759998D01*
X83634998Y-34500000D02*
X85275000Y-34500000D01*
X83375000Y-34759998D02*
X83634998Y-34500000D01*
X85275000Y-34500000D02*
X85699999Y-34075001D01*
X91975000Y-18636410D02*
X91975000Y-16500000D01*
X85699999Y-34075001D02*
X85699999Y-24911411D01*
X85699999Y-24911411D02*
X91975000Y-18636410D01*
D45*
X91975000Y-16500000D02*
X92800000Y-16500000D01*
X92800000Y-16500000D02*
X94400000Y-14900000D01*
D44*
X77025000Y-34300000D02*
X77025000Y-35910002D01*
X77025000Y-35910002D02*
X78414998Y-37300000D01*
X76650000Y-33925000D02*
X77025000Y-34300000D01*
X75800000Y-33075000D02*
X76650000Y-33925000D01*
X73950000Y-33075000D02*
X75800000Y-33075000D01*
X73075000Y-35000000D02*
X73075000Y-33950000D01*
X73075000Y-33950000D02*
X73950000Y-33075000D01*
D45*
X89750000Y-12550000D02*
X89750000Y-14775000D01*
X89750000Y-14775000D02*
X88975000Y-15550000D01*
D48*
X97450000Y-31760000D02*
X97450000Y-43225000D01*
X97450000Y-43225000D02*
X97525000Y-43300000D01*
X89700000Y-47250000D02*
X93575000Y-47250000D01*
X93575000Y-47250000D02*
X97525000Y-43300000D01*
D45*
X96250000Y-23000000D02*
X94050000Y-23000000D01*
X96250000Y-23000000D02*
X96250000Y-24150000D01*
X96250000Y-24150000D02*
X97100000Y-25000000D01*
X97100000Y-25000000D02*
X102200000Y-25000000D01*
X102200000Y-25000000D02*
X103100000Y-25900000D01*
X103100000Y-25900000D02*
X103100000Y-33600000D01*
X103100000Y-33600000D02*
X103800000Y-34300000D01*
X103800000Y-34300000D02*
X106600000Y-34300000D01*
D46*
X18975000Y-13675000D02*
X21500000Y-13675000D01*
D44*
X46300000Y-36725000D02*
X45475000Y-35900000D01*
X45475000Y-35900000D02*
X43900000Y-35900000D01*
X48961410Y-42325000D02*
X46875000Y-40238590D01*
X46875000Y-40238590D02*
X46875000Y-38450000D01*
X50275000Y-42975000D02*
X49625000Y-42325000D01*
X49625000Y-42325000D02*
X48961410Y-42325000D01*
X63338599Y-58650009D02*
X52213590Y-47525000D01*
X52213590Y-47525000D02*
X51925000Y-47525000D01*
X83861400Y-58650010D02*
X63338599Y-58650009D01*
X91850000Y-55900000D02*
X86611410Y-55900000D01*
X86611410Y-55900000D02*
X83861400Y-58650010D01*
D45*
X94750000Y-62300000D02*
X97400000Y-62300000D01*
X97400000Y-62300000D02*
X98900000Y-60800000D01*
X98900000Y-60800000D02*
X99000000Y-60800000D01*
X92800000Y-58900000D02*
X92800000Y-60350000D01*
X92800000Y-60350000D02*
X94750000Y-62300000D01*
D44*
X69475000Y-48500000D02*
X70700000Y-47275000D01*
X70700000Y-47275000D02*
X70700000Y-46200000D01*
X66775000Y-48500000D02*
X69475000Y-48500000D01*
X64600000Y-49775000D02*
X65500000Y-49775000D01*
X65500000Y-49775000D02*
X66775000Y-48500000D01*
X68100000Y-49825000D02*
X69300000Y-49825000D01*
X69300000Y-49825000D02*
X72825000Y-46300000D01*
X72825000Y-46300000D02*
X72825000Y-46200000D01*
X57675000Y-36750000D02*
X57775000Y-36750000D01*
X57775000Y-36750000D02*
X59875000Y-34650000D01*
X59875000Y-34650000D02*
X60375000Y-34650000D01*
X52450000Y-36375000D02*
X52825000Y-36750000D01*
X52825000Y-36750000D02*
X57675000Y-36750000D01*
X43900000Y-34900000D02*
X45325000Y-34900000D01*
X45325000Y-34900000D02*
X45450000Y-35025000D01*
X77525000Y-33475000D02*
X77525000Y-34325000D01*
X77525000Y-34325000D02*
X78525000Y-35325000D01*
X78525000Y-35325000D02*
X78525000Y-35425000D01*
X76175000Y-32125000D02*
X77525000Y-33475000D01*
X70825000Y-32125000D02*
X76175000Y-32125000D01*
X69599999Y-33350001D02*
X70825000Y-32125000D01*
X69575000Y-35000000D02*
X69575000Y-34175000D01*
X69575000Y-34175000D02*
X69599999Y-34150001D01*
X69599999Y-34150001D02*
X69599999Y-33350001D01*
X53050000Y-30425000D02*
X47500000Y-30425000D01*
X47500000Y-30425000D02*
X47475000Y-30400000D01*
X57650000Y-30475000D02*
X56400000Y-30475000D01*
X57650000Y-30475000D02*
X57750000Y-30475000D01*
X57750000Y-30475000D02*
X59850000Y-32575000D01*
X59850000Y-32575000D02*
X60375000Y-32575000D01*
X43900000Y-34400000D02*
X45175000Y-34400000D01*
X45175000Y-34400000D02*
X45400000Y-34175000D01*
X57575000Y-30400000D02*
X57650000Y-30475000D01*
X68225000Y-32850000D02*
X68575000Y-33200000D01*
X68575000Y-33200000D02*
X68575000Y-35000000D01*
X66150000Y-32850000D02*
X68225000Y-32850000D01*
X62250000Y-36750000D02*
X66150000Y-32850000D01*
X60375000Y-36750000D02*
X62250000Y-36750000D01*
X62675000Y-30475000D02*
X64599990Y-32399990D01*
X64599990Y-32399990D02*
X68411401Y-32399991D01*
X68411401Y-32399991D02*
X69050001Y-33038591D01*
X69050001Y-33038591D02*
X69050001Y-34975001D01*
X69050001Y-34975001D02*
X69075000Y-35000000D01*
X60350000Y-30475000D02*
X62675000Y-30475000D01*
X64775000Y-36275000D02*
X69885000Y-36275000D01*
X69885000Y-36275000D02*
X70075000Y-36085000D01*
X70075000Y-36085000D02*
X70075000Y-36050000D01*
X70075000Y-36050000D02*
X70075000Y-35000000D01*
X63150000Y-37900000D02*
X64775000Y-36275000D01*
X63150000Y-41100000D02*
X63150000Y-37900000D01*
X53275000Y-45650000D02*
X53925000Y-45650000D01*
X53925000Y-45650000D02*
X57350000Y-42225000D01*
X64225001Y-38024999D02*
X65450000Y-36800000D01*
X57350000Y-42225000D02*
X64010002Y-42225000D01*
X64010002Y-42225000D02*
X64225001Y-42010001D01*
X64225001Y-42010001D02*
X64225001Y-38024999D01*
X65450000Y-36800000D02*
X70325000Y-36800000D01*
X70325000Y-36800000D02*
X71075000Y-36050000D01*
X71075000Y-36050000D02*
X71075000Y-35000000D01*
X51775000Y-48475000D02*
X51775000Y-50000000D01*
X51775000Y-50000000D02*
X51375000Y-50400000D01*
X52800000Y-50400000D02*
X52800000Y-51200000D01*
X52800000Y-51200000D02*
X51475000Y-52525000D01*
X51475000Y-52525000D02*
X51375000Y-52525000D01*
X57536400Y-42675010D02*
X53729442Y-46481968D01*
X53729442Y-46481968D02*
X53729442Y-46729442D01*
X64196402Y-42675010D02*
X57536400Y-42675010D01*
X65636400Y-37250010D02*
X64675011Y-38211399D01*
X64675011Y-38211399D02*
X64675010Y-42196402D01*
X64675010Y-42196402D02*
X64196402Y-42675010D01*
X70511400Y-37250010D02*
X65636400Y-37250010D01*
X71575000Y-35000000D02*
X71575000Y-36186410D01*
X71575000Y-36186410D02*
X70511400Y-37250010D01*
X66475000Y-21175000D02*
X67775000Y-19875000D01*
X67775000Y-19875000D02*
X67775000Y-19000000D01*
X68575000Y-29400000D02*
X68575000Y-26755001D01*
X68575000Y-26755001D02*
X66467831Y-24647832D01*
X66467831Y-24647832D02*
X66467831Y-23767831D01*
X53850000Y-51725000D02*
X52800000Y-52775000D01*
X52800000Y-52775000D02*
X52800000Y-54800000D01*
X54354443Y-47420557D02*
X54375000Y-47441114D01*
X54375000Y-47441114D02*
X54375000Y-47900000D01*
X57647820Y-43200000D02*
X54354443Y-46493377D01*
X54354443Y-46493377D02*
X54354443Y-47420557D01*
X64307822Y-43200000D02*
X57647820Y-43200000D01*
X65874980Y-37700020D02*
X65125020Y-38449980D01*
X65125020Y-38449980D02*
X65125019Y-42382803D01*
X65125019Y-42382803D02*
X64307822Y-43200000D01*
X70697800Y-37700020D02*
X65874980Y-37700020D01*
X72075000Y-35000000D02*
X72075000Y-36322820D01*
X72075000Y-36322820D02*
X70697800Y-37700020D01*
X78075000Y-40700000D02*
X74575000Y-37200000D01*
X74575000Y-37200000D02*
X74575000Y-35000000D01*
X79285002Y-40700000D02*
X78075000Y-40700000D01*
X83875000Y-41075000D02*
X83875000Y-41260002D01*
X83875000Y-41260002D02*
X82235001Y-42900001D01*
X82235001Y-42900001D02*
X80214999Y-42900001D01*
X79600001Y-42285003D02*
X79600001Y-41014999D01*
X80214999Y-42900001D02*
X79600001Y-42285003D01*
X79600001Y-41014999D02*
X79285002Y-40700000D01*
X73200001Y-26249999D02*
X72075000Y-27375000D01*
X72075000Y-27375000D02*
X72075000Y-29400000D01*
X72925000Y-18675000D02*
X72925000Y-19675000D01*
X72925000Y-19675000D02*
X73200001Y-19950001D01*
X73200001Y-19950001D02*
X73200001Y-26249999D01*
X68825000Y-41800000D02*
X72575000Y-38050000D01*
X72575000Y-38050000D02*
X72575000Y-35000000D01*
X67122718Y-41800000D02*
X68825000Y-41800000D01*
X66389585Y-43533133D02*
X66389585Y-42533133D01*
X66389585Y-42533133D02*
X67122718Y-41800000D01*
X68564585Y-43508133D02*
X68564585Y-43408133D01*
X68564585Y-43408133D02*
X73575000Y-38397718D01*
X73575000Y-38397718D02*
X73575000Y-36050000D01*
X73575000Y-36050000D02*
X73575000Y-35000000D01*
X65140001Y-24035000D02*
X65140001Y-24935000D01*
X65140001Y-24935000D02*
X67575000Y-27369999D01*
X67575000Y-27369999D02*
X67575000Y-28350000D01*
X67575000Y-28350000D02*
X67575000Y-29400000D01*
D45*
X67825000Y-21950000D02*
X67225001Y-21950000D01*
X67225001Y-21950000D02*
X65140001Y-24035000D01*
D44*
X72225000Y-24100000D02*
X72225000Y-25100000D01*
X72225000Y-25100000D02*
X70575000Y-26750000D01*
X70575000Y-26750000D02*
X70575000Y-28350000D01*
X70575000Y-28350000D02*
X70575000Y-29400000D01*
X75725000Y-35500000D02*
X78350000Y-38125000D01*
X78350000Y-38125000D02*
X79000000Y-38125000D01*
X73125000Y-13075000D02*
X73675000Y-13625000D01*
X84525000Y-30825000D02*
X84525000Y-25450000D01*
X84525000Y-25450000D02*
X86150000Y-23825000D01*
X86150000Y-23825000D02*
X86150000Y-17999264D01*
X86150000Y-17999264D02*
X83050000Y-14899264D01*
X83050000Y-14899264D02*
X83050000Y-14475000D01*
X83498588Y-34000000D02*
X83875000Y-34000000D01*
X83875000Y-34000000D02*
X84525000Y-33350000D01*
X82800000Y-35365002D02*
X82800000Y-34698588D01*
X82800000Y-34698588D02*
X83498588Y-34000000D01*
X75725000Y-35500000D02*
X75725000Y-33775000D01*
X75725000Y-33775000D02*
X74250000Y-33775000D01*
X74250000Y-33775000D02*
X74075000Y-33950000D01*
X74075000Y-33950000D02*
X74075000Y-35000000D01*
X82800000Y-35365002D02*
X82800000Y-37875000D01*
X82800000Y-37875000D02*
X82550000Y-38125000D01*
X73675000Y-13625000D02*
X81575000Y-13625000D01*
X74075000Y-35000000D02*
X74075000Y-37575000D01*
X74075000Y-37575000D02*
X78425000Y-41925000D01*
X78425000Y-41925000D02*
X78525000Y-41925000D01*
X49300000Y-5000000D02*
X59350000Y-5000000D01*
X59350000Y-5000000D02*
X65425000Y-11075000D01*
X86125000Y-49650000D02*
X86125000Y-55600000D01*
X86125000Y-55600000D02*
X86200000Y-55675000D01*
X45050000Y-36525000D02*
X45050000Y-36500000D01*
X45050000Y-36500000D02*
X44950000Y-36400000D01*
X44950000Y-36400000D02*
X43900000Y-36400000D01*
X45350000Y-36825000D02*
X45050000Y-36525000D01*
X48800001Y-42800001D02*
X46200000Y-40200000D01*
X46200000Y-40200000D02*
X46200000Y-39075000D01*
X49200000Y-43100000D02*
X48900001Y-42800001D01*
X48900001Y-42800001D02*
X48800001Y-42800001D01*
X63525000Y-58200000D02*
X51075000Y-45750000D01*
X83675000Y-58200000D02*
X63525000Y-58200000D01*
X86200000Y-55675000D02*
X83675000Y-58200000D01*
X91350000Y-23000000D02*
X89400000Y-23000000D01*
X89400000Y-23000000D02*
X88200000Y-24200000D01*
D45*
X36325000Y-53075000D02*
X33825000Y-55575000D01*
X33825000Y-55575000D02*
X28800000Y-55575000D01*
X28800000Y-55575000D02*
X25625000Y-52400000D01*
X25625000Y-52400000D02*
X24375000Y-52400000D01*
X136300000Y-45870000D02*
X136300000Y-46870000D01*
X136300000Y-44870000D02*
X136300000Y-45870000D01*
X136300000Y-43870000D02*
X136300000Y-44870000D01*
X136300000Y-42880000D02*
X136300000Y-43870000D01*
X136300000Y-42100000D02*
X136300000Y-42880000D01*
X136300000Y-41100000D02*
X136300000Y-42100000D01*
X136300000Y-40100000D02*
X136300000Y-41100000D01*
X135300000Y-40100000D02*
X136300000Y-40100000D01*
X135300000Y-41100000D02*
X135300000Y-40100000D01*
X135300000Y-42100000D02*
X135300000Y-41100000D01*
X135300000Y-42880000D02*
X135300000Y-42100000D01*
X135300000Y-43870000D02*
X135300000Y-42880000D01*
X135300000Y-44870000D02*
X135300000Y-43870000D01*
X135300000Y-45870000D02*
X135300000Y-44870000D01*
X135300000Y-46870000D02*
X135300000Y-45870000D01*
X134300000Y-46870000D02*
X135300000Y-46870000D01*
X134300000Y-45870000D02*
X134300000Y-46870000D01*
X134300000Y-44870000D02*
X134300000Y-45870000D01*
X134300000Y-43870000D02*
X134300000Y-44870000D01*
X134300000Y-42880000D02*
X134300000Y-43870000D01*
X134300000Y-42100000D02*
X134300000Y-42880000D01*
X134300000Y-41100000D02*
X134300000Y-42100000D01*
X134300000Y-40100000D02*
X134300000Y-41100000D01*
X133300000Y-40100000D02*
X134300000Y-40100000D01*
X133300000Y-41100000D02*
X133300000Y-40100000D01*
X133300000Y-42100000D02*
X133300000Y-41100000D01*
X133300000Y-42880000D02*
X133300000Y-42100000D01*
X133300000Y-43870000D02*
X133300000Y-42880000D01*
X133300000Y-44870000D02*
X133300000Y-43870000D01*
X133300000Y-45870000D02*
X133300000Y-44870000D01*
X133300000Y-46870000D02*
X133300000Y-45870000D01*
X132300000Y-46870000D02*
X133300000Y-46870000D01*
X132300000Y-45870000D02*
X132300000Y-46870000D01*
X132300000Y-44870000D02*
X132300000Y-45870000D01*
X132300000Y-43870000D02*
X132300000Y-44870000D01*
X132300000Y-42880000D02*
X132300000Y-43870000D01*
X132300000Y-42100000D02*
X132300000Y-42880000D01*
X132300000Y-41100000D02*
X132300000Y-42100000D01*
X132300000Y-40100000D02*
X132300000Y-41100000D01*
X131300000Y-40100000D02*
X132300000Y-40100000D01*
X131300000Y-41100000D02*
X131300000Y-40100000D01*
X131300000Y-42100000D02*
X131300000Y-41100000D01*
X131300000Y-42880000D02*
X131300000Y-42100000D01*
X131300000Y-42880000D02*
X131300000Y-43870000D01*
X131300000Y-44870000D02*
X131300000Y-43870000D01*
X131300000Y-45870000D02*
X131300000Y-44870000D01*
X131300000Y-46870000D02*
X131300000Y-45870000D01*
X130300000Y-46870000D02*
X131300000Y-46870000D01*
X130300000Y-45870000D02*
X130300000Y-46870000D01*
X130300000Y-44870000D02*
X130300000Y-45870000D01*
X130300000Y-43870000D02*
X130300000Y-44870000D01*
X130300000Y-42880000D02*
X130300000Y-43870000D01*
X130300000Y-42100000D02*
X130300000Y-42880000D01*
X130300000Y-41100000D02*
X130300000Y-42100000D01*
X130300000Y-40100000D02*
X130300000Y-41100000D01*
X129300000Y-40100000D02*
X130300000Y-40100000D01*
X129300000Y-41100000D02*
X129300000Y-40100000D01*
X129300000Y-42100000D02*
X129300000Y-41100000D01*
X129300000Y-42880000D02*
X129300000Y-42100000D01*
X129300000Y-43870000D02*
X129300000Y-42880000D01*
X129300000Y-44870000D02*
X129300000Y-43870000D01*
X129300000Y-45870000D02*
X129300000Y-44870000D01*
X129300000Y-46870000D02*
X129300000Y-45870000D01*
X128300000Y-46870000D02*
X129300000Y-46870000D01*
X128300000Y-45870000D02*
X128300000Y-46870000D01*
X128300000Y-44870000D02*
X128300000Y-45870000D01*
X128300000Y-43870000D02*
X128300000Y-44870000D01*
X128300000Y-42880000D02*
X128300000Y-43870000D01*
X128300000Y-42100000D02*
X128300000Y-42880000D01*
X128300000Y-41100000D02*
X128300000Y-42100000D01*
X128300000Y-40100000D02*
X128300000Y-41100000D01*
X127300000Y-40100000D02*
X128300000Y-40100000D01*
X127300000Y-41100000D02*
X127300000Y-40100000D01*
X127300000Y-42100000D02*
X127300000Y-41100000D01*
X127300000Y-42880000D02*
X127300000Y-42100000D01*
X127300000Y-43870000D02*
X127300000Y-42880000D01*
X127300000Y-44870000D02*
X127300000Y-43870000D01*
X127300000Y-45870000D02*
X127300000Y-44870000D01*
X127300000Y-46870000D02*
X127300000Y-45870000D01*
X126300000Y-46870000D02*
X127300000Y-46870000D01*
X126300000Y-45870000D02*
X126300000Y-46870000D01*
X126300000Y-44870000D02*
X126300000Y-45870000D01*
X126300000Y-43870000D02*
X126300000Y-44870000D01*
X126300000Y-42880000D02*
X126300000Y-43870000D01*
X126300000Y-42100000D02*
X126300000Y-42880000D01*
X126300000Y-41100000D02*
X126300000Y-42100000D01*
X126300000Y-40100000D02*
X126300000Y-41100000D01*
D48*
X113200000Y-55650000D02*
X113050000Y-55500000D01*
X113050000Y-55500000D02*
X111500000Y-55500000D01*
D47*
X118300000Y-55650000D02*
X113200000Y-55650000D01*
X127300000Y-46650000D02*
X118300000Y-55650000D01*
X127300000Y-45870000D02*
X127300000Y-46650000D01*
D48*
X122725000Y-40950000D02*
X126150000Y-40950000D01*
X126150000Y-40950000D02*
X127300000Y-42100000D01*
D45*
X31800000Y-5100000D02*
X31800000Y-3525000D01*
X31800000Y-3525000D02*
X32325000Y-3000000D01*
X34600000Y-10850000D02*
X34600000Y-12690000D01*
X34600000Y-12690000D02*
X34860000Y-12950000D01*
X34625000Y-8975000D02*
X34625000Y-10825000D01*
X34625000Y-10825000D02*
X34600000Y-10850000D01*
X34500000Y-5100000D02*
X34500000Y-6950000D01*
X34500000Y-6950000D02*
X34625000Y-7075000D01*
M02*
