G04 #@! TF.FileFunction,Paste,Top*
%FSLAX46Y46*%
G04 Gerber Fmt 4.6, Leading zero omitted, Abs format (unit mm)*
G04 Created by KiCad (PCBNEW 4.0.4-stable) date Tuesday, December 27, 2016 'AMt' 12:33:23 AM*
%MOMM*%
%LPD*%
G01*
G04 APERTURE LIST*
%ADD10C,0.100000*%
%ADD11C,2.000000*%
%ADD12C,0.450000*%
%ADD13R,0.800000X1.900000*%
%ADD14R,1.000000X1.000000*%
%ADD15R,0.600000X0.800000*%
%ADD16R,1.250000X1.500000*%
%ADD17R,1.500000X1.250000*%
%ADD18R,2.000000X1.600000*%
%ADD19R,2.000000X2.500000*%
%ADD20R,2.032000X5.000000*%
%ADD21R,1.597660X1.800860*%
%ADD22R,3.500120X2.301240*%
%ADD23R,4.500880X3.299460*%
%ADD24R,4.498340X3.299460*%
%ADD25R,1.900000X0.800000*%
%ADD26R,4.600000X1.390000*%
%ADD27R,9.400000X10.800000*%
%ADD28R,1.300000X1.500000*%
%ADD29R,3.200000X2.700000*%
%ADD30R,1.500000X1.300000*%
%ADD31R,2.000000X1.700000*%
%ADD32R,1.600000X0.300000*%
%ADD33R,0.300000X1.600000*%
%ADD34R,1.220000X0.910000*%
%ADD35R,0.910000X1.220000*%
G04 APERTURE END LIST*
D10*
D11*
X125300000Y-22500000D02*
X125300000Y-18700000D01*
X123380000Y-22530000D02*
X123380000Y-18730000D01*
X116220000Y-22530000D02*
X116220000Y-18730000D01*
X114240000Y-22530000D02*
X114240000Y-18730000D01*
D12*
X136550000Y-44370000D02*
X126050000Y-44370000D01*
X136550000Y-45370000D02*
X126050000Y-45370000D01*
X136550000Y-46370000D02*
X126050000Y-46370000D01*
X136550000Y-41600000D02*
X126050000Y-41600000D01*
X136550000Y-40600000D02*
X126050000Y-40600000D01*
X136550000Y-42380000D02*
X126050000Y-42380000D01*
D13*
X82350000Y-32475000D03*
X80450000Y-32475000D03*
X81400000Y-35475000D03*
D14*
X78050000Y-52325000D03*
X80550000Y-52325000D03*
X78050000Y-50275000D03*
X80550000Y-50275000D03*
D15*
X34025000Y-3000000D03*
X32325000Y-3000000D03*
D16*
X64975000Y-29550000D03*
X64975000Y-27050000D03*
D17*
X99325000Y-3475000D03*
X96825000Y-3475000D03*
D16*
X70125000Y-21475000D03*
X70125000Y-23975000D03*
X21800000Y-20550000D03*
X21800000Y-18050000D03*
X25750000Y-23000000D03*
X25750000Y-20500000D03*
X21800000Y-25500000D03*
X21800000Y-23000000D03*
X25750000Y-28000000D03*
X25750000Y-25500000D03*
X21800000Y-30500000D03*
X21800000Y-28000000D03*
X25750000Y-32800000D03*
X25750000Y-30300000D03*
X21850000Y-35550000D03*
X21850000Y-33050000D03*
X25750000Y-38150000D03*
X25750000Y-35650000D03*
X21850000Y-40650000D03*
X21850000Y-38150000D03*
X25750000Y-43200000D03*
X25750000Y-40700000D03*
X21850000Y-45700000D03*
X21850000Y-43200000D03*
X25750000Y-48050000D03*
X25750000Y-45550000D03*
D17*
X115675000Y-11250000D03*
X113175000Y-11250000D03*
X115725000Y-15150000D03*
X113225000Y-15150000D03*
X115625000Y-9050000D03*
X113125000Y-9050000D03*
X50875000Y-39050000D03*
X48375000Y-39050000D03*
D16*
X113800000Y-31750000D03*
X113800000Y-34250000D03*
D18*
X24800000Y-6075000D03*
X20800000Y-6075000D03*
D16*
X113800000Y-37700000D03*
X113800000Y-40200000D03*
D19*
X43100000Y-21000000D03*
X39100000Y-21000000D03*
X40050000Y-40450000D03*
X44050000Y-40450000D03*
D17*
X48400000Y-32575000D03*
X50900000Y-32575000D03*
X39775000Y-23850000D03*
X42275000Y-23850000D03*
X50925000Y-34675000D03*
X48425000Y-34675000D03*
D20*
X133840000Y-32455000D03*
X128760000Y-32455000D03*
D21*
X80719860Y-28700000D03*
X77880140Y-28700000D03*
X80744860Y-25950000D03*
X77905140Y-25950000D03*
X80744860Y-23225000D03*
X77905140Y-23225000D03*
X80719860Y-20550000D03*
X77880140Y-20550000D03*
X80719860Y-17925000D03*
X77880140Y-17925000D03*
D22*
X118900020Y-46825000D03*
X113499980Y-46825000D03*
D23*
X116324280Y-4225000D03*
D24*
X107525720Y-4225000D03*
D13*
X90650000Y-31800000D03*
X88750000Y-31800000D03*
X89700000Y-34800000D03*
D25*
X96500000Y-10125000D03*
X96500000Y-12025000D03*
X99500000Y-11075000D03*
X91975000Y-16500000D03*
X91975000Y-14600000D03*
X88975000Y-15550000D03*
D26*
X106600000Y-31760000D03*
D27*
X97450000Y-31760000D03*
D26*
X106600000Y-29220000D03*
X106600000Y-34300000D03*
X106675000Y-43300000D03*
D27*
X97525000Y-43300000D03*
D26*
X106675000Y-40760000D03*
X106675000Y-45840000D03*
D25*
X24500000Y-14625000D03*
X24500000Y-12725000D03*
X21500000Y-13675000D03*
D13*
X93750000Y-55900000D03*
X91850000Y-55900000D03*
X92800000Y-58900000D03*
D28*
X64600000Y-49775000D03*
X64600000Y-52475000D03*
X68100000Y-49825000D03*
X68100000Y-52525000D03*
X71625000Y-49825000D03*
X71625000Y-52525000D03*
X75100000Y-49850000D03*
X75100000Y-52550000D03*
D29*
X122725000Y-33050000D03*
X122725000Y-40950000D03*
D30*
X57675000Y-34650000D03*
X60375000Y-34650000D03*
D28*
X78525000Y-32725000D03*
X78525000Y-35425000D03*
D29*
X89700000Y-39350000D03*
X89700000Y-47250000D03*
D30*
X57675000Y-32575000D03*
X60375000Y-32575000D03*
D28*
X86675000Y-32400000D03*
X86675000Y-35100000D03*
D30*
X57675000Y-36750000D03*
X60375000Y-36750000D03*
X57650000Y-30475000D03*
X60350000Y-30475000D03*
X91150000Y-27100000D03*
X88450000Y-27100000D03*
X60450000Y-41100000D03*
X63150000Y-41100000D03*
X48675000Y-50400000D03*
X51375000Y-50400000D03*
X48675000Y-52525000D03*
X51375000Y-52525000D03*
X70475000Y-19000000D03*
X67775000Y-19000000D03*
X50100000Y-54800000D03*
X52800000Y-54800000D03*
D28*
X83875000Y-43775000D03*
X83875000Y-41075000D03*
X72925000Y-15975000D03*
X72925000Y-18675000D03*
X66389585Y-46233133D03*
X66389585Y-43533133D03*
X68564585Y-46208133D03*
X68564585Y-43508133D03*
D30*
X59625000Y-46425000D03*
X62325000Y-46425000D03*
X77975000Y-46050000D03*
X80675000Y-46050000D03*
X59625000Y-48525000D03*
X62325000Y-48525000D03*
X99425000Y-7975000D03*
X96725000Y-7975000D03*
X99475000Y-5700000D03*
X96775000Y-5700000D03*
X77975000Y-48175000D03*
X80675000Y-48175000D03*
D28*
X70700000Y-46200000D03*
X70700000Y-43500000D03*
X72825000Y-46200000D03*
X72825000Y-43500000D03*
X91825000Y-12500000D03*
X91825000Y-9800000D03*
X89750000Y-9850000D03*
X89750000Y-12550000D03*
X94400000Y-17600000D03*
X94400000Y-14900000D03*
D30*
X65140001Y-24035000D03*
X67840001Y-24035000D03*
X65125000Y-21950000D03*
X67825000Y-21950000D03*
D28*
X72225000Y-21400000D03*
X72225000Y-24100000D03*
D30*
X81225000Y-41925000D03*
X78525000Y-41925000D03*
X12800000Y-18050000D03*
X15500000Y-18050000D03*
X12800000Y-20500000D03*
X15500000Y-20500000D03*
X12800000Y-23000000D03*
X15500000Y-23000000D03*
X12800000Y-25500000D03*
X15500000Y-25500000D03*
X12800000Y-28000000D03*
X15500000Y-28000000D03*
X12800000Y-30500000D03*
X15500000Y-30500000D03*
X12800000Y-33050000D03*
X15500000Y-33050000D03*
X12800000Y-35600000D03*
X15500000Y-35600000D03*
X12800000Y-38150000D03*
X15500000Y-38150000D03*
X12800000Y-40650000D03*
X15500000Y-40650000D03*
X12800000Y-43200000D03*
X15500000Y-43200000D03*
X12800000Y-45700000D03*
X15500000Y-45700000D03*
X117975000Y-15150000D03*
X120675000Y-15150000D03*
X110975000Y-15150000D03*
X108275000Y-15150000D03*
X48275000Y-36875000D03*
X50975000Y-36875000D03*
X96250000Y-23000000D03*
X98950000Y-23000000D03*
X21725000Y-8450000D03*
X24425000Y-8450000D03*
X91350000Y-23000000D03*
X94050000Y-23000000D03*
X16275000Y-13675000D03*
X18975000Y-13675000D03*
X99000000Y-60800000D03*
X96300000Y-60800000D03*
X96250000Y-58600000D03*
X98950000Y-58600000D03*
X98950000Y-52000000D03*
X96250000Y-52000000D03*
X39750000Y-18225000D03*
X42450000Y-18225000D03*
X21675000Y-52400000D03*
X24375000Y-52400000D03*
D28*
X37450000Y-39050000D03*
X37450000Y-41750000D03*
D31*
X44175000Y-60000000D03*
X48175000Y-60000000D03*
X62100000Y-2425000D03*
X58100000Y-2425000D03*
D32*
X43900000Y-36400000D03*
X43900000Y-35900000D03*
X43900000Y-35400000D03*
X43900000Y-34900000D03*
X43900000Y-34400000D03*
X43900000Y-33900000D03*
X43900000Y-33400000D03*
X43900000Y-32900000D03*
X43900000Y-32400000D03*
X43900000Y-31900000D03*
X43900000Y-31400000D03*
X43900000Y-30900000D03*
X43900000Y-30400000D03*
X43900000Y-29900000D03*
X43900000Y-29400000D03*
X38300000Y-29400000D03*
X38300000Y-29900000D03*
X38300000Y-30400000D03*
X38300000Y-30900000D03*
X38300000Y-31400000D03*
X38300000Y-31900000D03*
X38300000Y-32400000D03*
X38300000Y-32900000D03*
X38300000Y-33400000D03*
X38300000Y-33900000D03*
X38300000Y-34400000D03*
X38300000Y-34900000D03*
X38300000Y-35400000D03*
X38300000Y-35900000D03*
X38300000Y-36400000D03*
D33*
X67575000Y-35000000D03*
X68075000Y-35000000D03*
X68575000Y-35000000D03*
X69075000Y-35000000D03*
X69575000Y-35000000D03*
X70075000Y-35000000D03*
X70575000Y-35000000D03*
X71075000Y-35000000D03*
X71575000Y-35000000D03*
X72075000Y-35000000D03*
X72575000Y-35000000D03*
X73075000Y-35000000D03*
X73575000Y-35000000D03*
X74075000Y-35000000D03*
X74575000Y-35000000D03*
X74575000Y-29400000D03*
X74075000Y-29400000D03*
X73575000Y-29400000D03*
X73075000Y-29400000D03*
X72575000Y-29400000D03*
X72075000Y-29400000D03*
X71575000Y-29400000D03*
X71075000Y-29400000D03*
X70575000Y-29400000D03*
X70075000Y-29400000D03*
X69575000Y-29400000D03*
X69075000Y-29400000D03*
X68575000Y-29400000D03*
X68075000Y-29400000D03*
X67575000Y-29400000D03*
D34*
X84400000Y-35385000D03*
X84400000Y-32115000D03*
D35*
X91435000Y-29300000D03*
X88165000Y-29300000D03*
D34*
X94000000Y-12785000D03*
X94000000Y-9515000D03*
D35*
X24710000Y-10700000D03*
X21440000Y-10700000D03*
X99235000Y-56400000D03*
X95965000Y-56400000D03*
X99235000Y-54200000D03*
X95965000Y-54200000D03*
X42660000Y-26050000D03*
X39390000Y-26050000D03*
D34*
X35225000Y-41985000D03*
X35225000Y-38715000D03*
D35*
X34860000Y-12950000D03*
X31590000Y-12950000D03*
D25*
X34625000Y-8975000D03*
X34625000Y-7075000D03*
X31625000Y-8025000D03*
D30*
X34500000Y-5100000D03*
X31800000Y-5100000D03*
X31900000Y-10850000D03*
X34600000Y-10850000D03*
M02*
