M48
;DRILL file {KiCad 4.0.4-stable} date Tuesday, December 27, 2016 'AMt' 12:33:26 AM
;FORMAT={-:-/ absolute / metric / decimal}
FMAT,2
METRIC,TZ
T1C0.400
T2C0.600
T3C0.762
T4C1.000
T5C1.100
T6C1.200
T7C5.500
%
G90
G05
M71
T1
X20.35Y-34.225
X24.5Y-14.625
X25.75Y-30.3
X29.2Y-15.025
X30.25Y-18.075
X31.59Y-12.95
X34.875Y-3.
X35.225Y-41.985
X35.975Y-37.4
X37.45Y-39.05
X38.1Y-27.025
X40.075Y-28.7
X40.4Y-36.15
X40.983Y-35.375
X41.35Y-34.45
X41.625Y-37.275
X41.95Y-38.85
X42.075Y-31.675
X43.625Y-37.275
X45.35Y-36.825
X45.4Y-34.175
X45.45Y-35.025
X46.2Y-39.075
X46.3Y-36.725
X46.875Y-38.45
X47.475Y-30.4
X48.175Y-60.
X48.675Y-50.4
X48.675Y-52.525
X49.2Y-43.1
X50.1Y-54.8
X50.275Y-42.975
X50.85Y-24.975
X51.075Y-45.75
X51.775Y-48.475
X51.925Y-47.525
X52.45Y-36.375
X52.8Y-50.4
X53.05Y-30.425
X53.275Y-45.65
X53.7Y-26.325
X53.729Y-46.729
X53.775Y-27.3
X53.85Y-51.725
X54.375Y-47.9
X55.25Y-24.675
X56.4Y-30.475
X58.725Y-39.95
X58.875Y-25.175
X59.Y-23.95
X59.8Y-26.75
X60.45Y-41.1
X61.025Y-23.45
X61.325Y-8.675
X61.675Y-24.3
X65.425Y-11.075
X66.468Y-23.768
X66.475Y-21.175
X70.125Y-21.475
X70.475Y-19.
X70.9Y-33.
X71.625Y-49.825
X71.7Y-3.375
X72.225Y-21.4
X72.925Y-15.975
X72.95Y-31.075
X73.125Y-13.075
X75.1Y-49.85
X77.575Y-32.05
X78.975Y-37.3
X79.Y-38.125
X81.575Y-13.625
X81.65Y-32.475
X82.55Y-38.125
X83.05Y-14.475
X83.225Y-13.2
X83.725Y-37.275
X83.875Y-43.775
X84.525Y-30.825
X84.525Y-33.35
X85.225Y-19.1
X85.425Y-50.35
X86.125Y-49.65
X86.825Y-19.125
X86.825Y-50.5
X87.225Y-9.2
X87.573Y-12.227
X88.1Y-11.625
X88.2Y-24.2
X88.75Y-31.8
X90.3Y-19.125
X91.975Y-14.6
X92.2Y-19.45
X93.75Y-55.9
X93.9Y-7.225
X96.5Y-12.025
X96.775Y-5.7
X96.825Y-3.475
X98.575Y-14.5
X98.7Y-13.45
X98.9Y-23.
X106.6Y-29.22
X106.7Y-40.8
X113.8Y-31.75
X113.8Y-40.2
X126.3Y-40.1
X126.3Y-41.1
X126.3Y-42.1
X126.3Y-42.88
X126.3Y-43.87
X126.3Y-44.87
X126.3Y-45.87
X126.3Y-46.87
X127.3Y-40.1
X127.3Y-41.1
X127.3Y-42.1
X127.3Y-42.88
X127.3Y-43.87
X127.3Y-44.87
X127.3Y-45.87
X127.3Y-46.87
X128.3Y-40.1
X128.3Y-41.1
X128.3Y-42.1
X128.3Y-42.88
X128.3Y-43.87
X128.3Y-44.87
X128.3Y-45.87
X128.3Y-46.87
X129.3Y-40.1
X129.3Y-41.1
X129.3Y-42.1
X129.3Y-42.88
X129.3Y-43.87
X129.3Y-44.87
X129.3Y-45.87
X129.3Y-46.87
X130.3Y-40.1
X130.3Y-41.1
X130.3Y-42.1
X130.3Y-42.88
X130.3Y-43.87
X130.3Y-44.87
X130.3Y-45.87
X130.3Y-46.87
X131.3Y-40.1
X131.3Y-41.1
X131.3Y-42.1
X131.3Y-42.88
X131.3Y-43.87
X131.3Y-44.87
X131.3Y-45.87
X131.3Y-46.87
X132.3Y-40.1
X132.3Y-41.1
X132.3Y-42.1
X132.3Y-42.88
X132.3Y-43.87
X132.3Y-44.87
X132.3Y-45.87
X132.3Y-46.87
X133.3Y-40.1
X133.3Y-41.1
X133.3Y-42.1
X133.3Y-42.88
X133.3Y-43.87
X133.3Y-44.87
X133.3Y-45.87
X133.3Y-46.87
X134.3Y-40.1
X134.3Y-41.1
X134.3Y-42.1
X134.3Y-42.88
X134.3Y-43.87
X134.3Y-44.87
X134.3Y-45.87
X134.3Y-46.87
X135.3Y-40.1
X135.3Y-41.1
X135.3Y-42.1
X135.3Y-42.88
X135.3Y-43.87
X135.3Y-44.87
X135.3Y-45.87
X135.3Y-46.87
X136.3Y-40.1
X136.3Y-41.1
X136.3Y-42.1
X136.3Y-42.88
X136.3Y-43.87
X136.3Y-44.87
X136.3Y-45.87
X136.3Y-46.87
T2
X3.648Y-55.573
X3.65Y-7.8
X4.846Y-52.646
X4.846Y-58.5
X4.848Y-4.873
X4.848Y-10.727
X7.773Y-51.448
X7.773Y-59.698
X7.775Y-3.675
X7.775Y-11.925
X10.7Y-52.646
X10.7Y-58.5
X10.702Y-4.873
X10.702Y-10.727
X11.898Y-55.573
X11.9Y-7.8
X20.8Y-6.075
X21.85Y-45.7
X25.75Y-45.55
X44.05Y-40.45
X48.375Y-39.05
X50.9Y-32.575
X50.925Y-34.675
X50.975Y-36.875
X64.15Y-44.45
X64.975Y-27.05
X64.975Y-29.55
X67.84Y-24.035
X71.325Y-30.561
X80.745Y-25.95
X81.225Y-41.925
X103.975Y-12.55
X110.975Y-15.15
X113.125Y-9.05
X127.802Y-55.573
X127.875Y-7.775
X129.Y-52.646
X129.Y-58.5
X129.073Y-4.848
X129.073Y-10.702
X131.927Y-51.448
X131.927Y-59.698
X132.Y-3.65
X132.Y-11.9
X134.854Y-52.646
X134.854Y-58.5
X134.927Y-4.848
X134.927Y-10.702
X136.052Y-55.573
X136.125Y-7.775
T3
X114.24Y-18.654
X114.24Y-20.6
X114.24Y-22.546
X116.21Y-18.654
X116.21Y-20.6
X116.21Y-22.546
X123.39Y-18.654
X123.39Y-20.6
X123.39Y-22.546
X125.36Y-18.654
X125.36Y-20.6
X125.36Y-22.546
T4
X97.525Y-43.3
X98.49Y-28.95
X106.6Y-31.76
X106.675Y-43.3
X107.401Y-3.95
X113.5Y-46.825
T5
X31.325Y-53.075
X31.325Y-58.075
X36.325Y-53.075
X36.325Y-58.075
X44.3Y-5.
X44.3Y-10.
X49.3Y-5.
X49.3Y-10.
T6
X8.9Y-19.2
X8.9Y-21.7
X8.9Y-24.2
X8.9Y-26.7
X8.9Y-29.2
X8.9Y-31.7
X8.9Y-34.2
X8.9Y-36.7
X8.9Y-39.2
X8.9Y-41.7
X8.9Y-44.2
X8.9Y-46.7
X64.6Y-55.5
X68.1Y-55.5
X70.Y-8.
X71.6Y-55.5
X73.5Y-8.
X75.1Y-55.5
X81.5Y-8.
X85.Y-8.
X108.Y-55.5
X111.5Y-55.5
X131.7Y-19.5
X131.7Y-23.
T7
X7.773Y-55.573
X7.775Y-7.8
X131.927Y-55.573
X132.Y-7.775
T0
M30
