G04 #@! TF.FileFunction,Copper,L2,Bot,Signal*
%FSLAX46Y46*%
G04 Gerber Fmt 4.6, Leading zero omitted, Abs format (unit mm)*
G04 Created by KiCad (PCBNEW 4.0.4-stable) date Tuesday, December 27, 2016 'AMt' 12:33:23 AM*
%MOMM*%
%LPD*%
G01*
G04 APERTURE LIST*
%ADD10C,0.100000*%
%ADD11C,2.000000*%
%ADD12R,1.970000X1.946000*%
%ADD13R,1.000000X1.000000*%
%ADD14C,11.000000*%
%ADD15C,0.700000*%
%ADD16C,1.500000*%
%ADD17C,1.800000*%
%ADD18C,1.600000*%
%ADD19C,0.600000*%
%ADD20C,1.000000*%
%ADD21C,1.000000*%
%ADD22C,3.000000*%
%ADD23C,2.000000*%
%ADD24C,6.000000*%
%ADD25C,0.500000*%
%ADD26C,0.250000*%
%ADD27C,0.254000*%
G04 APERTURE END LIST*
D10*
D11*
X108000000Y-55500000D03*
X111500000Y-55500000D03*
X131700000Y-23000000D03*
X131700000Y-19500000D03*
X85000000Y-8000000D03*
X81500000Y-8000000D03*
X73500000Y-8000000D03*
X70000000Y-8000000D03*
D12*
X116210000Y-20600000D03*
X114240000Y-20600000D03*
X114240000Y-22546000D03*
X116210000Y-22546000D03*
X116210000Y-18654000D03*
X114240000Y-18654000D03*
X125360000Y-20600000D03*
X123390000Y-20600000D03*
X123390000Y-22546000D03*
X125360000Y-22546000D03*
X125360000Y-18654000D03*
X123390000Y-18654000D03*
D13*
X136300000Y-46870000D03*
X135300000Y-46870000D03*
X135300000Y-45870000D03*
X136300000Y-45870000D03*
X134300000Y-45870000D03*
X133300000Y-45870000D03*
X133300000Y-46870000D03*
X134300000Y-46870000D03*
X130300000Y-46870000D03*
X129300000Y-46870000D03*
X129300000Y-45870000D03*
X130300000Y-45870000D03*
X132300000Y-45870000D03*
X131300000Y-45870000D03*
X131300000Y-46870000D03*
X132300000Y-46870000D03*
X128300000Y-46870000D03*
X128300000Y-45870000D03*
X127300000Y-45870000D03*
X126300000Y-45870000D03*
X126300000Y-46870000D03*
X127300000Y-46870000D03*
X127300000Y-44870000D03*
X126300000Y-44870000D03*
X126300000Y-43870000D03*
X127300000Y-43870000D03*
X128300000Y-43870000D03*
X128300000Y-44870000D03*
X132300000Y-44870000D03*
X131300000Y-44870000D03*
X131300000Y-43870000D03*
X132300000Y-43870000D03*
X130300000Y-43870000D03*
X129300000Y-43870000D03*
X129300000Y-44870000D03*
X130300000Y-44870000D03*
X134300000Y-44870000D03*
X133300000Y-44870000D03*
X133300000Y-43870000D03*
X134300000Y-43870000D03*
X136300000Y-43870000D03*
X135300000Y-43870000D03*
X135300000Y-44870000D03*
X136300000Y-44870000D03*
X136300000Y-42100000D03*
X136300000Y-42880000D03*
X135300000Y-42880000D03*
X135300000Y-42100000D03*
X134300000Y-42100000D03*
X133300000Y-42100000D03*
X133300000Y-42880000D03*
X132300000Y-42100000D03*
X131300000Y-42880000D03*
X134300000Y-42880000D03*
X131300000Y-42100000D03*
X132300000Y-42880000D03*
X132300000Y-41100000D03*
X131300000Y-41100000D03*
X131300000Y-40100000D03*
X132300000Y-40100000D03*
X130300000Y-40100000D03*
X133300000Y-41100000D03*
X130300000Y-41100000D03*
X133300000Y-40100000D03*
X127300000Y-42100000D03*
X126300000Y-42100000D03*
X126300000Y-42880000D03*
X127300000Y-41100000D03*
X127300000Y-42880000D03*
X126300000Y-41100000D03*
X134300000Y-40100000D03*
X136300000Y-40100000D03*
X135300000Y-40100000D03*
X135300000Y-41100000D03*
X134300000Y-41100000D03*
X136300000Y-41100000D03*
X129300000Y-40100000D03*
X128300000Y-41100000D03*
X126300000Y-40100000D03*
X127300000Y-40100000D03*
X128300000Y-40100000D03*
X129300000Y-41100000D03*
X129300000Y-42880000D03*
X130300000Y-42100000D03*
X128300000Y-42880000D03*
X128300000Y-42100000D03*
X129300000Y-42100000D03*
X130300000Y-42880000D03*
D11*
X64600000Y-55500000D03*
X68100000Y-55500000D03*
X71600000Y-55500000D03*
X75100000Y-55500000D03*
D14*
X131926815Y-55573185D03*
D15*
X136051815Y-55573185D03*
X134853630Y-58500000D03*
X131926815Y-59698185D03*
X129000000Y-58500000D03*
X127801815Y-55573185D03*
X129000000Y-52646370D03*
X131926815Y-51448185D03*
X134853630Y-52646370D03*
D14*
X132000000Y-7775000D03*
D15*
X136125000Y-7775000D03*
X134926815Y-10701815D03*
X132000000Y-11900000D03*
X129073185Y-10701815D03*
X127875000Y-7775000D03*
X129073185Y-4848185D03*
X132000000Y-3650000D03*
X134926815Y-4848185D03*
D14*
X7773185Y-55573185D03*
D15*
X11898185Y-55573185D03*
X10700000Y-58500000D03*
X7773185Y-59698185D03*
X4846370Y-58500000D03*
X3648185Y-55573185D03*
X4846370Y-52646370D03*
X7773185Y-51448185D03*
X10700000Y-52646370D03*
D14*
X7775000Y-7800000D03*
D15*
X11900000Y-7800000D03*
X10701815Y-10726815D03*
X7775000Y-11925000D03*
X4848185Y-10726815D03*
X3650000Y-7800000D03*
X4848185Y-4873185D03*
X7775000Y-3675000D03*
X10701815Y-4873185D03*
D16*
X44300000Y-5000000D03*
X49300000Y-5000000D03*
X44300000Y-10000000D03*
X49300000Y-10000000D03*
X31325000Y-53075000D03*
X36325000Y-53075000D03*
X31325000Y-58075000D03*
X36325000Y-58075000D03*
D17*
X8900000Y-19200000D03*
X8900000Y-21700000D03*
X8900000Y-24200000D03*
X8900000Y-26700000D03*
X8900000Y-29200000D03*
X8900000Y-31700000D03*
X8900000Y-34200000D03*
X8900000Y-36700000D03*
X8900000Y-39200000D03*
X8900000Y-41700000D03*
X8900000Y-44200000D03*
X8900000Y-46700000D03*
D18*
X107401440Y-3950000D03*
D19*
X91975000Y-14600000D03*
X96825000Y-3475000D03*
X96775000Y-5700000D03*
X72925000Y-15975000D03*
X83875000Y-43775000D03*
X50100000Y-54800000D03*
X48675000Y-52525000D03*
X48675000Y-50400000D03*
X60450000Y-41100000D03*
X70125000Y-21475000D03*
X70475000Y-19000000D03*
D20*
X67840001Y-24035000D03*
X71325001Y-30560558D03*
X64975000Y-29550000D03*
D19*
X34875000Y-3000000D03*
X31590000Y-12950000D03*
X43625000Y-37275000D03*
X75100000Y-49850000D03*
X71625000Y-49825000D03*
X48175000Y-60000000D03*
D20*
X44050000Y-40450000D03*
X50900000Y-32575000D03*
X50925000Y-34675000D03*
X50975000Y-36875000D03*
X48375000Y-39050000D03*
X20800000Y-6075000D03*
X25750000Y-45550000D03*
X21850000Y-45700000D03*
D19*
X93750000Y-55900000D03*
D20*
X64150000Y-44450000D03*
D19*
X85225000Y-19100000D03*
X86825000Y-19125000D03*
X90300000Y-19125000D03*
X92200000Y-19450000D03*
X72225000Y-21400000D03*
D20*
X81225000Y-41925000D03*
X80744860Y-25950000D03*
X64975000Y-27050000D03*
D19*
X87225000Y-9200000D03*
X83225000Y-13200000D03*
X72950000Y-31075000D03*
X70900000Y-33000000D03*
X35225000Y-41985000D03*
X24500000Y-14625000D03*
X42075000Y-31675000D03*
X25750000Y-30300000D03*
X41350000Y-34450000D03*
X35975000Y-37400000D03*
X98700000Y-13450000D03*
X88100000Y-11625000D03*
X61025000Y-23450000D03*
X59000000Y-23950000D03*
X53700000Y-26325000D03*
X40982550Y-35374999D03*
X98575000Y-14500000D03*
X87573195Y-12227063D03*
X61675000Y-24300000D03*
X58875000Y-25175000D03*
X53775000Y-27300000D03*
X40400000Y-36150000D03*
D20*
X113125000Y-9050000D03*
X110975000Y-15150000D03*
D19*
X113800000Y-31750000D03*
X98900000Y-23000000D03*
X106600000Y-29220000D03*
X40075000Y-28700000D03*
X38100000Y-27025000D03*
X30250000Y-18075000D03*
X29200000Y-15025000D03*
D18*
X113499980Y-46825000D03*
D19*
X86825000Y-50500000D03*
X85425000Y-50350000D03*
X88750000Y-31800000D03*
X106700000Y-40800000D03*
X113800000Y-40200000D03*
D20*
X103975000Y-12550000D03*
D19*
X96500000Y-12025000D03*
X93900000Y-7225000D03*
X71700000Y-3375000D03*
X61325000Y-8675000D03*
X20350000Y-34225000D03*
X37450000Y-39050000D03*
X58725000Y-39950000D03*
X41950000Y-38850000D03*
X41625000Y-37275000D03*
X59800000Y-26750000D03*
X55250000Y-24675000D03*
X50850000Y-24975000D03*
X77575000Y-32050000D03*
X81650000Y-32475000D03*
X78975000Y-37300000D03*
X83725000Y-37275000D03*
D18*
X98490000Y-28950000D03*
X106600000Y-31760000D03*
X97525000Y-43300000D03*
X106675000Y-43300000D03*
D19*
X46300000Y-36725000D03*
X46875000Y-38450000D03*
X50275000Y-42975000D03*
X51925000Y-47525000D03*
X52450000Y-36375000D03*
X45450000Y-35025000D03*
X53050000Y-30425000D03*
X56400000Y-30475000D03*
X45400000Y-34175000D03*
X47475000Y-30400000D03*
X53275000Y-45650000D03*
X51775000Y-48475000D03*
X52800000Y-50400000D03*
X53729442Y-46729442D03*
X66475000Y-21175000D03*
X66467831Y-23767831D03*
X53850000Y-51725000D03*
X54375000Y-47900000D03*
X79000000Y-38125000D03*
X73125000Y-13075000D03*
X84525000Y-30825000D03*
X84525000Y-33350000D03*
X82550000Y-38125000D03*
X83050000Y-14475000D03*
X81575000Y-13625000D03*
X65425000Y-11075000D03*
X86125000Y-49650000D03*
X45350000Y-36825000D03*
X46200000Y-39075000D03*
X49200000Y-43100000D03*
X51075000Y-45750000D03*
X88200000Y-24200000D03*
D21*
X131700000Y-19500000D02*
X137500001Y-25300001D01*
X137500001Y-25300001D02*
X137500001Y-48445997D01*
X137500001Y-48445997D02*
X131926815Y-54019183D01*
X131926815Y-54019183D02*
X131926815Y-55573185D01*
X131700000Y-19500000D02*
X130700001Y-18500001D01*
X130700001Y-18500001D02*
X130700001Y-9074999D01*
X130700001Y-9074999D02*
X132000000Y-7775000D01*
D22*
X107401440Y-3950000D02*
X102300000Y-3950000D01*
D23*
X129150000Y-18475000D02*
X130675000Y-18475000D01*
X130675000Y-18475000D02*
X131700000Y-19500000D01*
D24*
X127025000Y-20600000D02*
X129150000Y-18475000D01*
X125360000Y-20600000D02*
X127025000Y-20600000D01*
D21*
X114839213Y-1225000D02*
X101850000Y-1225000D01*
X131700000Y-19500000D02*
X131700000Y-18085787D01*
X131700000Y-18085787D02*
X114839213Y-1225000D01*
X64150000Y-44450000D02*
X65025000Y-44450000D01*
X65025000Y-44450000D02*
X65275000Y-44200000D01*
D25*
X86825000Y-19125000D02*
X85250000Y-19125000D01*
X85250000Y-19125000D02*
X85225000Y-19100000D01*
X92200000Y-19450000D02*
X90625000Y-19450000D01*
X90625000Y-19450000D02*
X90300000Y-19125000D01*
D21*
X65275000Y-41925000D02*
X65275000Y-44200000D01*
X64975000Y-27050000D02*
X67775000Y-27050000D01*
X67775000Y-27050000D02*
X79644860Y-27050000D01*
D26*
X72225000Y-21400000D02*
X72225000Y-22400000D01*
X72225000Y-22400000D02*
X67775000Y-26850000D01*
X67775000Y-26850000D02*
X67775000Y-27050000D01*
D21*
X81225000Y-41925000D02*
X65275000Y-41925000D01*
X79644860Y-27050000D02*
X80744860Y-25950000D01*
D26*
X83225000Y-13200000D02*
X87225000Y-9200000D01*
X70900000Y-33000000D02*
X72825000Y-31075000D01*
X72825000Y-31075000D02*
X72950000Y-31075000D01*
X25750000Y-30300000D02*
X37700000Y-30300000D01*
X42025000Y-31675000D02*
X42075000Y-31675000D01*
X37700000Y-30300000D02*
X39300000Y-31900000D01*
X39300000Y-31900000D02*
X41800000Y-31900000D01*
X41800000Y-31900000D02*
X42025000Y-31675000D01*
D25*
X35225000Y-41985000D02*
X26999998Y-41985000D01*
X19599999Y-33864999D02*
X23164998Y-30300000D01*
X23164998Y-30300000D02*
X24625000Y-30300000D01*
X26999998Y-41985000D02*
X19599999Y-34585001D01*
X19599999Y-34585001D02*
X19599999Y-33864999D01*
X24625000Y-30300000D02*
X25750000Y-30300000D01*
X24500000Y-14625000D02*
X24500000Y-30175000D01*
X24500000Y-30175000D02*
X24625000Y-30300000D01*
D26*
X35975000Y-37400000D02*
X38925000Y-34450000D01*
X38925000Y-34450000D02*
X41350000Y-34450000D01*
X88100000Y-11625000D02*
X89125001Y-12650001D01*
X89125001Y-12650001D02*
X97900001Y-12650001D01*
X97900001Y-12650001D02*
X98700000Y-13450000D01*
X59000000Y-23950000D02*
X60525000Y-23950000D01*
X60525000Y-23950000D02*
X61025000Y-23450000D01*
X42950000Y-28900000D02*
X45525000Y-26325000D01*
X45525000Y-26325000D02*
X53700000Y-26325000D01*
X42950000Y-33831813D02*
X42950000Y-28900000D01*
X40982550Y-35374999D02*
X41406814Y-35374999D01*
X41406814Y-35374999D02*
X42950000Y-33831813D01*
X88938601Y-13100011D02*
X97175011Y-13100011D01*
X97175011Y-13100011D02*
X98049999Y-13974999D01*
X87573195Y-12227063D02*
X88446142Y-13100010D01*
X88446142Y-13100010D02*
X88938601Y-13100011D01*
X98049999Y-13974999D02*
X98575000Y-14500000D01*
X58875000Y-25175000D02*
X60800000Y-25175000D01*
X60800000Y-25175000D02*
X61675000Y-24300000D01*
X45711400Y-26775010D02*
X53250010Y-26775010D01*
X53250010Y-26775010D02*
X53775000Y-27300000D01*
X43400010Y-29086400D02*
X45711400Y-26775010D01*
X43400010Y-34018213D02*
X43400010Y-29086400D01*
X40400000Y-36150000D02*
X41268223Y-36150000D01*
X41268223Y-36150000D02*
X43400010Y-34018213D01*
D25*
X113125000Y-11850000D02*
X113125000Y-9050000D01*
X110975000Y-15150000D02*
X110975000Y-14000000D01*
X110975000Y-14000000D02*
X113125000Y-11850000D01*
X113800000Y-31750000D02*
X113800000Y-30500000D01*
X113800000Y-30500000D02*
X112520000Y-29220000D01*
X112520000Y-29220000D02*
X109400000Y-29220000D01*
X109400000Y-29220000D02*
X106600000Y-29220000D01*
X101575000Y-23000000D02*
X98900000Y-23000000D01*
X106600000Y-29220000D02*
X106600000Y-28025000D01*
X106600000Y-28025000D02*
X101575000Y-23000000D01*
X38100000Y-27025000D02*
X38400000Y-27025000D01*
X38400000Y-27025000D02*
X40075000Y-28700000D01*
X29200000Y-15025000D02*
X29200000Y-17025000D01*
X29200000Y-17025000D02*
X30250000Y-18075000D01*
D23*
X107299999Y-53483999D02*
X107398212Y-53483999D01*
X108000000Y-54085787D02*
X108000000Y-55500000D01*
X107398212Y-53483999D02*
X108000000Y-54085787D01*
D24*
X113499980Y-46825000D02*
X113499980Y-47284018D01*
X113499980Y-47284018D02*
X107299999Y-53483999D01*
D25*
X85425000Y-50350000D02*
X85575000Y-50500000D01*
X85575000Y-50500000D02*
X86825000Y-50500000D01*
X88750000Y-31800000D02*
X97700000Y-31800000D01*
X97700000Y-31800000D02*
X106700000Y-40800000D01*
D21*
X103975000Y-12550000D02*
X103975000Y-15499002D01*
X103975000Y-15499002D02*
X114575998Y-26100000D01*
X114575998Y-26100000D02*
X128600000Y-26100000D01*
X128600000Y-26100000D02*
X131700000Y-23000000D01*
D25*
X93900000Y-7225000D02*
X93900000Y-9425000D01*
X93900000Y-9425000D02*
X96500000Y-12025000D01*
X61325000Y-8675000D02*
X66625000Y-3375000D01*
X66625000Y-3375000D02*
X71700000Y-3375000D01*
D26*
X37450000Y-39050000D02*
X25175000Y-39050000D01*
X25175000Y-39050000D02*
X20350000Y-34225000D01*
D25*
X59800000Y-38875000D02*
X58725000Y-39950000D01*
D26*
X41625000Y-37275000D02*
X41625000Y-38525000D01*
X41625000Y-38525000D02*
X41950000Y-38850000D01*
D25*
X59800000Y-26750000D02*
X59800000Y-38875000D01*
D26*
X50850000Y-24975000D02*
X51149999Y-24675001D01*
X51149999Y-24675001D02*
X55249999Y-24675001D01*
X81650000Y-32475000D02*
X78000000Y-32475000D01*
X78000000Y-32475000D02*
X77575000Y-32050000D01*
X78975000Y-37300000D02*
X83700000Y-37300000D01*
X83700000Y-37300000D02*
X83725000Y-37275000D01*
D22*
X106600000Y-31760000D02*
X101300000Y-31760000D01*
X101300000Y-31760000D02*
X98490000Y-28950000D01*
X106675000Y-43300000D02*
X97525000Y-43300000D01*
D26*
X46875000Y-38450000D02*
X46875000Y-37300000D01*
X46875000Y-37300000D02*
X46300000Y-36725000D01*
X51925000Y-47525000D02*
X51925000Y-44625000D01*
X51925000Y-44625000D02*
X50275000Y-42975000D01*
X45450000Y-35025000D02*
X46474999Y-36049999D01*
X52124999Y-36049999D02*
X52450000Y-36375000D01*
X46474999Y-36049999D02*
X52124999Y-36049999D01*
X56400000Y-30475000D02*
X53100000Y-30475000D01*
X53100000Y-30475000D02*
X53050000Y-30425000D01*
X45400000Y-34175000D02*
X45400000Y-33750736D01*
X45400000Y-33750736D02*
X45275000Y-33625736D01*
X45275000Y-33625736D02*
X45275000Y-32600000D01*
X45275000Y-32600000D02*
X47475000Y-30400000D01*
X52750000Y-45975000D02*
X52950000Y-45975000D01*
X52950000Y-45975000D02*
X53275000Y-45650000D01*
X52750000Y-46875000D02*
X52750000Y-45975000D01*
X52549264Y-48125000D02*
X52750000Y-47924264D01*
X52750000Y-47924264D02*
X52750000Y-46875000D01*
X51775000Y-48475000D02*
X52199264Y-48475000D01*
X52199264Y-48475000D02*
X52549264Y-48125000D01*
X51900002Y-48475000D02*
X51775000Y-48475000D01*
X53729442Y-46729442D02*
X53729442Y-49470558D01*
X53729442Y-49470558D02*
X52800000Y-50400000D01*
X66467831Y-23767831D02*
X66467831Y-21182169D01*
X66467831Y-21182169D02*
X66475000Y-21175000D01*
X54375000Y-47900000D02*
X54375000Y-51200000D01*
X54375000Y-51200000D02*
X53850000Y-51725000D01*
X79000000Y-38125000D02*
X80275000Y-38125000D01*
X80275000Y-38125000D02*
X82550000Y-38125000D01*
X72697647Y-12647647D02*
X73125000Y-13075000D01*
X84525000Y-33350000D02*
X84525000Y-30825000D01*
X81575000Y-13625000D02*
X82200000Y-13625000D01*
X82200000Y-13625000D02*
X83050000Y-14475000D01*
X65425000Y-11075000D02*
X71125000Y-11075000D01*
X71125000Y-11075000D02*
X72697647Y-12647647D01*
X86200000Y-44025000D02*
X86200000Y-49575000D01*
X86200000Y-49575000D02*
X86125000Y-49650000D01*
X46200000Y-39075000D02*
X46200000Y-37675000D01*
X46200000Y-37675000D02*
X45350000Y-36825000D01*
X51075000Y-45750000D02*
X49200000Y-43875000D01*
X49200000Y-43875000D02*
X49200000Y-43100000D01*
X87550000Y-24850000D02*
X87550000Y-42675000D01*
X87550000Y-42675000D02*
X86200000Y-44025000D01*
X88200000Y-24200000D02*
X87550000Y-24850000D01*
D27*
G36*
X102873000Y-12244246D02*
X102840197Y-12323244D01*
X102839803Y-12774775D01*
X102840000Y-12775252D01*
X102840000Y-15499002D01*
X102873000Y-15664904D01*
X102873000Y-23046420D01*
X102200790Y-22374210D01*
X101951750Y-22207808D01*
X101913675Y-22182367D01*
X101857484Y-22171190D01*
X101575000Y-22114999D01*
X101574995Y-22115000D01*
X99206822Y-22115000D01*
X99086799Y-22065162D01*
X98714833Y-22064838D01*
X98371057Y-22206883D01*
X98107808Y-22469673D01*
X97965162Y-22813201D01*
X97964838Y-23185167D01*
X98106883Y-23528943D01*
X98369673Y-23792192D01*
X98713201Y-23934838D01*
X99085167Y-23935162D01*
X99206569Y-23885000D01*
X101208420Y-23885000D01*
X102873000Y-25549580D01*
X102873000Y-29625000D01*
X102184346Y-29625000D01*
X99999673Y-27440327D01*
X99307029Y-26977517D01*
X98490000Y-26815000D01*
X97672971Y-26977517D01*
X96980327Y-27440327D01*
X96517517Y-28132971D01*
X96355000Y-28950000D01*
X96517517Y-29767029D01*
X96980327Y-30459673D01*
X97435654Y-30915000D01*
X89056822Y-30915000D01*
X88936799Y-30865162D01*
X88564833Y-30864838D01*
X88310000Y-30970133D01*
X88310000Y-25164802D01*
X88339680Y-25135122D01*
X88385167Y-25135162D01*
X88728943Y-24993117D01*
X88992192Y-24730327D01*
X89134838Y-24386799D01*
X89135162Y-24014833D01*
X88993117Y-23671057D01*
X88730327Y-23407808D01*
X88386799Y-23265162D01*
X88014833Y-23264838D01*
X87671057Y-23406883D01*
X87407808Y-23669673D01*
X87265162Y-24013201D01*
X87265121Y-24060077D01*
X87012599Y-24312599D01*
X86847852Y-24559161D01*
X86790000Y-24850000D01*
X86790000Y-42360198D01*
X85662599Y-43487599D01*
X85497852Y-43734161D01*
X85440000Y-44025000D01*
X85440000Y-49012668D01*
X85332808Y-49119673D01*
X85204116Y-49429596D01*
X84896057Y-49556883D01*
X84632808Y-49819673D01*
X84490162Y-50163201D01*
X84489838Y-50535167D01*
X84631883Y-50878943D01*
X84894673Y-51142192D01*
X85103588Y-51228942D01*
X85236325Y-51317633D01*
X85292516Y-51328810D01*
X85575000Y-51385001D01*
X85575005Y-51385000D01*
X86518178Y-51385000D01*
X86638201Y-51434838D01*
X87010167Y-51435162D01*
X87353943Y-51293117D01*
X87617192Y-51030327D01*
X87759838Y-50686799D01*
X87760162Y-50314833D01*
X87618117Y-49971057D01*
X87355327Y-49707808D01*
X87060057Y-49585201D01*
X87060162Y-49464833D01*
X86960000Y-49222422D01*
X86960000Y-44339802D01*
X88087401Y-43212401D01*
X88252148Y-42965840D01*
X88310000Y-42675000D01*
X88310000Y-32629699D01*
X88563201Y-32734838D01*
X88935167Y-32735162D01*
X89056569Y-32685000D01*
X97333420Y-32685000D01*
X102873000Y-38224579D01*
X102873000Y-41165000D01*
X97525000Y-41165000D01*
X96707971Y-41327517D01*
X96015327Y-41790327D01*
X95552517Y-42482971D01*
X95390000Y-43300000D01*
X95552517Y-44117029D01*
X96015327Y-44809673D01*
X96707971Y-45272483D01*
X97525000Y-45435000D01*
X102873000Y-45435000D01*
X102873000Y-62790000D01*
X710000Y-62790000D01*
X710000Y-59893254D01*
X6788015Y-59893254D01*
X6937656Y-60255414D01*
X7214499Y-60532740D01*
X7576397Y-60683013D01*
X7968254Y-60683355D01*
X8330414Y-60533714D01*
X8607740Y-60256871D01*
X8758013Y-59894973D01*
X8758355Y-59503116D01*
X8608714Y-59140956D01*
X8331871Y-58863630D01*
X7969973Y-58713357D01*
X7578116Y-58713015D01*
X7215956Y-58862656D01*
X6938630Y-59139499D01*
X6788357Y-59501397D01*
X6788015Y-59893254D01*
X710000Y-59893254D01*
X710000Y-58695069D01*
X3861200Y-58695069D01*
X4010841Y-59057229D01*
X4287684Y-59334555D01*
X4649582Y-59484828D01*
X5041439Y-59485170D01*
X5403599Y-59335529D01*
X5680925Y-59058686D01*
X5831198Y-58696788D01*
X5831199Y-58695069D01*
X9714830Y-58695069D01*
X9864471Y-59057229D01*
X10141314Y-59334555D01*
X10503212Y-59484828D01*
X10895069Y-59485170D01*
X11257229Y-59335529D01*
X11534555Y-59058686D01*
X11684828Y-58696788D01*
X11685131Y-58349285D01*
X29939760Y-58349285D01*
X30150169Y-58858515D01*
X30539436Y-59248461D01*
X31048298Y-59459759D01*
X31599285Y-59460240D01*
X32108515Y-59249831D01*
X32498461Y-58860564D01*
X32709759Y-58351702D01*
X32709761Y-58349285D01*
X34939760Y-58349285D01*
X35150169Y-58858515D01*
X35539436Y-59248461D01*
X36048298Y-59459759D01*
X36599285Y-59460240D01*
X37108515Y-59249831D01*
X37498461Y-58860564D01*
X37709759Y-58351702D01*
X37710240Y-57800715D01*
X37499831Y-57291485D01*
X37110564Y-56901539D01*
X36601702Y-56690241D01*
X36050715Y-56689760D01*
X35541485Y-56900169D01*
X35151539Y-57289436D01*
X34940241Y-57798298D01*
X34939760Y-58349285D01*
X32709761Y-58349285D01*
X32710240Y-57800715D01*
X32499831Y-57291485D01*
X32110564Y-56901539D01*
X31601702Y-56690241D01*
X31050715Y-56689760D01*
X30541485Y-56900169D01*
X30151539Y-57289436D01*
X29940241Y-57798298D01*
X29939760Y-58349285D01*
X11685131Y-58349285D01*
X11685170Y-58304931D01*
X11535529Y-57942771D01*
X11258686Y-57665445D01*
X10896788Y-57515172D01*
X10504931Y-57514830D01*
X10142771Y-57664471D01*
X9865445Y-57941314D01*
X9715172Y-58303212D01*
X9714830Y-58695069D01*
X5831199Y-58695069D01*
X5831540Y-58304931D01*
X5681899Y-57942771D01*
X5405056Y-57665445D01*
X5043158Y-57515172D01*
X4651301Y-57514830D01*
X4289141Y-57664471D01*
X4011815Y-57941314D01*
X3861542Y-58303212D01*
X3861200Y-58695069D01*
X710000Y-58695069D01*
X710000Y-55768254D01*
X2663015Y-55768254D01*
X2812656Y-56130414D01*
X3089499Y-56407740D01*
X3451397Y-56558013D01*
X3843254Y-56558355D01*
X4205414Y-56408714D01*
X4482740Y-56131871D01*
X4633013Y-55769973D01*
X4633014Y-55768254D01*
X10913015Y-55768254D01*
X11062656Y-56130414D01*
X11339499Y-56407740D01*
X11701397Y-56558013D01*
X12093254Y-56558355D01*
X12455414Y-56408714D01*
X12732740Y-56131871D01*
X12860664Y-55823795D01*
X62964716Y-55823795D01*
X63213106Y-56424943D01*
X63672637Y-56885278D01*
X64273352Y-57134716D01*
X64923795Y-57135284D01*
X65524943Y-56886894D01*
X65985278Y-56427363D01*
X66234716Y-55826648D01*
X66234718Y-55823795D01*
X66464716Y-55823795D01*
X66713106Y-56424943D01*
X67172637Y-56885278D01*
X67773352Y-57134716D01*
X68423795Y-57135284D01*
X69024943Y-56886894D01*
X69485278Y-56427363D01*
X69734716Y-55826648D01*
X69734718Y-55823795D01*
X69964716Y-55823795D01*
X70213106Y-56424943D01*
X70672637Y-56885278D01*
X71273352Y-57134716D01*
X71923795Y-57135284D01*
X72524943Y-56886894D01*
X72985278Y-56427363D01*
X73234716Y-55826648D01*
X73234718Y-55823795D01*
X73464716Y-55823795D01*
X73713106Y-56424943D01*
X74172637Y-56885278D01*
X74773352Y-57134716D01*
X75423795Y-57135284D01*
X76024943Y-56886894D01*
X76485278Y-56427363D01*
X76734716Y-55826648D01*
X76735284Y-55176205D01*
X76486894Y-54575057D01*
X76027363Y-54114722D01*
X75426648Y-53865284D01*
X74776205Y-53864716D01*
X74175057Y-54113106D01*
X73714722Y-54572637D01*
X73465284Y-55173352D01*
X73464716Y-55823795D01*
X73234718Y-55823795D01*
X73235284Y-55176205D01*
X72986894Y-54575057D01*
X72527363Y-54114722D01*
X71926648Y-53865284D01*
X71276205Y-53864716D01*
X70675057Y-54113106D01*
X70214722Y-54572637D01*
X69965284Y-55173352D01*
X69964716Y-55823795D01*
X69734718Y-55823795D01*
X69735284Y-55176205D01*
X69486894Y-54575057D01*
X69027363Y-54114722D01*
X68426648Y-53865284D01*
X67776205Y-53864716D01*
X67175057Y-54113106D01*
X66714722Y-54572637D01*
X66465284Y-55173352D01*
X66464716Y-55823795D01*
X66234718Y-55823795D01*
X66235284Y-55176205D01*
X65986894Y-54575057D01*
X65527363Y-54114722D01*
X64926648Y-53865284D01*
X64276205Y-53864716D01*
X63675057Y-54113106D01*
X63214722Y-54572637D01*
X62965284Y-55173352D01*
X62964716Y-55823795D01*
X12860664Y-55823795D01*
X12883013Y-55769973D01*
X12883355Y-55378116D01*
X12733714Y-55015956D01*
X12456871Y-54738630D01*
X12094973Y-54588357D01*
X11703116Y-54588015D01*
X11340956Y-54737656D01*
X11063630Y-55014499D01*
X10913357Y-55376397D01*
X10913015Y-55768254D01*
X4633014Y-55768254D01*
X4633355Y-55378116D01*
X4483714Y-55015956D01*
X4206871Y-54738630D01*
X3844973Y-54588357D01*
X3453116Y-54588015D01*
X3090956Y-54737656D01*
X2813630Y-55014499D01*
X2663357Y-55376397D01*
X2663015Y-55768254D01*
X710000Y-55768254D01*
X710000Y-52841439D01*
X3861200Y-52841439D01*
X4010841Y-53203599D01*
X4287684Y-53480925D01*
X4649582Y-53631198D01*
X5041439Y-53631540D01*
X5403599Y-53481899D01*
X5680925Y-53205056D01*
X5831198Y-52843158D01*
X5831199Y-52841439D01*
X9714830Y-52841439D01*
X9864471Y-53203599D01*
X10141314Y-53480925D01*
X10503212Y-53631198D01*
X10895069Y-53631540D01*
X11257229Y-53481899D01*
X11390074Y-53349285D01*
X29939760Y-53349285D01*
X30150169Y-53858515D01*
X30539436Y-54248461D01*
X31048298Y-54459759D01*
X31599285Y-54460240D01*
X32108515Y-54249831D01*
X32498461Y-53860564D01*
X32709759Y-53351702D01*
X32709761Y-53349285D01*
X34939760Y-53349285D01*
X35150169Y-53858515D01*
X35539436Y-54248461D01*
X36048298Y-54459759D01*
X36599285Y-54460240D01*
X37108515Y-54249831D01*
X37498461Y-53860564D01*
X37709759Y-53351702D01*
X37710240Y-52800715D01*
X37499831Y-52291485D01*
X37110564Y-51901539D01*
X36601702Y-51690241D01*
X36050715Y-51689760D01*
X35541485Y-51900169D01*
X35151539Y-52289436D01*
X34940241Y-52798298D01*
X34939760Y-53349285D01*
X32709761Y-53349285D01*
X32710240Y-52800715D01*
X32499831Y-52291485D01*
X32110564Y-51901539D01*
X31601702Y-51690241D01*
X31050715Y-51689760D01*
X30541485Y-51900169D01*
X30151539Y-52289436D01*
X29940241Y-52798298D01*
X29939760Y-53349285D01*
X11390074Y-53349285D01*
X11534555Y-53205056D01*
X11684828Y-52843158D01*
X11685170Y-52451301D01*
X11535529Y-52089141D01*
X11258686Y-51811815D01*
X10896788Y-51661542D01*
X10504931Y-51661200D01*
X10142771Y-51810841D01*
X9865445Y-52087684D01*
X9715172Y-52449582D01*
X9714830Y-52841439D01*
X5831199Y-52841439D01*
X5831540Y-52451301D01*
X5681899Y-52089141D01*
X5405056Y-51811815D01*
X5043158Y-51661542D01*
X4651301Y-51661200D01*
X4289141Y-51810841D01*
X4011815Y-52087684D01*
X3861542Y-52449582D01*
X3861200Y-52841439D01*
X710000Y-52841439D01*
X710000Y-51643254D01*
X6788015Y-51643254D01*
X6937656Y-52005414D01*
X7214499Y-52282740D01*
X7576397Y-52433013D01*
X7968254Y-52433355D01*
X8330414Y-52283714D01*
X8607740Y-52006871D01*
X8758013Y-51644973D01*
X8758355Y-51253116D01*
X8608714Y-50890956D01*
X8331871Y-50613630D01*
X7969973Y-50463357D01*
X7578116Y-50463015D01*
X7215956Y-50612656D01*
X6938630Y-50889499D01*
X6788357Y-51251397D01*
X6788015Y-51643254D01*
X710000Y-51643254D01*
X710000Y-47003991D01*
X7364735Y-47003991D01*
X7597932Y-47568371D01*
X8029357Y-48000551D01*
X8593330Y-48234733D01*
X9203991Y-48235265D01*
X9768371Y-48002068D01*
X10200551Y-47570643D01*
X10434733Y-47006670D01*
X10435265Y-46396009D01*
X10202068Y-45831629D01*
X9770643Y-45399449D01*
X9761628Y-45395706D01*
X9800554Y-45280159D01*
X8900000Y-44379605D01*
X7999446Y-45280159D01*
X8038207Y-45395214D01*
X8031629Y-45397932D01*
X7599449Y-45829357D01*
X7365267Y-46393330D01*
X7364735Y-47003991D01*
X710000Y-47003991D01*
X710000Y-43959336D01*
X7353542Y-43959336D01*
X7379161Y-44569460D01*
X7563357Y-45014148D01*
X7819841Y-45100554D01*
X8720395Y-44200000D01*
X9079605Y-44200000D01*
X9980159Y-45100554D01*
X10236643Y-45014148D01*
X10446458Y-44440664D01*
X10420839Y-43830540D01*
X10236643Y-43385852D01*
X9980159Y-43299446D01*
X9079605Y-44200000D01*
X8720395Y-44200000D01*
X7819841Y-43299446D01*
X7563357Y-43385852D01*
X7353542Y-43959336D01*
X710000Y-43959336D01*
X710000Y-19503991D01*
X7364735Y-19503991D01*
X7597932Y-20068371D01*
X7979182Y-20450288D01*
X7599449Y-20829357D01*
X7365267Y-21393330D01*
X7364735Y-22003991D01*
X7597932Y-22568371D01*
X7979182Y-22950288D01*
X7599449Y-23329357D01*
X7365267Y-23893330D01*
X7364735Y-24503991D01*
X7597932Y-25068371D01*
X7979182Y-25450288D01*
X7599449Y-25829357D01*
X7365267Y-26393330D01*
X7364735Y-27003991D01*
X7597932Y-27568371D01*
X7979182Y-27950288D01*
X7599449Y-28329357D01*
X7365267Y-28893330D01*
X7364735Y-29503991D01*
X7597932Y-30068371D01*
X7979182Y-30450288D01*
X7599449Y-30829357D01*
X7365267Y-31393330D01*
X7364735Y-32003991D01*
X7597932Y-32568371D01*
X7979182Y-32950288D01*
X7599449Y-33329357D01*
X7365267Y-33893330D01*
X7364735Y-34503991D01*
X7597932Y-35068371D01*
X7979182Y-35450288D01*
X7599449Y-35829357D01*
X7365267Y-36393330D01*
X7364735Y-37003991D01*
X7597932Y-37568371D01*
X7979182Y-37950288D01*
X7599449Y-38329357D01*
X7365267Y-38893330D01*
X7364735Y-39503991D01*
X7597932Y-40068371D01*
X7979182Y-40450288D01*
X7599449Y-40829357D01*
X7365267Y-41393330D01*
X7364735Y-42003991D01*
X7597932Y-42568371D01*
X8029357Y-43000551D01*
X8038372Y-43004294D01*
X7999446Y-43119841D01*
X8900000Y-44020395D01*
X9635228Y-43285167D01*
X48264838Y-43285167D01*
X48406883Y-43628943D01*
X48440000Y-43662118D01*
X48440000Y-43875000D01*
X48497852Y-44165839D01*
X48662599Y-44412401D01*
X50139878Y-45889680D01*
X50139838Y-45935167D01*
X50281883Y-46278943D01*
X50544673Y-46542192D01*
X50888201Y-46684838D01*
X51165000Y-46685079D01*
X51165000Y-46962537D01*
X51132808Y-46994673D01*
X50990162Y-47338201D01*
X50989838Y-47710167D01*
X51056385Y-47871224D01*
X50982808Y-47944673D01*
X50840162Y-48288201D01*
X50839838Y-48660167D01*
X50981883Y-49003943D01*
X51244673Y-49267192D01*
X51588201Y-49409838D01*
X51960167Y-49410162D01*
X52303943Y-49268117D01*
X52371422Y-49200755D01*
X52490103Y-49177148D01*
X52736665Y-49012401D01*
X52969442Y-48779624D01*
X52969442Y-49155756D01*
X52660320Y-49464878D01*
X52614833Y-49464838D01*
X52271057Y-49606883D01*
X52007808Y-49869673D01*
X51865162Y-50213201D01*
X51864838Y-50585167D01*
X52006883Y-50928943D01*
X52269673Y-51192192D01*
X52613201Y-51334838D01*
X52985167Y-51335162D01*
X53002434Y-51328027D01*
X52915162Y-51538201D01*
X52914838Y-51910167D01*
X53056883Y-52253943D01*
X53319673Y-52517192D01*
X53663201Y-52659838D01*
X54035167Y-52660162D01*
X54378943Y-52518117D01*
X54642192Y-52255327D01*
X54784838Y-51911799D01*
X54784879Y-51864923D01*
X54912401Y-51737401D01*
X55077148Y-51490839D01*
X55135000Y-51200000D01*
X55135000Y-48462463D01*
X55167192Y-48430327D01*
X55309838Y-48086799D01*
X55310162Y-47714833D01*
X55168117Y-47371057D01*
X54905327Y-47107808D01*
X54631882Y-46994263D01*
X54664280Y-46916241D01*
X54664604Y-46544275D01*
X54522559Y-46200499D01*
X54259769Y-45937250D01*
X54181604Y-45904793D01*
X54209838Y-45836799D01*
X54210162Y-45464833D01*
X54068117Y-45121057D01*
X53805327Y-44857808D01*
X53461799Y-44715162D01*
X53089833Y-44714838D01*
X52746057Y-44856883D01*
X52685000Y-44917834D01*
X52685000Y-44674775D01*
X63014803Y-44674775D01*
X63187233Y-45092086D01*
X63506235Y-45411645D01*
X63923244Y-45584803D01*
X64374775Y-45585197D01*
X64375252Y-45585000D01*
X65025000Y-45585000D01*
X65459346Y-45498603D01*
X65827566Y-45252566D01*
X66077566Y-45002566D01*
X66323603Y-44634346D01*
X66346896Y-44517243D01*
X66410000Y-44200000D01*
X66410000Y-43060000D01*
X81224009Y-43060000D01*
X81449775Y-43060197D01*
X81867086Y-42887767D01*
X82186645Y-42568765D01*
X82359803Y-42151756D01*
X82360197Y-41700225D01*
X82187767Y-41282914D01*
X81868765Y-40963355D01*
X81451756Y-40790197D01*
X81000225Y-40789803D01*
X80999748Y-40790000D01*
X65275000Y-40790000D01*
X64840654Y-40876397D01*
X64472434Y-41122434D01*
X64226397Y-41490654D01*
X64140000Y-41925000D01*
X64140000Y-43314990D01*
X63925225Y-43314803D01*
X63507914Y-43487233D01*
X63188355Y-43806235D01*
X63015197Y-44223244D01*
X63014803Y-44674775D01*
X52685000Y-44674775D01*
X52685000Y-44625000D01*
X52642711Y-44412401D01*
X52627148Y-44334160D01*
X52462401Y-44087599D01*
X51210122Y-42835320D01*
X51210162Y-42789833D01*
X51068117Y-42446057D01*
X50805327Y-42182808D01*
X50461799Y-42040162D01*
X50089833Y-42039838D01*
X49746057Y-42181883D01*
X49652348Y-42275428D01*
X49386799Y-42165162D01*
X49014833Y-42164838D01*
X48671057Y-42306883D01*
X48407808Y-42569673D01*
X48265162Y-42913201D01*
X48264838Y-43285167D01*
X9635228Y-43285167D01*
X9800554Y-43119841D01*
X9761793Y-43004786D01*
X9768371Y-43002068D01*
X10200551Y-42570643D01*
X10434733Y-42006670D01*
X10435265Y-41396009D01*
X10202068Y-40831629D01*
X9820818Y-40449712D01*
X10200551Y-40070643D01*
X10434733Y-39506670D01*
X10435265Y-38896009D01*
X10202068Y-38331629D01*
X9820818Y-37949712D01*
X10200551Y-37570643D01*
X10434733Y-37006670D01*
X10435265Y-36396009D01*
X10202068Y-35831629D01*
X9820818Y-35449712D01*
X10200551Y-35070643D01*
X10434733Y-34506670D01*
X10435265Y-33896009D01*
X10422452Y-33864999D01*
X18714998Y-33864999D01*
X18714999Y-33865004D01*
X18714999Y-34584996D01*
X18714998Y-34585001D01*
X18766651Y-34844672D01*
X18782366Y-34923676D01*
X18940380Y-35160162D01*
X18974209Y-35210791D01*
X26374206Y-42610787D01*
X26374208Y-42610790D01*
X26661323Y-42802633D01*
X26717514Y-42813810D01*
X26999998Y-42870001D01*
X27000003Y-42870000D01*
X34918178Y-42870000D01*
X35038201Y-42919838D01*
X35410167Y-42920162D01*
X35753943Y-42778117D01*
X36017192Y-42515327D01*
X36159838Y-42171799D01*
X36160162Y-41799833D01*
X36018117Y-41456057D01*
X35755327Y-41192808D01*
X35411799Y-41050162D01*
X35039833Y-41049838D01*
X34918431Y-41100000D01*
X27366577Y-41100000D01*
X26401744Y-40135167D01*
X57789838Y-40135167D01*
X57931883Y-40478943D01*
X58194673Y-40742192D01*
X58538201Y-40884838D01*
X58910167Y-40885162D01*
X59253943Y-40743117D01*
X59517192Y-40480327D01*
X59567566Y-40359014D01*
X60425787Y-39500792D01*
X60425790Y-39500790D01*
X60553975Y-39308946D01*
X60617634Y-39213674D01*
X60685001Y-38875000D01*
X60685000Y-38874995D01*
X60685000Y-37485167D01*
X78039838Y-37485167D01*
X78146295Y-37742813D01*
X78065162Y-37938201D01*
X78064838Y-38310167D01*
X78206883Y-38653943D01*
X78469673Y-38917192D01*
X78813201Y-39059838D01*
X79185167Y-39060162D01*
X79528943Y-38918117D01*
X79562118Y-38885000D01*
X81987537Y-38885000D01*
X82019673Y-38917192D01*
X82363201Y-39059838D01*
X82735167Y-39060162D01*
X83078943Y-38918117D01*
X83342192Y-38655327D01*
X83484838Y-38311799D01*
X83484946Y-38187725D01*
X83538201Y-38209838D01*
X83910167Y-38210162D01*
X84253943Y-38068117D01*
X84517192Y-37805327D01*
X84659838Y-37461799D01*
X84660162Y-37089833D01*
X84518117Y-36746057D01*
X84255327Y-36482808D01*
X83911799Y-36340162D01*
X83539833Y-36339838D01*
X83196057Y-36481883D01*
X83137838Y-36540000D01*
X79537463Y-36540000D01*
X79505327Y-36507808D01*
X79161799Y-36365162D01*
X78789833Y-36364838D01*
X78446057Y-36506883D01*
X78182808Y-36769673D01*
X78040162Y-37113201D01*
X78039838Y-37485167D01*
X60685000Y-37485167D01*
X60685000Y-33185167D01*
X69964838Y-33185167D01*
X70106883Y-33528943D01*
X70369673Y-33792192D01*
X70713201Y-33934838D01*
X71085167Y-33935162D01*
X71428943Y-33793117D01*
X71692192Y-33530327D01*
X71834838Y-33186799D01*
X71834879Y-33139923D01*
X72739635Y-32235167D01*
X76639838Y-32235167D01*
X76781883Y-32578943D01*
X77044673Y-32842192D01*
X77388201Y-32984838D01*
X77435077Y-32984879D01*
X77462599Y-33012401D01*
X77709161Y-33177148D01*
X78000000Y-33235000D01*
X81087537Y-33235000D01*
X81119673Y-33267192D01*
X81463201Y-33409838D01*
X81835167Y-33410162D01*
X82178943Y-33268117D01*
X82442192Y-33005327D01*
X82584838Y-32661799D01*
X82585162Y-32289833D01*
X82443117Y-31946057D01*
X82180327Y-31682808D01*
X81836799Y-31540162D01*
X81464833Y-31539838D01*
X81121057Y-31681883D01*
X81087882Y-31715000D01*
X78448252Y-31715000D01*
X78368117Y-31521057D01*
X78105327Y-31257808D01*
X77761799Y-31115162D01*
X77389833Y-31114838D01*
X77046057Y-31256883D01*
X76782808Y-31519673D01*
X76640162Y-31863201D01*
X76639838Y-32235167D01*
X72739635Y-32235167D01*
X72964788Y-32010014D01*
X73135167Y-32010162D01*
X73478943Y-31868117D01*
X73742192Y-31605327D01*
X73884838Y-31261799D01*
X73885057Y-31010167D01*
X83589838Y-31010167D01*
X83731883Y-31353943D01*
X83765000Y-31387118D01*
X83765000Y-32787537D01*
X83732808Y-32819673D01*
X83590162Y-33163201D01*
X83589838Y-33535167D01*
X83731883Y-33878943D01*
X83994673Y-34142192D01*
X84338201Y-34284838D01*
X84710167Y-34285162D01*
X85053943Y-34143117D01*
X85317192Y-33880327D01*
X85459838Y-33536799D01*
X85460162Y-33164833D01*
X85318117Y-32821057D01*
X85285000Y-32787882D01*
X85285000Y-31387463D01*
X85317192Y-31355327D01*
X85459838Y-31011799D01*
X85460162Y-30639833D01*
X85318117Y-30296057D01*
X85055327Y-30032808D01*
X84711799Y-29890162D01*
X84339833Y-29889838D01*
X83996057Y-30031883D01*
X83732808Y-30294673D01*
X83590162Y-30638201D01*
X83589838Y-31010167D01*
X73885057Y-31010167D01*
X73885162Y-30889833D01*
X73743117Y-30546057D01*
X73480327Y-30282808D01*
X73136799Y-30140162D01*
X72764833Y-30139838D01*
X72421057Y-30281883D01*
X72157808Y-30544673D01*
X72070667Y-30754531D01*
X70760320Y-32064878D01*
X70714833Y-32064838D01*
X70371057Y-32206883D01*
X70107808Y-32469673D01*
X69965162Y-32813201D01*
X69964838Y-33185167D01*
X60685000Y-33185167D01*
X60685000Y-27274775D01*
X63839803Y-27274775D01*
X64012233Y-27692086D01*
X64331235Y-28011645D01*
X64748244Y-28184803D01*
X65199775Y-28185197D01*
X65200252Y-28185000D01*
X79644860Y-28185000D01*
X80079206Y-28098603D01*
X80447426Y-27852566D01*
X81547012Y-26752980D01*
X81706505Y-26593765D01*
X81879663Y-26176756D01*
X81880057Y-25725225D01*
X81707627Y-25307914D01*
X81388625Y-24988355D01*
X80971616Y-24815197D01*
X80520085Y-24814803D01*
X80102774Y-24987233D01*
X79783215Y-25306235D01*
X79783018Y-25306710D01*
X79174728Y-25915000D01*
X69784802Y-25915000D01*
X72762401Y-22937401D01*
X72927148Y-22690840D01*
X72985000Y-22400000D01*
X72985000Y-21962463D01*
X73017192Y-21930327D01*
X73159838Y-21586799D01*
X73160162Y-21214833D01*
X73018117Y-20871057D01*
X72755327Y-20607808D01*
X72411799Y-20465162D01*
X72039833Y-20464838D01*
X71696057Y-20606883D01*
X71432808Y-20869673D01*
X71290162Y-21213201D01*
X71289838Y-21585167D01*
X71431883Y-21928943D01*
X71465000Y-21962118D01*
X71465000Y-22085198D01*
X67635198Y-25915000D01*
X64975990Y-25915000D01*
X64750225Y-25914803D01*
X64332914Y-26087233D01*
X64013355Y-26406235D01*
X63840197Y-26823244D01*
X63839803Y-27274775D01*
X60685000Y-27274775D01*
X60685000Y-27056822D01*
X60734838Y-26936799D01*
X60735162Y-26564833D01*
X60593117Y-26221057D01*
X60330327Y-25957808D01*
X60275400Y-25935000D01*
X60800000Y-25935000D01*
X61090839Y-25877148D01*
X61337401Y-25712401D01*
X61814680Y-25235122D01*
X61860167Y-25235162D01*
X62203943Y-25093117D01*
X62467192Y-24830327D01*
X62609838Y-24486799D01*
X62610162Y-24114833D01*
X62543294Y-23952998D01*
X65532669Y-23952998D01*
X65674714Y-24296774D01*
X65937504Y-24560023D01*
X66281032Y-24702669D01*
X66652998Y-24702993D01*
X66996774Y-24560948D01*
X67260023Y-24298158D01*
X67402669Y-23954630D01*
X67402993Y-23582664D01*
X67260948Y-23238888D01*
X67227831Y-23205713D01*
X67227831Y-21744619D01*
X67267192Y-21705327D01*
X67409838Y-21361799D01*
X67410162Y-20989833D01*
X67268117Y-20646057D01*
X67005327Y-20382808D01*
X66661799Y-20240162D01*
X66289833Y-20239838D01*
X65946057Y-20381883D01*
X65682808Y-20644673D01*
X65540162Y-20988201D01*
X65539838Y-21360167D01*
X65681883Y-21703943D01*
X65707831Y-21729936D01*
X65707831Y-23205368D01*
X65675639Y-23237504D01*
X65532993Y-23581032D01*
X65532669Y-23952998D01*
X62543294Y-23952998D01*
X62468117Y-23771057D01*
X62205327Y-23507808D01*
X61960039Y-23405955D01*
X61960162Y-23264833D01*
X61818117Y-22921057D01*
X61555327Y-22657808D01*
X61211799Y-22515162D01*
X60839833Y-22514838D01*
X60496057Y-22656883D01*
X60232808Y-22919673D01*
X60120558Y-23190000D01*
X59562463Y-23190000D01*
X59530327Y-23157808D01*
X59186799Y-23015162D01*
X58814833Y-23014838D01*
X58471057Y-23156883D01*
X58207808Y-23419673D01*
X58065162Y-23763201D01*
X58064838Y-24135167D01*
X58206883Y-24478943D01*
X58227819Y-24499915D01*
X58082808Y-24644673D01*
X57940162Y-24988201D01*
X57939838Y-25360167D01*
X58081883Y-25703943D01*
X58344673Y-25967192D01*
X58688201Y-26109838D01*
X59060167Y-26110162D01*
X59158008Y-26069735D01*
X59007808Y-26219673D01*
X58865162Y-26563201D01*
X58864838Y-26935167D01*
X58915000Y-27056569D01*
X58915000Y-38508421D01*
X58316164Y-39107256D01*
X58196057Y-39156883D01*
X57932808Y-39419673D01*
X57790162Y-39763201D01*
X57789838Y-40135167D01*
X26401744Y-40135167D01*
X26076577Y-39810000D01*
X36887537Y-39810000D01*
X36919673Y-39842192D01*
X37263201Y-39984838D01*
X37635167Y-39985162D01*
X37978943Y-39843117D01*
X38242192Y-39580327D01*
X38384838Y-39236799D01*
X38385162Y-38864833D01*
X38243117Y-38521057D01*
X37980327Y-38257808D01*
X37636799Y-38115162D01*
X37264833Y-38114838D01*
X36921057Y-38256883D01*
X36887882Y-38290000D01*
X36269468Y-38290000D01*
X36503943Y-38193117D01*
X36767192Y-37930327D01*
X36909838Y-37586799D01*
X36909879Y-37539923D01*
X39239802Y-35210000D01*
X40047693Y-35210000D01*
X40047629Y-35283925D01*
X39871057Y-35356883D01*
X39607808Y-35619673D01*
X39465162Y-35963201D01*
X39464838Y-36335167D01*
X39606883Y-36678943D01*
X39869673Y-36942192D01*
X40213201Y-37084838D01*
X40585167Y-37085162D01*
X40713430Y-37032165D01*
X40690162Y-37088201D01*
X40689838Y-37460167D01*
X40831883Y-37803943D01*
X40865000Y-37837118D01*
X40865000Y-38525000D01*
X40922852Y-38815839D01*
X41014909Y-38953612D01*
X41014838Y-39035167D01*
X41156883Y-39378943D01*
X41419673Y-39642192D01*
X41763201Y-39784838D01*
X42135167Y-39785162D01*
X42478943Y-39643117D01*
X42742192Y-39380327D01*
X42884838Y-39036799D01*
X42885162Y-38664833D01*
X42743117Y-38321057D01*
X42480327Y-38057808D01*
X42385000Y-38018225D01*
X42385000Y-37837463D01*
X42417192Y-37805327D01*
X42559838Y-37461799D01*
X42560162Y-37089833D01*
X42527245Y-37010167D01*
X44414838Y-37010167D01*
X44556883Y-37353943D01*
X44819673Y-37617192D01*
X45163201Y-37759838D01*
X45210077Y-37759879D01*
X45440000Y-37989802D01*
X45440000Y-38512537D01*
X45407808Y-38544673D01*
X45265162Y-38888201D01*
X45264838Y-39260167D01*
X45406883Y-39603943D01*
X45669673Y-39867192D01*
X46013201Y-40009838D01*
X46385167Y-40010162D01*
X46728943Y-39868117D01*
X46992192Y-39605327D01*
X47088469Y-39373468D01*
X47403943Y-39243117D01*
X47667192Y-38980327D01*
X47809838Y-38636799D01*
X47810162Y-38264833D01*
X47668117Y-37921057D01*
X47635000Y-37887882D01*
X47635000Y-37300000D01*
X47577148Y-37009161D01*
X47444073Y-36809999D01*
X51618066Y-36809999D01*
X51656883Y-36903943D01*
X51919673Y-37167192D01*
X52263201Y-37309838D01*
X52635167Y-37310162D01*
X52978943Y-37168117D01*
X53242192Y-36905327D01*
X53384838Y-36561799D01*
X53385162Y-36189833D01*
X53243117Y-35846057D01*
X52980327Y-35582808D01*
X52636799Y-35440162D01*
X52553883Y-35440090D01*
X52415838Y-35347851D01*
X52124999Y-35289999D01*
X46789801Y-35289999D01*
X46385122Y-34885320D01*
X46385162Y-34839833D01*
X46261059Y-34539479D01*
X46334838Y-34361799D01*
X46335162Y-33989833D01*
X46193117Y-33646057D01*
X46125755Y-33578578D01*
X46102148Y-33459897D01*
X46035000Y-33359403D01*
X46035000Y-32914802D01*
X47614680Y-31335122D01*
X47660167Y-31335162D01*
X48003943Y-31193117D01*
X48267192Y-30930327D01*
X48400134Y-30610167D01*
X52114838Y-30610167D01*
X52256883Y-30953943D01*
X52519673Y-31217192D01*
X52863201Y-31359838D01*
X53235167Y-31360162D01*
X53538083Y-31235000D01*
X55837537Y-31235000D01*
X55869673Y-31267192D01*
X56213201Y-31409838D01*
X56585167Y-31410162D01*
X56928943Y-31268117D01*
X57192192Y-31005327D01*
X57334838Y-30661799D01*
X57335162Y-30289833D01*
X57193117Y-29946057D01*
X56930327Y-29682808D01*
X56586799Y-29540162D01*
X56214833Y-29539838D01*
X55871057Y-29681883D01*
X55837882Y-29715000D01*
X53662376Y-29715000D01*
X53580327Y-29632808D01*
X53236799Y-29490162D01*
X52864833Y-29489838D01*
X52521057Y-29631883D01*
X52257808Y-29894673D01*
X52115162Y-30238201D01*
X52114838Y-30610167D01*
X48400134Y-30610167D01*
X48409838Y-30586799D01*
X48410162Y-30214833D01*
X48268117Y-29871057D01*
X48005327Y-29607808D01*
X47661799Y-29465162D01*
X47289833Y-29464838D01*
X46946057Y-29606883D01*
X46682808Y-29869673D01*
X46540162Y-30213201D01*
X46540121Y-30260077D01*
X44737599Y-32062599D01*
X44572852Y-32309161D01*
X44515000Y-32600000D01*
X44515000Y-33625736D01*
X44547606Y-33789655D01*
X44465162Y-33988201D01*
X44464838Y-34360167D01*
X44588941Y-34660521D01*
X44515162Y-34838201D01*
X44514838Y-35210167D01*
X44656883Y-35553943D01*
X44919673Y-35817192D01*
X45129641Y-35904379D01*
X44821057Y-36031883D01*
X44557808Y-36294673D01*
X44415162Y-36638201D01*
X44414838Y-37010167D01*
X42527245Y-37010167D01*
X42418117Y-36746057D01*
X42155327Y-36482808D01*
X42052793Y-36440232D01*
X43937411Y-34555614D01*
X44102158Y-34309052D01*
X44160010Y-34018213D01*
X44160010Y-29401202D01*
X46026202Y-27535010D01*
X52860433Y-27535010D01*
X52981883Y-27828943D01*
X53244673Y-28092192D01*
X53588201Y-28234838D01*
X53960167Y-28235162D01*
X54303943Y-28093117D01*
X54567192Y-27830327D01*
X54709838Y-27486799D01*
X54710162Y-27114833D01*
X54568117Y-26771057D01*
X54539209Y-26742098D01*
X54634838Y-26511799D01*
X54635162Y-26139833D01*
X54493117Y-25796057D01*
X54230327Y-25532808D01*
X53994783Y-25435001D01*
X54687538Y-25435001D01*
X54719673Y-25467192D01*
X55063201Y-25609838D01*
X55435167Y-25610162D01*
X55778943Y-25468117D01*
X56042192Y-25205327D01*
X56184838Y-24861799D01*
X56185162Y-24489833D01*
X56043117Y-24146057D01*
X55780327Y-23882808D01*
X55436799Y-23740162D01*
X55064833Y-23739838D01*
X54721057Y-23881883D01*
X54687881Y-23915001D01*
X51149999Y-23915001D01*
X50859160Y-23972853D01*
X50758787Y-24039920D01*
X50664833Y-24039838D01*
X50321057Y-24181883D01*
X50057808Y-24444673D01*
X49915162Y-24788201D01*
X49914838Y-25160167D01*
X50056883Y-25503943D01*
X50117834Y-25565000D01*
X45525000Y-25565000D01*
X45234161Y-25622852D01*
X44987599Y-25787599D01*
X42412599Y-28362599D01*
X42247852Y-28609161D01*
X42190000Y-28900000D01*
X42190000Y-30740099D01*
X41889833Y-30739838D01*
X41546057Y-30881883D01*
X41287489Y-31140000D01*
X39614802Y-31140000D01*
X38237401Y-29762599D01*
X37990839Y-29597852D01*
X37700000Y-29540000D01*
X26312463Y-29540000D01*
X26280327Y-29507808D01*
X25936799Y-29365162D01*
X25564833Y-29364838D01*
X25443431Y-29415000D01*
X25385000Y-29415000D01*
X25385000Y-27210167D01*
X37164838Y-27210167D01*
X37306883Y-27553943D01*
X37569673Y-27817192D01*
X37913201Y-27959838D01*
X38083406Y-27959986D01*
X39232255Y-29108834D01*
X39281883Y-29228943D01*
X39544673Y-29492192D01*
X39888201Y-29634838D01*
X40260167Y-29635162D01*
X40603943Y-29493117D01*
X40867192Y-29230327D01*
X41009838Y-28886799D01*
X41010162Y-28514833D01*
X40868117Y-28171057D01*
X40605327Y-27907808D01*
X40484013Y-27857434D01*
X39025790Y-26399210D01*
X38914726Y-26325000D01*
X38738675Y-26207367D01*
X38682484Y-26196190D01*
X38413090Y-26142603D01*
X38286799Y-26090162D01*
X37914833Y-26089838D01*
X37571057Y-26231883D01*
X37307808Y-26494673D01*
X37165162Y-26838201D01*
X37164838Y-27210167D01*
X25385000Y-27210167D01*
X25385000Y-19285167D01*
X84289838Y-19285167D01*
X84431883Y-19628943D01*
X84694673Y-19892192D01*
X85038201Y-20034838D01*
X85410167Y-20035162D01*
X85471064Y-20010000D01*
X86518178Y-20010000D01*
X86638201Y-20059838D01*
X87010167Y-20060162D01*
X87353943Y-19918117D01*
X87617192Y-19655327D01*
X87759838Y-19311799D01*
X87759839Y-19310167D01*
X89364838Y-19310167D01*
X89506883Y-19653943D01*
X89769673Y-19917192D01*
X89890987Y-19967566D01*
X89999208Y-20075787D01*
X89999210Y-20075790D01*
X90133123Y-20165267D01*
X90286325Y-20267633D01*
X90625000Y-20335000D01*
X91893178Y-20335000D01*
X92013201Y-20384838D01*
X92385167Y-20385162D01*
X92728943Y-20243117D01*
X92992192Y-19980327D01*
X93134838Y-19636799D01*
X93135162Y-19264833D01*
X92993117Y-18921057D01*
X92730327Y-18657808D01*
X92386799Y-18515162D01*
X92014833Y-18514838D01*
X91893431Y-18565000D01*
X91062114Y-18565000D01*
X90830327Y-18332808D01*
X90486799Y-18190162D01*
X90114833Y-18189838D01*
X89771057Y-18331883D01*
X89507808Y-18594673D01*
X89365162Y-18938201D01*
X89364838Y-19310167D01*
X87759839Y-19310167D01*
X87760162Y-18939833D01*
X87618117Y-18596057D01*
X87355327Y-18332808D01*
X87011799Y-18190162D01*
X86639833Y-18189838D01*
X86518431Y-18240000D01*
X85592028Y-18240000D01*
X85411799Y-18165162D01*
X85039833Y-18164838D01*
X84696057Y-18306883D01*
X84432808Y-18569673D01*
X84290162Y-18913201D01*
X84289838Y-19285167D01*
X25385000Y-19285167D01*
X25385000Y-15210167D01*
X28264838Y-15210167D01*
X28315000Y-15331569D01*
X28315000Y-17024995D01*
X28314999Y-17025000D01*
X28337907Y-17140162D01*
X28382367Y-17363675D01*
X28504230Y-17546057D01*
X28574210Y-17650790D01*
X29407255Y-18483835D01*
X29456883Y-18603943D01*
X29719673Y-18867192D01*
X30063201Y-19009838D01*
X30435167Y-19010162D01*
X30778943Y-18868117D01*
X31042192Y-18605327D01*
X31184838Y-18261799D01*
X31185162Y-17889833D01*
X31043117Y-17546057D01*
X30780327Y-17282808D01*
X30659013Y-17232434D01*
X30085000Y-16658420D01*
X30085000Y-15331822D01*
X30134838Y-15211799D01*
X30135162Y-14839833D01*
X29993117Y-14496057D01*
X29730327Y-14232808D01*
X29386799Y-14090162D01*
X29014833Y-14089838D01*
X28671057Y-14231883D01*
X28407808Y-14494673D01*
X28265162Y-14838201D01*
X28264838Y-15210167D01*
X25385000Y-15210167D01*
X25385000Y-14931822D01*
X25434838Y-14811799D01*
X25435162Y-14439833D01*
X25293117Y-14096057D01*
X25030327Y-13832808D01*
X24686799Y-13690162D01*
X24314833Y-13689838D01*
X23971057Y-13831883D01*
X23707808Y-14094673D01*
X23565162Y-14438201D01*
X23564838Y-14810167D01*
X23615000Y-14931569D01*
X23615000Y-29415000D01*
X23165003Y-29415000D01*
X23164998Y-29414999D01*
X22882514Y-29471190D01*
X22826323Y-29482367D01*
X22539208Y-29674210D01*
X22539206Y-29674213D01*
X18974209Y-33239209D01*
X18782366Y-33526324D01*
X18780163Y-33537401D01*
X18714998Y-33864999D01*
X10422452Y-33864999D01*
X10202068Y-33331629D01*
X9820818Y-32949712D01*
X10200551Y-32570643D01*
X10434733Y-32006670D01*
X10435265Y-31396009D01*
X10202068Y-30831629D01*
X9820818Y-30449712D01*
X10200551Y-30070643D01*
X10434733Y-29506670D01*
X10435265Y-28896009D01*
X10202068Y-28331629D01*
X9820818Y-27949712D01*
X10200551Y-27570643D01*
X10434733Y-27006670D01*
X10435265Y-26396009D01*
X10202068Y-25831629D01*
X9820818Y-25449712D01*
X10200551Y-25070643D01*
X10434733Y-24506670D01*
X10435265Y-23896009D01*
X10202068Y-23331629D01*
X9820818Y-22949712D01*
X10200551Y-22570643D01*
X10434733Y-22006670D01*
X10435265Y-21396009D01*
X10202068Y-20831629D01*
X9820818Y-20449712D01*
X10200551Y-20070643D01*
X10434733Y-19506670D01*
X10435265Y-18896009D01*
X10202068Y-18331629D01*
X9770643Y-17899449D01*
X9206670Y-17665267D01*
X8596009Y-17664735D01*
X8031629Y-17897932D01*
X7599449Y-18329357D01*
X7365267Y-18893330D01*
X7364735Y-19503991D01*
X710000Y-19503991D01*
X710000Y-12120069D01*
X6789830Y-12120069D01*
X6939471Y-12482229D01*
X7216314Y-12759555D01*
X7578212Y-12909828D01*
X7970069Y-12910170D01*
X8332229Y-12760529D01*
X8609555Y-12483686D01*
X8759828Y-12121788D01*
X8760170Y-11729931D01*
X8610529Y-11367771D01*
X8333686Y-11090445D01*
X7971788Y-10940172D01*
X7579931Y-10939830D01*
X7217771Y-11089471D01*
X6940445Y-11366314D01*
X6790172Y-11728212D01*
X6789830Y-12120069D01*
X710000Y-12120069D01*
X710000Y-10921884D01*
X3863015Y-10921884D01*
X4012656Y-11284044D01*
X4289499Y-11561370D01*
X4651397Y-11711643D01*
X5043254Y-11711985D01*
X5405414Y-11562344D01*
X5682740Y-11285501D01*
X5833013Y-10923603D01*
X5833014Y-10921884D01*
X9716645Y-10921884D01*
X9866286Y-11284044D01*
X10143129Y-11561370D01*
X10505027Y-11711643D01*
X10896884Y-11711985D01*
X11259044Y-11562344D01*
X11536370Y-11285501D01*
X11686643Y-10923603D01*
X11686985Y-10531746D01*
X11580605Y-10274285D01*
X42914760Y-10274285D01*
X43125169Y-10783515D01*
X43514436Y-11173461D01*
X44023298Y-11384759D01*
X44574285Y-11385240D01*
X45083515Y-11174831D01*
X45473461Y-10785564D01*
X45684759Y-10276702D01*
X45684761Y-10274285D01*
X47914760Y-10274285D01*
X48125169Y-10783515D01*
X48514436Y-11173461D01*
X49023298Y-11384759D01*
X49574285Y-11385240D01*
X49876985Y-11260167D01*
X64489838Y-11260167D01*
X64631883Y-11603943D01*
X64894673Y-11867192D01*
X65238201Y-12009838D01*
X65610167Y-12010162D01*
X65953943Y-11868117D01*
X65987118Y-11835000D01*
X70810198Y-11835000D01*
X72189878Y-13214680D01*
X72189838Y-13260167D01*
X72331883Y-13603943D01*
X72594673Y-13867192D01*
X72938201Y-14009838D01*
X73310167Y-14010162D01*
X73653943Y-13868117D01*
X73711994Y-13810167D01*
X80639838Y-13810167D01*
X80781883Y-14153943D01*
X81044673Y-14417192D01*
X81388201Y-14559838D01*
X81760167Y-14560162D01*
X81972589Y-14472391D01*
X82114878Y-14614680D01*
X82114838Y-14660167D01*
X82256883Y-15003943D01*
X82519673Y-15267192D01*
X82863201Y-15409838D01*
X83235167Y-15410162D01*
X83578943Y-15268117D01*
X83842192Y-15005327D01*
X83984838Y-14661799D01*
X83985162Y-14289833D01*
X83843117Y-13946057D01*
X83822138Y-13925041D01*
X84017192Y-13730327D01*
X84159838Y-13386799D01*
X84159879Y-13339923D01*
X85087572Y-12412230D01*
X86638033Y-12412230D01*
X86780078Y-12756006D01*
X87042868Y-13019255D01*
X87386396Y-13161901D01*
X87433272Y-13161942D01*
X87908741Y-13637411D01*
X88062277Y-13740000D01*
X88155302Y-13802157D01*
X88446140Y-13860010D01*
X88938599Y-13860011D01*
X96860209Y-13860011D01*
X97639878Y-14639680D01*
X97639838Y-14685167D01*
X97781883Y-15028943D01*
X98044673Y-15292192D01*
X98388201Y-15434838D01*
X98760167Y-15435162D01*
X99103943Y-15293117D01*
X99367192Y-15030327D01*
X99509838Y-14686799D01*
X99510162Y-14314833D01*
X99407061Y-14065309D01*
X99492192Y-13980327D01*
X99634838Y-13636799D01*
X99635162Y-13264833D01*
X99493117Y-12921057D01*
X99230327Y-12657808D01*
X98886799Y-12515162D01*
X98839923Y-12515121D01*
X98437402Y-12112600D01*
X98190840Y-11947853D01*
X97900001Y-11890001D01*
X97435118Y-11890001D01*
X97435162Y-11839833D01*
X97293117Y-11496057D01*
X97030327Y-11232808D01*
X96909013Y-11182434D01*
X94785000Y-9058420D01*
X94785000Y-7531822D01*
X94834838Y-7411799D01*
X94835162Y-7039833D01*
X94693117Y-6696057D01*
X94430327Y-6432808D01*
X94086799Y-6290162D01*
X93714833Y-6289838D01*
X93371057Y-6431883D01*
X93107808Y-6694673D01*
X92965162Y-7038201D01*
X92964838Y-7410167D01*
X93015000Y-7531569D01*
X93015000Y-9424995D01*
X93014999Y-9425000D01*
X93071190Y-9707484D01*
X93082367Y-9763675D01*
X93235056Y-9992192D01*
X93274210Y-10050790D01*
X95113422Y-11890001D01*
X89439803Y-11890001D01*
X89035122Y-11485320D01*
X89035162Y-11439833D01*
X88893117Y-11096057D01*
X88630327Y-10832808D01*
X88286799Y-10690162D01*
X87914833Y-10689838D01*
X87571057Y-10831883D01*
X87307808Y-11094673D01*
X87192336Y-11372759D01*
X87044252Y-11433946D01*
X86781003Y-11696736D01*
X86638357Y-12040264D01*
X86638033Y-12412230D01*
X85087572Y-12412230D01*
X87364680Y-10135122D01*
X87410167Y-10135162D01*
X87753943Y-9993117D01*
X88017192Y-9730327D01*
X88159838Y-9386799D01*
X88160162Y-9014833D01*
X88018117Y-8671057D01*
X87755327Y-8407808D01*
X87411799Y-8265162D01*
X87039833Y-8264838D01*
X86696057Y-8406883D01*
X86534385Y-8568274D01*
X86634716Y-8326648D01*
X86635284Y-7676205D01*
X86386894Y-7075057D01*
X85927363Y-6614722D01*
X85326648Y-6365284D01*
X84676205Y-6364716D01*
X84075057Y-6613106D01*
X83614722Y-7072637D01*
X83365284Y-7673352D01*
X83364716Y-8323795D01*
X83613106Y-8924943D01*
X84072637Y-9385278D01*
X84673352Y-9634716D01*
X85323795Y-9635284D01*
X85924943Y-9386894D01*
X86290154Y-9022321D01*
X86290121Y-9060077D01*
X83085320Y-12264878D01*
X83039833Y-12264838D01*
X82696057Y-12406883D01*
X82432808Y-12669673D01*
X82340127Y-12892873D01*
X82200000Y-12865000D01*
X82137463Y-12865000D01*
X82105327Y-12832808D01*
X81761799Y-12690162D01*
X81389833Y-12689838D01*
X81046057Y-12831883D01*
X80782808Y-13094673D01*
X80640162Y-13438201D01*
X80639838Y-13810167D01*
X73711994Y-13810167D01*
X73917192Y-13605327D01*
X74059838Y-13261799D01*
X74060162Y-12889833D01*
X73918117Y-12546057D01*
X73655327Y-12282808D01*
X73311799Y-12140162D01*
X73264923Y-12140121D01*
X71662401Y-10537599D01*
X71415839Y-10372852D01*
X71125000Y-10315000D01*
X65987463Y-10315000D01*
X65955327Y-10282808D01*
X65611799Y-10140162D01*
X65239833Y-10139838D01*
X64896057Y-10281883D01*
X64632808Y-10544673D01*
X64490162Y-10888201D01*
X64489838Y-11260167D01*
X49876985Y-11260167D01*
X50083515Y-11174831D01*
X50473461Y-10785564D01*
X50684759Y-10276702D01*
X50685240Y-9725715D01*
X50474831Y-9216485D01*
X50119134Y-8860167D01*
X60389838Y-8860167D01*
X60531883Y-9203943D01*
X60794673Y-9467192D01*
X61138201Y-9609838D01*
X61510167Y-9610162D01*
X61853943Y-9468117D01*
X62117192Y-9205327D01*
X62167566Y-9084014D01*
X62927784Y-8323795D01*
X68364716Y-8323795D01*
X68613106Y-8924943D01*
X69072637Y-9385278D01*
X69673352Y-9634716D01*
X70323795Y-9635284D01*
X70924943Y-9386894D01*
X71385278Y-8927363D01*
X71634716Y-8326648D01*
X71634718Y-8323795D01*
X71864716Y-8323795D01*
X72113106Y-8924943D01*
X72572637Y-9385278D01*
X73173352Y-9634716D01*
X73823795Y-9635284D01*
X74424943Y-9386894D01*
X74659715Y-9152532D01*
X80527073Y-9152532D01*
X80625736Y-9419387D01*
X81235461Y-9645908D01*
X81885460Y-9621856D01*
X82374264Y-9419387D01*
X82472927Y-9152532D01*
X81500000Y-8179605D01*
X80527073Y-9152532D01*
X74659715Y-9152532D01*
X74885278Y-8927363D01*
X75134716Y-8326648D01*
X75135232Y-7735461D01*
X79854092Y-7735461D01*
X79878144Y-8385460D01*
X80080613Y-8874264D01*
X80347468Y-8972927D01*
X81320395Y-8000000D01*
X81679605Y-8000000D01*
X82652532Y-8972927D01*
X82919387Y-8874264D01*
X83145908Y-8264539D01*
X83121856Y-7614540D01*
X82919387Y-7125736D01*
X82652532Y-7027073D01*
X81679605Y-8000000D01*
X81320395Y-8000000D01*
X80347468Y-7027073D01*
X80080613Y-7125736D01*
X79854092Y-7735461D01*
X75135232Y-7735461D01*
X75135284Y-7676205D01*
X74886894Y-7075057D01*
X74659703Y-6847468D01*
X80527073Y-6847468D01*
X81500000Y-7820395D01*
X82472927Y-6847468D01*
X82374264Y-6580613D01*
X81764539Y-6354092D01*
X81114540Y-6378144D01*
X80625736Y-6580613D01*
X80527073Y-6847468D01*
X74659703Y-6847468D01*
X74427363Y-6614722D01*
X73826648Y-6365284D01*
X73176205Y-6364716D01*
X72575057Y-6613106D01*
X72114722Y-7072637D01*
X71865284Y-7673352D01*
X71864716Y-8323795D01*
X71634718Y-8323795D01*
X71635284Y-7676205D01*
X71386894Y-7075057D01*
X70927363Y-6614722D01*
X70326648Y-6365284D01*
X69676205Y-6364716D01*
X69075057Y-6613106D01*
X68614722Y-7072637D01*
X68365284Y-7673352D01*
X68364716Y-8323795D01*
X62927784Y-8323795D01*
X66991579Y-4260000D01*
X71393178Y-4260000D01*
X71513201Y-4309838D01*
X71885167Y-4310162D01*
X72228943Y-4168117D01*
X72492192Y-3905327D01*
X72634838Y-3561799D01*
X72635162Y-3189833D01*
X72493117Y-2846057D01*
X72230327Y-2582808D01*
X71886799Y-2440162D01*
X71514833Y-2439838D01*
X71393431Y-2490000D01*
X66625005Y-2490000D01*
X66625000Y-2489999D01*
X66342516Y-2546190D01*
X66286325Y-2557367D01*
X65999210Y-2749210D01*
X65999208Y-2749213D01*
X60916164Y-7832256D01*
X60796057Y-7881883D01*
X60532808Y-8144673D01*
X60390162Y-8488201D01*
X60389838Y-8860167D01*
X50119134Y-8860167D01*
X50085564Y-8826539D01*
X49576702Y-8615241D01*
X49025715Y-8614760D01*
X48516485Y-8825169D01*
X48126539Y-9214436D01*
X47915241Y-9723298D01*
X47914760Y-10274285D01*
X45684761Y-10274285D01*
X45685240Y-9725715D01*
X45474831Y-9216485D01*
X45085564Y-8826539D01*
X44576702Y-8615241D01*
X44025715Y-8614760D01*
X43516485Y-8825169D01*
X43126539Y-9214436D01*
X42915241Y-9723298D01*
X42914760Y-10274285D01*
X11580605Y-10274285D01*
X11537344Y-10169586D01*
X11260501Y-9892260D01*
X10898603Y-9741987D01*
X10506746Y-9741645D01*
X10144586Y-9891286D01*
X9867260Y-10168129D01*
X9716987Y-10530027D01*
X9716645Y-10921884D01*
X5833014Y-10921884D01*
X5833355Y-10531746D01*
X5683714Y-10169586D01*
X5406871Y-9892260D01*
X5044973Y-9741987D01*
X4653116Y-9741645D01*
X4290956Y-9891286D01*
X4013630Y-10168129D01*
X3863357Y-10530027D01*
X3863015Y-10921884D01*
X710000Y-10921884D01*
X710000Y-7995069D01*
X2664830Y-7995069D01*
X2814471Y-8357229D01*
X3091314Y-8634555D01*
X3453212Y-8784828D01*
X3845069Y-8785170D01*
X4207229Y-8635529D01*
X4484555Y-8358686D01*
X4634828Y-7996788D01*
X4634829Y-7995069D01*
X10914830Y-7995069D01*
X11064471Y-8357229D01*
X11341314Y-8634555D01*
X11703212Y-8784828D01*
X12095069Y-8785170D01*
X12457229Y-8635529D01*
X12734555Y-8358686D01*
X12884828Y-7996788D01*
X12885170Y-7604931D01*
X12735529Y-7242771D01*
X12458686Y-6965445D01*
X12096788Y-6815172D01*
X11704931Y-6814830D01*
X11342771Y-6964471D01*
X11065445Y-7241314D01*
X10915172Y-7603212D01*
X10914830Y-7995069D01*
X4634829Y-7995069D01*
X4635170Y-7604931D01*
X4485529Y-7242771D01*
X4208686Y-6965445D01*
X3846788Y-6815172D01*
X3454931Y-6814830D01*
X3092771Y-6964471D01*
X2815445Y-7241314D01*
X2665172Y-7603212D01*
X2664830Y-7995069D01*
X710000Y-7995069D01*
X710000Y-5971517D01*
X43508088Y-5971517D01*
X43576077Y-6212460D01*
X44095171Y-6397201D01*
X44645448Y-6369230D01*
X45023923Y-6212460D01*
X45091912Y-5971517D01*
X44300000Y-5179605D01*
X43508088Y-5971517D01*
X710000Y-5971517D01*
X710000Y-5068254D01*
X3863015Y-5068254D01*
X4012656Y-5430414D01*
X4289499Y-5707740D01*
X4651397Y-5858013D01*
X5043254Y-5858355D01*
X5405414Y-5708714D01*
X5682740Y-5431871D01*
X5833013Y-5069973D01*
X5833014Y-5068254D01*
X9716645Y-5068254D01*
X9866286Y-5430414D01*
X10143129Y-5707740D01*
X10505027Y-5858013D01*
X10896884Y-5858355D01*
X11259044Y-5708714D01*
X11536370Y-5431871D01*
X11686643Y-5069973D01*
X11686882Y-4795171D01*
X42902799Y-4795171D01*
X42930770Y-5345448D01*
X43087540Y-5723923D01*
X43328483Y-5791912D01*
X44120395Y-5000000D01*
X44479605Y-5000000D01*
X45271517Y-5791912D01*
X45512460Y-5723923D01*
X45672482Y-5274285D01*
X47914760Y-5274285D01*
X48125169Y-5783515D01*
X48514436Y-6173461D01*
X49023298Y-6384759D01*
X49574285Y-6385240D01*
X50083515Y-6174831D01*
X50473461Y-5785564D01*
X50684759Y-5276702D01*
X50685240Y-4725715D01*
X50474831Y-4216485D01*
X50085564Y-3826539D01*
X49576702Y-3615241D01*
X49025715Y-3614760D01*
X48516485Y-3825169D01*
X48126539Y-4214436D01*
X47915241Y-4723298D01*
X47914760Y-5274285D01*
X45672482Y-5274285D01*
X45697201Y-5204829D01*
X45669230Y-4654552D01*
X45512460Y-4276077D01*
X45271517Y-4208088D01*
X44479605Y-5000000D01*
X44120395Y-5000000D01*
X43328483Y-4208088D01*
X43087540Y-4276077D01*
X42902799Y-4795171D01*
X11686882Y-4795171D01*
X11686985Y-4678116D01*
X11537344Y-4315956D01*
X11260501Y-4038630D01*
X11236065Y-4028483D01*
X43508088Y-4028483D01*
X44300000Y-4820395D01*
X45091912Y-4028483D01*
X45023923Y-3787540D01*
X44504829Y-3602799D01*
X43954552Y-3630770D01*
X43576077Y-3787540D01*
X43508088Y-4028483D01*
X11236065Y-4028483D01*
X10898603Y-3888357D01*
X10506746Y-3888015D01*
X10144586Y-4037656D01*
X9867260Y-4314499D01*
X9716987Y-4676397D01*
X9716645Y-5068254D01*
X5833014Y-5068254D01*
X5833355Y-4678116D01*
X5683714Y-4315956D01*
X5406871Y-4038630D01*
X5044973Y-3888357D01*
X4653116Y-3888015D01*
X4290956Y-4037656D01*
X4013630Y-4314499D01*
X3863357Y-4676397D01*
X3863015Y-5068254D01*
X710000Y-5068254D01*
X710000Y-3870069D01*
X6789830Y-3870069D01*
X6939471Y-4232229D01*
X7216314Y-4509555D01*
X7578212Y-4659828D01*
X7970069Y-4660170D01*
X8332229Y-4510529D01*
X8609555Y-4233686D01*
X8759828Y-3871788D01*
X8760170Y-3479931D01*
X8610529Y-3117771D01*
X8333686Y-2840445D01*
X7971788Y-2690172D01*
X7579931Y-2689830D01*
X7217771Y-2839471D01*
X6940445Y-3116314D01*
X6790172Y-3478212D01*
X6789830Y-3870069D01*
X710000Y-3870069D01*
X710000Y-710000D01*
X102873000Y-710000D01*
X102873000Y-12244246D01*
X102873000Y-12244246D01*
G37*
X102873000Y-12244246D02*
X102840197Y-12323244D01*
X102839803Y-12774775D01*
X102840000Y-12775252D01*
X102840000Y-15499002D01*
X102873000Y-15664904D01*
X102873000Y-23046420D01*
X102200790Y-22374210D01*
X101951750Y-22207808D01*
X101913675Y-22182367D01*
X101857484Y-22171190D01*
X101575000Y-22114999D01*
X101574995Y-22115000D01*
X99206822Y-22115000D01*
X99086799Y-22065162D01*
X98714833Y-22064838D01*
X98371057Y-22206883D01*
X98107808Y-22469673D01*
X97965162Y-22813201D01*
X97964838Y-23185167D01*
X98106883Y-23528943D01*
X98369673Y-23792192D01*
X98713201Y-23934838D01*
X99085167Y-23935162D01*
X99206569Y-23885000D01*
X101208420Y-23885000D01*
X102873000Y-25549580D01*
X102873000Y-29625000D01*
X102184346Y-29625000D01*
X99999673Y-27440327D01*
X99307029Y-26977517D01*
X98490000Y-26815000D01*
X97672971Y-26977517D01*
X96980327Y-27440327D01*
X96517517Y-28132971D01*
X96355000Y-28950000D01*
X96517517Y-29767029D01*
X96980327Y-30459673D01*
X97435654Y-30915000D01*
X89056822Y-30915000D01*
X88936799Y-30865162D01*
X88564833Y-30864838D01*
X88310000Y-30970133D01*
X88310000Y-25164802D01*
X88339680Y-25135122D01*
X88385167Y-25135162D01*
X88728943Y-24993117D01*
X88992192Y-24730327D01*
X89134838Y-24386799D01*
X89135162Y-24014833D01*
X88993117Y-23671057D01*
X88730327Y-23407808D01*
X88386799Y-23265162D01*
X88014833Y-23264838D01*
X87671057Y-23406883D01*
X87407808Y-23669673D01*
X87265162Y-24013201D01*
X87265121Y-24060077D01*
X87012599Y-24312599D01*
X86847852Y-24559161D01*
X86790000Y-24850000D01*
X86790000Y-42360198D01*
X85662599Y-43487599D01*
X85497852Y-43734161D01*
X85440000Y-44025000D01*
X85440000Y-49012668D01*
X85332808Y-49119673D01*
X85204116Y-49429596D01*
X84896057Y-49556883D01*
X84632808Y-49819673D01*
X84490162Y-50163201D01*
X84489838Y-50535167D01*
X84631883Y-50878943D01*
X84894673Y-51142192D01*
X85103588Y-51228942D01*
X85236325Y-51317633D01*
X85292516Y-51328810D01*
X85575000Y-51385001D01*
X85575005Y-51385000D01*
X86518178Y-51385000D01*
X86638201Y-51434838D01*
X87010167Y-51435162D01*
X87353943Y-51293117D01*
X87617192Y-51030327D01*
X87759838Y-50686799D01*
X87760162Y-50314833D01*
X87618117Y-49971057D01*
X87355327Y-49707808D01*
X87060057Y-49585201D01*
X87060162Y-49464833D01*
X86960000Y-49222422D01*
X86960000Y-44339802D01*
X88087401Y-43212401D01*
X88252148Y-42965840D01*
X88310000Y-42675000D01*
X88310000Y-32629699D01*
X88563201Y-32734838D01*
X88935167Y-32735162D01*
X89056569Y-32685000D01*
X97333420Y-32685000D01*
X102873000Y-38224579D01*
X102873000Y-41165000D01*
X97525000Y-41165000D01*
X96707971Y-41327517D01*
X96015327Y-41790327D01*
X95552517Y-42482971D01*
X95390000Y-43300000D01*
X95552517Y-44117029D01*
X96015327Y-44809673D01*
X96707971Y-45272483D01*
X97525000Y-45435000D01*
X102873000Y-45435000D01*
X102873000Y-62790000D01*
X710000Y-62790000D01*
X710000Y-59893254D01*
X6788015Y-59893254D01*
X6937656Y-60255414D01*
X7214499Y-60532740D01*
X7576397Y-60683013D01*
X7968254Y-60683355D01*
X8330414Y-60533714D01*
X8607740Y-60256871D01*
X8758013Y-59894973D01*
X8758355Y-59503116D01*
X8608714Y-59140956D01*
X8331871Y-58863630D01*
X7969973Y-58713357D01*
X7578116Y-58713015D01*
X7215956Y-58862656D01*
X6938630Y-59139499D01*
X6788357Y-59501397D01*
X6788015Y-59893254D01*
X710000Y-59893254D01*
X710000Y-58695069D01*
X3861200Y-58695069D01*
X4010841Y-59057229D01*
X4287684Y-59334555D01*
X4649582Y-59484828D01*
X5041439Y-59485170D01*
X5403599Y-59335529D01*
X5680925Y-59058686D01*
X5831198Y-58696788D01*
X5831199Y-58695069D01*
X9714830Y-58695069D01*
X9864471Y-59057229D01*
X10141314Y-59334555D01*
X10503212Y-59484828D01*
X10895069Y-59485170D01*
X11257229Y-59335529D01*
X11534555Y-59058686D01*
X11684828Y-58696788D01*
X11685131Y-58349285D01*
X29939760Y-58349285D01*
X30150169Y-58858515D01*
X30539436Y-59248461D01*
X31048298Y-59459759D01*
X31599285Y-59460240D01*
X32108515Y-59249831D01*
X32498461Y-58860564D01*
X32709759Y-58351702D01*
X32709761Y-58349285D01*
X34939760Y-58349285D01*
X35150169Y-58858515D01*
X35539436Y-59248461D01*
X36048298Y-59459759D01*
X36599285Y-59460240D01*
X37108515Y-59249831D01*
X37498461Y-58860564D01*
X37709759Y-58351702D01*
X37710240Y-57800715D01*
X37499831Y-57291485D01*
X37110564Y-56901539D01*
X36601702Y-56690241D01*
X36050715Y-56689760D01*
X35541485Y-56900169D01*
X35151539Y-57289436D01*
X34940241Y-57798298D01*
X34939760Y-58349285D01*
X32709761Y-58349285D01*
X32710240Y-57800715D01*
X32499831Y-57291485D01*
X32110564Y-56901539D01*
X31601702Y-56690241D01*
X31050715Y-56689760D01*
X30541485Y-56900169D01*
X30151539Y-57289436D01*
X29940241Y-57798298D01*
X29939760Y-58349285D01*
X11685131Y-58349285D01*
X11685170Y-58304931D01*
X11535529Y-57942771D01*
X11258686Y-57665445D01*
X10896788Y-57515172D01*
X10504931Y-57514830D01*
X10142771Y-57664471D01*
X9865445Y-57941314D01*
X9715172Y-58303212D01*
X9714830Y-58695069D01*
X5831199Y-58695069D01*
X5831540Y-58304931D01*
X5681899Y-57942771D01*
X5405056Y-57665445D01*
X5043158Y-57515172D01*
X4651301Y-57514830D01*
X4289141Y-57664471D01*
X4011815Y-57941314D01*
X3861542Y-58303212D01*
X3861200Y-58695069D01*
X710000Y-58695069D01*
X710000Y-55768254D01*
X2663015Y-55768254D01*
X2812656Y-56130414D01*
X3089499Y-56407740D01*
X3451397Y-56558013D01*
X3843254Y-56558355D01*
X4205414Y-56408714D01*
X4482740Y-56131871D01*
X4633013Y-55769973D01*
X4633014Y-55768254D01*
X10913015Y-55768254D01*
X11062656Y-56130414D01*
X11339499Y-56407740D01*
X11701397Y-56558013D01*
X12093254Y-56558355D01*
X12455414Y-56408714D01*
X12732740Y-56131871D01*
X12860664Y-55823795D01*
X62964716Y-55823795D01*
X63213106Y-56424943D01*
X63672637Y-56885278D01*
X64273352Y-57134716D01*
X64923795Y-57135284D01*
X65524943Y-56886894D01*
X65985278Y-56427363D01*
X66234716Y-55826648D01*
X66234718Y-55823795D01*
X66464716Y-55823795D01*
X66713106Y-56424943D01*
X67172637Y-56885278D01*
X67773352Y-57134716D01*
X68423795Y-57135284D01*
X69024943Y-56886894D01*
X69485278Y-56427363D01*
X69734716Y-55826648D01*
X69734718Y-55823795D01*
X69964716Y-55823795D01*
X70213106Y-56424943D01*
X70672637Y-56885278D01*
X71273352Y-57134716D01*
X71923795Y-57135284D01*
X72524943Y-56886894D01*
X72985278Y-56427363D01*
X73234716Y-55826648D01*
X73234718Y-55823795D01*
X73464716Y-55823795D01*
X73713106Y-56424943D01*
X74172637Y-56885278D01*
X74773352Y-57134716D01*
X75423795Y-57135284D01*
X76024943Y-56886894D01*
X76485278Y-56427363D01*
X76734716Y-55826648D01*
X76735284Y-55176205D01*
X76486894Y-54575057D01*
X76027363Y-54114722D01*
X75426648Y-53865284D01*
X74776205Y-53864716D01*
X74175057Y-54113106D01*
X73714722Y-54572637D01*
X73465284Y-55173352D01*
X73464716Y-55823795D01*
X73234718Y-55823795D01*
X73235284Y-55176205D01*
X72986894Y-54575057D01*
X72527363Y-54114722D01*
X71926648Y-53865284D01*
X71276205Y-53864716D01*
X70675057Y-54113106D01*
X70214722Y-54572637D01*
X69965284Y-55173352D01*
X69964716Y-55823795D01*
X69734718Y-55823795D01*
X69735284Y-55176205D01*
X69486894Y-54575057D01*
X69027363Y-54114722D01*
X68426648Y-53865284D01*
X67776205Y-53864716D01*
X67175057Y-54113106D01*
X66714722Y-54572637D01*
X66465284Y-55173352D01*
X66464716Y-55823795D01*
X66234718Y-55823795D01*
X66235284Y-55176205D01*
X65986894Y-54575057D01*
X65527363Y-54114722D01*
X64926648Y-53865284D01*
X64276205Y-53864716D01*
X63675057Y-54113106D01*
X63214722Y-54572637D01*
X62965284Y-55173352D01*
X62964716Y-55823795D01*
X12860664Y-55823795D01*
X12883013Y-55769973D01*
X12883355Y-55378116D01*
X12733714Y-55015956D01*
X12456871Y-54738630D01*
X12094973Y-54588357D01*
X11703116Y-54588015D01*
X11340956Y-54737656D01*
X11063630Y-55014499D01*
X10913357Y-55376397D01*
X10913015Y-55768254D01*
X4633014Y-55768254D01*
X4633355Y-55378116D01*
X4483714Y-55015956D01*
X4206871Y-54738630D01*
X3844973Y-54588357D01*
X3453116Y-54588015D01*
X3090956Y-54737656D01*
X2813630Y-55014499D01*
X2663357Y-55376397D01*
X2663015Y-55768254D01*
X710000Y-55768254D01*
X710000Y-52841439D01*
X3861200Y-52841439D01*
X4010841Y-53203599D01*
X4287684Y-53480925D01*
X4649582Y-53631198D01*
X5041439Y-53631540D01*
X5403599Y-53481899D01*
X5680925Y-53205056D01*
X5831198Y-52843158D01*
X5831199Y-52841439D01*
X9714830Y-52841439D01*
X9864471Y-53203599D01*
X10141314Y-53480925D01*
X10503212Y-53631198D01*
X10895069Y-53631540D01*
X11257229Y-53481899D01*
X11390074Y-53349285D01*
X29939760Y-53349285D01*
X30150169Y-53858515D01*
X30539436Y-54248461D01*
X31048298Y-54459759D01*
X31599285Y-54460240D01*
X32108515Y-54249831D01*
X32498461Y-53860564D01*
X32709759Y-53351702D01*
X32709761Y-53349285D01*
X34939760Y-53349285D01*
X35150169Y-53858515D01*
X35539436Y-54248461D01*
X36048298Y-54459759D01*
X36599285Y-54460240D01*
X37108515Y-54249831D01*
X37498461Y-53860564D01*
X37709759Y-53351702D01*
X37710240Y-52800715D01*
X37499831Y-52291485D01*
X37110564Y-51901539D01*
X36601702Y-51690241D01*
X36050715Y-51689760D01*
X35541485Y-51900169D01*
X35151539Y-52289436D01*
X34940241Y-52798298D01*
X34939760Y-53349285D01*
X32709761Y-53349285D01*
X32710240Y-52800715D01*
X32499831Y-52291485D01*
X32110564Y-51901539D01*
X31601702Y-51690241D01*
X31050715Y-51689760D01*
X30541485Y-51900169D01*
X30151539Y-52289436D01*
X29940241Y-52798298D01*
X29939760Y-53349285D01*
X11390074Y-53349285D01*
X11534555Y-53205056D01*
X11684828Y-52843158D01*
X11685170Y-52451301D01*
X11535529Y-52089141D01*
X11258686Y-51811815D01*
X10896788Y-51661542D01*
X10504931Y-51661200D01*
X10142771Y-51810841D01*
X9865445Y-52087684D01*
X9715172Y-52449582D01*
X9714830Y-52841439D01*
X5831199Y-52841439D01*
X5831540Y-52451301D01*
X5681899Y-52089141D01*
X5405056Y-51811815D01*
X5043158Y-51661542D01*
X4651301Y-51661200D01*
X4289141Y-51810841D01*
X4011815Y-52087684D01*
X3861542Y-52449582D01*
X3861200Y-52841439D01*
X710000Y-52841439D01*
X710000Y-51643254D01*
X6788015Y-51643254D01*
X6937656Y-52005414D01*
X7214499Y-52282740D01*
X7576397Y-52433013D01*
X7968254Y-52433355D01*
X8330414Y-52283714D01*
X8607740Y-52006871D01*
X8758013Y-51644973D01*
X8758355Y-51253116D01*
X8608714Y-50890956D01*
X8331871Y-50613630D01*
X7969973Y-50463357D01*
X7578116Y-50463015D01*
X7215956Y-50612656D01*
X6938630Y-50889499D01*
X6788357Y-51251397D01*
X6788015Y-51643254D01*
X710000Y-51643254D01*
X710000Y-47003991D01*
X7364735Y-47003991D01*
X7597932Y-47568371D01*
X8029357Y-48000551D01*
X8593330Y-48234733D01*
X9203991Y-48235265D01*
X9768371Y-48002068D01*
X10200551Y-47570643D01*
X10434733Y-47006670D01*
X10435265Y-46396009D01*
X10202068Y-45831629D01*
X9770643Y-45399449D01*
X9761628Y-45395706D01*
X9800554Y-45280159D01*
X8900000Y-44379605D01*
X7999446Y-45280159D01*
X8038207Y-45395214D01*
X8031629Y-45397932D01*
X7599449Y-45829357D01*
X7365267Y-46393330D01*
X7364735Y-47003991D01*
X710000Y-47003991D01*
X710000Y-43959336D01*
X7353542Y-43959336D01*
X7379161Y-44569460D01*
X7563357Y-45014148D01*
X7819841Y-45100554D01*
X8720395Y-44200000D01*
X9079605Y-44200000D01*
X9980159Y-45100554D01*
X10236643Y-45014148D01*
X10446458Y-44440664D01*
X10420839Y-43830540D01*
X10236643Y-43385852D01*
X9980159Y-43299446D01*
X9079605Y-44200000D01*
X8720395Y-44200000D01*
X7819841Y-43299446D01*
X7563357Y-43385852D01*
X7353542Y-43959336D01*
X710000Y-43959336D01*
X710000Y-19503991D01*
X7364735Y-19503991D01*
X7597932Y-20068371D01*
X7979182Y-20450288D01*
X7599449Y-20829357D01*
X7365267Y-21393330D01*
X7364735Y-22003991D01*
X7597932Y-22568371D01*
X7979182Y-22950288D01*
X7599449Y-23329357D01*
X7365267Y-23893330D01*
X7364735Y-24503991D01*
X7597932Y-25068371D01*
X7979182Y-25450288D01*
X7599449Y-25829357D01*
X7365267Y-26393330D01*
X7364735Y-27003991D01*
X7597932Y-27568371D01*
X7979182Y-27950288D01*
X7599449Y-28329357D01*
X7365267Y-28893330D01*
X7364735Y-29503991D01*
X7597932Y-30068371D01*
X7979182Y-30450288D01*
X7599449Y-30829357D01*
X7365267Y-31393330D01*
X7364735Y-32003991D01*
X7597932Y-32568371D01*
X7979182Y-32950288D01*
X7599449Y-33329357D01*
X7365267Y-33893330D01*
X7364735Y-34503991D01*
X7597932Y-35068371D01*
X7979182Y-35450288D01*
X7599449Y-35829357D01*
X7365267Y-36393330D01*
X7364735Y-37003991D01*
X7597932Y-37568371D01*
X7979182Y-37950288D01*
X7599449Y-38329357D01*
X7365267Y-38893330D01*
X7364735Y-39503991D01*
X7597932Y-40068371D01*
X7979182Y-40450288D01*
X7599449Y-40829357D01*
X7365267Y-41393330D01*
X7364735Y-42003991D01*
X7597932Y-42568371D01*
X8029357Y-43000551D01*
X8038372Y-43004294D01*
X7999446Y-43119841D01*
X8900000Y-44020395D01*
X9635228Y-43285167D01*
X48264838Y-43285167D01*
X48406883Y-43628943D01*
X48440000Y-43662118D01*
X48440000Y-43875000D01*
X48497852Y-44165839D01*
X48662599Y-44412401D01*
X50139878Y-45889680D01*
X50139838Y-45935167D01*
X50281883Y-46278943D01*
X50544673Y-46542192D01*
X50888201Y-46684838D01*
X51165000Y-46685079D01*
X51165000Y-46962537D01*
X51132808Y-46994673D01*
X50990162Y-47338201D01*
X50989838Y-47710167D01*
X51056385Y-47871224D01*
X50982808Y-47944673D01*
X50840162Y-48288201D01*
X50839838Y-48660167D01*
X50981883Y-49003943D01*
X51244673Y-49267192D01*
X51588201Y-49409838D01*
X51960167Y-49410162D01*
X52303943Y-49268117D01*
X52371422Y-49200755D01*
X52490103Y-49177148D01*
X52736665Y-49012401D01*
X52969442Y-48779624D01*
X52969442Y-49155756D01*
X52660320Y-49464878D01*
X52614833Y-49464838D01*
X52271057Y-49606883D01*
X52007808Y-49869673D01*
X51865162Y-50213201D01*
X51864838Y-50585167D01*
X52006883Y-50928943D01*
X52269673Y-51192192D01*
X52613201Y-51334838D01*
X52985167Y-51335162D01*
X53002434Y-51328027D01*
X52915162Y-51538201D01*
X52914838Y-51910167D01*
X53056883Y-52253943D01*
X53319673Y-52517192D01*
X53663201Y-52659838D01*
X54035167Y-52660162D01*
X54378943Y-52518117D01*
X54642192Y-52255327D01*
X54784838Y-51911799D01*
X54784879Y-51864923D01*
X54912401Y-51737401D01*
X55077148Y-51490839D01*
X55135000Y-51200000D01*
X55135000Y-48462463D01*
X55167192Y-48430327D01*
X55309838Y-48086799D01*
X55310162Y-47714833D01*
X55168117Y-47371057D01*
X54905327Y-47107808D01*
X54631882Y-46994263D01*
X54664280Y-46916241D01*
X54664604Y-46544275D01*
X54522559Y-46200499D01*
X54259769Y-45937250D01*
X54181604Y-45904793D01*
X54209838Y-45836799D01*
X54210162Y-45464833D01*
X54068117Y-45121057D01*
X53805327Y-44857808D01*
X53461799Y-44715162D01*
X53089833Y-44714838D01*
X52746057Y-44856883D01*
X52685000Y-44917834D01*
X52685000Y-44674775D01*
X63014803Y-44674775D01*
X63187233Y-45092086D01*
X63506235Y-45411645D01*
X63923244Y-45584803D01*
X64374775Y-45585197D01*
X64375252Y-45585000D01*
X65025000Y-45585000D01*
X65459346Y-45498603D01*
X65827566Y-45252566D01*
X66077566Y-45002566D01*
X66323603Y-44634346D01*
X66346896Y-44517243D01*
X66410000Y-44200000D01*
X66410000Y-43060000D01*
X81224009Y-43060000D01*
X81449775Y-43060197D01*
X81867086Y-42887767D01*
X82186645Y-42568765D01*
X82359803Y-42151756D01*
X82360197Y-41700225D01*
X82187767Y-41282914D01*
X81868765Y-40963355D01*
X81451756Y-40790197D01*
X81000225Y-40789803D01*
X80999748Y-40790000D01*
X65275000Y-40790000D01*
X64840654Y-40876397D01*
X64472434Y-41122434D01*
X64226397Y-41490654D01*
X64140000Y-41925000D01*
X64140000Y-43314990D01*
X63925225Y-43314803D01*
X63507914Y-43487233D01*
X63188355Y-43806235D01*
X63015197Y-44223244D01*
X63014803Y-44674775D01*
X52685000Y-44674775D01*
X52685000Y-44625000D01*
X52642711Y-44412401D01*
X52627148Y-44334160D01*
X52462401Y-44087599D01*
X51210122Y-42835320D01*
X51210162Y-42789833D01*
X51068117Y-42446057D01*
X50805327Y-42182808D01*
X50461799Y-42040162D01*
X50089833Y-42039838D01*
X49746057Y-42181883D01*
X49652348Y-42275428D01*
X49386799Y-42165162D01*
X49014833Y-42164838D01*
X48671057Y-42306883D01*
X48407808Y-42569673D01*
X48265162Y-42913201D01*
X48264838Y-43285167D01*
X9635228Y-43285167D01*
X9800554Y-43119841D01*
X9761793Y-43004786D01*
X9768371Y-43002068D01*
X10200551Y-42570643D01*
X10434733Y-42006670D01*
X10435265Y-41396009D01*
X10202068Y-40831629D01*
X9820818Y-40449712D01*
X10200551Y-40070643D01*
X10434733Y-39506670D01*
X10435265Y-38896009D01*
X10202068Y-38331629D01*
X9820818Y-37949712D01*
X10200551Y-37570643D01*
X10434733Y-37006670D01*
X10435265Y-36396009D01*
X10202068Y-35831629D01*
X9820818Y-35449712D01*
X10200551Y-35070643D01*
X10434733Y-34506670D01*
X10435265Y-33896009D01*
X10422452Y-33864999D01*
X18714998Y-33864999D01*
X18714999Y-33865004D01*
X18714999Y-34584996D01*
X18714998Y-34585001D01*
X18766651Y-34844672D01*
X18782366Y-34923676D01*
X18940380Y-35160162D01*
X18974209Y-35210791D01*
X26374206Y-42610787D01*
X26374208Y-42610790D01*
X26661323Y-42802633D01*
X26717514Y-42813810D01*
X26999998Y-42870001D01*
X27000003Y-42870000D01*
X34918178Y-42870000D01*
X35038201Y-42919838D01*
X35410167Y-42920162D01*
X35753943Y-42778117D01*
X36017192Y-42515327D01*
X36159838Y-42171799D01*
X36160162Y-41799833D01*
X36018117Y-41456057D01*
X35755327Y-41192808D01*
X35411799Y-41050162D01*
X35039833Y-41049838D01*
X34918431Y-41100000D01*
X27366577Y-41100000D01*
X26401744Y-40135167D01*
X57789838Y-40135167D01*
X57931883Y-40478943D01*
X58194673Y-40742192D01*
X58538201Y-40884838D01*
X58910167Y-40885162D01*
X59253943Y-40743117D01*
X59517192Y-40480327D01*
X59567566Y-40359014D01*
X60425787Y-39500792D01*
X60425790Y-39500790D01*
X60553975Y-39308946D01*
X60617634Y-39213674D01*
X60685001Y-38875000D01*
X60685000Y-38874995D01*
X60685000Y-37485167D01*
X78039838Y-37485167D01*
X78146295Y-37742813D01*
X78065162Y-37938201D01*
X78064838Y-38310167D01*
X78206883Y-38653943D01*
X78469673Y-38917192D01*
X78813201Y-39059838D01*
X79185167Y-39060162D01*
X79528943Y-38918117D01*
X79562118Y-38885000D01*
X81987537Y-38885000D01*
X82019673Y-38917192D01*
X82363201Y-39059838D01*
X82735167Y-39060162D01*
X83078943Y-38918117D01*
X83342192Y-38655327D01*
X83484838Y-38311799D01*
X83484946Y-38187725D01*
X83538201Y-38209838D01*
X83910167Y-38210162D01*
X84253943Y-38068117D01*
X84517192Y-37805327D01*
X84659838Y-37461799D01*
X84660162Y-37089833D01*
X84518117Y-36746057D01*
X84255327Y-36482808D01*
X83911799Y-36340162D01*
X83539833Y-36339838D01*
X83196057Y-36481883D01*
X83137838Y-36540000D01*
X79537463Y-36540000D01*
X79505327Y-36507808D01*
X79161799Y-36365162D01*
X78789833Y-36364838D01*
X78446057Y-36506883D01*
X78182808Y-36769673D01*
X78040162Y-37113201D01*
X78039838Y-37485167D01*
X60685000Y-37485167D01*
X60685000Y-33185167D01*
X69964838Y-33185167D01*
X70106883Y-33528943D01*
X70369673Y-33792192D01*
X70713201Y-33934838D01*
X71085167Y-33935162D01*
X71428943Y-33793117D01*
X71692192Y-33530327D01*
X71834838Y-33186799D01*
X71834879Y-33139923D01*
X72739635Y-32235167D01*
X76639838Y-32235167D01*
X76781883Y-32578943D01*
X77044673Y-32842192D01*
X77388201Y-32984838D01*
X77435077Y-32984879D01*
X77462599Y-33012401D01*
X77709161Y-33177148D01*
X78000000Y-33235000D01*
X81087537Y-33235000D01*
X81119673Y-33267192D01*
X81463201Y-33409838D01*
X81835167Y-33410162D01*
X82178943Y-33268117D01*
X82442192Y-33005327D01*
X82584838Y-32661799D01*
X82585162Y-32289833D01*
X82443117Y-31946057D01*
X82180327Y-31682808D01*
X81836799Y-31540162D01*
X81464833Y-31539838D01*
X81121057Y-31681883D01*
X81087882Y-31715000D01*
X78448252Y-31715000D01*
X78368117Y-31521057D01*
X78105327Y-31257808D01*
X77761799Y-31115162D01*
X77389833Y-31114838D01*
X77046057Y-31256883D01*
X76782808Y-31519673D01*
X76640162Y-31863201D01*
X76639838Y-32235167D01*
X72739635Y-32235167D01*
X72964788Y-32010014D01*
X73135167Y-32010162D01*
X73478943Y-31868117D01*
X73742192Y-31605327D01*
X73884838Y-31261799D01*
X73885057Y-31010167D01*
X83589838Y-31010167D01*
X83731883Y-31353943D01*
X83765000Y-31387118D01*
X83765000Y-32787537D01*
X83732808Y-32819673D01*
X83590162Y-33163201D01*
X83589838Y-33535167D01*
X83731883Y-33878943D01*
X83994673Y-34142192D01*
X84338201Y-34284838D01*
X84710167Y-34285162D01*
X85053943Y-34143117D01*
X85317192Y-33880327D01*
X85459838Y-33536799D01*
X85460162Y-33164833D01*
X85318117Y-32821057D01*
X85285000Y-32787882D01*
X85285000Y-31387463D01*
X85317192Y-31355327D01*
X85459838Y-31011799D01*
X85460162Y-30639833D01*
X85318117Y-30296057D01*
X85055327Y-30032808D01*
X84711799Y-29890162D01*
X84339833Y-29889838D01*
X83996057Y-30031883D01*
X83732808Y-30294673D01*
X83590162Y-30638201D01*
X83589838Y-31010167D01*
X73885057Y-31010167D01*
X73885162Y-30889833D01*
X73743117Y-30546057D01*
X73480327Y-30282808D01*
X73136799Y-30140162D01*
X72764833Y-30139838D01*
X72421057Y-30281883D01*
X72157808Y-30544673D01*
X72070667Y-30754531D01*
X70760320Y-32064878D01*
X70714833Y-32064838D01*
X70371057Y-32206883D01*
X70107808Y-32469673D01*
X69965162Y-32813201D01*
X69964838Y-33185167D01*
X60685000Y-33185167D01*
X60685000Y-27274775D01*
X63839803Y-27274775D01*
X64012233Y-27692086D01*
X64331235Y-28011645D01*
X64748244Y-28184803D01*
X65199775Y-28185197D01*
X65200252Y-28185000D01*
X79644860Y-28185000D01*
X80079206Y-28098603D01*
X80447426Y-27852566D01*
X81547012Y-26752980D01*
X81706505Y-26593765D01*
X81879663Y-26176756D01*
X81880057Y-25725225D01*
X81707627Y-25307914D01*
X81388625Y-24988355D01*
X80971616Y-24815197D01*
X80520085Y-24814803D01*
X80102774Y-24987233D01*
X79783215Y-25306235D01*
X79783018Y-25306710D01*
X79174728Y-25915000D01*
X69784802Y-25915000D01*
X72762401Y-22937401D01*
X72927148Y-22690840D01*
X72985000Y-22400000D01*
X72985000Y-21962463D01*
X73017192Y-21930327D01*
X73159838Y-21586799D01*
X73160162Y-21214833D01*
X73018117Y-20871057D01*
X72755327Y-20607808D01*
X72411799Y-20465162D01*
X72039833Y-20464838D01*
X71696057Y-20606883D01*
X71432808Y-20869673D01*
X71290162Y-21213201D01*
X71289838Y-21585167D01*
X71431883Y-21928943D01*
X71465000Y-21962118D01*
X71465000Y-22085198D01*
X67635198Y-25915000D01*
X64975990Y-25915000D01*
X64750225Y-25914803D01*
X64332914Y-26087233D01*
X64013355Y-26406235D01*
X63840197Y-26823244D01*
X63839803Y-27274775D01*
X60685000Y-27274775D01*
X60685000Y-27056822D01*
X60734838Y-26936799D01*
X60735162Y-26564833D01*
X60593117Y-26221057D01*
X60330327Y-25957808D01*
X60275400Y-25935000D01*
X60800000Y-25935000D01*
X61090839Y-25877148D01*
X61337401Y-25712401D01*
X61814680Y-25235122D01*
X61860167Y-25235162D01*
X62203943Y-25093117D01*
X62467192Y-24830327D01*
X62609838Y-24486799D01*
X62610162Y-24114833D01*
X62543294Y-23952998D01*
X65532669Y-23952998D01*
X65674714Y-24296774D01*
X65937504Y-24560023D01*
X66281032Y-24702669D01*
X66652998Y-24702993D01*
X66996774Y-24560948D01*
X67260023Y-24298158D01*
X67402669Y-23954630D01*
X67402993Y-23582664D01*
X67260948Y-23238888D01*
X67227831Y-23205713D01*
X67227831Y-21744619D01*
X67267192Y-21705327D01*
X67409838Y-21361799D01*
X67410162Y-20989833D01*
X67268117Y-20646057D01*
X67005327Y-20382808D01*
X66661799Y-20240162D01*
X66289833Y-20239838D01*
X65946057Y-20381883D01*
X65682808Y-20644673D01*
X65540162Y-20988201D01*
X65539838Y-21360167D01*
X65681883Y-21703943D01*
X65707831Y-21729936D01*
X65707831Y-23205368D01*
X65675639Y-23237504D01*
X65532993Y-23581032D01*
X65532669Y-23952998D01*
X62543294Y-23952998D01*
X62468117Y-23771057D01*
X62205327Y-23507808D01*
X61960039Y-23405955D01*
X61960162Y-23264833D01*
X61818117Y-22921057D01*
X61555327Y-22657808D01*
X61211799Y-22515162D01*
X60839833Y-22514838D01*
X60496057Y-22656883D01*
X60232808Y-22919673D01*
X60120558Y-23190000D01*
X59562463Y-23190000D01*
X59530327Y-23157808D01*
X59186799Y-23015162D01*
X58814833Y-23014838D01*
X58471057Y-23156883D01*
X58207808Y-23419673D01*
X58065162Y-23763201D01*
X58064838Y-24135167D01*
X58206883Y-24478943D01*
X58227819Y-24499915D01*
X58082808Y-24644673D01*
X57940162Y-24988201D01*
X57939838Y-25360167D01*
X58081883Y-25703943D01*
X58344673Y-25967192D01*
X58688201Y-26109838D01*
X59060167Y-26110162D01*
X59158008Y-26069735D01*
X59007808Y-26219673D01*
X58865162Y-26563201D01*
X58864838Y-26935167D01*
X58915000Y-27056569D01*
X58915000Y-38508421D01*
X58316164Y-39107256D01*
X58196057Y-39156883D01*
X57932808Y-39419673D01*
X57790162Y-39763201D01*
X57789838Y-40135167D01*
X26401744Y-40135167D01*
X26076577Y-39810000D01*
X36887537Y-39810000D01*
X36919673Y-39842192D01*
X37263201Y-39984838D01*
X37635167Y-39985162D01*
X37978943Y-39843117D01*
X38242192Y-39580327D01*
X38384838Y-39236799D01*
X38385162Y-38864833D01*
X38243117Y-38521057D01*
X37980327Y-38257808D01*
X37636799Y-38115162D01*
X37264833Y-38114838D01*
X36921057Y-38256883D01*
X36887882Y-38290000D01*
X36269468Y-38290000D01*
X36503943Y-38193117D01*
X36767192Y-37930327D01*
X36909838Y-37586799D01*
X36909879Y-37539923D01*
X39239802Y-35210000D01*
X40047693Y-35210000D01*
X40047629Y-35283925D01*
X39871057Y-35356883D01*
X39607808Y-35619673D01*
X39465162Y-35963201D01*
X39464838Y-36335167D01*
X39606883Y-36678943D01*
X39869673Y-36942192D01*
X40213201Y-37084838D01*
X40585167Y-37085162D01*
X40713430Y-37032165D01*
X40690162Y-37088201D01*
X40689838Y-37460167D01*
X40831883Y-37803943D01*
X40865000Y-37837118D01*
X40865000Y-38525000D01*
X40922852Y-38815839D01*
X41014909Y-38953612D01*
X41014838Y-39035167D01*
X41156883Y-39378943D01*
X41419673Y-39642192D01*
X41763201Y-39784838D01*
X42135167Y-39785162D01*
X42478943Y-39643117D01*
X42742192Y-39380327D01*
X42884838Y-39036799D01*
X42885162Y-38664833D01*
X42743117Y-38321057D01*
X42480327Y-38057808D01*
X42385000Y-38018225D01*
X42385000Y-37837463D01*
X42417192Y-37805327D01*
X42559838Y-37461799D01*
X42560162Y-37089833D01*
X42527245Y-37010167D01*
X44414838Y-37010167D01*
X44556883Y-37353943D01*
X44819673Y-37617192D01*
X45163201Y-37759838D01*
X45210077Y-37759879D01*
X45440000Y-37989802D01*
X45440000Y-38512537D01*
X45407808Y-38544673D01*
X45265162Y-38888201D01*
X45264838Y-39260167D01*
X45406883Y-39603943D01*
X45669673Y-39867192D01*
X46013201Y-40009838D01*
X46385167Y-40010162D01*
X46728943Y-39868117D01*
X46992192Y-39605327D01*
X47088469Y-39373468D01*
X47403943Y-39243117D01*
X47667192Y-38980327D01*
X47809838Y-38636799D01*
X47810162Y-38264833D01*
X47668117Y-37921057D01*
X47635000Y-37887882D01*
X47635000Y-37300000D01*
X47577148Y-37009161D01*
X47444073Y-36809999D01*
X51618066Y-36809999D01*
X51656883Y-36903943D01*
X51919673Y-37167192D01*
X52263201Y-37309838D01*
X52635167Y-37310162D01*
X52978943Y-37168117D01*
X53242192Y-36905327D01*
X53384838Y-36561799D01*
X53385162Y-36189833D01*
X53243117Y-35846057D01*
X52980327Y-35582808D01*
X52636799Y-35440162D01*
X52553883Y-35440090D01*
X52415838Y-35347851D01*
X52124999Y-35289999D01*
X46789801Y-35289999D01*
X46385122Y-34885320D01*
X46385162Y-34839833D01*
X46261059Y-34539479D01*
X46334838Y-34361799D01*
X46335162Y-33989833D01*
X46193117Y-33646057D01*
X46125755Y-33578578D01*
X46102148Y-33459897D01*
X46035000Y-33359403D01*
X46035000Y-32914802D01*
X47614680Y-31335122D01*
X47660167Y-31335162D01*
X48003943Y-31193117D01*
X48267192Y-30930327D01*
X48400134Y-30610167D01*
X52114838Y-30610167D01*
X52256883Y-30953943D01*
X52519673Y-31217192D01*
X52863201Y-31359838D01*
X53235167Y-31360162D01*
X53538083Y-31235000D01*
X55837537Y-31235000D01*
X55869673Y-31267192D01*
X56213201Y-31409838D01*
X56585167Y-31410162D01*
X56928943Y-31268117D01*
X57192192Y-31005327D01*
X57334838Y-30661799D01*
X57335162Y-30289833D01*
X57193117Y-29946057D01*
X56930327Y-29682808D01*
X56586799Y-29540162D01*
X56214833Y-29539838D01*
X55871057Y-29681883D01*
X55837882Y-29715000D01*
X53662376Y-29715000D01*
X53580327Y-29632808D01*
X53236799Y-29490162D01*
X52864833Y-29489838D01*
X52521057Y-29631883D01*
X52257808Y-29894673D01*
X52115162Y-30238201D01*
X52114838Y-30610167D01*
X48400134Y-30610167D01*
X48409838Y-30586799D01*
X48410162Y-30214833D01*
X48268117Y-29871057D01*
X48005327Y-29607808D01*
X47661799Y-29465162D01*
X47289833Y-29464838D01*
X46946057Y-29606883D01*
X46682808Y-29869673D01*
X46540162Y-30213201D01*
X46540121Y-30260077D01*
X44737599Y-32062599D01*
X44572852Y-32309161D01*
X44515000Y-32600000D01*
X44515000Y-33625736D01*
X44547606Y-33789655D01*
X44465162Y-33988201D01*
X44464838Y-34360167D01*
X44588941Y-34660521D01*
X44515162Y-34838201D01*
X44514838Y-35210167D01*
X44656883Y-35553943D01*
X44919673Y-35817192D01*
X45129641Y-35904379D01*
X44821057Y-36031883D01*
X44557808Y-36294673D01*
X44415162Y-36638201D01*
X44414838Y-37010167D01*
X42527245Y-37010167D01*
X42418117Y-36746057D01*
X42155327Y-36482808D01*
X42052793Y-36440232D01*
X43937411Y-34555614D01*
X44102158Y-34309052D01*
X44160010Y-34018213D01*
X44160010Y-29401202D01*
X46026202Y-27535010D01*
X52860433Y-27535010D01*
X52981883Y-27828943D01*
X53244673Y-28092192D01*
X53588201Y-28234838D01*
X53960167Y-28235162D01*
X54303943Y-28093117D01*
X54567192Y-27830327D01*
X54709838Y-27486799D01*
X54710162Y-27114833D01*
X54568117Y-26771057D01*
X54539209Y-26742098D01*
X54634838Y-26511799D01*
X54635162Y-26139833D01*
X54493117Y-25796057D01*
X54230327Y-25532808D01*
X53994783Y-25435001D01*
X54687538Y-25435001D01*
X54719673Y-25467192D01*
X55063201Y-25609838D01*
X55435167Y-25610162D01*
X55778943Y-25468117D01*
X56042192Y-25205327D01*
X56184838Y-24861799D01*
X56185162Y-24489833D01*
X56043117Y-24146057D01*
X55780327Y-23882808D01*
X55436799Y-23740162D01*
X55064833Y-23739838D01*
X54721057Y-23881883D01*
X54687881Y-23915001D01*
X51149999Y-23915001D01*
X50859160Y-23972853D01*
X50758787Y-24039920D01*
X50664833Y-24039838D01*
X50321057Y-24181883D01*
X50057808Y-24444673D01*
X49915162Y-24788201D01*
X49914838Y-25160167D01*
X50056883Y-25503943D01*
X50117834Y-25565000D01*
X45525000Y-25565000D01*
X45234161Y-25622852D01*
X44987599Y-25787599D01*
X42412599Y-28362599D01*
X42247852Y-28609161D01*
X42190000Y-28900000D01*
X42190000Y-30740099D01*
X41889833Y-30739838D01*
X41546057Y-30881883D01*
X41287489Y-31140000D01*
X39614802Y-31140000D01*
X38237401Y-29762599D01*
X37990839Y-29597852D01*
X37700000Y-29540000D01*
X26312463Y-29540000D01*
X26280327Y-29507808D01*
X25936799Y-29365162D01*
X25564833Y-29364838D01*
X25443431Y-29415000D01*
X25385000Y-29415000D01*
X25385000Y-27210167D01*
X37164838Y-27210167D01*
X37306883Y-27553943D01*
X37569673Y-27817192D01*
X37913201Y-27959838D01*
X38083406Y-27959986D01*
X39232255Y-29108834D01*
X39281883Y-29228943D01*
X39544673Y-29492192D01*
X39888201Y-29634838D01*
X40260167Y-29635162D01*
X40603943Y-29493117D01*
X40867192Y-29230327D01*
X41009838Y-28886799D01*
X41010162Y-28514833D01*
X40868117Y-28171057D01*
X40605327Y-27907808D01*
X40484013Y-27857434D01*
X39025790Y-26399210D01*
X38914726Y-26325000D01*
X38738675Y-26207367D01*
X38682484Y-26196190D01*
X38413090Y-26142603D01*
X38286799Y-26090162D01*
X37914833Y-26089838D01*
X37571057Y-26231883D01*
X37307808Y-26494673D01*
X37165162Y-26838201D01*
X37164838Y-27210167D01*
X25385000Y-27210167D01*
X25385000Y-19285167D01*
X84289838Y-19285167D01*
X84431883Y-19628943D01*
X84694673Y-19892192D01*
X85038201Y-20034838D01*
X85410167Y-20035162D01*
X85471064Y-20010000D01*
X86518178Y-20010000D01*
X86638201Y-20059838D01*
X87010167Y-20060162D01*
X87353943Y-19918117D01*
X87617192Y-19655327D01*
X87759838Y-19311799D01*
X87759839Y-19310167D01*
X89364838Y-19310167D01*
X89506883Y-19653943D01*
X89769673Y-19917192D01*
X89890987Y-19967566D01*
X89999208Y-20075787D01*
X89999210Y-20075790D01*
X90133123Y-20165267D01*
X90286325Y-20267633D01*
X90625000Y-20335000D01*
X91893178Y-20335000D01*
X92013201Y-20384838D01*
X92385167Y-20385162D01*
X92728943Y-20243117D01*
X92992192Y-19980327D01*
X93134838Y-19636799D01*
X93135162Y-19264833D01*
X92993117Y-18921057D01*
X92730327Y-18657808D01*
X92386799Y-18515162D01*
X92014833Y-18514838D01*
X91893431Y-18565000D01*
X91062114Y-18565000D01*
X90830327Y-18332808D01*
X90486799Y-18190162D01*
X90114833Y-18189838D01*
X89771057Y-18331883D01*
X89507808Y-18594673D01*
X89365162Y-18938201D01*
X89364838Y-19310167D01*
X87759839Y-19310167D01*
X87760162Y-18939833D01*
X87618117Y-18596057D01*
X87355327Y-18332808D01*
X87011799Y-18190162D01*
X86639833Y-18189838D01*
X86518431Y-18240000D01*
X85592028Y-18240000D01*
X85411799Y-18165162D01*
X85039833Y-18164838D01*
X84696057Y-18306883D01*
X84432808Y-18569673D01*
X84290162Y-18913201D01*
X84289838Y-19285167D01*
X25385000Y-19285167D01*
X25385000Y-15210167D01*
X28264838Y-15210167D01*
X28315000Y-15331569D01*
X28315000Y-17024995D01*
X28314999Y-17025000D01*
X28337907Y-17140162D01*
X28382367Y-17363675D01*
X28504230Y-17546057D01*
X28574210Y-17650790D01*
X29407255Y-18483835D01*
X29456883Y-18603943D01*
X29719673Y-18867192D01*
X30063201Y-19009838D01*
X30435167Y-19010162D01*
X30778943Y-18868117D01*
X31042192Y-18605327D01*
X31184838Y-18261799D01*
X31185162Y-17889833D01*
X31043117Y-17546057D01*
X30780327Y-17282808D01*
X30659013Y-17232434D01*
X30085000Y-16658420D01*
X30085000Y-15331822D01*
X30134838Y-15211799D01*
X30135162Y-14839833D01*
X29993117Y-14496057D01*
X29730327Y-14232808D01*
X29386799Y-14090162D01*
X29014833Y-14089838D01*
X28671057Y-14231883D01*
X28407808Y-14494673D01*
X28265162Y-14838201D01*
X28264838Y-15210167D01*
X25385000Y-15210167D01*
X25385000Y-14931822D01*
X25434838Y-14811799D01*
X25435162Y-14439833D01*
X25293117Y-14096057D01*
X25030327Y-13832808D01*
X24686799Y-13690162D01*
X24314833Y-13689838D01*
X23971057Y-13831883D01*
X23707808Y-14094673D01*
X23565162Y-14438201D01*
X23564838Y-14810167D01*
X23615000Y-14931569D01*
X23615000Y-29415000D01*
X23165003Y-29415000D01*
X23164998Y-29414999D01*
X22882514Y-29471190D01*
X22826323Y-29482367D01*
X22539208Y-29674210D01*
X22539206Y-29674213D01*
X18974209Y-33239209D01*
X18782366Y-33526324D01*
X18780163Y-33537401D01*
X18714998Y-33864999D01*
X10422452Y-33864999D01*
X10202068Y-33331629D01*
X9820818Y-32949712D01*
X10200551Y-32570643D01*
X10434733Y-32006670D01*
X10435265Y-31396009D01*
X10202068Y-30831629D01*
X9820818Y-30449712D01*
X10200551Y-30070643D01*
X10434733Y-29506670D01*
X10435265Y-28896009D01*
X10202068Y-28331629D01*
X9820818Y-27949712D01*
X10200551Y-27570643D01*
X10434733Y-27006670D01*
X10435265Y-26396009D01*
X10202068Y-25831629D01*
X9820818Y-25449712D01*
X10200551Y-25070643D01*
X10434733Y-24506670D01*
X10435265Y-23896009D01*
X10202068Y-23331629D01*
X9820818Y-22949712D01*
X10200551Y-22570643D01*
X10434733Y-22006670D01*
X10435265Y-21396009D01*
X10202068Y-20831629D01*
X9820818Y-20449712D01*
X10200551Y-20070643D01*
X10434733Y-19506670D01*
X10435265Y-18896009D01*
X10202068Y-18331629D01*
X9770643Y-17899449D01*
X9206670Y-17665267D01*
X8596009Y-17664735D01*
X8031629Y-17897932D01*
X7599449Y-18329357D01*
X7365267Y-18893330D01*
X7364735Y-19503991D01*
X710000Y-19503991D01*
X710000Y-12120069D01*
X6789830Y-12120069D01*
X6939471Y-12482229D01*
X7216314Y-12759555D01*
X7578212Y-12909828D01*
X7970069Y-12910170D01*
X8332229Y-12760529D01*
X8609555Y-12483686D01*
X8759828Y-12121788D01*
X8760170Y-11729931D01*
X8610529Y-11367771D01*
X8333686Y-11090445D01*
X7971788Y-10940172D01*
X7579931Y-10939830D01*
X7217771Y-11089471D01*
X6940445Y-11366314D01*
X6790172Y-11728212D01*
X6789830Y-12120069D01*
X710000Y-12120069D01*
X710000Y-10921884D01*
X3863015Y-10921884D01*
X4012656Y-11284044D01*
X4289499Y-11561370D01*
X4651397Y-11711643D01*
X5043254Y-11711985D01*
X5405414Y-11562344D01*
X5682740Y-11285501D01*
X5833013Y-10923603D01*
X5833014Y-10921884D01*
X9716645Y-10921884D01*
X9866286Y-11284044D01*
X10143129Y-11561370D01*
X10505027Y-11711643D01*
X10896884Y-11711985D01*
X11259044Y-11562344D01*
X11536370Y-11285501D01*
X11686643Y-10923603D01*
X11686985Y-10531746D01*
X11580605Y-10274285D01*
X42914760Y-10274285D01*
X43125169Y-10783515D01*
X43514436Y-11173461D01*
X44023298Y-11384759D01*
X44574285Y-11385240D01*
X45083515Y-11174831D01*
X45473461Y-10785564D01*
X45684759Y-10276702D01*
X45684761Y-10274285D01*
X47914760Y-10274285D01*
X48125169Y-10783515D01*
X48514436Y-11173461D01*
X49023298Y-11384759D01*
X49574285Y-11385240D01*
X49876985Y-11260167D01*
X64489838Y-11260167D01*
X64631883Y-11603943D01*
X64894673Y-11867192D01*
X65238201Y-12009838D01*
X65610167Y-12010162D01*
X65953943Y-11868117D01*
X65987118Y-11835000D01*
X70810198Y-11835000D01*
X72189878Y-13214680D01*
X72189838Y-13260167D01*
X72331883Y-13603943D01*
X72594673Y-13867192D01*
X72938201Y-14009838D01*
X73310167Y-14010162D01*
X73653943Y-13868117D01*
X73711994Y-13810167D01*
X80639838Y-13810167D01*
X80781883Y-14153943D01*
X81044673Y-14417192D01*
X81388201Y-14559838D01*
X81760167Y-14560162D01*
X81972589Y-14472391D01*
X82114878Y-14614680D01*
X82114838Y-14660167D01*
X82256883Y-15003943D01*
X82519673Y-15267192D01*
X82863201Y-15409838D01*
X83235167Y-15410162D01*
X83578943Y-15268117D01*
X83842192Y-15005327D01*
X83984838Y-14661799D01*
X83985162Y-14289833D01*
X83843117Y-13946057D01*
X83822138Y-13925041D01*
X84017192Y-13730327D01*
X84159838Y-13386799D01*
X84159879Y-13339923D01*
X85087572Y-12412230D01*
X86638033Y-12412230D01*
X86780078Y-12756006D01*
X87042868Y-13019255D01*
X87386396Y-13161901D01*
X87433272Y-13161942D01*
X87908741Y-13637411D01*
X88062277Y-13740000D01*
X88155302Y-13802157D01*
X88446140Y-13860010D01*
X88938599Y-13860011D01*
X96860209Y-13860011D01*
X97639878Y-14639680D01*
X97639838Y-14685167D01*
X97781883Y-15028943D01*
X98044673Y-15292192D01*
X98388201Y-15434838D01*
X98760167Y-15435162D01*
X99103943Y-15293117D01*
X99367192Y-15030327D01*
X99509838Y-14686799D01*
X99510162Y-14314833D01*
X99407061Y-14065309D01*
X99492192Y-13980327D01*
X99634838Y-13636799D01*
X99635162Y-13264833D01*
X99493117Y-12921057D01*
X99230327Y-12657808D01*
X98886799Y-12515162D01*
X98839923Y-12515121D01*
X98437402Y-12112600D01*
X98190840Y-11947853D01*
X97900001Y-11890001D01*
X97435118Y-11890001D01*
X97435162Y-11839833D01*
X97293117Y-11496057D01*
X97030327Y-11232808D01*
X96909013Y-11182434D01*
X94785000Y-9058420D01*
X94785000Y-7531822D01*
X94834838Y-7411799D01*
X94835162Y-7039833D01*
X94693117Y-6696057D01*
X94430327Y-6432808D01*
X94086799Y-6290162D01*
X93714833Y-6289838D01*
X93371057Y-6431883D01*
X93107808Y-6694673D01*
X92965162Y-7038201D01*
X92964838Y-7410167D01*
X93015000Y-7531569D01*
X93015000Y-9424995D01*
X93014999Y-9425000D01*
X93071190Y-9707484D01*
X93082367Y-9763675D01*
X93235056Y-9992192D01*
X93274210Y-10050790D01*
X95113422Y-11890001D01*
X89439803Y-11890001D01*
X89035122Y-11485320D01*
X89035162Y-11439833D01*
X88893117Y-11096057D01*
X88630327Y-10832808D01*
X88286799Y-10690162D01*
X87914833Y-10689838D01*
X87571057Y-10831883D01*
X87307808Y-11094673D01*
X87192336Y-11372759D01*
X87044252Y-11433946D01*
X86781003Y-11696736D01*
X86638357Y-12040264D01*
X86638033Y-12412230D01*
X85087572Y-12412230D01*
X87364680Y-10135122D01*
X87410167Y-10135162D01*
X87753943Y-9993117D01*
X88017192Y-9730327D01*
X88159838Y-9386799D01*
X88160162Y-9014833D01*
X88018117Y-8671057D01*
X87755327Y-8407808D01*
X87411799Y-8265162D01*
X87039833Y-8264838D01*
X86696057Y-8406883D01*
X86534385Y-8568274D01*
X86634716Y-8326648D01*
X86635284Y-7676205D01*
X86386894Y-7075057D01*
X85927363Y-6614722D01*
X85326648Y-6365284D01*
X84676205Y-6364716D01*
X84075057Y-6613106D01*
X83614722Y-7072637D01*
X83365284Y-7673352D01*
X83364716Y-8323795D01*
X83613106Y-8924943D01*
X84072637Y-9385278D01*
X84673352Y-9634716D01*
X85323795Y-9635284D01*
X85924943Y-9386894D01*
X86290154Y-9022321D01*
X86290121Y-9060077D01*
X83085320Y-12264878D01*
X83039833Y-12264838D01*
X82696057Y-12406883D01*
X82432808Y-12669673D01*
X82340127Y-12892873D01*
X82200000Y-12865000D01*
X82137463Y-12865000D01*
X82105327Y-12832808D01*
X81761799Y-12690162D01*
X81389833Y-12689838D01*
X81046057Y-12831883D01*
X80782808Y-13094673D01*
X80640162Y-13438201D01*
X80639838Y-13810167D01*
X73711994Y-13810167D01*
X73917192Y-13605327D01*
X74059838Y-13261799D01*
X74060162Y-12889833D01*
X73918117Y-12546057D01*
X73655327Y-12282808D01*
X73311799Y-12140162D01*
X73264923Y-12140121D01*
X71662401Y-10537599D01*
X71415839Y-10372852D01*
X71125000Y-10315000D01*
X65987463Y-10315000D01*
X65955327Y-10282808D01*
X65611799Y-10140162D01*
X65239833Y-10139838D01*
X64896057Y-10281883D01*
X64632808Y-10544673D01*
X64490162Y-10888201D01*
X64489838Y-11260167D01*
X49876985Y-11260167D01*
X50083515Y-11174831D01*
X50473461Y-10785564D01*
X50684759Y-10276702D01*
X50685240Y-9725715D01*
X50474831Y-9216485D01*
X50119134Y-8860167D01*
X60389838Y-8860167D01*
X60531883Y-9203943D01*
X60794673Y-9467192D01*
X61138201Y-9609838D01*
X61510167Y-9610162D01*
X61853943Y-9468117D01*
X62117192Y-9205327D01*
X62167566Y-9084014D01*
X62927784Y-8323795D01*
X68364716Y-8323795D01*
X68613106Y-8924943D01*
X69072637Y-9385278D01*
X69673352Y-9634716D01*
X70323795Y-9635284D01*
X70924943Y-9386894D01*
X71385278Y-8927363D01*
X71634716Y-8326648D01*
X71634718Y-8323795D01*
X71864716Y-8323795D01*
X72113106Y-8924943D01*
X72572637Y-9385278D01*
X73173352Y-9634716D01*
X73823795Y-9635284D01*
X74424943Y-9386894D01*
X74659715Y-9152532D01*
X80527073Y-9152532D01*
X80625736Y-9419387D01*
X81235461Y-9645908D01*
X81885460Y-9621856D01*
X82374264Y-9419387D01*
X82472927Y-9152532D01*
X81500000Y-8179605D01*
X80527073Y-9152532D01*
X74659715Y-9152532D01*
X74885278Y-8927363D01*
X75134716Y-8326648D01*
X75135232Y-7735461D01*
X79854092Y-7735461D01*
X79878144Y-8385460D01*
X80080613Y-8874264D01*
X80347468Y-8972927D01*
X81320395Y-8000000D01*
X81679605Y-8000000D01*
X82652532Y-8972927D01*
X82919387Y-8874264D01*
X83145908Y-8264539D01*
X83121856Y-7614540D01*
X82919387Y-7125736D01*
X82652532Y-7027073D01*
X81679605Y-8000000D01*
X81320395Y-8000000D01*
X80347468Y-7027073D01*
X80080613Y-7125736D01*
X79854092Y-7735461D01*
X75135232Y-7735461D01*
X75135284Y-7676205D01*
X74886894Y-7075057D01*
X74659703Y-6847468D01*
X80527073Y-6847468D01*
X81500000Y-7820395D01*
X82472927Y-6847468D01*
X82374264Y-6580613D01*
X81764539Y-6354092D01*
X81114540Y-6378144D01*
X80625736Y-6580613D01*
X80527073Y-6847468D01*
X74659703Y-6847468D01*
X74427363Y-6614722D01*
X73826648Y-6365284D01*
X73176205Y-6364716D01*
X72575057Y-6613106D01*
X72114722Y-7072637D01*
X71865284Y-7673352D01*
X71864716Y-8323795D01*
X71634718Y-8323795D01*
X71635284Y-7676205D01*
X71386894Y-7075057D01*
X70927363Y-6614722D01*
X70326648Y-6365284D01*
X69676205Y-6364716D01*
X69075057Y-6613106D01*
X68614722Y-7072637D01*
X68365284Y-7673352D01*
X68364716Y-8323795D01*
X62927784Y-8323795D01*
X66991579Y-4260000D01*
X71393178Y-4260000D01*
X71513201Y-4309838D01*
X71885167Y-4310162D01*
X72228943Y-4168117D01*
X72492192Y-3905327D01*
X72634838Y-3561799D01*
X72635162Y-3189833D01*
X72493117Y-2846057D01*
X72230327Y-2582808D01*
X71886799Y-2440162D01*
X71514833Y-2439838D01*
X71393431Y-2490000D01*
X66625005Y-2490000D01*
X66625000Y-2489999D01*
X66342516Y-2546190D01*
X66286325Y-2557367D01*
X65999210Y-2749210D01*
X65999208Y-2749213D01*
X60916164Y-7832256D01*
X60796057Y-7881883D01*
X60532808Y-8144673D01*
X60390162Y-8488201D01*
X60389838Y-8860167D01*
X50119134Y-8860167D01*
X50085564Y-8826539D01*
X49576702Y-8615241D01*
X49025715Y-8614760D01*
X48516485Y-8825169D01*
X48126539Y-9214436D01*
X47915241Y-9723298D01*
X47914760Y-10274285D01*
X45684761Y-10274285D01*
X45685240Y-9725715D01*
X45474831Y-9216485D01*
X45085564Y-8826539D01*
X44576702Y-8615241D01*
X44025715Y-8614760D01*
X43516485Y-8825169D01*
X43126539Y-9214436D01*
X42915241Y-9723298D01*
X42914760Y-10274285D01*
X11580605Y-10274285D01*
X11537344Y-10169586D01*
X11260501Y-9892260D01*
X10898603Y-9741987D01*
X10506746Y-9741645D01*
X10144586Y-9891286D01*
X9867260Y-10168129D01*
X9716987Y-10530027D01*
X9716645Y-10921884D01*
X5833014Y-10921884D01*
X5833355Y-10531746D01*
X5683714Y-10169586D01*
X5406871Y-9892260D01*
X5044973Y-9741987D01*
X4653116Y-9741645D01*
X4290956Y-9891286D01*
X4013630Y-10168129D01*
X3863357Y-10530027D01*
X3863015Y-10921884D01*
X710000Y-10921884D01*
X710000Y-7995069D01*
X2664830Y-7995069D01*
X2814471Y-8357229D01*
X3091314Y-8634555D01*
X3453212Y-8784828D01*
X3845069Y-8785170D01*
X4207229Y-8635529D01*
X4484555Y-8358686D01*
X4634828Y-7996788D01*
X4634829Y-7995069D01*
X10914830Y-7995069D01*
X11064471Y-8357229D01*
X11341314Y-8634555D01*
X11703212Y-8784828D01*
X12095069Y-8785170D01*
X12457229Y-8635529D01*
X12734555Y-8358686D01*
X12884828Y-7996788D01*
X12885170Y-7604931D01*
X12735529Y-7242771D01*
X12458686Y-6965445D01*
X12096788Y-6815172D01*
X11704931Y-6814830D01*
X11342771Y-6964471D01*
X11065445Y-7241314D01*
X10915172Y-7603212D01*
X10914830Y-7995069D01*
X4634829Y-7995069D01*
X4635170Y-7604931D01*
X4485529Y-7242771D01*
X4208686Y-6965445D01*
X3846788Y-6815172D01*
X3454931Y-6814830D01*
X3092771Y-6964471D01*
X2815445Y-7241314D01*
X2665172Y-7603212D01*
X2664830Y-7995069D01*
X710000Y-7995069D01*
X710000Y-5971517D01*
X43508088Y-5971517D01*
X43576077Y-6212460D01*
X44095171Y-6397201D01*
X44645448Y-6369230D01*
X45023923Y-6212460D01*
X45091912Y-5971517D01*
X44300000Y-5179605D01*
X43508088Y-5971517D01*
X710000Y-5971517D01*
X710000Y-5068254D01*
X3863015Y-5068254D01*
X4012656Y-5430414D01*
X4289499Y-5707740D01*
X4651397Y-5858013D01*
X5043254Y-5858355D01*
X5405414Y-5708714D01*
X5682740Y-5431871D01*
X5833013Y-5069973D01*
X5833014Y-5068254D01*
X9716645Y-5068254D01*
X9866286Y-5430414D01*
X10143129Y-5707740D01*
X10505027Y-5858013D01*
X10896884Y-5858355D01*
X11259044Y-5708714D01*
X11536370Y-5431871D01*
X11686643Y-5069973D01*
X11686882Y-4795171D01*
X42902799Y-4795171D01*
X42930770Y-5345448D01*
X43087540Y-5723923D01*
X43328483Y-5791912D01*
X44120395Y-5000000D01*
X44479605Y-5000000D01*
X45271517Y-5791912D01*
X45512460Y-5723923D01*
X45672482Y-5274285D01*
X47914760Y-5274285D01*
X48125169Y-5783515D01*
X48514436Y-6173461D01*
X49023298Y-6384759D01*
X49574285Y-6385240D01*
X50083515Y-6174831D01*
X50473461Y-5785564D01*
X50684759Y-5276702D01*
X50685240Y-4725715D01*
X50474831Y-4216485D01*
X50085564Y-3826539D01*
X49576702Y-3615241D01*
X49025715Y-3614760D01*
X48516485Y-3825169D01*
X48126539Y-4214436D01*
X47915241Y-4723298D01*
X47914760Y-5274285D01*
X45672482Y-5274285D01*
X45697201Y-5204829D01*
X45669230Y-4654552D01*
X45512460Y-4276077D01*
X45271517Y-4208088D01*
X44479605Y-5000000D01*
X44120395Y-5000000D01*
X43328483Y-4208088D01*
X43087540Y-4276077D01*
X42902799Y-4795171D01*
X11686882Y-4795171D01*
X11686985Y-4678116D01*
X11537344Y-4315956D01*
X11260501Y-4038630D01*
X11236065Y-4028483D01*
X43508088Y-4028483D01*
X44300000Y-4820395D01*
X45091912Y-4028483D01*
X45023923Y-3787540D01*
X44504829Y-3602799D01*
X43954552Y-3630770D01*
X43576077Y-3787540D01*
X43508088Y-4028483D01*
X11236065Y-4028483D01*
X10898603Y-3888357D01*
X10506746Y-3888015D01*
X10144586Y-4037656D01*
X9867260Y-4314499D01*
X9716987Y-4676397D01*
X9716645Y-5068254D01*
X5833014Y-5068254D01*
X5833355Y-4678116D01*
X5683714Y-4315956D01*
X5406871Y-4038630D01*
X5044973Y-3888357D01*
X4653116Y-3888015D01*
X4290956Y-4037656D01*
X4013630Y-4314499D01*
X3863357Y-4676397D01*
X3863015Y-5068254D01*
X710000Y-5068254D01*
X710000Y-3870069D01*
X6789830Y-3870069D01*
X6939471Y-4232229D01*
X7216314Y-4509555D01*
X7578212Y-4659828D01*
X7970069Y-4660170D01*
X8332229Y-4510529D01*
X8609555Y-4233686D01*
X8759828Y-3871788D01*
X8760170Y-3479931D01*
X8610529Y-3117771D01*
X8333686Y-2840445D01*
X7971788Y-2690172D01*
X7579931Y-2689830D01*
X7217771Y-2839471D01*
X6940445Y-3116314D01*
X6790172Y-3478212D01*
X6789830Y-3870069D01*
X710000Y-3870069D01*
X710000Y-710000D01*
X102873000Y-710000D01*
X102873000Y-12244246D01*
M02*
