G04 #@! TF.FileFunction,Copper,L1,Top,Signal*
%FSLAX46Y46*%
G04 Gerber Fmt 4.6, Leading zero omitted, Abs format (unit mm)*
G04 Created by KiCad (PCBNEW 4.0.6) date 07/20/17 18:35:02*
%MOMM*%
%LPD*%
G01*
G04 APERTURE LIST*
%ADD10C,0.100000*%
%ADD11C,2.499360*%
%ADD12R,0.800000X0.800000*%
%ADD13R,2.000000X2.000000*%
%ADD14C,2.000000*%
%ADD15R,2.030000X1.730000*%
%ADD16O,2.030000X1.730000*%
%ADD17R,0.558800X1.422400*%
%ADD18R,0.660400X0.508000*%
%ADD19R,1.450000X1.700000*%
%ADD20C,0.600000*%
%ADD21C,0.250000*%
G04 APERTURE END LIST*
D10*
D11*
X190500000Y-90170000D03*
X180340000Y-90170000D03*
D12*
X163360000Y-102870000D03*
X161760000Y-102870000D03*
X167170000Y-102870000D03*
X165570000Y-102870000D03*
X170980000Y-102870000D03*
X169380000Y-102870000D03*
X174790000Y-102870000D03*
X173190000Y-102870000D03*
X178600000Y-102870000D03*
X177000000Y-102870000D03*
X182410000Y-102870000D03*
X180810000Y-102870000D03*
X186220000Y-102870000D03*
X184620000Y-102870000D03*
D13*
X182880000Y-111760000D03*
D14*
X180370000Y-111760000D03*
X177870000Y-111760000D03*
X175370000Y-111760000D03*
X172870000Y-111760000D03*
X170370000Y-111760000D03*
X167870000Y-111760000D03*
X165370000Y-111760000D03*
D15*
X190500000Y-106680000D03*
D16*
X190500000Y-109220000D03*
X190500000Y-111760000D03*
D17*
X174307500Y-94945200D03*
X176212500Y-94945200D03*
X175260000Y-93014800D03*
D18*
X162001200Y-105410000D03*
X163118800Y-105410000D03*
X165811200Y-105410000D03*
X166928800Y-105410000D03*
X169621200Y-105410000D03*
X170738800Y-105410000D03*
X173431200Y-105410000D03*
X174548800Y-105410000D03*
X177241200Y-105410000D03*
X178358800Y-105410000D03*
X181051200Y-105410000D03*
X182168800Y-105410000D03*
X184861200Y-105410000D03*
X185978800Y-105410000D03*
D19*
X163830000Y-98680000D03*
X166370000Y-98680000D03*
X168910000Y-98680000D03*
X168910000Y-89280000D03*
X166370000Y-89280000D03*
X163830000Y-89280000D03*
D20*
X173990000Y-99060000D03*
X163830000Y-100330000D03*
X177800000Y-100330000D03*
X189230000Y-100330000D03*
D21*
X176212500Y-94945200D02*
X176212500Y-101600000D01*
X176212500Y-101600000D02*
X176530000Y-101600000D01*
X190500000Y-106680000D02*
X190030000Y-106680000D01*
X190030000Y-106680000D02*
X186220000Y-102870000D01*
X190500000Y-90170000D02*
X189230000Y-90170000D01*
X189230000Y-90170000D02*
X184454800Y-94945200D01*
X184454800Y-94945200D02*
X176212500Y-94945200D01*
X182410000Y-102870000D02*
X182410000Y-101600000D01*
X182410000Y-101600000D02*
X182880000Y-101600000D01*
X178600000Y-102870000D02*
X178600000Y-101600000D01*
X178600000Y-101600000D02*
X179070000Y-101600000D01*
X174790000Y-102870000D02*
X174790000Y-101600000D01*
X170980000Y-102870000D02*
X170980000Y-101600000D01*
X170980000Y-101600000D02*
X171450000Y-101600000D01*
X167170000Y-102870000D02*
X167170000Y-101600000D01*
X167170000Y-101600000D02*
X167640000Y-101600000D01*
X163360000Y-102870000D02*
X163360000Y-102070000D01*
X163360000Y-102070000D02*
X163830000Y-101600000D01*
X163830000Y-101600000D02*
X167640000Y-101600000D01*
X184950000Y-101600000D02*
X186220000Y-102870000D01*
X167640000Y-101600000D02*
X171450000Y-101600000D01*
X175260000Y-101600000D02*
X176530000Y-101600000D01*
X176530000Y-101600000D02*
X179070000Y-101600000D01*
X179070000Y-101600000D02*
X182880000Y-101600000D01*
X182880000Y-101600000D02*
X184950000Y-101600000D01*
X167170000Y-102870000D02*
X167170000Y-99480000D01*
X167170000Y-99480000D02*
X166370000Y-98680000D01*
X174790000Y-101600000D02*
X175260000Y-101600000D01*
X171450000Y-101600000D02*
X175260000Y-101600000D01*
X168910000Y-89280000D02*
X179450000Y-89280000D01*
X179450000Y-89280000D02*
X180340000Y-90170000D01*
X161760000Y-102870000D02*
X161760000Y-105168800D01*
X161760000Y-105168800D02*
X162001200Y-105410000D01*
X161760000Y-105168800D02*
X162001200Y-105410000D01*
X165570000Y-102870000D02*
X165570000Y-105168800D01*
X165570000Y-105168800D02*
X165811200Y-105410000D01*
X169380000Y-102870000D02*
X169380000Y-105168800D01*
X169380000Y-105168800D02*
X169621200Y-105410000D01*
X173190000Y-102870000D02*
X173190000Y-105168800D01*
X173190000Y-105168800D02*
X173431200Y-105410000D01*
X177000000Y-102870000D02*
X177000000Y-105168800D01*
X177000000Y-105168800D02*
X177241200Y-105410000D01*
X181051200Y-105410000D02*
X181051200Y-103111200D01*
X181051200Y-103111200D02*
X180810000Y-102870000D01*
X184861200Y-105410000D02*
X184861200Y-103111200D01*
X184861200Y-103111200D02*
X184620000Y-102870000D01*
X174307500Y-98742500D02*
X174307500Y-94945200D01*
X173990000Y-99060000D02*
X174307500Y-98742500D01*
X185978800Y-105410000D02*
X185978800Y-106151200D01*
X185978800Y-106151200D02*
X180370000Y-111760000D01*
X182168800Y-105410000D02*
X182168800Y-107461200D01*
X182168800Y-107461200D02*
X177870000Y-111760000D01*
X178358800Y-105410000D02*
X178358800Y-108771200D01*
X178358800Y-108771200D02*
X175370000Y-111760000D01*
X174548800Y-105410000D02*
X174548800Y-110081200D01*
X174548800Y-110081200D02*
X172870000Y-111760000D01*
X170370000Y-111760000D02*
X170370000Y-105778800D01*
X170370000Y-105778800D02*
X170738800Y-105410000D01*
X166928800Y-105410000D02*
X166928800Y-110818800D01*
X166928800Y-110818800D02*
X167870000Y-111760000D01*
X165370000Y-111760000D02*
X165370000Y-107661200D01*
X165370000Y-107661200D02*
X163118800Y-105410000D01*
X163830000Y-100330000D02*
X163830000Y-98680000D01*
X189230000Y-100330000D02*
X177800000Y-100330000D01*
X175260000Y-93014800D02*
X175260000Y-91440000D01*
X163830000Y-91440000D02*
X163830000Y-89280000D01*
X175260000Y-91440000D02*
X163830000Y-91440000D01*
M02*
