G04 #@! TF.FileFunction,Legend,Top*
%FSLAX46Y46*%
G04 Gerber Fmt 4.6, Leading zero omitted, Abs format (unit mm)*
G04 Created by KiCad (PCBNEW 4.0.1-stable) date Wednesday, August 10, 2016 'PMt' 06:55:05 PM*
%MOMM*%
G01*
G04 APERTURE LIST*
%ADD10C,0.100000*%
%ADD11C,0.150000*%
G04 APERTURE END LIST*
D10*
D11*
X130754381Y-135754857D02*
X129754381Y-135754857D01*
X129754381Y-135373904D01*
X129802000Y-135278666D01*
X129849619Y-135231047D01*
X129944857Y-135183428D01*
X130087714Y-135183428D01*
X130182952Y-135231047D01*
X130230571Y-135278666D01*
X130278190Y-135373904D01*
X130278190Y-135754857D01*
X130468667Y-134802476D02*
X130468667Y-134326285D01*
X130754381Y-134897714D02*
X129754381Y-134564381D01*
X130754381Y-134231047D01*
X129849619Y-133945333D02*
X129802000Y-133897714D01*
X129754381Y-133802476D01*
X129754381Y-133564380D01*
X129802000Y-133469142D01*
X129849619Y-133421523D01*
X129944857Y-133373904D01*
X130040095Y-133373904D01*
X130182952Y-133421523D01*
X130754381Y-133992952D01*
X130754381Y-133373904D01*
X130087714Y-132516761D02*
X130754381Y-132516761D01*
X129706762Y-132754857D02*
X130421048Y-132992952D01*
X130421048Y-132373904D01*
X128214381Y-135754857D02*
X127214381Y-135754857D01*
X127214381Y-135373904D01*
X127262000Y-135278666D01*
X127309619Y-135231047D01*
X127404857Y-135183428D01*
X127547714Y-135183428D01*
X127642952Y-135231047D01*
X127690571Y-135278666D01*
X127738190Y-135373904D01*
X127738190Y-135754857D01*
X127928667Y-134802476D02*
X127928667Y-134326285D01*
X128214381Y-134897714D02*
X127214381Y-134564381D01*
X128214381Y-134231047D01*
X127309619Y-133945333D02*
X127262000Y-133897714D01*
X127214381Y-133802476D01*
X127214381Y-133564380D01*
X127262000Y-133469142D01*
X127309619Y-133421523D01*
X127404857Y-133373904D01*
X127500095Y-133373904D01*
X127642952Y-133421523D01*
X128214381Y-133992952D01*
X128214381Y-133373904D01*
X127214381Y-132469142D02*
X127214381Y-132945333D01*
X127690571Y-132992952D01*
X127642952Y-132945333D01*
X127595333Y-132850095D01*
X127595333Y-132611999D01*
X127642952Y-132516761D01*
X127690571Y-132469142D01*
X127785810Y-132421523D01*
X128023905Y-132421523D01*
X128119143Y-132469142D01*
X128166762Y-132516761D01*
X128214381Y-132611999D01*
X128214381Y-132850095D01*
X128166762Y-132945333D01*
X128119143Y-132992952D01*
X124976000Y-135127904D02*
X124928381Y-135223142D01*
X124928381Y-135365999D01*
X124976000Y-135508857D01*
X125071238Y-135604095D01*
X125166476Y-135651714D01*
X125356952Y-135699333D01*
X125499810Y-135699333D01*
X125690286Y-135651714D01*
X125785524Y-135604095D01*
X125880762Y-135508857D01*
X125928381Y-135365999D01*
X125928381Y-135270761D01*
X125880762Y-135127904D01*
X125833143Y-135080285D01*
X125499810Y-135080285D01*
X125499810Y-135270761D01*
X125928381Y-134651714D02*
X124928381Y-134651714D01*
X125928381Y-134080285D01*
X124928381Y-134080285D01*
X125928381Y-133604095D02*
X124928381Y-133604095D01*
X124928381Y-133366000D01*
X124976000Y-133223142D01*
X125071238Y-133127904D01*
X125166476Y-133080285D01*
X125356952Y-133032666D01*
X125499810Y-133032666D01*
X125690286Y-133080285D01*
X125785524Y-133127904D01*
X125880762Y-133223142D01*
X125928381Y-133366000D01*
X125928381Y-133604095D01*
X117102000Y-135127904D02*
X117054381Y-135223142D01*
X117054381Y-135365999D01*
X117102000Y-135508857D01*
X117197238Y-135604095D01*
X117292476Y-135651714D01*
X117482952Y-135699333D01*
X117625810Y-135699333D01*
X117816286Y-135651714D01*
X117911524Y-135604095D01*
X118006762Y-135508857D01*
X118054381Y-135365999D01*
X118054381Y-135270761D01*
X118006762Y-135127904D01*
X117959143Y-135080285D01*
X117625810Y-135080285D01*
X117625810Y-135270761D01*
X118054381Y-134651714D02*
X117054381Y-134651714D01*
X118054381Y-134080285D01*
X117054381Y-134080285D01*
X118054381Y-133604095D02*
X117054381Y-133604095D01*
X117054381Y-133366000D01*
X117102000Y-133223142D01*
X117197238Y-133127904D01*
X117292476Y-133080285D01*
X117482952Y-133032666D01*
X117625810Y-133032666D01*
X117816286Y-133080285D01*
X117911524Y-133127904D01*
X118006762Y-133223142D01*
X118054381Y-133366000D01*
X118054381Y-133604095D01*
X132294381Y-121523047D02*
X132294381Y-121999238D01*
X132770571Y-122046857D01*
X132722952Y-121999238D01*
X132675333Y-121904000D01*
X132675333Y-121665904D01*
X132722952Y-121570666D01*
X132770571Y-121523047D01*
X132865810Y-121475428D01*
X133103905Y-121475428D01*
X133199143Y-121523047D01*
X133246762Y-121570666D01*
X133294381Y-121665904D01*
X133294381Y-121904000D01*
X133246762Y-121999238D01*
X133199143Y-122046857D01*
X132627714Y-121142095D02*
X133294381Y-120904000D01*
X132627714Y-120665904D01*
X132294381Y-120094476D02*
X132294381Y-119999237D01*
X132342000Y-119903999D01*
X132389619Y-119856380D01*
X132484857Y-119808761D01*
X132675333Y-119761142D01*
X132913429Y-119761142D01*
X133103905Y-119808761D01*
X133199143Y-119856380D01*
X133246762Y-119903999D01*
X133294381Y-119999237D01*
X133294381Y-120094476D01*
X133246762Y-120189714D01*
X133199143Y-120237333D01*
X133103905Y-120284952D01*
X132913429Y-120332571D01*
X132675333Y-120332571D01*
X132484857Y-120284952D01*
X132389619Y-120237333D01*
X132342000Y-120189714D01*
X132294381Y-120094476D01*
X132342000Y-135127904D02*
X132294381Y-135223142D01*
X132294381Y-135365999D01*
X132342000Y-135508857D01*
X132437238Y-135604095D01*
X132532476Y-135651714D01*
X132722952Y-135699333D01*
X132865810Y-135699333D01*
X133056286Y-135651714D01*
X133151524Y-135604095D01*
X133246762Y-135508857D01*
X133294381Y-135365999D01*
X133294381Y-135270761D01*
X133246762Y-135127904D01*
X133199143Y-135080285D01*
X132865810Y-135080285D01*
X132865810Y-135270761D01*
X133294381Y-134651714D02*
X132294381Y-134651714D01*
X133294381Y-134080285D01*
X132294381Y-134080285D01*
X133294381Y-133604095D02*
X132294381Y-133604095D01*
X132294381Y-133366000D01*
X132342000Y-133223142D01*
X132437238Y-133127904D01*
X132532476Y-133080285D01*
X132722952Y-133032666D01*
X132865810Y-133032666D01*
X133056286Y-133080285D01*
X133151524Y-133127904D01*
X133246762Y-133223142D01*
X133294381Y-133366000D01*
X133294381Y-133604095D01*
X131008381Y-122038857D02*
X130008381Y-122038857D01*
X130008381Y-121657904D01*
X130056000Y-121562666D01*
X130103619Y-121515047D01*
X130198857Y-121467428D01*
X130341714Y-121467428D01*
X130436952Y-121515047D01*
X130484571Y-121562666D01*
X130532190Y-121657904D01*
X130532190Y-122038857D01*
X130722667Y-121086476D02*
X130722667Y-120610285D01*
X131008381Y-121181714D02*
X130008381Y-120848381D01*
X131008381Y-120515047D01*
X130103619Y-120229333D02*
X130056000Y-120181714D01*
X130008381Y-120086476D01*
X130008381Y-119848380D01*
X130056000Y-119753142D01*
X130103619Y-119705523D01*
X130198857Y-119657904D01*
X130294095Y-119657904D01*
X130436952Y-119705523D01*
X131008381Y-120276952D01*
X131008381Y-119657904D01*
X130008381Y-119324571D02*
X130008381Y-118705523D01*
X130389333Y-119038857D01*
X130389333Y-118895999D01*
X130436952Y-118800761D01*
X130484571Y-118753142D01*
X130579810Y-118705523D01*
X130817905Y-118705523D01*
X130913143Y-118753142D01*
X130960762Y-118800761D01*
X131008381Y-118895999D01*
X131008381Y-119181714D01*
X130960762Y-119276952D01*
X130913143Y-119324571D01*
X128214381Y-122038857D02*
X127214381Y-122038857D01*
X127214381Y-121657904D01*
X127262000Y-121562666D01*
X127309619Y-121515047D01*
X127404857Y-121467428D01*
X127547714Y-121467428D01*
X127642952Y-121515047D01*
X127690571Y-121562666D01*
X127738190Y-121657904D01*
X127738190Y-122038857D01*
X127928667Y-121086476D02*
X127928667Y-120610285D01*
X128214381Y-121181714D02*
X127214381Y-120848381D01*
X128214381Y-120515047D01*
X127309619Y-120229333D02*
X127262000Y-120181714D01*
X127214381Y-120086476D01*
X127214381Y-119848380D01*
X127262000Y-119753142D01*
X127309619Y-119705523D01*
X127404857Y-119657904D01*
X127500095Y-119657904D01*
X127642952Y-119705523D01*
X128214381Y-120276952D01*
X128214381Y-119657904D01*
X127309619Y-119276952D02*
X127262000Y-119229333D01*
X127214381Y-119134095D01*
X127214381Y-118895999D01*
X127262000Y-118800761D01*
X127309619Y-118753142D01*
X127404857Y-118705523D01*
X127500095Y-118705523D01*
X127642952Y-118753142D01*
X128214381Y-119324571D01*
X128214381Y-118705523D01*
X124674381Y-121840476D02*
X124674381Y-121221428D01*
X125055333Y-121554762D01*
X125055333Y-121411904D01*
X125102952Y-121316666D01*
X125150571Y-121269047D01*
X125245810Y-121221428D01*
X125483905Y-121221428D01*
X125579143Y-121269047D01*
X125626762Y-121316666D01*
X125674381Y-121411904D01*
X125674381Y-121697619D01*
X125626762Y-121792857D01*
X125579143Y-121840476D01*
X125007714Y-120888095D02*
X125674381Y-120650000D01*
X125007714Y-120411904D01*
X124674381Y-120126190D02*
X124674381Y-119507142D01*
X125055333Y-119840476D01*
X125055333Y-119697618D01*
X125102952Y-119602380D01*
X125150571Y-119554761D01*
X125245810Y-119507142D01*
X125483905Y-119507142D01*
X125579143Y-119554761D01*
X125626762Y-119602380D01*
X125674381Y-119697618D01*
X125674381Y-119983333D01*
X125626762Y-120078571D01*
X125579143Y-120126190D01*
X123134381Y-122038857D02*
X122134381Y-122038857D01*
X122134381Y-121657904D01*
X122182000Y-121562666D01*
X122229619Y-121515047D01*
X122324857Y-121467428D01*
X122467714Y-121467428D01*
X122562952Y-121515047D01*
X122610571Y-121562666D01*
X122658190Y-121657904D01*
X122658190Y-122038857D01*
X122848667Y-121086476D02*
X122848667Y-120610285D01*
X123134381Y-121181714D02*
X122134381Y-120848381D01*
X123134381Y-120515047D01*
X123134381Y-119657904D02*
X123134381Y-120229333D01*
X123134381Y-119943619D02*
X122134381Y-119943619D01*
X122277238Y-120038857D01*
X122372476Y-120134095D01*
X122420095Y-120229333D01*
X122467714Y-118800761D02*
X123134381Y-118800761D01*
X122086762Y-119038857D02*
X122801048Y-119276952D01*
X122801048Y-118657904D01*
X123388381Y-135754857D02*
X122388381Y-135754857D01*
X122388381Y-135373904D01*
X122436000Y-135278666D01*
X122483619Y-135231047D01*
X122578857Y-135183428D01*
X122721714Y-135183428D01*
X122816952Y-135231047D01*
X122864571Y-135278666D01*
X122912190Y-135373904D01*
X122912190Y-135754857D01*
X123102667Y-134802476D02*
X123102667Y-134326285D01*
X123388381Y-134897714D02*
X122388381Y-134564381D01*
X123388381Y-134231047D01*
X123388381Y-133373904D02*
X123388381Y-133945333D01*
X123388381Y-133659619D02*
X122388381Y-133659619D01*
X122531238Y-133754857D01*
X122626476Y-133850095D01*
X122674095Y-133945333D01*
X122388381Y-132469142D02*
X122388381Y-132945333D01*
X122864571Y-132992952D01*
X122816952Y-132945333D01*
X122769333Y-132850095D01*
X122769333Y-132611999D01*
X122816952Y-132516761D01*
X122864571Y-132469142D01*
X122959810Y-132421523D01*
X123197905Y-132421523D01*
X123293143Y-132469142D01*
X123340762Y-132516761D01*
X123388381Y-132611999D01*
X123388381Y-132850095D01*
X123340762Y-132945333D01*
X123293143Y-132992952D01*
X120594381Y-135754857D02*
X119594381Y-135754857D01*
X119594381Y-135373904D01*
X119642000Y-135278666D01*
X119689619Y-135231047D01*
X119784857Y-135183428D01*
X119927714Y-135183428D01*
X120022952Y-135231047D01*
X120070571Y-135278666D01*
X120118190Y-135373904D01*
X120118190Y-135754857D01*
X120308667Y-134802476D02*
X120308667Y-134326285D01*
X120594381Y-134897714D02*
X119594381Y-134564381D01*
X120594381Y-134231047D01*
X119594381Y-133707238D02*
X119594381Y-133611999D01*
X119642000Y-133516761D01*
X119689619Y-133469142D01*
X119784857Y-133421523D01*
X119975333Y-133373904D01*
X120213429Y-133373904D01*
X120403905Y-133421523D01*
X120499143Y-133469142D01*
X120546762Y-133516761D01*
X120594381Y-133611999D01*
X120594381Y-133707238D01*
X120546762Y-133802476D01*
X120499143Y-133850095D01*
X120403905Y-133897714D01*
X120213429Y-133945333D01*
X119975333Y-133945333D01*
X119784857Y-133897714D01*
X119689619Y-133850095D01*
X119642000Y-133802476D01*
X119594381Y-133707238D01*
X120594381Y-132897714D02*
X120594381Y-132707238D01*
X120546762Y-132611999D01*
X120499143Y-132564380D01*
X120356286Y-132469142D01*
X120165810Y-132421523D01*
X119784857Y-132421523D01*
X119689619Y-132469142D01*
X119642000Y-132516761D01*
X119594381Y-132611999D01*
X119594381Y-132802476D01*
X119642000Y-132897714D01*
X119689619Y-132945333D01*
X119784857Y-132992952D01*
X120022952Y-132992952D01*
X120118190Y-132945333D01*
X120165810Y-132897714D01*
X120213429Y-132802476D01*
X120213429Y-132611999D01*
X120165810Y-132516761D01*
X120118190Y-132469142D01*
X120022952Y-132421523D01*
X120594381Y-122038857D02*
X119594381Y-122038857D01*
X119594381Y-121657904D01*
X119642000Y-121562666D01*
X119689619Y-121515047D01*
X119784857Y-121467428D01*
X119927714Y-121467428D01*
X120022952Y-121515047D01*
X120070571Y-121562666D01*
X120118190Y-121657904D01*
X120118190Y-122038857D01*
X120308667Y-121086476D02*
X120308667Y-120610285D01*
X120594381Y-121181714D02*
X119594381Y-120848381D01*
X120594381Y-120515047D01*
X119594381Y-119991238D02*
X119594381Y-119895999D01*
X119642000Y-119800761D01*
X119689619Y-119753142D01*
X119784857Y-119705523D01*
X119975333Y-119657904D01*
X120213429Y-119657904D01*
X120403905Y-119705523D01*
X120499143Y-119753142D01*
X120546762Y-119800761D01*
X120594381Y-119895999D01*
X120594381Y-119991238D01*
X120546762Y-120086476D01*
X120499143Y-120134095D01*
X120403905Y-120181714D01*
X120213429Y-120229333D01*
X119975333Y-120229333D01*
X119784857Y-120181714D01*
X119689619Y-120134095D01*
X119642000Y-120086476D01*
X119594381Y-119991238D01*
X120022952Y-119086476D02*
X119975333Y-119181714D01*
X119927714Y-119229333D01*
X119832476Y-119276952D01*
X119784857Y-119276952D01*
X119689619Y-119229333D01*
X119642000Y-119181714D01*
X119594381Y-119086476D01*
X119594381Y-118895999D01*
X119642000Y-118800761D01*
X119689619Y-118753142D01*
X119784857Y-118705523D01*
X119832476Y-118705523D01*
X119927714Y-118753142D01*
X119975333Y-118800761D01*
X120022952Y-118895999D01*
X120022952Y-119086476D01*
X120070571Y-119181714D01*
X120118190Y-119229333D01*
X120213429Y-119276952D01*
X120403905Y-119276952D01*
X120499143Y-119229333D01*
X120546762Y-119181714D01*
X120594381Y-119086476D01*
X120594381Y-118895999D01*
X120546762Y-118800761D01*
X120499143Y-118753142D01*
X120403905Y-118705523D01*
X120213429Y-118705523D01*
X120118190Y-118753142D01*
X120070571Y-118800761D01*
X120022952Y-118895999D01*
X118054381Y-122038857D02*
X117054381Y-122038857D01*
X117054381Y-121657904D01*
X117102000Y-121562666D01*
X117149619Y-121515047D01*
X117244857Y-121467428D01*
X117387714Y-121467428D01*
X117482952Y-121515047D01*
X117530571Y-121562666D01*
X117578190Y-121657904D01*
X117578190Y-122038857D01*
X117768667Y-121086476D02*
X117768667Y-120610285D01*
X118054381Y-121181714D02*
X117054381Y-120848381D01*
X118054381Y-120515047D01*
X117054381Y-119991238D02*
X117054381Y-119895999D01*
X117102000Y-119800761D01*
X117149619Y-119753142D01*
X117244857Y-119705523D01*
X117435333Y-119657904D01*
X117673429Y-119657904D01*
X117863905Y-119705523D01*
X117959143Y-119753142D01*
X118006762Y-119800761D01*
X118054381Y-119895999D01*
X118054381Y-119991238D01*
X118006762Y-120086476D01*
X117959143Y-120134095D01*
X117863905Y-120181714D01*
X117673429Y-120229333D01*
X117435333Y-120229333D01*
X117244857Y-120181714D01*
X117149619Y-120134095D01*
X117102000Y-120086476D01*
X117054381Y-119991238D01*
X117054381Y-119324571D02*
X117054381Y-118657904D01*
X118054381Y-119086476D01*
X115768381Y-135754857D02*
X114768381Y-135754857D01*
X114768381Y-135373904D01*
X114816000Y-135278666D01*
X114863619Y-135231047D01*
X114958857Y-135183428D01*
X115101714Y-135183428D01*
X115196952Y-135231047D01*
X115244571Y-135278666D01*
X115292190Y-135373904D01*
X115292190Y-135754857D01*
X115482667Y-134802476D02*
X115482667Y-134326285D01*
X115768381Y-134897714D02*
X114768381Y-134564381D01*
X115768381Y-134231047D01*
X114768381Y-133707238D02*
X114768381Y-133611999D01*
X114816000Y-133516761D01*
X114863619Y-133469142D01*
X114958857Y-133421523D01*
X115149333Y-133373904D01*
X115387429Y-133373904D01*
X115577905Y-133421523D01*
X115673143Y-133469142D01*
X115720762Y-133516761D01*
X115768381Y-133611999D01*
X115768381Y-133707238D01*
X115720762Y-133802476D01*
X115673143Y-133850095D01*
X115577905Y-133897714D01*
X115387429Y-133945333D01*
X115149333Y-133945333D01*
X114958857Y-133897714D01*
X114863619Y-133850095D01*
X114816000Y-133802476D01*
X114768381Y-133707238D01*
X114768381Y-132516761D02*
X114768381Y-132707238D01*
X114816000Y-132802476D01*
X114863619Y-132850095D01*
X115006476Y-132945333D01*
X115196952Y-132992952D01*
X115577905Y-132992952D01*
X115673143Y-132945333D01*
X115720762Y-132897714D01*
X115768381Y-132802476D01*
X115768381Y-132611999D01*
X115720762Y-132516761D01*
X115673143Y-132469142D01*
X115577905Y-132421523D01*
X115339810Y-132421523D01*
X115244571Y-132469142D01*
X115196952Y-132516761D01*
X115149333Y-132611999D01*
X115149333Y-132802476D01*
X115196952Y-132897714D01*
X115244571Y-132945333D01*
X115339810Y-132992952D01*
X115514381Y-122038857D02*
X114514381Y-122038857D01*
X114514381Y-121657904D01*
X114562000Y-121562666D01*
X114609619Y-121515047D01*
X114704857Y-121467428D01*
X114847714Y-121467428D01*
X114942952Y-121515047D01*
X114990571Y-121562666D01*
X115038190Y-121657904D01*
X115038190Y-122038857D01*
X115228667Y-121086476D02*
X115228667Y-120610285D01*
X115514381Y-121181714D02*
X114514381Y-120848381D01*
X115514381Y-120515047D01*
X114514381Y-119991238D02*
X114514381Y-119895999D01*
X114562000Y-119800761D01*
X114609619Y-119753142D01*
X114704857Y-119705523D01*
X114895333Y-119657904D01*
X115133429Y-119657904D01*
X115323905Y-119705523D01*
X115419143Y-119753142D01*
X115466762Y-119800761D01*
X115514381Y-119895999D01*
X115514381Y-119991238D01*
X115466762Y-120086476D01*
X115419143Y-120134095D01*
X115323905Y-120181714D01*
X115133429Y-120229333D01*
X114895333Y-120229333D01*
X114704857Y-120181714D01*
X114609619Y-120134095D01*
X114562000Y-120086476D01*
X114514381Y-119991238D01*
X114514381Y-118753142D02*
X114514381Y-119229333D01*
X114990571Y-119276952D01*
X114942952Y-119229333D01*
X114895333Y-119134095D01*
X114895333Y-118895999D01*
X114942952Y-118800761D01*
X114990571Y-118753142D01*
X115085810Y-118705523D01*
X115323905Y-118705523D01*
X115419143Y-118753142D01*
X115466762Y-118800761D01*
X115514381Y-118895999D01*
X115514381Y-119134095D01*
X115466762Y-119229333D01*
X115419143Y-119276952D01*
X112974381Y-135754857D02*
X111974381Y-135754857D01*
X111974381Y-135373904D01*
X112022000Y-135278666D01*
X112069619Y-135231047D01*
X112164857Y-135183428D01*
X112307714Y-135183428D01*
X112402952Y-135231047D01*
X112450571Y-135278666D01*
X112498190Y-135373904D01*
X112498190Y-135754857D01*
X112688667Y-134802476D02*
X112688667Y-134326285D01*
X112974381Y-134897714D02*
X111974381Y-134564381D01*
X112974381Y-134231047D01*
X111974381Y-133707238D02*
X111974381Y-133611999D01*
X112022000Y-133516761D01*
X112069619Y-133469142D01*
X112164857Y-133421523D01*
X112355333Y-133373904D01*
X112593429Y-133373904D01*
X112783905Y-133421523D01*
X112879143Y-133469142D01*
X112926762Y-133516761D01*
X112974381Y-133611999D01*
X112974381Y-133707238D01*
X112926762Y-133802476D01*
X112879143Y-133850095D01*
X112783905Y-133897714D01*
X112593429Y-133945333D01*
X112355333Y-133945333D01*
X112164857Y-133897714D01*
X112069619Y-133850095D01*
X112022000Y-133802476D01*
X111974381Y-133707238D01*
X112307714Y-132516761D02*
X112974381Y-132516761D01*
X111926762Y-132754857D02*
X112641048Y-132992952D01*
X112641048Y-132373904D01*
X112974381Y-122038857D02*
X111974381Y-122038857D01*
X111974381Y-121657904D01*
X112022000Y-121562666D01*
X112069619Y-121515047D01*
X112164857Y-121467428D01*
X112307714Y-121467428D01*
X112402952Y-121515047D01*
X112450571Y-121562666D01*
X112498190Y-121657904D01*
X112498190Y-122038857D01*
X112688667Y-121086476D02*
X112688667Y-120610285D01*
X112974381Y-121181714D02*
X111974381Y-120848381D01*
X112974381Y-120515047D01*
X111974381Y-119991238D02*
X111974381Y-119895999D01*
X112022000Y-119800761D01*
X112069619Y-119753142D01*
X112164857Y-119705523D01*
X112355333Y-119657904D01*
X112593429Y-119657904D01*
X112783905Y-119705523D01*
X112879143Y-119753142D01*
X112926762Y-119800761D01*
X112974381Y-119895999D01*
X112974381Y-119991238D01*
X112926762Y-120086476D01*
X112879143Y-120134095D01*
X112783905Y-120181714D01*
X112593429Y-120229333D01*
X112355333Y-120229333D01*
X112164857Y-120181714D01*
X112069619Y-120134095D01*
X112022000Y-120086476D01*
X111974381Y-119991238D01*
X111974381Y-119324571D02*
X111974381Y-118705523D01*
X112355333Y-119038857D01*
X112355333Y-118895999D01*
X112402952Y-118800761D01*
X112450571Y-118753142D01*
X112545810Y-118705523D01*
X112783905Y-118705523D01*
X112879143Y-118753142D01*
X112926762Y-118800761D01*
X112974381Y-118895999D01*
X112974381Y-119181714D01*
X112926762Y-119276952D01*
X112879143Y-119324571D01*
X110434381Y-122038857D02*
X109434381Y-122038857D01*
X109434381Y-121657904D01*
X109482000Y-121562666D01*
X109529619Y-121515047D01*
X109624857Y-121467428D01*
X109767714Y-121467428D01*
X109862952Y-121515047D01*
X109910571Y-121562666D01*
X109958190Y-121657904D01*
X109958190Y-122038857D01*
X110148667Y-121086476D02*
X110148667Y-120610285D01*
X110434381Y-121181714D02*
X109434381Y-120848381D01*
X110434381Y-120515047D01*
X109434381Y-119991238D02*
X109434381Y-119895999D01*
X109482000Y-119800761D01*
X109529619Y-119753142D01*
X109624857Y-119705523D01*
X109815333Y-119657904D01*
X110053429Y-119657904D01*
X110243905Y-119705523D01*
X110339143Y-119753142D01*
X110386762Y-119800761D01*
X110434381Y-119895999D01*
X110434381Y-119991238D01*
X110386762Y-120086476D01*
X110339143Y-120134095D01*
X110243905Y-120181714D01*
X110053429Y-120229333D01*
X109815333Y-120229333D01*
X109624857Y-120181714D01*
X109529619Y-120134095D01*
X109482000Y-120086476D01*
X109434381Y-119991238D01*
X109529619Y-119276952D02*
X109482000Y-119229333D01*
X109434381Y-119134095D01*
X109434381Y-118895999D01*
X109482000Y-118800761D01*
X109529619Y-118753142D01*
X109624857Y-118705523D01*
X109720095Y-118705523D01*
X109862952Y-118753142D01*
X110434381Y-119324571D01*
X110434381Y-118705523D01*
X109482000Y-135127904D02*
X109434381Y-135223142D01*
X109434381Y-135365999D01*
X109482000Y-135508857D01*
X109577238Y-135604095D01*
X109672476Y-135651714D01*
X109862952Y-135699333D01*
X110005810Y-135699333D01*
X110196286Y-135651714D01*
X110291524Y-135604095D01*
X110386762Y-135508857D01*
X110434381Y-135365999D01*
X110434381Y-135270761D01*
X110386762Y-135127904D01*
X110339143Y-135080285D01*
X110005810Y-135080285D01*
X110005810Y-135270761D01*
X110434381Y-134651714D02*
X109434381Y-134651714D01*
X110434381Y-134080285D01*
X109434381Y-134080285D01*
X110434381Y-133604095D02*
X109434381Y-133604095D01*
X109434381Y-133366000D01*
X109482000Y-133223142D01*
X109577238Y-133127904D01*
X109672476Y-133080285D01*
X109862952Y-133032666D01*
X110005810Y-133032666D01*
X110196286Y-133080285D01*
X110291524Y-133127904D01*
X110386762Y-133223142D01*
X110434381Y-133366000D01*
X110434381Y-133604095D01*
X119285000Y-115265000D02*
X119620000Y-115265000D01*
X119285000Y-107515000D02*
X119620000Y-107515000D01*
X132435000Y-107515000D02*
X132100000Y-107515000D01*
X132435000Y-115265000D02*
X132100000Y-115265000D01*
X119285000Y-115265000D02*
X119285000Y-107515000D01*
X132435000Y-115265000D02*
X132435000Y-107515000D01*
X119620000Y-115265000D02*
X119620000Y-117065000D01*
X114640000Y-102600000D02*
X114640000Y-101600000D01*
X112940000Y-101600000D02*
X112940000Y-102600000D01*
X118640000Y-97450000D02*
X118640000Y-96450000D01*
X116940000Y-96450000D02*
X116940000Y-97450000D01*
X122840000Y-97410000D02*
X122840000Y-96410000D01*
X121140000Y-96410000D02*
X121140000Y-97410000D01*
X124980000Y-96410000D02*
X124980000Y-97410000D01*
X126680000Y-97410000D02*
X126680000Y-96410000D01*
X118139020Y-102410000D02*
X120839020Y-102410000D01*
X118139020Y-100910000D02*
X120839020Y-100910000D01*
X119639020Y-101810000D02*
X119639020Y-101560000D01*
X119639020Y-101560000D02*
X119489020Y-101710000D01*
X119389020Y-101310000D02*
X119389020Y-102010000D01*
X119739020Y-101660000D02*
X120089020Y-101660000D01*
X119389020Y-101660000D02*
X119739020Y-101310000D01*
X119739020Y-101310000D02*
X119739020Y-102010000D01*
X119739020Y-102010000D02*
X119389020Y-101660000D01*
X125190000Y-102535000D02*
X123990000Y-102535000D01*
X123990000Y-100785000D02*
X125190000Y-100785000D01*
X112915000Y-97650000D02*
X112915000Y-96450000D01*
X114665000Y-96450000D02*
X114665000Y-97650000D01*
X115408000Y-107301000D02*
X114208000Y-107301000D01*
X114208000Y-105551000D02*
X115408000Y-105551000D01*
X136586000Y-98128000D02*
X136586000Y-95080000D01*
X136586000Y-95080000D02*
X129474000Y-95080000D01*
X129474000Y-95080000D02*
X129474000Y-98128000D01*
X136586000Y-101176000D02*
X136586000Y-101938000D01*
X136586000Y-101938000D02*
X135062000Y-104224000D01*
X135062000Y-104224000D02*
X130998000Y-104224000D01*
X130998000Y-104224000D02*
X129474000Y-101938000D01*
X129474000Y-101938000D02*
X129474000Y-101176000D01*
X110558000Y-98006000D02*
X109758000Y-98006000D01*
X110558000Y-104656000D02*
X110558000Y-98006000D01*
X110558000Y-104656000D02*
X107608000Y-104656000D01*
X107608000Y-104656000D02*
X107608000Y-100106000D01*
X108958000Y-98006000D02*
X107608000Y-98006000D01*
X107608000Y-98006000D02*
X107608000Y-99306000D01*
X112583714Y-114010000D02*
G75*
G03X112583714Y-114010000I-1750714J0D01*
G01*
X114058000Y-110785000D02*
X114058000Y-110810000D01*
X114058000Y-117235000D02*
X114058000Y-117210000D01*
X107608000Y-117235000D02*
X107608000Y-117210000D01*
X107608000Y-110810000D02*
X107608000Y-110785000D01*
X114058000Y-112710000D02*
X114058000Y-115310000D01*
X107608000Y-110785000D02*
X114058000Y-110785000D01*
X107608000Y-112710000D02*
X107608000Y-115310000D01*
X107608000Y-117235000D02*
X114058000Y-117235000D01*
X134112000Y-124714000D02*
X108712000Y-124714000D01*
X111252000Y-129794000D02*
X134112000Y-129794000D01*
X134112000Y-124714000D02*
X134112000Y-129794000D01*
X108712000Y-124714000D02*
X108712000Y-127254000D01*
X108432000Y-128524000D02*
X108432000Y-130074000D01*
X108712000Y-127254000D02*
X111252000Y-127254000D01*
X111252000Y-127254000D02*
X111252000Y-129794000D01*
X108432000Y-130074000D02*
X109982000Y-130074000D01*
X132802381Y-112013905D02*
X133611905Y-112013905D01*
X133707143Y-111966286D01*
X133754762Y-111918667D01*
X133802381Y-111823429D01*
X133802381Y-111632952D01*
X133754762Y-111537714D01*
X133707143Y-111490095D01*
X133611905Y-111442476D01*
X132802381Y-111442476D01*
X133802381Y-110442476D02*
X133802381Y-111013905D01*
X133802381Y-110728191D02*
X132802381Y-110728191D01*
X132945238Y-110823429D01*
X133040476Y-110918667D01*
X133088095Y-111013905D01*
X115937143Y-102256666D02*
X115984762Y-102304285D01*
X116032381Y-102447142D01*
X116032381Y-102542380D01*
X115984762Y-102685238D01*
X115889524Y-102780476D01*
X115794286Y-102828095D01*
X115603810Y-102875714D01*
X115460952Y-102875714D01*
X115270476Y-102828095D01*
X115175238Y-102780476D01*
X115080000Y-102685238D01*
X115032381Y-102542380D01*
X115032381Y-102447142D01*
X115080000Y-102304285D01*
X115127619Y-102256666D01*
X116032381Y-101304285D02*
X116032381Y-101875714D01*
X116032381Y-101590000D02*
X115032381Y-101590000D01*
X115175238Y-101685238D01*
X115270476Y-101780476D01*
X115318095Y-101875714D01*
X116435143Y-97173906D02*
X116482762Y-97221525D01*
X116530381Y-97364382D01*
X116530381Y-97459620D01*
X116482762Y-97602478D01*
X116387524Y-97697716D01*
X116292286Y-97745335D01*
X116101810Y-97792954D01*
X115958952Y-97792954D01*
X115768476Y-97745335D01*
X115673238Y-97697716D01*
X115578000Y-97602478D01*
X115530381Y-97459620D01*
X115530381Y-97364382D01*
X115578000Y-97221525D01*
X115625619Y-97173906D01*
X115625619Y-96792954D02*
X115578000Y-96745335D01*
X115530381Y-96650097D01*
X115530381Y-96412001D01*
X115578000Y-96316763D01*
X115625619Y-96269144D01*
X115720857Y-96221525D01*
X115816095Y-96221525D01*
X115958952Y-96269144D01*
X116530381Y-96840573D01*
X116530381Y-96221525D01*
X120753143Y-97051666D02*
X120800762Y-97099285D01*
X120848381Y-97242142D01*
X120848381Y-97337380D01*
X120800762Y-97480238D01*
X120705524Y-97575476D01*
X120610286Y-97623095D01*
X120419810Y-97670714D01*
X120276952Y-97670714D01*
X120086476Y-97623095D01*
X119991238Y-97575476D01*
X119896000Y-97480238D01*
X119848381Y-97337380D01*
X119848381Y-97242142D01*
X119896000Y-97099285D01*
X119943619Y-97051666D01*
X119848381Y-96718333D02*
X119848381Y-96099285D01*
X120229333Y-96432619D01*
X120229333Y-96289761D01*
X120276952Y-96194523D01*
X120324571Y-96146904D01*
X120419810Y-96099285D01*
X120657905Y-96099285D01*
X120753143Y-96146904D01*
X120800762Y-96194523D01*
X120848381Y-96289761D01*
X120848381Y-96575476D01*
X120800762Y-96670714D01*
X120753143Y-96718333D01*
X124563143Y-97076666D02*
X124610762Y-97124285D01*
X124658381Y-97267142D01*
X124658381Y-97362380D01*
X124610762Y-97505238D01*
X124515524Y-97600476D01*
X124420286Y-97648095D01*
X124229810Y-97695714D01*
X124086952Y-97695714D01*
X123896476Y-97648095D01*
X123801238Y-97600476D01*
X123706000Y-97505238D01*
X123658381Y-97362380D01*
X123658381Y-97267142D01*
X123706000Y-97124285D01*
X123753619Y-97076666D01*
X123991714Y-96219523D02*
X124658381Y-96219523D01*
X123610762Y-96457619D02*
X124325048Y-96695714D01*
X124325048Y-96076666D01*
X119000925Y-103830381D02*
X119000925Y-102830381D01*
X119239020Y-102830381D01*
X119381878Y-102878000D01*
X119477116Y-102973238D01*
X119524735Y-103068476D01*
X119572354Y-103258952D01*
X119572354Y-103401810D01*
X119524735Y-103592286D01*
X119477116Y-103687524D01*
X119381878Y-103782762D01*
X119239020Y-103830381D01*
X119000925Y-103830381D01*
X120524735Y-103830381D02*
X119953306Y-103830381D01*
X120239020Y-103830381D02*
X120239020Y-102830381D01*
X120143782Y-102973238D01*
X120048544Y-103068476D01*
X119953306Y-103116095D01*
X124547334Y-104084381D02*
X124214000Y-103608190D01*
X123975905Y-104084381D02*
X123975905Y-103084381D01*
X124356858Y-103084381D01*
X124452096Y-103132000D01*
X124499715Y-103179619D01*
X124547334Y-103274857D01*
X124547334Y-103417714D01*
X124499715Y-103512952D01*
X124452096Y-103560571D01*
X124356858Y-103608190D01*
X123975905Y-103608190D01*
X125499715Y-104084381D02*
X124928286Y-104084381D01*
X125214000Y-104084381D02*
X125214000Y-103084381D01*
X125118762Y-103227238D01*
X125023524Y-103322476D01*
X124928286Y-103370095D01*
X112466381Y-97246666D02*
X111990190Y-97580000D01*
X112466381Y-97818095D02*
X111466381Y-97818095D01*
X111466381Y-97437142D01*
X111514000Y-97341904D01*
X111561619Y-97294285D01*
X111656857Y-97246666D01*
X111799714Y-97246666D01*
X111894952Y-97294285D01*
X111942571Y-97341904D01*
X111990190Y-97437142D01*
X111990190Y-97818095D01*
X111561619Y-96865714D02*
X111514000Y-96818095D01*
X111466381Y-96722857D01*
X111466381Y-96484761D01*
X111514000Y-96389523D01*
X111561619Y-96341904D01*
X111656857Y-96294285D01*
X111752095Y-96294285D01*
X111894952Y-96341904D01*
X112466381Y-96913333D01*
X112466381Y-96294285D01*
X114617454Y-108778941D02*
X114284120Y-108302750D01*
X114046025Y-108778941D02*
X114046025Y-107778941D01*
X114426978Y-107778941D01*
X114522216Y-107826560D01*
X114569835Y-107874179D01*
X114617454Y-107969417D01*
X114617454Y-108112274D01*
X114569835Y-108207512D01*
X114522216Y-108255131D01*
X114426978Y-108302750D01*
X114046025Y-108302750D01*
X114950787Y-107778941D02*
X115569835Y-107778941D01*
X115236501Y-108159893D01*
X115379359Y-108159893D01*
X115474597Y-108207512D01*
X115522216Y-108255131D01*
X115569835Y-108350370D01*
X115569835Y-108588465D01*
X115522216Y-108683703D01*
X115474597Y-108731322D01*
X115379359Y-108778941D01*
X115093644Y-108778941D01*
X114998406Y-108731322D01*
X114950787Y-108683703D01*
X128230381Y-97535905D02*
X129039905Y-97535905D01*
X129135143Y-97488286D01*
X129182762Y-97440667D01*
X129230381Y-97345429D01*
X129230381Y-97154952D01*
X129182762Y-97059714D01*
X129135143Y-97012095D01*
X129039905Y-96964476D01*
X128230381Y-96964476D01*
X128325619Y-96535905D02*
X128278000Y-96488286D01*
X128230381Y-96393048D01*
X128230381Y-96154952D01*
X128278000Y-96059714D01*
X128325619Y-96012095D01*
X128420857Y-95964476D01*
X128516095Y-95964476D01*
X128658952Y-96012095D01*
X129230381Y-96583524D01*
X129230381Y-95964476D01*
X106878381Y-102338095D02*
X105878381Y-102338095D01*
X105878381Y-101957142D01*
X105926000Y-101861904D01*
X105973619Y-101814285D01*
X106068857Y-101766666D01*
X106211714Y-101766666D01*
X106306952Y-101814285D01*
X106354571Y-101861904D01*
X106402190Y-101957142D01*
X106402190Y-102338095D01*
X106878381Y-100814285D02*
X106878381Y-101385714D01*
X106878381Y-101100000D02*
X105878381Y-101100000D01*
X106021238Y-101195238D01*
X106116476Y-101290476D01*
X106164095Y-101385714D01*
X109499667Y-110132762D02*
X109642524Y-110180381D01*
X109880620Y-110180381D01*
X109975858Y-110132762D01*
X110023477Y-110085143D01*
X110071096Y-109989905D01*
X110071096Y-109894667D01*
X110023477Y-109799429D01*
X109975858Y-109751810D01*
X109880620Y-109704190D01*
X109690143Y-109656571D01*
X109594905Y-109608952D01*
X109547286Y-109561333D01*
X109499667Y-109466095D01*
X109499667Y-109370857D01*
X109547286Y-109275619D01*
X109594905Y-109228000D01*
X109690143Y-109180381D01*
X109928239Y-109180381D01*
X110071096Y-109228000D01*
X110404429Y-109180381D02*
X110642524Y-110180381D01*
X110833001Y-109466095D01*
X111023477Y-110180381D01*
X111261572Y-109180381D01*
X112166334Y-110180381D02*
X111594905Y-110180381D01*
X111880619Y-110180381D02*
X111880619Y-109180381D01*
X111785381Y-109323238D01*
X111690143Y-109418476D01*
X111594905Y-109466095D01*
X107640381Y-128246095D02*
X106640381Y-128246095D01*
X106640381Y-127865142D01*
X106688000Y-127769904D01*
X106735619Y-127722285D01*
X106830857Y-127674666D01*
X106973714Y-127674666D01*
X107068952Y-127722285D01*
X107116571Y-127769904D01*
X107164190Y-127865142D01*
X107164190Y-128246095D01*
X106735619Y-127293714D02*
X106688000Y-127246095D01*
X106640381Y-127150857D01*
X106640381Y-126912761D01*
X106688000Y-126817523D01*
X106735619Y-126769904D01*
X106830857Y-126722285D01*
X106926095Y-126722285D01*
X107068952Y-126769904D01*
X107640381Y-127341333D01*
X107640381Y-126722285D01*
M02*
