M48
;DRILL file {KiCad (5.0.2)-1} date 5/17/2019 12:02:49 AM
;FORMAT={3:3/ absolute / metric / suppress leading zeros}
FMAT,2
METRIC,TZ
T1C0.200
T2C0.300
T3C0.400
T4C0.500
T5C0.650
T6C0.900
T7C1.000
T8C1.300
T9C1.600
T10C2.000
T11C3.400
T12C4.100
T13C1.000
T14C2.700
T15C3.250
T16C3.300
%
G90
G05
T1
X74825Y-41400
X74825Y-42250
X75625Y-41400
X75625Y-42250
X76625Y-41400
X76625Y-42250
X77425Y-41400
X77425Y-42250
T2
X50850Y-27925
X51100Y-13875
X51250Y-55550
X51350Y-44525
X51500Y-94250
X51550Y-33500
X51575Y-39025
X51775Y-29775
X51800Y-28925
X52000Y-107250
X52075Y-99325
X52325Y-101750
X52500Y-51725
X52500Y-52800
X52525Y-47250
X52525Y-58275
X52525Y-61000
X52550Y-41775
X52575Y-36275
X53050Y-104200
X53150Y-96125
X53325Y-21775
X53425Y-28975
X53450Y-105875
X54201Y-29513
X54700Y-15625
X54934Y-30468
X55050Y-12250
X55225Y-96250
X55350Y-30900
X55575Y-24700
X55800Y-105550
X56050Y-24275
X56100Y-18925
X56117Y-31869
X56525Y-13625
X56600Y-32225
X56975Y-47268
X56975Y-56775
X57000Y-36268
X57000Y-41768
X57025Y-52768
X57125Y-59550
X57825Y-16275
X58303Y-22356
X58475Y-10050
X58675Y-104100
X58691Y-21898
X59026Y-23000
X59028Y-21402
X59825Y-96225
X60125Y-21375
X60325Y-37550
X60725Y-24025
X60850Y-105575
X61313Y-59737
X61325Y-40225
X61375Y-24025
X61514Y-10905
X61525Y-44518
X61650Y-18139
X62025Y-104075
X62075Y-18650
X62150Y-24075
X62400Y-5547
X62425Y-32600
X62474Y-19099
X62500Y-1125
X62724Y-56676
X62924Y-19497
X62937Y-5817
X62979Y-59050
X62980Y-59650
X63000Y-60250
X63002Y-58451
X63050Y-31882
X63250Y-62000
X63365Y-6237
X63400Y-19950
X63761Y-6705
X63875Y-2175
X63975Y-105600
X64175Y-50000
X64325Y-30950
X64375Y-7125
X64725Y-30500
X64866Y-11120
X65200Y-47575
X65219Y-29757
X65425Y-45325
X65475Y-50050
X65550Y-23275
X65600Y-52825
X65675Y-55225
X65800Y-29608
X66500Y-20000
X66725Y-2150
X67000Y-17500
X67475Y-11350
X67700Y-46325
X67850Y-48325
X67875Y-51275
X67900Y-53925
X67925Y-45425
X68225Y-55600
X68250Y-33903
X69500Y-2200
X69500Y-47000
X69550Y-99725
X69550Y-103625
X69550Y-105550
X69725Y-40675
X70100Y-24900
X70225Y-42200
X70475Y-39625
X70500Y-47000
X70750Y-38075
X70795Y-26395
X71250Y-47000
X71255Y-26855
X71275Y-36250
X71900Y-41650
X72175Y-2225
X72250Y-47000
X72375Y-74825
X72450Y-43900
X72450Y-44525
X72450Y-45100
X72450Y-45775
X72625Y-102225
X72700Y-55762
X72700Y-101025
X72900Y-137100
X72925Y-96975
X73075Y-38000
X73125Y-76850
X73150Y-39800
X73450Y-80950
X73450Y-140150
X73700Y-86025
X73750Y-47000
X73750Y-47750
X73750Y-48750
X73750Y-49750
X73750Y-50750
X73750Y-52000
X73750Y-53500
X74150Y-137225
X74500Y-47750
X75000Y-35750
X75000Y-43750
X75000Y-44365
X75000Y-45000
X75025Y-83550
X75100Y-24225
X75150Y-74075
X75200Y-39225
X75250Y-47750
X75250Y-65750
X75350Y-55762
X75675Y-60675
X75925Y-76800
X76000Y-43750
X76000Y-44365
X76000Y-45000
X76000Y-47750
X76125Y-86175
X76375Y-79625
X77375Y-43802
X77375Y-44365
X77375Y-45000
X77500Y-47750
X77550Y-83700
X77675Y-39350
X78250Y-47750
X78750Y-30750
X79000Y-47750
X79025Y-55762
X79025Y-81025
X79400Y-86175
X79575Y-59600
X79750Y-2250
X79750Y-43750
X79750Y-44500
X79750Y-45250
X79750Y-46250
X79750Y-47000
X79750Y-47750
X80000Y-26000
X80750Y-13000
X80875Y-83600
X82375Y-80950
X84025Y-39275
X85000Y-11250
X85250Y-2750
X85300Y-20900
X85300Y-21550
X85367Y-47900
X87625Y-84800
X88100Y-30325
X89150Y-112425
X89150Y-120225
X89225Y-122525
X89275Y-117725
X89300Y-115700
X89300Y-124050
X89318Y-47873
X89600Y-42100
X89950Y-47725
X90175Y-61100
X90225Y-28725
X90250Y-8250
X90300Y-42200
X90875Y-47825
X90900Y-42200
X91075Y-121675
X91075Y-123700
X91175Y-118925
X91250Y-117025
X91275Y-114375
X91488Y-42318
X91525Y-111275
X91750Y-27650
X92075Y-85050
X92097Y-42362
X92460Y-47775
X92692Y-42434
X93200Y-116150
X93225Y-118050
X93250Y-122650
X93300Y-120125
X93367Y-47775
X93375Y-39575
X93450Y-112050
X93475Y-69050
X93900Y-48700
X94250Y-2750
X94386Y-48300
X94775Y-114325
X94862Y-27762
X94900Y-121625
X94925Y-117325
X94925Y-118850
X94925Y-123550
X94985Y-48291
X95600Y-48200
X95625Y-91625
X95650Y-111275
X95675Y-88775
X95700Y-94450
X96475Y-113100
X96775Y-26812
X96875Y-116200
X97125Y-43125
X97225Y-57325
X97350Y-96675
X97425Y-60626
X97875Y-88775
X98450Y-99300
X98500Y-126675
X98900Y-27825
X99050Y-114500
X99075Y-111450
X99075Y-117375
X99725Y-80575
X99875Y-113150
X99925Y-32750
X99975Y-60300
X101025Y-99100
X101025Y-126575
X101050Y-88675
X101250Y-22500
X101525Y-113025
X101725Y-116225
X102675Y-32825
X103125Y-111475
X103225Y-99100
X103275Y-65900
X103475Y-126625
X103750Y-48500
X103925Y-114500
X103950Y-117350
X104025Y-88775
X104250Y-53500
X104725Y-111850
X105050Y-116225
X105100Y-59875
X105200Y-78250
X105250Y-135225
X105250Y-137950
X105400Y-113275
X105800Y-99125
X105975Y-126625
X106125Y-117400
X106363Y-75750
X106363Y-76500
X106363Y-77250
X106600Y-88800
X106675Y-114525
X107138Y-75750
X107138Y-76500
X107138Y-77250
X107236Y-39764
X107300Y-39155
X107322Y-41020
X107400Y-40425
X107650Y-112025
X108025Y-109850
X108050Y-116175
X108275Y-99100
X108500Y-57950
X108500Y-126625
X108500Y-135250
X108500Y-137925
X108650Y-88775
X109225Y-76750
X109400Y-111725
X109500Y-51000
X109575Y-114600
X109770Y-25230
X109800Y-109575
X110000Y-40925
X110000Y-117450
X110230Y-24770
X110750Y-58025
X110750Y-99100
X110775Y-131775
X110800Y-112800
X110899Y-126625
X111075Y-88750
X111099Y-116230
X111225Y-61475
X111225Y-64875
X111275Y-33775
X111475Y-66900
X111475Y-68400
X111500Y-135300
X111500Y-138050
X111850Y-110700
X111950Y-109325
X112125Y-112125
X112250Y-71300
X112325Y-28536
X112350Y-59050
X112650Y-69350
X112750Y-113750
X112925Y-28447
X112950Y-65950
X113000Y-114800
X113050Y-141275
X113100Y-59075
X113100Y-142275
X113250Y-99100
X113475Y-126625
X113500Y-59550
X113550Y-28450
X114125Y-59975
X114300Y-45200
X114479Y-44584
X114500Y-62425
X114650Y-41150
X114850Y-88800
X114950Y-71425
X115000Y-23250
X115775Y-40850
X116150Y-70050
X116525Y-58200
X117000Y-45250
X117200Y-53925
X117400Y-88900
X117426Y-27878
X117450Y-43125
X117450Y-71700
X117525Y-41260
X117625Y-66650
X117700Y-45275
X117950Y-63450
X118025Y-27851
X118475Y-59725
X118671Y-56022
X118725Y-27875
X119174Y-56349
X119500Y-20000
X119625Y-47750
X119650Y-56774
X119723Y-38246
X120075Y-88850
X120076Y-52027
X120250Y-15500
X120323Y-38251
X120625Y-65850
X120925Y-56050
X120950Y-56925
X121000Y-38250
X121025Y-47675
X121150Y-50075
X121500Y-33825
X121750Y-41450
X121999Y-38020
X122175Y-47425
X122200Y-81425
X122480Y-38480
X122575Y-41250
X122675Y-55125
X122725Y-58225
X122900Y-45275
X123025Y-47500
X123125Y-76100
X123200Y-73350
X123400Y-117800
X123550Y-143275
X123575Y-71100
X123575Y-115775
X123800Y-88750
X124200Y-78900
X124500Y-52000
X124975Y-81150
X125250Y-7500
X125400Y-44125
X125437Y-33800
X125450Y-51725
X125650Y-88800
X125975Y-52125
X126020Y-7480
X126225Y-63325
X126425Y-67525
X126480Y-7020
X127025Y-63575
X127084Y-34159
X128000Y-19750
X128175Y-70850
X128250Y-22000
X129175Y-81125
X129175Y-88600
X129825Y-38275
X130325Y-26875
X130500Y-22000
X131450Y-25175
X131875Y-39525
X132075Y-88625
X132400Y-81300
X132550Y-24700
X132750Y-8000
X133500Y-24725
X133975Y-58675
X134150Y-52950
X134175Y-54500
X134550Y-23625
X134550Y-33775
X134575Y-38175
X134750Y-9250
X134950Y-63525
X135000Y-62850
X135025Y-82525
X135350Y-27075
X135425Y-88500
X135500Y-20500
X136125Y-33725
X136250Y-1500
X137275Y-33750
X138250Y-82450
X139175Y-88600
X139350Y-33875
X139500Y-2500
X140925Y-84150
X141050Y-81325
X141250Y-6500
X143100Y-84275
X143975Y-88500
X145550Y-34850
X145750Y-41000
X146350Y-34800
X146350Y-35475
X146948Y-35852
X147425Y-84200
X147437Y-36340
X147550Y-88475
X147750Y-46250
X148186Y-38664
X148648Y-39127
X149025Y-100050
X149173Y-39601
X149300Y-111900
X149300Y-117175
X149325Y-94075
X149625Y-40050
X149900Y-78650
X149950Y-73725
X150025Y-131350
X150025Y-136050
X150100Y-40550
X150225Y-51400
X150225Y-56375
X150250Y-112925
X150550Y-95550
X150975Y-97650
X151250Y-114950
X151250Y-131575
X151350Y-88425
X151425Y-85125
X151600Y-52325
X151625Y-75100
X151750Y-65000
X152000Y-67250
X152000Y-125000
X152075Y-97650
X152120Y-133750
X152200Y-54250
X152225Y-114950
X152475Y-95625
X153000Y-133750
X153050Y-54250
X153075Y-76875
X153250Y-92750
X153375Y-114000
X153500Y-46250
X153750Y-107000
X153925Y-49950
X153975Y-72625
X154025Y-100000
X154175Y-117150
X154300Y-132525
X154425Y-76225
X154500Y-53250
X154525Y-111500
X154850Y-78950
X155000Y-124750
X155000Y-136025
X155200Y-56500
X155225Y-130250
X155250Y-146750
X155750Y-66000
X156000Y-144000
X157000Y-148750
X157250Y-85750
X157250Y-110500
X158750Y-67000
X159250Y-91250
X159500Y-107750
X159750Y-146250
X160000Y-127000
X161000Y-64750
X161000Y-130750
X161250Y-143750
X161750Y-111250
X163000Y-125750
X163250Y-86000
X163250Y-148750
X164500Y-67500
X164750Y-107500
X166413Y-44250
X166500Y-102250
X166750Y-67250
X166750Y-120000
X166750Y-146000
X166765Y-51250
X167000Y-91500
X167118Y-58749
X167118Y-64500
X167118Y-72250
X167470Y-78500
X167470Y-84750
X167500Y-124250
X167500Y-137250
X167750Y-141750
X168000Y-98500
X168000Y-112000
X168000Y-148250
X168250Y-108000
X168250Y-132250
X171000Y-128750
X171250Y-39500
X171750Y-133000
X171750Y-144250
X172000Y-64250
X172000Y-121500
X173500Y-113500
X174250Y-129500
X174500Y-148500
X175000Y-137750
X175225Y-112525
X175250Y-38250
X175250Y-47250
X175250Y-132750
X175750Y-43500
X175750Y-144750
X176750Y-57750
X177000Y-75250
X177025Y-93375
X177375Y-133200
X177500Y-68250
X178000Y-116750
X178500Y-52250
X178750Y-63250
X178750Y-81500
X180750Y-48250
X180750Y-148500
X181000Y-121500
X184000Y-144250
X187750Y-147500
T3
X65475Y-103050
X65575Y-99975
X67500Y-147500
X69340Y-32597
X69750Y-145000
X69750Y-147500
X70325Y-30500
X71750Y-70500
X72250Y-145000
X72250Y-146250
X72250Y-147500
X72500Y-66000
X72675Y-67775
X72725Y-70250
X73875Y-110325
X74000Y-147500
X74225Y-32125
X74500Y-145000
X74725Y-67775
X74750Y-70225
X76250Y-36225
X76450Y-138950
X76500Y-145000
X76500Y-147500
X76650Y-70275
X77050Y-141625
X77700Y-63850
X78500Y-145000
X78500Y-146250
X78500Y-147500
X78750Y-37500
X78750Y-67750
X78750Y-70250
X78750Y-73000
X79175Y-61825
X80000Y-40500
X80250Y-66150
X80750Y-67750
X80750Y-70200
X80800Y-73000
X81500Y-139750
X81500Y-142000
X81500Y-145000
X81500Y-147500
X82725Y-67750
X82750Y-38000
X82750Y-42000
X82775Y-70300
X82800Y-73000
X84000Y-33801
X84250Y-139750
X84250Y-142000
X84250Y-145000
X84250Y-147500
X84550Y-38050
X84750Y-66800
X84750Y-69000
X84750Y-71250
X84750Y-73500
X87500Y-66750
X87500Y-69000
X87500Y-71250
X87500Y-73500
X89125Y-125475
X89150Y-127675
X89425Y-50400
X90250Y-56131
X90458Y-37395
X90925Y-125500
X91025Y-127675
X92925Y-127600
X92975Y-125500
X93275Y-54275
X93450Y-68025
X94750Y-25000
X94925Y-125500
X94950Y-127525
X95250Y-70750
X95250Y-72000
X95250Y-73250
X96575Y-125550
X96575Y-127500
X96750Y-70750
X97200Y-53975
X98250Y-70750
X99011Y-30852
X99025Y-45850
X99200Y-53200
X99675Y-49000
X99725Y-70750
X101000Y-70750
X101450Y-17500
X101700Y-53100
X101750Y-42500
X101775Y-44000
X102250Y-70750
X102250Y-72000
X102925Y-54750
X103000Y-42500
X103000Y-44000
X104250Y-42500
X104250Y-44000
X104500Y-140250
X104500Y-142750
X104500Y-145750
X104500Y-147869
X105500Y-37200
X105550Y-32525
X106031Y-42500
X106031Y-44000
X106250Y-141500
X106925Y-48325
X107500Y-67750
X107500Y-69000
X108000Y-140250
X108000Y-142750
X108000Y-145750
X108000Y-147869
X108955Y-25921
X109000Y-67750
X109000Y-69250
X109000Y-70250
X109000Y-71250
X109000Y-72250
X109575Y-53575
X109750Y-84250
X109750Y-141500
X109750Y-144250
X110000Y-67750
X110000Y-69250
X110000Y-70250
X110000Y-71250
X110000Y-72250
X111500Y-140250
X111500Y-142750
X111500Y-145750
X111500Y-147869
X112350Y-24125
X114750Y-81000
X115500Y-147869
X118750Y-147869
X120675Y-68725
X121500Y-58500
X122000Y-147869
X123000Y-59750
X127060Y-11875
X127750Y-13750
X129500Y-30000
X129500Y-31250
X130750Y-28750
X130750Y-30000
X130750Y-31250
X131500Y-10750
X132250Y-30000
X132250Y-31250
X132750Y-13500
X133750Y-30250
X133750Y-31250
X135000Y-29250
X135000Y-30250
X135000Y-31250
X135750Y-59000
X135750Y-59760
X136750Y-28000
X136750Y-29250
X136750Y-30250
X136750Y-31250
X147500Y-104000
X147500Y-105000
X147750Y-101500
X147750Y-102750
X148000Y-58250
X148000Y-59500
X148250Y-136250
X148250Y-137750
X148250Y-139250
X148500Y-104000
X148500Y-105000
X148500Y-118750
X148500Y-119750
X148500Y-120750
X148700Y-55100
X149000Y-101500
X149000Y-102750
X149250Y-58250
X149250Y-59500
X149500Y-80250
X149500Y-81250
X149500Y-82250
X149500Y-137750
X149500Y-139250
X149750Y-104000
X149750Y-105000
X149750Y-118750
X149750Y-119750
X149750Y-120750
X150000Y-101500
X150000Y-102750
X150500Y-58250
X150500Y-59500
X150500Y-60500
X150500Y-80250
X150500Y-81250
X150500Y-82250
X150750Y-104000
X150750Y-105000
X151000Y-119750
X151000Y-120750
X151000Y-137750
X151000Y-139250
X151500Y-59500
X151500Y-60500
X151500Y-81250
X151500Y-82250
X152500Y-102750
X152500Y-104000
X153000Y-120000
X153000Y-121250
X153750Y-59500
X153750Y-60750
X153750Y-81500
X153750Y-82750
X153750Y-101500
X153750Y-102750
X153750Y-104000
X154000Y-118750
X154000Y-120000
X154000Y-121250
X154000Y-137750
X154000Y-139250
X155000Y-58250
X155000Y-59500
X155000Y-60750
X155000Y-80250
X155000Y-81500
X155000Y-82750
X155000Y-118750
X155000Y-120000
X155000Y-121250
X155250Y-100000
X155250Y-101500
X155250Y-102750
X155250Y-104000
X155500Y-137750
X155500Y-139250
X156250Y-79000
X156250Y-80250
X156250Y-81500
X156250Y-82750
X156500Y-56750
X156500Y-58250
X156500Y-59500
X156500Y-60750
X156750Y-136250
X156750Y-137750
X156750Y-139250
T4
X61270Y-96060
X62270Y-91640
X62290Y-93010
X62480Y-96080
X63460Y-91600
X63460Y-92950
X63750Y-114625
X63790Y-96050
X65975Y-114425
X66025Y-112575
X69775Y-34300
X79750Y-98500
X80750Y-99750
X82775Y-35075
X85208Y-98500
X86000Y-99750
X90000Y-98500
X91250Y-99750
X95000Y-98500
X96000Y-99750
X99000Y-120750
X101000Y-120750
X103500Y-120750
X106000Y-120750
X108500Y-120750
X111000Y-120750
X113500Y-120750
X116750Y-120750
X121630Y-6300
X125750Y-75875
X126000Y-118250
X126000Y-120750
X126250Y-123500
X127750Y-118250
X127750Y-120750
X127750Y-123500
X130900Y-6225
X131000Y-71675
X131250Y-19000
X132750Y-65250
X141350Y-67650
X141400Y-70150
X175750Y-86250
X175750Y-87750
X177000Y-107000
X177000Y-108500
X177250Y-125000
X177250Y-126750
X177500Y-86250
X177500Y-87750
X179225Y-107000
X179500Y-86250
X179500Y-124750
T5
X145980Y-50170
X145980Y-51440
X145980Y-52710
X145980Y-53980
X145980Y-55250
X147250Y-50170
X147250Y-51440
X147250Y-52710
X147250Y-53980
X147250Y-55250
X122920Y-24980
X122920Y-26250
X124190Y-24980
X124190Y-26250
X125460Y-24980
X125460Y-26250
X126730Y-24980
X126730Y-26250
X128000Y-24980
X128000Y-26250
T6
X68915Y-17175
X70185Y-14635
X71455Y-17175
X72725Y-14635
X73995Y-17175
X75265Y-14635
X76535Y-17175
X77805Y-14635
X87505Y-17175
X88775Y-14635
X90045Y-17175
X91315Y-14635
X92585Y-17175
X93855Y-14635
X95125Y-17175
X96395Y-14635
X104175Y-7620
X106056Y-19889
X106716Y-6101
X107326Y-17349
X108596Y-19889
X109866Y-17349
X111136Y-19889
X112406Y-17349
X113676Y-19889
X114286Y-7621
X114946Y-17349
X116825Y-6100
T7
X93325Y-89625
X93325Y-92165
X93325Y-94705
X74300Y-89675
X74300Y-92215
X74300Y-94755
X81900Y-89675
X81900Y-92215
X81900Y-94755
X89500Y-89625
X89500Y-92165
X89500Y-94705
X78100Y-89675
X78100Y-92215
X78100Y-94755
X85700Y-89675
X85700Y-92215
X85700Y-94755
T8
X160500Y-136750
X183000Y-136750
X138000Y-16000
X160500Y-16000
X160250Y-97500
X182750Y-97500
X160750Y-57000
X183250Y-57000
X160250Y-116500
X182750Y-116500
X139500Y-27000
X162000Y-27000
X161250Y-42250
X183750Y-42250
X168925Y-33250
X180175Y-13764
X160250Y-77000
X182750Y-77000
T9
X102626Y-14049
X118376Y-14049
X65800Y-132790
X65800Y-142710
X69200Y-132790
X69200Y-142710
T10
X192250Y-99250
X192250Y-106250
X197250Y-99250
X197250Y-106250
X53995Y-129750
X53995Y-136750
X58995Y-129750
X58995Y-136750
X192250Y-67500
X192250Y-74500
X197250Y-67500
X197250Y-74500
X192250Y-25750
X192250Y-32750
X197250Y-25750
X197250Y-32750
X192250Y-36250
X192250Y-43250
X197250Y-36250
X197250Y-43250
X165250Y-2995
X165250Y-7995
X172250Y-2995
X172250Y-7995
X192250Y-131500
X192250Y-138500
X197250Y-131500
X197250Y-138500
X144250Y-2995
X144250Y-7995
X151250Y-2995
X151250Y-7995
X192250Y-78000
X192250Y-85000
X197250Y-78000
X197250Y-85000
X53995Y-117250
X53995Y-124250
X58995Y-117250
X58995Y-124250
X192250Y-57500
X192250Y-64500
X197250Y-57500
X197250Y-64500
X192250Y-15000
X192250Y-22000
X197250Y-15000
X197250Y-22000
X192250Y-110000
X192250Y-117000
X197250Y-110000
X197250Y-117000
X176250Y-2995
X176250Y-7995
X183250Y-2995
X183250Y-7995
X54005Y-76250
X54005Y-83250
X59005Y-76250
X59005Y-83250
X192250Y-120750
X192250Y-127750
X197250Y-120750
X197250Y-127750
X192250Y-47000
X192250Y-54000
X197250Y-47000
X197250Y-54000
X154750Y-2995
X154750Y-7995
X161750Y-2995
X161750Y-7995
X54005Y-64000
X54005Y-71000
X59005Y-64000
X59005Y-71000
X192250Y-88750
X192250Y-95750
X197250Y-88750
X197250Y-95750
T11
X55000Y-145000
X195000Y-145000
X55000Y-5000
X195000Y-5000
T12
X67775Y-62920
X67775Y-71250
X67775Y-83950
X67775Y-92280
T13
X124300Y-6500
X128700Y-6500
T14
X172500Y-42250
X171750Y-136750
X149250Y-16000
X171500Y-116500
X174550Y-23507
X171500Y-77000
X171500Y-97500
X172000Y-57000
X150750Y-27000
T15
X67425Y-8285
X79295Y-8285
X86015Y-8285
X97885Y-8285
T16
X104786Y-10999
X116216Y-10999
T0
M30
