G04 #@! TF.GenerationSoftware,KiCad,Pcbnew,(5.0.2)-1*
G04 #@! TF.CreationDate,2019-05-17T00:02:45-02:30*
G04 #@! TF.ProjectId,LVDC Distribution,4c564443-2044-4697-9374-726962757469,rev?*
G04 #@! TF.SameCoordinates,Original*
G04 #@! TF.FileFunction,Copper,L3,Inr*
G04 #@! TF.FilePolarity,Positive*
%FSLAX46Y46*%
G04 Gerber Fmt 4.6, Leading zero omitted, Abs format (unit mm)*
G04 Created by KiCad (PCBNEW (5.0.2)-1) date 5/17/2019 12:02:45 AM*
%MOMM*%
%LPD*%
G01*
G04 APERTURE LIST*
G04 #@! TA.AperFunction,ViaPad*
%ADD10O,6.000000X9.000000*%
G04 #@! TD*
G04 #@! TA.AperFunction,ViaPad*
%ADD11O,4.000000X2.150000*%
G04 #@! TD*
G04 #@! TA.AperFunction,ViaPad*
%ADD12O,2.150000X4.000000*%
G04 #@! TD*
G04 #@! TA.AperFunction,ViaPad*
%ADD13C,1.408000*%
G04 #@! TD*
G04 #@! TA.AperFunction,ViaPad*
%ADD14C,2.184400*%
G04 #@! TD*
G04 #@! TA.AperFunction,ViaPad*
%ADD15C,1.300000*%
G04 #@! TD*
G04 #@! TA.AperFunction,ViaPad*
%ADD16O,1.000000X1.000000*%
G04 #@! TD*
G04 #@! TA.AperFunction,ViaPad*
%ADD17R,1.000000X1.000000*%
G04 #@! TD*
G04 #@! TA.AperFunction,ViaPad*
%ADD18C,0.350000*%
G04 #@! TD*
G04 #@! TA.AperFunction,ViaPad*
%ADD19C,6.000000*%
G04 #@! TD*
G04 #@! TA.AperFunction,ViaPad*
%ADD20C,1.500000*%
G04 #@! TD*
G04 #@! TA.AperFunction,ViaPad*
%ADD21R,1.500000X1.500000*%
G04 #@! TD*
G04 #@! TA.AperFunction,WasherPad*
%ADD22C,3.650000*%
G04 #@! TD*
G04 #@! TA.AperFunction,ViaPad*
%ADD23O,1.700000X1.700000*%
G04 #@! TD*
G04 #@! TA.AperFunction,ViaPad*
%ADD24R,1.700000X1.700000*%
G04 #@! TD*
G04 #@! TA.AperFunction,ViaPad*
%ADD25C,3.000000*%
G04 #@! TD*
G04 #@! TA.AperFunction,ViaPad*
%ADD26C,0.400000*%
G04 #@! TD*
G04 #@! TA.AperFunction,ViaPad*
%ADD27C,0.600000*%
G04 #@! TD*
G04 #@! TA.AperFunction,ViaPad*
%ADD28C,1.000000*%
G04 #@! TD*
G04 #@! TA.AperFunction,ViaPad*
%ADD29C,0.800000*%
G04 #@! TD*
G04 #@! TA.AperFunction,Conductor*
%ADD30C,0.152400*%
G04 #@! TD*
G04 #@! TA.AperFunction,Conductor*
%ADD31C,1.270000*%
G04 #@! TD*
G04 #@! TA.AperFunction,Conductor*
%ADD32C,0.762000*%
G04 #@! TD*
G04 #@! TA.AperFunction,Conductor*
%ADD33C,0.406400*%
G04 #@! TD*
G04 #@! TA.AperFunction,Conductor*
%ADD34C,0.304800*%
G04 #@! TD*
G04 #@! TA.AperFunction,Conductor*
%ADD35C,0.635000*%
G04 #@! TD*
G04 #@! TA.AperFunction,Conductor*
%ADD36C,0.250000*%
G04 #@! TD*
G04 #@! TA.AperFunction,Conductor*
%ADD37C,0.200000*%
G04 #@! TD*
G04 APERTURE END LIST*
D10*
G04 #@! TO.N,Net-(F201-Pad2)*
G04 #@! TO.C,F201*
X67775000Y-83950000D03*
X67775000Y-92280000D03*
G04 #@! TO.N,LPBAT_Voltage*
X67775000Y-62920000D03*
X67775000Y-71250000D03*
G04 #@! TD*
D11*
G04 #@! TO.N,Net-(D201-Pad1)*
G04 #@! TO.C,J201*
X54005000Y-64000000D03*
X54005000Y-71000000D03*
X59005000Y-71000000D03*
X59005000Y-64000000D03*
G04 #@! TD*
G04 #@! TO.N,Net-(F202-Pad2)*
G04 #@! TO.C,J202*
X53995000Y-117250000D03*
X53995000Y-124250000D03*
X58995000Y-124250000D03*
X58995000Y-117250000D03*
G04 #@! TD*
G04 #@! TO.N,Net-(D202-Pad1)*
G04 #@! TO.C,J203*
X53995000Y-129750000D03*
X53995000Y-136750000D03*
X58995000Y-136750000D03*
X58995000Y-129750000D03*
G04 #@! TD*
G04 #@! TO.N,Net-(F201-Pad2)*
G04 #@! TO.C,J204*
X54005000Y-76250000D03*
X54005000Y-83250000D03*
X59005000Y-83250000D03*
X59005000Y-76250000D03*
G04 #@! TD*
D12*
G04 #@! TO.N,Net-(F309-Pad1)*
G04 #@! TO.C,J301*
X183250000Y-2995000D03*
X176250000Y-2995000D03*
X176250000Y-7995000D03*
X183250000Y-7995000D03*
G04 #@! TD*
G04 #@! TO.N,Net-(F305-Pad1)*
G04 #@! TO.C,J302*
X172250000Y-2995000D03*
X165250000Y-2995000D03*
X165250000Y-7995000D03*
X172250000Y-7995000D03*
G04 #@! TD*
G04 #@! TO.N,Net-(F306-Pad1)*
G04 #@! TO.C,J303*
X161750000Y-2995000D03*
X154750000Y-2995000D03*
X154750000Y-7995000D03*
X161750000Y-7995000D03*
G04 #@! TD*
G04 #@! TO.N,GND*
G04 #@! TO.C,J304*
X151250000Y-2995000D03*
X144250000Y-2995000D03*
X144250000Y-7995000D03*
X151250000Y-7995000D03*
G04 #@! TD*
D11*
G04 #@! TO.N,Net-(F302-Pad1)*
G04 #@! TO.C,J305*
X197250000Y-64500000D03*
X197250000Y-57500000D03*
X192250000Y-57500000D03*
X192250000Y-64500000D03*
G04 #@! TD*
G04 #@! TO.N,GND*
G04 #@! TO.C,J306*
X197250000Y-74500000D03*
X197250000Y-67500000D03*
X192250000Y-67500000D03*
X192250000Y-74500000D03*
G04 #@! TD*
G04 #@! TO.N,Net-(F304-Pad1)*
G04 #@! TO.C,J307*
X197250000Y-127750000D03*
X197250000Y-120750000D03*
X192250000Y-120750000D03*
X192250000Y-127750000D03*
G04 #@! TD*
G04 #@! TO.N,Net-(J308-Pad1)*
G04 #@! TO.C,J308*
X197250000Y-138500000D03*
X197250000Y-131500000D03*
X192250000Y-131500000D03*
X192250000Y-138500000D03*
G04 #@! TD*
G04 #@! TO.N,Net-(F303-Pad1)*
G04 #@! TO.C,J309*
X197250000Y-106250000D03*
X197250000Y-99250000D03*
X192250000Y-99250000D03*
X192250000Y-106250000D03*
G04 #@! TD*
G04 #@! TO.N,Net-(J310-Pad1)*
G04 #@! TO.C,J310*
X197250000Y-117000000D03*
X197250000Y-110000000D03*
X192250000Y-110000000D03*
X192250000Y-117000000D03*
G04 #@! TD*
G04 #@! TO.N,Net-(F310-Pad1)*
G04 #@! TO.C,J311*
X192250000Y-36250000D03*
X192250000Y-43250000D03*
X197250000Y-43250000D03*
X197250000Y-36250000D03*
G04 #@! TD*
G04 #@! TO.N,GND*
G04 #@! TO.C,J312*
X192250000Y-47000000D03*
X192250000Y-54000000D03*
X197250000Y-54000000D03*
X197250000Y-47000000D03*
G04 #@! TD*
G04 #@! TO.N,Net-(F308-Pad1)*
G04 #@! TO.C,J313*
X197250000Y-85000000D03*
X197250000Y-78000000D03*
X192250000Y-78000000D03*
X192250000Y-85000000D03*
G04 #@! TD*
G04 #@! TO.N,Net-(J314-Pad1)*
G04 #@! TO.C,J314*
X197250000Y-95750000D03*
X197250000Y-88750000D03*
X192250000Y-88750000D03*
X192250000Y-95750000D03*
G04 #@! TD*
G04 #@! TO.N,Net-(F307-Pad1)*
G04 #@! TO.C,J315*
X192250000Y-15000000D03*
X192250000Y-22000000D03*
X197250000Y-22000000D03*
X197250000Y-15000000D03*
G04 #@! TD*
G04 #@! TO.N,GND*
G04 #@! TO.C,J316*
X192250000Y-25750000D03*
X192250000Y-32750000D03*
X197250000Y-32750000D03*
X197250000Y-25750000D03*
G04 #@! TD*
D13*
G04 #@! TO.N,/Wiznet Ethernet/LINK_LED_R*
G04 #@! TO.C,J601*
X106716380Y-6100870D03*
G04 #@! TO.N,3V3A_W5500*
X114286380Y-7620870D03*
G04 #@! TO.N,/Wiznet Ethernet/ACT_LED_R*
X116824530Y-6100370D03*
G04 #@! TO.N,3V3A_W5500*
X104174530Y-7620370D03*
D14*
G04 #@! TO.N,Net-(J601-PadSH)*
X102625790Y-14048960D03*
X118375790Y-14048960D03*
D15*
G04 #@! TO.N,/Wiznet Ethernet/TX_R_P*
X114945790Y-17348960D03*
G04 #@! TO.N,/Wiznet Ethernet/TX_R_N*
X113675790Y-19888960D03*
G04 #@! TO.N,/Wiznet Ethernet/TCT_RCT*
X112405790Y-17348960D03*
G04 #@! TO.N,Net-(J601-PadR4)*
X111135791Y-19888960D03*
G04 #@! TO.N,Net-(J601-PadR5)*
X109865791Y-17348960D03*
G04 #@! TO.N,Net-(J601-PadR6)*
X108595790Y-19888960D03*
G04 #@! TO.N,/Wiznet Ethernet/RX_C_P*
X107325790Y-17348960D03*
G04 #@! TO.N,/Wiznet Ethernet/RX_C_N*
X106055790Y-19888960D03*
G04 #@! TD*
D16*
G04 #@! TO.N,~RESET~*
G04 #@! TO.C,J502*
X147250000Y-50170000D03*
G04 #@! TO.N,Net-(J502-Pad9)*
X145980000Y-50170000D03*
G04 #@! TO.N,Net-(J502-Pad8)*
X147250000Y-51440000D03*
G04 #@! TO.N,Net-(J502-Pad7)*
X145980000Y-51440000D03*
G04 #@! TO.N,Net-(J502-Pad6)*
X147250000Y-52710000D03*
G04 #@! TO.N,GND*
X145980000Y-52710000D03*
G04 #@! TO.N,SWCLK*
X147250000Y-53980000D03*
G04 #@! TO.N,GND*
X145980000Y-53980000D03*
G04 #@! TO.N,SWDIO*
X147250000Y-55250000D03*
D17*
G04 #@! TO.N,+3V3*
X145980000Y-55250000D03*
G04 #@! TD*
D18*
G04 #@! TO.N,GND*
G04 #@! TO.C,U801*
X74825000Y-42250000D03*
X75625000Y-42250000D03*
X77425000Y-42250000D03*
X76625000Y-42250000D03*
X74825000Y-41400000D03*
X75625000Y-41400000D03*
X77425000Y-41400000D03*
X76625000Y-41400000D03*
G04 #@! TD*
D19*
G04 #@! TO.N,Net-(H1-Pad1)*
G04 #@! TO.C,H1*
X55000000Y-5000000D03*
G04 #@! TD*
G04 #@! TO.N,Net-(H2-Pad1)*
G04 #@! TO.C,H2*
X55000000Y-145000000D03*
G04 #@! TD*
G04 #@! TO.N,Net-(H3-Pad1)*
G04 #@! TO.C,H3*
X195000000Y-5000000D03*
G04 #@! TD*
G04 #@! TO.N,Net-(H4-Pad1)*
G04 #@! TO.C,H4*
X195000000Y-145000000D03*
G04 #@! TD*
D16*
G04 #@! TO.N,GND*
G04 #@! TO.C,J1*
X122920000Y-24980000D03*
X122920000Y-26250000D03*
G04 #@! TO.N,Net-(J1-Pad8)*
X124190000Y-24980000D03*
G04 #@! TO.N,/SAMD21uC/EXT_SPI_SCLK*
X124190000Y-26250000D03*
G04 #@! TO.N,/SAMD21uC/EXT_SPI_CS1*
X125460000Y-24980000D03*
G04 #@! TO.N,/SAMD21uC/EXT_SPI_SDO*
X125460000Y-26250000D03*
G04 #@! TO.N,/SAMD21uC/EXT_SPI_CS0*
X126730000Y-24980000D03*
G04 #@! TO.N,/SAMD21uC/EXT_SPI_SDI*
X126730000Y-26250000D03*
G04 #@! TO.N,+5V*
X128000000Y-24980000D03*
D17*
X128000000Y-26250000D03*
G04 #@! TD*
D20*
G04 #@! TO.N,Net-(J6-Pad8)*
G04 #@! TO.C,J6*
X87504999Y-17174999D03*
G04 #@! TO.N,Net-(J6-Pad7)*
X88774999Y-14634999D03*
G04 #@! TO.N,/Power Outputs/NAP_PoE/TX-*
X90044999Y-17174999D03*
G04 #@! TO.N,Net-(J6-Pad5)*
X91314999Y-14634999D03*
G04 #@! TO.N,Net-(J6-Pad4)*
X92584999Y-17174999D03*
G04 #@! TO.N,/Power Outputs/NAP_PoE/TX+*
X93854999Y-14634999D03*
G04 #@! TO.N,/Power Outputs/NAP_PoE/RX-*
X95124999Y-17174999D03*
D21*
G04 #@! TO.N,/Power Outputs/NAP_PoE/RX+*
X96394999Y-14634999D03*
D22*
G04 #@! TO.N,*
X97884999Y-8284999D03*
X86014999Y-8284999D03*
G04 #@! TD*
G04 #@! TO.N,*
G04 #@! TO.C,J7*
X67424999Y-8284999D03*
X79294999Y-8284999D03*
D21*
G04 #@! TO.N,/Power Outputs/NAP_PoE/RX+*
X77804999Y-14634999D03*
D20*
G04 #@! TO.N,/Power Outputs/NAP_PoE/RX-*
X76534999Y-17174999D03*
G04 #@! TO.N,/Power Outputs/NAP_PoE/TX+*
X75264999Y-14634999D03*
G04 #@! TO.N,/Power Outputs/NAP_PoE/NAP_Vin+*
X73994999Y-17174999D03*
X72724999Y-14634999D03*
G04 #@! TO.N,/Power Outputs/NAP_PoE/TX-*
X71454999Y-17174999D03*
G04 #@! TO.N,GND*
X70184999Y-14634999D03*
X68914999Y-17174999D03*
G04 #@! TD*
D23*
G04 #@! TO.N,GND*
G04 #@! TO.C,J2*
X74300000Y-94755000D03*
G04 #@! TO.N,/SAMD21uC/AIN_0*
X74300000Y-92215000D03*
D24*
G04 #@! TO.N,+5V*
X74300000Y-89675000D03*
G04 #@! TD*
G04 #@! TO.N,+5V*
G04 #@! TO.C,J3*
X78100000Y-89675000D03*
D23*
G04 #@! TO.N,/SAMD21uC/AIN_1*
X78100000Y-92215000D03*
G04 #@! TO.N,GND*
X78100000Y-94755000D03*
G04 #@! TD*
G04 #@! TO.N,GND*
G04 #@! TO.C,J4*
X81900000Y-94755000D03*
G04 #@! TO.N,/SAMD21uC/AIN_2*
X81900000Y-92215000D03*
D24*
G04 #@! TO.N,+5V*
X81900000Y-89675000D03*
G04 #@! TD*
G04 #@! TO.N,+5V*
G04 #@! TO.C,J5*
X85700000Y-89675000D03*
D23*
G04 #@! TO.N,/SAMD21uC/AIN_3*
X85700000Y-92215000D03*
G04 #@! TO.N,GND*
X85700000Y-94755000D03*
G04 #@! TD*
D24*
G04 #@! TO.N,Net-(J1000-Pad1)*
G04 #@! TO.C,J1000*
X89500000Y-94705000D03*
D23*
G04 #@! TO.N,Net-(J1000-Pad2)*
X89500000Y-92165000D03*
G04 #@! TO.N,+5V*
X89500000Y-89625000D03*
G04 #@! TD*
G04 #@! TO.N,+5V*
G04 #@! TO.C,J1001*
X93325000Y-89625000D03*
G04 #@! TO.N,Net-(J1001-Pad2)*
X93325000Y-92165000D03*
D24*
G04 #@! TO.N,Net-(J1001-Pad1)*
X93325000Y-94705000D03*
G04 #@! TD*
D25*
G04 #@! TO.N,Net-(F302-Pad1)*
G04 #@! TO.C,F302*
X182750000Y-77000000D03*
G04 #@! TO.N,Net-(F302-Pad2)*
X160250000Y-77000000D03*
G04 #@! TD*
G04 #@! TO.N,Net-(F303-Pad2)*
G04 #@! TO.C,F303*
X160250000Y-116500000D03*
G04 #@! TO.N,Net-(F303-Pad1)*
X182750000Y-116500000D03*
G04 #@! TD*
G04 #@! TO.N,Net-(F304-Pad1)*
G04 #@! TO.C,F304*
X183000000Y-136750000D03*
G04 #@! TO.N,Net-(F304-Pad2)*
X160500000Y-136750000D03*
G04 #@! TD*
G04 #@! TO.N,Net-(F305-Pad2)*
G04 #@! TO.C,F305*
X139500000Y-27000000D03*
G04 #@! TO.N,Net-(F305-Pad1)*
X162000000Y-27000000D03*
G04 #@! TD*
G04 #@! TO.N,Net-(F306-Pad1)*
G04 #@! TO.C,F306*
X160500000Y-16000000D03*
G04 #@! TO.N,Net-(F305-Pad2)*
X138000000Y-16000000D03*
G04 #@! TD*
G04 #@! TO.N,Net-(F307-Pad2)*
G04 #@! TO.C,F307*
X161250000Y-42250000D03*
G04 #@! TO.N,Net-(F307-Pad1)*
X183750000Y-42250000D03*
G04 #@! TD*
G04 #@! TO.N,Net-(F308-Pad1)*
G04 #@! TO.C,F308*
X182750000Y-97500000D03*
G04 #@! TO.N,Net-(F308-Pad2)*
X160250000Y-97500000D03*
G04 #@! TD*
G04 #@! TO.N,Net-(F305-Pad2)*
G04 #@! TO.C,F309*
X168925000Y-33250000D03*
G04 #@! TO.N,Net-(F309-Pad1)*
X180175000Y-13764428D03*
G04 #@! TD*
G04 #@! TO.N,Net-(F307-Pad2)*
G04 #@! TO.C,F310*
X160750000Y-57000000D03*
G04 #@! TO.N,Net-(F310-Pad1)*
X183250000Y-57000000D03*
G04 #@! TD*
G04 #@! TO.N,HPBAT_Voltage*
G04 #@! TO.C,F202*
X65800000Y-142710000D03*
X69200000Y-142710000D03*
G04 #@! TO.N,Net-(F202-Pad2)*
X69200000Y-132790000D03*
X65800000Y-132790000D03*
G04 #@! TD*
D26*
G04 #@! TO.N,*
X106362500Y-75750000D03*
X107137500Y-75750000D03*
X107137500Y-77250000D03*
X106362500Y-77250000D03*
X106362500Y-76500000D03*
X107137500Y-76500000D03*
D27*
G04 #@! TO.N,GND*
X77050000Y-141625000D03*
X111500000Y-140250000D03*
X109750000Y-141500000D03*
X109750000Y-144250000D03*
X106250000Y-141500000D03*
X104500000Y-140250000D03*
X108000000Y-140250000D03*
X108000000Y-142750000D03*
X104500000Y-142750000D03*
X108000000Y-145750000D03*
X104500000Y-145750000D03*
X111500000Y-145750000D03*
X111500000Y-142750000D03*
D28*
X96000000Y-99750000D03*
X86000000Y-99750000D03*
X79750000Y-98500000D03*
X85208332Y-98500000D03*
X80750000Y-99750010D03*
X95000000Y-98500000D03*
X89999998Y-98500000D03*
X91249992Y-99750000D03*
D27*
X77700000Y-63850000D03*
X80250000Y-66150000D03*
X79175000Y-61825000D03*
X76450000Y-138950000D03*
X109000000Y-72250000D03*
X109000000Y-71250000D03*
X110000000Y-71250000D03*
X110000000Y-72250000D03*
X110000000Y-70250000D03*
X109000000Y-70250000D03*
X109000000Y-69250000D03*
X107500000Y-69000000D03*
X107500000Y-67750000D03*
X109000000Y-67750000D03*
X110000000Y-67750000D03*
X110000000Y-69250000D03*
X102250000Y-72000000D03*
X102250000Y-70750000D03*
X101000000Y-70750000D03*
X96750000Y-70750000D03*
X95250000Y-70750000D03*
X95250000Y-72000000D03*
X95250000Y-73250000D03*
X78750000Y-37500000D03*
X101750000Y-42500000D03*
X104250000Y-42500000D03*
X103000000Y-44000000D03*
X103000000Y-42500000D03*
D26*
X152120200Y-133750000D03*
X153000000Y-133750000D03*
X155000000Y-136025000D03*
X154300000Y-132525000D03*
X155225000Y-130250000D03*
X151250000Y-114950000D03*
X152225000Y-114950000D03*
X154175000Y-117150000D03*
X154525000Y-111500000D03*
X153375000Y-114000000D03*
X154025000Y-100000000D03*
X152075000Y-97650000D03*
X150975000Y-97650000D03*
X153250000Y-92750000D03*
X152475000Y-95625000D03*
X154425000Y-76225000D03*
X153975000Y-72625000D03*
X153075000Y-76875000D03*
X154850000Y-78950000D03*
X79575000Y-59600000D03*
X155200000Y-56500000D03*
X154500000Y-53250000D03*
X152200000Y-54250000D03*
X153050004Y-54250000D03*
X153925000Y-49950000D03*
X135350000Y-27075000D03*
X134550000Y-23625000D03*
X132550000Y-24700000D03*
X133500000Y-24725000D03*
D27*
X114750000Y-81000000D03*
X109750000Y-84250000D03*
D28*
X141350000Y-67650000D03*
X141400000Y-70150000D03*
X132750000Y-65250000D03*
D26*
X124500000Y-52000000D03*
D27*
X121500000Y-58500000D03*
X123000000Y-59750000D03*
X135750000Y-59760000D03*
X135750000Y-59000000D03*
D26*
X114478607Y-44583557D03*
X121750000Y-41450000D03*
X129825000Y-38275000D03*
X131875000Y-39525000D03*
X134550000Y-33775000D03*
X121500000Y-33825000D03*
X51550000Y-33500000D03*
X52575000Y-36275000D03*
X51575000Y-39025000D03*
X52550000Y-41775000D03*
X51350000Y-44525000D03*
X52525000Y-47250000D03*
X52500000Y-52800000D03*
X51250000Y-55550000D03*
X52525000Y-58275000D03*
X52525000Y-61000000D03*
D28*
X130900000Y-6225000D03*
D27*
X118750000Y-147868990D03*
X122000000Y-147868990D03*
X108000000Y-147868990D03*
X104500000Y-147868990D03*
X111500000Y-147868990D03*
X115500000Y-147868990D03*
X109575000Y-53575000D03*
X102925000Y-54750000D03*
X101775000Y-44000000D03*
D26*
X135500000Y-20500000D03*
X125437021Y-33800000D03*
X93375000Y-39575000D03*
X54201210Y-29513109D03*
X51775000Y-29775000D03*
X51800000Y-28925000D03*
X50850000Y-27925000D03*
X55350000Y-30900000D03*
X56600000Y-32225000D03*
X64325000Y-30950000D03*
X70100000Y-24900000D03*
X67475000Y-11350000D03*
X63875000Y-2175000D03*
X62500000Y-1125000D03*
X66725000Y-2150000D03*
X69500000Y-2200000D03*
X72175000Y-2225000D03*
X64866031Y-11120251D03*
X61514146Y-10905287D03*
X65550000Y-23275000D03*
X63050000Y-31882490D03*
X56100000Y-18925000D03*
X53325000Y-21775000D03*
X65800000Y-29608441D03*
X84025000Y-39275000D03*
D27*
X84000000Y-33801210D03*
X69340090Y-32596790D03*
D26*
X68250000Y-33903210D03*
X52500000Y-51725000D03*
X85366558Y-47900000D03*
X90875000Y-47825000D03*
D27*
X84550000Y-38050000D03*
D26*
X90225000Y-28725000D03*
X91750000Y-27650000D03*
X90175000Y-61100000D03*
X112950000Y-65950000D03*
X103275000Y-65900000D03*
D27*
X98250000Y-70750000D03*
X99725000Y-70750000D03*
X93450000Y-68025000D03*
X127750000Y-13750000D03*
X132750000Y-13500000D03*
X131500000Y-10750000D03*
X104250000Y-44000000D03*
X106031010Y-44000000D03*
X106031010Y-42500000D03*
D28*
X179500000Y-124750000D03*
X177000000Y-108500000D03*
X179225000Y-107000000D03*
X177000000Y-107000000D03*
D26*
X92075000Y-85050000D03*
D28*
X66025000Y-112575000D03*
X65975000Y-114425000D03*
X63750000Y-114625000D03*
D26*
X125400000Y-44125000D03*
X97225000Y-57325000D03*
D27*
X93275000Y-54275000D03*
X120675000Y-68725000D03*
D26*
X97425000Y-60626210D03*
D29*
X96575000Y-125550000D03*
X96575000Y-127500000D03*
X94950000Y-127525000D03*
X94925000Y-125500000D03*
X92975000Y-125500000D03*
X92925000Y-127600000D03*
X91025000Y-127675000D03*
X90925000Y-125500000D03*
X89125000Y-125475000D03*
X89150000Y-127675000D03*
D26*
X98500000Y-126675000D03*
X101025000Y-126575000D03*
X103475000Y-126625000D03*
X105975000Y-126625000D03*
X108500000Y-126625000D03*
X113475000Y-126625000D03*
X98450000Y-99300000D03*
X101025000Y-99100000D03*
X103225000Y-99100000D03*
X105800000Y-99125000D03*
X108275000Y-99100000D03*
X110750000Y-99100000D03*
X113250000Y-99100000D03*
X127083739Y-34158739D03*
X98900000Y-27825000D03*
X99925000Y-32750000D03*
X96775000Y-26812411D03*
D28*
X121629989Y-6300000D03*
D26*
X125250000Y-7500000D03*
D27*
X101450000Y-17500000D03*
D26*
X114650000Y-41150000D03*
X94925000Y-123550000D03*
X94900000Y-121625000D03*
X94925000Y-118850000D03*
X94925000Y-117325000D03*
X99075000Y-117375000D03*
X103950000Y-117350000D03*
X106125000Y-117400000D03*
X110000000Y-117450000D03*
X108050000Y-116175000D03*
X105050000Y-116225000D03*
X101725000Y-116225000D03*
X96875000Y-116200000D03*
X93200000Y-116150000D03*
X93225000Y-118050000D03*
X93300000Y-120125000D03*
X93250000Y-122650000D03*
X91075000Y-123700000D03*
X91075000Y-121675000D03*
X91175000Y-118925000D03*
X91250000Y-117025000D03*
X91275000Y-114375000D03*
X94775000Y-114325000D03*
X99050000Y-114500000D03*
X103925000Y-114500000D03*
X106675000Y-114525000D03*
X109575000Y-114600000D03*
X110800000Y-112800000D03*
X111850000Y-110700000D03*
X111950000Y-109325000D03*
X112125000Y-112125000D03*
X109800000Y-109575000D03*
X109400000Y-111725000D03*
X108025000Y-109850000D03*
X107650000Y-112025000D03*
X104725000Y-111850000D03*
X105400000Y-113275000D03*
X101525000Y-113025000D03*
X103125000Y-111475000D03*
X99075000Y-111450000D03*
X99875000Y-113150000D03*
X96475000Y-113100000D03*
X95650000Y-111275000D03*
X93450000Y-112050000D03*
X91525000Y-111275000D03*
X89150000Y-112425000D03*
X89300000Y-115700000D03*
X89275000Y-117725000D03*
X89150000Y-120225000D03*
X89225000Y-122525000D03*
X89300000Y-124050000D03*
X59825000Y-96225000D03*
X55225000Y-96250000D03*
X53150000Y-96125000D03*
X69550000Y-99725000D03*
X69550000Y-103625000D03*
X69550000Y-105550000D03*
X63975000Y-105600000D03*
X62025000Y-104075000D03*
X60850000Y-105575000D03*
X58675000Y-104100000D03*
X55800000Y-105550000D03*
X53050000Y-104200000D03*
X53450000Y-105875000D03*
X52325000Y-101750000D03*
X52075000Y-99325000D03*
X73700000Y-86025000D03*
X76125000Y-86175000D03*
X79400000Y-86175000D03*
X80875000Y-83600000D03*
X82375000Y-80950000D03*
X79025000Y-81025000D03*
X77550000Y-83700000D03*
X75025000Y-83550000D03*
X73450000Y-80950000D03*
X76375000Y-79625000D03*
X75925000Y-76800000D03*
X73125000Y-76850000D03*
X72375000Y-74825000D03*
X75150000Y-74075000D03*
X87625000Y-84800000D03*
X108650000Y-88775000D03*
X106600000Y-88800000D03*
X104025000Y-88775000D03*
X101050000Y-88675000D03*
X97875000Y-88775000D03*
X95675000Y-88775000D03*
X95625000Y-91625000D03*
X95700000Y-94450000D03*
X111075000Y-88750000D03*
X114850000Y-88800000D03*
X117400000Y-88900000D03*
X120075000Y-88850000D03*
X123800000Y-88750000D03*
X125650000Y-88800000D03*
X129175000Y-88600000D03*
X132075000Y-88625000D03*
X135425000Y-88500000D03*
X139175000Y-88600000D03*
X143975000Y-88500000D03*
X147550000Y-88475000D03*
X151350000Y-88425000D03*
X151425000Y-85125000D03*
X147425000Y-84200000D03*
X143100000Y-84275000D03*
X140925000Y-84150000D03*
X141050000Y-81325000D03*
X138250000Y-82450000D03*
X135025000Y-82525000D03*
X132400000Y-81300000D03*
X129175000Y-81125000D03*
X124975000Y-81150000D03*
X124200000Y-78900000D03*
X123125000Y-76100000D03*
X123200000Y-73350000D03*
X123575000Y-71100000D03*
X117450000Y-71700000D03*
X116150000Y-70050000D03*
X114950000Y-71425000D03*
X112250000Y-71300000D03*
X111475000Y-68400000D03*
X111475000Y-66900000D03*
X111225000Y-64875000D03*
X111225000Y-61475000D03*
X110750000Y-58025000D03*
X116525000Y-58200000D03*
X118475000Y-59725000D03*
X126425000Y-67525000D03*
X128175000Y-70850000D03*
X134150000Y-52950000D03*
X134175000Y-54500000D03*
X122675000Y-55125000D03*
X122725000Y-58225000D03*
X120925000Y-56050000D03*
X117200000Y-53925000D03*
X117625000Y-66650000D03*
X117950000Y-63450000D03*
X120625000Y-65850000D03*
X70750000Y-38075000D03*
X71275000Y-36250000D03*
X70475000Y-39625000D03*
X72450000Y-45100000D03*
X72450000Y-44525000D03*
X72450000Y-43900000D03*
X72450000Y-45775000D03*
X73150000Y-39800000D03*
X73075000Y-38000000D03*
X56975000Y-56775000D03*
X57125000Y-59550000D03*
X65675000Y-55225000D03*
X68225000Y-55600000D03*
X67900000Y-53925000D03*
X65600000Y-52825000D03*
X67875000Y-51275000D03*
X65475000Y-50050000D03*
X67850000Y-48325000D03*
X65200000Y-47575000D03*
X67700000Y-46325000D03*
X65425000Y-45325000D03*
X67925000Y-45425000D03*
X69725000Y-40675000D03*
X70225000Y-42200000D03*
X71900000Y-41650000D03*
X153500000Y-46250000D03*
X147750000Y-46250000D03*
X120076210Y-52026779D03*
X111098790Y-116230087D03*
X110898790Y-126625000D03*
X61313268Y-59736732D03*
X72700000Y-55761739D03*
X75350000Y-55761739D03*
D28*
X62290000Y-93010000D03*
X62270000Y-91640000D03*
X63460000Y-91600000D03*
X63460000Y-92950000D03*
X61270000Y-96060000D03*
X62480000Y-96080000D03*
X63790000Y-96050000D03*
D26*
X103750000Y-48500000D03*
X104250000Y-53500000D03*
X109500000Y-51000000D03*
D27*
X90458441Y-37395352D03*
D26*
X90300000Y-42200000D03*
X93366557Y-47775000D03*
X132750000Y-8000000D03*
X134750000Y-9250000D03*
X139500000Y-2500000D03*
X141250000Y-6500000D03*
X136250000Y-1500000D03*
X120250000Y-15500000D03*
X128250000Y-22000000D03*
X128000000Y-19750000D03*
X119500000Y-20000000D03*
X115000000Y-23250000D03*
X101250000Y-22500000D03*
X80750000Y-13000000D03*
X85000000Y-11250000D03*
X90250000Y-8250000D03*
X94250000Y-2750000D03*
X85250000Y-2750000D03*
X79750000Y-2250000D03*
X67000000Y-17500000D03*
X66500000Y-20000000D03*
X78750000Y-30750000D03*
X80000000Y-26000000D03*
D28*
X177250000Y-126750000D03*
X177250000Y-125000000D03*
X179500000Y-86250000D03*
X177500000Y-86250000D03*
X177500000Y-87750000D03*
X175750000Y-87750000D03*
X175750000Y-86250000D03*
D26*
X175250000Y-132750000D03*
X175000000Y-137750000D03*
X175750000Y-144750000D03*
X184000000Y-144250000D03*
X187750000Y-147500000D03*
X180750000Y-148500000D03*
X174500000Y-148500000D03*
X168000000Y-148250000D03*
X163250000Y-148750000D03*
X157000000Y-148750000D03*
X155250000Y-146750000D03*
X156000000Y-144000000D03*
X161250000Y-143750000D03*
X159750000Y-146250000D03*
X166750000Y-146000000D03*
X167750000Y-141750000D03*
X171750000Y-144250000D03*
X167500000Y-137250000D03*
X171750000Y-133000000D03*
X168250000Y-132250000D03*
X174250000Y-129500000D03*
X171000000Y-128750000D03*
X160000000Y-127000000D03*
X163000000Y-125750000D03*
X155000000Y-124750000D03*
X152000000Y-125000000D03*
X167500000Y-124250000D03*
X161000000Y-130750000D03*
X166750000Y-120000000D03*
X172000000Y-121500000D03*
X181000000Y-121500000D03*
X178000000Y-116750000D03*
X173500000Y-113500000D03*
X168000000Y-112000000D03*
X161750000Y-111250000D03*
X157250000Y-110500000D03*
X159500000Y-107750000D03*
X153750000Y-107000000D03*
X164750000Y-107500000D03*
X168250000Y-108000000D03*
X166500000Y-102250000D03*
X168000000Y-98500000D03*
X167000000Y-91500000D03*
X159250000Y-91250000D03*
X157250000Y-85750000D03*
X163250000Y-86000000D03*
X166750000Y-67250000D03*
X158750000Y-67000000D03*
X152000000Y-67250000D03*
X151750000Y-65000000D03*
X155750000Y-66000000D03*
X161000000Y-64750000D03*
X164500000Y-67500000D03*
X172000000Y-64250000D03*
X178750000Y-63250000D03*
X177500000Y-68250000D03*
X177000000Y-75250000D03*
X178750000Y-81500000D03*
X176750000Y-57750000D03*
X178500000Y-52250000D03*
X180750000Y-48250000D03*
X175250000Y-47250000D03*
X175750000Y-43500000D03*
X175250000Y-38250000D03*
X171250000Y-39500000D03*
X109224934Y-76750000D03*
X167470146Y-84750000D03*
X167117735Y-64500000D03*
X166412913Y-44250000D03*
X167117735Y-72250000D03*
X167470146Y-78500000D03*
X166765324Y-51250000D03*
X167117735Y-58749428D03*
G04 #@! TO.N,+3V3*
X150025000Y-136050000D03*
X149300000Y-117175000D03*
X149025000Y-100050000D03*
X149325000Y-94075000D03*
X149900000Y-78650000D03*
X149950000Y-73725000D03*
X75675000Y-60675000D03*
X75250000Y-65750000D03*
X150225000Y-56375000D03*
X150225000Y-51400000D03*
X130325000Y-26875000D03*
X114300000Y-45200000D03*
X122575000Y-41250000D03*
X134575000Y-38175000D03*
D28*
X131000000Y-71675000D03*
X82775000Y-35075000D03*
X69775000Y-34300000D03*
D26*
X122900000Y-45275000D03*
X73450000Y-140150000D03*
X72900000Y-137100000D03*
X150025000Y-131350000D03*
X149300000Y-111900000D03*
X130500000Y-22000014D03*
X62724268Y-56675805D03*
X111275000Y-33775000D03*
X88100000Y-30325000D03*
D27*
G04 #@! TO.N,/Inputs and Fusing/HP_Vin+*
X76500000Y-145000000D03*
X76500000Y-147500000D03*
X78500000Y-147500000D03*
X78500000Y-146250000D03*
X78500000Y-145000000D03*
X81500000Y-145000000D03*
X81500000Y-147500000D03*
X84250000Y-147500000D03*
X84250000Y-145000000D03*
X84250000Y-142000000D03*
X81500000Y-142000000D03*
X81500000Y-139750000D03*
X84250000Y-139750000D03*
X73875000Y-110325000D03*
X65475000Y-103050000D03*
D29*
G04 #@! TO.N,/Inputs and Fusing/LP_Vin+*
X78750000Y-67750000D03*
X80750000Y-67750000D03*
X87500000Y-66750000D03*
X87500000Y-69000000D03*
X87500000Y-73500000D03*
X84750000Y-73500000D03*
X78750000Y-70250000D03*
X78750000Y-73000000D03*
X84750000Y-69000000D03*
X84750000Y-71250000D03*
X87500000Y-71250000D03*
D26*
X77375000Y-45000000D03*
X77375000Y-44365000D03*
X79750000Y-43750000D03*
X79750000Y-44500000D03*
X79750000Y-45250000D03*
X79750000Y-46250000D03*
X79750000Y-47750000D03*
X79000000Y-47750000D03*
X77500000Y-47750000D03*
X78250000Y-47750000D03*
X79750000Y-47000000D03*
X77375000Y-43802410D03*
D27*
X130750000Y-28750000D03*
X130750000Y-30000000D03*
X130750000Y-31250000D03*
X132250000Y-31250000D03*
X132250000Y-30000000D03*
X129500000Y-31250000D03*
X129500000Y-30000000D03*
D29*
X80750000Y-70200000D03*
X80800000Y-73000000D03*
X82800000Y-73000000D03*
X82775000Y-70300000D03*
X82725000Y-67750000D03*
X84750000Y-66800000D03*
D27*
X65575000Y-99975000D03*
D26*
X125450000Y-51725000D03*
X72925000Y-96975000D03*
D27*
G04 #@! TO.N,/Power Conversion/LP12V*
X150500000Y-58250000D03*
X150500000Y-59500000D03*
X150500000Y-60500000D03*
X149250000Y-59500000D03*
X149250000Y-58250000D03*
X148000000Y-58250000D03*
X148000000Y-59500000D03*
X151500000Y-60500000D03*
X151500000Y-59500000D03*
D26*
X110000000Y-40925000D03*
X61525000Y-44517541D03*
D28*
G04 #@! TO.N,/Power Conversion/HP12V*
X99000002Y-120750000D03*
X101000000Y-120750000D03*
X103500000Y-120750000D03*
X106000000Y-120750000D03*
X108500000Y-120750000D03*
X111000000Y-120750000D03*
X113500000Y-120750000D03*
X116750000Y-120750000D03*
X126000000Y-120750000D03*
X126000000Y-118250000D03*
X127750000Y-118250000D03*
X127750000Y-120750000D03*
X127750000Y-123500000D03*
X126250016Y-123500000D03*
D27*
X149750000Y-118750000D03*
X148500000Y-118750000D03*
X148500000Y-119750000D03*
X148500000Y-120750000D03*
X149750000Y-120750000D03*
X149750000Y-119750000D03*
X151000000Y-120750000D03*
X151000000Y-119750000D03*
X151000000Y-137750000D03*
X149500000Y-137750000D03*
X148250000Y-137750000D03*
X148250000Y-136250000D03*
X148250000Y-139250000D03*
X149500000Y-139250000D03*
X151000000Y-139250000D03*
X150000000Y-101500000D03*
X149000000Y-101500000D03*
X147750000Y-101500000D03*
X147750000Y-102750000D03*
X149000000Y-102750000D03*
X150000000Y-102750000D03*
X150750000Y-104000000D03*
X149750000Y-104000000D03*
X148500000Y-104000000D03*
X147500000Y-104000000D03*
X147500000Y-105000000D03*
X148500000Y-105000000D03*
X149750000Y-105000000D03*
X150750000Y-105000000D03*
D26*
X97350000Y-96675000D03*
X60325000Y-37550000D03*
G04 #@! TO.N,Net-(C805-Pad1)*
X75000000Y-43750000D03*
X74500000Y-47750000D03*
X75250000Y-47750000D03*
X76000000Y-47750000D03*
X73750000Y-47000000D03*
X72250000Y-47000000D03*
X70500000Y-47000000D03*
X69500000Y-47000000D03*
X71250000Y-47000000D03*
X73750000Y-47750000D03*
X73750000Y-48750000D03*
X73750000Y-49750000D03*
X73750000Y-50750000D03*
X73750000Y-52000000D03*
X73750000Y-53500000D03*
X76000000Y-43750000D03*
X76000000Y-44365000D03*
X75000000Y-44365000D03*
X76000000Y-45000000D03*
X75000000Y-45000000D03*
D27*
X80000000Y-40500000D03*
G04 #@! TO.N,Net-(C805-Pad2)*
X82750000Y-42000000D03*
X82750000Y-38000000D03*
D26*
G04 #@! TO.N,/Power Conversion/LP24V*
X61325000Y-40225000D03*
G04 #@! TO.N,Net-(D201-Pad1)*
X51500000Y-94250000D03*
G04 #@! TO.N,Net-(D202-Pad1)*
X52000000Y-107250000D03*
D29*
G04 #@! TO.N,LPBAT_Voltage*
X74725000Y-67775000D03*
X74750000Y-70225000D03*
X76650000Y-70275000D03*
X72725000Y-70250000D03*
X72675000Y-67775000D03*
X71750000Y-70500000D03*
X72500000Y-66000000D03*
D27*
G04 #@! TO.N,HPBAT_Voltage*
X72250000Y-145000000D03*
X72250000Y-146250000D03*
X72250000Y-147500000D03*
X74000000Y-147500000D03*
X74500000Y-145000000D03*
X67500000Y-147500000D03*
X69750000Y-147500000D03*
X69750000Y-145000000D03*
D26*
X63250000Y-62000000D03*
D27*
G04 #@! TO.N,Net-(F302-Pad2)*
X155000000Y-80250000D03*
X156250000Y-80250000D03*
X156250000Y-81500000D03*
X156250000Y-82750000D03*
X155000000Y-82750000D03*
X155000000Y-81500000D03*
X153750000Y-81500000D03*
X153750000Y-82750000D03*
X156250000Y-79000000D03*
G04 #@! TO.N,Net-(F303-Pad2)*
X154000000Y-118750000D03*
X155000000Y-118750000D03*
X155000000Y-120000000D03*
X154000000Y-120000000D03*
X153000000Y-120000000D03*
X153000000Y-121250000D03*
X154000000Y-121250000D03*
X155000000Y-121250000D03*
G04 #@! TO.N,Net-(F304-Pad2)*
X154000000Y-137750000D03*
X154000000Y-139250000D03*
X155500000Y-139250000D03*
X155500000Y-137750000D03*
X156750000Y-137750000D03*
X156750000Y-139250000D03*
X156750000Y-136250000D03*
G04 #@! TO.N,Net-(F305-Pad2)*
X135000000Y-29250000D03*
X135000000Y-30250000D03*
X135000000Y-31250000D03*
X133750000Y-31250000D03*
X133750000Y-30250000D03*
X136750000Y-30250000D03*
X136750000Y-31250000D03*
X136750000Y-29250000D03*
X136750000Y-28000000D03*
G04 #@! TO.N,Net-(F307-Pad2)*
X155000000Y-58250000D03*
X155000000Y-59500000D03*
X155000000Y-60750000D03*
X153750000Y-60750000D03*
X153750000Y-59500000D03*
X156500000Y-59500000D03*
X156500000Y-60750000D03*
X156500000Y-58250000D03*
X156500000Y-56750000D03*
G04 #@! TO.N,Net-(F308-Pad2)*
X153750000Y-101500000D03*
X153750000Y-102750000D03*
X153750000Y-104000000D03*
X152500000Y-104000000D03*
X152500000Y-102750000D03*
X155250000Y-102750000D03*
X155250000Y-104000000D03*
X155250000Y-101500000D03*
X155250000Y-100000000D03*
D29*
G04 #@! TO.N,Net-(F501-Pad2)*
X127060000Y-11875000D03*
D26*
G04 #@! TO.N,USB-*
X126479810Y-7020190D03*
X121998790Y-38020190D03*
G04 #@! TO.N,USB+*
X122479810Y-38479810D03*
X126020190Y-7479810D03*
D27*
G04 #@! TO.N,SWDIO*
X148700000Y-55100000D03*
D26*
G04 #@! TO.N,~RESET~*
X145750000Y-41000000D03*
D27*
G04 #@! TO.N,3V3A_W5500*
X74225000Y-32125000D03*
D26*
X55050000Y-12250000D03*
X58475000Y-10050000D03*
X53425000Y-28975000D03*
X54933852Y-30467756D03*
X56116957Y-31869074D03*
X62425000Y-32600000D03*
X64725000Y-30500000D03*
X65218550Y-29756531D03*
X75100000Y-24225000D03*
D27*
X70325000Y-30500000D03*
X108954678Y-25921380D03*
X112350000Y-24125000D03*
D26*
G04 #@! TO.N,/Wiznet Ethernet/ACT_LED_R*
X51100000Y-13875000D03*
G04 #@! TO.N,/Wiznet Ethernet/LINK_LED_R*
X56525000Y-13625000D03*
G04 #@! TO.N,COOL_PUMP_CTRL_2*
X136125000Y-33725000D03*
X177375000Y-133200000D03*
G04 #@! TO.N,INVERTER_CTRL*
X139350000Y-33875000D03*
X177025000Y-93375000D03*
G04 #@! TO.N,COOL_PUMP_CTRL_1*
X137275000Y-33750000D03*
X175225000Y-112525000D03*
G04 #@! TO.N,/Wiznet Ethernet/LINK_LED*
X55575000Y-24700000D03*
X57825000Y-16275000D03*
G04 #@! TO.N,/Wiznet Ethernet/ACT_LED*
X56050000Y-24275000D03*
X54700000Y-15625000D03*
G04 #@! TO.N,NETW_RESET_L*
X60125000Y-21375004D03*
X115775000Y-40850000D03*
G04 #@! TO.N,NETW_INT_L*
X117525000Y-41260002D03*
X62150000Y-24075000D03*
G04 #@! TO.N,/Wiznet Ethernet/RSVD1*
X61649886Y-18138821D03*
X62400489Y-5547263D03*
G04 #@! TO.N,/Wiznet Ethernet/RSVD2*
X62075000Y-18650000D03*
X62936685Y-5816537D03*
G04 #@! TO.N,/Wiznet Ethernet/RSVD3*
X62474382Y-19099453D03*
X63365170Y-6236554D03*
G04 #@! TO.N,/Wiznet Ethernet/RSVD4*
X62923790Y-19497004D03*
X63761258Y-6704755D03*
G04 #@! TO.N,/Wiznet Ethernet/RSVD5*
X63400000Y-19950000D03*
X64374992Y-7125000D03*
G04 #@! TO.N,/Wiznet Ethernet/TX_P*
X109770190Y-25229810D03*
X71254808Y-26854810D03*
G04 #@! TO.N,/Wiznet Ethernet/TX_N*
X110229810Y-24770190D03*
X70795188Y-26395190D03*
G04 #@! TO.N,/Wiznet Ethernet/RX_P*
X60725000Y-24024998D03*
X85300000Y-20900000D03*
G04 #@! TO.N,/Wiznet Ethernet/RX_N*
X61375000Y-24024998D03*
X85300000Y-21550000D03*
G04 #@! TO.N,Net-(R701-Pad2)*
X113100000Y-142275000D03*
X108500000Y-137925000D03*
G04 #@! TO.N,Net-(R701-Pad1)*
X112750000Y-113750000D03*
X108500000Y-135250000D03*
X123400000Y-117800000D03*
G04 #@! TO.N,LP12V_VSense*
X56975000Y-47267541D03*
X62979359Y-59050327D03*
G04 #@! TO.N,LP5V_VSense*
X57025000Y-52767541D03*
X63001891Y-58450738D03*
G04 #@! TO.N,LP24V_VSense*
X57000000Y-41767541D03*
X62979516Y-59650338D03*
G04 #@! TO.N,HP12V_VSense*
X57000000Y-36267541D03*
X62999980Y-60250000D03*
G04 #@! TO.N,LPBatt_Current*
X89318436Y-47872769D03*
X79025000Y-55761739D03*
G04 #@! TO.N,HPBatt_Current*
X89950000Y-47725000D03*
X72700000Y-101025000D03*
X72625000Y-102225000D03*
X74150000Y-137225000D03*
G04 #@! TO.N,Nodes_Current*
X113550000Y-28450000D03*
X131450000Y-25175000D03*
G04 #@! TO.N,LP5V_Output_Current*
X151625000Y-75100000D03*
X117425589Y-27878227D03*
X149625000Y-40050000D03*
X146350000Y-35475000D03*
G04 #@! TO.N,CoolingP1_Current*
X150250000Y-112925000D03*
X118024990Y-27851157D03*
X148648424Y-39126576D03*
X146948424Y-35851576D03*
G04 #@! TO.N,CoolingP2_Current*
X151250000Y-131575000D03*
X118725000Y-27875000D03*
X148185924Y-38664076D03*
X147436529Y-36339681D03*
G04 #@! TO.N,LP12V_Output_Current*
X151600000Y-52325000D03*
X112325079Y-28535852D03*
X150100000Y-40550000D03*
X145550000Y-34850000D03*
G04 #@! TO.N,Inverter12V_Current*
X150550000Y-95550000D03*
X112924998Y-28446623D03*
X146350000Y-34800000D03*
X149172967Y-39601356D03*
G04 #@! TO.N,NETW_CS*
X59026210Y-22999998D03*
X107235791Y-39763784D03*
G04 #@! TO.N,NETW_MISO*
X107300396Y-39154926D03*
X58691223Y-21898070D03*
G04 #@! TO.N,NETW_MOSI*
X107321687Y-41020150D03*
X59028070Y-21401534D03*
G04 #@! TO.N,NETW_SCLK*
X107400000Y-40425000D03*
X58303198Y-22355728D03*
G04 #@! TO.N,+5V*
X105200000Y-78250000D03*
D27*
X150500000Y-80250000D03*
X149500000Y-80250000D03*
X149500000Y-81250000D03*
X149500000Y-82250000D03*
X150500000Y-82250000D03*
X151500000Y-82250000D03*
X151500000Y-81250000D03*
X150500000Y-81250000D03*
D26*
X64175000Y-50000000D03*
X75200000Y-39225000D03*
X75000000Y-35750000D03*
D28*
X125750000Y-75875000D03*
D27*
X90250000Y-56131400D03*
X97200000Y-53975000D03*
X99025000Y-45850000D03*
X99675000Y-49000000D03*
X105550000Y-32525000D03*
X94750000Y-25000000D03*
X76250000Y-36225000D03*
X89425000Y-50400000D03*
D26*
X108500000Y-57950000D03*
D27*
X106925000Y-48325000D03*
X99010544Y-30852051D03*
X105499998Y-37200000D03*
X101700000Y-53100000D03*
X99200000Y-53200000D03*
D28*
X131250000Y-19000000D03*
D26*
G04 #@! TO.N,/SAMD21uC/ADC_Sensors/5V_FILT*
X92460000Y-47775000D03*
X89600014Y-42100000D03*
G04 #@! TO.N,Net-(J1001-Pad1)*
X105100000Y-59875000D03*
G04 #@! TO.N,/SAMD21uC/ADC_Sensors/VREF_EN*
X102675000Y-32825000D03*
X94861732Y-27761732D03*
G04 #@! TO.N,Net-(J1000-Pad2)*
X93475000Y-69050000D03*
G04 #@! TO.N,Net-(J1000-Pad1)*
X99975000Y-60300000D03*
G04 #@! TO.N,Net-(J1001-Pad2)*
X114500000Y-62425000D03*
G04 #@! TO.N,Net-(R1100-Pad2)*
X99725000Y-80575000D03*
X112650000Y-69350000D03*
G04 #@! TO.N,Net-(R16-Pad1)*
X111500000Y-135300000D03*
X123575000Y-115775000D03*
G04 #@! TO.N,Net-(R14-Pad1)*
X105250000Y-135225000D03*
X113000000Y-114800000D03*
G04 #@! TO.N,Net-(R14-Pad2)*
X113050000Y-141275000D03*
X105250000Y-137950000D03*
G04 #@! TO.N,Net-(R16-Pad2)*
X123550000Y-143275000D03*
X111500000Y-138050000D03*
G04 #@! TO.N,/SAMD21uC/EXT_SPI_CS0*
X117700000Y-45275000D03*
G04 #@! TO.N,/SAMD21uC/EXT_SPI_CS1*
X117000000Y-45250000D03*
G04 #@! TO.N,/SAMD21uC/EXT_SPI_SDI*
X119722584Y-38246098D03*
G04 #@! TO.N,/SAMD21uC/EXT_SPI_SDO*
X120322580Y-38250536D03*
G04 #@! TO.N,/SAMD21uC/EXT_SPI_SCLK*
X121000000Y-38250000D03*
G04 #@! TO.N,Net-(C21-Pad1)*
X134950000Y-63525000D03*
X125975000Y-52125000D03*
G04 #@! TO.N,/SAMD21uC/AIN_0*
X112350000Y-59050000D03*
G04 #@! TO.N,/SAMD21uC/AIN_1*
X119625000Y-47750000D03*
X113100000Y-59075000D03*
X118670519Y-56022091D03*
G04 #@! TO.N,/SAMD21uC/AIN_2*
X113500000Y-59550000D03*
X119650000Y-56773790D03*
X123025000Y-47500000D03*
G04 #@! TO.N,/SAMD21uC/AIN_3*
X119173790Y-56348790D03*
X114125000Y-59975000D03*
X122175000Y-47425000D03*
G04 #@! TO.N,Net-(R11-Pad2)*
X133975000Y-58675000D03*
G04 #@! TO.N,Net-(R12-Pad2)*
X135000000Y-62850000D03*
X127025000Y-63575000D03*
G04 #@! TO.N,HP12V_EN*
X121025000Y-47675000D03*
X126225000Y-63325000D03*
X122200000Y-81425000D03*
X110775000Y-131775000D03*
G04 #@! TO.N,Net-(R45-Pad1)*
X77675000Y-39349998D03*
G04 #@! TO.N,LP24V_EN*
X117450000Y-43125000D03*
X97125000Y-43125000D03*
G04 #@! TO.N,LP5V_EN*
X121150000Y-50075000D03*
X120950000Y-56925000D03*
G04 #@! TO.N,ADC_S0_BUS*
X90900000Y-42200000D03*
X93900000Y-48700000D03*
G04 #@! TO.N,ADC_S1_BUS*
X94385548Y-48300214D03*
X91488359Y-42317675D03*
G04 #@! TO.N,ADC_S2_BUS*
X94985494Y-48291297D03*
X92096771Y-42362278D03*
G04 #@! TO.N,ADC_S3_BUS*
X95600000Y-48200000D03*
X92692438Y-42434355D03*
G04 #@! TD*
D30*
G04 #@! TO.N,GND*
X79025000Y-81025000D02*
X77550000Y-82500000D01*
X77550000Y-82500000D02*
X77550000Y-83700000D01*
X116525000Y-58200000D02*
X118050000Y-59725000D01*
X118050000Y-59725000D02*
X118475000Y-59725000D01*
X72700000Y-55761739D02*
X75350000Y-55761739D01*
X139500000Y-2500000D02*
X139500000Y-4750000D01*
X139500000Y-4750000D02*
X141250000Y-6500000D01*
X85250000Y-2750000D02*
X80250000Y-2750000D01*
X80250000Y-2750000D02*
X79750000Y-2250000D01*
D31*
G04 #@! TO.N,+3V3*
X114075000Y-49650000D02*
X111425000Y-47000000D01*
X111425000Y-47000000D02*
X98025000Y-47000000D01*
X82000000Y-34300000D02*
X69775000Y-34300000D01*
X82775000Y-35075000D02*
X82000000Y-34300000D01*
X133050000Y-73725000D02*
X149950000Y-73725000D01*
X131000000Y-71675000D02*
X133050000Y-73725000D01*
D32*
X149950000Y-78600000D02*
X149900000Y-78650000D01*
X149950000Y-73725000D02*
X149950000Y-78600000D01*
X149950000Y-73725000D02*
X149950000Y-64325000D01*
X149950000Y-64325000D02*
X145980000Y-60355000D01*
X145980000Y-58400000D02*
X145980000Y-58245000D01*
X145980000Y-60355000D02*
X145980000Y-58400000D01*
X145980000Y-58400000D02*
X145980000Y-55250000D01*
X147850000Y-56375000D02*
X150225000Y-56375000D01*
X145980000Y-58245000D02*
X147850000Y-56375000D01*
X150225000Y-56375000D02*
X150225000Y-51400000D01*
X114075000Y-49650000D02*
X116175000Y-49650000D01*
D33*
X120550000Y-45275000D02*
X120525000Y-45300000D01*
X122900000Y-45275000D02*
X120550000Y-45275000D01*
D32*
X116175000Y-49650000D02*
X120525000Y-45300000D01*
D33*
X122575000Y-43000000D02*
X122700000Y-43125000D01*
X122575000Y-41250000D02*
X122575000Y-43000000D01*
D32*
X120525000Y-45300000D02*
X122700000Y-43125000D01*
D33*
X114100001Y-49624999D02*
X114075000Y-49650000D01*
X114100001Y-45399999D02*
X114100001Y-49624999D01*
X114300000Y-45200000D02*
X114100001Y-45399999D01*
X149300000Y-111900000D02*
X149300000Y-108575000D01*
D32*
X149900000Y-78650000D02*
X149475000Y-78650000D01*
X148475000Y-79650000D02*
X148475000Y-82700000D01*
X149475000Y-78650000D02*
X148475000Y-79650000D01*
X148475000Y-82700000D02*
X149450000Y-83675000D01*
X149325000Y-83800000D02*
X149325000Y-94075000D01*
X149450000Y-83675000D02*
X149325000Y-83800000D01*
X147425000Y-100050000D02*
X146250000Y-101225000D01*
X149025000Y-100050000D02*
X147425000Y-100050000D01*
X146250000Y-101225000D02*
X146250000Y-105525000D01*
X146250000Y-105525000D02*
X149300000Y-108575000D01*
X149300000Y-108575000D02*
X149300000Y-117050000D01*
D33*
X149300000Y-117175000D02*
X149300000Y-117050000D01*
X149300000Y-117050000D02*
X149300000Y-111900000D01*
D32*
X150025000Y-124525000D02*
X150025000Y-131350000D01*
X147425000Y-121925000D02*
X150025000Y-124525000D01*
X147425000Y-118375000D02*
X147425000Y-121925000D01*
X149300000Y-117175000D02*
X148625000Y-117175000D01*
X148625000Y-117175000D02*
X147425000Y-118375000D01*
X150025000Y-131350000D02*
X150025000Y-136050000D01*
X150025000Y-136050000D02*
X150025000Y-135700000D01*
X150025000Y-135700000D02*
X149325000Y-135000000D01*
X149325000Y-135000000D02*
X147750000Y-135000000D01*
X147750000Y-135000000D02*
X134000000Y-148750000D01*
X134000000Y-148750000D02*
X96100000Y-148750000D01*
X96100000Y-148750000D02*
X85400000Y-138050000D01*
X85400000Y-138050000D02*
X80400000Y-138050000D01*
X78300000Y-140150000D02*
X73450000Y-140150000D01*
X80400000Y-138050000D02*
X78300000Y-140150000D01*
X73450000Y-139850000D02*
X72900000Y-139300000D01*
X73450000Y-140150000D02*
X73450000Y-139850000D01*
X72900000Y-137100000D02*
X72900000Y-139150000D01*
D33*
X72900000Y-139300000D02*
X72900000Y-139150000D01*
D32*
X75250000Y-61100000D02*
X75675000Y-60675000D01*
X75250000Y-65750000D02*
X75250000Y-61100000D01*
X130325000Y-22175014D02*
X130500000Y-22000014D01*
X130325000Y-26875000D02*
X130325000Y-22175014D01*
X130325000Y-27157842D02*
X130325000Y-26875000D01*
X122700000Y-43125000D02*
X128050000Y-37775000D01*
X128050000Y-29432842D02*
X130325000Y-27157842D01*
X128050000Y-37775000D02*
X128050000Y-29432842D01*
D30*
X63007110Y-56675805D02*
X62724268Y-56675805D01*
X75170220Y-60675000D02*
X71171025Y-56675805D01*
X71171025Y-56675805D02*
X63007110Y-56675805D01*
X75675000Y-60675000D02*
X75170220Y-60675000D01*
D31*
X114075000Y-52950000D02*
X114075000Y-49650000D01*
X131000000Y-71675000D02*
X131000000Y-69875000D01*
X131000000Y-69875000D02*
X114075000Y-52950000D01*
D32*
X149325000Y-94075000D02*
X149325000Y-99750000D01*
X149325000Y-99750000D02*
X149025000Y-100050000D01*
D34*
X134575000Y-38175000D02*
X134025000Y-37625000D01*
X128200000Y-37625000D02*
X128050000Y-37775000D01*
X134025000Y-37625000D02*
X128200000Y-37625000D01*
D30*
X111275000Y-33775000D02*
X110992158Y-33775000D01*
X110992158Y-33775000D02*
X107850000Y-33775000D01*
X107850000Y-33775000D02*
X106975000Y-34650000D01*
X106975000Y-34650000D02*
X106975000Y-37150000D01*
X106975000Y-37150000D02*
X105950000Y-38175000D01*
X105950000Y-38175000D02*
X95975000Y-38175000D01*
X95975000Y-38175000D02*
X88125000Y-30325000D01*
X88125000Y-30325000D02*
X88100000Y-30325000D01*
D32*
X98025000Y-47230882D02*
X98025000Y-47000000D01*
X84350000Y-60675000D02*
X95643999Y-49381001D01*
X75675000Y-60675000D02*
X84350000Y-60675000D01*
X95874881Y-49381001D02*
X98025000Y-47230882D01*
X95643999Y-49381001D02*
X95874881Y-49381001D01*
D31*
X93727439Y-41937554D02*
X93154883Y-41364998D01*
X93727439Y-42111671D02*
X93727439Y-41937554D01*
X93154883Y-41364998D02*
X92764998Y-41364998D01*
X83482106Y-35075000D02*
X82775000Y-35075000D01*
X86475000Y-35075000D02*
X83482106Y-35075000D01*
X98025000Y-46409232D02*
X93727439Y-42111671D01*
X98025000Y-47000000D02*
X98025000Y-46409232D01*
X92764998Y-41364998D02*
X86475000Y-35075000D01*
D30*
G04 #@! TO.N,/Inputs and Fusing/LP_Vin+*
X78750000Y-73565685D02*
X78225000Y-74090685D01*
X78750000Y-73000000D02*
X78750000Y-73565685D01*
X78225000Y-74090685D02*
X77234315Y-74090685D01*
X72468982Y-78856018D02*
X72468982Y-92893982D01*
X77234315Y-74090685D02*
X72468982Y-78856018D01*
X72468982Y-92893982D02*
X72500000Y-92925000D01*
X72500000Y-92925000D02*
X72500000Y-96550000D01*
X72500000Y-96550000D02*
X72925000Y-96975000D01*
G04 #@! TO.N,/Power Conversion/LP12V*
X61325001Y-44317542D02*
X61525000Y-44517541D01*
X94638650Y-41560119D02*
X91034641Y-37956110D01*
X110000000Y-40925000D02*
X109364881Y-41560119D01*
X87140864Y-33225000D02*
X65550000Y-33225000D01*
X109364881Y-41560119D02*
X94638650Y-41560119D01*
X91034641Y-37118775D02*
X87140864Y-33225000D01*
X65550000Y-33225000D02*
X60800000Y-37975000D01*
X91034641Y-37956110D02*
X91034641Y-37118775D01*
X60800000Y-37975000D02*
X60800000Y-43792541D01*
X60800000Y-43792541D02*
X61325001Y-44317542D01*
G04 #@! TO.N,/Power Conversion/HP12V*
X60325000Y-37832842D02*
X60325000Y-37550000D01*
X60325000Y-55773384D02*
X60325000Y-37832842D01*
X62454026Y-57902410D02*
X60325000Y-55773384D01*
X63852411Y-57902411D02*
X62454026Y-57902410D01*
X64025000Y-58075000D02*
X63852411Y-57902411D01*
X64025000Y-62776616D02*
X64025000Y-58075000D01*
X63472590Y-63329026D02*
X64025000Y-62776616D01*
X63472590Y-76922590D02*
X63472590Y-63329026D01*
X64072589Y-77522589D02*
X63472590Y-76922590D01*
X69295973Y-77522589D02*
X64072589Y-77522589D01*
X71652410Y-79879026D02*
X69295973Y-77522589D01*
X71652411Y-100682191D02*
X71652410Y-79879026D01*
X72471422Y-101501202D02*
X71652411Y-100682191D01*
X72928578Y-101501202D02*
X72471422Y-101501202D01*
X77754780Y-96675000D02*
X72928578Y-101501202D01*
X97350000Y-96675000D02*
X77754780Y-96675000D01*
D34*
G04 #@! TO.N,Net-(C805-Pad1)*
X80000000Y-40500000D02*
X80000000Y-41500000D01*
X80000000Y-41500000D02*
X78250000Y-43250000D01*
X76500000Y-43250000D02*
X76000000Y-43750000D01*
X78250000Y-43250000D02*
X76500000Y-43250000D01*
G04 #@! TO.N,Net-(C805-Pad2)*
X82750000Y-42000000D02*
X82750000Y-38000000D01*
D30*
G04 #@! TO.N,HPBAT_Voltage*
X69750000Y-145000000D02*
X71300000Y-143450000D01*
X71300000Y-80025000D02*
X69150000Y-77875000D01*
X63050001Y-62199999D02*
X63250000Y-62000000D01*
X69150000Y-77875000D02*
X63926616Y-77875000D01*
X63926616Y-77875000D02*
X63050001Y-76998385D01*
X71300000Y-143450000D02*
X71300000Y-80025000D01*
X63050001Y-76998385D02*
X63050001Y-62199999D01*
G04 #@! TO.N,USB-*
X129025000Y-13650209D02*
X129025000Y-13650000D01*
X126150000Y-6690380D02*
X126479810Y-7020190D01*
X126150000Y-6225000D02*
X126150000Y-6690380D01*
X127050000Y-5325000D02*
X126150000Y-6225000D01*
X129025000Y-13650000D02*
X129675000Y-13000000D01*
X128902402Y-5325000D02*
X127050000Y-5325000D01*
X129675000Y-13000000D02*
X129675000Y-6097598D01*
X129675000Y-6097598D02*
X128902402Y-5325000D01*
X121998790Y-37737348D02*
X121998790Y-38020190D01*
X121998790Y-33801210D02*
X121998790Y-37737348D01*
X122776295Y-33023705D02*
X121998790Y-33801210D01*
X122924243Y-32865116D02*
X122882359Y-32917640D01*
X122882359Y-32917640D02*
X122776295Y-33023705D01*
X122882360Y-32917640D02*
X127500000Y-28300000D01*
X122882359Y-32917640D02*
X122882360Y-32917640D01*
X127500000Y-28300000D02*
X127125000Y-28675000D01*
X129022589Y-26777411D02*
X127500000Y-28300000D01*
X129022589Y-17650000D02*
X129022589Y-26777411D01*
X129015067Y-17583243D02*
X129022589Y-17650000D01*
X128992879Y-17519834D02*
X129015067Y-17583243D01*
X128957138Y-17462953D02*
X128992879Y-17519834D01*
X128909635Y-17415450D02*
X128957138Y-17462953D01*
X128852754Y-17379709D02*
X128909635Y-17415450D01*
X128789345Y-17357521D02*
X128852754Y-17379709D01*
X128722589Y-17350000D02*
X128789345Y-17357521D01*
X128322589Y-17350000D02*
X128722589Y-17350000D01*
X128255832Y-17342478D02*
X128322589Y-17350000D01*
X128192423Y-17320290D02*
X128255832Y-17342478D01*
X128135542Y-17284549D02*
X128192423Y-17320290D01*
X128088039Y-17237046D02*
X128135542Y-17284549D01*
X128052298Y-17180165D02*
X128088039Y-17237046D01*
X128030110Y-17116756D02*
X128052298Y-17180165D01*
X128022589Y-17050000D02*
X128030110Y-17116756D01*
X128030110Y-16983243D02*
X128022589Y-17050000D01*
X128052298Y-16919834D02*
X128030110Y-16983243D01*
X128088039Y-16862953D02*
X128052298Y-16919834D01*
X128135542Y-16815450D02*
X128088039Y-16862953D01*
X128192423Y-16779709D02*
X128135542Y-16815450D01*
X128255832Y-16757521D02*
X128192423Y-16779709D01*
X128322589Y-16750000D02*
X128255832Y-16757521D01*
X128722589Y-16750000D02*
X128322589Y-16750000D01*
X128789345Y-16742478D02*
X128722589Y-16750000D01*
X128852754Y-16720290D02*
X128789345Y-16742478D01*
X128909635Y-16684549D02*
X128852754Y-16720290D01*
X128052298Y-15719834D02*
X128030110Y-15783243D01*
X128088039Y-15662953D02*
X128052298Y-15719834D01*
X128135542Y-15615450D02*
X128088039Y-15662953D01*
X128192423Y-15579709D02*
X128135542Y-15615450D01*
X128255832Y-15557521D02*
X128192423Y-15579709D01*
X128322589Y-15550000D02*
X128255832Y-15557521D01*
X128722589Y-15550000D02*
X128322589Y-15550000D01*
X128789345Y-15542478D02*
X128722589Y-15550000D01*
X128852754Y-15520290D02*
X128789345Y-15542478D01*
X128909635Y-15484549D02*
X128852754Y-15520290D01*
X129022589Y-13652411D02*
X129022589Y-15250000D01*
X129025000Y-13650000D02*
X129022589Y-13652411D01*
X129022589Y-15250000D02*
X129015067Y-15316756D01*
X129015067Y-15316756D02*
X128992879Y-15380165D01*
X128992879Y-15380165D02*
X128957138Y-15437046D01*
X128957138Y-15437046D02*
X128909635Y-15484549D01*
X128030110Y-15783243D02*
X128022589Y-15850000D01*
X128022589Y-15850000D02*
X128030110Y-15916756D01*
X128030110Y-15916756D02*
X128052298Y-15980165D01*
X128052298Y-15980165D02*
X128088039Y-16037046D01*
X128088039Y-16037046D02*
X128135542Y-16084549D01*
X128135542Y-16084549D02*
X128192423Y-16120290D01*
X128192423Y-16120290D02*
X128255832Y-16142478D01*
X128255832Y-16142478D02*
X128322589Y-16150000D01*
X128322589Y-16150000D02*
X128722589Y-16150000D01*
X128722589Y-16150000D02*
X128789345Y-16157521D01*
X128789345Y-16157521D02*
X128852754Y-16179709D01*
X128852754Y-16179709D02*
X128909635Y-16215450D01*
X128909635Y-16215450D02*
X128957138Y-16262953D01*
X128957138Y-16262953D02*
X128992879Y-16319834D01*
X128992879Y-16319834D02*
X129015067Y-16383243D01*
X129015067Y-16383243D02*
X129022589Y-16450000D01*
X129022589Y-16450000D02*
X129015067Y-16516756D01*
X129015067Y-16516756D02*
X128992879Y-16580165D01*
X128992879Y-16580165D02*
X128957138Y-16637046D01*
X128957138Y-16637046D02*
X128909635Y-16684549D01*
G04 #@! TO.N,USB+*
X122475000Y-38484620D02*
X122479810Y-38479810D01*
X122475000Y-33843200D02*
X122475000Y-38484620D01*
X129375000Y-13875000D02*
X129375000Y-26943200D01*
X125797589Y-7257209D02*
X125797589Y-6079027D01*
X126020190Y-7479810D02*
X125797589Y-7257209D01*
X130027411Y-13222589D02*
X129375000Y-13875000D01*
X125797589Y-6079027D02*
X126904027Y-4972589D01*
X126904027Y-4972589D02*
X129048375Y-4972589D01*
X129048375Y-4972589D02*
X130027411Y-5951625D01*
X130027411Y-5951625D02*
X130027411Y-13222589D01*
X122475000Y-33843200D02*
X129375000Y-26943200D01*
G04 #@! TO.N,SWDIO*
X148550000Y-55250000D02*
X148700000Y-55100000D01*
X147250000Y-55250000D02*
X148550000Y-55250000D01*
G04 #@! TO.N,~RESET~*
X147250000Y-42500000D02*
X145750000Y-41000000D01*
X147250000Y-50170000D02*
X147250000Y-42500000D01*
D35*
G04 #@! TO.N,3V3A_W5500*
X74225000Y-32125000D02*
X73050000Y-30950000D01*
X64525000Y-32600000D02*
X62425000Y-32600000D01*
X66175000Y-30950000D02*
X64525000Y-32600000D01*
X62425000Y-32600000D02*
X58475000Y-32600000D01*
X58475000Y-32600000D02*
X57775000Y-33300000D01*
X57775000Y-33300000D02*
X56125000Y-33300000D01*
X53425000Y-30600000D02*
X53425000Y-28975000D01*
D36*
X70492158Y-30950000D02*
X70575000Y-30950000D01*
X70325000Y-30782842D02*
X70492158Y-30950000D01*
X70325000Y-30500000D02*
X70325000Y-30782842D01*
D35*
X73050000Y-30950000D02*
X70575000Y-30950000D01*
X70575000Y-30950000D02*
X66175000Y-30950000D01*
D34*
X66150295Y-30950000D02*
X66175000Y-30950000D01*
X65158137Y-30349705D02*
X65550000Y-30349705D01*
X65007842Y-30500000D02*
X65158137Y-30349705D01*
X64725000Y-30500000D02*
X65007842Y-30500000D01*
X65550000Y-30349705D02*
X66150295Y-30950000D01*
X55916958Y-32458042D02*
X55600000Y-32775000D01*
X55916958Y-32069073D02*
X55916958Y-32458042D01*
X56116957Y-31869074D02*
X55916958Y-32069073D01*
D35*
X56125000Y-33300000D02*
X55600000Y-32775000D01*
D34*
X54251608Y-31150000D02*
X53975000Y-31150000D01*
X54933852Y-30467756D02*
X54251608Y-31150000D01*
D35*
X55600000Y-32775000D02*
X53975000Y-31150000D01*
X53975000Y-31150000D02*
X53425000Y-30600000D01*
D33*
X56275000Y-12250000D02*
X55050000Y-12250000D01*
X58475000Y-10050000D02*
X56275000Y-12250000D01*
X54767158Y-12250000D02*
X51700000Y-15317158D01*
X55050000Y-12250000D02*
X54767158Y-12250000D01*
X51700000Y-15317158D02*
X51700000Y-26125000D01*
X53425000Y-27850000D02*
X53425000Y-28975000D01*
X51700000Y-26125000D02*
X53425000Y-27850000D01*
D34*
X65218550Y-30039373D02*
X65218550Y-29756531D01*
X65528882Y-30349705D02*
X65218550Y-30039373D01*
X65550000Y-30349705D02*
X65528882Y-30349705D01*
D33*
X114285880Y-7620370D02*
X114286380Y-7620870D01*
X104174530Y-7620370D02*
X114285880Y-7620370D01*
X114286380Y-14413620D02*
X114286380Y-7620870D01*
X113625000Y-15075000D02*
X114286380Y-14413620D01*
X113625000Y-17925000D02*
X113625000Y-15075000D01*
X112350000Y-19200000D02*
X113625000Y-17925000D01*
X111875000Y-24600000D02*
X112350000Y-24125000D01*
X112350000Y-24125000D02*
X112350000Y-19200000D01*
X108654679Y-25621381D02*
X108954678Y-25921380D01*
X75100000Y-24225000D02*
X107258298Y-24225000D01*
X111875000Y-24600000D02*
X110553620Y-25921380D01*
X107258298Y-24225000D02*
X108654679Y-25621381D01*
X110553620Y-25921380D02*
X109378942Y-25921380D01*
X109378942Y-25921380D02*
X108954678Y-25921380D01*
D30*
G04 #@! TO.N,/Wiznet Ethernet/ACT_LED_R*
X51100000Y-13875000D02*
X54275000Y-10700000D01*
X54275000Y-10700000D02*
X56568562Y-10700000D01*
X115371749Y-4647589D02*
X116120531Y-5396371D01*
X116120531Y-5396371D02*
X116824530Y-6100370D01*
X61827411Y-4647589D02*
X115371749Y-4647589D01*
X61197589Y-5277411D02*
X61827411Y-4647589D01*
X61197589Y-6070973D02*
X61197589Y-5277411D01*
X56568562Y-10700000D02*
X61197589Y-6070973D01*
G04 #@! TO.N,/Wiznet Ethernet/LINK_LED_R*
X104619904Y-5000000D02*
X85498384Y-5000000D01*
X106716380Y-6100870D02*
X105720774Y-6100870D01*
X105720774Y-6100870D02*
X104619904Y-5000000D01*
X85498384Y-5000000D02*
X62175000Y-5000000D01*
X62175000Y-5000000D02*
X61550000Y-5625000D01*
X61550000Y-5625000D02*
X61550000Y-8400000D01*
X61550000Y-8400000D02*
X56525000Y-13425000D01*
X56525000Y-13425000D02*
X56525000Y-13625000D01*
D36*
G04 #@! TO.N,COOL_PUMP_CTRL_2*
X142064138Y-37464138D02*
X149988517Y-37464138D01*
X166002730Y-37039140D02*
X169149989Y-40186399D01*
X169149989Y-40186399D02*
X169149989Y-88436400D01*
X169149989Y-88436400D02*
X175975000Y-95261411D01*
X175975000Y-95261411D02*
X175975000Y-131800000D01*
X175975000Y-131800000D02*
X177175001Y-133000001D01*
X177175001Y-133000001D02*
X177375000Y-133200000D01*
X149988517Y-37464138D02*
X150413519Y-37039140D01*
X150413519Y-37039140D02*
X166002730Y-37039140D01*
X137825000Y-33225000D02*
X142064138Y-37464138D01*
X136625000Y-33225000D02*
X137825000Y-33225000D01*
X136125000Y-33725000D02*
X136625000Y-33225000D01*
G04 #@! TO.N,INVERTER_CTRL*
X142489127Y-37014127D02*
X149802118Y-37014127D01*
X169600000Y-85950000D02*
X176825001Y-93175001D01*
X176825001Y-93175001D02*
X177025000Y-93375000D01*
X169600000Y-39999999D02*
X169600000Y-85950000D01*
X166189130Y-36589129D02*
X169600000Y-39999999D01*
X150227120Y-36589129D02*
X166189130Y-36589129D01*
X149802118Y-37014127D02*
X150227120Y-36589129D01*
X139350000Y-33875000D02*
X142489127Y-37014127D01*
G04 #@! TO.N,COOL_PUMP_CTRL_1*
X165800071Y-37489149D02*
X168699978Y-40389048D01*
X175225000Y-112242158D02*
X175225000Y-112525000D01*
X175225000Y-95147822D02*
X175225000Y-112242158D01*
X168699978Y-88622800D02*
X175225000Y-95147822D01*
X168699978Y-40389048D02*
X168699978Y-88622800D01*
X150599918Y-37489150D02*
X165800071Y-37489149D01*
X150174917Y-37914149D02*
X150599918Y-37489150D01*
X141439149Y-37914149D02*
X150174917Y-37914149D01*
X137275000Y-33750000D02*
X141439149Y-37914149D01*
D30*
G04 #@! TO.N,/Wiznet Ethernet/LINK_LED*
X55774999Y-24899999D02*
X56600001Y-24899999D01*
X55575000Y-24700000D02*
X55774999Y-24899999D01*
X56600001Y-24899999D02*
X57300000Y-24200000D01*
X57300000Y-24200000D02*
X57300000Y-16800000D01*
X57300000Y-16800000D02*
X57825000Y-16275000D01*
G04 #@! TO.N,/Wiznet Ethernet/ACT_LED*
X54700000Y-15625000D02*
X55350000Y-16275000D01*
X55350000Y-16275000D02*
X56225000Y-16275000D01*
X56332842Y-24275000D02*
X56850000Y-23757842D01*
X56050000Y-24275000D02*
X56332842Y-24275000D01*
X56850000Y-16900000D02*
X56225000Y-16275000D01*
X56850000Y-23757842D02*
X56850000Y-16900000D01*
G04 #@! TO.N,NETW_RESET_L*
X106953895Y-38496105D02*
X113138263Y-38496105D01*
X60125000Y-24231464D02*
X63595946Y-27702410D01*
X60125000Y-21375004D02*
X60125000Y-24231464D01*
X113138263Y-38496105D02*
X115492158Y-40850000D01*
X115492158Y-40850000D02*
X115775000Y-40850000D01*
X106425000Y-39025000D02*
X106953895Y-38496105D01*
X95525009Y-39025000D02*
X106425000Y-39025000D01*
X84202419Y-27702410D02*
X95525009Y-39025000D01*
X63595946Y-27702410D02*
X84202419Y-27702410D01*
G04 #@! TO.N,NETW_INT_L*
X78187946Y-27262946D02*
X78175000Y-27250000D01*
X71483385Y-27331011D02*
X71043989Y-27331011D01*
X78187946Y-27262946D02*
X71551450Y-27262946D01*
X71551450Y-27262946D02*
X71483385Y-27331011D01*
X71043989Y-27331011D02*
X70987978Y-27275000D01*
X70987978Y-27275000D02*
X63850000Y-27275000D01*
X63850000Y-27275000D02*
X62150000Y-25575000D01*
X62150000Y-25575000D02*
X62150000Y-24075000D01*
X84261338Y-27262946D02*
X78187946Y-27262946D01*
X95648392Y-38650000D02*
X84261338Y-27262946D01*
X117525000Y-41260002D02*
X116589998Y-40325000D01*
X115650000Y-40325000D02*
X113450000Y-38125000D01*
X113450000Y-38125000D02*
X106825000Y-38125000D01*
X106825000Y-38125000D02*
X106300000Y-38650000D01*
X116589998Y-40325000D02*
X115650000Y-40325000D01*
X106300000Y-38650000D02*
X95648392Y-38650000D01*
G04 #@! TO.N,/Wiznet Ethernet/RSVD1*
X62400489Y-5830105D02*
X62400489Y-5547263D01*
X61649886Y-18138821D02*
X61990356Y-17798351D01*
X61990356Y-6240238D02*
X62400489Y-5830105D01*
X61990356Y-17798351D02*
X61990356Y-6240238D01*
G04 #@! TO.N,/Wiznet Ethernet/RSVD2*
X62342767Y-6410455D02*
X62736686Y-6016536D01*
X62342767Y-18382233D02*
X62342767Y-6410455D01*
X62736686Y-6016536D02*
X62936685Y-5816537D01*
X62075000Y-18650000D02*
X62342767Y-18382233D01*
G04 #@! TO.N,/Wiznet Ethernet/RSVD3*
X63165171Y-6436553D02*
X63365170Y-6236554D01*
X62474382Y-19099453D02*
X62695178Y-18878657D01*
X62695178Y-6906546D02*
X63165171Y-6436553D01*
X62695178Y-18878657D02*
X62695178Y-6906546D01*
G04 #@! TO.N,/Wiznet Ethernet/RSVD4*
X63047589Y-7418424D02*
X63561259Y-6904754D01*
X63561259Y-6904754D02*
X63761258Y-6704755D01*
X63047589Y-19373205D02*
X63047589Y-7418424D01*
X62923790Y-19497004D02*
X63047589Y-19373205D01*
G04 #@! TO.N,/Wiznet Ethernet/RSVD5*
X64350000Y-7125000D02*
X64374992Y-7125000D01*
X63400000Y-19950000D02*
X63400000Y-8075000D01*
X63400000Y-8075000D02*
X64350000Y-7125000D01*
D37*
G04 #@! TO.N,/Wiznet Ethernet/TX_P*
X74634618Y-23475000D02*
X108015380Y-23475000D01*
X108015380Y-23475000D02*
X109570191Y-25029811D01*
X71254808Y-26854810D02*
X74634618Y-23475000D01*
X109570191Y-25029811D02*
X109770190Y-25229810D01*
G04 #@! TO.N,/Wiznet Ethernet/TX_N*
X110088389Y-24770190D02*
X110229810Y-24770190D01*
X108343199Y-23025000D02*
X110088389Y-24770190D01*
D30*
X105943199Y-23025000D02*
X108343199Y-23025000D01*
D37*
X82823738Y-23025000D02*
X105943199Y-23025000D01*
X82175000Y-23025000D02*
X82823738Y-23025000D01*
X82044834Y-22995291D02*
X82108243Y-23017479D01*
X81987953Y-22959550D02*
X82044834Y-22995291D01*
X81940450Y-22912047D02*
X81987953Y-22959550D01*
X81904709Y-22855166D02*
X81940450Y-22912047D01*
X81882521Y-22791757D02*
X81904709Y-22855166D01*
X81875000Y-22725000D02*
X81882521Y-22791757D01*
X81867478Y-22416137D02*
X81875000Y-22482893D01*
X81845290Y-22352728D02*
X81867478Y-22416137D01*
X81809549Y-22295847D02*
X81845290Y-22352728D01*
X81705165Y-22212603D02*
X81762046Y-22248344D01*
X81641756Y-22190415D02*
X81705165Y-22212603D01*
X81575000Y-22182893D02*
X81641756Y-22190415D01*
X79587953Y-22959550D02*
X79644834Y-22995291D01*
X79504709Y-22855166D02*
X79540450Y-22912047D01*
X78705165Y-22995291D02*
X78762046Y-22959550D01*
X80067478Y-22791757D02*
X80075000Y-22725000D01*
X79475000Y-22725000D02*
X79482521Y-22791757D01*
X79467478Y-22416137D02*
X79475000Y-22482893D01*
X79905165Y-22995291D02*
X79962046Y-22959550D01*
X79445290Y-22352728D02*
X79467478Y-22416137D01*
X79708243Y-23017479D02*
X79775000Y-23025000D01*
X79475000Y-22482893D02*
X79475000Y-22725000D01*
X80645290Y-22352728D02*
X80667478Y-22416137D01*
X79409549Y-22295847D02*
X79445290Y-22352728D01*
X78809549Y-22912047D02*
X78845290Y-22855166D01*
X79644834Y-22995291D02*
X79708243Y-23017479D01*
X81875000Y-22482893D02*
X81875000Y-22725000D01*
X78845290Y-22855166D02*
X78867478Y-22791757D01*
X80009549Y-22912047D02*
X80045290Y-22855166D01*
X82108243Y-23017479D02*
X82175000Y-23025000D01*
X79362046Y-22248344D02*
X79409549Y-22295847D01*
X80667478Y-22416137D02*
X80675000Y-22482893D01*
X81275000Y-22482893D02*
X81282521Y-22416137D01*
X79482521Y-22791757D02*
X79504709Y-22855166D01*
X81209549Y-22912047D02*
X81245290Y-22855166D01*
X81508243Y-22190415D02*
X81575000Y-22182893D01*
X79175000Y-22182893D02*
X79241756Y-22190415D01*
X79108243Y-22190415D02*
X79175000Y-22182893D01*
X80104709Y-22352728D02*
X80140450Y-22295847D01*
X79540450Y-22912047D02*
X79587953Y-22959550D01*
X78904709Y-22352728D02*
X78940450Y-22295847D01*
X80682521Y-22791757D02*
X80704709Y-22855166D01*
X79305165Y-22212603D02*
X79362046Y-22248344D01*
X80441756Y-22190415D02*
X80505165Y-22212603D01*
X78575000Y-23025000D02*
X78641756Y-23017479D01*
X79841756Y-23017479D02*
X79905165Y-22995291D01*
X80975000Y-23025000D02*
X81041756Y-23017479D01*
X81041756Y-23017479D02*
X81105165Y-22995291D01*
X78875000Y-22725000D02*
X78875000Y-22482893D01*
X70936609Y-26395190D02*
X74306799Y-23025000D01*
X78762046Y-22959550D02*
X78809549Y-22912047D01*
X81762046Y-22248344D02*
X81809549Y-22295847D01*
X78940450Y-22295847D02*
X78987953Y-22248344D01*
X70795188Y-26395190D02*
X70936609Y-26395190D01*
X80675000Y-22482893D02*
X80675000Y-22725000D01*
X80140450Y-22295847D02*
X80187953Y-22248344D01*
X78867478Y-22791757D02*
X78875000Y-22725000D01*
X78882521Y-22416137D02*
X78904709Y-22352728D01*
X80244834Y-22212603D02*
X80308243Y-22190415D01*
X80675000Y-22725000D02*
X80682521Y-22791757D01*
X79775000Y-23025000D02*
X79841756Y-23017479D01*
X78875000Y-22482893D02*
X78882521Y-22416137D01*
X78987953Y-22248344D02*
X79044834Y-22212603D01*
X79962046Y-22959550D02*
X80009549Y-22912047D01*
X80844834Y-22995291D02*
X80908243Y-23017479D01*
X79241756Y-22190415D02*
X79305165Y-22212603D01*
X80045290Y-22855166D02*
X80067478Y-22791757D01*
X74306799Y-23025000D02*
X78575000Y-23025000D01*
X80075000Y-22725000D02*
X80075000Y-22482893D01*
X81245290Y-22855166D02*
X81267478Y-22791757D01*
X80075000Y-22482893D02*
X80082521Y-22416137D01*
X80082521Y-22416137D02*
X80104709Y-22352728D01*
X80187953Y-22248344D02*
X80244834Y-22212603D01*
X80308243Y-22190415D02*
X80375000Y-22182893D01*
X80375000Y-22182893D02*
X80441756Y-22190415D01*
X80505165Y-22212603D02*
X80562046Y-22248344D01*
X80562046Y-22248344D02*
X80609549Y-22295847D01*
X80609549Y-22295847D02*
X80645290Y-22352728D01*
X80704709Y-22855166D02*
X80740450Y-22912047D01*
X80740450Y-22912047D02*
X80787953Y-22959550D01*
X80787953Y-22959550D02*
X80844834Y-22995291D01*
X80908243Y-23017479D02*
X80975000Y-23025000D01*
X81105165Y-22995291D02*
X81162046Y-22959550D01*
X81282521Y-22416137D02*
X81304709Y-22352728D01*
X79044834Y-22212603D02*
X79108243Y-22190415D01*
X81162046Y-22959550D02*
X81209549Y-22912047D01*
X78641756Y-23017479D02*
X78705165Y-22995291D01*
X81267478Y-22791757D02*
X81275000Y-22725000D01*
X81275000Y-22725000D02*
X81275000Y-22482893D01*
X81304709Y-22352728D02*
X81340450Y-22295847D01*
X81340450Y-22295847D02*
X81387953Y-22248344D01*
X81387953Y-22248344D02*
X81444834Y-22212603D01*
X81444834Y-22212603D02*
X81508243Y-22190415D01*
G04 #@! TO.N,/Wiznet Ethernet/RX_P*
X60825000Y-23924998D02*
X60825000Y-23456800D01*
X60725000Y-24024998D02*
X60825000Y-23924998D01*
X63281800Y-21000000D02*
X85200000Y-21000000D01*
X85200000Y-21000000D02*
X85300000Y-20900000D01*
X60825000Y-23456800D02*
X63281800Y-21000000D01*
G04 #@! TO.N,/Wiznet Ethernet/RX_N*
X61375000Y-24024998D02*
X61275000Y-23924998D01*
X61275000Y-23924998D02*
X61275000Y-23643200D01*
X61275000Y-23643200D02*
X63468200Y-21450000D01*
X63468200Y-21450000D02*
X85200000Y-21450000D01*
X85200000Y-21450000D02*
X85300000Y-21550000D01*
D30*
G04 #@! TO.N,Net-(R701-Pad2)*
X113299999Y-142075001D02*
X113299999Y-142050001D01*
X113100000Y-142275000D02*
X113299999Y-142075001D01*
X113299999Y-142050001D02*
X113625000Y-141725000D01*
X113625000Y-141725000D02*
X113625000Y-140600000D01*
X113625000Y-140600000D02*
X111875000Y-138850000D01*
X109425000Y-138850000D02*
X108500000Y-137925000D01*
X111875000Y-138850000D02*
X109425000Y-138850000D01*
G04 #@! TO.N,Net-(R701-Pad1)*
X112750000Y-113750000D02*
X112750000Y-114032842D01*
X111950000Y-114832842D02*
X111950000Y-131500000D01*
X111950000Y-131500000D02*
X110025000Y-133425000D01*
X110025000Y-133425000D02*
X110025000Y-134425000D01*
X109200000Y-135250000D02*
X108500000Y-135250000D01*
X112750000Y-114032842D02*
X111950000Y-114832842D01*
X110025000Y-134425000D02*
X109200000Y-135250000D01*
X114250000Y-115250000D02*
X112750000Y-113750000D01*
X124125000Y-115550000D02*
X123825000Y-115250000D01*
X124125000Y-116125000D02*
X124125000Y-115550000D01*
X123400000Y-117800000D02*
X123400000Y-116850000D01*
X123400000Y-116850000D02*
X124125000Y-116125000D01*
X114250000Y-115250000D02*
X114300000Y-115250000D01*
X123825000Y-115250000D02*
X123125000Y-115250000D01*
X123125000Y-115250000D02*
X123025000Y-115350000D01*
X114350000Y-115350000D02*
X114250000Y-115250000D01*
X123025000Y-115350000D02*
X114350000Y-115350000D01*
G04 #@! TO.N,LP12V_VSense*
X56529822Y-47712719D02*
X56529822Y-52983486D01*
X56975000Y-47267541D02*
X56529822Y-47712719D01*
X62696517Y-59050327D02*
X62979359Y-59050327D01*
X62596663Y-59050327D02*
X62696517Y-59050327D01*
X56529822Y-52983486D02*
X62596663Y-59050327D01*
G04 #@! TO.N,LP5V_VSense*
X57224999Y-53171767D02*
X62503970Y-58450738D01*
X62503970Y-58450738D02*
X62719049Y-58450738D01*
X57224999Y-52967540D02*
X57224999Y-53171767D01*
X57025000Y-52767541D02*
X57224999Y-52967540D01*
X62719049Y-58450738D02*
X63001891Y-58450738D01*
G04 #@! TO.N,LP24V_VSense*
X56177411Y-42590130D02*
X56177411Y-53131075D01*
X62696674Y-59650338D02*
X62979516Y-59650338D01*
X57000000Y-41767541D02*
X56177411Y-42590130D01*
X56177411Y-53131075D02*
X62696674Y-59650338D01*
G04 #@! TO.N,HP12V_VSense*
X57000000Y-36267541D02*
X55825000Y-37442541D01*
X62717138Y-60250000D02*
X62999980Y-60250000D01*
X55825000Y-37442541D02*
X55825000Y-53357862D01*
X55825000Y-53357862D02*
X62717138Y-60250000D01*
G04 #@! TO.N,LPBatt_Current*
X87163261Y-55761739D02*
X79307842Y-55761739D01*
X79307842Y-55761739D02*
X79025000Y-55761739D01*
X90250000Y-52675000D02*
X87163261Y-55761739D01*
X90250000Y-48804333D02*
X90250000Y-52675000D01*
X89318436Y-47872769D02*
X90250000Y-48804333D01*
G04 #@! TO.N,HPBatt_Current*
X72625000Y-102507842D02*
X72575000Y-102557842D01*
X72625000Y-102225000D02*
X72625000Y-102507842D01*
X72575000Y-102557842D02*
X72575000Y-135600000D01*
X72575000Y-135600000D02*
X74150000Y-137175000D01*
X74150000Y-137175000D02*
X74150000Y-137225000D01*
X64320178Y-77170178D02*
X63825001Y-76675001D01*
X63825001Y-76675001D02*
X63825001Y-63499999D01*
X63825001Y-63499999D02*
X64400000Y-62925000D01*
X64400000Y-62925000D02*
X64400000Y-57700000D01*
X64400000Y-57700000D02*
X64250000Y-57550000D01*
X64250000Y-57550000D02*
X62600000Y-57550000D01*
X62600000Y-57550000D02*
X62075000Y-57025000D01*
X62075000Y-57025000D02*
X62075000Y-56400000D01*
X62075000Y-56400000D02*
X62425000Y-56050000D01*
X62425000Y-56050000D02*
X62775000Y-56050000D01*
X90875000Y-48650000D02*
X90149999Y-47924999D01*
X90149999Y-47924999D02*
X89950000Y-47725000D01*
X90875000Y-52600000D02*
X90875000Y-48650000D01*
X87225000Y-56250000D02*
X90875000Y-52600000D01*
X62975000Y-56250000D02*
X87225000Y-56250000D01*
X62775000Y-56050000D02*
X62975000Y-56250000D01*
X69441946Y-77170178D02*
X64320178Y-77170178D01*
X72004820Y-79733052D02*
X69441946Y-77170178D01*
X72004820Y-100329820D02*
X72004820Y-79733052D01*
X72700000Y-101025000D02*
X72004820Y-100329820D01*
G04 #@! TO.N,Nodes_Current*
X119000000Y-28450000D02*
X113550000Y-28450000D01*
X119562053Y-27887947D02*
X119000000Y-28450000D01*
X119562054Y-23579866D02*
X119562053Y-27887947D01*
X123437051Y-19704869D02*
X119562054Y-23579866D01*
X123437050Y-9270132D02*
X123437051Y-19704869D01*
X120837055Y-6670135D02*
X123437050Y-9270132D01*
X120837055Y-5854865D02*
X120837055Y-6670135D01*
X123704865Y-2987055D02*
X120837055Y-5854865D01*
X133495135Y-2987055D02*
X123704865Y-2987055D01*
X131450000Y-25175000D02*
X131450000Y-23400000D01*
X131450000Y-23400000D02*
X132200000Y-22650000D01*
X132200000Y-22650000D02*
X141075000Y-22650000D01*
X141075000Y-22650000D02*
X141837945Y-21887055D01*
X141837945Y-21887055D02*
X141837945Y-11329865D01*
X141837945Y-11329865D02*
X133495135Y-2987055D01*
G04 #@! TO.N,LP5V_Output_Current*
X119779822Y-7108054D02*
X122379820Y-9708054D01*
X122379821Y-19266947D02*
X118504822Y-23141946D01*
X142895178Y-28370178D02*
X142895178Y-10891946D01*
X142895178Y-10891946D02*
X133933054Y-1929822D01*
X119779822Y-5416946D02*
X119779822Y-7108054D01*
X122379820Y-9708054D02*
X122379821Y-19266947D01*
X133933054Y-1929822D02*
X123266946Y-1929822D01*
X123266946Y-1929822D02*
X119779822Y-5416946D01*
X117425589Y-27595385D02*
X117425589Y-27878227D01*
X118504822Y-26516152D02*
X117425589Y-27595385D01*
X118504822Y-23141946D02*
X118504822Y-26516152D01*
X142895178Y-28370178D02*
X142895178Y-34770178D01*
X142895178Y-34770178D02*
X143925000Y-35800000D01*
X143925000Y-35800000D02*
X146025000Y-35800000D01*
X146025000Y-35800000D02*
X146350000Y-35475000D01*
X149907842Y-40050000D02*
X149625000Y-40050000D01*
X151204026Y-38947590D02*
X150101616Y-40050000D01*
X151625000Y-75100000D02*
X160125000Y-75100000D01*
X150101616Y-40050000D02*
X149907842Y-40050000D01*
X160125000Y-75100000D02*
X166050000Y-69175000D01*
X165195969Y-38947589D02*
X151204026Y-38947590D01*
X166050000Y-69175000D02*
X166050000Y-57135626D01*
X166050000Y-57135626D02*
X167241534Y-55944092D01*
X167241534Y-55944092D02*
X167241533Y-40993153D01*
X167241533Y-40993153D02*
X165195969Y-38947589D01*
G04 #@! TO.N,CoolingP1_Current*
X118024990Y-27851157D02*
X118857233Y-27018914D01*
X123412919Y-2282233D02*
X133787081Y-2282233D01*
X142542767Y-11037919D02*
X142542767Y-35042767D01*
X118857233Y-27018914D02*
X118857233Y-23287919D01*
X133787081Y-2282233D02*
X142542767Y-11037919D01*
X122732231Y-19412921D02*
X122732230Y-9562080D01*
X120132233Y-5562919D02*
X123412919Y-2282233D01*
X142542767Y-35042767D02*
X143750000Y-36250000D01*
X146550000Y-36250000D02*
X146748425Y-36051575D01*
X122732230Y-9562080D02*
X120132233Y-6962081D01*
X120132233Y-6962081D02*
X120132233Y-5562919D01*
X143750000Y-36250000D02*
X146550000Y-36250000D01*
X118857233Y-23287919D02*
X122732231Y-19412921D01*
X146748425Y-36051575D02*
X146948424Y-35851576D01*
X149107231Y-38667769D02*
X148848423Y-38926577D01*
X150487079Y-38667769D02*
X149107231Y-38667769D01*
X165487913Y-38242769D02*
X150912078Y-38242770D01*
X150250000Y-112925000D02*
X167946356Y-95228644D01*
X167946356Y-95228644D02*
X167946355Y-40701207D01*
X150912078Y-38242770D02*
X150487079Y-38667769D01*
X148848423Y-38926577D02*
X148648424Y-39126576D01*
X167946355Y-40701207D02*
X165487913Y-38242769D01*
G04 #@! TO.N,CoolingP2_Current*
X133641108Y-2634644D02*
X123558892Y-2634644D01*
X123084641Y-19558895D02*
X119209644Y-23433892D01*
X142190356Y-11183892D02*
X133641108Y-2634644D01*
X123558892Y-2634644D02*
X120484644Y-5708892D01*
X123084640Y-9416106D02*
X123084641Y-19558895D01*
X119209644Y-23433892D02*
X119209643Y-27390357D01*
X120484644Y-5708892D02*
X120484644Y-6816108D01*
X119209643Y-27390357D02*
X118924999Y-27675001D01*
X120484644Y-6816108D02*
X123084640Y-9416106D01*
X118924999Y-27675001D02*
X118725000Y-27875000D01*
X142190356Y-30940356D02*
X142190356Y-30850000D01*
X142190356Y-30850000D02*
X142190356Y-11183892D01*
X142190356Y-30850000D02*
X142190356Y-35365356D01*
X147236530Y-36539680D02*
X147436529Y-36339681D01*
X147173799Y-36602411D02*
X147236530Y-36539680D01*
X143427411Y-36602411D02*
X147173799Y-36602411D01*
X142190356Y-35365356D02*
X143427411Y-36602411D01*
X168873767Y-113951233D02*
X168873767Y-89363987D01*
X168873767Y-89363987D02*
X168298765Y-88788985D01*
X150766104Y-37890360D02*
X150341106Y-38315358D01*
X168298765Y-40555233D02*
X165633885Y-37890359D01*
X148385923Y-38464077D02*
X148185924Y-38664076D01*
X148534641Y-38315359D02*
X148385923Y-38464077D01*
X150341106Y-38315358D02*
X148534641Y-38315359D01*
X165633885Y-37890359D02*
X150766104Y-37890360D01*
X168298765Y-88788985D02*
X168298765Y-40555233D01*
X151250000Y-131575000D02*
X168873767Y-113951233D01*
G04 #@! TO.N,LP12V_Output_Current*
X112325079Y-28253010D02*
X113153089Y-27425000D01*
X112325079Y-28535852D02*
X112325079Y-28253010D01*
X113153089Y-27425000D02*
X116350000Y-27425000D01*
X116350000Y-27425000D02*
X117800000Y-25975000D01*
X117800000Y-25975000D02*
X117800000Y-22850000D01*
X117800000Y-22850000D02*
X121675000Y-18975000D01*
X121675000Y-18975000D02*
X121675000Y-10000000D01*
X121675000Y-10000000D02*
X119075000Y-7400000D01*
X119075000Y-7400000D02*
X119075000Y-5125000D01*
X119075000Y-5125000D02*
X122975000Y-1225000D01*
X122975000Y-1225000D02*
X134225000Y-1225000D01*
X134225000Y-1225000D02*
X143600000Y-10600000D01*
X143600000Y-10600000D02*
X143600000Y-27150000D01*
X143600000Y-27150000D02*
X143600000Y-34000000D01*
X143600000Y-34000000D02*
X144450000Y-34850000D01*
X144450000Y-34850000D02*
X145550000Y-34850000D01*
X151350000Y-39300000D02*
X150100000Y-40550000D01*
X165049996Y-39300000D02*
X151350000Y-39300000D01*
X166889123Y-41139127D02*
X165049996Y-39300000D01*
X166889123Y-45401879D02*
X166889123Y-41139127D01*
X159966002Y-52325000D02*
X166889123Y-45401879D01*
X151600000Y-52325000D02*
X159966002Y-52325000D01*
G04 #@! TO.N,Inverter12V_Current*
X113213779Y-27875000D02*
X112924998Y-28163781D01*
X116398384Y-27875000D02*
X113213779Y-27875000D01*
X118152411Y-26120973D02*
X116398384Y-27875000D01*
X118152411Y-22995973D02*
X118152411Y-26120973D01*
X122027411Y-19120973D02*
X118152411Y-22995973D01*
X122027410Y-9854026D02*
X122027411Y-19120973D01*
X119427411Y-7254027D02*
X122027410Y-9854026D01*
X119427411Y-5270973D02*
X119427411Y-7254027D01*
X123120973Y-1577411D02*
X119427411Y-5270973D01*
X145775000Y-35375000D02*
X144275000Y-35375000D01*
X112924998Y-28163781D02*
X112924998Y-28446623D01*
X146350000Y-34800000D02*
X145775000Y-35375000D01*
X144275000Y-35375000D02*
X143247589Y-34347589D01*
X143247589Y-34347589D02*
X143247589Y-10745973D01*
X143247589Y-10745973D02*
X134079027Y-1577411D01*
X134079027Y-1577411D02*
X123120973Y-1577411D01*
X167593945Y-40847181D02*
X165341941Y-38595179D01*
X149754144Y-39020179D02*
X149372966Y-39401357D01*
X150550000Y-93906832D02*
X167593945Y-76862887D01*
X150633054Y-39020178D02*
X149754144Y-39020179D01*
X149372966Y-39401357D02*
X149172967Y-39601356D01*
X165341941Y-38595179D02*
X151058052Y-38595180D01*
X151058052Y-38595180D02*
X150633054Y-39020178D01*
X167593945Y-76862887D02*
X167593945Y-40847181D01*
X150550000Y-95550000D02*
X150550000Y-93906832D01*
G04 #@! TO.N,NETW_CS*
X95267025Y-39763784D02*
X106952949Y-39763784D01*
X106952949Y-39763784D02*
X107235791Y-39763784D01*
X83930652Y-28427411D02*
X95267025Y-39763784D01*
X63324178Y-28427410D02*
X83930652Y-28427411D01*
X59026210Y-24129442D02*
X63324178Y-28427410D01*
X59026210Y-22999998D02*
X59026210Y-24129442D01*
G04 #@! TO.N,NETW_MISO*
X95379036Y-39377411D02*
X84076625Y-28075000D01*
X63470152Y-28075000D02*
X59575000Y-24179848D01*
X107300396Y-39154926D02*
X106793458Y-39154926D01*
X58891222Y-22098069D02*
X58691223Y-21898070D01*
X59575000Y-24179848D02*
X59575000Y-22781847D01*
X59575000Y-22781847D02*
X58891222Y-22098069D01*
X106570973Y-39377411D02*
X95379036Y-39377411D01*
X84076625Y-28075000D02*
X63470152Y-28075000D01*
X106793458Y-39154926D02*
X106570973Y-39377411D01*
G04 #@! TO.N,NETW_MOSI*
X57775000Y-21650000D02*
X58023466Y-21401534D01*
X57775000Y-23875000D02*
X57775000Y-21650000D01*
X83612009Y-29132231D02*
X63032230Y-29132230D01*
X58023466Y-21401534D02*
X58745228Y-21401534D01*
X106776537Y-40475000D02*
X94954778Y-40475000D01*
X63032230Y-29132230D02*
X57775000Y-23875000D01*
X107321687Y-41020150D02*
X106776537Y-40475000D01*
X94954778Y-40475000D02*
X83612009Y-29132231D01*
X58745228Y-21401534D02*
X59028070Y-21401534D01*
G04 #@! TO.N,NETW_SCLK*
X63178204Y-28779820D02*
X58303198Y-23904814D01*
X58303198Y-23904814D02*
X58303198Y-22638570D01*
X107224921Y-40425000D02*
X106922510Y-40122589D01*
X107400000Y-40425000D02*
X107224921Y-40425000D01*
X58303198Y-22638570D02*
X58303198Y-22355728D01*
X83757983Y-28779821D02*
X63178204Y-28779820D01*
X95100751Y-40122589D02*
X83757983Y-28779821D01*
X106922510Y-40122589D02*
X95100751Y-40122589D01*
G04 #@! TO.N,+5V*
X105200000Y-78250000D02*
X106950000Y-80000000D01*
X121625000Y-80000000D02*
X125750000Y-75875000D01*
X106950000Y-80000000D02*
X121625000Y-80000000D01*
D31*
X109250000Y-55225000D02*
X108050000Y-55225000D01*
X108050000Y-55225000D02*
X108050000Y-55150000D01*
X108050000Y-55150000D02*
X106925000Y-54025000D01*
D32*
X97200000Y-53975000D02*
X93625000Y-57550000D01*
X91668600Y-57550000D02*
X90493600Y-56375000D01*
X93625000Y-57550000D02*
X91668600Y-57550000D01*
D34*
X90250000Y-56131400D02*
X90493600Y-56375000D01*
D32*
X93625000Y-57550000D02*
X91750000Y-57550000D01*
D35*
X128000000Y-24980000D02*
X128000000Y-26250000D01*
D33*
X76250000Y-36225000D02*
X84625000Y-36225000D01*
X84625000Y-36225000D02*
X88715234Y-40315234D01*
X88715234Y-40315234D02*
X88715234Y-49690234D01*
X89125001Y-50100001D02*
X89425000Y-50400000D01*
X88715234Y-49690234D02*
X89125001Y-50100001D01*
D30*
X108500000Y-57950000D02*
X108500000Y-57425000D01*
X109725000Y-56200000D02*
X110225000Y-56200000D01*
X108500000Y-57425000D02*
X109725000Y-56200000D01*
D31*
X110225000Y-56200000D02*
X109250000Y-55225000D01*
D32*
X106925000Y-54025000D02*
X106925000Y-48325000D01*
D31*
X116475000Y-32525000D02*
X120500000Y-28500000D01*
X105550000Y-32525000D02*
X116475000Y-32525000D01*
X120500000Y-28500000D02*
X120500000Y-24000000D01*
X120500000Y-24000000D02*
X121500000Y-23000000D01*
D32*
X74300000Y-89675000D02*
X78100000Y-89675000D01*
X81900000Y-89675000D02*
X78100000Y-89675000D01*
X89450000Y-89675000D02*
X89500000Y-89625000D01*
X85700000Y-89675000D02*
X89450000Y-89675000D01*
X125750000Y-76071674D02*
X125750000Y-75875000D01*
X114471674Y-87350000D02*
X125750000Y-76071674D01*
X93325000Y-89625000D02*
X95600000Y-87350000D01*
X95600000Y-87350000D02*
X114471674Y-87350000D01*
D31*
X112925000Y-56200000D02*
X110225000Y-56200000D01*
X125775000Y-69050000D02*
X112925000Y-56200000D01*
X125775000Y-75142894D02*
X125775000Y-69050000D01*
X125750000Y-75875000D02*
X125750000Y-75167894D01*
X125750000Y-75167894D02*
X125775000Y-75142894D01*
D33*
X99434808Y-30852051D02*
X99010544Y-30852051D01*
X94750000Y-25000000D02*
X94750000Y-26591507D01*
X103877051Y-30852051D02*
X99434808Y-30852051D01*
X105550000Y-32525000D02*
X103877051Y-30852051D01*
X98710545Y-30552052D02*
X99010544Y-30852051D01*
X94750000Y-26591507D02*
X98710545Y-30552052D01*
D35*
X128000000Y-24272894D02*
X128000000Y-24980000D01*
X121500000Y-23000000D02*
X126727106Y-23000000D01*
X126727106Y-23000000D02*
X128000000Y-24272894D01*
D31*
X124403199Y-20096801D02*
X124403199Y-8528199D01*
X121500000Y-23000000D02*
X124403199Y-20096801D01*
X124403199Y-8528199D02*
X122964999Y-7089999D01*
X122964999Y-7089999D02*
X122964999Y-5835001D01*
X122964999Y-5835001D02*
X124800000Y-4000000D01*
X124800000Y-4000000D02*
X132750000Y-4000000D01*
X105550000Y-37149998D02*
X105499998Y-37200000D01*
X105550000Y-32525000D02*
X105550000Y-37149998D01*
D30*
X61400000Y-43025000D02*
X61400000Y-40925000D01*
X62075000Y-43700000D02*
X61400000Y-43025000D01*
X62100000Y-43700000D02*
X62075000Y-43700000D01*
X62100000Y-48000000D02*
X62100000Y-43700000D01*
X61400000Y-40925000D02*
X62100000Y-40225000D01*
X64175000Y-50000000D02*
X64100000Y-50000000D01*
X75000000Y-39025000D02*
X75200000Y-39225000D01*
X64100000Y-50000000D02*
X62100000Y-48000000D01*
X62100000Y-40225000D02*
X62100000Y-39575000D01*
X62100000Y-39575000D02*
X62650000Y-39025000D01*
X62650000Y-39025000D02*
X75000000Y-39025000D01*
D31*
X102418967Y-52381033D02*
X101999999Y-52800001D01*
X105281033Y-52381033D02*
X102418967Y-52381033D01*
X106925000Y-54025000D02*
X105281033Y-52381033D01*
D32*
X99675000Y-49000000D02*
X99675000Y-52725000D01*
X99675000Y-52725000D02*
X99499999Y-52900001D01*
D31*
X97200000Y-53975000D02*
X98425000Y-53975000D01*
D32*
X99499999Y-52900001D02*
X99200000Y-53200000D01*
D31*
X99300000Y-53100000D02*
X99200000Y-53200000D01*
X98900001Y-53499999D02*
X99200000Y-53200000D01*
X101700000Y-53100000D02*
X99300000Y-53100000D01*
X98425000Y-53975000D02*
X98900001Y-53499999D01*
X101999999Y-52800001D02*
X101700000Y-53100000D01*
X131250000Y-19000000D02*
X131250000Y-18000000D01*
X136500000Y-12750000D02*
X136500000Y-7750000D01*
X131250000Y-18000000D02*
X136500000Y-12750000D01*
X132750000Y-4000000D02*
X136500000Y-7750000D01*
D36*
G04 #@! TO.N,/SAMD21uC/ADC_Sensors/5V_FILT*
X89600014Y-42382842D02*
X89600014Y-42100000D01*
X89600014Y-44915014D02*
X89600014Y-42382842D01*
X92460000Y-47775000D02*
X89600014Y-44915014D01*
D30*
G04 #@! TO.N,Net-(J1001-Pad1)*
X93325000Y-94705000D02*
X92322600Y-94705000D01*
X93497589Y-70527411D02*
X94397589Y-69627411D01*
X93497589Y-75304027D02*
X93497589Y-70527411D01*
X88897590Y-79904026D02*
X93497589Y-75304027D01*
X91197587Y-88920971D02*
X88897589Y-86620973D01*
X94397589Y-69627411D02*
X94397589Y-67595973D01*
X94397589Y-67595973D02*
X93047589Y-66245973D01*
X93047589Y-66245973D02*
X93047590Y-62554026D01*
X93047590Y-62554026D02*
X95539561Y-60062055D01*
X95539561Y-60062055D02*
X98412055Y-60062055D01*
X104817158Y-59875000D02*
X105100000Y-59875000D01*
X104651802Y-59709644D02*
X104817158Y-59875000D01*
X101515356Y-59709644D02*
X104651802Y-59709644D01*
X100300000Y-60925000D02*
X101515356Y-59709644D01*
X99275000Y-60925000D02*
X100300000Y-60925000D01*
X98412055Y-60062055D02*
X99275000Y-60925000D01*
X88897589Y-86620973D02*
X88897590Y-79904026D01*
X91197587Y-93579987D02*
X91197587Y-88920971D01*
X92322600Y-94705000D02*
X91197587Y-93579987D01*
G04 #@! TO.N,/SAMD21uC/ADC_Sensors/VREF_EN*
X101300000Y-31450000D02*
X98550000Y-31450000D01*
X98550000Y-31450000D02*
X95061731Y-27961731D01*
X102675000Y-32825000D02*
X101300000Y-31450000D01*
X95061731Y-27961731D02*
X94861732Y-27761732D01*
G04 #@! TO.N,Net-(J1000-Pad2)*
X93275001Y-69249999D02*
X93475000Y-69050000D01*
X88423799Y-91088799D02*
X84763799Y-91088799D01*
X89500000Y-92165000D02*
X88423799Y-91088799D01*
X84084644Y-90409644D02*
X84084644Y-83720204D01*
X84763799Y-91088799D02*
X84084644Y-90409644D01*
X92709644Y-69815356D02*
X93275001Y-69249999D01*
X92709644Y-75095204D02*
X92709644Y-69815356D01*
X84084644Y-83720204D02*
X92709644Y-75095204D01*
G04 #@! TO.N,Net-(J1000-Pad1)*
X99775001Y-60100001D02*
X99975000Y-60300000D01*
X99384644Y-59709644D02*
X99775001Y-60100001D01*
X95393588Y-59709644D02*
X99384644Y-59709644D01*
X92695180Y-62408052D02*
X95393588Y-59709644D01*
X92695179Y-66391945D02*
X92695180Y-62408052D01*
X94045178Y-67741946D02*
X92695179Y-66391945D01*
X94045178Y-69179822D02*
X94045178Y-67741946D01*
X93075000Y-70150000D02*
X94045178Y-69179822D01*
X93075000Y-75228232D02*
X93075000Y-70150000D01*
X88545180Y-79758052D02*
X93075000Y-75228232D01*
X88545179Y-86766945D02*
X88545180Y-79758052D01*
X90845176Y-89066944D02*
X88545179Y-86766945D01*
X90845176Y-94362224D02*
X90845176Y-89066944D01*
X90502400Y-94705000D02*
X90845176Y-94362224D01*
X89500000Y-94705000D02*
X90502400Y-94705000D01*
G04 #@! TO.N,Net-(J1001-Pad2)*
X114500000Y-61625000D02*
X114500000Y-62425000D01*
X113775000Y-60900000D02*
X114500000Y-61625000D01*
X107500000Y-60900000D02*
X113775000Y-60900000D01*
X107000000Y-60400000D02*
X107500000Y-60900000D01*
X104350000Y-60400000D02*
X107000000Y-60400000D01*
X104050000Y-60100000D02*
X104350000Y-60400000D01*
X101675000Y-60100000D02*
X104050000Y-60100000D01*
X100475000Y-61300000D02*
X101675000Y-60100000D01*
X94800000Y-61300000D02*
X100475000Y-61300000D01*
X93400000Y-62700000D02*
X94800000Y-61300000D01*
X93400000Y-66100000D02*
X93400000Y-62700000D01*
X94750000Y-67450000D02*
X93400000Y-66100000D01*
X94750000Y-70100000D02*
X94750000Y-67450000D01*
X93850000Y-71000000D02*
X94750000Y-70100000D01*
X93850000Y-75450000D02*
X93850000Y-71000000D01*
X89250000Y-80050000D02*
X93850000Y-75450000D01*
X89250000Y-86475000D02*
X89250000Y-80050000D01*
X91550000Y-88775000D02*
X89250000Y-86475000D01*
X91550000Y-91592081D02*
X91550000Y-88775000D01*
X92122919Y-92165000D02*
X91550000Y-91592081D01*
X93325000Y-92165000D02*
X92122919Y-92165000D01*
G04 #@! TO.N,Net-(R1100-Pad2)*
X99725000Y-80575000D02*
X96025000Y-76875000D01*
X96025000Y-76875000D02*
X96025000Y-69850000D01*
X96025000Y-69850000D02*
X97800000Y-68075000D01*
X97800000Y-68075000D02*
X105800000Y-68075000D01*
X105800000Y-68075000D02*
X107225000Y-66650000D01*
X107225000Y-66650000D02*
X110250000Y-66650000D01*
X110250000Y-66650000D02*
X111425000Y-67825000D01*
X111425000Y-67825000D02*
X112375000Y-67825000D01*
X112375000Y-67825000D02*
X112650000Y-68100000D01*
X112650000Y-68100000D02*
X112650000Y-69350000D01*
G04 #@! TO.N,Net-(R16-Pad1)*
X123550000Y-115750000D02*
X123575000Y-115775000D01*
X115250000Y-115750000D02*
X123550000Y-115750000D01*
X112700000Y-118300000D02*
X115250000Y-115750000D01*
X112700000Y-131850000D02*
X112700000Y-118300000D01*
X111500000Y-135300000D02*
X111500000Y-133050000D01*
X111500000Y-133050000D02*
X112700000Y-131850000D01*
G04 #@! TO.N,Net-(R14-Pad1)*
X112325000Y-115475000D02*
X112325000Y-131650000D01*
X113000000Y-114800000D02*
X112325000Y-115475000D01*
X112325000Y-131650000D02*
X110475000Y-133500000D01*
X110475000Y-133500000D02*
X110475000Y-134775000D01*
X110475000Y-134775000D02*
X109400000Y-135850000D01*
X105532842Y-135225000D02*
X105557842Y-135250000D01*
X105250000Y-135225000D02*
X105532842Y-135225000D01*
X107350000Y-135250000D02*
X107950000Y-135850000D01*
X105557842Y-135250000D02*
X107350000Y-135250000D01*
X109400000Y-135850000D02*
X107950000Y-135850000D01*
G04 #@! TO.N,Net-(R14-Pad2)*
X105650000Y-138350000D02*
X105250000Y-137950000D01*
X108275000Y-138350000D02*
X105650000Y-138350000D01*
X109150000Y-139225000D02*
X108275000Y-138350000D01*
X111725000Y-139225000D02*
X109150000Y-139225000D01*
X113050000Y-141275000D02*
X113050000Y-140550000D01*
X113050000Y-140550000D02*
X111725000Y-139225000D01*
G04 #@! TO.N,Net-(R16-Pad2)*
X115775000Y-143275000D02*
X123550000Y-143275000D01*
X114075000Y-141575000D02*
X115775000Y-143275000D01*
X114075000Y-140475000D02*
X114075000Y-141575000D01*
X111849999Y-138249999D02*
X114075000Y-140475000D01*
X111500000Y-138050000D02*
X111699999Y-138249999D01*
X111699999Y-138249999D02*
X111849999Y-138249999D01*
G04 #@! TO.N,/SAMD21uC/EXT_SPI_CS0*
X125925000Y-24175000D02*
X126730000Y-24980000D01*
X125200000Y-24175000D02*
X125925000Y-24175000D01*
X124876388Y-23851388D02*
X125200000Y-24175000D01*
X122248612Y-23851388D02*
X124876388Y-23851388D01*
X121575000Y-24525000D02*
X122248612Y-23851388D01*
X121575000Y-29250000D02*
X121575000Y-24525000D01*
X118300000Y-32525000D02*
X121575000Y-29250000D01*
X118300000Y-36975000D02*
X118300000Y-32525000D01*
X118050000Y-37225000D02*
X118300000Y-36975000D01*
X118050000Y-43425000D02*
X118050000Y-37225000D01*
X117700000Y-45557842D02*
X117407842Y-45850000D01*
X117700000Y-45275000D02*
X117700000Y-45557842D01*
X117407842Y-45850000D02*
X116750000Y-45850000D01*
X116750000Y-45850000D02*
X116475000Y-45575000D01*
X116475000Y-45575000D02*
X116475000Y-45000000D01*
X116475000Y-45000000D02*
X118050000Y-43425000D01*
G04 #@! TO.N,/SAMD21uC/EXT_SPI_CS1*
X118652411Y-32820973D02*
X121927411Y-29545973D01*
X124960001Y-24480001D02*
X125460000Y-24980000D01*
X121927411Y-24823811D02*
X122547423Y-24203799D01*
X124683799Y-24203799D02*
X124960001Y-24480001D01*
X118402411Y-37370973D02*
X118652411Y-37120973D01*
X122547423Y-24203799D02*
X124683799Y-24203799D01*
X117000000Y-45250000D02*
X118402411Y-43847589D01*
X118402411Y-43847589D02*
X118402411Y-37370973D01*
X118652411Y-37120973D02*
X118652411Y-32820973D01*
X121927411Y-29545973D02*
X121927411Y-24823811D01*
G04 #@! TO.N,/SAMD21uC/EXT_SPI_SDI*
X119722584Y-33274184D02*
X126230001Y-26766767D01*
X119722584Y-38246098D02*
X119722584Y-33274184D01*
X126230001Y-26766767D02*
X126230001Y-26749999D01*
X126230001Y-26749999D02*
X126730000Y-26250000D01*
G04 #@! TO.N,/SAMD21uC/EXT_SPI_SDO*
X119107233Y-38358849D02*
X119107233Y-37891151D01*
X119107233Y-37891151D02*
X119357233Y-37641151D01*
X119357233Y-33141151D02*
X125460000Y-27038384D01*
X125460000Y-27038384D02*
X125460000Y-26957106D01*
X125460000Y-26957106D02*
X125460000Y-26250000D01*
X119498384Y-38750000D02*
X119107233Y-38358849D01*
X120322580Y-38250536D02*
X120322580Y-38533378D01*
X120105958Y-38750000D02*
X119498384Y-38750000D01*
X119357233Y-37641151D02*
X119357233Y-33141151D01*
X120322580Y-38533378D02*
X120105958Y-38750000D01*
G04 #@! TO.N,/SAMD21uC/EXT_SPI_SCLK*
X121000000Y-38532842D02*
X120282842Y-39250000D01*
X118754822Y-37516946D02*
X119004822Y-37266946D01*
X119004822Y-37266946D02*
X119004822Y-32995178D01*
X124190000Y-27810000D02*
X124190000Y-26957106D01*
X124190000Y-26957106D02*
X124190000Y-26250000D01*
X118754822Y-38504822D02*
X118754822Y-37516946D01*
X119500000Y-39250000D02*
X118754822Y-38504822D01*
X121000000Y-38250000D02*
X121000000Y-38532842D01*
X119004822Y-32995178D02*
X124190000Y-27810000D01*
X120282842Y-39250000D02*
X119500000Y-39250000D01*
D37*
G04 #@! TO.N,/Power Outputs/NAP_PoE/RX+*
X94545392Y-13135007D02*
X95354991Y-13944606D01*
X93943205Y-13135007D02*
X94545392Y-13135007D01*
X89458243Y-12842479D02*
X89525000Y-12850000D01*
X89232521Y-12616757D02*
X89254709Y-12680166D01*
X95354991Y-13944606D02*
X95354991Y-14546792D01*
X89225000Y-12550000D02*
X89232521Y-12616757D01*
X89254709Y-12680166D02*
X89290450Y-12737047D01*
X89217478Y-12150419D02*
X89225000Y-12217175D01*
X89195290Y-12087010D02*
X89217478Y-12150419D01*
X89225000Y-12217175D02*
X89225000Y-12550000D01*
X89159549Y-12030129D02*
X89195290Y-12087010D01*
X88991756Y-11924697D02*
X89055165Y-11946885D01*
X88858243Y-11924697D02*
X88925000Y-11917175D01*
X88794834Y-11946885D02*
X88858243Y-11924697D01*
X88654709Y-12087010D02*
X88690450Y-12030129D01*
X88625000Y-12217175D02*
X88632521Y-12150419D01*
X88625000Y-12550000D02*
X88625000Y-12217175D01*
X89394834Y-12820291D02*
X89458243Y-12842479D01*
X88595290Y-12680166D02*
X88617478Y-12616757D01*
X88559549Y-12737047D02*
X88595290Y-12680166D01*
X88512046Y-12784550D02*
X88559549Y-12737047D01*
X88737953Y-11982626D02*
X88794834Y-11946885D01*
X87417478Y-12616757D02*
X87425000Y-12550000D01*
X87312046Y-12784550D02*
X87359549Y-12737047D01*
X87425000Y-12550000D02*
X87425000Y-12217175D01*
X88455165Y-12820291D02*
X88512046Y-12784550D01*
X87432521Y-12150419D02*
X87454709Y-12087010D01*
X88690450Y-12030129D02*
X88737953Y-11982626D01*
X88017478Y-12150419D02*
X88025000Y-12217175D01*
X87395290Y-12680166D02*
X87417478Y-12616757D01*
X87359549Y-12737047D02*
X87395290Y-12680166D01*
X87537953Y-11982626D02*
X87594834Y-11946885D01*
X87255165Y-12820291D02*
X87312046Y-12784550D01*
X78214999Y-15044999D02*
X83586801Y-15044999D01*
X77804999Y-14634999D02*
X78214999Y-15044999D01*
X87490450Y-12030129D02*
X87537953Y-11982626D01*
X95443198Y-14634999D02*
X96394999Y-14634999D01*
X87959549Y-12030129D02*
X87995290Y-12087010D01*
X83586801Y-15044999D02*
X85781800Y-12850000D01*
X87855165Y-11946885D02*
X87912046Y-11982626D01*
X95354991Y-14546792D02*
X95443198Y-14634999D01*
X88617478Y-12616757D02*
X88625000Y-12550000D01*
X87454709Y-12087010D02*
X87490450Y-12030129D01*
X87425000Y-12217175D02*
X87432521Y-12150419D01*
X93658199Y-12850000D02*
X93943205Y-13135007D01*
X85781800Y-12850000D02*
X87125000Y-12850000D01*
X87791756Y-11924697D02*
X87855165Y-11946885D01*
X88632521Y-12150419D02*
X88654709Y-12087010D01*
X87125000Y-12850000D02*
X87191756Y-12842479D01*
X87995290Y-12087010D02*
X88017478Y-12150419D01*
X89290450Y-12737047D02*
X89337953Y-12784550D01*
X88325000Y-12850000D02*
X88391756Y-12842479D01*
X87594834Y-11946885D02*
X87658243Y-11924697D01*
X89525000Y-12850000D02*
X93658199Y-12850000D01*
X87658243Y-11924697D02*
X87725000Y-11917175D01*
X87912046Y-11982626D02*
X87959549Y-12030129D01*
X88090450Y-12737047D02*
X88137953Y-12784550D01*
X89337953Y-12784550D02*
X89394834Y-12820291D01*
X88025000Y-12217175D02*
X88025000Y-12550000D01*
X88025000Y-12550000D02*
X88032521Y-12616757D01*
X89055165Y-11946885D02*
X89112046Y-11982626D01*
X88258243Y-12842479D02*
X88325000Y-12850000D01*
X87725000Y-11917175D02*
X87791756Y-11924697D01*
X88054709Y-12680166D02*
X88090450Y-12737047D01*
X88925000Y-11917175D02*
X88991756Y-11924697D01*
X88137953Y-12784550D02*
X88194834Y-12820291D01*
X89112046Y-11982626D02*
X89159549Y-12030129D01*
X88032521Y-12616757D02*
X88054709Y-12680166D01*
X88194834Y-12820291D02*
X88258243Y-12842479D01*
X87191756Y-12842479D02*
X87255165Y-12820291D01*
X88391756Y-12842479D02*
X88455165Y-12820291D01*
G04 #@! TO.N,/Power Outputs/NAP_PoE/RX-*
X95124999Y-14953198D02*
X94905000Y-14733199D01*
X95124999Y-17174999D02*
X95124999Y-14953198D01*
X94905000Y-14733199D02*
X94905000Y-14130998D01*
X94905000Y-14130998D02*
X94359000Y-13584998D01*
X94359000Y-13584998D02*
X93756799Y-13584998D01*
X93756799Y-13584998D02*
X93471801Y-13300000D01*
X78985001Y-15494999D02*
X83773201Y-15494999D01*
X78705000Y-15775000D02*
X78985001Y-15494999D01*
X76534999Y-17174999D02*
X77934998Y-15775000D01*
X77934998Y-15775000D02*
X78705000Y-15775000D01*
X93471801Y-13300000D02*
X85968200Y-13300000D01*
X85968200Y-13300000D02*
X83773201Y-15494999D01*
G04 #@! TO.N,/Power Outputs/NAP_PoE/TX+*
X93105000Y-15384998D02*
X93854999Y-14634999D01*
X75264999Y-17459001D02*
X76030998Y-18225000D01*
X75264999Y-14634999D02*
X75264999Y-17459001D01*
X76030998Y-18225000D02*
X82806800Y-18225000D01*
X82806800Y-18225000D02*
X85346800Y-15685000D01*
X85346800Y-15685000D02*
X92804998Y-15685000D01*
X92804998Y-15685000D02*
X93105000Y-15384998D01*
G04 #@! TO.N,/Power Outputs/NAP_PoE/TX-*
X88995000Y-16125000D02*
X90044999Y-17174999D01*
X88009002Y-16125000D02*
X88995000Y-16125000D01*
X82993200Y-18675000D02*
X85543200Y-16125000D01*
X85543200Y-16125000D02*
X87000996Y-16125000D01*
X81025000Y-18675000D02*
X82993200Y-18675000D01*
X80837953Y-18740450D02*
X80894834Y-18704709D01*
X80790450Y-18787953D02*
X80837953Y-18740450D01*
X80725000Y-19197564D02*
X80725000Y-18975000D01*
X87000998Y-16124998D02*
X88009000Y-16124998D01*
X80958243Y-18682521D02*
X81025000Y-18675000D01*
X80717478Y-19264320D02*
X80725000Y-19197564D01*
X80659549Y-19384610D02*
X80695290Y-19327729D01*
X80555165Y-19467854D02*
X80612046Y-19432113D01*
X80491756Y-19490042D02*
X80555165Y-19467854D01*
X80358243Y-19490042D02*
X80425000Y-19497564D01*
X80294834Y-19467854D02*
X80358243Y-19490042D01*
X80237953Y-19432113D02*
X80294834Y-19467854D01*
X80132521Y-19264320D02*
X80154709Y-19327729D01*
X80125000Y-18975000D02*
X80125000Y-19197564D01*
X80154709Y-19327729D02*
X80190450Y-19384610D01*
X80012046Y-18740450D02*
X80059549Y-18787953D01*
X79891756Y-18682521D02*
X79955165Y-18704709D01*
X79825000Y-18675000D02*
X79891756Y-18682521D01*
X79758243Y-18682521D02*
X79825000Y-18675000D01*
X78925000Y-19197564D02*
X78932521Y-19264320D01*
X78859549Y-18787953D02*
X78895290Y-18844834D01*
X79525000Y-19197564D02*
X79525000Y-18975000D01*
X80095290Y-18844834D02*
X80117478Y-18908243D01*
X79532521Y-18908243D02*
X79554709Y-18844834D01*
X78755165Y-18704709D02*
X78812046Y-18740450D01*
X72449999Y-17174999D02*
X72700000Y-17425000D01*
X87000996Y-16125000D02*
X87000998Y-16124998D01*
X78691756Y-18682521D02*
X78755165Y-18704709D01*
X78954709Y-19327729D02*
X78990450Y-19384610D01*
X80190450Y-19384610D02*
X80237953Y-19432113D01*
X79955165Y-18704709D02*
X80012046Y-18740450D01*
X79459549Y-19384610D02*
X79495290Y-19327729D01*
X71454999Y-17174999D02*
X72449999Y-17174999D01*
X78917478Y-18908243D02*
X78925000Y-18975000D01*
X80425000Y-19497564D02*
X80491756Y-19490042D01*
X80125000Y-19197564D02*
X80132521Y-19264320D01*
X78895290Y-18844834D02*
X78917478Y-18908243D01*
X80725000Y-18975000D02*
X80732521Y-18908243D01*
X79291756Y-19490042D02*
X79355165Y-19467854D01*
X78925000Y-18975000D02*
X78925000Y-19197564D01*
X80612046Y-19432113D02*
X80659549Y-19384610D01*
X79225000Y-19497564D02*
X79291756Y-19490042D01*
X73075000Y-18250000D02*
X75490298Y-18250000D01*
X75915298Y-18675000D02*
X78625000Y-18675000D01*
X72700000Y-17875000D02*
X73075000Y-18250000D01*
X88009000Y-16124998D02*
X88009002Y-16125000D01*
X79412046Y-19432113D02*
X79459549Y-19384610D01*
X80059549Y-18787953D02*
X80095290Y-18844834D01*
X79355165Y-19467854D02*
X79412046Y-19432113D01*
X78932521Y-19264320D02*
X78954709Y-19327729D01*
X80894834Y-18704709D02*
X80958243Y-18682521D01*
X78812046Y-18740450D02*
X78859549Y-18787953D01*
X78990450Y-19384610D02*
X79037953Y-19432113D01*
X79037953Y-19432113D02*
X79094834Y-19467854D01*
X75490298Y-18250000D02*
X75915298Y-18675000D01*
X79525000Y-18975000D02*
X79532521Y-18908243D01*
X80117478Y-18908243D02*
X80125000Y-18975000D01*
X79094834Y-19467854D02*
X79158243Y-19490042D01*
X80732521Y-18908243D02*
X80754709Y-18844834D01*
X79158243Y-19490042D02*
X79225000Y-19497564D01*
X79590450Y-18787953D02*
X79637953Y-18740450D01*
X79495290Y-19327729D02*
X79517478Y-19264320D01*
X80754709Y-18844834D02*
X80790450Y-18787953D01*
X72700000Y-17425000D02*
X72700000Y-17875000D01*
X79517478Y-19264320D02*
X79525000Y-19197564D01*
X80695290Y-19327729D02*
X80717478Y-19264320D01*
X78625000Y-18675000D02*
X78691756Y-18682521D01*
X79554709Y-18844834D02*
X79590450Y-18787953D01*
X79637953Y-18740450D02*
X79694834Y-18704709D01*
X79694834Y-18704709D02*
X79758243Y-18682521D01*
D36*
G04 #@! TO.N,Net-(C21-Pad1)*
X135232842Y-63525000D02*
X135750000Y-63007842D01*
X134950000Y-63525000D02*
X135232842Y-63525000D01*
X135750000Y-63007842D02*
X135750000Y-62425000D01*
X135750000Y-62425000D02*
X135450000Y-62125000D01*
X135450000Y-62125000D02*
X130350000Y-62125000D01*
D30*
X130350000Y-62125000D02*
X125975000Y-57750000D01*
X125975000Y-52407842D02*
X125975000Y-52125000D01*
X125975000Y-57750000D02*
X125975000Y-52407842D01*
G04 #@! TO.N,/SAMD21uC/AIN_0*
X82661312Y-83150000D02*
X91285538Y-74525774D01*
X91285538Y-74525774D02*
X91285540Y-61824158D01*
X91285540Y-61824158D02*
X94809697Y-58300001D01*
X72821393Y-91938474D02*
X72821393Y-88101991D01*
X73097919Y-92215000D02*
X72821393Y-91938474D01*
X74300000Y-92215000D02*
X73097919Y-92215000D01*
X94809697Y-58300001D02*
X106970153Y-58300001D01*
X106970153Y-58300001D02*
X107720152Y-59050000D01*
X107720152Y-59050000D02*
X112067158Y-59050000D01*
X112067158Y-59050000D02*
X112350000Y-59050000D01*
X72821393Y-88101991D02*
X73598384Y-87325000D01*
X73598384Y-87325000D02*
X80825000Y-87325000D01*
X80825000Y-87325000D02*
X82661312Y-85488688D01*
X82661312Y-85488688D02*
X82661312Y-83150000D01*
G04 #@! TO.N,/SAMD21uC/AIN_1*
X118675000Y-56017610D02*
X118670519Y-56022091D01*
X118675000Y-55600000D02*
X118675000Y-56017610D01*
X118470520Y-55395520D02*
X118675000Y-55600000D01*
X118470520Y-49504480D02*
X118470520Y-55395520D01*
X119625000Y-47750000D02*
X119625000Y-48350000D01*
X119625000Y-48350000D02*
X118470520Y-49504480D01*
X91637950Y-61970132D02*
X94955670Y-58652412D01*
X94955670Y-58652412D02*
X106824180Y-58652412D01*
X106824180Y-58652412D02*
X107999179Y-59827411D01*
X107999179Y-59827411D02*
X112347589Y-59827411D01*
X112900001Y-59274999D02*
X113100000Y-59075000D01*
X112347589Y-59827411D02*
X112900001Y-59274999D01*
X91637948Y-74671748D02*
X91637950Y-61970132D01*
X83027410Y-83282286D02*
X91637948Y-74671748D01*
X83027410Y-85620974D02*
X83027410Y-83282286D01*
X80970974Y-87677410D02*
X83027410Y-85620974D01*
X73744357Y-87677411D02*
X80970974Y-87677410D01*
X73173799Y-88247969D02*
X73744357Y-87677411D01*
X73173799Y-90745961D02*
X73173799Y-88247969D01*
X73402838Y-90975000D02*
X73173799Y-90745961D01*
X76860000Y-90975000D02*
X73402838Y-90975000D01*
X78100000Y-92215000D02*
X76860000Y-90975000D01*
G04 #@! TO.N,/SAMD21uC/AIN_2*
X91990360Y-62116104D02*
X95101641Y-59004823D01*
X95101641Y-59004823D02*
X106678207Y-59004823D01*
X91990359Y-74817721D02*
X91990360Y-62116104D01*
X107853206Y-60179822D02*
X112870178Y-60179822D01*
X106678207Y-59004823D02*
X107853206Y-60179822D01*
X83379823Y-83428257D02*
X91990359Y-74817721D01*
X81900000Y-92215000D02*
X83379822Y-90735178D01*
X112870178Y-60179822D02*
X113300001Y-59749999D01*
X83379822Y-90735178D02*
X83379823Y-83428257D01*
X113300001Y-59749999D02*
X113500000Y-59550000D01*
X119650000Y-55500000D02*
X119650000Y-56773790D01*
X123025000Y-47625000D02*
X121250000Y-49400000D01*
X123025000Y-47500000D02*
X123025000Y-47625000D01*
X121250000Y-49400000D02*
X119850000Y-49400000D01*
X119850000Y-49400000D02*
X119200000Y-50050000D01*
X119200000Y-50050000D02*
X119200000Y-55050000D01*
X119200000Y-55050000D02*
X119650000Y-55500000D01*
G04 #@! TO.N,/SAMD21uC/AIN_3*
X92342770Y-74963694D02*
X92342770Y-62262078D01*
X113925001Y-60174999D02*
X114125000Y-59975000D01*
X113567767Y-60532233D02*
X113925001Y-60174999D01*
X107707233Y-60532233D02*
X113567767Y-60532233D01*
X106532233Y-59357233D02*
X107707233Y-60532233D01*
X95247615Y-59357233D02*
X106532233Y-59357233D01*
X92342770Y-62262078D02*
X95247615Y-59357233D01*
X83732233Y-83574231D02*
X92342770Y-74963694D01*
X83732233Y-91449314D02*
X83732233Y-83574231D01*
X84497919Y-92215000D02*
X83732233Y-91449314D01*
X85700000Y-92215000D02*
X84497919Y-92215000D01*
X119173790Y-56065948D02*
X119173790Y-56348790D01*
X122175000Y-47900000D02*
X121075000Y-49000000D01*
X119173790Y-55522174D02*
X119173790Y-56065948D01*
X122175000Y-47425000D02*
X122175000Y-47900000D01*
X121075000Y-49000000D02*
X119576616Y-49000000D01*
X119576616Y-49000000D02*
X118847589Y-49729027D01*
X118847589Y-49729027D02*
X118847590Y-55195974D01*
X118847590Y-55195974D02*
X119173790Y-55522174D01*
D36*
G04 #@! TO.N,Net-(R12-Pad2)*
X135000000Y-62850000D02*
X127750000Y-62850000D01*
X127750000Y-62850000D02*
X127025000Y-63575000D01*
D30*
G04 #@! TO.N,HP12V_EN*
X121700000Y-49725000D02*
X121700000Y-50525000D01*
X123625000Y-47800000D02*
X121700000Y-49725000D01*
X123625000Y-47025000D02*
X123625000Y-47800000D01*
X123300000Y-46700000D02*
X123625000Y-47025000D01*
X121025000Y-47675000D02*
X122000000Y-46700000D01*
X122000000Y-46700000D02*
X123300000Y-46700000D01*
X121700000Y-50525000D02*
X121700000Y-50575000D01*
X121700000Y-50575000D02*
X121300000Y-50975000D01*
X121300000Y-50975000D02*
X121075000Y-50975000D01*
X121075000Y-50975000D02*
X120625000Y-51425000D01*
X120625000Y-51425000D02*
X120625000Y-52250000D01*
X120625000Y-52250000D02*
X120225000Y-52650000D01*
X120225000Y-52650000D02*
X120225000Y-54500000D01*
X120225000Y-54500000D02*
X125075000Y-59350000D01*
X125075000Y-59350000D02*
X125075000Y-62025000D01*
X125075000Y-62025000D02*
X126225000Y-63175000D01*
X126225000Y-63175000D02*
X126225000Y-63325000D01*
X122200000Y-81425000D02*
X122000001Y-81624999D01*
X122000001Y-81624999D02*
X115675000Y-87950000D01*
X115675000Y-87950000D02*
X115675000Y-89325000D01*
X115675000Y-89325000D02*
X115225000Y-89775000D01*
X115225000Y-89775000D02*
X115225000Y-110675000D01*
X115225000Y-110675000D02*
X112950000Y-112950000D01*
X112950000Y-112950000D02*
X112425000Y-112950000D01*
X112425000Y-112950000D02*
X111575000Y-113800000D01*
X111575000Y-113800000D02*
X111575000Y-118725000D01*
X111575000Y-118725000D02*
X110050000Y-120250000D01*
X110050000Y-120250000D02*
X110050000Y-121450000D01*
X110050000Y-121450000D02*
X111375000Y-122775000D01*
X111375000Y-122775000D02*
X111375000Y-131175000D01*
X111375000Y-131175000D02*
X110775000Y-131775000D01*
G04 #@! TO.N,LP24V_EN*
X117450000Y-43125000D02*
X97125000Y-43125000D01*
G04 #@! TO.N,LP5V_EN*
X120175000Y-56150000D02*
X120950000Y-56925000D01*
X120950001Y-50274999D02*
X120375001Y-50274999D01*
X121150000Y-50075000D02*
X120950001Y-50274999D01*
X120375001Y-50274999D02*
X119600000Y-51050000D01*
X119600000Y-51050000D02*
X119600000Y-54675000D01*
X119600000Y-54675000D02*
X120175000Y-55250000D01*
X120175000Y-55250000D02*
X120175000Y-56150000D01*
G04 #@! TO.N,ADC_S0_BUS*
X90900000Y-42200000D02*
X90900000Y-43195152D01*
X93842767Y-48359925D02*
X93900000Y-48417158D01*
X93842767Y-46137919D02*
X93842767Y-48359925D01*
X93900000Y-48417158D02*
X93900000Y-48700000D01*
X90900000Y-43195152D02*
X93842767Y-46137919D01*
G04 #@! TO.N,ADC_S1_BUS*
X94195178Y-45991946D02*
X91488359Y-43285127D01*
X94385548Y-48017372D02*
X94195178Y-47827002D01*
X91488359Y-42600517D02*
X91488359Y-42317675D01*
X94195178Y-47827002D02*
X94195178Y-45991946D01*
X94385548Y-48300214D02*
X94385548Y-48017372D01*
X91488359Y-43285127D02*
X91488359Y-42600517D01*
G04 #@! TO.N,ADC_S2_BUS*
X92096771Y-43395155D02*
X92096771Y-42645120D01*
X92096771Y-42645120D02*
X92096771Y-42362278D01*
X94547589Y-45845973D02*
X92096771Y-43395155D01*
X94985494Y-48083878D02*
X94547589Y-47645973D01*
X94985494Y-48291297D02*
X94985494Y-48083878D01*
X94547589Y-47645973D02*
X94547589Y-45845973D01*
G04 #@! TO.N,ADC_S3_BUS*
X92700000Y-42441917D02*
X92692438Y-42434355D01*
X92700000Y-43500000D02*
X92700000Y-42441917D01*
X94900000Y-45700000D02*
X92700000Y-43500000D01*
X95600000Y-48200000D02*
X94900000Y-47500000D01*
X94900000Y-47500000D02*
X94900000Y-45700000D01*
G04 #@! TD*
M02*
