G04 #@! TF.FileFunction,Copper,L1,Top,Signal*
%FSLAX46Y46*%
G04 Gerber Fmt 4.6, Leading zero omitted, Abs format (unit mm)*
G04 Created by KiCad (PCBNEW 4.0.1-stable) date Wednesday, August 10, 2016 'PMt' 07:00:37 PM*
%MOMM*%
G01*
G04 APERTURE LIST*
%ADD10C,0.100000*%
%ADD11R,1.727200X2.032000*%
%ADD12O,1.727200X2.032000*%
%ADD13R,0.700000X1.300000*%
%ADD14R,1.000000X1.250000*%
%ADD15R,1.250000X1.000000*%
%ADD16R,0.450000X1.450000*%
%ADD17R,2.032000X2.032000*%
%ADD18O,2.032000X2.032000*%
%ADD19C,6.400000*%
%ADD20C,0.685800*%
%ADD21C,0.254000*%
G04 APERTURE END LIST*
D10*
D11*
X207010000Y-111506000D03*
D12*
X209550000Y-111506000D03*
X212090000Y-111506000D03*
X214630000Y-111506000D03*
D13*
X198054000Y-112776000D03*
X196154000Y-112776000D03*
D14*
X196120000Y-98044000D03*
X198120000Y-98044000D03*
D15*
X206502000Y-102330000D03*
X206502000Y-100330000D03*
D16*
X196129000Y-107500000D03*
X196779000Y-107500000D03*
X197429000Y-107500000D03*
X198079000Y-107500000D03*
X198079000Y-101600000D03*
X197429000Y-101600000D03*
X196779000Y-101600000D03*
X196129000Y-101600000D03*
D15*
X206502000Y-107410000D03*
X206502000Y-105410000D03*
X209804000Y-104870000D03*
X209804000Y-102870000D03*
D14*
X203422000Y-98044000D03*
X201422000Y-98044000D03*
X203184000Y-109474000D03*
X201184000Y-109474000D03*
D17*
X218440000Y-102616000D03*
D18*
X218440000Y-105156000D03*
D13*
X211582000Y-99314000D03*
X209682000Y-99314000D03*
X214630000Y-105156000D03*
X212730000Y-105156000D03*
X214818000Y-102616000D03*
X212918000Y-102616000D03*
X203200000Y-112776000D03*
X201300000Y-112776000D03*
D19*
X224536000Y-106172000D03*
X190246000Y-106172000D03*
D16*
X203159000Y-101686000D03*
X202509000Y-101686000D03*
X201859000Y-101686000D03*
X201209000Y-101686000D03*
X201209000Y-106086000D03*
X201859000Y-106086000D03*
X202509000Y-106086000D03*
X203159000Y-106086000D03*
D20*
X199644000Y-108458000D03*
X199644000Y-98044000D03*
X208026000Y-99568000D03*
X205486000Y-98806000D03*
X202438000Y-103378000D03*
X204724000Y-107696000D03*
X202184000Y-110998000D03*
D21*
X201184000Y-109474000D02*
X200660000Y-109474000D01*
X200660000Y-109474000D02*
X199644000Y-108458000D01*
X198079000Y-107500000D02*
X198686000Y-107500000D01*
X198686000Y-107500000D02*
X199644000Y-108458000D01*
X201422000Y-98044000D02*
X199644000Y-98044000D01*
X198120000Y-98044000D02*
X199644000Y-98044000D01*
X206502000Y-100330000D02*
X207264000Y-100330000D01*
X207264000Y-100330000D02*
X208026000Y-99568000D01*
X209682000Y-99314000D02*
X208280000Y-99314000D01*
X208280000Y-99314000D02*
X208026000Y-99568000D01*
X206502000Y-100330000D02*
X206502000Y-99822000D01*
X206502000Y-99822000D02*
X205486000Y-98806000D01*
X203422000Y-98044000D02*
X204724000Y-98044000D01*
X204724000Y-98044000D02*
X205486000Y-98806000D01*
X202509000Y-101686000D02*
X202509000Y-103307000D01*
X202509000Y-103307000D02*
X202438000Y-103378000D01*
X202509000Y-101686000D02*
X201859000Y-101686000D01*
X206502000Y-107410000D02*
X205010000Y-107410000D01*
X205010000Y-107410000D02*
X204724000Y-107696000D01*
X201184000Y-109474000D02*
X201184000Y-109998000D01*
X201184000Y-109998000D02*
X202184000Y-110998000D01*
X203200000Y-112776000D02*
X203200000Y-112014000D01*
X203200000Y-112014000D02*
X202184000Y-110998000D01*
X201859000Y-101686000D02*
X201859000Y-98481000D01*
X201859000Y-98481000D02*
X201422000Y-98044000D01*
X206502000Y-105410000D02*
X206377000Y-105410000D01*
X206377000Y-105410000D02*
X205701000Y-106086000D01*
X205701000Y-106086000D02*
X203638000Y-106086000D01*
X203638000Y-106086000D02*
X203159000Y-106086000D01*
X209804000Y-104870000D02*
X207042000Y-104870000D01*
X207042000Y-104870000D02*
X206502000Y-105410000D01*
X212730000Y-105156000D02*
X210090000Y-105156000D01*
X210090000Y-105156000D02*
X209804000Y-104870000D01*
X206470000Y-102330000D02*
X205826000Y-101686000D01*
X205826000Y-101686000D02*
X203159000Y-101686000D01*
X206502000Y-102330000D02*
X206470000Y-102330000D01*
X209804000Y-102870000D02*
X207042000Y-102870000D01*
X207042000Y-102870000D02*
X206502000Y-102330000D01*
X212918000Y-102616000D02*
X210058000Y-102616000D01*
X210058000Y-102616000D02*
X209804000Y-102870000D01*
X196154000Y-112776000D02*
X196154000Y-113076000D01*
X196154000Y-113076000D02*
X196783401Y-113705401D01*
X210042999Y-113705401D02*
X212090000Y-111658400D01*
X196783401Y-113705401D02*
X210042999Y-113705401D01*
X212090000Y-111658400D02*
X212090000Y-111506000D01*
X196129000Y-107500000D02*
X196129000Y-112751000D01*
X196129000Y-112751000D02*
X196154000Y-112776000D01*
X198054000Y-112776000D02*
X198658000Y-112776000D01*
X198658000Y-112776000D02*
X201300000Y-112776000D01*
X196779000Y-110419000D02*
X198054000Y-111694000D01*
X198054000Y-111694000D02*
X198054000Y-112776000D01*
X196779000Y-107500000D02*
X196779000Y-110419000D01*
X207010000Y-111506000D02*
X207010000Y-111353600D01*
X207010000Y-111353600D02*
X205130400Y-109474000D01*
X205130400Y-109474000D02*
X203938000Y-109474000D01*
X203938000Y-109474000D02*
X203184000Y-109474000D01*
X201563922Y-103632000D02*
X197182000Y-103632000D01*
X197182000Y-103632000D02*
X196129000Y-102579000D01*
X196129000Y-102579000D02*
X196129000Y-101600000D01*
X202509000Y-106086000D02*
X202509000Y-104577078D01*
X202509000Y-104577078D02*
X201563922Y-103632000D01*
X196129000Y-101600000D02*
X196129000Y-98053000D01*
X196129000Y-98053000D02*
X196120000Y-98044000D01*
X202509000Y-106086000D02*
X202509000Y-108799000D01*
X202509000Y-108799000D02*
X203184000Y-109474000D01*
X214818000Y-102616000D02*
X214818000Y-102316000D01*
X214818000Y-102316000D02*
X211816000Y-99314000D01*
X211816000Y-99314000D02*
X211582000Y-99314000D01*
X218440000Y-102616000D02*
X214818000Y-102616000D01*
X218440000Y-105156000D02*
X214630000Y-105156000D01*
X201209000Y-106086000D02*
X197864000Y-106086000D01*
X197864000Y-106086000D02*
X197429000Y-106521000D01*
X197429000Y-106521000D02*
X197429000Y-107500000D01*
X201859000Y-106086000D02*
X201209000Y-106086000D01*
M02*
