  0
SECTION
  2
HEADER
  9
$ANGBASE
  50
0.0
  9
$ANGDIR
  70
  1
  9
$MEASUREMENT
  70
0
  0
ENDSEC
  0
SECTION
  2
TABLES
  0
TABLE
  2
LTYPE
  70
1
  0
LTYPE
  2
CONTINUOUS
  70
0
  3
Solid line
  72
65
  73
0
  40
0.0
  0
ENDTAB
  0
TABLE
  2
STYLE
  70
4
  0
STYLE
  2
KICAD
  70
0
  40
0
  41
1
  42
1
  50
0
  71
0
  3
isocp.shx
  0
STYLE
  2
KICADB
  70
0
  40
0
  41
1
  42
1
  50
0
  71
0
  3
isocp.shx
  0
STYLE
  2
KICADI
  70
0
  40
0
  41
1
  42
1
  50
15
  71
0
  3
isocp.shx
  0
STYLE
  2
KICADBI
  70
0
  40
0
  41
1
  42
1
  50
15
  71
0
  3
isocp.shx
  0
ENDTAB
  0
TABLE
  2
LAYER
  70
30
  0
LAYER
  2
BLACK
  70
0
  62
7
  6
CONTINUOUS
  0
LAYER
  2
GRAY1
  70
0
  62
251
  6
CONTINUOUS
  0
LAYER
  2
GRAY2
  70
0
  62
8
  6
CONTINUOUS
  0
LAYER
  2
GRAY3
  70
0
  62
9
  6
CONTINUOUS
  0
LAYER
  2
WHITE
  70
0
  62
7
  6
CONTINUOUS
  0
LAYER
  2
LYELLOW
  70
0
  62
51
  6
CONTINUOUS
  0
LAYER
  2
BLUE1
  70
0
  62
178
  6
CONTINUOUS
  0
LAYER
  2
GREEN1
  70
0
  62
98
  6
CONTINUOUS
  0
LAYER
  2
CYAN1
  70
0
  62
138
  6
CONTINUOUS
  0
LAYER
  2
RED1
  70
0
  62
18
  6
CONTINUOUS
  0
LAYER
  2
MAGENTA1
  70
0
  62
228
  6
CONTINUOUS
  0
LAYER
  2
BROWN1
  70
0
  62
58
  6
CONTINUOUS
  0
LAYER
  2
BLUE2
  70
0
  62
5
  6
CONTINUOUS
  0
LAYER
  2
GREEN2
  70
0
  62
3
  6
CONTINUOUS
  0
LAYER
  2
CYAN2
  70
0
  62
4
  6
CONTINUOUS
  0
LAYER
  2
RED2
  70
0
  62
1
  6
CONTINUOUS
  0
LAYER
  2
MAGENTA2
  70
0
  62
6
  6
CONTINUOUS
  0
LAYER
  2
BROWN2
  70
0
  62
54
  6
CONTINUOUS
  0
LAYER
  2
BLUE3
  70
0
  62
171
  6
CONTINUOUS
  0
LAYER
  2
GREEN3
  70
0
  62
91
  6
CONTINUOUS
  0
LAYER
  2
CYAN3
  70
0
  62
131
  6
CONTINUOUS
  0
LAYER
  2
RED3
  70
0
  62
11
  6
CONTINUOUS
  0
LAYER
  2
MAGENTA3
  70
0
  62
221
  6
CONTINUOUS
  0
LAYER
  2
YELLOW3
  70
0
  62
2
  6
CONTINUOUS
  0
LAYER
  2
BLUE4
  70
0
  62
5
  6
CONTINUOUS
  0
LAYER
  2
GREEN4
  70
0
  62
3
  6
CONTINUOUS
  0
LAYER
  2
CYAN4
  70
0
  62
4
  6
CONTINUOUS
  0
LAYER
  2
RED4
  70
0
  62
1
  6
CONTINUOUS
  0
LAYER
  2
MAGENTA4
  70
0
  62
6
  6
CONTINUOUS
  0
LAYER
  2
YELLOW4
  70
0
  62
2
  6
CONTINUOUS
  0
ENDTAB
  0
ENDSEC
  0
SECTION
  2
ENTITIES
0
LINE
8
Black
10
17.7792
20
-210.312
11
17.7792
21
-15.2654
0
LINE
8
Black
10
17.6792
20
-210.312
11
17.6792
21
-15.2654
0
ARC
8
Black
10
17.7292
20
-15.2654
40
0.05
50
360
51
540
0
ARC
8
Black
10
17.7292
20
-210.312
40
0.05
50
180
51
360
0
LINE
8
Black
10
17.7292
20
-210.362
11
214.173
21
-210.362
0
LINE
8
Black
10
17.7292
20
-210.262
11
214.173
21
-210.262
0
ARC
8
Black
10
214.173
20
-210.312
40
0.05
50
270
51
450
0
ARC
8
Black
10
17.7292
20
-210.312
40
0.05
50
90
51
270
0
LINE
8
Black
10
214.223
20
-210.312
11
214.223
21
-15.24
0
LINE
8
Black
10
214.123
20
-210.312
11
214.123
21
-15.24
0
ARC
8
Black
10
214.173
20
-15.24
40
0.05
50
360
51
540
0
ARC
8
Black
10
214.173
20
-210.312
40
0.05
50
180
51
360
0
LINE
8
Black
10
17.7292
20
-15.29
11
214.173
21
-15.29
0
LINE
8
Black
10
17.7292
20
-15.19
11
214.173
21
-15.19
0
ARC
8
Black
10
214.173
20
-15.24
40
0.05
50
270
51
450
0
ARC
8
Black
10
17.7292
20
-15.24
40
0.05
50
90
51
270
0
LINE
8
Black
10
154.906
20
-204.176
11
155.806
21
-205.076
0
LINE
8
Black
10
155.806
20
-204.176
11
154.906
21
-205.076
0
LINE
8
Black
10
159.306
20
-204.176
11
160.206
21
-205.076
0
LINE
8
Black
10
160.206
20
-204.176
11
159.306
21
-205.076
0
CIRCLE
8
Black
10
20.701
20
-61.214
40
1.475
0
CIRCLE
8
Black
10
20.955
20
-33.782
40
1.475
0
CIRCLE
8
Black
10
20.955
20
-88.392
40
1.475
0
CIRCLE
8
Black
10
20.955
20
-116.332
40
1.475
0
CIRCLE
8
Black
10
100.711
20
-61.214
40
1.475
0
CIRCLE
8
Black
10
100.965
20
-33.782
40
1.475
0
CIRCLE
8
Black
10
100.965
20
-88.392
40
1.475
0
CIRCLE
8
Black
10
100.965
20
-116.332
40
1.475
0
LINE
8
Black
10
167.386
20
-137.094
11
167.386
21
-141.594
0
LINE
8
Black
10
165.136
20
-139.344
11
169.636
21
-139.344
0
LINE
8
Black
10
167.386
20
-203.194
11
167.386
21
-207.694
0
LINE
8
Black
10
165.136
20
-205.444
11
169.636
21
-205.444
0
LINE
8
Black
10
209.296
20
-137.094
11
209.296
21
-141.594
0
LINE
8
Black
10
207.046
20
-139.344
11
211.546
21
-139.344
0
LINE
8
Black
10
209.296
20
-203.194
11
209.296
21
-207.694
0
LINE
8
Black
10
207.046
20
-205.444
11
211.546
21
-205.444
0
LINE
8
Black
10
20.3935
20
-215.019
11
20.3935
21
-212.019
0
LINE
8
Black
10
20.3935
20
-212.019
11
21.1078
21
-212.019
0
LINE
8
Black
10
21.1078
20
-212.019
11
21.5363
21
-212.162
0
LINE
8
Black
10
21.5363
20
-212.162
11
21.8221
21
-212.448
0
LINE
8
Black
10
21.8221
20
-212.448
11
21.9649
21
-212.733
0
LINE
8
Black
10
21.9649
20
-212.733
11
22.1078
21
-213.305
0
LINE
8
Black
10
22.1078
20
-213.305
11
22.1078
21
-213.733
0
LINE
8
Black
10
22.1078
20
-213.733
11
21.9649
21
-214.305
0
LINE
8
Black
10
21.9649
20
-214.305
11
21.8221
21
-214.591
0
LINE
8
Black
10
21.8221
20
-214.591
11
21.5363
21
-214.876
0
LINE
8
Black
10
21.5363
20
-214.876
11
21.1078
21
-215.019
0
LINE
8
Black
10
21.1078
20
-215.019
11
20.3935
21
-215.019
0
LINE
8
Black
10
23.3935
20
-215.019
11
23.3935
21
-213.019
0
LINE
8
Black
10
23.3935
20
-213.591
11
23.5363
21
-213.305
0
LINE
8
Black
10
23.5363
20
-213.305
11
23.6792
21
-213.162
0
LINE
8
Black
10
23.6792
20
-213.162
11
23.9649
21
-213.019
0
LINE
8
Black
10
23.9649
20
-213.019
11
24.2506
21
-213.019
0
LINE
8
Black
10
25.2506
20
-215.019
11
25.2506
21
-213.019
0
LINE
8
Black
10
25.2506
20
-212.019
11
25.1078
21
-212.162
0
LINE
8
Black
10
25.1078
20
-212.162
11
25.2506
21
-212.305
0
LINE
8
Black
10
25.2506
20
-212.305
11
25.3935
21
-212.162
0
LINE
8
Black
10
25.3935
20
-212.162
11
25.2506
21
-212.019
0
LINE
8
Black
10
25.2506
20
-212.019
11
25.2506
21
-212.305
0
LINE
8
Black
10
27.1078
20
-215.019
11
26.8221
21
-214.876
0
LINE
8
Black
10
26.8221
20
-214.876
11
26.6792
21
-214.591
0
LINE
8
Black
10
26.6792
20
-214.591
11
26.6792
21
-212.019
0
LINE
8
Black
10
28.6792
20
-215.019
11
28.3935
21
-214.876
0
LINE
8
Black
10
28.3935
20
-214.876
11
28.2506
21
-214.591
0
LINE
8
Black
10
28.2506
20
-214.591
11
28.2506
21
-212.019
0
LINE
8
Black
10
32.1078
20
-215.019
11
32.1078
21
-212.019
0
LINE
8
Black
10
32.1078
20
-212.019
11
33.1078
21
-214.162
0
LINE
8
Black
10
33.1078
20
-214.162
11
34.1078
21
-212.019
0
LINE
8
Black
10
34.1078
20
-212.019
11
34.1078
21
-215.019
0
LINE
8
Black
10
36.8221
20
-215.019
11
36.8221
21
-213.448
0
LINE
8
Black
10
36.8221
20
-213.448
11
36.6792
21
-213.162
0
LINE
8
Black
10
36.6792
20
-213.162
11
36.3935
21
-213.019
0
LINE
8
Black
10
36.3935
20
-213.019
11
35.8221
21
-213.019
0
LINE
8
Black
10
35.8221
20
-213.019
11
35.5363
21
-213.162
0
LINE
8
Black
10
36.8221
20
-214.876
11
36.5363
21
-215.019
0
LINE
8
Black
10
36.5363
20
-215.019
11
35.8221
21
-215.019
0
LINE
8
Black
10
35.8221
20
-215.019
11
35.5363
21
-214.876
0
LINE
8
Black
10
35.5363
20
-214.876
11
35.3935
21
-214.591
0
LINE
8
Black
10
35.3935
20
-214.591
11
35.3935
21
-214.305
0
LINE
8
Black
10
35.3935
20
-214.305
11
35.5363
21
-214.019
0
LINE
8
Black
10
35.5363
20
-214.019
11
35.8221
21
-213.876
0
LINE
8
Black
10
35.8221
20
-213.876
11
36.5363
21
-213.876
0
LINE
8
Black
10
36.5363
20
-213.876
11
36.8221
21
-213.733
0
LINE
8
Black
10
38.2506
20
-213.019
11
38.2506
21
-216.019
0
LINE
8
Black
10
38.2506
20
-213.162
11
38.5363
21
-213.019
0
LINE
8
Black
10
38.5363
20
-213.019
11
39.1078
21
-213.019
0
LINE
8
Black
10
39.1078
20
-213.019
11
39.3935
21
-213.162
0
LINE
8
Black
10
39.3935
20
-213.162
11
39.5363
21
-213.305
0
LINE
8
Black
10
39.5363
20
-213.305
11
39.6792
21
-213.591
0
LINE
8
Black
10
39.6792
20
-213.591
11
39.6792
21
-214.448
0
LINE
8
Black
10
39.6792
20
-214.448
11
39.5363
21
-214.733
0
LINE
8
Black
10
39.5363
20
-214.733
11
39.3935
21
-214.876
0
LINE
8
Black
10
39.3935
20
-214.876
11
39.1078
21
-215.019
0
LINE
8
Black
10
39.1078
20
-215.019
11
38.5363
21
-215.019
0
LINE
8
Black
10
38.5363
20
-215.019
11
38.2506
21
-214.876
0
LINE
8
Black
10
40.9649
20
-214.733
11
41.1078
21
-214.876
0
LINE
8
Black
10
41.1078
20
-214.876
11
40.9649
21
-215.019
0
LINE
8
Black
10
40.9649
20
-215.019
11
40.8221
21
-214.876
0
LINE
8
Black
10
40.8221
20
-214.876
11
40.9649
21
-214.733
0
LINE
8
Black
10
40.9649
20
-214.733
11
40.9649
21
-215.019
0
LINE
8
Black
10
40.9649
20
-213.162
11
41.1078
21
-213.305
0
LINE
8
Black
10
41.1078
20
-213.305
11
40.9649
21
-213.448
0
LINE
8
Black
10
40.9649
20
-213.448
11
40.8221
21
-213.305
0
LINE
8
Black
10
40.8221
20
-213.305
11
40.9649
21
-213.162
0
LINE
8
Black
10
40.9649
20
-213.162
11
40.9649
21
-213.448
0
LINE
8
Black
10
16.7792
20
-219.512
11
17.6792
21
-220.412
0
LINE
8
Black
10
17.6792
20
-219.512
11
16.7792
21
-220.412
0
LINE
8
Black
10
20.9649
20
-218.319
11
21.2506
21
-218.319
0
LINE
8
Black
10
21.2506
20
-218.319
11
21.5363
21
-218.462
0
LINE
8
Black
10
21.5363
20
-218.462
11
21.6792
21
-218.605
0
LINE
8
Black
10
21.6792
20
-218.605
11
21.8221
21
-218.891
0
LINE
8
Black
10
21.8221
20
-218.891
11
21.9649
21
-219.462
0
LINE
8
Black
10
21.9649
20
-219.462
11
21.9649
21
-220.176
0
LINE
8
Black
10
21.9649
20
-220.176
11
21.8221
21
-220.748
0
LINE
8
Black
10
21.8221
20
-220.748
11
21.6792
21
-221.033
0
LINE
8
Black
10
21.6792
20
-221.033
11
21.5363
21
-221.176
0
LINE
8
Black
10
21.5363
20
-221.176
11
21.2506
21
-221.319
0
LINE
8
Black
10
21.2506
20
-221.319
11
20.9649
21
-221.319
0
LINE
8
Black
10
20.9649
20
-221.319
11
20.6792
21
-221.176
0
LINE
8
Black
10
20.6792
20
-221.176
11
20.5363
21
-221.033
0
LINE
8
Black
10
20.5363
20
-221.033
11
20.3935
21
-220.748
0
LINE
8
Black
10
20.3935
20
-220.748
11
20.2506
21
-220.176
0
LINE
8
Black
10
20.2506
20
-220.176
11
20.2506
21
-219.462
0
LINE
8
Black
10
20.2506
20
-219.462
11
20.3935
21
-218.891
0
LINE
8
Black
10
20.3935
20
-218.891
11
20.5363
21
-218.605
0
LINE
8
Black
10
20.5363
20
-218.605
11
20.6792
21
-218.462
0
LINE
8
Black
10
20.6792
20
-218.462
11
20.9649
21
-218.319
0
LINE
8
Black
10
23.2506
20
-221.033
11
23.3935
21
-221.176
0
LINE
8
Black
10
23.3935
20
-221.176
11
23.2506
21
-221.319
0
LINE
8
Black
10
23.2506
20
-221.319
11
23.1078
21
-221.176
0
LINE
8
Black
10
23.1078
20
-221.176
11
23.2506
21
-221.033
0
LINE
8
Black
10
23.2506
20
-221.033
11
23.2506
21
-221.319
0
LINE
8
Black
10
24.8221
20
-221.319
11
25.3935
21
-221.319
0
LINE
8
Black
10
25.3935
20
-221.319
11
25.6792
21
-221.176
0
LINE
8
Black
10
25.6792
20
-221.176
11
25.8221
21
-221.033
0
LINE
8
Black
10
25.8221
20
-221.033
11
26.1078
21
-220.605
0
LINE
8
Black
10
26.1078
20
-220.605
11
26.2506
21
-220.033
0
LINE
8
Black
10
26.2506
20
-220.033
11
26.2506
21
-218.891
0
LINE
8
Black
10
26.2506
20
-218.891
11
26.1078
21
-218.605
0
LINE
8
Black
10
26.1078
20
-218.605
11
25.9649
21
-218.462
0
LINE
8
Black
10
25.9649
20
-218.462
11
25.6792
21
-218.319
0
LINE
8
Black
10
25.6792
20
-218.319
11
25.1078
21
-218.319
0
LINE
8
Black
10
25.1078
20
-218.319
11
24.8221
21
-218.462
0
LINE
8
Black
10
24.8221
20
-218.462
11
24.6792
21
-218.605
0
LINE
8
Black
10
24.6792
20
-218.605
11
24.5363
21
-218.891
0
LINE
8
Black
10
24.5363
20
-218.891
11
24.5363
21
-219.605
0
LINE
8
Black
10
24.5363
20
-219.605
11
24.6792
21
-219.891
0
LINE
8
Black
10
24.6792
20
-219.891
11
24.8221
21
-220.033
0
LINE
8
Black
10
24.8221
20
-220.033
11
25.1078
21
-220.176
0
LINE
8
Black
10
25.1078
20
-220.176
11
25.6792
21
-220.176
0
LINE
8
Black
10
25.6792
20
-220.176
11
25.9649
21
-220.033
0
LINE
8
Black
10
25.9649
20
-220.033
11
26.1078
21
-219.891
0
LINE
8
Black
10
26.1078
20
-219.891
11
26.2506
21
-219.605
0
LINE
8
Black
10
28.1078
20
-218.319
11
28.3935
21
-218.319
0
LINE
8
Black
10
28.3935
20
-218.319
11
28.6792
21
-218.462
0
LINE
8
Black
10
28.6792
20
-218.462
11
28.8221
21
-218.605
0
LINE
8
Black
10
28.8221
20
-218.605
11
28.9649
21
-218.891
0
LINE
8
Black
10
28.9649
20
-218.891
11
29.1078
21
-219.462
0
LINE
8
Black
10
29.1078
20
-219.462
11
29.1078
21
-220.176
0
LINE
8
Black
10
29.1078
20
-220.176
11
28.9649
21
-220.748
0
LINE
8
Black
10
28.9649
20
-220.748
11
28.8221
21
-221.033
0
LINE
8
Black
10
28.8221
20
-221.033
11
28.6792
21
-221.176
0
LINE
8
Black
10
28.6792
20
-221.176
11
28.3935
21
-221.319
0
LINE
8
Black
10
28.3935
20
-221.319
11
28.1078
21
-221.319
0
LINE
8
Black
10
28.1078
20
-221.319
11
27.8221
21
-221.176
0
LINE
8
Black
10
27.8221
20
-221.176
11
27.6792
21
-221.033
0
LINE
8
Black
10
27.6792
20
-221.033
11
27.5363
21
-220.748
0
LINE
8
Black
10
27.5363
20
-220.748
11
27.3935
21
-220.176
0
LINE
8
Black
10
27.3935
20
-220.176
11
27.3935
21
-219.462
0
LINE
8
Black
10
27.3935
20
-219.462
11
27.5363
21
-218.891
0
LINE
8
Black
10
27.5363
20
-218.891
11
27.6792
21
-218.605
0
LINE
8
Black
10
27.6792
20
-218.605
11
27.8221
21
-218.462
0
LINE
8
Black
10
27.8221
20
-218.462
11
28.1078
21
-218.319
0
LINE
8
Black
10
30.3935
20
-221.319
11
30.3935
21
-219.319
0
LINE
8
Black
10
30.3935
20
-219.605
11
30.5363
21
-219.462
0
LINE
8
Black
10
30.5363
20
-219.462
11
30.8221
21
-219.319
0
LINE
8
Black
10
30.8221
20
-219.319
11
31.2506
21
-219.319
0
LINE
8
Black
10
31.2506
20
-219.319
11
31.5363
21
-219.462
0
LINE
8
Black
10
31.5363
20
-219.462
11
31.6792
21
-219.748
0
LINE
8
Black
10
31.6792
20
-219.748
11
31.6792
21
-221.319
0
LINE
8
Black
10
31.6792
20
-219.748
11
31.8221
21
-219.462
0
LINE
8
Black
10
31.8221
20
-219.462
11
32.1078
21
-219.319
0
LINE
8
Black
10
32.1078
20
-219.319
11
32.5363
21
-219.319
0
LINE
8
Black
10
32.5363
20
-219.319
11
32.8221
21
-219.462
0
LINE
8
Black
10
32.8221
20
-219.462
11
32.9649
21
-219.748
0
LINE
8
Black
10
32.9649
20
-219.748
11
32.9649
21
-221.319
0
LINE
8
Black
10
34.3935
20
-221.319
11
34.3935
21
-219.319
0
LINE
8
Black
10
34.3935
20
-219.605
11
34.5363
21
-219.462
0
LINE
8
Black
10
34.5363
20
-219.462
11
34.8221
21
-219.319
0
LINE
8
Black
10
34.8221
20
-219.319
11
35.2506
21
-219.319
0
LINE
8
Black
10
35.2506
20
-219.319
11
35.5363
21
-219.462
0
LINE
8
Black
10
35.5363
20
-219.462
11
35.6792
21
-219.748
0
LINE
8
Black
10
35.6792
20
-219.748
11
35.6792
21
-221.319
0
LINE
8
Black
10
35.6792
20
-219.748
11
35.8221
21
-219.462
0
LINE
8
Black
10
35.8221
20
-219.462
11
36.1078
21
-219.319
0
LINE
8
Black
10
36.1078
20
-219.319
11
36.5363
21
-219.319
0
LINE
8
Black
10
36.5363
20
-219.319
11
36.8221
21
-219.462
0
LINE
8
Black
10
36.8221
20
-219.462
11
36.9649
21
-219.748
0
LINE
8
Black
10
36.9649
20
-219.748
11
36.9649
21
-221.319
0
LINE
8
Black
10
42.8221
20
-218.176
11
40.2506
21
-222.033
0
LINE
8
Black
10
46.6792
20
-218.319
11
46.9649
21
-218.319
0
LINE
8
Black
10
46.9649
20
-218.319
11
47.2506
21
-218.462
0
LINE
8
Black
10
47.2506
20
-218.462
11
47.3935
21
-218.605
0
LINE
8
Black
10
47.3935
20
-218.605
11
47.5363
21
-218.891
0
LINE
8
Black
10
47.5363
20
-218.891
11
47.6792
21
-219.462
0
LINE
8
Black
10
47.6792
20
-219.462
11
47.6792
21
-220.176
0
LINE
8
Black
10
47.6792
20
-220.176
11
47.5363
21
-220.748
0
LINE
8
Black
10
47.5363
20
-220.748
11
47.3935
21
-221.033
0
LINE
8
Black
10
47.3935
20
-221.033
11
47.2506
21
-221.176
0
LINE
8
Black
10
47.2506
20
-221.176
11
46.9649
21
-221.319
0
LINE
8
Black
10
46.9649
20
-221.319
11
46.6792
21
-221.319
0
LINE
8
Black
10
46.6792
20
-221.319
11
46.3935
21
-221.176
0
LINE
8
Black
10
46.3935
20
-221.176
11
46.2506
21
-221.033
0
LINE
8
Black
10
46.2506
20
-221.033
11
46.1078
21
-220.748
0
LINE
8
Black
10
46.1078
20
-220.748
11
45.9649
21
-220.176
0
LINE
8
Black
10
45.9649
20
-220.176
11
45.9649
21
-219.462
0
LINE
8
Black
10
45.9649
20
-219.462
11
46.1078
21
-218.891
0
LINE
8
Black
10
46.1078
20
-218.891
11
46.2506
21
-218.605
0
LINE
8
Black
10
46.2506
20
-218.605
11
46.3935
21
-218.462
0
LINE
8
Black
10
46.3935
20
-218.462
11
46.6792
21
-218.319
0
LINE
8
Black
10
48.9649
20
-221.033
11
49.1078
21
-221.176
0
LINE
8
Black
10
49.1078
20
-221.176
11
48.9649
21
-221.319
0
LINE
8
Black
10
48.9649
20
-221.319
11
48.8221
21
-221.176
0
LINE
8
Black
10
48.8221
20
-221.176
11
48.9649
21
-221.033
0
LINE
8
Black
10
48.9649
20
-221.033
11
48.9649
21
-221.319
0
LINE
8
Black
10
50.9649
20
-218.319
11
51.2506
21
-218.319
0
LINE
8
Black
10
51.2506
20
-218.319
11
51.5363
21
-218.462
0
LINE
8
Black
10
51.5363
20
-218.462
11
51.6792
21
-218.605
0
LINE
8
Black
10
51.6792
20
-218.605
11
51.8221
21
-218.891
0
LINE
8
Black
10
51.8221
20
-218.891
11
51.9649
21
-219.462
0
LINE
8
Black
10
51.9649
20
-219.462
11
51.9649
21
-220.176
0
LINE
8
Black
10
51.9649
20
-220.176
11
51.8221
21
-220.748
0
LINE
8
Black
10
51.8221
20
-220.748
11
51.6792
21
-221.033
0
LINE
8
Black
10
51.6792
20
-221.033
11
51.5363
21
-221.176
0
LINE
8
Black
10
51.5363
20
-221.176
11
51.2506
21
-221.319
0
LINE
8
Black
10
51.2506
20
-221.319
11
50.9649
21
-221.319
0
LINE
8
Black
10
50.9649
20
-221.319
11
50.6792
21
-221.176
0
LINE
8
Black
10
50.6792
20
-221.176
11
50.5363
21
-221.033
0
LINE
8
Black
10
50.5363
20
-221.033
11
50.3935
21
-220.748
0
LINE
8
Black
10
50.3935
20
-220.748
11
50.2506
21
-220.176
0
LINE
8
Black
10
50.2506
20
-220.176
11
50.2506
21
-219.462
0
LINE
8
Black
10
50.2506
20
-219.462
11
50.3935
21
-218.891
0
LINE
8
Black
10
50.3935
20
-218.891
11
50.5363
21
-218.605
0
LINE
8
Black
10
50.5363
20
-218.605
11
50.6792
21
-218.462
0
LINE
8
Black
10
50.6792
20
-218.462
11
50.9649
21
-218.319
0
LINE
8
Black
10
52.9649
20
-218.319
11
54.8221
21
-218.319
0
LINE
8
Black
10
54.8221
20
-218.319
11
53.8221
21
-219.462
0
LINE
8
Black
10
53.8221
20
-219.462
11
54.2506
21
-219.462
0
LINE
8
Black
10
54.2506
20
-219.462
11
54.5363
21
-219.605
0
LINE
8
Black
10
54.5363
20
-219.605
11
54.6792
21
-219.748
0
LINE
8
Black
10
54.6792
20
-219.748
11
54.8221
21
-220.033
0
LINE
8
Black
10
54.8221
20
-220.033
11
54.8221
21
-220.748
0
LINE
8
Black
10
54.8221
20
-220.748
11
54.6792
21
-221.033
0
LINE
8
Black
10
54.6792
20
-221.033
11
54.5363
21
-221.176
0
LINE
8
Black
10
54.5363
20
-221.176
11
54.2506
21
-221.319
0
LINE
8
Black
10
54.2506
20
-221.319
11
53.3935
21
-221.319
0
LINE
8
Black
10
53.3935
20
-221.319
11
53.1078
21
-221.176
0
LINE
8
Black
10
53.1078
20
-221.176
11
52.9649
21
-221.033
0
LINE
8
Black
10
57.5363
20
-218.319
11
56.1078
21
-218.319
0
LINE
8
Black
10
56.1078
20
-218.319
11
55.9649
21
-219.748
0
LINE
8
Black
10
55.9649
20
-219.748
11
56.1078
21
-219.605
0
LINE
8
Black
10
56.1078
20
-219.605
11
56.3935
21
-219.462
0
LINE
8
Black
10
56.3935
20
-219.462
11
57.1078
21
-219.462
0
LINE
8
Black
10
57.1078
20
-219.462
11
57.3935
21
-219.605
0
LINE
8
Black
10
57.3935
20
-219.605
11
57.5363
21
-219.748
0
LINE
8
Black
10
57.5363
20
-219.748
11
57.6792
21
-220.033
0
LINE
8
Black
10
57.6792
20
-220.033
11
57.6792
21
-220.748
0
LINE
8
Black
10
57.6792
20
-220.748
11
57.5363
21
-221.033
0
LINE
8
Black
10
57.5363
20
-221.033
11
57.3935
21
-221.176
0
LINE
8
Black
10
57.3935
20
-221.176
11
57.1078
21
-221.319
0
LINE
8
Black
10
57.1078
20
-221.319
11
56.3935
21
-221.319
0
LINE
8
Black
10
56.3935
20
-221.319
11
56.1078
21
-221.176
0
LINE
8
Black
10
56.1078
20
-221.176
11
55.9649
21
-221.033
0
LINE
8
Black
10
58.8221
20
-218.319
11
58.8221
21
-218.891
0
LINE
8
Black
10
59.9649
20
-218.319
11
59.9649
21
-218.891
0
LINE
8
Black
10
64.3935
20
-222.462
11
64.2506
21
-222.319
0
LINE
8
Black
10
64.2506
20
-222.319
11
63.9649
21
-221.891
0
LINE
8
Black
10
63.9649
20
-221.891
11
63.8221
21
-221.605
0
LINE
8
Black
10
63.8221
20
-221.605
11
63.6792
21
-221.176
0
LINE
8
Black
10
63.6792
20
-221.176
11
63.5363
21
-220.462
0
LINE
8
Black
10
63.5363
20
-220.462
11
63.5363
21
-219.891
0
LINE
8
Black
10
63.5363
20
-219.891
11
63.6792
21
-219.176
0
LINE
8
Black
10
63.6792
20
-219.176
11
63.8221
21
-218.748
0
LINE
8
Black
10
63.8221
20
-218.748
11
63.9649
21
-218.462
0
LINE
8
Black
10
63.9649
20
-218.462
11
64.2506
21
-218.033
0
LINE
8
Black
10
64.2506
20
-218.033
11
64.3935
21
-217.891
0
LINE
8
Black
10
65.3935
20
-218.605
11
65.5363
21
-218.462
0
LINE
8
Black
10
65.5363
20
-218.462
11
65.8221
21
-218.319
0
LINE
8
Black
10
65.8221
20
-218.319
11
66.5363
21
-218.319
0
LINE
8
Black
10
66.5363
20
-218.319
11
66.8221
21
-218.462
0
LINE
8
Black
10
66.8221
20
-218.462
11
66.9649
21
-218.605
0
LINE
8
Black
10
66.9649
20
-218.605
11
67.1078
21
-218.891
0
LINE
8
Black
10
67.1078
20
-218.891
11
67.1078
21
-219.176
0
LINE
8
Black
10
67.1078
20
-219.176
11
66.9649
21
-219.605
0
LINE
8
Black
10
66.9649
20
-219.605
11
65.2506
21
-221.319
0
LINE
8
Black
10
65.2506
20
-221.319
11
67.1078
21
-221.319
0
LINE
8
Black
10
70.6792
20
-221.319
11
70.6792
21
-218.319
0
LINE
8
Black
10
71.9649
20
-221.319
11
71.9649
21
-219.748
0
LINE
8
Black
10
71.9649
20
-219.748
11
71.8221
21
-219.462
0
LINE
8
Black
10
71.8221
20
-219.462
11
71.5363
21
-219.319
0
LINE
8
Black
10
71.5363
20
-219.319
11
71.1078
21
-219.319
0
LINE
8
Black
10
71.1078
20
-219.319
11
70.8221
21
-219.462
0
LINE
8
Black
10
70.8221
20
-219.462
11
70.6792
21
-219.605
0
LINE
8
Black
10
73.8221
20
-221.319
11
73.5363
21
-221.176
0
LINE
8
Black
10
73.5363
20
-221.176
11
73.3935
21
-221.033
0
LINE
8
Black
10
73.3935
20
-221.033
11
73.2506
21
-220.748
0
LINE
8
Black
10
73.2506
20
-220.748
11
73.2506
21
-219.891
0
LINE
8
Black
10
73.2506
20
-219.891
11
73.3935
21
-219.605
0
LINE
8
Black
10
73.3935
20
-219.605
11
73.5363
21
-219.462
0
LINE
8
Black
10
73.5363
20
-219.462
11
73.8221
21
-219.319
0
LINE
8
Black
10
73.8221
20
-219.319
11
74.2506
21
-219.319
0
LINE
8
Black
10
74.2506
20
-219.319
11
74.5363
21
-219.462
0
LINE
8
Black
10
74.5363
20
-219.462
11
74.6792
21
-219.605
0
LINE
8
Black
10
74.6792
20
-219.605
11
74.8221
21
-219.891
0
LINE
8
Black
10
74.8221
20
-219.891
11
74.8221
21
-220.748
0
LINE
8
Black
10
74.8221
20
-220.748
11
74.6792
21
-221.033
0
LINE
8
Black
10
74.6792
20
-221.033
11
74.5363
21
-221.176
0
LINE
8
Black
10
74.5363
20
-221.176
11
74.2506
21
-221.319
0
LINE
8
Black
10
74.2506
20
-221.319
11
73.8221
21
-221.319
0
LINE
8
Black
10
76.5363
20
-221.319
11
76.2506
21
-221.176
0
LINE
8
Black
10
76.2506
20
-221.176
11
76.1078
21
-220.891
0
LINE
8
Black
10
76.1078
20
-220.891
11
76.1078
21
-218.319
0
LINE
8
Black
10
78.8221
20
-221.176
11
78.5363
21
-221.319
0
LINE
8
Black
10
78.5363
20
-221.319
11
77.9649
21
-221.319
0
LINE
8
Black
10
77.9649
20
-221.319
11
77.6792
21
-221.176
0
LINE
8
Black
10
77.6792
20
-221.176
11
77.5363
21
-220.891
0
LINE
8
Black
10
77.5363
20
-220.891
11
77.5363
21
-219.748
0
LINE
8
Black
10
77.5363
20
-219.748
11
77.6792
21
-219.462
0
LINE
8
Black
10
77.6792
20
-219.462
11
77.9649
21
-219.319
0
LINE
8
Black
10
77.9649
20
-219.319
11
78.5363
21
-219.319
0
LINE
8
Black
10
78.5363
20
-219.319
11
78.8221
21
-219.462
0
LINE
8
Black
10
78.8221
20
-219.462
11
78.9649
21
-219.748
0
LINE
8
Black
10
78.9649
20
-219.748
11
78.9649
21
-220.033
0
LINE
8
Black
10
78.9649
20
-220.033
11
77.5363
21
-220.319
0
LINE
8
Black
10
80.1078
20
-221.176
11
80.3935
21
-221.319
0
LINE
8
Black
10
80.3935
20
-221.319
11
80.9649
21
-221.319
0
LINE
8
Black
10
80.9649
20
-221.319
11
81.2506
21
-221.176
0
LINE
8
Black
10
81.2506
20
-221.176
11
81.3935
21
-220.891
0
LINE
8
Black
10
81.3935
20
-220.891
11
81.3935
21
-220.748
0
LINE
8
Black
10
81.3935
20
-220.748
11
81.2506
21
-220.462
0
LINE
8
Black
10
81.2506
20
-220.462
11
80.9649
21
-220.319
0
LINE
8
Black
10
80.9649
20
-220.319
11
80.5363
21
-220.319
0
LINE
8
Black
10
80.5363
20
-220.319
11
80.2506
21
-220.176
0
LINE
8
Black
10
80.2506
20
-220.176
11
80.1078
21
-219.891
0
LINE
8
Black
10
80.1078
20
-219.891
11
80.1078
21
-219.748
0
LINE
8
Black
10
80.1078
20
-219.748
11
80.2506
21
-219.462
0
LINE
8
Black
10
80.2506
20
-219.462
11
80.5363
21
-219.319
0
LINE
8
Black
10
80.5363
20
-219.319
11
80.9649
21
-219.319
0
LINE
8
Black
10
80.9649
20
-219.319
11
81.2506
21
-219.462
0
LINE
8
Black
10
82.3935
20
-222.462
11
82.5363
21
-222.319
0
LINE
8
Black
10
82.5363
20
-222.319
11
82.8221
21
-221.891
0
LINE
8
Black
10
82.8221
20
-221.891
11
82.9649
21
-221.605
0
LINE
8
Black
10
82.9649
20
-221.605
11
83.1078
21
-221.176
0
LINE
8
Black
10
83.1078
20
-221.176
11
83.2506
21
-220.462
0
LINE
8
Black
10
83.2506
20
-220.462
11
83.2506
21
-219.891
0
LINE
8
Black
10
83.2506
20
-219.891
11
83.1078
21
-219.176
0
LINE
8
Black
10
83.1078
20
-219.176
11
82.9649
21
-218.748
0
LINE
8
Black
10
82.9649
20
-218.748
11
82.8221
21
-218.462
0
LINE
8
Black
10
82.8221
20
-218.462
11
82.5363
21
-218.033
0
LINE
8
Black
10
82.5363
20
-218.033
11
82.3935
21
-217.891
0
LINE
8
Black
10
87.8221
20
-222.462
11
87.6792
21
-222.319
0
LINE
8
Black
10
87.6792
20
-222.319
11
87.3935
21
-221.891
0
LINE
8
Black
10
87.3935
20
-221.891
11
87.2506
21
-221.605
0
LINE
8
Black
10
87.2506
20
-221.605
11
87.1078
21
-221.176
0
LINE
8
Black
10
87.1078
20
-221.176
11
86.9649
21
-220.462
0
LINE
8
Black
10
86.9649
20
-220.462
11
86.9649
21
-219.891
0
LINE
8
Black
10
86.9649
20
-219.891
11
87.1078
21
-219.176
0
LINE
8
Black
10
87.1078
20
-219.176
11
87.2506
21
-218.748
0
LINE
8
Black
10
87.2506
20
-218.748
11
87.3935
21
-218.462
0
LINE
8
Black
10
87.3935
20
-218.462
11
87.6792
21
-218.033
0
LINE
8
Black
10
87.6792
20
-218.033
11
87.8221
21
-217.891
0
LINE
8
Black
10
88.9649
20
-219.319
11
88.9649
21
-221.319
0
LINE
8
Black
10
88.9649
20
-219.605
11
89.1078
21
-219.462
0
LINE
8
Black
10
89.1078
20
-219.462
11
89.3935
21
-219.319
0
LINE
8
Black
10
89.3935
20
-219.319
11
89.8221
21
-219.319
0
LINE
8
Black
10
89.8221
20
-219.319
11
90.1078
21
-219.462
0
LINE
8
Black
10
90.1078
20
-219.462
11
90.2506
21
-219.748
0
LINE
8
Black
10
90.2506
20
-219.748
11
90.2506
21
-221.319
0
LINE
8
Black
10
92.1078
20
-221.319
11
91.8221
21
-221.176
0
LINE
8
Black
10
91.8221
20
-221.176
11
91.6792
21
-221.033
0
LINE
8
Black
10
91.6792
20
-221.033
11
91.5363
21
-220.748
0
LINE
8
Black
10
91.5363
20
-220.748
11
91.5363
21
-219.891
0
LINE
8
Black
10
91.5363
20
-219.891
11
91.6792
21
-219.605
0
LINE
8
Black
10
91.6792
20
-219.605
11
91.8221
21
-219.462
0
LINE
8
Black
10
91.8221
20
-219.462
11
92.1078
21
-219.319
0
LINE
8
Black
10
92.1078
20
-219.319
11
92.5363
21
-219.319
0
LINE
8
Black
10
92.5363
20
-219.319
11
92.8221
21
-219.462
0
LINE
8
Black
10
92.8221
20
-219.462
11
92.9649
21
-219.605
0
LINE
8
Black
10
92.9649
20
-219.605
11
93.1078
21
-219.891
0
LINE
8
Black
10
93.1078
20
-219.891
11
93.1078
21
-220.748
0
LINE
8
Black
10
93.1078
20
-220.748
11
92.9649
21
-221.033
0
LINE
8
Black
10
92.9649
20
-221.033
11
92.8221
21
-221.176
0
LINE
8
Black
10
92.8221
20
-221.176
11
92.5363
21
-221.319
0
LINE
8
Black
10
92.5363
20
-221.319
11
92.1078
21
-221.319
0
LINE
8
Black
10
93.9649
20
-219.319
11
95.1078
21
-219.319
0
LINE
8
Black
10
94.3935
20
-218.319
11
94.3935
21
-220.891
0
LINE
8
Black
10
94.3935
20
-220.891
11
94.5363
21
-221.176
0
LINE
8
Black
10
94.5363
20
-221.176
11
94.8221
21
-221.319
0
LINE
8
Black
10
94.8221
20
-221.319
11
95.1078
21
-221.319
0
LINE
8
Black
10
98.3935
20
-219.319
11
98.3935
21
-222.319
0
LINE
8
Black
10
98.3935
20
-219.462
11
98.6792
21
-219.319
0
LINE
8
Black
10
98.6792
20
-219.319
11
99.2506
21
-219.319
0
LINE
8
Black
10
99.2506
20
-219.319
11
99.5363
21
-219.462
0
LINE
8
Black
10
99.5363
20
-219.462
11
99.6792
21
-219.605
0
LINE
8
Black
10
99.6792
20
-219.605
11
99.8221
21
-219.891
0
LINE
8
Black
10
99.8221
20
-219.891
11
99.8221
21
-220.748
0
LINE
8
Black
10
99.8221
20
-220.748
11
99.6792
21
-221.033
0
LINE
8
Black
10
99.6792
20
-221.033
11
99.5363
21
-221.176
0
LINE
8
Black
10
99.5363
20
-221.176
11
99.2506
21
-221.319
0
LINE
8
Black
10
99.2506
20
-221.319
11
98.6792
21
-221.319
0
LINE
8
Black
10
98.6792
20
-221.319
11
98.3935
21
-221.176
0
LINE
8
Black
10
101.536
20
-221.319
11
101.251
21
-221.176
0
LINE
8
Black
10
101.251
20
-221.176
11
101.108
21
-220.891
0
LINE
8
Black
10
101.108
20
-220.891
11
101.108
21
-218.319
0
LINE
8
Black
10
103.965
20
-221.319
11
103.965
21
-219.748
0
LINE
8
Black
10
103.965
20
-219.748
11
103.822
21
-219.462
0
LINE
8
Black
10
103.822
20
-219.462
11
103.536
21
-219.319
0
LINE
8
Black
10
103.536
20
-219.319
11
102.965
21
-219.319
0
LINE
8
Black
10
102.965
20
-219.319
11
102.679
21
-219.462
0
LINE
8
Black
10
103.965
20
-221.176
11
103.679
21
-221.319
0
LINE
8
Black
10
103.679
20
-221.319
11
102.965
21
-221.319
0
LINE
8
Black
10
102.965
20
-221.319
11
102.679
21
-221.176
0
LINE
8
Black
10
102.679
20
-221.176
11
102.536
21
-220.891
0
LINE
8
Black
10
102.536
20
-220.891
11
102.536
21
-220.605
0
LINE
8
Black
10
102.536
20
-220.605
11
102.679
21
-220.319
0
LINE
8
Black
10
102.679
20
-220.319
11
102.965
21
-220.176
0
LINE
8
Black
10
102.965
20
-220.176
11
103.679
21
-220.176
0
LINE
8
Black
10
103.679
20
-220.176
11
103.965
21
-220.033
0
LINE
8
Black
10
104.965
20
-219.319
11
106.108
21
-219.319
0
LINE
8
Black
10
105.393
20
-218.319
11
105.393
21
-220.891
0
LINE
8
Black
10
105.393
20
-220.891
11
105.536
21
-221.176
0
LINE
8
Black
10
105.536
20
-221.176
11
105.822
21
-221.319
0
LINE
8
Black
10
105.822
20
-221.319
11
106.108
21
-221.319
0
LINE
8
Black
10
108.251
20
-221.176
11
107.965
21
-221.319
0
LINE
8
Black
10
107.965
20
-221.319
11
107.393
21
-221.319
0
LINE
8
Black
10
107.393
20
-221.319
11
107.108
21
-221.176
0
LINE
8
Black
10
107.108
20
-221.176
11
106.965
21
-220.891
0
LINE
8
Black
10
106.965
20
-220.891
11
106.965
21
-219.748
0
LINE
8
Black
10
106.965
20
-219.748
11
107.108
21
-219.462
0
LINE
8
Black
10
107.108
20
-219.462
11
107.393
21
-219.319
0
LINE
8
Black
10
107.393
20
-219.319
11
107.965
21
-219.319
0
LINE
8
Black
10
107.965
20
-219.319
11
108.251
21
-219.462
0
LINE
8
Black
10
108.251
20
-219.462
11
108.393
21
-219.748
0
LINE
8
Black
10
108.393
20
-219.748
11
108.393
21
-220.033
0
LINE
8
Black
10
108.393
20
-220.033
11
106.965
21
-220.319
0
LINE
8
Black
10
110.965
20
-221.319
11
110.965
21
-218.319
0
LINE
8
Black
10
110.965
20
-221.176
11
110.679
21
-221.319
0
LINE
8
Black
10
110.679
20
-221.319
11
110.108
21
-221.319
0
LINE
8
Black
10
110.108
20
-221.319
11
109.822
21
-221.176
0
LINE
8
Black
10
109.822
20
-221.176
11
109.679
21
-221.033
0
LINE
8
Black
10
109.679
20
-221.033
11
109.536
21
-220.748
0
LINE
8
Black
10
109.536
20
-220.748
11
109.536
21
-219.891
0
LINE
8
Black
10
109.536
20
-219.891
11
109.679
21
-219.605
0
LINE
8
Black
10
109.679
20
-219.605
11
109.822
21
-219.462
0
LINE
8
Black
10
109.822
20
-219.462
11
110.108
21
-219.319
0
LINE
8
Black
10
110.108
20
-219.319
11
110.679
21
-219.319
0
LINE
8
Black
10
110.679
20
-219.319
11
110.965
21
-219.462
0
LINE
8
Black
10
112.108
20
-222.462
11
112.251
21
-222.319
0
LINE
8
Black
10
112.251
20
-222.319
11
112.536
21
-221.891
0
LINE
8
Black
10
112.536
20
-221.891
11
112.679
21
-221.605
0
LINE
8
Black
10
112.679
20
-221.605
11
112.822
21
-221.176
0
LINE
8
Black
10
112.822
20
-221.176
11
112.965
21
-220.462
0
LINE
8
Black
10
112.965
20
-220.462
11
112.965
21
-219.891
0
LINE
8
Black
10
112.965
20
-219.891
11
112.822
21
-219.176
0
LINE
8
Black
10
112.822
20
-219.176
11
112.679
21
-218.748
0
LINE
8
Black
10
112.679
20
-218.748
11
112.536
21
-218.462
0
LINE
8
Black
10
112.536
20
-218.462
11
112.251
21
-218.033
0
LINE
8
Black
10
112.251
20
-218.033
11
112.108
21
-217.891
0
CIRCLE
8
Black
10
16.2042
20
-223.922
40
1.475
0
LINE
8
Black
10
20.2506
20
-222.565
11
20.3935
21
-222.422
0
LINE
8
Black
10
20.3935
20
-222.422
11
20.6792
21
-222.279
0
LINE
8
Black
10
20.6792
20
-222.279
11
21.3935
21
-222.279
0
LINE
8
Black
10
21.3935
20
-222.279
11
21.6792
21
-222.422
0
LINE
8
Black
10
21.6792
20
-222.422
11
21.8221
21
-222.565
0
LINE
8
Black
10
21.8221
20
-222.565
11
21.9649
21
-222.851
0
LINE
8
Black
10
21.9649
20
-222.851
11
21.9649
21
-223.136
0
LINE
8
Black
10
21.9649
20
-223.136
11
21.8221
21
-223.565
0
LINE
8
Black
10
21.8221
20
-223.565
11
20.1078
21
-225.279
0
LINE
8
Black
10
20.1078
20
-225.279
11
21.9649
21
-225.279
0
LINE
8
Black
10
23.2506
20
-224.993
11
23.3935
21
-225.136
0
LINE
8
Black
10
23.3935
20
-225.136
11
23.2506
21
-225.279
0
LINE
8
Black
10
23.2506
20
-225.279
11
23.1078
21
-225.136
0
LINE
8
Black
10
23.1078
20
-225.136
11
23.2506
21
-224.993
0
LINE
8
Black
10
23.2506
20
-224.993
11
23.2506
21
-225.279
0
LINE
8
Black
10
24.8221
20
-225.279
11
25.3935
21
-225.279
0
LINE
8
Black
10
25.3935
20
-225.279
11
25.6792
21
-225.136
0
LINE
8
Black
10
25.6792
20
-225.136
11
25.8221
21
-224.993
0
LINE
8
Black
10
25.8221
20
-224.993
11
26.1078
21
-224.565
0
LINE
8
Black
10
26.1078
20
-224.565
11
26.2506
21
-223.993
0
LINE
8
Black
10
26.2506
20
-223.993
11
26.2506
21
-222.851
0
LINE
8
Black
10
26.2506
20
-222.851
11
26.1078
21
-222.565
0
LINE
8
Black
10
26.1078
20
-222.565
11
25.9649
21
-222.422
0
LINE
8
Black
10
25.9649
20
-222.422
11
25.6792
21
-222.279
0
LINE
8
Black
10
25.6792
20
-222.279
11
25.1078
21
-222.279
0
LINE
8
Black
10
25.1078
20
-222.279
11
24.8221
21
-222.422
0
LINE
8
Black
10
24.8221
20
-222.422
11
24.6792
21
-222.565
0
LINE
8
Black
10
24.6792
20
-222.565
11
24.5363
21
-222.851
0
LINE
8
Black
10
24.5363
20
-222.851
11
24.5363
21
-223.565
0
LINE
8
Black
10
24.5363
20
-223.565
11
24.6792
21
-223.851
0
LINE
8
Black
10
24.6792
20
-223.851
11
24.8221
21
-223.993
0
LINE
8
Black
10
24.8221
20
-223.993
11
25.1078
21
-224.136
0
LINE
8
Black
10
25.1078
20
-224.136
11
25.6792
21
-224.136
0
LINE
8
Black
10
25.6792
20
-224.136
11
25.9649
21
-223.993
0
LINE
8
Black
10
25.9649
20
-223.993
11
26.1078
21
-223.851
0
LINE
8
Black
10
26.1078
20
-223.851
11
26.2506
21
-223.565
0
LINE
8
Black
10
28.9649
20
-222.279
11
27.5363
21
-222.279
0
LINE
8
Black
10
27.5363
20
-222.279
11
27.3935
21
-223.708
0
LINE
8
Black
10
27.3935
20
-223.708
11
27.5363
21
-223.565
0
LINE
8
Black
10
27.5363
20
-223.565
11
27.8221
21
-223.422
0
LINE
8
Black
10
27.8221
20
-223.422
11
28.5363
21
-223.422
0
LINE
8
Black
10
28.5363
20
-223.422
11
28.8221
21
-223.565
0
LINE
8
Black
10
28.8221
20
-223.565
11
28.9649
21
-223.708
0
LINE
8
Black
10
28.9649
20
-223.708
11
29.1078
21
-223.993
0
LINE
8
Black
10
29.1078
20
-223.993
11
29.1078
21
-224.708
0
LINE
8
Black
10
29.1078
20
-224.708
11
28.9649
21
-224.993
0
LINE
8
Black
10
28.9649
20
-224.993
11
28.8221
21
-225.136
0
LINE
8
Black
10
28.8221
20
-225.136
11
28.5363
21
-225.279
0
LINE
8
Black
10
28.5363
20
-225.279
11
27.8221
21
-225.279
0
LINE
8
Black
10
27.8221
20
-225.279
11
27.5363
21
-225.136
0
LINE
8
Black
10
27.5363
20
-225.136
11
27.3935
21
-224.993
0
LINE
8
Black
10
30.3935
20
-225.279
11
30.3935
21
-223.279
0
LINE
8
Black
10
30.3935
20
-223.565
11
30.5363
21
-223.422
0
LINE
8
Black
10
30.5363
20
-223.422
11
30.8221
21
-223.279
0
LINE
8
Black
10
30.8221
20
-223.279
11
31.2506
21
-223.279
0
LINE
8
Black
10
31.2506
20
-223.279
11
31.5363
21
-223.422
0
LINE
8
Black
10
31.5363
20
-223.422
11
31.6792
21
-223.708
0
LINE
8
Black
10
31.6792
20
-223.708
11
31.6792
21
-225.279
0
LINE
8
Black
10
31.6792
20
-223.708
11
31.8221
21
-223.422
0
LINE
8
Black
10
31.8221
20
-223.422
11
32.1078
21
-223.279
0
LINE
8
Black
10
32.1078
20
-223.279
11
32.5363
21
-223.279
0
LINE
8
Black
10
32.5363
20
-223.279
11
32.8221
21
-223.422
0
LINE
8
Black
10
32.8221
20
-223.422
11
32.9649
21
-223.708
0
LINE
8
Black
10
32.9649
20
-223.708
11
32.9649
21
-225.279
0
LINE
8
Black
10
34.3935
20
-225.279
11
34.3935
21
-223.279
0
LINE
8
Black
10
34.3935
20
-223.565
11
34.5363
21
-223.422
0
LINE
8
Black
10
34.5363
20
-223.422
11
34.8221
21
-223.279
0
LINE
8
Black
10
34.8221
20
-223.279
11
35.2506
21
-223.279
0
LINE
8
Black
10
35.2506
20
-223.279
11
35.5363
21
-223.422
0
LINE
8
Black
10
35.5363
20
-223.422
11
35.6792
21
-223.708
0
LINE
8
Black
10
35.6792
20
-223.708
11
35.6792
21
-225.279
0
LINE
8
Black
10
35.6792
20
-223.708
11
35.8221
21
-223.422
0
LINE
8
Black
10
35.8221
20
-223.422
11
36.1078
21
-223.279
0
LINE
8
Black
10
36.1078
20
-223.279
11
36.5363
21
-223.279
0
LINE
8
Black
10
36.5363
20
-223.279
11
36.8221
21
-223.422
0
LINE
8
Black
10
36.8221
20
-223.422
11
36.9649
21
-223.708
0
LINE
8
Black
10
36.9649
20
-223.708
11
36.9649
21
-225.279
0
LINE
8
Black
10
42.8221
20
-222.136
11
40.2506
21
-225.993
0
LINE
8
Black
10
46.6792
20
-222.279
11
46.9649
21
-222.279
0
LINE
8
Black
10
46.9649
20
-222.279
11
47.2506
21
-222.422
0
LINE
8
Black
10
47.2506
20
-222.422
11
47.3935
21
-222.565
0
LINE
8
Black
10
47.3935
20
-222.565
11
47.5363
21
-222.851
0
LINE
8
Black
10
47.5363
20
-222.851
11
47.6792
21
-223.422
0
LINE
8
Black
10
47.6792
20
-223.422
11
47.6792
21
-224.136
0
LINE
8
Black
10
47.6792
20
-224.136
11
47.5363
21
-224.708
0
LINE
8
Black
10
47.5363
20
-224.708
11
47.3935
21
-224.993
0
LINE
8
Black
10
47.3935
20
-224.993
11
47.2506
21
-225.136
0
LINE
8
Black
10
47.2506
20
-225.136
11
46.9649
21
-225.279
0
LINE
8
Black
10
46.9649
20
-225.279
11
46.6792
21
-225.279
0
LINE
8
Black
10
46.6792
20
-225.279
11
46.3935
21
-225.136
0
LINE
8
Black
10
46.3935
20
-225.136
11
46.2506
21
-224.993
0
LINE
8
Black
10
46.2506
20
-224.993
11
46.1078
21
-224.708
0
LINE
8
Black
10
46.1078
20
-224.708
11
45.9649
21
-224.136
0
LINE
8
Black
10
45.9649
20
-224.136
11
45.9649
21
-223.422
0
LINE
8
Black
10
45.9649
20
-223.422
11
46.1078
21
-222.851
0
LINE
8
Black
10
46.1078
20
-222.851
11
46.2506
21
-222.565
0
LINE
8
Black
10
46.2506
20
-222.565
11
46.3935
21
-222.422
0
LINE
8
Black
10
46.3935
20
-222.422
11
46.6792
21
-222.279
0
LINE
8
Black
10
48.9649
20
-224.993
11
49.1078
21
-225.136
0
LINE
8
Black
10
49.1078
20
-225.136
11
48.9649
21
-225.279
0
LINE
8
Black
10
48.9649
20
-225.279
11
48.8221
21
-225.136
0
LINE
8
Black
10
48.8221
20
-225.136
11
48.9649
21
-224.993
0
LINE
8
Black
10
48.9649
20
-224.993
11
48.9649
21
-225.279
0
LINE
8
Black
10
51.9649
20
-225.279
11
50.2506
21
-225.279
0
LINE
8
Black
10
51.1078
20
-225.279
11
51.1078
21
-222.279
0
LINE
8
Black
10
51.1078
20
-222.279
11
50.8221
21
-222.708
0
LINE
8
Black
10
50.8221
20
-222.708
11
50.5363
21
-222.993
0
LINE
8
Black
10
50.5363
20
-222.993
11
50.2506
21
-223.136
0
LINE
8
Black
10
54.8221
20
-225.279
11
53.1078
21
-225.279
0
LINE
8
Black
10
53.9649
20
-225.279
11
53.9649
21
-222.279
0
LINE
8
Black
10
53.9649
20
-222.279
11
53.6792
21
-222.708
0
LINE
8
Black
10
53.6792
20
-222.708
11
53.3935
21
-222.993
0
LINE
8
Black
10
53.3935
20
-222.993
11
53.1078
21
-223.136
0
LINE
8
Black
10
57.3935
20
-222.279
11
56.8221
21
-222.279
0
LINE
8
Black
10
56.8221
20
-222.279
11
56.5363
21
-222.422
0
LINE
8
Black
10
56.5363
20
-222.422
11
56.3935
21
-222.565
0
LINE
8
Black
10
56.3935
20
-222.565
11
56.1078
21
-222.993
0
LINE
8
Black
10
56.1078
20
-222.993
11
55.9649
21
-223.565
0
LINE
8
Black
10
55.9649
20
-223.565
11
55.9649
21
-224.708
0
LINE
8
Black
10
55.9649
20
-224.708
11
56.1078
21
-224.993
0
LINE
8
Black
10
56.1078
20
-224.993
11
56.2506
21
-225.136
0
LINE
8
Black
10
56.2506
20
-225.136
11
56.5363
21
-225.279
0
LINE
8
Black
10
56.5363
20
-225.279
11
57.1078
21
-225.279
0
LINE
8
Black
10
57.1078
20
-225.279
11
57.3935
21
-225.136
0
LINE
8
Black
10
57.3935
20
-225.136
11
57.5363
21
-224.993
0
LINE
8
Black
10
57.5363
20
-224.993
11
57.6792
21
-224.708
0
LINE
8
Black
10
57.6792
20
-224.708
11
57.6792
21
-223.993
0
LINE
8
Black
10
57.6792
20
-223.993
11
57.5363
21
-223.708
0
LINE
8
Black
10
57.5363
20
-223.708
11
57.3935
21
-223.565
0
LINE
8
Black
10
57.3935
20
-223.565
11
57.1078
21
-223.422
0
LINE
8
Black
10
57.1078
20
-223.422
11
56.5363
21
-223.422
0
LINE
8
Black
10
56.5363
20
-223.422
11
56.2506
21
-223.565
0
LINE
8
Black
10
56.2506
20
-223.565
11
56.1078
21
-223.708
0
LINE
8
Black
10
56.1078
20
-223.708
11
55.9649
21
-223.993
0
LINE
8
Black
10
58.8221
20
-222.279
11
58.8221
21
-222.851
0
LINE
8
Black
10
59.9649
20
-222.279
11
59.9649
21
-222.851
0
LINE
8
Black
10
64.3935
20
-226.422
11
64.2506
21
-226.279
0
LINE
8
Black
10
64.2506
20
-226.279
11
63.9649
21
-225.851
0
LINE
8
Black
10
63.9649
20
-225.851
11
63.8221
21
-225.565
0
LINE
8
Black
10
63.8221
20
-225.565
11
63.6792
21
-225.136
0
LINE
8
Black
10
63.6792
20
-225.136
11
63.5363
21
-224.422
0
LINE
8
Black
10
63.5363
20
-224.422
11
63.5363
21
-223.851
0
LINE
8
Black
10
63.5363
20
-223.851
11
63.6792
21
-223.136
0
LINE
8
Black
10
63.6792
20
-223.136
11
63.8221
21
-222.708
0
LINE
8
Black
10
63.8221
20
-222.708
11
63.9649
21
-222.422
0
LINE
8
Black
10
63.9649
20
-222.422
11
64.2506
21
-221.993
0
LINE
8
Black
10
64.2506
20
-221.993
11
64.3935
21
-221.851
0
LINE
8
Black
10
65.9649
20
-223.565
11
65.6792
21
-223.422
0
LINE
8
Black
10
65.6792
20
-223.422
11
65.5363
21
-223.279
0
LINE
8
Black
10
65.5363
20
-223.279
11
65.3935
21
-222.993
0
LINE
8
Black
10
65.3935
20
-222.993
11
65.3935
21
-222.851
0
LINE
8
Black
10
65.3935
20
-222.851
11
65.5363
21
-222.565
0
LINE
8
Black
10
65.5363
20
-222.565
11
65.6792
21
-222.422
0
LINE
8
Black
10
65.6792
20
-222.422
11
65.9649
21
-222.279
0
LINE
8
Black
10
65.9649
20
-222.279
11
66.5363
21
-222.279
0
LINE
8
Black
10
66.5363
20
-222.279
11
66.8221
21
-222.422
0
LINE
8
Black
10
66.8221
20
-222.422
11
66.9649
21
-222.565
0
LINE
8
Black
10
66.9649
20
-222.565
11
67.1078
21
-222.851
0
LINE
8
Black
10
67.1078
20
-222.851
11
67.1078
21
-222.993
0
LINE
8
Black
10
67.1078
20
-222.993
11
66.9649
21
-223.279
0
LINE
8
Black
10
66.9649
20
-223.279
11
66.8221
21
-223.422
0
LINE
8
Black
10
66.8221
20
-223.422
11
66.5363
21
-223.565
0
LINE
8
Black
10
66.5363
20
-223.565
11
65.9649
21
-223.565
0
LINE
8
Black
10
65.9649
20
-223.565
11
65.6792
21
-223.708
0
LINE
8
Black
10
65.6792
20
-223.708
11
65.5363
21
-223.851
0
LINE
8
Black
10
65.5363
20
-223.851
11
65.3935
21
-224.136
0
LINE
8
Black
10
65.3935
20
-224.136
11
65.3935
21
-224.708
0
LINE
8
Black
10
65.3935
20
-224.708
11
65.5363
21
-224.993
0
LINE
8
Black
10
65.5363
20
-224.993
11
65.6792
21
-225.136
0
LINE
8
Black
10
65.6792
20
-225.136
11
65.9649
21
-225.279
0
LINE
8
Black
10
65.9649
20
-225.279
11
66.5363
21
-225.279
0
LINE
8
Black
10
66.5363
20
-225.279
11
66.8221
21
-225.136
0
LINE
8
Black
10
66.8221
20
-225.136
11
66.9649
21
-224.993
0
LINE
8
Black
10
66.9649
20
-224.993
11
67.1078
21
-224.708
0
LINE
8
Black
10
67.1078
20
-224.708
11
67.1078
21
-224.136
0
LINE
8
Black
10
67.1078
20
-224.136
11
66.9649
21
-223.851
0
LINE
8
Black
10
66.9649
20
-223.851
11
66.8221
21
-223.708
0
LINE
8
Black
10
66.8221
20
-223.708
11
66.5363
21
-223.565
0
LINE
8
Black
10
70.6792
20
-225.279
11
70.6792
21
-222.279
0
LINE
8
Black
10
71.9649
20
-225.279
11
71.9649
21
-223.708
0
LINE
8
Black
10
71.9649
20
-223.708
11
71.8221
21
-223.422
0
LINE
8
Black
10
71.8221
20
-223.422
11
71.5363
21
-223.279
0
LINE
8
Black
10
71.5363
20
-223.279
11
71.1078
21
-223.279
0
LINE
8
Black
10
71.1078
20
-223.279
11
70.8221
21
-223.422
0
LINE
8
Black
10
70.8221
20
-223.422
11
70.6792
21
-223.565
0
LINE
8
Black
10
73.8221
20
-225.279
11
73.5363
21
-225.136
0
LINE
8
Black
10
73.5363
20
-225.136
11
73.3935
21
-224.993
0
LINE
8
Black
10
73.3935
20
-224.993
11
73.2506
21
-224.708
0
LINE
8
Black
10
73.2506
20
-224.708
11
73.2506
21
-223.851
0
LINE
8
Black
10
73.2506
20
-223.851
11
73.3935
21
-223.565
0
LINE
8
Black
10
73.3935
20
-223.565
11
73.5363
21
-223.422
0
LINE
8
Black
10
73.5363
20
-223.422
11
73.8221
21
-223.279
0
LINE
8
Black
10
73.8221
20
-223.279
11
74.2506
21
-223.279
0
LINE
8
Black
10
74.2506
20
-223.279
11
74.5363
21
-223.422
0
LINE
8
Black
10
74.5363
20
-223.422
11
74.6792
21
-223.565
0
LINE
8
Black
10
74.6792
20
-223.565
11
74.8221
21
-223.851
0
LINE
8
Black
10
74.8221
20
-223.851
11
74.8221
21
-224.708
0
LINE
8
Black
10
74.8221
20
-224.708
11
74.6792
21
-224.993
0
LINE
8
Black
10
74.6792
20
-224.993
11
74.5363
21
-225.136
0
LINE
8
Black
10
74.5363
20
-225.136
11
74.2506
21
-225.279
0
LINE
8
Black
10
74.2506
20
-225.279
11
73.8221
21
-225.279
0
LINE
8
Black
10
76.5363
20
-225.279
11
76.2506
21
-225.136
0
LINE
8
Black
10
76.2506
20
-225.136
11
76.1078
21
-224.851
0
LINE
8
Black
10
76.1078
20
-224.851
11
76.1078
21
-222.279
0
LINE
8
Black
10
78.8221
20
-225.136
11
78.5363
21
-225.279
0
LINE
8
Black
10
78.5363
20
-225.279
11
77.9649
21
-225.279
0
LINE
8
Black
10
77.9649
20
-225.279
11
77.6792
21
-225.136
0
LINE
8
Black
10
77.6792
20
-225.136
11
77.5363
21
-224.851
0
LINE
8
Black
10
77.5363
20
-224.851
11
77.5363
21
-223.708
0
LINE
8
Black
10
77.5363
20
-223.708
11
77.6792
21
-223.422
0
LINE
8
Black
10
77.6792
20
-223.422
11
77.9649
21
-223.279
0
LINE
8
Black
10
77.9649
20
-223.279
11
78.5363
21
-223.279
0
LINE
8
Black
10
78.5363
20
-223.279
11
78.8221
21
-223.422
0
LINE
8
Black
10
78.8221
20
-223.422
11
78.9649
21
-223.708
0
LINE
8
Black
10
78.9649
20
-223.708
11
78.9649
21
-223.993
0
LINE
8
Black
10
78.9649
20
-223.993
11
77.5363
21
-224.279
0
LINE
8
Black
10
80.1078
20
-225.136
11
80.3935
21
-225.279
0
LINE
8
Black
10
80.3935
20
-225.279
11
80.9649
21
-225.279
0
LINE
8
Black
10
80.9649
20
-225.279
11
81.2506
21
-225.136
0
LINE
8
Black
10
81.2506
20
-225.136
11
81.3935
21
-224.851
0
LINE
8
Black
10
81.3935
20
-224.851
11
81.3935
21
-224.708
0
LINE
8
Black
10
81.3935
20
-224.708
11
81.2506
21
-224.422
0
LINE
8
Black
10
81.2506
20
-224.422
11
80.9649
21
-224.279
0
LINE
8
Black
10
80.9649
20
-224.279
11
80.5363
21
-224.279
0
LINE
8
Black
10
80.5363
20
-224.279
11
80.2506
21
-224.136
0
LINE
8
Black
10
80.2506
20
-224.136
11
80.1078
21
-223.851
0
LINE
8
Black
10
80.1078
20
-223.851
11
80.1078
21
-223.708
0
LINE
8
Black
10
80.1078
20
-223.708
11
80.2506
21
-223.422
0
LINE
8
Black
10
80.2506
20
-223.422
11
80.5363
21
-223.279
0
LINE
8
Black
10
80.5363
20
-223.279
11
80.9649
21
-223.279
0
LINE
8
Black
10
80.9649
20
-223.279
11
81.2506
21
-223.422
0
LINE
8
Black
10
82.3935
20
-226.422
11
82.5363
21
-226.279
0
LINE
8
Black
10
82.5363
20
-226.279
11
82.8221
21
-225.851
0
LINE
8
Black
10
82.8221
20
-225.851
11
82.9649
21
-225.565
0
LINE
8
Black
10
82.9649
20
-225.565
11
83.1078
21
-225.136
0
LINE
8
Black
10
83.1078
20
-225.136
11
83.2506
21
-224.422
0
LINE
8
Black
10
83.2506
20
-224.422
11
83.2506
21
-223.851
0
LINE
8
Black
10
83.2506
20
-223.851
11
83.1078
21
-223.136
0
LINE
8
Black
10
83.1078
20
-223.136
11
82.9649
21
-222.708
0
LINE
8
Black
10
82.9649
20
-222.708
11
82.8221
21
-222.422
0
LINE
8
Black
10
82.8221
20
-222.422
11
82.5363
21
-221.993
0
LINE
8
Black
10
82.5363
20
-221.993
11
82.3935
21
-221.851
0
LINE
8
Black
10
87.8221
20
-226.422
11
87.6792
21
-226.279
0
LINE
8
Black
10
87.6792
20
-226.279
11
87.3935
21
-225.851
0
LINE
8
Black
10
87.3935
20
-225.851
11
87.2506
21
-225.565
0
LINE
8
Black
10
87.2506
20
-225.565
11
87.1078
21
-225.136
0
LINE
8
Black
10
87.1078
20
-225.136
11
86.9649
21
-224.422
0
LINE
8
Black
10
86.9649
20
-224.422
11
86.9649
21
-223.851
0
LINE
8
Black
10
86.9649
20
-223.851
11
87.1078
21
-223.136
0
LINE
8
Black
10
87.1078
20
-223.136
11
87.2506
21
-222.708
0
LINE
8
Black
10
87.2506
20
-222.708
11
87.3935
21
-222.422
0
LINE
8
Black
10
87.3935
20
-222.422
11
87.6792
21
-221.993
0
LINE
8
Black
10
87.6792
20
-221.993
11
87.8221
21
-221.851
0
LINE
8
Black
10
88.9649
20
-223.279
11
88.9649
21
-225.279
0
LINE
8
Black
10
88.9649
20
-223.565
11
89.1078
21
-223.422
0
LINE
8
Black
10
89.1078
20
-223.422
11
89.3935
21
-223.279
0
LINE
8
Black
10
89.3935
20
-223.279
11
89.8221
21
-223.279
0
LINE
8
Black
10
89.8221
20
-223.279
11
90.1078
21
-223.422
0
LINE
8
Black
10
90.1078
20
-223.422
11
90.2506
21
-223.708
0
LINE
8
Black
10
90.2506
20
-223.708
11
90.2506
21
-225.279
0
LINE
8
Black
10
92.1078
20
-225.279
11
91.8221
21
-225.136
0
LINE
8
Black
10
91.8221
20
-225.136
11
91.6792
21
-224.993
0
LINE
8
Black
10
91.6792
20
-224.993
11
91.5363
21
-224.708
0
LINE
8
Black
10
91.5363
20
-224.708
11
91.5363
21
-223.851
0
LINE
8
Black
10
91.5363
20
-223.851
11
91.6792
21
-223.565
0
LINE
8
Black
10
91.6792
20
-223.565
11
91.8221
21
-223.422
0
LINE
8
Black
10
91.8221
20
-223.422
11
92.1078
21
-223.279
0
LINE
8
Black
10
92.1078
20
-223.279
11
92.5363
21
-223.279
0
LINE
8
Black
10
92.5363
20
-223.279
11
92.8221
21
-223.422
0
LINE
8
Black
10
92.8221
20
-223.422
11
92.9649
21
-223.565
0
LINE
8
Black
10
92.9649
20
-223.565
11
93.1078
21
-223.851
0
LINE
8
Black
10
93.1078
20
-223.851
11
93.1078
21
-224.708
0
LINE
8
Black
10
93.1078
20
-224.708
11
92.9649
21
-224.993
0
LINE
8
Black
10
92.9649
20
-224.993
11
92.8221
21
-225.136
0
LINE
8
Black
10
92.8221
20
-225.136
11
92.5363
21
-225.279
0
LINE
8
Black
10
92.5363
20
-225.279
11
92.1078
21
-225.279
0
LINE
8
Black
10
93.9649
20
-223.279
11
95.1078
21
-223.279
0
LINE
8
Black
10
94.3935
20
-222.279
11
94.3935
21
-224.851
0
LINE
8
Black
10
94.3935
20
-224.851
11
94.5363
21
-225.136
0
LINE
8
Black
10
94.5363
20
-225.136
11
94.8221
21
-225.279
0
LINE
8
Black
10
94.8221
20
-225.279
11
95.1078
21
-225.279
0
LINE
8
Black
10
98.3935
20
-223.279
11
98.3935
21
-226.279
0
LINE
8
Black
10
98.3935
20
-223.422
11
98.6792
21
-223.279
0
LINE
8
Black
10
98.6792
20
-223.279
11
99.2506
21
-223.279
0
LINE
8
Black
10
99.2506
20
-223.279
11
99.5363
21
-223.422
0
LINE
8
Black
10
99.5363
20
-223.422
11
99.6792
21
-223.565
0
LINE
8
Black
10
99.6792
20
-223.565
11
99.8221
21
-223.851
0
LINE
8
Black
10
99.8221
20
-223.851
11
99.8221
21
-224.708
0
LINE
8
Black
10
99.8221
20
-224.708
11
99.6792
21
-224.993
0
LINE
8
Black
10
99.6792
20
-224.993
11
99.5363
21
-225.136
0
LINE
8
Black
10
99.5363
20
-225.136
11
99.2506
21
-225.279
0
LINE
8
Black
10
99.2506
20
-225.279
11
98.6792
21
-225.279
0
LINE
8
Black
10
98.6792
20
-225.279
11
98.3935
21
-225.136
0
LINE
8
Black
10
101.536
20
-225.279
11
101.251
21
-225.136
0
LINE
8
Black
10
101.251
20
-225.136
11
101.108
21
-224.851
0
LINE
8
Black
10
101.108
20
-224.851
11
101.108
21
-222.279
0
LINE
8
Black
10
103.965
20
-225.279
11
103.965
21
-223.708
0
LINE
8
Black
10
103.965
20
-223.708
11
103.822
21
-223.422
0
LINE
8
Black
10
103.822
20
-223.422
11
103.536
21
-223.279
0
LINE
8
Black
10
103.536
20
-223.279
11
102.965
21
-223.279
0
LINE
8
Black
10
102.965
20
-223.279
11
102.679
21
-223.422
0
LINE
8
Black
10
103.965
20
-225.136
11
103.679
21
-225.279
0
LINE
8
Black
10
103.679
20
-225.279
11
102.965
21
-225.279
0
LINE
8
Black
10
102.965
20
-225.279
11
102.679
21
-225.136
0
LINE
8
Black
10
102.679
20
-225.136
11
102.536
21
-224.851
0
LINE
8
Black
10
102.536
20
-224.851
11
102.536
21
-224.565
0
LINE
8
Black
10
102.536
20
-224.565
11
102.679
21
-224.279
0
LINE
8
Black
10
102.679
20
-224.279
11
102.965
21
-224.136
0
LINE
8
Black
10
102.965
20
-224.136
11
103.679
21
-224.136
0
LINE
8
Black
10
103.679
20
-224.136
11
103.965
21
-223.993
0
LINE
8
Black
10
104.965
20
-223.279
11
106.108
21
-223.279
0
LINE
8
Black
10
105.393
20
-222.279
11
105.393
21
-224.851
0
LINE
8
Black
10
105.393
20
-224.851
11
105.536
21
-225.136
0
LINE
8
Black
10
105.536
20
-225.136
11
105.822
21
-225.279
0
LINE
8
Black
10
105.822
20
-225.279
11
106.108
21
-225.279
0
LINE
8
Black
10
108.251
20
-225.136
11
107.965
21
-225.279
0
LINE
8
Black
10
107.965
20
-225.279
11
107.393
21
-225.279
0
LINE
8
Black
10
107.393
20
-225.279
11
107.108
21
-225.136
0
LINE
8
Black
10
107.108
20
-225.136
11
106.965
21
-224.851
0
LINE
8
Black
10
106.965
20
-224.851
11
106.965
21
-223.708
0
LINE
8
Black
10
106.965
20
-223.708
11
107.108
21
-223.422
0
LINE
8
Black
10
107.108
20
-223.422
11
107.393
21
-223.279
0
LINE
8
Black
10
107.393
20
-223.279
11
107.965
21
-223.279
0
LINE
8
Black
10
107.965
20
-223.279
11
108.251
21
-223.422
0
LINE
8
Black
10
108.251
20
-223.422
11
108.393
21
-223.708
0
LINE
8
Black
10
108.393
20
-223.708
11
108.393
21
-223.993
0
LINE
8
Black
10
108.393
20
-223.993
11
106.965
21
-224.279
0
LINE
8
Black
10
110.965
20
-225.279
11
110.965
21
-222.279
0
LINE
8
Black
10
110.965
20
-225.136
11
110.679
21
-225.279
0
LINE
8
Black
10
110.679
20
-225.279
11
110.108
21
-225.279
0
LINE
8
Black
10
110.108
20
-225.279
11
109.822
21
-225.136
0
LINE
8
Black
10
109.822
20
-225.136
11
109.679
21
-224.993
0
LINE
8
Black
10
109.679
20
-224.993
11
109.536
21
-224.708
0
LINE
8
Black
10
109.536
20
-224.708
11
109.536
21
-223.851
0
LINE
8
Black
10
109.536
20
-223.851
11
109.679
21
-223.565
0
LINE
8
Black
10
109.679
20
-223.565
11
109.822
21
-223.422
0
LINE
8
Black
10
109.822
20
-223.422
11
110.108
21
-223.279
0
LINE
8
Black
10
110.108
20
-223.279
11
110.679
21
-223.279
0
LINE
8
Black
10
110.679
20
-223.279
11
110.965
21
-223.422
0
LINE
8
Black
10
112.108
20
-226.422
11
112.251
21
-226.279
0
LINE
8
Black
10
112.251
20
-226.279
11
112.536
21
-225.851
0
LINE
8
Black
10
112.536
20
-225.851
11
112.679
21
-225.565
0
LINE
8
Black
10
112.679
20
-225.565
11
112.822
21
-225.136
0
LINE
8
Black
10
112.822
20
-225.136
11
112.965
21
-224.422
0
LINE
8
Black
10
112.965
20
-224.422
11
112.965
21
-223.851
0
LINE
8
Black
10
112.965
20
-223.851
11
112.822
21
-223.136
0
LINE
8
Black
10
112.822
20
-223.136
11
112.679
21
-222.708
0
LINE
8
Black
10
112.679
20
-222.708
11
112.536
21
-222.422
0
LINE
8
Black
10
112.536
20
-222.422
11
112.251
21
-221.993
0
LINE
8
Black
10
112.251
20
-221.993
11
112.108
21
-221.851
0
LINE
8
Black
10
15.4292
20
-225.922
11
15.4292
21
-230.422
0
LINE
8
Black
10
13.1792
20
-228.172
11
17.6792
21
-228.172
0
LINE
8
Black
10
21.6792
20
-227.529
11
21.6792
21
-229.529
0
LINE
8
Black
10
20.9649
20
-226.386
11
20.2506
21
-228.529
0
LINE
8
Black
10
20.2506
20
-228.529
11
22.1078
21
-228.529
0
LINE
8
Black
10
23.2506
20
-229.243
11
23.3935
21
-229.386
0
LINE
8
Black
10
23.3935
20
-229.386
11
23.2506
21
-229.529
0
LINE
8
Black
10
23.2506
20
-229.529
11
23.1078
21
-229.386
0
LINE
8
Black
10
23.1078
20
-229.386
11
23.2506
21
-229.243
0
LINE
8
Black
10
23.2506
20
-229.243
11
23.2506
21
-229.529
0
LINE
8
Black
10
26.1078
20
-226.529
11
24.6792
21
-226.529
0
LINE
8
Black
10
24.6792
20
-226.529
11
24.5363
21
-227.958
0
LINE
8
Black
10
24.5363
20
-227.958
11
24.6792
21
-227.815
0
LINE
8
Black
10
24.6792
20
-227.815
11
24.9649
21
-227.672
0
LINE
8
Black
10
24.9649
20
-227.672
11
25.6792
21
-227.672
0
LINE
8
Black
10
25.6792
20
-227.672
11
25.9649
21
-227.815
0
LINE
8
Black
10
25.9649
20
-227.815
11
26.1078
21
-227.958
0
LINE
8
Black
10
26.1078
20
-227.958
11
26.2506
21
-228.243
0
LINE
8
Black
10
26.2506
20
-228.243
11
26.2506
21
-228.958
0
LINE
8
Black
10
26.2506
20
-228.958
11
26.1078
21
-229.243
0
LINE
8
Black
10
26.1078
20
-229.243
11
25.9649
21
-229.386
0
LINE
8
Black
10
25.9649
20
-229.386
11
25.6792
21
-229.529
0
LINE
8
Black
10
25.6792
20
-229.529
11
24.9649
21
-229.529
0
LINE
8
Black
10
24.9649
20
-229.529
11
24.6792
21
-229.386
0
LINE
8
Black
10
24.6792
20
-229.386
11
24.5363
21
-229.243
0
LINE
8
Black
10
28.1078
20
-226.529
11
28.3935
21
-226.529
0
LINE
8
Black
10
28.3935
20
-226.529
11
28.6792
21
-226.672
0
LINE
8
Black
10
28.6792
20
-226.672
11
28.8221
21
-226.815
0
LINE
8
Black
10
28.8221
20
-226.815
11
28.9649
21
-227.101
0
LINE
8
Black
10
28.9649
20
-227.101
11
29.1078
21
-227.672
0
LINE
8
Black
10
29.1078
20
-227.672
11
29.1078
21
-228.386
0
LINE
8
Black
10
29.1078
20
-228.386
11
28.9649
21
-228.958
0
LINE
8
Black
10
28.9649
20
-228.958
11
28.8221
21
-229.243
0
LINE
8
Black
10
28.8221
20
-229.243
11
28.6792
21
-229.386
0
LINE
8
Black
10
28.6792
20
-229.386
11
28.3935
21
-229.529
0
LINE
8
Black
10
28.3935
20
-229.529
11
28.1078
21
-229.529
0
LINE
8
Black
10
28.1078
20
-229.529
11
27.8221
21
-229.386
0
LINE
8
Black
10
27.8221
20
-229.386
11
27.6792
21
-229.243
0
LINE
8
Black
10
27.6792
20
-229.243
11
27.5363
21
-228.958
0
LINE
8
Black
10
27.5363
20
-228.958
11
27.3935
21
-228.386
0
LINE
8
Black
10
27.3935
20
-228.386
11
27.3935
21
-227.672
0
LINE
8
Black
10
27.3935
20
-227.672
11
27.5363
21
-227.101
0
LINE
8
Black
10
27.5363
20
-227.101
11
27.6792
21
-226.815
0
LINE
8
Black
10
27.6792
20
-226.815
11
27.8221
21
-226.672
0
LINE
8
Black
10
27.8221
20
-226.672
11
28.1078
21
-226.529
0
LINE
8
Black
10
30.3935
20
-229.529
11
30.3935
21
-227.529
0
LINE
8
Black
10
30.3935
20
-227.815
11
30.5363
21
-227.672
0
LINE
8
Black
10
30.5363
20
-227.672
11
30.8221
21
-227.529
0
LINE
8
Black
10
30.8221
20
-227.529
11
31.2506
21
-227.529
0
LINE
8
Black
10
31.2506
20
-227.529
11
31.5363
21
-227.672
0
LINE
8
Black
10
31.5363
20
-227.672
11
31.6792
21
-227.958
0
LINE
8
Black
10
31.6792
20
-227.958
11
31.6792
21
-229.529
0
LINE
8
Black
10
31.6792
20
-227.958
11
31.8221
21
-227.672
0
LINE
8
Black
10
31.8221
20
-227.672
11
32.1078
21
-227.529
0
LINE
8
Black
10
32.1078
20
-227.529
11
32.5363
21
-227.529
0
LINE
8
Black
10
32.5363
20
-227.529
11
32.8221
21
-227.672
0
LINE
8
Black
10
32.8221
20
-227.672
11
32.9649
21
-227.958
0
LINE
8
Black
10
32.9649
20
-227.958
11
32.9649
21
-229.529
0
LINE
8
Black
10
34.3935
20
-229.529
11
34.3935
21
-227.529
0
LINE
8
Black
10
34.3935
20
-227.815
11
34.5363
21
-227.672
0
LINE
8
Black
10
34.5363
20
-227.672
11
34.8221
21
-227.529
0
LINE
8
Black
10
34.8221
20
-227.529
11
35.2506
21
-227.529
0
LINE
8
Black
10
35.2506
20
-227.529
11
35.5363
21
-227.672
0
LINE
8
Black
10
35.5363
20
-227.672
11
35.6792
21
-227.958
0
LINE
8
Black
10
35.6792
20
-227.958
11
35.6792
21
-229.529
0
LINE
8
Black
10
35.6792
20
-227.958
11
35.8221
21
-227.672
0
LINE
8
Black
10
35.8221
20
-227.672
11
36.1078
21
-227.529
0
LINE
8
Black
10
36.1078
20
-227.529
11
36.5363
21
-227.529
0
LINE
8
Black
10
36.5363
20
-227.529
11
36.8221
21
-227.672
0
LINE
8
Black
10
36.8221
20
-227.672
11
36.9649
21
-227.958
0
LINE
8
Black
10
36.9649
20
-227.958
11
36.9649
21
-229.529
0
LINE
8
Black
10
42.8221
20
-226.386
11
40.2506
21
-230.243
0
LINE
8
Black
10
46.6792
20
-226.529
11
46.9649
21
-226.529
0
LINE
8
Black
10
46.9649
20
-226.529
11
47.2506
21
-226.672
0
LINE
8
Black
10
47.2506
20
-226.672
11
47.3935
21
-226.815
0
LINE
8
Black
10
47.3935
20
-226.815
11
47.5363
21
-227.101
0
LINE
8
Black
10
47.5363
20
-227.101
11
47.6792
21
-227.672
0
LINE
8
Black
10
47.6792
20
-227.672
11
47.6792
21
-228.386
0
LINE
8
Black
10
47.6792
20
-228.386
11
47.5363
21
-228.958
0
LINE
8
Black
10
47.5363
20
-228.958
11
47.3935
21
-229.243
0
LINE
8
Black
10
47.3935
20
-229.243
11
47.2506
21
-229.386
0
LINE
8
Black
10
47.2506
20
-229.386
11
46.9649
21
-229.529
0
LINE
8
Black
10
46.9649
20
-229.529
11
46.6792
21
-229.529
0
LINE
8
Black
10
46.6792
20
-229.529
11
46.3935
21
-229.386
0
LINE
8
Black
10
46.3935
20
-229.386
11
46.2506
21
-229.243
0
LINE
8
Black
10
46.2506
20
-229.243
11
46.1078
21
-228.958
0
LINE
8
Black
10
46.1078
20
-228.958
11
45.9649
21
-228.386
0
LINE
8
Black
10
45.9649
20
-228.386
11
45.9649
21
-227.672
0
LINE
8
Black
10
45.9649
20
-227.672
11
46.1078
21
-227.101
0
LINE
8
Black
10
46.1078
20
-227.101
11
46.2506
21
-226.815
0
LINE
8
Black
10
46.2506
20
-226.815
11
46.3935
21
-226.672
0
LINE
8
Black
10
46.3935
20
-226.672
11
46.6792
21
-226.529
0
LINE
8
Black
10
48.9649
20
-229.243
11
49.1078
21
-229.386
0
LINE
8
Black
10
49.1078
20
-229.386
11
48.9649
21
-229.529
0
LINE
8
Black
10
48.9649
20
-229.529
11
48.8221
21
-229.386
0
LINE
8
Black
10
48.8221
20
-229.386
11
48.9649
21
-229.243
0
LINE
8
Black
10
48.9649
20
-229.243
11
48.9649
21
-229.529
0
LINE
8
Black
10
51.9649
20
-229.529
11
50.2506
21
-229.529
0
LINE
8
Black
10
51.1078
20
-229.529
11
51.1078
21
-226.529
0
LINE
8
Black
10
51.1078
20
-226.529
11
50.8221
21
-226.958
0
LINE
8
Black
10
50.8221
20
-226.958
11
50.5363
21
-227.243
0
LINE
8
Black
10
50.5363
20
-227.243
11
50.2506
21
-227.386
0
LINE
8
Black
10
52.9649
20
-226.529
11
54.9649
21
-226.529
0
LINE
8
Black
10
54.9649
20
-226.529
11
53.6792
21
-229.529
0
LINE
8
Black
10
55.8221
20
-226.529
11
57.8221
21
-226.529
0
LINE
8
Black
10
57.8221
20
-226.529
11
56.5363
21
-229.529
0
LINE
8
Black
10
58.8221
20
-226.529
11
58.8221
21
-227.101
0
LINE
8
Black
10
59.9649
20
-226.529
11
59.9649
21
-227.101
0
LINE
8
Black
10
64.3935
20
-230.672
11
64.2506
21
-230.529
0
LINE
8
Black
10
64.2506
20
-230.529
11
63.9649
21
-230.101
0
LINE
8
Black
10
63.9649
20
-230.101
11
63.8221
21
-229.815
0
LINE
8
Black
10
63.8221
20
-229.815
11
63.6792
21
-229.386
0
LINE
8
Black
10
63.6792
20
-229.386
11
63.5363
21
-228.672
0
LINE
8
Black
10
63.5363
20
-228.672
11
63.5363
21
-228.101
0
LINE
8
Black
10
63.5363
20
-228.101
11
63.6792
21
-227.386
0
LINE
8
Black
10
63.6792
20
-227.386
11
63.8221
21
-226.958
0
LINE
8
Black
10
63.8221
20
-226.958
11
63.9649
21
-226.672
0
LINE
8
Black
10
63.9649
20
-226.672
11
64.2506
21
-226.243
0
LINE
8
Black
10
64.2506
20
-226.243
11
64.3935
21
-226.101
0
LINE
8
Black
10
66.8221
20
-227.529
11
66.8221
21
-229.529
0
LINE
8
Black
10
66.1078
20
-226.386
11
65.3935
21
-228.529
0
LINE
8
Black
10
65.3935
20
-228.529
11
67.2506
21
-228.529
0
LINE
8
Black
10
70.6792
20
-229.529
11
70.6792
21
-226.529
0
LINE
8
Black
10
71.9649
20
-229.529
11
71.9649
21
-227.958
0
LINE
8
Black
10
71.9649
20
-227.958
11
71.8221
21
-227.672
0
LINE
8
Black
10
71.8221
20
-227.672
11
71.5363
21
-227.529
0
LINE
8
Black
10
71.5363
20
-227.529
11
71.1078
21
-227.529
0
LINE
8
Black
10
71.1078
20
-227.529
11
70.8221
21
-227.672
0
LINE
8
Black
10
70.8221
20
-227.672
11
70.6792
21
-227.815
0
LINE
8
Black
10
73.8221
20
-229.529
11
73.5363
21
-229.386
0
LINE
8
Black
10
73.5363
20
-229.386
11
73.3935
21
-229.243
0
LINE
8
Black
10
73.3935
20
-229.243
11
73.2506
21
-228.958
0
LINE
8
Black
10
73.2506
20
-228.958
11
73.2506
21
-228.101
0
LINE
8
Black
10
73.2506
20
-228.101
11
73.3935
21
-227.815
0
LINE
8
Black
10
73.3935
20
-227.815
11
73.5363
21
-227.672
0
LINE
8
Black
10
73.5363
20
-227.672
11
73.8221
21
-227.529
0
LINE
8
Black
10
73.8221
20
-227.529
11
74.2506
21
-227.529
0
LINE
8
Black
10
74.2506
20
-227.529
11
74.5363
21
-227.672
0
LINE
8
Black
10
74.5363
20
-227.672
11
74.6792
21
-227.815
0
LINE
8
Black
10
74.6792
20
-227.815
11
74.8221
21
-228.101
0
LINE
8
Black
10
74.8221
20
-228.101
11
74.8221
21
-228.958
0
LINE
8
Black
10
74.8221
20
-228.958
11
74.6792
21
-229.243
0
LINE
8
Black
10
74.6792
20
-229.243
11
74.5363
21
-229.386
0
LINE
8
Black
10
74.5363
20
-229.386
11
74.2506
21
-229.529
0
LINE
8
Black
10
74.2506
20
-229.529
11
73.8221
21
-229.529
0
LINE
8
Black
10
76.5363
20
-229.529
11
76.2506
21
-229.386
0
LINE
8
Black
10
76.2506
20
-229.386
11
76.1078
21
-229.101
0
LINE
8
Black
10
76.1078
20
-229.101
11
76.1078
21
-226.529
0
LINE
8
Black
10
78.8221
20
-229.386
11
78.5363
21
-229.529
0
LINE
8
Black
10
78.5363
20
-229.529
11
77.9649
21
-229.529
0
LINE
8
Black
10
77.9649
20
-229.529
11
77.6792
21
-229.386
0
LINE
8
Black
10
77.6792
20
-229.386
11
77.5363
21
-229.101
0
LINE
8
Black
10
77.5363
20
-229.101
11
77.5363
21
-227.958
0
LINE
8
Black
10
77.5363
20
-227.958
11
77.6792
21
-227.672
0
LINE
8
Black
10
77.6792
20
-227.672
11
77.9649
21
-227.529
0
LINE
8
Black
10
77.9649
20
-227.529
11
78.5363
21
-227.529
0
LINE
8
Black
10
78.5363
20
-227.529
11
78.8221
21
-227.672
0
LINE
8
Black
10
78.8221
20
-227.672
11
78.9649
21
-227.958
0
LINE
8
Black
10
78.9649
20
-227.958
11
78.9649
21
-228.243
0
LINE
8
Black
10
78.9649
20
-228.243
11
77.5363
21
-228.529
0
LINE
8
Black
10
80.1078
20
-229.386
11
80.3935
21
-229.529
0
LINE
8
Black
10
80.3935
20
-229.529
11
80.9649
21
-229.529
0
LINE
8
Black
10
80.9649
20
-229.529
11
81.2506
21
-229.386
0
LINE
8
Black
10
81.2506
20
-229.386
11
81.3935
21
-229.101
0
LINE
8
Black
10
81.3935
20
-229.101
11
81.3935
21
-228.958
0
LINE
8
Black
10
81.3935
20
-228.958
11
81.2506
21
-228.672
0
LINE
8
Black
10
81.2506
20
-228.672
11
80.9649
21
-228.529
0
LINE
8
Black
10
80.9649
20
-228.529
11
80.5363
21
-228.529
0
LINE
8
Black
10
80.5363
20
-228.529
11
80.2506
21
-228.386
0
LINE
8
Black
10
80.2506
20
-228.386
11
80.1078
21
-228.101
0
LINE
8
Black
10
80.1078
20
-228.101
11
80.1078
21
-227.958
0
LINE
8
Black
10
80.1078
20
-227.958
11
80.2506
21
-227.672
0
LINE
8
Black
10
80.2506
20
-227.672
11
80.5363
21
-227.529
0
LINE
8
Black
10
80.5363
20
-227.529
11
80.9649
21
-227.529
0
LINE
8
Black
10
80.9649
20
-227.529
11
81.2506
21
-227.672
0
LINE
8
Black
10
82.3935
20
-230.672
11
82.5363
21
-230.529
0
LINE
8
Black
10
82.5363
20
-230.529
11
82.8221
21
-230.101
0
LINE
8
Black
10
82.8221
20
-230.101
11
82.9649
21
-229.815
0
LINE
8
Black
10
82.9649
20
-229.815
11
83.1078
21
-229.386
0
LINE
8
Black
10
83.1078
20
-229.386
11
83.2506
21
-228.672
0
LINE
8
Black
10
83.2506
20
-228.672
11
83.2506
21
-228.101
0
LINE
8
Black
10
83.2506
20
-228.101
11
83.1078
21
-227.386
0
LINE
8
Black
10
83.1078
20
-227.386
11
82.9649
21
-226.958
0
LINE
8
Black
10
82.9649
20
-226.958
11
82.8221
21
-226.672
0
LINE
8
Black
10
82.8221
20
-226.672
11
82.5363
21
-226.243
0
LINE
8
Black
10
82.5363
20
-226.243
11
82.3935
21
-226.101
0
LINE
8
Black
10
87.8221
20
-230.672
11
87.6792
21
-230.529
0
LINE
8
Black
10
87.6792
20
-230.529
11
87.3935
21
-230.101
0
LINE
8
Black
10
87.3935
20
-230.101
11
87.2506
21
-229.815
0
LINE
8
Black
10
87.2506
20
-229.815
11
87.1078
21
-229.386
0
LINE
8
Black
10
87.1078
20
-229.386
11
86.9649
21
-228.672
0
LINE
8
Black
10
86.9649
20
-228.672
11
86.9649
21
-228.101
0
LINE
8
Black
10
86.9649
20
-228.101
11
87.1078
21
-227.386
0
LINE
8
Black
10
87.1078
20
-227.386
11
87.2506
21
-226.958
0
LINE
8
Black
10
87.2506
20
-226.958
11
87.3935
21
-226.672
0
LINE
8
Black
10
87.3935
20
-226.672
11
87.6792
21
-226.243
0
LINE
8
Black
10
87.6792
20
-226.243
11
87.8221
21
-226.101
0
LINE
8
Black
10
88.9649
20
-227.529
11
88.9649
21
-229.529
0
LINE
8
Black
10
88.9649
20
-227.815
11
89.1078
21
-227.672
0
LINE
8
Black
10
89.1078
20
-227.672
11
89.3935
21
-227.529
0
LINE
8
Black
10
89.3935
20
-227.529
11
89.8221
21
-227.529
0
LINE
8
Black
10
89.8221
20
-227.529
11
90.1078
21
-227.672
0
LINE
8
Black
10
90.1078
20
-227.672
11
90.2506
21
-227.958
0
LINE
8
Black
10
90.2506
20
-227.958
11
90.2506
21
-229.529
0
LINE
8
Black
10
92.1078
20
-229.529
11
91.8221
21
-229.386
0
LINE
8
Black
10
91.8221
20
-229.386
11
91.6792
21
-229.243
0
LINE
8
Black
10
91.6792
20
-229.243
11
91.5363
21
-228.958
0
LINE
8
Black
10
91.5363
20
-228.958
11
91.5363
21
-228.101
0
LINE
8
Black
10
91.5363
20
-228.101
11
91.6792
21
-227.815
0
LINE
8
Black
10
91.6792
20
-227.815
11
91.8221
21
-227.672
0
LINE
8
Black
10
91.8221
20
-227.672
11
92.1078
21
-227.529
0
LINE
8
Black
10
92.1078
20
-227.529
11
92.5363
21
-227.529
0
LINE
8
Black
10
92.5363
20
-227.529
11
92.8221
21
-227.672
0
LINE
8
Black
10
92.8221
20
-227.672
11
92.9649
21
-227.815
0
LINE
8
Black
10
92.9649
20
-227.815
11
93.1078
21
-228.101
0
LINE
8
Black
10
93.1078
20
-228.101
11
93.1078
21
-228.958
0
LINE
8
Black
10
93.1078
20
-228.958
11
92.9649
21
-229.243
0
LINE
8
Black
10
92.9649
20
-229.243
11
92.8221
21
-229.386
0
LINE
8
Black
10
92.8221
20
-229.386
11
92.5363
21
-229.529
0
LINE
8
Black
10
92.5363
20
-229.529
11
92.1078
21
-229.529
0
LINE
8
Black
10
93.9649
20
-227.529
11
95.1078
21
-227.529
0
LINE
8
Black
10
94.3935
20
-226.529
11
94.3935
21
-229.101
0
LINE
8
Black
10
94.3935
20
-229.101
11
94.5363
21
-229.386
0
LINE
8
Black
10
94.5363
20
-229.386
11
94.8221
21
-229.529
0
LINE
8
Black
10
94.8221
20
-229.529
11
95.1078
21
-229.529
0
LINE
8
Black
10
98.3935
20
-227.529
11
98.3935
21
-230.529
0
LINE
8
Black
10
98.3935
20
-227.672
11
98.6792
21
-227.529
0
LINE
8
Black
10
98.6792
20
-227.529
11
99.2506
21
-227.529
0
LINE
8
Black
10
99.2506
20
-227.529
11
99.5363
21
-227.672
0
LINE
8
Black
10
99.5363
20
-227.672
11
99.6792
21
-227.815
0
LINE
8
Black
10
99.6792
20
-227.815
11
99.8221
21
-228.101
0
LINE
8
Black
10
99.8221
20
-228.101
11
99.8221
21
-228.958
0
LINE
8
Black
10
99.8221
20
-228.958
11
99.6792
21
-229.243
0
LINE
8
Black
10
99.6792
20
-229.243
11
99.5363
21
-229.386
0
LINE
8
Black
10
99.5363
20
-229.386
11
99.2506
21
-229.529
0
LINE
8
Black
10
99.2506
20
-229.529
11
98.6792
21
-229.529
0
LINE
8
Black
10
98.6792
20
-229.529
11
98.3935
21
-229.386
0
LINE
8
Black
10
101.536
20
-229.529
11
101.251
21
-229.386
0
LINE
8
Black
10
101.251
20
-229.386
11
101.108
21
-229.101
0
LINE
8
Black
10
101.108
20
-229.101
11
101.108
21
-226.529
0
LINE
8
Black
10
103.965
20
-229.529
11
103.965
21
-227.958
0
LINE
8
Black
10
103.965
20
-227.958
11
103.822
21
-227.672
0
LINE
8
Black
10
103.822
20
-227.672
11
103.536
21
-227.529
0
LINE
8
Black
10
103.536
20
-227.529
11
102.965
21
-227.529
0
LINE
8
Black
10
102.965
20
-227.529
11
102.679
21
-227.672
0
LINE
8
Black
10
103.965
20
-229.386
11
103.679
21
-229.529
0
LINE
8
Black
10
103.679
20
-229.529
11
102.965
21
-229.529
0
LINE
8
Black
10
102.965
20
-229.529
11
102.679
21
-229.386
0
LINE
8
Black
10
102.679
20
-229.386
11
102.536
21
-229.101
0
LINE
8
Black
10
102.536
20
-229.101
11
102.536
21
-228.815
0
LINE
8
Black
10
102.536
20
-228.815
11
102.679
21
-228.529
0
LINE
8
Black
10
102.679
20
-228.529
11
102.965
21
-228.386
0
LINE
8
Black
10
102.965
20
-228.386
11
103.679
21
-228.386
0
LINE
8
Black
10
103.679
20
-228.386
11
103.965
21
-228.243
0
LINE
8
Black
10
104.965
20
-227.529
11
106.108
21
-227.529
0
LINE
8
Black
10
105.393
20
-226.529
11
105.393
21
-229.101
0
LINE
8
Black
10
105.393
20
-229.101
11
105.536
21
-229.386
0
LINE
8
Black
10
105.536
20
-229.386
11
105.822
21
-229.529
0
LINE
8
Black
10
105.822
20
-229.529
11
106.108
21
-229.529
0
LINE
8
Black
10
108.251
20
-229.386
11
107.965
21
-229.529
0
LINE
8
Black
10
107.965
20
-229.529
11
107.393
21
-229.529
0
LINE
8
Black
10
107.393
20
-229.529
11
107.108
21
-229.386
0
LINE
8
Black
10
107.108
20
-229.386
11
106.965
21
-229.101
0
LINE
8
Black
10
106.965
20
-229.101
11
106.965
21
-227.958
0
LINE
8
Black
10
106.965
20
-227.958
11
107.108
21
-227.672
0
LINE
8
Black
10
107.108
20
-227.672
11
107.393
21
-227.529
0
LINE
8
Black
10
107.393
20
-227.529
11
107.965
21
-227.529
0
LINE
8
Black
10
107.965
20
-227.529
11
108.251
21
-227.672
0
LINE
8
Black
10
108.251
20
-227.672
11
108.393
21
-227.958
0
LINE
8
Black
10
108.393
20
-227.958
11
108.393
21
-228.243
0
LINE
8
Black
10
108.393
20
-228.243
11
106.965
21
-228.529
0
LINE
8
Black
10
110.965
20
-229.529
11
110.965
21
-226.529
0
LINE
8
Black
10
110.965
20
-229.386
11
110.679
21
-229.529
0
LINE
8
Black
10
110.679
20
-229.529
11
110.108
21
-229.529
0
LINE
8
Black
10
110.108
20
-229.529
11
109.822
21
-229.386
0
LINE
8
Black
10
109.822
20
-229.386
11
109.679
21
-229.243
0
LINE
8
Black
10
109.679
20
-229.243
11
109.536
21
-228.958
0
LINE
8
Black
10
109.536
20
-228.958
11
109.536
21
-228.101
0
LINE
8
Black
10
109.536
20
-228.101
11
109.679
21
-227.815
0
LINE
8
Black
10
109.679
20
-227.815
11
109.822
21
-227.672
0
LINE
8
Black
10
109.822
20
-227.672
11
110.108
21
-227.529
0
LINE
8
Black
10
110.108
20
-227.529
11
110.679
21
-227.529
0
LINE
8
Black
10
110.679
20
-227.529
11
110.965
21
-227.672
0
LINE
8
Black
10
112.108
20
-230.672
11
112.251
21
-230.529
0
LINE
8
Black
10
112.251
20
-230.529
11
112.536
21
-230.101
0
LINE
8
Black
10
112.536
20
-230.101
11
112.679
21
-229.815
0
LINE
8
Black
10
112.679
20
-229.815
11
112.822
21
-229.386
0
LINE
8
Black
10
112.822
20
-229.386
11
112.965
21
-228.672
0
LINE
8
Black
10
112.965
20
-228.672
11
112.965
21
-228.101
0
LINE
8
Black
10
112.965
20
-228.101
11
112.822
21
-227.386
0
LINE
8
Black
10
112.822
20
-227.386
11
112.679
21
-226.958
0
LINE
8
Black
10
112.679
20
-226.958
11
112.536
21
-226.672
0
LINE
8
Black
10
112.536
20
-226.672
11
112.251
21
-226.243
0
LINE
8
Black
10
112.251
20
-226.243
11
112.108
21
-226.101
  0
ENDSEC
  0
EOF
