G04 #@! TF.FileFunction,Copper,L2,Bot,Signal*
%FSLAX46Y46*%
G04 Gerber Fmt 4.6, Leading zero omitted, Abs format (unit mm)*
G04 Created by KiCad (PCBNEW 4.0.1-stable) date Wednesday, June 29, 2016 'PMt' 09:03:30 PM*
%MOMM*%
G01*
G04 APERTURE LIST*
%ADD10C,0.100000*%
%ADD11R,1.727200X2.032000*%
%ADD12O,1.727200X2.032000*%
%ADD13R,2.032000X1.727200*%
%ADD14O,2.032000X1.727200*%
%ADD15C,6.500000*%
%ADD16C,0.685800*%
%ADD17C,0.152400*%
%ADD18C,0.254000*%
G04 APERTURE END LIST*
D10*
D11*
X195690000Y-85670000D03*
D12*
X193150000Y-85670000D03*
X190610000Y-85670000D03*
D11*
X195650000Y-100340000D03*
D12*
X193110000Y-100340000D03*
X190570000Y-100340000D03*
D13*
X177760000Y-99920000D03*
D14*
X177760000Y-97380000D03*
X177760000Y-94840000D03*
D15*
X203640000Y-93280000D03*
X169600000Y-93470000D03*
D16*
X188069998Y-91790000D03*
X188070000Y-88770000D03*
X186570000Y-98190000D03*
X180460000Y-92380000D03*
X185630000Y-94460000D03*
X197260000Y-89650000D03*
D17*
X188070000Y-88770000D02*
X188070000Y-91789998D01*
X188070000Y-91789998D02*
X188069998Y-91790000D01*
D18*
G36*
X208333199Y-102453144D02*
X164576404Y-102502856D01*
X164552329Y-97380000D01*
X176076655Y-97380000D01*
X176190729Y-97953489D01*
X176515585Y-98439670D01*
X176529913Y-98449243D01*
X176508683Y-98453238D01*
X176292559Y-98592310D01*
X176147569Y-98804510D01*
X176096560Y-99056400D01*
X176096560Y-100783600D01*
X176140838Y-101018917D01*
X176279910Y-101235041D01*
X176492110Y-101380031D01*
X176744000Y-101431040D01*
X178776000Y-101431040D01*
X179011317Y-101386762D01*
X179227441Y-101247690D01*
X179372431Y-101035490D01*
X179423440Y-100783600D01*
X179423440Y-100701913D01*
X189084816Y-100701913D01*
X189278046Y-101254320D01*
X189667964Y-101690732D01*
X190195209Y-101944709D01*
X190210974Y-101947358D01*
X190443000Y-101826217D01*
X190443000Y-100467000D01*
X189229076Y-100467000D01*
X189084816Y-100701913D01*
X179423440Y-100701913D01*
X179423440Y-99978087D01*
X189084816Y-99978087D01*
X189229076Y-100213000D01*
X190443000Y-100213000D01*
X190443000Y-98853783D01*
X190697000Y-98853783D01*
X190697000Y-100213000D01*
X190717000Y-100213000D01*
X190717000Y-100467000D01*
X190697000Y-100467000D01*
X190697000Y-101826217D01*
X190929026Y-101947358D01*
X190944791Y-101944709D01*
X191472036Y-101690732D01*
X191843539Y-101274931D01*
X192050330Y-101584415D01*
X192536511Y-101909271D01*
X193110000Y-102023345D01*
X193683489Y-101909271D01*
X194169670Y-101584415D01*
X194179243Y-101570087D01*
X194183238Y-101591317D01*
X194322310Y-101807441D01*
X194534510Y-101952431D01*
X194786400Y-102003440D01*
X196513600Y-102003440D01*
X196748917Y-101959162D01*
X196965041Y-101820090D01*
X197110031Y-101607890D01*
X197161040Y-101356000D01*
X197161040Y-99324000D01*
X197116762Y-99088683D01*
X196977690Y-98872559D01*
X196765490Y-98727569D01*
X196513600Y-98676560D01*
X194786400Y-98676560D01*
X194551083Y-98720838D01*
X194334959Y-98859910D01*
X194189969Y-99072110D01*
X194181600Y-99113439D01*
X194169670Y-99095585D01*
X193683489Y-98770729D01*
X193110000Y-98656655D01*
X192536511Y-98770729D01*
X192050330Y-99095585D01*
X191843539Y-99405069D01*
X191472036Y-98989268D01*
X190944791Y-98735291D01*
X190929026Y-98732642D01*
X190697000Y-98853783D01*
X190443000Y-98853783D01*
X190210974Y-98732642D01*
X190195209Y-98735291D01*
X189667964Y-98989268D01*
X189278046Y-99425680D01*
X189084816Y-99978087D01*
X179423440Y-99978087D01*
X179423440Y-99056400D01*
X179379162Y-98821083D01*
X179240090Y-98604959D01*
X179027890Y-98459969D01*
X178986561Y-98451600D01*
X179004415Y-98439670D01*
X179329271Y-97953489D01*
X179443345Y-97380000D01*
X179329271Y-96806511D01*
X179004415Y-96320330D01*
X178694931Y-96113539D01*
X178758236Y-96056978D01*
X201042627Y-96056978D01*
X201415658Y-96557608D01*
X202839262Y-97159333D01*
X204384772Y-97170466D01*
X205816896Y-96589311D01*
X205864342Y-96557608D01*
X206237373Y-96056978D01*
X203640000Y-93459605D01*
X201042627Y-96056978D01*
X178758236Y-96056978D01*
X179110732Y-95742036D01*
X179364709Y-95214791D01*
X179367358Y-95199026D01*
X179246217Y-94967000D01*
X177887000Y-94967000D01*
X177887000Y-94987000D01*
X177633000Y-94987000D01*
X177633000Y-94967000D01*
X176273783Y-94967000D01*
X176152642Y-95199026D01*
X176155291Y-95214791D01*
X176409268Y-95742036D01*
X176825069Y-96113539D01*
X176515585Y-96320330D01*
X176190729Y-96806511D01*
X176076655Y-97380000D01*
X164552329Y-97380000D01*
X164547004Y-96246978D01*
X167002627Y-96246978D01*
X167375658Y-96747608D01*
X168799262Y-97349333D01*
X170344772Y-97360466D01*
X171776896Y-96779311D01*
X171824342Y-96747608D01*
X172197373Y-96246978D01*
X169600000Y-93649605D01*
X167002627Y-96246978D01*
X164547004Y-96246978D01*
X164537453Y-94214772D01*
X165709534Y-94214772D01*
X166290689Y-95646896D01*
X166322392Y-95694342D01*
X166823022Y-96067373D01*
X169420395Y-93470000D01*
X169779605Y-93470000D01*
X172376978Y-96067373D01*
X172877608Y-95694342D01*
X173390471Y-94480974D01*
X176152642Y-94480974D01*
X176273783Y-94713000D01*
X177633000Y-94713000D01*
X177633000Y-93499076D01*
X177887000Y-93499076D01*
X177887000Y-94713000D01*
X179246217Y-94713000D01*
X179367358Y-94480974D01*
X179364709Y-94465209D01*
X179152548Y-94024772D01*
X199749534Y-94024772D01*
X200330689Y-95456896D01*
X200362392Y-95504342D01*
X200863022Y-95877373D01*
X203460395Y-93280000D01*
X203819605Y-93280000D01*
X206416978Y-95877373D01*
X206917608Y-95504342D01*
X207519333Y-94080738D01*
X207530466Y-92535228D01*
X206949311Y-91103104D01*
X206917608Y-91055658D01*
X206416978Y-90682627D01*
X203819605Y-93280000D01*
X203460395Y-93280000D01*
X200863022Y-90682627D01*
X200362392Y-91055658D01*
X199760667Y-92479262D01*
X199749534Y-94024772D01*
X179152548Y-94024772D01*
X179110732Y-93937964D01*
X178674320Y-93548046D01*
X178121913Y-93354816D01*
X177887000Y-93499076D01*
X177633000Y-93499076D01*
X177398087Y-93354816D01*
X176845680Y-93548046D01*
X176409268Y-93937964D01*
X176155291Y-94465209D01*
X176152642Y-94480974D01*
X173390471Y-94480974D01*
X173479333Y-94270738D01*
X173490466Y-92725228D01*
X173189540Y-91983663D01*
X187091929Y-91983663D01*
X187240491Y-92343212D01*
X187515339Y-92618540D01*
X187874628Y-92767730D01*
X188263661Y-92768069D01*
X188623210Y-92619507D01*
X188898538Y-92344659D01*
X189047728Y-91985370D01*
X189048067Y-91596337D01*
X188899505Y-91236788D01*
X188781200Y-91118276D01*
X188781200Y-90503022D01*
X201042627Y-90503022D01*
X203640000Y-93100395D01*
X206237373Y-90503022D01*
X205864342Y-90002392D01*
X204440738Y-89400667D01*
X202895228Y-89389534D01*
X201463104Y-89970689D01*
X201415658Y-90002392D01*
X201042627Y-90503022D01*
X188781200Y-90503022D01*
X188781200Y-89441794D01*
X188898540Y-89324659D01*
X189047730Y-88965370D01*
X189048069Y-88576337D01*
X188899507Y-88216788D01*
X188624659Y-87941460D01*
X188265370Y-87792270D01*
X187876337Y-87791931D01*
X187516788Y-87940493D01*
X187241460Y-88215341D01*
X187092270Y-88574630D01*
X187091931Y-88963663D01*
X187240493Y-89323212D01*
X187358800Y-89441726D01*
X187358800Y-91118204D01*
X187241458Y-91235341D01*
X187092268Y-91594630D01*
X187091929Y-91983663D01*
X173189540Y-91983663D01*
X172909311Y-91293104D01*
X172877608Y-91245658D01*
X172376978Y-90872627D01*
X169779605Y-93470000D01*
X169420395Y-93470000D01*
X166823022Y-90872627D01*
X166322392Y-91245658D01*
X165720667Y-92669262D01*
X165709534Y-94214772D01*
X164537453Y-94214772D01*
X164520902Y-90693022D01*
X167002627Y-90693022D01*
X169600000Y-93290395D01*
X172197373Y-90693022D01*
X171824342Y-90192392D01*
X170400738Y-89590667D01*
X168855228Y-89579534D01*
X167423104Y-90160689D01*
X167375658Y-90192392D01*
X167002627Y-90693022D01*
X164520902Y-90693022D01*
X164498996Y-86031913D01*
X189124816Y-86031913D01*
X189318046Y-86584320D01*
X189707964Y-87020732D01*
X190235209Y-87274709D01*
X190250974Y-87277358D01*
X190483000Y-87156217D01*
X190483000Y-85797000D01*
X189269076Y-85797000D01*
X189124816Y-86031913D01*
X164498996Y-86031913D01*
X164495595Y-85308087D01*
X189124816Y-85308087D01*
X189269076Y-85543000D01*
X190483000Y-85543000D01*
X190483000Y-84183783D01*
X190737000Y-84183783D01*
X190737000Y-85543000D01*
X190757000Y-85543000D01*
X190757000Y-85797000D01*
X190737000Y-85797000D01*
X190737000Y-87156217D01*
X190969026Y-87277358D01*
X190984791Y-87274709D01*
X191512036Y-87020732D01*
X191883539Y-86604931D01*
X192090330Y-86914415D01*
X192576511Y-87239271D01*
X193150000Y-87353345D01*
X193723489Y-87239271D01*
X194209670Y-86914415D01*
X194219243Y-86900087D01*
X194223238Y-86921317D01*
X194362310Y-87137441D01*
X194574510Y-87282431D01*
X194826400Y-87333440D01*
X196553600Y-87333440D01*
X196788917Y-87289162D01*
X197005041Y-87150090D01*
X197150031Y-86937890D01*
X197201040Y-86686000D01*
X197201040Y-84654000D01*
X197156762Y-84418683D01*
X197017690Y-84202559D01*
X196805490Y-84057569D01*
X196553600Y-84006560D01*
X194826400Y-84006560D01*
X194591083Y-84050838D01*
X194374959Y-84189910D01*
X194229969Y-84402110D01*
X194221600Y-84443439D01*
X194209670Y-84425585D01*
X193723489Y-84100729D01*
X193150000Y-83986655D01*
X192576511Y-84100729D01*
X192090330Y-84425585D01*
X191883539Y-84735069D01*
X191512036Y-84319268D01*
X190984791Y-84065291D01*
X190969026Y-84062642D01*
X190737000Y-84183783D01*
X190483000Y-84183783D01*
X190250974Y-84062642D01*
X190235209Y-84065291D01*
X189707964Y-84319268D01*
X189318046Y-84755680D01*
X189124816Y-85308087D01*
X164495595Y-85308087D01*
X164487599Y-83606971D01*
X208362800Y-83597029D01*
X208333199Y-102453144D01*
X208333199Y-102453144D01*
G37*
X208333199Y-102453144D02*
X164576404Y-102502856D01*
X164552329Y-97380000D01*
X176076655Y-97380000D01*
X176190729Y-97953489D01*
X176515585Y-98439670D01*
X176529913Y-98449243D01*
X176508683Y-98453238D01*
X176292559Y-98592310D01*
X176147569Y-98804510D01*
X176096560Y-99056400D01*
X176096560Y-100783600D01*
X176140838Y-101018917D01*
X176279910Y-101235041D01*
X176492110Y-101380031D01*
X176744000Y-101431040D01*
X178776000Y-101431040D01*
X179011317Y-101386762D01*
X179227441Y-101247690D01*
X179372431Y-101035490D01*
X179423440Y-100783600D01*
X179423440Y-100701913D01*
X189084816Y-100701913D01*
X189278046Y-101254320D01*
X189667964Y-101690732D01*
X190195209Y-101944709D01*
X190210974Y-101947358D01*
X190443000Y-101826217D01*
X190443000Y-100467000D01*
X189229076Y-100467000D01*
X189084816Y-100701913D01*
X179423440Y-100701913D01*
X179423440Y-99978087D01*
X189084816Y-99978087D01*
X189229076Y-100213000D01*
X190443000Y-100213000D01*
X190443000Y-98853783D01*
X190697000Y-98853783D01*
X190697000Y-100213000D01*
X190717000Y-100213000D01*
X190717000Y-100467000D01*
X190697000Y-100467000D01*
X190697000Y-101826217D01*
X190929026Y-101947358D01*
X190944791Y-101944709D01*
X191472036Y-101690732D01*
X191843539Y-101274931D01*
X192050330Y-101584415D01*
X192536511Y-101909271D01*
X193110000Y-102023345D01*
X193683489Y-101909271D01*
X194169670Y-101584415D01*
X194179243Y-101570087D01*
X194183238Y-101591317D01*
X194322310Y-101807441D01*
X194534510Y-101952431D01*
X194786400Y-102003440D01*
X196513600Y-102003440D01*
X196748917Y-101959162D01*
X196965041Y-101820090D01*
X197110031Y-101607890D01*
X197161040Y-101356000D01*
X197161040Y-99324000D01*
X197116762Y-99088683D01*
X196977690Y-98872559D01*
X196765490Y-98727569D01*
X196513600Y-98676560D01*
X194786400Y-98676560D01*
X194551083Y-98720838D01*
X194334959Y-98859910D01*
X194189969Y-99072110D01*
X194181600Y-99113439D01*
X194169670Y-99095585D01*
X193683489Y-98770729D01*
X193110000Y-98656655D01*
X192536511Y-98770729D01*
X192050330Y-99095585D01*
X191843539Y-99405069D01*
X191472036Y-98989268D01*
X190944791Y-98735291D01*
X190929026Y-98732642D01*
X190697000Y-98853783D01*
X190443000Y-98853783D01*
X190210974Y-98732642D01*
X190195209Y-98735291D01*
X189667964Y-98989268D01*
X189278046Y-99425680D01*
X189084816Y-99978087D01*
X179423440Y-99978087D01*
X179423440Y-99056400D01*
X179379162Y-98821083D01*
X179240090Y-98604959D01*
X179027890Y-98459969D01*
X178986561Y-98451600D01*
X179004415Y-98439670D01*
X179329271Y-97953489D01*
X179443345Y-97380000D01*
X179329271Y-96806511D01*
X179004415Y-96320330D01*
X178694931Y-96113539D01*
X178758236Y-96056978D01*
X201042627Y-96056978D01*
X201415658Y-96557608D01*
X202839262Y-97159333D01*
X204384772Y-97170466D01*
X205816896Y-96589311D01*
X205864342Y-96557608D01*
X206237373Y-96056978D01*
X203640000Y-93459605D01*
X201042627Y-96056978D01*
X178758236Y-96056978D01*
X179110732Y-95742036D01*
X179364709Y-95214791D01*
X179367358Y-95199026D01*
X179246217Y-94967000D01*
X177887000Y-94967000D01*
X177887000Y-94987000D01*
X177633000Y-94987000D01*
X177633000Y-94967000D01*
X176273783Y-94967000D01*
X176152642Y-95199026D01*
X176155291Y-95214791D01*
X176409268Y-95742036D01*
X176825069Y-96113539D01*
X176515585Y-96320330D01*
X176190729Y-96806511D01*
X176076655Y-97380000D01*
X164552329Y-97380000D01*
X164547004Y-96246978D01*
X167002627Y-96246978D01*
X167375658Y-96747608D01*
X168799262Y-97349333D01*
X170344772Y-97360466D01*
X171776896Y-96779311D01*
X171824342Y-96747608D01*
X172197373Y-96246978D01*
X169600000Y-93649605D01*
X167002627Y-96246978D01*
X164547004Y-96246978D01*
X164537453Y-94214772D01*
X165709534Y-94214772D01*
X166290689Y-95646896D01*
X166322392Y-95694342D01*
X166823022Y-96067373D01*
X169420395Y-93470000D01*
X169779605Y-93470000D01*
X172376978Y-96067373D01*
X172877608Y-95694342D01*
X173390471Y-94480974D01*
X176152642Y-94480974D01*
X176273783Y-94713000D01*
X177633000Y-94713000D01*
X177633000Y-93499076D01*
X177887000Y-93499076D01*
X177887000Y-94713000D01*
X179246217Y-94713000D01*
X179367358Y-94480974D01*
X179364709Y-94465209D01*
X179152548Y-94024772D01*
X199749534Y-94024772D01*
X200330689Y-95456896D01*
X200362392Y-95504342D01*
X200863022Y-95877373D01*
X203460395Y-93280000D01*
X203819605Y-93280000D01*
X206416978Y-95877373D01*
X206917608Y-95504342D01*
X207519333Y-94080738D01*
X207530466Y-92535228D01*
X206949311Y-91103104D01*
X206917608Y-91055658D01*
X206416978Y-90682627D01*
X203819605Y-93280000D01*
X203460395Y-93280000D01*
X200863022Y-90682627D01*
X200362392Y-91055658D01*
X199760667Y-92479262D01*
X199749534Y-94024772D01*
X179152548Y-94024772D01*
X179110732Y-93937964D01*
X178674320Y-93548046D01*
X178121913Y-93354816D01*
X177887000Y-93499076D01*
X177633000Y-93499076D01*
X177398087Y-93354816D01*
X176845680Y-93548046D01*
X176409268Y-93937964D01*
X176155291Y-94465209D01*
X176152642Y-94480974D01*
X173390471Y-94480974D01*
X173479333Y-94270738D01*
X173490466Y-92725228D01*
X173189540Y-91983663D01*
X187091929Y-91983663D01*
X187240491Y-92343212D01*
X187515339Y-92618540D01*
X187874628Y-92767730D01*
X188263661Y-92768069D01*
X188623210Y-92619507D01*
X188898538Y-92344659D01*
X189047728Y-91985370D01*
X189048067Y-91596337D01*
X188899505Y-91236788D01*
X188781200Y-91118276D01*
X188781200Y-90503022D01*
X201042627Y-90503022D01*
X203640000Y-93100395D01*
X206237373Y-90503022D01*
X205864342Y-90002392D01*
X204440738Y-89400667D01*
X202895228Y-89389534D01*
X201463104Y-89970689D01*
X201415658Y-90002392D01*
X201042627Y-90503022D01*
X188781200Y-90503022D01*
X188781200Y-89441794D01*
X188898540Y-89324659D01*
X189047730Y-88965370D01*
X189048069Y-88576337D01*
X188899507Y-88216788D01*
X188624659Y-87941460D01*
X188265370Y-87792270D01*
X187876337Y-87791931D01*
X187516788Y-87940493D01*
X187241460Y-88215341D01*
X187092270Y-88574630D01*
X187091931Y-88963663D01*
X187240493Y-89323212D01*
X187358800Y-89441726D01*
X187358800Y-91118204D01*
X187241458Y-91235341D01*
X187092268Y-91594630D01*
X187091929Y-91983663D01*
X173189540Y-91983663D01*
X172909311Y-91293104D01*
X172877608Y-91245658D01*
X172376978Y-90872627D01*
X169779605Y-93470000D01*
X169420395Y-93470000D01*
X166823022Y-90872627D01*
X166322392Y-91245658D01*
X165720667Y-92669262D01*
X165709534Y-94214772D01*
X164537453Y-94214772D01*
X164520902Y-90693022D01*
X167002627Y-90693022D01*
X169600000Y-93290395D01*
X172197373Y-90693022D01*
X171824342Y-90192392D01*
X170400738Y-89590667D01*
X168855228Y-89579534D01*
X167423104Y-90160689D01*
X167375658Y-90192392D01*
X167002627Y-90693022D01*
X164520902Y-90693022D01*
X164498996Y-86031913D01*
X189124816Y-86031913D01*
X189318046Y-86584320D01*
X189707964Y-87020732D01*
X190235209Y-87274709D01*
X190250974Y-87277358D01*
X190483000Y-87156217D01*
X190483000Y-85797000D01*
X189269076Y-85797000D01*
X189124816Y-86031913D01*
X164498996Y-86031913D01*
X164495595Y-85308087D01*
X189124816Y-85308087D01*
X189269076Y-85543000D01*
X190483000Y-85543000D01*
X190483000Y-84183783D01*
X190737000Y-84183783D01*
X190737000Y-85543000D01*
X190757000Y-85543000D01*
X190757000Y-85797000D01*
X190737000Y-85797000D01*
X190737000Y-87156217D01*
X190969026Y-87277358D01*
X190984791Y-87274709D01*
X191512036Y-87020732D01*
X191883539Y-86604931D01*
X192090330Y-86914415D01*
X192576511Y-87239271D01*
X193150000Y-87353345D01*
X193723489Y-87239271D01*
X194209670Y-86914415D01*
X194219243Y-86900087D01*
X194223238Y-86921317D01*
X194362310Y-87137441D01*
X194574510Y-87282431D01*
X194826400Y-87333440D01*
X196553600Y-87333440D01*
X196788917Y-87289162D01*
X197005041Y-87150090D01*
X197150031Y-86937890D01*
X197201040Y-86686000D01*
X197201040Y-84654000D01*
X197156762Y-84418683D01*
X197017690Y-84202559D01*
X196805490Y-84057569D01*
X196553600Y-84006560D01*
X194826400Y-84006560D01*
X194591083Y-84050838D01*
X194374959Y-84189910D01*
X194229969Y-84402110D01*
X194221600Y-84443439D01*
X194209670Y-84425585D01*
X193723489Y-84100729D01*
X193150000Y-83986655D01*
X192576511Y-84100729D01*
X192090330Y-84425585D01*
X191883539Y-84735069D01*
X191512036Y-84319268D01*
X190984791Y-84065291D01*
X190969026Y-84062642D01*
X190737000Y-84183783D01*
X190483000Y-84183783D01*
X190250974Y-84062642D01*
X190235209Y-84065291D01*
X189707964Y-84319268D01*
X189318046Y-84755680D01*
X189124816Y-85308087D01*
X164495595Y-85308087D01*
X164487599Y-83606971D01*
X208362800Y-83597029D01*
X208333199Y-102453144D01*
M02*
