G04 #@! TF.GenerationSoftware,KiCad,Pcbnew,(5.0.2-5-10.14)*
G04 #@! TF.CreationDate,2019-05-06T20:34:37-02:30*
G04 #@! TF.ProjectId,bmsDropIn,626d7344-726f-4704-996e-2e6b69636164,rev?*
G04 #@! TF.SameCoordinates,Original*
G04 #@! TF.FileFunction,Soldermask,Top*
G04 #@! TF.FilePolarity,Negative*
%FSLAX46Y46*%
G04 Gerber Fmt 4.6, Leading zero omitted, Abs format (unit mm)*
G04 Created by KiCad (PCBNEW (5.0.2-5-10.14)) date Monday, May 06, 2019 at 08:34:37 pm*
%MOMM*%
%LPD*%
G01*
G04 APERTURE LIST*
%ADD10C,0.100000*%
G04 APERTURE END LIST*
D10*
G36*
X138231000Y-95381000D02*
X134929000Y-95381000D01*
X134929000Y-93079000D01*
X138231000Y-93079000D01*
X138231000Y-95381000D01*
X138231000Y-95381000D01*
G37*
G36*
X133841000Y-81581000D02*
X130239000Y-81581000D01*
X130239000Y-77979000D01*
X133841000Y-77979000D01*
X133841000Y-81581000D01*
X133841000Y-81581000D01*
G37*
G36*
X140641000Y-81581000D02*
X137039000Y-81581000D01*
X137039000Y-77979000D01*
X140641000Y-77979000D01*
X140641000Y-81581000D01*
X140641000Y-81581000D01*
G37*
G36*
X128291000Y-81491000D02*
X124689000Y-81491000D01*
X124689000Y-77889000D01*
X128291000Y-77889000D01*
X128291000Y-81491000D01*
X128291000Y-81491000D01*
G37*
G36*
X121491000Y-81491000D02*
X117889000Y-81491000D01*
X117889000Y-77889000D01*
X121491000Y-77889000D01*
X121491000Y-81491000D01*
X121491000Y-81491000D01*
G37*
G36*
X140601000Y-76411000D02*
X136999000Y-76411000D01*
X136999000Y-72809000D01*
X140601000Y-72809000D01*
X140601000Y-76411000D01*
X140601000Y-76411000D01*
G37*
G36*
X133801000Y-76411000D02*
X130199000Y-76411000D01*
X130199000Y-72809000D01*
X133801000Y-72809000D01*
X133801000Y-76411000D01*
X133801000Y-76411000D01*
G37*
G36*
X121441000Y-76341000D02*
X117839000Y-76341000D01*
X117839000Y-72739000D01*
X121441000Y-72739000D01*
X121441000Y-76341000D01*
X121441000Y-76341000D01*
G37*
G36*
X128241000Y-76341000D02*
X124639000Y-76341000D01*
X124639000Y-72739000D01*
X128241000Y-72739000D01*
X128241000Y-76341000D01*
X128241000Y-76341000D01*
G37*
G36*
X140621000Y-71231000D02*
X137019000Y-71231000D01*
X137019000Y-67629000D01*
X140621000Y-67629000D01*
X140621000Y-71231000D01*
X140621000Y-71231000D01*
G37*
G36*
X133821000Y-71231000D02*
X130219000Y-71231000D01*
X130219000Y-67629000D01*
X133821000Y-67629000D01*
X133821000Y-71231000D01*
X133821000Y-71231000D01*
G37*
G36*
X128341000Y-71171000D02*
X124739000Y-71171000D01*
X124739000Y-67569000D01*
X128341000Y-67569000D01*
X128341000Y-71171000D01*
X128341000Y-71171000D01*
G37*
G36*
X121541000Y-71171000D02*
X117939000Y-71171000D01*
X117939000Y-67569000D01*
X121541000Y-67569000D01*
X121541000Y-71171000D01*
X121541000Y-71171000D01*
G37*
G36*
X128521000Y-66261000D02*
X124919000Y-66261000D01*
X124919000Y-62659000D01*
X128521000Y-62659000D01*
X128521000Y-66261000D01*
X128521000Y-66261000D01*
G37*
G36*
X121721000Y-66261000D02*
X118119000Y-66261000D01*
X118119000Y-62659000D01*
X121721000Y-62659000D01*
X121721000Y-66261000D01*
X121721000Y-66261000D01*
G37*
G36*
X140691000Y-66241000D02*
X137089000Y-66241000D01*
X137089000Y-62639000D01*
X140691000Y-62639000D01*
X140691000Y-66241000D01*
X140691000Y-66241000D01*
G37*
G36*
X133891000Y-66241000D02*
X130289000Y-66241000D01*
X130289000Y-62639000D01*
X133891000Y-62639000D01*
X133891000Y-66241000D01*
X133891000Y-66241000D01*
G37*
G36*
X140621000Y-61231000D02*
X137019000Y-61231000D01*
X137019000Y-57629000D01*
X140621000Y-57629000D01*
X140621000Y-61231000D01*
X140621000Y-61231000D01*
G37*
G36*
X133821000Y-61231000D02*
X130219000Y-61231000D01*
X130219000Y-57629000D01*
X133821000Y-57629000D01*
X133821000Y-61231000D01*
X133821000Y-61231000D01*
G37*
G36*
X121671000Y-61131000D02*
X118069000Y-61131000D01*
X118069000Y-57529000D01*
X121671000Y-57529000D01*
X121671000Y-61131000D01*
X121671000Y-61131000D01*
G37*
G36*
X128471000Y-61131000D02*
X124869000Y-61131000D01*
X124869000Y-57529000D01*
X128471000Y-57529000D01*
X128471000Y-61131000D01*
X128471000Y-61131000D01*
G37*
G36*
X140481000Y-56121000D02*
X136879000Y-56121000D01*
X136879000Y-52519000D01*
X140481000Y-52519000D01*
X140481000Y-56121000D01*
X140481000Y-56121000D01*
G37*
G36*
X133681000Y-56121000D02*
X130079000Y-56121000D01*
X130079000Y-52519000D01*
X133681000Y-52519000D01*
X133681000Y-56121000D01*
X133681000Y-56121000D01*
G37*
G36*
X128541000Y-56031000D02*
X124939000Y-56031000D01*
X124939000Y-52429000D01*
X128541000Y-52429000D01*
X128541000Y-56031000D01*
X128541000Y-56031000D01*
G37*
G36*
X121741000Y-56031000D02*
X118139000Y-56031000D01*
X118139000Y-52429000D01*
X121741000Y-52429000D01*
X121741000Y-56031000D01*
X121741000Y-56031000D01*
G37*
G36*
X133681000Y-51041000D02*
X130079000Y-51041000D01*
X130079000Y-47439000D01*
X133681000Y-47439000D01*
X133681000Y-51041000D01*
X133681000Y-51041000D01*
G37*
G36*
X140481000Y-51041000D02*
X136879000Y-51041000D01*
X136879000Y-47439000D01*
X140481000Y-47439000D01*
X140481000Y-51041000D01*
X140481000Y-51041000D01*
G37*
G36*
X128591000Y-51001000D02*
X124989000Y-51001000D01*
X124989000Y-47399000D01*
X128591000Y-47399000D01*
X128591000Y-51001000D01*
X128591000Y-51001000D01*
G37*
G36*
X121791000Y-51001000D02*
X118189000Y-51001000D01*
X118189000Y-47399000D01*
X121791000Y-47399000D01*
X121791000Y-51001000D01*
X121791000Y-51001000D01*
G37*
G36*
X133781000Y-45941000D02*
X130179000Y-45941000D01*
X130179000Y-42339000D01*
X133781000Y-42339000D01*
X133781000Y-45941000D01*
X133781000Y-45941000D01*
G37*
G36*
X140581000Y-45941000D02*
X136979000Y-45941000D01*
X136979000Y-42339000D01*
X140581000Y-42339000D01*
X140581000Y-45941000D01*
X140581000Y-45941000D01*
G37*
G36*
X128591000Y-45921000D02*
X124989000Y-45921000D01*
X124989000Y-42319000D01*
X128591000Y-42319000D01*
X128591000Y-45921000D01*
X128591000Y-45921000D01*
G37*
G36*
X121791000Y-45921000D02*
X118189000Y-45921000D01*
X118189000Y-42319000D01*
X121791000Y-42319000D01*
X121791000Y-45921000D01*
X121791000Y-45921000D01*
G37*
G36*
X140581000Y-40851000D02*
X136979000Y-40851000D01*
X136979000Y-37249000D01*
X140581000Y-37249000D01*
X140581000Y-40851000D01*
X140581000Y-40851000D01*
G37*
G36*
X133781000Y-40851000D02*
X130179000Y-40851000D01*
X130179000Y-37249000D01*
X133781000Y-37249000D01*
X133781000Y-40851000D01*
X133781000Y-40851000D01*
G37*
G36*
X121871000Y-40831000D02*
X118269000Y-40831000D01*
X118269000Y-37229000D01*
X121871000Y-37229000D01*
X121871000Y-40831000D01*
X121871000Y-40831000D01*
G37*
G36*
X128671000Y-40831000D02*
X125069000Y-40831000D01*
X125069000Y-37229000D01*
X128671000Y-37229000D01*
X128671000Y-40831000D01*
X128671000Y-40831000D01*
G37*
G36*
X128761000Y-35811000D02*
X125159000Y-35811000D01*
X125159000Y-32209000D01*
X128761000Y-32209000D01*
X128761000Y-35811000D01*
X128761000Y-35811000D01*
G37*
G36*
X121961000Y-35811000D02*
X118359000Y-35811000D01*
X118359000Y-32209000D01*
X121961000Y-32209000D01*
X121961000Y-35811000D01*
X121961000Y-35811000D01*
G37*
G36*
X133681000Y-35801000D02*
X130079000Y-35801000D01*
X130079000Y-32199000D01*
X133681000Y-32199000D01*
X133681000Y-35801000D01*
X133681000Y-35801000D01*
G37*
G36*
X140481000Y-35801000D02*
X136879000Y-35801000D01*
X136879000Y-32199000D01*
X140481000Y-32199000D01*
X140481000Y-35801000D01*
X140481000Y-35801000D01*
G37*
G36*
X138201000Y-22901000D02*
X134899000Y-22901000D01*
X134899000Y-20599000D01*
X138201000Y-20599000D01*
X138201000Y-22901000D01*
X138201000Y-22901000D01*
G37*
M02*
