G04 #@! TF.GenerationSoftware,KiCad,Pcbnew,(5.0.2-5-10.14)*
G04 #@! TF.CreationDate,2019-05-06T20:34:37-02:30*
G04 #@! TF.ProjectId,bmsDropIn,626d7344-726f-4704-996e-2e6b69636164,rev?*
G04 #@! TF.SameCoordinates,Original*
G04 #@! TF.FileFunction,Copper,L1,Top*
G04 #@! TF.FilePolarity,Positive*
%FSLAX46Y46*%
G04 Gerber Fmt 4.6, Leading zero omitted, Abs format (unit mm)*
G04 Created by KiCad (PCBNEW (5.0.2-5-10.14)) date Monday, May 06, 2019 at 08:34:37 pm*
%MOMM*%
%LPD*%
G01*
G04 APERTURE LIST*
G04 #@! TA.AperFunction,SMDPad,CuDef*
%ADD10R,3.500000X3.500000*%
G04 #@! TD*
G04 #@! TA.AperFunction,ComponentPad*
%ADD11R,3.200000X2.200000*%
G04 #@! TD*
G04 #@! TA.AperFunction,Conductor*
%ADD12C,0.635000*%
G04 #@! TD*
G04 #@! TA.AperFunction,Conductor*
%ADD13C,0.250000*%
G04 #@! TD*
G04 APERTURE END LIST*
D10*
G04 #@! TO.P,C1,2*
G04 #@! TO.N,Net-(C1-Pad2)*
X126960000Y-34010000D03*
G04 #@! TO.P,C1,1*
G04 #@! TO.N,VCC*
X120160000Y-34010000D03*
G04 #@! TD*
G04 #@! TO.P,C2,1*
G04 #@! TO.N,Net-(C1-Pad2)*
X131880000Y-34000000D03*
G04 #@! TO.P,C2,2*
G04 #@! TO.N,GND*
X138680000Y-34000000D03*
G04 #@! TD*
G04 #@! TO.P,C3,2*
G04 #@! TO.N,Net-(C3-Pad2)*
X126870000Y-39030000D03*
G04 #@! TO.P,C3,1*
G04 #@! TO.N,VCC*
X120070000Y-39030000D03*
G04 #@! TD*
G04 #@! TO.P,C4,1*
G04 #@! TO.N,Net-(C3-Pad2)*
X131980000Y-39050000D03*
G04 #@! TO.P,C4,2*
G04 #@! TO.N,GND*
X138780000Y-39050000D03*
G04 #@! TD*
G04 #@! TO.P,C5,2*
G04 #@! TO.N,Net-(C5-Pad2)*
X126790000Y-44120000D03*
G04 #@! TO.P,C5,1*
G04 #@! TO.N,VCC*
X119990000Y-44120000D03*
G04 #@! TD*
G04 #@! TO.P,C6,1*
G04 #@! TO.N,Net-(C5-Pad2)*
X131980000Y-44140000D03*
G04 #@! TO.P,C6,2*
G04 #@! TO.N,GND*
X138780000Y-44140000D03*
G04 #@! TD*
G04 #@! TO.P,C7,2*
G04 #@! TO.N,Net-(C7-Pad2)*
X126790000Y-49200000D03*
G04 #@! TO.P,C7,1*
G04 #@! TO.N,VCC*
X119990000Y-49200000D03*
G04 #@! TD*
G04 #@! TO.P,C8,1*
G04 #@! TO.N,Net-(C7-Pad2)*
X131880000Y-49240000D03*
G04 #@! TO.P,C8,2*
G04 #@! TO.N,GND*
X138680000Y-49240000D03*
G04 #@! TD*
G04 #@! TO.P,C9,2*
G04 #@! TO.N,Net-(C10-Pad1)*
X126540000Y-69370000D03*
G04 #@! TO.P,C9,1*
G04 #@! TO.N,VCC*
X119740000Y-69370000D03*
G04 #@! TD*
G04 #@! TO.P,C10,1*
G04 #@! TO.N,Net-(C10-Pad1)*
X132020000Y-69430000D03*
G04 #@! TO.P,C10,2*
G04 #@! TO.N,GND*
X138820000Y-69430000D03*
G04 #@! TD*
G04 #@! TO.P,C11,2*
G04 #@! TO.N,Net-(C11-Pad2)*
X126720000Y-64460000D03*
G04 #@! TO.P,C11,1*
G04 #@! TO.N,VCC*
X119920000Y-64460000D03*
G04 #@! TD*
G04 #@! TO.P,C12,1*
G04 #@! TO.N,Net-(C11-Pad2)*
X132090000Y-64440000D03*
G04 #@! TO.P,C12,2*
G04 #@! TO.N,GND*
X138890000Y-64440000D03*
G04 #@! TD*
G04 #@! TO.P,C15,2*
G04 #@! TO.N,Net-(C15-Pad2)*
X126670000Y-59330000D03*
G04 #@! TO.P,C15,1*
G04 #@! TO.N,VCC*
X119870000Y-59330000D03*
G04 #@! TD*
G04 #@! TO.P,C16,1*
G04 #@! TO.N,Net-(C15-Pad2)*
X132020000Y-59430000D03*
G04 #@! TO.P,C16,2*
G04 #@! TO.N,GND*
X138820000Y-59430000D03*
G04 #@! TD*
G04 #@! TO.P,C19,2*
G04 #@! TO.N,Net-(C19-Pad2)*
X126440000Y-74540000D03*
G04 #@! TO.P,C19,1*
G04 #@! TO.N,VCC*
X119640000Y-74540000D03*
G04 #@! TD*
G04 #@! TO.P,C20,1*
G04 #@! TO.N,Net-(C19-Pad2)*
X132000000Y-74610000D03*
G04 #@! TO.P,C20,2*
G04 #@! TO.N,GND*
X138800000Y-74610000D03*
G04 #@! TD*
G04 #@! TO.P,C23,2*
G04 #@! TO.N,Net-(C23-Pad2)*
X126490000Y-79690000D03*
G04 #@! TO.P,C23,1*
G04 #@! TO.N,VCC*
X119690000Y-79690000D03*
G04 #@! TD*
G04 #@! TO.P,C24,1*
G04 #@! TO.N,Net-(C23-Pad2)*
X132040000Y-79780000D03*
G04 #@! TO.P,C24,2*
G04 #@! TO.N,GND*
X138840000Y-79780000D03*
G04 #@! TD*
G04 #@! TO.P,C27,2*
G04 #@! TO.N,Net-(C27-Pad2)*
X126740000Y-54230000D03*
G04 #@! TO.P,C27,1*
G04 #@! TO.N,VCC*
X119940000Y-54230000D03*
G04 #@! TD*
G04 #@! TO.P,C28,1*
G04 #@! TO.N,Net-(C27-Pad2)*
X131880000Y-54320000D03*
G04 #@! TO.P,C28,2*
G04 #@! TO.N,GND*
X138680000Y-54320000D03*
G04 #@! TD*
D11*
G04 #@! TO.P,,*
G04 #@! TO.N,GND*
X136580000Y-94230000D03*
G04 #@! TD*
G04 #@! TO.P,REF\002A\002A,*
G04 #@! TO.N,VCC*
X136550000Y-21750000D03*
G04 #@! TD*
D12*
G04 #@! TO.N,Net-(C1-Pad2)*
X131870000Y-34010000D02*
X131880000Y-34000000D01*
X126960000Y-34010000D02*
X131870000Y-34010000D01*
D13*
G04 #@! TO.N,VCC*
X119660000Y-79720000D02*
X119690000Y-79690000D01*
X119690000Y-34350000D02*
X120040000Y-34000000D01*
X120160000Y-38940000D02*
X120070000Y-39030000D01*
X120070000Y-44040000D02*
X119990000Y-44120000D01*
X119990000Y-54180000D02*
X119940000Y-54230000D01*
X119940000Y-59260000D02*
X119870000Y-59330000D01*
D12*
X119740000Y-74440000D02*
X119640000Y-74540000D01*
D13*
X119640000Y-79640000D02*
X119690000Y-79690000D01*
D12*
X119690000Y-74590000D02*
X119640000Y-74540000D01*
X119690000Y-79690000D02*
X119690000Y-74590000D01*
X119640000Y-69470000D02*
X119740000Y-69370000D01*
X119640000Y-74540000D02*
X119640000Y-69470000D01*
X119740000Y-64640000D02*
X119920000Y-64460000D01*
X119740000Y-69370000D02*
X119740000Y-64640000D01*
X119920000Y-59380000D02*
X119870000Y-59330000D01*
X119920000Y-64460000D02*
X119920000Y-59380000D01*
X119870000Y-54300000D02*
X119940000Y-54230000D01*
X119870000Y-59330000D02*
X119870000Y-54300000D01*
X119940000Y-49250000D02*
X119990000Y-49200000D01*
X119940000Y-54230000D02*
X119940000Y-49250000D01*
X119990000Y-49200000D02*
X119990000Y-44120000D01*
X119990000Y-39110000D02*
X120070000Y-39030000D01*
X119990000Y-44120000D02*
X119990000Y-39110000D01*
X120070000Y-34100000D02*
X120160000Y-34010000D01*
X120070000Y-39030000D02*
X120070000Y-34100000D01*
X134315000Y-21750000D02*
X136550000Y-21750000D01*
X130035000Y-21750000D02*
X134315000Y-21750000D01*
X120160000Y-31625000D02*
X130035000Y-21750000D01*
X120160000Y-34010000D02*
X120160000Y-31625000D01*
G04 #@! TO.N,GND*
X138840000Y-74650000D02*
X138800000Y-74610000D01*
D13*
X138800000Y-69450000D02*
X138820000Y-69430000D01*
X138820000Y-64510000D02*
X138890000Y-64440000D01*
X138890000Y-59500000D02*
X138820000Y-59430000D01*
X138820000Y-54460000D02*
X138680000Y-54320000D01*
X138680000Y-44240000D02*
X138780000Y-44140000D01*
X138780000Y-34100000D02*
X138680000Y-34000000D01*
D12*
X138680000Y-38950000D02*
X138780000Y-39050000D01*
X138680000Y-34000000D02*
X138680000Y-38950000D01*
X138780000Y-39050000D02*
X138780000Y-44140000D01*
X138780000Y-49140000D02*
X138680000Y-49240000D01*
X138780000Y-44140000D02*
X138780000Y-49140000D01*
X138680000Y-49240000D02*
X138680000Y-54320000D01*
X138680000Y-59290000D02*
X138820000Y-59430000D01*
X138680000Y-54320000D02*
X138680000Y-59290000D01*
X138820000Y-64370000D02*
X138890000Y-64440000D01*
X138820000Y-59430000D02*
X138820000Y-64370000D01*
X138890000Y-69360000D02*
X138820000Y-69430000D01*
X138890000Y-64440000D02*
X138890000Y-69360000D01*
X138820000Y-74590000D02*
X138800000Y-74610000D01*
X138820000Y-69430000D02*
X138820000Y-74590000D01*
X138800000Y-79740000D02*
X138840000Y-79780000D01*
X138800000Y-74610000D02*
X138800000Y-79740000D01*
X137080000Y-94230000D02*
X136580000Y-94230000D01*
X138840000Y-92470000D02*
X137080000Y-94230000D01*
X138840000Y-79780000D02*
X138840000Y-92470000D01*
G04 #@! TO.N,Net-(C3-Pad2)*
X131960000Y-39030000D02*
X131980000Y-39050000D01*
X126870000Y-39030000D02*
X131960000Y-39030000D01*
G04 #@! TO.N,Net-(C5-Pad2)*
X131960000Y-44120000D02*
X131980000Y-44140000D01*
X126790000Y-44120000D02*
X131960000Y-44120000D01*
G04 #@! TO.N,Net-(C7-Pad2)*
X131840000Y-49200000D02*
X131880000Y-49240000D01*
X126790000Y-49200000D02*
X131840000Y-49200000D01*
G04 #@! TO.N,Net-(C10-Pad1)*
X131960000Y-69370000D02*
X132020000Y-69430000D01*
X126600000Y-69430000D02*
X126540000Y-69370000D01*
X132020000Y-69430000D02*
X126600000Y-69430000D01*
G04 #@! TO.N,Net-(C11-Pad2)*
X132070000Y-64460000D02*
X132090000Y-64440000D01*
X126720000Y-64460000D02*
X132070000Y-64460000D01*
G04 #@! TO.N,Net-(C15-Pad2)*
X131920000Y-59330000D02*
X132020000Y-59430000D01*
X126670000Y-59330000D02*
X131920000Y-59330000D01*
G04 #@! TO.N,Net-(C19-Pad2)*
X131930000Y-74540000D02*
X132000000Y-74610000D01*
X126440000Y-74540000D02*
X131930000Y-74540000D01*
G04 #@! TO.N,Net-(C23-Pad2)*
X131950000Y-79690000D02*
X132040000Y-79780000D01*
X126490000Y-79690000D02*
X131950000Y-79690000D01*
G04 #@! TO.N,Net-(C27-Pad2)*
X131790000Y-54230000D02*
X131880000Y-54320000D01*
X126740000Y-54230000D02*
X131790000Y-54230000D01*
G04 #@! TD*
M02*
