G04 #@! TF.FileFunction,Copper,L1,Top,Signal*
%FSLAX46Y46*%
G04 Gerber Fmt 4.6, Leading zero omitted, Abs format (unit mm)*
G04 Created by KiCad (PCBNEW 4.0.2-stable) date 5/6/2016 11:18:34 AM*
%MOMM*%
G01*
G04 APERTURE LIST*
%ADD10C,0.100000*%
%ADD11R,1.651000X3.048000*%
%ADD12R,6.096000X6.096000*%
%ADD13R,1.000000X1.250000*%
%ADD14R,1.250000X1.000000*%
%ADD15R,1.727200X2.032000*%
%ADD16O,1.727200X2.032000*%
%ADD17R,0.700000X1.300000*%
%ADD18R,1.300000X0.700000*%
%ADD19R,2.032000X1.727200*%
%ADD20O,2.032000X1.727200*%
%ADD21R,1.450000X0.450000*%
%ADD22C,0.685800*%
%ADD23C,0.152400*%
G04 APERTURE END LIST*
D10*
D11*
X171069000Y-94615000D03*
D12*
X173355000Y-88265000D03*
D11*
X175641000Y-94615000D03*
D13*
X170720000Y-99695000D03*
X172720000Y-99695000D03*
D14*
X179070000Y-88535000D03*
X179070000Y-90535000D03*
D13*
X186055000Y-95250000D03*
X184055000Y-95250000D03*
D15*
X194310000Y-83820000D03*
D16*
X191770000Y-83820000D03*
X189230000Y-83820000D03*
D15*
X184785000Y-102870000D03*
D16*
X182245000Y-102870000D03*
X179705000Y-102870000D03*
D17*
X190820000Y-95250000D03*
X192720000Y-95250000D03*
D18*
X198120000Y-93345000D03*
X198120000Y-91445000D03*
D19*
X183515000Y-86360000D03*
D20*
X183515000Y-88900000D03*
X183515000Y-91440000D03*
D21*
X194085000Y-91780000D03*
X194085000Y-91130000D03*
X194085000Y-90480000D03*
X194085000Y-89830000D03*
X188185000Y-89830000D03*
X188185000Y-90480000D03*
X188185000Y-91130000D03*
X188185000Y-91780000D03*
D22*
X180340000Y-83820000D03*
X179070000Y-98425000D03*
D23*
X170720000Y-99695000D02*
X170720000Y-99820000D01*
X170720000Y-99820000D02*
X175014610Y-104114610D01*
X175014610Y-104114610D02*
X181152790Y-104114610D01*
X181152790Y-104114610D02*
X182245000Y-103022400D01*
X182245000Y-103022400D02*
X182245000Y-102870000D01*
X171069000Y-94615000D02*
X171069000Y-99346000D01*
X171069000Y-99346000D02*
X170720000Y-99695000D01*
X183515000Y-86360000D02*
X189382400Y-86360000D01*
X189382400Y-86360000D02*
X191770000Y-83972400D01*
X191770000Y-83972400D02*
X191770000Y-83820000D01*
X179070000Y-88535000D02*
X181340000Y-88535000D01*
X181340000Y-88535000D02*
X182346600Y-87528400D01*
X182346600Y-87528400D02*
X182346600Y-87376000D01*
X182346600Y-87376000D02*
X183362600Y-86360000D01*
X183362600Y-86360000D02*
X183515000Y-86360000D01*
X175641000Y-94615000D02*
X176618900Y-94615000D01*
X176618900Y-94615000D02*
X179923601Y-91310299D01*
X179923601Y-91310299D02*
X179923601Y-89263601D01*
X179923601Y-89263601D02*
X179195000Y-88535000D01*
X179195000Y-88535000D02*
X179070000Y-88535000D01*
X186055000Y-95250000D02*
X186055000Y-93410000D01*
X186055000Y-93410000D02*
X187685000Y-91780000D01*
X187685000Y-91780000D02*
X188185000Y-91780000D01*
X194310000Y-83820000D02*
X194310000Y-83972400D01*
X194310000Y-83972400D02*
X193131399Y-85151001D01*
X193131399Y-85151001D02*
X193131399Y-90403799D01*
X193131399Y-90403799D02*
X193207600Y-90480000D01*
X193207600Y-90480000D02*
X194085000Y-90480000D01*
X198120000Y-91445000D02*
X198420000Y-91445000D01*
X198420000Y-91445000D02*
X198998601Y-92023601D01*
X198998601Y-92023601D02*
X198998601Y-93877881D01*
X198998601Y-93877881D02*
X190006482Y-102870000D01*
X190006482Y-102870000D02*
X185801000Y-102870000D01*
X185801000Y-102870000D02*
X184785000Y-102870000D01*
X188185000Y-90480000D02*
X188185000Y-91130000D01*
X190820000Y-95250000D02*
X190820000Y-92887600D01*
X190820000Y-92887600D02*
X189062400Y-91130000D01*
X189062400Y-91130000D02*
X188185000Y-91130000D01*
X192720000Y-95250000D02*
X192720000Y-94950000D01*
X192720000Y-94950000D02*
X194325000Y-93345000D01*
X194325000Y-93345000D02*
X197317600Y-93345000D01*
X197317600Y-93345000D02*
X198120000Y-93345000D01*
X188185000Y-89830000D02*
X184445000Y-89830000D01*
X184445000Y-89830000D02*
X183515000Y-88900000D01*
X180340000Y-83820000D02*
X174599600Y-83820000D01*
X174599600Y-83820000D02*
X173355000Y-85064600D01*
X173355000Y-85064600D02*
X173355000Y-88265000D01*
X189230000Y-83820000D02*
X174599600Y-83820000D01*
X173355000Y-88265000D02*
X176800000Y-88265000D01*
X176800000Y-88265000D02*
X178292600Y-89757600D01*
X178292600Y-89757600D02*
X178292600Y-89882600D01*
X178945000Y-90535000D02*
X179070000Y-90535000D01*
X178292600Y-89882600D02*
X178945000Y-90535000D01*
X184055000Y-95250000D02*
X184055000Y-91980000D01*
X184055000Y-91980000D02*
X183515000Y-91440000D01*
X184055000Y-95250000D02*
X182245000Y-95250000D01*
X182245000Y-95250000D02*
X179070000Y-98425000D01*
X172720000Y-99695000D02*
X172720000Y-88900000D01*
X172720000Y-88900000D02*
X173355000Y-88265000D01*
X172720000Y-99695000D02*
X177800000Y-99695000D01*
X177800000Y-99695000D02*
X179070000Y-98425000D01*
M02*
