G04 #@! TF.FileFunction,Paste,Top*
%FSLAX46Y46*%
G04 Gerber Fmt 4.6, Leading zero omitted, Abs format (unit mm)*
G04 Created by KiCad (PCBNEW 4.0.4-stable) date Friday, December 09, 2016 'PMt' 01:21:17 PM*
%MOMM*%
%LPD*%
G01*
G04 APERTURE LIST*
%ADD10C,0.100000*%
%ADD11C,0.450000*%
%ADD12R,0.600000X1.550000*%
%ADD13R,1.060000X0.650000*%
%ADD14R,4.700000X3.430000*%
%ADD15R,3.500120X2.301240*%
%ADD16R,1.597660X1.800860*%
%ADD17R,2.000000X1.700000*%
%ADD18R,2.301240X3.500120*%
%ADD19R,2.000000X1.600000*%
%ADD20R,1.800860X1.597660*%
%ADD21R,1.500000X1.300000*%
%ADD22R,1.800860X3.500120*%
%ADD23R,1.700000X2.000000*%
%ADD24R,2.000000X2.500000*%
%ADD25R,3.100000X5.400000*%
%ADD26R,2.500000X2.000000*%
%ADD27R,3.500120X1.800860*%
%ADD28R,1.300000X1.500000*%
%ADD29R,5.400000X3.100000*%
%ADD30R,1.600000X2.000000*%
%ADD31R,1.524000X2.032000*%
%ADD32R,1.000760X1.501140*%
%ADD33R,1.998980X2.999740*%
%ADD34R,1.220000X0.400000*%
%ADD35R,2.500000X3.200000*%
%ADD36R,5.000000X2.032000*%
%ADD37R,0.910000X1.220000*%
%ADD38R,2.032000X1.524000*%
%ADD39R,2.150000X0.450000*%
%ADD40R,0.450000X2.150000*%
%ADD41R,2.700000X3.200000*%
G04 APERTURE END LIST*
D10*
D11*
X27840000Y-123910000D02*
X27840000Y-134410000D01*
X28840000Y-123910000D02*
X28840000Y-134410000D01*
X29840000Y-123910000D02*
X29840000Y-134410000D01*
X25070000Y-123910000D02*
X25070000Y-134410000D01*
X24070000Y-123910000D02*
X24070000Y-134410000D01*
X25850000Y-123910000D02*
X25850000Y-134410000D01*
X27880000Y-94880000D02*
X27880000Y-105380000D01*
X28880000Y-94880000D02*
X28880000Y-105380000D01*
X29880000Y-94880000D02*
X29880000Y-105380000D01*
X25110000Y-94880000D02*
X25110000Y-105380000D01*
X24110000Y-94880000D02*
X24110000Y-105380000D01*
X25890000Y-94880000D02*
X25890000Y-105380000D01*
X27720000Y-68720000D02*
X27720000Y-79220000D01*
X28720000Y-68720000D02*
X28720000Y-79220000D01*
X29720000Y-68720000D02*
X29720000Y-79220000D01*
X24950000Y-68720000D02*
X24950000Y-79220000D01*
X23950000Y-68720000D02*
X23950000Y-79220000D01*
X25730000Y-68720000D02*
X25730000Y-79220000D01*
X26730000Y-68720000D02*
X26730000Y-79220000D01*
X51514000Y-154500000D02*
X51514000Y-165000000D01*
X52514000Y-154500000D02*
X52514000Y-165000000D01*
X53514000Y-154500000D02*
X53514000Y-165000000D01*
X48744000Y-154500000D02*
X48744000Y-165000000D01*
X47744000Y-154500000D02*
X47744000Y-165000000D01*
X49524000Y-154500000D02*
X49524000Y-165000000D01*
X50524000Y-154500000D02*
X50524000Y-165000000D01*
D12*
X15505000Y-51700000D03*
X14235000Y-51700000D03*
X12965000Y-51700000D03*
X11695000Y-51700000D03*
X11695000Y-57100000D03*
X12965000Y-57100000D03*
X14235000Y-57100000D03*
X15505000Y-57100000D03*
D13*
X28000000Y-49250000D03*
X28000000Y-50200000D03*
X28000000Y-51150000D03*
X30200000Y-51150000D03*
X30200000Y-49250000D03*
D14*
X16600000Y-137500000D03*
X27000000Y-137600000D03*
X38500000Y-138300000D03*
D15*
X40400040Y-116700000D03*
X35000000Y-116700000D03*
D16*
X19420140Y-116100000D03*
X22259860Y-116100000D03*
D17*
X29000000Y-119000000D03*
X25000000Y-119000000D03*
D16*
X17719860Y-63900000D03*
X14880140Y-63900000D03*
D17*
X29400000Y-63800000D03*
X25400000Y-63800000D03*
D14*
X38100000Y-109700000D03*
D17*
X29000000Y-90100000D03*
X25000000Y-90100000D03*
D15*
X40600040Y-88200000D03*
X35200000Y-88200000D03*
D14*
X26900000Y-108900000D03*
X16500000Y-108800000D03*
D16*
X17319860Y-90200000D03*
X14480140Y-90200000D03*
D18*
X52200000Y-81600040D03*
X52200000Y-76200000D03*
D14*
X38300000Y-64500000D03*
X27400000Y-82900000D03*
X16500000Y-82900000D03*
D19*
X66800000Y-30400000D03*
X62800000Y-30400000D03*
D20*
X76700000Y-39780140D03*
X76700000Y-42619860D03*
D21*
X71850000Y-49400000D03*
X69150000Y-49400000D03*
D17*
X73500000Y-55400000D03*
X77500000Y-55400000D03*
D22*
X62300000Y-54000640D03*
X62300000Y-58999360D03*
D23*
X74800000Y-59700000D03*
X74800000Y-63700000D03*
D24*
X67300000Y-65000000D03*
X71300000Y-65000000D03*
D23*
X61500000Y-67700000D03*
X61500000Y-63700000D03*
X74800000Y-67100000D03*
X74800000Y-71100000D03*
D15*
X67999980Y-20600000D03*
X73400020Y-20600000D03*
X70800020Y-155600000D03*
X65399980Y-155600000D03*
D19*
X72000000Y-150500000D03*
X76000000Y-150500000D03*
D23*
X77300000Y-108300000D03*
X77300000Y-112300000D03*
D24*
X71500000Y-106000000D03*
X67500000Y-106000000D03*
X71500000Y-111200000D03*
X67500000Y-111200000D03*
D23*
X64000000Y-116500000D03*
X64000000Y-112500000D03*
X64000000Y-109100000D03*
X64000000Y-105100000D03*
D22*
X76500000Y-122199360D03*
X76500000Y-117200640D03*
D17*
X65300000Y-120800000D03*
X61300000Y-120800000D03*
D21*
X66950000Y-126800000D03*
X69650000Y-126800000D03*
D22*
X62100000Y-129699360D03*
X62100000Y-124700640D03*
D19*
X72000000Y-145800000D03*
X76000000Y-145800000D03*
D25*
X76450000Y-136400000D03*
X66350000Y-136400000D03*
D20*
X62100000Y-136419860D03*
X62100000Y-133580140D03*
D23*
X62100000Y-143600000D03*
X62100000Y-139600000D03*
D17*
X113400000Y-166300000D03*
X109400000Y-166300000D03*
D26*
X108100000Y-158800000D03*
X108100000Y-162800000D03*
X102900000Y-158800000D03*
X102900000Y-162800000D03*
D17*
X106000000Y-166300000D03*
X102000000Y-166300000D03*
D27*
X126599360Y-168200000D03*
X121600640Y-168200000D03*
D23*
X117700000Y-165000000D03*
X117700000Y-169000000D03*
D28*
X123700000Y-163350000D03*
X123700000Y-160650000D03*
D27*
X119099360Y-153800000D03*
X114100640Y-153800000D03*
D17*
X104100000Y-153200000D03*
X108100000Y-153200000D03*
X140500000Y-168200000D03*
X136500000Y-168200000D03*
D18*
X152500000Y-159499980D03*
X152500000Y-164900020D03*
D29*
X133300000Y-153850000D03*
X133300000Y-163950000D03*
D16*
X133319860Y-168200000D03*
X130480140Y-168200000D03*
D30*
X142700000Y-158300000D03*
X142700000Y-154300000D03*
X147400000Y-158300000D03*
X147400000Y-154300000D03*
D26*
X105300000Y-136900000D03*
X105300000Y-140900000D03*
D17*
X115800000Y-144400000D03*
X111800000Y-144400000D03*
D27*
X121499360Y-131900000D03*
X116500640Y-131900000D03*
D23*
X120100000Y-143100000D03*
X120100000Y-147100000D03*
D17*
X108400000Y-144400000D03*
X104400000Y-144400000D03*
D26*
X110500000Y-136900000D03*
X110500000Y-140900000D03*
D17*
X107800000Y-131100000D03*
X111800000Y-131100000D03*
D27*
X128999360Y-146300000D03*
X124000640Y-146300000D03*
D28*
X126100000Y-141450000D03*
X126100000Y-138750000D03*
D16*
X135719860Y-146300000D03*
X132880140Y-146300000D03*
D17*
X142900000Y-146300000D03*
X138900000Y-146300000D03*
D29*
X135700000Y-131950000D03*
X135700000Y-142050000D03*
D18*
X154900000Y-137599980D03*
X154900000Y-143000020D03*
D30*
X145100000Y-136400000D03*
X145100000Y-132400000D03*
X149800000Y-136400000D03*
X149800000Y-132400000D03*
X149800000Y-108800000D03*
X149800000Y-104800000D03*
X145100000Y-108800000D03*
X145100000Y-104800000D03*
D18*
X154900000Y-109999980D03*
X154900000Y-115400020D03*
D17*
X142900000Y-118700000D03*
X138900000Y-118700000D03*
D16*
X135719860Y-118700000D03*
X132880140Y-118700000D03*
D28*
X126100000Y-113850000D03*
X126100000Y-111150000D03*
D29*
X135700000Y-104350000D03*
X135700000Y-114450000D03*
D27*
X128999360Y-118700000D03*
X124000640Y-118700000D03*
D26*
X110500000Y-109300000D03*
X110500000Y-113300000D03*
D17*
X108400000Y-116800000D03*
X104400000Y-116800000D03*
D23*
X120100000Y-115500000D03*
X120100000Y-119500000D03*
D27*
X121499360Y-104300000D03*
X116500640Y-104300000D03*
D17*
X115800000Y-116800000D03*
X111800000Y-116800000D03*
X107400000Y-103600000D03*
X111400000Y-103600000D03*
D26*
X105300000Y-109300000D03*
X105300000Y-113300000D03*
D30*
X149100000Y-83500000D03*
X149100000Y-79500000D03*
X144400000Y-83500000D03*
X144400000Y-79500000D03*
D17*
X142200000Y-93400000D03*
X138200000Y-93400000D03*
D27*
X128299360Y-93400000D03*
X123300640Y-93400000D03*
D28*
X125400000Y-88550000D03*
X125400000Y-85850000D03*
D16*
X135019860Y-93400000D03*
X132180140Y-93400000D03*
D29*
X135000000Y-79050000D03*
X135000000Y-89150000D03*
D26*
X109800000Y-84000000D03*
X109800000Y-88000000D03*
D23*
X119400000Y-90200000D03*
X119400000Y-94200000D03*
D27*
X120799360Y-79000000D03*
X115800640Y-79000000D03*
D17*
X106500000Y-78300000D03*
X110500000Y-78300000D03*
X115100000Y-91500000D03*
X111100000Y-91500000D03*
D18*
X154200000Y-84699980D03*
X154200000Y-90100020D03*
D17*
X107700000Y-91500000D03*
X103700000Y-91500000D03*
D26*
X104600000Y-84000000D03*
X104600000Y-88000000D03*
D17*
X142300000Y-66400000D03*
X138300000Y-66400000D03*
D30*
X149200000Y-56500000D03*
X149200000Y-52500000D03*
D18*
X154300000Y-57699980D03*
X154300000Y-63100020D03*
D30*
X144500000Y-56500000D03*
X144500000Y-52500000D03*
D28*
X125500000Y-61550000D03*
X125500000Y-58850000D03*
D29*
X135100000Y-52050000D03*
X135100000Y-62150000D03*
D27*
X128399360Y-66400000D03*
X123400640Y-66400000D03*
X120899360Y-52000000D03*
X115900640Y-52000000D03*
D23*
X119500000Y-63200000D03*
X119500000Y-67200000D03*
D16*
X135119860Y-66400000D03*
X132280140Y-66400000D03*
D17*
X107400000Y-51200000D03*
X111400000Y-51200000D03*
X115200000Y-64500000D03*
X111200000Y-64500000D03*
D26*
X104700000Y-57000000D03*
X104700000Y-61000000D03*
D17*
X107800000Y-64500000D03*
X103800000Y-64500000D03*
D26*
X109900000Y-57000000D03*
X109900000Y-61000000D03*
D17*
X107800000Y-42000000D03*
X103800000Y-42000000D03*
D26*
X104700000Y-34500000D03*
X104700000Y-38500000D03*
D17*
X115200000Y-42000000D03*
X111200000Y-42000000D03*
D26*
X109900000Y-34500000D03*
X109900000Y-38500000D03*
D17*
X107300000Y-28800000D03*
X111300000Y-28800000D03*
D18*
X154300000Y-35199980D03*
X154300000Y-40600020D03*
D30*
X149200000Y-34000000D03*
X149200000Y-30000000D03*
X144500000Y-34000000D03*
X144500000Y-30000000D03*
D17*
X142300000Y-43900000D03*
X138300000Y-43900000D03*
D29*
X135100000Y-29550000D03*
X135100000Y-39650000D03*
D16*
X135119860Y-43900000D03*
X132280140Y-43900000D03*
D23*
X119500000Y-40700000D03*
X119500000Y-44700000D03*
D27*
X120899360Y-29500000D03*
X115900640Y-29500000D03*
X128399360Y-43900000D03*
X123400640Y-43900000D03*
D28*
X125500000Y-39050000D03*
X125500000Y-36350000D03*
D23*
X107100000Y-18600000D03*
X107100000Y-22600000D03*
D27*
X115999360Y-21800000D03*
X111000640Y-21800000D03*
X108499360Y-7400000D03*
X103500640Y-7400000D03*
D29*
X122700000Y-7450000D03*
X122700000Y-17550000D03*
D16*
X122719860Y-21800000D03*
X119880140Y-21800000D03*
D28*
X113100000Y-16950000D03*
X113100000Y-14250000D03*
D17*
X129900000Y-21800000D03*
X125900000Y-21800000D03*
D30*
X132100000Y-11900000D03*
X132100000Y-7900000D03*
D18*
X141900000Y-13099980D03*
X141900000Y-18500020D03*
D30*
X136800000Y-11900000D03*
X136800000Y-7900000D03*
D17*
X94800000Y-6600000D03*
X98800000Y-6600000D03*
X102800000Y-19900000D03*
X98800000Y-19900000D03*
D26*
X97500000Y-12400000D03*
X97500000Y-16400000D03*
X92300000Y-12400000D03*
X92300000Y-16400000D03*
D17*
X95400000Y-19900000D03*
X91400000Y-19900000D03*
D31*
X45349000Y-29900000D03*
X48651000Y-29900000D03*
D16*
X5119860Y-56000000D03*
X2280140Y-56000000D03*
X5100000Y-53300000D03*
X2260280Y-53300000D03*
D23*
X47200000Y-15300000D03*
X47200000Y-11300000D03*
X44500000Y-15300000D03*
X44500000Y-11300000D03*
X41800000Y-15300000D03*
X41800000Y-11300000D03*
X39100000Y-15300000D03*
X39100000Y-11300000D03*
D17*
X16400000Y-28100000D03*
X12400000Y-28100000D03*
X16400000Y-33500000D03*
X12400000Y-33500000D03*
X16400000Y-36200000D03*
X12400000Y-36200000D03*
X16400000Y-38900000D03*
X12400000Y-38900000D03*
X16400000Y-41600000D03*
X12400000Y-41600000D03*
D23*
X29600000Y-15300000D03*
X29600000Y-11300000D03*
X26900000Y-15300000D03*
X26900000Y-11300000D03*
X24200000Y-15300000D03*
X24200000Y-11300000D03*
X21500000Y-15300000D03*
X21500000Y-11300000D03*
D31*
X30551000Y-56200000D03*
X27249000Y-56200000D03*
X27449000Y-53600000D03*
X30751000Y-53600000D03*
X45298000Y-38600000D03*
X48600000Y-38600000D03*
X30551000Y-58900000D03*
X27249000Y-58900000D03*
X2100000Y-58600000D03*
X5402000Y-58600000D03*
D32*
X44301140Y-50948340D03*
X42800000Y-50948340D03*
X41298860Y-50948340D03*
D33*
X42800000Y-53899820D03*
D10*
G36*
X41799240Y-52425350D02*
X42299620Y-51676050D01*
X43300380Y-51676050D01*
X43800760Y-52425350D01*
X41799240Y-52425350D01*
X41799240Y-52425350D01*
G37*
D19*
X44800000Y-41200000D03*
X48800000Y-41200000D03*
X48900000Y-27300000D03*
X44900000Y-27300000D03*
D31*
X45298000Y-36000000D03*
X48600000Y-36000000D03*
D34*
X45590000Y-33325000D03*
X45590000Y-32675000D03*
X45590000Y-32025000D03*
X45590000Y-33975000D03*
X48210000Y-32025000D03*
X48210000Y-32675000D03*
X48210000Y-33325000D03*
X48210000Y-33975000D03*
D31*
X2100000Y-61100000D03*
X5402000Y-61100000D03*
X5202000Y-63700000D03*
X1900000Y-63700000D03*
X2098000Y-50700000D03*
X5400000Y-50700000D03*
D17*
X16400000Y-30800000D03*
X12400000Y-30800000D03*
D35*
X63600000Y-39800000D03*
X71200000Y-39800000D03*
D36*
X15925000Y-126620000D03*
X15925000Y-131700000D03*
X15965000Y-97590000D03*
X15965000Y-102670000D03*
D37*
X22735000Y-119100000D03*
X19465000Y-119100000D03*
D36*
X15805000Y-71430000D03*
X15805000Y-76510000D03*
D37*
X23135000Y-63900000D03*
X19865000Y-63900000D03*
X22735000Y-90200000D03*
X19465000Y-90200000D03*
D38*
X76700000Y-32949000D03*
X76700000Y-36251000D03*
D39*
X103062500Y-11895000D03*
X103062500Y-13165000D03*
X103062500Y-14435000D03*
X103062500Y-15705000D03*
X108812500Y-15705000D03*
X108812500Y-14435000D03*
X108812500Y-13165000D03*
X108812500Y-11895000D03*
D40*
X66795000Y-59437500D03*
X68065000Y-59437500D03*
X69335000Y-59437500D03*
X70605000Y-59437500D03*
X70605000Y-53687500D03*
X69335000Y-53687500D03*
X68065000Y-53687500D03*
X66795000Y-53687500D03*
D39*
X115462500Y-33995000D03*
X115462500Y-35265000D03*
X115462500Y-36535000D03*
X115462500Y-37805000D03*
X121212500Y-37805000D03*
X121212500Y-36535000D03*
X121212500Y-35265000D03*
X121212500Y-33995000D03*
X115462500Y-56495000D03*
X115462500Y-57765000D03*
X115462500Y-59035000D03*
X115462500Y-60305000D03*
X121212500Y-60305000D03*
X121212500Y-59035000D03*
X121212500Y-57765000D03*
X121212500Y-56495000D03*
X115362500Y-83495000D03*
X115362500Y-84765000D03*
X115362500Y-86035000D03*
X115362500Y-87305000D03*
X121112500Y-87305000D03*
X121112500Y-86035000D03*
X121112500Y-84765000D03*
X121112500Y-83495000D03*
X116062500Y-108795000D03*
X116062500Y-110065000D03*
X116062500Y-111335000D03*
X116062500Y-112605000D03*
X121812500Y-112605000D03*
X121812500Y-111335000D03*
X121812500Y-110065000D03*
X121812500Y-108795000D03*
X116062500Y-136395000D03*
X116062500Y-137665000D03*
X116062500Y-138935000D03*
X116062500Y-140205000D03*
X121812500Y-140205000D03*
X121812500Y-138935000D03*
X121812500Y-137665000D03*
X121812500Y-136395000D03*
X113662500Y-158295000D03*
X113662500Y-159565000D03*
X113662500Y-160835000D03*
X113662500Y-162105000D03*
X119412500Y-162105000D03*
X119412500Y-160835000D03*
X119412500Y-159565000D03*
X119412500Y-158295000D03*
D40*
X72005000Y-116762500D03*
X70735000Y-116762500D03*
X69465000Y-116762500D03*
X68195000Y-116762500D03*
X68195000Y-122512500D03*
X69465000Y-122512500D03*
X70735000Y-122512500D03*
X72005000Y-122512500D03*
D36*
X39599000Y-157210000D03*
X39599000Y-162290000D03*
D41*
X30340000Y-144272000D03*
X38240000Y-144272000D03*
M02*
