G04 #@! TF.FileFunction,Copper,L2,Bot,Signal*
%FSLAX46Y46*%
G04 Gerber Fmt 4.6, Leading zero omitted, Abs format (unit mm)*
G04 Created by KiCad (PCBNEW 4.0.1-stable) date Wednesday, August 10, 2016 'PMt' 06:46:32 PM*
%MOMM*%
G01*
G04 APERTURE LIST*
%ADD10C,0.100000*%
%ADD11R,2.032000X2.032000*%
%ADD12O,2.032000X2.032000*%
%ADD13R,1.727200X2.032000*%
%ADD14O,1.727200X2.032000*%
%ADD15C,5.600000*%
%ADD16C,0.600000*%
%ADD17C,0.254000*%
G04 APERTURE END LIST*
D10*
D11*
X147828000Y-93980000D03*
D12*
X150368000Y-93980000D03*
D13*
X152146000Y-119634000D03*
D14*
X149606000Y-119634000D03*
X147066000Y-119634000D03*
D11*
X147828000Y-90424000D03*
D12*
X150368000Y-90424000D03*
D15*
X134874000Y-106426000D03*
X163576000Y-106426000D03*
D16*
X140970000Y-105664000D03*
D17*
G36*
X156365877Y-89493004D02*
X162311954Y-93466046D01*
X166284996Y-99412123D01*
X167680143Y-106426000D01*
X166284996Y-113439877D01*
X162311954Y-119385954D01*
X156365877Y-123358996D01*
X149352000Y-124754143D01*
X142338123Y-123358996D01*
X137304915Y-119995913D01*
X145580816Y-119995913D01*
X145774046Y-120548320D01*
X146163964Y-120984732D01*
X146691209Y-121238709D01*
X146706974Y-121241358D01*
X146939000Y-121120217D01*
X146939000Y-119761000D01*
X145725076Y-119761000D01*
X145580816Y-119995913D01*
X137304915Y-119995913D01*
X136392046Y-119385954D01*
X136315963Y-119272087D01*
X145580816Y-119272087D01*
X145725076Y-119507000D01*
X146939000Y-119507000D01*
X146939000Y-118147783D01*
X147193000Y-118147783D01*
X147193000Y-119507000D01*
X147213000Y-119507000D01*
X147213000Y-119761000D01*
X147193000Y-119761000D01*
X147193000Y-121120217D01*
X147425026Y-121241358D01*
X147440791Y-121238709D01*
X147968036Y-120984732D01*
X148339539Y-120568931D01*
X148546330Y-120878415D01*
X149032511Y-121203271D01*
X149606000Y-121317345D01*
X150179489Y-121203271D01*
X150665670Y-120878415D01*
X150675243Y-120864087D01*
X150679238Y-120885317D01*
X150818310Y-121101441D01*
X151030510Y-121246431D01*
X151282400Y-121297440D01*
X153009600Y-121297440D01*
X153244917Y-121253162D01*
X153461041Y-121114090D01*
X153606031Y-120901890D01*
X153657040Y-120650000D01*
X153657040Y-118618000D01*
X153612762Y-118382683D01*
X153473690Y-118166559D01*
X153261490Y-118021569D01*
X153009600Y-117970560D01*
X151282400Y-117970560D01*
X151047083Y-118014838D01*
X150830959Y-118153910D01*
X150685969Y-118366110D01*
X150677600Y-118407439D01*
X150665670Y-118389585D01*
X150179489Y-118064729D01*
X149606000Y-117950655D01*
X149032511Y-118064729D01*
X148546330Y-118389585D01*
X148339539Y-118699069D01*
X147968036Y-118283268D01*
X147440791Y-118029291D01*
X147425026Y-118026642D01*
X147193000Y-118147783D01*
X146939000Y-118147783D01*
X146706974Y-118026642D01*
X146691209Y-118029291D01*
X146163964Y-118283268D01*
X145774046Y-118719680D01*
X145580816Y-119272087D01*
X136315963Y-119272087D01*
X132419004Y-113439877D01*
X131511659Y-108878340D01*
X132601265Y-108878340D01*
X132919501Y-109332203D01*
X134180434Y-109858936D01*
X135546956Y-109863035D01*
X136811027Y-109343878D01*
X136828499Y-109332203D01*
X137146735Y-108878340D01*
X161303265Y-108878340D01*
X161621501Y-109332203D01*
X162882434Y-109858936D01*
X164248956Y-109863035D01*
X165513027Y-109343878D01*
X165530499Y-109332203D01*
X165848735Y-108878340D01*
X163576000Y-106605605D01*
X161303265Y-108878340D01*
X137146735Y-108878340D01*
X134874000Y-106605605D01*
X132601265Y-108878340D01*
X131511659Y-108878340D01*
X131157717Y-107098956D01*
X131436965Y-107098956D01*
X131956122Y-108363027D01*
X131967797Y-108380499D01*
X132421660Y-108698735D01*
X134694395Y-106426000D01*
X135053605Y-106426000D01*
X137326340Y-108698735D01*
X137780203Y-108380499D01*
X138306936Y-107119566D01*
X138306997Y-107098956D01*
X160138965Y-107098956D01*
X160658122Y-108363027D01*
X160669797Y-108380499D01*
X161123660Y-108698735D01*
X163396395Y-106426000D01*
X163755605Y-106426000D01*
X166028340Y-108698735D01*
X166482203Y-108380499D01*
X167008936Y-107119566D01*
X167013035Y-105753044D01*
X166493878Y-104488973D01*
X166482203Y-104471501D01*
X166028340Y-104153265D01*
X163755605Y-106426000D01*
X163396395Y-106426000D01*
X161123660Y-104153265D01*
X160669797Y-104471501D01*
X160143064Y-105732434D01*
X160138965Y-107098956D01*
X138306997Y-107098956D01*
X138311035Y-105753044D01*
X137791878Y-104488973D01*
X137780203Y-104471501D01*
X137326340Y-104153265D01*
X135053605Y-106426000D01*
X134694395Y-106426000D01*
X132421660Y-104153265D01*
X131967797Y-104471501D01*
X131441064Y-105732434D01*
X131436965Y-107098956D01*
X131157717Y-107098956D01*
X131023857Y-106426000D01*
X131511657Y-103973660D01*
X132601265Y-103973660D01*
X134874000Y-106246395D01*
X137146735Y-103973660D01*
X161303265Y-103973660D01*
X163576000Y-106246395D01*
X165848735Y-103973660D01*
X165530499Y-103519797D01*
X164269566Y-102993064D01*
X162903044Y-102988965D01*
X161638973Y-103508122D01*
X161621501Y-103519797D01*
X161303265Y-103973660D01*
X137146735Y-103973660D01*
X136828499Y-103519797D01*
X135567566Y-102993064D01*
X134201044Y-102988965D01*
X132936973Y-103508122D01*
X132919501Y-103519797D01*
X132601265Y-103973660D01*
X131511657Y-103973660D01*
X132419004Y-99412123D01*
X135857700Y-94265750D01*
X146177000Y-94265750D01*
X146177000Y-95122309D01*
X146273673Y-95355698D01*
X146452301Y-95534327D01*
X146685690Y-95631000D01*
X147542250Y-95631000D01*
X147701000Y-95472250D01*
X147701000Y-94107000D01*
X146335750Y-94107000D01*
X146177000Y-94265750D01*
X135857700Y-94265750D01*
X136392046Y-93466046D01*
X137332445Y-92837691D01*
X146177000Y-92837691D01*
X146177000Y-93694250D01*
X146335750Y-93853000D01*
X147701000Y-93853000D01*
X147701000Y-92487750D01*
X147955000Y-92487750D01*
X147955000Y-93853000D01*
X147975000Y-93853000D01*
X147975000Y-94107000D01*
X147955000Y-94107000D01*
X147955000Y-95472250D01*
X148113750Y-95631000D01*
X148970310Y-95631000D01*
X149203699Y-95534327D01*
X149382327Y-95355698D01*
X149399999Y-95313034D01*
X149736190Y-95537670D01*
X150368000Y-95663345D01*
X150999810Y-95537670D01*
X151535433Y-95179778D01*
X151893325Y-94644155D01*
X152019000Y-94012345D01*
X152019000Y-93947655D01*
X151893325Y-93315845D01*
X151535433Y-92780222D01*
X150999810Y-92422330D01*
X150368000Y-92296655D01*
X149736190Y-92422330D01*
X149399999Y-92646966D01*
X149382327Y-92604302D01*
X149203699Y-92425673D01*
X148970310Y-92329000D01*
X148113750Y-92329000D01*
X147955000Y-92487750D01*
X147701000Y-92487750D01*
X147542250Y-92329000D01*
X146685690Y-92329000D01*
X146452301Y-92425673D01*
X146273673Y-92604302D01*
X146177000Y-92837691D01*
X137332445Y-92837691D01*
X140517133Y-90709750D01*
X146177000Y-90709750D01*
X146177000Y-91566309D01*
X146273673Y-91799698D01*
X146452301Y-91978327D01*
X146685690Y-92075000D01*
X147542250Y-92075000D01*
X147701000Y-91916250D01*
X147701000Y-90551000D01*
X146335750Y-90551000D01*
X146177000Y-90709750D01*
X140517133Y-90709750D01*
X142338123Y-89493004D01*
X143400465Y-89281691D01*
X146177000Y-89281691D01*
X146177000Y-90138250D01*
X146335750Y-90297000D01*
X147701000Y-90297000D01*
X147701000Y-88931750D01*
X147955000Y-88931750D01*
X147955000Y-90297000D01*
X147975000Y-90297000D01*
X147975000Y-90551000D01*
X147955000Y-90551000D01*
X147955000Y-91916250D01*
X148113750Y-92075000D01*
X148970310Y-92075000D01*
X149203699Y-91978327D01*
X149382327Y-91799698D01*
X149399999Y-91757034D01*
X149736190Y-91981670D01*
X150368000Y-92107345D01*
X150999810Y-91981670D01*
X151535433Y-91623778D01*
X151893325Y-91088155D01*
X152019000Y-90456345D01*
X152019000Y-90391655D01*
X151893325Y-89759845D01*
X151535433Y-89224222D01*
X150999810Y-88866330D01*
X150368000Y-88740655D01*
X149736190Y-88866330D01*
X149399999Y-89090966D01*
X149382327Y-89048302D01*
X149203699Y-88869673D01*
X148970310Y-88773000D01*
X148113750Y-88773000D01*
X147955000Y-88931750D01*
X147701000Y-88931750D01*
X147542250Y-88773000D01*
X146685690Y-88773000D01*
X146452301Y-88869673D01*
X146273673Y-89048302D01*
X146177000Y-89281691D01*
X143400465Y-89281691D01*
X149352000Y-88097857D01*
X156365877Y-89493004D01*
X156365877Y-89493004D01*
G37*
X156365877Y-89493004D02*
X162311954Y-93466046D01*
X166284996Y-99412123D01*
X167680143Y-106426000D01*
X166284996Y-113439877D01*
X162311954Y-119385954D01*
X156365877Y-123358996D01*
X149352000Y-124754143D01*
X142338123Y-123358996D01*
X137304915Y-119995913D01*
X145580816Y-119995913D01*
X145774046Y-120548320D01*
X146163964Y-120984732D01*
X146691209Y-121238709D01*
X146706974Y-121241358D01*
X146939000Y-121120217D01*
X146939000Y-119761000D01*
X145725076Y-119761000D01*
X145580816Y-119995913D01*
X137304915Y-119995913D01*
X136392046Y-119385954D01*
X136315963Y-119272087D01*
X145580816Y-119272087D01*
X145725076Y-119507000D01*
X146939000Y-119507000D01*
X146939000Y-118147783D01*
X147193000Y-118147783D01*
X147193000Y-119507000D01*
X147213000Y-119507000D01*
X147213000Y-119761000D01*
X147193000Y-119761000D01*
X147193000Y-121120217D01*
X147425026Y-121241358D01*
X147440791Y-121238709D01*
X147968036Y-120984732D01*
X148339539Y-120568931D01*
X148546330Y-120878415D01*
X149032511Y-121203271D01*
X149606000Y-121317345D01*
X150179489Y-121203271D01*
X150665670Y-120878415D01*
X150675243Y-120864087D01*
X150679238Y-120885317D01*
X150818310Y-121101441D01*
X151030510Y-121246431D01*
X151282400Y-121297440D01*
X153009600Y-121297440D01*
X153244917Y-121253162D01*
X153461041Y-121114090D01*
X153606031Y-120901890D01*
X153657040Y-120650000D01*
X153657040Y-118618000D01*
X153612762Y-118382683D01*
X153473690Y-118166559D01*
X153261490Y-118021569D01*
X153009600Y-117970560D01*
X151282400Y-117970560D01*
X151047083Y-118014838D01*
X150830959Y-118153910D01*
X150685969Y-118366110D01*
X150677600Y-118407439D01*
X150665670Y-118389585D01*
X150179489Y-118064729D01*
X149606000Y-117950655D01*
X149032511Y-118064729D01*
X148546330Y-118389585D01*
X148339539Y-118699069D01*
X147968036Y-118283268D01*
X147440791Y-118029291D01*
X147425026Y-118026642D01*
X147193000Y-118147783D01*
X146939000Y-118147783D01*
X146706974Y-118026642D01*
X146691209Y-118029291D01*
X146163964Y-118283268D01*
X145774046Y-118719680D01*
X145580816Y-119272087D01*
X136315963Y-119272087D01*
X132419004Y-113439877D01*
X131511659Y-108878340D01*
X132601265Y-108878340D01*
X132919501Y-109332203D01*
X134180434Y-109858936D01*
X135546956Y-109863035D01*
X136811027Y-109343878D01*
X136828499Y-109332203D01*
X137146735Y-108878340D01*
X161303265Y-108878340D01*
X161621501Y-109332203D01*
X162882434Y-109858936D01*
X164248956Y-109863035D01*
X165513027Y-109343878D01*
X165530499Y-109332203D01*
X165848735Y-108878340D01*
X163576000Y-106605605D01*
X161303265Y-108878340D01*
X137146735Y-108878340D01*
X134874000Y-106605605D01*
X132601265Y-108878340D01*
X131511659Y-108878340D01*
X131157717Y-107098956D01*
X131436965Y-107098956D01*
X131956122Y-108363027D01*
X131967797Y-108380499D01*
X132421660Y-108698735D01*
X134694395Y-106426000D01*
X135053605Y-106426000D01*
X137326340Y-108698735D01*
X137780203Y-108380499D01*
X138306936Y-107119566D01*
X138306997Y-107098956D01*
X160138965Y-107098956D01*
X160658122Y-108363027D01*
X160669797Y-108380499D01*
X161123660Y-108698735D01*
X163396395Y-106426000D01*
X163755605Y-106426000D01*
X166028340Y-108698735D01*
X166482203Y-108380499D01*
X167008936Y-107119566D01*
X167013035Y-105753044D01*
X166493878Y-104488973D01*
X166482203Y-104471501D01*
X166028340Y-104153265D01*
X163755605Y-106426000D01*
X163396395Y-106426000D01*
X161123660Y-104153265D01*
X160669797Y-104471501D01*
X160143064Y-105732434D01*
X160138965Y-107098956D01*
X138306997Y-107098956D01*
X138311035Y-105753044D01*
X137791878Y-104488973D01*
X137780203Y-104471501D01*
X137326340Y-104153265D01*
X135053605Y-106426000D01*
X134694395Y-106426000D01*
X132421660Y-104153265D01*
X131967797Y-104471501D01*
X131441064Y-105732434D01*
X131436965Y-107098956D01*
X131157717Y-107098956D01*
X131023857Y-106426000D01*
X131511657Y-103973660D01*
X132601265Y-103973660D01*
X134874000Y-106246395D01*
X137146735Y-103973660D01*
X161303265Y-103973660D01*
X163576000Y-106246395D01*
X165848735Y-103973660D01*
X165530499Y-103519797D01*
X164269566Y-102993064D01*
X162903044Y-102988965D01*
X161638973Y-103508122D01*
X161621501Y-103519797D01*
X161303265Y-103973660D01*
X137146735Y-103973660D01*
X136828499Y-103519797D01*
X135567566Y-102993064D01*
X134201044Y-102988965D01*
X132936973Y-103508122D01*
X132919501Y-103519797D01*
X132601265Y-103973660D01*
X131511657Y-103973660D01*
X132419004Y-99412123D01*
X135857700Y-94265750D01*
X146177000Y-94265750D01*
X146177000Y-95122309D01*
X146273673Y-95355698D01*
X146452301Y-95534327D01*
X146685690Y-95631000D01*
X147542250Y-95631000D01*
X147701000Y-95472250D01*
X147701000Y-94107000D01*
X146335750Y-94107000D01*
X146177000Y-94265750D01*
X135857700Y-94265750D01*
X136392046Y-93466046D01*
X137332445Y-92837691D01*
X146177000Y-92837691D01*
X146177000Y-93694250D01*
X146335750Y-93853000D01*
X147701000Y-93853000D01*
X147701000Y-92487750D01*
X147955000Y-92487750D01*
X147955000Y-93853000D01*
X147975000Y-93853000D01*
X147975000Y-94107000D01*
X147955000Y-94107000D01*
X147955000Y-95472250D01*
X148113750Y-95631000D01*
X148970310Y-95631000D01*
X149203699Y-95534327D01*
X149382327Y-95355698D01*
X149399999Y-95313034D01*
X149736190Y-95537670D01*
X150368000Y-95663345D01*
X150999810Y-95537670D01*
X151535433Y-95179778D01*
X151893325Y-94644155D01*
X152019000Y-94012345D01*
X152019000Y-93947655D01*
X151893325Y-93315845D01*
X151535433Y-92780222D01*
X150999810Y-92422330D01*
X150368000Y-92296655D01*
X149736190Y-92422330D01*
X149399999Y-92646966D01*
X149382327Y-92604302D01*
X149203699Y-92425673D01*
X148970310Y-92329000D01*
X148113750Y-92329000D01*
X147955000Y-92487750D01*
X147701000Y-92487750D01*
X147542250Y-92329000D01*
X146685690Y-92329000D01*
X146452301Y-92425673D01*
X146273673Y-92604302D01*
X146177000Y-92837691D01*
X137332445Y-92837691D01*
X140517133Y-90709750D01*
X146177000Y-90709750D01*
X146177000Y-91566309D01*
X146273673Y-91799698D01*
X146452301Y-91978327D01*
X146685690Y-92075000D01*
X147542250Y-92075000D01*
X147701000Y-91916250D01*
X147701000Y-90551000D01*
X146335750Y-90551000D01*
X146177000Y-90709750D01*
X140517133Y-90709750D01*
X142338123Y-89493004D01*
X143400465Y-89281691D01*
X146177000Y-89281691D01*
X146177000Y-90138250D01*
X146335750Y-90297000D01*
X147701000Y-90297000D01*
X147701000Y-88931750D01*
X147955000Y-88931750D01*
X147955000Y-90297000D01*
X147975000Y-90297000D01*
X147975000Y-90551000D01*
X147955000Y-90551000D01*
X147955000Y-91916250D01*
X148113750Y-92075000D01*
X148970310Y-92075000D01*
X149203699Y-91978327D01*
X149382327Y-91799698D01*
X149399999Y-91757034D01*
X149736190Y-91981670D01*
X150368000Y-92107345D01*
X150999810Y-91981670D01*
X151535433Y-91623778D01*
X151893325Y-91088155D01*
X152019000Y-90456345D01*
X152019000Y-90391655D01*
X151893325Y-89759845D01*
X151535433Y-89224222D01*
X150999810Y-88866330D01*
X150368000Y-88740655D01*
X149736190Y-88866330D01*
X149399999Y-89090966D01*
X149382327Y-89048302D01*
X149203699Y-88869673D01*
X148970310Y-88773000D01*
X148113750Y-88773000D01*
X147955000Y-88931750D01*
X147701000Y-88931750D01*
X147542250Y-88773000D01*
X146685690Y-88773000D01*
X146452301Y-88869673D01*
X146273673Y-89048302D01*
X146177000Y-89281691D01*
X143400465Y-89281691D01*
X149352000Y-88097857D01*
X156365877Y-89493004D01*
M02*
