G04 #@! TF.FileFunction,Soldermask,Top*
%FSLAX46Y46*%
G04 Gerber Fmt 4.6, Leading zero omitted, Abs format (unit mm)*
G04 Created by KiCad (PCBNEW 4.0.4-stable) date Monday, December 19, 2016 'PMt' 01:57:05 PM*
%MOMM*%
%LPD*%
G01*
G04 APERTURE LIST*
%ADD10C,0.100000*%
%ADD11C,0.450000*%
%ADD12C,0.215000*%
%ADD13C,2.400000*%
%ADD14R,2.400000X2.100000*%
%ADD15R,1.997660X2.200860*%
%ADD16R,1.310000X1.620000*%
%ADD17R,1.000000X1.950000*%
%ADD18R,1.460000X1.050000*%
%ADD19R,5.100000X3.830000*%
%ADD20R,3.900120X2.701240*%
%ADD21R,2.701240X3.900120*%
%ADD22R,2.400000X2.000000*%
%ADD23R,2.200860X1.997660*%
%ADD24R,1.900000X1.700000*%
%ADD25R,2.200860X3.900120*%
%ADD26R,2.100000X2.400000*%
%ADD27R,2.400000X2.900000*%
%ADD28C,1.900000*%
%ADD29R,2.900000X2.400000*%
%ADD30R,3.900120X2.200860*%
%ADD31R,1.700000X1.900000*%
%ADD32R,2.000000X2.400000*%
%ADD33R,1.924000X2.432000*%
%ADD34R,1.400760X1.901140*%
%ADD35R,2.398980X3.399740*%
%ADD36R,1.620000X0.800000*%
%ADD37C,2.200000*%
%ADD38C,11.400000*%
%ADD39C,1.100000*%
%ADD40R,2.432000X1.924000*%
%ADD41R,2.550000X0.850000*%
%ADD42R,1.875000X2.030000*%
%ADD43R,0.850000X2.550000*%
%ADD44R,2.030000X1.875000*%
%ADD45R,3.100000X3.600000*%
%ADD46R,2.200000X1.950000*%
%ADD47R,1.650000X2.000000*%
%ADD48R,1.950000X2.200000*%
%ADD49R,5.400000X2.432000*%
%ADD50C,1.400000*%
%ADD51C,1.200000*%
G04 APERTURE END LIST*
D10*
D11*
X54514000Y-154250000D02*
X54514000Y-165250000D01*
X54514000Y-165250000D02*
X46734000Y-165250000D01*
X46734000Y-165250000D02*
X46734000Y-154250000D01*
X46734000Y-154250000D02*
X54514000Y-154250000D01*
D12*
X51114000Y-163750000D02*
G75*
G03X51114000Y-163750000I-100000J0D01*
G01*
X51114000Y-162750000D02*
G75*
G03X51114000Y-162750000I-100000J0D01*
G01*
X51114000Y-164750000D02*
G75*
G03X51114000Y-164750000I-100000J0D01*
G01*
X51114000Y-157750000D02*
G75*
G03X51114000Y-157750000I-100000J0D01*
G01*
X51114000Y-156750000D02*
G75*
G03X51114000Y-156750000I-100000J0D01*
G01*
X51114000Y-154750000D02*
G75*
G03X51114000Y-154750000I-100000J0D01*
G01*
X51114000Y-155750000D02*
G75*
G03X51114000Y-155750000I-100000J0D01*
G01*
X51114000Y-159750000D02*
G75*
G03X51114000Y-159750000I-100000J0D01*
G01*
X51114000Y-158750000D02*
G75*
G03X51114000Y-158750000I-100000J0D01*
G01*
X51114000Y-160750000D02*
G75*
G03X51114000Y-160750000I-100000J0D01*
G01*
X54114000Y-161750000D02*
G75*
G03X54114000Y-161750000I-100000J0D01*
G01*
X54114000Y-160750000D02*
G75*
G03X54114000Y-160750000I-100000J0D01*
G01*
X54114000Y-162750000D02*
G75*
G03X54114000Y-162750000I-100000J0D01*
G01*
X54114000Y-163750000D02*
G75*
G03X54114000Y-163750000I-100000J0D01*
G01*
X53114000Y-160750000D02*
G75*
G03X53114000Y-160750000I-100000J0D01*
G01*
X53114000Y-159750000D02*
G75*
G03X53114000Y-159750000I-100000J0D01*
G01*
X53114000Y-157750000D02*
G75*
G03X53114000Y-157750000I-100000J0D01*
G01*
X53114000Y-158750000D02*
G75*
G03X53114000Y-158750000I-100000J0D01*
G01*
X52114000Y-163750000D02*
G75*
G03X52114000Y-163750000I-100000J0D01*
G01*
X52114000Y-162750000D02*
G75*
G03X52114000Y-162750000I-100000J0D01*
G01*
X52114000Y-164750000D02*
G75*
G03X52114000Y-164750000I-100000J0D01*
G01*
X51114000Y-161750000D02*
G75*
G03X51114000Y-161750000I-100000J0D01*
G01*
X52114000Y-157750000D02*
G75*
G03X52114000Y-157750000I-100000J0D01*
G01*
X52114000Y-156750000D02*
G75*
G03X52114000Y-156750000I-100000J0D01*
G01*
X52114000Y-154750000D02*
G75*
G03X52114000Y-154750000I-100000J0D01*
G01*
X52114000Y-155750000D02*
G75*
G03X52114000Y-155750000I-100000J0D01*
G01*
X53114000Y-162750000D02*
G75*
G03X53114000Y-162750000I-100000J0D01*
G01*
X53114000Y-161750000D02*
G75*
G03X53114000Y-161750000I-100000J0D01*
G01*
X53114000Y-163750000D02*
G75*
G03X53114000Y-163750000I-100000J0D01*
G01*
X53114000Y-164750000D02*
G75*
G03X53114000Y-164750000I-100000J0D01*
G01*
X52114000Y-161750000D02*
G75*
G03X52114000Y-161750000I-100000J0D01*
G01*
X52114000Y-160750000D02*
G75*
G03X52114000Y-160750000I-100000J0D01*
G01*
X52114000Y-158750000D02*
G75*
G03X52114000Y-158750000I-100000J0D01*
G01*
X52114000Y-159750000D02*
G75*
G03X52114000Y-159750000I-100000J0D01*
G01*
X53114000Y-154750000D02*
G75*
G03X53114000Y-154750000I-100000J0D01*
G01*
X54114000Y-164750000D02*
G75*
G03X54114000Y-164750000I-100000J0D01*
G01*
X53114000Y-155750000D02*
G75*
G03X53114000Y-155750000I-100000J0D01*
G01*
X53114000Y-156750000D02*
G75*
G03X53114000Y-156750000I-100000J0D01*
G01*
X54114000Y-159750000D02*
G75*
G03X54114000Y-159750000I-100000J0D01*
G01*
X54114000Y-158750000D02*
G75*
G03X54114000Y-158750000I-100000J0D01*
G01*
X54114000Y-156750000D02*
G75*
G03X54114000Y-156750000I-100000J0D01*
G01*
X54114000Y-157750000D02*
G75*
G03X54114000Y-157750000I-100000J0D01*
G01*
X54114000Y-155750000D02*
G75*
G03X54114000Y-155750000I-100000J0D01*
G01*
X54114000Y-154750000D02*
G75*
G03X54114000Y-154750000I-100000J0D01*
G01*
D11*
X51514000Y-154500000D02*
X51514000Y-165000000D01*
X52514000Y-154500000D02*
X52514000Y-165000000D01*
X53514000Y-154500000D02*
X53514000Y-165000000D01*
X54314000Y-164250000D02*
X46734000Y-164250000D01*
X54314000Y-163250000D02*
X46734000Y-163250000D01*
X54314000Y-162250000D02*
X46734000Y-162250000D01*
X54314000Y-161250000D02*
X46734000Y-161250000D01*
X54314000Y-160250000D02*
X46734000Y-160250000D01*
X54314000Y-159250000D02*
X46734000Y-159250000D01*
X54314000Y-158250000D02*
X46734000Y-158250000D01*
X54314000Y-157250000D02*
X46734000Y-157250000D01*
X54314000Y-156250000D02*
X46734000Y-156250000D01*
X54314000Y-155250000D02*
X46734000Y-155250000D01*
D12*
X48344000Y-155750000D02*
G75*
G03X48344000Y-155750000I-100000J0D01*
G01*
X48344000Y-154750000D02*
G75*
G03X48344000Y-154750000I-100000J0D01*
G01*
X47344000Y-154750000D02*
G75*
G03X47344000Y-154750000I-100000J0D01*
G01*
X47344000Y-155750000D02*
G75*
G03X47344000Y-155750000I-100000J0D01*
G01*
X48344000Y-156750000D02*
G75*
G03X48344000Y-156750000I-100000J0D01*
G01*
X47344000Y-157750000D02*
G75*
G03X47344000Y-157750000I-100000J0D01*
G01*
X47344000Y-156750000D02*
G75*
G03X47344000Y-156750000I-100000J0D01*
G01*
X49344000Y-157750000D02*
G75*
G03X49344000Y-157750000I-100000J0D01*
G01*
X48344000Y-157750000D02*
G75*
G03X48344000Y-157750000I-100000J0D01*
G01*
X49344000Y-156750000D02*
G75*
G03X49344000Y-156750000I-100000J0D01*
G01*
D11*
X48744000Y-154500000D02*
X48744000Y-165000000D01*
X49524000Y-154500000D02*
X49524000Y-165000000D01*
D12*
X49344000Y-154750000D02*
G75*
G03X49344000Y-154750000I-100000J0D01*
G01*
X49344000Y-155750000D02*
G75*
G03X49344000Y-155750000I-100000J0D01*
G01*
D11*
X47744000Y-154500000D02*
X47744000Y-165000000D01*
D12*
X47344000Y-160750000D02*
G75*
G03X47344000Y-160750000I-100000J0D01*
G01*
X47344000Y-159750000D02*
G75*
G03X47344000Y-159750000I-100000J0D01*
G01*
X47344000Y-158750000D02*
G75*
G03X47344000Y-158750000I-100000J0D01*
G01*
X48344000Y-161750000D02*
G75*
G03X48344000Y-161750000I-100000J0D01*
G01*
X48344000Y-160750000D02*
G75*
G03X48344000Y-160750000I-100000J0D01*
G01*
X48344000Y-158750000D02*
G75*
G03X48344000Y-158750000I-100000J0D01*
G01*
X47344000Y-161750000D02*
G75*
G03X47344000Y-161750000I-100000J0D01*
G01*
X48344000Y-159750000D02*
G75*
G03X48344000Y-159750000I-100000J0D01*
G01*
X48344000Y-162750000D02*
G75*
G03X48344000Y-162750000I-100000J0D01*
G01*
X49344000Y-162750000D02*
G75*
G03X49344000Y-162750000I-100000J0D01*
G01*
X49344000Y-161750000D02*
G75*
G03X49344000Y-161750000I-100000J0D01*
G01*
X49344000Y-160750000D02*
G75*
G03X49344000Y-160750000I-100000J0D01*
G01*
X49344000Y-159750000D02*
G75*
G03X49344000Y-159750000I-100000J0D01*
G01*
X49344000Y-158750000D02*
G75*
G03X49344000Y-158750000I-100000J0D01*
G01*
X47344000Y-164750000D02*
G75*
G03X47344000Y-164750000I-100000J0D01*
G01*
X47344000Y-163750000D02*
G75*
G03X47344000Y-163750000I-100000J0D01*
G01*
X47344000Y-162750000D02*
G75*
G03X47344000Y-162750000I-100000J0D01*
G01*
X48344000Y-163750000D02*
G75*
G03X48344000Y-163750000I-100000J0D01*
G01*
X48344000Y-164750000D02*
G75*
G03X48344000Y-164750000I-100000J0D01*
G01*
X49344000Y-163750000D02*
G75*
G03X49344000Y-163750000I-100000J0D01*
G01*
X49344000Y-164750000D02*
G75*
G03X49344000Y-164750000I-100000J0D01*
G01*
D11*
X50534000Y-154510000D02*
X50534000Y-165010000D01*
X54344000Y-154830000D02*
X46764000Y-154830000D01*
X54344000Y-154490000D02*
X46764000Y-154490000D01*
X54314000Y-156350000D02*
X46734000Y-156350000D01*
X54344000Y-155930000D02*
X46764000Y-155930000D01*
X54344000Y-155590000D02*
X46764000Y-155590000D01*
X54364000Y-157380000D02*
X46784000Y-157380000D01*
X54394000Y-156960000D02*
X46814000Y-156960000D01*
X54394000Y-156620000D02*
X46814000Y-156620000D01*
X54364000Y-158220000D02*
X46784000Y-158220000D01*
X54394000Y-157800000D02*
X46814000Y-157800000D01*
X54394000Y-157460000D02*
X46814000Y-157460000D01*
X54394000Y-159320000D02*
X46814000Y-159320000D01*
X54424000Y-158900000D02*
X46844000Y-158900000D01*
X54424000Y-158560000D02*
X46844000Y-158560000D01*
X54394000Y-160260000D02*
X46814000Y-160260000D01*
X54424000Y-159840000D02*
X46844000Y-159840000D01*
X54424000Y-159500000D02*
X46844000Y-159500000D01*
X54364000Y-161240000D02*
X46784000Y-161240000D01*
X54394000Y-160820000D02*
X46814000Y-160820000D01*
X54394000Y-160480000D02*
X46814000Y-160480000D01*
X54364000Y-162220000D02*
X46784000Y-162220000D01*
X54394000Y-161800000D02*
X46814000Y-161800000D01*
X54394000Y-161460000D02*
X46814000Y-161460000D01*
X54414000Y-163130000D02*
X46834000Y-163130000D01*
X54444000Y-162710000D02*
X46864000Y-162710000D01*
X54444000Y-162370000D02*
X46864000Y-162370000D01*
X54394000Y-164330000D02*
X46814000Y-164330000D01*
X54424000Y-163910000D02*
X46844000Y-163910000D01*
X54424000Y-163570000D02*
X46844000Y-163570000D01*
X54434000Y-164970000D02*
X46854000Y-164970000D01*
X54464000Y-164550000D02*
X46884000Y-164550000D01*
X54464000Y-164210000D02*
X46884000Y-164210000D01*
X30840000Y-123660000D02*
X30840000Y-134660000D01*
X30840000Y-134660000D02*
X23060000Y-134660000D01*
X23060000Y-134660000D02*
X23060000Y-123660000D01*
X23060000Y-123660000D02*
X30840000Y-123660000D01*
D12*
X27440000Y-133160000D02*
G75*
G03X27440000Y-133160000I-100000J0D01*
G01*
X27440000Y-132160000D02*
G75*
G03X27440000Y-132160000I-100000J0D01*
G01*
X27440000Y-134160000D02*
G75*
G03X27440000Y-134160000I-100000J0D01*
G01*
X27440000Y-127160000D02*
G75*
G03X27440000Y-127160000I-100000J0D01*
G01*
X27440000Y-126160000D02*
G75*
G03X27440000Y-126160000I-100000J0D01*
G01*
X27440000Y-124160000D02*
G75*
G03X27440000Y-124160000I-100000J0D01*
G01*
X27440000Y-125160000D02*
G75*
G03X27440000Y-125160000I-100000J0D01*
G01*
X27440000Y-129160000D02*
G75*
G03X27440000Y-129160000I-100000J0D01*
G01*
X27440000Y-128160000D02*
G75*
G03X27440000Y-128160000I-100000J0D01*
G01*
X27440000Y-130160000D02*
G75*
G03X27440000Y-130160000I-100000J0D01*
G01*
X30440000Y-131160000D02*
G75*
G03X30440000Y-131160000I-100000J0D01*
G01*
X30440000Y-130160000D02*
G75*
G03X30440000Y-130160000I-100000J0D01*
G01*
X30440000Y-132160000D02*
G75*
G03X30440000Y-132160000I-100000J0D01*
G01*
X30440000Y-133160000D02*
G75*
G03X30440000Y-133160000I-100000J0D01*
G01*
X29440000Y-130160000D02*
G75*
G03X29440000Y-130160000I-100000J0D01*
G01*
X29440000Y-129160000D02*
G75*
G03X29440000Y-129160000I-100000J0D01*
G01*
X29440000Y-127160000D02*
G75*
G03X29440000Y-127160000I-100000J0D01*
G01*
X29440000Y-128160000D02*
G75*
G03X29440000Y-128160000I-100000J0D01*
G01*
X28440000Y-133160000D02*
G75*
G03X28440000Y-133160000I-100000J0D01*
G01*
X28440000Y-132160000D02*
G75*
G03X28440000Y-132160000I-100000J0D01*
G01*
X28440000Y-134160000D02*
G75*
G03X28440000Y-134160000I-100000J0D01*
G01*
X27440000Y-131160000D02*
G75*
G03X27440000Y-131160000I-100000J0D01*
G01*
X28440000Y-127160000D02*
G75*
G03X28440000Y-127160000I-100000J0D01*
G01*
X28440000Y-126160000D02*
G75*
G03X28440000Y-126160000I-100000J0D01*
G01*
X28440000Y-124160000D02*
G75*
G03X28440000Y-124160000I-100000J0D01*
G01*
X28440000Y-125160000D02*
G75*
G03X28440000Y-125160000I-100000J0D01*
G01*
X29440000Y-132160000D02*
G75*
G03X29440000Y-132160000I-100000J0D01*
G01*
X29440000Y-131160000D02*
G75*
G03X29440000Y-131160000I-100000J0D01*
G01*
X29440000Y-133160000D02*
G75*
G03X29440000Y-133160000I-100000J0D01*
G01*
X29440000Y-134160000D02*
G75*
G03X29440000Y-134160000I-100000J0D01*
G01*
X28440000Y-131160000D02*
G75*
G03X28440000Y-131160000I-100000J0D01*
G01*
X28440000Y-130160000D02*
G75*
G03X28440000Y-130160000I-100000J0D01*
G01*
X28440000Y-128160000D02*
G75*
G03X28440000Y-128160000I-100000J0D01*
G01*
X28440000Y-129160000D02*
G75*
G03X28440000Y-129160000I-100000J0D01*
G01*
X29440000Y-124160000D02*
G75*
G03X29440000Y-124160000I-100000J0D01*
G01*
X30440000Y-134160000D02*
G75*
G03X30440000Y-134160000I-100000J0D01*
G01*
X29440000Y-125160000D02*
G75*
G03X29440000Y-125160000I-100000J0D01*
G01*
X29440000Y-126160000D02*
G75*
G03X29440000Y-126160000I-100000J0D01*
G01*
X30440000Y-129160000D02*
G75*
G03X30440000Y-129160000I-100000J0D01*
G01*
X30440000Y-128160000D02*
G75*
G03X30440000Y-128160000I-100000J0D01*
G01*
X30440000Y-126160000D02*
G75*
G03X30440000Y-126160000I-100000J0D01*
G01*
X30440000Y-127160000D02*
G75*
G03X30440000Y-127160000I-100000J0D01*
G01*
X30440000Y-125160000D02*
G75*
G03X30440000Y-125160000I-100000J0D01*
G01*
X30440000Y-124160000D02*
G75*
G03X30440000Y-124160000I-100000J0D01*
G01*
D11*
X27840000Y-123910000D02*
X27840000Y-134410000D01*
X28840000Y-123910000D02*
X28840000Y-134410000D01*
X29840000Y-123910000D02*
X29840000Y-134410000D01*
X30640000Y-133660000D02*
X23060000Y-133660000D01*
X30640000Y-132660000D02*
X23060000Y-132660000D01*
X30640000Y-131660000D02*
X23060000Y-131660000D01*
X30640000Y-130660000D02*
X23060000Y-130660000D01*
X30640000Y-129660000D02*
X23060000Y-129660000D01*
X30640000Y-128660000D02*
X23060000Y-128660000D01*
X30640000Y-127660000D02*
X23060000Y-127660000D01*
X30640000Y-126660000D02*
X23060000Y-126660000D01*
X30640000Y-125660000D02*
X23060000Y-125660000D01*
X30640000Y-124660000D02*
X23060000Y-124660000D01*
D12*
X24670000Y-125160000D02*
G75*
G03X24670000Y-125160000I-100000J0D01*
G01*
X24670000Y-124160000D02*
G75*
G03X24670000Y-124160000I-100000J0D01*
G01*
X23670000Y-124160000D02*
G75*
G03X23670000Y-124160000I-100000J0D01*
G01*
X23670000Y-125160000D02*
G75*
G03X23670000Y-125160000I-100000J0D01*
G01*
X24670000Y-126160000D02*
G75*
G03X24670000Y-126160000I-100000J0D01*
G01*
X23670000Y-127160000D02*
G75*
G03X23670000Y-127160000I-100000J0D01*
G01*
X23670000Y-126160000D02*
G75*
G03X23670000Y-126160000I-100000J0D01*
G01*
X25670000Y-127160000D02*
G75*
G03X25670000Y-127160000I-100000J0D01*
G01*
X24670000Y-127160000D02*
G75*
G03X24670000Y-127160000I-100000J0D01*
G01*
X25670000Y-126160000D02*
G75*
G03X25670000Y-126160000I-100000J0D01*
G01*
D11*
X25070000Y-123910000D02*
X25070000Y-134410000D01*
X25850000Y-123910000D02*
X25850000Y-134410000D01*
D12*
X25670000Y-124160000D02*
G75*
G03X25670000Y-124160000I-100000J0D01*
G01*
X25670000Y-125160000D02*
G75*
G03X25670000Y-125160000I-100000J0D01*
G01*
D11*
X24070000Y-123910000D02*
X24070000Y-134410000D01*
D12*
X23670000Y-130160000D02*
G75*
G03X23670000Y-130160000I-100000J0D01*
G01*
X23670000Y-129160000D02*
G75*
G03X23670000Y-129160000I-100000J0D01*
G01*
X23670000Y-128160000D02*
G75*
G03X23670000Y-128160000I-100000J0D01*
G01*
X24670000Y-131160000D02*
G75*
G03X24670000Y-131160000I-100000J0D01*
G01*
X24670000Y-130160000D02*
G75*
G03X24670000Y-130160000I-100000J0D01*
G01*
X24670000Y-128160000D02*
G75*
G03X24670000Y-128160000I-100000J0D01*
G01*
X23670000Y-131160000D02*
G75*
G03X23670000Y-131160000I-100000J0D01*
G01*
X24670000Y-129160000D02*
G75*
G03X24670000Y-129160000I-100000J0D01*
G01*
X24670000Y-132160000D02*
G75*
G03X24670000Y-132160000I-100000J0D01*
G01*
X25670000Y-132160000D02*
G75*
G03X25670000Y-132160000I-100000J0D01*
G01*
X25670000Y-131160000D02*
G75*
G03X25670000Y-131160000I-100000J0D01*
G01*
X25670000Y-130160000D02*
G75*
G03X25670000Y-130160000I-100000J0D01*
G01*
X25670000Y-129160000D02*
G75*
G03X25670000Y-129160000I-100000J0D01*
G01*
X25670000Y-128160000D02*
G75*
G03X25670000Y-128160000I-100000J0D01*
G01*
X23670000Y-134160000D02*
G75*
G03X23670000Y-134160000I-100000J0D01*
G01*
X23670000Y-133160000D02*
G75*
G03X23670000Y-133160000I-100000J0D01*
G01*
X23670000Y-132160000D02*
G75*
G03X23670000Y-132160000I-100000J0D01*
G01*
X24670000Y-133160000D02*
G75*
G03X24670000Y-133160000I-100000J0D01*
G01*
X24670000Y-134160000D02*
G75*
G03X24670000Y-134160000I-100000J0D01*
G01*
X25670000Y-133160000D02*
G75*
G03X25670000Y-133160000I-100000J0D01*
G01*
X25670000Y-134160000D02*
G75*
G03X25670000Y-134160000I-100000J0D01*
G01*
D11*
X26860000Y-123920000D02*
X26860000Y-134420000D01*
X30670000Y-124240000D02*
X23090000Y-124240000D01*
X30670000Y-123900000D02*
X23090000Y-123900000D01*
X30640000Y-125760000D02*
X23060000Y-125760000D01*
X30670000Y-125340000D02*
X23090000Y-125340000D01*
X30670000Y-125000000D02*
X23090000Y-125000000D01*
X30690000Y-126790000D02*
X23110000Y-126790000D01*
X30720000Y-126370000D02*
X23140000Y-126370000D01*
X30720000Y-126030000D02*
X23140000Y-126030000D01*
X30690000Y-127630000D02*
X23110000Y-127630000D01*
X30720000Y-127210000D02*
X23140000Y-127210000D01*
X30720000Y-126870000D02*
X23140000Y-126870000D01*
X30720000Y-128730000D02*
X23140000Y-128730000D01*
X30750000Y-128310000D02*
X23170000Y-128310000D01*
X30750000Y-127970000D02*
X23170000Y-127970000D01*
X30720000Y-129670000D02*
X23140000Y-129670000D01*
X30750000Y-129250000D02*
X23170000Y-129250000D01*
X30750000Y-128910000D02*
X23170000Y-128910000D01*
X30690000Y-130650000D02*
X23110000Y-130650000D01*
X30720000Y-130230000D02*
X23140000Y-130230000D01*
X30720000Y-129890000D02*
X23140000Y-129890000D01*
X30690000Y-131630000D02*
X23110000Y-131630000D01*
X30720000Y-131210000D02*
X23140000Y-131210000D01*
X30720000Y-130870000D02*
X23140000Y-130870000D01*
X30740000Y-132540000D02*
X23160000Y-132540000D01*
X30770000Y-132120000D02*
X23190000Y-132120000D01*
X30770000Y-131780000D02*
X23190000Y-131780000D01*
X30720000Y-133740000D02*
X23140000Y-133740000D01*
X30750000Y-133320000D02*
X23170000Y-133320000D01*
X30750000Y-132980000D02*
X23170000Y-132980000D01*
X30760000Y-134380000D02*
X23180000Y-134380000D01*
X30790000Y-133960000D02*
X23210000Y-133960000D01*
X30790000Y-133620000D02*
X23210000Y-133620000D01*
X30592000Y-68470000D02*
X30592000Y-79470000D01*
X30592000Y-79470000D02*
X22812000Y-79470000D01*
X22812000Y-79470000D02*
X22812000Y-68470000D01*
X22812000Y-68470000D02*
X30592000Y-68470000D01*
D12*
X27192000Y-77970000D02*
G75*
G03X27192000Y-77970000I-100000J0D01*
G01*
X27192000Y-76970000D02*
G75*
G03X27192000Y-76970000I-100000J0D01*
G01*
X27192000Y-78970000D02*
G75*
G03X27192000Y-78970000I-100000J0D01*
G01*
X27192000Y-71970000D02*
G75*
G03X27192000Y-71970000I-100000J0D01*
G01*
X27192000Y-70970000D02*
G75*
G03X27192000Y-70970000I-100000J0D01*
G01*
X27192000Y-68970000D02*
G75*
G03X27192000Y-68970000I-100000J0D01*
G01*
X27192000Y-69970000D02*
G75*
G03X27192000Y-69970000I-100000J0D01*
G01*
X27192000Y-73970000D02*
G75*
G03X27192000Y-73970000I-100000J0D01*
G01*
X27192000Y-72970000D02*
G75*
G03X27192000Y-72970000I-100000J0D01*
G01*
X27192000Y-74970000D02*
G75*
G03X27192000Y-74970000I-100000J0D01*
G01*
X30192000Y-75970000D02*
G75*
G03X30192000Y-75970000I-100000J0D01*
G01*
X30192000Y-74970000D02*
G75*
G03X30192000Y-74970000I-100000J0D01*
G01*
X30192000Y-76970000D02*
G75*
G03X30192000Y-76970000I-100000J0D01*
G01*
X30192000Y-77970000D02*
G75*
G03X30192000Y-77970000I-100000J0D01*
G01*
X29192000Y-74970000D02*
G75*
G03X29192000Y-74970000I-100000J0D01*
G01*
X29192000Y-73970000D02*
G75*
G03X29192000Y-73970000I-100000J0D01*
G01*
X29192000Y-71970000D02*
G75*
G03X29192000Y-71970000I-100000J0D01*
G01*
X29192000Y-72970000D02*
G75*
G03X29192000Y-72970000I-100000J0D01*
G01*
X28192000Y-77970000D02*
G75*
G03X28192000Y-77970000I-100000J0D01*
G01*
X28192000Y-76970000D02*
G75*
G03X28192000Y-76970000I-100000J0D01*
G01*
X28192000Y-78970000D02*
G75*
G03X28192000Y-78970000I-100000J0D01*
G01*
X27192000Y-75970000D02*
G75*
G03X27192000Y-75970000I-100000J0D01*
G01*
X28192000Y-71970000D02*
G75*
G03X28192000Y-71970000I-100000J0D01*
G01*
X28192000Y-70970000D02*
G75*
G03X28192000Y-70970000I-100000J0D01*
G01*
X28192000Y-68970000D02*
G75*
G03X28192000Y-68970000I-100000J0D01*
G01*
X28192000Y-69970000D02*
G75*
G03X28192000Y-69970000I-100000J0D01*
G01*
X29192000Y-76970000D02*
G75*
G03X29192000Y-76970000I-100000J0D01*
G01*
X29192000Y-75970000D02*
G75*
G03X29192000Y-75970000I-100000J0D01*
G01*
X29192000Y-77970000D02*
G75*
G03X29192000Y-77970000I-100000J0D01*
G01*
X29192000Y-78970000D02*
G75*
G03X29192000Y-78970000I-100000J0D01*
G01*
X28192000Y-75970000D02*
G75*
G03X28192000Y-75970000I-100000J0D01*
G01*
X28192000Y-74970000D02*
G75*
G03X28192000Y-74970000I-100000J0D01*
G01*
X28192000Y-72970000D02*
G75*
G03X28192000Y-72970000I-100000J0D01*
G01*
X28192000Y-73970000D02*
G75*
G03X28192000Y-73970000I-100000J0D01*
G01*
X29192000Y-68970000D02*
G75*
G03X29192000Y-68970000I-100000J0D01*
G01*
X30192000Y-78970000D02*
G75*
G03X30192000Y-78970000I-100000J0D01*
G01*
X29192000Y-69970000D02*
G75*
G03X29192000Y-69970000I-100000J0D01*
G01*
X29192000Y-70970000D02*
G75*
G03X29192000Y-70970000I-100000J0D01*
G01*
X30192000Y-73970000D02*
G75*
G03X30192000Y-73970000I-100000J0D01*
G01*
X30192000Y-72970000D02*
G75*
G03X30192000Y-72970000I-100000J0D01*
G01*
X30192000Y-70970000D02*
G75*
G03X30192000Y-70970000I-100000J0D01*
G01*
X30192000Y-71970000D02*
G75*
G03X30192000Y-71970000I-100000J0D01*
G01*
X30192000Y-69970000D02*
G75*
G03X30192000Y-69970000I-100000J0D01*
G01*
X30192000Y-68970000D02*
G75*
G03X30192000Y-68970000I-100000J0D01*
G01*
D11*
X27592000Y-68720000D02*
X27592000Y-79220000D01*
X28592000Y-68720000D02*
X28592000Y-79220000D01*
X29592000Y-68720000D02*
X29592000Y-79220000D01*
X30392000Y-78470000D02*
X22812000Y-78470000D01*
X30392000Y-77470000D02*
X22812000Y-77470000D01*
X30392000Y-76470000D02*
X22812000Y-76470000D01*
X30392000Y-75470000D02*
X22812000Y-75470000D01*
X30392000Y-74470000D02*
X22812000Y-74470000D01*
X30392000Y-73470000D02*
X22812000Y-73470000D01*
X30392000Y-72470000D02*
X22812000Y-72470000D01*
X30392000Y-71470000D02*
X22812000Y-71470000D01*
X30392000Y-70470000D02*
X22812000Y-70470000D01*
X30392000Y-69470000D02*
X22812000Y-69470000D01*
D12*
X24422000Y-69970000D02*
G75*
G03X24422000Y-69970000I-100000J0D01*
G01*
X24422000Y-68970000D02*
G75*
G03X24422000Y-68970000I-100000J0D01*
G01*
X23422000Y-68970000D02*
G75*
G03X23422000Y-68970000I-100000J0D01*
G01*
X23422000Y-69970000D02*
G75*
G03X23422000Y-69970000I-100000J0D01*
G01*
X24422000Y-70970000D02*
G75*
G03X24422000Y-70970000I-100000J0D01*
G01*
X23422000Y-71970000D02*
G75*
G03X23422000Y-71970000I-100000J0D01*
G01*
X23422000Y-70970000D02*
G75*
G03X23422000Y-70970000I-100000J0D01*
G01*
X25422000Y-71970000D02*
G75*
G03X25422000Y-71970000I-100000J0D01*
G01*
X24422000Y-71970000D02*
G75*
G03X24422000Y-71970000I-100000J0D01*
G01*
X25422000Y-70970000D02*
G75*
G03X25422000Y-70970000I-100000J0D01*
G01*
D11*
X24822000Y-68720000D02*
X24822000Y-79220000D01*
X25602000Y-68720000D02*
X25602000Y-79220000D01*
D12*
X25422000Y-68970000D02*
G75*
G03X25422000Y-68970000I-100000J0D01*
G01*
X25422000Y-69970000D02*
G75*
G03X25422000Y-69970000I-100000J0D01*
G01*
D11*
X23822000Y-68720000D02*
X23822000Y-79220000D01*
D12*
X23422000Y-74970000D02*
G75*
G03X23422000Y-74970000I-100000J0D01*
G01*
X23422000Y-73970000D02*
G75*
G03X23422000Y-73970000I-100000J0D01*
G01*
X23422000Y-72970000D02*
G75*
G03X23422000Y-72970000I-100000J0D01*
G01*
X24422000Y-75970000D02*
G75*
G03X24422000Y-75970000I-100000J0D01*
G01*
X24422000Y-74970000D02*
G75*
G03X24422000Y-74970000I-100000J0D01*
G01*
X24422000Y-72970000D02*
G75*
G03X24422000Y-72970000I-100000J0D01*
G01*
X23422000Y-75970000D02*
G75*
G03X23422000Y-75970000I-100000J0D01*
G01*
X24422000Y-73970000D02*
G75*
G03X24422000Y-73970000I-100000J0D01*
G01*
X24422000Y-76970000D02*
G75*
G03X24422000Y-76970000I-100000J0D01*
G01*
X25422000Y-76970000D02*
G75*
G03X25422000Y-76970000I-100000J0D01*
G01*
X25422000Y-75970000D02*
G75*
G03X25422000Y-75970000I-100000J0D01*
G01*
X25422000Y-74970000D02*
G75*
G03X25422000Y-74970000I-100000J0D01*
G01*
X25422000Y-73970000D02*
G75*
G03X25422000Y-73970000I-100000J0D01*
G01*
X25422000Y-72970000D02*
G75*
G03X25422000Y-72970000I-100000J0D01*
G01*
X23422000Y-78970000D02*
G75*
G03X23422000Y-78970000I-100000J0D01*
G01*
X23422000Y-77970000D02*
G75*
G03X23422000Y-77970000I-100000J0D01*
G01*
X23422000Y-76970000D02*
G75*
G03X23422000Y-76970000I-100000J0D01*
G01*
X24422000Y-77970000D02*
G75*
G03X24422000Y-77970000I-100000J0D01*
G01*
X24422000Y-78970000D02*
G75*
G03X24422000Y-78970000I-100000J0D01*
G01*
X25422000Y-77970000D02*
G75*
G03X25422000Y-77970000I-100000J0D01*
G01*
X25422000Y-78970000D02*
G75*
G03X25422000Y-78970000I-100000J0D01*
G01*
D11*
X26612000Y-68730000D02*
X26612000Y-79230000D01*
X30422000Y-69050000D02*
X22842000Y-69050000D01*
X30422000Y-68710000D02*
X22842000Y-68710000D01*
X30392000Y-70570000D02*
X22812000Y-70570000D01*
X30422000Y-70150000D02*
X22842000Y-70150000D01*
X30422000Y-69810000D02*
X22842000Y-69810000D01*
X30442000Y-71600000D02*
X22862000Y-71600000D01*
X30472000Y-71180000D02*
X22892000Y-71180000D01*
X30472000Y-70840000D02*
X22892000Y-70840000D01*
X30442000Y-72440000D02*
X22862000Y-72440000D01*
X30472000Y-72020000D02*
X22892000Y-72020000D01*
X30472000Y-71680000D02*
X22892000Y-71680000D01*
X30472000Y-73540000D02*
X22892000Y-73540000D01*
X30502000Y-73120000D02*
X22922000Y-73120000D01*
X30502000Y-72780000D02*
X22922000Y-72780000D01*
X30472000Y-74480000D02*
X22892000Y-74480000D01*
X30502000Y-74060000D02*
X22922000Y-74060000D01*
X30502000Y-73720000D02*
X22922000Y-73720000D01*
X30442000Y-75460000D02*
X22862000Y-75460000D01*
X30472000Y-75040000D02*
X22892000Y-75040000D01*
X30472000Y-74700000D02*
X22892000Y-74700000D01*
X30442000Y-76440000D02*
X22862000Y-76440000D01*
X30472000Y-76020000D02*
X22892000Y-76020000D01*
X30472000Y-75680000D02*
X22892000Y-75680000D01*
X30492000Y-77350000D02*
X22912000Y-77350000D01*
X30522000Y-76930000D02*
X22942000Y-76930000D01*
X30522000Y-76590000D02*
X22942000Y-76590000D01*
X30472000Y-78550000D02*
X22892000Y-78550000D01*
X30502000Y-78130000D02*
X22922000Y-78130000D01*
X30502000Y-77790000D02*
X22922000Y-77790000D01*
X30512000Y-79190000D02*
X22932000Y-79190000D01*
X30542000Y-78770000D02*
X22962000Y-78770000D01*
X30542000Y-78430000D02*
X22962000Y-78430000D01*
X30880000Y-94630000D02*
X30880000Y-105630000D01*
X30880000Y-105630000D02*
X23100000Y-105630000D01*
X23100000Y-105630000D02*
X23100000Y-94630000D01*
X23100000Y-94630000D02*
X30880000Y-94630000D01*
D12*
X27480000Y-104130000D02*
G75*
G03X27480000Y-104130000I-100000J0D01*
G01*
X27480000Y-103130000D02*
G75*
G03X27480000Y-103130000I-100000J0D01*
G01*
X27480000Y-105130000D02*
G75*
G03X27480000Y-105130000I-100000J0D01*
G01*
X27480000Y-98130000D02*
G75*
G03X27480000Y-98130000I-100000J0D01*
G01*
X27480000Y-97130000D02*
G75*
G03X27480000Y-97130000I-100000J0D01*
G01*
X27480000Y-95130000D02*
G75*
G03X27480000Y-95130000I-100000J0D01*
G01*
X27480000Y-96130000D02*
G75*
G03X27480000Y-96130000I-100000J0D01*
G01*
X27480000Y-100130000D02*
G75*
G03X27480000Y-100130000I-100000J0D01*
G01*
X27480000Y-99130000D02*
G75*
G03X27480000Y-99130000I-100000J0D01*
G01*
X27480000Y-101130000D02*
G75*
G03X27480000Y-101130000I-100000J0D01*
G01*
X30480000Y-102130000D02*
G75*
G03X30480000Y-102130000I-100000J0D01*
G01*
X30480000Y-101130000D02*
G75*
G03X30480000Y-101130000I-100000J0D01*
G01*
X30480000Y-103130000D02*
G75*
G03X30480000Y-103130000I-100000J0D01*
G01*
X30480000Y-104130000D02*
G75*
G03X30480000Y-104130000I-100000J0D01*
G01*
X29480000Y-101130000D02*
G75*
G03X29480000Y-101130000I-100000J0D01*
G01*
X29480000Y-100130000D02*
G75*
G03X29480000Y-100130000I-100000J0D01*
G01*
X29480000Y-98130000D02*
G75*
G03X29480000Y-98130000I-100000J0D01*
G01*
X29480000Y-99130000D02*
G75*
G03X29480000Y-99130000I-100000J0D01*
G01*
X28480000Y-104130000D02*
G75*
G03X28480000Y-104130000I-100000J0D01*
G01*
X28480000Y-103130000D02*
G75*
G03X28480000Y-103130000I-100000J0D01*
G01*
X28480000Y-105130000D02*
G75*
G03X28480000Y-105130000I-100000J0D01*
G01*
X27480000Y-102130000D02*
G75*
G03X27480000Y-102130000I-100000J0D01*
G01*
X28480000Y-98130000D02*
G75*
G03X28480000Y-98130000I-100000J0D01*
G01*
X28480000Y-97130000D02*
G75*
G03X28480000Y-97130000I-100000J0D01*
G01*
X28480000Y-95130000D02*
G75*
G03X28480000Y-95130000I-100000J0D01*
G01*
X28480000Y-96130000D02*
G75*
G03X28480000Y-96130000I-100000J0D01*
G01*
X29480000Y-103130000D02*
G75*
G03X29480000Y-103130000I-100000J0D01*
G01*
X29480000Y-102130000D02*
G75*
G03X29480000Y-102130000I-100000J0D01*
G01*
X29480000Y-104130000D02*
G75*
G03X29480000Y-104130000I-100000J0D01*
G01*
X29480000Y-105130000D02*
G75*
G03X29480000Y-105130000I-100000J0D01*
G01*
X28480000Y-102130000D02*
G75*
G03X28480000Y-102130000I-100000J0D01*
G01*
X28480000Y-101130000D02*
G75*
G03X28480000Y-101130000I-100000J0D01*
G01*
X28480000Y-99130000D02*
G75*
G03X28480000Y-99130000I-100000J0D01*
G01*
X28480000Y-100130000D02*
G75*
G03X28480000Y-100130000I-100000J0D01*
G01*
X29480000Y-95130000D02*
G75*
G03X29480000Y-95130000I-100000J0D01*
G01*
X30480000Y-105130000D02*
G75*
G03X30480000Y-105130000I-100000J0D01*
G01*
X29480000Y-96130000D02*
G75*
G03X29480000Y-96130000I-100000J0D01*
G01*
X29480000Y-97130000D02*
G75*
G03X29480000Y-97130000I-100000J0D01*
G01*
X30480000Y-100130000D02*
G75*
G03X30480000Y-100130000I-100000J0D01*
G01*
X30480000Y-99130000D02*
G75*
G03X30480000Y-99130000I-100000J0D01*
G01*
X30480000Y-97130000D02*
G75*
G03X30480000Y-97130000I-100000J0D01*
G01*
X30480000Y-98130000D02*
G75*
G03X30480000Y-98130000I-100000J0D01*
G01*
X30480000Y-96130000D02*
G75*
G03X30480000Y-96130000I-100000J0D01*
G01*
X30480000Y-95130000D02*
G75*
G03X30480000Y-95130000I-100000J0D01*
G01*
D11*
X27880000Y-94880000D02*
X27880000Y-105380000D01*
X28880000Y-94880000D02*
X28880000Y-105380000D01*
X29880000Y-94880000D02*
X29880000Y-105380000D01*
X30680000Y-104630000D02*
X23100000Y-104630000D01*
X30680000Y-103630000D02*
X23100000Y-103630000D01*
X30680000Y-102630000D02*
X23100000Y-102630000D01*
X30680000Y-101630000D02*
X23100000Y-101630000D01*
X30680000Y-100630000D02*
X23100000Y-100630000D01*
X30680000Y-99630000D02*
X23100000Y-99630000D01*
X30680000Y-98630000D02*
X23100000Y-98630000D01*
X30680000Y-97630000D02*
X23100000Y-97630000D01*
X30680000Y-96630000D02*
X23100000Y-96630000D01*
X30680000Y-95630000D02*
X23100000Y-95630000D01*
D12*
X24710000Y-96130000D02*
G75*
G03X24710000Y-96130000I-100000J0D01*
G01*
X24710000Y-95130000D02*
G75*
G03X24710000Y-95130000I-100000J0D01*
G01*
X23710000Y-95130000D02*
G75*
G03X23710000Y-95130000I-100000J0D01*
G01*
X23710000Y-96130000D02*
G75*
G03X23710000Y-96130000I-100000J0D01*
G01*
X24710000Y-97130000D02*
G75*
G03X24710000Y-97130000I-100000J0D01*
G01*
X23710000Y-98130000D02*
G75*
G03X23710000Y-98130000I-100000J0D01*
G01*
X23710000Y-97130000D02*
G75*
G03X23710000Y-97130000I-100000J0D01*
G01*
X25710000Y-98130000D02*
G75*
G03X25710000Y-98130000I-100000J0D01*
G01*
X24710000Y-98130000D02*
G75*
G03X24710000Y-98130000I-100000J0D01*
G01*
X25710000Y-97130000D02*
G75*
G03X25710000Y-97130000I-100000J0D01*
G01*
D11*
X25110000Y-94880000D02*
X25110000Y-105380000D01*
X25890000Y-94880000D02*
X25890000Y-105380000D01*
D12*
X25710000Y-95130000D02*
G75*
G03X25710000Y-95130000I-100000J0D01*
G01*
X25710000Y-96130000D02*
G75*
G03X25710000Y-96130000I-100000J0D01*
G01*
D11*
X24110000Y-94880000D02*
X24110000Y-105380000D01*
D12*
X23710000Y-101130000D02*
G75*
G03X23710000Y-101130000I-100000J0D01*
G01*
X23710000Y-100130000D02*
G75*
G03X23710000Y-100130000I-100000J0D01*
G01*
X23710000Y-99130000D02*
G75*
G03X23710000Y-99130000I-100000J0D01*
G01*
X24710000Y-102130000D02*
G75*
G03X24710000Y-102130000I-100000J0D01*
G01*
X24710000Y-101130000D02*
G75*
G03X24710000Y-101130000I-100000J0D01*
G01*
X24710000Y-99130000D02*
G75*
G03X24710000Y-99130000I-100000J0D01*
G01*
X23710000Y-102130000D02*
G75*
G03X23710000Y-102130000I-100000J0D01*
G01*
X24710000Y-100130000D02*
G75*
G03X24710000Y-100130000I-100000J0D01*
G01*
X24710000Y-103130000D02*
G75*
G03X24710000Y-103130000I-100000J0D01*
G01*
X25710000Y-103130000D02*
G75*
G03X25710000Y-103130000I-100000J0D01*
G01*
X25710000Y-102130000D02*
G75*
G03X25710000Y-102130000I-100000J0D01*
G01*
X25710000Y-101130000D02*
G75*
G03X25710000Y-101130000I-100000J0D01*
G01*
X25710000Y-100130000D02*
G75*
G03X25710000Y-100130000I-100000J0D01*
G01*
X25710000Y-99130000D02*
G75*
G03X25710000Y-99130000I-100000J0D01*
G01*
X23710000Y-105130000D02*
G75*
G03X23710000Y-105130000I-100000J0D01*
G01*
X23710000Y-104130000D02*
G75*
G03X23710000Y-104130000I-100000J0D01*
G01*
X23710000Y-103130000D02*
G75*
G03X23710000Y-103130000I-100000J0D01*
G01*
X24710000Y-104130000D02*
G75*
G03X24710000Y-104130000I-100000J0D01*
G01*
X24710000Y-105130000D02*
G75*
G03X24710000Y-105130000I-100000J0D01*
G01*
X25710000Y-104130000D02*
G75*
G03X25710000Y-104130000I-100000J0D01*
G01*
X25710000Y-105130000D02*
G75*
G03X25710000Y-105130000I-100000J0D01*
G01*
D11*
X26900000Y-94890000D02*
X26900000Y-105390000D01*
X30710000Y-95210000D02*
X23130000Y-95210000D01*
X30710000Y-94870000D02*
X23130000Y-94870000D01*
X30680000Y-96730000D02*
X23100000Y-96730000D01*
X30710000Y-96310000D02*
X23130000Y-96310000D01*
X30710000Y-95970000D02*
X23130000Y-95970000D01*
X30730000Y-97760000D02*
X23150000Y-97760000D01*
X30760000Y-97340000D02*
X23180000Y-97340000D01*
X30760000Y-97000000D02*
X23180000Y-97000000D01*
X30730000Y-98600000D02*
X23150000Y-98600000D01*
X30760000Y-98180000D02*
X23180000Y-98180000D01*
X30760000Y-97840000D02*
X23180000Y-97840000D01*
X30760000Y-99700000D02*
X23180000Y-99700000D01*
X30790000Y-99280000D02*
X23210000Y-99280000D01*
X30790000Y-98940000D02*
X23210000Y-98940000D01*
X30760000Y-100640000D02*
X23180000Y-100640000D01*
X30790000Y-100220000D02*
X23210000Y-100220000D01*
X30790000Y-99880000D02*
X23210000Y-99880000D01*
X30730000Y-101620000D02*
X23150000Y-101620000D01*
X30760000Y-101200000D02*
X23180000Y-101200000D01*
X30760000Y-100860000D02*
X23180000Y-100860000D01*
X30730000Y-102600000D02*
X23150000Y-102600000D01*
X30760000Y-102180000D02*
X23180000Y-102180000D01*
X30760000Y-101840000D02*
X23180000Y-101840000D01*
X30780000Y-103510000D02*
X23200000Y-103510000D01*
X30810000Y-103090000D02*
X23230000Y-103090000D01*
X30810000Y-102750000D02*
X23230000Y-102750000D01*
X30760000Y-104710000D02*
X23180000Y-104710000D01*
X30790000Y-104290000D02*
X23210000Y-104290000D01*
X30790000Y-103950000D02*
X23210000Y-103950000D01*
X30800000Y-105350000D02*
X23220000Y-105350000D01*
X30830000Y-104930000D02*
X23250000Y-104930000D01*
X30830000Y-104590000D02*
X23250000Y-104590000D01*
D13*
X56274000Y-8100000D03*
X52774000Y-8100000D03*
X49274000Y-8100000D03*
X45774000Y-8100000D03*
X42274000Y-8100000D03*
X38774000Y-8100000D03*
D14*
X13300000Y-121200000D03*
X17300000Y-121200000D03*
D15*
X24980140Y-121100000D03*
X27819860Y-121100000D03*
D16*
X19565000Y-121100000D03*
X22835000Y-121100000D03*
D13*
X8300000Y-26000000D03*
X8300000Y-29500000D03*
X8300000Y-33000000D03*
X8300000Y-36500000D03*
X8300000Y-40000000D03*
X8300000Y-43500000D03*
D17*
X15505000Y-51700000D03*
X14235000Y-51700000D03*
X12965000Y-51700000D03*
X11695000Y-51700000D03*
X11695000Y-57100000D03*
X12965000Y-57100000D03*
X14235000Y-57100000D03*
X15505000Y-57100000D03*
D18*
X28000000Y-49250000D03*
X28000000Y-50200000D03*
X28000000Y-51150000D03*
X30200000Y-51150000D03*
X30200000Y-49250000D03*
D19*
X16600000Y-137500000D03*
D13*
X41300000Y-133100000D03*
X41300000Y-123100000D03*
D20*
X21799960Y-138100000D03*
X27200000Y-138100000D03*
D15*
X24580140Y-65500000D03*
X27419860Y-65500000D03*
D14*
X12900000Y-65600000D03*
X16900000Y-65600000D03*
X13300000Y-92100000D03*
X17300000Y-92100000D03*
D13*
X35850000Y-99850000D03*
X45850000Y-99850000D03*
D20*
X21799960Y-109000000D03*
X27200000Y-109000000D03*
D19*
X16500000Y-108800000D03*
D15*
X24980140Y-92000000D03*
X27819860Y-92000000D03*
D21*
X52200000Y-81600040D03*
X52200000Y-76200000D03*
D13*
X40500000Y-69700000D03*
X40500000Y-79700000D03*
D19*
X16500000Y-82900000D03*
D22*
X66800000Y-30400000D03*
X62800000Y-30400000D03*
D23*
X76700000Y-39780140D03*
X76700000Y-42619860D03*
D24*
X71850000Y-49400000D03*
X69150000Y-49400000D03*
D14*
X73500000Y-55400000D03*
X77500000Y-55400000D03*
D25*
X62300000Y-54000640D03*
X62300000Y-58999360D03*
D26*
X74800000Y-59700000D03*
X74800000Y-63700000D03*
D27*
X67300000Y-65000000D03*
X71300000Y-65000000D03*
D26*
X61500000Y-67700000D03*
X61500000Y-63700000D03*
X74800000Y-67100000D03*
X74800000Y-71100000D03*
D28*
X76440000Y-28300000D03*
X73900000Y-28300000D03*
X71360000Y-28300000D03*
D20*
X67999980Y-20600000D03*
X73400020Y-20600000D03*
X70800020Y-155600000D03*
X65399980Y-155600000D03*
D22*
X72000000Y-150500000D03*
X76000000Y-150500000D03*
D26*
X77300000Y-108300000D03*
X77300000Y-112300000D03*
D27*
X71500000Y-106000000D03*
X67500000Y-106000000D03*
X71500000Y-111200000D03*
X67500000Y-111200000D03*
D26*
X64000000Y-116500000D03*
X64000000Y-112500000D03*
X64000000Y-109100000D03*
X64000000Y-105100000D03*
D25*
X76500000Y-122199360D03*
X76500000Y-117200640D03*
D14*
X65300000Y-120800000D03*
X61300000Y-120800000D03*
D24*
X66950000Y-126800000D03*
X69650000Y-126800000D03*
D25*
X62100000Y-129699360D03*
X62100000Y-124700640D03*
D22*
X72000000Y-145800000D03*
X76000000Y-145800000D03*
D28*
X62360000Y-147900000D03*
X64900000Y-147900000D03*
X67440000Y-147900000D03*
D23*
X62100000Y-136419860D03*
X62100000Y-133580140D03*
D26*
X62100000Y-143600000D03*
X62100000Y-139600000D03*
D14*
X113400000Y-166300000D03*
X109400000Y-166300000D03*
D29*
X108100000Y-158800000D03*
X108100000Y-162800000D03*
X102900000Y-158800000D03*
X102900000Y-162800000D03*
D14*
X106000000Y-166300000D03*
X102000000Y-166300000D03*
D30*
X126599360Y-168200000D03*
X121600640Y-168200000D03*
D26*
X117700000Y-165000000D03*
X117700000Y-169000000D03*
D31*
X123700000Y-163350000D03*
X123700000Y-160650000D03*
D30*
X119099360Y-153800000D03*
X114100640Y-153800000D03*
D14*
X104100000Y-153200000D03*
X108100000Y-153200000D03*
X140500000Y-168200000D03*
X136500000Y-168200000D03*
D21*
X152500000Y-159499980D03*
X152500000Y-164900020D03*
D28*
X144800000Y-167940000D03*
X144800000Y-165400000D03*
X144800000Y-162860000D03*
D15*
X133319860Y-168200000D03*
X130480140Y-168200000D03*
D32*
X142700000Y-158300000D03*
X142700000Y-154300000D03*
X147400000Y-158300000D03*
X147400000Y-154300000D03*
D29*
X105300000Y-136900000D03*
X105300000Y-140900000D03*
D14*
X115800000Y-144400000D03*
X111800000Y-144400000D03*
D30*
X121499360Y-131900000D03*
X116500640Y-131900000D03*
D26*
X120100000Y-143100000D03*
X120100000Y-147100000D03*
D14*
X108400000Y-144400000D03*
X104400000Y-144400000D03*
D29*
X110500000Y-136900000D03*
X110500000Y-140900000D03*
D14*
X107800000Y-131100000D03*
X111800000Y-131100000D03*
D30*
X128999360Y-146300000D03*
X124000640Y-146300000D03*
D31*
X126100000Y-141450000D03*
X126100000Y-138750000D03*
D15*
X135719860Y-146300000D03*
X132880140Y-146300000D03*
D14*
X142900000Y-146300000D03*
X138900000Y-146300000D03*
D21*
X154900000Y-137599980D03*
X154900000Y-143000020D03*
D32*
X145100000Y-136400000D03*
X145100000Y-132400000D03*
D28*
X147200000Y-146040000D03*
X147200000Y-143500000D03*
X147200000Y-140960000D03*
D32*
X149800000Y-136400000D03*
X149800000Y-132400000D03*
X149800000Y-108800000D03*
X149800000Y-104800000D03*
D28*
X147200000Y-118440000D03*
X147200000Y-115900000D03*
X147200000Y-113360000D03*
D32*
X145100000Y-108800000D03*
X145100000Y-104800000D03*
D21*
X154900000Y-109999980D03*
X154900000Y-115400020D03*
D14*
X142900000Y-118700000D03*
X138900000Y-118700000D03*
D15*
X135719860Y-118700000D03*
X132880140Y-118700000D03*
D31*
X126100000Y-113850000D03*
X126100000Y-111150000D03*
D30*
X128999360Y-118700000D03*
X124000640Y-118700000D03*
D29*
X110500000Y-109300000D03*
X110500000Y-113300000D03*
D14*
X108400000Y-116800000D03*
X104400000Y-116800000D03*
D26*
X120100000Y-115500000D03*
X120100000Y-119500000D03*
D30*
X121499360Y-104300000D03*
X116500640Y-104300000D03*
D14*
X115800000Y-116800000D03*
X111800000Y-116800000D03*
X107400000Y-103600000D03*
X111400000Y-103600000D03*
D29*
X105300000Y-109300000D03*
X105300000Y-113300000D03*
D32*
X149100000Y-83500000D03*
X149100000Y-79500000D03*
D28*
X146500000Y-93140000D03*
X146500000Y-90600000D03*
X146500000Y-88060000D03*
D32*
X144400000Y-83500000D03*
X144400000Y-79500000D03*
D14*
X142200000Y-93400000D03*
X138200000Y-93400000D03*
D30*
X128299360Y-93400000D03*
X123300640Y-93400000D03*
D31*
X125400000Y-88550000D03*
X125400000Y-85850000D03*
D15*
X135019860Y-93400000D03*
X132180140Y-93400000D03*
D29*
X109800000Y-84000000D03*
X109800000Y-88000000D03*
D26*
X119400000Y-90200000D03*
X119400000Y-94200000D03*
D30*
X120799360Y-79000000D03*
X115800640Y-79000000D03*
D14*
X106500000Y-78300000D03*
X110500000Y-78300000D03*
X115100000Y-91500000D03*
X111100000Y-91500000D03*
D21*
X154200000Y-84699980D03*
X154200000Y-90100020D03*
D14*
X107700000Y-91500000D03*
X103700000Y-91500000D03*
D29*
X104600000Y-84000000D03*
X104600000Y-88000000D03*
D28*
X146600000Y-66140000D03*
X146600000Y-63600000D03*
X146600000Y-61060000D03*
D14*
X142300000Y-66400000D03*
X138300000Y-66400000D03*
D32*
X149200000Y-56500000D03*
X149200000Y-52500000D03*
D21*
X154300000Y-57699980D03*
X154300000Y-63100020D03*
D32*
X144500000Y-56500000D03*
X144500000Y-52500000D03*
D31*
X125500000Y-61550000D03*
X125500000Y-58850000D03*
D30*
X128399360Y-66400000D03*
X123400640Y-66400000D03*
X120899360Y-52000000D03*
X115900640Y-52000000D03*
D26*
X119500000Y-63200000D03*
X119500000Y-67200000D03*
D15*
X135119860Y-66400000D03*
X132280140Y-66400000D03*
D14*
X107400000Y-51200000D03*
X111400000Y-51200000D03*
X115200000Y-64500000D03*
X111200000Y-64500000D03*
D29*
X104700000Y-57000000D03*
X104700000Y-61000000D03*
D14*
X107800000Y-64500000D03*
X103800000Y-64500000D03*
D29*
X109900000Y-57000000D03*
X109900000Y-61000000D03*
D14*
X107800000Y-42000000D03*
X103800000Y-42000000D03*
D29*
X104700000Y-34500000D03*
X104700000Y-38500000D03*
D14*
X115200000Y-42000000D03*
X111200000Y-42000000D03*
D29*
X109900000Y-34500000D03*
X109900000Y-38500000D03*
D14*
X107300000Y-28800000D03*
X111300000Y-28800000D03*
D28*
X146600000Y-43640000D03*
X146600000Y-41100000D03*
X146600000Y-38560000D03*
D21*
X154300000Y-35199980D03*
X154300000Y-40600020D03*
D32*
X149200000Y-34000000D03*
X149200000Y-30000000D03*
X144500000Y-34000000D03*
X144500000Y-30000000D03*
D14*
X142300000Y-43900000D03*
X138300000Y-43900000D03*
D15*
X135119860Y-43900000D03*
X132280140Y-43900000D03*
D26*
X119500000Y-40700000D03*
X119500000Y-44700000D03*
D30*
X120899360Y-29500000D03*
X115900640Y-29500000D03*
X128399360Y-43900000D03*
X123400640Y-43900000D03*
D31*
X125500000Y-39050000D03*
X125500000Y-36350000D03*
D26*
X107100000Y-18600000D03*
X107100000Y-22600000D03*
D30*
X115999360Y-21800000D03*
X111000640Y-21800000D03*
X108499360Y-7400000D03*
X103500640Y-7400000D03*
D15*
X122719860Y-21800000D03*
X119880140Y-21800000D03*
D31*
X113100000Y-16950000D03*
X113100000Y-14250000D03*
D14*
X129900000Y-21800000D03*
X125900000Y-21800000D03*
D32*
X132100000Y-11900000D03*
X132100000Y-7900000D03*
D28*
X134200000Y-21540000D03*
X134200000Y-19000000D03*
X134200000Y-16460000D03*
D21*
X141900000Y-13099980D03*
X141900000Y-18500020D03*
D32*
X136800000Y-11900000D03*
X136800000Y-7900000D03*
D14*
X94800000Y-6600000D03*
X98800000Y-6600000D03*
X102800000Y-19900000D03*
X98800000Y-19900000D03*
D29*
X97500000Y-12400000D03*
X97500000Y-16400000D03*
X92300000Y-12400000D03*
X92300000Y-16400000D03*
D14*
X95400000Y-19900000D03*
X91400000Y-19900000D03*
D33*
X45349000Y-29900000D03*
X48651000Y-29900000D03*
D15*
X5119860Y-56000000D03*
X2280140Y-56000000D03*
X5100000Y-53300000D03*
X2260280Y-53300000D03*
D26*
X54274000Y-15300000D03*
X54274000Y-11300000D03*
X51574000Y-15300000D03*
X51574000Y-11300000D03*
X48874000Y-15300000D03*
X48874000Y-11300000D03*
X46174000Y-15300000D03*
X46174000Y-11300000D03*
D14*
X16400000Y-28100000D03*
X12400000Y-28100000D03*
X16400000Y-33500000D03*
X12400000Y-33500000D03*
X16400000Y-36200000D03*
X12400000Y-36200000D03*
X16400000Y-38900000D03*
X12400000Y-38900000D03*
X16400000Y-41600000D03*
X12400000Y-41600000D03*
D26*
X29600000Y-15300000D03*
X29600000Y-11300000D03*
X26900000Y-15300000D03*
X26900000Y-11300000D03*
X24200000Y-15300000D03*
X24200000Y-11300000D03*
X21500000Y-15300000D03*
X21500000Y-11300000D03*
D33*
X30551000Y-56200000D03*
X27249000Y-56200000D03*
X27449000Y-53600000D03*
X30751000Y-53600000D03*
X48600000Y-38600000D03*
X45298000Y-38600000D03*
X30551000Y-58900000D03*
X27249000Y-58900000D03*
X2100000Y-58600000D03*
X5402000Y-58600000D03*
D34*
X44301140Y-50948340D03*
X42800000Y-50948340D03*
X41298860Y-50948340D03*
D35*
X42800000Y-53899820D03*
D10*
G36*
X41599240Y-52625350D02*
X42099620Y-51476050D01*
X43500380Y-51476050D01*
X44000760Y-52625350D01*
X41599240Y-52625350D01*
X41599240Y-52625350D01*
G37*
D13*
X39150000Y-169800000D03*
X42650000Y-169800000D03*
X149900000Y-8000000D03*
X146400000Y-8000000D03*
X160200000Y-8000000D03*
X156700000Y-8000000D03*
X169800000Y-26050000D03*
X169800000Y-22550000D03*
X169800000Y-36200000D03*
X169800000Y-32700000D03*
X169800000Y-46750000D03*
X169800000Y-43250000D03*
X169800000Y-57050000D03*
X169800000Y-53550000D03*
X169800000Y-67250000D03*
X169800000Y-63750000D03*
X169800000Y-77800000D03*
X169800000Y-74300000D03*
X169800000Y-88200000D03*
X169800000Y-84700000D03*
X169800000Y-98600000D03*
X169800000Y-95100000D03*
X169800000Y-108900000D03*
X169800000Y-105400000D03*
X169800000Y-119300000D03*
X169800000Y-115800000D03*
X169800000Y-129800000D03*
X169800000Y-126300000D03*
X169800000Y-140400000D03*
X169800000Y-136900000D03*
X169800000Y-150800000D03*
X169800000Y-147300000D03*
X169800000Y-161250000D03*
X169800000Y-157750000D03*
X157100000Y-169800000D03*
X160600000Y-169800000D03*
X58000000Y-169800000D03*
X61500000Y-169800000D03*
X68600000Y-169800000D03*
X72100000Y-169800000D03*
X79400000Y-169800000D03*
X82900000Y-169800000D03*
D22*
X44800000Y-41200000D03*
X48800000Y-41200000D03*
X48900000Y-27300000D03*
X44900000Y-27300000D03*
D33*
X45298000Y-36000000D03*
X48600000Y-36000000D03*
D36*
X45590000Y-33325000D03*
X45590000Y-32675000D03*
X45590000Y-32025000D03*
X45590000Y-33975000D03*
X48210000Y-32025000D03*
X48210000Y-32675000D03*
X48210000Y-33325000D03*
X48210000Y-33975000D03*
D37*
X21100000Y-150380000D03*
X21100000Y-155460000D03*
X21100000Y-158000000D03*
X28720000Y-150380000D03*
X28720000Y-155460000D03*
X28720000Y-158000000D03*
D33*
X2100000Y-61100000D03*
X5402000Y-61100000D03*
X5202000Y-63700000D03*
X1900000Y-63700000D03*
X2098000Y-50700000D03*
X5400000Y-50700000D03*
D14*
X16400000Y-30800000D03*
X12400000Y-30800000D03*
D38*
X8000000Y-169800000D03*
D39*
X12125000Y-169800000D03*
X10926815Y-172726815D03*
X8000000Y-173925000D03*
X5073185Y-172726815D03*
X3875000Y-169800000D03*
X5073185Y-166873185D03*
X8000000Y-165675000D03*
X10926815Y-166873185D03*
D38*
X8000000Y-8000000D03*
D39*
X12125000Y-8000000D03*
X10926815Y-10926815D03*
X8000000Y-12125000D03*
X5073185Y-10926815D03*
X3875000Y-8000000D03*
X5073185Y-5073185D03*
X8000000Y-3875000D03*
X10926815Y-5073185D03*
D38*
X169800000Y-169800000D03*
D39*
X173925000Y-169800000D03*
X172726815Y-172726815D03*
X169800000Y-173925000D03*
X166873185Y-172726815D03*
X165675000Y-169800000D03*
X166873185Y-166873185D03*
X169800000Y-165675000D03*
X172726815Y-166873185D03*
D38*
X170000000Y-8000000D03*
D39*
X174125000Y-8000000D03*
X172926815Y-10926815D03*
X170000000Y-12125000D03*
X167073185Y-10926815D03*
X165875000Y-8000000D03*
X167073185Y-5073185D03*
X170000000Y-3875000D03*
X172926815Y-5073185D03*
D16*
X19165000Y-65500000D03*
X22435000Y-65500000D03*
X19565000Y-92000000D03*
X22835000Y-92000000D03*
D40*
X76700000Y-32949000D03*
X76700000Y-36251000D03*
D41*
X103062500Y-11895000D03*
X103062500Y-13165000D03*
X103062500Y-14435000D03*
X103062500Y-15705000D03*
X108812500Y-15705000D03*
X108812500Y-14435000D03*
X108812500Y-13165000D03*
X108812500Y-11895000D03*
D42*
X105200000Y-13800000D03*
X106675000Y-13800000D03*
X105200000Y-12170000D03*
X106675000Y-12170000D03*
X105200000Y-15430000D03*
X106675000Y-15430000D03*
D43*
X66795000Y-59437500D03*
X68065000Y-59437500D03*
X69335000Y-59437500D03*
X70605000Y-59437500D03*
X70605000Y-53687500D03*
X69335000Y-53687500D03*
X68065000Y-53687500D03*
X66795000Y-53687500D03*
D44*
X68700000Y-57300000D03*
X68700000Y-55825000D03*
X67070000Y-57300000D03*
X67070000Y-55825000D03*
X70330000Y-57300000D03*
X70330000Y-55825000D03*
D41*
X115462500Y-33995000D03*
X115462500Y-35265000D03*
X115462500Y-36535000D03*
X115462500Y-37805000D03*
X121212500Y-37805000D03*
X121212500Y-36535000D03*
X121212500Y-35265000D03*
X121212500Y-33995000D03*
D42*
X117600000Y-35900000D03*
X119075000Y-35900000D03*
X117600000Y-34270000D03*
X119075000Y-34270000D03*
X117600000Y-37530000D03*
X119075000Y-37530000D03*
D41*
X115462500Y-56495000D03*
X115462500Y-57765000D03*
X115462500Y-59035000D03*
X115462500Y-60305000D03*
X121212500Y-60305000D03*
X121212500Y-59035000D03*
X121212500Y-57765000D03*
X121212500Y-56495000D03*
D42*
X117600000Y-58400000D03*
X119075000Y-58400000D03*
X117600000Y-56770000D03*
X119075000Y-56770000D03*
X117600000Y-60030000D03*
X119075000Y-60030000D03*
D41*
X115362500Y-83495000D03*
X115362500Y-84765000D03*
X115362500Y-86035000D03*
X115362500Y-87305000D03*
X121112500Y-87305000D03*
X121112500Y-86035000D03*
X121112500Y-84765000D03*
X121112500Y-83495000D03*
D42*
X117500000Y-85400000D03*
X118975000Y-85400000D03*
X117500000Y-83770000D03*
X118975000Y-83770000D03*
X117500000Y-87030000D03*
X118975000Y-87030000D03*
D41*
X116062500Y-108795000D03*
X116062500Y-110065000D03*
X116062500Y-111335000D03*
X116062500Y-112605000D03*
X121812500Y-112605000D03*
X121812500Y-111335000D03*
X121812500Y-110065000D03*
X121812500Y-108795000D03*
D42*
X118200000Y-110700000D03*
X119675000Y-110700000D03*
X118200000Y-109070000D03*
X119675000Y-109070000D03*
X118200000Y-112330000D03*
X119675000Y-112330000D03*
D41*
X116062500Y-136395000D03*
X116062500Y-137665000D03*
X116062500Y-138935000D03*
X116062500Y-140205000D03*
X121812500Y-140205000D03*
X121812500Y-138935000D03*
X121812500Y-137665000D03*
X121812500Y-136395000D03*
D42*
X118200000Y-138300000D03*
X119675000Y-138300000D03*
X118200000Y-136670000D03*
X119675000Y-136670000D03*
X118200000Y-139930000D03*
X119675000Y-139930000D03*
D41*
X113662500Y-158295000D03*
X113662500Y-159565000D03*
X113662500Y-160835000D03*
X113662500Y-162105000D03*
X119412500Y-162105000D03*
X119412500Y-160835000D03*
X119412500Y-159565000D03*
X119412500Y-158295000D03*
D42*
X115800000Y-160200000D03*
X117275000Y-160200000D03*
X115800000Y-158570000D03*
X117275000Y-158570000D03*
X115800000Y-161830000D03*
X117275000Y-161830000D03*
D43*
X72005000Y-116762500D03*
X70735000Y-116762500D03*
X69465000Y-116762500D03*
X68195000Y-116762500D03*
X68195000Y-122512500D03*
X69465000Y-122512500D03*
X70735000Y-122512500D03*
X72005000Y-122512500D03*
D44*
X70100000Y-118900000D03*
X70100000Y-120375000D03*
X71730000Y-118900000D03*
X71730000Y-120375000D03*
X68470000Y-118900000D03*
X68470000Y-120375000D03*
D13*
X8000000Y-132100000D03*
X8000000Y-135600000D03*
X8000000Y-139100000D03*
X8000000Y-142600000D03*
X8100000Y-103000000D03*
X8100000Y-106500000D03*
X8100000Y-110000000D03*
X8100000Y-113500000D03*
X8100000Y-76900000D03*
X8100000Y-80400000D03*
X8100000Y-83900000D03*
X8100000Y-87400000D03*
X30800000Y-8000000D03*
X27300000Y-8000000D03*
X23800000Y-8000000D03*
X20300000Y-8000000D03*
X75300000Y-8100000D03*
X71800000Y-8100000D03*
X68300000Y-8100000D03*
X64800000Y-8100000D03*
X50038000Y-150114000D03*
X50038000Y-140114000D03*
D45*
X30340000Y-144272000D03*
X38240000Y-144272000D03*
D26*
X43440000Y-15300000D03*
X43440000Y-11300000D03*
X40700000Y-15300000D03*
X40700000Y-11300000D03*
D28*
X32846000Y-38100000D03*
X37846000Y-38100000D03*
X32846000Y-43100000D03*
X37846000Y-43100000D03*
D19*
X16400000Y-115000000D03*
X91000000Y-164900000D03*
D20*
X22099980Y-83000000D03*
X27500020Y-83000000D03*
D46*
X120900000Y-6675000D03*
X122700000Y-6675000D03*
X124500000Y-6675000D03*
X120900000Y-8225000D03*
X122700000Y-8225000D03*
X124500000Y-8225000D03*
X120900000Y-16775000D03*
X122700000Y-16775000D03*
X124500000Y-16775000D03*
X120900000Y-18325000D03*
X122700000Y-18325000D03*
X124500000Y-18325000D03*
D47*
X62975000Y-39000000D03*
X62975000Y-40600000D03*
X64225000Y-39000000D03*
X64225000Y-40600000D03*
X70575000Y-40600000D03*
X70575000Y-39000000D03*
X71825000Y-39000000D03*
X71825000Y-40600000D03*
D46*
X133300000Y-28775000D03*
X135100000Y-28775000D03*
X136900000Y-28775000D03*
X133300000Y-30325000D03*
X135100000Y-30325000D03*
X136900000Y-30325000D03*
X133300000Y-38875000D03*
X135100000Y-38875000D03*
X136900000Y-38875000D03*
X133300000Y-40425000D03*
X135100000Y-40425000D03*
X136900000Y-40425000D03*
X133300000Y-51275000D03*
X135100000Y-51275000D03*
X136900000Y-51275000D03*
X133300000Y-52825000D03*
X135100000Y-52825000D03*
X136900000Y-52825000D03*
X133300000Y-61375000D03*
X135100000Y-61375000D03*
X136900000Y-61375000D03*
X133300000Y-62925000D03*
X135100000Y-62925000D03*
X136900000Y-62925000D03*
X133200000Y-78275000D03*
X135000000Y-78275000D03*
X136800000Y-78275000D03*
X133200000Y-79825000D03*
X135000000Y-79825000D03*
X136800000Y-79825000D03*
X133200000Y-88375000D03*
X135000000Y-88375000D03*
X136800000Y-88375000D03*
X133200000Y-89925000D03*
X135000000Y-89925000D03*
X136800000Y-89925000D03*
X133900000Y-103575000D03*
X135700000Y-103575000D03*
X137500000Y-103575000D03*
X133900000Y-105125000D03*
X135700000Y-105125000D03*
X137500000Y-105125000D03*
X133900000Y-113675000D03*
X135700000Y-113675000D03*
X137500000Y-113675000D03*
X133900000Y-115225000D03*
X135700000Y-115225000D03*
X137500000Y-115225000D03*
X133900000Y-131175000D03*
X135700000Y-131175000D03*
X137500000Y-131175000D03*
X133900000Y-132725000D03*
X135700000Y-132725000D03*
X137500000Y-132725000D03*
X133900000Y-141275000D03*
X135700000Y-141275000D03*
X137500000Y-141275000D03*
X133900000Y-142825000D03*
X135700000Y-142825000D03*
X137500000Y-142825000D03*
X131500000Y-153075000D03*
X133300000Y-153075000D03*
X135100000Y-153075000D03*
X131500000Y-154625000D03*
X133300000Y-154625000D03*
X135100000Y-154625000D03*
X131500000Y-163175000D03*
X133300000Y-163175000D03*
X135100000Y-163175000D03*
X131500000Y-164725000D03*
X133300000Y-164725000D03*
X135100000Y-164725000D03*
D48*
X77225000Y-134600000D03*
X77225000Y-136400000D03*
X77225000Y-138200000D03*
X75675000Y-134600000D03*
X75675000Y-136400000D03*
X75675000Y-138200000D03*
X67125000Y-134600000D03*
X67125000Y-136400000D03*
X67125000Y-138200000D03*
X65575000Y-134600000D03*
X65575000Y-136400000D03*
X65575000Y-138200000D03*
D49*
X39599000Y-157210000D03*
X39599000Y-162290000D03*
X15925000Y-126620000D03*
X15925000Y-131700000D03*
X15677000Y-71430000D03*
X15677000Y-76510000D03*
X15965000Y-97590000D03*
X15965000Y-102670000D03*
D16*
X51235000Y-170900000D03*
X47965000Y-170900000D03*
D15*
X48180140Y-174600000D03*
X51019860Y-174600000D03*
D14*
X47500000Y-167500000D03*
X51500000Y-167500000D03*
D50*
X52500000Y-174600000D03*
X13300000Y-115000000D03*
X29400000Y-121100000D03*
X30100000Y-83000000D03*
X27400000Y-81000000D03*
X27400000Y-85000000D03*
D51*
X46400000Y-27300000D03*
X47300000Y-29100000D03*
X43500000Y-13700000D03*
X40700000Y-13700000D03*
D13*
X41402000Y-144272000D03*
D51*
X122300000Y-160300000D03*
X119200000Y-168200000D03*
X107900000Y-166300000D03*
X124700000Y-138400000D03*
X121600000Y-146300000D03*
X110300000Y-144400000D03*
D50*
X157200000Y-143010000D03*
X157200000Y-115390000D03*
X156525000Y-90100000D03*
D51*
X124700000Y-110800000D03*
X121600000Y-118700000D03*
X110300000Y-116800000D03*
X124000000Y-85500000D03*
X120900000Y-93400000D03*
X109600000Y-91500000D03*
X124100000Y-58500000D03*
X121000000Y-66400000D03*
X109700000Y-64500000D03*
X124100000Y-36000000D03*
X121000000Y-43900000D03*
X109700000Y-42000000D03*
X111700000Y-13900000D03*
X108600000Y-21800000D03*
X97300000Y-19900000D03*
X76700000Y-43900000D03*
X68800000Y-50800000D03*
X76700000Y-53900000D03*
X74800000Y-65200000D03*
X64000000Y-111000000D03*
X70000000Y-125400000D03*
X62100000Y-122300000D03*
X26000000Y-56200000D03*
X29100000Y-50200000D03*
X44362652Y-34237652D03*
D50*
X74300000Y-150500000D03*
X74300000Y-145800000D03*
X142700000Y-156100000D03*
X73400000Y-18300000D03*
X21500000Y-13600000D03*
X14700000Y-41600000D03*
X14700000Y-38900000D03*
X14700000Y-36200000D03*
X48800000Y-42700000D03*
X45500000Y-51000000D03*
X1900000Y-65400000D03*
X11400000Y-50200000D03*
X29400000Y-92000000D03*
X27200000Y-111000000D03*
X27200000Y-136100000D03*
X27200000Y-140100000D03*
X154400000Y-164900000D03*
X29900000Y-138100000D03*
X29000000Y-65500000D03*
X65399980Y-157899980D03*
X27200000Y-107000000D03*
X29900000Y-109000000D03*
X50200000Y-76200000D03*
X52200000Y-73500000D03*
X54200000Y-76200000D03*
X71300000Y-67600000D03*
X60700000Y-30400000D03*
X62800000Y-27900000D03*
X62800000Y-32400000D03*
X63900000Y-59000000D03*
X62300000Y-61500000D03*
X62300000Y-56600000D03*
X71300000Y-62400000D03*
X73100000Y-65000000D03*
X70700000Y-20600000D03*
X73400000Y-22900000D03*
X76100000Y-20600000D03*
X65700000Y-106000000D03*
X67500000Y-103600000D03*
X67500000Y-108600000D03*
X78100000Y-150500000D03*
X76000000Y-152500000D03*
X76000000Y-148300000D03*
X62700000Y-155600000D03*
X65400000Y-153300000D03*
X68100000Y-155600000D03*
X76500000Y-119600000D03*
X74900000Y-117200000D03*
X76500000Y-114700000D03*
X78100000Y-145800000D03*
X76000000Y-143800000D03*
X65700000Y-111200000D03*
X67500000Y-113800000D03*
X100500000Y-162800000D03*
X102900000Y-164600000D03*
X108100000Y-164600000D03*
X105500000Y-162800000D03*
X111600000Y-153800000D03*
X110700000Y-162800000D03*
X114100000Y-155400000D03*
X116500000Y-153800000D03*
X150200000Y-164900000D03*
X152500000Y-167600000D03*
X152500000Y-162200000D03*
X147400000Y-156100000D03*
X149400000Y-154300000D03*
X142700000Y-152200000D03*
X140700000Y-154300000D03*
X147400000Y-152200000D03*
X145200000Y-154300000D03*
X102900000Y-140900000D03*
X102900000Y-113300000D03*
X110500000Y-142700000D03*
X105300000Y-142700000D03*
X107900000Y-140900000D03*
X116500000Y-133500000D03*
X113100000Y-140900000D03*
X152600000Y-143000000D03*
X154900000Y-145700000D03*
X154900000Y-140300000D03*
X151800000Y-132400000D03*
X149800000Y-130300000D03*
X147600000Y-132400000D03*
X145100000Y-130300000D03*
X145100000Y-134100000D03*
X143100000Y-132400000D03*
X149800000Y-134100000D03*
X118900000Y-131900000D03*
X114000000Y-131900000D03*
X107900000Y-113300000D03*
X105300000Y-115100000D03*
X110500000Y-115100000D03*
X116500000Y-105900000D03*
X113100000Y-113300000D03*
X118900000Y-104300000D03*
X114000000Y-104300000D03*
X152600000Y-115400000D03*
X154900000Y-112700000D03*
X154900000Y-118100000D03*
X149800000Y-106500000D03*
X151800000Y-104800000D03*
X143100000Y-104800000D03*
X145100000Y-102700000D03*
X145100000Y-106500000D03*
X147600000Y-104800000D03*
X149800000Y-102700000D03*
X109800000Y-89800000D03*
X112400000Y-88000000D03*
X118200000Y-79000000D03*
X115800000Y-80600000D03*
X113300000Y-79000000D03*
X107200000Y-88000000D03*
X102200000Y-88000000D03*
X104600000Y-89800000D03*
X154200000Y-92800000D03*
X151900000Y-90100000D03*
X154200000Y-87400000D03*
X142400000Y-79500000D03*
X144400000Y-81200000D03*
X144400000Y-77400000D03*
X149100000Y-77400000D03*
X146900000Y-79500000D03*
X151100000Y-79500000D03*
X149100000Y-81200000D03*
X156600000Y-63100000D03*
X154300000Y-65800000D03*
X152000000Y-63100000D03*
X154300000Y-60400000D03*
X149200000Y-54200000D03*
X149200000Y-50400000D03*
X144500000Y-54200000D03*
X147000000Y-52500000D03*
X144500000Y-50400000D03*
X142500000Y-52500000D03*
X151200000Y-52500000D03*
X104700000Y-62800000D03*
X102300000Y-61000000D03*
X109900000Y-62800000D03*
X107300000Y-61000000D03*
X113400000Y-52000000D03*
X112500000Y-61000000D03*
X118300000Y-52000000D03*
X115900000Y-53600000D03*
X152000000Y-40600000D03*
X154300000Y-37900000D03*
X156600000Y-40600000D03*
X154300000Y-43300000D03*
X144500000Y-27900000D03*
X142500000Y-30000000D03*
X149200000Y-31700000D03*
X149200000Y-27900000D03*
X151200000Y-30000000D03*
X144500000Y-31700000D03*
X147000000Y-30000000D03*
X112500000Y-38500000D03*
X104700000Y-40300000D03*
X102300000Y-38500000D03*
X109900000Y-40300000D03*
X107300000Y-38500000D03*
X118300000Y-29500000D03*
X115900000Y-31100000D03*
X113400000Y-29500000D03*
X89900000Y-16400000D03*
X92300000Y-18200000D03*
X94900000Y-16400000D03*
X97500000Y-18200000D03*
X134600000Y-7900000D03*
X136800000Y-9600000D03*
X130100000Y-7900000D03*
X136800000Y-5800000D03*
X138800000Y-7900000D03*
X132100000Y-9600000D03*
X132100000Y-5800000D03*
X144200000Y-18500000D03*
X141900000Y-21200000D03*
X139600000Y-18500000D03*
X141900000Y-15800000D03*
X103500000Y-9000000D03*
X101000000Y-7400000D03*
X105900000Y-7400000D03*
X100100000Y-16400000D03*
X64900000Y-66200000D03*
X65200000Y-62600000D03*
X65000000Y-63800000D03*
X65000000Y-64900000D03*
X74200000Y-109900000D03*
X73300000Y-113500000D03*
X73900000Y-112500000D03*
X73900000Y-111200000D03*
X105900000Y-156300000D03*
X107100000Y-156300000D03*
X109400000Y-156500000D03*
X108200000Y-156400000D03*
X109300000Y-134400000D03*
X112900000Y-134800000D03*
X111800000Y-134600000D03*
X110500000Y-134600000D03*
X109300000Y-106700000D03*
X112800000Y-107200000D03*
X111700000Y-106800000D03*
X110500000Y-106800000D03*
X108400000Y-81500000D03*
X111900000Y-81900000D03*
X110800000Y-81600000D03*
X109700000Y-81600000D03*
X108700000Y-54200000D03*
X112100000Y-54900000D03*
X111000000Y-54500000D03*
X109900000Y-54400000D03*
X108500000Y-31900000D03*
X112100000Y-32400000D03*
X110900000Y-32300000D03*
X109800000Y-32200000D03*
X99800000Y-10300000D03*
X98700000Y-10100000D03*
X96400000Y-9800000D03*
X97500000Y-10000000D03*
X38608000Y-52398001D03*
X25210000Y-30800000D03*
X27971912Y-36099912D03*
X38608000Y-48768000D03*
D51*
X64100000Y-103000000D03*
X99500000Y-160800000D03*
X101600000Y-151500000D03*
X102500000Y-139100000D03*
X106200000Y-129200000D03*
X101900000Y-111300000D03*
X105900000Y-101700000D03*
X101800000Y-86400000D03*
X105000000Y-76800000D03*
X101800000Y-59000000D03*
X105900000Y-49600000D03*
X100300000Y-36500000D03*
X106100000Y-27200000D03*
X89800000Y-20000000D03*
X79100000Y-23500000D03*
X14235000Y-50425000D03*
X11695000Y-58395000D03*
X50700000Y-25500000D03*
D13*
X26924000Y-144272000D03*
D51*
X39900000Y-23600000D03*
X40000000Y-26900000D03*
X24200000Y-49300000D03*
X24500000Y-52300000D03*
X28400000Y-33600000D03*
X28400000Y-31800000D03*
X28500000Y-27900000D03*
X28550000Y-24020000D03*
X46975011Y-31075011D03*
X43100000Y-24900000D03*
X12900000Y-50400000D03*
X10400000Y-56600000D03*
X25320000Y-48340000D03*
X26200000Y-53600000D03*
X44660000Y-44680000D03*
X47300000Y-44900000D03*
X50700000Y-34000000D03*
X49391376Y-31683318D03*
M02*
