M48
;DRILL file {KiCad 4.0.4-stable} date Monday, December 19, 2016 'PMt' 01:57:33 PM
;FORMAT={-:-/ absolute / metric / decimal}
FMAT,2
METRIC,TZ
T1C0.300
T2C0.330
T3C0.400
T4C0.600
T5C0.750
T6C0.800
T7C1.000
T8C1.100
T9C1.200
T10C1.300
T11C1.400
T12C5.500
%
G90
G05
M71
T1
X1.9Y-65.4
X11.4Y-50.2
X13.3Y-115.
X14.7Y-36.2
X14.7Y-38.9
X14.7Y-41.6
X21.5Y-13.6
X25.21Y-30.8
X27.2Y-107.
X27.2Y-111.
X27.2Y-136.1
X27.2Y-140.1
X27.4Y-81.
X27.4Y-85.
X27.972Y-36.1
X29.Y-65.5
X29.4Y-92.
X29.4Y-121.1
X29.9Y-109.
X29.9Y-138.1
X30.1Y-83.
X38.608Y-48.768
X38.608Y-52.398
X45.5Y-51.
X48.8Y-42.7
X50.2Y-76.2
X52.2Y-73.5
X52.5Y-174.6
X54.2Y-76.2
X60.7Y-30.4
X62.3Y-56.6
X62.3Y-61.5
X62.7Y-155.6
X62.8Y-27.9
X62.8Y-32.4
X63.9Y-59.
X64.9Y-66.2
X65.Y-63.8
X65.Y-64.9
X65.2Y-62.6
X65.4Y-157.9
X65.4Y-153.3
X65.7Y-106.
X65.7Y-111.2
X67.5Y-103.6
X67.5Y-108.6
X67.5Y-113.8
X68.1Y-155.6
X70.7Y-20.6
X71.3Y-62.4
X71.3Y-67.6
X73.1Y-65.
X73.3Y-113.5
X73.4Y-18.3
X73.4Y-22.9
X73.9Y-111.2
X73.9Y-112.5
X74.2Y-109.9
X74.3Y-145.8
X74.3Y-150.5
X74.9Y-117.2
X76.Y-143.8
X76.Y-148.3
X76.Y-152.5
X76.1Y-20.6
X76.5Y-114.7
X76.5Y-119.6
X78.1Y-145.8
X78.1Y-150.5
X89.9Y-16.4
X92.3Y-18.2
X94.9Y-16.4
X96.4Y-9.8
X97.5Y-10.
X97.5Y-18.2
X98.7Y-10.1
X99.8Y-10.3
X100.1Y-16.4
X100.5Y-162.8
X101.Y-7.4
X102.2Y-88.
X102.3Y-38.5
X102.3Y-61.
X102.9Y-113.3
X102.9Y-140.9
X102.9Y-164.6
X103.5Y-9.
X104.6Y-89.8
X104.7Y-40.3
X104.7Y-62.8
X105.3Y-115.1
X105.3Y-142.7
X105.5Y-162.8
X105.9Y-7.4
X105.9Y-156.3
X107.1Y-156.3
X107.2Y-88.
X107.3Y-38.5
X107.3Y-61.
X107.9Y-113.3
X107.9Y-140.9
X108.1Y-164.6
X108.2Y-156.4
X108.4Y-81.5
X108.5Y-31.9
X108.7Y-54.2
X109.3Y-106.7
X109.3Y-134.4
X109.4Y-156.5
X109.7Y-81.6
X109.8Y-32.2
X109.8Y-89.8
X109.9Y-40.3
X109.9Y-54.4
X109.9Y-62.8
X110.5Y-106.8
X110.5Y-115.1
X110.5Y-134.6
X110.5Y-142.7
X110.7Y-162.8
X110.8Y-81.6
X110.9Y-32.3
X111.Y-54.5
X111.6Y-153.8
X111.7Y-106.8
X111.8Y-134.6
X111.9Y-81.9
X112.1Y-32.4
X112.1Y-54.9
X112.4Y-88.
X112.5Y-38.5
X112.5Y-61.
X112.8Y-107.2
X112.9Y-134.8
X113.1Y-113.3
X113.1Y-140.9
X113.3Y-79.
X113.4Y-29.5
X113.4Y-52.
X114.Y-104.3
X114.Y-131.9
X114.1Y-155.4
X115.8Y-80.6
X115.9Y-31.1
X115.9Y-53.6
X116.5Y-105.9
X116.5Y-133.5
X116.5Y-153.8
X118.2Y-79.
X118.3Y-29.5
X118.3Y-52.
X118.9Y-104.3
X118.9Y-131.9
X130.1Y-7.9
X132.1Y-5.8
X132.1Y-9.6
X134.6Y-7.9
X136.8Y-5.8
X136.8Y-9.6
X138.8Y-7.9
X139.6Y-18.5
X140.7Y-154.3
X141.9Y-15.8
X141.9Y-21.2
X142.4Y-79.5
X142.5Y-30.
X142.5Y-52.5
X142.7Y-152.2
X142.7Y-156.1
X143.1Y-104.8
X143.1Y-132.4
X144.2Y-18.5
X144.4Y-77.4
X144.4Y-81.2
X144.5Y-27.9
X144.5Y-31.7
X144.5Y-50.4
X144.5Y-54.2
X145.1Y-102.7
X145.1Y-106.5
X145.1Y-130.3
X145.1Y-134.1
X145.2Y-154.3
X146.9Y-79.5
X147.Y-30.
X147.Y-52.5
X147.4Y-152.2
X147.4Y-156.1
X147.6Y-104.8
X147.6Y-132.4
X149.1Y-77.4
X149.1Y-81.2
X149.2Y-27.9
X149.2Y-31.7
X149.2Y-50.4
X149.2Y-54.2
X149.4Y-154.3
X149.8Y-102.7
X149.8Y-106.5
X149.8Y-130.3
X149.8Y-134.1
X150.2Y-164.9
X151.1Y-79.5
X151.2Y-30.
X151.2Y-52.5
X151.8Y-104.8
X151.8Y-132.4
X151.9Y-90.1
X152.Y-40.6
X152.Y-63.1
X152.5Y-162.2
X152.5Y-167.6
X152.6Y-115.4
X152.6Y-143.
X154.2Y-87.4
X154.2Y-92.8
X154.3Y-37.9
X154.3Y-43.3
X154.3Y-60.4
X154.3Y-65.8
X154.4Y-164.9
X154.9Y-112.7
X154.9Y-118.1
X154.9Y-140.3
X154.9Y-145.7
X156.525Y-90.1
X156.6Y-40.6
X156.6Y-63.1
X157.2Y-115.39
X157.2Y-143.01
T2
X67.07Y-55.825
X67.07Y-57.3
X68.47Y-118.9
X68.47Y-120.375
X68.7Y-55.825
X68.7Y-57.3
X70.1Y-118.9
X70.1Y-120.375
X70.33Y-55.825
X70.33Y-57.3
X71.73Y-118.9
X71.73Y-120.375
X105.2Y-12.17
X105.2Y-13.8
X105.2Y-15.43
X106.675Y-12.17
X106.675Y-13.8
X106.675Y-15.43
X115.8Y-158.57
X115.8Y-160.2
X115.8Y-161.83
X117.275Y-158.57
X117.275Y-160.2
X117.275Y-161.83
X117.5Y-83.77
X117.5Y-85.4
X117.5Y-87.03
X117.6Y-34.27
X117.6Y-35.9
X117.6Y-37.53
X117.6Y-56.77
X117.6Y-58.4
X117.6Y-60.03
X118.2Y-109.07
X118.2Y-110.7
X118.2Y-112.33
X118.2Y-136.67
X118.2Y-138.3
X118.2Y-139.93
X118.975Y-83.77
X118.975Y-85.4
X118.975Y-87.03
X119.075Y-34.27
X119.075Y-35.9
X119.075Y-37.53
X119.075Y-56.77
X119.075Y-58.4
X119.075Y-60.03
X119.675Y-109.07
X119.675Y-110.7
X119.675Y-112.33
X119.675Y-136.67
X119.675Y-138.3
X119.675Y-139.93
T3
X10.4Y-56.6
X11.695Y-58.395
X12.9Y-50.4
X14.235Y-50.425
X23.322Y-68.97
X23.322Y-69.97
X23.322Y-70.97
X23.322Y-71.97
X23.322Y-72.97
X23.322Y-73.97
X23.322Y-74.97
X23.322Y-75.97
X23.322Y-76.97
X23.322Y-77.97
X23.322Y-78.97
X23.57Y-124.16
X23.57Y-125.16
X23.57Y-126.16
X23.57Y-127.16
X23.57Y-128.16
X23.57Y-129.16
X23.57Y-130.16
X23.57Y-131.16
X23.57Y-132.16
X23.57Y-133.16
X23.57Y-134.16
X23.61Y-95.13
X23.61Y-96.13
X23.61Y-97.13
X23.61Y-98.13
X23.61Y-99.13
X23.61Y-100.13
X23.61Y-101.13
X23.61Y-102.13
X23.61Y-103.13
X23.61Y-104.13
X23.61Y-105.13
X24.2Y-49.3
X24.322Y-68.97
X24.322Y-69.97
X24.322Y-70.97
X24.322Y-71.97
X24.322Y-72.97
X24.322Y-73.97
X24.322Y-74.97
X24.322Y-75.97
X24.322Y-76.97
X24.322Y-77.97
X24.322Y-78.97
X24.5Y-52.3
X24.57Y-124.16
X24.57Y-125.16
X24.57Y-126.16
X24.57Y-127.16
X24.57Y-128.16
X24.57Y-129.16
X24.57Y-130.16
X24.57Y-131.16
X24.57Y-132.16
X24.57Y-133.16
X24.57Y-134.16
X24.61Y-95.13
X24.61Y-96.13
X24.61Y-97.13
X24.61Y-98.13
X24.61Y-99.13
X24.61Y-100.13
X24.61Y-101.13
X24.61Y-102.13
X24.61Y-103.13
X24.61Y-104.13
X24.61Y-105.13
X25.32Y-48.34
X25.322Y-68.97
X25.322Y-69.97
X25.322Y-70.97
X25.322Y-71.97
X25.322Y-72.97
X25.322Y-73.97
X25.322Y-74.97
X25.322Y-75.97
X25.322Y-76.97
X25.322Y-77.97
X25.322Y-78.97
X25.57Y-124.16
X25.57Y-125.16
X25.57Y-126.16
X25.57Y-127.16
X25.57Y-128.16
X25.57Y-129.16
X25.57Y-130.16
X25.57Y-131.16
X25.57Y-132.16
X25.57Y-133.16
X25.57Y-134.16
X25.61Y-95.13
X25.61Y-96.13
X25.61Y-97.13
X25.61Y-98.13
X25.61Y-99.13
X25.61Y-100.13
X25.61Y-101.13
X25.61Y-102.13
X25.61Y-103.13
X25.61Y-104.13
X25.61Y-105.13
X26.Y-56.2
X26.102Y-68.97
X26.102Y-69.97
X26.102Y-70.97
X26.102Y-71.97
X26.102Y-72.97
X26.102Y-73.97
X26.102Y-74.97
X26.102Y-75.97
X26.102Y-76.97
X26.102Y-77.97
X26.102Y-78.97
X26.2Y-53.6
X26.35Y-124.16
X26.35Y-125.16
X26.35Y-126.16
X26.35Y-127.16
X26.35Y-128.16
X26.35Y-129.16
X26.35Y-130.16
X26.35Y-131.16
X26.35Y-132.16
X26.35Y-133.16
X26.35Y-134.16
X26.39Y-95.13
X26.39Y-96.13
X26.39Y-97.13
X26.39Y-98.13
X26.39Y-99.13
X26.39Y-100.13
X26.39Y-101.13
X26.39Y-102.13
X26.39Y-103.13
X26.39Y-104.13
X26.39Y-105.13
X27.092Y-68.97
X27.092Y-69.97
X27.092Y-70.97
X27.092Y-71.97
X27.092Y-72.97
X27.092Y-73.97
X27.092Y-74.97
X27.092Y-75.97
X27.092Y-76.97
X27.092Y-77.97
X27.092Y-78.97
X27.34Y-124.16
X27.34Y-125.16
X27.34Y-126.16
X27.34Y-127.16
X27.34Y-128.16
X27.34Y-129.16
X27.34Y-130.16
X27.34Y-131.16
X27.34Y-132.16
X27.34Y-133.16
X27.34Y-134.16
X27.38Y-95.13
X27.38Y-96.13
X27.38Y-97.13
X27.38Y-98.13
X27.38Y-99.13
X27.38Y-100.13
X27.38Y-101.13
X27.38Y-102.13
X27.38Y-103.13
X27.38Y-104.13
X27.38Y-105.13
X28.092Y-68.97
X28.092Y-69.97
X28.092Y-70.97
X28.092Y-71.97
X28.092Y-72.97
X28.092Y-73.97
X28.092Y-74.97
X28.092Y-75.97
X28.092Y-76.97
X28.092Y-77.97
X28.092Y-78.97
X28.34Y-124.16
X28.34Y-125.16
X28.34Y-126.16
X28.34Y-127.16
X28.34Y-128.16
X28.34Y-129.16
X28.34Y-130.16
X28.34Y-131.16
X28.34Y-132.16
X28.34Y-133.16
X28.34Y-134.16
X28.38Y-95.13
X28.38Y-96.13
X28.38Y-97.13
X28.38Y-98.13
X28.38Y-99.13
X28.38Y-100.13
X28.38Y-101.13
X28.38Y-102.13
X28.38Y-103.13
X28.38Y-104.13
X28.38Y-105.13
X28.4Y-31.8
X28.4Y-33.6
X28.5Y-27.9
X28.55Y-24.02
X29.092Y-68.97
X29.092Y-69.97
X29.092Y-70.97
X29.092Y-71.97
X29.092Y-72.97
X29.092Y-73.97
X29.092Y-74.97
X29.092Y-75.97
X29.092Y-76.97
X29.092Y-77.97
X29.092Y-78.97
X29.1Y-50.2
X29.34Y-124.16
X29.34Y-125.16
X29.34Y-126.16
X29.34Y-127.16
X29.34Y-128.16
X29.34Y-129.16
X29.34Y-130.16
X29.34Y-131.16
X29.34Y-132.16
X29.34Y-133.16
X29.34Y-134.16
X29.38Y-95.13
X29.38Y-96.13
X29.38Y-97.13
X29.38Y-98.13
X29.38Y-99.13
X29.38Y-100.13
X29.38Y-101.13
X29.38Y-102.13
X29.38Y-103.13
X29.38Y-104.13
X29.38Y-105.13
X30.092Y-68.97
X30.092Y-69.97
X30.092Y-70.97
X30.092Y-71.97
X30.092Y-72.97
X30.092Y-73.97
X30.092Y-74.97
X30.092Y-75.97
X30.092Y-76.97
X30.092Y-77.97
X30.092Y-78.97
X30.34Y-124.16
X30.34Y-125.16
X30.34Y-126.16
X30.34Y-127.16
X30.34Y-128.16
X30.34Y-129.16
X30.34Y-130.16
X30.34Y-131.16
X30.34Y-132.16
X30.34Y-133.16
X30.34Y-134.16
X30.38Y-95.13
X30.38Y-96.13
X30.38Y-97.13
X30.38Y-98.13
X30.38Y-99.13
X30.38Y-100.13
X30.38Y-101.13
X30.38Y-102.13
X30.38Y-103.13
X30.38Y-104.13
X30.38Y-105.13
X39.9Y-23.6
X40.Y-26.9
X40.7Y-13.7
X43.1Y-24.9
X43.5Y-13.7
X44.363Y-34.238
X44.66Y-44.68
X46.4Y-27.3
X46.975Y-31.075
X47.244Y-154.75
X47.244Y-155.75
X47.244Y-156.75
X47.244Y-157.75
X47.244Y-158.75
X47.244Y-159.75
X47.244Y-160.75
X47.244Y-161.75
X47.244Y-162.75
X47.244Y-163.75
X47.244Y-164.75
X47.3Y-29.1
X47.3Y-44.9
X48.244Y-154.75
X48.244Y-155.75
X48.244Y-156.75
X48.244Y-157.75
X48.244Y-158.75
X48.244Y-159.75
X48.244Y-160.75
X48.244Y-161.75
X48.244Y-162.75
X48.244Y-163.75
X48.244Y-164.75
X49.244Y-154.75
X49.244Y-155.75
X49.244Y-156.75
X49.244Y-157.75
X49.244Y-158.75
X49.244Y-159.75
X49.244Y-160.75
X49.244Y-161.75
X49.244Y-162.75
X49.244Y-163.75
X49.244Y-164.75
X49.391Y-31.683
X50.024Y-154.75
X50.024Y-155.75
X50.024Y-156.75
X50.024Y-157.75
X50.024Y-158.75
X50.024Y-159.75
X50.024Y-160.75
X50.024Y-161.75
X50.024Y-162.75
X50.024Y-163.75
X50.024Y-164.75
X50.7Y-25.5
X50.7Y-34.
X51.014Y-154.75
X51.014Y-155.75
X51.014Y-156.75
X51.014Y-157.75
X51.014Y-158.75
X51.014Y-159.75
X51.014Y-160.75
X51.014Y-161.75
X51.014Y-162.75
X51.014Y-163.75
X51.014Y-164.75
X52.014Y-154.75
X52.014Y-155.75
X52.014Y-156.75
X52.014Y-157.75
X52.014Y-158.75
X52.014Y-159.75
X52.014Y-160.75
X52.014Y-161.75
X52.014Y-162.75
X52.014Y-163.75
X52.014Y-164.75
X53.014Y-154.75
X53.014Y-155.75
X53.014Y-156.75
X53.014Y-157.75
X53.014Y-158.75
X53.014Y-159.75
X53.014Y-160.75
X53.014Y-161.75
X53.014Y-162.75
X53.014Y-163.75
X53.014Y-164.75
X54.014Y-154.75
X54.014Y-155.75
X54.014Y-156.75
X54.014Y-157.75
X54.014Y-158.75
X54.014Y-159.75
X54.014Y-160.75
X54.014Y-161.75
X54.014Y-162.75
X54.014Y-163.75
X54.014Y-164.75
X62.1Y-122.3
X64.Y-111.
X64.1Y-103.
X68.8Y-50.8
X70.Y-125.4
X74.8Y-65.2
X76.7Y-43.9
X76.7Y-53.9
X79.1Y-23.5
X89.8Y-20.
X97.3Y-19.9
X99.5Y-160.8
X100.3Y-36.5
X101.6Y-151.5
X101.8Y-59.
X101.8Y-86.4
X101.9Y-111.3
X102.5Y-139.1
X105.Y-76.8
X105.9Y-49.6
X105.9Y-101.7
X106.1Y-27.2
X106.2Y-129.2
X107.9Y-166.3
X108.6Y-21.8
X109.6Y-91.5
X109.7Y-42.
X109.7Y-64.5
X110.3Y-116.8
X110.3Y-144.4
X111.7Y-13.9
X119.2Y-168.2
X120.9Y-93.4
X121.Y-43.9
X121.Y-66.4
X121.6Y-118.7
X121.6Y-146.3
X122.3Y-160.3
X124.Y-85.5
X124.1Y-36.
X124.1Y-58.5
X124.7Y-110.8
X124.7Y-138.4
T4
X3.875Y-8.
X3.875Y-169.8
X5.073Y-5.073
X5.073Y-10.927
X5.073Y-166.873
X5.073Y-172.727
X8.Y-3.875
X8.Y-12.125
X8.Y-165.675
X8.Y-173.925
X10.927Y-5.073
X10.927Y-10.927
X10.927Y-166.873
X10.927Y-172.727
X12.125Y-8.
X12.125Y-169.8
X165.675Y-169.8
X165.875Y-8.
X166.873Y-166.873
X166.873Y-172.727
X167.073Y-5.073
X167.073Y-10.927
X169.8Y-165.675
X169.8Y-173.925
X170.Y-3.875
X170.Y-12.125
X172.727Y-166.873
X172.727Y-172.727
X172.927Y-5.073
X172.927Y-10.927
X173.925Y-169.8
X174.125Y-8.
T5
X62.36Y-147.9
X64.9Y-147.9
X67.44Y-147.9
X71.36Y-28.3
X73.9Y-28.3
X76.44Y-28.3
X134.2Y-16.46
X134.2Y-19.
X134.2Y-21.54
X144.8Y-162.86
X144.8Y-165.4
X144.8Y-167.94
X146.5Y-88.06
X146.5Y-90.6
X146.5Y-93.14
X146.6Y-38.56
X146.6Y-41.1
X146.6Y-43.64
X146.6Y-61.06
X146.6Y-63.6
X146.6Y-66.14
X147.2Y-113.36
X147.2Y-115.9
X147.2Y-118.44
X147.2Y-140.96
X147.2Y-143.5
X147.2Y-146.04
T6
X62.975Y-39.
X62.975Y-40.6
X64.225Y-39.
X64.225Y-40.6
X65.575Y-134.6
X65.575Y-136.4
X65.575Y-138.2
X67.125Y-134.6
X67.125Y-136.4
X67.125Y-138.2
X70.575Y-39.
X70.575Y-40.6
X71.825Y-39.
X71.825Y-40.6
X75.675Y-134.6
X75.675Y-136.4
X75.675Y-138.2
X77.225Y-134.6
X77.225Y-136.4
X77.225Y-138.2
X120.9Y-6.675
X120.9Y-8.225
X120.9Y-16.775
X120.9Y-18.325
X122.7Y-6.675
X122.7Y-8.225
X122.7Y-16.775
X122.7Y-18.325
X124.5Y-6.675
X124.5Y-8.225
X124.5Y-16.775
X124.5Y-18.325
X131.5Y-153.075
X131.5Y-154.625
X131.5Y-163.175
X131.5Y-164.725
X133.2Y-78.275
X133.2Y-79.825
X133.2Y-88.375
X133.2Y-89.925
X133.3Y-28.775
X133.3Y-30.325
X133.3Y-38.875
X133.3Y-40.425
X133.3Y-51.275
X133.3Y-52.825
X133.3Y-61.375
X133.3Y-62.925
X133.3Y-153.075
X133.3Y-154.625
X133.3Y-163.175
X133.3Y-164.725
X133.9Y-103.575
X133.9Y-105.125
X133.9Y-113.675
X133.9Y-115.225
X133.9Y-131.175
X133.9Y-132.725
X133.9Y-141.275
X133.9Y-142.825
X135.Y-78.275
X135.Y-79.825
X135.Y-88.375
X135.Y-89.925
X135.1Y-28.775
X135.1Y-30.325
X135.1Y-38.875
X135.1Y-40.425
X135.1Y-51.275
X135.1Y-52.825
X135.1Y-61.375
X135.1Y-62.925
X135.1Y-153.075
X135.1Y-154.625
X135.1Y-163.175
X135.1Y-164.725
X135.7Y-103.575
X135.7Y-105.125
X135.7Y-113.675
X135.7Y-115.225
X135.7Y-131.175
X135.7Y-132.725
X135.7Y-141.275
X135.7Y-142.825
X136.8Y-78.275
X136.8Y-79.825
X136.8Y-88.375
X136.8Y-89.925
X136.9Y-28.775
X136.9Y-30.325
X136.9Y-38.875
X136.9Y-40.425
X136.9Y-51.275
X136.9Y-52.825
X136.9Y-61.375
X136.9Y-62.925
X137.5Y-103.575
X137.5Y-105.125
X137.5Y-113.675
X137.5Y-115.225
X137.5Y-131.175
X137.5Y-132.725
X137.5Y-141.275
X137.5Y-142.825
T7
X26.924Y-144.272
X41.402Y-144.272
T8
X32.846Y-38.1
X32.846Y-43.1
X37.846Y-38.1
X37.846Y-43.1
T9
X8.Y-132.1
X8.Y-135.6
X8.Y-139.1
X8.Y-142.6
X8.1Y-76.9
X8.1Y-80.4
X8.1Y-83.9
X8.1Y-87.4
X8.1Y-103.
X8.1Y-106.5
X8.1Y-110.
X8.1Y-113.5
X8.3Y-26.
X8.3Y-29.5
X8.3Y-33.
X8.3Y-36.5
X8.3Y-40.
X8.3Y-43.5
X20.3Y-8.
X23.8Y-8.
X27.3Y-8.
X30.8Y-8.
X38.774Y-8.1
X39.15Y-169.8
X42.274Y-8.1
X42.65Y-169.8
X45.774Y-8.1
X49.274Y-8.1
X52.774Y-8.1
X56.274Y-8.1
X58.Y-169.8
X61.5Y-169.8
X64.8Y-8.1
X68.3Y-8.1
X68.6Y-169.8
X71.8Y-8.1
X72.1Y-169.8
X75.3Y-8.1
X79.4Y-169.8
X82.9Y-169.8
X146.4Y-8.
X149.9Y-8.
X156.7Y-8.
X157.1Y-169.8
X160.2Y-8.
X160.6Y-169.8
X169.8Y-22.55
X169.8Y-26.05
X169.8Y-32.7
X169.8Y-36.2
X169.8Y-43.25
X169.8Y-46.75
X169.8Y-53.55
X169.8Y-57.05
X169.8Y-63.75
X169.8Y-67.25
X169.8Y-74.3
X169.8Y-77.8
X169.8Y-84.7
X169.8Y-88.2
X169.8Y-95.1
X169.8Y-98.6
X169.8Y-105.4
X169.8Y-108.9
X169.8Y-115.8
X169.8Y-119.3
X169.8Y-126.3
X169.8Y-129.8
X169.8Y-136.9
X169.8Y-140.4
X169.8Y-147.3
X169.8Y-150.8
X169.8Y-157.75
X169.8Y-161.25
T10
X21.1Y-150.38
X21.1Y-155.46
X21.1Y-158.
X28.72Y-150.38
X28.72Y-155.46
X28.72Y-158.
T11
X35.85Y-99.85
X40.5Y-69.7
X40.5Y-79.7
X41.3Y-123.1
X41.3Y-133.1
X45.85Y-99.85
X50.038Y-140.114
X50.038Y-150.114
T12
X8.Y-8.
X8.Y-169.8
X169.8Y-169.8
X170.Y-8.
T0
M30
