G04 #@! TF.GenerationSoftware,KiCad,Pcbnew,(5.0.2)-1*
G04 #@! TF.CreationDate,2019-06-14T17:16:18-02:30*
G04 #@! TF.ProjectId,arduinoShield,61726475-696e-46f5-9368-69656c642e6b,rev?*
G04 #@! TF.SameCoordinates,Original*
G04 #@! TF.FileFunction,Copper,L4,Bot*
G04 #@! TF.FilePolarity,Positive*
%FSLAX46Y46*%
G04 Gerber Fmt 4.6, Leading zero omitted, Abs format (unit mm)*
G04 Created by KiCad (PCBNEW (5.0.2)-1) date 6/14/2019 5:16:18 PM*
%MOMM*%
%LPD*%
G01*
G04 APERTURE LIST*
G04 #@! TA.AperFunction,ComponentPad*
%ADD10C,1.727200*%
G04 #@! TD*
G04 #@! TA.AperFunction,ComponentPad*
%ADD11O,1.727200X1.727200*%
G04 #@! TD*
G04 #@! TA.AperFunction,ComponentPad*
%ADD12O,1.727200X2.032000*%
G04 #@! TD*
G04 #@! TA.AperFunction,ComponentPad*
%ADD13C,4.064000*%
G04 #@! TD*
G04 #@! TA.AperFunction,SMDPad,CuDef*
%ADD14R,0.500000X0.600000*%
G04 #@! TD*
G04 #@! TA.AperFunction,SMDPad,CuDef*
%ADD15R,0.600000X0.400000*%
G04 #@! TD*
G04 #@! TA.AperFunction,ComponentPad*
%ADD16C,1.408000*%
G04 #@! TD*
G04 #@! TA.AperFunction,ComponentPad*
%ADD17C,2.184400*%
G04 #@! TD*
G04 #@! TA.AperFunction,ComponentPad*
%ADD18C,1.300000*%
G04 #@! TD*
G04 #@! TA.AperFunction,ComponentPad*
%ADD19C,2.800000*%
G04 #@! TD*
G04 #@! TA.AperFunction,ComponentPad*
%ADD20R,2.800000X2.800000*%
G04 #@! TD*
G04 #@! TA.AperFunction,ComponentPad*
%ADD21O,2.000000X3.600000*%
G04 #@! TD*
G04 #@! TA.AperFunction,ComponentPad*
%ADD22R,2.000000X3.600000*%
G04 #@! TD*
G04 #@! TA.AperFunction,ViaPad*
%ADD23C,0.600000*%
G04 #@! TD*
G04 #@! TA.AperFunction,Conductor*
%ADD24C,0.250000*%
G04 #@! TD*
G04 #@! TA.AperFunction,Conductor*
%ADD25C,0.254000*%
G04 #@! TD*
G04 APERTURE END LIST*
D10*
G04 #@! TO.P,P1,1*
G04 #@! TO.N,GND*
X144108000Y-142296000D03*
D11*
G04 #@! TO.P,P1,2*
X146648000Y-142296000D03*
G04 #@! TO.P,P1,3*
G04 #@! TO.N,NETW_SCLK*
X144108000Y-139756000D03*
G04 #@! TO.P,P1,4*
G04 #@! TO.N,NETW_SS*
X146648000Y-139756000D03*
G04 #@! TO.P,P1,5*
G04 #@! TO.N,NETW_MISO*
X144108000Y-137216000D03*
G04 #@! TO.P,P1,6*
G04 #@! TO.N,NETW_MOSI*
X146648000Y-137216000D03*
G04 #@! TO.P,P1,7*
G04 #@! TO.N,/48*
X144108000Y-134676000D03*
G04 #@! TO.P,P1,8*
G04 #@! TO.N,/49*
X146648000Y-134676000D03*
G04 #@! TO.P,P1,9*
G04 #@! TO.N,/46*
X144108000Y-132136000D03*
G04 #@! TO.P,P1,10*
G04 #@! TO.N,/47*
X146648000Y-132136000D03*
G04 #@! TO.P,P1,11*
G04 #@! TO.N,/44*
X144108000Y-129596000D03*
G04 #@! TO.P,P1,12*
G04 #@! TO.N,/45*
X146648000Y-129596000D03*
G04 #@! TO.P,P1,13*
G04 #@! TO.N,/42*
X144108000Y-127056000D03*
G04 #@! TO.P,P1,14*
G04 #@! TO.N,/43*
X146648000Y-127056000D03*
G04 #@! TO.P,P1,15*
G04 #@! TO.N,/40*
X144108000Y-124516000D03*
G04 #@! TO.P,P1,16*
G04 #@! TO.N,/41*
X146648000Y-124516000D03*
G04 #@! TO.P,P1,17*
G04 #@! TO.N,/38*
X144108000Y-121976000D03*
G04 #@! TO.P,P1,18*
G04 #@! TO.N,/39*
X146648000Y-121976000D03*
G04 #@! TO.P,P1,19*
G04 #@! TO.N,/36*
X144108000Y-119436000D03*
G04 #@! TO.P,P1,20*
G04 #@! TO.N,/37*
X146648000Y-119436000D03*
G04 #@! TO.P,P1,21*
G04 #@! TO.N,/34*
X144108000Y-116896000D03*
G04 #@! TO.P,P1,22*
G04 #@! TO.N,/35*
X146648000Y-116896000D03*
G04 #@! TO.P,P1,23*
G04 #@! TO.N,/32*
X144108000Y-114356000D03*
G04 #@! TO.P,P1,24*
G04 #@! TO.N,/33*
X146648000Y-114356000D03*
G04 #@! TO.P,P1,25*
G04 #@! TO.N,/30*
X144108000Y-111816000D03*
G04 #@! TO.P,P1,26*
G04 #@! TO.N,/31*
X146648000Y-111816000D03*
G04 #@! TO.P,P1,27*
G04 #@! TO.N,/28*
X144108000Y-109276000D03*
G04 #@! TO.P,P1,28*
G04 #@! TO.N,/29*
X146648000Y-109276000D03*
G04 #@! TO.P,P1,29*
G04 #@! TO.N,/26*
X144108000Y-106736000D03*
G04 #@! TO.P,P1,30*
G04 #@! TO.N,/27*
X146648000Y-106736000D03*
G04 #@! TO.P,P1,31*
G04 #@! TO.N,/24*
X144108000Y-104196000D03*
G04 #@! TO.P,P1,32*
G04 #@! TO.N,/25*
X146648000Y-104196000D03*
G04 #@! TO.P,P1,33*
G04 #@! TO.N,/22*
X144108000Y-101656000D03*
G04 #@! TO.P,P1,34*
G04 #@! TO.N,/23*
X146648000Y-101656000D03*
G04 #@! TO.P,P1,35*
G04 #@! TO.N,+5V*
X144108000Y-99116000D03*
G04 #@! TO.P,P1,36*
X146648000Y-99116000D03*
G04 #@! TD*
D12*
G04 #@! TO.P,P2,1*
G04 #@! TO.N,Net-(P2-Pad1)*
X78068000Y-147376000D03*
G04 #@! TO.P,P2,2*
G04 #@! TO.N,/IOREF*
X80608000Y-147376000D03*
G04 #@! TO.P,P2,3*
G04 #@! TO.N,NETW_RST_L*
X83148000Y-147376000D03*
G04 #@! TO.P,P2,4*
G04 #@! TO.N,+3V3*
X85688000Y-147376000D03*
G04 #@! TO.P,P2,5*
G04 #@! TO.N,Net-(P2-Pad5)*
X88228000Y-147376000D03*
G04 #@! TO.P,P2,6*
G04 #@! TO.N,GND*
X90768000Y-147376000D03*
G04 #@! TO.P,P2,7*
X93308000Y-147376000D03*
G04 #@! TO.P,P2,8*
G04 #@! TO.N,/Vin*
X95848000Y-147376000D03*
G04 #@! TD*
G04 #@! TO.P,P3,1*
G04 #@! TO.N,/A0*
X100928000Y-147376000D03*
G04 #@! TO.P,P3,2*
G04 #@! TO.N,/A1*
X103468000Y-147376000D03*
G04 #@! TO.P,P3,3*
G04 #@! TO.N,/A2*
X106008000Y-147376000D03*
G04 #@! TO.P,P3,4*
G04 #@! TO.N,/A3*
X108548000Y-147376000D03*
G04 #@! TO.P,P3,5*
G04 #@! TO.N,/A4*
X111088000Y-147376000D03*
G04 #@! TO.P,P3,6*
G04 #@! TO.N,/A5*
X113628000Y-147376000D03*
G04 #@! TO.P,P3,7*
G04 #@! TO.N,/A6*
X116168000Y-147376000D03*
G04 #@! TO.P,P3,8*
G04 #@! TO.N,/A7*
X118708000Y-147376000D03*
G04 #@! TD*
G04 #@! TO.P,P4,1*
G04 #@! TO.N,/A8*
X123788000Y-147376000D03*
G04 #@! TO.P,P4,2*
G04 #@! TO.N,/A9*
X126328000Y-147376000D03*
G04 #@! TO.P,P4,3*
G04 #@! TO.N,/A10*
X128868000Y-147376000D03*
G04 #@! TO.P,P4,4*
G04 #@! TO.N,/A11*
X131408000Y-147376000D03*
G04 #@! TO.P,P4,5*
G04 #@! TO.N,/A12*
X133948000Y-147376000D03*
G04 #@! TO.P,P4,6*
G04 #@! TO.N,/A13*
X136488000Y-147376000D03*
G04 #@! TO.P,P4,7*
G04 #@! TO.N,/A14*
X139028000Y-147376000D03*
G04 #@! TO.P,P4,8*
G04 #@! TO.N,/A15*
X141568000Y-147376000D03*
G04 #@! TD*
G04 #@! TO.P,P5,1*
G04 #@! TO.N,/SCL*
X68924000Y-99116000D03*
G04 #@! TO.P,P5,2*
G04 #@! TO.N,/SDA*
X71464000Y-99116000D03*
G04 #@! TO.P,P5,3*
G04 #@! TO.N,/AREF*
X74004000Y-99116000D03*
G04 #@! TO.P,P5,4*
G04 #@! TO.N,GND*
X76544000Y-99116000D03*
G04 #@! TO.P,P5,5*
G04 #@! TO.N,/13(\002A\002A)*
X79084000Y-99116000D03*
G04 #@! TO.P,P5,6*
G04 #@! TO.N,/12(\002A\002A)*
X81624000Y-99116000D03*
G04 #@! TO.P,P5,7*
G04 #@! TO.N,/11(\002A\002A)*
X84164000Y-99116000D03*
G04 #@! TO.P,P5,8*
G04 #@! TO.N,/10(\002A\002A)*
X86704000Y-99116000D03*
G04 #@! TO.P,P5,9*
G04 #@! TO.N,/9(\002A\002A)*
X89244000Y-99116000D03*
G04 #@! TO.P,P5,10*
G04 #@! TO.N,/8(\002A\002A)*
X91784000Y-99116000D03*
G04 #@! TD*
G04 #@! TO.P,P6,1*
G04 #@! TO.N,/7(\002A\002A)*
X95848000Y-99116000D03*
G04 #@! TO.P,P6,2*
G04 #@! TO.N,/6(\002A\002A)*
X98388000Y-99116000D03*
G04 #@! TO.P,P6,3*
G04 #@! TO.N,/5(\002A\002A)*
X100928000Y-99116000D03*
G04 #@! TO.P,P6,4*
G04 #@! TO.N,/4(\002A\002A)*
X103468000Y-99116000D03*
G04 #@! TO.P,P6,5*
G04 #@! TO.N,/3(\002A\002A)*
X106008000Y-99116000D03*
G04 #@! TO.P,P6,6*
G04 #@! TO.N,/2(\002A\002A)*
X108548000Y-99116000D03*
G04 #@! TO.P,P6,7*
G04 #@! TO.N,/1(Tx0)*
X111088000Y-99116000D03*
G04 #@! TO.P,P6,8*
G04 #@! TO.N,/0(Rx0)*
X113628000Y-99116000D03*
G04 #@! TD*
G04 #@! TO.P,P7,1*
G04 #@! TO.N,/14(Tx3)*
X118708000Y-99116000D03*
G04 #@! TO.P,P7,2*
G04 #@! TO.N,/15(Rx3)*
X121248000Y-99116000D03*
G04 #@! TO.P,P7,3*
G04 #@! TO.N,/16(Tx2)*
X123788000Y-99116000D03*
G04 #@! TO.P,P7,4*
G04 #@! TO.N,/17(Rx2)*
X126328000Y-99116000D03*
G04 #@! TO.P,P7,5*
G04 #@! TO.N,/18(Tx1)*
X128868000Y-99116000D03*
G04 #@! TO.P,P7,6*
G04 #@! TO.N,/19(Rx1)*
X131408000Y-99116000D03*
G04 #@! TO.P,P7,7*
G04 #@! TO.N,/20(SDA)*
X133948000Y-99116000D03*
G04 #@! TO.P,P7,8*
G04 #@! TO.N,/21(SCL)*
X136488000Y-99116000D03*
G04 #@! TD*
D13*
G04 #@! TO.P,P8,1*
G04 #@! TO.N,Net-(P8-Pad1)*
X64098000Y-147376000D03*
G04 #@! TD*
G04 #@! TO.P,P9,1*
G04 #@! TO.N,Net-(P9-Pad1)*
X116168000Y-142296000D03*
G04 #@! TD*
G04 #@! TO.P,P10,1*
G04 #@! TO.N,Net-(P10-Pad1)*
X146648000Y-147376000D03*
G04 #@! TD*
G04 #@! TO.P,P11,1*
G04 #@! TO.N,Net-(P11-Pad1)*
X65368000Y-99116000D03*
G04 #@! TD*
G04 #@! TO.P,P12,1*
G04 #@! TO.N,Net-(P12-Pad1)*
X116168000Y-114356000D03*
G04 #@! TD*
G04 #@! TO.P,P13,1*
G04 #@! TO.N,Net-(P13-Pad1)*
X140298000Y-99116000D03*
G04 #@! TD*
D14*
G04 #@! TO.P,C4,2*
G04 #@! TO.N,GND*
X75020000Y-138528000D03*
G04 #@! TO.P,C4,1*
G04 #@! TO.N,/wiznet/REF_CAP*
X75020000Y-137428000D03*
G04 #@! TD*
G04 #@! TO.P,C6,1*
G04 #@! TO.N,/wiznet/1V20*
X76780000Y-137300000D03*
G04 #@! TO.P,C6,2*
G04 #@! TO.N,GND*
X76780000Y-138400000D03*
G04 #@! TD*
G04 #@! TO.P,C12,2*
G04 #@! TO.N,Net-(C12-Pad2)*
X61240000Y-129940000D03*
G04 #@! TO.P,C12,1*
G04 #@! TO.N,GND*
X61240000Y-131040000D03*
G04 #@! TD*
D15*
G04 #@! TO.P,R10,2*
G04 #@! TO.N,GND*
X78570000Y-138270000D03*
G04 #@! TO.P,R10,1*
G04 #@! TO.N,/wiznet/RSVD0*
X78570000Y-137370000D03*
G04 #@! TD*
G04 #@! TO.P,R11,1*
G04 #@! TO.N,/wiznet/RSVD1*
X77516000Y-121710000D03*
G04 #@! TO.P,R11,2*
G04 #@! TO.N,GND*
X77516000Y-120810000D03*
G04 #@! TD*
G04 #@! TO.P,R12,2*
G04 #@! TO.N,GND*
X76246000Y-120810000D03*
G04 #@! TO.P,R12,1*
G04 #@! TO.N,/wiznet/RSVD2*
X76246000Y-121710000D03*
G04 #@! TD*
G04 #@! TO.P,R13,1*
G04 #@! TO.N,/wiznet/RSVD3*
X74990000Y-121710000D03*
G04 #@! TO.P,R13,2*
G04 #@! TO.N,GND*
X74990000Y-120810000D03*
G04 #@! TD*
G04 #@! TO.P,R14,2*
G04 #@! TO.N,GND*
X73720000Y-120810000D03*
G04 #@! TO.P,R14,1*
G04 #@! TO.N,/wiznet/RSVD4*
X73720000Y-121710000D03*
G04 #@! TD*
G04 #@! TO.P,R15,1*
G04 #@! TO.N,/wiznet/RSVD5*
X72430000Y-121710000D03*
G04 #@! TO.P,R15,2*
G04 #@! TO.N,GND*
X72430000Y-120810000D03*
G04 #@! TD*
D16*
G04 #@! TO.P,P14,L2*
G04 #@! TO.N,/wiznet/LINK_LED_R*
X51360870Y-114713620D03*
G04 #@! TO.P,P14,L3*
G04 #@! TO.N,3V3_WIZ*
X52880870Y-107143620D03*
G04 #@! TO.P,P14,L4*
G04 #@! TO.N,/wiznet/ACT_LED_R*
X51360370Y-104605470D03*
G04 #@! TO.P,P14,L1*
G04 #@! TO.N,3V3_WIZ*
X52880370Y-117255470D03*
D17*
G04 #@! TO.P,P14,SH*
G04 #@! TO.N,Net-(FB2-Pad1)*
X59308960Y-118804210D03*
X59308960Y-103054210D03*
D18*
G04 #@! TO.P,P14,R1*
G04 #@! TO.N,/wiznet/TX_R_P*
X62608960Y-106484210D03*
G04 #@! TO.P,P14,R2*
G04 #@! TO.N,/wiznet/TX_R_N*
X65148960Y-107754210D03*
G04 #@! TO.P,P14,R3*
G04 #@! TO.N,Net-(C15-Pad2)*
X62608960Y-109024210D03*
G04 #@! TO.P,P14,R4*
G04 #@! TO.N,Net-(P14-PadR4)*
X65148960Y-110294209D03*
G04 #@! TO.P,P14,R5*
G04 #@! TO.N,Net-(P14-PadR5)*
X62608960Y-111564209D03*
G04 #@! TO.P,P14,R6*
G04 #@! TO.N,Net-(P14-PadR6)*
X65148960Y-112834210D03*
G04 #@! TO.P,P14,R7*
G04 #@! TO.N,/wiznet/RX_C_P*
X62608960Y-114104210D03*
G04 #@! TO.P,P14,R8*
G04 #@! TO.N,/wiznet/RX_C_N*
X65148960Y-115374210D03*
G04 #@! TD*
D19*
G04 #@! TO.P,J1,2*
G04 #@! TO.N,Net-(J1-Pad2)*
X89620000Y-105580000D03*
D20*
G04 #@! TO.P,J1,1*
G04 #@! TO.N,GND*
X84120000Y-105580000D03*
G04 #@! TD*
G04 #@! TO.P,J2,1*
G04 #@! TO.N,GND*
X88000000Y-112750000D03*
D19*
G04 #@! TO.P,J2,2*
G04 #@! TO.N,Net-(J2-Pad2)*
X93500000Y-112750000D03*
G04 #@! TD*
G04 #@! TO.P,J3,2*
G04 #@! TO.N,/19(Rx1)*
X98750000Y-119750000D03*
D20*
G04 #@! TO.P,J3,1*
G04 #@! TO.N,GND*
X93250000Y-119750000D03*
G04 #@! TD*
D21*
G04 #@! TO.P,J4,8*
G04 #@! TO.N,Net-(J4-Pad8)*
X137750000Y-133250000D03*
G04 #@! TO.P,J4,7*
G04 #@! TO.N,/A8*
X132750000Y-133250000D03*
G04 #@! TO.P,J4,6*
G04 #@! TO.N,/A4*
X127750000Y-133250000D03*
G04 #@! TO.P,J4,5*
G04 #@! TO.N,/A3*
X122750000Y-133250000D03*
G04 #@! TO.P,J4,4*
G04 #@! TO.N,/A2*
X117750000Y-133250000D03*
G04 #@! TO.P,J4,3*
G04 #@! TO.N,GND*
X112750000Y-133250000D03*
G04 #@! TO.P,J4,2*
X107750000Y-133250000D03*
D22*
G04 #@! TO.P,J4,1*
X102750000Y-133250000D03*
G04 #@! TD*
D23*
G04 #@! TO.N,GND*
X72130000Y-135090000D03*
X73720000Y-135790000D03*
X64450000Y-134070000D03*
X84210000Y-135150000D03*
X96740000Y-137770000D03*
X91910000Y-136670000D03*
X54815893Y-123714854D03*
X74150000Y-116060000D03*
X69970000Y-134880000D03*
X75920000Y-139740000D03*
X70580000Y-139670000D03*
X79460000Y-130260000D03*
X116230000Y-122760000D03*
X109980000Y-112750000D03*
X97920000Y-106890000D03*
X120830000Y-107650000D03*
X57370000Y-98240000D03*
X65960000Y-125500000D03*
X70000000Y-123550000D03*
X63330000Y-130770000D03*
X139425329Y-115950000D03*
X137175000Y-105800000D03*
X132250000Y-139750000D03*
G04 #@! TO.N,+5V*
X119130000Y-123000000D03*
X139675000Y-126375000D03*
X135500000Y-125975000D03*
X125800000Y-124300000D03*
G04 #@! TO.N,/wiznet/REF_CAP*
X74110000Y-134740000D03*
G04 #@! TO.N,/wiznet/1V20*
X75380000Y-135180000D03*
G04 #@! TO.N,Net-(C12-Pad2)*
X61280000Y-128080000D03*
G04 #@! TO.N,NETW_SCLK*
X142100000Y-138570000D03*
X85500000Y-127000000D03*
G04 #@! TO.N,NETW_SS*
X142040000Y-140110000D03*
X85500000Y-128000000D03*
G04 #@! TO.N,NETW_MISO*
X142094000Y-137216000D03*
X85500000Y-126000000D03*
G04 #@! TO.N,NETW_MOSI*
X142080000Y-135870000D03*
X85500000Y-125000000D03*
G04 #@! TO.N,/wiznet/LINK_LED*
X58750000Y-123070000D03*
X75010000Y-130570000D03*
G04 #@! TO.N,/wiznet/ACT_LED*
X60340000Y-121180000D03*
X75240000Y-129790000D03*
G04 #@! TO.N,/wiznet/RSVD0*
X76760000Y-135140000D03*
G04 #@! TO.N,/wiznet/RSVD1*
X77260000Y-123370000D03*
G04 #@! TO.N,/wiznet/TX_R_P*
X63980000Y-118240000D03*
G04 #@! TO.N,/wiznet/TX_R_N*
X65450000Y-118240000D03*
G04 #@! TO.N,/wiznet/RSVD2*
X76460000Y-122970000D03*
G04 #@! TO.N,/wiznet/RSVD3*
X75470000Y-122590000D03*
G04 #@! TO.N,/wiznet/RSVD4*
X74430000Y-122610000D03*
G04 #@! TO.N,/wiznet/RSVD5*
X73530000Y-122800000D03*
G04 #@! TO.N,NETW_RST_L*
X77670000Y-125120000D03*
G04 #@! TD*
D24*
G04 #@! TO.N,+5V*
X120234000Y-122990000D02*
X119210000Y-122990000D01*
X135900000Y-126375000D02*
X135799999Y-126274999D01*
X135799999Y-126274999D02*
X135500000Y-125975000D01*
X139675000Y-126375000D02*
X135900000Y-126375000D01*
X124500000Y-123000000D02*
X119130000Y-123000000D01*
X125800000Y-124300000D02*
X124500000Y-123000000D01*
G04 #@! TO.N,/wiznet/REF_CAP*
X75020000Y-136878000D02*
X75020000Y-137428000D01*
X74409999Y-135039999D02*
X74110000Y-134740000D01*
X74754999Y-136612999D02*
X74754999Y-135384999D01*
X74754999Y-135384999D02*
X74409999Y-135039999D01*
X75020000Y-136878000D02*
X74754999Y-136612999D01*
G04 #@! TO.N,/wiznet/1V20*
X76780000Y-136580000D02*
X75380000Y-135180000D01*
X76780000Y-137300000D02*
X76780000Y-136580000D01*
G04 #@! TO.N,Net-(C12-Pad2)*
X61240000Y-128120000D02*
X61280000Y-128080000D01*
X61240000Y-129940000D02*
X61240000Y-128120000D01*
G04 #@! TO.N,NETW_SCLK*
X143286000Y-139756000D02*
X142100000Y-138570000D01*
X144108000Y-139756000D02*
X143286000Y-139756000D01*
G04 #@! TO.N,NETW_SS*
X142339999Y-140409999D02*
X142040000Y-140110000D01*
X142874601Y-140944601D02*
X142339999Y-140409999D01*
X144678529Y-140944601D02*
X142874601Y-140944601D01*
X145867130Y-139756000D02*
X144678529Y-140944601D01*
X146648000Y-139756000D02*
X145867130Y-139756000D01*
G04 #@! TO.N,NETW_MISO*
X144108000Y-137216000D02*
X142094000Y-137216000D01*
X142094000Y-137216000D02*
X142090000Y-137220000D01*
G04 #@! TO.N,NETW_MOSI*
X146648000Y-137216000D02*
X145302000Y-135870000D01*
X145302000Y-135870000D02*
X142080000Y-135870000D01*
G04 #@! TO.N,/wiznet/RSVD0*
X76790000Y-135140000D02*
X76760000Y-135140000D01*
X78570000Y-136920000D02*
X76790000Y-135140000D01*
X78570000Y-137370000D02*
X78570000Y-136920000D01*
G04 #@! TO.N,/wiznet/RSVD1*
X77260000Y-121966000D02*
X77516000Y-121710000D01*
X77260000Y-123370000D02*
X77260000Y-121966000D01*
G04 #@! TO.N,/wiznet/RSVD2*
X76460000Y-121924000D02*
X76246000Y-121710000D01*
X76460000Y-122970000D02*
X76460000Y-121924000D01*
G04 #@! TO.N,/wiznet/RSVD3*
X75470000Y-122190000D02*
X74990000Y-121710000D01*
X75470000Y-122590000D02*
X75470000Y-122190000D01*
G04 #@! TO.N,/wiznet/RSVD4*
X74430000Y-122420000D02*
X73720000Y-121710000D01*
X74430000Y-122610000D02*
X74430000Y-122420000D01*
G04 #@! TO.N,/wiznet/RSVD5*
X73520000Y-122800000D02*
X72430000Y-121710000D01*
X73530000Y-122800000D02*
X73520000Y-122800000D01*
G04 #@! TD*
D25*
G04 #@! TO.N,GND*
G36*
X63107026Y-97605266D02*
X62701000Y-98585501D01*
X62701000Y-99646499D01*
X63107026Y-100626734D01*
X63857266Y-101376974D01*
X64837501Y-101783000D01*
X65898499Y-101783000D01*
X66878734Y-101376974D01*
X67628974Y-100626734D01*
X67782156Y-100256918D01*
X67843570Y-100348830D01*
X68339276Y-100680050D01*
X68924000Y-100796359D01*
X69508725Y-100680050D01*
X70004430Y-100348830D01*
X70194000Y-100065119D01*
X70383570Y-100348830D01*
X70879276Y-100680050D01*
X71464000Y-100796359D01*
X72048725Y-100680050D01*
X72544430Y-100348830D01*
X72734000Y-100065119D01*
X72923570Y-100348830D01*
X73419276Y-100680050D01*
X74004000Y-100796359D01*
X74588725Y-100680050D01*
X75084430Y-100348830D01*
X75277909Y-100059267D01*
X75641964Y-100466732D01*
X76169209Y-100720709D01*
X76184974Y-100723358D01*
X76417000Y-100602217D01*
X76417000Y-99243000D01*
X76397000Y-99243000D01*
X76397000Y-98989000D01*
X76417000Y-98989000D01*
X76417000Y-97629783D01*
X76671000Y-97629783D01*
X76671000Y-98989000D01*
X76691000Y-98989000D01*
X76691000Y-99243000D01*
X76671000Y-99243000D01*
X76671000Y-100602217D01*
X76903026Y-100723358D01*
X76918791Y-100720709D01*
X77446036Y-100466732D01*
X77810090Y-100059268D01*
X78003570Y-100348830D01*
X78499276Y-100680050D01*
X79084000Y-100796359D01*
X79668725Y-100680050D01*
X80164430Y-100348830D01*
X80354000Y-100065119D01*
X80543570Y-100348830D01*
X81039276Y-100680050D01*
X81624000Y-100796359D01*
X82208725Y-100680050D01*
X82704430Y-100348830D01*
X82894000Y-100065119D01*
X83083570Y-100348830D01*
X83579276Y-100680050D01*
X84164000Y-100796359D01*
X84748725Y-100680050D01*
X85244430Y-100348830D01*
X85434000Y-100065119D01*
X85623570Y-100348830D01*
X86119276Y-100680050D01*
X86704000Y-100796359D01*
X87288725Y-100680050D01*
X87784430Y-100348830D01*
X87974000Y-100065119D01*
X88163570Y-100348830D01*
X88659276Y-100680050D01*
X89244000Y-100796359D01*
X89828725Y-100680050D01*
X90324430Y-100348830D01*
X90514000Y-100065119D01*
X90703570Y-100348830D01*
X91199276Y-100680050D01*
X91784000Y-100796359D01*
X92368725Y-100680050D01*
X92864430Y-100348830D01*
X93195650Y-99853124D01*
X93282600Y-99415997D01*
X93282600Y-98816003D01*
X94349400Y-98816003D01*
X94349400Y-99415998D01*
X94436350Y-99853125D01*
X94767570Y-100348830D01*
X95263276Y-100680050D01*
X95848000Y-100796359D01*
X96432725Y-100680050D01*
X96928430Y-100348830D01*
X97118000Y-100065119D01*
X97307570Y-100348830D01*
X97803276Y-100680050D01*
X98388000Y-100796359D01*
X98972725Y-100680050D01*
X99468430Y-100348830D01*
X99658000Y-100065119D01*
X99847570Y-100348830D01*
X100343276Y-100680050D01*
X100928000Y-100796359D01*
X101512725Y-100680050D01*
X102008430Y-100348830D01*
X102198000Y-100065119D01*
X102387570Y-100348830D01*
X102883276Y-100680050D01*
X103468000Y-100796359D01*
X104052725Y-100680050D01*
X104548430Y-100348830D01*
X104738000Y-100065119D01*
X104927570Y-100348830D01*
X105423276Y-100680050D01*
X106008000Y-100796359D01*
X106592725Y-100680050D01*
X107088430Y-100348830D01*
X107278000Y-100065119D01*
X107467570Y-100348830D01*
X107963276Y-100680050D01*
X108548000Y-100796359D01*
X109132725Y-100680050D01*
X109628430Y-100348830D01*
X109818000Y-100065119D01*
X110007570Y-100348830D01*
X110503276Y-100680050D01*
X111088000Y-100796359D01*
X111672725Y-100680050D01*
X112168430Y-100348830D01*
X112358000Y-100065119D01*
X112547570Y-100348830D01*
X113043276Y-100680050D01*
X113628000Y-100796359D01*
X114212725Y-100680050D01*
X114708430Y-100348830D01*
X115039650Y-99853124D01*
X115126600Y-99415997D01*
X115126600Y-98816002D01*
X115039650Y-98378875D01*
X114708430Y-97883170D01*
X114212724Y-97551950D01*
X113628000Y-97435641D01*
X113043275Y-97551950D01*
X112547570Y-97883170D01*
X112358000Y-98166881D01*
X112168430Y-97883170D01*
X111672724Y-97551950D01*
X111088000Y-97435641D01*
X110503275Y-97551950D01*
X110007570Y-97883170D01*
X109818000Y-98166881D01*
X109628430Y-97883170D01*
X109132724Y-97551950D01*
X108548000Y-97435641D01*
X107963275Y-97551950D01*
X107467570Y-97883170D01*
X107278000Y-98166881D01*
X107088430Y-97883170D01*
X106592724Y-97551950D01*
X106008000Y-97435641D01*
X105423275Y-97551950D01*
X104927570Y-97883170D01*
X104738000Y-98166881D01*
X104548430Y-97883170D01*
X104052724Y-97551950D01*
X103468000Y-97435641D01*
X102883275Y-97551950D01*
X102387570Y-97883170D01*
X102198000Y-98166881D01*
X102008430Y-97883170D01*
X101512724Y-97551950D01*
X100928000Y-97435641D01*
X100343275Y-97551950D01*
X99847570Y-97883170D01*
X99658000Y-98166881D01*
X99468430Y-97883170D01*
X98972724Y-97551950D01*
X98388000Y-97435641D01*
X97803275Y-97551950D01*
X97307570Y-97883170D01*
X97118000Y-98166881D01*
X96928430Y-97883170D01*
X96432724Y-97551950D01*
X95848000Y-97435641D01*
X95263275Y-97551950D01*
X94767570Y-97883170D01*
X94436350Y-98378876D01*
X94349400Y-98816003D01*
X93282600Y-98816003D01*
X93282600Y-98816002D01*
X93195650Y-98378875D01*
X92864430Y-97883170D01*
X92368724Y-97551950D01*
X91784000Y-97435641D01*
X91199275Y-97551950D01*
X90703570Y-97883170D01*
X90514000Y-98166881D01*
X90324430Y-97883170D01*
X89828724Y-97551950D01*
X89244000Y-97435641D01*
X88659275Y-97551950D01*
X88163570Y-97883170D01*
X87974000Y-98166881D01*
X87784430Y-97883170D01*
X87288724Y-97551950D01*
X86704000Y-97435641D01*
X86119275Y-97551950D01*
X85623570Y-97883170D01*
X85434000Y-98166881D01*
X85244430Y-97883170D01*
X84748724Y-97551950D01*
X84164000Y-97435641D01*
X83579275Y-97551950D01*
X83083570Y-97883170D01*
X82894000Y-98166881D01*
X82704430Y-97883170D01*
X82208724Y-97551950D01*
X81624000Y-97435641D01*
X81039275Y-97551950D01*
X80543570Y-97883170D01*
X80354000Y-98166881D01*
X80164430Y-97883170D01*
X79668724Y-97551950D01*
X79084000Y-97435641D01*
X78499275Y-97551950D01*
X78003570Y-97883170D01*
X77810091Y-98172733D01*
X77446036Y-97765268D01*
X76918791Y-97511291D01*
X76903026Y-97508642D01*
X76671000Y-97629783D01*
X76417000Y-97629783D01*
X76184974Y-97508642D01*
X76169209Y-97511291D01*
X75641964Y-97765268D01*
X75277910Y-98172732D01*
X75084430Y-97883170D01*
X74588724Y-97551950D01*
X74004000Y-97435641D01*
X73419275Y-97551950D01*
X72923570Y-97883170D01*
X72734000Y-98166881D01*
X72544430Y-97883170D01*
X72048724Y-97551950D01*
X71464000Y-97435641D01*
X70879275Y-97551950D01*
X70383570Y-97883170D01*
X70194000Y-98166881D01*
X70004430Y-97883170D01*
X69508724Y-97551950D01*
X68924000Y-97435641D01*
X68339275Y-97551950D01*
X67843570Y-97883170D01*
X67782156Y-97975082D01*
X67628974Y-97605266D01*
X67309708Y-97286000D01*
X138356292Y-97286000D01*
X138037026Y-97605266D01*
X137786642Y-98209747D01*
X137568430Y-97883170D01*
X137072724Y-97551950D01*
X136488000Y-97435641D01*
X135903275Y-97551950D01*
X135407570Y-97883170D01*
X135218000Y-98166881D01*
X135028430Y-97883170D01*
X134532724Y-97551950D01*
X133948000Y-97435641D01*
X133363275Y-97551950D01*
X132867570Y-97883170D01*
X132678000Y-98166881D01*
X132488430Y-97883170D01*
X131992724Y-97551950D01*
X131408000Y-97435641D01*
X130823275Y-97551950D01*
X130327570Y-97883170D01*
X130138000Y-98166881D01*
X129948430Y-97883170D01*
X129452724Y-97551950D01*
X128868000Y-97435641D01*
X128283275Y-97551950D01*
X127787570Y-97883170D01*
X127598000Y-98166881D01*
X127408430Y-97883170D01*
X126912724Y-97551950D01*
X126328000Y-97435641D01*
X125743275Y-97551950D01*
X125247570Y-97883170D01*
X125058000Y-98166881D01*
X124868430Y-97883170D01*
X124372724Y-97551950D01*
X123788000Y-97435641D01*
X123203275Y-97551950D01*
X122707570Y-97883170D01*
X122518000Y-98166881D01*
X122328430Y-97883170D01*
X121832724Y-97551950D01*
X121248000Y-97435641D01*
X120663275Y-97551950D01*
X120167570Y-97883170D01*
X119978000Y-98166881D01*
X119788430Y-97883170D01*
X119292724Y-97551950D01*
X118708000Y-97435641D01*
X118123275Y-97551950D01*
X117627570Y-97883170D01*
X117296350Y-98378876D01*
X117209400Y-98816003D01*
X117209400Y-99415998D01*
X117296350Y-99853125D01*
X117627570Y-100348830D01*
X118123276Y-100680050D01*
X118708000Y-100796359D01*
X119292725Y-100680050D01*
X119788430Y-100348830D01*
X119978000Y-100065119D01*
X120167570Y-100348830D01*
X120663276Y-100680050D01*
X121248000Y-100796359D01*
X121832725Y-100680050D01*
X122328430Y-100348830D01*
X122518000Y-100065119D01*
X122707570Y-100348830D01*
X123203276Y-100680050D01*
X123788000Y-100796359D01*
X124372725Y-100680050D01*
X124868430Y-100348830D01*
X125058000Y-100065119D01*
X125247570Y-100348830D01*
X125743276Y-100680050D01*
X126328000Y-100796359D01*
X126912725Y-100680050D01*
X127408430Y-100348830D01*
X127598000Y-100065119D01*
X127787570Y-100348830D01*
X128283276Y-100680050D01*
X128868000Y-100796359D01*
X129452725Y-100680050D01*
X129948430Y-100348830D01*
X130138000Y-100065119D01*
X130327570Y-100348830D01*
X130823276Y-100680050D01*
X131408000Y-100796359D01*
X131992725Y-100680050D01*
X132488430Y-100348830D01*
X132678000Y-100065119D01*
X132867570Y-100348830D01*
X133363276Y-100680050D01*
X133948000Y-100796359D01*
X134532725Y-100680050D01*
X135028430Y-100348830D01*
X135218000Y-100065119D01*
X135407570Y-100348830D01*
X135903276Y-100680050D01*
X136488000Y-100796359D01*
X137072725Y-100680050D01*
X137568430Y-100348830D01*
X137786642Y-100022253D01*
X138037026Y-100626734D01*
X138787266Y-101376974D01*
X139767501Y-101783000D01*
X140828499Y-101783000D01*
X141808734Y-101376974D01*
X142558974Y-100626734D01*
X142848327Y-99928174D01*
X143027570Y-100196430D01*
X143311281Y-100386000D01*
X143027570Y-100575570D01*
X142696350Y-101071275D01*
X142580041Y-101656000D01*
X142696350Y-102240725D01*
X143027570Y-102736430D01*
X143311281Y-102926000D01*
X143027570Y-103115570D01*
X142696350Y-103611275D01*
X142580041Y-104196000D01*
X142696350Y-104780725D01*
X143027570Y-105276430D01*
X143311281Y-105466000D01*
X143027570Y-105655570D01*
X142696350Y-106151275D01*
X142580041Y-106736000D01*
X142696350Y-107320725D01*
X143027570Y-107816430D01*
X143311281Y-108006000D01*
X143027570Y-108195570D01*
X142696350Y-108691275D01*
X142580041Y-109276000D01*
X142696350Y-109860725D01*
X143027570Y-110356430D01*
X143311281Y-110546000D01*
X143027570Y-110735570D01*
X142696350Y-111231275D01*
X142580041Y-111816000D01*
X142696350Y-112400725D01*
X143027570Y-112896430D01*
X143311281Y-113086000D01*
X143027570Y-113275570D01*
X142696350Y-113771275D01*
X142580041Y-114356000D01*
X142696350Y-114940725D01*
X143027570Y-115436430D01*
X143311281Y-115626000D01*
X143027570Y-115815570D01*
X142696350Y-116311275D01*
X142580041Y-116896000D01*
X142696350Y-117480725D01*
X143027570Y-117976430D01*
X143311281Y-118166000D01*
X143027570Y-118355570D01*
X142696350Y-118851275D01*
X142580041Y-119436000D01*
X142696350Y-120020725D01*
X143027570Y-120516430D01*
X143311281Y-120706000D01*
X143027570Y-120895570D01*
X142696350Y-121391275D01*
X142580041Y-121976000D01*
X142696350Y-122560725D01*
X143027570Y-123056430D01*
X143311281Y-123246000D01*
X143027570Y-123435570D01*
X142696350Y-123931275D01*
X142580041Y-124516000D01*
X142696350Y-125100725D01*
X143027570Y-125596430D01*
X143311281Y-125786000D01*
X143027570Y-125975570D01*
X142696350Y-126471275D01*
X142580041Y-127056000D01*
X142696350Y-127640725D01*
X143027570Y-128136430D01*
X143311281Y-128326000D01*
X143027570Y-128515570D01*
X142696350Y-129011275D01*
X142580041Y-129596000D01*
X142696350Y-130180725D01*
X143027570Y-130676430D01*
X143311281Y-130866000D01*
X143027570Y-131055570D01*
X142696350Y-131551275D01*
X142580041Y-132136000D01*
X142696350Y-132720725D01*
X143027570Y-133216430D01*
X143311281Y-133406000D01*
X143027570Y-133595570D01*
X142696350Y-134091275D01*
X142580041Y-134676000D01*
X142666369Y-135110000D01*
X142642290Y-135110000D01*
X142609635Y-135077345D01*
X142265983Y-134935000D01*
X141894017Y-134935000D01*
X141550365Y-135077345D01*
X141287345Y-135340365D01*
X141145000Y-135684017D01*
X141145000Y-136055983D01*
X141287345Y-136399635D01*
X141437710Y-136550000D01*
X141301345Y-136686365D01*
X141159000Y-137030017D01*
X141159000Y-137401983D01*
X141301345Y-137745635D01*
X141451710Y-137896000D01*
X141307345Y-138040365D01*
X141165000Y-138384017D01*
X141165000Y-138755983D01*
X141307345Y-139099635D01*
X141520752Y-139313042D01*
X141510365Y-139317345D01*
X141247345Y-139580365D01*
X141105000Y-139924017D01*
X141105000Y-140295983D01*
X141247345Y-140639635D01*
X141510365Y-140902655D01*
X141854017Y-141045000D01*
X141900199Y-141045000D01*
X142284273Y-141429076D01*
X142326672Y-141492530D01*
X142390125Y-141534928D01*
X142390127Y-141534930D01*
X142515503Y-141618703D01*
X142578064Y-141660505D01*
X142733257Y-141691375D01*
X142597752Y-142064030D01*
X142623942Y-142659635D01*
X142801484Y-143088259D01*
X143054195Y-143170200D01*
X143928395Y-142296000D01*
X143914253Y-142281858D01*
X144093858Y-142102253D01*
X144108000Y-142116395D01*
X144122143Y-142102253D01*
X144301748Y-142281858D01*
X144287605Y-142296000D01*
X145161805Y-143170200D01*
X145398510Y-143093449D01*
X145441179Y-143184490D01*
X145873053Y-143578688D01*
X146288974Y-143750958D01*
X146521000Y-143629817D01*
X146521000Y-142423000D01*
X146775000Y-142423000D01*
X146775000Y-143629817D01*
X147007026Y-143750958D01*
X147422947Y-143578688D01*
X147854821Y-143184490D01*
X148102968Y-142655027D01*
X147982469Y-142423000D01*
X146775000Y-142423000D01*
X146521000Y-142423000D01*
X146501000Y-142423000D01*
X146501000Y-142169000D01*
X146521000Y-142169000D01*
X146521000Y-142149000D01*
X146775000Y-142149000D01*
X146775000Y-142169000D01*
X147982469Y-142169000D01*
X148102968Y-141936973D01*
X147854821Y-141407510D01*
X147440174Y-141029037D01*
X147728430Y-140836430D01*
X148059650Y-140340725D01*
X148175959Y-139756000D01*
X148059650Y-139171275D01*
X147728430Y-138675570D01*
X147444719Y-138486000D01*
X147728430Y-138296430D01*
X148059650Y-137800725D01*
X148175959Y-137216000D01*
X148059650Y-136631275D01*
X147728430Y-136135570D01*
X147444719Y-135946000D01*
X147728430Y-135756430D01*
X148059650Y-135260725D01*
X148175959Y-134676000D01*
X148059650Y-134091275D01*
X147728430Y-133595570D01*
X147444719Y-133406000D01*
X147728430Y-133216430D01*
X148059650Y-132720725D01*
X148175959Y-132136000D01*
X148059650Y-131551275D01*
X147728430Y-131055570D01*
X147444719Y-130866000D01*
X147728430Y-130676430D01*
X148059650Y-130180725D01*
X148175959Y-129596000D01*
X148059650Y-129011275D01*
X147728430Y-128515570D01*
X147444719Y-128326000D01*
X147728430Y-128136430D01*
X148059650Y-127640725D01*
X148175959Y-127056000D01*
X148059650Y-126471275D01*
X147728430Y-125975570D01*
X147444719Y-125786000D01*
X147728430Y-125596430D01*
X148059650Y-125100725D01*
X148175959Y-124516000D01*
X148059650Y-123931275D01*
X147728430Y-123435570D01*
X147444719Y-123246000D01*
X147728430Y-123056430D01*
X148059650Y-122560725D01*
X148175959Y-121976000D01*
X148059650Y-121391275D01*
X147728430Y-120895570D01*
X147444719Y-120706000D01*
X147728430Y-120516430D01*
X148059650Y-120020725D01*
X148175959Y-119436000D01*
X148059650Y-118851275D01*
X147728430Y-118355570D01*
X147444719Y-118166000D01*
X147728430Y-117976430D01*
X148059650Y-117480725D01*
X148175959Y-116896000D01*
X148059650Y-116311275D01*
X147728430Y-115815570D01*
X147444719Y-115626000D01*
X147728430Y-115436430D01*
X148059650Y-114940725D01*
X148175959Y-114356000D01*
X148059650Y-113771275D01*
X147728430Y-113275570D01*
X147444719Y-113086000D01*
X147728430Y-112896430D01*
X148059650Y-112400725D01*
X148175959Y-111816000D01*
X148059650Y-111231275D01*
X147728430Y-110735570D01*
X147444719Y-110546000D01*
X147728430Y-110356430D01*
X148059650Y-109860725D01*
X148175959Y-109276000D01*
X148059650Y-108691275D01*
X147728430Y-108195570D01*
X147444719Y-108006000D01*
X147728430Y-107816430D01*
X148059650Y-107320725D01*
X148175959Y-106736000D01*
X148059650Y-106151275D01*
X147728430Y-105655570D01*
X147444719Y-105466000D01*
X147728430Y-105276430D01*
X148059650Y-104780725D01*
X148175959Y-104196000D01*
X148059650Y-103611275D01*
X147728430Y-103115570D01*
X147444719Y-102926000D01*
X147728430Y-102736430D01*
X148059650Y-102240725D01*
X148175959Y-101656000D01*
X148059650Y-101071275D01*
X147728430Y-100575570D01*
X147444719Y-100386000D01*
X147728430Y-100196430D01*
X148059650Y-99700725D01*
X148175959Y-99116000D01*
X148173985Y-99106076D01*
X148478000Y-99410091D01*
X148478001Y-109206071D01*
X148464091Y-109276000D01*
X148519196Y-109553028D01*
X148676120Y-109787881D01*
X148735402Y-109827492D01*
X151018000Y-112110091D01*
X151018001Y-145811908D01*
X149315000Y-147514910D01*
X149315000Y-146845501D01*
X148908974Y-145865266D01*
X148158734Y-145115026D01*
X147178499Y-144709000D01*
X146117501Y-144709000D01*
X145137266Y-145115026D01*
X144387026Y-145865266D01*
X143981000Y-146845501D01*
X143981000Y-147906499D01*
X144387026Y-148886734D01*
X144706292Y-149206000D01*
X66039708Y-149206000D01*
X66358974Y-148886734D01*
X66765000Y-147906499D01*
X66765000Y-147076003D01*
X76569400Y-147076003D01*
X76569400Y-147675998D01*
X76656350Y-148113125D01*
X76987570Y-148608830D01*
X77483276Y-148940050D01*
X78068000Y-149056359D01*
X78652725Y-148940050D01*
X79148430Y-148608830D01*
X79338000Y-148325119D01*
X79527570Y-148608830D01*
X80023276Y-148940050D01*
X80608000Y-149056359D01*
X81192725Y-148940050D01*
X81688430Y-148608830D01*
X81878000Y-148325119D01*
X82067570Y-148608830D01*
X82563276Y-148940050D01*
X83148000Y-149056359D01*
X83732725Y-148940050D01*
X84228430Y-148608830D01*
X84418000Y-148325119D01*
X84607570Y-148608830D01*
X85103276Y-148940050D01*
X85688000Y-149056359D01*
X86272725Y-148940050D01*
X86768430Y-148608830D01*
X86958000Y-148325119D01*
X87147570Y-148608830D01*
X87643276Y-148940050D01*
X88228000Y-149056359D01*
X88812725Y-148940050D01*
X89308430Y-148608830D01*
X89501909Y-148319267D01*
X89865964Y-148726732D01*
X90393209Y-148980709D01*
X90408974Y-148983358D01*
X90641000Y-148862217D01*
X90641000Y-147503000D01*
X90895000Y-147503000D01*
X90895000Y-148862217D01*
X91127026Y-148983358D01*
X91142791Y-148980709D01*
X91670036Y-148726732D01*
X92038000Y-148314892D01*
X92405964Y-148726732D01*
X92933209Y-148980709D01*
X92948974Y-148983358D01*
X93181000Y-148862217D01*
X93181000Y-147503000D01*
X90895000Y-147503000D01*
X90641000Y-147503000D01*
X90621000Y-147503000D01*
X90621000Y-147249000D01*
X90641000Y-147249000D01*
X90641000Y-145889783D01*
X90895000Y-145889783D01*
X90895000Y-147249000D01*
X93181000Y-147249000D01*
X93181000Y-145889783D01*
X93435000Y-145889783D01*
X93435000Y-147249000D01*
X93455000Y-147249000D01*
X93455000Y-147503000D01*
X93435000Y-147503000D01*
X93435000Y-148862217D01*
X93667026Y-148983358D01*
X93682791Y-148980709D01*
X94210036Y-148726732D01*
X94574090Y-148319268D01*
X94767570Y-148608830D01*
X95263276Y-148940050D01*
X95848000Y-149056359D01*
X96432725Y-148940050D01*
X96928430Y-148608830D01*
X97259650Y-148113124D01*
X97346600Y-147675997D01*
X97346600Y-147076003D01*
X99429400Y-147076003D01*
X99429400Y-147675998D01*
X99516350Y-148113125D01*
X99847570Y-148608830D01*
X100343276Y-148940050D01*
X100928000Y-149056359D01*
X101512725Y-148940050D01*
X102008430Y-148608830D01*
X102198000Y-148325119D01*
X102387570Y-148608830D01*
X102883276Y-148940050D01*
X103468000Y-149056359D01*
X104052725Y-148940050D01*
X104548430Y-148608830D01*
X104738000Y-148325119D01*
X104927570Y-148608830D01*
X105423276Y-148940050D01*
X106008000Y-149056359D01*
X106592725Y-148940050D01*
X107088430Y-148608830D01*
X107278000Y-148325119D01*
X107467570Y-148608830D01*
X107963276Y-148940050D01*
X108548000Y-149056359D01*
X109132725Y-148940050D01*
X109628430Y-148608830D01*
X109818000Y-148325119D01*
X110007570Y-148608830D01*
X110503276Y-148940050D01*
X111088000Y-149056359D01*
X111672725Y-148940050D01*
X112168430Y-148608830D01*
X112358000Y-148325119D01*
X112547570Y-148608830D01*
X113043276Y-148940050D01*
X113628000Y-149056359D01*
X114212725Y-148940050D01*
X114708430Y-148608830D01*
X114898000Y-148325119D01*
X115087570Y-148608830D01*
X115583276Y-148940050D01*
X116168000Y-149056359D01*
X116752725Y-148940050D01*
X117248430Y-148608830D01*
X117438000Y-148325119D01*
X117627570Y-148608830D01*
X118123276Y-148940050D01*
X118708000Y-149056359D01*
X119292725Y-148940050D01*
X119788430Y-148608830D01*
X120119650Y-148113124D01*
X120206600Y-147675997D01*
X120206600Y-147076003D01*
X122289400Y-147076003D01*
X122289400Y-147675998D01*
X122376350Y-148113125D01*
X122707570Y-148608830D01*
X123203276Y-148940050D01*
X123788000Y-149056359D01*
X124372725Y-148940050D01*
X124868430Y-148608830D01*
X125058000Y-148325119D01*
X125247570Y-148608830D01*
X125743276Y-148940050D01*
X126328000Y-149056359D01*
X126912725Y-148940050D01*
X127408430Y-148608830D01*
X127598000Y-148325119D01*
X127787570Y-148608830D01*
X128283276Y-148940050D01*
X128868000Y-149056359D01*
X129452725Y-148940050D01*
X129948430Y-148608830D01*
X130138000Y-148325119D01*
X130327570Y-148608830D01*
X130823276Y-148940050D01*
X131408000Y-149056359D01*
X131992725Y-148940050D01*
X132488430Y-148608830D01*
X132678000Y-148325119D01*
X132867570Y-148608830D01*
X133363276Y-148940050D01*
X133948000Y-149056359D01*
X134532725Y-148940050D01*
X135028430Y-148608830D01*
X135218000Y-148325119D01*
X135407570Y-148608830D01*
X135903276Y-148940050D01*
X136488000Y-149056359D01*
X137072725Y-148940050D01*
X137568430Y-148608830D01*
X137758000Y-148325119D01*
X137947570Y-148608830D01*
X138443276Y-148940050D01*
X139028000Y-149056359D01*
X139612725Y-148940050D01*
X140108430Y-148608830D01*
X140298000Y-148325119D01*
X140487570Y-148608830D01*
X140983276Y-148940050D01*
X141568000Y-149056359D01*
X142152725Y-148940050D01*
X142648430Y-148608830D01*
X142979650Y-148113124D01*
X143066600Y-147675997D01*
X143066600Y-147076002D01*
X142979650Y-146638875D01*
X142648430Y-146143170D01*
X142152724Y-145811950D01*
X141568000Y-145695641D01*
X140983275Y-145811950D01*
X140487570Y-146143170D01*
X140298000Y-146426881D01*
X140108430Y-146143170D01*
X139612724Y-145811950D01*
X139028000Y-145695641D01*
X138443275Y-145811950D01*
X137947570Y-146143170D01*
X137758000Y-146426881D01*
X137568430Y-146143170D01*
X137072724Y-145811950D01*
X136488000Y-145695641D01*
X135903275Y-145811950D01*
X135407570Y-146143170D01*
X135218000Y-146426881D01*
X135028430Y-146143170D01*
X134532724Y-145811950D01*
X133948000Y-145695641D01*
X133363275Y-145811950D01*
X132867570Y-146143170D01*
X132678000Y-146426881D01*
X132488430Y-146143170D01*
X131992724Y-145811950D01*
X131408000Y-145695641D01*
X130823275Y-145811950D01*
X130327570Y-146143170D01*
X130138000Y-146426881D01*
X129948430Y-146143170D01*
X129452724Y-145811950D01*
X128868000Y-145695641D01*
X128283275Y-145811950D01*
X127787570Y-146143170D01*
X127598000Y-146426881D01*
X127408430Y-146143170D01*
X126912724Y-145811950D01*
X126328000Y-145695641D01*
X125743275Y-145811950D01*
X125247570Y-146143170D01*
X125058000Y-146426881D01*
X124868430Y-146143170D01*
X124372724Y-145811950D01*
X123788000Y-145695641D01*
X123203275Y-145811950D01*
X122707570Y-146143170D01*
X122376350Y-146638876D01*
X122289400Y-147076003D01*
X120206600Y-147076003D01*
X120206600Y-147076002D01*
X120119650Y-146638875D01*
X119788430Y-146143170D01*
X119292724Y-145811950D01*
X118708000Y-145695641D01*
X118123275Y-145811950D01*
X117627570Y-146143170D01*
X117438000Y-146426881D01*
X117248430Y-146143170D01*
X116752724Y-145811950D01*
X116168000Y-145695641D01*
X115583275Y-145811950D01*
X115087570Y-146143170D01*
X114898000Y-146426881D01*
X114708430Y-146143170D01*
X114212724Y-145811950D01*
X113628000Y-145695641D01*
X113043275Y-145811950D01*
X112547570Y-146143170D01*
X112358000Y-146426881D01*
X112168430Y-146143170D01*
X111672724Y-145811950D01*
X111088000Y-145695641D01*
X110503275Y-145811950D01*
X110007570Y-146143170D01*
X109818000Y-146426881D01*
X109628430Y-146143170D01*
X109132724Y-145811950D01*
X108548000Y-145695641D01*
X107963275Y-145811950D01*
X107467570Y-146143170D01*
X107278000Y-146426881D01*
X107088430Y-146143170D01*
X106592724Y-145811950D01*
X106008000Y-145695641D01*
X105423275Y-145811950D01*
X104927570Y-146143170D01*
X104738000Y-146426881D01*
X104548430Y-146143170D01*
X104052724Y-145811950D01*
X103468000Y-145695641D01*
X102883275Y-145811950D01*
X102387570Y-146143170D01*
X102198000Y-146426881D01*
X102008430Y-146143170D01*
X101512724Y-145811950D01*
X100928000Y-145695641D01*
X100343275Y-145811950D01*
X99847570Y-146143170D01*
X99516350Y-146638876D01*
X99429400Y-147076003D01*
X97346600Y-147076003D01*
X97346600Y-147076002D01*
X97259650Y-146638875D01*
X96928430Y-146143170D01*
X96432724Y-145811950D01*
X95848000Y-145695641D01*
X95263275Y-145811950D01*
X94767570Y-146143170D01*
X94574091Y-146432733D01*
X94210036Y-146025268D01*
X93682791Y-145771291D01*
X93667026Y-145768642D01*
X93435000Y-145889783D01*
X93181000Y-145889783D01*
X92948974Y-145768642D01*
X92933209Y-145771291D01*
X92405964Y-146025268D01*
X92038000Y-146437108D01*
X91670036Y-146025268D01*
X91142791Y-145771291D01*
X91127026Y-145768642D01*
X90895000Y-145889783D01*
X90641000Y-145889783D01*
X90408974Y-145768642D01*
X90393209Y-145771291D01*
X89865964Y-146025268D01*
X89501910Y-146432732D01*
X89308430Y-146143170D01*
X88812724Y-145811950D01*
X88228000Y-145695641D01*
X87643275Y-145811950D01*
X87147570Y-146143170D01*
X86958000Y-146426881D01*
X86768430Y-146143170D01*
X86272724Y-145811950D01*
X85688000Y-145695641D01*
X85103275Y-145811950D01*
X84607570Y-146143170D01*
X84418000Y-146426881D01*
X84228430Y-146143170D01*
X83732724Y-145811950D01*
X83148000Y-145695641D01*
X82563275Y-145811950D01*
X82067570Y-146143170D01*
X81878000Y-146426881D01*
X81688430Y-146143170D01*
X81192724Y-145811950D01*
X80608000Y-145695641D01*
X80023275Y-145811950D01*
X79527570Y-146143170D01*
X79338000Y-146426881D01*
X79148430Y-146143170D01*
X78652724Y-145811950D01*
X78068000Y-145695641D01*
X77483275Y-145811950D01*
X76987570Y-146143170D01*
X76656350Y-146638876D01*
X76569400Y-147076003D01*
X66765000Y-147076003D01*
X66765000Y-146845501D01*
X66358974Y-145865266D01*
X65608734Y-145115026D01*
X64628499Y-144709000D01*
X63567501Y-144709000D01*
X62587266Y-145115026D01*
X61837026Y-145865266D01*
X61431000Y-146845501D01*
X61431000Y-147906499D01*
X61837026Y-148886734D01*
X62156292Y-149206000D01*
X50838000Y-149206000D01*
X50838000Y-141765501D01*
X113501000Y-141765501D01*
X113501000Y-142826499D01*
X113907026Y-143806734D01*
X114657266Y-144556974D01*
X115637501Y-144963000D01*
X116698499Y-144963000D01*
X117678734Y-144556974D01*
X118428974Y-143806734D01*
X118618239Y-143349805D01*
X143233800Y-143349805D01*
X143315741Y-143602516D01*
X143876030Y-143806248D01*
X144471635Y-143780058D01*
X144900259Y-143602516D01*
X144982200Y-143349805D01*
X144108000Y-142475605D01*
X143233800Y-143349805D01*
X118618239Y-143349805D01*
X118835000Y-142826499D01*
X118835000Y-141765501D01*
X118428974Y-140785266D01*
X117678734Y-140035026D01*
X116698499Y-139629000D01*
X115637501Y-139629000D01*
X114657266Y-140035026D01*
X113907026Y-140785266D01*
X113501000Y-141765501D01*
X50838000Y-141765501D01*
X50838000Y-138813750D01*
X74135000Y-138813750D01*
X74135000Y-138954309D01*
X74231673Y-139187698D01*
X74410301Y-139366327D01*
X74643690Y-139463000D01*
X74736250Y-139463000D01*
X74895000Y-139304250D01*
X74895000Y-138655000D01*
X75145000Y-138655000D01*
X75145000Y-139304250D01*
X75303750Y-139463000D01*
X75396310Y-139463000D01*
X75629699Y-139366327D01*
X75808327Y-139187698D01*
X75905000Y-138954309D01*
X75905000Y-138850451D01*
X75991673Y-139059698D01*
X76170301Y-139238327D01*
X76403690Y-139335000D01*
X76496250Y-139335000D01*
X76655000Y-139176250D01*
X76655000Y-138527000D01*
X76905000Y-138527000D01*
X76905000Y-139176250D01*
X77063750Y-139335000D01*
X77156310Y-139335000D01*
X77389699Y-139238327D01*
X77568327Y-139059698D01*
X77665000Y-138826309D01*
X77665000Y-138685750D01*
X77508000Y-138528750D01*
X77635000Y-138528750D01*
X77635000Y-138596309D01*
X77731673Y-138829698D01*
X77910301Y-139008327D01*
X78143690Y-139105000D01*
X78284250Y-139105000D01*
X78443000Y-138946250D01*
X78443000Y-138370000D01*
X78697000Y-138370000D01*
X78697000Y-138946250D01*
X78855750Y-139105000D01*
X78996310Y-139105000D01*
X79229699Y-139008327D01*
X79408327Y-138829698D01*
X79505000Y-138596309D01*
X79505000Y-138528750D01*
X79346250Y-138370000D01*
X78697000Y-138370000D01*
X78443000Y-138370000D01*
X77793750Y-138370000D01*
X77635000Y-138528750D01*
X77508000Y-138528750D01*
X77506250Y-138527000D01*
X76905000Y-138527000D01*
X76655000Y-138527000D01*
X76053750Y-138527000D01*
X75895000Y-138685750D01*
X75895000Y-138803750D01*
X75746250Y-138655000D01*
X75145000Y-138655000D01*
X74895000Y-138655000D01*
X74293750Y-138655000D01*
X74135000Y-138813750D01*
X50838000Y-138813750D01*
X50838000Y-134554017D01*
X73175000Y-134554017D01*
X73175000Y-134925983D01*
X73317345Y-135269635D01*
X73580365Y-135532655D01*
X73924017Y-135675000D01*
X73970199Y-135675000D01*
X73995000Y-135699801D01*
X73994999Y-136538152D01*
X73980111Y-136612999D01*
X73994999Y-136687846D01*
X73994999Y-136687850D01*
X74039095Y-136909535D01*
X74136899Y-137055910D01*
X74122560Y-137128000D01*
X74122560Y-137728000D01*
X74171843Y-137975765D01*
X74181299Y-137989916D01*
X74135000Y-138101691D01*
X74135000Y-138242250D01*
X74293750Y-138401000D01*
X74895000Y-138401000D01*
X74895000Y-138381000D01*
X75145000Y-138381000D01*
X75145000Y-138401000D01*
X75746250Y-138401000D01*
X75905000Y-138242250D01*
X75905000Y-138124250D01*
X76053750Y-138273000D01*
X76655000Y-138273000D01*
X76655000Y-138253000D01*
X76905000Y-138253000D01*
X76905000Y-138273000D01*
X77506250Y-138273000D01*
X77665000Y-138114250D01*
X77665000Y-138041250D01*
X77793750Y-138170000D01*
X78031500Y-138170000D01*
X78270000Y-138217440D01*
X78870000Y-138217440D01*
X79108500Y-138170000D01*
X79346250Y-138170000D01*
X79505000Y-138011250D01*
X79505000Y-137943691D01*
X79458701Y-137831916D01*
X79468157Y-137817765D01*
X79517440Y-137570000D01*
X79517440Y-137170000D01*
X79468157Y-136922235D01*
X79327809Y-136712191D01*
X79299835Y-136693499D01*
X79285904Y-136623463D01*
X79117929Y-136372071D01*
X79054473Y-136329671D01*
X77695000Y-134970199D01*
X77695000Y-134954017D01*
X77552655Y-134610365D01*
X77289635Y-134347345D01*
X76945983Y-134205000D01*
X76574017Y-134205000D01*
X76230365Y-134347345D01*
X76050000Y-134527710D01*
X75909635Y-134387345D01*
X75565983Y-134245000D01*
X75194017Y-134245000D01*
X74957569Y-134342940D01*
X74902655Y-134210365D01*
X74639635Y-133947345D01*
X74295983Y-133805000D01*
X73924017Y-133805000D01*
X73580365Y-133947345D01*
X73317345Y-134210365D01*
X73175000Y-134554017D01*
X50838000Y-134554017D01*
X50838000Y-133535750D01*
X101115000Y-133535750D01*
X101115000Y-135176310D01*
X101211673Y-135409699D01*
X101390302Y-135588327D01*
X101623691Y-135685000D01*
X102464250Y-135685000D01*
X102623000Y-135526250D01*
X102623000Y-133377000D01*
X102877000Y-133377000D01*
X102877000Y-135526250D01*
X103035750Y-135685000D01*
X103876309Y-135685000D01*
X104109698Y-135588327D01*
X104288327Y-135409699D01*
X104385000Y-135176310D01*
X104385000Y-133535750D01*
X104226250Y-133377000D01*
X106115000Y-133377000D01*
X106115000Y-134177000D01*
X106288058Y-134793020D01*
X106683683Y-135295922D01*
X107241645Y-135609144D01*
X107369566Y-135640124D01*
X107623000Y-135520777D01*
X107623000Y-133377000D01*
X107877000Y-133377000D01*
X107877000Y-135520777D01*
X108130434Y-135640124D01*
X108258355Y-135609144D01*
X108816317Y-135295922D01*
X109211942Y-134793020D01*
X109385000Y-134177000D01*
X109385000Y-133377000D01*
X111115000Y-133377000D01*
X111115000Y-134177000D01*
X111288058Y-134793020D01*
X111683683Y-135295922D01*
X112241645Y-135609144D01*
X112369566Y-135640124D01*
X112623000Y-135520777D01*
X112623000Y-133377000D01*
X112877000Y-133377000D01*
X112877000Y-135520777D01*
X113130434Y-135640124D01*
X113258355Y-135609144D01*
X113816317Y-135295922D01*
X114211942Y-134793020D01*
X114385000Y-134177000D01*
X114385000Y-133377000D01*
X112877000Y-133377000D01*
X112623000Y-133377000D01*
X111115000Y-133377000D01*
X109385000Y-133377000D01*
X107877000Y-133377000D01*
X107623000Y-133377000D01*
X106115000Y-133377000D01*
X104226250Y-133377000D01*
X102877000Y-133377000D01*
X102623000Y-133377000D01*
X101273750Y-133377000D01*
X101115000Y-133535750D01*
X50838000Y-133535750D01*
X50838000Y-131325750D01*
X60355000Y-131325750D01*
X60355000Y-131466309D01*
X60451673Y-131699698D01*
X60630301Y-131878327D01*
X60863690Y-131975000D01*
X60956250Y-131975000D01*
X61115000Y-131816250D01*
X61115000Y-131167000D01*
X61365000Y-131167000D01*
X61365000Y-131816250D01*
X61523750Y-131975000D01*
X61616310Y-131975000D01*
X61849699Y-131878327D01*
X62028327Y-131699698D01*
X62125000Y-131466309D01*
X62125000Y-131325750D01*
X61966250Y-131167000D01*
X61365000Y-131167000D01*
X61115000Y-131167000D01*
X60513750Y-131167000D01*
X60355000Y-131325750D01*
X50838000Y-131325750D01*
X50838000Y-129640000D01*
X60342560Y-129640000D01*
X60342560Y-130240000D01*
X60391843Y-130487765D01*
X60401299Y-130501916D01*
X60355000Y-130613691D01*
X60355000Y-130754250D01*
X60513750Y-130913000D01*
X61115000Y-130913000D01*
X61115000Y-130893000D01*
X61365000Y-130893000D01*
X61365000Y-130913000D01*
X61966250Y-130913000D01*
X62125000Y-130754250D01*
X62125000Y-130613691D01*
X62078701Y-130501916D01*
X62088157Y-130487765D01*
X62108793Y-130384017D01*
X74075000Y-130384017D01*
X74075000Y-130755983D01*
X74217345Y-131099635D01*
X74480365Y-131362655D01*
X74824017Y-131505000D01*
X75195983Y-131505000D01*
X75539635Y-131362655D01*
X75578600Y-131323690D01*
X101115000Y-131323690D01*
X101115000Y-132964250D01*
X101273750Y-133123000D01*
X102623000Y-133123000D01*
X102623000Y-130973750D01*
X102877000Y-130973750D01*
X102877000Y-133123000D01*
X104226250Y-133123000D01*
X104385000Y-132964250D01*
X104385000Y-132323000D01*
X106115000Y-132323000D01*
X106115000Y-133123000D01*
X107623000Y-133123000D01*
X107623000Y-130979223D01*
X107877000Y-130979223D01*
X107877000Y-133123000D01*
X109385000Y-133123000D01*
X109385000Y-132323000D01*
X111115000Y-132323000D01*
X111115000Y-133123000D01*
X112623000Y-133123000D01*
X112623000Y-130979223D01*
X112877000Y-130979223D01*
X112877000Y-133123000D01*
X114385000Y-133123000D01*
X114385000Y-132323000D01*
X114375440Y-132288970D01*
X116115000Y-132288970D01*
X116115000Y-134211031D01*
X116209865Y-134687945D01*
X116571232Y-135228769D01*
X117112056Y-135590136D01*
X117750000Y-135717031D01*
X118387945Y-135590136D01*
X118928769Y-135228769D01*
X119290136Y-134687945D01*
X119385000Y-134211031D01*
X119385000Y-132288970D01*
X121115000Y-132288970D01*
X121115000Y-134211031D01*
X121209865Y-134687945D01*
X121571232Y-135228769D01*
X122112056Y-135590136D01*
X122750000Y-135717031D01*
X123387945Y-135590136D01*
X123928769Y-135228769D01*
X124290136Y-134687945D01*
X124385000Y-134211031D01*
X124385000Y-132288970D01*
X126115000Y-132288970D01*
X126115000Y-134211031D01*
X126209865Y-134687945D01*
X126571232Y-135228769D01*
X127112056Y-135590136D01*
X127750000Y-135717031D01*
X128387945Y-135590136D01*
X128928769Y-135228769D01*
X129290136Y-134687945D01*
X129385000Y-134211031D01*
X129385000Y-132288970D01*
X131115000Y-132288970D01*
X131115000Y-134211031D01*
X131209865Y-134687945D01*
X131571232Y-135228769D01*
X132112056Y-135590136D01*
X132750000Y-135717031D01*
X133387945Y-135590136D01*
X133928769Y-135228769D01*
X134290136Y-134687945D01*
X134385000Y-134211031D01*
X134385000Y-132288970D01*
X136115000Y-132288970D01*
X136115000Y-134211031D01*
X136209865Y-134687945D01*
X136571232Y-135228769D01*
X137112056Y-135590136D01*
X137750000Y-135717031D01*
X138387945Y-135590136D01*
X138928769Y-135228769D01*
X139290136Y-134687945D01*
X139385000Y-134211031D01*
X139385000Y-132288969D01*
X139290136Y-131812055D01*
X138928769Y-131271231D01*
X138387944Y-130909864D01*
X137750000Y-130782969D01*
X137112055Y-130909864D01*
X136571231Y-131271231D01*
X136209864Y-131812056D01*
X136115000Y-132288970D01*
X134385000Y-132288970D01*
X134385000Y-132288969D01*
X134290136Y-131812055D01*
X133928769Y-131271231D01*
X133387944Y-130909864D01*
X132750000Y-130782969D01*
X132112055Y-130909864D01*
X131571231Y-131271231D01*
X131209864Y-131812056D01*
X131115000Y-132288970D01*
X129385000Y-132288970D01*
X129385000Y-132288969D01*
X129290136Y-131812055D01*
X128928769Y-131271231D01*
X128387944Y-130909864D01*
X127750000Y-130782969D01*
X127112055Y-130909864D01*
X126571231Y-131271231D01*
X126209864Y-131812056D01*
X126115000Y-132288970D01*
X124385000Y-132288970D01*
X124385000Y-132288969D01*
X124290136Y-131812055D01*
X123928769Y-131271231D01*
X123387944Y-130909864D01*
X122750000Y-130782969D01*
X122112055Y-130909864D01*
X121571231Y-131271231D01*
X121209864Y-131812056D01*
X121115000Y-132288970D01*
X119385000Y-132288970D01*
X119385000Y-132288969D01*
X119290136Y-131812055D01*
X118928769Y-131271231D01*
X118387944Y-130909864D01*
X117750000Y-130782969D01*
X117112055Y-130909864D01*
X116571231Y-131271231D01*
X116209864Y-131812056D01*
X116115000Y-132288970D01*
X114375440Y-132288970D01*
X114211942Y-131706980D01*
X113816317Y-131204078D01*
X113258355Y-130890856D01*
X113130434Y-130859876D01*
X112877000Y-130979223D01*
X112623000Y-130979223D01*
X112369566Y-130859876D01*
X112241645Y-130890856D01*
X111683683Y-131204078D01*
X111288058Y-131706980D01*
X111115000Y-132323000D01*
X109385000Y-132323000D01*
X109211942Y-131706980D01*
X108816317Y-131204078D01*
X108258355Y-130890856D01*
X108130434Y-130859876D01*
X107877000Y-130979223D01*
X107623000Y-130979223D01*
X107369566Y-130859876D01*
X107241645Y-130890856D01*
X106683683Y-131204078D01*
X106288058Y-131706980D01*
X106115000Y-132323000D01*
X104385000Y-132323000D01*
X104385000Y-131323690D01*
X104288327Y-131090301D01*
X104109698Y-130911673D01*
X103876309Y-130815000D01*
X103035750Y-130815000D01*
X102877000Y-130973750D01*
X102623000Y-130973750D01*
X102464250Y-130815000D01*
X101623691Y-130815000D01*
X101390302Y-130911673D01*
X101211673Y-131090301D01*
X101115000Y-131323690D01*
X75578600Y-131323690D01*
X75802655Y-131099635D01*
X75945000Y-130755983D01*
X75945000Y-130407290D01*
X76032655Y-130319635D01*
X76175000Y-129975983D01*
X76175000Y-129604017D01*
X76032655Y-129260365D01*
X75769635Y-128997345D01*
X75425983Y-128855000D01*
X75054017Y-128855000D01*
X74710365Y-128997345D01*
X74447345Y-129260365D01*
X74305000Y-129604017D01*
X74305000Y-129952710D01*
X74217345Y-130040365D01*
X74075000Y-130384017D01*
X62108793Y-130384017D01*
X62137440Y-130240000D01*
X62137440Y-129640000D01*
X62088157Y-129392235D01*
X62000000Y-129260300D01*
X62000000Y-128682290D01*
X62072655Y-128609635D01*
X62215000Y-128265983D01*
X62215000Y-127894017D01*
X62072655Y-127550365D01*
X61809635Y-127287345D01*
X61465983Y-127145000D01*
X61094017Y-127145000D01*
X60750365Y-127287345D01*
X60487345Y-127550365D01*
X60345000Y-127894017D01*
X60345000Y-128265983D01*
X60480001Y-128591904D01*
X60480000Y-129260299D01*
X60391843Y-129392235D01*
X60342560Y-129640000D01*
X50838000Y-129640000D01*
X50838000Y-122884017D01*
X57815000Y-122884017D01*
X57815000Y-123255983D01*
X57957345Y-123599635D01*
X58220365Y-123862655D01*
X58564017Y-124005000D01*
X58935983Y-124005000D01*
X59279635Y-123862655D01*
X59542655Y-123599635D01*
X59685000Y-123255983D01*
X59685000Y-122884017D01*
X59542655Y-122540365D01*
X59279635Y-122277345D01*
X58935983Y-122135000D01*
X58564017Y-122135000D01*
X58220365Y-122277345D01*
X57957345Y-122540365D01*
X57815000Y-122884017D01*
X50838000Y-122884017D01*
X50838000Y-116989126D01*
X51541370Y-116989126D01*
X51541370Y-117521814D01*
X51745220Y-118013953D01*
X52121887Y-118390620D01*
X52614026Y-118594470D01*
X53146714Y-118594470D01*
X53638853Y-118390620D01*
X54015520Y-118013953D01*
X54184289Y-117606507D01*
X54321829Y-117938559D01*
X54964610Y-118581340D01*
X55804444Y-118929210D01*
X56713474Y-118929210D01*
X57553308Y-118581340D01*
X57581760Y-118552888D01*
X57581760Y-119147771D01*
X57844710Y-119782590D01*
X58330580Y-120268460D01*
X58965399Y-120531410D01*
X59652521Y-120531410D01*
X59676043Y-120521667D01*
X59547345Y-120650365D01*
X59405000Y-120994017D01*
X59405000Y-121365983D01*
X59547345Y-121709635D01*
X59810365Y-121972655D01*
X60154017Y-122115000D01*
X60525983Y-122115000D01*
X60869635Y-121972655D01*
X61132655Y-121709635D01*
X61215346Y-121510000D01*
X71482560Y-121510000D01*
X71482560Y-121910000D01*
X71531843Y-122157765D01*
X71672191Y-122367809D01*
X71882235Y-122508157D01*
X72130000Y-122557440D01*
X72202639Y-122557440D01*
X72595000Y-122949802D01*
X72595000Y-122985983D01*
X72737345Y-123329635D01*
X73000365Y-123592655D01*
X73344017Y-123735000D01*
X73715983Y-123735000D01*
X74059635Y-123592655D01*
X74147336Y-123504954D01*
X74244017Y-123545000D01*
X74615983Y-123545000D01*
X74959635Y-123402655D01*
X74968133Y-123394157D01*
X75284017Y-123525000D01*
X75655983Y-123525000D01*
X75681953Y-123514243D01*
X75930365Y-123762655D01*
X76274017Y-123905000D01*
X76472710Y-123905000D01*
X76730365Y-124162655D01*
X77074017Y-124305000D01*
X77194311Y-124305000D01*
X77140365Y-124327345D01*
X76877345Y-124590365D01*
X76735000Y-124934017D01*
X76735000Y-125305983D01*
X76877345Y-125649635D01*
X77140365Y-125912655D01*
X77484017Y-126055000D01*
X77855983Y-126055000D01*
X78199635Y-125912655D01*
X78462655Y-125649635D01*
X78605000Y-125305983D01*
X78605000Y-124934017D01*
X78555295Y-124814017D01*
X84565000Y-124814017D01*
X84565000Y-125185983D01*
X84695070Y-125500000D01*
X84565000Y-125814017D01*
X84565000Y-126185983D01*
X84695070Y-126500000D01*
X84565000Y-126814017D01*
X84565000Y-127185983D01*
X84695070Y-127500000D01*
X84565000Y-127814017D01*
X84565000Y-128185983D01*
X84707345Y-128529635D01*
X84970365Y-128792655D01*
X85314017Y-128935000D01*
X85685983Y-128935000D01*
X86029635Y-128792655D01*
X86292655Y-128529635D01*
X86435000Y-128185983D01*
X86435000Y-127814017D01*
X86304930Y-127500000D01*
X86435000Y-127185983D01*
X86435000Y-126814017D01*
X86304930Y-126500000D01*
X86435000Y-126185983D01*
X86435000Y-125814017D01*
X86424645Y-125789017D01*
X134565000Y-125789017D01*
X134565000Y-126160983D01*
X134707345Y-126504635D01*
X134970365Y-126767655D01*
X135314017Y-126910000D01*
X135343432Y-126910000D01*
X135352071Y-126922929D01*
X135603463Y-127090904D01*
X135825148Y-127135000D01*
X135825152Y-127135000D01*
X135900000Y-127149888D01*
X135974848Y-127135000D01*
X139112710Y-127135000D01*
X139145365Y-127167655D01*
X139489017Y-127310000D01*
X139860983Y-127310000D01*
X140204635Y-127167655D01*
X140467655Y-126904635D01*
X140610000Y-126560983D01*
X140610000Y-126189017D01*
X140467655Y-125845365D01*
X140204635Y-125582345D01*
X139860983Y-125440000D01*
X139489017Y-125440000D01*
X139145365Y-125582345D01*
X139112710Y-125615000D01*
X136362920Y-125615000D01*
X136292655Y-125445365D01*
X136029635Y-125182345D01*
X135685983Y-125040000D01*
X135314017Y-125040000D01*
X134970365Y-125182345D01*
X134707345Y-125445365D01*
X134565000Y-125789017D01*
X86424645Y-125789017D01*
X86304930Y-125500000D01*
X86435000Y-125185983D01*
X86435000Y-124814017D01*
X86292655Y-124470365D01*
X86029635Y-124207345D01*
X85685983Y-124065000D01*
X85314017Y-124065000D01*
X84970365Y-124207345D01*
X84707345Y-124470365D01*
X84565000Y-124814017D01*
X78555295Y-124814017D01*
X78462655Y-124590365D01*
X78199635Y-124327345D01*
X77855983Y-124185000D01*
X77735689Y-124185000D01*
X77789635Y-124162655D01*
X78052655Y-123899635D01*
X78195000Y-123555983D01*
X78195000Y-123184017D01*
X78052655Y-122840365D01*
X78026307Y-122814017D01*
X118195000Y-122814017D01*
X118195000Y-123185983D01*
X118337345Y-123529635D01*
X118600365Y-123792655D01*
X118944017Y-123935000D01*
X119315983Y-123935000D01*
X119659635Y-123792655D01*
X119692290Y-123760000D01*
X124185199Y-123760000D01*
X124865000Y-124439802D01*
X124865000Y-124485983D01*
X125007345Y-124829635D01*
X125270365Y-125092655D01*
X125614017Y-125235000D01*
X125985983Y-125235000D01*
X126329635Y-125092655D01*
X126592655Y-124829635D01*
X126735000Y-124485983D01*
X126735000Y-124114017D01*
X126592655Y-123770365D01*
X126329635Y-123507345D01*
X125985983Y-123365000D01*
X125939802Y-123365000D01*
X125090331Y-122515530D01*
X125047929Y-122452071D01*
X124796537Y-122284096D01*
X124574852Y-122240000D01*
X124574847Y-122240000D01*
X124500000Y-122225112D01*
X124425153Y-122240000D01*
X120359125Y-122240000D01*
X120308852Y-122230000D01*
X119682290Y-122230000D01*
X119659635Y-122207345D01*
X119315983Y-122065000D01*
X118944017Y-122065000D01*
X118600365Y-122207345D01*
X118337345Y-122470365D01*
X118195000Y-122814017D01*
X78026307Y-122814017D01*
X78020000Y-122807710D01*
X78020000Y-122516862D01*
X78063765Y-122508157D01*
X78273809Y-122367809D01*
X78414157Y-122157765D01*
X78463440Y-121910000D01*
X78463440Y-121510000D01*
X78414157Y-121262235D01*
X78404701Y-121248084D01*
X78451000Y-121136309D01*
X78451000Y-121068750D01*
X78292250Y-120910000D01*
X78054500Y-120910000D01*
X77816000Y-120862560D01*
X77216000Y-120862560D01*
X76977500Y-120910000D01*
X76784500Y-120910000D01*
X76546000Y-120862560D01*
X75946000Y-120862560D01*
X75707500Y-120910000D01*
X75528500Y-120910000D01*
X75290000Y-120862560D01*
X74690000Y-120862560D01*
X74451500Y-120910000D01*
X74258500Y-120910000D01*
X74020000Y-120862560D01*
X73420000Y-120862560D01*
X73181500Y-120910000D01*
X72968500Y-120910000D01*
X72730000Y-120862560D01*
X72130000Y-120862560D01*
X71891500Y-120910000D01*
X71653750Y-120910000D01*
X71495000Y-121068750D01*
X71495000Y-121136309D01*
X71541299Y-121248084D01*
X71531843Y-121262235D01*
X71482560Y-121510000D01*
X61215346Y-121510000D01*
X61275000Y-121365983D01*
X61275000Y-120994017D01*
X61132655Y-120650365D01*
X60965981Y-120483691D01*
X71495000Y-120483691D01*
X71495000Y-120551250D01*
X71653750Y-120710000D01*
X72303000Y-120710000D01*
X72303000Y-120133750D01*
X72557000Y-120133750D01*
X72557000Y-120710000D01*
X73593000Y-120710000D01*
X73593000Y-120133750D01*
X73847000Y-120133750D01*
X73847000Y-120710000D01*
X74863000Y-120710000D01*
X74863000Y-120133750D01*
X75117000Y-120133750D01*
X75117000Y-120710000D01*
X76119000Y-120710000D01*
X76119000Y-120133750D01*
X76373000Y-120133750D01*
X76373000Y-120710000D01*
X77389000Y-120710000D01*
X77389000Y-120133750D01*
X77643000Y-120133750D01*
X77643000Y-120710000D01*
X78292250Y-120710000D01*
X78451000Y-120551250D01*
X78451000Y-120483691D01*
X78354327Y-120250302D01*
X78175699Y-120071673D01*
X78088974Y-120035750D01*
X91215000Y-120035750D01*
X91215000Y-121276309D01*
X91311673Y-121509698D01*
X91490301Y-121688327D01*
X91723690Y-121785000D01*
X92964250Y-121785000D01*
X93123000Y-121626250D01*
X93123000Y-119877000D01*
X93377000Y-119877000D01*
X93377000Y-121626250D01*
X93535750Y-121785000D01*
X94776310Y-121785000D01*
X95009699Y-121688327D01*
X95188327Y-121509698D01*
X95285000Y-121276309D01*
X95285000Y-120035750D01*
X95126250Y-119877000D01*
X93377000Y-119877000D01*
X93123000Y-119877000D01*
X91373750Y-119877000D01*
X91215000Y-120035750D01*
X78088974Y-120035750D01*
X77942310Y-119975000D01*
X77801750Y-119975000D01*
X77643000Y-120133750D01*
X77389000Y-120133750D01*
X77230250Y-119975000D01*
X77089690Y-119975000D01*
X76881000Y-120061442D01*
X76672310Y-119975000D01*
X76531750Y-119975000D01*
X76373000Y-120133750D01*
X76119000Y-120133750D01*
X75960250Y-119975000D01*
X75819690Y-119975000D01*
X75618000Y-120058543D01*
X75416310Y-119975000D01*
X75275750Y-119975000D01*
X75117000Y-120133750D01*
X74863000Y-120133750D01*
X74704250Y-119975000D01*
X74563690Y-119975000D01*
X74355000Y-120061442D01*
X74146310Y-119975000D01*
X74005750Y-119975000D01*
X73847000Y-120133750D01*
X73593000Y-120133750D01*
X73434250Y-119975000D01*
X73293690Y-119975000D01*
X73075000Y-120065584D01*
X72856310Y-119975000D01*
X72715750Y-119975000D01*
X72557000Y-120133750D01*
X72303000Y-120133750D01*
X72144250Y-119975000D01*
X72003690Y-119975000D01*
X71770301Y-120071673D01*
X71591673Y-120250302D01*
X71495000Y-120483691D01*
X60965981Y-120483691D01*
X60869635Y-120387345D01*
X60525983Y-120245000D01*
X60310800Y-120245000D01*
X60773210Y-119782590D01*
X61036160Y-119147771D01*
X61036160Y-118460649D01*
X60867728Y-118054017D01*
X63045000Y-118054017D01*
X63045000Y-118425983D01*
X63187345Y-118769635D01*
X63450365Y-119032655D01*
X63794017Y-119175000D01*
X64165983Y-119175000D01*
X64509635Y-119032655D01*
X64715000Y-118827290D01*
X64920365Y-119032655D01*
X65264017Y-119175000D01*
X65635983Y-119175000D01*
X65979635Y-119032655D01*
X66242655Y-118769635D01*
X66385000Y-118425983D01*
X66385000Y-118223691D01*
X91215000Y-118223691D01*
X91215000Y-119464250D01*
X91373750Y-119623000D01*
X93123000Y-119623000D01*
X93123000Y-117873750D01*
X93377000Y-117873750D01*
X93377000Y-119623000D01*
X95126250Y-119623000D01*
X95285000Y-119464250D01*
X95285000Y-119345213D01*
X96715000Y-119345213D01*
X96715000Y-120154787D01*
X97024810Y-120902735D01*
X97597265Y-121475190D01*
X98345213Y-121785000D01*
X99154787Y-121785000D01*
X99902735Y-121475190D01*
X100475190Y-120902735D01*
X100785000Y-120154787D01*
X100785000Y-119345213D01*
X100475190Y-118597265D01*
X99902735Y-118024810D01*
X99154787Y-117715000D01*
X98345213Y-117715000D01*
X97597265Y-118024810D01*
X97024810Y-118597265D01*
X96715000Y-119345213D01*
X95285000Y-119345213D01*
X95285000Y-118223691D01*
X95188327Y-117990302D01*
X95009699Y-117811673D01*
X94776310Y-117715000D01*
X93535750Y-117715000D01*
X93377000Y-117873750D01*
X93123000Y-117873750D01*
X92964250Y-117715000D01*
X91723690Y-117715000D01*
X91490301Y-117811673D01*
X91311673Y-117990302D01*
X91215000Y-118223691D01*
X66385000Y-118223691D01*
X66385000Y-118054017D01*
X66242655Y-117710365D01*
X65979635Y-117447345D01*
X65635983Y-117305000D01*
X65264017Y-117305000D01*
X64920365Y-117447345D01*
X64715000Y-117652710D01*
X64509635Y-117447345D01*
X64165983Y-117305000D01*
X63794017Y-117305000D01*
X63450365Y-117447345D01*
X63187345Y-117710365D01*
X63045000Y-118054017D01*
X60867728Y-118054017D01*
X60773210Y-117825830D01*
X60287340Y-117339960D01*
X59652521Y-117077010D01*
X58965399Y-117077010D01*
X58467534Y-117283232D01*
X58543959Y-117098725D01*
X58543959Y-116189695D01*
X58196089Y-115349861D01*
X57553308Y-114707080D01*
X56713474Y-114359210D01*
X55804444Y-114359210D01*
X54964610Y-114707080D01*
X54321829Y-115349861D01*
X53973959Y-116189695D01*
X53973959Y-116455426D01*
X53638853Y-116120320D01*
X53146714Y-115916470D01*
X52614026Y-115916470D01*
X52121887Y-116120320D01*
X51745220Y-116496987D01*
X51541370Y-116989126D01*
X50838000Y-116989126D01*
X50838000Y-115946364D01*
X51094526Y-116052620D01*
X51627214Y-116052620D01*
X52119353Y-115848770D01*
X52496020Y-115472103D01*
X52699870Y-114979964D01*
X52699870Y-114447276D01*
X52496020Y-113955137D01*
X52119353Y-113578470D01*
X51627214Y-113374620D01*
X51094526Y-113374620D01*
X50838000Y-113480876D01*
X50838000Y-106877276D01*
X51541870Y-106877276D01*
X51541870Y-107409964D01*
X51745720Y-107902103D01*
X52122387Y-108278770D01*
X52614526Y-108482620D01*
X53147214Y-108482620D01*
X53639353Y-108278770D01*
X54016020Y-107902103D01*
X54219870Y-107409964D01*
X54219870Y-106877276D01*
X54016020Y-106385137D01*
X53639353Y-106008470D01*
X53147214Y-105804620D01*
X52614526Y-105804620D01*
X52122387Y-106008470D01*
X51745720Y-106385137D01*
X51541870Y-106877276D01*
X50838000Y-106877276D01*
X50838000Y-105838421D01*
X51094026Y-105944470D01*
X51626714Y-105944470D01*
X52118853Y-105740620D01*
X52495520Y-105363953D01*
X52699370Y-104871814D01*
X52699370Y-104759695D01*
X53973959Y-104759695D01*
X53973959Y-105668725D01*
X54321829Y-106508559D01*
X54964610Y-107151340D01*
X55804444Y-107499210D01*
X56713474Y-107499210D01*
X57553308Y-107151340D01*
X58196089Y-106508559D01*
X58312048Y-106228608D01*
X61323960Y-106228608D01*
X61323960Y-106739812D01*
X61519589Y-107212104D01*
X61881066Y-107573581D01*
X62317145Y-107754210D01*
X61881066Y-107934839D01*
X61519589Y-108296316D01*
X61323960Y-108768608D01*
X61323960Y-109279812D01*
X61519589Y-109752104D01*
X61881066Y-110113581D01*
X62317143Y-110294210D01*
X61881066Y-110474838D01*
X61519589Y-110836315D01*
X61323960Y-111308607D01*
X61323960Y-111819811D01*
X61519589Y-112292103D01*
X61881066Y-112653580D01*
X62317146Y-112834210D01*
X61881066Y-113014839D01*
X61519589Y-113376316D01*
X61323960Y-113848608D01*
X61323960Y-114359812D01*
X61519589Y-114832104D01*
X61881066Y-115193581D01*
X62353358Y-115389210D01*
X62864562Y-115389210D01*
X63336854Y-115193581D01*
X63698331Y-114832104D01*
X63893960Y-114359812D01*
X63893960Y-113848608D01*
X63698331Y-113376316D01*
X63336854Y-113014839D01*
X62900774Y-112834210D01*
X63336854Y-112653580D01*
X63698331Y-112292103D01*
X63893960Y-111819811D01*
X63893960Y-111308607D01*
X63698331Y-110836315D01*
X63336854Y-110474838D01*
X62900777Y-110294210D01*
X63336854Y-110113581D01*
X63698331Y-109752104D01*
X63893960Y-109279812D01*
X63893960Y-108768608D01*
X63698331Y-108296316D01*
X63336854Y-107934839D01*
X62900775Y-107754210D01*
X63336854Y-107573581D01*
X63411827Y-107498608D01*
X63863960Y-107498608D01*
X63863960Y-108009812D01*
X64059589Y-108482104D01*
X64421066Y-108843581D01*
X64857143Y-109024210D01*
X64421066Y-109204838D01*
X64059589Y-109566315D01*
X63863960Y-110038607D01*
X63863960Y-110549811D01*
X64059589Y-111022103D01*
X64421066Y-111383580D01*
X64857146Y-111564209D01*
X64421066Y-111744839D01*
X64059589Y-112106316D01*
X63863960Y-112578608D01*
X63863960Y-113089812D01*
X64059589Y-113562104D01*
X64421066Y-113923581D01*
X64857145Y-114104210D01*
X64421066Y-114284839D01*
X64059589Y-114646316D01*
X63863960Y-115118608D01*
X63863960Y-115629812D01*
X64059589Y-116102104D01*
X64421066Y-116463581D01*
X64893358Y-116659210D01*
X65404562Y-116659210D01*
X65876854Y-116463581D01*
X66238331Y-116102104D01*
X66433960Y-115629812D01*
X66433960Y-115118608D01*
X66238331Y-114646316D01*
X65876854Y-114284839D01*
X65440775Y-114104210D01*
X65876854Y-113923581D01*
X66238331Y-113562104D01*
X66433960Y-113089812D01*
X66433960Y-113035750D01*
X85965000Y-113035750D01*
X85965000Y-114276309D01*
X86061673Y-114509698D01*
X86240301Y-114688327D01*
X86473690Y-114785000D01*
X87714250Y-114785000D01*
X87873000Y-114626250D01*
X87873000Y-112877000D01*
X88127000Y-112877000D01*
X88127000Y-114626250D01*
X88285750Y-114785000D01*
X89526310Y-114785000D01*
X89759699Y-114688327D01*
X89938327Y-114509698D01*
X90035000Y-114276309D01*
X90035000Y-113035750D01*
X89876250Y-112877000D01*
X88127000Y-112877000D01*
X87873000Y-112877000D01*
X86123750Y-112877000D01*
X85965000Y-113035750D01*
X66433960Y-113035750D01*
X66433960Y-112578608D01*
X66238331Y-112106316D01*
X65876854Y-111744839D01*
X65440774Y-111564209D01*
X65876854Y-111383580D01*
X66036743Y-111223691D01*
X85965000Y-111223691D01*
X85965000Y-112464250D01*
X86123750Y-112623000D01*
X87873000Y-112623000D01*
X87873000Y-110873750D01*
X88127000Y-110873750D01*
X88127000Y-112623000D01*
X89876250Y-112623000D01*
X90035000Y-112464250D01*
X90035000Y-112345213D01*
X91465000Y-112345213D01*
X91465000Y-113154787D01*
X91774810Y-113902735D01*
X92347265Y-114475190D01*
X93095213Y-114785000D01*
X93904787Y-114785000D01*
X94652735Y-114475190D01*
X95225190Y-113902735D01*
X95257181Y-113825501D01*
X113501000Y-113825501D01*
X113501000Y-114886499D01*
X113907026Y-115866734D01*
X114657266Y-116616974D01*
X115637501Y-117023000D01*
X116698499Y-117023000D01*
X117678734Y-116616974D01*
X118428974Y-115866734D01*
X118835000Y-114886499D01*
X118835000Y-113825501D01*
X118428974Y-112845266D01*
X117678734Y-112095026D01*
X116698499Y-111689000D01*
X115637501Y-111689000D01*
X114657266Y-112095026D01*
X113907026Y-112845266D01*
X113501000Y-113825501D01*
X95257181Y-113825501D01*
X95535000Y-113154787D01*
X95535000Y-112345213D01*
X95225190Y-111597265D01*
X94652735Y-111024810D01*
X93904787Y-110715000D01*
X93095213Y-110715000D01*
X92347265Y-111024810D01*
X91774810Y-111597265D01*
X91465000Y-112345213D01*
X90035000Y-112345213D01*
X90035000Y-111223691D01*
X89938327Y-110990302D01*
X89759699Y-110811673D01*
X89526310Y-110715000D01*
X88285750Y-110715000D01*
X88127000Y-110873750D01*
X87873000Y-110873750D01*
X87714250Y-110715000D01*
X86473690Y-110715000D01*
X86240301Y-110811673D01*
X86061673Y-110990302D01*
X85965000Y-111223691D01*
X66036743Y-111223691D01*
X66238331Y-111022103D01*
X66433960Y-110549811D01*
X66433960Y-110038607D01*
X66238331Y-109566315D01*
X65876854Y-109204838D01*
X65440777Y-109024210D01*
X65876854Y-108843581D01*
X66238331Y-108482104D01*
X66433960Y-108009812D01*
X66433960Y-107498608D01*
X66238331Y-107026316D01*
X65876854Y-106664839D01*
X65404562Y-106469210D01*
X64893358Y-106469210D01*
X64421066Y-106664839D01*
X64059589Y-107026316D01*
X63863960Y-107498608D01*
X63411827Y-107498608D01*
X63698331Y-107212104D01*
X63893960Y-106739812D01*
X63893960Y-106228608D01*
X63743660Y-105865750D01*
X82085000Y-105865750D01*
X82085000Y-107106309D01*
X82181673Y-107339698D01*
X82360301Y-107518327D01*
X82593690Y-107615000D01*
X83834250Y-107615000D01*
X83993000Y-107456250D01*
X83993000Y-105707000D01*
X84247000Y-105707000D01*
X84247000Y-107456250D01*
X84405750Y-107615000D01*
X85646310Y-107615000D01*
X85879699Y-107518327D01*
X86058327Y-107339698D01*
X86155000Y-107106309D01*
X86155000Y-105865750D01*
X85996250Y-105707000D01*
X84247000Y-105707000D01*
X83993000Y-105707000D01*
X82243750Y-105707000D01*
X82085000Y-105865750D01*
X63743660Y-105865750D01*
X63698331Y-105756316D01*
X63336854Y-105394839D01*
X62864562Y-105199210D01*
X62353358Y-105199210D01*
X61881066Y-105394839D01*
X61519589Y-105756316D01*
X61323960Y-106228608D01*
X58312048Y-106228608D01*
X58543959Y-105668725D01*
X58543959Y-104759695D01*
X58467534Y-104575188D01*
X58965399Y-104781410D01*
X59652521Y-104781410D01*
X60287340Y-104518460D01*
X60752109Y-104053691D01*
X82085000Y-104053691D01*
X82085000Y-105294250D01*
X82243750Y-105453000D01*
X83993000Y-105453000D01*
X83993000Y-103703750D01*
X84247000Y-103703750D01*
X84247000Y-105453000D01*
X85996250Y-105453000D01*
X86155000Y-105294250D01*
X86155000Y-105175213D01*
X87585000Y-105175213D01*
X87585000Y-105984787D01*
X87894810Y-106732735D01*
X88467265Y-107305190D01*
X89215213Y-107615000D01*
X90024787Y-107615000D01*
X90772735Y-107305190D01*
X91345190Y-106732735D01*
X91655000Y-105984787D01*
X91655000Y-105175213D01*
X91345190Y-104427265D01*
X90772735Y-103854810D01*
X90024787Y-103545000D01*
X89215213Y-103545000D01*
X88467265Y-103854810D01*
X87894810Y-104427265D01*
X87585000Y-105175213D01*
X86155000Y-105175213D01*
X86155000Y-104053691D01*
X86058327Y-103820302D01*
X85879699Y-103641673D01*
X85646310Y-103545000D01*
X84405750Y-103545000D01*
X84247000Y-103703750D01*
X83993000Y-103703750D01*
X83834250Y-103545000D01*
X82593690Y-103545000D01*
X82360301Y-103641673D01*
X82181673Y-103820302D01*
X82085000Y-104053691D01*
X60752109Y-104053691D01*
X60773210Y-104032590D01*
X61036160Y-103397771D01*
X61036160Y-102710649D01*
X60773210Y-102075830D01*
X60287340Y-101589960D01*
X59652521Y-101327010D01*
X58965399Y-101327010D01*
X58330580Y-101589960D01*
X57844710Y-102075830D01*
X57581760Y-102710649D01*
X57581760Y-103305532D01*
X57553308Y-103277080D01*
X56713474Y-102929210D01*
X55804444Y-102929210D01*
X54964610Y-103277080D01*
X54321829Y-103919861D01*
X53973959Y-104759695D01*
X52699370Y-104759695D01*
X52699370Y-104339126D01*
X52495520Y-103846987D01*
X52118853Y-103470320D01*
X51626714Y-103266470D01*
X51094026Y-103266470D01*
X50838000Y-103372519D01*
X50838000Y-97286000D01*
X63426292Y-97286000D01*
X63107026Y-97605266D01*
X63107026Y-97605266D01*
G37*
X63107026Y-97605266D02*
X62701000Y-98585501D01*
X62701000Y-99646499D01*
X63107026Y-100626734D01*
X63857266Y-101376974D01*
X64837501Y-101783000D01*
X65898499Y-101783000D01*
X66878734Y-101376974D01*
X67628974Y-100626734D01*
X67782156Y-100256918D01*
X67843570Y-100348830D01*
X68339276Y-100680050D01*
X68924000Y-100796359D01*
X69508725Y-100680050D01*
X70004430Y-100348830D01*
X70194000Y-100065119D01*
X70383570Y-100348830D01*
X70879276Y-100680050D01*
X71464000Y-100796359D01*
X72048725Y-100680050D01*
X72544430Y-100348830D01*
X72734000Y-100065119D01*
X72923570Y-100348830D01*
X73419276Y-100680050D01*
X74004000Y-100796359D01*
X74588725Y-100680050D01*
X75084430Y-100348830D01*
X75277909Y-100059267D01*
X75641964Y-100466732D01*
X76169209Y-100720709D01*
X76184974Y-100723358D01*
X76417000Y-100602217D01*
X76417000Y-99243000D01*
X76397000Y-99243000D01*
X76397000Y-98989000D01*
X76417000Y-98989000D01*
X76417000Y-97629783D01*
X76671000Y-97629783D01*
X76671000Y-98989000D01*
X76691000Y-98989000D01*
X76691000Y-99243000D01*
X76671000Y-99243000D01*
X76671000Y-100602217D01*
X76903026Y-100723358D01*
X76918791Y-100720709D01*
X77446036Y-100466732D01*
X77810090Y-100059268D01*
X78003570Y-100348830D01*
X78499276Y-100680050D01*
X79084000Y-100796359D01*
X79668725Y-100680050D01*
X80164430Y-100348830D01*
X80354000Y-100065119D01*
X80543570Y-100348830D01*
X81039276Y-100680050D01*
X81624000Y-100796359D01*
X82208725Y-100680050D01*
X82704430Y-100348830D01*
X82894000Y-100065119D01*
X83083570Y-100348830D01*
X83579276Y-100680050D01*
X84164000Y-100796359D01*
X84748725Y-100680050D01*
X85244430Y-100348830D01*
X85434000Y-100065119D01*
X85623570Y-100348830D01*
X86119276Y-100680050D01*
X86704000Y-100796359D01*
X87288725Y-100680050D01*
X87784430Y-100348830D01*
X87974000Y-100065119D01*
X88163570Y-100348830D01*
X88659276Y-100680050D01*
X89244000Y-100796359D01*
X89828725Y-100680050D01*
X90324430Y-100348830D01*
X90514000Y-100065119D01*
X90703570Y-100348830D01*
X91199276Y-100680050D01*
X91784000Y-100796359D01*
X92368725Y-100680050D01*
X92864430Y-100348830D01*
X93195650Y-99853124D01*
X93282600Y-99415997D01*
X93282600Y-98816003D01*
X94349400Y-98816003D01*
X94349400Y-99415998D01*
X94436350Y-99853125D01*
X94767570Y-100348830D01*
X95263276Y-100680050D01*
X95848000Y-100796359D01*
X96432725Y-100680050D01*
X96928430Y-100348830D01*
X97118000Y-100065119D01*
X97307570Y-100348830D01*
X97803276Y-100680050D01*
X98388000Y-100796359D01*
X98972725Y-100680050D01*
X99468430Y-100348830D01*
X99658000Y-100065119D01*
X99847570Y-100348830D01*
X100343276Y-100680050D01*
X100928000Y-100796359D01*
X101512725Y-100680050D01*
X102008430Y-100348830D01*
X102198000Y-100065119D01*
X102387570Y-100348830D01*
X102883276Y-100680050D01*
X103468000Y-100796359D01*
X104052725Y-100680050D01*
X104548430Y-100348830D01*
X104738000Y-100065119D01*
X104927570Y-100348830D01*
X105423276Y-100680050D01*
X106008000Y-100796359D01*
X106592725Y-100680050D01*
X107088430Y-100348830D01*
X107278000Y-100065119D01*
X107467570Y-100348830D01*
X107963276Y-100680050D01*
X108548000Y-100796359D01*
X109132725Y-100680050D01*
X109628430Y-100348830D01*
X109818000Y-100065119D01*
X110007570Y-100348830D01*
X110503276Y-100680050D01*
X111088000Y-100796359D01*
X111672725Y-100680050D01*
X112168430Y-100348830D01*
X112358000Y-100065119D01*
X112547570Y-100348830D01*
X113043276Y-100680050D01*
X113628000Y-100796359D01*
X114212725Y-100680050D01*
X114708430Y-100348830D01*
X115039650Y-99853124D01*
X115126600Y-99415997D01*
X115126600Y-98816002D01*
X115039650Y-98378875D01*
X114708430Y-97883170D01*
X114212724Y-97551950D01*
X113628000Y-97435641D01*
X113043275Y-97551950D01*
X112547570Y-97883170D01*
X112358000Y-98166881D01*
X112168430Y-97883170D01*
X111672724Y-97551950D01*
X111088000Y-97435641D01*
X110503275Y-97551950D01*
X110007570Y-97883170D01*
X109818000Y-98166881D01*
X109628430Y-97883170D01*
X109132724Y-97551950D01*
X108548000Y-97435641D01*
X107963275Y-97551950D01*
X107467570Y-97883170D01*
X107278000Y-98166881D01*
X107088430Y-97883170D01*
X106592724Y-97551950D01*
X106008000Y-97435641D01*
X105423275Y-97551950D01*
X104927570Y-97883170D01*
X104738000Y-98166881D01*
X104548430Y-97883170D01*
X104052724Y-97551950D01*
X103468000Y-97435641D01*
X102883275Y-97551950D01*
X102387570Y-97883170D01*
X102198000Y-98166881D01*
X102008430Y-97883170D01*
X101512724Y-97551950D01*
X100928000Y-97435641D01*
X100343275Y-97551950D01*
X99847570Y-97883170D01*
X99658000Y-98166881D01*
X99468430Y-97883170D01*
X98972724Y-97551950D01*
X98388000Y-97435641D01*
X97803275Y-97551950D01*
X97307570Y-97883170D01*
X97118000Y-98166881D01*
X96928430Y-97883170D01*
X96432724Y-97551950D01*
X95848000Y-97435641D01*
X95263275Y-97551950D01*
X94767570Y-97883170D01*
X94436350Y-98378876D01*
X94349400Y-98816003D01*
X93282600Y-98816003D01*
X93282600Y-98816002D01*
X93195650Y-98378875D01*
X92864430Y-97883170D01*
X92368724Y-97551950D01*
X91784000Y-97435641D01*
X91199275Y-97551950D01*
X90703570Y-97883170D01*
X90514000Y-98166881D01*
X90324430Y-97883170D01*
X89828724Y-97551950D01*
X89244000Y-97435641D01*
X88659275Y-97551950D01*
X88163570Y-97883170D01*
X87974000Y-98166881D01*
X87784430Y-97883170D01*
X87288724Y-97551950D01*
X86704000Y-97435641D01*
X86119275Y-97551950D01*
X85623570Y-97883170D01*
X85434000Y-98166881D01*
X85244430Y-97883170D01*
X84748724Y-97551950D01*
X84164000Y-97435641D01*
X83579275Y-97551950D01*
X83083570Y-97883170D01*
X82894000Y-98166881D01*
X82704430Y-97883170D01*
X82208724Y-97551950D01*
X81624000Y-97435641D01*
X81039275Y-97551950D01*
X80543570Y-97883170D01*
X80354000Y-98166881D01*
X80164430Y-97883170D01*
X79668724Y-97551950D01*
X79084000Y-97435641D01*
X78499275Y-97551950D01*
X78003570Y-97883170D01*
X77810091Y-98172733D01*
X77446036Y-97765268D01*
X76918791Y-97511291D01*
X76903026Y-97508642D01*
X76671000Y-97629783D01*
X76417000Y-97629783D01*
X76184974Y-97508642D01*
X76169209Y-97511291D01*
X75641964Y-97765268D01*
X75277910Y-98172732D01*
X75084430Y-97883170D01*
X74588724Y-97551950D01*
X74004000Y-97435641D01*
X73419275Y-97551950D01*
X72923570Y-97883170D01*
X72734000Y-98166881D01*
X72544430Y-97883170D01*
X72048724Y-97551950D01*
X71464000Y-97435641D01*
X70879275Y-97551950D01*
X70383570Y-97883170D01*
X70194000Y-98166881D01*
X70004430Y-97883170D01*
X69508724Y-97551950D01*
X68924000Y-97435641D01*
X68339275Y-97551950D01*
X67843570Y-97883170D01*
X67782156Y-97975082D01*
X67628974Y-97605266D01*
X67309708Y-97286000D01*
X138356292Y-97286000D01*
X138037026Y-97605266D01*
X137786642Y-98209747D01*
X137568430Y-97883170D01*
X137072724Y-97551950D01*
X136488000Y-97435641D01*
X135903275Y-97551950D01*
X135407570Y-97883170D01*
X135218000Y-98166881D01*
X135028430Y-97883170D01*
X134532724Y-97551950D01*
X133948000Y-97435641D01*
X133363275Y-97551950D01*
X132867570Y-97883170D01*
X132678000Y-98166881D01*
X132488430Y-97883170D01*
X131992724Y-97551950D01*
X131408000Y-97435641D01*
X130823275Y-97551950D01*
X130327570Y-97883170D01*
X130138000Y-98166881D01*
X129948430Y-97883170D01*
X129452724Y-97551950D01*
X128868000Y-97435641D01*
X128283275Y-97551950D01*
X127787570Y-97883170D01*
X127598000Y-98166881D01*
X127408430Y-97883170D01*
X126912724Y-97551950D01*
X126328000Y-97435641D01*
X125743275Y-97551950D01*
X125247570Y-97883170D01*
X125058000Y-98166881D01*
X124868430Y-97883170D01*
X124372724Y-97551950D01*
X123788000Y-97435641D01*
X123203275Y-97551950D01*
X122707570Y-97883170D01*
X122518000Y-98166881D01*
X122328430Y-97883170D01*
X121832724Y-97551950D01*
X121248000Y-97435641D01*
X120663275Y-97551950D01*
X120167570Y-97883170D01*
X119978000Y-98166881D01*
X119788430Y-97883170D01*
X119292724Y-97551950D01*
X118708000Y-97435641D01*
X118123275Y-97551950D01*
X117627570Y-97883170D01*
X117296350Y-98378876D01*
X117209400Y-98816003D01*
X117209400Y-99415998D01*
X117296350Y-99853125D01*
X117627570Y-100348830D01*
X118123276Y-100680050D01*
X118708000Y-100796359D01*
X119292725Y-100680050D01*
X119788430Y-100348830D01*
X119978000Y-100065119D01*
X120167570Y-100348830D01*
X120663276Y-100680050D01*
X121248000Y-100796359D01*
X121832725Y-100680050D01*
X122328430Y-100348830D01*
X122518000Y-100065119D01*
X122707570Y-100348830D01*
X123203276Y-100680050D01*
X123788000Y-100796359D01*
X124372725Y-100680050D01*
X124868430Y-100348830D01*
X125058000Y-100065119D01*
X125247570Y-100348830D01*
X125743276Y-100680050D01*
X126328000Y-100796359D01*
X126912725Y-100680050D01*
X127408430Y-100348830D01*
X127598000Y-100065119D01*
X127787570Y-100348830D01*
X128283276Y-100680050D01*
X128868000Y-100796359D01*
X129452725Y-100680050D01*
X129948430Y-100348830D01*
X130138000Y-100065119D01*
X130327570Y-100348830D01*
X130823276Y-100680050D01*
X131408000Y-100796359D01*
X131992725Y-100680050D01*
X132488430Y-100348830D01*
X132678000Y-100065119D01*
X132867570Y-100348830D01*
X133363276Y-100680050D01*
X133948000Y-100796359D01*
X134532725Y-100680050D01*
X135028430Y-100348830D01*
X135218000Y-100065119D01*
X135407570Y-100348830D01*
X135903276Y-100680050D01*
X136488000Y-100796359D01*
X137072725Y-100680050D01*
X137568430Y-100348830D01*
X137786642Y-100022253D01*
X138037026Y-100626734D01*
X138787266Y-101376974D01*
X139767501Y-101783000D01*
X140828499Y-101783000D01*
X141808734Y-101376974D01*
X142558974Y-100626734D01*
X142848327Y-99928174D01*
X143027570Y-100196430D01*
X143311281Y-100386000D01*
X143027570Y-100575570D01*
X142696350Y-101071275D01*
X142580041Y-101656000D01*
X142696350Y-102240725D01*
X143027570Y-102736430D01*
X143311281Y-102926000D01*
X143027570Y-103115570D01*
X142696350Y-103611275D01*
X142580041Y-104196000D01*
X142696350Y-104780725D01*
X143027570Y-105276430D01*
X143311281Y-105466000D01*
X143027570Y-105655570D01*
X142696350Y-106151275D01*
X142580041Y-106736000D01*
X142696350Y-107320725D01*
X143027570Y-107816430D01*
X143311281Y-108006000D01*
X143027570Y-108195570D01*
X142696350Y-108691275D01*
X142580041Y-109276000D01*
X142696350Y-109860725D01*
X143027570Y-110356430D01*
X143311281Y-110546000D01*
X143027570Y-110735570D01*
X142696350Y-111231275D01*
X142580041Y-111816000D01*
X142696350Y-112400725D01*
X143027570Y-112896430D01*
X143311281Y-113086000D01*
X143027570Y-113275570D01*
X142696350Y-113771275D01*
X142580041Y-114356000D01*
X142696350Y-114940725D01*
X143027570Y-115436430D01*
X143311281Y-115626000D01*
X143027570Y-115815570D01*
X142696350Y-116311275D01*
X142580041Y-116896000D01*
X142696350Y-117480725D01*
X143027570Y-117976430D01*
X143311281Y-118166000D01*
X143027570Y-118355570D01*
X142696350Y-118851275D01*
X142580041Y-119436000D01*
X142696350Y-120020725D01*
X143027570Y-120516430D01*
X143311281Y-120706000D01*
X143027570Y-120895570D01*
X142696350Y-121391275D01*
X142580041Y-121976000D01*
X142696350Y-122560725D01*
X143027570Y-123056430D01*
X143311281Y-123246000D01*
X143027570Y-123435570D01*
X142696350Y-123931275D01*
X142580041Y-124516000D01*
X142696350Y-125100725D01*
X143027570Y-125596430D01*
X143311281Y-125786000D01*
X143027570Y-125975570D01*
X142696350Y-126471275D01*
X142580041Y-127056000D01*
X142696350Y-127640725D01*
X143027570Y-128136430D01*
X143311281Y-128326000D01*
X143027570Y-128515570D01*
X142696350Y-129011275D01*
X142580041Y-129596000D01*
X142696350Y-130180725D01*
X143027570Y-130676430D01*
X143311281Y-130866000D01*
X143027570Y-131055570D01*
X142696350Y-131551275D01*
X142580041Y-132136000D01*
X142696350Y-132720725D01*
X143027570Y-133216430D01*
X143311281Y-133406000D01*
X143027570Y-133595570D01*
X142696350Y-134091275D01*
X142580041Y-134676000D01*
X142666369Y-135110000D01*
X142642290Y-135110000D01*
X142609635Y-135077345D01*
X142265983Y-134935000D01*
X141894017Y-134935000D01*
X141550365Y-135077345D01*
X141287345Y-135340365D01*
X141145000Y-135684017D01*
X141145000Y-136055983D01*
X141287345Y-136399635D01*
X141437710Y-136550000D01*
X141301345Y-136686365D01*
X141159000Y-137030017D01*
X141159000Y-137401983D01*
X141301345Y-137745635D01*
X141451710Y-137896000D01*
X141307345Y-138040365D01*
X141165000Y-138384017D01*
X141165000Y-138755983D01*
X141307345Y-139099635D01*
X141520752Y-139313042D01*
X141510365Y-139317345D01*
X141247345Y-139580365D01*
X141105000Y-139924017D01*
X141105000Y-140295983D01*
X141247345Y-140639635D01*
X141510365Y-140902655D01*
X141854017Y-141045000D01*
X141900199Y-141045000D01*
X142284273Y-141429076D01*
X142326672Y-141492530D01*
X142390125Y-141534928D01*
X142390127Y-141534930D01*
X142515503Y-141618703D01*
X142578064Y-141660505D01*
X142733257Y-141691375D01*
X142597752Y-142064030D01*
X142623942Y-142659635D01*
X142801484Y-143088259D01*
X143054195Y-143170200D01*
X143928395Y-142296000D01*
X143914253Y-142281858D01*
X144093858Y-142102253D01*
X144108000Y-142116395D01*
X144122143Y-142102253D01*
X144301748Y-142281858D01*
X144287605Y-142296000D01*
X145161805Y-143170200D01*
X145398510Y-143093449D01*
X145441179Y-143184490D01*
X145873053Y-143578688D01*
X146288974Y-143750958D01*
X146521000Y-143629817D01*
X146521000Y-142423000D01*
X146775000Y-142423000D01*
X146775000Y-143629817D01*
X147007026Y-143750958D01*
X147422947Y-143578688D01*
X147854821Y-143184490D01*
X148102968Y-142655027D01*
X147982469Y-142423000D01*
X146775000Y-142423000D01*
X146521000Y-142423000D01*
X146501000Y-142423000D01*
X146501000Y-142169000D01*
X146521000Y-142169000D01*
X146521000Y-142149000D01*
X146775000Y-142149000D01*
X146775000Y-142169000D01*
X147982469Y-142169000D01*
X148102968Y-141936973D01*
X147854821Y-141407510D01*
X147440174Y-141029037D01*
X147728430Y-140836430D01*
X148059650Y-140340725D01*
X148175959Y-139756000D01*
X148059650Y-139171275D01*
X147728430Y-138675570D01*
X147444719Y-138486000D01*
X147728430Y-138296430D01*
X148059650Y-137800725D01*
X148175959Y-137216000D01*
X148059650Y-136631275D01*
X147728430Y-136135570D01*
X147444719Y-135946000D01*
X147728430Y-135756430D01*
X148059650Y-135260725D01*
X148175959Y-134676000D01*
X148059650Y-134091275D01*
X147728430Y-133595570D01*
X147444719Y-133406000D01*
X147728430Y-133216430D01*
X148059650Y-132720725D01*
X148175959Y-132136000D01*
X148059650Y-131551275D01*
X147728430Y-131055570D01*
X147444719Y-130866000D01*
X147728430Y-130676430D01*
X148059650Y-130180725D01*
X148175959Y-129596000D01*
X148059650Y-129011275D01*
X147728430Y-128515570D01*
X147444719Y-128326000D01*
X147728430Y-128136430D01*
X148059650Y-127640725D01*
X148175959Y-127056000D01*
X148059650Y-126471275D01*
X147728430Y-125975570D01*
X147444719Y-125786000D01*
X147728430Y-125596430D01*
X148059650Y-125100725D01*
X148175959Y-124516000D01*
X148059650Y-123931275D01*
X147728430Y-123435570D01*
X147444719Y-123246000D01*
X147728430Y-123056430D01*
X148059650Y-122560725D01*
X148175959Y-121976000D01*
X148059650Y-121391275D01*
X147728430Y-120895570D01*
X147444719Y-120706000D01*
X147728430Y-120516430D01*
X148059650Y-120020725D01*
X148175959Y-119436000D01*
X148059650Y-118851275D01*
X147728430Y-118355570D01*
X147444719Y-118166000D01*
X147728430Y-117976430D01*
X148059650Y-117480725D01*
X148175959Y-116896000D01*
X148059650Y-116311275D01*
X147728430Y-115815570D01*
X147444719Y-115626000D01*
X147728430Y-115436430D01*
X148059650Y-114940725D01*
X148175959Y-114356000D01*
X148059650Y-113771275D01*
X147728430Y-113275570D01*
X147444719Y-113086000D01*
X147728430Y-112896430D01*
X148059650Y-112400725D01*
X148175959Y-111816000D01*
X148059650Y-111231275D01*
X147728430Y-110735570D01*
X147444719Y-110546000D01*
X147728430Y-110356430D01*
X148059650Y-109860725D01*
X148175959Y-109276000D01*
X148059650Y-108691275D01*
X147728430Y-108195570D01*
X147444719Y-108006000D01*
X147728430Y-107816430D01*
X148059650Y-107320725D01*
X148175959Y-106736000D01*
X148059650Y-106151275D01*
X147728430Y-105655570D01*
X147444719Y-105466000D01*
X147728430Y-105276430D01*
X148059650Y-104780725D01*
X148175959Y-104196000D01*
X148059650Y-103611275D01*
X147728430Y-103115570D01*
X147444719Y-102926000D01*
X147728430Y-102736430D01*
X148059650Y-102240725D01*
X148175959Y-101656000D01*
X148059650Y-101071275D01*
X147728430Y-100575570D01*
X147444719Y-100386000D01*
X147728430Y-100196430D01*
X148059650Y-99700725D01*
X148175959Y-99116000D01*
X148173985Y-99106076D01*
X148478000Y-99410091D01*
X148478001Y-109206071D01*
X148464091Y-109276000D01*
X148519196Y-109553028D01*
X148676120Y-109787881D01*
X148735402Y-109827492D01*
X151018000Y-112110091D01*
X151018001Y-145811908D01*
X149315000Y-147514910D01*
X149315000Y-146845501D01*
X148908974Y-145865266D01*
X148158734Y-145115026D01*
X147178499Y-144709000D01*
X146117501Y-144709000D01*
X145137266Y-145115026D01*
X144387026Y-145865266D01*
X143981000Y-146845501D01*
X143981000Y-147906499D01*
X144387026Y-148886734D01*
X144706292Y-149206000D01*
X66039708Y-149206000D01*
X66358974Y-148886734D01*
X66765000Y-147906499D01*
X66765000Y-147076003D01*
X76569400Y-147076003D01*
X76569400Y-147675998D01*
X76656350Y-148113125D01*
X76987570Y-148608830D01*
X77483276Y-148940050D01*
X78068000Y-149056359D01*
X78652725Y-148940050D01*
X79148430Y-148608830D01*
X79338000Y-148325119D01*
X79527570Y-148608830D01*
X80023276Y-148940050D01*
X80608000Y-149056359D01*
X81192725Y-148940050D01*
X81688430Y-148608830D01*
X81878000Y-148325119D01*
X82067570Y-148608830D01*
X82563276Y-148940050D01*
X83148000Y-149056359D01*
X83732725Y-148940050D01*
X84228430Y-148608830D01*
X84418000Y-148325119D01*
X84607570Y-148608830D01*
X85103276Y-148940050D01*
X85688000Y-149056359D01*
X86272725Y-148940050D01*
X86768430Y-148608830D01*
X86958000Y-148325119D01*
X87147570Y-148608830D01*
X87643276Y-148940050D01*
X88228000Y-149056359D01*
X88812725Y-148940050D01*
X89308430Y-148608830D01*
X89501909Y-148319267D01*
X89865964Y-148726732D01*
X90393209Y-148980709D01*
X90408974Y-148983358D01*
X90641000Y-148862217D01*
X90641000Y-147503000D01*
X90895000Y-147503000D01*
X90895000Y-148862217D01*
X91127026Y-148983358D01*
X91142791Y-148980709D01*
X91670036Y-148726732D01*
X92038000Y-148314892D01*
X92405964Y-148726732D01*
X92933209Y-148980709D01*
X92948974Y-148983358D01*
X93181000Y-148862217D01*
X93181000Y-147503000D01*
X90895000Y-147503000D01*
X90641000Y-147503000D01*
X90621000Y-147503000D01*
X90621000Y-147249000D01*
X90641000Y-147249000D01*
X90641000Y-145889783D01*
X90895000Y-145889783D01*
X90895000Y-147249000D01*
X93181000Y-147249000D01*
X93181000Y-145889783D01*
X93435000Y-145889783D01*
X93435000Y-147249000D01*
X93455000Y-147249000D01*
X93455000Y-147503000D01*
X93435000Y-147503000D01*
X93435000Y-148862217D01*
X93667026Y-148983358D01*
X93682791Y-148980709D01*
X94210036Y-148726732D01*
X94574090Y-148319268D01*
X94767570Y-148608830D01*
X95263276Y-148940050D01*
X95848000Y-149056359D01*
X96432725Y-148940050D01*
X96928430Y-148608830D01*
X97259650Y-148113124D01*
X97346600Y-147675997D01*
X97346600Y-147076003D01*
X99429400Y-147076003D01*
X99429400Y-147675998D01*
X99516350Y-148113125D01*
X99847570Y-148608830D01*
X100343276Y-148940050D01*
X100928000Y-149056359D01*
X101512725Y-148940050D01*
X102008430Y-148608830D01*
X102198000Y-148325119D01*
X102387570Y-148608830D01*
X102883276Y-148940050D01*
X103468000Y-149056359D01*
X104052725Y-148940050D01*
X104548430Y-148608830D01*
X104738000Y-148325119D01*
X104927570Y-148608830D01*
X105423276Y-148940050D01*
X106008000Y-149056359D01*
X106592725Y-148940050D01*
X107088430Y-148608830D01*
X107278000Y-148325119D01*
X107467570Y-148608830D01*
X107963276Y-148940050D01*
X108548000Y-149056359D01*
X109132725Y-148940050D01*
X109628430Y-148608830D01*
X109818000Y-148325119D01*
X110007570Y-148608830D01*
X110503276Y-148940050D01*
X111088000Y-149056359D01*
X111672725Y-148940050D01*
X112168430Y-148608830D01*
X112358000Y-148325119D01*
X112547570Y-148608830D01*
X113043276Y-148940050D01*
X113628000Y-149056359D01*
X114212725Y-148940050D01*
X114708430Y-148608830D01*
X114898000Y-148325119D01*
X115087570Y-148608830D01*
X115583276Y-148940050D01*
X116168000Y-149056359D01*
X116752725Y-148940050D01*
X117248430Y-148608830D01*
X117438000Y-148325119D01*
X117627570Y-148608830D01*
X118123276Y-148940050D01*
X118708000Y-149056359D01*
X119292725Y-148940050D01*
X119788430Y-148608830D01*
X120119650Y-148113124D01*
X120206600Y-147675997D01*
X120206600Y-147076003D01*
X122289400Y-147076003D01*
X122289400Y-147675998D01*
X122376350Y-148113125D01*
X122707570Y-148608830D01*
X123203276Y-148940050D01*
X123788000Y-149056359D01*
X124372725Y-148940050D01*
X124868430Y-148608830D01*
X125058000Y-148325119D01*
X125247570Y-148608830D01*
X125743276Y-148940050D01*
X126328000Y-149056359D01*
X126912725Y-148940050D01*
X127408430Y-148608830D01*
X127598000Y-148325119D01*
X127787570Y-148608830D01*
X128283276Y-148940050D01*
X128868000Y-149056359D01*
X129452725Y-148940050D01*
X129948430Y-148608830D01*
X130138000Y-148325119D01*
X130327570Y-148608830D01*
X130823276Y-148940050D01*
X131408000Y-149056359D01*
X131992725Y-148940050D01*
X132488430Y-148608830D01*
X132678000Y-148325119D01*
X132867570Y-148608830D01*
X133363276Y-148940050D01*
X133948000Y-149056359D01*
X134532725Y-148940050D01*
X135028430Y-148608830D01*
X135218000Y-148325119D01*
X135407570Y-148608830D01*
X135903276Y-148940050D01*
X136488000Y-149056359D01*
X137072725Y-148940050D01*
X137568430Y-148608830D01*
X137758000Y-148325119D01*
X137947570Y-148608830D01*
X138443276Y-148940050D01*
X139028000Y-149056359D01*
X139612725Y-148940050D01*
X140108430Y-148608830D01*
X140298000Y-148325119D01*
X140487570Y-148608830D01*
X140983276Y-148940050D01*
X141568000Y-149056359D01*
X142152725Y-148940050D01*
X142648430Y-148608830D01*
X142979650Y-148113124D01*
X143066600Y-147675997D01*
X143066600Y-147076002D01*
X142979650Y-146638875D01*
X142648430Y-146143170D01*
X142152724Y-145811950D01*
X141568000Y-145695641D01*
X140983275Y-145811950D01*
X140487570Y-146143170D01*
X140298000Y-146426881D01*
X140108430Y-146143170D01*
X139612724Y-145811950D01*
X139028000Y-145695641D01*
X138443275Y-145811950D01*
X137947570Y-146143170D01*
X137758000Y-146426881D01*
X137568430Y-146143170D01*
X137072724Y-145811950D01*
X136488000Y-145695641D01*
X135903275Y-145811950D01*
X135407570Y-146143170D01*
X135218000Y-146426881D01*
X135028430Y-146143170D01*
X134532724Y-145811950D01*
X133948000Y-145695641D01*
X133363275Y-145811950D01*
X132867570Y-146143170D01*
X132678000Y-146426881D01*
X132488430Y-146143170D01*
X131992724Y-145811950D01*
X131408000Y-145695641D01*
X130823275Y-145811950D01*
X130327570Y-146143170D01*
X130138000Y-146426881D01*
X129948430Y-146143170D01*
X129452724Y-145811950D01*
X128868000Y-145695641D01*
X128283275Y-145811950D01*
X127787570Y-146143170D01*
X127598000Y-146426881D01*
X127408430Y-146143170D01*
X126912724Y-145811950D01*
X126328000Y-145695641D01*
X125743275Y-145811950D01*
X125247570Y-146143170D01*
X125058000Y-146426881D01*
X124868430Y-146143170D01*
X124372724Y-145811950D01*
X123788000Y-145695641D01*
X123203275Y-145811950D01*
X122707570Y-146143170D01*
X122376350Y-146638876D01*
X122289400Y-147076003D01*
X120206600Y-147076003D01*
X120206600Y-147076002D01*
X120119650Y-146638875D01*
X119788430Y-146143170D01*
X119292724Y-145811950D01*
X118708000Y-145695641D01*
X118123275Y-145811950D01*
X117627570Y-146143170D01*
X117438000Y-146426881D01*
X117248430Y-146143170D01*
X116752724Y-145811950D01*
X116168000Y-145695641D01*
X115583275Y-145811950D01*
X115087570Y-146143170D01*
X114898000Y-146426881D01*
X114708430Y-146143170D01*
X114212724Y-145811950D01*
X113628000Y-145695641D01*
X113043275Y-145811950D01*
X112547570Y-146143170D01*
X112358000Y-146426881D01*
X112168430Y-146143170D01*
X111672724Y-145811950D01*
X111088000Y-145695641D01*
X110503275Y-145811950D01*
X110007570Y-146143170D01*
X109818000Y-146426881D01*
X109628430Y-146143170D01*
X109132724Y-145811950D01*
X108548000Y-145695641D01*
X107963275Y-145811950D01*
X107467570Y-146143170D01*
X107278000Y-146426881D01*
X107088430Y-146143170D01*
X106592724Y-145811950D01*
X106008000Y-145695641D01*
X105423275Y-145811950D01*
X104927570Y-146143170D01*
X104738000Y-146426881D01*
X104548430Y-146143170D01*
X104052724Y-145811950D01*
X103468000Y-145695641D01*
X102883275Y-145811950D01*
X102387570Y-146143170D01*
X102198000Y-146426881D01*
X102008430Y-146143170D01*
X101512724Y-145811950D01*
X100928000Y-145695641D01*
X100343275Y-145811950D01*
X99847570Y-146143170D01*
X99516350Y-146638876D01*
X99429400Y-147076003D01*
X97346600Y-147076003D01*
X97346600Y-147076002D01*
X97259650Y-146638875D01*
X96928430Y-146143170D01*
X96432724Y-145811950D01*
X95848000Y-145695641D01*
X95263275Y-145811950D01*
X94767570Y-146143170D01*
X94574091Y-146432733D01*
X94210036Y-146025268D01*
X93682791Y-145771291D01*
X93667026Y-145768642D01*
X93435000Y-145889783D01*
X93181000Y-145889783D01*
X92948974Y-145768642D01*
X92933209Y-145771291D01*
X92405964Y-146025268D01*
X92038000Y-146437108D01*
X91670036Y-146025268D01*
X91142791Y-145771291D01*
X91127026Y-145768642D01*
X90895000Y-145889783D01*
X90641000Y-145889783D01*
X90408974Y-145768642D01*
X90393209Y-145771291D01*
X89865964Y-146025268D01*
X89501910Y-146432732D01*
X89308430Y-146143170D01*
X88812724Y-145811950D01*
X88228000Y-145695641D01*
X87643275Y-145811950D01*
X87147570Y-146143170D01*
X86958000Y-146426881D01*
X86768430Y-146143170D01*
X86272724Y-145811950D01*
X85688000Y-145695641D01*
X85103275Y-145811950D01*
X84607570Y-146143170D01*
X84418000Y-146426881D01*
X84228430Y-146143170D01*
X83732724Y-145811950D01*
X83148000Y-145695641D01*
X82563275Y-145811950D01*
X82067570Y-146143170D01*
X81878000Y-146426881D01*
X81688430Y-146143170D01*
X81192724Y-145811950D01*
X80608000Y-145695641D01*
X80023275Y-145811950D01*
X79527570Y-146143170D01*
X79338000Y-146426881D01*
X79148430Y-146143170D01*
X78652724Y-145811950D01*
X78068000Y-145695641D01*
X77483275Y-145811950D01*
X76987570Y-146143170D01*
X76656350Y-146638876D01*
X76569400Y-147076003D01*
X66765000Y-147076003D01*
X66765000Y-146845501D01*
X66358974Y-145865266D01*
X65608734Y-145115026D01*
X64628499Y-144709000D01*
X63567501Y-144709000D01*
X62587266Y-145115026D01*
X61837026Y-145865266D01*
X61431000Y-146845501D01*
X61431000Y-147906499D01*
X61837026Y-148886734D01*
X62156292Y-149206000D01*
X50838000Y-149206000D01*
X50838000Y-141765501D01*
X113501000Y-141765501D01*
X113501000Y-142826499D01*
X113907026Y-143806734D01*
X114657266Y-144556974D01*
X115637501Y-144963000D01*
X116698499Y-144963000D01*
X117678734Y-144556974D01*
X118428974Y-143806734D01*
X118618239Y-143349805D01*
X143233800Y-143349805D01*
X143315741Y-143602516D01*
X143876030Y-143806248D01*
X144471635Y-143780058D01*
X144900259Y-143602516D01*
X144982200Y-143349805D01*
X144108000Y-142475605D01*
X143233800Y-143349805D01*
X118618239Y-143349805D01*
X118835000Y-142826499D01*
X118835000Y-141765501D01*
X118428974Y-140785266D01*
X117678734Y-140035026D01*
X116698499Y-139629000D01*
X115637501Y-139629000D01*
X114657266Y-140035026D01*
X113907026Y-140785266D01*
X113501000Y-141765501D01*
X50838000Y-141765501D01*
X50838000Y-138813750D01*
X74135000Y-138813750D01*
X74135000Y-138954309D01*
X74231673Y-139187698D01*
X74410301Y-139366327D01*
X74643690Y-139463000D01*
X74736250Y-139463000D01*
X74895000Y-139304250D01*
X74895000Y-138655000D01*
X75145000Y-138655000D01*
X75145000Y-139304250D01*
X75303750Y-139463000D01*
X75396310Y-139463000D01*
X75629699Y-139366327D01*
X75808327Y-139187698D01*
X75905000Y-138954309D01*
X75905000Y-138850451D01*
X75991673Y-139059698D01*
X76170301Y-139238327D01*
X76403690Y-139335000D01*
X76496250Y-139335000D01*
X76655000Y-139176250D01*
X76655000Y-138527000D01*
X76905000Y-138527000D01*
X76905000Y-139176250D01*
X77063750Y-139335000D01*
X77156310Y-139335000D01*
X77389699Y-139238327D01*
X77568327Y-139059698D01*
X77665000Y-138826309D01*
X77665000Y-138685750D01*
X77508000Y-138528750D01*
X77635000Y-138528750D01*
X77635000Y-138596309D01*
X77731673Y-138829698D01*
X77910301Y-139008327D01*
X78143690Y-139105000D01*
X78284250Y-139105000D01*
X78443000Y-138946250D01*
X78443000Y-138370000D01*
X78697000Y-138370000D01*
X78697000Y-138946250D01*
X78855750Y-139105000D01*
X78996310Y-139105000D01*
X79229699Y-139008327D01*
X79408327Y-138829698D01*
X79505000Y-138596309D01*
X79505000Y-138528750D01*
X79346250Y-138370000D01*
X78697000Y-138370000D01*
X78443000Y-138370000D01*
X77793750Y-138370000D01*
X77635000Y-138528750D01*
X77508000Y-138528750D01*
X77506250Y-138527000D01*
X76905000Y-138527000D01*
X76655000Y-138527000D01*
X76053750Y-138527000D01*
X75895000Y-138685750D01*
X75895000Y-138803750D01*
X75746250Y-138655000D01*
X75145000Y-138655000D01*
X74895000Y-138655000D01*
X74293750Y-138655000D01*
X74135000Y-138813750D01*
X50838000Y-138813750D01*
X50838000Y-134554017D01*
X73175000Y-134554017D01*
X73175000Y-134925983D01*
X73317345Y-135269635D01*
X73580365Y-135532655D01*
X73924017Y-135675000D01*
X73970199Y-135675000D01*
X73995000Y-135699801D01*
X73994999Y-136538152D01*
X73980111Y-136612999D01*
X73994999Y-136687846D01*
X73994999Y-136687850D01*
X74039095Y-136909535D01*
X74136899Y-137055910D01*
X74122560Y-137128000D01*
X74122560Y-137728000D01*
X74171843Y-137975765D01*
X74181299Y-137989916D01*
X74135000Y-138101691D01*
X74135000Y-138242250D01*
X74293750Y-138401000D01*
X74895000Y-138401000D01*
X74895000Y-138381000D01*
X75145000Y-138381000D01*
X75145000Y-138401000D01*
X75746250Y-138401000D01*
X75905000Y-138242250D01*
X75905000Y-138124250D01*
X76053750Y-138273000D01*
X76655000Y-138273000D01*
X76655000Y-138253000D01*
X76905000Y-138253000D01*
X76905000Y-138273000D01*
X77506250Y-138273000D01*
X77665000Y-138114250D01*
X77665000Y-138041250D01*
X77793750Y-138170000D01*
X78031500Y-138170000D01*
X78270000Y-138217440D01*
X78870000Y-138217440D01*
X79108500Y-138170000D01*
X79346250Y-138170000D01*
X79505000Y-138011250D01*
X79505000Y-137943691D01*
X79458701Y-137831916D01*
X79468157Y-137817765D01*
X79517440Y-137570000D01*
X79517440Y-137170000D01*
X79468157Y-136922235D01*
X79327809Y-136712191D01*
X79299835Y-136693499D01*
X79285904Y-136623463D01*
X79117929Y-136372071D01*
X79054473Y-136329671D01*
X77695000Y-134970199D01*
X77695000Y-134954017D01*
X77552655Y-134610365D01*
X77289635Y-134347345D01*
X76945983Y-134205000D01*
X76574017Y-134205000D01*
X76230365Y-134347345D01*
X76050000Y-134527710D01*
X75909635Y-134387345D01*
X75565983Y-134245000D01*
X75194017Y-134245000D01*
X74957569Y-134342940D01*
X74902655Y-134210365D01*
X74639635Y-133947345D01*
X74295983Y-133805000D01*
X73924017Y-133805000D01*
X73580365Y-133947345D01*
X73317345Y-134210365D01*
X73175000Y-134554017D01*
X50838000Y-134554017D01*
X50838000Y-133535750D01*
X101115000Y-133535750D01*
X101115000Y-135176310D01*
X101211673Y-135409699D01*
X101390302Y-135588327D01*
X101623691Y-135685000D01*
X102464250Y-135685000D01*
X102623000Y-135526250D01*
X102623000Y-133377000D01*
X102877000Y-133377000D01*
X102877000Y-135526250D01*
X103035750Y-135685000D01*
X103876309Y-135685000D01*
X104109698Y-135588327D01*
X104288327Y-135409699D01*
X104385000Y-135176310D01*
X104385000Y-133535750D01*
X104226250Y-133377000D01*
X106115000Y-133377000D01*
X106115000Y-134177000D01*
X106288058Y-134793020D01*
X106683683Y-135295922D01*
X107241645Y-135609144D01*
X107369566Y-135640124D01*
X107623000Y-135520777D01*
X107623000Y-133377000D01*
X107877000Y-133377000D01*
X107877000Y-135520777D01*
X108130434Y-135640124D01*
X108258355Y-135609144D01*
X108816317Y-135295922D01*
X109211942Y-134793020D01*
X109385000Y-134177000D01*
X109385000Y-133377000D01*
X111115000Y-133377000D01*
X111115000Y-134177000D01*
X111288058Y-134793020D01*
X111683683Y-135295922D01*
X112241645Y-135609144D01*
X112369566Y-135640124D01*
X112623000Y-135520777D01*
X112623000Y-133377000D01*
X112877000Y-133377000D01*
X112877000Y-135520777D01*
X113130434Y-135640124D01*
X113258355Y-135609144D01*
X113816317Y-135295922D01*
X114211942Y-134793020D01*
X114385000Y-134177000D01*
X114385000Y-133377000D01*
X112877000Y-133377000D01*
X112623000Y-133377000D01*
X111115000Y-133377000D01*
X109385000Y-133377000D01*
X107877000Y-133377000D01*
X107623000Y-133377000D01*
X106115000Y-133377000D01*
X104226250Y-133377000D01*
X102877000Y-133377000D01*
X102623000Y-133377000D01*
X101273750Y-133377000D01*
X101115000Y-133535750D01*
X50838000Y-133535750D01*
X50838000Y-131325750D01*
X60355000Y-131325750D01*
X60355000Y-131466309D01*
X60451673Y-131699698D01*
X60630301Y-131878327D01*
X60863690Y-131975000D01*
X60956250Y-131975000D01*
X61115000Y-131816250D01*
X61115000Y-131167000D01*
X61365000Y-131167000D01*
X61365000Y-131816250D01*
X61523750Y-131975000D01*
X61616310Y-131975000D01*
X61849699Y-131878327D01*
X62028327Y-131699698D01*
X62125000Y-131466309D01*
X62125000Y-131325750D01*
X61966250Y-131167000D01*
X61365000Y-131167000D01*
X61115000Y-131167000D01*
X60513750Y-131167000D01*
X60355000Y-131325750D01*
X50838000Y-131325750D01*
X50838000Y-129640000D01*
X60342560Y-129640000D01*
X60342560Y-130240000D01*
X60391843Y-130487765D01*
X60401299Y-130501916D01*
X60355000Y-130613691D01*
X60355000Y-130754250D01*
X60513750Y-130913000D01*
X61115000Y-130913000D01*
X61115000Y-130893000D01*
X61365000Y-130893000D01*
X61365000Y-130913000D01*
X61966250Y-130913000D01*
X62125000Y-130754250D01*
X62125000Y-130613691D01*
X62078701Y-130501916D01*
X62088157Y-130487765D01*
X62108793Y-130384017D01*
X74075000Y-130384017D01*
X74075000Y-130755983D01*
X74217345Y-131099635D01*
X74480365Y-131362655D01*
X74824017Y-131505000D01*
X75195983Y-131505000D01*
X75539635Y-131362655D01*
X75578600Y-131323690D01*
X101115000Y-131323690D01*
X101115000Y-132964250D01*
X101273750Y-133123000D01*
X102623000Y-133123000D01*
X102623000Y-130973750D01*
X102877000Y-130973750D01*
X102877000Y-133123000D01*
X104226250Y-133123000D01*
X104385000Y-132964250D01*
X104385000Y-132323000D01*
X106115000Y-132323000D01*
X106115000Y-133123000D01*
X107623000Y-133123000D01*
X107623000Y-130979223D01*
X107877000Y-130979223D01*
X107877000Y-133123000D01*
X109385000Y-133123000D01*
X109385000Y-132323000D01*
X111115000Y-132323000D01*
X111115000Y-133123000D01*
X112623000Y-133123000D01*
X112623000Y-130979223D01*
X112877000Y-130979223D01*
X112877000Y-133123000D01*
X114385000Y-133123000D01*
X114385000Y-132323000D01*
X114375440Y-132288970D01*
X116115000Y-132288970D01*
X116115000Y-134211031D01*
X116209865Y-134687945D01*
X116571232Y-135228769D01*
X117112056Y-135590136D01*
X117750000Y-135717031D01*
X118387945Y-135590136D01*
X118928769Y-135228769D01*
X119290136Y-134687945D01*
X119385000Y-134211031D01*
X119385000Y-132288970D01*
X121115000Y-132288970D01*
X121115000Y-134211031D01*
X121209865Y-134687945D01*
X121571232Y-135228769D01*
X122112056Y-135590136D01*
X122750000Y-135717031D01*
X123387945Y-135590136D01*
X123928769Y-135228769D01*
X124290136Y-134687945D01*
X124385000Y-134211031D01*
X124385000Y-132288970D01*
X126115000Y-132288970D01*
X126115000Y-134211031D01*
X126209865Y-134687945D01*
X126571232Y-135228769D01*
X127112056Y-135590136D01*
X127750000Y-135717031D01*
X128387945Y-135590136D01*
X128928769Y-135228769D01*
X129290136Y-134687945D01*
X129385000Y-134211031D01*
X129385000Y-132288970D01*
X131115000Y-132288970D01*
X131115000Y-134211031D01*
X131209865Y-134687945D01*
X131571232Y-135228769D01*
X132112056Y-135590136D01*
X132750000Y-135717031D01*
X133387945Y-135590136D01*
X133928769Y-135228769D01*
X134290136Y-134687945D01*
X134385000Y-134211031D01*
X134385000Y-132288970D01*
X136115000Y-132288970D01*
X136115000Y-134211031D01*
X136209865Y-134687945D01*
X136571232Y-135228769D01*
X137112056Y-135590136D01*
X137750000Y-135717031D01*
X138387945Y-135590136D01*
X138928769Y-135228769D01*
X139290136Y-134687945D01*
X139385000Y-134211031D01*
X139385000Y-132288969D01*
X139290136Y-131812055D01*
X138928769Y-131271231D01*
X138387944Y-130909864D01*
X137750000Y-130782969D01*
X137112055Y-130909864D01*
X136571231Y-131271231D01*
X136209864Y-131812056D01*
X136115000Y-132288970D01*
X134385000Y-132288970D01*
X134385000Y-132288969D01*
X134290136Y-131812055D01*
X133928769Y-131271231D01*
X133387944Y-130909864D01*
X132750000Y-130782969D01*
X132112055Y-130909864D01*
X131571231Y-131271231D01*
X131209864Y-131812056D01*
X131115000Y-132288970D01*
X129385000Y-132288970D01*
X129385000Y-132288969D01*
X129290136Y-131812055D01*
X128928769Y-131271231D01*
X128387944Y-130909864D01*
X127750000Y-130782969D01*
X127112055Y-130909864D01*
X126571231Y-131271231D01*
X126209864Y-131812056D01*
X126115000Y-132288970D01*
X124385000Y-132288970D01*
X124385000Y-132288969D01*
X124290136Y-131812055D01*
X123928769Y-131271231D01*
X123387944Y-130909864D01*
X122750000Y-130782969D01*
X122112055Y-130909864D01*
X121571231Y-131271231D01*
X121209864Y-131812056D01*
X121115000Y-132288970D01*
X119385000Y-132288970D01*
X119385000Y-132288969D01*
X119290136Y-131812055D01*
X118928769Y-131271231D01*
X118387944Y-130909864D01*
X117750000Y-130782969D01*
X117112055Y-130909864D01*
X116571231Y-131271231D01*
X116209864Y-131812056D01*
X116115000Y-132288970D01*
X114375440Y-132288970D01*
X114211942Y-131706980D01*
X113816317Y-131204078D01*
X113258355Y-130890856D01*
X113130434Y-130859876D01*
X112877000Y-130979223D01*
X112623000Y-130979223D01*
X112369566Y-130859876D01*
X112241645Y-130890856D01*
X111683683Y-131204078D01*
X111288058Y-131706980D01*
X111115000Y-132323000D01*
X109385000Y-132323000D01*
X109211942Y-131706980D01*
X108816317Y-131204078D01*
X108258355Y-130890856D01*
X108130434Y-130859876D01*
X107877000Y-130979223D01*
X107623000Y-130979223D01*
X107369566Y-130859876D01*
X107241645Y-130890856D01*
X106683683Y-131204078D01*
X106288058Y-131706980D01*
X106115000Y-132323000D01*
X104385000Y-132323000D01*
X104385000Y-131323690D01*
X104288327Y-131090301D01*
X104109698Y-130911673D01*
X103876309Y-130815000D01*
X103035750Y-130815000D01*
X102877000Y-130973750D01*
X102623000Y-130973750D01*
X102464250Y-130815000D01*
X101623691Y-130815000D01*
X101390302Y-130911673D01*
X101211673Y-131090301D01*
X101115000Y-131323690D01*
X75578600Y-131323690D01*
X75802655Y-131099635D01*
X75945000Y-130755983D01*
X75945000Y-130407290D01*
X76032655Y-130319635D01*
X76175000Y-129975983D01*
X76175000Y-129604017D01*
X76032655Y-129260365D01*
X75769635Y-128997345D01*
X75425983Y-128855000D01*
X75054017Y-128855000D01*
X74710365Y-128997345D01*
X74447345Y-129260365D01*
X74305000Y-129604017D01*
X74305000Y-129952710D01*
X74217345Y-130040365D01*
X74075000Y-130384017D01*
X62108793Y-130384017D01*
X62137440Y-130240000D01*
X62137440Y-129640000D01*
X62088157Y-129392235D01*
X62000000Y-129260300D01*
X62000000Y-128682290D01*
X62072655Y-128609635D01*
X62215000Y-128265983D01*
X62215000Y-127894017D01*
X62072655Y-127550365D01*
X61809635Y-127287345D01*
X61465983Y-127145000D01*
X61094017Y-127145000D01*
X60750365Y-127287345D01*
X60487345Y-127550365D01*
X60345000Y-127894017D01*
X60345000Y-128265983D01*
X60480001Y-128591904D01*
X60480000Y-129260299D01*
X60391843Y-129392235D01*
X60342560Y-129640000D01*
X50838000Y-129640000D01*
X50838000Y-122884017D01*
X57815000Y-122884017D01*
X57815000Y-123255983D01*
X57957345Y-123599635D01*
X58220365Y-123862655D01*
X58564017Y-124005000D01*
X58935983Y-124005000D01*
X59279635Y-123862655D01*
X59542655Y-123599635D01*
X59685000Y-123255983D01*
X59685000Y-122884017D01*
X59542655Y-122540365D01*
X59279635Y-122277345D01*
X58935983Y-122135000D01*
X58564017Y-122135000D01*
X58220365Y-122277345D01*
X57957345Y-122540365D01*
X57815000Y-122884017D01*
X50838000Y-122884017D01*
X50838000Y-116989126D01*
X51541370Y-116989126D01*
X51541370Y-117521814D01*
X51745220Y-118013953D01*
X52121887Y-118390620D01*
X52614026Y-118594470D01*
X53146714Y-118594470D01*
X53638853Y-118390620D01*
X54015520Y-118013953D01*
X54184289Y-117606507D01*
X54321829Y-117938559D01*
X54964610Y-118581340D01*
X55804444Y-118929210D01*
X56713474Y-118929210D01*
X57553308Y-118581340D01*
X57581760Y-118552888D01*
X57581760Y-119147771D01*
X57844710Y-119782590D01*
X58330580Y-120268460D01*
X58965399Y-120531410D01*
X59652521Y-120531410D01*
X59676043Y-120521667D01*
X59547345Y-120650365D01*
X59405000Y-120994017D01*
X59405000Y-121365983D01*
X59547345Y-121709635D01*
X59810365Y-121972655D01*
X60154017Y-122115000D01*
X60525983Y-122115000D01*
X60869635Y-121972655D01*
X61132655Y-121709635D01*
X61215346Y-121510000D01*
X71482560Y-121510000D01*
X71482560Y-121910000D01*
X71531843Y-122157765D01*
X71672191Y-122367809D01*
X71882235Y-122508157D01*
X72130000Y-122557440D01*
X72202639Y-122557440D01*
X72595000Y-122949802D01*
X72595000Y-122985983D01*
X72737345Y-123329635D01*
X73000365Y-123592655D01*
X73344017Y-123735000D01*
X73715983Y-123735000D01*
X74059635Y-123592655D01*
X74147336Y-123504954D01*
X74244017Y-123545000D01*
X74615983Y-123545000D01*
X74959635Y-123402655D01*
X74968133Y-123394157D01*
X75284017Y-123525000D01*
X75655983Y-123525000D01*
X75681953Y-123514243D01*
X75930365Y-123762655D01*
X76274017Y-123905000D01*
X76472710Y-123905000D01*
X76730365Y-124162655D01*
X77074017Y-124305000D01*
X77194311Y-124305000D01*
X77140365Y-124327345D01*
X76877345Y-124590365D01*
X76735000Y-124934017D01*
X76735000Y-125305983D01*
X76877345Y-125649635D01*
X77140365Y-125912655D01*
X77484017Y-126055000D01*
X77855983Y-126055000D01*
X78199635Y-125912655D01*
X78462655Y-125649635D01*
X78605000Y-125305983D01*
X78605000Y-124934017D01*
X78555295Y-124814017D01*
X84565000Y-124814017D01*
X84565000Y-125185983D01*
X84695070Y-125500000D01*
X84565000Y-125814017D01*
X84565000Y-126185983D01*
X84695070Y-126500000D01*
X84565000Y-126814017D01*
X84565000Y-127185983D01*
X84695070Y-127500000D01*
X84565000Y-127814017D01*
X84565000Y-128185983D01*
X84707345Y-128529635D01*
X84970365Y-128792655D01*
X85314017Y-128935000D01*
X85685983Y-128935000D01*
X86029635Y-128792655D01*
X86292655Y-128529635D01*
X86435000Y-128185983D01*
X86435000Y-127814017D01*
X86304930Y-127500000D01*
X86435000Y-127185983D01*
X86435000Y-126814017D01*
X86304930Y-126500000D01*
X86435000Y-126185983D01*
X86435000Y-125814017D01*
X86424645Y-125789017D01*
X134565000Y-125789017D01*
X134565000Y-126160983D01*
X134707345Y-126504635D01*
X134970365Y-126767655D01*
X135314017Y-126910000D01*
X135343432Y-126910000D01*
X135352071Y-126922929D01*
X135603463Y-127090904D01*
X135825148Y-127135000D01*
X135825152Y-127135000D01*
X135900000Y-127149888D01*
X135974848Y-127135000D01*
X139112710Y-127135000D01*
X139145365Y-127167655D01*
X139489017Y-127310000D01*
X139860983Y-127310000D01*
X140204635Y-127167655D01*
X140467655Y-126904635D01*
X140610000Y-126560983D01*
X140610000Y-126189017D01*
X140467655Y-125845365D01*
X140204635Y-125582345D01*
X139860983Y-125440000D01*
X139489017Y-125440000D01*
X139145365Y-125582345D01*
X139112710Y-125615000D01*
X136362920Y-125615000D01*
X136292655Y-125445365D01*
X136029635Y-125182345D01*
X135685983Y-125040000D01*
X135314017Y-125040000D01*
X134970365Y-125182345D01*
X134707345Y-125445365D01*
X134565000Y-125789017D01*
X86424645Y-125789017D01*
X86304930Y-125500000D01*
X86435000Y-125185983D01*
X86435000Y-124814017D01*
X86292655Y-124470365D01*
X86029635Y-124207345D01*
X85685983Y-124065000D01*
X85314017Y-124065000D01*
X84970365Y-124207345D01*
X84707345Y-124470365D01*
X84565000Y-124814017D01*
X78555295Y-124814017D01*
X78462655Y-124590365D01*
X78199635Y-124327345D01*
X77855983Y-124185000D01*
X77735689Y-124185000D01*
X77789635Y-124162655D01*
X78052655Y-123899635D01*
X78195000Y-123555983D01*
X78195000Y-123184017D01*
X78052655Y-122840365D01*
X78026307Y-122814017D01*
X118195000Y-122814017D01*
X118195000Y-123185983D01*
X118337345Y-123529635D01*
X118600365Y-123792655D01*
X118944017Y-123935000D01*
X119315983Y-123935000D01*
X119659635Y-123792655D01*
X119692290Y-123760000D01*
X124185199Y-123760000D01*
X124865000Y-124439802D01*
X124865000Y-124485983D01*
X125007345Y-124829635D01*
X125270365Y-125092655D01*
X125614017Y-125235000D01*
X125985983Y-125235000D01*
X126329635Y-125092655D01*
X126592655Y-124829635D01*
X126735000Y-124485983D01*
X126735000Y-124114017D01*
X126592655Y-123770365D01*
X126329635Y-123507345D01*
X125985983Y-123365000D01*
X125939802Y-123365000D01*
X125090331Y-122515530D01*
X125047929Y-122452071D01*
X124796537Y-122284096D01*
X124574852Y-122240000D01*
X124574847Y-122240000D01*
X124500000Y-122225112D01*
X124425153Y-122240000D01*
X120359125Y-122240000D01*
X120308852Y-122230000D01*
X119682290Y-122230000D01*
X119659635Y-122207345D01*
X119315983Y-122065000D01*
X118944017Y-122065000D01*
X118600365Y-122207345D01*
X118337345Y-122470365D01*
X118195000Y-122814017D01*
X78026307Y-122814017D01*
X78020000Y-122807710D01*
X78020000Y-122516862D01*
X78063765Y-122508157D01*
X78273809Y-122367809D01*
X78414157Y-122157765D01*
X78463440Y-121910000D01*
X78463440Y-121510000D01*
X78414157Y-121262235D01*
X78404701Y-121248084D01*
X78451000Y-121136309D01*
X78451000Y-121068750D01*
X78292250Y-120910000D01*
X78054500Y-120910000D01*
X77816000Y-120862560D01*
X77216000Y-120862560D01*
X76977500Y-120910000D01*
X76784500Y-120910000D01*
X76546000Y-120862560D01*
X75946000Y-120862560D01*
X75707500Y-120910000D01*
X75528500Y-120910000D01*
X75290000Y-120862560D01*
X74690000Y-120862560D01*
X74451500Y-120910000D01*
X74258500Y-120910000D01*
X74020000Y-120862560D01*
X73420000Y-120862560D01*
X73181500Y-120910000D01*
X72968500Y-120910000D01*
X72730000Y-120862560D01*
X72130000Y-120862560D01*
X71891500Y-120910000D01*
X71653750Y-120910000D01*
X71495000Y-121068750D01*
X71495000Y-121136309D01*
X71541299Y-121248084D01*
X71531843Y-121262235D01*
X71482560Y-121510000D01*
X61215346Y-121510000D01*
X61275000Y-121365983D01*
X61275000Y-120994017D01*
X61132655Y-120650365D01*
X60965981Y-120483691D01*
X71495000Y-120483691D01*
X71495000Y-120551250D01*
X71653750Y-120710000D01*
X72303000Y-120710000D01*
X72303000Y-120133750D01*
X72557000Y-120133750D01*
X72557000Y-120710000D01*
X73593000Y-120710000D01*
X73593000Y-120133750D01*
X73847000Y-120133750D01*
X73847000Y-120710000D01*
X74863000Y-120710000D01*
X74863000Y-120133750D01*
X75117000Y-120133750D01*
X75117000Y-120710000D01*
X76119000Y-120710000D01*
X76119000Y-120133750D01*
X76373000Y-120133750D01*
X76373000Y-120710000D01*
X77389000Y-120710000D01*
X77389000Y-120133750D01*
X77643000Y-120133750D01*
X77643000Y-120710000D01*
X78292250Y-120710000D01*
X78451000Y-120551250D01*
X78451000Y-120483691D01*
X78354327Y-120250302D01*
X78175699Y-120071673D01*
X78088974Y-120035750D01*
X91215000Y-120035750D01*
X91215000Y-121276309D01*
X91311673Y-121509698D01*
X91490301Y-121688327D01*
X91723690Y-121785000D01*
X92964250Y-121785000D01*
X93123000Y-121626250D01*
X93123000Y-119877000D01*
X93377000Y-119877000D01*
X93377000Y-121626250D01*
X93535750Y-121785000D01*
X94776310Y-121785000D01*
X95009699Y-121688327D01*
X95188327Y-121509698D01*
X95285000Y-121276309D01*
X95285000Y-120035750D01*
X95126250Y-119877000D01*
X93377000Y-119877000D01*
X93123000Y-119877000D01*
X91373750Y-119877000D01*
X91215000Y-120035750D01*
X78088974Y-120035750D01*
X77942310Y-119975000D01*
X77801750Y-119975000D01*
X77643000Y-120133750D01*
X77389000Y-120133750D01*
X77230250Y-119975000D01*
X77089690Y-119975000D01*
X76881000Y-120061442D01*
X76672310Y-119975000D01*
X76531750Y-119975000D01*
X76373000Y-120133750D01*
X76119000Y-120133750D01*
X75960250Y-119975000D01*
X75819690Y-119975000D01*
X75618000Y-120058543D01*
X75416310Y-119975000D01*
X75275750Y-119975000D01*
X75117000Y-120133750D01*
X74863000Y-120133750D01*
X74704250Y-119975000D01*
X74563690Y-119975000D01*
X74355000Y-120061442D01*
X74146310Y-119975000D01*
X74005750Y-119975000D01*
X73847000Y-120133750D01*
X73593000Y-120133750D01*
X73434250Y-119975000D01*
X73293690Y-119975000D01*
X73075000Y-120065584D01*
X72856310Y-119975000D01*
X72715750Y-119975000D01*
X72557000Y-120133750D01*
X72303000Y-120133750D01*
X72144250Y-119975000D01*
X72003690Y-119975000D01*
X71770301Y-120071673D01*
X71591673Y-120250302D01*
X71495000Y-120483691D01*
X60965981Y-120483691D01*
X60869635Y-120387345D01*
X60525983Y-120245000D01*
X60310800Y-120245000D01*
X60773210Y-119782590D01*
X61036160Y-119147771D01*
X61036160Y-118460649D01*
X60867728Y-118054017D01*
X63045000Y-118054017D01*
X63045000Y-118425983D01*
X63187345Y-118769635D01*
X63450365Y-119032655D01*
X63794017Y-119175000D01*
X64165983Y-119175000D01*
X64509635Y-119032655D01*
X64715000Y-118827290D01*
X64920365Y-119032655D01*
X65264017Y-119175000D01*
X65635983Y-119175000D01*
X65979635Y-119032655D01*
X66242655Y-118769635D01*
X66385000Y-118425983D01*
X66385000Y-118223691D01*
X91215000Y-118223691D01*
X91215000Y-119464250D01*
X91373750Y-119623000D01*
X93123000Y-119623000D01*
X93123000Y-117873750D01*
X93377000Y-117873750D01*
X93377000Y-119623000D01*
X95126250Y-119623000D01*
X95285000Y-119464250D01*
X95285000Y-119345213D01*
X96715000Y-119345213D01*
X96715000Y-120154787D01*
X97024810Y-120902735D01*
X97597265Y-121475190D01*
X98345213Y-121785000D01*
X99154787Y-121785000D01*
X99902735Y-121475190D01*
X100475190Y-120902735D01*
X100785000Y-120154787D01*
X100785000Y-119345213D01*
X100475190Y-118597265D01*
X99902735Y-118024810D01*
X99154787Y-117715000D01*
X98345213Y-117715000D01*
X97597265Y-118024810D01*
X97024810Y-118597265D01*
X96715000Y-119345213D01*
X95285000Y-119345213D01*
X95285000Y-118223691D01*
X95188327Y-117990302D01*
X95009699Y-117811673D01*
X94776310Y-117715000D01*
X93535750Y-117715000D01*
X93377000Y-117873750D01*
X93123000Y-117873750D01*
X92964250Y-117715000D01*
X91723690Y-117715000D01*
X91490301Y-117811673D01*
X91311673Y-117990302D01*
X91215000Y-118223691D01*
X66385000Y-118223691D01*
X66385000Y-118054017D01*
X66242655Y-117710365D01*
X65979635Y-117447345D01*
X65635983Y-117305000D01*
X65264017Y-117305000D01*
X64920365Y-117447345D01*
X64715000Y-117652710D01*
X64509635Y-117447345D01*
X64165983Y-117305000D01*
X63794017Y-117305000D01*
X63450365Y-117447345D01*
X63187345Y-117710365D01*
X63045000Y-118054017D01*
X60867728Y-118054017D01*
X60773210Y-117825830D01*
X60287340Y-117339960D01*
X59652521Y-117077010D01*
X58965399Y-117077010D01*
X58467534Y-117283232D01*
X58543959Y-117098725D01*
X58543959Y-116189695D01*
X58196089Y-115349861D01*
X57553308Y-114707080D01*
X56713474Y-114359210D01*
X55804444Y-114359210D01*
X54964610Y-114707080D01*
X54321829Y-115349861D01*
X53973959Y-116189695D01*
X53973959Y-116455426D01*
X53638853Y-116120320D01*
X53146714Y-115916470D01*
X52614026Y-115916470D01*
X52121887Y-116120320D01*
X51745220Y-116496987D01*
X51541370Y-116989126D01*
X50838000Y-116989126D01*
X50838000Y-115946364D01*
X51094526Y-116052620D01*
X51627214Y-116052620D01*
X52119353Y-115848770D01*
X52496020Y-115472103D01*
X52699870Y-114979964D01*
X52699870Y-114447276D01*
X52496020Y-113955137D01*
X52119353Y-113578470D01*
X51627214Y-113374620D01*
X51094526Y-113374620D01*
X50838000Y-113480876D01*
X50838000Y-106877276D01*
X51541870Y-106877276D01*
X51541870Y-107409964D01*
X51745720Y-107902103D01*
X52122387Y-108278770D01*
X52614526Y-108482620D01*
X53147214Y-108482620D01*
X53639353Y-108278770D01*
X54016020Y-107902103D01*
X54219870Y-107409964D01*
X54219870Y-106877276D01*
X54016020Y-106385137D01*
X53639353Y-106008470D01*
X53147214Y-105804620D01*
X52614526Y-105804620D01*
X52122387Y-106008470D01*
X51745720Y-106385137D01*
X51541870Y-106877276D01*
X50838000Y-106877276D01*
X50838000Y-105838421D01*
X51094026Y-105944470D01*
X51626714Y-105944470D01*
X52118853Y-105740620D01*
X52495520Y-105363953D01*
X52699370Y-104871814D01*
X52699370Y-104759695D01*
X53973959Y-104759695D01*
X53973959Y-105668725D01*
X54321829Y-106508559D01*
X54964610Y-107151340D01*
X55804444Y-107499210D01*
X56713474Y-107499210D01*
X57553308Y-107151340D01*
X58196089Y-106508559D01*
X58312048Y-106228608D01*
X61323960Y-106228608D01*
X61323960Y-106739812D01*
X61519589Y-107212104D01*
X61881066Y-107573581D01*
X62317145Y-107754210D01*
X61881066Y-107934839D01*
X61519589Y-108296316D01*
X61323960Y-108768608D01*
X61323960Y-109279812D01*
X61519589Y-109752104D01*
X61881066Y-110113581D01*
X62317143Y-110294210D01*
X61881066Y-110474838D01*
X61519589Y-110836315D01*
X61323960Y-111308607D01*
X61323960Y-111819811D01*
X61519589Y-112292103D01*
X61881066Y-112653580D01*
X62317146Y-112834210D01*
X61881066Y-113014839D01*
X61519589Y-113376316D01*
X61323960Y-113848608D01*
X61323960Y-114359812D01*
X61519589Y-114832104D01*
X61881066Y-115193581D01*
X62353358Y-115389210D01*
X62864562Y-115389210D01*
X63336854Y-115193581D01*
X63698331Y-114832104D01*
X63893960Y-114359812D01*
X63893960Y-113848608D01*
X63698331Y-113376316D01*
X63336854Y-113014839D01*
X62900774Y-112834210D01*
X63336854Y-112653580D01*
X63698331Y-112292103D01*
X63893960Y-111819811D01*
X63893960Y-111308607D01*
X63698331Y-110836315D01*
X63336854Y-110474838D01*
X62900777Y-110294210D01*
X63336854Y-110113581D01*
X63698331Y-109752104D01*
X63893960Y-109279812D01*
X63893960Y-108768608D01*
X63698331Y-108296316D01*
X63336854Y-107934839D01*
X62900775Y-107754210D01*
X63336854Y-107573581D01*
X63411827Y-107498608D01*
X63863960Y-107498608D01*
X63863960Y-108009812D01*
X64059589Y-108482104D01*
X64421066Y-108843581D01*
X64857143Y-109024210D01*
X64421066Y-109204838D01*
X64059589Y-109566315D01*
X63863960Y-110038607D01*
X63863960Y-110549811D01*
X64059589Y-111022103D01*
X64421066Y-111383580D01*
X64857146Y-111564209D01*
X64421066Y-111744839D01*
X64059589Y-112106316D01*
X63863960Y-112578608D01*
X63863960Y-113089812D01*
X64059589Y-113562104D01*
X64421066Y-113923581D01*
X64857145Y-114104210D01*
X64421066Y-114284839D01*
X64059589Y-114646316D01*
X63863960Y-115118608D01*
X63863960Y-115629812D01*
X64059589Y-116102104D01*
X64421066Y-116463581D01*
X64893358Y-116659210D01*
X65404562Y-116659210D01*
X65876854Y-116463581D01*
X66238331Y-116102104D01*
X66433960Y-115629812D01*
X66433960Y-115118608D01*
X66238331Y-114646316D01*
X65876854Y-114284839D01*
X65440775Y-114104210D01*
X65876854Y-113923581D01*
X66238331Y-113562104D01*
X66433960Y-113089812D01*
X66433960Y-113035750D01*
X85965000Y-113035750D01*
X85965000Y-114276309D01*
X86061673Y-114509698D01*
X86240301Y-114688327D01*
X86473690Y-114785000D01*
X87714250Y-114785000D01*
X87873000Y-114626250D01*
X87873000Y-112877000D01*
X88127000Y-112877000D01*
X88127000Y-114626250D01*
X88285750Y-114785000D01*
X89526310Y-114785000D01*
X89759699Y-114688327D01*
X89938327Y-114509698D01*
X90035000Y-114276309D01*
X90035000Y-113035750D01*
X89876250Y-112877000D01*
X88127000Y-112877000D01*
X87873000Y-112877000D01*
X86123750Y-112877000D01*
X85965000Y-113035750D01*
X66433960Y-113035750D01*
X66433960Y-112578608D01*
X66238331Y-112106316D01*
X65876854Y-111744839D01*
X65440774Y-111564209D01*
X65876854Y-111383580D01*
X66036743Y-111223691D01*
X85965000Y-111223691D01*
X85965000Y-112464250D01*
X86123750Y-112623000D01*
X87873000Y-112623000D01*
X87873000Y-110873750D01*
X88127000Y-110873750D01*
X88127000Y-112623000D01*
X89876250Y-112623000D01*
X90035000Y-112464250D01*
X90035000Y-112345213D01*
X91465000Y-112345213D01*
X91465000Y-113154787D01*
X91774810Y-113902735D01*
X92347265Y-114475190D01*
X93095213Y-114785000D01*
X93904787Y-114785000D01*
X94652735Y-114475190D01*
X95225190Y-113902735D01*
X95257181Y-113825501D01*
X113501000Y-113825501D01*
X113501000Y-114886499D01*
X113907026Y-115866734D01*
X114657266Y-116616974D01*
X115637501Y-117023000D01*
X116698499Y-117023000D01*
X117678734Y-116616974D01*
X118428974Y-115866734D01*
X118835000Y-114886499D01*
X118835000Y-113825501D01*
X118428974Y-112845266D01*
X117678734Y-112095026D01*
X116698499Y-111689000D01*
X115637501Y-111689000D01*
X114657266Y-112095026D01*
X113907026Y-112845266D01*
X113501000Y-113825501D01*
X95257181Y-113825501D01*
X95535000Y-113154787D01*
X95535000Y-112345213D01*
X95225190Y-111597265D01*
X94652735Y-111024810D01*
X93904787Y-110715000D01*
X93095213Y-110715000D01*
X92347265Y-111024810D01*
X91774810Y-111597265D01*
X91465000Y-112345213D01*
X90035000Y-112345213D01*
X90035000Y-111223691D01*
X89938327Y-110990302D01*
X89759699Y-110811673D01*
X89526310Y-110715000D01*
X88285750Y-110715000D01*
X88127000Y-110873750D01*
X87873000Y-110873750D01*
X87714250Y-110715000D01*
X86473690Y-110715000D01*
X86240301Y-110811673D01*
X86061673Y-110990302D01*
X85965000Y-111223691D01*
X66036743Y-111223691D01*
X66238331Y-111022103D01*
X66433960Y-110549811D01*
X66433960Y-110038607D01*
X66238331Y-109566315D01*
X65876854Y-109204838D01*
X65440777Y-109024210D01*
X65876854Y-108843581D01*
X66238331Y-108482104D01*
X66433960Y-108009812D01*
X66433960Y-107498608D01*
X66238331Y-107026316D01*
X65876854Y-106664839D01*
X65404562Y-106469210D01*
X64893358Y-106469210D01*
X64421066Y-106664839D01*
X64059589Y-107026316D01*
X63863960Y-107498608D01*
X63411827Y-107498608D01*
X63698331Y-107212104D01*
X63893960Y-106739812D01*
X63893960Y-106228608D01*
X63743660Y-105865750D01*
X82085000Y-105865750D01*
X82085000Y-107106309D01*
X82181673Y-107339698D01*
X82360301Y-107518327D01*
X82593690Y-107615000D01*
X83834250Y-107615000D01*
X83993000Y-107456250D01*
X83993000Y-105707000D01*
X84247000Y-105707000D01*
X84247000Y-107456250D01*
X84405750Y-107615000D01*
X85646310Y-107615000D01*
X85879699Y-107518327D01*
X86058327Y-107339698D01*
X86155000Y-107106309D01*
X86155000Y-105865750D01*
X85996250Y-105707000D01*
X84247000Y-105707000D01*
X83993000Y-105707000D01*
X82243750Y-105707000D01*
X82085000Y-105865750D01*
X63743660Y-105865750D01*
X63698331Y-105756316D01*
X63336854Y-105394839D01*
X62864562Y-105199210D01*
X62353358Y-105199210D01*
X61881066Y-105394839D01*
X61519589Y-105756316D01*
X61323960Y-106228608D01*
X58312048Y-106228608D01*
X58543959Y-105668725D01*
X58543959Y-104759695D01*
X58467534Y-104575188D01*
X58965399Y-104781410D01*
X59652521Y-104781410D01*
X60287340Y-104518460D01*
X60752109Y-104053691D01*
X82085000Y-104053691D01*
X82085000Y-105294250D01*
X82243750Y-105453000D01*
X83993000Y-105453000D01*
X83993000Y-103703750D01*
X84247000Y-103703750D01*
X84247000Y-105453000D01*
X85996250Y-105453000D01*
X86155000Y-105294250D01*
X86155000Y-105175213D01*
X87585000Y-105175213D01*
X87585000Y-105984787D01*
X87894810Y-106732735D01*
X88467265Y-107305190D01*
X89215213Y-107615000D01*
X90024787Y-107615000D01*
X90772735Y-107305190D01*
X91345190Y-106732735D01*
X91655000Y-105984787D01*
X91655000Y-105175213D01*
X91345190Y-104427265D01*
X90772735Y-103854810D01*
X90024787Y-103545000D01*
X89215213Y-103545000D01*
X88467265Y-103854810D01*
X87894810Y-104427265D01*
X87585000Y-105175213D01*
X86155000Y-105175213D01*
X86155000Y-104053691D01*
X86058327Y-103820302D01*
X85879699Y-103641673D01*
X85646310Y-103545000D01*
X84405750Y-103545000D01*
X84247000Y-103703750D01*
X83993000Y-103703750D01*
X83834250Y-103545000D01*
X82593690Y-103545000D01*
X82360301Y-103641673D01*
X82181673Y-103820302D01*
X82085000Y-104053691D01*
X60752109Y-104053691D01*
X60773210Y-104032590D01*
X61036160Y-103397771D01*
X61036160Y-102710649D01*
X60773210Y-102075830D01*
X60287340Y-101589960D01*
X59652521Y-101327010D01*
X58965399Y-101327010D01*
X58330580Y-101589960D01*
X57844710Y-102075830D01*
X57581760Y-102710649D01*
X57581760Y-103305532D01*
X57553308Y-103277080D01*
X56713474Y-102929210D01*
X55804444Y-102929210D01*
X54964610Y-103277080D01*
X54321829Y-103919861D01*
X53973959Y-104759695D01*
X52699370Y-104759695D01*
X52699370Y-104339126D01*
X52495520Y-103846987D01*
X52118853Y-103470320D01*
X51626714Y-103266470D01*
X51094026Y-103266470D01*
X50838000Y-103372519D01*
X50838000Y-97286000D01*
X63426292Y-97286000D01*
X63107026Y-97605266D01*
G04 #@! TD*
M02*
