G04 #@! TF.GenerationSoftware,KiCad,Pcbnew,(5.0.2)-1*
G04 #@! TF.CreationDate,2019-06-14T17:16:18-02:30*
G04 #@! TF.ProjectId,arduinoShield,61726475-696e-46f5-9368-69656c642e6b,rev?*
G04 #@! TF.SameCoordinates,Original*
G04 #@! TF.FileFunction,Paste,Top*
G04 #@! TF.FilePolarity,Positive*
%FSLAX46Y46*%
G04 Gerber Fmt 4.6, Leading zero omitted, Abs format (unit mm)*
G04 Created by KiCad (PCBNEW (5.0.2)-1) date 6/14/2019 5:16:18 PM*
%MOMM*%
%LPD*%
G01*
G04 APERTURE LIST*
%ADD10R,1.524000X2.032000*%
%ADD11R,0.500000X0.600000*%
%ADD12R,0.600000X0.500000*%
%ADD13R,0.600000X0.400000*%
%ADD14R,0.400000X0.600000*%
%ADD15R,1.060000X0.650000*%
%ADD16R,1.900000X2.500000*%
%ADD17R,0.300000X1.475000*%
%ADD18R,1.475000X0.300000*%
%ADD19R,1.300000X0.700000*%
%ADD20R,0.900000X0.500000*%
%ADD21R,0.500000X0.900000*%
%ADD22C,0.900000*%
%ADD23C,0.100000*%
%ADD24R,0.700000X1.300000*%
%ADD25R,1.000000X1.200000*%
G04 APERTURE END LIST*
D10*
G04 #@! TO.C,U3*
X139425329Y-121630708D03*
X136885329Y-121630708D03*
X134345329Y-121630708D03*
X131805329Y-121630708D03*
X131805329Y-114010708D03*
X134345329Y-114010708D03*
X136885329Y-114010708D03*
X139425329Y-114010708D03*
G04 #@! TD*
D11*
G04 #@! TO.C,C1*
X84180000Y-132980000D03*
X84180000Y-134080000D03*
G04 #@! TD*
G04 #@! TO.C,C2*
X95540000Y-136650000D03*
X95540000Y-137750000D03*
G04 #@! TD*
D12*
G04 #@! TO.C,C3*
X90830000Y-136680000D03*
X89730000Y-136680000D03*
G04 #@! TD*
D11*
G04 #@! TO.C,C5*
X69920000Y-138820000D03*
X69920000Y-137720000D03*
G04 #@! TD*
G04 #@! TO.C,C7*
X67370000Y-134170000D03*
X67370000Y-135270000D03*
G04 #@! TD*
D12*
G04 #@! TO.C,C8*
X54735893Y-122584854D03*
X53635893Y-122584854D03*
G04 #@! TD*
D11*
G04 #@! TO.C,C9*
X71120000Y-137710000D03*
X71120000Y-138810000D03*
G04 #@! TD*
D12*
G04 #@! TO.C,C10*
X64290000Y-130740000D03*
X65390000Y-130740000D03*
G04 #@! TD*
D11*
G04 #@! TO.C,C11*
X75782000Y-138410000D03*
X75782000Y-137310000D03*
G04 #@! TD*
G04 #@! TO.C,C13*
X59940000Y-125230000D03*
X59940000Y-124130000D03*
G04 #@! TD*
G04 #@! TO.C,C14*
X61370000Y-124070000D03*
X61370000Y-125170000D03*
G04 #@! TD*
G04 #@! TO.C,C15*
X58100000Y-99160000D03*
X58100000Y-100260000D03*
G04 #@! TD*
D13*
G04 #@! TO.C,FB2*
X56630000Y-99280000D03*
X56630000Y-100180000D03*
G04 #@! TD*
D14*
G04 #@! TO.C,R1*
X135360000Y-104360000D03*
X134460000Y-104360000D03*
G04 #@! TD*
D13*
G04 #@! TO.C,R2*
X129593742Y-116424088D03*
X129593742Y-117324088D03*
G04 #@! TD*
D14*
G04 #@! TO.C,R3*
X87330000Y-136680000D03*
X88230000Y-136680000D03*
G04 #@! TD*
G04 #@! TO.C,R4*
X89820000Y-128820000D03*
X90720000Y-128820000D03*
G04 #@! TD*
G04 #@! TO.C,R5*
X56560000Y-123070000D03*
X57460000Y-123070000D03*
G04 #@! TD*
G04 #@! TO.C,R6*
X59200000Y-121330000D03*
X58300000Y-121330000D03*
G04 #@! TD*
D13*
G04 #@! TO.C,R7*
X81450000Y-123000000D03*
X81450000Y-122100000D03*
G04 #@! TD*
D14*
G04 #@! TO.C,R8*
X81550000Y-131730000D03*
X80650000Y-131730000D03*
G04 #@! TD*
D13*
G04 #@! TO.C,R9*
X80490000Y-119930000D03*
X80490000Y-120830000D03*
G04 #@! TD*
D14*
G04 #@! TO.C,R19*
X65360000Y-132860000D03*
X64460000Y-132860000D03*
G04 #@! TD*
G04 #@! TO.C,R20*
X63190000Y-127760000D03*
X62290000Y-127760000D03*
G04 #@! TD*
G04 #@! TO.C,R21*
X63260000Y-129220000D03*
X62360000Y-129220000D03*
G04 #@! TD*
G04 #@! TO.C,R22*
X60020000Y-126630000D03*
X59120000Y-126630000D03*
G04 #@! TD*
G04 #@! TO.C,R23*
X66340000Y-123160000D03*
X65440000Y-123160000D03*
G04 #@! TD*
G04 #@! TO.C,R24*
X66080000Y-121710000D03*
X66980000Y-121710000D03*
G04 #@! TD*
G04 #@! TO.C,R25*
X62110000Y-126630000D03*
X61210000Y-126630000D03*
G04 #@! TD*
G04 #@! TO.C,R26*
X63950000Y-123170000D03*
X63050000Y-123170000D03*
G04 #@! TD*
D13*
G04 #@! TO.C,R27*
X66100000Y-119480000D03*
X66100000Y-120380000D03*
G04 #@! TD*
G04 #@! TO.C,R28*
X59760000Y-99340000D03*
X59760000Y-100240000D03*
G04 #@! TD*
D15*
G04 #@! TO.C,U1*
X134756258Y-108735912D03*
X134756258Y-106835912D03*
X136956258Y-106835912D03*
X136956258Y-107785912D03*
X136956258Y-108735912D03*
G04 #@! TD*
D10*
G04 #@! TO.C,U2*
X120894993Y-111509007D03*
X123434993Y-111509007D03*
X125974993Y-111509007D03*
X128514993Y-111509007D03*
X128514993Y-103889007D03*
X125974993Y-103889007D03*
X123434993Y-103889007D03*
X120894993Y-103889007D03*
G04 #@! TD*
D16*
G04 #@! TO.C,Y1*
X90940000Y-133670000D03*
X86540000Y-133670000D03*
G04 #@! TD*
D17*
G04 #@! TO.C,U4*
X70626000Y-124888000D03*
X71126000Y-124888000D03*
X71626000Y-124888000D03*
X72126000Y-124888000D03*
X72626000Y-124888000D03*
X73126000Y-124888000D03*
X73626000Y-124888000D03*
X74126000Y-124888000D03*
X74626000Y-124888000D03*
X75126000Y-124888000D03*
X75626000Y-124888000D03*
X76126000Y-124888000D03*
D18*
X77614000Y-126376000D03*
X77614000Y-126876000D03*
X77614000Y-127376000D03*
X77614000Y-127876000D03*
X77614000Y-128376000D03*
X77614000Y-128876000D03*
X77614000Y-129376000D03*
X77614000Y-129876000D03*
X77614000Y-130376000D03*
X77614000Y-130876000D03*
X77614000Y-131376000D03*
X77614000Y-131876000D03*
D17*
X76126000Y-133364000D03*
X75626000Y-133364000D03*
X75126000Y-133364000D03*
X74626000Y-133364000D03*
X74126000Y-133364000D03*
X73626000Y-133364000D03*
X73126000Y-133364000D03*
X72626000Y-133364000D03*
X72126000Y-133364000D03*
X71626000Y-133364000D03*
X71126000Y-133364000D03*
X70626000Y-133364000D03*
D18*
X69138000Y-131876000D03*
X69138000Y-131376000D03*
X69138000Y-130876000D03*
X69138000Y-130376000D03*
X69138000Y-129876000D03*
X69138000Y-129376000D03*
X69138000Y-128876000D03*
X69138000Y-128376000D03*
X69138000Y-127876000D03*
X69138000Y-127376000D03*
X69138000Y-126876000D03*
X69138000Y-126376000D03*
G04 #@! TD*
D19*
G04 #@! TO.C,R17*
X74140000Y-119630000D03*
X74140000Y-117730000D03*
G04 #@! TD*
G04 #@! TO.C,R16*
X70350000Y-117710000D03*
X70350000Y-119610000D03*
G04 #@! TD*
G04 #@! TO.C,R18*
X77880000Y-119650000D03*
X77880000Y-117750000D03*
G04 #@! TD*
D20*
G04 #@! TO.C,R29*
X96080000Y-104060000D03*
X96080000Y-105560000D03*
G04 #@! TD*
D21*
G04 #@! TO.C,R30*
X111080000Y-110810000D03*
X112580000Y-110810000D03*
G04 #@! TD*
D20*
G04 #@! TO.C,R31*
X118840000Y-119530000D03*
X118840000Y-121030000D03*
G04 #@! TD*
G04 #@! TO.C,R32*
X97920000Y-105520000D03*
X97920000Y-104020000D03*
G04 #@! TD*
D21*
G04 #@! TO.C,R33*
X112580000Y-112770000D03*
X111080000Y-112770000D03*
G04 #@! TD*
D20*
G04 #@! TO.C,R34*
X116220000Y-121100000D03*
X116220000Y-119600000D03*
G04 #@! TD*
D22*
G04 #@! TO.C,FB1*
X95168314Y-127687770D03*
D23*
G36*
X94730144Y-126831612D02*
X96122703Y-127806692D01*
X95606484Y-128543928D01*
X94213925Y-127568848D01*
X94730144Y-126831612D01*
X94730144Y-126831612D01*
G37*
D22*
X96831686Y-125312230D03*
D23*
G36*
X96393516Y-124456072D02*
X97786075Y-125431152D01*
X97269856Y-126168388D01*
X95877297Y-125193308D01*
X96393516Y-124456072D01*
X96393516Y-124456072D01*
G37*
G04 #@! TD*
D19*
G04 #@! TO.C,R35*
X126280000Y-142840000D03*
X126280000Y-140940000D03*
G04 #@! TD*
D24*
G04 #@! TO.C,R36*
X132780000Y-142780000D03*
X130880000Y-142780000D03*
G04 #@! TD*
D25*
G04 #@! TO.C,D1*
X133500000Y-139750000D03*
X135500000Y-139750000D03*
G04 #@! TD*
D21*
G04 #@! TO.C,R37*
X137525001Y-139750000D03*
X139025001Y-139750000D03*
G04 #@! TD*
D14*
G04 #@! TO.C,R38*
X83350000Y-128000000D03*
X84250000Y-128000000D03*
G04 #@! TD*
G04 #@! TO.C,R39*
X84250000Y-126500000D03*
X83350000Y-126500000D03*
G04 #@! TD*
G04 #@! TO.C,R40*
X84200000Y-125000000D03*
X83300000Y-125000000D03*
G04 #@! TD*
M02*
