G04 #@! TF.GenerationSoftware,KiCad,Pcbnew,(5.0.2)-1*
G04 #@! TF.CreationDate,2019-06-14T17:16:18-02:30*
G04 #@! TF.ProjectId,arduinoShield,61726475-696e-46f5-9368-69656c642e6b,rev?*
G04 #@! TF.SameCoordinates,Original*
G04 #@! TF.FileFunction,Soldermask,Top*
G04 #@! TF.FilePolarity,Negative*
%FSLAX46Y46*%
G04 Gerber Fmt 4.6, Leading zero omitted, Abs format (unit mm)*
G04 Created by KiCad (PCBNEW (5.0.2)-1) date 6/14/2019 5:16:18 PM*
%MOMM*%
%LPD*%
G01*
G04 APERTURE LIST*
%ADD10C,0.100000*%
G04 APERTURE END LIST*
D10*
G36*
X147240712Y-145422088D02*
X147610510Y-145575263D01*
X147610513Y-145575265D01*
X147943325Y-145797643D01*
X148226357Y-146080675D01*
X148410204Y-146355822D01*
X148448737Y-146413490D01*
X148601912Y-146783288D01*
X148680000Y-147175864D01*
X148680000Y-147576136D01*
X148601912Y-147968712D01*
X148448737Y-148338510D01*
X148448735Y-148338513D01*
X148226357Y-148671325D01*
X147943325Y-148954357D01*
X147610513Y-149176735D01*
X147610510Y-149176737D01*
X147240712Y-149329912D01*
X146848136Y-149408000D01*
X146447864Y-149408000D01*
X146055288Y-149329912D01*
X145685490Y-149176737D01*
X145685487Y-149176735D01*
X145352675Y-148954357D01*
X145069643Y-148671325D01*
X144847265Y-148338513D01*
X144847263Y-148338510D01*
X144694088Y-147968712D01*
X144616000Y-147576136D01*
X144616000Y-147175864D01*
X144694088Y-146783288D01*
X144847263Y-146413490D01*
X144885796Y-146355822D01*
X145069643Y-146080675D01*
X145352675Y-145797643D01*
X145685487Y-145575265D01*
X145685490Y-145575263D01*
X146055288Y-145422088D01*
X146447864Y-145344000D01*
X146848136Y-145344000D01*
X147240712Y-145422088D01*
X147240712Y-145422088D01*
G37*
G36*
X64690712Y-145422088D02*
X65060510Y-145575263D01*
X65060513Y-145575265D01*
X65393325Y-145797643D01*
X65676357Y-146080675D01*
X65860204Y-146355822D01*
X65898737Y-146413490D01*
X66051912Y-146783288D01*
X66130000Y-147175864D01*
X66130000Y-147576136D01*
X66051912Y-147968712D01*
X65898737Y-148338510D01*
X65898735Y-148338513D01*
X65676357Y-148671325D01*
X65393325Y-148954357D01*
X65060513Y-149176735D01*
X65060510Y-149176737D01*
X64690712Y-149329912D01*
X64298136Y-149408000D01*
X63897864Y-149408000D01*
X63505288Y-149329912D01*
X63135490Y-149176737D01*
X63135487Y-149176735D01*
X62802675Y-148954357D01*
X62519643Y-148671325D01*
X62297265Y-148338513D01*
X62297263Y-148338510D01*
X62144088Y-147968712D01*
X62066000Y-147576136D01*
X62066000Y-147175864D01*
X62144088Y-146783288D01*
X62297263Y-146413490D01*
X62335796Y-146355822D01*
X62519643Y-146080675D01*
X62802675Y-145797643D01*
X63135487Y-145575265D01*
X63135490Y-145575263D01*
X63505288Y-145422088D01*
X63897864Y-145344000D01*
X64298136Y-145344000D01*
X64690712Y-145422088D01*
X64690712Y-145422088D01*
G37*
G36*
X78237294Y-146372496D02*
X78357726Y-146409029D01*
X78400087Y-146421879D01*
X78550112Y-146502068D01*
X78681612Y-146609988D01*
X78789532Y-146741488D01*
X78869721Y-146891512D01*
X78882571Y-146933873D01*
X78919104Y-147054305D01*
X78919104Y-147054307D01*
X78931600Y-147181179D01*
X78931600Y-147570820D01*
X78931076Y-147576136D01*
X78919104Y-147697694D01*
X78882571Y-147818128D01*
X78869721Y-147860488D01*
X78789532Y-148010512D01*
X78681612Y-148142012D01*
X78550112Y-148249932D01*
X78400088Y-148330121D01*
X78372433Y-148338510D01*
X78237295Y-148379504D01*
X78124432Y-148390620D01*
X78068001Y-148396178D01*
X78068000Y-148396178D01*
X77898706Y-148379504D01*
X77763568Y-148338510D01*
X77735913Y-148330121D01*
X77585889Y-148249932D01*
X77495946Y-148176117D01*
X77454388Y-148142012D01*
X77346469Y-148010512D01*
X77324127Y-147968713D01*
X77266279Y-147860488D01*
X77253429Y-147818127D01*
X77216896Y-147697695D01*
X77208565Y-147613112D01*
X77204400Y-147570821D01*
X77204400Y-147181180D01*
X77216896Y-147054308D01*
X77216896Y-147054306D01*
X77266278Y-146891517D01*
X77266279Y-146891513D01*
X77346468Y-146741488D01*
X77454388Y-146609988D01*
X77585888Y-146502068D01*
X77735912Y-146421879D01*
X77778273Y-146409029D01*
X77898705Y-146372496D01*
X78011568Y-146361380D01*
X78067999Y-146355822D01*
X78068000Y-146355822D01*
X78237294Y-146372496D01*
X78237294Y-146372496D01*
G37*
G36*
X141737294Y-146372496D02*
X141857726Y-146409029D01*
X141900087Y-146421879D01*
X142050112Y-146502068D01*
X142181612Y-146609988D01*
X142289532Y-146741488D01*
X142369721Y-146891512D01*
X142382571Y-146933873D01*
X142419104Y-147054305D01*
X142419104Y-147054307D01*
X142431600Y-147181179D01*
X142431600Y-147570820D01*
X142431076Y-147576136D01*
X142419104Y-147697694D01*
X142382571Y-147818128D01*
X142369721Y-147860488D01*
X142289532Y-148010512D01*
X142181612Y-148142012D01*
X142050112Y-148249932D01*
X141900088Y-148330121D01*
X141872433Y-148338510D01*
X141737295Y-148379504D01*
X141624432Y-148390620D01*
X141568001Y-148396178D01*
X141568000Y-148396178D01*
X141398706Y-148379504D01*
X141263568Y-148338510D01*
X141235913Y-148330121D01*
X141085889Y-148249932D01*
X140995946Y-148176117D01*
X140954388Y-148142012D01*
X140846469Y-148010512D01*
X140824127Y-147968713D01*
X140766279Y-147860488D01*
X140753429Y-147818127D01*
X140716896Y-147697695D01*
X140708565Y-147613112D01*
X140704400Y-147570821D01*
X140704400Y-147181180D01*
X140716896Y-147054308D01*
X140716896Y-147054306D01*
X140766278Y-146891517D01*
X140766279Y-146891513D01*
X140846468Y-146741488D01*
X140954388Y-146609988D01*
X141085888Y-146502068D01*
X141235912Y-146421879D01*
X141278273Y-146409029D01*
X141398705Y-146372496D01*
X141511568Y-146361380D01*
X141567999Y-146355822D01*
X141568000Y-146355822D01*
X141737294Y-146372496D01*
X141737294Y-146372496D01*
G37*
G36*
X139197294Y-146372496D02*
X139317726Y-146409029D01*
X139360087Y-146421879D01*
X139510112Y-146502068D01*
X139641612Y-146609988D01*
X139749532Y-146741488D01*
X139829721Y-146891512D01*
X139842571Y-146933873D01*
X139879104Y-147054305D01*
X139879104Y-147054307D01*
X139891600Y-147181179D01*
X139891600Y-147570820D01*
X139891076Y-147576136D01*
X139879104Y-147697694D01*
X139842571Y-147818128D01*
X139829721Y-147860488D01*
X139749532Y-148010512D01*
X139641612Y-148142012D01*
X139510112Y-148249932D01*
X139360088Y-148330121D01*
X139332433Y-148338510D01*
X139197295Y-148379504D01*
X139084432Y-148390620D01*
X139028001Y-148396178D01*
X139028000Y-148396178D01*
X138858706Y-148379504D01*
X138723568Y-148338510D01*
X138695913Y-148330121D01*
X138545889Y-148249932D01*
X138455946Y-148176117D01*
X138414388Y-148142012D01*
X138306469Y-148010512D01*
X138284127Y-147968713D01*
X138226279Y-147860488D01*
X138213429Y-147818127D01*
X138176896Y-147697695D01*
X138168565Y-147613112D01*
X138164400Y-147570821D01*
X138164400Y-147181180D01*
X138176896Y-147054308D01*
X138176896Y-147054306D01*
X138226278Y-146891517D01*
X138226279Y-146891513D01*
X138306468Y-146741488D01*
X138414388Y-146609988D01*
X138545888Y-146502068D01*
X138695912Y-146421879D01*
X138738273Y-146409029D01*
X138858705Y-146372496D01*
X138971568Y-146361380D01*
X139027999Y-146355822D01*
X139028000Y-146355822D01*
X139197294Y-146372496D01*
X139197294Y-146372496D01*
G37*
G36*
X134117294Y-146372496D02*
X134237726Y-146409029D01*
X134280087Y-146421879D01*
X134430112Y-146502068D01*
X134561612Y-146609988D01*
X134669532Y-146741488D01*
X134749721Y-146891512D01*
X134762571Y-146933873D01*
X134799104Y-147054305D01*
X134799104Y-147054307D01*
X134811600Y-147181179D01*
X134811600Y-147570820D01*
X134811076Y-147576136D01*
X134799104Y-147697694D01*
X134762571Y-147818128D01*
X134749721Y-147860488D01*
X134669532Y-148010512D01*
X134561612Y-148142012D01*
X134430112Y-148249932D01*
X134280088Y-148330121D01*
X134252433Y-148338510D01*
X134117295Y-148379504D01*
X134004432Y-148390620D01*
X133948001Y-148396178D01*
X133948000Y-148396178D01*
X133778706Y-148379504D01*
X133643568Y-148338510D01*
X133615913Y-148330121D01*
X133465889Y-148249932D01*
X133375946Y-148176117D01*
X133334388Y-148142012D01*
X133226469Y-148010512D01*
X133204127Y-147968713D01*
X133146279Y-147860488D01*
X133133429Y-147818127D01*
X133096896Y-147697695D01*
X133088565Y-147613112D01*
X133084400Y-147570821D01*
X133084400Y-147181180D01*
X133096896Y-147054308D01*
X133096896Y-147054306D01*
X133146278Y-146891517D01*
X133146279Y-146891513D01*
X133226468Y-146741488D01*
X133334388Y-146609988D01*
X133465888Y-146502068D01*
X133615912Y-146421879D01*
X133658273Y-146409029D01*
X133778705Y-146372496D01*
X133891568Y-146361380D01*
X133947999Y-146355822D01*
X133948000Y-146355822D01*
X134117294Y-146372496D01*
X134117294Y-146372496D01*
G37*
G36*
X131577294Y-146372496D02*
X131697726Y-146409029D01*
X131740087Y-146421879D01*
X131890112Y-146502068D01*
X132021612Y-146609988D01*
X132129532Y-146741488D01*
X132209721Y-146891512D01*
X132222571Y-146933873D01*
X132259104Y-147054305D01*
X132259104Y-147054307D01*
X132271600Y-147181179D01*
X132271600Y-147570820D01*
X132271076Y-147576136D01*
X132259104Y-147697694D01*
X132222571Y-147818128D01*
X132209721Y-147860488D01*
X132129532Y-148010512D01*
X132021612Y-148142012D01*
X131890112Y-148249932D01*
X131740088Y-148330121D01*
X131712433Y-148338510D01*
X131577295Y-148379504D01*
X131464432Y-148390620D01*
X131408001Y-148396178D01*
X131408000Y-148396178D01*
X131238706Y-148379504D01*
X131103568Y-148338510D01*
X131075913Y-148330121D01*
X130925889Y-148249932D01*
X130835946Y-148176117D01*
X130794388Y-148142012D01*
X130686469Y-148010512D01*
X130664127Y-147968713D01*
X130606279Y-147860488D01*
X130593429Y-147818127D01*
X130556896Y-147697695D01*
X130548565Y-147613112D01*
X130544400Y-147570821D01*
X130544400Y-147181180D01*
X130556896Y-147054308D01*
X130556896Y-147054306D01*
X130606278Y-146891517D01*
X130606279Y-146891513D01*
X130686468Y-146741488D01*
X130794388Y-146609988D01*
X130925888Y-146502068D01*
X131075912Y-146421879D01*
X131118273Y-146409029D01*
X131238705Y-146372496D01*
X131351568Y-146361380D01*
X131407999Y-146355822D01*
X131408000Y-146355822D01*
X131577294Y-146372496D01*
X131577294Y-146372496D01*
G37*
G36*
X129037294Y-146372496D02*
X129157726Y-146409029D01*
X129200087Y-146421879D01*
X129350112Y-146502068D01*
X129481612Y-146609988D01*
X129589532Y-146741488D01*
X129669721Y-146891512D01*
X129682571Y-146933873D01*
X129719104Y-147054305D01*
X129719104Y-147054307D01*
X129731600Y-147181179D01*
X129731600Y-147570820D01*
X129731076Y-147576136D01*
X129719104Y-147697694D01*
X129682571Y-147818128D01*
X129669721Y-147860488D01*
X129589532Y-148010512D01*
X129481612Y-148142012D01*
X129350112Y-148249932D01*
X129200088Y-148330121D01*
X129172433Y-148338510D01*
X129037295Y-148379504D01*
X128924432Y-148390620D01*
X128868001Y-148396178D01*
X128868000Y-148396178D01*
X128698706Y-148379504D01*
X128563568Y-148338510D01*
X128535913Y-148330121D01*
X128385889Y-148249932D01*
X128295946Y-148176117D01*
X128254388Y-148142012D01*
X128146469Y-148010512D01*
X128124127Y-147968713D01*
X128066279Y-147860488D01*
X128053429Y-147818127D01*
X128016896Y-147697695D01*
X128008565Y-147613112D01*
X128004400Y-147570821D01*
X128004400Y-147181180D01*
X128016896Y-147054308D01*
X128016896Y-147054306D01*
X128066278Y-146891517D01*
X128066279Y-146891513D01*
X128146468Y-146741488D01*
X128254388Y-146609988D01*
X128385888Y-146502068D01*
X128535912Y-146421879D01*
X128578273Y-146409029D01*
X128698705Y-146372496D01*
X128811568Y-146361380D01*
X128867999Y-146355822D01*
X128868000Y-146355822D01*
X129037294Y-146372496D01*
X129037294Y-146372496D01*
G37*
G36*
X126497294Y-146372496D02*
X126617726Y-146409029D01*
X126660087Y-146421879D01*
X126810112Y-146502068D01*
X126941612Y-146609988D01*
X127049532Y-146741488D01*
X127129721Y-146891512D01*
X127142571Y-146933873D01*
X127179104Y-147054305D01*
X127179104Y-147054307D01*
X127191600Y-147181179D01*
X127191600Y-147570820D01*
X127191076Y-147576136D01*
X127179104Y-147697694D01*
X127142571Y-147818128D01*
X127129721Y-147860488D01*
X127049532Y-148010512D01*
X126941612Y-148142012D01*
X126810112Y-148249932D01*
X126660088Y-148330121D01*
X126632433Y-148338510D01*
X126497295Y-148379504D01*
X126384432Y-148390620D01*
X126328001Y-148396178D01*
X126328000Y-148396178D01*
X126158706Y-148379504D01*
X126023568Y-148338510D01*
X125995913Y-148330121D01*
X125845889Y-148249932D01*
X125755946Y-148176117D01*
X125714388Y-148142012D01*
X125606469Y-148010512D01*
X125584127Y-147968713D01*
X125526279Y-147860488D01*
X125513429Y-147818127D01*
X125476896Y-147697695D01*
X125468565Y-147613112D01*
X125464400Y-147570821D01*
X125464400Y-147181180D01*
X125476896Y-147054308D01*
X125476896Y-147054306D01*
X125526278Y-146891517D01*
X125526279Y-146891513D01*
X125606468Y-146741488D01*
X125714388Y-146609988D01*
X125845888Y-146502068D01*
X125995912Y-146421879D01*
X126038273Y-146409029D01*
X126158705Y-146372496D01*
X126271568Y-146361380D01*
X126327999Y-146355822D01*
X126328000Y-146355822D01*
X126497294Y-146372496D01*
X126497294Y-146372496D01*
G37*
G36*
X123957294Y-146372496D02*
X124077726Y-146409029D01*
X124120087Y-146421879D01*
X124270112Y-146502068D01*
X124401612Y-146609988D01*
X124509532Y-146741488D01*
X124589721Y-146891512D01*
X124602571Y-146933873D01*
X124639104Y-147054305D01*
X124639104Y-147054307D01*
X124651600Y-147181179D01*
X124651600Y-147570820D01*
X124651076Y-147576136D01*
X124639104Y-147697694D01*
X124602571Y-147818128D01*
X124589721Y-147860488D01*
X124509532Y-148010512D01*
X124401612Y-148142012D01*
X124270112Y-148249932D01*
X124120088Y-148330121D01*
X124092433Y-148338510D01*
X123957295Y-148379504D01*
X123844432Y-148390620D01*
X123788001Y-148396178D01*
X123788000Y-148396178D01*
X123618706Y-148379504D01*
X123483568Y-148338510D01*
X123455913Y-148330121D01*
X123305889Y-148249932D01*
X123215946Y-148176117D01*
X123174388Y-148142012D01*
X123066469Y-148010512D01*
X123044127Y-147968713D01*
X122986279Y-147860488D01*
X122973429Y-147818127D01*
X122936896Y-147697695D01*
X122928565Y-147613112D01*
X122924400Y-147570821D01*
X122924400Y-147181180D01*
X122936896Y-147054308D01*
X122936896Y-147054306D01*
X122986278Y-146891517D01*
X122986279Y-146891513D01*
X123066468Y-146741488D01*
X123174388Y-146609988D01*
X123305888Y-146502068D01*
X123455912Y-146421879D01*
X123498273Y-146409029D01*
X123618705Y-146372496D01*
X123731568Y-146361380D01*
X123787999Y-146355822D01*
X123788000Y-146355822D01*
X123957294Y-146372496D01*
X123957294Y-146372496D01*
G37*
G36*
X118877294Y-146372496D02*
X118997726Y-146409029D01*
X119040087Y-146421879D01*
X119190112Y-146502068D01*
X119321612Y-146609988D01*
X119429532Y-146741488D01*
X119509721Y-146891512D01*
X119522571Y-146933873D01*
X119559104Y-147054305D01*
X119559104Y-147054307D01*
X119571600Y-147181179D01*
X119571600Y-147570820D01*
X119571076Y-147576136D01*
X119559104Y-147697694D01*
X119522571Y-147818128D01*
X119509721Y-147860488D01*
X119429532Y-148010512D01*
X119321612Y-148142012D01*
X119190112Y-148249932D01*
X119040088Y-148330121D01*
X119012433Y-148338510D01*
X118877295Y-148379504D01*
X118764432Y-148390620D01*
X118708001Y-148396178D01*
X118708000Y-148396178D01*
X118538706Y-148379504D01*
X118403568Y-148338510D01*
X118375913Y-148330121D01*
X118225889Y-148249932D01*
X118135946Y-148176117D01*
X118094388Y-148142012D01*
X117986469Y-148010512D01*
X117964127Y-147968713D01*
X117906279Y-147860488D01*
X117893429Y-147818127D01*
X117856896Y-147697695D01*
X117848565Y-147613112D01*
X117844400Y-147570821D01*
X117844400Y-147181180D01*
X117856896Y-147054308D01*
X117856896Y-147054306D01*
X117906278Y-146891517D01*
X117906279Y-146891513D01*
X117986468Y-146741488D01*
X118094388Y-146609988D01*
X118225888Y-146502068D01*
X118375912Y-146421879D01*
X118418273Y-146409029D01*
X118538705Y-146372496D01*
X118651568Y-146361380D01*
X118707999Y-146355822D01*
X118708000Y-146355822D01*
X118877294Y-146372496D01*
X118877294Y-146372496D01*
G37*
G36*
X116337294Y-146372496D02*
X116457726Y-146409029D01*
X116500087Y-146421879D01*
X116650112Y-146502068D01*
X116781612Y-146609988D01*
X116889532Y-146741488D01*
X116969721Y-146891512D01*
X116982571Y-146933873D01*
X117019104Y-147054305D01*
X117019104Y-147054307D01*
X117031600Y-147181179D01*
X117031600Y-147570820D01*
X117031076Y-147576136D01*
X117019104Y-147697694D01*
X116982571Y-147818128D01*
X116969721Y-147860488D01*
X116889532Y-148010512D01*
X116781612Y-148142012D01*
X116650112Y-148249932D01*
X116500088Y-148330121D01*
X116472433Y-148338510D01*
X116337295Y-148379504D01*
X116224432Y-148390620D01*
X116168001Y-148396178D01*
X116168000Y-148396178D01*
X115998706Y-148379504D01*
X115863568Y-148338510D01*
X115835913Y-148330121D01*
X115685889Y-148249932D01*
X115595946Y-148176117D01*
X115554388Y-148142012D01*
X115446469Y-148010512D01*
X115424127Y-147968713D01*
X115366279Y-147860488D01*
X115353429Y-147818127D01*
X115316896Y-147697695D01*
X115308565Y-147613112D01*
X115304400Y-147570821D01*
X115304400Y-147181180D01*
X115316896Y-147054308D01*
X115316896Y-147054306D01*
X115366278Y-146891517D01*
X115366279Y-146891513D01*
X115446468Y-146741488D01*
X115554388Y-146609988D01*
X115685888Y-146502068D01*
X115835912Y-146421879D01*
X115878273Y-146409029D01*
X115998705Y-146372496D01*
X116111568Y-146361380D01*
X116167999Y-146355822D01*
X116168000Y-146355822D01*
X116337294Y-146372496D01*
X116337294Y-146372496D01*
G37*
G36*
X136657294Y-146372496D02*
X136777726Y-146409029D01*
X136820087Y-146421879D01*
X136970112Y-146502068D01*
X137101612Y-146609988D01*
X137209532Y-146741488D01*
X137289721Y-146891512D01*
X137302571Y-146933873D01*
X137339104Y-147054305D01*
X137339104Y-147054307D01*
X137351600Y-147181179D01*
X137351600Y-147570820D01*
X137351076Y-147576136D01*
X137339104Y-147697694D01*
X137302571Y-147818128D01*
X137289721Y-147860488D01*
X137209532Y-148010512D01*
X137101612Y-148142012D01*
X136970112Y-148249932D01*
X136820088Y-148330121D01*
X136792433Y-148338510D01*
X136657295Y-148379504D01*
X136544432Y-148390620D01*
X136488001Y-148396178D01*
X136488000Y-148396178D01*
X136318706Y-148379504D01*
X136183568Y-148338510D01*
X136155913Y-148330121D01*
X136005889Y-148249932D01*
X135915946Y-148176117D01*
X135874388Y-148142012D01*
X135766469Y-148010512D01*
X135744127Y-147968713D01*
X135686279Y-147860488D01*
X135673429Y-147818127D01*
X135636896Y-147697695D01*
X135628565Y-147613112D01*
X135624400Y-147570821D01*
X135624400Y-147181180D01*
X135636896Y-147054308D01*
X135636896Y-147054306D01*
X135686278Y-146891517D01*
X135686279Y-146891513D01*
X135766468Y-146741488D01*
X135874388Y-146609988D01*
X136005888Y-146502068D01*
X136155912Y-146421879D01*
X136198273Y-146409029D01*
X136318705Y-146372496D01*
X136431568Y-146361380D01*
X136487999Y-146355822D01*
X136488000Y-146355822D01*
X136657294Y-146372496D01*
X136657294Y-146372496D01*
G37*
G36*
X111257294Y-146372496D02*
X111377726Y-146409029D01*
X111420087Y-146421879D01*
X111570112Y-146502068D01*
X111701612Y-146609988D01*
X111809532Y-146741488D01*
X111889721Y-146891512D01*
X111902571Y-146933873D01*
X111939104Y-147054305D01*
X111939104Y-147054307D01*
X111951600Y-147181179D01*
X111951600Y-147570820D01*
X111951076Y-147576136D01*
X111939104Y-147697694D01*
X111902571Y-147818128D01*
X111889721Y-147860488D01*
X111809532Y-148010512D01*
X111701612Y-148142012D01*
X111570112Y-148249932D01*
X111420088Y-148330121D01*
X111392433Y-148338510D01*
X111257295Y-148379504D01*
X111144432Y-148390620D01*
X111088001Y-148396178D01*
X111088000Y-148396178D01*
X110918706Y-148379504D01*
X110783568Y-148338510D01*
X110755913Y-148330121D01*
X110605889Y-148249932D01*
X110515946Y-148176117D01*
X110474388Y-148142012D01*
X110366469Y-148010512D01*
X110344127Y-147968713D01*
X110286279Y-147860488D01*
X110273429Y-147818127D01*
X110236896Y-147697695D01*
X110228565Y-147613112D01*
X110224400Y-147570821D01*
X110224400Y-147181180D01*
X110236896Y-147054308D01*
X110236896Y-147054306D01*
X110286278Y-146891517D01*
X110286279Y-146891513D01*
X110366468Y-146741488D01*
X110474388Y-146609988D01*
X110605888Y-146502068D01*
X110755912Y-146421879D01*
X110798273Y-146409029D01*
X110918705Y-146372496D01*
X111031568Y-146361380D01*
X111087999Y-146355822D01*
X111088000Y-146355822D01*
X111257294Y-146372496D01*
X111257294Y-146372496D01*
G37*
G36*
X106177294Y-146372496D02*
X106297726Y-146409029D01*
X106340087Y-146421879D01*
X106490112Y-146502068D01*
X106621612Y-146609988D01*
X106729532Y-146741488D01*
X106809721Y-146891512D01*
X106822571Y-146933873D01*
X106859104Y-147054305D01*
X106859104Y-147054307D01*
X106871600Y-147181179D01*
X106871600Y-147570820D01*
X106871076Y-147576136D01*
X106859104Y-147697694D01*
X106822571Y-147818128D01*
X106809721Y-147860488D01*
X106729532Y-148010512D01*
X106621612Y-148142012D01*
X106490112Y-148249932D01*
X106340088Y-148330121D01*
X106312433Y-148338510D01*
X106177295Y-148379504D01*
X106064432Y-148390620D01*
X106008001Y-148396178D01*
X106008000Y-148396178D01*
X105838706Y-148379504D01*
X105703568Y-148338510D01*
X105675913Y-148330121D01*
X105525889Y-148249932D01*
X105435946Y-148176117D01*
X105394388Y-148142012D01*
X105286469Y-148010512D01*
X105264127Y-147968713D01*
X105206279Y-147860488D01*
X105193429Y-147818127D01*
X105156896Y-147697695D01*
X105148565Y-147613112D01*
X105144400Y-147570821D01*
X105144400Y-147181180D01*
X105156896Y-147054308D01*
X105156896Y-147054306D01*
X105206278Y-146891517D01*
X105206279Y-146891513D01*
X105286468Y-146741488D01*
X105394388Y-146609988D01*
X105525888Y-146502068D01*
X105675912Y-146421879D01*
X105718273Y-146409029D01*
X105838705Y-146372496D01*
X105951568Y-146361380D01*
X106007999Y-146355822D01*
X106008000Y-146355822D01*
X106177294Y-146372496D01*
X106177294Y-146372496D01*
G37*
G36*
X113797294Y-146372496D02*
X113917726Y-146409029D01*
X113960087Y-146421879D01*
X114110112Y-146502068D01*
X114241612Y-146609988D01*
X114349532Y-146741488D01*
X114429721Y-146891512D01*
X114442571Y-146933873D01*
X114479104Y-147054305D01*
X114479104Y-147054307D01*
X114491600Y-147181179D01*
X114491600Y-147570820D01*
X114491076Y-147576136D01*
X114479104Y-147697694D01*
X114442571Y-147818128D01*
X114429721Y-147860488D01*
X114349532Y-148010512D01*
X114241612Y-148142012D01*
X114110112Y-148249932D01*
X113960088Y-148330121D01*
X113932433Y-148338510D01*
X113797295Y-148379504D01*
X113684432Y-148390620D01*
X113628001Y-148396178D01*
X113628000Y-148396178D01*
X113458706Y-148379504D01*
X113323568Y-148338510D01*
X113295913Y-148330121D01*
X113145889Y-148249932D01*
X113055946Y-148176117D01*
X113014388Y-148142012D01*
X112906469Y-148010512D01*
X112884127Y-147968713D01*
X112826279Y-147860488D01*
X112813429Y-147818127D01*
X112776896Y-147697695D01*
X112768565Y-147613112D01*
X112764400Y-147570821D01*
X112764400Y-147181180D01*
X112776896Y-147054308D01*
X112776896Y-147054306D01*
X112826278Y-146891517D01*
X112826279Y-146891513D01*
X112906468Y-146741488D01*
X113014388Y-146609988D01*
X113145888Y-146502068D01*
X113295912Y-146421879D01*
X113338273Y-146409029D01*
X113458705Y-146372496D01*
X113571568Y-146361380D01*
X113627999Y-146355822D01*
X113628000Y-146355822D01*
X113797294Y-146372496D01*
X113797294Y-146372496D01*
G37*
G36*
X80777294Y-146372496D02*
X80897726Y-146409029D01*
X80940087Y-146421879D01*
X81090112Y-146502068D01*
X81221612Y-146609988D01*
X81329532Y-146741488D01*
X81409721Y-146891512D01*
X81422571Y-146933873D01*
X81459104Y-147054305D01*
X81459104Y-147054307D01*
X81471600Y-147181179D01*
X81471600Y-147570820D01*
X81471076Y-147576136D01*
X81459104Y-147697694D01*
X81422571Y-147818128D01*
X81409721Y-147860488D01*
X81329532Y-148010512D01*
X81221612Y-148142012D01*
X81090112Y-148249932D01*
X80940088Y-148330121D01*
X80912433Y-148338510D01*
X80777295Y-148379504D01*
X80664432Y-148390620D01*
X80608001Y-148396178D01*
X80608000Y-148396178D01*
X80438706Y-148379504D01*
X80303568Y-148338510D01*
X80275913Y-148330121D01*
X80125889Y-148249932D01*
X80035946Y-148176117D01*
X79994388Y-148142012D01*
X79886469Y-148010512D01*
X79864127Y-147968713D01*
X79806279Y-147860488D01*
X79793429Y-147818127D01*
X79756896Y-147697695D01*
X79748565Y-147613112D01*
X79744400Y-147570821D01*
X79744400Y-147181180D01*
X79756896Y-147054308D01*
X79756896Y-147054306D01*
X79806278Y-146891517D01*
X79806279Y-146891513D01*
X79886468Y-146741488D01*
X79994388Y-146609988D01*
X80125888Y-146502068D01*
X80275912Y-146421879D01*
X80318273Y-146409029D01*
X80438705Y-146372496D01*
X80551568Y-146361380D01*
X80607999Y-146355822D01*
X80608000Y-146355822D01*
X80777294Y-146372496D01*
X80777294Y-146372496D01*
G37*
G36*
X83317294Y-146372496D02*
X83437726Y-146409029D01*
X83480087Y-146421879D01*
X83630112Y-146502068D01*
X83761612Y-146609988D01*
X83869532Y-146741488D01*
X83949721Y-146891512D01*
X83962571Y-146933873D01*
X83999104Y-147054305D01*
X83999104Y-147054307D01*
X84011600Y-147181179D01*
X84011600Y-147570820D01*
X84011076Y-147576136D01*
X83999104Y-147697694D01*
X83962571Y-147818128D01*
X83949721Y-147860488D01*
X83869532Y-148010512D01*
X83761612Y-148142012D01*
X83630112Y-148249932D01*
X83480088Y-148330121D01*
X83452433Y-148338510D01*
X83317295Y-148379504D01*
X83204432Y-148390620D01*
X83148001Y-148396178D01*
X83148000Y-148396178D01*
X82978706Y-148379504D01*
X82843568Y-148338510D01*
X82815913Y-148330121D01*
X82665889Y-148249932D01*
X82575946Y-148176117D01*
X82534388Y-148142012D01*
X82426469Y-148010512D01*
X82404127Y-147968713D01*
X82346279Y-147860488D01*
X82333429Y-147818127D01*
X82296896Y-147697695D01*
X82288565Y-147613112D01*
X82284400Y-147570821D01*
X82284400Y-147181180D01*
X82296896Y-147054308D01*
X82296896Y-147054306D01*
X82346278Y-146891517D01*
X82346279Y-146891513D01*
X82426468Y-146741488D01*
X82534388Y-146609988D01*
X82665888Y-146502068D01*
X82815912Y-146421879D01*
X82858273Y-146409029D01*
X82978705Y-146372496D01*
X83091568Y-146361380D01*
X83147999Y-146355822D01*
X83148000Y-146355822D01*
X83317294Y-146372496D01*
X83317294Y-146372496D01*
G37*
G36*
X85857294Y-146372496D02*
X85977726Y-146409029D01*
X86020087Y-146421879D01*
X86170112Y-146502068D01*
X86301612Y-146609988D01*
X86409532Y-146741488D01*
X86489721Y-146891512D01*
X86502571Y-146933873D01*
X86539104Y-147054305D01*
X86539104Y-147054307D01*
X86551600Y-147181179D01*
X86551600Y-147570820D01*
X86551076Y-147576136D01*
X86539104Y-147697694D01*
X86502571Y-147818128D01*
X86489721Y-147860488D01*
X86409532Y-148010512D01*
X86301612Y-148142012D01*
X86170112Y-148249932D01*
X86020088Y-148330121D01*
X85992433Y-148338510D01*
X85857295Y-148379504D01*
X85744432Y-148390620D01*
X85688001Y-148396178D01*
X85688000Y-148396178D01*
X85518706Y-148379504D01*
X85383568Y-148338510D01*
X85355913Y-148330121D01*
X85205889Y-148249932D01*
X85115946Y-148176117D01*
X85074388Y-148142012D01*
X84966469Y-148010512D01*
X84944127Y-147968713D01*
X84886279Y-147860488D01*
X84873429Y-147818127D01*
X84836896Y-147697695D01*
X84828565Y-147613112D01*
X84824400Y-147570821D01*
X84824400Y-147181180D01*
X84836896Y-147054308D01*
X84836896Y-147054306D01*
X84886278Y-146891517D01*
X84886279Y-146891513D01*
X84966468Y-146741488D01*
X85074388Y-146609988D01*
X85205888Y-146502068D01*
X85355912Y-146421879D01*
X85398273Y-146409029D01*
X85518705Y-146372496D01*
X85631568Y-146361380D01*
X85687999Y-146355822D01*
X85688000Y-146355822D01*
X85857294Y-146372496D01*
X85857294Y-146372496D01*
G37*
G36*
X88397294Y-146372496D02*
X88517726Y-146409029D01*
X88560087Y-146421879D01*
X88710112Y-146502068D01*
X88841612Y-146609988D01*
X88949532Y-146741488D01*
X89029721Y-146891512D01*
X89042571Y-146933873D01*
X89079104Y-147054305D01*
X89079104Y-147054307D01*
X89091600Y-147181179D01*
X89091600Y-147570820D01*
X89091076Y-147576136D01*
X89079104Y-147697694D01*
X89042571Y-147818128D01*
X89029721Y-147860488D01*
X88949532Y-148010512D01*
X88841612Y-148142012D01*
X88710112Y-148249932D01*
X88560088Y-148330121D01*
X88532433Y-148338510D01*
X88397295Y-148379504D01*
X88284432Y-148390620D01*
X88228001Y-148396178D01*
X88228000Y-148396178D01*
X88058706Y-148379504D01*
X87923568Y-148338510D01*
X87895913Y-148330121D01*
X87745889Y-148249932D01*
X87655946Y-148176117D01*
X87614388Y-148142012D01*
X87506469Y-148010512D01*
X87484127Y-147968713D01*
X87426279Y-147860488D01*
X87413429Y-147818127D01*
X87376896Y-147697695D01*
X87368565Y-147613112D01*
X87364400Y-147570821D01*
X87364400Y-147181180D01*
X87376896Y-147054308D01*
X87376896Y-147054306D01*
X87426278Y-146891517D01*
X87426279Y-146891513D01*
X87506468Y-146741488D01*
X87614388Y-146609988D01*
X87745888Y-146502068D01*
X87895912Y-146421879D01*
X87938273Y-146409029D01*
X88058705Y-146372496D01*
X88171568Y-146361380D01*
X88227999Y-146355822D01*
X88228000Y-146355822D01*
X88397294Y-146372496D01*
X88397294Y-146372496D01*
G37*
G36*
X90937294Y-146372496D02*
X91057726Y-146409029D01*
X91100087Y-146421879D01*
X91250112Y-146502068D01*
X91381612Y-146609988D01*
X91489532Y-146741488D01*
X91569721Y-146891512D01*
X91582571Y-146933873D01*
X91619104Y-147054305D01*
X91619104Y-147054307D01*
X91631600Y-147181179D01*
X91631600Y-147570820D01*
X91631076Y-147576136D01*
X91619104Y-147697694D01*
X91582571Y-147818128D01*
X91569721Y-147860488D01*
X91489532Y-148010512D01*
X91381612Y-148142012D01*
X91250112Y-148249932D01*
X91100088Y-148330121D01*
X91072433Y-148338510D01*
X90937295Y-148379504D01*
X90824432Y-148390620D01*
X90768001Y-148396178D01*
X90768000Y-148396178D01*
X90598706Y-148379504D01*
X90463568Y-148338510D01*
X90435913Y-148330121D01*
X90285889Y-148249932D01*
X90195946Y-148176117D01*
X90154388Y-148142012D01*
X90046469Y-148010512D01*
X90024127Y-147968713D01*
X89966279Y-147860488D01*
X89953429Y-147818127D01*
X89916896Y-147697695D01*
X89908565Y-147613112D01*
X89904400Y-147570821D01*
X89904400Y-147181180D01*
X89916896Y-147054308D01*
X89916896Y-147054306D01*
X89966278Y-146891517D01*
X89966279Y-146891513D01*
X90046468Y-146741488D01*
X90154388Y-146609988D01*
X90285888Y-146502068D01*
X90435912Y-146421879D01*
X90478273Y-146409029D01*
X90598705Y-146372496D01*
X90711568Y-146361380D01*
X90767999Y-146355822D01*
X90768000Y-146355822D01*
X90937294Y-146372496D01*
X90937294Y-146372496D01*
G37*
G36*
X93477294Y-146372496D02*
X93597726Y-146409029D01*
X93640087Y-146421879D01*
X93790112Y-146502068D01*
X93921612Y-146609988D01*
X94029532Y-146741488D01*
X94109721Y-146891512D01*
X94122571Y-146933873D01*
X94159104Y-147054305D01*
X94159104Y-147054307D01*
X94171600Y-147181179D01*
X94171600Y-147570820D01*
X94171076Y-147576136D01*
X94159104Y-147697694D01*
X94122571Y-147818128D01*
X94109721Y-147860488D01*
X94029532Y-148010512D01*
X93921612Y-148142012D01*
X93790112Y-148249932D01*
X93640088Y-148330121D01*
X93612433Y-148338510D01*
X93477295Y-148379504D01*
X93364432Y-148390620D01*
X93308001Y-148396178D01*
X93308000Y-148396178D01*
X93138706Y-148379504D01*
X93003568Y-148338510D01*
X92975913Y-148330121D01*
X92825889Y-148249932D01*
X92735946Y-148176117D01*
X92694388Y-148142012D01*
X92586469Y-148010512D01*
X92564127Y-147968713D01*
X92506279Y-147860488D01*
X92493429Y-147818127D01*
X92456896Y-147697695D01*
X92448565Y-147613112D01*
X92444400Y-147570821D01*
X92444400Y-147181180D01*
X92456896Y-147054308D01*
X92456896Y-147054306D01*
X92506278Y-146891517D01*
X92506279Y-146891513D01*
X92586468Y-146741488D01*
X92694388Y-146609988D01*
X92825888Y-146502068D01*
X92975912Y-146421879D01*
X93018273Y-146409029D01*
X93138705Y-146372496D01*
X93251568Y-146361380D01*
X93307999Y-146355822D01*
X93308000Y-146355822D01*
X93477294Y-146372496D01*
X93477294Y-146372496D01*
G37*
G36*
X96017294Y-146372496D02*
X96137726Y-146409029D01*
X96180087Y-146421879D01*
X96330112Y-146502068D01*
X96461612Y-146609988D01*
X96569532Y-146741488D01*
X96649721Y-146891512D01*
X96662571Y-146933873D01*
X96699104Y-147054305D01*
X96699104Y-147054307D01*
X96711600Y-147181179D01*
X96711600Y-147570820D01*
X96711076Y-147576136D01*
X96699104Y-147697694D01*
X96662571Y-147818128D01*
X96649721Y-147860488D01*
X96569532Y-148010512D01*
X96461612Y-148142012D01*
X96330112Y-148249932D01*
X96180088Y-148330121D01*
X96152433Y-148338510D01*
X96017295Y-148379504D01*
X95904432Y-148390620D01*
X95848001Y-148396178D01*
X95848000Y-148396178D01*
X95678706Y-148379504D01*
X95543568Y-148338510D01*
X95515913Y-148330121D01*
X95365889Y-148249932D01*
X95275946Y-148176117D01*
X95234388Y-148142012D01*
X95126469Y-148010512D01*
X95104127Y-147968713D01*
X95046279Y-147860488D01*
X95033429Y-147818127D01*
X94996896Y-147697695D01*
X94988565Y-147613112D01*
X94984400Y-147570821D01*
X94984400Y-147181180D01*
X94996896Y-147054308D01*
X94996896Y-147054306D01*
X95046278Y-146891517D01*
X95046279Y-146891513D01*
X95126468Y-146741488D01*
X95234388Y-146609988D01*
X95365888Y-146502068D01*
X95515912Y-146421879D01*
X95558273Y-146409029D01*
X95678705Y-146372496D01*
X95791568Y-146361380D01*
X95847999Y-146355822D01*
X95848000Y-146355822D01*
X96017294Y-146372496D01*
X96017294Y-146372496D01*
G37*
G36*
X101097294Y-146372496D02*
X101217726Y-146409029D01*
X101260087Y-146421879D01*
X101410112Y-146502068D01*
X101541612Y-146609988D01*
X101649532Y-146741488D01*
X101729721Y-146891512D01*
X101742571Y-146933873D01*
X101779104Y-147054305D01*
X101779104Y-147054307D01*
X101791600Y-147181179D01*
X101791600Y-147570820D01*
X101791076Y-147576136D01*
X101779104Y-147697694D01*
X101742571Y-147818128D01*
X101729721Y-147860488D01*
X101649532Y-148010512D01*
X101541612Y-148142012D01*
X101410112Y-148249932D01*
X101260088Y-148330121D01*
X101232433Y-148338510D01*
X101097295Y-148379504D01*
X100984432Y-148390620D01*
X100928001Y-148396178D01*
X100928000Y-148396178D01*
X100758706Y-148379504D01*
X100623568Y-148338510D01*
X100595913Y-148330121D01*
X100445889Y-148249932D01*
X100355946Y-148176117D01*
X100314388Y-148142012D01*
X100206469Y-148010512D01*
X100184127Y-147968713D01*
X100126279Y-147860488D01*
X100113429Y-147818127D01*
X100076896Y-147697695D01*
X100068565Y-147613112D01*
X100064400Y-147570821D01*
X100064400Y-147181180D01*
X100076896Y-147054308D01*
X100076896Y-147054306D01*
X100126278Y-146891517D01*
X100126279Y-146891513D01*
X100206468Y-146741488D01*
X100314388Y-146609988D01*
X100445888Y-146502068D01*
X100595912Y-146421879D01*
X100638273Y-146409029D01*
X100758705Y-146372496D01*
X100871568Y-146361380D01*
X100927999Y-146355822D01*
X100928000Y-146355822D01*
X101097294Y-146372496D01*
X101097294Y-146372496D01*
G37*
G36*
X103637294Y-146372496D02*
X103757726Y-146409029D01*
X103800087Y-146421879D01*
X103950112Y-146502068D01*
X104081612Y-146609988D01*
X104189532Y-146741488D01*
X104269721Y-146891512D01*
X104282571Y-146933873D01*
X104319104Y-147054305D01*
X104319104Y-147054307D01*
X104331600Y-147181179D01*
X104331600Y-147570820D01*
X104331076Y-147576136D01*
X104319104Y-147697694D01*
X104282571Y-147818128D01*
X104269721Y-147860488D01*
X104189532Y-148010512D01*
X104081612Y-148142012D01*
X103950112Y-148249932D01*
X103800088Y-148330121D01*
X103772433Y-148338510D01*
X103637295Y-148379504D01*
X103524432Y-148390620D01*
X103468001Y-148396178D01*
X103468000Y-148396178D01*
X103298706Y-148379504D01*
X103163568Y-148338510D01*
X103135913Y-148330121D01*
X102985889Y-148249932D01*
X102895946Y-148176117D01*
X102854388Y-148142012D01*
X102746469Y-148010512D01*
X102724127Y-147968713D01*
X102666279Y-147860488D01*
X102653429Y-147818127D01*
X102616896Y-147697695D01*
X102608565Y-147613112D01*
X102604400Y-147570821D01*
X102604400Y-147181180D01*
X102616896Y-147054308D01*
X102616896Y-147054306D01*
X102666278Y-146891517D01*
X102666279Y-146891513D01*
X102746468Y-146741488D01*
X102854388Y-146609988D01*
X102985888Y-146502068D01*
X103135912Y-146421879D01*
X103178273Y-146409029D01*
X103298705Y-146372496D01*
X103411568Y-146361380D01*
X103467999Y-146355822D01*
X103468000Y-146355822D01*
X103637294Y-146372496D01*
X103637294Y-146372496D01*
G37*
G36*
X108717294Y-146372496D02*
X108837726Y-146409029D01*
X108880087Y-146421879D01*
X109030112Y-146502068D01*
X109161612Y-146609988D01*
X109269532Y-146741488D01*
X109349721Y-146891512D01*
X109362571Y-146933873D01*
X109399104Y-147054305D01*
X109399104Y-147054307D01*
X109411600Y-147181179D01*
X109411600Y-147570820D01*
X109411076Y-147576136D01*
X109399104Y-147697694D01*
X109362571Y-147818128D01*
X109349721Y-147860488D01*
X109269532Y-148010512D01*
X109161612Y-148142012D01*
X109030112Y-148249932D01*
X108880088Y-148330121D01*
X108852433Y-148338510D01*
X108717295Y-148379504D01*
X108604432Y-148390620D01*
X108548001Y-148396178D01*
X108548000Y-148396178D01*
X108378706Y-148379504D01*
X108243568Y-148338510D01*
X108215913Y-148330121D01*
X108065889Y-148249932D01*
X107975946Y-148176117D01*
X107934388Y-148142012D01*
X107826469Y-148010512D01*
X107804127Y-147968713D01*
X107746279Y-147860488D01*
X107733429Y-147818127D01*
X107696896Y-147697695D01*
X107688565Y-147613112D01*
X107684400Y-147570821D01*
X107684400Y-147181180D01*
X107696896Y-147054308D01*
X107696896Y-147054306D01*
X107746278Y-146891517D01*
X107746279Y-146891513D01*
X107826468Y-146741488D01*
X107934388Y-146609988D01*
X108065888Y-146502068D01*
X108215912Y-146421879D01*
X108258273Y-146409029D01*
X108378705Y-146372496D01*
X108491568Y-146361380D01*
X108547999Y-146355822D01*
X108548000Y-146355822D01*
X108717294Y-146372496D01*
X108717294Y-146372496D01*
G37*
G36*
X116760712Y-140342088D02*
X117130510Y-140495263D01*
X117130513Y-140495265D01*
X117463325Y-140717643D01*
X117746357Y-141000675D01*
X117939678Y-141290000D01*
X117968737Y-141333490D01*
X118121912Y-141703288D01*
X118200000Y-142095864D01*
X118200000Y-142496136D01*
X118121912Y-142888712D01*
X117968737Y-143258510D01*
X117968735Y-143258513D01*
X117746357Y-143591325D01*
X117463325Y-143874357D01*
X117181658Y-144062561D01*
X117130510Y-144096737D01*
X116760712Y-144249912D01*
X116368136Y-144328000D01*
X115967864Y-144328000D01*
X115575288Y-144249912D01*
X115205490Y-144096737D01*
X115154342Y-144062561D01*
X114872675Y-143874357D01*
X114589643Y-143591325D01*
X114367265Y-143258513D01*
X114367263Y-143258510D01*
X114214088Y-142888712D01*
X114136000Y-142496136D01*
X114136000Y-142095864D01*
X114214088Y-141703288D01*
X114367263Y-141333490D01*
X114396322Y-141290000D01*
X114589643Y-141000675D01*
X114872675Y-140717643D01*
X115205487Y-140495265D01*
X115205490Y-140495263D01*
X115575288Y-140342088D01*
X115967864Y-140264000D01*
X116368136Y-140264000D01*
X116760712Y-140342088D01*
X116760712Y-140342088D01*
G37*
G36*
X78696318Y-142744411D02*
X78768767Y-142758822D01*
X78815337Y-142778112D01*
X78905257Y-142815358D01*
X79028100Y-142897439D01*
X79132561Y-143001900D01*
X79214642Y-143124743D01*
X79271178Y-143261234D01*
X79300000Y-143406130D01*
X79300000Y-143553870D01*
X79271178Y-143698766D01*
X79214642Y-143835257D01*
X79132561Y-143958100D01*
X79028100Y-144062561D01*
X78905257Y-144144642D01*
X78825303Y-144177760D01*
X78768767Y-144201178D01*
X78696318Y-144215589D01*
X78623870Y-144230000D01*
X78476130Y-144230000D01*
X78403682Y-144215589D01*
X78331233Y-144201178D01*
X78274697Y-144177760D01*
X78194743Y-144144642D01*
X78071900Y-144062561D01*
X77967439Y-143958100D01*
X77885358Y-143835257D01*
X77828822Y-143698766D01*
X77800000Y-143553870D01*
X77800000Y-143406130D01*
X77828822Y-143261234D01*
X77885358Y-143124743D01*
X77967439Y-143001900D01*
X78071900Y-142897439D01*
X78194743Y-142815358D01*
X78284663Y-142778112D01*
X78331233Y-142758822D01*
X78403682Y-142744411D01*
X78476130Y-142730000D01*
X78623870Y-142730000D01*
X78696318Y-142744411D01*
X78696318Y-142744411D01*
G37*
G36*
X133130000Y-143430000D02*
X132430000Y-143430000D01*
X132430000Y-142130000D01*
X133130000Y-142130000D01*
X133130000Y-143430000D01*
X133130000Y-143430000D01*
G37*
G36*
X131230000Y-143430000D02*
X130530000Y-143430000D01*
X130530000Y-142130000D01*
X131230000Y-142130000D01*
X131230000Y-143430000D01*
X131230000Y-143430000D01*
G37*
G36*
X126930000Y-143190000D02*
X125630000Y-143190000D01*
X125630000Y-142490000D01*
X126930000Y-142490000D01*
X126930000Y-143190000D01*
X126930000Y-143190000D01*
G37*
G36*
X144359903Y-141465587D02*
X144517068Y-141530687D01*
X144658513Y-141625198D01*
X144778802Y-141745487D01*
X144873313Y-141886932D01*
X144938413Y-142044097D01*
X144971600Y-142210943D01*
X144971600Y-142381057D01*
X144938413Y-142547903D01*
X144873313Y-142705068D01*
X144778802Y-142846513D01*
X144658513Y-142966802D01*
X144517068Y-143061313D01*
X144359903Y-143126413D01*
X144193057Y-143159600D01*
X144022943Y-143159600D01*
X143856097Y-143126413D01*
X143698932Y-143061313D01*
X143557487Y-142966802D01*
X143437198Y-142846513D01*
X143342687Y-142705068D01*
X143277587Y-142547903D01*
X143244400Y-142381057D01*
X143244400Y-142210943D01*
X143277587Y-142044097D01*
X143342687Y-141886932D01*
X143437198Y-141745487D01*
X143557487Y-141625198D01*
X143698932Y-141530687D01*
X143856097Y-141465587D01*
X144022943Y-141432400D01*
X144193057Y-141432400D01*
X144359903Y-141465587D01*
X144359903Y-141465587D01*
G37*
G36*
X146732712Y-141436565D02*
X146817295Y-141444896D01*
X146937727Y-141481429D01*
X146980088Y-141494279D01*
X147130112Y-141574468D01*
X147261612Y-141682388D01*
X147369532Y-141813888D01*
X147449721Y-141963912D01*
X147449722Y-141963916D01*
X147499104Y-142126705D01*
X147515778Y-142296000D01*
X147499104Y-142465295D01*
X147474045Y-142547903D01*
X147449721Y-142628088D01*
X147369532Y-142778112D01*
X147261612Y-142909612D01*
X147130112Y-143017532D01*
X146980088Y-143097721D01*
X146937727Y-143110571D01*
X146817295Y-143147104D01*
X146732712Y-143155435D01*
X146690421Y-143159600D01*
X146605579Y-143159600D01*
X146563288Y-143155435D01*
X146478705Y-143147104D01*
X146358273Y-143110571D01*
X146315912Y-143097721D01*
X146165888Y-143017532D01*
X146034388Y-142909612D01*
X145926468Y-142778112D01*
X145846279Y-142628088D01*
X145821955Y-142547903D01*
X145796896Y-142465295D01*
X145780222Y-142296000D01*
X145796896Y-142126705D01*
X145846278Y-141963916D01*
X145846279Y-141963912D01*
X145926468Y-141813888D01*
X146034388Y-141682388D01*
X146165888Y-141574468D01*
X146315912Y-141494279D01*
X146358273Y-141481429D01*
X146478705Y-141444896D01*
X146563288Y-141436565D01*
X146605579Y-141432400D01*
X146690421Y-141432400D01*
X146732712Y-141436565D01*
X146732712Y-141436565D01*
G37*
G36*
X73266318Y-141024411D02*
X73338767Y-141038822D01*
X73395303Y-141062240D01*
X73475257Y-141095358D01*
X73598100Y-141177439D01*
X73702561Y-141281900D01*
X73784642Y-141404743D01*
X73817760Y-141484697D01*
X73836810Y-141530687D01*
X73841178Y-141541234D01*
X73870000Y-141686130D01*
X73870000Y-141833870D01*
X73841178Y-141978766D01*
X73784642Y-142115257D01*
X73702561Y-142238100D01*
X73598100Y-142342561D01*
X73475257Y-142424642D01*
X73395303Y-142457760D01*
X73338767Y-142481178D01*
X73266318Y-142495589D01*
X73193870Y-142510000D01*
X73046130Y-142510000D01*
X72973682Y-142495589D01*
X72901233Y-142481178D01*
X72844697Y-142457760D01*
X72764743Y-142424642D01*
X72641900Y-142342561D01*
X72537439Y-142238100D01*
X72455358Y-142115257D01*
X72398822Y-141978766D01*
X72370000Y-141833870D01*
X72370000Y-141686130D01*
X72398822Y-141541234D01*
X72403191Y-141530687D01*
X72422240Y-141484697D01*
X72455358Y-141404743D01*
X72537439Y-141281900D01*
X72641900Y-141177439D01*
X72764743Y-141095358D01*
X72844697Y-141062240D01*
X72901233Y-141038822D01*
X72973682Y-141024411D01*
X73046130Y-141010000D01*
X73193870Y-141010000D01*
X73266318Y-141024411D01*
X73266318Y-141024411D01*
G37*
G36*
X126930000Y-141290000D02*
X125630000Y-141290000D01*
X125630000Y-140590000D01*
X126930000Y-140590000D01*
X126930000Y-141290000D01*
X126930000Y-141290000D01*
G37*
G36*
X80906318Y-139644411D02*
X80978767Y-139658822D01*
X81035303Y-139682240D01*
X81115257Y-139715358D01*
X81238100Y-139797439D01*
X81342561Y-139901900D01*
X81424642Y-140024743D01*
X81450880Y-140088088D01*
X81481178Y-140161233D01*
X81510000Y-140306131D01*
X81510000Y-140453869D01*
X81481178Y-140598767D01*
X81457760Y-140655303D01*
X81424642Y-140735257D01*
X81342561Y-140858100D01*
X81238100Y-140962561D01*
X81115257Y-141044642D01*
X81035303Y-141077760D01*
X80978767Y-141101178D01*
X80906318Y-141115589D01*
X80833870Y-141130000D01*
X80686130Y-141130000D01*
X80613682Y-141115589D01*
X80541233Y-141101178D01*
X80484697Y-141077760D01*
X80404743Y-141044642D01*
X80281900Y-140962561D01*
X80177439Y-140858100D01*
X80095358Y-140735257D01*
X80062240Y-140655303D01*
X80038822Y-140598767D01*
X80010000Y-140453869D01*
X80010000Y-140306131D01*
X80038822Y-140161233D01*
X80069120Y-140088088D01*
X80095358Y-140024743D01*
X80177439Y-139901900D01*
X80281900Y-139797439D01*
X80404743Y-139715358D01*
X80484697Y-139682240D01*
X80541233Y-139658822D01*
X80613682Y-139644411D01*
X80686130Y-139630000D01*
X80833870Y-139630000D01*
X80906318Y-139644411D01*
X80906318Y-139644411D01*
G37*
G36*
X146732712Y-138896565D02*
X146817295Y-138904896D01*
X146937727Y-138941429D01*
X146980088Y-138954279D01*
X147130112Y-139034468D01*
X147261612Y-139142388D01*
X147369532Y-139273888D01*
X147449721Y-139423912D01*
X147449722Y-139423916D01*
X147499104Y-139586705D01*
X147515778Y-139756000D01*
X147499104Y-139925295D01*
X147468937Y-140024742D01*
X147449721Y-140088088D01*
X147369532Y-140238112D01*
X147261612Y-140369612D01*
X147130112Y-140477532D01*
X146980088Y-140557721D01*
X146937727Y-140570571D01*
X146817295Y-140607104D01*
X146732712Y-140615435D01*
X146690421Y-140619600D01*
X146605579Y-140619600D01*
X146563288Y-140615435D01*
X146478705Y-140607104D01*
X146358273Y-140570571D01*
X146315912Y-140557721D01*
X146165888Y-140477532D01*
X146034388Y-140369612D01*
X145926468Y-140238112D01*
X145846279Y-140088088D01*
X145827063Y-140024742D01*
X145796896Y-139925295D01*
X145780222Y-139756000D01*
X145796896Y-139586705D01*
X145846278Y-139423916D01*
X145846279Y-139423912D01*
X145926468Y-139273888D01*
X146034388Y-139142388D01*
X146165888Y-139034468D01*
X146315912Y-138954279D01*
X146358273Y-138941429D01*
X146478705Y-138904896D01*
X146563288Y-138896565D01*
X146605579Y-138892400D01*
X146690421Y-138892400D01*
X146732712Y-138896565D01*
X146732712Y-138896565D01*
G37*
G36*
X144192712Y-138896565D02*
X144277295Y-138904896D01*
X144397727Y-138941429D01*
X144440088Y-138954279D01*
X144590112Y-139034468D01*
X144721612Y-139142388D01*
X144829532Y-139273888D01*
X144909721Y-139423912D01*
X144909722Y-139423916D01*
X144959104Y-139586705D01*
X144975778Y-139756000D01*
X144959104Y-139925295D01*
X144928937Y-140024742D01*
X144909721Y-140088088D01*
X144829532Y-140238112D01*
X144721612Y-140369612D01*
X144590112Y-140477532D01*
X144440088Y-140557721D01*
X144397727Y-140570571D01*
X144277295Y-140607104D01*
X144192712Y-140615435D01*
X144150421Y-140619600D01*
X144065579Y-140619600D01*
X144023288Y-140615435D01*
X143938705Y-140607104D01*
X143818273Y-140570571D01*
X143775912Y-140557721D01*
X143625888Y-140477532D01*
X143494388Y-140369612D01*
X143386468Y-140238112D01*
X143306279Y-140088088D01*
X143287063Y-140024742D01*
X143256896Y-139925295D01*
X143240222Y-139756000D01*
X143256896Y-139586705D01*
X143306278Y-139423916D01*
X143306279Y-139423912D01*
X143386468Y-139273888D01*
X143494388Y-139142388D01*
X143625888Y-139034468D01*
X143775912Y-138954279D01*
X143818273Y-138941429D01*
X143938705Y-138904896D01*
X144023288Y-138896565D01*
X144065579Y-138892400D01*
X144150421Y-138892400D01*
X144192712Y-138896565D01*
X144192712Y-138896565D01*
G37*
G36*
X134000000Y-140350000D02*
X133000000Y-140350000D01*
X133000000Y-139150000D01*
X134000000Y-139150000D01*
X134000000Y-140350000D01*
X134000000Y-140350000D01*
G37*
G36*
X136000000Y-140350000D02*
X135000000Y-140350000D01*
X135000000Y-139150000D01*
X136000000Y-139150000D01*
X136000000Y-140350000D01*
X136000000Y-140350000D01*
G37*
G36*
X137775001Y-140200000D02*
X137275001Y-140200000D01*
X137275001Y-139300000D01*
X137775001Y-139300000D01*
X137775001Y-140200000D01*
X137775001Y-140200000D01*
G37*
G36*
X139275001Y-140200000D02*
X138775001Y-140200000D01*
X138775001Y-139300000D01*
X139275001Y-139300000D01*
X139275001Y-140200000D01*
X139275001Y-140200000D01*
G37*
G36*
X70170000Y-139120000D02*
X69670000Y-139120000D01*
X69670000Y-138520000D01*
X70170000Y-138520000D01*
X70170000Y-139120000D01*
X70170000Y-139120000D01*
G37*
G36*
X71370000Y-139110000D02*
X70870000Y-139110000D01*
X70870000Y-138510000D01*
X71370000Y-138510000D01*
X71370000Y-139110000D01*
X71370000Y-139110000D01*
G37*
G36*
X79600479Y-137385293D02*
X79718767Y-137408822D01*
X79775303Y-137432240D01*
X79855257Y-137465358D01*
X79978100Y-137547439D01*
X80082561Y-137651900D01*
X80164642Y-137774743D01*
X80221178Y-137911234D01*
X80250000Y-138056130D01*
X80250000Y-138203870D01*
X80221178Y-138348766D01*
X80164642Y-138485257D01*
X80082561Y-138608100D01*
X79978100Y-138712561D01*
X79855257Y-138794642D01*
X79775303Y-138827760D01*
X79718767Y-138851178D01*
X79646318Y-138865589D01*
X79573870Y-138880000D01*
X79426130Y-138880000D01*
X79353682Y-138865589D01*
X79281233Y-138851178D01*
X79224697Y-138827760D01*
X79144743Y-138794642D01*
X79021900Y-138712561D01*
X78917439Y-138608100D01*
X78835358Y-138485257D01*
X78778822Y-138348766D01*
X78750000Y-138203870D01*
X78750000Y-138056130D01*
X78778822Y-137911234D01*
X78835358Y-137774743D01*
X78917439Y-137651900D01*
X79021900Y-137547439D01*
X79144743Y-137465358D01*
X79224697Y-137432240D01*
X79281233Y-137408822D01*
X79399521Y-137385293D01*
X79426130Y-137380000D01*
X79573870Y-137380000D01*
X79600479Y-137385293D01*
X79600479Y-137385293D01*
G37*
G36*
X76032000Y-138710000D02*
X75532000Y-138710000D01*
X75532000Y-138110000D01*
X76032000Y-138110000D01*
X76032000Y-138710000D01*
X76032000Y-138710000D01*
G37*
G36*
X146732712Y-136356565D02*
X146817295Y-136364896D01*
X146937727Y-136401429D01*
X146980088Y-136414279D01*
X147130112Y-136494468D01*
X147261612Y-136602388D01*
X147369532Y-136733888D01*
X147449721Y-136883912D01*
X147449722Y-136883916D01*
X147499104Y-137046705D01*
X147515778Y-137216000D01*
X147499104Y-137385295D01*
X147462571Y-137505727D01*
X147449721Y-137548088D01*
X147369532Y-137698112D01*
X147261612Y-137829612D01*
X147130112Y-137937532D01*
X146980088Y-138017721D01*
X146972575Y-138020000D01*
X146817295Y-138067104D01*
X146732712Y-138075435D01*
X146690421Y-138079600D01*
X146605579Y-138079600D01*
X146563288Y-138075435D01*
X146478705Y-138067104D01*
X146323425Y-138020000D01*
X146315912Y-138017721D01*
X146165888Y-137937532D01*
X146034388Y-137829612D01*
X145926468Y-137698112D01*
X145846279Y-137548088D01*
X145833429Y-137505727D01*
X145796896Y-137385295D01*
X145780222Y-137216000D01*
X145796896Y-137046705D01*
X145846278Y-136883916D01*
X145846279Y-136883912D01*
X145926468Y-136733888D01*
X146034388Y-136602388D01*
X146165888Y-136494468D01*
X146315912Y-136414279D01*
X146358273Y-136401429D01*
X146478705Y-136364896D01*
X146563288Y-136356565D01*
X146605579Y-136352400D01*
X146690421Y-136352400D01*
X146732712Y-136356565D01*
X146732712Y-136356565D01*
G37*
G36*
X144192712Y-136356565D02*
X144277295Y-136364896D01*
X144397727Y-136401429D01*
X144440088Y-136414279D01*
X144590112Y-136494468D01*
X144721612Y-136602388D01*
X144829532Y-136733888D01*
X144909721Y-136883912D01*
X144909722Y-136883916D01*
X144959104Y-137046705D01*
X144975778Y-137216000D01*
X144959104Y-137385295D01*
X144922571Y-137505727D01*
X144909721Y-137548088D01*
X144829532Y-137698112D01*
X144721612Y-137829612D01*
X144590112Y-137937532D01*
X144440088Y-138017721D01*
X144432575Y-138020000D01*
X144277295Y-138067104D01*
X144192712Y-138075435D01*
X144150421Y-138079600D01*
X144065579Y-138079600D01*
X144023288Y-138075435D01*
X143938705Y-138067104D01*
X143783425Y-138020000D01*
X143775912Y-138017721D01*
X143625888Y-137937532D01*
X143494388Y-137829612D01*
X143386468Y-137698112D01*
X143306279Y-137548088D01*
X143293429Y-137505727D01*
X143256896Y-137385295D01*
X143240222Y-137216000D01*
X143256896Y-137046705D01*
X143306278Y-136883916D01*
X143306279Y-136883912D01*
X143386468Y-136733888D01*
X143494388Y-136602388D01*
X143625888Y-136494468D01*
X143775912Y-136414279D01*
X143818273Y-136401429D01*
X143938705Y-136364896D01*
X144023288Y-136356565D01*
X144065579Y-136352400D01*
X144150421Y-136352400D01*
X144192712Y-136356565D01*
X144192712Y-136356565D01*
G37*
G36*
X95790000Y-138050000D02*
X95290000Y-138050000D01*
X95290000Y-137450000D01*
X95790000Y-137450000D01*
X95790000Y-138050000D01*
X95790000Y-138050000D01*
G37*
G36*
X70170000Y-138020000D02*
X69670000Y-138020000D01*
X69670000Y-137420000D01*
X70170000Y-137420000D01*
X70170000Y-138020000D01*
X70170000Y-138020000D01*
G37*
G36*
X71370000Y-138010000D02*
X70870000Y-138010000D01*
X70870000Y-137410000D01*
X71370000Y-137410000D01*
X71370000Y-138010000D01*
X71370000Y-138010000D01*
G37*
G36*
X76032000Y-137610000D02*
X75532000Y-137610000D01*
X75532000Y-137010000D01*
X76032000Y-137010000D01*
X76032000Y-137610000D01*
X76032000Y-137610000D01*
G37*
G36*
X87530000Y-136980000D02*
X87130000Y-136980000D01*
X87130000Y-136380000D01*
X87530000Y-136380000D01*
X87530000Y-136980000D01*
X87530000Y-136980000D01*
G37*
G36*
X88430000Y-136980000D02*
X88030000Y-136980000D01*
X88030000Y-136380000D01*
X88430000Y-136380000D01*
X88430000Y-136980000D01*
X88430000Y-136980000D01*
G37*
G36*
X95790000Y-136950000D02*
X95290000Y-136950000D01*
X95290000Y-136350000D01*
X95790000Y-136350000D01*
X95790000Y-136950000D01*
X95790000Y-136950000D01*
G37*
G36*
X90030000Y-136930000D02*
X89430000Y-136930000D01*
X89430000Y-136430000D01*
X90030000Y-136430000D01*
X90030000Y-136930000D01*
X90030000Y-136930000D01*
G37*
G36*
X91130000Y-136930000D02*
X90530000Y-136930000D01*
X90530000Y-136430000D01*
X91130000Y-136430000D01*
X91130000Y-136930000D01*
X91130000Y-136930000D01*
G37*
G36*
X67620000Y-135570000D02*
X67120000Y-135570000D01*
X67120000Y-134970000D01*
X67620000Y-134970000D01*
X67620000Y-135570000D01*
X67620000Y-135570000D01*
G37*
G36*
X146732712Y-133816565D02*
X146817295Y-133824896D01*
X146937727Y-133861429D01*
X146980088Y-133874279D01*
X147130112Y-133954468D01*
X147261612Y-134062388D01*
X147369532Y-134193888D01*
X147449721Y-134343912D01*
X147449722Y-134343916D01*
X147499104Y-134506705D01*
X147515778Y-134676000D01*
X147499104Y-134845295D01*
X147486910Y-134885492D01*
X147449721Y-135008088D01*
X147369532Y-135158112D01*
X147261612Y-135289612D01*
X147130112Y-135397532D01*
X146980088Y-135477721D01*
X146937727Y-135490571D01*
X146817295Y-135527104D01*
X146732712Y-135535435D01*
X146690421Y-135539600D01*
X146605579Y-135539600D01*
X146563288Y-135535435D01*
X146478705Y-135527104D01*
X146358273Y-135490571D01*
X146315912Y-135477721D01*
X146165888Y-135397532D01*
X146034388Y-135289612D01*
X145926468Y-135158112D01*
X145846279Y-135008088D01*
X145809090Y-134885492D01*
X145796896Y-134845295D01*
X145780222Y-134676000D01*
X145796896Y-134506705D01*
X145846278Y-134343916D01*
X145846279Y-134343912D01*
X145926468Y-134193888D01*
X146034388Y-134062388D01*
X146165888Y-133954468D01*
X146315912Y-133874279D01*
X146358273Y-133861429D01*
X146478705Y-133824896D01*
X146563288Y-133816565D01*
X146605579Y-133812400D01*
X146690421Y-133812400D01*
X146732712Y-133816565D01*
X146732712Y-133816565D01*
G37*
G36*
X144192712Y-133816565D02*
X144277295Y-133824896D01*
X144397727Y-133861429D01*
X144440088Y-133874279D01*
X144590112Y-133954468D01*
X144721612Y-134062388D01*
X144829532Y-134193888D01*
X144909721Y-134343912D01*
X144909722Y-134343916D01*
X144959104Y-134506705D01*
X144975778Y-134676000D01*
X144959104Y-134845295D01*
X144946910Y-134885492D01*
X144909721Y-135008088D01*
X144829532Y-135158112D01*
X144721612Y-135289612D01*
X144590112Y-135397532D01*
X144440088Y-135477721D01*
X144397727Y-135490571D01*
X144277295Y-135527104D01*
X144192712Y-135535435D01*
X144150421Y-135539600D01*
X144065579Y-135539600D01*
X144023288Y-135535435D01*
X143938705Y-135527104D01*
X143818273Y-135490571D01*
X143775912Y-135477721D01*
X143625888Y-135397532D01*
X143494388Y-135289612D01*
X143386468Y-135158112D01*
X143306279Y-135008088D01*
X143269090Y-134885492D01*
X143256896Y-134845295D01*
X143240222Y-134676000D01*
X143256896Y-134506705D01*
X143306278Y-134343916D01*
X143306279Y-134343912D01*
X143386468Y-134193888D01*
X143494388Y-134062388D01*
X143625888Y-133954468D01*
X143775912Y-133874279D01*
X143818273Y-133861429D01*
X143938705Y-133824896D01*
X144023288Y-133816565D01*
X144065579Y-133812400D01*
X144150421Y-133812400D01*
X144192712Y-133816565D01*
X144192712Y-133816565D01*
G37*
G36*
X107946029Y-131464469D02*
X107946032Y-131464470D01*
X107946033Y-131464470D01*
X108134534Y-131521651D01*
X108134536Y-131521652D01*
X108134539Y-131521653D01*
X108308258Y-131614507D01*
X108460528Y-131739472D01*
X108585491Y-131891740D01*
X108585492Y-131891742D01*
X108678349Y-132065465D01*
X108735530Y-132253966D01*
X108735531Y-132253970D01*
X108750000Y-132400876D01*
X108750000Y-134099124D01*
X108735531Y-134246030D01*
X108735530Y-134246033D01*
X108735530Y-134246034D01*
X108678350Y-134434533D01*
X108678348Y-134434537D01*
X108585491Y-134608260D01*
X108460528Y-134760528D01*
X108308260Y-134885491D01*
X108308258Y-134885492D01*
X108134535Y-134978349D01*
X107946034Y-135035530D01*
X107946033Y-135035530D01*
X107946030Y-135035531D01*
X107750000Y-135054838D01*
X107553971Y-135035531D01*
X107553968Y-135035530D01*
X107553967Y-135035530D01*
X107365466Y-134978349D01*
X107191743Y-134885492D01*
X107191741Y-134885491D01*
X107039473Y-134760528D01*
X106914510Y-134608260D01*
X106860228Y-134506705D01*
X106821652Y-134434535D01*
X106821651Y-134434533D01*
X106764469Y-134246035D01*
X106750000Y-134099124D01*
X106750000Y-132400877D01*
X106764469Y-132253971D01*
X106764470Y-132253967D01*
X106821651Y-132065466D01*
X106821652Y-132065464D01*
X106821653Y-132065461D01*
X106914507Y-131891742D01*
X107039472Y-131739472D01*
X107191740Y-131614509D01*
X107365463Y-131521652D01*
X107365465Y-131521651D01*
X107553966Y-131464470D01*
X107553967Y-131464470D01*
X107553970Y-131464469D01*
X107750000Y-131445162D01*
X107946029Y-131464469D01*
X107946029Y-131464469D01*
G37*
G36*
X122946029Y-131464469D02*
X122946032Y-131464470D01*
X122946033Y-131464470D01*
X123134534Y-131521651D01*
X123134536Y-131521652D01*
X123134539Y-131521653D01*
X123308258Y-131614507D01*
X123460528Y-131739472D01*
X123585491Y-131891740D01*
X123585492Y-131891742D01*
X123678349Y-132065465D01*
X123735530Y-132253966D01*
X123735531Y-132253970D01*
X123750000Y-132400876D01*
X123750000Y-134099124D01*
X123735531Y-134246030D01*
X123735530Y-134246033D01*
X123735530Y-134246034D01*
X123678350Y-134434533D01*
X123678348Y-134434537D01*
X123585491Y-134608260D01*
X123460528Y-134760528D01*
X123308260Y-134885491D01*
X123308258Y-134885492D01*
X123134535Y-134978349D01*
X122946034Y-135035530D01*
X122946033Y-135035530D01*
X122946030Y-135035531D01*
X122750000Y-135054838D01*
X122553971Y-135035531D01*
X122553968Y-135035530D01*
X122553967Y-135035530D01*
X122365466Y-134978349D01*
X122191743Y-134885492D01*
X122191741Y-134885491D01*
X122039473Y-134760528D01*
X121914510Y-134608260D01*
X121860228Y-134506705D01*
X121821652Y-134434535D01*
X121821651Y-134434533D01*
X121764469Y-134246035D01*
X121750000Y-134099124D01*
X121750000Y-132400877D01*
X121764469Y-132253971D01*
X121764470Y-132253967D01*
X121821651Y-132065466D01*
X121821652Y-132065464D01*
X121821653Y-132065461D01*
X121914507Y-131891742D01*
X122039472Y-131739472D01*
X122191740Y-131614509D01*
X122365463Y-131521652D01*
X122365465Y-131521651D01*
X122553966Y-131464470D01*
X122553967Y-131464470D01*
X122553970Y-131464469D01*
X122750000Y-131445162D01*
X122946029Y-131464469D01*
X122946029Y-131464469D01*
G37*
G36*
X137946029Y-131464469D02*
X137946032Y-131464470D01*
X137946033Y-131464470D01*
X138134534Y-131521651D01*
X138134536Y-131521652D01*
X138134539Y-131521653D01*
X138308258Y-131614507D01*
X138460528Y-131739472D01*
X138585491Y-131891740D01*
X138585492Y-131891742D01*
X138678349Y-132065465D01*
X138735530Y-132253966D01*
X138735531Y-132253970D01*
X138750000Y-132400876D01*
X138750000Y-134099124D01*
X138735531Y-134246030D01*
X138735530Y-134246033D01*
X138735530Y-134246034D01*
X138678350Y-134434533D01*
X138678348Y-134434537D01*
X138585491Y-134608260D01*
X138460528Y-134760528D01*
X138308260Y-134885491D01*
X138308258Y-134885492D01*
X138134535Y-134978349D01*
X137946034Y-135035530D01*
X137946033Y-135035530D01*
X137946030Y-135035531D01*
X137750000Y-135054838D01*
X137553971Y-135035531D01*
X137553968Y-135035530D01*
X137553967Y-135035530D01*
X137365466Y-134978349D01*
X137191743Y-134885492D01*
X137191741Y-134885491D01*
X137039473Y-134760528D01*
X136914510Y-134608260D01*
X136860228Y-134506705D01*
X136821652Y-134434535D01*
X136821651Y-134434533D01*
X136764469Y-134246035D01*
X136750000Y-134099124D01*
X136750000Y-132400877D01*
X136764469Y-132253971D01*
X136764470Y-132253967D01*
X136821651Y-132065466D01*
X136821652Y-132065464D01*
X136821653Y-132065461D01*
X136914507Y-131891742D01*
X137039472Y-131739472D01*
X137191740Y-131614509D01*
X137365463Y-131521652D01*
X137365465Y-131521651D01*
X137553966Y-131464470D01*
X137553967Y-131464470D01*
X137553970Y-131464469D01*
X137750000Y-131445162D01*
X137946029Y-131464469D01*
X137946029Y-131464469D01*
G37*
G36*
X132946029Y-131464469D02*
X132946032Y-131464470D01*
X132946033Y-131464470D01*
X133134534Y-131521651D01*
X133134536Y-131521652D01*
X133134539Y-131521653D01*
X133308258Y-131614507D01*
X133460528Y-131739472D01*
X133585491Y-131891740D01*
X133585492Y-131891742D01*
X133678349Y-132065465D01*
X133735530Y-132253966D01*
X133735531Y-132253970D01*
X133750000Y-132400876D01*
X133750000Y-134099124D01*
X133735531Y-134246030D01*
X133735530Y-134246033D01*
X133735530Y-134246034D01*
X133678350Y-134434533D01*
X133678348Y-134434537D01*
X133585491Y-134608260D01*
X133460528Y-134760528D01*
X133308260Y-134885491D01*
X133308258Y-134885492D01*
X133134535Y-134978349D01*
X132946034Y-135035530D01*
X132946033Y-135035530D01*
X132946030Y-135035531D01*
X132750000Y-135054838D01*
X132553971Y-135035531D01*
X132553968Y-135035530D01*
X132553967Y-135035530D01*
X132365466Y-134978349D01*
X132191743Y-134885492D01*
X132191741Y-134885491D01*
X132039473Y-134760528D01*
X131914510Y-134608260D01*
X131860228Y-134506705D01*
X131821652Y-134434535D01*
X131821651Y-134434533D01*
X131764469Y-134246035D01*
X131750000Y-134099124D01*
X131750000Y-132400877D01*
X131764469Y-132253971D01*
X131764470Y-132253967D01*
X131821651Y-132065466D01*
X131821652Y-132065464D01*
X131821653Y-132065461D01*
X131914507Y-131891742D01*
X132039472Y-131739472D01*
X132191740Y-131614509D01*
X132365463Y-131521652D01*
X132365465Y-131521651D01*
X132553966Y-131464470D01*
X132553967Y-131464470D01*
X132553970Y-131464469D01*
X132750000Y-131445162D01*
X132946029Y-131464469D01*
X132946029Y-131464469D01*
G37*
G36*
X117946029Y-131464469D02*
X117946032Y-131464470D01*
X117946033Y-131464470D01*
X118134534Y-131521651D01*
X118134536Y-131521652D01*
X118134539Y-131521653D01*
X118308258Y-131614507D01*
X118460528Y-131739472D01*
X118585491Y-131891740D01*
X118585492Y-131891742D01*
X118678349Y-132065465D01*
X118735530Y-132253966D01*
X118735531Y-132253970D01*
X118750000Y-132400876D01*
X118750000Y-134099124D01*
X118735531Y-134246030D01*
X118735530Y-134246033D01*
X118735530Y-134246034D01*
X118678350Y-134434533D01*
X118678348Y-134434537D01*
X118585491Y-134608260D01*
X118460528Y-134760528D01*
X118308260Y-134885491D01*
X118308258Y-134885492D01*
X118134535Y-134978349D01*
X117946034Y-135035530D01*
X117946033Y-135035530D01*
X117946030Y-135035531D01*
X117750000Y-135054838D01*
X117553971Y-135035531D01*
X117553968Y-135035530D01*
X117553967Y-135035530D01*
X117365466Y-134978349D01*
X117191743Y-134885492D01*
X117191741Y-134885491D01*
X117039473Y-134760528D01*
X116914510Y-134608260D01*
X116860228Y-134506705D01*
X116821652Y-134434535D01*
X116821651Y-134434533D01*
X116764469Y-134246035D01*
X116750000Y-134099124D01*
X116750000Y-132400877D01*
X116764469Y-132253971D01*
X116764470Y-132253967D01*
X116821651Y-132065466D01*
X116821652Y-132065464D01*
X116821653Y-132065461D01*
X116914507Y-131891742D01*
X117039472Y-131739472D01*
X117191740Y-131614509D01*
X117365463Y-131521652D01*
X117365465Y-131521651D01*
X117553966Y-131464470D01*
X117553967Y-131464470D01*
X117553970Y-131464469D01*
X117750000Y-131445162D01*
X117946029Y-131464469D01*
X117946029Y-131464469D01*
G37*
G36*
X127946029Y-131464469D02*
X127946032Y-131464470D01*
X127946033Y-131464470D01*
X128134534Y-131521651D01*
X128134536Y-131521652D01*
X128134539Y-131521653D01*
X128308258Y-131614507D01*
X128460528Y-131739472D01*
X128585491Y-131891740D01*
X128585492Y-131891742D01*
X128678349Y-132065465D01*
X128735530Y-132253966D01*
X128735531Y-132253970D01*
X128750000Y-132400876D01*
X128750000Y-134099124D01*
X128735531Y-134246030D01*
X128735530Y-134246033D01*
X128735530Y-134246034D01*
X128678350Y-134434533D01*
X128678348Y-134434537D01*
X128585491Y-134608260D01*
X128460528Y-134760528D01*
X128308260Y-134885491D01*
X128308258Y-134885492D01*
X128134535Y-134978349D01*
X127946034Y-135035530D01*
X127946033Y-135035530D01*
X127946030Y-135035531D01*
X127750000Y-135054838D01*
X127553971Y-135035531D01*
X127553968Y-135035530D01*
X127553967Y-135035530D01*
X127365466Y-134978349D01*
X127191743Y-134885492D01*
X127191741Y-134885491D01*
X127039473Y-134760528D01*
X126914510Y-134608260D01*
X126860228Y-134506705D01*
X126821652Y-134434535D01*
X126821651Y-134434533D01*
X126764469Y-134246035D01*
X126750000Y-134099124D01*
X126750000Y-132400877D01*
X126764469Y-132253971D01*
X126764470Y-132253967D01*
X126821651Y-132065466D01*
X126821652Y-132065464D01*
X126821653Y-132065461D01*
X126914507Y-131891742D01*
X127039472Y-131739472D01*
X127191740Y-131614509D01*
X127365463Y-131521652D01*
X127365465Y-131521651D01*
X127553966Y-131464470D01*
X127553967Y-131464470D01*
X127553970Y-131464469D01*
X127750000Y-131445162D01*
X127946029Y-131464469D01*
X127946029Y-131464469D01*
G37*
G36*
X112946029Y-131464469D02*
X112946032Y-131464470D01*
X112946033Y-131464470D01*
X113134534Y-131521651D01*
X113134536Y-131521652D01*
X113134539Y-131521653D01*
X113308258Y-131614507D01*
X113460528Y-131739472D01*
X113585491Y-131891740D01*
X113585492Y-131891742D01*
X113678349Y-132065465D01*
X113735530Y-132253966D01*
X113735531Y-132253970D01*
X113750000Y-132400876D01*
X113750000Y-134099124D01*
X113735531Y-134246030D01*
X113735530Y-134246033D01*
X113735530Y-134246034D01*
X113678350Y-134434533D01*
X113678348Y-134434537D01*
X113585491Y-134608260D01*
X113460528Y-134760528D01*
X113308260Y-134885491D01*
X113308258Y-134885492D01*
X113134535Y-134978349D01*
X112946034Y-135035530D01*
X112946033Y-135035530D01*
X112946030Y-135035531D01*
X112750000Y-135054838D01*
X112553971Y-135035531D01*
X112553968Y-135035530D01*
X112553967Y-135035530D01*
X112365466Y-134978349D01*
X112191743Y-134885492D01*
X112191741Y-134885491D01*
X112039473Y-134760528D01*
X111914510Y-134608260D01*
X111860228Y-134506705D01*
X111821652Y-134434535D01*
X111821651Y-134434533D01*
X111764469Y-134246035D01*
X111750000Y-134099124D01*
X111750000Y-132400877D01*
X111764469Y-132253971D01*
X111764470Y-132253967D01*
X111821651Y-132065466D01*
X111821652Y-132065464D01*
X111821653Y-132065461D01*
X111914507Y-131891742D01*
X112039472Y-131739472D01*
X112191740Y-131614509D01*
X112365463Y-131521652D01*
X112365465Y-131521651D01*
X112553966Y-131464470D01*
X112553967Y-131464470D01*
X112553970Y-131464469D01*
X112750000Y-131445162D01*
X112946029Y-131464469D01*
X112946029Y-131464469D01*
G37*
G36*
X103750000Y-135050000D02*
X101750000Y-135050000D01*
X101750000Y-131450000D01*
X103750000Y-131450000D01*
X103750000Y-135050000D01*
X103750000Y-135050000D01*
G37*
G36*
X87490000Y-134920000D02*
X85590000Y-134920000D01*
X85590000Y-132420000D01*
X87490000Y-132420000D01*
X87490000Y-134920000D01*
X87490000Y-134920000D01*
G37*
G36*
X91890000Y-134920000D02*
X89990000Y-134920000D01*
X89990000Y-132420000D01*
X91890000Y-132420000D01*
X91890000Y-134920000D01*
X91890000Y-134920000D01*
G37*
G36*
X67620000Y-134470000D02*
X67120000Y-134470000D01*
X67120000Y-133870000D01*
X67620000Y-133870000D01*
X67620000Y-134470000D01*
X67620000Y-134470000D01*
G37*
G36*
X84430000Y-134380000D02*
X83930000Y-134380000D01*
X83930000Y-133780000D01*
X84430000Y-133780000D01*
X84430000Y-134380000D01*
X84430000Y-134380000D01*
G37*
G36*
X84430000Y-133280000D02*
X83930000Y-133280000D01*
X83930000Y-132680000D01*
X84430000Y-132680000D01*
X84430000Y-133280000D01*
X84430000Y-133280000D01*
G37*
G36*
X64660000Y-133160000D02*
X64260000Y-133160000D01*
X64260000Y-132560000D01*
X64660000Y-132560000D01*
X64660000Y-133160000D01*
X64660000Y-133160000D01*
G37*
G36*
X65560000Y-133160000D02*
X65160000Y-133160000D01*
X65160000Y-132560000D01*
X65560000Y-132560000D01*
X65560000Y-133160000D01*
X65560000Y-133160000D01*
G37*
G36*
X144192712Y-131276565D02*
X144277295Y-131284896D01*
X144397727Y-131321429D01*
X144440088Y-131334279D01*
X144590112Y-131414468D01*
X144721612Y-131522388D01*
X144829532Y-131653888D01*
X144909721Y-131803912D01*
X144909722Y-131803916D01*
X144959104Y-131966705D01*
X144975778Y-132136000D01*
X144959104Y-132305295D01*
X144930109Y-132400877D01*
X144909721Y-132468088D01*
X144829532Y-132618112D01*
X144721612Y-132749612D01*
X144590112Y-132857532D01*
X144440088Y-132937721D01*
X144397727Y-132950571D01*
X144277295Y-132987104D01*
X144192712Y-132995435D01*
X144150421Y-132999600D01*
X144065579Y-132999600D01*
X144023288Y-132995435D01*
X143938705Y-132987104D01*
X143818273Y-132950571D01*
X143775912Y-132937721D01*
X143625888Y-132857532D01*
X143494388Y-132749612D01*
X143386468Y-132618112D01*
X143306279Y-132468088D01*
X143285891Y-132400877D01*
X143256896Y-132305295D01*
X143240222Y-132136000D01*
X143256896Y-131966705D01*
X143306278Y-131803916D01*
X143306279Y-131803912D01*
X143386468Y-131653888D01*
X143494388Y-131522388D01*
X143625888Y-131414468D01*
X143775912Y-131334279D01*
X143818273Y-131321429D01*
X143938705Y-131284896D01*
X144023288Y-131276565D01*
X144065579Y-131272400D01*
X144150421Y-131272400D01*
X144192712Y-131276565D01*
X144192712Y-131276565D01*
G37*
G36*
X146732712Y-131276565D02*
X146817295Y-131284896D01*
X146937727Y-131321429D01*
X146980088Y-131334279D01*
X147130112Y-131414468D01*
X147261612Y-131522388D01*
X147369532Y-131653888D01*
X147449721Y-131803912D01*
X147449722Y-131803916D01*
X147499104Y-131966705D01*
X147515778Y-132136000D01*
X147499104Y-132305295D01*
X147470109Y-132400877D01*
X147449721Y-132468088D01*
X147369532Y-132618112D01*
X147261612Y-132749612D01*
X147130112Y-132857532D01*
X146980088Y-132937721D01*
X146937727Y-132950571D01*
X146817295Y-132987104D01*
X146732712Y-132995435D01*
X146690421Y-132999600D01*
X146605579Y-132999600D01*
X146563288Y-132995435D01*
X146478705Y-132987104D01*
X146358273Y-132950571D01*
X146315912Y-132937721D01*
X146165888Y-132857532D01*
X146034388Y-132749612D01*
X145926468Y-132618112D01*
X145846279Y-132468088D01*
X145825891Y-132400877D01*
X145796896Y-132305295D01*
X145780222Y-132136000D01*
X145796896Y-131966705D01*
X145846278Y-131803916D01*
X145846279Y-131803912D01*
X145926468Y-131653888D01*
X146034388Y-131522388D01*
X146165888Y-131414468D01*
X146315912Y-131334279D01*
X146358273Y-131321429D01*
X146478705Y-131284896D01*
X146563288Y-131276565D01*
X146605579Y-131272400D01*
X146690421Y-131272400D01*
X146732712Y-131276565D01*
X146732712Y-131276565D01*
G37*
G36*
X80850000Y-132030000D02*
X80450000Y-132030000D01*
X80450000Y-131430000D01*
X80850000Y-131430000D01*
X80850000Y-132030000D01*
X80850000Y-132030000D01*
G37*
G36*
X81750000Y-132030000D02*
X81350000Y-132030000D01*
X81350000Y-131430000D01*
X81750000Y-131430000D01*
X81750000Y-132030000D01*
X81750000Y-132030000D01*
G37*
G36*
X86266318Y-129594411D02*
X86338767Y-129608822D01*
X86395303Y-129632240D01*
X86475257Y-129665358D01*
X86598100Y-129747439D01*
X86702561Y-129851900D01*
X86784642Y-129974743D01*
X86841178Y-130111234D01*
X86870000Y-130256130D01*
X86870000Y-130403870D01*
X86841178Y-130548766D01*
X86784642Y-130685257D01*
X86702561Y-130808100D01*
X86598100Y-130912561D01*
X86475257Y-130994642D01*
X86414037Y-131020000D01*
X86338767Y-131051178D01*
X86266318Y-131065589D01*
X86193870Y-131080000D01*
X86046130Y-131080000D01*
X85973682Y-131065589D01*
X85901233Y-131051178D01*
X85825963Y-131020000D01*
X85764743Y-130994642D01*
X85641900Y-130912561D01*
X85537439Y-130808100D01*
X85455358Y-130685257D01*
X85398822Y-130548766D01*
X85370000Y-130403870D01*
X85370000Y-130256130D01*
X85398822Y-130111234D01*
X85455358Y-129974743D01*
X85537439Y-129851900D01*
X85641900Y-129747439D01*
X85764743Y-129665358D01*
X85844697Y-129632240D01*
X85901233Y-129608822D01*
X85973682Y-129594411D01*
X86046130Y-129580000D01*
X86193870Y-129580000D01*
X86266318Y-129594411D01*
X86266318Y-129594411D01*
G37*
G36*
X89176318Y-129534411D02*
X89248767Y-129548822D01*
X89305303Y-129572240D01*
X89385257Y-129605358D01*
X89508100Y-129687439D01*
X89612561Y-129791900D01*
X89694642Y-129914743D01*
X89727760Y-129994697D01*
X89751178Y-130051233D01*
X89763113Y-130111233D01*
X89780000Y-130196130D01*
X89780000Y-130343870D01*
X89751178Y-130488766D01*
X89694642Y-130625257D01*
X89612561Y-130748100D01*
X89508100Y-130852561D01*
X89385257Y-130934642D01*
X89305303Y-130967760D01*
X89248767Y-130991178D01*
X89231357Y-130994641D01*
X89103870Y-131020000D01*
X88956130Y-131020000D01*
X88828643Y-130994641D01*
X88811233Y-130991178D01*
X88754697Y-130967760D01*
X88674743Y-130934642D01*
X88551900Y-130852561D01*
X88447439Y-130748100D01*
X88365358Y-130625257D01*
X88308822Y-130488766D01*
X88280000Y-130343870D01*
X88280000Y-130196130D01*
X88296887Y-130111233D01*
X88308822Y-130051233D01*
X88332240Y-129994697D01*
X88365358Y-129914743D01*
X88447439Y-129791900D01*
X88551900Y-129687439D01*
X88674743Y-129605358D01*
X88754697Y-129572240D01*
X88811233Y-129548822D01*
X88883682Y-129534411D01*
X88956130Y-129520000D01*
X89103870Y-129520000D01*
X89176318Y-129534411D01*
X89176318Y-129534411D01*
G37*
G36*
X64590000Y-130990000D02*
X63990000Y-130990000D01*
X63990000Y-130490000D01*
X64590000Y-130490000D01*
X64590000Y-130990000D01*
X64590000Y-130990000D01*
G37*
G36*
X65690000Y-130990000D02*
X65090000Y-130990000D01*
X65090000Y-130490000D01*
X65690000Y-130490000D01*
X65690000Y-130990000D01*
X65690000Y-130990000D01*
G37*
G36*
X144192712Y-128736565D02*
X144277295Y-128744896D01*
X144397727Y-128781429D01*
X144440088Y-128794279D01*
X144590112Y-128874468D01*
X144721612Y-128982388D01*
X144829532Y-129113888D01*
X144909721Y-129263912D01*
X144909722Y-129263916D01*
X144959104Y-129426705D01*
X144975778Y-129596000D01*
X144959104Y-129765295D01*
X144951033Y-129791900D01*
X144909721Y-129928088D01*
X144829532Y-130078112D01*
X144721612Y-130209612D01*
X144590112Y-130317532D01*
X144440088Y-130397721D01*
X144419817Y-130403870D01*
X144277295Y-130447104D01*
X144192712Y-130455435D01*
X144150421Y-130459600D01*
X144065579Y-130459600D01*
X144023288Y-130455435D01*
X143938705Y-130447104D01*
X143796183Y-130403870D01*
X143775912Y-130397721D01*
X143625888Y-130317532D01*
X143494388Y-130209612D01*
X143386468Y-130078112D01*
X143306279Y-129928088D01*
X143264967Y-129791900D01*
X143256896Y-129765295D01*
X143240222Y-129596000D01*
X143256896Y-129426705D01*
X143306278Y-129263916D01*
X143306279Y-129263912D01*
X143386468Y-129113888D01*
X143494388Y-128982388D01*
X143625888Y-128874468D01*
X143775912Y-128794279D01*
X143818273Y-128781429D01*
X143938705Y-128744896D01*
X144023288Y-128736565D01*
X144065579Y-128732400D01*
X144150421Y-128732400D01*
X144192712Y-128736565D01*
X144192712Y-128736565D01*
G37*
G36*
X146732712Y-128736565D02*
X146817295Y-128744896D01*
X146937727Y-128781429D01*
X146980088Y-128794279D01*
X147130112Y-128874468D01*
X147261612Y-128982388D01*
X147369532Y-129113888D01*
X147449721Y-129263912D01*
X147449722Y-129263916D01*
X147499104Y-129426705D01*
X147515778Y-129596000D01*
X147499104Y-129765295D01*
X147491033Y-129791900D01*
X147449721Y-129928088D01*
X147369532Y-130078112D01*
X147261612Y-130209612D01*
X147130112Y-130317532D01*
X146980088Y-130397721D01*
X146959817Y-130403870D01*
X146817295Y-130447104D01*
X146732712Y-130455435D01*
X146690421Y-130459600D01*
X146605579Y-130459600D01*
X146563288Y-130455435D01*
X146478705Y-130447104D01*
X146336183Y-130403870D01*
X146315912Y-130397721D01*
X146165888Y-130317532D01*
X146034388Y-130209612D01*
X145926468Y-130078112D01*
X145846279Y-129928088D01*
X145804967Y-129791900D01*
X145796896Y-129765295D01*
X145780222Y-129596000D01*
X145796896Y-129426705D01*
X145846278Y-129263916D01*
X145846279Y-129263912D01*
X145926468Y-129113888D01*
X146034388Y-128982388D01*
X146165888Y-128874468D01*
X146315912Y-128794279D01*
X146358273Y-128781429D01*
X146478705Y-128744896D01*
X146563288Y-128736565D01*
X146605579Y-128732400D01*
X146690421Y-128732400D01*
X146732712Y-128736565D01*
X146732712Y-128736565D01*
G37*
G36*
X62560000Y-129520000D02*
X62160000Y-129520000D01*
X62160000Y-128920000D01*
X62560000Y-128920000D01*
X62560000Y-129520000D01*
X62560000Y-129520000D01*
G37*
G36*
X63460000Y-129520000D02*
X63060000Y-129520000D01*
X63060000Y-128920000D01*
X63460000Y-128920000D01*
X63460000Y-129520000D01*
X63460000Y-129520000D01*
G37*
G36*
X90020000Y-129120000D02*
X89620000Y-129120000D01*
X89620000Y-128520000D01*
X90020000Y-128520000D01*
X90020000Y-129120000D01*
X90020000Y-129120000D01*
G37*
G36*
X90920000Y-129120000D02*
X90520000Y-129120000D01*
X90520000Y-128520000D01*
X90920000Y-128520000D01*
X90920000Y-129120000D01*
X90920000Y-129120000D01*
G37*
G36*
X96122703Y-127806692D02*
X95606484Y-128543928D01*
X94213925Y-127568848D01*
X94730144Y-126831612D01*
X96122703Y-127806692D01*
X96122703Y-127806692D01*
G37*
G36*
X84450000Y-128300000D02*
X84050000Y-128300000D01*
X84050000Y-127700000D01*
X84450000Y-127700000D01*
X84450000Y-128300000D01*
X84450000Y-128300000D01*
G37*
G36*
X83550000Y-128300000D02*
X83150000Y-128300000D01*
X83150000Y-127700000D01*
X83550000Y-127700000D01*
X83550000Y-128300000D01*
X83550000Y-128300000D01*
G37*
G36*
X63390000Y-128060000D02*
X62990000Y-128060000D01*
X62990000Y-127460000D01*
X63390000Y-127460000D01*
X63390000Y-128060000D01*
X63390000Y-128060000D01*
G37*
G36*
X62490000Y-128060000D02*
X62090000Y-128060000D01*
X62090000Y-127460000D01*
X62490000Y-127460000D01*
X62490000Y-128060000D01*
X62490000Y-128060000D01*
G37*
G36*
X144192712Y-126196565D02*
X144277295Y-126204896D01*
X144397727Y-126241429D01*
X144440088Y-126254279D01*
X144590112Y-126334468D01*
X144721612Y-126442388D01*
X144829532Y-126573888D01*
X144909721Y-126723912D01*
X144909722Y-126723916D01*
X144959104Y-126886705D01*
X144975778Y-127056000D01*
X144959104Y-127225295D01*
X144922571Y-127345727D01*
X144909721Y-127388088D01*
X144829532Y-127538112D01*
X144721612Y-127669612D01*
X144590112Y-127777532D01*
X144440088Y-127857721D01*
X144397727Y-127870571D01*
X144277295Y-127907104D01*
X144192712Y-127915435D01*
X144150421Y-127919600D01*
X144065579Y-127919600D01*
X144023288Y-127915435D01*
X143938705Y-127907104D01*
X143818273Y-127870571D01*
X143775912Y-127857721D01*
X143625888Y-127777532D01*
X143494388Y-127669612D01*
X143386468Y-127538112D01*
X143306279Y-127388088D01*
X143293429Y-127345727D01*
X143256896Y-127225295D01*
X143240222Y-127056000D01*
X143256896Y-126886705D01*
X143306278Y-126723916D01*
X143306279Y-126723912D01*
X143386468Y-126573888D01*
X143494388Y-126442388D01*
X143625888Y-126334468D01*
X143775912Y-126254279D01*
X143818273Y-126241429D01*
X143938705Y-126204896D01*
X144023288Y-126196565D01*
X144065579Y-126192400D01*
X144150421Y-126192400D01*
X144192712Y-126196565D01*
X144192712Y-126196565D01*
G37*
G36*
X146732712Y-126196565D02*
X146817295Y-126204896D01*
X146937727Y-126241429D01*
X146980088Y-126254279D01*
X147130112Y-126334468D01*
X147261612Y-126442388D01*
X147369532Y-126573888D01*
X147449721Y-126723912D01*
X147449722Y-126723916D01*
X147499104Y-126886705D01*
X147515778Y-127056000D01*
X147499104Y-127225295D01*
X147462571Y-127345727D01*
X147449721Y-127388088D01*
X147369532Y-127538112D01*
X147261612Y-127669612D01*
X147130112Y-127777532D01*
X146980088Y-127857721D01*
X146937727Y-127870571D01*
X146817295Y-127907104D01*
X146732712Y-127915435D01*
X146690421Y-127919600D01*
X146605579Y-127919600D01*
X146563288Y-127915435D01*
X146478705Y-127907104D01*
X146358273Y-127870571D01*
X146315912Y-127857721D01*
X146165888Y-127777532D01*
X146034388Y-127669612D01*
X145926468Y-127538112D01*
X145846279Y-127388088D01*
X145833429Y-127345727D01*
X145796896Y-127225295D01*
X145780222Y-127056000D01*
X145796896Y-126886705D01*
X145846278Y-126723916D01*
X145846279Y-126723912D01*
X145926468Y-126573888D01*
X146034388Y-126442388D01*
X146165888Y-126334468D01*
X146315912Y-126254279D01*
X146358273Y-126241429D01*
X146478705Y-126204896D01*
X146563288Y-126196565D01*
X146605579Y-126192400D01*
X146690421Y-126192400D01*
X146732712Y-126196565D01*
X146732712Y-126196565D01*
G37*
G36*
X62310000Y-126930000D02*
X61910000Y-126930000D01*
X61910000Y-126330000D01*
X62310000Y-126330000D01*
X62310000Y-126930000D01*
X62310000Y-126930000D01*
G37*
G36*
X60220000Y-126930000D02*
X59820000Y-126930000D01*
X59820000Y-126330000D01*
X60220000Y-126330000D01*
X60220000Y-126930000D01*
X60220000Y-126930000D01*
G37*
G36*
X59320000Y-126930000D02*
X58920000Y-126930000D01*
X58920000Y-126330000D01*
X59320000Y-126330000D01*
X59320000Y-126930000D01*
X59320000Y-126930000D01*
G37*
G36*
X61410000Y-126930000D02*
X61010000Y-126930000D01*
X61010000Y-126330000D01*
X61410000Y-126330000D01*
X61410000Y-126930000D01*
X61410000Y-126930000D01*
G37*
G36*
X83550000Y-126800000D02*
X83150000Y-126800000D01*
X83150000Y-126200000D01*
X83550000Y-126200000D01*
X83550000Y-126800000D01*
X83550000Y-126800000D01*
G37*
G36*
X84450000Y-126800000D02*
X84050000Y-126800000D01*
X84050000Y-126200000D01*
X84450000Y-126200000D01*
X84450000Y-126800000D01*
X84450000Y-126800000D01*
G37*
G36*
X97786075Y-125431152D02*
X97269856Y-126168388D01*
X95877297Y-125193308D01*
X96393516Y-124456072D01*
X97786075Y-125431152D01*
X97786075Y-125431152D01*
G37*
G36*
X60190000Y-125530000D02*
X59690000Y-125530000D01*
X59690000Y-124930000D01*
X60190000Y-124930000D01*
X60190000Y-125530000D01*
X60190000Y-125530000D01*
G37*
G36*
X61620000Y-125470000D02*
X61120000Y-125470000D01*
X61120000Y-124870000D01*
X61620000Y-124870000D01*
X61620000Y-125470000D01*
X61620000Y-125470000D01*
G37*
G36*
X144192712Y-123656565D02*
X144277295Y-123664896D01*
X144397727Y-123701429D01*
X144440088Y-123714279D01*
X144590112Y-123794468D01*
X144721612Y-123902388D01*
X144829532Y-124033888D01*
X144909721Y-124183912D01*
X144909722Y-124183916D01*
X144959104Y-124346705D01*
X144975778Y-124516000D01*
X144959104Y-124685295D01*
X144954643Y-124700000D01*
X144909721Y-124848088D01*
X144829532Y-124998112D01*
X144721612Y-125129612D01*
X144590112Y-125237532D01*
X144440088Y-125317721D01*
X144397727Y-125330571D01*
X144277295Y-125367104D01*
X144192712Y-125375435D01*
X144150421Y-125379600D01*
X144065579Y-125379600D01*
X144023288Y-125375435D01*
X143938705Y-125367104D01*
X143818273Y-125330571D01*
X143775912Y-125317721D01*
X143625888Y-125237532D01*
X143494388Y-125129612D01*
X143386468Y-124998112D01*
X143306279Y-124848088D01*
X143261357Y-124700000D01*
X143256896Y-124685295D01*
X143240222Y-124516000D01*
X143256896Y-124346705D01*
X143306278Y-124183916D01*
X143306279Y-124183912D01*
X143386468Y-124033888D01*
X143494388Y-123902388D01*
X143625888Y-123794468D01*
X143775912Y-123714279D01*
X143818273Y-123701429D01*
X143938705Y-123664896D01*
X144023288Y-123656565D01*
X144065579Y-123652400D01*
X144150421Y-123652400D01*
X144192712Y-123656565D01*
X144192712Y-123656565D01*
G37*
G36*
X146732712Y-123656565D02*
X146817295Y-123664896D01*
X146937727Y-123701429D01*
X146980088Y-123714279D01*
X147130112Y-123794468D01*
X147261612Y-123902388D01*
X147369532Y-124033888D01*
X147449721Y-124183912D01*
X147449722Y-124183916D01*
X147499104Y-124346705D01*
X147515778Y-124516000D01*
X147499104Y-124685295D01*
X147494643Y-124700000D01*
X147449721Y-124848088D01*
X147369532Y-124998112D01*
X147261612Y-125129612D01*
X147130112Y-125237532D01*
X146980088Y-125317721D01*
X146937727Y-125330571D01*
X146817295Y-125367104D01*
X146732712Y-125375435D01*
X146690421Y-125379600D01*
X146605579Y-125379600D01*
X146563288Y-125375435D01*
X146478705Y-125367104D01*
X146358273Y-125330571D01*
X146315912Y-125317721D01*
X146165888Y-125237532D01*
X146034388Y-125129612D01*
X145926468Y-124998112D01*
X145846279Y-124848088D01*
X145801357Y-124700000D01*
X145796896Y-124685295D01*
X145780222Y-124516000D01*
X145796896Y-124346705D01*
X145846278Y-124183916D01*
X145846279Y-124183912D01*
X145926468Y-124033888D01*
X146034388Y-123902388D01*
X146165888Y-123794468D01*
X146315912Y-123714279D01*
X146358273Y-123701429D01*
X146478705Y-123664896D01*
X146563288Y-123656565D01*
X146605579Y-123652400D01*
X146690421Y-123652400D01*
X146732712Y-123656565D01*
X146732712Y-123656565D01*
G37*
G36*
X84400000Y-125300000D02*
X84000000Y-125300000D01*
X84000000Y-124700000D01*
X84400000Y-124700000D01*
X84400000Y-125300000D01*
X84400000Y-125300000D01*
G37*
G36*
X83500000Y-125300000D02*
X83100000Y-125300000D01*
X83100000Y-124700000D01*
X83500000Y-124700000D01*
X83500000Y-125300000D01*
X83500000Y-125300000D01*
G37*
G36*
X52246318Y-123254411D02*
X52318767Y-123268822D01*
X52375303Y-123292240D01*
X52455257Y-123325358D01*
X52578100Y-123407439D01*
X52682561Y-123511900D01*
X52764642Y-123634743D01*
X52797586Y-123714278D01*
X52804587Y-123731178D01*
X52821178Y-123771234D01*
X52850000Y-123916130D01*
X52850000Y-124063870D01*
X52821178Y-124208766D01*
X52764642Y-124345257D01*
X52682561Y-124468100D01*
X52578100Y-124572561D01*
X52455257Y-124654642D01*
X52375303Y-124687760D01*
X52318767Y-124711178D01*
X52246318Y-124725589D01*
X52173870Y-124740000D01*
X52026130Y-124740000D01*
X51953682Y-124725589D01*
X51881233Y-124711178D01*
X51824697Y-124687760D01*
X51744743Y-124654642D01*
X51621900Y-124572561D01*
X51517439Y-124468100D01*
X51435358Y-124345257D01*
X51378822Y-124208766D01*
X51350000Y-124063870D01*
X51350000Y-123916130D01*
X51378822Y-123771234D01*
X51395414Y-123731178D01*
X51402414Y-123714278D01*
X51435358Y-123634743D01*
X51517439Y-123511900D01*
X51621900Y-123407439D01*
X51744743Y-123325358D01*
X51824697Y-123292240D01*
X51881233Y-123268822D01*
X51953682Y-123254411D01*
X52026130Y-123240000D01*
X52173870Y-123240000D01*
X52246318Y-123254411D01*
X52246318Y-123254411D01*
G37*
G36*
X60190000Y-124430000D02*
X59690000Y-124430000D01*
X59690000Y-123830000D01*
X60190000Y-123830000D01*
X60190000Y-124430000D01*
X60190000Y-124430000D01*
G37*
G36*
X61620000Y-124370000D02*
X61120000Y-124370000D01*
X61120000Y-123770000D01*
X61620000Y-123770000D01*
X61620000Y-124370000D01*
X61620000Y-124370000D01*
G37*
G36*
X83846318Y-122274411D02*
X83918767Y-122288822D01*
X83965269Y-122308084D01*
X84055257Y-122345358D01*
X84178100Y-122427439D01*
X84282561Y-122531900D01*
X84364642Y-122654743D01*
X84397760Y-122734697D01*
X84421178Y-122791233D01*
X84450000Y-122936131D01*
X84450000Y-123083869D01*
X84421178Y-123228767D01*
X84397760Y-123285303D01*
X84364642Y-123365257D01*
X84282561Y-123488100D01*
X84178100Y-123592561D01*
X84055257Y-123674642D01*
X83975303Y-123707760D01*
X83918767Y-123731178D01*
X83846318Y-123745589D01*
X83773870Y-123760000D01*
X83626130Y-123760000D01*
X83553682Y-123745589D01*
X83481233Y-123731178D01*
X83424697Y-123707760D01*
X83344743Y-123674642D01*
X83221900Y-123592561D01*
X83117439Y-123488100D01*
X83035358Y-123365257D01*
X83002240Y-123285303D01*
X82978822Y-123228767D01*
X82950000Y-123083869D01*
X82950000Y-122936131D01*
X82978822Y-122791233D01*
X83002240Y-122734697D01*
X83035358Y-122654743D01*
X83117439Y-122531900D01*
X83221900Y-122427439D01*
X83344743Y-122345358D01*
X83434731Y-122308084D01*
X83481233Y-122288822D01*
X83553682Y-122274411D01*
X83626130Y-122260000D01*
X83773870Y-122260000D01*
X83846318Y-122274411D01*
X83846318Y-122274411D01*
G37*
G36*
X64150000Y-123470000D02*
X63750000Y-123470000D01*
X63750000Y-122870000D01*
X64150000Y-122870000D01*
X64150000Y-123470000D01*
X64150000Y-123470000D01*
G37*
G36*
X63250000Y-123470000D02*
X62850000Y-123470000D01*
X62850000Y-122870000D01*
X63250000Y-122870000D01*
X63250000Y-123470000D01*
X63250000Y-123470000D01*
G37*
G36*
X66540000Y-123460000D02*
X66140000Y-123460000D01*
X66140000Y-122860000D01*
X66540000Y-122860000D01*
X66540000Y-123460000D01*
X66540000Y-123460000D01*
G37*
G36*
X65640000Y-123460000D02*
X65240000Y-123460000D01*
X65240000Y-122860000D01*
X65640000Y-122860000D01*
X65640000Y-123460000D01*
X65640000Y-123460000D01*
G37*
G36*
X57660000Y-123370000D02*
X57260000Y-123370000D01*
X57260000Y-122770000D01*
X57660000Y-122770000D01*
X57660000Y-123370000D01*
X57660000Y-123370000D01*
G37*
G36*
X56760000Y-123370000D02*
X56360000Y-123370000D01*
X56360000Y-122770000D01*
X56760000Y-122770000D01*
X56760000Y-123370000D01*
X56760000Y-123370000D01*
G37*
G36*
X81750000Y-123200000D02*
X81150000Y-123200000D01*
X81150000Y-122800000D01*
X81750000Y-122800000D01*
X81750000Y-123200000D01*
X81750000Y-123200000D01*
G37*
G36*
X144192712Y-121116565D02*
X144277295Y-121124896D01*
X144397727Y-121161429D01*
X144440088Y-121174279D01*
X144590112Y-121254468D01*
X144721612Y-121362388D01*
X144829532Y-121493888D01*
X144909721Y-121643912D01*
X144909722Y-121643916D01*
X144959104Y-121806705D01*
X144975778Y-121976000D01*
X144959104Y-122145295D01*
X144924308Y-122260000D01*
X144909721Y-122308088D01*
X144829532Y-122458112D01*
X144721612Y-122589612D01*
X144590112Y-122697532D01*
X144440088Y-122777721D01*
X144397727Y-122790571D01*
X144277295Y-122827104D01*
X144198607Y-122834854D01*
X144150421Y-122839600D01*
X144065579Y-122839600D01*
X144017393Y-122834854D01*
X143938705Y-122827104D01*
X143818273Y-122790571D01*
X143775912Y-122777721D01*
X143625888Y-122697532D01*
X143494388Y-122589612D01*
X143386468Y-122458112D01*
X143306279Y-122308088D01*
X143291692Y-122260000D01*
X143256896Y-122145295D01*
X143240222Y-121976000D01*
X143256896Y-121806705D01*
X143306278Y-121643916D01*
X143306279Y-121643912D01*
X143386468Y-121493888D01*
X143494388Y-121362388D01*
X143625888Y-121254468D01*
X143775912Y-121174279D01*
X143818273Y-121161429D01*
X143938705Y-121124896D01*
X144023288Y-121116565D01*
X144065579Y-121112400D01*
X144150421Y-121112400D01*
X144192712Y-121116565D01*
X144192712Y-121116565D01*
G37*
G36*
X146732712Y-121116565D02*
X146817295Y-121124896D01*
X146937727Y-121161429D01*
X146980088Y-121174279D01*
X147130112Y-121254468D01*
X147261612Y-121362388D01*
X147369532Y-121493888D01*
X147449721Y-121643912D01*
X147449722Y-121643916D01*
X147499104Y-121806705D01*
X147515778Y-121976000D01*
X147499104Y-122145295D01*
X147464308Y-122260000D01*
X147449721Y-122308088D01*
X147369532Y-122458112D01*
X147261612Y-122589612D01*
X147130112Y-122697532D01*
X146980088Y-122777721D01*
X146937727Y-122790571D01*
X146817295Y-122827104D01*
X146738607Y-122834854D01*
X146690421Y-122839600D01*
X146605579Y-122839600D01*
X146557393Y-122834854D01*
X146478705Y-122827104D01*
X146358273Y-122790571D01*
X146315912Y-122777721D01*
X146165888Y-122697532D01*
X146034388Y-122589612D01*
X145926468Y-122458112D01*
X145846279Y-122308088D01*
X145831692Y-122260000D01*
X145796896Y-122145295D01*
X145780222Y-121976000D01*
X145796896Y-121806705D01*
X145846278Y-121643916D01*
X145846279Y-121643912D01*
X145926468Y-121493888D01*
X146034388Y-121362388D01*
X146165888Y-121254468D01*
X146315912Y-121174279D01*
X146358273Y-121161429D01*
X146478705Y-121124896D01*
X146563288Y-121116565D01*
X146605579Y-121112400D01*
X146690421Y-121112400D01*
X146732712Y-121116565D01*
X146732712Y-121116565D01*
G37*
G36*
X55035893Y-122834854D02*
X54435893Y-122834854D01*
X54435893Y-122334854D01*
X55035893Y-122334854D01*
X55035893Y-122834854D01*
X55035893Y-122834854D01*
G37*
G36*
X53935893Y-122834854D02*
X53335893Y-122834854D01*
X53335893Y-122334854D01*
X53935893Y-122334854D01*
X53935893Y-122834854D01*
X53935893Y-122834854D01*
G37*
G36*
X140187329Y-122646708D02*
X138663329Y-122646708D01*
X138663329Y-120614708D01*
X140187329Y-120614708D01*
X140187329Y-122646708D01*
X140187329Y-122646708D01*
G37*
G36*
X132567329Y-122646708D02*
X131043329Y-122646708D01*
X131043329Y-120614708D01*
X132567329Y-120614708D01*
X132567329Y-122646708D01*
X132567329Y-122646708D01*
G37*
G36*
X137647329Y-122646708D02*
X136123329Y-122646708D01*
X136123329Y-120614708D01*
X137647329Y-120614708D01*
X137647329Y-122646708D01*
X137647329Y-122646708D01*
G37*
G36*
X135107329Y-122646708D02*
X133583329Y-122646708D01*
X133583329Y-120614708D01*
X135107329Y-120614708D01*
X135107329Y-122646708D01*
X135107329Y-122646708D01*
G37*
G36*
X81750000Y-122300000D02*
X81150000Y-122300000D01*
X81150000Y-121900000D01*
X81750000Y-121900000D01*
X81750000Y-122300000D01*
X81750000Y-122300000D01*
G37*
G36*
X67180000Y-122010000D02*
X66780000Y-122010000D01*
X66780000Y-121410000D01*
X67180000Y-121410000D01*
X67180000Y-122010000D01*
X67180000Y-122010000D01*
G37*
G36*
X66280000Y-122010000D02*
X65880000Y-122010000D01*
X65880000Y-121410000D01*
X66280000Y-121410000D01*
X66280000Y-122010000D01*
X66280000Y-122010000D01*
G37*
G36*
X59400000Y-121630000D02*
X59000000Y-121630000D01*
X59000000Y-121030000D01*
X59400000Y-121030000D01*
X59400000Y-121630000D01*
X59400000Y-121630000D01*
G37*
G36*
X58500000Y-121630000D02*
X58100000Y-121630000D01*
X58100000Y-121030000D01*
X58500000Y-121030000D01*
X58500000Y-121630000D01*
X58500000Y-121630000D01*
G37*
G36*
X116670000Y-121350000D02*
X115770000Y-121350000D01*
X115770000Y-120850000D01*
X116670000Y-120850000D01*
X116670000Y-121350000D01*
X116670000Y-121350000D01*
G37*
G36*
X119290000Y-121280000D02*
X118390000Y-121280000D01*
X118390000Y-120780000D01*
X119290000Y-120780000D01*
X119290000Y-121280000D01*
X119290000Y-121280000D01*
G37*
G36*
X99023127Y-118376901D02*
X99158365Y-118403801D01*
X99338523Y-118478425D01*
X99355911Y-118485627D01*
X99413149Y-118509336D01*
X99600139Y-118634279D01*
X99642451Y-118662551D01*
X99837449Y-118857549D01*
X99837451Y-118857552D01*
X99990664Y-119086851D01*
X100096199Y-119341635D01*
X100150000Y-119612112D01*
X100150000Y-119887888D01*
X100096199Y-120158365D01*
X99990664Y-120413149D01*
X99839489Y-120639397D01*
X99837449Y-120642451D01*
X99642451Y-120837449D01*
X99642448Y-120837451D01*
X99413149Y-120990664D01*
X99158365Y-121096199D01*
X99023126Y-121123100D01*
X98887889Y-121150000D01*
X98612111Y-121150000D01*
X98476874Y-121123100D01*
X98341635Y-121096199D01*
X98086851Y-120990664D01*
X97857552Y-120837451D01*
X97857549Y-120837449D01*
X97662551Y-120642451D01*
X97660511Y-120639397D01*
X97509336Y-120413149D01*
X97403801Y-120158365D01*
X97350000Y-119887888D01*
X97350000Y-119612112D01*
X97403801Y-119341635D01*
X97509336Y-119086851D01*
X97662549Y-118857552D01*
X97662551Y-118857549D01*
X97857549Y-118662551D01*
X97899861Y-118634279D01*
X98086851Y-118509336D01*
X98144090Y-118485627D01*
X98161477Y-118478425D01*
X98341635Y-118403801D01*
X98476873Y-118376901D01*
X98612111Y-118350000D01*
X98887889Y-118350000D01*
X99023127Y-118376901D01*
X99023127Y-118376901D01*
G37*
G36*
X94650000Y-121150000D02*
X91850000Y-121150000D01*
X91850000Y-118350000D01*
X94650000Y-118350000D01*
X94650000Y-121150000D01*
X94650000Y-121150000D01*
G37*
G36*
X80790000Y-121030000D02*
X80190000Y-121030000D01*
X80190000Y-120630000D01*
X80790000Y-120630000D01*
X80790000Y-121030000D01*
X80790000Y-121030000D01*
G37*
G36*
X66400000Y-120580000D02*
X65800000Y-120580000D01*
X65800000Y-120180000D01*
X66400000Y-120180000D01*
X66400000Y-120580000D01*
X66400000Y-120580000D01*
G37*
G36*
X146732712Y-118576565D02*
X146817295Y-118584896D01*
X146937727Y-118621429D01*
X146980088Y-118634279D01*
X147130112Y-118714468D01*
X147261612Y-118822388D01*
X147369532Y-118953888D01*
X147449721Y-119103912D01*
X147449722Y-119103916D01*
X147499104Y-119266705D01*
X147515778Y-119436000D01*
X147499104Y-119605295D01*
X147484761Y-119652576D01*
X147449721Y-119768088D01*
X147369532Y-119918112D01*
X147261612Y-120049612D01*
X147130112Y-120157532D01*
X146980088Y-120237721D01*
X146937727Y-120250571D01*
X146817295Y-120287104D01*
X146732712Y-120295435D01*
X146690421Y-120299600D01*
X146605579Y-120299600D01*
X146563288Y-120295435D01*
X146478705Y-120287104D01*
X146358273Y-120250571D01*
X146315912Y-120237721D01*
X146165888Y-120157532D01*
X146034388Y-120049612D01*
X145926468Y-119918112D01*
X145846279Y-119768088D01*
X145811239Y-119652576D01*
X145796896Y-119605295D01*
X145780222Y-119436000D01*
X145796896Y-119266705D01*
X145846278Y-119103916D01*
X145846279Y-119103912D01*
X145926468Y-118953888D01*
X146034388Y-118822388D01*
X146165888Y-118714468D01*
X146315912Y-118634279D01*
X146358273Y-118621429D01*
X146478705Y-118584896D01*
X146563288Y-118576565D01*
X146605579Y-118572400D01*
X146690421Y-118572400D01*
X146732712Y-118576565D01*
X146732712Y-118576565D01*
G37*
G36*
X144192712Y-118576565D02*
X144277295Y-118584896D01*
X144397727Y-118621429D01*
X144440088Y-118634279D01*
X144590112Y-118714468D01*
X144721612Y-118822388D01*
X144829532Y-118953888D01*
X144909721Y-119103912D01*
X144909722Y-119103916D01*
X144959104Y-119266705D01*
X144975778Y-119436000D01*
X144959104Y-119605295D01*
X144944761Y-119652576D01*
X144909721Y-119768088D01*
X144829532Y-119918112D01*
X144721612Y-120049612D01*
X144590112Y-120157532D01*
X144440088Y-120237721D01*
X144397727Y-120250571D01*
X144277295Y-120287104D01*
X144192712Y-120295435D01*
X144150421Y-120299600D01*
X144065579Y-120299600D01*
X144023288Y-120295435D01*
X143938705Y-120287104D01*
X143818273Y-120250571D01*
X143775912Y-120237721D01*
X143625888Y-120157532D01*
X143494388Y-120049612D01*
X143386468Y-119918112D01*
X143306279Y-119768088D01*
X143271239Y-119652576D01*
X143256896Y-119605295D01*
X143240222Y-119436000D01*
X143256896Y-119266705D01*
X143306278Y-119103916D01*
X143306279Y-119103912D01*
X143386468Y-118953888D01*
X143494388Y-118822388D01*
X143625888Y-118714468D01*
X143775912Y-118634279D01*
X143818273Y-118621429D01*
X143938705Y-118584896D01*
X144023288Y-118576565D01*
X144065579Y-118572400D01*
X144150421Y-118572400D01*
X144192712Y-118576565D01*
X144192712Y-118576565D01*
G37*
G36*
X80790000Y-120130000D02*
X80190000Y-120130000D01*
X80190000Y-119730000D01*
X80790000Y-119730000D01*
X80790000Y-120130000D01*
X80790000Y-120130000D01*
G37*
G36*
X78530000Y-120000000D02*
X77230000Y-120000000D01*
X77230000Y-119300000D01*
X78530000Y-119300000D01*
X78530000Y-120000000D01*
X78530000Y-120000000D01*
G37*
G36*
X74790000Y-119980000D02*
X73490000Y-119980000D01*
X73490000Y-119280000D01*
X74790000Y-119280000D01*
X74790000Y-119980000D01*
X74790000Y-119980000D01*
G37*
G36*
X71000000Y-119960000D02*
X69700000Y-119960000D01*
X69700000Y-119260000D01*
X71000000Y-119260000D01*
X71000000Y-119960000D01*
X71000000Y-119960000D01*
G37*
G36*
X59627543Y-117753982D02*
X59826310Y-117836314D01*
X60005199Y-117955844D01*
X60157326Y-118107971D01*
X60276856Y-118286860D01*
X60359188Y-118485627D01*
X60401160Y-118696636D01*
X60401160Y-118911784D01*
X60359188Y-119122793D01*
X60276856Y-119321560D01*
X60157326Y-119500449D01*
X60005199Y-119652576D01*
X59826310Y-119772106D01*
X59627543Y-119854438D01*
X59416534Y-119896410D01*
X59201386Y-119896410D01*
X58990377Y-119854438D01*
X58791610Y-119772106D01*
X58612721Y-119652576D01*
X58460594Y-119500449D01*
X58341064Y-119321560D01*
X58258732Y-119122793D01*
X58216760Y-118911784D01*
X58216760Y-118696636D01*
X58258732Y-118485627D01*
X58341064Y-118286860D01*
X58460594Y-118107971D01*
X58612721Y-117955844D01*
X58791610Y-117836314D01*
X58990377Y-117753982D01*
X59201386Y-117712010D01*
X59416534Y-117712010D01*
X59627543Y-117753982D01*
X59627543Y-117753982D01*
G37*
G36*
X116670000Y-119850000D02*
X115770000Y-119850000D01*
X115770000Y-119350000D01*
X116670000Y-119350000D01*
X116670000Y-119850000D01*
X116670000Y-119850000D01*
G37*
G36*
X119290000Y-119780000D02*
X118390000Y-119780000D01*
X118390000Y-119280000D01*
X119290000Y-119280000D01*
X119290000Y-119780000D01*
X119290000Y-119780000D01*
G37*
G36*
X66400000Y-119680000D02*
X65800000Y-119680000D01*
X65800000Y-119280000D01*
X66400000Y-119280000D01*
X66400000Y-119680000D01*
X66400000Y-119680000D01*
G37*
G36*
X78530000Y-118100000D02*
X77230000Y-118100000D01*
X77230000Y-117400000D01*
X78530000Y-117400000D01*
X78530000Y-118100000D01*
X78530000Y-118100000D01*
G37*
G36*
X74790000Y-118080000D02*
X73490000Y-118080000D01*
X73490000Y-117380000D01*
X74790000Y-117380000D01*
X74790000Y-118080000D01*
X74790000Y-118080000D01*
G37*
G36*
X71000000Y-118060000D02*
X69700000Y-118060000D01*
X69700000Y-117360000D01*
X71000000Y-117360000D01*
X71000000Y-118060000D01*
X71000000Y-118060000D01*
G37*
G36*
X53085718Y-116578524D02*
X53213838Y-116631593D01*
X53329147Y-116708640D01*
X53427200Y-116806693D01*
X53504247Y-116922002D01*
X53557316Y-117050122D01*
X53584370Y-117186131D01*
X53584370Y-117324809D01*
X53557316Y-117460818D01*
X53504247Y-117588938D01*
X53427200Y-117704247D01*
X53329147Y-117802300D01*
X53213838Y-117879347D01*
X53085718Y-117932416D01*
X52949709Y-117959470D01*
X52811031Y-117959470D01*
X52675022Y-117932416D01*
X52546902Y-117879347D01*
X52431593Y-117802300D01*
X52333540Y-117704247D01*
X52256493Y-117588938D01*
X52203424Y-117460818D01*
X52176370Y-117324809D01*
X52176370Y-117186131D01*
X52203424Y-117050122D01*
X52256493Y-116922002D01*
X52333540Y-116806693D01*
X52431593Y-116708640D01*
X52546902Y-116631593D01*
X52675022Y-116578524D01*
X52811031Y-116551470D01*
X52949709Y-116551470D01*
X53085718Y-116578524D01*
X53085718Y-116578524D01*
G37*
G36*
X146732712Y-116036565D02*
X146817295Y-116044896D01*
X146937727Y-116081429D01*
X146980088Y-116094279D01*
X147130112Y-116174468D01*
X147261612Y-116282388D01*
X147369532Y-116413888D01*
X147449721Y-116563912D01*
X147449722Y-116563916D01*
X147499104Y-116726705D01*
X147515778Y-116896000D01*
X147499104Y-117065295D01*
X147481269Y-117124088D01*
X147449721Y-117228088D01*
X147369532Y-117378112D01*
X147261612Y-117509612D01*
X147130112Y-117617532D01*
X146980088Y-117697721D01*
X146937727Y-117710571D01*
X146817295Y-117747104D01*
X146747461Y-117753982D01*
X146690421Y-117759600D01*
X146605579Y-117759600D01*
X146548539Y-117753982D01*
X146478705Y-117747104D01*
X146358273Y-117710571D01*
X146315912Y-117697721D01*
X146165888Y-117617532D01*
X146034388Y-117509612D01*
X145926468Y-117378112D01*
X145846279Y-117228088D01*
X145814731Y-117124088D01*
X145796896Y-117065295D01*
X145780222Y-116896000D01*
X145796896Y-116726705D01*
X145846278Y-116563916D01*
X145846279Y-116563912D01*
X145926468Y-116413888D01*
X146034388Y-116282388D01*
X146165888Y-116174468D01*
X146315912Y-116094279D01*
X146358273Y-116081429D01*
X146478705Y-116044896D01*
X146563288Y-116036565D01*
X146605579Y-116032400D01*
X146690421Y-116032400D01*
X146732712Y-116036565D01*
X146732712Y-116036565D01*
G37*
G36*
X144192712Y-116036565D02*
X144277295Y-116044896D01*
X144397727Y-116081429D01*
X144440088Y-116094279D01*
X144590112Y-116174468D01*
X144721612Y-116282388D01*
X144829532Y-116413888D01*
X144909721Y-116563912D01*
X144909722Y-116563916D01*
X144959104Y-116726705D01*
X144975778Y-116896000D01*
X144959104Y-117065295D01*
X144941269Y-117124088D01*
X144909721Y-117228088D01*
X144829532Y-117378112D01*
X144721612Y-117509612D01*
X144590112Y-117617532D01*
X144440088Y-117697721D01*
X144397727Y-117710571D01*
X144277295Y-117747104D01*
X144207461Y-117753982D01*
X144150421Y-117759600D01*
X144065579Y-117759600D01*
X144008539Y-117753982D01*
X143938705Y-117747104D01*
X143818273Y-117710571D01*
X143775912Y-117697721D01*
X143625888Y-117617532D01*
X143494388Y-117509612D01*
X143386468Y-117378112D01*
X143306279Y-117228088D01*
X143274731Y-117124088D01*
X143256896Y-117065295D01*
X143240222Y-116896000D01*
X143256896Y-116726705D01*
X143306278Y-116563916D01*
X143306279Y-116563912D01*
X143386468Y-116413888D01*
X143494388Y-116282388D01*
X143625888Y-116174468D01*
X143775912Y-116094279D01*
X143818273Y-116081429D01*
X143938705Y-116044896D01*
X144023288Y-116036565D01*
X144065579Y-116032400D01*
X144150421Y-116032400D01*
X144192712Y-116036565D01*
X144192712Y-116036565D01*
G37*
G36*
X129893742Y-117524088D02*
X129293742Y-117524088D01*
X129293742Y-117124088D01*
X129893742Y-117124088D01*
X129893742Y-117524088D01*
X129893742Y-117524088D01*
G37*
G36*
X129893742Y-116624088D02*
X129293742Y-116624088D01*
X129293742Y-116224088D01*
X129893742Y-116224088D01*
X129893742Y-116624088D01*
X129893742Y-116624088D01*
G37*
G36*
X116760712Y-112402088D02*
X117130510Y-112555263D01*
X117130513Y-112555265D01*
X117463325Y-112777643D01*
X117746357Y-113060675D01*
X117871898Y-113248561D01*
X117968737Y-113393490D01*
X118121912Y-113763288D01*
X118200000Y-114155864D01*
X118200000Y-114556136D01*
X118121912Y-114948712D01*
X117968737Y-115318510D01*
X117968735Y-115318513D01*
X117746357Y-115651325D01*
X117463325Y-115934357D01*
X117223986Y-116094278D01*
X117130510Y-116156737D01*
X116760712Y-116309912D01*
X116368136Y-116388000D01*
X115967864Y-116388000D01*
X115575288Y-116309912D01*
X115205490Y-116156737D01*
X115112014Y-116094278D01*
X114872675Y-115934357D01*
X114589643Y-115651325D01*
X114367265Y-115318513D01*
X114367263Y-115318510D01*
X114214088Y-114948712D01*
X114136000Y-114556136D01*
X114136000Y-114155864D01*
X114214088Y-113763288D01*
X114367263Y-113393490D01*
X114464102Y-113248561D01*
X114589643Y-113060675D01*
X114872675Y-112777643D01*
X115205487Y-112555265D01*
X115205490Y-112555263D01*
X115575288Y-112402088D01*
X115967864Y-112324000D01*
X116368136Y-112324000D01*
X116760712Y-112402088D01*
X116760712Y-112402088D01*
G37*
G36*
X65296698Y-114740863D02*
X65338558Y-114749189D01*
X65373205Y-114763540D01*
X65456850Y-114798187D01*
X65563314Y-114869324D01*
X65653846Y-114959856D01*
X65724983Y-115066320D01*
X65773981Y-115184613D01*
X65798960Y-115310189D01*
X65798960Y-115438231D01*
X65773981Y-115563807D01*
X65724983Y-115682100D01*
X65653846Y-115788564D01*
X65563314Y-115879096D01*
X65456850Y-115950233D01*
X65373205Y-115984880D01*
X65338558Y-115999231D01*
X65296698Y-116007557D01*
X65212981Y-116024210D01*
X65084939Y-116024210D01*
X65001222Y-116007557D01*
X64959362Y-115999231D01*
X64924715Y-115984880D01*
X64841070Y-115950233D01*
X64734606Y-115879096D01*
X64644074Y-115788564D01*
X64572937Y-115682100D01*
X64523939Y-115563807D01*
X64498960Y-115438231D01*
X64498960Y-115310189D01*
X64523939Y-115184613D01*
X64572937Y-115066320D01*
X64644074Y-114959856D01*
X64734606Y-114869324D01*
X64841070Y-114798187D01*
X64924715Y-114763540D01*
X64959362Y-114749189D01*
X65001222Y-114740863D01*
X65084939Y-114724210D01*
X65212981Y-114724210D01*
X65296698Y-114740863D01*
X65296698Y-114740863D01*
G37*
G36*
X51566218Y-114036674D02*
X51694338Y-114089743D01*
X51809647Y-114166790D01*
X51907700Y-114264843D01*
X51984747Y-114380152D01*
X52037816Y-114508272D01*
X52064870Y-114644281D01*
X52064870Y-114782959D01*
X52037816Y-114918968D01*
X51984747Y-115047088D01*
X51907700Y-115162397D01*
X51809647Y-115260450D01*
X51694338Y-115337497D01*
X51566218Y-115390566D01*
X51430209Y-115417620D01*
X51291531Y-115417620D01*
X51155522Y-115390566D01*
X51027402Y-115337497D01*
X50912093Y-115260450D01*
X50814040Y-115162397D01*
X50736993Y-115047088D01*
X50683924Y-114918968D01*
X50656870Y-114782959D01*
X50656870Y-114644281D01*
X50683924Y-114508272D01*
X50736993Y-114380152D01*
X50814040Y-114264843D01*
X50912093Y-114166790D01*
X51027402Y-114089743D01*
X51155522Y-114036674D01*
X51291531Y-114009620D01*
X51430209Y-114009620D01*
X51566218Y-114036674D01*
X51566218Y-114036674D01*
G37*
G36*
X146732712Y-113496565D02*
X146817295Y-113504896D01*
X146937727Y-113541429D01*
X146980088Y-113554279D01*
X147130112Y-113634468D01*
X147261612Y-113742388D01*
X147369532Y-113873888D01*
X147449721Y-114023912D01*
X147454659Y-114040191D01*
X147499104Y-114186705D01*
X147515778Y-114356000D01*
X147499104Y-114525295D01*
X147489748Y-114556136D01*
X147449721Y-114688088D01*
X147369532Y-114838112D01*
X147261612Y-114969612D01*
X147130112Y-115077532D01*
X146980088Y-115157721D01*
X146964683Y-115162394D01*
X146817295Y-115207104D01*
X146732712Y-115215435D01*
X146690421Y-115219600D01*
X146605579Y-115219600D01*
X146563288Y-115215435D01*
X146478705Y-115207104D01*
X146331317Y-115162394D01*
X146315912Y-115157721D01*
X146165888Y-115077532D01*
X146034388Y-114969612D01*
X145926468Y-114838112D01*
X145846279Y-114688088D01*
X145806252Y-114556136D01*
X145796896Y-114525295D01*
X145780222Y-114356000D01*
X145796896Y-114186705D01*
X145841341Y-114040191D01*
X145846279Y-114023912D01*
X145926468Y-113873888D01*
X146034388Y-113742388D01*
X146165888Y-113634468D01*
X146315912Y-113554279D01*
X146358273Y-113541429D01*
X146478705Y-113504896D01*
X146563288Y-113496565D01*
X146605579Y-113492400D01*
X146690421Y-113492400D01*
X146732712Y-113496565D01*
X146732712Y-113496565D01*
G37*
G36*
X144192712Y-113496565D02*
X144277295Y-113504896D01*
X144397727Y-113541429D01*
X144440088Y-113554279D01*
X144590112Y-113634468D01*
X144721612Y-113742388D01*
X144829532Y-113873888D01*
X144909721Y-114023912D01*
X144914659Y-114040191D01*
X144959104Y-114186705D01*
X144975778Y-114356000D01*
X144959104Y-114525295D01*
X144949748Y-114556136D01*
X144909721Y-114688088D01*
X144829532Y-114838112D01*
X144721612Y-114969612D01*
X144590112Y-115077532D01*
X144440088Y-115157721D01*
X144424683Y-115162394D01*
X144277295Y-115207104D01*
X144192712Y-115215435D01*
X144150421Y-115219600D01*
X144065579Y-115219600D01*
X144023288Y-115215435D01*
X143938705Y-115207104D01*
X143791317Y-115162394D01*
X143775912Y-115157721D01*
X143625888Y-115077532D01*
X143494388Y-114969612D01*
X143386468Y-114838112D01*
X143306279Y-114688088D01*
X143266252Y-114556136D01*
X143256896Y-114525295D01*
X143240222Y-114356000D01*
X143256896Y-114186705D01*
X143301341Y-114040191D01*
X143306279Y-114023912D01*
X143386468Y-113873888D01*
X143494388Y-113742388D01*
X143625888Y-113634468D01*
X143775912Y-113554279D01*
X143818273Y-113541429D01*
X143938705Y-113504896D01*
X144023288Y-113496565D01*
X144065579Y-113492400D01*
X144150421Y-113492400D01*
X144192712Y-113496565D01*
X144192712Y-113496565D01*
G37*
G36*
X140187329Y-115026708D02*
X138663329Y-115026708D01*
X138663329Y-112994708D01*
X140187329Y-112994708D01*
X140187329Y-115026708D01*
X140187329Y-115026708D01*
G37*
G36*
X135107329Y-115026708D02*
X133583329Y-115026708D01*
X133583329Y-112994708D01*
X135107329Y-112994708D01*
X135107329Y-115026708D01*
X135107329Y-115026708D01*
G37*
G36*
X137647329Y-115026708D02*
X136123329Y-115026708D01*
X136123329Y-112994708D01*
X137647329Y-112994708D01*
X137647329Y-115026708D01*
X137647329Y-115026708D01*
G37*
G36*
X132567329Y-115026708D02*
X131043329Y-115026708D01*
X131043329Y-112994708D01*
X132567329Y-112994708D01*
X132567329Y-115026708D01*
X132567329Y-115026708D01*
G37*
G36*
X62756698Y-113470863D02*
X62798558Y-113479189D01*
X62830452Y-113492400D01*
X62916850Y-113528187D01*
X63023314Y-113599324D01*
X63113846Y-113689856D01*
X63184983Y-113796320D01*
X63233981Y-113914613D01*
X63258960Y-114040189D01*
X63258960Y-114168231D01*
X63233981Y-114293807D01*
X63184983Y-114412100D01*
X63113846Y-114518564D01*
X63023314Y-114609096D01*
X62916850Y-114680233D01*
X62833205Y-114714880D01*
X62798558Y-114729231D01*
X62756698Y-114737557D01*
X62672981Y-114754210D01*
X62544939Y-114754210D01*
X62461222Y-114737557D01*
X62419362Y-114729231D01*
X62384715Y-114714880D01*
X62301070Y-114680233D01*
X62194606Y-114609096D01*
X62104074Y-114518564D01*
X62032937Y-114412100D01*
X61983939Y-114293807D01*
X61958960Y-114168231D01*
X61958960Y-114040189D01*
X61983939Y-113914613D01*
X62032937Y-113796320D01*
X62104074Y-113689856D01*
X62194606Y-113599324D01*
X62301070Y-113528187D01*
X62387468Y-113492400D01*
X62419362Y-113479189D01*
X62461222Y-113470863D01*
X62544939Y-113454210D01*
X62672981Y-113454210D01*
X62756698Y-113470863D01*
X62756698Y-113470863D01*
G37*
G36*
X93761616Y-111374611D02*
X93908365Y-111403801D01*
X94163149Y-111509336D01*
X94341083Y-111628228D01*
X94392451Y-111662551D01*
X94587449Y-111857549D01*
X94587451Y-111857552D01*
X94740664Y-112086851D01*
X94841100Y-112329324D01*
X94846199Y-112341636D01*
X94888693Y-112555265D01*
X94900000Y-112612112D01*
X94900000Y-112887888D01*
X94846199Y-113158365D01*
X94808837Y-113248564D01*
X94740665Y-113413147D01*
X94587449Y-113642451D01*
X94392451Y-113837449D01*
X94392448Y-113837451D01*
X94163149Y-113990664D01*
X93908365Y-114096199D01*
X93773126Y-114123100D01*
X93637889Y-114150000D01*
X93362111Y-114150000D01*
X93226874Y-114123100D01*
X93091635Y-114096199D01*
X92836851Y-113990664D01*
X92607552Y-113837451D01*
X92607549Y-113837449D01*
X92412551Y-113642451D01*
X92259335Y-113413147D01*
X92191163Y-113248564D01*
X92153801Y-113158365D01*
X92100000Y-112887888D01*
X92100000Y-112612112D01*
X92111308Y-112555265D01*
X92153801Y-112341636D01*
X92158901Y-112329324D01*
X92259336Y-112086851D01*
X92412549Y-111857552D01*
X92412551Y-111857549D01*
X92607549Y-111662551D01*
X92658917Y-111628228D01*
X92836851Y-111509336D01*
X93091635Y-111403801D01*
X93238384Y-111374611D01*
X93362111Y-111350000D01*
X93637889Y-111350000D01*
X93761616Y-111374611D01*
X93761616Y-111374611D01*
G37*
G36*
X89400000Y-114150000D02*
X86600000Y-114150000D01*
X86600000Y-111350000D01*
X89400000Y-111350000D01*
X89400000Y-114150000D01*
X89400000Y-114150000D01*
G37*
G36*
X65296698Y-112200863D02*
X65338558Y-112209189D01*
X65373205Y-112223540D01*
X65456850Y-112258187D01*
X65563314Y-112329324D01*
X65653846Y-112419856D01*
X65724983Y-112526320D01*
X65773981Y-112644613D01*
X65798960Y-112770189D01*
X65798960Y-112898231D01*
X65773981Y-113023807D01*
X65724983Y-113142100D01*
X65653846Y-113248564D01*
X65563314Y-113339096D01*
X65456850Y-113410233D01*
X65373205Y-113444880D01*
X65338558Y-113459231D01*
X65296698Y-113467557D01*
X65212981Y-113484210D01*
X65084939Y-113484210D01*
X65001222Y-113467557D01*
X64959362Y-113459231D01*
X64924715Y-113444880D01*
X64841070Y-113410233D01*
X64734606Y-113339096D01*
X64644074Y-113248564D01*
X64572937Y-113142100D01*
X64523939Y-113023807D01*
X64498960Y-112898231D01*
X64498960Y-112770189D01*
X64523939Y-112644613D01*
X64572937Y-112526320D01*
X64644074Y-112419856D01*
X64734606Y-112329324D01*
X64841070Y-112258187D01*
X64924715Y-112223540D01*
X64959362Y-112209189D01*
X65001222Y-112200863D01*
X65084939Y-112184210D01*
X65212981Y-112184210D01*
X65296698Y-112200863D01*
X65296698Y-112200863D01*
G37*
G36*
X112830000Y-113220000D02*
X112330000Y-113220000D01*
X112330000Y-112320000D01*
X112830000Y-112320000D01*
X112830000Y-113220000D01*
X112830000Y-113220000D01*
G37*
G36*
X111330000Y-113220000D02*
X110830000Y-113220000D01*
X110830000Y-112320000D01*
X111330000Y-112320000D01*
X111330000Y-113220000D01*
X111330000Y-113220000D01*
G37*
G36*
X144192712Y-110956565D02*
X144277295Y-110964896D01*
X144354074Y-110988187D01*
X144440088Y-111014279D01*
X144590112Y-111094468D01*
X144721612Y-111202388D01*
X144829532Y-111333888D01*
X144909721Y-111483912D01*
X144909722Y-111483916D01*
X144959104Y-111646705D01*
X144975778Y-111816000D01*
X144959104Y-111985295D01*
X144933683Y-112069095D01*
X144909721Y-112148088D01*
X144829532Y-112298112D01*
X144721612Y-112429612D01*
X144590112Y-112537532D01*
X144440088Y-112617721D01*
X144397727Y-112630571D01*
X144277295Y-112667104D01*
X144192712Y-112675435D01*
X144150421Y-112679600D01*
X144065579Y-112679600D01*
X144023288Y-112675435D01*
X143938705Y-112667104D01*
X143818273Y-112630571D01*
X143775912Y-112617721D01*
X143625888Y-112537532D01*
X143494388Y-112429612D01*
X143386468Y-112298112D01*
X143306279Y-112148088D01*
X143282317Y-112069095D01*
X143256896Y-111985295D01*
X143240222Y-111816000D01*
X143256896Y-111646705D01*
X143306278Y-111483916D01*
X143306279Y-111483912D01*
X143386468Y-111333888D01*
X143494388Y-111202388D01*
X143625888Y-111094468D01*
X143775912Y-111014279D01*
X143861926Y-110988187D01*
X143938705Y-110964896D01*
X144023288Y-110956565D01*
X144065579Y-110952400D01*
X144150421Y-110952400D01*
X144192712Y-110956565D01*
X144192712Y-110956565D01*
G37*
G36*
X146732712Y-110956565D02*
X146817295Y-110964896D01*
X146894074Y-110988187D01*
X146980088Y-111014279D01*
X147130112Y-111094468D01*
X147261612Y-111202388D01*
X147369532Y-111333888D01*
X147449721Y-111483912D01*
X147449722Y-111483916D01*
X147499104Y-111646705D01*
X147515778Y-111816000D01*
X147499104Y-111985295D01*
X147473683Y-112069095D01*
X147449721Y-112148088D01*
X147369532Y-112298112D01*
X147261612Y-112429612D01*
X147130112Y-112537532D01*
X146980088Y-112617721D01*
X146937727Y-112630571D01*
X146817295Y-112667104D01*
X146732712Y-112675435D01*
X146690421Y-112679600D01*
X146605579Y-112679600D01*
X146563288Y-112675435D01*
X146478705Y-112667104D01*
X146358273Y-112630571D01*
X146315912Y-112617721D01*
X146165888Y-112537532D01*
X146034388Y-112429612D01*
X145926468Y-112298112D01*
X145846279Y-112148088D01*
X145822317Y-112069095D01*
X145796896Y-111985295D01*
X145780222Y-111816000D01*
X145796896Y-111646705D01*
X145846278Y-111483916D01*
X145846279Y-111483912D01*
X145926468Y-111333888D01*
X146034388Y-111202388D01*
X146165888Y-111094468D01*
X146315912Y-111014279D01*
X146401926Y-110988187D01*
X146478705Y-110964896D01*
X146563288Y-110956565D01*
X146605579Y-110952400D01*
X146690421Y-110952400D01*
X146732712Y-110956565D01*
X146732712Y-110956565D01*
G37*
G36*
X124196993Y-112525007D02*
X122672993Y-112525007D01*
X122672993Y-110493007D01*
X124196993Y-110493007D01*
X124196993Y-112525007D01*
X124196993Y-112525007D01*
G37*
G36*
X121656993Y-112525007D02*
X120132993Y-112525007D01*
X120132993Y-110493007D01*
X121656993Y-110493007D01*
X121656993Y-112525007D01*
X121656993Y-112525007D01*
G37*
G36*
X129276993Y-112525007D02*
X127752993Y-112525007D01*
X127752993Y-110493007D01*
X129276993Y-110493007D01*
X129276993Y-112525007D01*
X129276993Y-112525007D01*
G37*
G36*
X126736993Y-112525007D02*
X125212993Y-112525007D01*
X125212993Y-110493007D01*
X126736993Y-110493007D01*
X126736993Y-112525007D01*
X126736993Y-112525007D01*
G37*
G36*
X62756698Y-110930862D02*
X62798558Y-110939188D01*
X62830454Y-110952400D01*
X62916850Y-110988186D01*
X63023314Y-111059323D01*
X63113846Y-111149855D01*
X63184983Y-111256319D01*
X63217113Y-111333888D01*
X63223787Y-111350000D01*
X63233981Y-111374612D01*
X63258960Y-111500188D01*
X63258960Y-111628230D01*
X63233981Y-111753806D01*
X63184983Y-111872099D01*
X63113846Y-111978563D01*
X63023314Y-112069095D01*
X62916850Y-112140232D01*
X62833205Y-112174879D01*
X62798558Y-112189230D01*
X62756698Y-112197556D01*
X62672981Y-112214209D01*
X62544939Y-112214209D01*
X62461222Y-112197556D01*
X62419362Y-112189230D01*
X62384715Y-112174879D01*
X62301070Y-112140232D01*
X62194606Y-112069095D01*
X62104074Y-111978563D01*
X62032937Y-111872099D01*
X61983939Y-111753806D01*
X61958960Y-111628230D01*
X61958960Y-111500188D01*
X61983939Y-111374612D01*
X61994134Y-111350000D01*
X62000807Y-111333888D01*
X62032937Y-111256319D01*
X62104074Y-111149855D01*
X62194606Y-111059323D01*
X62301070Y-110988186D01*
X62387466Y-110952400D01*
X62419362Y-110939188D01*
X62461222Y-110930862D01*
X62544939Y-110914209D01*
X62672981Y-110914209D01*
X62756698Y-110930862D01*
X62756698Y-110930862D01*
G37*
G36*
X111330000Y-111260000D02*
X110830000Y-111260000D01*
X110830000Y-110360000D01*
X111330000Y-110360000D01*
X111330000Y-111260000D01*
X111330000Y-111260000D01*
G37*
G36*
X112830000Y-111260000D02*
X112330000Y-111260000D01*
X112330000Y-110360000D01*
X112830000Y-110360000D01*
X112830000Y-111260000D01*
X112830000Y-111260000D01*
G37*
G36*
X65296698Y-109660862D02*
X65338558Y-109669188D01*
X65373205Y-109683539D01*
X65456850Y-109718186D01*
X65563314Y-109789323D01*
X65653846Y-109879855D01*
X65724983Y-109986319D01*
X65773981Y-110104612D01*
X65798960Y-110230188D01*
X65798960Y-110358230D01*
X65773981Y-110483806D01*
X65724983Y-110602099D01*
X65653846Y-110708563D01*
X65563314Y-110799095D01*
X65456850Y-110870232D01*
X65373205Y-110904879D01*
X65338558Y-110919230D01*
X65296698Y-110927556D01*
X65212981Y-110944209D01*
X65084939Y-110944209D01*
X65001222Y-110927556D01*
X64959362Y-110919230D01*
X64924715Y-110904879D01*
X64841070Y-110870232D01*
X64734606Y-110799095D01*
X64644074Y-110708563D01*
X64572937Y-110602099D01*
X64523939Y-110483806D01*
X64498960Y-110358230D01*
X64498960Y-110230188D01*
X64523939Y-110104612D01*
X64572937Y-109986319D01*
X64644074Y-109879855D01*
X64734606Y-109789323D01*
X64841070Y-109718186D01*
X64924715Y-109683539D01*
X64959362Y-109669188D01*
X65001222Y-109660862D01*
X65084939Y-109644209D01*
X65212981Y-109644209D01*
X65296698Y-109660862D01*
X65296698Y-109660862D01*
G37*
G36*
X144192712Y-108416565D02*
X144277295Y-108424896D01*
X144397727Y-108461429D01*
X144440088Y-108474279D01*
X144590112Y-108554468D01*
X144721612Y-108662388D01*
X144829532Y-108793888D01*
X144909721Y-108943912D01*
X144914659Y-108960191D01*
X144959104Y-109106705D01*
X144975778Y-109276000D01*
X144959104Y-109445295D01*
X144933683Y-109529096D01*
X144909721Y-109608088D01*
X144829532Y-109758112D01*
X144721612Y-109889612D01*
X144590112Y-109997532D01*
X144440088Y-110077721D01*
X144397727Y-110090571D01*
X144277295Y-110127104D01*
X144192712Y-110135435D01*
X144150421Y-110139600D01*
X144065579Y-110139600D01*
X144023288Y-110135435D01*
X143938705Y-110127104D01*
X143818273Y-110090571D01*
X143775912Y-110077721D01*
X143625888Y-109997532D01*
X143494388Y-109889612D01*
X143386468Y-109758112D01*
X143306279Y-109608088D01*
X143282317Y-109529096D01*
X143256896Y-109445295D01*
X143240222Y-109276000D01*
X143256896Y-109106705D01*
X143301341Y-108960191D01*
X143306279Y-108943912D01*
X143386468Y-108793888D01*
X143494388Y-108662388D01*
X143625888Y-108554468D01*
X143775912Y-108474279D01*
X143818273Y-108461429D01*
X143938705Y-108424896D01*
X144023288Y-108416565D01*
X144065579Y-108412400D01*
X144150421Y-108412400D01*
X144192712Y-108416565D01*
X144192712Y-108416565D01*
G37*
G36*
X146732712Y-108416565D02*
X146817295Y-108424896D01*
X146937727Y-108461429D01*
X146980088Y-108474279D01*
X147130112Y-108554468D01*
X147261612Y-108662388D01*
X147369532Y-108793888D01*
X147449721Y-108943912D01*
X147454659Y-108960191D01*
X147499104Y-109106705D01*
X147515778Y-109276000D01*
X147499104Y-109445295D01*
X147473683Y-109529096D01*
X147449721Y-109608088D01*
X147369532Y-109758112D01*
X147261612Y-109889612D01*
X147130112Y-109997532D01*
X146980088Y-110077721D01*
X146937727Y-110090571D01*
X146817295Y-110127104D01*
X146732712Y-110135435D01*
X146690421Y-110139600D01*
X146605579Y-110139600D01*
X146563288Y-110135435D01*
X146478705Y-110127104D01*
X146358273Y-110090571D01*
X146315912Y-110077721D01*
X146165888Y-109997532D01*
X146034388Y-109889612D01*
X145926468Y-109758112D01*
X145846279Y-109608088D01*
X145822317Y-109529096D01*
X145796896Y-109445295D01*
X145780222Y-109276000D01*
X145796896Y-109106705D01*
X145841341Y-108960191D01*
X145846279Y-108943912D01*
X145926468Y-108793888D01*
X146034388Y-108662388D01*
X146165888Y-108554468D01*
X146315912Y-108474279D01*
X146358273Y-108461429D01*
X146478705Y-108424896D01*
X146563288Y-108416565D01*
X146605579Y-108412400D01*
X146690421Y-108412400D01*
X146732712Y-108416565D01*
X146732712Y-108416565D01*
G37*
G36*
X62756698Y-108390863D02*
X62798558Y-108399189D01*
X62826859Y-108410912D01*
X62916850Y-108448187D01*
X63023314Y-108519324D01*
X63113846Y-108609856D01*
X63184983Y-108716320D01*
X63233981Y-108834613D01*
X63258960Y-108960189D01*
X63258960Y-109088231D01*
X63233981Y-109213807D01*
X63184983Y-109332100D01*
X63113846Y-109438564D01*
X63023314Y-109529096D01*
X62916850Y-109600233D01*
X62833205Y-109634880D01*
X62798558Y-109649231D01*
X62756698Y-109657557D01*
X62672981Y-109674210D01*
X62544939Y-109674210D01*
X62461222Y-109657557D01*
X62419362Y-109649231D01*
X62384715Y-109634880D01*
X62301070Y-109600233D01*
X62194606Y-109529096D01*
X62104074Y-109438564D01*
X62032937Y-109332100D01*
X61983939Y-109213807D01*
X61958960Y-109088231D01*
X61958960Y-108960189D01*
X61983939Y-108834613D01*
X62032937Y-108716320D01*
X62104074Y-108609856D01*
X62194606Y-108519324D01*
X62301070Y-108448187D01*
X62391061Y-108410912D01*
X62419362Y-108399189D01*
X62461222Y-108390863D01*
X62544939Y-108374210D01*
X62672981Y-108374210D01*
X62756698Y-108390863D01*
X62756698Y-108390863D01*
G37*
G36*
X137486258Y-109060912D02*
X136426258Y-109060912D01*
X136426258Y-108410912D01*
X137486258Y-108410912D01*
X137486258Y-109060912D01*
X137486258Y-109060912D01*
G37*
G36*
X135286258Y-109060912D02*
X134226258Y-109060912D01*
X134226258Y-108410912D01*
X135286258Y-108410912D01*
X135286258Y-109060912D01*
X135286258Y-109060912D01*
G37*
G36*
X65296698Y-107120863D02*
X65338558Y-107129189D01*
X65373205Y-107143540D01*
X65456850Y-107178187D01*
X65563314Y-107249324D01*
X65653846Y-107339856D01*
X65724983Y-107446320D01*
X65773981Y-107564613D01*
X65798960Y-107690189D01*
X65798960Y-107818231D01*
X65773981Y-107943807D01*
X65724983Y-108062100D01*
X65653846Y-108168564D01*
X65563314Y-108259096D01*
X65456850Y-108330233D01*
X65373205Y-108364880D01*
X65338558Y-108379231D01*
X65296698Y-108387557D01*
X65212981Y-108404210D01*
X65084939Y-108404210D01*
X65001222Y-108387557D01*
X64959362Y-108379231D01*
X64924715Y-108364880D01*
X64841070Y-108330233D01*
X64734606Y-108259096D01*
X64644074Y-108168564D01*
X64572937Y-108062100D01*
X64523939Y-107943807D01*
X64498960Y-107818231D01*
X64498960Y-107690189D01*
X64523939Y-107564613D01*
X64572937Y-107446320D01*
X64644074Y-107339856D01*
X64734606Y-107249324D01*
X64841070Y-107178187D01*
X64924715Y-107143540D01*
X64959362Y-107129189D01*
X65001222Y-107120863D01*
X65084939Y-107104210D01*
X65212981Y-107104210D01*
X65296698Y-107120863D01*
X65296698Y-107120863D01*
G37*
G36*
X137486258Y-108110912D02*
X136426258Y-108110912D01*
X136426258Y-107460912D01*
X137486258Y-107460912D01*
X137486258Y-108110912D01*
X137486258Y-108110912D01*
G37*
G36*
X53086218Y-106466674D02*
X53214338Y-106519743D01*
X53329647Y-106596790D01*
X53427700Y-106694843D01*
X53504747Y-106810152D01*
X53557816Y-106938272D01*
X53584870Y-107074281D01*
X53584870Y-107212959D01*
X53557816Y-107348968D01*
X53504747Y-107477088D01*
X53427700Y-107592397D01*
X53329647Y-107690450D01*
X53214338Y-107767497D01*
X53086218Y-107820566D01*
X52950209Y-107847620D01*
X52811531Y-107847620D01*
X52675522Y-107820566D01*
X52547402Y-107767497D01*
X52432093Y-107690450D01*
X52334040Y-107592397D01*
X52256993Y-107477088D01*
X52203924Y-107348968D01*
X52176870Y-107212959D01*
X52176870Y-107074281D01*
X52203924Y-106938272D01*
X52256993Y-106810152D01*
X52334040Y-106694843D01*
X52432093Y-106596790D01*
X52547402Y-106519743D01*
X52675522Y-106466674D01*
X52811531Y-106439620D01*
X52950209Y-106439620D01*
X53086218Y-106466674D01*
X53086218Y-106466674D01*
G37*
G36*
X144192712Y-105876565D02*
X144277295Y-105884896D01*
X144397727Y-105921429D01*
X144440088Y-105934279D01*
X144590112Y-106014468D01*
X144721612Y-106122388D01*
X144829532Y-106253888D01*
X144909721Y-106403912D01*
X144914659Y-106420191D01*
X144959104Y-106566705D01*
X144975778Y-106736000D01*
X144959104Y-106905295D01*
X144949100Y-106938272D01*
X144909721Y-107068088D01*
X144829532Y-107218112D01*
X144721612Y-107349612D01*
X144590112Y-107457532D01*
X144440088Y-107537721D01*
X144397727Y-107550571D01*
X144277295Y-107587104D01*
X144192712Y-107595435D01*
X144150421Y-107599600D01*
X144065579Y-107599600D01*
X144023288Y-107595435D01*
X143938705Y-107587104D01*
X143818273Y-107550571D01*
X143775912Y-107537721D01*
X143625888Y-107457532D01*
X143494388Y-107349612D01*
X143386468Y-107218112D01*
X143306279Y-107068088D01*
X143266900Y-106938272D01*
X143256896Y-106905295D01*
X143240222Y-106736000D01*
X143256896Y-106566705D01*
X143301341Y-106420191D01*
X143306279Y-106403912D01*
X143386468Y-106253888D01*
X143494388Y-106122388D01*
X143625888Y-106014468D01*
X143775912Y-105934279D01*
X143818273Y-105921429D01*
X143938705Y-105884896D01*
X144023288Y-105876565D01*
X144065579Y-105872400D01*
X144150421Y-105872400D01*
X144192712Y-105876565D01*
X144192712Y-105876565D01*
G37*
G36*
X146732712Y-105876565D02*
X146817295Y-105884896D01*
X146937727Y-105921429D01*
X146980088Y-105934279D01*
X147130112Y-106014468D01*
X147261612Y-106122388D01*
X147369532Y-106253888D01*
X147449721Y-106403912D01*
X147454659Y-106420191D01*
X147499104Y-106566705D01*
X147515778Y-106736000D01*
X147499104Y-106905295D01*
X147489100Y-106938272D01*
X147449721Y-107068088D01*
X147369532Y-107218112D01*
X147261612Y-107349612D01*
X147130112Y-107457532D01*
X146980088Y-107537721D01*
X146937727Y-107550571D01*
X146817295Y-107587104D01*
X146732712Y-107595435D01*
X146690421Y-107599600D01*
X146605579Y-107599600D01*
X146563288Y-107595435D01*
X146478705Y-107587104D01*
X146358273Y-107550571D01*
X146315912Y-107537721D01*
X146165888Y-107457532D01*
X146034388Y-107349612D01*
X145926468Y-107218112D01*
X145846279Y-107068088D01*
X145806900Y-106938272D01*
X145796896Y-106905295D01*
X145780222Y-106736000D01*
X145796896Y-106566705D01*
X145841341Y-106420191D01*
X145846279Y-106403912D01*
X145926468Y-106253888D01*
X146034388Y-106122388D01*
X146165888Y-106014468D01*
X146315912Y-105934279D01*
X146358273Y-105921429D01*
X146478705Y-105884896D01*
X146563288Y-105876565D01*
X146605579Y-105872400D01*
X146690421Y-105872400D01*
X146732712Y-105876565D01*
X146732712Y-105876565D01*
G37*
G36*
X137486258Y-107160912D02*
X136426258Y-107160912D01*
X136426258Y-106510912D01*
X137486258Y-106510912D01*
X137486258Y-107160912D01*
X137486258Y-107160912D01*
G37*
G36*
X135286258Y-107160912D02*
X134226258Y-107160912D01*
X134226258Y-106510912D01*
X135286258Y-106510912D01*
X135286258Y-107160912D01*
X135286258Y-107160912D01*
G37*
G36*
X62756698Y-105850863D02*
X62798558Y-105859189D01*
X62830452Y-105872400D01*
X62916850Y-105908187D01*
X63023314Y-105979324D01*
X63113846Y-106069856D01*
X63184983Y-106176320D01*
X63212663Y-106243147D01*
X63233981Y-106294612D01*
X63258960Y-106420191D01*
X63258960Y-106548229D01*
X63233981Y-106673808D01*
X63219630Y-106708455D01*
X63184983Y-106792100D01*
X63113846Y-106898564D01*
X63023314Y-106989096D01*
X62916850Y-107060233D01*
X62833205Y-107094880D01*
X62798558Y-107109231D01*
X62756698Y-107117557D01*
X62672981Y-107134210D01*
X62544939Y-107134210D01*
X62461222Y-107117557D01*
X62419362Y-107109231D01*
X62384715Y-107094880D01*
X62301070Y-107060233D01*
X62194606Y-106989096D01*
X62104074Y-106898564D01*
X62032937Y-106792100D01*
X61998290Y-106708455D01*
X61983939Y-106673808D01*
X61958960Y-106548229D01*
X61958960Y-106420191D01*
X61983939Y-106294612D01*
X62005257Y-106243147D01*
X62032937Y-106176320D01*
X62104074Y-106069856D01*
X62194606Y-105979324D01*
X62301070Y-105908187D01*
X62387468Y-105872400D01*
X62419362Y-105859189D01*
X62461222Y-105850863D01*
X62544939Y-105834210D01*
X62672981Y-105834210D01*
X62756698Y-105850863D01*
X62756698Y-105850863D01*
G37*
G36*
X85520000Y-106980000D02*
X82720000Y-106980000D01*
X82720000Y-104180000D01*
X85520000Y-104180000D01*
X85520000Y-106980000D01*
X85520000Y-106980000D01*
G37*
G36*
X89838326Y-104196000D02*
X90028365Y-104233801D01*
X90283149Y-104339336D01*
X90321996Y-104365293D01*
X90512451Y-104492551D01*
X90707449Y-104687549D01*
X90707451Y-104687552D01*
X90860664Y-104916851D01*
X90966199Y-105171635D01*
X91020000Y-105442112D01*
X91020000Y-105717888D01*
X90966199Y-105988365D01*
X90955386Y-106014469D01*
X90860665Y-106243147D01*
X90707449Y-106472451D01*
X90512451Y-106667449D01*
X90512448Y-106667451D01*
X90283149Y-106820664D01*
X90028365Y-106926199D01*
X89893127Y-106953099D01*
X89757889Y-106980000D01*
X89482111Y-106980000D01*
X89346873Y-106953099D01*
X89211635Y-106926199D01*
X88956851Y-106820664D01*
X88727552Y-106667451D01*
X88727549Y-106667449D01*
X88532551Y-106472451D01*
X88379335Y-106243147D01*
X88284614Y-106014469D01*
X88273801Y-105988365D01*
X88220000Y-105717888D01*
X88220000Y-105442112D01*
X88273801Y-105171635D01*
X88379336Y-104916851D01*
X88532549Y-104687552D01*
X88532551Y-104687549D01*
X88727549Y-104492551D01*
X88918004Y-104365293D01*
X88956851Y-104339336D01*
X89211635Y-104233801D01*
X89401674Y-104196000D01*
X89482111Y-104180000D01*
X89757889Y-104180000D01*
X89838326Y-104196000D01*
X89838326Y-104196000D01*
G37*
G36*
X96530000Y-105810000D02*
X95630000Y-105810000D01*
X95630000Y-105310000D01*
X96530000Y-105310000D01*
X96530000Y-105810000D01*
X96530000Y-105810000D01*
G37*
G36*
X98370000Y-105770000D02*
X97470000Y-105770000D01*
X97470000Y-105270000D01*
X98370000Y-105270000D01*
X98370000Y-105770000D01*
X98370000Y-105770000D01*
G37*
G36*
X51565718Y-103928524D02*
X51693838Y-103981593D01*
X51809147Y-104058640D01*
X51907200Y-104156693D01*
X51984247Y-104272002D01*
X52037316Y-104400122D01*
X52064370Y-104536131D01*
X52064370Y-104674809D01*
X52037316Y-104810818D01*
X51984247Y-104938938D01*
X51907200Y-105054247D01*
X51809147Y-105152300D01*
X51693838Y-105229347D01*
X51565718Y-105282416D01*
X51429709Y-105309470D01*
X51291031Y-105309470D01*
X51155022Y-105282416D01*
X51026902Y-105229347D01*
X50911593Y-105152300D01*
X50813540Y-105054247D01*
X50736493Y-104938938D01*
X50683424Y-104810818D01*
X50656370Y-104674809D01*
X50656370Y-104536131D01*
X50683424Y-104400122D01*
X50736493Y-104272002D01*
X50813540Y-104156693D01*
X50911593Y-104058640D01*
X51026902Y-103981593D01*
X51155022Y-103928524D01*
X51291031Y-103901470D01*
X51429709Y-103901470D01*
X51565718Y-103928524D01*
X51565718Y-103928524D01*
G37*
G36*
X144192712Y-103336565D02*
X144277295Y-103344896D01*
X144369258Y-103372793D01*
X144440088Y-103394279D01*
X144590112Y-103474468D01*
X144721612Y-103582388D01*
X144829532Y-103713888D01*
X144909721Y-103863912D01*
X144909722Y-103863916D01*
X144959104Y-104026705D01*
X144975778Y-104196000D01*
X144959104Y-104365295D01*
X144948539Y-104400122D01*
X144909721Y-104528088D01*
X144829532Y-104678112D01*
X144721612Y-104809612D01*
X144590112Y-104917532D01*
X144440088Y-104997721D01*
X144397727Y-105010571D01*
X144277295Y-105047104D01*
X144204801Y-105054244D01*
X144150421Y-105059600D01*
X144065579Y-105059600D01*
X144011199Y-105054244D01*
X143938705Y-105047104D01*
X143818273Y-105010571D01*
X143775912Y-104997721D01*
X143625888Y-104917532D01*
X143494388Y-104809612D01*
X143386468Y-104678112D01*
X143306279Y-104528088D01*
X143267461Y-104400122D01*
X143256896Y-104365295D01*
X143240222Y-104196000D01*
X143256896Y-104026705D01*
X143306278Y-103863916D01*
X143306279Y-103863912D01*
X143386468Y-103713888D01*
X143494388Y-103582388D01*
X143625888Y-103474468D01*
X143775912Y-103394279D01*
X143846742Y-103372793D01*
X143938705Y-103344896D01*
X144023288Y-103336565D01*
X144065579Y-103332400D01*
X144150421Y-103332400D01*
X144192712Y-103336565D01*
X144192712Y-103336565D01*
G37*
G36*
X146732712Y-103336565D02*
X146817295Y-103344896D01*
X146909258Y-103372793D01*
X146980088Y-103394279D01*
X147130112Y-103474468D01*
X147261612Y-103582388D01*
X147369532Y-103713888D01*
X147449721Y-103863912D01*
X147449722Y-103863916D01*
X147499104Y-104026705D01*
X147515778Y-104196000D01*
X147499104Y-104365295D01*
X147488539Y-104400122D01*
X147449721Y-104528088D01*
X147369532Y-104678112D01*
X147261612Y-104809612D01*
X147130112Y-104917532D01*
X146980088Y-104997721D01*
X146937727Y-105010571D01*
X146817295Y-105047104D01*
X146744801Y-105054244D01*
X146690421Y-105059600D01*
X146605579Y-105059600D01*
X146551199Y-105054244D01*
X146478705Y-105047104D01*
X146358273Y-105010571D01*
X146315912Y-104997721D01*
X146165888Y-104917532D01*
X146034388Y-104809612D01*
X145926468Y-104678112D01*
X145846279Y-104528088D01*
X145807461Y-104400122D01*
X145796896Y-104365295D01*
X145780222Y-104196000D01*
X145796896Y-104026705D01*
X145846278Y-103863916D01*
X145846279Y-103863912D01*
X145926468Y-103713888D01*
X146034388Y-103582388D01*
X146165888Y-103474468D01*
X146315912Y-103394279D01*
X146386742Y-103372793D01*
X146478705Y-103344896D01*
X146563288Y-103336565D01*
X146605579Y-103332400D01*
X146690421Y-103332400D01*
X146732712Y-103336565D01*
X146732712Y-103336565D01*
G37*
G36*
X121656993Y-104905007D02*
X120132993Y-104905007D01*
X120132993Y-102873007D01*
X121656993Y-102873007D01*
X121656993Y-104905007D01*
X121656993Y-104905007D01*
G37*
G36*
X124196993Y-104905007D02*
X122672993Y-104905007D01*
X122672993Y-102873007D01*
X124196993Y-102873007D01*
X124196993Y-104905007D01*
X124196993Y-104905007D01*
G37*
G36*
X126736993Y-104905007D02*
X125212993Y-104905007D01*
X125212993Y-102873007D01*
X126736993Y-102873007D01*
X126736993Y-104905007D01*
X126736993Y-104905007D01*
G37*
G36*
X129276993Y-104905007D02*
X127752993Y-104905007D01*
X127752993Y-102873007D01*
X129276993Y-102873007D01*
X129276993Y-104905007D01*
X129276993Y-104905007D01*
G37*
G36*
X135560000Y-104660000D02*
X135160000Y-104660000D01*
X135160000Y-104060000D01*
X135560000Y-104060000D01*
X135560000Y-104660000D01*
X135560000Y-104660000D01*
G37*
G36*
X134660000Y-104660000D02*
X134260000Y-104660000D01*
X134260000Y-104060000D01*
X134660000Y-104060000D01*
X134660000Y-104660000D01*
X134660000Y-104660000D01*
G37*
G36*
X96530000Y-104310000D02*
X95630000Y-104310000D01*
X95630000Y-103810000D01*
X96530000Y-103810000D01*
X96530000Y-104310000D01*
X96530000Y-104310000D01*
G37*
G36*
X98370000Y-104270000D02*
X97470000Y-104270000D01*
X97470000Y-103770000D01*
X98370000Y-103770000D01*
X98370000Y-104270000D01*
X98370000Y-104270000D01*
G37*
G36*
X59627543Y-102003982D02*
X59826310Y-102086314D01*
X60005199Y-102205844D01*
X60157326Y-102357971D01*
X60276856Y-102536860D01*
X60359188Y-102735627D01*
X60401160Y-102946636D01*
X60401160Y-103161784D01*
X60359188Y-103372793D01*
X60276856Y-103571560D01*
X60157326Y-103750449D01*
X60005199Y-103902576D01*
X59826310Y-104022106D01*
X59627543Y-104104438D01*
X59416534Y-104146410D01*
X59201386Y-104146410D01*
X58990377Y-104104438D01*
X58791610Y-104022106D01*
X58612721Y-103902576D01*
X58460594Y-103750449D01*
X58341064Y-103571560D01*
X58258732Y-103372793D01*
X58216760Y-103161784D01*
X58216760Y-102946636D01*
X58258732Y-102735627D01*
X58341064Y-102536860D01*
X58460594Y-102357971D01*
X58612721Y-102205844D01*
X58791610Y-102086314D01*
X58990377Y-102003982D01*
X59201386Y-101962010D01*
X59416534Y-101962010D01*
X59627543Y-102003982D01*
X59627543Y-102003982D01*
G37*
G36*
X146732712Y-100796565D02*
X146817295Y-100804896D01*
X146937727Y-100841429D01*
X146980088Y-100854279D01*
X147130112Y-100934468D01*
X147261612Y-101042388D01*
X147369532Y-101173888D01*
X147449721Y-101323912D01*
X147449722Y-101323916D01*
X147499104Y-101486705D01*
X147515778Y-101656000D01*
X147499104Y-101825295D01*
X147462571Y-101945727D01*
X147449721Y-101988088D01*
X147369532Y-102138112D01*
X147261612Y-102269612D01*
X147130112Y-102377532D01*
X146980088Y-102457721D01*
X146937727Y-102470571D01*
X146817295Y-102507104D01*
X146732712Y-102515435D01*
X146690421Y-102519600D01*
X146605579Y-102519600D01*
X146563288Y-102515435D01*
X146478705Y-102507104D01*
X146358273Y-102470571D01*
X146315912Y-102457721D01*
X146165888Y-102377532D01*
X146034388Y-102269612D01*
X145926468Y-102138112D01*
X145846279Y-101988088D01*
X145833429Y-101945727D01*
X145796896Y-101825295D01*
X145780222Y-101656000D01*
X145796896Y-101486705D01*
X145846278Y-101323916D01*
X145846279Y-101323912D01*
X145926468Y-101173888D01*
X146034388Y-101042388D01*
X146165888Y-100934468D01*
X146315912Y-100854279D01*
X146358273Y-100841429D01*
X146478705Y-100804896D01*
X146563288Y-100796565D01*
X146605579Y-100792400D01*
X146690421Y-100792400D01*
X146732712Y-100796565D01*
X146732712Y-100796565D01*
G37*
G36*
X144192712Y-100796565D02*
X144277295Y-100804896D01*
X144397727Y-100841429D01*
X144440088Y-100854279D01*
X144590112Y-100934468D01*
X144721612Y-101042388D01*
X144829532Y-101173888D01*
X144909721Y-101323912D01*
X144909722Y-101323916D01*
X144959104Y-101486705D01*
X144975778Y-101656000D01*
X144959104Y-101825295D01*
X144922571Y-101945727D01*
X144909721Y-101988088D01*
X144829532Y-102138112D01*
X144721612Y-102269612D01*
X144590112Y-102377532D01*
X144440088Y-102457721D01*
X144397727Y-102470571D01*
X144277295Y-102507104D01*
X144192712Y-102515435D01*
X144150421Y-102519600D01*
X144065579Y-102519600D01*
X144023288Y-102515435D01*
X143938705Y-102507104D01*
X143818273Y-102470571D01*
X143775912Y-102457721D01*
X143625888Y-102377532D01*
X143494388Y-102269612D01*
X143386468Y-102138112D01*
X143306279Y-101988088D01*
X143293429Y-101945727D01*
X143256896Y-101825295D01*
X143240222Y-101656000D01*
X143256896Y-101486705D01*
X143306278Y-101323916D01*
X143306279Y-101323912D01*
X143386468Y-101173888D01*
X143494388Y-101042388D01*
X143625888Y-100934468D01*
X143775912Y-100854279D01*
X143818273Y-100841429D01*
X143938705Y-100804896D01*
X144023288Y-100796565D01*
X144065579Y-100792400D01*
X144150421Y-100792400D01*
X144192712Y-100796565D01*
X144192712Y-100796565D01*
G37*
G36*
X140890712Y-97162088D02*
X141260510Y-97315263D01*
X141260513Y-97315265D01*
X141593325Y-97537643D01*
X141876357Y-97820675D01*
X142060204Y-98095822D01*
X142098737Y-98153490D01*
X142251912Y-98523288D01*
X142330000Y-98915864D01*
X142330000Y-99316136D01*
X142251912Y-99708712D01*
X142098737Y-100078510D01*
X142098735Y-100078513D01*
X141876357Y-100411325D01*
X141593325Y-100694357D01*
X141353986Y-100854278D01*
X141260510Y-100916737D01*
X140890712Y-101069912D01*
X140498136Y-101148000D01*
X140097864Y-101148000D01*
X139705288Y-101069912D01*
X139335490Y-100916737D01*
X139242014Y-100854278D01*
X139002675Y-100694357D01*
X138719643Y-100411325D01*
X138497265Y-100078513D01*
X138497263Y-100078510D01*
X138344088Y-99708712D01*
X138266000Y-99316136D01*
X138266000Y-98915864D01*
X138344088Y-98523288D01*
X138497263Y-98153490D01*
X138535796Y-98095822D01*
X138719643Y-97820675D01*
X139002675Y-97537643D01*
X139335487Y-97315265D01*
X139335490Y-97315263D01*
X139705288Y-97162088D01*
X140097864Y-97084000D01*
X140498136Y-97084000D01*
X140890712Y-97162088D01*
X140890712Y-97162088D01*
G37*
G36*
X65960712Y-97162088D02*
X66330510Y-97315263D01*
X66330513Y-97315265D01*
X66663325Y-97537643D01*
X66946357Y-97820675D01*
X67130204Y-98095822D01*
X67168737Y-98153490D01*
X67321912Y-98523288D01*
X67400000Y-98915864D01*
X67400000Y-99316136D01*
X67321912Y-99708712D01*
X67168737Y-100078510D01*
X67168735Y-100078513D01*
X66946357Y-100411325D01*
X66663325Y-100694357D01*
X66423986Y-100854278D01*
X66330510Y-100916737D01*
X65960712Y-101069912D01*
X65568136Y-101148000D01*
X65167864Y-101148000D01*
X64775288Y-101069912D01*
X64405490Y-100916737D01*
X64312014Y-100854278D01*
X64072675Y-100694357D01*
X63789643Y-100411325D01*
X63567265Y-100078513D01*
X63567263Y-100078510D01*
X63414088Y-99708712D01*
X63336000Y-99316136D01*
X63336000Y-98915864D01*
X63414088Y-98523288D01*
X63567263Y-98153490D01*
X63605796Y-98095822D01*
X63789643Y-97820675D01*
X64072675Y-97537643D01*
X64405487Y-97315265D01*
X64405490Y-97315263D01*
X64775288Y-97162088D01*
X65167864Y-97084000D01*
X65568136Y-97084000D01*
X65960712Y-97162088D01*
X65960712Y-97162088D01*
G37*
G36*
X58350000Y-100560000D02*
X57850000Y-100560000D01*
X57850000Y-99960000D01*
X58350000Y-99960000D01*
X58350000Y-100560000D01*
X58350000Y-100560000D01*
G37*
G36*
X60060000Y-100440000D02*
X59460000Y-100440000D01*
X59460000Y-100040000D01*
X60060000Y-100040000D01*
X60060000Y-100440000D01*
X60060000Y-100440000D01*
G37*
G36*
X56930000Y-100380000D02*
X56330000Y-100380000D01*
X56330000Y-99980000D01*
X56930000Y-99980000D01*
X56930000Y-100380000D01*
X56930000Y-100380000D01*
G37*
G36*
X106177294Y-98112496D02*
X106297726Y-98149029D01*
X106340087Y-98161879D01*
X106490112Y-98242068D01*
X106621612Y-98349988D01*
X106729532Y-98481488D01*
X106809721Y-98631512D01*
X106810442Y-98633888D01*
X106859104Y-98794305D01*
X106859104Y-98794307D01*
X106871600Y-98921179D01*
X106871600Y-99310820D01*
X106871076Y-99316136D01*
X106859104Y-99437694D01*
X106828070Y-99540000D01*
X106809721Y-99600488D01*
X106729532Y-99750512D01*
X106621612Y-99882012D01*
X106490112Y-99989932D01*
X106340088Y-100070121D01*
X106312433Y-100078510D01*
X106177295Y-100119504D01*
X106064432Y-100130620D01*
X106008001Y-100136178D01*
X106008000Y-100136178D01*
X105838706Y-100119504D01*
X105703568Y-100078510D01*
X105675913Y-100070121D01*
X105525889Y-99989932D01*
X105435946Y-99916117D01*
X105394388Y-99882012D01*
X105286469Y-99750512D01*
X105286467Y-99750509D01*
X105206279Y-99600488D01*
X105187930Y-99540000D01*
X105156896Y-99437695D01*
X105148565Y-99353112D01*
X105144400Y-99310821D01*
X105144400Y-98921180D01*
X105156896Y-98794308D01*
X105156896Y-98794306D01*
X105206278Y-98631517D01*
X105206279Y-98631513D01*
X105286468Y-98481488D01*
X105394388Y-98349988D01*
X105525888Y-98242068D01*
X105675912Y-98161879D01*
X105718273Y-98149029D01*
X105838705Y-98112496D01*
X105951568Y-98101380D01*
X106007999Y-98095822D01*
X106008000Y-98095822D01*
X106177294Y-98112496D01*
X106177294Y-98112496D01*
G37*
G36*
X103637294Y-98112496D02*
X103757726Y-98149029D01*
X103800087Y-98161879D01*
X103950112Y-98242068D01*
X104081612Y-98349988D01*
X104189532Y-98481488D01*
X104269721Y-98631512D01*
X104270442Y-98633888D01*
X104319104Y-98794305D01*
X104319104Y-98794307D01*
X104331600Y-98921179D01*
X104331600Y-99310820D01*
X104331076Y-99316136D01*
X104319104Y-99437694D01*
X104288070Y-99540000D01*
X104269721Y-99600488D01*
X104189532Y-99750512D01*
X104081612Y-99882012D01*
X103950112Y-99989932D01*
X103800088Y-100070121D01*
X103772433Y-100078510D01*
X103637295Y-100119504D01*
X103524432Y-100130620D01*
X103468001Y-100136178D01*
X103468000Y-100136178D01*
X103298706Y-100119504D01*
X103163568Y-100078510D01*
X103135913Y-100070121D01*
X102985889Y-99989932D01*
X102895946Y-99916117D01*
X102854388Y-99882012D01*
X102746469Y-99750512D01*
X102746467Y-99750509D01*
X102666279Y-99600488D01*
X102647930Y-99540000D01*
X102616896Y-99437695D01*
X102608565Y-99353112D01*
X102604400Y-99310821D01*
X102604400Y-98921180D01*
X102616896Y-98794308D01*
X102616896Y-98794306D01*
X102666278Y-98631517D01*
X102666279Y-98631513D01*
X102746468Y-98481488D01*
X102854388Y-98349988D01*
X102985888Y-98242068D01*
X103135912Y-98161879D01*
X103178273Y-98149029D01*
X103298705Y-98112496D01*
X103411568Y-98101380D01*
X103467999Y-98095822D01*
X103468000Y-98095822D01*
X103637294Y-98112496D01*
X103637294Y-98112496D01*
G37*
G36*
X101097294Y-98112496D02*
X101217726Y-98149029D01*
X101260087Y-98161879D01*
X101410112Y-98242068D01*
X101541612Y-98349988D01*
X101649532Y-98481488D01*
X101729721Y-98631512D01*
X101730442Y-98633888D01*
X101779104Y-98794305D01*
X101779104Y-98794307D01*
X101791600Y-98921179D01*
X101791600Y-99310820D01*
X101791076Y-99316136D01*
X101779104Y-99437694D01*
X101748070Y-99540000D01*
X101729721Y-99600488D01*
X101649532Y-99750512D01*
X101541612Y-99882012D01*
X101410112Y-99989932D01*
X101260088Y-100070121D01*
X101232433Y-100078510D01*
X101097295Y-100119504D01*
X100984432Y-100130620D01*
X100928001Y-100136178D01*
X100928000Y-100136178D01*
X100758706Y-100119504D01*
X100623568Y-100078510D01*
X100595913Y-100070121D01*
X100445889Y-99989932D01*
X100355946Y-99916117D01*
X100314388Y-99882012D01*
X100206469Y-99750512D01*
X100206467Y-99750509D01*
X100126279Y-99600488D01*
X100107930Y-99540000D01*
X100076896Y-99437695D01*
X100068565Y-99353112D01*
X100064400Y-99310821D01*
X100064400Y-98921180D01*
X100076896Y-98794308D01*
X100076896Y-98794306D01*
X100126278Y-98631517D01*
X100126279Y-98631513D01*
X100206468Y-98481488D01*
X100314388Y-98349988D01*
X100445888Y-98242068D01*
X100595912Y-98161879D01*
X100638273Y-98149029D01*
X100758705Y-98112496D01*
X100871568Y-98101380D01*
X100927999Y-98095822D01*
X100928000Y-98095822D01*
X101097294Y-98112496D01*
X101097294Y-98112496D01*
G37*
G36*
X96017294Y-98112496D02*
X96137726Y-98149029D01*
X96180087Y-98161879D01*
X96330112Y-98242068D01*
X96461612Y-98349988D01*
X96569532Y-98481488D01*
X96649721Y-98631512D01*
X96650442Y-98633888D01*
X96699104Y-98794305D01*
X96699104Y-98794307D01*
X96711600Y-98921179D01*
X96711600Y-99310820D01*
X96711076Y-99316136D01*
X96699104Y-99437694D01*
X96668070Y-99540000D01*
X96649721Y-99600488D01*
X96569532Y-99750512D01*
X96461612Y-99882012D01*
X96330112Y-99989932D01*
X96180088Y-100070121D01*
X96152433Y-100078510D01*
X96017295Y-100119504D01*
X95904432Y-100130620D01*
X95848001Y-100136178D01*
X95848000Y-100136178D01*
X95678706Y-100119504D01*
X95543568Y-100078510D01*
X95515913Y-100070121D01*
X95365889Y-99989932D01*
X95275946Y-99916117D01*
X95234388Y-99882012D01*
X95126469Y-99750512D01*
X95126467Y-99750509D01*
X95046279Y-99600488D01*
X95027930Y-99540000D01*
X94996896Y-99437695D01*
X94988565Y-99353112D01*
X94984400Y-99310821D01*
X94984400Y-98921180D01*
X94996896Y-98794308D01*
X94996896Y-98794306D01*
X95046278Y-98631517D01*
X95046279Y-98631513D01*
X95126468Y-98481488D01*
X95234388Y-98349988D01*
X95365888Y-98242068D01*
X95515912Y-98161879D01*
X95558273Y-98149029D01*
X95678705Y-98112496D01*
X95791568Y-98101380D01*
X95847999Y-98095822D01*
X95848000Y-98095822D01*
X96017294Y-98112496D01*
X96017294Y-98112496D01*
G37*
G36*
X98557294Y-98112496D02*
X98677726Y-98149029D01*
X98720087Y-98161879D01*
X98870112Y-98242068D01*
X99001612Y-98349988D01*
X99109532Y-98481488D01*
X99189721Y-98631512D01*
X99190442Y-98633888D01*
X99239104Y-98794305D01*
X99239104Y-98794307D01*
X99251600Y-98921179D01*
X99251600Y-99310820D01*
X99251076Y-99316136D01*
X99239104Y-99437694D01*
X99208070Y-99540000D01*
X99189721Y-99600488D01*
X99109532Y-99750512D01*
X99001612Y-99882012D01*
X98870112Y-99989932D01*
X98720088Y-100070121D01*
X98692433Y-100078510D01*
X98557295Y-100119504D01*
X98444432Y-100130620D01*
X98388001Y-100136178D01*
X98388000Y-100136178D01*
X98218706Y-100119504D01*
X98083568Y-100078510D01*
X98055913Y-100070121D01*
X97905889Y-99989932D01*
X97815946Y-99916117D01*
X97774388Y-99882012D01*
X97666469Y-99750512D01*
X97666467Y-99750509D01*
X97586279Y-99600488D01*
X97567930Y-99540000D01*
X97536896Y-99437695D01*
X97528565Y-99353112D01*
X97524400Y-99310821D01*
X97524400Y-98921180D01*
X97536896Y-98794308D01*
X97536896Y-98794306D01*
X97586278Y-98631517D01*
X97586279Y-98631513D01*
X97666468Y-98481488D01*
X97774388Y-98349988D01*
X97905888Y-98242068D01*
X98055912Y-98161879D01*
X98098273Y-98149029D01*
X98218705Y-98112496D01*
X98331568Y-98101380D01*
X98387999Y-98095822D01*
X98388000Y-98095822D01*
X98557294Y-98112496D01*
X98557294Y-98112496D01*
G37*
G36*
X69093294Y-98112496D02*
X69213726Y-98149029D01*
X69256087Y-98161879D01*
X69406112Y-98242068D01*
X69537612Y-98349988D01*
X69645532Y-98481488D01*
X69725721Y-98631512D01*
X69726442Y-98633888D01*
X69775104Y-98794305D01*
X69775104Y-98794307D01*
X69787600Y-98921179D01*
X69787600Y-99310820D01*
X69787076Y-99316136D01*
X69775104Y-99437694D01*
X69744070Y-99540000D01*
X69725721Y-99600488D01*
X69645532Y-99750512D01*
X69537612Y-99882012D01*
X69406112Y-99989932D01*
X69256088Y-100070121D01*
X69228433Y-100078510D01*
X69093295Y-100119504D01*
X68980432Y-100130620D01*
X68924001Y-100136178D01*
X68924000Y-100136178D01*
X68754706Y-100119504D01*
X68619568Y-100078510D01*
X68591913Y-100070121D01*
X68441889Y-99989932D01*
X68351946Y-99916117D01*
X68310388Y-99882012D01*
X68202469Y-99750512D01*
X68202467Y-99750509D01*
X68122279Y-99600488D01*
X68103930Y-99540000D01*
X68072896Y-99437695D01*
X68064565Y-99353112D01*
X68060400Y-99310821D01*
X68060400Y-98921180D01*
X68072896Y-98794308D01*
X68072896Y-98794306D01*
X68122278Y-98631517D01*
X68122279Y-98631513D01*
X68202468Y-98481488D01*
X68310388Y-98349988D01*
X68441888Y-98242068D01*
X68591912Y-98161879D01*
X68634273Y-98149029D01*
X68754705Y-98112496D01*
X68867568Y-98101380D01*
X68923999Y-98095822D01*
X68924000Y-98095822D01*
X69093294Y-98112496D01*
X69093294Y-98112496D01*
G37*
G36*
X136657294Y-98112496D02*
X136777726Y-98149029D01*
X136820087Y-98161879D01*
X136970112Y-98242068D01*
X137101612Y-98349988D01*
X137209532Y-98481488D01*
X137289721Y-98631512D01*
X137290442Y-98633888D01*
X137339104Y-98794305D01*
X137339104Y-98794307D01*
X137351600Y-98921179D01*
X137351600Y-99310820D01*
X137351076Y-99316136D01*
X137339104Y-99437694D01*
X137308070Y-99540000D01*
X137289721Y-99600488D01*
X137209532Y-99750512D01*
X137101612Y-99882012D01*
X136970112Y-99989932D01*
X136820088Y-100070121D01*
X136792433Y-100078510D01*
X136657295Y-100119504D01*
X136544432Y-100130620D01*
X136488001Y-100136178D01*
X136488000Y-100136178D01*
X136318706Y-100119504D01*
X136183568Y-100078510D01*
X136155913Y-100070121D01*
X136005889Y-99989932D01*
X135915946Y-99916117D01*
X135874388Y-99882012D01*
X135766469Y-99750512D01*
X135766467Y-99750509D01*
X135686279Y-99600488D01*
X135667930Y-99540000D01*
X135636896Y-99437695D01*
X135628565Y-99353112D01*
X135624400Y-99310821D01*
X135624400Y-98921180D01*
X135636896Y-98794308D01*
X135636896Y-98794306D01*
X135686278Y-98631517D01*
X135686279Y-98631513D01*
X135766468Y-98481488D01*
X135874388Y-98349988D01*
X136005888Y-98242068D01*
X136155912Y-98161879D01*
X136198273Y-98149029D01*
X136318705Y-98112496D01*
X136431568Y-98101380D01*
X136487999Y-98095822D01*
X136488000Y-98095822D01*
X136657294Y-98112496D01*
X136657294Y-98112496D01*
G37*
G36*
X134117294Y-98112496D02*
X134237726Y-98149029D01*
X134280087Y-98161879D01*
X134430112Y-98242068D01*
X134561612Y-98349988D01*
X134669532Y-98481488D01*
X134749721Y-98631512D01*
X134750442Y-98633888D01*
X134799104Y-98794305D01*
X134799104Y-98794307D01*
X134811600Y-98921179D01*
X134811600Y-99310820D01*
X134811076Y-99316136D01*
X134799104Y-99437694D01*
X134768070Y-99540000D01*
X134749721Y-99600488D01*
X134669532Y-99750512D01*
X134561612Y-99882012D01*
X134430112Y-99989932D01*
X134280088Y-100070121D01*
X134252433Y-100078510D01*
X134117295Y-100119504D01*
X134004432Y-100130620D01*
X133948001Y-100136178D01*
X133948000Y-100136178D01*
X133778706Y-100119504D01*
X133643568Y-100078510D01*
X133615913Y-100070121D01*
X133465889Y-99989932D01*
X133375946Y-99916117D01*
X133334388Y-99882012D01*
X133226469Y-99750512D01*
X133226467Y-99750509D01*
X133146279Y-99600488D01*
X133127930Y-99540000D01*
X133096896Y-99437695D01*
X133088565Y-99353112D01*
X133084400Y-99310821D01*
X133084400Y-98921180D01*
X133096896Y-98794308D01*
X133096896Y-98794306D01*
X133146278Y-98631517D01*
X133146279Y-98631513D01*
X133226468Y-98481488D01*
X133334388Y-98349988D01*
X133465888Y-98242068D01*
X133615912Y-98161879D01*
X133658273Y-98149029D01*
X133778705Y-98112496D01*
X133891568Y-98101380D01*
X133947999Y-98095822D01*
X133948000Y-98095822D01*
X134117294Y-98112496D01*
X134117294Y-98112496D01*
G37*
G36*
X131577294Y-98112496D02*
X131697726Y-98149029D01*
X131740087Y-98161879D01*
X131890112Y-98242068D01*
X132021612Y-98349988D01*
X132129532Y-98481488D01*
X132209721Y-98631512D01*
X132210442Y-98633888D01*
X132259104Y-98794305D01*
X132259104Y-98794307D01*
X132271600Y-98921179D01*
X132271600Y-99310820D01*
X132271076Y-99316136D01*
X132259104Y-99437694D01*
X132228070Y-99540000D01*
X132209721Y-99600488D01*
X132129532Y-99750512D01*
X132021612Y-99882012D01*
X131890112Y-99989932D01*
X131740088Y-100070121D01*
X131712433Y-100078510D01*
X131577295Y-100119504D01*
X131464432Y-100130620D01*
X131408001Y-100136178D01*
X131408000Y-100136178D01*
X131238706Y-100119504D01*
X131103568Y-100078510D01*
X131075913Y-100070121D01*
X130925889Y-99989932D01*
X130835946Y-99916117D01*
X130794388Y-99882012D01*
X130686469Y-99750512D01*
X130686467Y-99750509D01*
X130606279Y-99600488D01*
X130587930Y-99540000D01*
X130556896Y-99437695D01*
X130548565Y-99353112D01*
X130544400Y-99310821D01*
X130544400Y-98921180D01*
X130556896Y-98794308D01*
X130556896Y-98794306D01*
X130606278Y-98631517D01*
X130606279Y-98631513D01*
X130686468Y-98481488D01*
X130794388Y-98349988D01*
X130925888Y-98242068D01*
X131075912Y-98161879D01*
X131118273Y-98149029D01*
X131238705Y-98112496D01*
X131351568Y-98101380D01*
X131407999Y-98095822D01*
X131408000Y-98095822D01*
X131577294Y-98112496D01*
X131577294Y-98112496D01*
G37*
G36*
X129037294Y-98112496D02*
X129157726Y-98149029D01*
X129200087Y-98161879D01*
X129350112Y-98242068D01*
X129481612Y-98349988D01*
X129589532Y-98481488D01*
X129669721Y-98631512D01*
X129670442Y-98633888D01*
X129719104Y-98794305D01*
X129719104Y-98794307D01*
X129731600Y-98921179D01*
X129731600Y-99310820D01*
X129731076Y-99316136D01*
X129719104Y-99437694D01*
X129688070Y-99540000D01*
X129669721Y-99600488D01*
X129589532Y-99750512D01*
X129481612Y-99882012D01*
X129350112Y-99989932D01*
X129200088Y-100070121D01*
X129172433Y-100078510D01*
X129037295Y-100119504D01*
X128924432Y-100130620D01*
X128868001Y-100136178D01*
X128868000Y-100136178D01*
X128698706Y-100119504D01*
X128563568Y-100078510D01*
X128535913Y-100070121D01*
X128385889Y-99989932D01*
X128295946Y-99916117D01*
X128254388Y-99882012D01*
X128146469Y-99750512D01*
X128146467Y-99750509D01*
X128066279Y-99600488D01*
X128047930Y-99540000D01*
X128016896Y-99437695D01*
X128008565Y-99353112D01*
X128004400Y-99310821D01*
X128004400Y-98921180D01*
X128016896Y-98794308D01*
X128016896Y-98794306D01*
X128066278Y-98631517D01*
X128066279Y-98631513D01*
X128146468Y-98481488D01*
X128254388Y-98349988D01*
X128385888Y-98242068D01*
X128535912Y-98161879D01*
X128578273Y-98149029D01*
X128698705Y-98112496D01*
X128811568Y-98101380D01*
X128867999Y-98095822D01*
X128868000Y-98095822D01*
X129037294Y-98112496D01*
X129037294Y-98112496D01*
G37*
G36*
X126497294Y-98112496D02*
X126617726Y-98149029D01*
X126660087Y-98161879D01*
X126810112Y-98242068D01*
X126941612Y-98349988D01*
X127049532Y-98481488D01*
X127129721Y-98631512D01*
X127130442Y-98633888D01*
X127179104Y-98794305D01*
X127179104Y-98794307D01*
X127191600Y-98921179D01*
X127191600Y-99310820D01*
X127191076Y-99316136D01*
X127179104Y-99437694D01*
X127148070Y-99540000D01*
X127129721Y-99600488D01*
X127049532Y-99750512D01*
X126941612Y-99882012D01*
X126810112Y-99989932D01*
X126660088Y-100070121D01*
X126632433Y-100078510D01*
X126497295Y-100119504D01*
X126384432Y-100130620D01*
X126328001Y-100136178D01*
X126328000Y-100136178D01*
X126158706Y-100119504D01*
X126023568Y-100078510D01*
X125995913Y-100070121D01*
X125845889Y-99989932D01*
X125755946Y-99916117D01*
X125714388Y-99882012D01*
X125606469Y-99750512D01*
X125606467Y-99750509D01*
X125526279Y-99600488D01*
X125507930Y-99540000D01*
X125476896Y-99437695D01*
X125468565Y-99353112D01*
X125464400Y-99310821D01*
X125464400Y-98921180D01*
X125476896Y-98794308D01*
X125476896Y-98794306D01*
X125526278Y-98631517D01*
X125526279Y-98631513D01*
X125606468Y-98481488D01*
X125714388Y-98349988D01*
X125845888Y-98242068D01*
X125995912Y-98161879D01*
X126038273Y-98149029D01*
X126158705Y-98112496D01*
X126271568Y-98101380D01*
X126327999Y-98095822D01*
X126328000Y-98095822D01*
X126497294Y-98112496D01*
X126497294Y-98112496D01*
G37*
G36*
X123957294Y-98112496D02*
X124077726Y-98149029D01*
X124120087Y-98161879D01*
X124270112Y-98242068D01*
X124401612Y-98349988D01*
X124509532Y-98481488D01*
X124589721Y-98631512D01*
X124590442Y-98633888D01*
X124639104Y-98794305D01*
X124639104Y-98794307D01*
X124651600Y-98921179D01*
X124651600Y-99310820D01*
X124651076Y-99316136D01*
X124639104Y-99437694D01*
X124608070Y-99540000D01*
X124589721Y-99600488D01*
X124509532Y-99750512D01*
X124401612Y-99882012D01*
X124270112Y-99989932D01*
X124120088Y-100070121D01*
X124092433Y-100078510D01*
X123957295Y-100119504D01*
X123844432Y-100130620D01*
X123788001Y-100136178D01*
X123788000Y-100136178D01*
X123618706Y-100119504D01*
X123483568Y-100078510D01*
X123455913Y-100070121D01*
X123305889Y-99989932D01*
X123215946Y-99916117D01*
X123174388Y-99882012D01*
X123066469Y-99750512D01*
X123066467Y-99750509D01*
X122986279Y-99600488D01*
X122967930Y-99540000D01*
X122936896Y-99437695D01*
X122928565Y-99353112D01*
X122924400Y-99310821D01*
X122924400Y-98921180D01*
X122936896Y-98794308D01*
X122936896Y-98794306D01*
X122986278Y-98631517D01*
X122986279Y-98631513D01*
X123066468Y-98481488D01*
X123174388Y-98349988D01*
X123305888Y-98242068D01*
X123455912Y-98161879D01*
X123498273Y-98149029D01*
X123618705Y-98112496D01*
X123731568Y-98101380D01*
X123787999Y-98095822D01*
X123788000Y-98095822D01*
X123957294Y-98112496D01*
X123957294Y-98112496D01*
G37*
G36*
X108717294Y-98112496D02*
X108837726Y-98149029D01*
X108880087Y-98161879D01*
X109030112Y-98242068D01*
X109161612Y-98349988D01*
X109269532Y-98481488D01*
X109349721Y-98631512D01*
X109350442Y-98633888D01*
X109399104Y-98794305D01*
X109399104Y-98794307D01*
X109411600Y-98921179D01*
X109411600Y-99310820D01*
X109411076Y-99316136D01*
X109399104Y-99437694D01*
X109368070Y-99540000D01*
X109349721Y-99600488D01*
X109269532Y-99750512D01*
X109161612Y-99882012D01*
X109030112Y-99989932D01*
X108880088Y-100070121D01*
X108852433Y-100078510D01*
X108717295Y-100119504D01*
X108604432Y-100130620D01*
X108548001Y-100136178D01*
X108548000Y-100136178D01*
X108378706Y-100119504D01*
X108243568Y-100078510D01*
X108215913Y-100070121D01*
X108065889Y-99989932D01*
X107975946Y-99916117D01*
X107934388Y-99882012D01*
X107826469Y-99750512D01*
X107826467Y-99750509D01*
X107746279Y-99600488D01*
X107727930Y-99540000D01*
X107696896Y-99437695D01*
X107688565Y-99353112D01*
X107684400Y-99310821D01*
X107684400Y-98921180D01*
X107696896Y-98794308D01*
X107696896Y-98794306D01*
X107746278Y-98631517D01*
X107746279Y-98631513D01*
X107826468Y-98481488D01*
X107934388Y-98349988D01*
X108065888Y-98242068D01*
X108215912Y-98161879D01*
X108258273Y-98149029D01*
X108378705Y-98112496D01*
X108491568Y-98101380D01*
X108547999Y-98095822D01*
X108548000Y-98095822D01*
X108717294Y-98112496D01*
X108717294Y-98112496D01*
G37*
G36*
X89413294Y-98112496D02*
X89533726Y-98149029D01*
X89576087Y-98161879D01*
X89726112Y-98242068D01*
X89857612Y-98349988D01*
X89965532Y-98481488D01*
X90045721Y-98631512D01*
X90046442Y-98633888D01*
X90095104Y-98794305D01*
X90095104Y-98794307D01*
X90107600Y-98921179D01*
X90107600Y-99310820D01*
X90107076Y-99316136D01*
X90095104Y-99437694D01*
X90064070Y-99540000D01*
X90045721Y-99600488D01*
X89965532Y-99750512D01*
X89857612Y-99882012D01*
X89726112Y-99989932D01*
X89576088Y-100070121D01*
X89548433Y-100078510D01*
X89413295Y-100119504D01*
X89300432Y-100130620D01*
X89244001Y-100136178D01*
X89244000Y-100136178D01*
X89074706Y-100119504D01*
X88939568Y-100078510D01*
X88911913Y-100070121D01*
X88761889Y-99989932D01*
X88671946Y-99916117D01*
X88630388Y-99882012D01*
X88522469Y-99750512D01*
X88522467Y-99750509D01*
X88442279Y-99600488D01*
X88423930Y-99540000D01*
X88392896Y-99437695D01*
X88384565Y-99353112D01*
X88380400Y-99310821D01*
X88380400Y-98921180D01*
X88392896Y-98794308D01*
X88392896Y-98794306D01*
X88442278Y-98631517D01*
X88442279Y-98631513D01*
X88522468Y-98481488D01*
X88630388Y-98349988D01*
X88761888Y-98242068D01*
X88911912Y-98161879D01*
X88954273Y-98149029D01*
X89074705Y-98112496D01*
X89187568Y-98101380D01*
X89243999Y-98095822D01*
X89244000Y-98095822D01*
X89413294Y-98112496D01*
X89413294Y-98112496D01*
G37*
G36*
X118877294Y-98112496D02*
X118997726Y-98149029D01*
X119040087Y-98161879D01*
X119190112Y-98242068D01*
X119321612Y-98349988D01*
X119429532Y-98481488D01*
X119509721Y-98631512D01*
X119510442Y-98633888D01*
X119559104Y-98794305D01*
X119559104Y-98794307D01*
X119571600Y-98921179D01*
X119571600Y-99310820D01*
X119571076Y-99316136D01*
X119559104Y-99437694D01*
X119528070Y-99540000D01*
X119509721Y-99600488D01*
X119429532Y-99750512D01*
X119321612Y-99882012D01*
X119190112Y-99989932D01*
X119040088Y-100070121D01*
X119012433Y-100078510D01*
X118877295Y-100119504D01*
X118764432Y-100130620D01*
X118708001Y-100136178D01*
X118708000Y-100136178D01*
X118538706Y-100119504D01*
X118403568Y-100078510D01*
X118375913Y-100070121D01*
X118225889Y-99989932D01*
X118135946Y-99916117D01*
X118094388Y-99882012D01*
X117986469Y-99750512D01*
X117986467Y-99750509D01*
X117906279Y-99600488D01*
X117887930Y-99540000D01*
X117856896Y-99437695D01*
X117848565Y-99353112D01*
X117844400Y-99310821D01*
X117844400Y-98921180D01*
X117856896Y-98794308D01*
X117856896Y-98794306D01*
X117906278Y-98631517D01*
X117906279Y-98631513D01*
X117986468Y-98481488D01*
X118094388Y-98349988D01*
X118225888Y-98242068D01*
X118375912Y-98161879D01*
X118418273Y-98149029D01*
X118538705Y-98112496D01*
X118651568Y-98101380D01*
X118707999Y-98095822D01*
X118708000Y-98095822D01*
X118877294Y-98112496D01*
X118877294Y-98112496D01*
G37*
G36*
X113797294Y-98112496D02*
X113917726Y-98149029D01*
X113960087Y-98161879D01*
X114110112Y-98242068D01*
X114241612Y-98349988D01*
X114349532Y-98481488D01*
X114429721Y-98631512D01*
X114430442Y-98633888D01*
X114479104Y-98794305D01*
X114479104Y-98794307D01*
X114491600Y-98921179D01*
X114491600Y-99310820D01*
X114491076Y-99316136D01*
X114479104Y-99437694D01*
X114448070Y-99540000D01*
X114429721Y-99600488D01*
X114349532Y-99750512D01*
X114241612Y-99882012D01*
X114110112Y-99989932D01*
X113960088Y-100070121D01*
X113932433Y-100078510D01*
X113797295Y-100119504D01*
X113684432Y-100130620D01*
X113628001Y-100136178D01*
X113628000Y-100136178D01*
X113458706Y-100119504D01*
X113323568Y-100078510D01*
X113295913Y-100070121D01*
X113145889Y-99989932D01*
X113055946Y-99916117D01*
X113014388Y-99882012D01*
X112906469Y-99750512D01*
X112906467Y-99750509D01*
X112826279Y-99600488D01*
X112807930Y-99540000D01*
X112776896Y-99437695D01*
X112768565Y-99353112D01*
X112764400Y-99310821D01*
X112764400Y-98921180D01*
X112776896Y-98794308D01*
X112776896Y-98794306D01*
X112826278Y-98631517D01*
X112826279Y-98631513D01*
X112906468Y-98481488D01*
X113014388Y-98349988D01*
X113145888Y-98242068D01*
X113295912Y-98161879D01*
X113338273Y-98149029D01*
X113458705Y-98112496D01*
X113571568Y-98101380D01*
X113627999Y-98095822D01*
X113628000Y-98095822D01*
X113797294Y-98112496D01*
X113797294Y-98112496D01*
G37*
G36*
X111257294Y-98112496D02*
X111377726Y-98149029D01*
X111420087Y-98161879D01*
X111570112Y-98242068D01*
X111701612Y-98349988D01*
X111809532Y-98481488D01*
X111889721Y-98631512D01*
X111890442Y-98633888D01*
X111939104Y-98794305D01*
X111939104Y-98794307D01*
X111951600Y-98921179D01*
X111951600Y-99310820D01*
X111951076Y-99316136D01*
X111939104Y-99437694D01*
X111908070Y-99540000D01*
X111889721Y-99600488D01*
X111809532Y-99750512D01*
X111701612Y-99882012D01*
X111570112Y-99989932D01*
X111420088Y-100070121D01*
X111392433Y-100078510D01*
X111257295Y-100119504D01*
X111144432Y-100130620D01*
X111088001Y-100136178D01*
X111088000Y-100136178D01*
X110918706Y-100119504D01*
X110783568Y-100078510D01*
X110755913Y-100070121D01*
X110605889Y-99989932D01*
X110515946Y-99916117D01*
X110474388Y-99882012D01*
X110366469Y-99750512D01*
X110366467Y-99750509D01*
X110286279Y-99600488D01*
X110267930Y-99540000D01*
X110236896Y-99437695D01*
X110228565Y-99353112D01*
X110224400Y-99310821D01*
X110224400Y-98921180D01*
X110236896Y-98794308D01*
X110236896Y-98794306D01*
X110286278Y-98631517D01*
X110286279Y-98631513D01*
X110366468Y-98481488D01*
X110474388Y-98349988D01*
X110605888Y-98242068D01*
X110755912Y-98161879D01*
X110798273Y-98149029D01*
X110918705Y-98112496D01*
X111031568Y-98101380D01*
X111087999Y-98095822D01*
X111088000Y-98095822D01*
X111257294Y-98112496D01*
X111257294Y-98112496D01*
G37*
G36*
X121417294Y-98112496D02*
X121537726Y-98149029D01*
X121580087Y-98161879D01*
X121730112Y-98242068D01*
X121861612Y-98349988D01*
X121969532Y-98481488D01*
X122049721Y-98631512D01*
X122050442Y-98633888D01*
X122099104Y-98794305D01*
X122099104Y-98794307D01*
X122111600Y-98921179D01*
X122111600Y-99310820D01*
X122111076Y-99316136D01*
X122099104Y-99437694D01*
X122068070Y-99540000D01*
X122049721Y-99600488D01*
X121969532Y-99750512D01*
X121861612Y-99882012D01*
X121730112Y-99989932D01*
X121580088Y-100070121D01*
X121552433Y-100078510D01*
X121417295Y-100119504D01*
X121304432Y-100130620D01*
X121248001Y-100136178D01*
X121248000Y-100136178D01*
X121078706Y-100119504D01*
X120943568Y-100078510D01*
X120915913Y-100070121D01*
X120765889Y-99989932D01*
X120675946Y-99916117D01*
X120634388Y-99882012D01*
X120526469Y-99750512D01*
X120526467Y-99750509D01*
X120446279Y-99600488D01*
X120427930Y-99540000D01*
X120396896Y-99437695D01*
X120388565Y-99353112D01*
X120384400Y-99310821D01*
X120384400Y-98921180D01*
X120396896Y-98794308D01*
X120396896Y-98794306D01*
X120446278Y-98631517D01*
X120446279Y-98631513D01*
X120526468Y-98481488D01*
X120634388Y-98349988D01*
X120765888Y-98242068D01*
X120915912Y-98161879D01*
X120958273Y-98149029D01*
X121078705Y-98112496D01*
X121191568Y-98101380D01*
X121247999Y-98095822D01*
X121248000Y-98095822D01*
X121417294Y-98112496D01*
X121417294Y-98112496D01*
G37*
G36*
X71633294Y-98112496D02*
X71753726Y-98149029D01*
X71796087Y-98161879D01*
X71946112Y-98242068D01*
X72077612Y-98349988D01*
X72185532Y-98481488D01*
X72265721Y-98631512D01*
X72266442Y-98633888D01*
X72315104Y-98794305D01*
X72315104Y-98794307D01*
X72327600Y-98921179D01*
X72327600Y-99310820D01*
X72327076Y-99316136D01*
X72315104Y-99437694D01*
X72284070Y-99540000D01*
X72265721Y-99600488D01*
X72185532Y-99750512D01*
X72077612Y-99882012D01*
X71946112Y-99989932D01*
X71796088Y-100070121D01*
X71768433Y-100078510D01*
X71633295Y-100119504D01*
X71520432Y-100130620D01*
X71464001Y-100136178D01*
X71464000Y-100136178D01*
X71294706Y-100119504D01*
X71159568Y-100078510D01*
X71131913Y-100070121D01*
X70981889Y-99989932D01*
X70891946Y-99916117D01*
X70850388Y-99882012D01*
X70742469Y-99750512D01*
X70742467Y-99750509D01*
X70662279Y-99600488D01*
X70643930Y-99540000D01*
X70612896Y-99437695D01*
X70604565Y-99353112D01*
X70600400Y-99310821D01*
X70600400Y-98921180D01*
X70612896Y-98794308D01*
X70612896Y-98794306D01*
X70662278Y-98631517D01*
X70662279Y-98631513D01*
X70742468Y-98481488D01*
X70850388Y-98349988D01*
X70981888Y-98242068D01*
X71131912Y-98161879D01*
X71174273Y-98149029D01*
X71294705Y-98112496D01*
X71407568Y-98101380D01*
X71463999Y-98095822D01*
X71464000Y-98095822D01*
X71633294Y-98112496D01*
X71633294Y-98112496D01*
G37*
G36*
X74173294Y-98112496D02*
X74293726Y-98149029D01*
X74336087Y-98161879D01*
X74486112Y-98242068D01*
X74617612Y-98349988D01*
X74725532Y-98481488D01*
X74805721Y-98631512D01*
X74806442Y-98633888D01*
X74855104Y-98794305D01*
X74855104Y-98794307D01*
X74867600Y-98921179D01*
X74867600Y-99310820D01*
X74867076Y-99316136D01*
X74855104Y-99437694D01*
X74824070Y-99540000D01*
X74805721Y-99600488D01*
X74725532Y-99750512D01*
X74617612Y-99882012D01*
X74486112Y-99989932D01*
X74336088Y-100070121D01*
X74308433Y-100078510D01*
X74173295Y-100119504D01*
X74060432Y-100130620D01*
X74004001Y-100136178D01*
X74004000Y-100136178D01*
X73834706Y-100119504D01*
X73699568Y-100078510D01*
X73671913Y-100070121D01*
X73521889Y-99989932D01*
X73431946Y-99916117D01*
X73390388Y-99882012D01*
X73282469Y-99750512D01*
X73282467Y-99750509D01*
X73202279Y-99600488D01*
X73183930Y-99540000D01*
X73152896Y-99437695D01*
X73144565Y-99353112D01*
X73140400Y-99310821D01*
X73140400Y-98921180D01*
X73152896Y-98794308D01*
X73152896Y-98794306D01*
X73202278Y-98631517D01*
X73202279Y-98631513D01*
X73282468Y-98481488D01*
X73390388Y-98349988D01*
X73521888Y-98242068D01*
X73671912Y-98161879D01*
X73714273Y-98149029D01*
X73834705Y-98112496D01*
X73947568Y-98101380D01*
X74003999Y-98095822D01*
X74004000Y-98095822D01*
X74173294Y-98112496D01*
X74173294Y-98112496D01*
G37*
G36*
X76713294Y-98112496D02*
X76833726Y-98149029D01*
X76876087Y-98161879D01*
X77026112Y-98242068D01*
X77157612Y-98349988D01*
X77265532Y-98481488D01*
X77345721Y-98631512D01*
X77346442Y-98633888D01*
X77395104Y-98794305D01*
X77395104Y-98794307D01*
X77407600Y-98921179D01*
X77407600Y-99310820D01*
X77407076Y-99316136D01*
X77395104Y-99437694D01*
X77364070Y-99540000D01*
X77345721Y-99600488D01*
X77265532Y-99750512D01*
X77157612Y-99882012D01*
X77026112Y-99989932D01*
X76876088Y-100070121D01*
X76848433Y-100078510D01*
X76713295Y-100119504D01*
X76600432Y-100130620D01*
X76544001Y-100136178D01*
X76544000Y-100136178D01*
X76374706Y-100119504D01*
X76239568Y-100078510D01*
X76211913Y-100070121D01*
X76061889Y-99989932D01*
X75971946Y-99916117D01*
X75930388Y-99882012D01*
X75822469Y-99750512D01*
X75822467Y-99750509D01*
X75742279Y-99600488D01*
X75723930Y-99540000D01*
X75692896Y-99437695D01*
X75684565Y-99353112D01*
X75680400Y-99310821D01*
X75680400Y-98921180D01*
X75692896Y-98794308D01*
X75692896Y-98794306D01*
X75742278Y-98631517D01*
X75742279Y-98631513D01*
X75822468Y-98481488D01*
X75930388Y-98349988D01*
X76061888Y-98242068D01*
X76211912Y-98161879D01*
X76254273Y-98149029D01*
X76374705Y-98112496D01*
X76487568Y-98101380D01*
X76543999Y-98095822D01*
X76544000Y-98095822D01*
X76713294Y-98112496D01*
X76713294Y-98112496D01*
G37*
G36*
X79253294Y-98112496D02*
X79373726Y-98149029D01*
X79416087Y-98161879D01*
X79566112Y-98242068D01*
X79697612Y-98349988D01*
X79805532Y-98481488D01*
X79885721Y-98631512D01*
X79886442Y-98633888D01*
X79935104Y-98794305D01*
X79935104Y-98794307D01*
X79947600Y-98921179D01*
X79947600Y-99310820D01*
X79947076Y-99316136D01*
X79935104Y-99437694D01*
X79904070Y-99540000D01*
X79885721Y-99600488D01*
X79805532Y-99750512D01*
X79697612Y-99882012D01*
X79566112Y-99989932D01*
X79416088Y-100070121D01*
X79388433Y-100078510D01*
X79253295Y-100119504D01*
X79140432Y-100130620D01*
X79084001Y-100136178D01*
X79084000Y-100136178D01*
X78914706Y-100119504D01*
X78779568Y-100078510D01*
X78751913Y-100070121D01*
X78601889Y-99989932D01*
X78511946Y-99916117D01*
X78470388Y-99882012D01*
X78362469Y-99750512D01*
X78362467Y-99750509D01*
X78282279Y-99600488D01*
X78263930Y-99540000D01*
X78232896Y-99437695D01*
X78224565Y-99353112D01*
X78220400Y-99310821D01*
X78220400Y-98921180D01*
X78232896Y-98794308D01*
X78232896Y-98794306D01*
X78282278Y-98631517D01*
X78282279Y-98631513D01*
X78362468Y-98481488D01*
X78470388Y-98349988D01*
X78601888Y-98242068D01*
X78751912Y-98161879D01*
X78794273Y-98149029D01*
X78914705Y-98112496D01*
X79027568Y-98101380D01*
X79083999Y-98095822D01*
X79084000Y-98095822D01*
X79253294Y-98112496D01*
X79253294Y-98112496D01*
G37*
G36*
X81793294Y-98112496D02*
X81913726Y-98149029D01*
X81956087Y-98161879D01*
X82106112Y-98242068D01*
X82237612Y-98349988D01*
X82345532Y-98481488D01*
X82425721Y-98631512D01*
X82426442Y-98633888D01*
X82475104Y-98794305D01*
X82475104Y-98794307D01*
X82487600Y-98921179D01*
X82487600Y-99310820D01*
X82487076Y-99316136D01*
X82475104Y-99437694D01*
X82444070Y-99540000D01*
X82425721Y-99600488D01*
X82345532Y-99750512D01*
X82237612Y-99882012D01*
X82106112Y-99989932D01*
X81956088Y-100070121D01*
X81928433Y-100078510D01*
X81793295Y-100119504D01*
X81680432Y-100130620D01*
X81624001Y-100136178D01*
X81624000Y-100136178D01*
X81454706Y-100119504D01*
X81319568Y-100078510D01*
X81291913Y-100070121D01*
X81141889Y-99989932D01*
X81051946Y-99916117D01*
X81010388Y-99882012D01*
X80902469Y-99750512D01*
X80902467Y-99750509D01*
X80822279Y-99600488D01*
X80803930Y-99540000D01*
X80772896Y-99437695D01*
X80764565Y-99353112D01*
X80760400Y-99310821D01*
X80760400Y-98921180D01*
X80772896Y-98794308D01*
X80772896Y-98794306D01*
X80822278Y-98631517D01*
X80822279Y-98631513D01*
X80902468Y-98481488D01*
X81010388Y-98349988D01*
X81141888Y-98242068D01*
X81291912Y-98161879D01*
X81334273Y-98149029D01*
X81454705Y-98112496D01*
X81567568Y-98101380D01*
X81623999Y-98095822D01*
X81624000Y-98095822D01*
X81793294Y-98112496D01*
X81793294Y-98112496D01*
G37*
G36*
X84333294Y-98112496D02*
X84453726Y-98149029D01*
X84496087Y-98161879D01*
X84646112Y-98242068D01*
X84777612Y-98349988D01*
X84885532Y-98481488D01*
X84965721Y-98631512D01*
X84966442Y-98633888D01*
X85015104Y-98794305D01*
X85015104Y-98794307D01*
X85027600Y-98921179D01*
X85027600Y-99310820D01*
X85027076Y-99316136D01*
X85015104Y-99437694D01*
X84984070Y-99540000D01*
X84965721Y-99600488D01*
X84885532Y-99750512D01*
X84777612Y-99882012D01*
X84646112Y-99989932D01*
X84496088Y-100070121D01*
X84468433Y-100078510D01*
X84333295Y-100119504D01*
X84220432Y-100130620D01*
X84164001Y-100136178D01*
X84164000Y-100136178D01*
X83994706Y-100119504D01*
X83859568Y-100078510D01*
X83831913Y-100070121D01*
X83681889Y-99989932D01*
X83591946Y-99916117D01*
X83550388Y-99882012D01*
X83442469Y-99750512D01*
X83442467Y-99750509D01*
X83362279Y-99600488D01*
X83343930Y-99540000D01*
X83312896Y-99437695D01*
X83304565Y-99353112D01*
X83300400Y-99310821D01*
X83300400Y-98921180D01*
X83312896Y-98794308D01*
X83312896Y-98794306D01*
X83362278Y-98631517D01*
X83362279Y-98631513D01*
X83442468Y-98481488D01*
X83550388Y-98349988D01*
X83681888Y-98242068D01*
X83831912Y-98161879D01*
X83874273Y-98149029D01*
X83994705Y-98112496D01*
X84107568Y-98101380D01*
X84163999Y-98095822D01*
X84164000Y-98095822D01*
X84333294Y-98112496D01*
X84333294Y-98112496D01*
G37*
G36*
X86873294Y-98112496D02*
X86993726Y-98149029D01*
X87036087Y-98161879D01*
X87186112Y-98242068D01*
X87317612Y-98349988D01*
X87425532Y-98481488D01*
X87505721Y-98631512D01*
X87506442Y-98633888D01*
X87555104Y-98794305D01*
X87555104Y-98794307D01*
X87567600Y-98921179D01*
X87567600Y-99310820D01*
X87567076Y-99316136D01*
X87555104Y-99437694D01*
X87524070Y-99540000D01*
X87505721Y-99600488D01*
X87425532Y-99750512D01*
X87317612Y-99882012D01*
X87186112Y-99989932D01*
X87036088Y-100070121D01*
X87008433Y-100078510D01*
X86873295Y-100119504D01*
X86760432Y-100130620D01*
X86704001Y-100136178D01*
X86704000Y-100136178D01*
X86534706Y-100119504D01*
X86399568Y-100078510D01*
X86371913Y-100070121D01*
X86221889Y-99989932D01*
X86131946Y-99916117D01*
X86090388Y-99882012D01*
X85982469Y-99750512D01*
X85982467Y-99750509D01*
X85902279Y-99600488D01*
X85883930Y-99540000D01*
X85852896Y-99437695D01*
X85844565Y-99353112D01*
X85840400Y-99310821D01*
X85840400Y-98921180D01*
X85852896Y-98794308D01*
X85852896Y-98794306D01*
X85902278Y-98631517D01*
X85902279Y-98631513D01*
X85982468Y-98481488D01*
X86090388Y-98349988D01*
X86221888Y-98242068D01*
X86371912Y-98161879D01*
X86414273Y-98149029D01*
X86534705Y-98112496D01*
X86647568Y-98101380D01*
X86703999Y-98095822D01*
X86704000Y-98095822D01*
X86873294Y-98112496D01*
X86873294Y-98112496D01*
G37*
G36*
X91953294Y-98112496D02*
X92073726Y-98149029D01*
X92116087Y-98161879D01*
X92266112Y-98242068D01*
X92397612Y-98349988D01*
X92505532Y-98481488D01*
X92585721Y-98631512D01*
X92586442Y-98633888D01*
X92635104Y-98794305D01*
X92635104Y-98794307D01*
X92647600Y-98921179D01*
X92647600Y-99310820D01*
X92647076Y-99316136D01*
X92635104Y-99437694D01*
X92604070Y-99540000D01*
X92585721Y-99600488D01*
X92505532Y-99750512D01*
X92397612Y-99882012D01*
X92266112Y-99989932D01*
X92116088Y-100070121D01*
X92088433Y-100078510D01*
X91953295Y-100119504D01*
X91840432Y-100130620D01*
X91784001Y-100136178D01*
X91784000Y-100136178D01*
X91614706Y-100119504D01*
X91479568Y-100078510D01*
X91451913Y-100070121D01*
X91301889Y-99989932D01*
X91211946Y-99916117D01*
X91170388Y-99882012D01*
X91062469Y-99750512D01*
X91062467Y-99750509D01*
X90982279Y-99600488D01*
X90963930Y-99540000D01*
X90932896Y-99437695D01*
X90924565Y-99353112D01*
X90920400Y-99310821D01*
X90920400Y-98921180D01*
X90932896Y-98794308D01*
X90932896Y-98794306D01*
X90982278Y-98631517D01*
X90982279Y-98631513D01*
X91062468Y-98481488D01*
X91170388Y-98349988D01*
X91301888Y-98242068D01*
X91451912Y-98161879D01*
X91494273Y-98149029D01*
X91614705Y-98112496D01*
X91727568Y-98101380D01*
X91783999Y-98095822D01*
X91784000Y-98095822D01*
X91953294Y-98112496D01*
X91953294Y-98112496D01*
G37*
G36*
X146732712Y-98256565D02*
X146817295Y-98264896D01*
X146937727Y-98301429D01*
X146980088Y-98314279D01*
X147130112Y-98394468D01*
X147261612Y-98502388D01*
X147369532Y-98633888D01*
X147449721Y-98783912D01*
X147462571Y-98826273D01*
X147499104Y-98946705D01*
X147515778Y-99116000D01*
X147499104Y-99285295D01*
X147489748Y-99316136D01*
X147449721Y-99448088D01*
X147369532Y-99598112D01*
X147261612Y-99729612D01*
X147130112Y-99837532D01*
X146980088Y-99917721D01*
X146937727Y-99930571D01*
X146817295Y-99967104D01*
X146732712Y-99975435D01*
X146690421Y-99979600D01*
X146605579Y-99979600D01*
X146563288Y-99975435D01*
X146478705Y-99967104D01*
X146358273Y-99930571D01*
X146315912Y-99917721D01*
X146165888Y-99837532D01*
X146034388Y-99729612D01*
X145926468Y-99598112D01*
X145846279Y-99448088D01*
X145806252Y-99316136D01*
X145796896Y-99285295D01*
X145780222Y-99116000D01*
X145796896Y-98946705D01*
X145833429Y-98826273D01*
X145846279Y-98783912D01*
X145926468Y-98633888D01*
X146034388Y-98502388D01*
X146165888Y-98394468D01*
X146315912Y-98314279D01*
X146358273Y-98301429D01*
X146478705Y-98264896D01*
X146563288Y-98256565D01*
X146605579Y-98252400D01*
X146690421Y-98252400D01*
X146732712Y-98256565D01*
X146732712Y-98256565D01*
G37*
G36*
X144192712Y-98256565D02*
X144277295Y-98264896D01*
X144397727Y-98301429D01*
X144440088Y-98314279D01*
X144590112Y-98394468D01*
X144721612Y-98502388D01*
X144829532Y-98633888D01*
X144909721Y-98783912D01*
X144922571Y-98826273D01*
X144959104Y-98946705D01*
X144975778Y-99116000D01*
X144959104Y-99285295D01*
X144949748Y-99316136D01*
X144909721Y-99448088D01*
X144829532Y-99598112D01*
X144721612Y-99729612D01*
X144590112Y-99837532D01*
X144440088Y-99917721D01*
X144397727Y-99930571D01*
X144277295Y-99967104D01*
X144192712Y-99975435D01*
X144150421Y-99979600D01*
X144065579Y-99979600D01*
X144023288Y-99975435D01*
X143938705Y-99967104D01*
X143818273Y-99930571D01*
X143775912Y-99917721D01*
X143625888Y-99837532D01*
X143494388Y-99729612D01*
X143386468Y-99598112D01*
X143306279Y-99448088D01*
X143266252Y-99316136D01*
X143256896Y-99285295D01*
X143240222Y-99116000D01*
X143256896Y-98946705D01*
X143293429Y-98826273D01*
X143306279Y-98783912D01*
X143386468Y-98633888D01*
X143494388Y-98502388D01*
X143625888Y-98394468D01*
X143775912Y-98314279D01*
X143818273Y-98301429D01*
X143938705Y-98264896D01*
X144023288Y-98256565D01*
X144065579Y-98252400D01*
X144150421Y-98252400D01*
X144192712Y-98256565D01*
X144192712Y-98256565D01*
G37*
G36*
X60060000Y-99540000D02*
X59460000Y-99540000D01*
X59460000Y-99140000D01*
X60060000Y-99140000D01*
X60060000Y-99540000D01*
X60060000Y-99540000D01*
G37*
G36*
X56930000Y-99480000D02*
X56330000Y-99480000D01*
X56330000Y-99080000D01*
X56930000Y-99080000D01*
X56930000Y-99480000D01*
X56930000Y-99480000D01*
G37*
G36*
X58350000Y-99460000D02*
X57850000Y-99460000D01*
X57850000Y-98860000D01*
X58350000Y-98860000D01*
X58350000Y-99460000D01*
X58350000Y-99460000D01*
G37*
M02*
