G04 #@! TF.GenerationSoftware,KiCad,Pcbnew,(5.0.2)-1*
G04 #@! TF.CreationDate,2019-06-14T17:16:18-02:30*
G04 #@! TF.ProjectId,arduinoShield,61726475-696e-46f5-9368-69656c642e6b,rev?*
G04 #@! TF.SameCoordinates,Original*
G04 #@! TF.FileFunction,Legend,Bot*
G04 #@! TF.FilePolarity,Positive*
%FSLAX46Y46*%
G04 Gerber Fmt 4.6, Leading zero omitted, Abs format (unit mm)*
G04 Created by KiCad (PCBNEW (5.0.2)-1) date 6/14/2019 5:16:18 PM*
%MOMM*%
%LPD*%
G01*
G04 APERTURE LIST*
%ADD10C,0.120000*%
%ADD11C,0.150000*%
G04 APERTURE END LIST*
D10*
G04 #@! TO.C,C4*
X75490000Y-137728000D02*
X75490000Y-138228000D01*
X74550000Y-138228000D02*
X74550000Y-137728000D01*
G04 #@! TO.C,C6*
X76310000Y-138100000D02*
X76310000Y-137600000D01*
X77250000Y-137600000D02*
X77250000Y-138100000D01*
G04 #@! TO.C,C12*
X60770000Y-130740000D02*
X60770000Y-130240000D01*
X61710000Y-130240000D02*
X61710000Y-130740000D01*
G04 #@! TO.C,R10*
X79100000Y-137570000D02*
X79100000Y-138070000D01*
X78040000Y-138070000D02*
X78040000Y-137570000D01*
G04 #@! TO.C,R11*
X78046000Y-121010000D02*
X78046000Y-121510000D01*
X76986000Y-121510000D02*
X76986000Y-121010000D01*
G04 #@! TO.C,R12*
X75716000Y-121510000D02*
X75716000Y-121010000D01*
X76776000Y-121010000D02*
X76776000Y-121510000D01*
G04 #@! TO.C,R13*
X75520000Y-121010000D02*
X75520000Y-121510000D01*
X74460000Y-121510000D02*
X74460000Y-121010000D01*
G04 #@! TO.C,R14*
X73190000Y-121510000D02*
X73190000Y-121010000D01*
X74250000Y-121010000D02*
X74250000Y-121510000D01*
G04 #@! TO.C,R15*
X72960000Y-121010000D02*
X72960000Y-121510000D01*
X71900000Y-121510000D02*
X71900000Y-121010000D01*
G04 #@! TO.C,C4*
D11*
X75317142Y-141001333D02*
X75364761Y-140953714D01*
X75412380Y-140810857D01*
X75412380Y-140715619D01*
X75364761Y-140572761D01*
X75269523Y-140477523D01*
X75174285Y-140429904D01*
X74983809Y-140382285D01*
X74840952Y-140382285D01*
X74650476Y-140429904D01*
X74555238Y-140477523D01*
X74460000Y-140572761D01*
X74412380Y-140715619D01*
X74412380Y-140810857D01*
X74460000Y-140953714D01*
X74507619Y-141001333D01*
X74745714Y-141858476D02*
X75412380Y-141858476D01*
X74364761Y-141620380D02*
X75079047Y-141382285D01*
X75079047Y-142001333D01*
G04 #@! TO.C,C6*
X76967142Y-140903333D02*
X77014761Y-140855714D01*
X77062380Y-140712857D01*
X77062380Y-140617619D01*
X77014761Y-140474761D01*
X76919523Y-140379523D01*
X76824285Y-140331904D01*
X76633809Y-140284285D01*
X76490952Y-140284285D01*
X76300476Y-140331904D01*
X76205238Y-140379523D01*
X76110000Y-140474761D01*
X76062380Y-140617619D01*
X76062380Y-140712857D01*
X76110000Y-140855714D01*
X76157619Y-140903333D01*
X76062380Y-141760476D02*
X76062380Y-141570000D01*
X76110000Y-141474761D01*
X76157619Y-141427142D01*
X76300476Y-141331904D01*
X76490952Y-141284285D01*
X76871904Y-141284285D01*
X76967142Y-141331904D01*
X77014761Y-141379523D01*
X77062380Y-141474761D01*
X77062380Y-141665238D01*
X77014761Y-141760476D01*
X76967142Y-141808095D01*
X76871904Y-141855714D01*
X76633809Y-141855714D01*
X76538571Y-141808095D01*
X76490952Y-141760476D01*
X76443333Y-141665238D01*
X76443333Y-141474761D01*
X76490952Y-141379523D01*
X76538571Y-141331904D01*
X76633809Y-141284285D01*
G04 #@! TO.C,R10*
X78982380Y-139987142D02*
X78506190Y-139653809D01*
X78982380Y-139415714D02*
X77982380Y-139415714D01*
X77982380Y-139796666D01*
X78030000Y-139891904D01*
X78077619Y-139939523D01*
X78172857Y-139987142D01*
X78315714Y-139987142D01*
X78410952Y-139939523D01*
X78458571Y-139891904D01*
X78506190Y-139796666D01*
X78506190Y-139415714D01*
X78982380Y-140939523D02*
X78982380Y-140368095D01*
X78982380Y-140653809D02*
X77982380Y-140653809D01*
X78125238Y-140558571D01*
X78220476Y-140463333D01*
X78268095Y-140368095D01*
X77982380Y-141558571D02*
X77982380Y-141653809D01*
X78030000Y-141749047D01*
X78077619Y-141796666D01*
X78172857Y-141844285D01*
X78363333Y-141891904D01*
X78601428Y-141891904D01*
X78791904Y-141844285D01*
X78887142Y-141796666D01*
X78934761Y-141749047D01*
X78982380Y-141653809D01*
X78982380Y-141558571D01*
X78934761Y-141463333D01*
X78887142Y-141415714D01*
X78791904Y-141368095D01*
X78601428Y-141320476D01*
X78363333Y-141320476D01*
X78172857Y-141368095D01*
X78077619Y-141415714D01*
X78030000Y-141463333D01*
X77982380Y-141558571D01*
G04 #@! TO.C,R11*
X77968380Y-117315142D02*
X77492190Y-116981809D01*
X77968380Y-116743714D02*
X76968380Y-116743714D01*
X76968380Y-117124666D01*
X77016000Y-117219904D01*
X77063619Y-117267523D01*
X77158857Y-117315142D01*
X77301714Y-117315142D01*
X77396952Y-117267523D01*
X77444571Y-117219904D01*
X77492190Y-117124666D01*
X77492190Y-116743714D01*
X77968380Y-118267523D02*
X77968380Y-117696095D01*
X77968380Y-117981809D02*
X76968380Y-117981809D01*
X77111238Y-117886571D01*
X77206476Y-117791333D01*
X77254095Y-117696095D01*
X77968380Y-119219904D02*
X77968380Y-118648476D01*
X77968380Y-118934190D02*
X76968380Y-118934190D01*
X77111238Y-118838952D01*
X77206476Y-118743714D01*
X77254095Y-118648476D01*
G04 #@! TO.C,R12*
X76698380Y-117317142D02*
X76222190Y-116983809D01*
X76698380Y-116745714D02*
X75698380Y-116745714D01*
X75698380Y-117126666D01*
X75746000Y-117221904D01*
X75793619Y-117269523D01*
X75888857Y-117317142D01*
X76031714Y-117317142D01*
X76126952Y-117269523D01*
X76174571Y-117221904D01*
X76222190Y-117126666D01*
X76222190Y-116745714D01*
X76698380Y-118269523D02*
X76698380Y-117698095D01*
X76698380Y-117983809D02*
X75698380Y-117983809D01*
X75841238Y-117888571D01*
X75936476Y-117793333D01*
X75984095Y-117698095D01*
X75793619Y-118650476D02*
X75746000Y-118698095D01*
X75698380Y-118793333D01*
X75698380Y-119031428D01*
X75746000Y-119126666D01*
X75793619Y-119174285D01*
X75888857Y-119221904D01*
X75984095Y-119221904D01*
X76126952Y-119174285D01*
X76698380Y-118602857D01*
X76698380Y-119221904D01*
G04 #@! TO.C,R13*
X75552380Y-117267142D02*
X75076190Y-116933809D01*
X75552380Y-116695714D02*
X74552380Y-116695714D01*
X74552380Y-117076666D01*
X74600000Y-117171904D01*
X74647619Y-117219523D01*
X74742857Y-117267142D01*
X74885714Y-117267142D01*
X74980952Y-117219523D01*
X75028571Y-117171904D01*
X75076190Y-117076666D01*
X75076190Y-116695714D01*
X75552380Y-118219523D02*
X75552380Y-117648095D01*
X75552380Y-117933809D02*
X74552380Y-117933809D01*
X74695238Y-117838571D01*
X74790476Y-117743333D01*
X74838095Y-117648095D01*
X74552380Y-118552857D02*
X74552380Y-119171904D01*
X74933333Y-118838571D01*
X74933333Y-118981428D01*
X74980952Y-119076666D01*
X75028571Y-119124285D01*
X75123809Y-119171904D01*
X75361904Y-119171904D01*
X75457142Y-119124285D01*
X75504761Y-119076666D01*
X75552380Y-118981428D01*
X75552380Y-118695714D01*
X75504761Y-118600476D01*
X75457142Y-118552857D01*
G04 #@! TO.C,R14*
X74322380Y-117307142D02*
X73846190Y-116973809D01*
X74322380Y-116735714D02*
X73322380Y-116735714D01*
X73322380Y-117116666D01*
X73370000Y-117211904D01*
X73417619Y-117259523D01*
X73512857Y-117307142D01*
X73655714Y-117307142D01*
X73750952Y-117259523D01*
X73798571Y-117211904D01*
X73846190Y-117116666D01*
X73846190Y-116735714D01*
X74322380Y-118259523D02*
X74322380Y-117688095D01*
X74322380Y-117973809D02*
X73322380Y-117973809D01*
X73465238Y-117878571D01*
X73560476Y-117783333D01*
X73608095Y-117688095D01*
X73655714Y-119116666D02*
X74322380Y-119116666D01*
X73274761Y-118878571D02*
X73989047Y-118640476D01*
X73989047Y-119259523D01*
G04 #@! TO.C,R15*
X72962380Y-117317142D02*
X72486190Y-116983809D01*
X72962380Y-116745714D02*
X71962380Y-116745714D01*
X71962380Y-117126666D01*
X72010000Y-117221904D01*
X72057619Y-117269523D01*
X72152857Y-117317142D01*
X72295714Y-117317142D01*
X72390952Y-117269523D01*
X72438571Y-117221904D01*
X72486190Y-117126666D01*
X72486190Y-116745714D01*
X72962380Y-118269523D02*
X72962380Y-117698095D01*
X72962380Y-117983809D02*
X71962380Y-117983809D01*
X72105238Y-117888571D01*
X72200476Y-117793333D01*
X72248095Y-117698095D01*
X71962380Y-119174285D02*
X71962380Y-118698095D01*
X72438571Y-118650476D01*
X72390952Y-118698095D01*
X72343333Y-118793333D01*
X72343333Y-119031428D01*
X72390952Y-119126666D01*
X72438571Y-119174285D01*
X72533809Y-119221904D01*
X72771904Y-119221904D01*
X72867142Y-119174285D01*
X72914761Y-119126666D01*
X72962380Y-119031428D01*
X72962380Y-118793333D01*
X72914761Y-118698095D01*
X72867142Y-118650476D01*
G04 #@! TD*
M02*
