M48
;DRILL file {KiCad (5.0.2)-1} date 6/14/2019 5:16:27 PM
;FORMAT={3:3/ absolute / metric / suppress leading zeros}
FMAT,2
METRIC,TZ
T1C0.400
T2C0.900
T3C1.016
T4C1.400
T5C1.600
T6C3.048
T7C3.300
%
G90
G05
T1
X54816Y-123715
X57370Y-98240
X58750Y-123070
X60340Y-121180
X61280Y-128080
X63330Y-130770
X63980Y-118240
X64450Y-134070
X65450Y-118240
X65960Y-125500
X69970Y-134880
X70000Y-123550
X70580Y-139670
X72130Y-135090
X73530Y-122800
X73720Y-135790
X74110Y-134740
X74150Y-116060
X74430Y-122610
X75010Y-130570
X75240Y-129790
X75380Y-135180
X75470Y-122590
X75920Y-139740
X76460Y-122970
X76760Y-135140
X77260Y-123370
X77670Y-125120
X79460Y-130260
X84210Y-135150
X85500Y-125000
X85500Y-126000
X85500Y-127000
X85500Y-128000
X91910Y-136670
X96740Y-137770
X97920Y-106890
X109980Y-112750
X116230Y-122760
X119130Y-123000
X120830Y-107650
X125800Y-124300
X132250Y-139750
X135500Y-125975
X137175Y-105800
X139425Y-115950
X139675Y-126375
X142040Y-140110
X142080Y-135870
X142094Y-137216
X142100Y-138570
T2
X51360Y-104605
X51361Y-114714
X52880Y-117255
X52881Y-107144
X62609Y-106484
X62609Y-109024
X62609Y-111564
X62609Y-114104
X65149Y-107754
X65149Y-110294
X65149Y-112834
X65149Y-115374
T3
X78068Y-147376
X80608Y-147376
X83148Y-147376
X85688Y-147376
X88228Y-147376
X90768Y-147376
X93308Y-147376
X95848Y-147376
X123788Y-147376
X126328Y-147376
X128868Y-147376
X131408Y-147376
X133948Y-147376
X136488Y-147376
X139028Y-147376
X141568Y-147376
X95848Y-99116
X98388Y-99116
X100928Y-99116
X103468Y-99116
X106008Y-99116
X108548Y-99116
X111088Y-99116
X113628Y-99116
X144108Y-99116
X144108Y-101656
X144108Y-104196
X144108Y-106736
X144108Y-109276
X144108Y-111816
X144108Y-114356
X144108Y-116896
X144108Y-119436
X144108Y-121976
X144108Y-124516
X144108Y-127056
X144108Y-129596
X144108Y-132136
X144108Y-134676
X144108Y-137216
X144108Y-139756
X144108Y-142296
X146648Y-99116
X146648Y-101656
X146648Y-104196
X146648Y-106736
X146648Y-109276
X146648Y-111816
X146648Y-114356
X146648Y-116896
X146648Y-119436
X146648Y-121976
X146648Y-124516
X146648Y-127056
X146648Y-129596
X146648Y-132136
X146648Y-134676
X146648Y-137216
X146648Y-139756
X146648Y-142296
X100928Y-147376
X103468Y-147376
X106008Y-147376
X108548Y-147376
X111088Y-147376
X113628Y-147376
X116168Y-147376
X118708Y-147376
X68924Y-99116
X71464Y-99116
X74004Y-99116
X76544Y-99116
X79084Y-99116
X81624Y-99116
X84164Y-99116
X86704Y-99116
X89244Y-99116
X91784Y-99116
X118708Y-99116
X121248Y-99116
X123788Y-99116
X126328Y-99116
X128868Y-99116
X131408Y-99116
X133948Y-99116
X136488Y-99116
T4
X88000Y-112750
X93500Y-112750
X84120Y-105580
X89620Y-105580
X102750Y-133250
X107750Y-133250
X112750Y-133250
X117750Y-133250
X122750Y-133250
X127750Y-133250
X132750Y-133250
X137750Y-133250
X93250Y-119750
X98750Y-119750
T5
X59309Y-103054
X59309Y-118804
T6
X146648Y-147376
X116168Y-114356
X116168Y-142296
X65368Y-99116
X140298Y-99116
X64098Y-147376
T7
X56259Y-105214
X56259Y-116644
T0
M30
