G04 #@! TF.GenerationSoftware,KiCad,Pcbnew,(5.0.0)*
G04 #@! TF.CreationDate,2018-10-14T16:12:39-02:30*
G04 #@! TF.ProjectId,node,6E6F64652E6B696361645F7063620000,rev?*
G04 #@! TF.SameCoordinates,Original*
G04 #@! TF.FileFunction,Legend,Bot*
G04 #@! TF.FilePolarity,Positive*
%FSLAX46Y46*%
G04 Gerber Fmt 4.6, Leading zero omitted, Abs format (unit mm)*
G04 Created by KiCad (PCBNEW (5.0.0)) date 10/14/18 16:12:39*
%MOMM*%
%LPD*%
G01*
G04 APERTURE LIST*
%ADD10C,0.120000*%
%ADD11C,0.150000*%
G04 APERTURE END LIST*
D10*
G04 #@! TO.C,R1008*
X84300000Y-30180000D02*
X85500000Y-30180000D01*
X85500000Y-28420000D02*
X84300000Y-28420000D01*
G04 #@! TO.C,R1007*
X84300000Y-18880000D02*
X85500000Y-18880000D01*
X85500000Y-17120000D02*
X84300000Y-17120000D01*
G04 #@! TO.C,R1012*
X100200000Y-28580000D02*
X101400000Y-28580000D01*
X101400000Y-26820000D02*
X100200000Y-26820000D01*
G04 #@! TO.C,R1011*
X100200000Y-20480000D02*
X101400000Y-20480000D01*
X101400000Y-18720000D02*
X100200000Y-18720000D01*
G04 #@! TO.C,C1804*
X57920000Y-39840000D02*
X57920000Y-38840000D01*
X59620000Y-38840000D02*
X59620000Y-39840000D01*
G04 #@! TO.C,C1711*
X57920000Y-33240000D02*
X57920000Y-32240000D01*
X59620000Y-32240000D02*
X59620000Y-33240000D01*
G04 #@! TO.C,C1604*
X57920000Y-26640000D02*
X57920000Y-25640000D01*
X59620000Y-25640000D02*
X59620000Y-26640000D01*
G04 #@! TO.C,C1521*
X57920000Y-20040000D02*
X57920000Y-19040000D01*
X59620000Y-19040000D02*
X59620000Y-20040000D01*
G04 #@! TO.C,C1803*
X63970000Y-38890000D02*
X64970000Y-38890000D01*
X64970000Y-40590000D02*
X63970000Y-40590000D01*
G04 #@! TO.C,C1710*
X63970000Y-32290000D02*
X64970000Y-32290000D01*
X64970000Y-33990000D02*
X63970000Y-33990000D01*
G04 #@! TO.C,C1603*
X63970000Y-25690000D02*
X64970000Y-25690000D01*
X64970000Y-27390000D02*
X63970000Y-27390000D01*
G04 #@! TO.C,C1520*
X63970000Y-19090000D02*
X64970000Y-19090000D01*
X64970000Y-20790000D02*
X63970000Y-20790000D01*
G04 #@! TO.C,C1801*
X64970000Y-38650000D02*
X63970000Y-38650000D01*
X63970000Y-36950000D02*
X64970000Y-36950000D01*
G04 #@! TO.C,C1708*
X64970000Y-32050000D02*
X63970000Y-32050000D01*
X63970000Y-30350000D02*
X64970000Y-30350000D01*
G04 #@! TO.C,C1601*
X64970000Y-25450000D02*
X63970000Y-25450000D01*
X63970000Y-23750000D02*
X64970000Y-23750000D01*
G04 #@! TO.C,C1518*
X64970000Y-18850000D02*
X63970000Y-18850000D01*
X63970000Y-17150000D02*
X64970000Y-17150000D01*
G04 #@! TO.C,R1802*
X70090000Y-36920000D02*
X68890000Y-36920000D01*
X68890000Y-38680000D02*
X70090000Y-38680000D01*
G04 #@! TO.C,R1704*
X70090000Y-30320000D02*
X68890000Y-30320000D01*
X68890000Y-32080000D02*
X70090000Y-32080000D01*
G04 #@! TO.C,R1602*
X70090000Y-23720000D02*
X68890000Y-23720000D01*
X68890000Y-25480000D02*
X70090000Y-25480000D01*
G04 #@! TO.C,R1511*
X70090000Y-17120000D02*
X68890000Y-17120000D01*
X68890000Y-18880000D02*
X70090000Y-18880000D01*
G04 #@! TO.C,R1801*
X73740000Y-38680000D02*
X74940000Y-38680000D01*
X74940000Y-36920000D02*
X73740000Y-36920000D01*
G04 #@! TO.C,R1703*
X73740000Y-32080000D02*
X74940000Y-32080000D01*
X74940000Y-30320000D02*
X73740000Y-30320000D01*
G04 #@! TO.C,R1601*
X73740000Y-25480000D02*
X74940000Y-25480000D01*
X74940000Y-23720000D02*
X73740000Y-23720000D01*
G04 #@! TO.C,R1510*
X73740000Y-18880000D02*
X74940000Y-18880000D01*
X74940000Y-17120000D02*
X73740000Y-17120000D01*
G04 #@! TO.C,R1803*
X70090000Y-41620000D02*
X68890000Y-41620000D01*
X68890000Y-43380000D02*
X70090000Y-43380000D01*
G04 #@! TO.C,R1705*
X70090000Y-35020000D02*
X68890000Y-35020000D01*
X68890000Y-36780000D02*
X70090000Y-36780000D01*
G04 #@! TO.C,R1603*
X70090000Y-28420000D02*
X68890000Y-28420000D01*
X68890000Y-30180000D02*
X70090000Y-30180000D01*
G04 #@! TO.C,R1512*
X70090000Y-21820000D02*
X68890000Y-21820000D01*
X68890000Y-23580000D02*
X70090000Y-23580000D01*
G04 #@! TO.C,R1403*
X70090000Y-15220000D02*
X68890000Y-15220000D01*
X68890000Y-16980000D02*
X70090000Y-16980000D01*
G04 #@! TO.C,C1401*
X64970000Y-12250000D02*
X63970000Y-12250000D01*
X63970000Y-10550000D02*
X64970000Y-10550000D01*
G04 #@! TO.C,C1403*
X63970000Y-12490000D02*
X64970000Y-12490000D01*
X64970000Y-14190000D02*
X63970000Y-14190000D01*
G04 #@! TO.C,C1404*
X57920000Y-13440000D02*
X57920000Y-12440000D01*
X59620000Y-12440000D02*
X59620000Y-13440000D01*
G04 #@! TO.C,R1401*
X73740000Y-12280000D02*
X74940000Y-12280000D01*
X74940000Y-10520000D02*
X73740000Y-10520000D01*
G04 #@! TO.C,R1402*
X70090000Y-10520000D02*
X68890000Y-10520000D01*
X68890000Y-12280000D02*
X70090000Y-12280000D01*
G04 #@! TO.C,C402*
X37350000Y-19250000D02*
X38350000Y-19250000D01*
X38350000Y-20950000D02*
X37350000Y-20950000D01*
G04 #@! TO.C,C403*
X37350000Y-25100000D02*
X38350000Y-25100000D01*
X38350000Y-26800000D02*
X37350000Y-26800000D01*
G04 #@! TO.C,C404*
X37350000Y-23150000D02*
X38350000Y-23150000D01*
X38350000Y-24850000D02*
X37350000Y-24850000D01*
G04 #@! TO.C,C405*
X40475000Y-41225000D02*
X39475000Y-41225000D01*
X39475000Y-39525000D02*
X40475000Y-39525000D01*
G04 #@! TO.C,C406*
X46452776Y-42457268D02*
X46452776Y-43457268D01*
X44752776Y-43457268D02*
X44752776Y-42457268D01*
G04 #@! TO.C,C407*
X48352776Y-42457268D02*
X48352776Y-43457268D01*
X46652776Y-43457268D02*
X46652776Y-42457268D01*
G04 #@! TO.C,C501*
X13368580Y-111775060D02*
X14368580Y-111775060D01*
X14368580Y-113475060D02*
X13368580Y-113475060D01*
G04 #@! TO.C,C502*
X13368580Y-109875060D02*
X14368580Y-109875060D01*
X14368580Y-111575060D02*
X13368580Y-111575060D01*
G04 #@! TO.C,C505*
X12000000Y-122800000D02*
X13000000Y-122800000D01*
X13000000Y-124500000D02*
X12000000Y-124500000D01*
G04 #@! TO.C,C1305*
X64970000Y-5650000D02*
X63970000Y-5650000D01*
X63970000Y-3950000D02*
X64970000Y-3950000D01*
G04 #@! TO.C,C1307*
X63970000Y-5890000D02*
X64970000Y-5890000D01*
X64970000Y-7590000D02*
X63970000Y-7590000D01*
G04 #@! TO.C,C1308*
X57920000Y-6840000D02*
X57920000Y-5840000D01*
X59620000Y-5840000D02*
X59620000Y-6840000D01*
G04 #@! TO.C,C1702*
X120300000Y-93300000D02*
X119300000Y-93300000D01*
X119300000Y-91600000D02*
X120300000Y-91600000D01*
G04 #@! TO.C,R402*
X37250000Y-22930000D02*
X38450000Y-22930000D01*
X38450000Y-21170000D02*
X37250000Y-21170000D01*
G04 #@! TO.C,R403*
X37250000Y-17555000D02*
X38450000Y-17555000D01*
X38450000Y-15795000D02*
X37250000Y-15795000D01*
G04 #@! TO.C,R404*
X40495000Y-24525000D02*
X40495000Y-25725000D01*
X42255000Y-25725000D02*
X42255000Y-24525000D01*
G04 #@! TO.C,R502*
X6090360Y-115728640D02*
X7290360Y-115728640D01*
X7290360Y-113968640D02*
X6090360Y-113968640D01*
G04 #@! TO.C,R604*
X75473000Y-86097000D02*
X76673000Y-86097000D01*
X76673000Y-84337000D02*
X75473000Y-84337000D01*
G04 #@! TO.C,R1009*
X100200000Y-7280000D02*
X101400000Y-7280000D01*
X101400000Y-5520000D02*
X100200000Y-5520000D01*
G04 #@! TO.C,R1010*
X100200000Y-15380000D02*
X101400000Y-15380000D01*
X101400000Y-13620000D02*
X100200000Y-13620000D01*
G04 #@! TO.C,R1305*
X73740000Y-5680000D02*
X74940000Y-5680000D01*
X74940000Y-3920000D02*
X73740000Y-3920000D01*
G04 #@! TO.C,R1306*
X70090000Y-3920000D02*
X68890000Y-3920000D01*
X68890000Y-5680000D02*
X70090000Y-5680000D01*
G04 #@! TO.C,R1307*
X70090000Y-8620000D02*
X68890000Y-8620000D01*
X68890000Y-10380000D02*
X70090000Y-10380000D01*
G04 #@! TO.C,R1502*
X18700000Y-62770000D02*
X17500000Y-62770000D01*
X17500000Y-64530000D02*
X18700000Y-64530000D01*
G04 #@! TO.C,R1506*
X80553000Y-123562000D02*
X81753000Y-123562000D01*
X81753000Y-121802000D02*
X80553000Y-121802000D01*
G04 #@! TO.C,R1507*
X17320000Y-35950000D02*
X17320000Y-34750000D01*
X15560000Y-34750000D02*
X15560000Y-35950000D01*
G04 #@! TO.C,R1508*
X12670000Y-30330000D02*
X12670000Y-29130000D01*
X10910000Y-29130000D02*
X10910000Y-30330000D01*
G04 #@! TO.C,R1702*
X120400000Y-94520000D02*
X119200000Y-94520000D01*
X119200000Y-96280000D02*
X120400000Y-96280000D01*
G04 #@! TO.C,R1005*
X84300000Y-5680000D02*
X85500000Y-5680000D01*
X85500000Y-3920000D02*
X84300000Y-3920000D01*
G04 #@! TO.C,R1006*
X84300000Y-16980000D02*
X85500000Y-16980000D01*
X85500000Y-15220000D02*
X84300000Y-15220000D01*
G04 #@! TO.C,R2003*
X89544000Y-101508000D02*
X89544000Y-102708000D01*
X91304000Y-102708000D02*
X91304000Y-101508000D01*
G04 #@! TO.C,R2004*
X87258000Y-101635000D02*
X87258000Y-102835000D01*
X89018000Y-102835000D02*
X89018000Y-101635000D01*
D11*
G04 #@! TO.C,P2101*
X98043140Y-119758880D02*
X98043140Y-133855880D01*
X113029140Y-133855880D02*
X113029140Y-119758880D01*
X98043140Y-119758880D02*
X113029140Y-119758880D01*
X98043140Y-133855880D02*
X113029140Y-133855880D01*
G04 #@! TO.C,U1505*
X11743080Y-35741080D02*
G75*
G03X11743080Y-35741080I-100000J0D01*
G01*
X12193080Y-35491080D02*
X11693080Y-35491080D01*
X12193080Y-32591080D02*
X12193080Y-35491080D01*
X11693080Y-32591080D02*
X12193080Y-32591080D01*
X11693080Y-35491080D02*
X11693080Y-32591080D01*
G04 #@! TO.C,U1506*
X15299080Y-41329080D02*
G75*
G03X15299080Y-41329080I-100000J0D01*
G01*
X15749080Y-41079080D02*
X15249080Y-41079080D01*
X15749080Y-38179080D02*
X15749080Y-41079080D01*
X15249080Y-38179080D02*
X15749080Y-38179080D01*
X15249080Y-41079080D02*
X15249080Y-38179080D01*
D10*
G04 #@! TO.C,R2329*
X71033080Y-108073080D02*
X72233080Y-108073080D01*
X72233080Y-106313080D02*
X71033080Y-106313080D01*
G04 #@! TO.C,R2330*
X71033080Y-110105080D02*
X72233080Y-110105080D01*
X72233080Y-108345080D02*
X71033080Y-108345080D01*
G04 #@! TO.C,R2331*
X71033080Y-114169080D02*
X72233080Y-114169080D01*
X72233080Y-112409080D02*
X71033080Y-112409080D01*
G04 #@! TO.C,R2332*
X71033080Y-112137080D02*
X72233080Y-112137080D01*
X72233080Y-110377080D02*
X71033080Y-110377080D01*
G04 #@! TO.C,R1008*
D11*
X91576190Y-29661904D02*
X91842857Y-29280952D01*
X92033333Y-29661904D02*
X92033333Y-28861904D01*
X91728571Y-28861904D01*
X91652380Y-28900000D01*
X91614285Y-28938095D01*
X91576190Y-29014285D01*
X91576190Y-29128571D01*
X91614285Y-29204761D01*
X91652380Y-29242857D01*
X91728571Y-29280952D01*
X92033333Y-29280952D01*
X90814285Y-29661904D02*
X91271428Y-29661904D01*
X91042857Y-29661904D02*
X91042857Y-28861904D01*
X91119047Y-28976190D01*
X91195238Y-29052380D01*
X91271428Y-29090476D01*
X90319047Y-28861904D02*
X90242857Y-28861904D01*
X90166666Y-28900000D01*
X90128571Y-28938095D01*
X90090476Y-29014285D01*
X90052380Y-29166666D01*
X90052380Y-29357142D01*
X90090476Y-29509523D01*
X90128571Y-29585714D01*
X90166666Y-29623809D01*
X90242857Y-29661904D01*
X90319047Y-29661904D01*
X90395238Y-29623809D01*
X90433333Y-29585714D01*
X90471428Y-29509523D01*
X90509523Y-29357142D01*
X90509523Y-29166666D01*
X90471428Y-29014285D01*
X90433333Y-28938095D01*
X90395238Y-28900000D01*
X90319047Y-28861904D01*
X89557142Y-28861904D02*
X89480952Y-28861904D01*
X89404761Y-28900000D01*
X89366666Y-28938095D01*
X89328571Y-29014285D01*
X89290476Y-29166666D01*
X89290476Y-29357142D01*
X89328571Y-29509523D01*
X89366666Y-29585714D01*
X89404761Y-29623809D01*
X89480952Y-29661904D01*
X89557142Y-29661904D01*
X89633333Y-29623809D01*
X89671428Y-29585714D01*
X89709523Y-29509523D01*
X89747619Y-29357142D01*
X89747619Y-29166666D01*
X89709523Y-29014285D01*
X89671428Y-28938095D01*
X89633333Y-28900000D01*
X89557142Y-28861904D01*
X88833333Y-29204761D02*
X88909523Y-29166666D01*
X88947619Y-29128571D01*
X88985714Y-29052380D01*
X88985714Y-29014285D01*
X88947619Y-28938095D01*
X88909523Y-28900000D01*
X88833333Y-28861904D01*
X88680952Y-28861904D01*
X88604761Y-28900000D01*
X88566666Y-28938095D01*
X88528571Y-29014285D01*
X88528571Y-29052380D01*
X88566666Y-29128571D01*
X88604761Y-29166666D01*
X88680952Y-29204761D01*
X88833333Y-29204761D01*
X88909523Y-29242857D01*
X88947619Y-29280952D01*
X88985714Y-29357142D01*
X88985714Y-29509523D01*
X88947619Y-29585714D01*
X88909523Y-29623809D01*
X88833333Y-29661904D01*
X88680952Y-29661904D01*
X88604761Y-29623809D01*
X88566666Y-29585714D01*
X88528571Y-29509523D01*
X88528571Y-29357142D01*
X88566666Y-29280952D01*
X88604761Y-29242857D01*
X88680952Y-29204761D01*
G04 #@! TO.C,R1007*
X91276190Y-18361904D02*
X91542857Y-17980952D01*
X91733333Y-18361904D02*
X91733333Y-17561904D01*
X91428571Y-17561904D01*
X91352380Y-17600000D01*
X91314285Y-17638095D01*
X91276190Y-17714285D01*
X91276190Y-17828571D01*
X91314285Y-17904761D01*
X91352380Y-17942857D01*
X91428571Y-17980952D01*
X91733333Y-17980952D01*
X90514285Y-18361904D02*
X90971428Y-18361904D01*
X90742857Y-18361904D02*
X90742857Y-17561904D01*
X90819047Y-17676190D01*
X90895238Y-17752380D01*
X90971428Y-17790476D01*
X90019047Y-17561904D02*
X89942857Y-17561904D01*
X89866666Y-17600000D01*
X89828571Y-17638095D01*
X89790476Y-17714285D01*
X89752380Y-17866666D01*
X89752380Y-18057142D01*
X89790476Y-18209523D01*
X89828571Y-18285714D01*
X89866666Y-18323809D01*
X89942857Y-18361904D01*
X90019047Y-18361904D01*
X90095238Y-18323809D01*
X90133333Y-18285714D01*
X90171428Y-18209523D01*
X90209523Y-18057142D01*
X90209523Y-17866666D01*
X90171428Y-17714285D01*
X90133333Y-17638095D01*
X90095238Y-17600000D01*
X90019047Y-17561904D01*
X89257142Y-17561904D02*
X89180952Y-17561904D01*
X89104761Y-17600000D01*
X89066666Y-17638095D01*
X89028571Y-17714285D01*
X88990476Y-17866666D01*
X88990476Y-18057142D01*
X89028571Y-18209523D01*
X89066666Y-18285714D01*
X89104761Y-18323809D01*
X89180952Y-18361904D01*
X89257142Y-18361904D01*
X89333333Y-18323809D01*
X89371428Y-18285714D01*
X89409523Y-18209523D01*
X89447619Y-18057142D01*
X89447619Y-17866666D01*
X89409523Y-17714285D01*
X89371428Y-17638095D01*
X89333333Y-17600000D01*
X89257142Y-17561904D01*
X88723809Y-17561904D02*
X88190476Y-17561904D01*
X88533333Y-18361904D01*
G04 #@! TO.C,R1012*
X106976190Y-28061904D02*
X107242857Y-27680952D01*
X107433333Y-28061904D02*
X107433333Y-27261904D01*
X107128571Y-27261904D01*
X107052380Y-27300000D01*
X107014285Y-27338095D01*
X106976190Y-27414285D01*
X106976190Y-27528571D01*
X107014285Y-27604761D01*
X107052380Y-27642857D01*
X107128571Y-27680952D01*
X107433333Y-27680952D01*
X106214285Y-28061904D02*
X106671428Y-28061904D01*
X106442857Y-28061904D02*
X106442857Y-27261904D01*
X106519047Y-27376190D01*
X106595238Y-27452380D01*
X106671428Y-27490476D01*
X105719047Y-27261904D02*
X105642857Y-27261904D01*
X105566666Y-27300000D01*
X105528571Y-27338095D01*
X105490476Y-27414285D01*
X105452380Y-27566666D01*
X105452380Y-27757142D01*
X105490476Y-27909523D01*
X105528571Y-27985714D01*
X105566666Y-28023809D01*
X105642857Y-28061904D01*
X105719047Y-28061904D01*
X105795238Y-28023809D01*
X105833333Y-27985714D01*
X105871428Y-27909523D01*
X105909523Y-27757142D01*
X105909523Y-27566666D01*
X105871428Y-27414285D01*
X105833333Y-27338095D01*
X105795238Y-27300000D01*
X105719047Y-27261904D01*
X104690476Y-28061904D02*
X105147619Y-28061904D01*
X104919047Y-28061904D02*
X104919047Y-27261904D01*
X104995238Y-27376190D01*
X105071428Y-27452380D01*
X105147619Y-27490476D01*
X104385714Y-27338095D02*
X104347619Y-27300000D01*
X104271428Y-27261904D01*
X104080952Y-27261904D01*
X104004761Y-27300000D01*
X103966666Y-27338095D01*
X103928571Y-27414285D01*
X103928571Y-27490476D01*
X103966666Y-27604761D01*
X104423809Y-28061904D01*
X103928571Y-28061904D01*
G04 #@! TO.C,R1011*
X106976190Y-19961904D02*
X107242857Y-19580952D01*
X107433333Y-19961904D02*
X107433333Y-19161904D01*
X107128571Y-19161904D01*
X107052380Y-19200000D01*
X107014285Y-19238095D01*
X106976190Y-19314285D01*
X106976190Y-19428571D01*
X107014285Y-19504761D01*
X107052380Y-19542857D01*
X107128571Y-19580952D01*
X107433333Y-19580952D01*
X106214285Y-19961904D02*
X106671428Y-19961904D01*
X106442857Y-19961904D02*
X106442857Y-19161904D01*
X106519047Y-19276190D01*
X106595238Y-19352380D01*
X106671428Y-19390476D01*
X105719047Y-19161904D02*
X105642857Y-19161904D01*
X105566666Y-19200000D01*
X105528571Y-19238095D01*
X105490476Y-19314285D01*
X105452380Y-19466666D01*
X105452380Y-19657142D01*
X105490476Y-19809523D01*
X105528571Y-19885714D01*
X105566666Y-19923809D01*
X105642857Y-19961904D01*
X105719047Y-19961904D01*
X105795238Y-19923809D01*
X105833333Y-19885714D01*
X105871428Y-19809523D01*
X105909523Y-19657142D01*
X105909523Y-19466666D01*
X105871428Y-19314285D01*
X105833333Y-19238095D01*
X105795238Y-19200000D01*
X105719047Y-19161904D01*
X104690476Y-19961904D02*
X105147619Y-19961904D01*
X104919047Y-19961904D02*
X104919047Y-19161904D01*
X104995238Y-19276190D01*
X105071428Y-19352380D01*
X105147619Y-19390476D01*
X103928571Y-19961904D02*
X104385714Y-19961904D01*
X104157142Y-19961904D02*
X104157142Y-19161904D01*
X104233333Y-19276190D01*
X104309523Y-19352380D01*
X104385714Y-19390476D01*
G04 #@! TO.C,C1804*
X57325714Y-38003809D02*
X57363809Y-37965714D01*
X57401904Y-37851428D01*
X57401904Y-37775238D01*
X57363809Y-37660952D01*
X57287619Y-37584761D01*
X57211428Y-37546666D01*
X57059047Y-37508571D01*
X56944761Y-37508571D01*
X56792380Y-37546666D01*
X56716190Y-37584761D01*
X56640000Y-37660952D01*
X56601904Y-37775238D01*
X56601904Y-37851428D01*
X56640000Y-37965714D01*
X56678095Y-38003809D01*
X57401904Y-38765714D02*
X57401904Y-38308571D01*
X57401904Y-38537142D02*
X56601904Y-38537142D01*
X56716190Y-38460952D01*
X56792380Y-38384761D01*
X56830476Y-38308571D01*
X56944761Y-39222857D02*
X56906666Y-39146666D01*
X56868571Y-39108571D01*
X56792380Y-39070476D01*
X56754285Y-39070476D01*
X56678095Y-39108571D01*
X56640000Y-39146666D01*
X56601904Y-39222857D01*
X56601904Y-39375238D01*
X56640000Y-39451428D01*
X56678095Y-39489523D01*
X56754285Y-39527619D01*
X56792380Y-39527619D01*
X56868571Y-39489523D01*
X56906666Y-39451428D01*
X56944761Y-39375238D01*
X56944761Y-39222857D01*
X56982857Y-39146666D01*
X57020952Y-39108571D01*
X57097142Y-39070476D01*
X57249523Y-39070476D01*
X57325714Y-39108571D01*
X57363809Y-39146666D01*
X57401904Y-39222857D01*
X57401904Y-39375238D01*
X57363809Y-39451428D01*
X57325714Y-39489523D01*
X57249523Y-39527619D01*
X57097142Y-39527619D01*
X57020952Y-39489523D01*
X56982857Y-39451428D01*
X56944761Y-39375238D01*
X56601904Y-40022857D02*
X56601904Y-40099047D01*
X56640000Y-40175238D01*
X56678095Y-40213333D01*
X56754285Y-40251428D01*
X56906666Y-40289523D01*
X57097142Y-40289523D01*
X57249523Y-40251428D01*
X57325714Y-40213333D01*
X57363809Y-40175238D01*
X57401904Y-40099047D01*
X57401904Y-40022857D01*
X57363809Y-39946666D01*
X57325714Y-39908571D01*
X57249523Y-39870476D01*
X57097142Y-39832380D01*
X56906666Y-39832380D01*
X56754285Y-39870476D01*
X56678095Y-39908571D01*
X56640000Y-39946666D01*
X56601904Y-40022857D01*
X56868571Y-40975238D02*
X57401904Y-40975238D01*
X56563809Y-40784761D02*
X57135238Y-40594285D01*
X57135238Y-41089523D01*
G04 #@! TO.C,C1711*
X57245714Y-31433809D02*
X57283809Y-31395714D01*
X57321904Y-31281428D01*
X57321904Y-31205238D01*
X57283809Y-31090952D01*
X57207619Y-31014761D01*
X57131428Y-30976666D01*
X56979047Y-30938571D01*
X56864761Y-30938571D01*
X56712380Y-30976666D01*
X56636190Y-31014761D01*
X56560000Y-31090952D01*
X56521904Y-31205238D01*
X56521904Y-31281428D01*
X56560000Y-31395714D01*
X56598095Y-31433809D01*
X57321904Y-32195714D02*
X57321904Y-31738571D01*
X57321904Y-31967142D02*
X56521904Y-31967142D01*
X56636190Y-31890952D01*
X56712380Y-31814761D01*
X56750476Y-31738571D01*
X56521904Y-32462380D02*
X56521904Y-32995714D01*
X57321904Y-32652857D01*
X57321904Y-33719523D02*
X57321904Y-33262380D01*
X57321904Y-33490952D02*
X56521904Y-33490952D01*
X56636190Y-33414761D01*
X56712380Y-33338571D01*
X56750476Y-33262380D01*
X57321904Y-34481428D02*
X57321904Y-34024285D01*
X57321904Y-34252857D02*
X56521904Y-34252857D01*
X56636190Y-34176666D01*
X56712380Y-34100476D01*
X56750476Y-34024285D01*
G04 #@! TO.C,C1604*
X57285714Y-24863809D02*
X57323809Y-24825714D01*
X57361904Y-24711428D01*
X57361904Y-24635238D01*
X57323809Y-24520952D01*
X57247619Y-24444761D01*
X57171428Y-24406666D01*
X57019047Y-24368571D01*
X56904761Y-24368571D01*
X56752380Y-24406666D01*
X56676190Y-24444761D01*
X56600000Y-24520952D01*
X56561904Y-24635238D01*
X56561904Y-24711428D01*
X56600000Y-24825714D01*
X56638095Y-24863809D01*
X57361904Y-25625714D02*
X57361904Y-25168571D01*
X57361904Y-25397142D02*
X56561904Y-25397142D01*
X56676190Y-25320952D01*
X56752380Y-25244761D01*
X56790476Y-25168571D01*
X56561904Y-26311428D02*
X56561904Y-26159047D01*
X56600000Y-26082857D01*
X56638095Y-26044761D01*
X56752380Y-25968571D01*
X56904761Y-25930476D01*
X57209523Y-25930476D01*
X57285714Y-25968571D01*
X57323809Y-26006666D01*
X57361904Y-26082857D01*
X57361904Y-26235238D01*
X57323809Y-26311428D01*
X57285714Y-26349523D01*
X57209523Y-26387619D01*
X57019047Y-26387619D01*
X56942857Y-26349523D01*
X56904761Y-26311428D01*
X56866666Y-26235238D01*
X56866666Y-26082857D01*
X56904761Y-26006666D01*
X56942857Y-25968571D01*
X57019047Y-25930476D01*
X56561904Y-26882857D02*
X56561904Y-26959047D01*
X56600000Y-27035238D01*
X56638095Y-27073333D01*
X56714285Y-27111428D01*
X56866666Y-27149523D01*
X57057142Y-27149523D01*
X57209523Y-27111428D01*
X57285714Y-27073333D01*
X57323809Y-27035238D01*
X57361904Y-26959047D01*
X57361904Y-26882857D01*
X57323809Y-26806666D01*
X57285714Y-26768571D01*
X57209523Y-26730476D01*
X57057142Y-26692380D01*
X56866666Y-26692380D01*
X56714285Y-26730476D01*
X56638095Y-26768571D01*
X56600000Y-26806666D01*
X56561904Y-26882857D01*
X56828571Y-27835238D02*
X57361904Y-27835238D01*
X56523809Y-27644761D02*
X57095238Y-27454285D01*
X57095238Y-27949523D01*
G04 #@! TO.C,C1521*
X57325714Y-18253809D02*
X57363809Y-18215714D01*
X57401904Y-18101428D01*
X57401904Y-18025238D01*
X57363809Y-17910952D01*
X57287619Y-17834761D01*
X57211428Y-17796666D01*
X57059047Y-17758571D01*
X56944761Y-17758571D01*
X56792380Y-17796666D01*
X56716190Y-17834761D01*
X56640000Y-17910952D01*
X56601904Y-18025238D01*
X56601904Y-18101428D01*
X56640000Y-18215714D01*
X56678095Y-18253809D01*
X57401904Y-19015714D02*
X57401904Y-18558571D01*
X57401904Y-18787142D02*
X56601904Y-18787142D01*
X56716190Y-18710952D01*
X56792380Y-18634761D01*
X56830476Y-18558571D01*
X56601904Y-19739523D02*
X56601904Y-19358571D01*
X56982857Y-19320476D01*
X56944761Y-19358571D01*
X56906666Y-19434761D01*
X56906666Y-19625238D01*
X56944761Y-19701428D01*
X56982857Y-19739523D01*
X57059047Y-19777619D01*
X57249523Y-19777619D01*
X57325714Y-19739523D01*
X57363809Y-19701428D01*
X57401904Y-19625238D01*
X57401904Y-19434761D01*
X57363809Y-19358571D01*
X57325714Y-19320476D01*
X56678095Y-20082380D02*
X56640000Y-20120476D01*
X56601904Y-20196666D01*
X56601904Y-20387142D01*
X56640000Y-20463333D01*
X56678095Y-20501428D01*
X56754285Y-20539523D01*
X56830476Y-20539523D01*
X56944761Y-20501428D01*
X57401904Y-20044285D01*
X57401904Y-20539523D01*
X57401904Y-21301428D02*
X57401904Y-20844285D01*
X57401904Y-21072857D02*
X56601904Y-21072857D01*
X56716190Y-20996666D01*
X56792380Y-20920476D01*
X56830476Y-20844285D01*
G04 #@! TO.C,C1803*
X65706190Y-41765714D02*
X65744285Y-41803809D01*
X65858571Y-41841904D01*
X65934761Y-41841904D01*
X66049047Y-41803809D01*
X66125238Y-41727619D01*
X66163333Y-41651428D01*
X66201428Y-41499047D01*
X66201428Y-41384761D01*
X66163333Y-41232380D01*
X66125238Y-41156190D01*
X66049047Y-41080000D01*
X65934761Y-41041904D01*
X65858571Y-41041904D01*
X65744285Y-41080000D01*
X65706190Y-41118095D01*
X64944285Y-41841904D02*
X65401428Y-41841904D01*
X65172857Y-41841904D02*
X65172857Y-41041904D01*
X65249047Y-41156190D01*
X65325238Y-41232380D01*
X65401428Y-41270476D01*
X64487142Y-41384761D02*
X64563333Y-41346666D01*
X64601428Y-41308571D01*
X64639523Y-41232380D01*
X64639523Y-41194285D01*
X64601428Y-41118095D01*
X64563333Y-41080000D01*
X64487142Y-41041904D01*
X64334761Y-41041904D01*
X64258571Y-41080000D01*
X64220476Y-41118095D01*
X64182380Y-41194285D01*
X64182380Y-41232380D01*
X64220476Y-41308571D01*
X64258571Y-41346666D01*
X64334761Y-41384761D01*
X64487142Y-41384761D01*
X64563333Y-41422857D01*
X64601428Y-41460952D01*
X64639523Y-41537142D01*
X64639523Y-41689523D01*
X64601428Y-41765714D01*
X64563333Y-41803809D01*
X64487142Y-41841904D01*
X64334761Y-41841904D01*
X64258571Y-41803809D01*
X64220476Y-41765714D01*
X64182380Y-41689523D01*
X64182380Y-41537142D01*
X64220476Y-41460952D01*
X64258571Y-41422857D01*
X64334761Y-41384761D01*
X63687142Y-41041904D02*
X63610952Y-41041904D01*
X63534761Y-41080000D01*
X63496666Y-41118095D01*
X63458571Y-41194285D01*
X63420476Y-41346666D01*
X63420476Y-41537142D01*
X63458571Y-41689523D01*
X63496666Y-41765714D01*
X63534761Y-41803809D01*
X63610952Y-41841904D01*
X63687142Y-41841904D01*
X63763333Y-41803809D01*
X63801428Y-41765714D01*
X63839523Y-41689523D01*
X63877619Y-41537142D01*
X63877619Y-41346666D01*
X63839523Y-41194285D01*
X63801428Y-41118095D01*
X63763333Y-41080000D01*
X63687142Y-41041904D01*
X63153809Y-41041904D02*
X62658571Y-41041904D01*
X62925238Y-41346666D01*
X62810952Y-41346666D01*
X62734761Y-41384761D01*
X62696666Y-41422857D01*
X62658571Y-41499047D01*
X62658571Y-41689523D01*
X62696666Y-41765714D01*
X62734761Y-41803809D01*
X62810952Y-41841904D01*
X63039523Y-41841904D01*
X63115714Y-41803809D01*
X63153809Y-41765714D01*
G04 #@! TO.C,C1710*
X65706190Y-35165714D02*
X65744285Y-35203809D01*
X65858571Y-35241904D01*
X65934761Y-35241904D01*
X66049047Y-35203809D01*
X66125238Y-35127619D01*
X66163333Y-35051428D01*
X66201428Y-34899047D01*
X66201428Y-34784761D01*
X66163333Y-34632380D01*
X66125238Y-34556190D01*
X66049047Y-34480000D01*
X65934761Y-34441904D01*
X65858571Y-34441904D01*
X65744285Y-34480000D01*
X65706190Y-34518095D01*
X64944285Y-35241904D02*
X65401428Y-35241904D01*
X65172857Y-35241904D02*
X65172857Y-34441904D01*
X65249047Y-34556190D01*
X65325238Y-34632380D01*
X65401428Y-34670476D01*
X64677619Y-34441904D02*
X64144285Y-34441904D01*
X64487142Y-35241904D01*
X63420476Y-35241904D02*
X63877619Y-35241904D01*
X63649047Y-35241904D02*
X63649047Y-34441904D01*
X63725238Y-34556190D01*
X63801428Y-34632380D01*
X63877619Y-34670476D01*
X62925238Y-34441904D02*
X62849047Y-34441904D01*
X62772857Y-34480000D01*
X62734761Y-34518095D01*
X62696666Y-34594285D01*
X62658571Y-34746666D01*
X62658571Y-34937142D01*
X62696666Y-35089523D01*
X62734761Y-35165714D01*
X62772857Y-35203809D01*
X62849047Y-35241904D01*
X62925238Y-35241904D01*
X63001428Y-35203809D01*
X63039523Y-35165714D01*
X63077619Y-35089523D01*
X63115714Y-34937142D01*
X63115714Y-34746666D01*
X63077619Y-34594285D01*
X63039523Y-34518095D01*
X63001428Y-34480000D01*
X62925238Y-34441904D01*
G04 #@! TO.C,C1603*
X65706190Y-28565714D02*
X65744285Y-28603809D01*
X65858571Y-28641904D01*
X65934761Y-28641904D01*
X66049047Y-28603809D01*
X66125238Y-28527619D01*
X66163333Y-28451428D01*
X66201428Y-28299047D01*
X66201428Y-28184761D01*
X66163333Y-28032380D01*
X66125238Y-27956190D01*
X66049047Y-27880000D01*
X65934761Y-27841904D01*
X65858571Y-27841904D01*
X65744285Y-27880000D01*
X65706190Y-27918095D01*
X64944285Y-28641904D02*
X65401428Y-28641904D01*
X65172857Y-28641904D02*
X65172857Y-27841904D01*
X65249047Y-27956190D01*
X65325238Y-28032380D01*
X65401428Y-28070476D01*
X64258571Y-27841904D02*
X64410952Y-27841904D01*
X64487142Y-27880000D01*
X64525238Y-27918095D01*
X64601428Y-28032380D01*
X64639523Y-28184761D01*
X64639523Y-28489523D01*
X64601428Y-28565714D01*
X64563333Y-28603809D01*
X64487142Y-28641904D01*
X64334761Y-28641904D01*
X64258571Y-28603809D01*
X64220476Y-28565714D01*
X64182380Y-28489523D01*
X64182380Y-28299047D01*
X64220476Y-28222857D01*
X64258571Y-28184761D01*
X64334761Y-28146666D01*
X64487142Y-28146666D01*
X64563333Y-28184761D01*
X64601428Y-28222857D01*
X64639523Y-28299047D01*
X63687142Y-27841904D02*
X63610952Y-27841904D01*
X63534761Y-27880000D01*
X63496666Y-27918095D01*
X63458571Y-27994285D01*
X63420476Y-28146666D01*
X63420476Y-28337142D01*
X63458571Y-28489523D01*
X63496666Y-28565714D01*
X63534761Y-28603809D01*
X63610952Y-28641904D01*
X63687142Y-28641904D01*
X63763333Y-28603809D01*
X63801428Y-28565714D01*
X63839523Y-28489523D01*
X63877619Y-28337142D01*
X63877619Y-28146666D01*
X63839523Y-27994285D01*
X63801428Y-27918095D01*
X63763333Y-27880000D01*
X63687142Y-27841904D01*
X63153809Y-27841904D02*
X62658571Y-27841904D01*
X62925238Y-28146666D01*
X62810952Y-28146666D01*
X62734761Y-28184761D01*
X62696666Y-28222857D01*
X62658571Y-28299047D01*
X62658571Y-28489523D01*
X62696666Y-28565714D01*
X62734761Y-28603809D01*
X62810952Y-28641904D01*
X63039523Y-28641904D01*
X63115714Y-28603809D01*
X63153809Y-28565714D01*
G04 #@! TO.C,C1520*
X65706190Y-21965714D02*
X65744285Y-22003809D01*
X65858571Y-22041904D01*
X65934761Y-22041904D01*
X66049047Y-22003809D01*
X66125238Y-21927619D01*
X66163333Y-21851428D01*
X66201428Y-21699047D01*
X66201428Y-21584761D01*
X66163333Y-21432380D01*
X66125238Y-21356190D01*
X66049047Y-21280000D01*
X65934761Y-21241904D01*
X65858571Y-21241904D01*
X65744285Y-21280000D01*
X65706190Y-21318095D01*
X64944285Y-22041904D02*
X65401428Y-22041904D01*
X65172857Y-22041904D02*
X65172857Y-21241904D01*
X65249047Y-21356190D01*
X65325238Y-21432380D01*
X65401428Y-21470476D01*
X64220476Y-21241904D02*
X64601428Y-21241904D01*
X64639523Y-21622857D01*
X64601428Y-21584761D01*
X64525238Y-21546666D01*
X64334761Y-21546666D01*
X64258571Y-21584761D01*
X64220476Y-21622857D01*
X64182380Y-21699047D01*
X64182380Y-21889523D01*
X64220476Y-21965714D01*
X64258571Y-22003809D01*
X64334761Y-22041904D01*
X64525238Y-22041904D01*
X64601428Y-22003809D01*
X64639523Y-21965714D01*
X63877619Y-21318095D02*
X63839523Y-21280000D01*
X63763333Y-21241904D01*
X63572857Y-21241904D01*
X63496666Y-21280000D01*
X63458571Y-21318095D01*
X63420476Y-21394285D01*
X63420476Y-21470476D01*
X63458571Y-21584761D01*
X63915714Y-22041904D01*
X63420476Y-22041904D01*
X62925238Y-21241904D02*
X62849047Y-21241904D01*
X62772857Y-21280000D01*
X62734761Y-21318095D01*
X62696666Y-21394285D01*
X62658571Y-21546666D01*
X62658571Y-21737142D01*
X62696666Y-21889523D01*
X62734761Y-21965714D01*
X62772857Y-22003809D01*
X62849047Y-22041904D01*
X62925238Y-22041904D01*
X63001428Y-22003809D01*
X63039523Y-21965714D01*
X63077619Y-21889523D01*
X63115714Y-21737142D01*
X63115714Y-21546666D01*
X63077619Y-21394285D01*
X63039523Y-21318095D01*
X63001428Y-21280000D01*
X62925238Y-21241904D01*
G04 #@! TO.C,C1801*
X61395714Y-37463809D02*
X61433809Y-37425714D01*
X61471904Y-37311428D01*
X61471904Y-37235238D01*
X61433809Y-37120952D01*
X61357619Y-37044761D01*
X61281428Y-37006666D01*
X61129047Y-36968571D01*
X61014761Y-36968571D01*
X60862380Y-37006666D01*
X60786190Y-37044761D01*
X60710000Y-37120952D01*
X60671904Y-37235238D01*
X60671904Y-37311428D01*
X60710000Y-37425714D01*
X60748095Y-37463809D01*
X61471904Y-38225714D02*
X61471904Y-37768571D01*
X61471904Y-37997142D02*
X60671904Y-37997142D01*
X60786190Y-37920952D01*
X60862380Y-37844761D01*
X60900476Y-37768571D01*
X61014761Y-38682857D02*
X60976666Y-38606666D01*
X60938571Y-38568571D01*
X60862380Y-38530476D01*
X60824285Y-38530476D01*
X60748095Y-38568571D01*
X60710000Y-38606666D01*
X60671904Y-38682857D01*
X60671904Y-38835238D01*
X60710000Y-38911428D01*
X60748095Y-38949523D01*
X60824285Y-38987619D01*
X60862380Y-38987619D01*
X60938571Y-38949523D01*
X60976666Y-38911428D01*
X61014761Y-38835238D01*
X61014761Y-38682857D01*
X61052857Y-38606666D01*
X61090952Y-38568571D01*
X61167142Y-38530476D01*
X61319523Y-38530476D01*
X61395714Y-38568571D01*
X61433809Y-38606666D01*
X61471904Y-38682857D01*
X61471904Y-38835238D01*
X61433809Y-38911428D01*
X61395714Y-38949523D01*
X61319523Y-38987619D01*
X61167142Y-38987619D01*
X61090952Y-38949523D01*
X61052857Y-38911428D01*
X61014761Y-38835238D01*
X60671904Y-39482857D02*
X60671904Y-39559047D01*
X60710000Y-39635238D01*
X60748095Y-39673333D01*
X60824285Y-39711428D01*
X60976666Y-39749523D01*
X61167142Y-39749523D01*
X61319523Y-39711428D01*
X61395714Y-39673333D01*
X61433809Y-39635238D01*
X61471904Y-39559047D01*
X61471904Y-39482857D01*
X61433809Y-39406666D01*
X61395714Y-39368571D01*
X61319523Y-39330476D01*
X61167142Y-39292380D01*
X60976666Y-39292380D01*
X60824285Y-39330476D01*
X60748095Y-39368571D01*
X60710000Y-39406666D01*
X60671904Y-39482857D01*
X61471904Y-40511428D02*
X61471904Y-40054285D01*
X61471904Y-40282857D02*
X60671904Y-40282857D01*
X60786190Y-40206666D01*
X60862380Y-40130476D01*
X60900476Y-40054285D01*
G04 #@! TO.C,C1708*
X61395714Y-30863809D02*
X61433809Y-30825714D01*
X61471904Y-30711428D01*
X61471904Y-30635238D01*
X61433809Y-30520952D01*
X61357619Y-30444761D01*
X61281428Y-30406666D01*
X61129047Y-30368571D01*
X61014761Y-30368571D01*
X60862380Y-30406666D01*
X60786190Y-30444761D01*
X60710000Y-30520952D01*
X60671904Y-30635238D01*
X60671904Y-30711428D01*
X60710000Y-30825714D01*
X60748095Y-30863809D01*
X61471904Y-31625714D02*
X61471904Y-31168571D01*
X61471904Y-31397142D02*
X60671904Y-31397142D01*
X60786190Y-31320952D01*
X60862380Y-31244761D01*
X60900476Y-31168571D01*
X60671904Y-31892380D02*
X60671904Y-32425714D01*
X61471904Y-32082857D01*
X60671904Y-32882857D02*
X60671904Y-32959047D01*
X60710000Y-33035238D01*
X60748095Y-33073333D01*
X60824285Y-33111428D01*
X60976666Y-33149523D01*
X61167142Y-33149523D01*
X61319523Y-33111428D01*
X61395714Y-33073333D01*
X61433809Y-33035238D01*
X61471904Y-32959047D01*
X61471904Y-32882857D01*
X61433809Y-32806666D01*
X61395714Y-32768571D01*
X61319523Y-32730476D01*
X61167142Y-32692380D01*
X60976666Y-32692380D01*
X60824285Y-32730476D01*
X60748095Y-32768571D01*
X60710000Y-32806666D01*
X60671904Y-32882857D01*
X61014761Y-33606666D02*
X60976666Y-33530476D01*
X60938571Y-33492380D01*
X60862380Y-33454285D01*
X60824285Y-33454285D01*
X60748095Y-33492380D01*
X60710000Y-33530476D01*
X60671904Y-33606666D01*
X60671904Y-33759047D01*
X60710000Y-33835238D01*
X60748095Y-33873333D01*
X60824285Y-33911428D01*
X60862380Y-33911428D01*
X60938571Y-33873333D01*
X60976666Y-33835238D01*
X61014761Y-33759047D01*
X61014761Y-33606666D01*
X61052857Y-33530476D01*
X61090952Y-33492380D01*
X61167142Y-33454285D01*
X61319523Y-33454285D01*
X61395714Y-33492380D01*
X61433809Y-33530476D01*
X61471904Y-33606666D01*
X61471904Y-33759047D01*
X61433809Y-33835238D01*
X61395714Y-33873333D01*
X61319523Y-33911428D01*
X61167142Y-33911428D01*
X61090952Y-33873333D01*
X61052857Y-33835238D01*
X61014761Y-33759047D01*
G04 #@! TO.C,C1601*
X61395714Y-24263809D02*
X61433809Y-24225714D01*
X61471904Y-24111428D01*
X61471904Y-24035238D01*
X61433809Y-23920952D01*
X61357619Y-23844761D01*
X61281428Y-23806666D01*
X61129047Y-23768571D01*
X61014761Y-23768571D01*
X60862380Y-23806666D01*
X60786190Y-23844761D01*
X60710000Y-23920952D01*
X60671904Y-24035238D01*
X60671904Y-24111428D01*
X60710000Y-24225714D01*
X60748095Y-24263809D01*
X61471904Y-25025714D02*
X61471904Y-24568571D01*
X61471904Y-24797142D02*
X60671904Y-24797142D01*
X60786190Y-24720952D01*
X60862380Y-24644761D01*
X60900476Y-24568571D01*
X60671904Y-25711428D02*
X60671904Y-25559047D01*
X60710000Y-25482857D01*
X60748095Y-25444761D01*
X60862380Y-25368571D01*
X61014761Y-25330476D01*
X61319523Y-25330476D01*
X61395714Y-25368571D01*
X61433809Y-25406666D01*
X61471904Y-25482857D01*
X61471904Y-25635238D01*
X61433809Y-25711428D01*
X61395714Y-25749523D01*
X61319523Y-25787619D01*
X61129047Y-25787619D01*
X61052857Y-25749523D01*
X61014761Y-25711428D01*
X60976666Y-25635238D01*
X60976666Y-25482857D01*
X61014761Y-25406666D01*
X61052857Y-25368571D01*
X61129047Y-25330476D01*
X60671904Y-26282857D02*
X60671904Y-26359047D01*
X60710000Y-26435238D01*
X60748095Y-26473333D01*
X60824285Y-26511428D01*
X60976666Y-26549523D01*
X61167142Y-26549523D01*
X61319523Y-26511428D01*
X61395714Y-26473333D01*
X61433809Y-26435238D01*
X61471904Y-26359047D01*
X61471904Y-26282857D01*
X61433809Y-26206666D01*
X61395714Y-26168571D01*
X61319523Y-26130476D01*
X61167142Y-26092380D01*
X60976666Y-26092380D01*
X60824285Y-26130476D01*
X60748095Y-26168571D01*
X60710000Y-26206666D01*
X60671904Y-26282857D01*
X61471904Y-27311428D02*
X61471904Y-26854285D01*
X61471904Y-27082857D02*
X60671904Y-27082857D01*
X60786190Y-27006666D01*
X60862380Y-26930476D01*
X60900476Y-26854285D01*
G04 #@! TO.C,C1518*
X61395714Y-17663809D02*
X61433809Y-17625714D01*
X61471904Y-17511428D01*
X61471904Y-17435238D01*
X61433809Y-17320952D01*
X61357619Y-17244761D01*
X61281428Y-17206666D01*
X61129047Y-17168571D01*
X61014761Y-17168571D01*
X60862380Y-17206666D01*
X60786190Y-17244761D01*
X60710000Y-17320952D01*
X60671904Y-17435238D01*
X60671904Y-17511428D01*
X60710000Y-17625714D01*
X60748095Y-17663809D01*
X61471904Y-18425714D02*
X61471904Y-17968571D01*
X61471904Y-18197142D02*
X60671904Y-18197142D01*
X60786190Y-18120952D01*
X60862380Y-18044761D01*
X60900476Y-17968571D01*
X60671904Y-19149523D02*
X60671904Y-18768571D01*
X61052857Y-18730476D01*
X61014761Y-18768571D01*
X60976666Y-18844761D01*
X60976666Y-19035238D01*
X61014761Y-19111428D01*
X61052857Y-19149523D01*
X61129047Y-19187619D01*
X61319523Y-19187619D01*
X61395714Y-19149523D01*
X61433809Y-19111428D01*
X61471904Y-19035238D01*
X61471904Y-18844761D01*
X61433809Y-18768571D01*
X61395714Y-18730476D01*
X61471904Y-19949523D02*
X61471904Y-19492380D01*
X61471904Y-19720952D02*
X60671904Y-19720952D01*
X60786190Y-19644761D01*
X60862380Y-19568571D01*
X60900476Y-19492380D01*
X61014761Y-20406666D02*
X60976666Y-20330476D01*
X60938571Y-20292380D01*
X60862380Y-20254285D01*
X60824285Y-20254285D01*
X60748095Y-20292380D01*
X60710000Y-20330476D01*
X60671904Y-20406666D01*
X60671904Y-20559047D01*
X60710000Y-20635238D01*
X60748095Y-20673333D01*
X60824285Y-20711428D01*
X60862380Y-20711428D01*
X60938571Y-20673333D01*
X60976666Y-20635238D01*
X61014761Y-20559047D01*
X61014761Y-20406666D01*
X61052857Y-20330476D01*
X61090952Y-20292380D01*
X61167142Y-20254285D01*
X61319523Y-20254285D01*
X61395714Y-20292380D01*
X61433809Y-20330476D01*
X61471904Y-20406666D01*
X61471904Y-20559047D01*
X61433809Y-20635238D01*
X61395714Y-20673333D01*
X61319523Y-20711428D01*
X61167142Y-20711428D01*
X61090952Y-20673333D01*
X61052857Y-20635238D01*
X61014761Y-20559047D01*
G04 #@! TO.C,R1802*
X80516190Y-37421904D02*
X80782857Y-37040952D01*
X80973333Y-37421904D02*
X80973333Y-36621904D01*
X80668571Y-36621904D01*
X80592380Y-36660000D01*
X80554285Y-36698095D01*
X80516190Y-36774285D01*
X80516190Y-36888571D01*
X80554285Y-36964761D01*
X80592380Y-37002857D01*
X80668571Y-37040952D01*
X80973333Y-37040952D01*
X79754285Y-37421904D02*
X80211428Y-37421904D01*
X79982857Y-37421904D02*
X79982857Y-36621904D01*
X80059047Y-36736190D01*
X80135238Y-36812380D01*
X80211428Y-36850476D01*
X79297142Y-36964761D02*
X79373333Y-36926666D01*
X79411428Y-36888571D01*
X79449523Y-36812380D01*
X79449523Y-36774285D01*
X79411428Y-36698095D01*
X79373333Y-36660000D01*
X79297142Y-36621904D01*
X79144761Y-36621904D01*
X79068571Y-36660000D01*
X79030476Y-36698095D01*
X78992380Y-36774285D01*
X78992380Y-36812380D01*
X79030476Y-36888571D01*
X79068571Y-36926666D01*
X79144761Y-36964761D01*
X79297142Y-36964761D01*
X79373333Y-37002857D01*
X79411428Y-37040952D01*
X79449523Y-37117142D01*
X79449523Y-37269523D01*
X79411428Y-37345714D01*
X79373333Y-37383809D01*
X79297142Y-37421904D01*
X79144761Y-37421904D01*
X79068571Y-37383809D01*
X79030476Y-37345714D01*
X78992380Y-37269523D01*
X78992380Y-37117142D01*
X79030476Y-37040952D01*
X79068571Y-37002857D01*
X79144761Y-36964761D01*
X78497142Y-36621904D02*
X78420952Y-36621904D01*
X78344761Y-36660000D01*
X78306666Y-36698095D01*
X78268571Y-36774285D01*
X78230476Y-36926666D01*
X78230476Y-37117142D01*
X78268571Y-37269523D01*
X78306666Y-37345714D01*
X78344761Y-37383809D01*
X78420952Y-37421904D01*
X78497142Y-37421904D01*
X78573333Y-37383809D01*
X78611428Y-37345714D01*
X78649523Y-37269523D01*
X78687619Y-37117142D01*
X78687619Y-36926666D01*
X78649523Y-36774285D01*
X78611428Y-36698095D01*
X78573333Y-36660000D01*
X78497142Y-36621904D01*
X77925714Y-36698095D02*
X77887619Y-36660000D01*
X77811428Y-36621904D01*
X77620952Y-36621904D01*
X77544761Y-36660000D01*
X77506666Y-36698095D01*
X77468571Y-36774285D01*
X77468571Y-36850476D01*
X77506666Y-36964761D01*
X77963809Y-37421904D01*
X77468571Y-37421904D01*
G04 #@! TO.C,R1704*
X80516190Y-30821904D02*
X80782857Y-30440952D01*
X80973333Y-30821904D02*
X80973333Y-30021904D01*
X80668571Y-30021904D01*
X80592380Y-30060000D01*
X80554285Y-30098095D01*
X80516190Y-30174285D01*
X80516190Y-30288571D01*
X80554285Y-30364761D01*
X80592380Y-30402857D01*
X80668571Y-30440952D01*
X80973333Y-30440952D01*
X79754285Y-30821904D02*
X80211428Y-30821904D01*
X79982857Y-30821904D02*
X79982857Y-30021904D01*
X80059047Y-30136190D01*
X80135238Y-30212380D01*
X80211428Y-30250476D01*
X79487619Y-30021904D02*
X78954285Y-30021904D01*
X79297142Y-30821904D01*
X78497142Y-30021904D02*
X78420952Y-30021904D01*
X78344761Y-30060000D01*
X78306666Y-30098095D01*
X78268571Y-30174285D01*
X78230476Y-30326666D01*
X78230476Y-30517142D01*
X78268571Y-30669523D01*
X78306666Y-30745714D01*
X78344761Y-30783809D01*
X78420952Y-30821904D01*
X78497142Y-30821904D01*
X78573333Y-30783809D01*
X78611428Y-30745714D01*
X78649523Y-30669523D01*
X78687619Y-30517142D01*
X78687619Y-30326666D01*
X78649523Y-30174285D01*
X78611428Y-30098095D01*
X78573333Y-30060000D01*
X78497142Y-30021904D01*
X77544761Y-30288571D02*
X77544761Y-30821904D01*
X77735238Y-29983809D02*
X77925714Y-30555238D01*
X77430476Y-30555238D01*
G04 #@! TO.C,R1602*
X80516190Y-24221904D02*
X80782857Y-23840952D01*
X80973333Y-24221904D02*
X80973333Y-23421904D01*
X80668571Y-23421904D01*
X80592380Y-23460000D01*
X80554285Y-23498095D01*
X80516190Y-23574285D01*
X80516190Y-23688571D01*
X80554285Y-23764761D01*
X80592380Y-23802857D01*
X80668571Y-23840952D01*
X80973333Y-23840952D01*
X79754285Y-24221904D02*
X80211428Y-24221904D01*
X79982857Y-24221904D02*
X79982857Y-23421904D01*
X80059047Y-23536190D01*
X80135238Y-23612380D01*
X80211428Y-23650476D01*
X79068571Y-23421904D02*
X79220952Y-23421904D01*
X79297142Y-23460000D01*
X79335238Y-23498095D01*
X79411428Y-23612380D01*
X79449523Y-23764761D01*
X79449523Y-24069523D01*
X79411428Y-24145714D01*
X79373333Y-24183809D01*
X79297142Y-24221904D01*
X79144761Y-24221904D01*
X79068571Y-24183809D01*
X79030476Y-24145714D01*
X78992380Y-24069523D01*
X78992380Y-23879047D01*
X79030476Y-23802857D01*
X79068571Y-23764761D01*
X79144761Y-23726666D01*
X79297142Y-23726666D01*
X79373333Y-23764761D01*
X79411428Y-23802857D01*
X79449523Y-23879047D01*
X78497142Y-23421904D02*
X78420952Y-23421904D01*
X78344761Y-23460000D01*
X78306666Y-23498095D01*
X78268571Y-23574285D01*
X78230476Y-23726666D01*
X78230476Y-23917142D01*
X78268571Y-24069523D01*
X78306666Y-24145714D01*
X78344761Y-24183809D01*
X78420952Y-24221904D01*
X78497142Y-24221904D01*
X78573333Y-24183809D01*
X78611428Y-24145714D01*
X78649523Y-24069523D01*
X78687619Y-23917142D01*
X78687619Y-23726666D01*
X78649523Y-23574285D01*
X78611428Y-23498095D01*
X78573333Y-23460000D01*
X78497142Y-23421904D01*
X77925714Y-23498095D02*
X77887619Y-23460000D01*
X77811428Y-23421904D01*
X77620952Y-23421904D01*
X77544761Y-23460000D01*
X77506666Y-23498095D01*
X77468571Y-23574285D01*
X77468571Y-23650476D01*
X77506666Y-23764761D01*
X77963809Y-24221904D01*
X77468571Y-24221904D01*
G04 #@! TO.C,R1511*
X80516190Y-17621904D02*
X80782857Y-17240952D01*
X80973333Y-17621904D02*
X80973333Y-16821904D01*
X80668571Y-16821904D01*
X80592380Y-16860000D01*
X80554285Y-16898095D01*
X80516190Y-16974285D01*
X80516190Y-17088571D01*
X80554285Y-17164761D01*
X80592380Y-17202857D01*
X80668571Y-17240952D01*
X80973333Y-17240952D01*
X79754285Y-17621904D02*
X80211428Y-17621904D01*
X79982857Y-17621904D02*
X79982857Y-16821904D01*
X80059047Y-16936190D01*
X80135238Y-17012380D01*
X80211428Y-17050476D01*
X79030476Y-16821904D02*
X79411428Y-16821904D01*
X79449523Y-17202857D01*
X79411428Y-17164761D01*
X79335238Y-17126666D01*
X79144761Y-17126666D01*
X79068571Y-17164761D01*
X79030476Y-17202857D01*
X78992380Y-17279047D01*
X78992380Y-17469523D01*
X79030476Y-17545714D01*
X79068571Y-17583809D01*
X79144761Y-17621904D01*
X79335238Y-17621904D01*
X79411428Y-17583809D01*
X79449523Y-17545714D01*
X78230476Y-17621904D02*
X78687619Y-17621904D01*
X78459047Y-17621904D02*
X78459047Y-16821904D01*
X78535238Y-16936190D01*
X78611428Y-17012380D01*
X78687619Y-17050476D01*
X77468571Y-17621904D02*
X77925714Y-17621904D01*
X77697142Y-17621904D02*
X77697142Y-16821904D01*
X77773333Y-16936190D01*
X77849523Y-17012380D01*
X77925714Y-17050476D01*
G04 #@! TO.C,R1801*
X80466190Y-38721904D02*
X80732857Y-38340952D01*
X80923333Y-38721904D02*
X80923333Y-37921904D01*
X80618571Y-37921904D01*
X80542380Y-37960000D01*
X80504285Y-37998095D01*
X80466190Y-38074285D01*
X80466190Y-38188571D01*
X80504285Y-38264761D01*
X80542380Y-38302857D01*
X80618571Y-38340952D01*
X80923333Y-38340952D01*
X79704285Y-38721904D02*
X80161428Y-38721904D01*
X79932857Y-38721904D02*
X79932857Y-37921904D01*
X80009047Y-38036190D01*
X80085238Y-38112380D01*
X80161428Y-38150476D01*
X79247142Y-38264761D02*
X79323333Y-38226666D01*
X79361428Y-38188571D01*
X79399523Y-38112380D01*
X79399523Y-38074285D01*
X79361428Y-37998095D01*
X79323333Y-37960000D01*
X79247142Y-37921904D01*
X79094761Y-37921904D01*
X79018571Y-37960000D01*
X78980476Y-37998095D01*
X78942380Y-38074285D01*
X78942380Y-38112380D01*
X78980476Y-38188571D01*
X79018571Y-38226666D01*
X79094761Y-38264761D01*
X79247142Y-38264761D01*
X79323333Y-38302857D01*
X79361428Y-38340952D01*
X79399523Y-38417142D01*
X79399523Y-38569523D01*
X79361428Y-38645714D01*
X79323333Y-38683809D01*
X79247142Y-38721904D01*
X79094761Y-38721904D01*
X79018571Y-38683809D01*
X78980476Y-38645714D01*
X78942380Y-38569523D01*
X78942380Y-38417142D01*
X78980476Y-38340952D01*
X79018571Y-38302857D01*
X79094761Y-38264761D01*
X78447142Y-37921904D02*
X78370952Y-37921904D01*
X78294761Y-37960000D01*
X78256666Y-37998095D01*
X78218571Y-38074285D01*
X78180476Y-38226666D01*
X78180476Y-38417142D01*
X78218571Y-38569523D01*
X78256666Y-38645714D01*
X78294761Y-38683809D01*
X78370952Y-38721904D01*
X78447142Y-38721904D01*
X78523333Y-38683809D01*
X78561428Y-38645714D01*
X78599523Y-38569523D01*
X78637619Y-38417142D01*
X78637619Y-38226666D01*
X78599523Y-38074285D01*
X78561428Y-37998095D01*
X78523333Y-37960000D01*
X78447142Y-37921904D01*
X77418571Y-38721904D02*
X77875714Y-38721904D01*
X77647142Y-38721904D02*
X77647142Y-37921904D01*
X77723333Y-38036190D01*
X77799523Y-38112380D01*
X77875714Y-38150476D01*
G04 #@! TO.C,R1703*
X80466190Y-32121904D02*
X80732857Y-31740952D01*
X80923333Y-32121904D02*
X80923333Y-31321904D01*
X80618571Y-31321904D01*
X80542380Y-31360000D01*
X80504285Y-31398095D01*
X80466190Y-31474285D01*
X80466190Y-31588571D01*
X80504285Y-31664761D01*
X80542380Y-31702857D01*
X80618571Y-31740952D01*
X80923333Y-31740952D01*
X79704285Y-32121904D02*
X80161428Y-32121904D01*
X79932857Y-32121904D02*
X79932857Y-31321904D01*
X80009047Y-31436190D01*
X80085238Y-31512380D01*
X80161428Y-31550476D01*
X79437619Y-31321904D02*
X78904285Y-31321904D01*
X79247142Y-32121904D01*
X78447142Y-31321904D02*
X78370952Y-31321904D01*
X78294761Y-31360000D01*
X78256666Y-31398095D01*
X78218571Y-31474285D01*
X78180476Y-31626666D01*
X78180476Y-31817142D01*
X78218571Y-31969523D01*
X78256666Y-32045714D01*
X78294761Y-32083809D01*
X78370952Y-32121904D01*
X78447142Y-32121904D01*
X78523333Y-32083809D01*
X78561428Y-32045714D01*
X78599523Y-31969523D01*
X78637619Y-31817142D01*
X78637619Y-31626666D01*
X78599523Y-31474285D01*
X78561428Y-31398095D01*
X78523333Y-31360000D01*
X78447142Y-31321904D01*
X77913809Y-31321904D02*
X77418571Y-31321904D01*
X77685238Y-31626666D01*
X77570952Y-31626666D01*
X77494761Y-31664761D01*
X77456666Y-31702857D01*
X77418571Y-31779047D01*
X77418571Y-31969523D01*
X77456666Y-32045714D01*
X77494761Y-32083809D01*
X77570952Y-32121904D01*
X77799523Y-32121904D01*
X77875714Y-32083809D01*
X77913809Y-32045714D01*
G04 #@! TO.C,R1601*
X80466190Y-25521904D02*
X80732857Y-25140952D01*
X80923333Y-25521904D02*
X80923333Y-24721904D01*
X80618571Y-24721904D01*
X80542380Y-24760000D01*
X80504285Y-24798095D01*
X80466190Y-24874285D01*
X80466190Y-24988571D01*
X80504285Y-25064761D01*
X80542380Y-25102857D01*
X80618571Y-25140952D01*
X80923333Y-25140952D01*
X79704285Y-25521904D02*
X80161428Y-25521904D01*
X79932857Y-25521904D02*
X79932857Y-24721904D01*
X80009047Y-24836190D01*
X80085238Y-24912380D01*
X80161428Y-24950476D01*
X79018571Y-24721904D02*
X79170952Y-24721904D01*
X79247142Y-24760000D01*
X79285238Y-24798095D01*
X79361428Y-24912380D01*
X79399523Y-25064761D01*
X79399523Y-25369523D01*
X79361428Y-25445714D01*
X79323333Y-25483809D01*
X79247142Y-25521904D01*
X79094761Y-25521904D01*
X79018571Y-25483809D01*
X78980476Y-25445714D01*
X78942380Y-25369523D01*
X78942380Y-25179047D01*
X78980476Y-25102857D01*
X79018571Y-25064761D01*
X79094761Y-25026666D01*
X79247142Y-25026666D01*
X79323333Y-25064761D01*
X79361428Y-25102857D01*
X79399523Y-25179047D01*
X78447142Y-24721904D02*
X78370952Y-24721904D01*
X78294761Y-24760000D01*
X78256666Y-24798095D01*
X78218571Y-24874285D01*
X78180476Y-25026666D01*
X78180476Y-25217142D01*
X78218571Y-25369523D01*
X78256666Y-25445714D01*
X78294761Y-25483809D01*
X78370952Y-25521904D01*
X78447142Y-25521904D01*
X78523333Y-25483809D01*
X78561428Y-25445714D01*
X78599523Y-25369523D01*
X78637619Y-25217142D01*
X78637619Y-25026666D01*
X78599523Y-24874285D01*
X78561428Y-24798095D01*
X78523333Y-24760000D01*
X78447142Y-24721904D01*
X77418571Y-25521904D02*
X77875714Y-25521904D01*
X77647142Y-25521904D02*
X77647142Y-24721904D01*
X77723333Y-24836190D01*
X77799523Y-24912380D01*
X77875714Y-24950476D01*
G04 #@! TO.C,R1510*
X80466190Y-18921904D02*
X80732857Y-18540952D01*
X80923333Y-18921904D02*
X80923333Y-18121904D01*
X80618571Y-18121904D01*
X80542380Y-18160000D01*
X80504285Y-18198095D01*
X80466190Y-18274285D01*
X80466190Y-18388571D01*
X80504285Y-18464761D01*
X80542380Y-18502857D01*
X80618571Y-18540952D01*
X80923333Y-18540952D01*
X79704285Y-18921904D02*
X80161428Y-18921904D01*
X79932857Y-18921904D02*
X79932857Y-18121904D01*
X80009047Y-18236190D01*
X80085238Y-18312380D01*
X80161428Y-18350476D01*
X78980476Y-18121904D02*
X79361428Y-18121904D01*
X79399523Y-18502857D01*
X79361428Y-18464761D01*
X79285238Y-18426666D01*
X79094761Y-18426666D01*
X79018571Y-18464761D01*
X78980476Y-18502857D01*
X78942380Y-18579047D01*
X78942380Y-18769523D01*
X78980476Y-18845714D01*
X79018571Y-18883809D01*
X79094761Y-18921904D01*
X79285238Y-18921904D01*
X79361428Y-18883809D01*
X79399523Y-18845714D01*
X78180476Y-18921904D02*
X78637619Y-18921904D01*
X78409047Y-18921904D02*
X78409047Y-18121904D01*
X78485238Y-18236190D01*
X78561428Y-18312380D01*
X78637619Y-18350476D01*
X77685238Y-18121904D02*
X77609047Y-18121904D01*
X77532857Y-18160000D01*
X77494761Y-18198095D01*
X77456666Y-18274285D01*
X77418571Y-18426666D01*
X77418571Y-18617142D01*
X77456666Y-18769523D01*
X77494761Y-18845714D01*
X77532857Y-18883809D01*
X77609047Y-18921904D01*
X77685238Y-18921904D01*
X77761428Y-18883809D01*
X77799523Y-18845714D01*
X77837619Y-18769523D01*
X77875714Y-18617142D01*
X77875714Y-18426666D01*
X77837619Y-18274285D01*
X77799523Y-18198095D01*
X77761428Y-18160000D01*
X77685238Y-18121904D01*
G04 #@! TO.C,R1803*
X75706190Y-42951904D02*
X75972857Y-42570952D01*
X76163333Y-42951904D02*
X76163333Y-42151904D01*
X75858571Y-42151904D01*
X75782380Y-42190000D01*
X75744285Y-42228095D01*
X75706190Y-42304285D01*
X75706190Y-42418571D01*
X75744285Y-42494761D01*
X75782380Y-42532857D01*
X75858571Y-42570952D01*
X76163333Y-42570952D01*
X74944285Y-42951904D02*
X75401428Y-42951904D01*
X75172857Y-42951904D02*
X75172857Y-42151904D01*
X75249047Y-42266190D01*
X75325238Y-42342380D01*
X75401428Y-42380476D01*
X74487142Y-42494761D02*
X74563333Y-42456666D01*
X74601428Y-42418571D01*
X74639523Y-42342380D01*
X74639523Y-42304285D01*
X74601428Y-42228095D01*
X74563333Y-42190000D01*
X74487142Y-42151904D01*
X74334761Y-42151904D01*
X74258571Y-42190000D01*
X74220476Y-42228095D01*
X74182380Y-42304285D01*
X74182380Y-42342380D01*
X74220476Y-42418571D01*
X74258571Y-42456666D01*
X74334761Y-42494761D01*
X74487142Y-42494761D01*
X74563333Y-42532857D01*
X74601428Y-42570952D01*
X74639523Y-42647142D01*
X74639523Y-42799523D01*
X74601428Y-42875714D01*
X74563333Y-42913809D01*
X74487142Y-42951904D01*
X74334761Y-42951904D01*
X74258571Y-42913809D01*
X74220476Y-42875714D01*
X74182380Y-42799523D01*
X74182380Y-42647142D01*
X74220476Y-42570952D01*
X74258571Y-42532857D01*
X74334761Y-42494761D01*
X73687142Y-42151904D02*
X73610952Y-42151904D01*
X73534761Y-42190000D01*
X73496666Y-42228095D01*
X73458571Y-42304285D01*
X73420476Y-42456666D01*
X73420476Y-42647142D01*
X73458571Y-42799523D01*
X73496666Y-42875714D01*
X73534761Y-42913809D01*
X73610952Y-42951904D01*
X73687142Y-42951904D01*
X73763333Y-42913809D01*
X73801428Y-42875714D01*
X73839523Y-42799523D01*
X73877619Y-42647142D01*
X73877619Y-42456666D01*
X73839523Y-42304285D01*
X73801428Y-42228095D01*
X73763333Y-42190000D01*
X73687142Y-42151904D01*
X73153809Y-42151904D02*
X72658571Y-42151904D01*
X72925238Y-42456666D01*
X72810952Y-42456666D01*
X72734761Y-42494761D01*
X72696666Y-42532857D01*
X72658571Y-42609047D01*
X72658571Y-42799523D01*
X72696666Y-42875714D01*
X72734761Y-42913809D01*
X72810952Y-42951904D01*
X73039523Y-42951904D01*
X73115714Y-42913809D01*
X73153809Y-42875714D01*
G04 #@! TO.C,R1705*
X75706190Y-36351904D02*
X75972857Y-35970952D01*
X76163333Y-36351904D02*
X76163333Y-35551904D01*
X75858571Y-35551904D01*
X75782380Y-35590000D01*
X75744285Y-35628095D01*
X75706190Y-35704285D01*
X75706190Y-35818571D01*
X75744285Y-35894761D01*
X75782380Y-35932857D01*
X75858571Y-35970952D01*
X76163333Y-35970952D01*
X74944285Y-36351904D02*
X75401428Y-36351904D01*
X75172857Y-36351904D02*
X75172857Y-35551904D01*
X75249047Y-35666190D01*
X75325238Y-35742380D01*
X75401428Y-35780476D01*
X74677619Y-35551904D02*
X74144285Y-35551904D01*
X74487142Y-36351904D01*
X73687142Y-35551904D02*
X73610952Y-35551904D01*
X73534761Y-35590000D01*
X73496666Y-35628095D01*
X73458571Y-35704285D01*
X73420476Y-35856666D01*
X73420476Y-36047142D01*
X73458571Y-36199523D01*
X73496666Y-36275714D01*
X73534761Y-36313809D01*
X73610952Y-36351904D01*
X73687142Y-36351904D01*
X73763333Y-36313809D01*
X73801428Y-36275714D01*
X73839523Y-36199523D01*
X73877619Y-36047142D01*
X73877619Y-35856666D01*
X73839523Y-35704285D01*
X73801428Y-35628095D01*
X73763333Y-35590000D01*
X73687142Y-35551904D01*
X72696666Y-35551904D02*
X73077619Y-35551904D01*
X73115714Y-35932857D01*
X73077619Y-35894761D01*
X73001428Y-35856666D01*
X72810952Y-35856666D01*
X72734761Y-35894761D01*
X72696666Y-35932857D01*
X72658571Y-36009047D01*
X72658571Y-36199523D01*
X72696666Y-36275714D01*
X72734761Y-36313809D01*
X72810952Y-36351904D01*
X73001428Y-36351904D01*
X73077619Y-36313809D01*
X73115714Y-36275714D01*
G04 #@! TO.C,R1603*
X75706190Y-29751904D02*
X75972857Y-29370952D01*
X76163333Y-29751904D02*
X76163333Y-28951904D01*
X75858571Y-28951904D01*
X75782380Y-28990000D01*
X75744285Y-29028095D01*
X75706190Y-29104285D01*
X75706190Y-29218571D01*
X75744285Y-29294761D01*
X75782380Y-29332857D01*
X75858571Y-29370952D01*
X76163333Y-29370952D01*
X74944285Y-29751904D02*
X75401428Y-29751904D01*
X75172857Y-29751904D02*
X75172857Y-28951904D01*
X75249047Y-29066190D01*
X75325238Y-29142380D01*
X75401428Y-29180476D01*
X74258571Y-28951904D02*
X74410952Y-28951904D01*
X74487142Y-28990000D01*
X74525238Y-29028095D01*
X74601428Y-29142380D01*
X74639523Y-29294761D01*
X74639523Y-29599523D01*
X74601428Y-29675714D01*
X74563333Y-29713809D01*
X74487142Y-29751904D01*
X74334761Y-29751904D01*
X74258571Y-29713809D01*
X74220476Y-29675714D01*
X74182380Y-29599523D01*
X74182380Y-29409047D01*
X74220476Y-29332857D01*
X74258571Y-29294761D01*
X74334761Y-29256666D01*
X74487142Y-29256666D01*
X74563333Y-29294761D01*
X74601428Y-29332857D01*
X74639523Y-29409047D01*
X73687142Y-28951904D02*
X73610952Y-28951904D01*
X73534761Y-28990000D01*
X73496666Y-29028095D01*
X73458571Y-29104285D01*
X73420476Y-29256666D01*
X73420476Y-29447142D01*
X73458571Y-29599523D01*
X73496666Y-29675714D01*
X73534761Y-29713809D01*
X73610952Y-29751904D01*
X73687142Y-29751904D01*
X73763333Y-29713809D01*
X73801428Y-29675714D01*
X73839523Y-29599523D01*
X73877619Y-29447142D01*
X73877619Y-29256666D01*
X73839523Y-29104285D01*
X73801428Y-29028095D01*
X73763333Y-28990000D01*
X73687142Y-28951904D01*
X73153809Y-28951904D02*
X72658571Y-28951904D01*
X72925238Y-29256666D01*
X72810952Y-29256666D01*
X72734761Y-29294761D01*
X72696666Y-29332857D01*
X72658571Y-29409047D01*
X72658571Y-29599523D01*
X72696666Y-29675714D01*
X72734761Y-29713809D01*
X72810952Y-29751904D01*
X73039523Y-29751904D01*
X73115714Y-29713809D01*
X73153809Y-29675714D01*
G04 #@! TO.C,R1512*
X75706190Y-23151904D02*
X75972857Y-22770952D01*
X76163333Y-23151904D02*
X76163333Y-22351904D01*
X75858571Y-22351904D01*
X75782380Y-22390000D01*
X75744285Y-22428095D01*
X75706190Y-22504285D01*
X75706190Y-22618571D01*
X75744285Y-22694761D01*
X75782380Y-22732857D01*
X75858571Y-22770952D01*
X76163333Y-22770952D01*
X74944285Y-23151904D02*
X75401428Y-23151904D01*
X75172857Y-23151904D02*
X75172857Y-22351904D01*
X75249047Y-22466190D01*
X75325238Y-22542380D01*
X75401428Y-22580476D01*
X74220476Y-22351904D02*
X74601428Y-22351904D01*
X74639523Y-22732857D01*
X74601428Y-22694761D01*
X74525238Y-22656666D01*
X74334761Y-22656666D01*
X74258571Y-22694761D01*
X74220476Y-22732857D01*
X74182380Y-22809047D01*
X74182380Y-22999523D01*
X74220476Y-23075714D01*
X74258571Y-23113809D01*
X74334761Y-23151904D01*
X74525238Y-23151904D01*
X74601428Y-23113809D01*
X74639523Y-23075714D01*
X73420476Y-23151904D02*
X73877619Y-23151904D01*
X73649047Y-23151904D02*
X73649047Y-22351904D01*
X73725238Y-22466190D01*
X73801428Y-22542380D01*
X73877619Y-22580476D01*
X73115714Y-22428095D02*
X73077619Y-22390000D01*
X73001428Y-22351904D01*
X72810952Y-22351904D01*
X72734761Y-22390000D01*
X72696666Y-22428095D01*
X72658571Y-22504285D01*
X72658571Y-22580476D01*
X72696666Y-22694761D01*
X73153809Y-23151904D01*
X72658571Y-23151904D01*
G04 #@! TO.C,R1403*
X75706190Y-16551904D02*
X75972857Y-16170952D01*
X76163333Y-16551904D02*
X76163333Y-15751904D01*
X75858571Y-15751904D01*
X75782380Y-15790000D01*
X75744285Y-15828095D01*
X75706190Y-15904285D01*
X75706190Y-16018571D01*
X75744285Y-16094761D01*
X75782380Y-16132857D01*
X75858571Y-16170952D01*
X76163333Y-16170952D01*
X74944285Y-16551904D02*
X75401428Y-16551904D01*
X75172857Y-16551904D02*
X75172857Y-15751904D01*
X75249047Y-15866190D01*
X75325238Y-15942380D01*
X75401428Y-15980476D01*
X74258571Y-16018571D02*
X74258571Y-16551904D01*
X74449047Y-15713809D02*
X74639523Y-16285238D01*
X74144285Y-16285238D01*
X73687142Y-15751904D02*
X73610952Y-15751904D01*
X73534761Y-15790000D01*
X73496666Y-15828095D01*
X73458571Y-15904285D01*
X73420476Y-16056666D01*
X73420476Y-16247142D01*
X73458571Y-16399523D01*
X73496666Y-16475714D01*
X73534761Y-16513809D01*
X73610952Y-16551904D01*
X73687142Y-16551904D01*
X73763333Y-16513809D01*
X73801428Y-16475714D01*
X73839523Y-16399523D01*
X73877619Y-16247142D01*
X73877619Y-16056666D01*
X73839523Y-15904285D01*
X73801428Y-15828095D01*
X73763333Y-15790000D01*
X73687142Y-15751904D01*
X73153809Y-15751904D02*
X72658571Y-15751904D01*
X72925238Y-16056666D01*
X72810952Y-16056666D01*
X72734761Y-16094761D01*
X72696666Y-16132857D01*
X72658571Y-16209047D01*
X72658571Y-16399523D01*
X72696666Y-16475714D01*
X72734761Y-16513809D01*
X72810952Y-16551904D01*
X73039523Y-16551904D01*
X73115714Y-16513809D01*
X73153809Y-16475714D01*
G04 #@! TO.C,C1401*
X61395714Y-11063809D02*
X61433809Y-11025714D01*
X61471904Y-10911428D01*
X61471904Y-10835238D01*
X61433809Y-10720952D01*
X61357619Y-10644761D01*
X61281428Y-10606666D01*
X61129047Y-10568571D01*
X61014761Y-10568571D01*
X60862380Y-10606666D01*
X60786190Y-10644761D01*
X60710000Y-10720952D01*
X60671904Y-10835238D01*
X60671904Y-10911428D01*
X60710000Y-11025714D01*
X60748095Y-11063809D01*
X61471904Y-11825714D02*
X61471904Y-11368571D01*
X61471904Y-11597142D02*
X60671904Y-11597142D01*
X60786190Y-11520952D01*
X60862380Y-11444761D01*
X60900476Y-11368571D01*
X60938571Y-12511428D02*
X61471904Y-12511428D01*
X60633809Y-12320952D02*
X61205238Y-12130476D01*
X61205238Y-12625714D01*
X60671904Y-13082857D02*
X60671904Y-13159047D01*
X60710000Y-13235238D01*
X60748095Y-13273333D01*
X60824285Y-13311428D01*
X60976666Y-13349523D01*
X61167142Y-13349523D01*
X61319523Y-13311428D01*
X61395714Y-13273333D01*
X61433809Y-13235238D01*
X61471904Y-13159047D01*
X61471904Y-13082857D01*
X61433809Y-13006666D01*
X61395714Y-12968571D01*
X61319523Y-12930476D01*
X61167142Y-12892380D01*
X60976666Y-12892380D01*
X60824285Y-12930476D01*
X60748095Y-12968571D01*
X60710000Y-13006666D01*
X60671904Y-13082857D01*
X61471904Y-14111428D02*
X61471904Y-13654285D01*
X61471904Y-13882857D02*
X60671904Y-13882857D01*
X60786190Y-13806666D01*
X60862380Y-13730476D01*
X60900476Y-13654285D01*
G04 #@! TO.C,C1403*
X65706190Y-15365714D02*
X65744285Y-15403809D01*
X65858571Y-15441904D01*
X65934761Y-15441904D01*
X66049047Y-15403809D01*
X66125238Y-15327619D01*
X66163333Y-15251428D01*
X66201428Y-15099047D01*
X66201428Y-14984761D01*
X66163333Y-14832380D01*
X66125238Y-14756190D01*
X66049047Y-14680000D01*
X65934761Y-14641904D01*
X65858571Y-14641904D01*
X65744285Y-14680000D01*
X65706190Y-14718095D01*
X64944285Y-15441904D02*
X65401428Y-15441904D01*
X65172857Y-15441904D02*
X65172857Y-14641904D01*
X65249047Y-14756190D01*
X65325238Y-14832380D01*
X65401428Y-14870476D01*
X64258571Y-14908571D02*
X64258571Y-15441904D01*
X64449047Y-14603809D02*
X64639523Y-15175238D01*
X64144285Y-15175238D01*
X63687142Y-14641904D02*
X63610952Y-14641904D01*
X63534761Y-14680000D01*
X63496666Y-14718095D01*
X63458571Y-14794285D01*
X63420476Y-14946666D01*
X63420476Y-15137142D01*
X63458571Y-15289523D01*
X63496666Y-15365714D01*
X63534761Y-15403809D01*
X63610952Y-15441904D01*
X63687142Y-15441904D01*
X63763333Y-15403809D01*
X63801428Y-15365714D01*
X63839523Y-15289523D01*
X63877619Y-15137142D01*
X63877619Y-14946666D01*
X63839523Y-14794285D01*
X63801428Y-14718095D01*
X63763333Y-14680000D01*
X63687142Y-14641904D01*
X63153809Y-14641904D02*
X62658571Y-14641904D01*
X62925238Y-14946666D01*
X62810952Y-14946666D01*
X62734761Y-14984761D01*
X62696666Y-15022857D01*
X62658571Y-15099047D01*
X62658571Y-15289523D01*
X62696666Y-15365714D01*
X62734761Y-15403809D01*
X62810952Y-15441904D01*
X63039523Y-15441904D01*
X63115714Y-15403809D01*
X63153809Y-15365714D01*
G04 #@! TO.C,C1404*
X57245714Y-11603809D02*
X57283809Y-11565714D01*
X57321904Y-11451428D01*
X57321904Y-11375238D01*
X57283809Y-11260952D01*
X57207619Y-11184761D01*
X57131428Y-11146666D01*
X56979047Y-11108571D01*
X56864761Y-11108571D01*
X56712380Y-11146666D01*
X56636190Y-11184761D01*
X56560000Y-11260952D01*
X56521904Y-11375238D01*
X56521904Y-11451428D01*
X56560000Y-11565714D01*
X56598095Y-11603809D01*
X57321904Y-12365714D02*
X57321904Y-11908571D01*
X57321904Y-12137142D02*
X56521904Y-12137142D01*
X56636190Y-12060952D01*
X56712380Y-11984761D01*
X56750476Y-11908571D01*
X56788571Y-13051428D02*
X57321904Y-13051428D01*
X56483809Y-12860952D02*
X57055238Y-12670476D01*
X57055238Y-13165714D01*
X56521904Y-13622857D02*
X56521904Y-13699047D01*
X56560000Y-13775238D01*
X56598095Y-13813333D01*
X56674285Y-13851428D01*
X56826666Y-13889523D01*
X57017142Y-13889523D01*
X57169523Y-13851428D01*
X57245714Y-13813333D01*
X57283809Y-13775238D01*
X57321904Y-13699047D01*
X57321904Y-13622857D01*
X57283809Y-13546666D01*
X57245714Y-13508571D01*
X57169523Y-13470476D01*
X57017142Y-13432380D01*
X56826666Y-13432380D01*
X56674285Y-13470476D01*
X56598095Y-13508571D01*
X56560000Y-13546666D01*
X56521904Y-13622857D01*
X56788571Y-14575238D02*
X57321904Y-14575238D01*
X56483809Y-14384761D02*
X57055238Y-14194285D01*
X57055238Y-14689523D01*
G04 #@! TO.C,R1401*
X80466190Y-12321904D02*
X80732857Y-11940952D01*
X80923333Y-12321904D02*
X80923333Y-11521904D01*
X80618571Y-11521904D01*
X80542380Y-11560000D01*
X80504285Y-11598095D01*
X80466190Y-11674285D01*
X80466190Y-11788571D01*
X80504285Y-11864761D01*
X80542380Y-11902857D01*
X80618571Y-11940952D01*
X80923333Y-11940952D01*
X79704285Y-12321904D02*
X80161428Y-12321904D01*
X79932857Y-12321904D02*
X79932857Y-11521904D01*
X80009047Y-11636190D01*
X80085238Y-11712380D01*
X80161428Y-11750476D01*
X79018571Y-11788571D02*
X79018571Y-12321904D01*
X79209047Y-11483809D02*
X79399523Y-12055238D01*
X78904285Y-12055238D01*
X78447142Y-11521904D02*
X78370952Y-11521904D01*
X78294761Y-11560000D01*
X78256666Y-11598095D01*
X78218571Y-11674285D01*
X78180476Y-11826666D01*
X78180476Y-12017142D01*
X78218571Y-12169523D01*
X78256666Y-12245714D01*
X78294761Y-12283809D01*
X78370952Y-12321904D01*
X78447142Y-12321904D01*
X78523333Y-12283809D01*
X78561428Y-12245714D01*
X78599523Y-12169523D01*
X78637619Y-12017142D01*
X78637619Y-11826666D01*
X78599523Y-11674285D01*
X78561428Y-11598095D01*
X78523333Y-11560000D01*
X78447142Y-11521904D01*
X77418571Y-12321904D02*
X77875714Y-12321904D01*
X77647142Y-12321904D02*
X77647142Y-11521904D01*
X77723333Y-11636190D01*
X77799523Y-11712380D01*
X77875714Y-11750476D01*
G04 #@! TO.C,R1402*
X80516190Y-11021904D02*
X80782857Y-10640952D01*
X80973333Y-11021904D02*
X80973333Y-10221904D01*
X80668571Y-10221904D01*
X80592380Y-10260000D01*
X80554285Y-10298095D01*
X80516190Y-10374285D01*
X80516190Y-10488571D01*
X80554285Y-10564761D01*
X80592380Y-10602857D01*
X80668571Y-10640952D01*
X80973333Y-10640952D01*
X79754285Y-11021904D02*
X80211428Y-11021904D01*
X79982857Y-11021904D02*
X79982857Y-10221904D01*
X80059047Y-10336190D01*
X80135238Y-10412380D01*
X80211428Y-10450476D01*
X79068571Y-10488571D02*
X79068571Y-11021904D01*
X79259047Y-10183809D02*
X79449523Y-10755238D01*
X78954285Y-10755238D01*
X78497142Y-10221904D02*
X78420952Y-10221904D01*
X78344761Y-10260000D01*
X78306666Y-10298095D01*
X78268571Y-10374285D01*
X78230476Y-10526666D01*
X78230476Y-10717142D01*
X78268571Y-10869523D01*
X78306666Y-10945714D01*
X78344761Y-10983809D01*
X78420952Y-11021904D01*
X78497142Y-11021904D01*
X78573333Y-10983809D01*
X78611428Y-10945714D01*
X78649523Y-10869523D01*
X78687619Y-10717142D01*
X78687619Y-10526666D01*
X78649523Y-10374285D01*
X78611428Y-10298095D01*
X78573333Y-10260000D01*
X78497142Y-10221904D01*
X77925714Y-10298095D02*
X77887619Y-10260000D01*
X77811428Y-10221904D01*
X77620952Y-10221904D01*
X77544761Y-10260000D01*
X77506666Y-10298095D01*
X77468571Y-10374285D01*
X77468571Y-10450476D01*
X77506666Y-10564761D01*
X77963809Y-11021904D01*
X77468571Y-11021904D01*
G04 #@! TO.C,C402*
X34470238Y-20385714D02*
X34508333Y-20423809D01*
X34622619Y-20461904D01*
X34698809Y-20461904D01*
X34813095Y-20423809D01*
X34889285Y-20347619D01*
X34927380Y-20271428D01*
X34965476Y-20119047D01*
X34965476Y-20004761D01*
X34927380Y-19852380D01*
X34889285Y-19776190D01*
X34813095Y-19700000D01*
X34698809Y-19661904D01*
X34622619Y-19661904D01*
X34508333Y-19700000D01*
X34470238Y-19738095D01*
X33784523Y-19928571D02*
X33784523Y-20461904D01*
X33975000Y-19623809D02*
X34165476Y-20195238D01*
X33670238Y-20195238D01*
X33213095Y-19661904D02*
X33136904Y-19661904D01*
X33060714Y-19700000D01*
X33022619Y-19738095D01*
X32984523Y-19814285D01*
X32946428Y-19966666D01*
X32946428Y-20157142D01*
X32984523Y-20309523D01*
X33022619Y-20385714D01*
X33060714Y-20423809D01*
X33136904Y-20461904D01*
X33213095Y-20461904D01*
X33289285Y-20423809D01*
X33327380Y-20385714D01*
X33365476Y-20309523D01*
X33403571Y-20157142D01*
X33403571Y-19966666D01*
X33365476Y-19814285D01*
X33327380Y-19738095D01*
X33289285Y-19700000D01*
X33213095Y-19661904D01*
X32641666Y-19738095D02*
X32603571Y-19700000D01*
X32527380Y-19661904D01*
X32336904Y-19661904D01*
X32260714Y-19700000D01*
X32222619Y-19738095D01*
X32184523Y-19814285D01*
X32184523Y-19890476D01*
X32222619Y-20004761D01*
X32679761Y-20461904D01*
X32184523Y-20461904D01*
G04 #@! TO.C,C403*
X34295238Y-26360714D02*
X34333333Y-26398809D01*
X34447619Y-26436904D01*
X34523809Y-26436904D01*
X34638095Y-26398809D01*
X34714285Y-26322619D01*
X34752380Y-26246428D01*
X34790476Y-26094047D01*
X34790476Y-25979761D01*
X34752380Y-25827380D01*
X34714285Y-25751190D01*
X34638095Y-25675000D01*
X34523809Y-25636904D01*
X34447619Y-25636904D01*
X34333333Y-25675000D01*
X34295238Y-25713095D01*
X33609523Y-25903571D02*
X33609523Y-26436904D01*
X33800000Y-25598809D02*
X33990476Y-26170238D01*
X33495238Y-26170238D01*
X33038095Y-25636904D02*
X32961904Y-25636904D01*
X32885714Y-25675000D01*
X32847619Y-25713095D01*
X32809523Y-25789285D01*
X32771428Y-25941666D01*
X32771428Y-26132142D01*
X32809523Y-26284523D01*
X32847619Y-26360714D01*
X32885714Y-26398809D01*
X32961904Y-26436904D01*
X33038095Y-26436904D01*
X33114285Y-26398809D01*
X33152380Y-26360714D01*
X33190476Y-26284523D01*
X33228571Y-26132142D01*
X33228571Y-25941666D01*
X33190476Y-25789285D01*
X33152380Y-25713095D01*
X33114285Y-25675000D01*
X33038095Y-25636904D01*
X32504761Y-25636904D02*
X32009523Y-25636904D01*
X32276190Y-25941666D01*
X32161904Y-25941666D01*
X32085714Y-25979761D01*
X32047619Y-26017857D01*
X32009523Y-26094047D01*
X32009523Y-26284523D01*
X32047619Y-26360714D01*
X32085714Y-26398809D01*
X32161904Y-26436904D01*
X32390476Y-26436904D01*
X32466666Y-26398809D01*
X32504761Y-26360714D01*
G04 #@! TO.C,C404*
X34420238Y-24410714D02*
X34458333Y-24448809D01*
X34572619Y-24486904D01*
X34648809Y-24486904D01*
X34763095Y-24448809D01*
X34839285Y-24372619D01*
X34877380Y-24296428D01*
X34915476Y-24144047D01*
X34915476Y-24029761D01*
X34877380Y-23877380D01*
X34839285Y-23801190D01*
X34763095Y-23725000D01*
X34648809Y-23686904D01*
X34572619Y-23686904D01*
X34458333Y-23725000D01*
X34420238Y-23763095D01*
X33734523Y-23953571D02*
X33734523Y-24486904D01*
X33925000Y-23648809D02*
X34115476Y-24220238D01*
X33620238Y-24220238D01*
X33163095Y-23686904D02*
X33086904Y-23686904D01*
X33010714Y-23725000D01*
X32972619Y-23763095D01*
X32934523Y-23839285D01*
X32896428Y-23991666D01*
X32896428Y-24182142D01*
X32934523Y-24334523D01*
X32972619Y-24410714D01*
X33010714Y-24448809D01*
X33086904Y-24486904D01*
X33163095Y-24486904D01*
X33239285Y-24448809D01*
X33277380Y-24410714D01*
X33315476Y-24334523D01*
X33353571Y-24182142D01*
X33353571Y-23991666D01*
X33315476Y-23839285D01*
X33277380Y-23763095D01*
X33239285Y-23725000D01*
X33163095Y-23686904D01*
X32210714Y-23953571D02*
X32210714Y-24486904D01*
X32401190Y-23648809D02*
X32591666Y-24220238D01*
X32096428Y-24220238D01*
G04 #@! TO.C,C405*
X40870238Y-42410714D02*
X40908333Y-42448809D01*
X41022619Y-42486904D01*
X41098809Y-42486904D01*
X41213095Y-42448809D01*
X41289285Y-42372619D01*
X41327380Y-42296428D01*
X41365476Y-42144047D01*
X41365476Y-42029761D01*
X41327380Y-41877380D01*
X41289285Y-41801190D01*
X41213095Y-41725000D01*
X41098809Y-41686904D01*
X41022619Y-41686904D01*
X40908333Y-41725000D01*
X40870238Y-41763095D01*
X40184523Y-41953571D02*
X40184523Y-42486904D01*
X40375000Y-41648809D02*
X40565476Y-42220238D01*
X40070238Y-42220238D01*
X39613095Y-41686904D02*
X39536904Y-41686904D01*
X39460714Y-41725000D01*
X39422619Y-41763095D01*
X39384523Y-41839285D01*
X39346428Y-41991666D01*
X39346428Y-42182142D01*
X39384523Y-42334523D01*
X39422619Y-42410714D01*
X39460714Y-42448809D01*
X39536904Y-42486904D01*
X39613095Y-42486904D01*
X39689285Y-42448809D01*
X39727380Y-42410714D01*
X39765476Y-42334523D01*
X39803571Y-42182142D01*
X39803571Y-41991666D01*
X39765476Y-41839285D01*
X39727380Y-41763095D01*
X39689285Y-41725000D01*
X39613095Y-41686904D01*
X38622619Y-41686904D02*
X39003571Y-41686904D01*
X39041666Y-42067857D01*
X39003571Y-42029761D01*
X38927380Y-41991666D01*
X38736904Y-41991666D01*
X38660714Y-42029761D01*
X38622619Y-42067857D01*
X38584523Y-42144047D01*
X38584523Y-42334523D01*
X38622619Y-42410714D01*
X38660714Y-42448809D01*
X38736904Y-42486904D01*
X38927380Y-42486904D01*
X39003571Y-42448809D01*
X39041666Y-42410714D01*
G04 #@! TO.C,C406*
X45888490Y-37687029D02*
X45926585Y-37648934D01*
X45964680Y-37534648D01*
X45964680Y-37458458D01*
X45926585Y-37344172D01*
X45850395Y-37267982D01*
X45774204Y-37229887D01*
X45621823Y-37191791D01*
X45507537Y-37191791D01*
X45355156Y-37229887D01*
X45278966Y-37267982D01*
X45202776Y-37344172D01*
X45164680Y-37458458D01*
X45164680Y-37534648D01*
X45202776Y-37648934D01*
X45240871Y-37687029D01*
X45431347Y-38372744D02*
X45964680Y-38372744D01*
X45126585Y-38182268D02*
X45698014Y-37991791D01*
X45698014Y-38487029D01*
X45164680Y-38944172D02*
X45164680Y-39020363D01*
X45202776Y-39096553D01*
X45240871Y-39134648D01*
X45317061Y-39172744D01*
X45469442Y-39210839D01*
X45659918Y-39210839D01*
X45812299Y-39172744D01*
X45888490Y-39134648D01*
X45926585Y-39096553D01*
X45964680Y-39020363D01*
X45964680Y-38944172D01*
X45926585Y-38867982D01*
X45888490Y-38829887D01*
X45812299Y-38791791D01*
X45659918Y-38753696D01*
X45469442Y-38753696D01*
X45317061Y-38791791D01*
X45240871Y-38829887D01*
X45202776Y-38867982D01*
X45164680Y-38944172D01*
X45164680Y-39896553D02*
X45164680Y-39744172D01*
X45202776Y-39667982D01*
X45240871Y-39629887D01*
X45355156Y-39553696D01*
X45507537Y-39515601D01*
X45812299Y-39515601D01*
X45888490Y-39553696D01*
X45926585Y-39591791D01*
X45964680Y-39667982D01*
X45964680Y-39820363D01*
X45926585Y-39896553D01*
X45888490Y-39934648D01*
X45812299Y-39972744D01*
X45621823Y-39972744D01*
X45545633Y-39934648D01*
X45507537Y-39896553D01*
X45469442Y-39820363D01*
X45469442Y-39667982D01*
X45507537Y-39591791D01*
X45545633Y-39553696D01*
X45621823Y-39515601D01*
G04 #@! TO.C,C407*
X47838490Y-37687029D02*
X47876585Y-37648934D01*
X47914680Y-37534648D01*
X47914680Y-37458458D01*
X47876585Y-37344172D01*
X47800395Y-37267982D01*
X47724204Y-37229887D01*
X47571823Y-37191791D01*
X47457537Y-37191791D01*
X47305156Y-37229887D01*
X47228966Y-37267982D01*
X47152776Y-37344172D01*
X47114680Y-37458458D01*
X47114680Y-37534648D01*
X47152776Y-37648934D01*
X47190871Y-37687029D01*
X47381347Y-38372744D02*
X47914680Y-38372744D01*
X47076585Y-38182268D02*
X47648014Y-37991791D01*
X47648014Y-38487029D01*
X47114680Y-38944172D02*
X47114680Y-39020363D01*
X47152776Y-39096553D01*
X47190871Y-39134648D01*
X47267061Y-39172744D01*
X47419442Y-39210839D01*
X47609918Y-39210839D01*
X47762299Y-39172744D01*
X47838490Y-39134648D01*
X47876585Y-39096553D01*
X47914680Y-39020363D01*
X47914680Y-38944172D01*
X47876585Y-38867982D01*
X47838490Y-38829887D01*
X47762299Y-38791791D01*
X47609918Y-38753696D01*
X47419442Y-38753696D01*
X47267061Y-38791791D01*
X47190871Y-38829887D01*
X47152776Y-38867982D01*
X47114680Y-38944172D01*
X47114680Y-39477506D02*
X47114680Y-40010839D01*
X47914680Y-39667982D01*
G04 #@! TO.C,C501*
X14913818Y-114660774D02*
X14951913Y-114698869D01*
X15066199Y-114736964D01*
X15142389Y-114736964D01*
X15256675Y-114698869D01*
X15332865Y-114622679D01*
X15370960Y-114546488D01*
X15409056Y-114394107D01*
X15409056Y-114279821D01*
X15370960Y-114127440D01*
X15332865Y-114051250D01*
X15256675Y-113975060D01*
X15142389Y-113936964D01*
X15066199Y-113936964D01*
X14951913Y-113975060D01*
X14913818Y-114013155D01*
X14190008Y-113936964D02*
X14570960Y-113936964D01*
X14609056Y-114317917D01*
X14570960Y-114279821D01*
X14494770Y-114241726D01*
X14304294Y-114241726D01*
X14228103Y-114279821D01*
X14190008Y-114317917D01*
X14151913Y-114394107D01*
X14151913Y-114584583D01*
X14190008Y-114660774D01*
X14228103Y-114698869D01*
X14304294Y-114736964D01*
X14494770Y-114736964D01*
X14570960Y-114698869D01*
X14609056Y-114660774D01*
X13656675Y-113936964D02*
X13580484Y-113936964D01*
X13504294Y-113975060D01*
X13466199Y-114013155D01*
X13428103Y-114089345D01*
X13390008Y-114241726D01*
X13390008Y-114432202D01*
X13428103Y-114584583D01*
X13466199Y-114660774D01*
X13504294Y-114698869D01*
X13580484Y-114736964D01*
X13656675Y-114736964D01*
X13732865Y-114698869D01*
X13770960Y-114660774D01*
X13809056Y-114584583D01*
X13847151Y-114432202D01*
X13847151Y-114241726D01*
X13809056Y-114089345D01*
X13770960Y-114013155D01*
X13732865Y-113975060D01*
X13656675Y-113936964D01*
X12628103Y-114736964D02*
X13085246Y-114736964D01*
X12856675Y-114736964D02*
X12856675Y-113936964D01*
X12932865Y-114051250D01*
X13009056Y-114127440D01*
X13085246Y-114165536D01*
G04 #@! TO.C,C502*
X14763818Y-109410774D02*
X14801913Y-109448869D01*
X14916199Y-109486964D01*
X14992389Y-109486964D01*
X15106675Y-109448869D01*
X15182865Y-109372679D01*
X15220960Y-109296488D01*
X15259056Y-109144107D01*
X15259056Y-109029821D01*
X15220960Y-108877440D01*
X15182865Y-108801250D01*
X15106675Y-108725060D01*
X14992389Y-108686964D01*
X14916199Y-108686964D01*
X14801913Y-108725060D01*
X14763818Y-108763155D01*
X14040008Y-108686964D02*
X14420960Y-108686964D01*
X14459056Y-109067917D01*
X14420960Y-109029821D01*
X14344770Y-108991726D01*
X14154294Y-108991726D01*
X14078103Y-109029821D01*
X14040008Y-109067917D01*
X14001913Y-109144107D01*
X14001913Y-109334583D01*
X14040008Y-109410774D01*
X14078103Y-109448869D01*
X14154294Y-109486964D01*
X14344770Y-109486964D01*
X14420960Y-109448869D01*
X14459056Y-109410774D01*
X13506675Y-108686964D02*
X13430484Y-108686964D01*
X13354294Y-108725060D01*
X13316199Y-108763155D01*
X13278103Y-108839345D01*
X13240008Y-108991726D01*
X13240008Y-109182202D01*
X13278103Y-109334583D01*
X13316199Y-109410774D01*
X13354294Y-109448869D01*
X13430484Y-109486964D01*
X13506675Y-109486964D01*
X13582865Y-109448869D01*
X13620960Y-109410774D01*
X13659056Y-109334583D01*
X13697151Y-109182202D01*
X13697151Y-108991726D01*
X13659056Y-108839345D01*
X13620960Y-108763155D01*
X13582865Y-108725060D01*
X13506675Y-108686964D01*
X12935246Y-108763155D02*
X12897151Y-108725060D01*
X12820960Y-108686964D01*
X12630484Y-108686964D01*
X12554294Y-108725060D01*
X12516199Y-108763155D01*
X12478103Y-108839345D01*
X12478103Y-108915536D01*
X12516199Y-109029821D01*
X12973341Y-109486964D01*
X12478103Y-109486964D01*
G04 #@! TO.C,C505*
X13395238Y-122472674D02*
X13433333Y-122510769D01*
X13547619Y-122548864D01*
X13623809Y-122548864D01*
X13738095Y-122510769D01*
X13814285Y-122434579D01*
X13852380Y-122358388D01*
X13890476Y-122206007D01*
X13890476Y-122091721D01*
X13852380Y-121939340D01*
X13814285Y-121863150D01*
X13738095Y-121786960D01*
X13623809Y-121748864D01*
X13547619Y-121748864D01*
X13433333Y-121786960D01*
X13395238Y-121825055D01*
X12671428Y-121748864D02*
X13052380Y-121748864D01*
X13090476Y-122129817D01*
X13052380Y-122091721D01*
X12976190Y-122053626D01*
X12785714Y-122053626D01*
X12709523Y-122091721D01*
X12671428Y-122129817D01*
X12633333Y-122206007D01*
X12633333Y-122396483D01*
X12671428Y-122472674D01*
X12709523Y-122510769D01*
X12785714Y-122548864D01*
X12976190Y-122548864D01*
X13052380Y-122510769D01*
X13090476Y-122472674D01*
X12138095Y-121748864D02*
X12061904Y-121748864D01*
X11985714Y-121786960D01*
X11947619Y-121825055D01*
X11909523Y-121901245D01*
X11871428Y-122053626D01*
X11871428Y-122244102D01*
X11909523Y-122396483D01*
X11947619Y-122472674D01*
X11985714Y-122510769D01*
X12061904Y-122548864D01*
X12138095Y-122548864D01*
X12214285Y-122510769D01*
X12252380Y-122472674D01*
X12290476Y-122396483D01*
X12328571Y-122244102D01*
X12328571Y-122053626D01*
X12290476Y-121901245D01*
X12252380Y-121825055D01*
X12214285Y-121786960D01*
X12138095Y-121748864D01*
X11147619Y-121748864D02*
X11528571Y-121748864D01*
X11566666Y-122129817D01*
X11528571Y-122091721D01*
X11452380Y-122053626D01*
X11261904Y-122053626D01*
X11185714Y-122091721D01*
X11147619Y-122129817D01*
X11109523Y-122206007D01*
X11109523Y-122396483D01*
X11147619Y-122472674D01*
X11185714Y-122510769D01*
X11261904Y-122548864D01*
X11452380Y-122548864D01*
X11528571Y-122510769D01*
X11566666Y-122472674D01*
G04 #@! TO.C,C1305*
X61375714Y-4283809D02*
X61413809Y-4245714D01*
X61451904Y-4131428D01*
X61451904Y-4055238D01*
X61413809Y-3940952D01*
X61337619Y-3864761D01*
X61261428Y-3826666D01*
X61109047Y-3788571D01*
X60994761Y-3788571D01*
X60842380Y-3826666D01*
X60766190Y-3864761D01*
X60690000Y-3940952D01*
X60651904Y-4055238D01*
X60651904Y-4131428D01*
X60690000Y-4245714D01*
X60728095Y-4283809D01*
X61451904Y-5045714D02*
X61451904Y-4588571D01*
X61451904Y-4817142D02*
X60651904Y-4817142D01*
X60766190Y-4740952D01*
X60842380Y-4664761D01*
X60880476Y-4588571D01*
X60651904Y-5312380D02*
X60651904Y-5807619D01*
X60956666Y-5540952D01*
X60956666Y-5655238D01*
X60994761Y-5731428D01*
X61032857Y-5769523D01*
X61109047Y-5807619D01*
X61299523Y-5807619D01*
X61375714Y-5769523D01*
X61413809Y-5731428D01*
X61451904Y-5655238D01*
X61451904Y-5426666D01*
X61413809Y-5350476D01*
X61375714Y-5312380D01*
X60651904Y-6302857D02*
X60651904Y-6379047D01*
X60690000Y-6455238D01*
X60728095Y-6493333D01*
X60804285Y-6531428D01*
X60956666Y-6569523D01*
X61147142Y-6569523D01*
X61299523Y-6531428D01*
X61375714Y-6493333D01*
X61413809Y-6455238D01*
X61451904Y-6379047D01*
X61451904Y-6302857D01*
X61413809Y-6226666D01*
X61375714Y-6188571D01*
X61299523Y-6150476D01*
X61147142Y-6112380D01*
X60956666Y-6112380D01*
X60804285Y-6150476D01*
X60728095Y-6188571D01*
X60690000Y-6226666D01*
X60651904Y-6302857D01*
X60651904Y-7293333D02*
X60651904Y-6912380D01*
X61032857Y-6874285D01*
X60994761Y-6912380D01*
X60956666Y-6988571D01*
X60956666Y-7179047D01*
X60994761Y-7255238D01*
X61032857Y-7293333D01*
X61109047Y-7331428D01*
X61299523Y-7331428D01*
X61375714Y-7293333D01*
X61413809Y-7255238D01*
X61451904Y-7179047D01*
X61451904Y-6988571D01*
X61413809Y-6912380D01*
X61375714Y-6874285D01*
G04 #@! TO.C,C1307*
X65506190Y-8645714D02*
X65544285Y-8683809D01*
X65658571Y-8721904D01*
X65734761Y-8721904D01*
X65849047Y-8683809D01*
X65925238Y-8607619D01*
X65963333Y-8531428D01*
X66001428Y-8379047D01*
X66001428Y-8264761D01*
X65963333Y-8112380D01*
X65925238Y-8036190D01*
X65849047Y-7960000D01*
X65734761Y-7921904D01*
X65658571Y-7921904D01*
X65544285Y-7960000D01*
X65506190Y-7998095D01*
X64744285Y-8721904D02*
X65201428Y-8721904D01*
X64972857Y-8721904D02*
X64972857Y-7921904D01*
X65049047Y-8036190D01*
X65125238Y-8112380D01*
X65201428Y-8150476D01*
X64477619Y-7921904D02*
X63982380Y-7921904D01*
X64249047Y-8226666D01*
X64134761Y-8226666D01*
X64058571Y-8264761D01*
X64020476Y-8302857D01*
X63982380Y-8379047D01*
X63982380Y-8569523D01*
X64020476Y-8645714D01*
X64058571Y-8683809D01*
X64134761Y-8721904D01*
X64363333Y-8721904D01*
X64439523Y-8683809D01*
X64477619Y-8645714D01*
X63487142Y-7921904D02*
X63410952Y-7921904D01*
X63334761Y-7960000D01*
X63296666Y-7998095D01*
X63258571Y-8074285D01*
X63220476Y-8226666D01*
X63220476Y-8417142D01*
X63258571Y-8569523D01*
X63296666Y-8645714D01*
X63334761Y-8683809D01*
X63410952Y-8721904D01*
X63487142Y-8721904D01*
X63563333Y-8683809D01*
X63601428Y-8645714D01*
X63639523Y-8569523D01*
X63677619Y-8417142D01*
X63677619Y-8226666D01*
X63639523Y-8074285D01*
X63601428Y-7998095D01*
X63563333Y-7960000D01*
X63487142Y-7921904D01*
X62953809Y-7921904D02*
X62420476Y-7921904D01*
X62763333Y-8721904D01*
G04 #@! TO.C,C1308*
X57285714Y-4923809D02*
X57323809Y-4885714D01*
X57361904Y-4771428D01*
X57361904Y-4695238D01*
X57323809Y-4580952D01*
X57247619Y-4504761D01*
X57171428Y-4466666D01*
X57019047Y-4428571D01*
X56904761Y-4428571D01*
X56752380Y-4466666D01*
X56676190Y-4504761D01*
X56600000Y-4580952D01*
X56561904Y-4695238D01*
X56561904Y-4771428D01*
X56600000Y-4885714D01*
X56638095Y-4923809D01*
X57361904Y-5685714D02*
X57361904Y-5228571D01*
X57361904Y-5457142D02*
X56561904Y-5457142D01*
X56676190Y-5380952D01*
X56752380Y-5304761D01*
X56790476Y-5228571D01*
X56561904Y-5952380D02*
X56561904Y-6447619D01*
X56866666Y-6180952D01*
X56866666Y-6295238D01*
X56904761Y-6371428D01*
X56942857Y-6409523D01*
X57019047Y-6447619D01*
X57209523Y-6447619D01*
X57285714Y-6409523D01*
X57323809Y-6371428D01*
X57361904Y-6295238D01*
X57361904Y-6066666D01*
X57323809Y-5990476D01*
X57285714Y-5952380D01*
X56561904Y-6942857D02*
X56561904Y-7019047D01*
X56600000Y-7095238D01*
X56638095Y-7133333D01*
X56714285Y-7171428D01*
X56866666Y-7209523D01*
X57057142Y-7209523D01*
X57209523Y-7171428D01*
X57285714Y-7133333D01*
X57323809Y-7095238D01*
X57361904Y-7019047D01*
X57361904Y-6942857D01*
X57323809Y-6866666D01*
X57285714Y-6828571D01*
X57209523Y-6790476D01*
X57057142Y-6752380D01*
X56866666Y-6752380D01*
X56714285Y-6790476D01*
X56638095Y-6828571D01*
X56600000Y-6866666D01*
X56561904Y-6942857D01*
X56904761Y-7666666D02*
X56866666Y-7590476D01*
X56828571Y-7552380D01*
X56752380Y-7514285D01*
X56714285Y-7514285D01*
X56638095Y-7552380D01*
X56600000Y-7590476D01*
X56561904Y-7666666D01*
X56561904Y-7819047D01*
X56600000Y-7895238D01*
X56638095Y-7933333D01*
X56714285Y-7971428D01*
X56752380Y-7971428D01*
X56828571Y-7933333D01*
X56866666Y-7895238D01*
X56904761Y-7819047D01*
X56904761Y-7666666D01*
X56942857Y-7590476D01*
X56980952Y-7552380D01*
X57057142Y-7514285D01*
X57209523Y-7514285D01*
X57285714Y-7552380D01*
X57323809Y-7590476D01*
X57361904Y-7666666D01*
X57361904Y-7819047D01*
X57323809Y-7895238D01*
X57285714Y-7933333D01*
X57209523Y-7971428D01*
X57057142Y-7971428D01*
X56980952Y-7933333D01*
X56942857Y-7895238D01*
X56904761Y-7819047D01*
G04 #@! TO.C,C1702*
X121076190Y-94485714D02*
X121114285Y-94523809D01*
X121228571Y-94561904D01*
X121304761Y-94561904D01*
X121419047Y-94523809D01*
X121495238Y-94447619D01*
X121533333Y-94371428D01*
X121571428Y-94219047D01*
X121571428Y-94104761D01*
X121533333Y-93952380D01*
X121495238Y-93876190D01*
X121419047Y-93800000D01*
X121304761Y-93761904D01*
X121228571Y-93761904D01*
X121114285Y-93800000D01*
X121076190Y-93838095D01*
X120314285Y-94561904D02*
X120771428Y-94561904D01*
X120542857Y-94561904D02*
X120542857Y-93761904D01*
X120619047Y-93876190D01*
X120695238Y-93952380D01*
X120771428Y-93990476D01*
X120047619Y-93761904D02*
X119514285Y-93761904D01*
X119857142Y-94561904D01*
X119057142Y-93761904D02*
X118980952Y-93761904D01*
X118904761Y-93800000D01*
X118866666Y-93838095D01*
X118828571Y-93914285D01*
X118790476Y-94066666D01*
X118790476Y-94257142D01*
X118828571Y-94409523D01*
X118866666Y-94485714D01*
X118904761Y-94523809D01*
X118980952Y-94561904D01*
X119057142Y-94561904D01*
X119133333Y-94523809D01*
X119171428Y-94485714D01*
X119209523Y-94409523D01*
X119247619Y-94257142D01*
X119247619Y-94066666D01*
X119209523Y-93914285D01*
X119171428Y-93838095D01*
X119133333Y-93800000D01*
X119057142Y-93761904D01*
X118485714Y-93838095D02*
X118447619Y-93800000D01*
X118371428Y-93761904D01*
X118180952Y-93761904D01*
X118104761Y-93800000D01*
X118066666Y-93838095D01*
X118028571Y-93914285D01*
X118028571Y-93990476D01*
X118066666Y-94104761D01*
X118523809Y-94561904D01*
X118028571Y-94561904D01*
G04 #@! TO.C,R402*
X34295238Y-22486904D02*
X34561904Y-22105952D01*
X34752380Y-22486904D02*
X34752380Y-21686904D01*
X34447619Y-21686904D01*
X34371428Y-21725000D01*
X34333333Y-21763095D01*
X34295238Y-21839285D01*
X34295238Y-21953571D01*
X34333333Y-22029761D01*
X34371428Y-22067857D01*
X34447619Y-22105952D01*
X34752380Y-22105952D01*
X33609523Y-21953571D02*
X33609523Y-22486904D01*
X33800000Y-21648809D02*
X33990476Y-22220238D01*
X33495238Y-22220238D01*
X33038095Y-21686904D02*
X32961904Y-21686904D01*
X32885714Y-21725000D01*
X32847619Y-21763095D01*
X32809523Y-21839285D01*
X32771428Y-21991666D01*
X32771428Y-22182142D01*
X32809523Y-22334523D01*
X32847619Y-22410714D01*
X32885714Y-22448809D01*
X32961904Y-22486904D01*
X33038095Y-22486904D01*
X33114285Y-22448809D01*
X33152380Y-22410714D01*
X33190476Y-22334523D01*
X33228571Y-22182142D01*
X33228571Y-21991666D01*
X33190476Y-21839285D01*
X33152380Y-21763095D01*
X33114285Y-21725000D01*
X33038095Y-21686904D01*
X32466666Y-21763095D02*
X32428571Y-21725000D01*
X32352380Y-21686904D01*
X32161904Y-21686904D01*
X32085714Y-21725000D01*
X32047619Y-21763095D01*
X32009523Y-21839285D01*
X32009523Y-21915476D01*
X32047619Y-22029761D01*
X32504761Y-22486904D01*
X32009523Y-22486904D01*
G04 #@! TO.C,R403*
X37420238Y-15336904D02*
X37686904Y-14955952D01*
X37877380Y-15336904D02*
X37877380Y-14536904D01*
X37572619Y-14536904D01*
X37496428Y-14575000D01*
X37458333Y-14613095D01*
X37420238Y-14689285D01*
X37420238Y-14803571D01*
X37458333Y-14879761D01*
X37496428Y-14917857D01*
X37572619Y-14955952D01*
X37877380Y-14955952D01*
X36734523Y-14803571D02*
X36734523Y-15336904D01*
X36925000Y-14498809D02*
X37115476Y-15070238D01*
X36620238Y-15070238D01*
X36163095Y-14536904D02*
X36086904Y-14536904D01*
X36010714Y-14575000D01*
X35972619Y-14613095D01*
X35934523Y-14689285D01*
X35896428Y-14841666D01*
X35896428Y-15032142D01*
X35934523Y-15184523D01*
X35972619Y-15260714D01*
X36010714Y-15298809D01*
X36086904Y-15336904D01*
X36163095Y-15336904D01*
X36239285Y-15298809D01*
X36277380Y-15260714D01*
X36315476Y-15184523D01*
X36353571Y-15032142D01*
X36353571Y-14841666D01*
X36315476Y-14689285D01*
X36277380Y-14613095D01*
X36239285Y-14575000D01*
X36163095Y-14536904D01*
X35629761Y-14536904D02*
X35134523Y-14536904D01*
X35401190Y-14841666D01*
X35286904Y-14841666D01*
X35210714Y-14879761D01*
X35172619Y-14917857D01*
X35134523Y-14994047D01*
X35134523Y-15184523D01*
X35172619Y-15260714D01*
X35210714Y-15298809D01*
X35286904Y-15336904D01*
X35515476Y-15336904D01*
X35591666Y-15298809D01*
X35629761Y-15260714D01*
G04 #@! TO.C,R404*
X43661904Y-24429761D02*
X43280952Y-24163095D01*
X43661904Y-23972619D02*
X42861904Y-23972619D01*
X42861904Y-24277380D01*
X42900000Y-24353571D01*
X42938095Y-24391666D01*
X43014285Y-24429761D01*
X43128571Y-24429761D01*
X43204761Y-24391666D01*
X43242857Y-24353571D01*
X43280952Y-24277380D01*
X43280952Y-23972619D01*
X43128571Y-25115476D02*
X43661904Y-25115476D01*
X42823809Y-24925000D02*
X43395238Y-24734523D01*
X43395238Y-25229761D01*
X42861904Y-25686904D02*
X42861904Y-25763095D01*
X42900000Y-25839285D01*
X42938095Y-25877380D01*
X43014285Y-25915476D01*
X43166666Y-25953571D01*
X43357142Y-25953571D01*
X43509523Y-25915476D01*
X43585714Y-25877380D01*
X43623809Y-25839285D01*
X43661904Y-25763095D01*
X43661904Y-25686904D01*
X43623809Y-25610714D01*
X43585714Y-25572619D01*
X43509523Y-25534523D01*
X43357142Y-25496428D01*
X43166666Y-25496428D01*
X43014285Y-25534523D01*
X42938095Y-25572619D01*
X42900000Y-25610714D01*
X42861904Y-25686904D01*
X43128571Y-26639285D02*
X43661904Y-26639285D01*
X42823809Y-26448809D02*
X43395238Y-26258333D01*
X43395238Y-26753571D01*
G04 #@! TO.C,R502*
X12005198Y-115362944D02*
X12271864Y-114981992D01*
X12462340Y-115362944D02*
X12462340Y-114562944D01*
X12157579Y-114562944D01*
X12081388Y-114601040D01*
X12043293Y-114639135D01*
X12005198Y-114715325D01*
X12005198Y-114829611D01*
X12043293Y-114905801D01*
X12081388Y-114943897D01*
X12157579Y-114981992D01*
X12462340Y-114981992D01*
X11281388Y-114562944D02*
X11662340Y-114562944D01*
X11700436Y-114943897D01*
X11662340Y-114905801D01*
X11586150Y-114867706D01*
X11395674Y-114867706D01*
X11319483Y-114905801D01*
X11281388Y-114943897D01*
X11243293Y-115020087D01*
X11243293Y-115210563D01*
X11281388Y-115286754D01*
X11319483Y-115324849D01*
X11395674Y-115362944D01*
X11586150Y-115362944D01*
X11662340Y-115324849D01*
X11700436Y-115286754D01*
X10748055Y-114562944D02*
X10671864Y-114562944D01*
X10595674Y-114601040D01*
X10557579Y-114639135D01*
X10519483Y-114715325D01*
X10481388Y-114867706D01*
X10481388Y-115058182D01*
X10519483Y-115210563D01*
X10557579Y-115286754D01*
X10595674Y-115324849D01*
X10671864Y-115362944D01*
X10748055Y-115362944D01*
X10824245Y-115324849D01*
X10862340Y-115286754D01*
X10900436Y-115210563D01*
X10938531Y-115058182D01*
X10938531Y-114867706D01*
X10900436Y-114715325D01*
X10862340Y-114639135D01*
X10824245Y-114601040D01*
X10748055Y-114562944D01*
X10176626Y-114639135D02*
X10138531Y-114601040D01*
X10062340Y-114562944D01*
X9871864Y-114562944D01*
X9795674Y-114601040D01*
X9757579Y-114639135D01*
X9719483Y-114715325D01*
X9719483Y-114791516D01*
X9757579Y-114905801D01*
X10214721Y-115362944D01*
X9719483Y-115362944D01*
G04 #@! TO.C,R604*
X72650238Y-85578904D02*
X72916904Y-85197952D01*
X73107380Y-85578904D02*
X73107380Y-84778904D01*
X72802619Y-84778904D01*
X72726428Y-84817000D01*
X72688333Y-84855095D01*
X72650238Y-84931285D01*
X72650238Y-85045571D01*
X72688333Y-85121761D01*
X72726428Y-85159857D01*
X72802619Y-85197952D01*
X73107380Y-85197952D01*
X71964523Y-84778904D02*
X72116904Y-84778904D01*
X72193095Y-84817000D01*
X72231190Y-84855095D01*
X72307380Y-84969380D01*
X72345476Y-85121761D01*
X72345476Y-85426523D01*
X72307380Y-85502714D01*
X72269285Y-85540809D01*
X72193095Y-85578904D01*
X72040714Y-85578904D01*
X71964523Y-85540809D01*
X71926428Y-85502714D01*
X71888333Y-85426523D01*
X71888333Y-85236047D01*
X71926428Y-85159857D01*
X71964523Y-85121761D01*
X72040714Y-85083666D01*
X72193095Y-85083666D01*
X72269285Y-85121761D01*
X72307380Y-85159857D01*
X72345476Y-85236047D01*
X71393095Y-84778904D02*
X71316904Y-84778904D01*
X71240714Y-84817000D01*
X71202619Y-84855095D01*
X71164523Y-84931285D01*
X71126428Y-85083666D01*
X71126428Y-85274142D01*
X71164523Y-85426523D01*
X71202619Y-85502714D01*
X71240714Y-85540809D01*
X71316904Y-85578904D01*
X71393095Y-85578904D01*
X71469285Y-85540809D01*
X71507380Y-85502714D01*
X71545476Y-85426523D01*
X71583571Y-85274142D01*
X71583571Y-85083666D01*
X71545476Y-84931285D01*
X71507380Y-84855095D01*
X71469285Y-84817000D01*
X71393095Y-84778904D01*
X70440714Y-85045571D02*
X70440714Y-85578904D01*
X70631190Y-84740809D02*
X70821666Y-85312238D01*
X70326428Y-85312238D01*
G04 #@! TO.C,R1009*
X106976190Y-6761904D02*
X107242857Y-6380952D01*
X107433333Y-6761904D02*
X107433333Y-5961904D01*
X107128571Y-5961904D01*
X107052380Y-6000000D01*
X107014285Y-6038095D01*
X106976190Y-6114285D01*
X106976190Y-6228571D01*
X107014285Y-6304761D01*
X107052380Y-6342857D01*
X107128571Y-6380952D01*
X107433333Y-6380952D01*
X106214285Y-6761904D02*
X106671428Y-6761904D01*
X106442857Y-6761904D02*
X106442857Y-5961904D01*
X106519047Y-6076190D01*
X106595238Y-6152380D01*
X106671428Y-6190476D01*
X105719047Y-5961904D02*
X105642857Y-5961904D01*
X105566666Y-6000000D01*
X105528571Y-6038095D01*
X105490476Y-6114285D01*
X105452380Y-6266666D01*
X105452380Y-6457142D01*
X105490476Y-6609523D01*
X105528571Y-6685714D01*
X105566666Y-6723809D01*
X105642857Y-6761904D01*
X105719047Y-6761904D01*
X105795238Y-6723809D01*
X105833333Y-6685714D01*
X105871428Y-6609523D01*
X105909523Y-6457142D01*
X105909523Y-6266666D01*
X105871428Y-6114285D01*
X105833333Y-6038095D01*
X105795238Y-6000000D01*
X105719047Y-5961904D01*
X104957142Y-5961904D02*
X104880952Y-5961904D01*
X104804761Y-6000000D01*
X104766666Y-6038095D01*
X104728571Y-6114285D01*
X104690476Y-6266666D01*
X104690476Y-6457142D01*
X104728571Y-6609523D01*
X104766666Y-6685714D01*
X104804761Y-6723809D01*
X104880952Y-6761904D01*
X104957142Y-6761904D01*
X105033333Y-6723809D01*
X105071428Y-6685714D01*
X105109523Y-6609523D01*
X105147619Y-6457142D01*
X105147619Y-6266666D01*
X105109523Y-6114285D01*
X105071428Y-6038095D01*
X105033333Y-6000000D01*
X104957142Y-5961904D01*
X104309523Y-6761904D02*
X104157142Y-6761904D01*
X104080952Y-6723809D01*
X104042857Y-6685714D01*
X103966666Y-6571428D01*
X103928571Y-6419047D01*
X103928571Y-6114285D01*
X103966666Y-6038095D01*
X104004761Y-6000000D01*
X104080952Y-5961904D01*
X104233333Y-5961904D01*
X104309523Y-6000000D01*
X104347619Y-6038095D01*
X104385714Y-6114285D01*
X104385714Y-6304761D01*
X104347619Y-6380952D01*
X104309523Y-6419047D01*
X104233333Y-6457142D01*
X104080952Y-6457142D01*
X104004761Y-6419047D01*
X103966666Y-6380952D01*
X103928571Y-6304761D01*
G04 #@! TO.C,R1010*
X106976190Y-14861904D02*
X107242857Y-14480952D01*
X107433333Y-14861904D02*
X107433333Y-14061904D01*
X107128571Y-14061904D01*
X107052380Y-14100000D01*
X107014285Y-14138095D01*
X106976190Y-14214285D01*
X106976190Y-14328571D01*
X107014285Y-14404761D01*
X107052380Y-14442857D01*
X107128571Y-14480952D01*
X107433333Y-14480952D01*
X106214285Y-14861904D02*
X106671428Y-14861904D01*
X106442857Y-14861904D02*
X106442857Y-14061904D01*
X106519047Y-14176190D01*
X106595238Y-14252380D01*
X106671428Y-14290476D01*
X105719047Y-14061904D02*
X105642857Y-14061904D01*
X105566666Y-14100000D01*
X105528571Y-14138095D01*
X105490476Y-14214285D01*
X105452380Y-14366666D01*
X105452380Y-14557142D01*
X105490476Y-14709523D01*
X105528571Y-14785714D01*
X105566666Y-14823809D01*
X105642857Y-14861904D01*
X105719047Y-14861904D01*
X105795238Y-14823809D01*
X105833333Y-14785714D01*
X105871428Y-14709523D01*
X105909523Y-14557142D01*
X105909523Y-14366666D01*
X105871428Y-14214285D01*
X105833333Y-14138095D01*
X105795238Y-14100000D01*
X105719047Y-14061904D01*
X104690476Y-14861904D02*
X105147619Y-14861904D01*
X104919047Y-14861904D02*
X104919047Y-14061904D01*
X104995238Y-14176190D01*
X105071428Y-14252380D01*
X105147619Y-14290476D01*
X104195238Y-14061904D02*
X104119047Y-14061904D01*
X104042857Y-14100000D01*
X104004761Y-14138095D01*
X103966666Y-14214285D01*
X103928571Y-14366666D01*
X103928571Y-14557142D01*
X103966666Y-14709523D01*
X104004761Y-14785714D01*
X104042857Y-14823809D01*
X104119047Y-14861904D01*
X104195238Y-14861904D01*
X104271428Y-14823809D01*
X104309523Y-14785714D01*
X104347619Y-14709523D01*
X104385714Y-14557142D01*
X104385714Y-14366666D01*
X104347619Y-14214285D01*
X104309523Y-14138095D01*
X104271428Y-14100000D01*
X104195238Y-14061904D01*
G04 #@! TO.C,R1305*
X80556190Y-5771904D02*
X80822857Y-5390952D01*
X81013333Y-5771904D02*
X81013333Y-4971904D01*
X80708571Y-4971904D01*
X80632380Y-5010000D01*
X80594285Y-5048095D01*
X80556190Y-5124285D01*
X80556190Y-5238571D01*
X80594285Y-5314761D01*
X80632380Y-5352857D01*
X80708571Y-5390952D01*
X81013333Y-5390952D01*
X79794285Y-5771904D02*
X80251428Y-5771904D01*
X80022857Y-5771904D02*
X80022857Y-4971904D01*
X80099047Y-5086190D01*
X80175238Y-5162380D01*
X80251428Y-5200476D01*
X79527619Y-4971904D02*
X79032380Y-4971904D01*
X79299047Y-5276666D01*
X79184761Y-5276666D01*
X79108571Y-5314761D01*
X79070476Y-5352857D01*
X79032380Y-5429047D01*
X79032380Y-5619523D01*
X79070476Y-5695714D01*
X79108571Y-5733809D01*
X79184761Y-5771904D01*
X79413333Y-5771904D01*
X79489523Y-5733809D01*
X79527619Y-5695714D01*
X78537142Y-4971904D02*
X78460952Y-4971904D01*
X78384761Y-5010000D01*
X78346666Y-5048095D01*
X78308571Y-5124285D01*
X78270476Y-5276666D01*
X78270476Y-5467142D01*
X78308571Y-5619523D01*
X78346666Y-5695714D01*
X78384761Y-5733809D01*
X78460952Y-5771904D01*
X78537142Y-5771904D01*
X78613333Y-5733809D01*
X78651428Y-5695714D01*
X78689523Y-5619523D01*
X78727619Y-5467142D01*
X78727619Y-5276666D01*
X78689523Y-5124285D01*
X78651428Y-5048095D01*
X78613333Y-5010000D01*
X78537142Y-4971904D01*
X77546666Y-4971904D02*
X77927619Y-4971904D01*
X77965714Y-5352857D01*
X77927619Y-5314761D01*
X77851428Y-5276666D01*
X77660952Y-5276666D01*
X77584761Y-5314761D01*
X77546666Y-5352857D01*
X77508571Y-5429047D01*
X77508571Y-5619523D01*
X77546666Y-5695714D01*
X77584761Y-5733809D01*
X77660952Y-5771904D01*
X77851428Y-5771904D01*
X77927619Y-5733809D01*
X77965714Y-5695714D01*
G04 #@! TO.C,R1306*
X80556190Y-4551904D02*
X80822857Y-4170952D01*
X81013333Y-4551904D02*
X81013333Y-3751904D01*
X80708571Y-3751904D01*
X80632380Y-3790000D01*
X80594285Y-3828095D01*
X80556190Y-3904285D01*
X80556190Y-4018571D01*
X80594285Y-4094761D01*
X80632380Y-4132857D01*
X80708571Y-4170952D01*
X81013333Y-4170952D01*
X79794285Y-4551904D02*
X80251428Y-4551904D01*
X80022857Y-4551904D02*
X80022857Y-3751904D01*
X80099047Y-3866190D01*
X80175238Y-3942380D01*
X80251428Y-3980476D01*
X79527619Y-3751904D02*
X79032380Y-3751904D01*
X79299047Y-4056666D01*
X79184761Y-4056666D01*
X79108571Y-4094761D01*
X79070476Y-4132857D01*
X79032380Y-4209047D01*
X79032380Y-4399523D01*
X79070476Y-4475714D01*
X79108571Y-4513809D01*
X79184761Y-4551904D01*
X79413333Y-4551904D01*
X79489523Y-4513809D01*
X79527619Y-4475714D01*
X78537142Y-3751904D02*
X78460952Y-3751904D01*
X78384761Y-3790000D01*
X78346666Y-3828095D01*
X78308571Y-3904285D01*
X78270476Y-4056666D01*
X78270476Y-4247142D01*
X78308571Y-4399523D01*
X78346666Y-4475714D01*
X78384761Y-4513809D01*
X78460952Y-4551904D01*
X78537142Y-4551904D01*
X78613333Y-4513809D01*
X78651428Y-4475714D01*
X78689523Y-4399523D01*
X78727619Y-4247142D01*
X78727619Y-4056666D01*
X78689523Y-3904285D01*
X78651428Y-3828095D01*
X78613333Y-3790000D01*
X78537142Y-3751904D01*
X77584761Y-3751904D02*
X77737142Y-3751904D01*
X77813333Y-3790000D01*
X77851428Y-3828095D01*
X77927619Y-3942380D01*
X77965714Y-4094761D01*
X77965714Y-4399523D01*
X77927619Y-4475714D01*
X77889523Y-4513809D01*
X77813333Y-4551904D01*
X77660952Y-4551904D01*
X77584761Y-4513809D01*
X77546666Y-4475714D01*
X77508571Y-4399523D01*
X77508571Y-4209047D01*
X77546666Y-4132857D01*
X77584761Y-4094761D01*
X77660952Y-4056666D01*
X77813333Y-4056666D01*
X77889523Y-4094761D01*
X77927619Y-4132857D01*
X77965714Y-4209047D01*
G04 #@! TO.C,R1307*
X75676190Y-9871904D02*
X75942857Y-9490952D01*
X76133333Y-9871904D02*
X76133333Y-9071904D01*
X75828571Y-9071904D01*
X75752380Y-9110000D01*
X75714285Y-9148095D01*
X75676190Y-9224285D01*
X75676190Y-9338571D01*
X75714285Y-9414761D01*
X75752380Y-9452857D01*
X75828571Y-9490952D01*
X76133333Y-9490952D01*
X74914285Y-9871904D02*
X75371428Y-9871904D01*
X75142857Y-9871904D02*
X75142857Y-9071904D01*
X75219047Y-9186190D01*
X75295238Y-9262380D01*
X75371428Y-9300476D01*
X74647619Y-9071904D02*
X74152380Y-9071904D01*
X74419047Y-9376666D01*
X74304761Y-9376666D01*
X74228571Y-9414761D01*
X74190476Y-9452857D01*
X74152380Y-9529047D01*
X74152380Y-9719523D01*
X74190476Y-9795714D01*
X74228571Y-9833809D01*
X74304761Y-9871904D01*
X74533333Y-9871904D01*
X74609523Y-9833809D01*
X74647619Y-9795714D01*
X73657142Y-9071904D02*
X73580952Y-9071904D01*
X73504761Y-9110000D01*
X73466666Y-9148095D01*
X73428571Y-9224285D01*
X73390476Y-9376666D01*
X73390476Y-9567142D01*
X73428571Y-9719523D01*
X73466666Y-9795714D01*
X73504761Y-9833809D01*
X73580952Y-9871904D01*
X73657142Y-9871904D01*
X73733333Y-9833809D01*
X73771428Y-9795714D01*
X73809523Y-9719523D01*
X73847619Y-9567142D01*
X73847619Y-9376666D01*
X73809523Y-9224285D01*
X73771428Y-9148095D01*
X73733333Y-9110000D01*
X73657142Y-9071904D01*
X73123809Y-9071904D02*
X72590476Y-9071904D01*
X72933333Y-9871904D01*
G04 #@! TO.C,R1502*
X19346190Y-62151904D02*
X19612857Y-61770952D01*
X19803333Y-62151904D02*
X19803333Y-61351904D01*
X19498571Y-61351904D01*
X19422380Y-61390000D01*
X19384285Y-61428095D01*
X19346190Y-61504285D01*
X19346190Y-61618571D01*
X19384285Y-61694761D01*
X19422380Y-61732857D01*
X19498571Y-61770952D01*
X19803333Y-61770952D01*
X18584285Y-62151904D02*
X19041428Y-62151904D01*
X18812857Y-62151904D02*
X18812857Y-61351904D01*
X18889047Y-61466190D01*
X18965238Y-61542380D01*
X19041428Y-61580476D01*
X17860476Y-61351904D02*
X18241428Y-61351904D01*
X18279523Y-61732857D01*
X18241428Y-61694761D01*
X18165238Y-61656666D01*
X17974761Y-61656666D01*
X17898571Y-61694761D01*
X17860476Y-61732857D01*
X17822380Y-61809047D01*
X17822380Y-61999523D01*
X17860476Y-62075714D01*
X17898571Y-62113809D01*
X17974761Y-62151904D01*
X18165238Y-62151904D01*
X18241428Y-62113809D01*
X18279523Y-62075714D01*
X17327142Y-61351904D02*
X17250952Y-61351904D01*
X17174761Y-61390000D01*
X17136666Y-61428095D01*
X17098571Y-61504285D01*
X17060476Y-61656666D01*
X17060476Y-61847142D01*
X17098571Y-61999523D01*
X17136666Y-62075714D01*
X17174761Y-62113809D01*
X17250952Y-62151904D01*
X17327142Y-62151904D01*
X17403333Y-62113809D01*
X17441428Y-62075714D01*
X17479523Y-61999523D01*
X17517619Y-61847142D01*
X17517619Y-61656666D01*
X17479523Y-61504285D01*
X17441428Y-61428095D01*
X17403333Y-61390000D01*
X17327142Y-61351904D01*
X16755714Y-61428095D02*
X16717619Y-61390000D01*
X16641428Y-61351904D01*
X16450952Y-61351904D01*
X16374761Y-61390000D01*
X16336666Y-61428095D01*
X16298571Y-61504285D01*
X16298571Y-61580476D01*
X16336666Y-61694761D01*
X16793809Y-62151904D01*
X16298571Y-62151904D01*
G04 #@! TO.C,R1506*
X82399190Y-121393904D02*
X82665857Y-121012952D01*
X82856333Y-121393904D02*
X82856333Y-120593904D01*
X82551571Y-120593904D01*
X82475380Y-120632000D01*
X82437285Y-120670095D01*
X82399190Y-120746285D01*
X82399190Y-120860571D01*
X82437285Y-120936761D01*
X82475380Y-120974857D01*
X82551571Y-121012952D01*
X82856333Y-121012952D01*
X81637285Y-121393904D02*
X82094428Y-121393904D01*
X81865857Y-121393904D02*
X81865857Y-120593904D01*
X81942047Y-120708190D01*
X82018238Y-120784380D01*
X82094428Y-120822476D01*
X80913476Y-120593904D02*
X81294428Y-120593904D01*
X81332523Y-120974857D01*
X81294428Y-120936761D01*
X81218238Y-120898666D01*
X81027761Y-120898666D01*
X80951571Y-120936761D01*
X80913476Y-120974857D01*
X80875380Y-121051047D01*
X80875380Y-121241523D01*
X80913476Y-121317714D01*
X80951571Y-121355809D01*
X81027761Y-121393904D01*
X81218238Y-121393904D01*
X81294428Y-121355809D01*
X81332523Y-121317714D01*
X80380142Y-120593904D02*
X80303952Y-120593904D01*
X80227761Y-120632000D01*
X80189666Y-120670095D01*
X80151571Y-120746285D01*
X80113476Y-120898666D01*
X80113476Y-121089142D01*
X80151571Y-121241523D01*
X80189666Y-121317714D01*
X80227761Y-121355809D01*
X80303952Y-121393904D01*
X80380142Y-121393904D01*
X80456333Y-121355809D01*
X80494428Y-121317714D01*
X80532523Y-121241523D01*
X80570619Y-121089142D01*
X80570619Y-120898666D01*
X80532523Y-120746285D01*
X80494428Y-120670095D01*
X80456333Y-120632000D01*
X80380142Y-120593904D01*
X79427761Y-120593904D02*
X79580142Y-120593904D01*
X79656333Y-120632000D01*
X79694428Y-120670095D01*
X79770619Y-120784380D01*
X79808714Y-120936761D01*
X79808714Y-121241523D01*
X79770619Y-121317714D01*
X79732523Y-121355809D01*
X79656333Y-121393904D01*
X79503952Y-121393904D01*
X79427761Y-121355809D01*
X79389666Y-121317714D01*
X79351571Y-121241523D01*
X79351571Y-121051047D01*
X79389666Y-120974857D01*
X79427761Y-120936761D01*
X79503952Y-120898666D01*
X79656333Y-120898666D01*
X79732523Y-120936761D01*
X79770619Y-120974857D01*
X79808714Y-121051047D01*
G04 #@! TO.C,R1507*
X15101904Y-34073809D02*
X14720952Y-33807142D01*
X15101904Y-33616666D02*
X14301904Y-33616666D01*
X14301904Y-33921428D01*
X14340000Y-33997619D01*
X14378095Y-34035714D01*
X14454285Y-34073809D01*
X14568571Y-34073809D01*
X14644761Y-34035714D01*
X14682857Y-33997619D01*
X14720952Y-33921428D01*
X14720952Y-33616666D01*
X15101904Y-34835714D02*
X15101904Y-34378571D01*
X15101904Y-34607142D02*
X14301904Y-34607142D01*
X14416190Y-34530952D01*
X14492380Y-34454761D01*
X14530476Y-34378571D01*
X14301904Y-35559523D02*
X14301904Y-35178571D01*
X14682857Y-35140476D01*
X14644761Y-35178571D01*
X14606666Y-35254761D01*
X14606666Y-35445238D01*
X14644761Y-35521428D01*
X14682857Y-35559523D01*
X14759047Y-35597619D01*
X14949523Y-35597619D01*
X15025714Y-35559523D01*
X15063809Y-35521428D01*
X15101904Y-35445238D01*
X15101904Y-35254761D01*
X15063809Y-35178571D01*
X15025714Y-35140476D01*
X14301904Y-36092857D02*
X14301904Y-36169047D01*
X14340000Y-36245238D01*
X14378095Y-36283333D01*
X14454285Y-36321428D01*
X14606666Y-36359523D01*
X14797142Y-36359523D01*
X14949523Y-36321428D01*
X15025714Y-36283333D01*
X15063809Y-36245238D01*
X15101904Y-36169047D01*
X15101904Y-36092857D01*
X15063809Y-36016666D01*
X15025714Y-35978571D01*
X14949523Y-35940476D01*
X14797142Y-35902380D01*
X14606666Y-35902380D01*
X14454285Y-35940476D01*
X14378095Y-35978571D01*
X14340000Y-36016666D01*
X14301904Y-36092857D01*
X14301904Y-36626190D02*
X14301904Y-37159523D01*
X15101904Y-36816666D01*
G04 #@! TO.C,R1508*
X10451904Y-28453809D02*
X10070952Y-28187142D01*
X10451904Y-27996666D02*
X9651904Y-27996666D01*
X9651904Y-28301428D01*
X9690000Y-28377619D01*
X9728095Y-28415714D01*
X9804285Y-28453809D01*
X9918571Y-28453809D01*
X9994761Y-28415714D01*
X10032857Y-28377619D01*
X10070952Y-28301428D01*
X10070952Y-27996666D01*
X10451904Y-29215714D02*
X10451904Y-28758571D01*
X10451904Y-28987142D02*
X9651904Y-28987142D01*
X9766190Y-28910952D01*
X9842380Y-28834761D01*
X9880476Y-28758571D01*
X9651904Y-29939523D02*
X9651904Y-29558571D01*
X10032857Y-29520476D01*
X9994761Y-29558571D01*
X9956666Y-29634761D01*
X9956666Y-29825238D01*
X9994761Y-29901428D01*
X10032857Y-29939523D01*
X10109047Y-29977619D01*
X10299523Y-29977619D01*
X10375714Y-29939523D01*
X10413809Y-29901428D01*
X10451904Y-29825238D01*
X10451904Y-29634761D01*
X10413809Y-29558571D01*
X10375714Y-29520476D01*
X9651904Y-30472857D02*
X9651904Y-30549047D01*
X9690000Y-30625238D01*
X9728095Y-30663333D01*
X9804285Y-30701428D01*
X9956666Y-30739523D01*
X10147142Y-30739523D01*
X10299523Y-30701428D01*
X10375714Y-30663333D01*
X10413809Y-30625238D01*
X10451904Y-30549047D01*
X10451904Y-30472857D01*
X10413809Y-30396666D01*
X10375714Y-30358571D01*
X10299523Y-30320476D01*
X10147142Y-30282380D01*
X9956666Y-30282380D01*
X9804285Y-30320476D01*
X9728095Y-30358571D01*
X9690000Y-30396666D01*
X9651904Y-30472857D01*
X9994761Y-31196666D02*
X9956666Y-31120476D01*
X9918571Y-31082380D01*
X9842380Y-31044285D01*
X9804285Y-31044285D01*
X9728095Y-31082380D01*
X9690000Y-31120476D01*
X9651904Y-31196666D01*
X9651904Y-31349047D01*
X9690000Y-31425238D01*
X9728095Y-31463333D01*
X9804285Y-31501428D01*
X9842380Y-31501428D01*
X9918571Y-31463333D01*
X9956666Y-31425238D01*
X9994761Y-31349047D01*
X9994761Y-31196666D01*
X10032857Y-31120476D01*
X10070952Y-31082380D01*
X10147142Y-31044285D01*
X10299523Y-31044285D01*
X10375714Y-31082380D01*
X10413809Y-31120476D01*
X10451904Y-31196666D01*
X10451904Y-31349047D01*
X10413809Y-31425238D01*
X10375714Y-31463333D01*
X10299523Y-31501428D01*
X10147142Y-31501428D01*
X10070952Y-31463333D01*
X10032857Y-31425238D01*
X9994761Y-31349047D01*
G04 #@! TO.C,R1702*
X121076190Y-97461904D02*
X121342857Y-97080952D01*
X121533333Y-97461904D02*
X121533333Y-96661904D01*
X121228571Y-96661904D01*
X121152380Y-96700000D01*
X121114285Y-96738095D01*
X121076190Y-96814285D01*
X121076190Y-96928571D01*
X121114285Y-97004761D01*
X121152380Y-97042857D01*
X121228571Y-97080952D01*
X121533333Y-97080952D01*
X120314285Y-97461904D02*
X120771428Y-97461904D01*
X120542857Y-97461904D02*
X120542857Y-96661904D01*
X120619047Y-96776190D01*
X120695238Y-96852380D01*
X120771428Y-96890476D01*
X120047619Y-96661904D02*
X119514285Y-96661904D01*
X119857142Y-97461904D01*
X119057142Y-96661904D02*
X118980952Y-96661904D01*
X118904761Y-96700000D01*
X118866666Y-96738095D01*
X118828571Y-96814285D01*
X118790476Y-96966666D01*
X118790476Y-97157142D01*
X118828571Y-97309523D01*
X118866666Y-97385714D01*
X118904761Y-97423809D01*
X118980952Y-97461904D01*
X119057142Y-97461904D01*
X119133333Y-97423809D01*
X119171428Y-97385714D01*
X119209523Y-97309523D01*
X119247619Y-97157142D01*
X119247619Y-96966666D01*
X119209523Y-96814285D01*
X119171428Y-96738095D01*
X119133333Y-96700000D01*
X119057142Y-96661904D01*
X118485714Y-96738095D02*
X118447619Y-96700000D01*
X118371428Y-96661904D01*
X118180952Y-96661904D01*
X118104761Y-96700000D01*
X118066666Y-96738095D01*
X118028571Y-96814285D01*
X118028571Y-96890476D01*
X118066666Y-97004761D01*
X118523809Y-97461904D01*
X118028571Y-97461904D01*
G04 #@! TO.C,R1005*
X91276190Y-5161904D02*
X91542857Y-4780952D01*
X91733333Y-5161904D02*
X91733333Y-4361904D01*
X91428571Y-4361904D01*
X91352380Y-4400000D01*
X91314285Y-4438095D01*
X91276190Y-4514285D01*
X91276190Y-4628571D01*
X91314285Y-4704761D01*
X91352380Y-4742857D01*
X91428571Y-4780952D01*
X91733333Y-4780952D01*
X90514285Y-5161904D02*
X90971428Y-5161904D01*
X90742857Y-5161904D02*
X90742857Y-4361904D01*
X90819047Y-4476190D01*
X90895238Y-4552380D01*
X90971428Y-4590476D01*
X90019047Y-4361904D02*
X89942857Y-4361904D01*
X89866666Y-4400000D01*
X89828571Y-4438095D01*
X89790476Y-4514285D01*
X89752380Y-4666666D01*
X89752380Y-4857142D01*
X89790476Y-5009523D01*
X89828571Y-5085714D01*
X89866666Y-5123809D01*
X89942857Y-5161904D01*
X90019047Y-5161904D01*
X90095238Y-5123809D01*
X90133333Y-5085714D01*
X90171428Y-5009523D01*
X90209523Y-4857142D01*
X90209523Y-4666666D01*
X90171428Y-4514285D01*
X90133333Y-4438095D01*
X90095238Y-4400000D01*
X90019047Y-4361904D01*
X89257142Y-4361904D02*
X89180952Y-4361904D01*
X89104761Y-4400000D01*
X89066666Y-4438095D01*
X89028571Y-4514285D01*
X88990476Y-4666666D01*
X88990476Y-4857142D01*
X89028571Y-5009523D01*
X89066666Y-5085714D01*
X89104761Y-5123809D01*
X89180952Y-5161904D01*
X89257142Y-5161904D01*
X89333333Y-5123809D01*
X89371428Y-5085714D01*
X89409523Y-5009523D01*
X89447619Y-4857142D01*
X89447619Y-4666666D01*
X89409523Y-4514285D01*
X89371428Y-4438095D01*
X89333333Y-4400000D01*
X89257142Y-4361904D01*
X88266666Y-4361904D02*
X88647619Y-4361904D01*
X88685714Y-4742857D01*
X88647619Y-4704761D01*
X88571428Y-4666666D01*
X88380952Y-4666666D01*
X88304761Y-4704761D01*
X88266666Y-4742857D01*
X88228571Y-4819047D01*
X88228571Y-5009523D01*
X88266666Y-5085714D01*
X88304761Y-5123809D01*
X88380952Y-5161904D01*
X88571428Y-5161904D01*
X88647619Y-5123809D01*
X88685714Y-5085714D01*
G04 #@! TO.C,R1006*
X91576190Y-16461904D02*
X91842857Y-16080952D01*
X92033333Y-16461904D02*
X92033333Y-15661904D01*
X91728571Y-15661904D01*
X91652380Y-15700000D01*
X91614285Y-15738095D01*
X91576190Y-15814285D01*
X91576190Y-15928571D01*
X91614285Y-16004761D01*
X91652380Y-16042857D01*
X91728571Y-16080952D01*
X92033333Y-16080952D01*
X90814285Y-16461904D02*
X91271428Y-16461904D01*
X91042857Y-16461904D02*
X91042857Y-15661904D01*
X91119047Y-15776190D01*
X91195238Y-15852380D01*
X91271428Y-15890476D01*
X90319047Y-15661904D02*
X90242857Y-15661904D01*
X90166666Y-15700000D01*
X90128571Y-15738095D01*
X90090476Y-15814285D01*
X90052380Y-15966666D01*
X90052380Y-16157142D01*
X90090476Y-16309523D01*
X90128571Y-16385714D01*
X90166666Y-16423809D01*
X90242857Y-16461904D01*
X90319047Y-16461904D01*
X90395238Y-16423809D01*
X90433333Y-16385714D01*
X90471428Y-16309523D01*
X90509523Y-16157142D01*
X90509523Y-15966666D01*
X90471428Y-15814285D01*
X90433333Y-15738095D01*
X90395238Y-15700000D01*
X90319047Y-15661904D01*
X89557142Y-15661904D02*
X89480952Y-15661904D01*
X89404761Y-15700000D01*
X89366666Y-15738095D01*
X89328571Y-15814285D01*
X89290476Y-15966666D01*
X89290476Y-16157142D01*
X89328571Y-16309523D01*
X89366666Y-16385714D01*
X89404761Y-16423809D01*
X89480952Y-16461904D01*
X89557142Y-16461904D01*
X89633333Y-16423809D01*
X89671428Y-16385714D01*
X89709523Y-16309523D01*
X89747619Y-16157142D01*
X89747619Y-15966666D01*
X89709523Y-15814285D01*
X89671428Y-15738095D01*
X89633333Y-15700000D01*
X89557142Y-15661904D01*
X88604761Y-15661904D02*
X88757142Y-15661904D01*
X88833333Y-15700000D01*
X88871428Y-15738095D01*
X88947619Y-15852380D01*
X88985714Y-16004761D01*
X88985714Y-16309523D01*
X88947619Y-16385714D01*
X88909523Y-16423809D01*
X88833333Y-16461904D01*
X88680952Y-16461904D01*
X88604761Y-16423809D01*
X88566666Y-16385714D01*
X88528571Y-16309523D01*
X88528571Y-16119047D01*
X88566666Y-16042857D01*
X88604761Y-16004761D01*
X88680952Y-15966666D01*
X88833333Y-15966666D01*
X88909523Y-16004761D01*
X88947619Y-16042857D01*
X88985714Y-16119047D01*
G04 #@! TO.C,R2003*
X90813844Y-96031209D02*
X90432892Y-95764542D01*
X90813844Y-95574066D02*
X90013844Y-95574066D01*
X90013844Y-95878828D01*
X90051940Y-95955019D01*
X90090035Y-95993114D01*
X90166225Y-96031209D01*
X90280511Y-96031209D01*
X90356701Y-95993114D01*
X90394797Y-95955019D01*
X90432892Y-95878828D01*
X90432892Y-95574066D01*
X90090035Y-96335971D02*
X90051940Y-96374066D01*
X90013844Y-96450257D01*
X90013844Y-96640733D01*
X90051940Y-96716923D01*
X90090035Y-96755019D01*
X90166225Y-96793114D01*
X90242416Y-96793114D01*
X90356701Y-96755019D01*
X90813844Y-96297876D01*
X90813844Y-96793114D01*
X90013844Y-97288352D02*
X90013844Y-97364542D01*
X90051940Y-97440733D01*
X90090035Y-97478828D01*
X90166225Y-97516923D01*
X90318606Y-97555019D01*
X90509082Y-97555019D01*
X90661463Y-97516923D01*
X90737654Y-97478828D01*
X90775749Y-97440733D01*
X90813844Y-97364542D01*
X90813844Y-97288352D01*
X90775749Y-97212161D01*
X90737654Y-97174066D01*
X90661463Y-97135971D01*
X90509082Y-97097876D01*
X90318606Y-97097876D01*
X90166225Y-97135971D01*
X90090035Y-97174066D01*
X90051940Y-97212161D01*
X90013844Y-97288352D01*
X90013844Y-98050257D02*
X90013844Y-98126447D01*
X90051940Y-98202638D01*
X90090035Y-98240733D01*
X90166225Y-98278828D01*
X90318606Y-98316923D01*
X90509082Y-98316923D01*
X90661463Y-98278828D01*
X90737654Y-98240733D01*
X90775749Y-98202638D01*
X90813844Y-98126447D01*
X90813844Y-98050257D01*
X90775749Y-97974066D01*
X90737654Y-97935971D01*
X90661463Y-97897876D01*
X90509082Y-97859780D01*
X90318606Y-97859780D01*
X90166225Y-97897876D01*
X90090035Y-97935971D01*
X90051940Y-97974066D01*
X90013844Y-98050257D01*
X90013844Y-98583590D02*
X90013844Y-99078828D01*
X90318606Y-98812161D01*
X90318606Y-98926447D01*
X90356701Y-99002638D01*
X90394797Y-99040733D01*
X90470987Y-99078828D01*
X90661463Y-99078828D01*
X90737654Y-99040733D01*
X90775749Y-99002638D01*
X90813844Y-98926447D01*
X90813844Y-98697876D01*
X90775749Y-98621685D01*
X90737654Y-98583590D01*
G04 #@! TO.C,R2004*
X88499904Y-96058809D02*
X88118952Y-95792142D01*
X88499904Y-95601666D02*
X87699904Y-95601666D01*
X87699904Y-95906428D01*
X87738000Y-95982619D01*
X87776095Y-96020714D01*
X87852285Y-96058809D01*
X87966571Y-96058809D01*
X88042761Y-96020714D01*
X88080857Y-95982619D01*
X88118952Y-95906428D01*
X88118952Y-95601666D01*
X87776095Y-96363571D02*
X87738000Y-96401666D01*
X87699904Y-96477857D01*
X87699904Y-96668333D01*
X87738000Y-96744523D01*
X87776095Y-96782619D01*
X87852285Y-96820714D01*
X87928476Y-96820714D01*
X88042761Y-96782619D01*
X88499904Y-96325476D01*
X88499904Y-96820714D01*
X87699904Y-97315952D02*
X87699904Y-97392142D01*
X87738000Y-97468333D01*
X87776095Y-97506428D01*
X87852285Y-97544523D01*
X88004666Y-97582619D01*
X88195142Y-97582619D01*
X88347523Y-97544523D01*
X88423714Y-97506428D01*
X88461809Y-97468333D01*
X88499904Y-97392142D01*
X88499904Y-97315952D01*
X88461809Y-97239761D01*
X88423714Y-97201666D01*
X88347523Y-97163571D01*
X88195142Y-97125476D01*
X88004666Y-97125476D01*
X87852285Y-97163571D01*
X87776095Y-97201666D01*
X87738000Y-97239761D01*
X87699904Y-97315952D01*
X87699904Y-98077857D02*
X87699904Y-98154047D01*
X87738000Y-98230238D01*
X87776095Y-98268333D01*
X87852285Y-98306428D01*
X88004666Y-98344523D01*
X88195142Y-98344523D01*
X88347523Y-98306428D01*
X88423714Y-98268333D01*
X88461809Y-98230238D01*
X88499904Y-98154047D01*
X88499904Y-98077857D01*
X88461809Y-98001666D01*
X88423714Y-97963571D01*
X88347523Y-97925476D01*
X88195142Y-97887380D01*
X88004666Y-97887380D01*
X87852285Y-97925476D01*
X87776095Y-97963571D01*
X87738000Y-98001666D01*
X87699904Y-98077857D01*
X87966571Y-99030238D02*
X88499904Y-99030238D01*
X87661809Y-98839761D02*
X88233238Y-98649285D01*
X88233238Y-99144523D01*
G04 #@! TO.C,P2101*
X111259666Y-119006380D02*
X111259666Y-118006380D01*
X110878714Y-118006380D01*
X110783476Y-118054000D01*
X110735857Y-118101619D01*
X110688238Y-118196857D01*
X110688238Y-118339714D01*
X110735857Y-118434952D01*
X110783476Y-118482571D01*
X110878714Y-118530190D01*
X111259666Y-118530190D01*
X110307285Y-118101619D02*
X110259666Y-118054000D01*
X110164428Y-118006380D01*
X109926333Y-118006380D01*
X109831095Y-118054000D01*
X109783476Y-118101619D01*
X109735857Y-118196857D01*
X109735857Y-118292095D01*
X109783476Y-118434952D01*
X110354904Y-119006380D01*
X109735857Y-119006380D01*
X108783476Y-119006380D02*
X109354904Y-119006380D01*
X109069190Y-119006380D02*
X109069190Y-118006380D01*
X109164428Y-118149238D01*
X109259666Y-118244476D01*
X109354904Y-118292095D01*
X108164428Y-118006380D02*
X108069190Y-118006380D01*
X107973952Y-118054000D01*
X107926333Y-118101619D01*
X107878714Y-118196857D01*
X107831095Y-118387333D01*
X107831095Y-118625428D01*
X107878714Y-118815904D01*
X107926333Y-118911142D01*
X107973952Y-118958761D01*
X108069190Y-119006380D01*
X108164428Y-119006380D01*
X108259666Y-118958761D01*
X108307285Y-118911142D01*
X108354904Y-118815904D01*
X108402523Y-118625428D01*
X108402523Y-118387333D01*
X108354904Y-118196857D01*
X108307285Y-118101619D01*
X108259666Y-118054000D01*
X108164428Y-118006380D01*
X106878714Y-119006380D02*
X107450142Y-119006380D01*
X107164428Y-119006380D02*
X107164428Y-118006380D01*
X107259666Y-118149238D01*
X107354904Y-118244476D01*
X107450142Y-118292095D01*
G04 #@! TO.C,U1505*
X14083556Y-36043460D02*
X14083556Y-36852984D01*
X14035937Y-36948222D01*
X13988318Y-36995841D01*
X13893080Y-37043460D01*
X13702603Y-37043460D01*
X13607365Y-36995841D01*
X13559746Y-36948222D01*
X13512127Y-36852984D01*
X13512127Y-36043460D01*
X12512127Y-37043460D02*
X13083556Y-37043460D01*
X12797841Y-37043460D02*
X12797841Y-36043460D01*
X12893079Y-36186318D01*
X12988318Y-36281556D01*
X13083556Y-36329175D01*
X11607365Y-36043460D02*
X12083556Y-36043460D01*
X12131175Y-36519651D01*
X12083556Y-36472032D01*
X11988318Y-36424413D01*
X11750222Y-36424413D01*
X11654984Y-36472032D01*
X11607365Y-36519651D01*
X11559746Y-36614889D01*
X11559746Y-36852984D01*
X11607365Y-36948222D01*
X11654984Y-36995841D01*
X11750222Y-37043460D01*
X11988318Y-37043460D01*
X12083556Y-36995841D01*
X12131175Y-36948222D01*
X10940699Y-36043460D02*
X10845460Y-36043460D01*
X10750222Y-36091080D01*
X10702603Y-36138699D01*
X10654984Y-36233937D01*
X10607365Y-36424413D01*
X10607365Y-36662508D01*
X10654984Y-36852984D01*
X10702603Y-36948222D01*
X10750222Y-36995841D01*
X10845460Y-37043460D01*
X10940699Y-37043460D01*
X11035937Y-36995841D01*
X11083556Y-36948222D01*
X11131175Y-36852984D01*
X11178794Y-36662508D01*
X11178794Y-36424413D01*
X11131175Y-36233937D01*
X11083556Y-36138699D01*
X11035937Y-36091080D01*
X10940699Y-36043460D01*
X9702603Y-36043460D02*
X10178794Y-36043460D01*
X10226413Y-36519651D01*
X10178794Y-36472032D01*
X10083556Y-36424413D01*
X9845460Y-36424413D01*
X9750222Y-36472032D01*
X9702603Y-36519651D01*
X9654984Y-36614889D01*
X9654984Y-36852984D01*
X9702603Y-36948222D01*
X9750222Y-36995841D01*
X9845460Y-37043460D01*
X10083556Y-37043460D01*
X10178794Y-36995841D01*
X10226413Y-36948222D01*
G04 #@! TO.C,U1506*
X17639556Y-41631460D02*
X17639556Y-42440984D01*
X17591937Y-42536222D01*
X17544318Y-42583841D01*
X17449080Y-42631460D01*
X17258603Y-42631460D01*
X17163365Y-42583841D01*
X17115746Y-42536222D01*
X17068127Y-42440984D01*
X17068127Y-41631460D01*
X16068127Y-42631460D02*
X16639556Y-42631460D01*
X16353841Y-42631460D02*
X16353841Y-41631460D01*
X16449079Y-41774318D01*
X16544318Y-41869556D01*
X16639556Y-41917175D01*
X15163365Y-41631460D02*
X15639556Y-41631460D01*
X15687175Y-42107651D01*
X15639556Y-42060032D01*
X15544318Y-42012413D01*
X15306222Y-42012413D01*
X15210984Y-42060032D01*
X15163365Y-42107651D01*
X15115746Y-42202889D01*
X15115746Y-42440984D01*
X15163365Y-42536222D01*
X15210984Y-42583841D01*
X15306222Y-42631460D01*
X15544318Y-42631460D01*
X15639556Y-42583841D01*
X15687175Y-42536222D01*
X14496699Y-41631460D02*
X14401460Y-41631460D01*
X14306222Y-41679080D01*
X14258603Y-41726699D01*
X14210984Y-41821937D01*
X14163365Y-42012413D01*
X14163365Y-42250508D01*
X14210984Y-42440984D01*
X14258603Y-42536222D01*
X14306222Y-42583841D01*
X14401460Y-42631460D01*
X14496699Y-42631460D01*
X14591937Y-42583841D01*
X14639556Y-42536222D01*
X14687175Y-42440984D01*
X14734794Y-42250508D01*
X14734794Y-42012413D01*
X14687175Y-41821937D01*
X14639556Y-41726699D01*
X14591937Y-41679080D01*
X14496699Y-41631460D01*
X13306222Y-41631460D02*
X13496699Y-41631460D01*
X13591937Y-41679080D01*
X13639556Y-41726699D01*
X13734794Y-41869556D01*
X13782413Y-42060032D01*
X13782413Y-42440984D01*
X13734794Y-42536222D01*
X13687175Y-42583841D01*
X13591937Y-42631460D01*
X13401460Y-42631460D01*
X13306222Y-42583841D01*
X13258603Y-42536222D01*
X13210984Y-42440984D01*
X13210984Y-42202889D01*
X13258603Y-42107651D01*
X13306222Y-42060032D01*
X13401460Y-42012413D01*
X13591937Y-42012413D01*
X13687175Y-42060032D01*
X13734794Y-42107651D01*
X13782413Y-42202889D01*
G04 #@! TO.C,R2329*
X73228318Y-105945460D02*
X73561651Y-105469270D01*
X73799746Y-105945460D02*
X73799746Y-104945460D01*
X73418794Y-104945460D01*
X73323556Y-104993080D01*
X73275937Y-105040699D01*
X73228318Y-105135937D01*
X73228318Y-105278794D01*
X73275937Y-105374032D01*
X73323556Y-105421651D01*
X73418794Y-105469270D01*
X73799746Y-105469270D01*
X72847365Y-105040699D02*
X72799746Y-104993080D01*
X72704508Y-104945460D01*
X72466413Y-104945460D01*
X72371175Y-104993080D01*
X72323556Y-105040699D01*
X72275937Y-105135937D01*
X72275937Y-105231175D01*
X72323556Y-105374032D01*
X72894984Y-105945460D01*
X72275937Y-105945460D01*
X71942603Y-104945460D02*
X71323556Y-104945460D01*
X71656889Y-105326413D01*
X71514032Y-105326413D01*
X71418794Y-105374032D01*
X71371175Y-105421651D01*
X71323556Y-105516889D01*
X71323556Y-105754984D01*
X71371175Y-105850222D01*
X71418794Y-105897841D01*
X71514032Y-105945460D01*
X71799746Y-105945460D01*
X71894984Y-105897841D01*
X71942603Y-105850222D01*
X70942603Y-105040699D02*
X70894984Y-104993080D01*
X70799746Y-104945460D01*
X70561651Y-104945460D01*
X70466413Y-104993080D01*
X70418794Y-105040699D01*
X70371175Y-105135937D01*
X70371175Y-105231175D01*
X70418794Y-105374032D01*
X70990222Y-105945460D01*
X70371175Y-105945460D01*
X69894984Y-105945460D02*
X69704508Y-105945460D01*
X69609270Y-105897841D01*
X69561651Y-105850222D01*
X69466413Y-105707365D01*
X69418794Y-105516889D01*
X69418794Y-105135937D01*
X69466413Y-105040699D01*
X69514032Y-104993080D01*
X69609270Y-104945460D01*
X69799746Y-104945460D01*
X69894984Y-104993080D01*
X69942603Y-105040699D01*
X69990222Y-105135937D01*
X69990222Y-105374032D01*
X69942603Y-105469270D01*
X69894984Y-105516889D01*
X69799746Y-105564508D01*
X69609270Y-105564508D01*
X69514032Y-105516889D01*
X69466413Y-105469270D01*
X69418794Y-105374032D01*
G04 #@! TO.C,R2330*
X73228318Y-107977460D02*
X73561651Y-107501270D01*
X73799746Y-107977460D02*
X73799746Y-106977460D01*
X73418794Y-106977460D01*
X73323556Y-107025080D01*
X73275937Y-107072699D01*
X73228318Y-107167937D01*
X73228318Y-107310794D01*
X73275937Y-107406032D01*
X73323556Y-107453651D01*
X73418794Y-107501270D01*
X73799746Y-107501270D01*
X72847365Y-107072699D02*
X72799746Y-107025080D01*
X72704508Y-106977460D01*
X72466413Y-106977460D01*
X72371175Y-107025080D01*
X72323556Y-107072699D01*
X72275937Y-107167937D01*
X72275937Y-107263175D01*
X72323556Y-107406032D01*
X72894984Y-107977460D01*
X72275937Y-107977460D01*
X71942603Y-106977460D02*
X71323556Y-106977460D01*
X71656889Y-107358413D01*
X71514032Y-107358413D01*
X71418794Y-107406032D01*
X71371175Y-107453651D01*
X71323556Y-107548889D01*
X71323556Y-107786984D01*
X71371175Y-107882222D01*
X71418794Y-107929841D01*
X71514032Y-107977460D01*
X71799746Y-107977460D01*
X71894984Y-107929841D01*
X71942603Y-107882222D01*
X70990222Y-106977460D02*
X70371175Y-106977460D01*
X70704508Y-107358413D01*
X70561651Y-107358413D01*
X70466413Y-107406032D01*
X70418794Y-107453651D01*
X70371175Y-107548889D01*
X70371175Y-107786984D01*
X70418794Y-107882222D01*
X70466413Y-107929841D01*
X70561651Y-107977460D01*
X70847365Y-107977460D01*
X70942603Y-107929841D01*
X70990222Y-107882222D01*
X69752127Y-106977460D02*
X69656889Y-106977460D01*
X69561651Y-107025080D01*
X69514032Y-107072699D01*
X69466413Y-107167937D01*
X69418794Y-107358413D01*
X69418794Y-107596508D01*
X69466413Y-107786984D01*
X69514032Y-107882222D01*
X69561651Y-107929841D01*
X69656889Y-107977460D01*
X69752127Y-107977460D01*
X69847365Y-107929841D01*
X69894984Y-107882222D01*
X69942603Y-107786984D01*
X69990222Y-107596508D01*
X69990222Y-107358413D01*
X69942603Y-107167937D01*
X69894984Y-107072699D01*
X69847365Y-107025080D01*
X69752127Y-106977460D01*
G04 #@! TO.C,R2331*
X73228318Y-112041460D02*
X73561651Y-111565270D01*
X73799746Y-112041460D02*
X73799746Y-111041460D01*
X73418794Y-111041460D01*
X73323556Y-111089080D01*
X73275937Y-111136699D01*
X73228318Y-111231937D01*
X73228318Y-111374794D01*
X73275937Y-111470032D01*
X73323556Y-111517651D01*
X73418794Y-111565270D01*
X73799746Y-111565270D01*
X72847365Y-111136699D02*
X72799746Y-111089080D01*
X72704508Y-111041460D01*
X72466413Y-111041460D01*
X72371175Y-111089080D01*
X72323556Y-111136699D01*
X72275937Y-111231937D01*
X72275937Y-111327175D01*
X72323556Y-111470032D01*
X72894984Y-112041460D01*
X72275937Y-112041460D01*
X71942603Y-111041460D02*
X71323556Y-111041460D01*
X71656889Y-111422413D01*
X71514032Y-111422413D01*
X71418794Y-111470032D01*
X71371175Y-111517651D01*
X71323556Y-111612889D01*
X71323556Y-111850984D01*
X71371175Y-111946222D01*
X71418794Y-111993841D01*
X71514032Y-112041460D01*
X71799746Y-112041460D01*
X71894984Y-111993841D01*
X71942603Y-111946222D01*
X70990222Y-111041460D02*
X70371175Y-111041460D01*
X70704508Y-111422413D01*
X70561651Y-111422413D01*
X70466413Y-111470032D01*
X70418794Y-111517651D01*
X70371175Y-111612889D01*
X70371175Y-111850984D01*
X70418794Y-111946222D01*
X70466413Y-111993841D01*
X70561651Y-112041460D01*
X70847365Y-112041460D01*
X70942603Y-111993841D01*
X70990222Y-111946222D01*
X69418794Y-112041460D02*
X69990222Y-112041460D01*
X69704508Y-112041460D02*
X69704508Y-111041460D01*
X69799746Y-111184318D01*
X69894984Y-111279556D01*
X69990222Y-111327175D01*
G04 #@! TO.C,R2332*
X73228318Y-110009460D02*
X73561651Y-109533270D01*
X73799746Y-110009460D02*
X73799746Y-109009460D01*
X73418794Y-109009460D01*
X73323556Y-109057080D01*
X73275937Y-109104699D01*
X73228318Y-109199937D01*
X73228318Y-109342794D01*
X73275937Y-109438032D01*
X73323556Y-109485651D01*
X73418794Y-109533270D01*
X73799746Y-109533270D01*
X72847365Y-109104699D02*
X72799746Y-109057080D01*
X72704508Y-109009460D01*
X72466413Y-109009460D01*
X72371175Y-109057080D01*
X72323556Y-109104699D01*
X72275937Y-109199937D01*
X72275937Y-109295175D01*
X72323556Y-109438032D01*
X72894984Y-110009460D01*
X72275937Y-110009460D01*
X71942603Y-109009460D02*
X71323556Y-109009460D01*
X71656889Y-109390413D01*
X71514032Y-109390413D01*
X71418794Y-109438032D01*
X71371175Y-109485651D01*
X71323556Y-109580889D01*
X71323556Y-109818984D01*
X71371175Y-109914222D01*
X71418794Y-109961841D01*
X71514032Y-110009460D01*
X71799746Y-110009460D01*
X71894984Y-109961841D01*
X71942603Y-109914222D01*
X70990222Y-109009460D02*
X70371175Y-109009460D01*
X70704508Y-109390413D01*
X70561651Y-109390413D01*
X70466413Y-109438032D01*
X70418794Y-109485651D01*
X70371175Y-109580889D01*
X70371175Y-109818984D01*
X70418794Y-109914222D01*
X70466413Y-109961841D01*
X70561651Y-110009460D01*
X70847365Y-110009460D01*
X70942603Y-109961841D01*
X70990222Y-109914222D01*
X69990222Y-109104699D02*
X69942603Y-109057080D01*
X69847365Y-109009460D01*
X69609270Y-109009460D01*
X69514032Y-109057080D01*
X69466413Y-109104699D01*
X69418794Y-109199937D01*
X69418794Y-109295175D01*
X69466413Y-109438032D01*
X70037841Y-110009460D01*
X69418794Y-110009460D01*
G04 #@! TD*
M02*
