G04 #@! TF.FileFunction,Soldermask,Top*
%FSLAX46Y46*%
G04 Gerber Fmt 4.6, Leading zero omitted, Abs format (unit mm)*
G04 Created by KiCad (PCBNEW 4.0.7) date 07/20/18 20:43:08*
%MOMM*%
%LPD*%
G01*
G04 APERTURE LIST*
%ADD10C,0.100000*%
%ADD11C,3.400000*%
%ADD12R,2.100000X2.100000*%
%ADD13O,2.100000X2.100000*%
%ADD14R,1.650000X1.900000*%
%ADD15R,1.900000X1.650000*%
%ADD16R,1.900000X1.700000*%
%ADD17R,1.000000X1.950000*%
%ADD18R,1.700000X1.900000*%
%ADD19R,1.850000X0.850000*%
%ADD20R,2.400000X2.000000*%
%ADD21R,3.700000X4.900000*%
%ADD22R,2.400000X2.100000*%
%ADD23R,1.300000X1.600000*%
%ADD24R,1.400000X1.400000*%
%ADD25R,2.100000X2.400000*%
%ADD26R,3.900000X3.900000*%
%ADD27C,2.100000*%
%ADD28R,2.050000X0.800000*%
%ADD29O,1.900000X1.500000*%
%ADD30O,2.100000X1.600000*%
%ADD31R,2.900000X1.830000*%
%ADD32R,7.900000X5.400000*%
%ADD33R,3.600000X3.100000*%
%ADD34R,0.650000X1.700000*%
%ADD35R,1.700000X0.650000*%
%ADD36R,0.900000X0.900000*%
%ADD37R,3.400000X3.000000*%
%ADD38R,0.750000X1.750000*%
%ADD39R,1.000000X2.600000*%
%ADD40R,3.850000X2.550000*%
%ADD41R,1.460000X1.050000*%
%ADD42R,1.960000X1.050000*%
%ADD43R,0.850000X1.450000*%
%ADD44R,1.295000X1.870000*%
%ADD45R,0.800000X1.900000*%
%ADD46C,1.400000*%
%ADD47O,1.400000X1.400000*%
%ADD48R,1.700000X1.700000*%
%ADD49R,1.700000X2.400000*%
%ADD50R,1.400000X1.100000*%
%ADD51R,2.200000X1.400000*%
%ADD52R,1.100000X1.400000*%
%ADD53C,8.100000*%
%ADD54C,1.100000*%
%ADD55R,3.400000X3.400000*%
%ADD56R,0.440000X1.740000*%
%ADD57R,5.660000X3.150000*%
%ADD58R,1.500000X0.700000*%
%ADD59C,1.700000*%
%ADD60C,2.584400*%
%ADD61C,1.808000*%
%ADD62R,3.000000X7.700000*%
%ADD63R,2.700000X3.900000*%
%ADD64R,2.400000X1.700000*%
%ADD65R,1.950000X1.700000*%
%ADD66R,1.950000X1.000000*%
%ADD67C,1.901140*%
%ADD68C,3.399740*%
%ADD69C,2.400000*%
%ADD70C,1.000000*%
%ADD71C,1.200000*%
G04 APERTURE END LIST*
D10*
D11*
X35770000Y-71325000D03*
X35770000Y-77675000D03*
X35770000Y-105295000D03*
X35770000Y-111645000D03*
D12*
X90683080Y-125227080D03*
D13*
X93223080Y-125227080D03*
D11*
X21040000Y-105295000D03*
X21040000Y-111645000D03*
D14*
X83800000Y-67250000D03*
X83800000Y-64750000D03*
D15*
X102050000Y-20400000D03*
X99550000Y-20400000D03*
X102050000Y-24900000D03*
X99550000Y-24900000D03*
D16*
X99450000Y-18500000D03*
X102150000Y-18500000D03*
D17*
X97405000Y-20950000D03*
X96135000Y-20950000D03*
X94865000Y-20950000D03*
X93595000Y-20950000D03*
X93595000Y-26350000D03*
X94865000Y-26350000D03*
X96135000Y-26350000D03*
X97405000Y-26350000D03*
D16*
X97350000Y-28700000D03*
X94650000Y-28700000D03*
X102150000Y-26800000D03*
X99450000Y-26800000D03*
X97350000Y-18500000D03*
X94650000Y-18500000D03*
X102150000Y-22300000D03*
X99450000Y-22300000D03*
X99450000Y-28700000D03*
X102150000Y-28700000D03*
D12*
X83560000Y-26950000D03*
D13*
X86100000Y-26950000D03*
X88640000Y-26950000D03*
D12*
X83560000Y-20350000D03*
D13*
X86100000Y-20350000D03*
X88640000Y-20350000D03*
D18*
X91700000Y-24750000D03*
X91700000Y-27450000D03*
X91700000Y-22650000D03*
X91700000Y-19950000D03*
D14*
X65830000Y-40440000D03*
X65830000Y-37940000D03*
X65830000Y-33840000D03*
X65830000Y-31340000D03*
X65830000Y-27240000D03*
X65830000Y-24740000D03*
X65830000Y-20640000D03*
X65830000Y-18140000D03*
D18*
X56910000Y-38080000D03*
X56910000Y-40780000D03*
X56910000Y-31480000D03*
X56910000Y-34180000D03*
X56910000Y-24880000D03*
X56910000Y-27580000D03*
X56910000Y-18280000D03*
X56910000Y-20980000D03*
D19*
X63390000Y-40225000D03*
X63390000Y-39575000D03*
X63390000Y-38925000D03*
X63390000Y-38275000D03*
X58990000Y-38275000D03*
X58990000Y-38925000D03*
X58990000Y-39575000D03*
X58990000Y-40225000D03*
X63390000Y-33625000D03*
X63390000Y-32975000D03*
X63390000Y-32325000D03*
X63390000Y-31675000D03*
X58990000Y-31675000D03*
X58990000Y-32325000D03*
X58990000Y-32975000D03*
X58990000Y-33625000D03*
X63390000Y-27025000D03*
X63390000Y-26375000D03*
X63390000Y-25725000D03*
X63390000Y-25075000D03*
X58990000Y-25075000D03*
X58990000Y-25725000D03*
X58990000Y-26375000D03*
X58990000Y-27025000D03*
X63390000Y-20425000D03*
X63390000Y-19775000D03*
X63390000Y-19125000D03*
X63390000Y-18475000D03*
X58990000Y-18475000D03*
X58990000Y-19125000D03*
X58990000Y-19775000D03*
X58990000Y-20425000D03*
D12*
X68590000Y-40150000D03*
D13*
X71130000Y-40150000D03*
X73670000Y-40150000D03*
D12*
X68590000Y-33550000D03*
D13*
X71130000Y-33550000D03*
X73670000Y-33550000D03*
D12*
X68590000Y-26950000D03*
D13*
X71130000Y-26950000D03*
X73670000Y-26950000D03*
D12*
X68590000Y-20350000D03*
D13*
X71130000Y-20350000D03*
X73670000Y-20350000D03*
D19*
X63390000Y-13825000D03*
X63390000Y-13175000D03*
X63390000Y-12525000D03*
X63390000Y-11875000D03*
X58990000Y-11875000D03*
X58990000Y-12525000D03*
X58990000Y-13175000D03*
X58990000Y-13825000D03*
D18*
X56910000Y-11680000D03*
X56910000Y-14380000D03*
D12*
X68590000Y-13750000D03*
D13*
X71130000Y-13750000D03*
X73670000Y-13750000D03*
D14*
X65830000Y-14040000D03*
X65830000Y-11540000D03*
D15*
X123000000Y-38300000D03*
X125500000Y-38300000D03*
X113050000Y-29350000D03*
X115550000Y-29350000D03*
X114450000Y-25550000D03*
X116950000Y-25550000D03*
X108800000Y-87550000D03*
X106300000Y-87550000D03*
D14*
X117350000Y-59150000D03*
X117350000Y-61650000D03*
X119250000Y-59150000D03*
X119250000Y-61650000D03*
X123200000Y-61800000D03*
X123200000Y-59300000D03*
D15*
X123000000Y-34500000D03*
X125500000Y-34500000D03*
D14*
X120350000Y-45500000D03*
X120350000Y-48000000D03*
D15*
X123000000Y-36400000D03*
X125500000Y-36400000D03*
X123000000Y-41400000D03*
X125500000Y-41400000D03*
X123000000Y-43950000D03*
X125500000Y-43950000D03*
D14*
X117900000Y-45500000D03*
X117900000Y-48000000D03*
X113800000Y-46900000D03*
X113800000Y-49400000D03*
D15*
X123000000Y-45800000D03*
X125500000Y-45800000D03*
D20*
X40250000Y-26350000D03*
X44250000Y-26350000D03*
D15*
X8000000Y-114850000D03*
X5500000Y-114850000D03*
X13800000Y-123650000D03*
X11300000Y-123650000D03*
D14*
X18729960Y-119771480D03*
X18729960Y-117271480D03*
D20*
X30400000Y-116650000D03*
X26400000Y-116650000D03*
D14*
X55631080Y-75875200D03*
X55631080Y-73375200D03*
X65506600Y-82255680D03*
X65506600Y-79755680D03*
D15*
X60243400Y-84399120D03*
X62743400Y-84399120D03*
D14*
X69088000Y-81768000D03*
X69088000Y-79268000D03*
D15*
X47462760Y-85468460D03*
X44962760Y-85468460D03*
X56133680Y-97353120D03*
X58633680Y-97353120D03*
X57688800Y-85580220D03*
X55188800Y-85580220D03*
D14*
X60838080Y-96489200D03*
X60838080Y-98989200D03*
D15*
X74150000Y-70400000D03*
X76650000Y-70400000D03*
D14*
X81600000Y-67850000D03*
X81600000Y-70350000D03*
X67871680Y-64623000D03*
X67871680Y-67123000D03*
D15*
X86950000Y-65800000D03*
X89450000Y-65800000D03*
D14*
X70215760Y-72747820D03*
X70215760Y-75247820D03*
D15*
X80817840Y-77973000D03*
X83317840Y-77973000D03*
D14*
X76300000Y-72850000D03*
X76300000Y-75350000D03*
X83600000Y-75350000D03*
X83600000Y-72850000D03*
D15*
X102050000Y-7200000D03*
X99550000Y-7200000D03*
X102050000Y-11700000D03*
X99550000Y-11700000D03*
X58850000Y-48500000D03*
X61350000Y-48500000D03*
X59050000Y-55200000D03*
X61550000Y-55200000D03*
D14*
X49700000Y-3050000D03*
X49700000Y-5550000D03*
D15*
X94350000Y-33800000D03*
X91850000Y-33800000D03*
X94350000Y-40500000D03*
X91850000Y-40500000D03*
X94350000Y-47000000D03*
X91850000Y-47000000D03*
X94350000Y-53600000D03*
X91850000Y-53600000D03*
D14*
X65830000Y-7440000D03*
X65830000Y-4940000D03*
X14800000Y-88400000D03*
X14800000Y-85900000D03*
X12950000Y-88400000D03*
X12950000Y-85900000D03*
X14200000Y-94400000D03*
X14200000Y-96900000D03*
X16100000Y-94400000D03*
X16100000Y-96900000D03*
X17230000Y-49050000D03*
X17230000Y-51550000D03*
X14127480Y-49054700D03*
X14127480Y-51554700D03*
X2890000Y-49050000D03*
X2890000Y-51550000D03*
X1016000Y-56114000D03*
X1016000Y-53614000D03*
X20750000Y-51550000D03*
X20750000Y-49050000D03*
D15*
X12800000Y-60700000D03*
X15300000Y-60700000D03*
D14*
X28239720Y-55672040D03*
X28239720Y-53172040D03*
X6106160Y-51648680D03*
X6106160Y-49148680D03*
X2670000Y-65750000D03*
X2670000Y-63250000D03*
X12192000Y-49042000D03*
X12192000Y-51542000D03*
D15*
X93500000Y-107950000D03*
X91000000Y-107950000D03*
D21*
X32100000Y-36350000D03*
X32100000Y-27550000D03*
D22*
X38050000Y-53600000D03*
X34050000Y-53600000D03*
D23*
X43550000Y-53700000D03*
X40250000Y-53700000D03*
D24*
X36050000Y-57750000D03*
X38550000Y-57750000D03*
D22*
X34900000Y-121200000D03*
X38900000Y-121200000D03*
D23*
X41460960Y-123634760D03*
X44760960Y-123634760D03*
D22*
X77438000Y-85217000D03*
X73438000Y-85217000D03*
D23*
X68949840Y-88300560D03*
X65649840Y-88300560D03*
D25*
X58552080Y-117824000D03*
X58552080Y-113824000D03*
D24*
X62829440Y-96448560D03*
X62829440Y-98948560D03*
D25*
X74100000Y-48750000D03*
X74100000Y-44750000D03*
X74100000Y-51600000D03*
X74100000Y-55600000D03*
D26*
X110250000Y-102900000D03*
X117050000Y-102900000D03*
D27*
X38410000Y-12450000D03*
D13*
X40950000Y-12450000D03*
D27*
X93726000Y-117729000D03*
D13*
X93726000Y-115189000D03*
X96266000Y-117729000D03*
X96266000Y-115189000D03*
X98806000Y-117729000D03*
D12*
X98806000Y-115189000D03*
D28*
X121270000Y-112380000D03*
X121270000Y-111730000D03*
X121270000Y-111080000D03*
X121270000Y-110430000D03*
X121270000Y-109780000D03*
D29*
X121150000Y-113500000D03*
X121150000Y-108660000D03*
D30*
X124150000Y-113810000D03*
X124150000Y-108350000D03*
D31*
X124390000Y-112040000D03*
X124390000Y-110120000D03*
D25*
X101600000Y-92170000D03*
X101600000Y-88170000D03*
D32*
X32450000Y-45775000D03*
X45950000Y-45775000D03*
D22*
X65294760Y-84526120D03*
X69294760Y-84526120D03*
D25*
X57807860Y-90006420D03*
X57807860Y-94006420D03*
D16*
X116950000Y-27400000D03*
X114250000Y-27400000D03*
X117250000Y-21250000D03*
X114550000Y-21250000D03*
X109000000Y-85450000D03*
X106300000Y-85450000D03*
D18*
X103550000Y-84550000D03*
X103550000Y-81850000D03*
X103550000Y-73050000D03*
X103550000Y-75750000D03*
D16*
X103450000Y-79750000D03*
X100750000Y-79750000D03*
X103450000Y-77800000D03*
X100750000Y-77800000D03*
X124750000Y-29300000D03*
X122050000Y-29300000D03*
X92376000Y-84074000D03*
X95076000Y-84074000D03*
X122050000Y-31200000D03*
X124750000Y-31200000D03*
D18*
X115400000Y-59150000D03*
X115400000Y-61850000D03*
X121250000Y-59150000D03*
X121250000Y-61850000D03*
D16*
X116868000Y-18077000D03*
X114168000Y-18077000D03*
X108192800Y-41743320D03*
X105492800Y-41743320D03*
X116868000Y-16177000D03*
X114168000Y-16177000D03*
X108192800Y-39843320D03*
X105492800Y-39843320D03*
X116868000Y-14277000D03*
X114168000Y-14277000D03*
X91106000Y-82042000D03*
X93806000Y-82042000D03*
D18*
X119250000Y-57000000D03*
X119250000Y-54300000D03*
D16*
X114168000Y-12327000D03*
X116868000Y-12327000D03*
X105492800Y-47443320D03*
X108192800Y-47443320D03*
X105492800Y-45543320D03*
X108192800Y-45543320D03*
X105492800Y-43643320D03*
X108192800Y-43643320D03*
D18*
X117300000Y-57000000D03*
X117300000Y-54300000D03*
X122300000Y-48000000D03*
X122300000Y-50700000D03*
D33*
X31175000Y-20425000D03*
X31175000Y-12525000D03*
D16*
X47180000Y-30100000D03*
X44480000Y-30100000D03*
X38300000Y-55800000D03*
X35600000Y-55800000D03*
X12434580Y-112727740D03*
X15134580Y-112727740D03*
X13850000Y-125600000D03*
X11150000Y-125600000D03*
X30041840Y-113223040D03*
X27341840Y-113223040D03*
X38550000Y-123600000D03*
X35850000Y-123600000D03*
X58246000Y-80645000D03*
X55546000Y-80645000D03*
X60173880Y-82296000D03*
X62873880Y-82296000D03*
X47506880Y-83428840D03*
X44806880Y-83428840D03*
X56074320Y-99395280D03*
X58774320Y-99395280D03*
X52698640Y-117896640D03*
X49998640Y-117896640D03*
D18*
X71755000Y-81233000D03*
X71755000Y-78533000D03*
D16*
X86850000Y-69600000D03*
X89550000Y-69600000D03*
X74215000Y-83058000D03*
X76915000Y-83058000D03*
X86850000Y-67700000D03*
X89550000Y-67700000D03*
X83367840Y-79973000D03*
X80667840Y-79973000D03*
X83317840Y-81973000D03*
X80617840Y-81973000D03*
D18*
X91700000Y-9450000D03*
X91700000Y-6750000D03*
X91700000Y-11550000D03*
X91700000Y-14250000D03*
D16*
X99450000Y-5300000D03*
X102150000Y-5300000D03*
X99450000Y-15500000D03*
X102150000Y-15500000D03*
X97350000Y-5300000D03*
X94650000Y-5300000D03*
X97350000Y-15500000D03*
X94650000Y-15500000D03*
X102150000Y-9100000D03*
X99450000Y-9100000D03*
X102150000Y-13600000D03*
X99450000Y-13600000D03*
D18*
X76400000Y-47250000D03*
X76400000Y-44550000D03*
X76400000Y-53150000D03*
X76400000Y-55850000D03*
D16*
X61450000Y-44700000D03*
X58750000Y-44700000D03*
X58750000Y-46600000D03*
X61450000Y-46600000D03*
X61550000Y-51400000D03*
X58850000Y-51400000D03*
X58850000Y-53300000D03*
X61550000Y-53300000D03*
X49838120Y-7808294D03*
X52538120Y-7808294D03*
X52548120Y-9668294D03*
X49848120Y-9668294D03*
X94450000Y-31900000D03*
X91750000Y-31900000D03*
X94450000Y-38500000D03*
X91750000Y-38500000D03*
X94450000Y-45100000D03*
X91750000Y-45100000D03*
X94450000Y-51700000D03*
X91750000Y-51700000D03*
D18*
X56910000Y-5080000D03*
X56910000Y-7780000D03*
X61493400Y-114702600D03*
X61493400Y-117402600D03*
X24018240Y-49002960D03*
X24018240Y-51702960D03*
X6700000Y-65800000D03*
X6700000Y-63100000D03*
X9660000Y-48950000D03*
X9660000Y-51650000D03*
X113800000Y-94700000D03*
X113800000Y-92000000D03*
D34*
X113250000Y-42700000D03*
X113750000Y-42700000D03*
X114250000Y-42700000D03*
X114750000Y-42700000D03*
X115250000Y-42700000D03*
X115750000Y-42700000D03*
X116250000Y-42700000D03*
X116750000Y-42700000D03*
X117250000Y-42700000D03*
X117750000Y-42700000D03*
X118250000Y-42700000D03*
X118750000Y-42700000D03*
D35*
X120350000Y-41100000D03*
X120350000Y-40600000D03*
X120350000Y-40100000D03*
X120350000Y-39600000D03*
X120350000Y-39100000D03*
X120350000Y-38600000D03*
X120350000Y-38100000D03*
X120350000Y-37600000D03*
X120350000Y-37100000D03*
X120350000Y-36600000D03*
X120350000Y-36100000D03*
X120350000Y-35600000D03*
D34*
X118750000Y-34000000D03*
X118250000Y-34000000D03*
X117750000Y-34000000D03*
X117250000Y-34000000D03*
X116750000Y-34000000D03*
X116250000Y-34000000D03*
X115750000Y-34000000D03*
X115250000Y-34000000D03*
X114750000Y-34000000D03*
X114250000Y-34000000D03*
X113750000Y-34000000D03*
X113250000Y-34000000D03*
D35*
X111650000Y-35600000D03*
X111650000Y-36100000D03*
X111650000Y-36600000D03*
X111650000Y-37100000D03*
X111650000Y-37600000D03*
X111650000Y-38100000D03*
X111650000Y-38600000D03*
X111650000Y-39100000D03*
X111650000Y-39600000D03*
X111650000Y-40100000D03*
X111650000Y-40600000D03*
X111650000Y-41100000D03*
D36*
X39200000Y-33275000D03*
X38450000Y-34025000D03*
X39950000Y-34025000D03*
X39950000Y-32525000D03*
X38450000Y-32525000D03*
D37*
X39200000Y-33275000D03*
D38*
X39200000Y-31050000D03*
X40800000Y-31050000D03*
X40000000Y-31050000D03*
X38400000Y-31050000D03*
X37600000Y-31050000D03*
X37600000Y-35500000D03*
X38400000Y-35500000D03*
X39200000Y-35500000D03*
X40000000Y-35500000D03*
X40800000Y-35500000D03*
D36*
X14325600Y-119331740D03*
X13575600Y-120081740D03*
X15075600Y-120081740D03*
X15075600Y-118581740D03*
X13575600Y-118581740D03*
D37*
X14325600Y-119331740D03*
D38*
X14325600Y-117106740D03*
X15925600Y-117106740D03*
X15125600Y-117106740D03*
X13525600Y-117106740D03*
X12725600Y-117106740D03*
X12725600Y-121556740D03*
X13525600Y-121556740D03*
X14325600Y-121556740D03*
X15125600Y-121556740D03*
X15925600Y-121556740D03*
D39*
X61991680Y-78210500D03*
X59451680Y-78210500D03*
D40*
X60721680Y-71910500D03*
D39*
X60721680Y-78210500D03*
X63261680Y-78210500D03*
X58181680Y-78210500D03*
X53870000Y-94487500D03*
X51330000Y-94487500D03*
D40*
X52600000Y-88187500D03*
D39*
X52600000Y-94487500D03*
X55140000Y-94487500D03*
X50060000Y-94487500D03*
D41*
X87200000Y-71550000D03*
X87200000Y-72500000D03*
X87200000Y-73450000D03*
X89400000Y-73450000D03*
X89400000Y-71550000D03*
D42*
X74342000Y-78806000D03*
X74342000Y-79756000D03*
X74342000Y-80706000D03*
X77042000Y-80706000D03*
X77042000Y-78806000D03*
X77042000Y-79756000D03*
D41*
X79500000Y-72850000D03*
X79500000Y-73800000D03*
X79500000Y-74750000D03*
X81700000Y-74750000D03*
X81700000Y-72850000D03*
X72100000Y-72750000D03*
X72100000Y-73700000D03*
X72100000Y-74650000D03*
X74300000Y-74650000D03*
X74300000Y-72750000D03*
D17*
X97405000Y-7750000D03*
X96135000Y-7750000D03*
X94865000Y-7750000D03*
X93595000Y-7750000D03*
X93595000Y-13150000D03*
X94865000Y-13150000D03*
X96135000Y-13150000D03*
X97405000Y-13150000D03*
D19*
X63390000Y-7225000D03*
X63390000Y-6575000D03*
X63390000Y-5925000D03*
X63390000Y-5275000D03*
X58990000Y-5275000D03*
X58990000Y-5925000D03*
X58990000Y-6575000D03*
X58990000Y-7225000D03*
D43*
X8585000Y-88710000D03*
X7935000Y-88710000D03*
X7285000Y-88710000D03*
X6635000Y-88710000D03*
X5985000Y-88710000D03*
X5335000Y-88710000D03*
X4685000Y-88710000D03*
X4035000Y-88710000D03*
X4035000Y-94260000D03*
X4685000Y-94260000D03*
X5335000Y-94260000D03*
X5985000Y-94260000D03*
X6635000Y-94260000D03*
X7285000Y-94260000D03*
X7935000Y-94260000D03*
X8585000Y-94260000D03*
D44*
X4967500Y-92220000D03*
X5862500Y-92220000D03*
X6757500Y-92220000D03*
X7652500Y-92220000D03*
X4967500Y-90750000D03*
X5862500Y-90750000D03*
X6757500Y-90750000D03*
X7652500Y-90750000D03*
D43*
X18572500Y-93760000D03*
X19222500Y-93760000D03*
X19872500Y-93760000D03*
X20522500Y-93760000D03*
X21172500Y-93760000D03*
X21822500Y-93760000D03*
X22472500Y-93760000D03*
X23122500Y-93760000D03*
X23122500Y-88210000D03*
X22472500Y-88210000D03*
X21822500Y-88210000D03*
X21172500Y-88210000D03*
X20522500Y-88210000D03*
X19872500Y-88210000D03*
X19222500Y-88210000D03*
X18572500Y-88210000D03*
D44*
X22190000Y-90250000D03*
X21295000Y-90250000D03*
X20400000Y-90250000D03*
X19505000Y-90250000D03*
X22190000Y-91720000D03*
X21295000Y-91720000D03*
X20400000Y-91720000D03*
X19505000Y-91720000D03*
D34*
X83050000Y-102150000D03*
X82550000Y-102150000D03*
X82050000Y-102150000D03*
X81550000Y-102150000D03*
X81050000Y-102150000D03*
X80550000Y-102150000D03*
X80050000Y-102150000D03*
X79550000Y-102150000D03*
X79050000Y-102150000D03*
X78550000Y-102150000D03*
X78050000Y-102150000D03*
X77550000Y-102150000D03*
D35*
X75950000Y-103750000D03*
X75950000Y-104250000D03*
X75950000Y-104750000D03*
X75950000Y-105250000D03*
X75950000Y-105750000D03*
X75950000Y-106250000D03*
X75950000Y-106750000D03*
X75950000Y-107250000D03*
X75950000Y-107750000D03*
X75950000Y-108250000D03*
X75950000Y-108750000D03*
X75950000Y-109250000D03*
D34*
X77550000Y-110850000D03*
X78050000Y-110850000D03*
X78550000Y-110850000D03*
X79050000Y-110850000D03*
X79550000Y-110850000D03*
X80050000Y-110850000D03*
X80550000Y-110850000D03*
X81050000Y-110850000D03*
X81550000Y-110850000D03*
X82050000Y-110850000D03*
X82550000Y-110850000D03*
X83050000Y-110850000D03*
D35*
X84650000Y-109250000D03*
X84650000Y-108750000D03*
X84650000Y-108250000D03*
X84650000Y-107750000D03*
X84650000Y-107250000D03*
X84650000Y-106750000D03*
X84650000Y-106250000D03*
X84650000Y-105750000D03*
X84650000Y-105250000D03*
X84650000Y-104750000D03*
X84650000Y-104250000D03*
X84650000Y-103750000D03*
D23*
X114360960Y-110279360D03*
X114360960Y-108079360D03*
X114386360Y-112575160D03*
X114386360Y-114775160D03*
D45*
X51550000Y-5630000D03*
X52200000Y-5630000D03*
X52850000Y-5630000D03*
X52850000Y-2970000D03*
X52200000Y-2970000D03*
X51550000Y-2970000D03*
D14*
X87435900Y-100515860D03*
X87435900Y-98015860D03*
X89408000Y-115463000D03*
X89408000Y-117963000D03*
X71900000Y-112000000D03*
X71900000Y-114500000D03*
D15*
X72049960Y-104373680D03*
X69549960Y-104373680D03*
X91007880Y-111368840D03*
X93507880Y-111368840D03*
D14*
X85435900Y-99165860D03*
X85435900Y-96665860D03*
X73800000Y-112000000D03*
X73800000Y-114500000D03*
D15*
X91000000Y-106100000D03*
X93500000Y-106100000D03*
X89387360Y-91866720D03*
X91887360Y-91866720D03*
D14*
X82550000Y-96881000D03*
X82550000Y-94381000D03*
D46*
X106290000Y-97230000D03*
D47*
X106290000Y-98500000D03*
D24*
X105020000Y-97230000D03*
D47*
X105020000Y-98500000D03*
D24*
X103750000Y-97230000D03*
D47*
X103750000Y-98500000D03*
X102480000Y-97230000D03*
X102480000Y-98500000D03*
X101210000Y-97230000D03*
X101210000Y-98500000D03*
D22*
X88749120Y-89435940D03*
X92749120Y-89435940D03*
D25*
X122500000Y-25850000D03*
X122500000Y-21850000D03*
D16*
X44480000Y-32100000D03*
X47180000Y-32100000D03*
X27362160Y-111008160D03*
X30062160Y-111008160D03*
D18*
X92024200Y-98799660D03*
X92024200Y-101499660D03*
X66500000Y-117400000D03*
X66500000Y-114700000D03*
D16*
X98500000Y-107200000D03*
X101200000Y-107200000D03*
D48*
X43130000Y-37025000D03*
X43130000Y-34725000D03*
D49*
X48630000Y-35875000D03*
D50*
X116400000Y-22800000D03*
X114800000Y-23800000D03*
X116400000Y-23800000D03*
X114800000Y-22800000D03*
D51*
X89635900Y-101365860D03*
X89635900Y-98865860D03*
D52*
X69600000Y-116500000D03*
X68600000Y-114900000D03*
X68600000Y-116500000D03*
X69600000Y-114900000D03*
D15*
X111994000Y-117856000D03*
X109494000Y-117856000D03*
D16*
X112221000Y-115951000D03*
X109521000Y-115951000D03*
X67395080Y-109733080D03*
X64695080Y-109733080D03*
X67350000Y-106150000D03*
X64650000Y-106150000D03*
X67350000Y-108000000D03*
X64650000Y-108000000D03*
D18*
X72850000Y-94900000D03*
X72850000Y-92200000D03*
X70972400Y-94888840D03*
X70972400Y-92188840D03*
X76650000Y-94900000D03*
X76650000Y-92200000D03*
X74750000Y-94900000D03*
X74750000Y-92200000D03*
D16*
X69100000Y-98700000D03*
X66400000Y-98700000D03*
X69100000Y-102400000D03*
X66400000Y-102400000D03*
X69100000Y-96850000D03*
X66400000Y-96850000D03*
X69100000Y-100550000D03*
X66400000Y-100550000D03*
D18*
X87350000Y-117900000D03*
X87350000Y-120600000D03*
X85450000Y-117900000D03*
X85450000Y-120600000D03*
X81650000Y-117900000D03*
X81650000Y-120600000D03*
X83550000Y-117900000D03*
X83550000Y-120600000D03*
D16*
X102790000Y-111252000D03*
X105490000Y-111252000D03*
X102790000Y-113157000D03*
X105490000Y-113157000D03*
X95600000Y-105250000D03*
X98300000Y-105250000D03*
X98472000Y-103251000D03*
X101172000Y-103251000D03*
X95551000Y-101219000D03*
X98251000Y-101219000D03*
D53*
X120650000Y-120650000D03*
D54*
X117850000Y-120650000D03*
X122629890Y-122629890D03*
X120650000Y-123450000D03*
X118670110Y-122629890D03*
X123450000Y-120650000D03*
X118670110Y-118670110D03*
X120650000Y-117850000D03*
X122629890Y-118670110D03*
D53*
X6350000Y-120650000D03*
D54*
X3550000Y-120650000D03*
X8329890Y-122629890D03*
X6350000Y-123450000D03*
X4370110Y-122629890D03*
X9150000Y-120650000D03*
X4370110Y-118670110D03*
X6350000Y-117850000D03*
X8329890Y-118670110D03*
D53*
X120650000Y-6350000D03*
D54*
X117850000Y-6350000D03*
X122629890Y-8329890D03*
X120650000Y-9150000D03*
X118670110Y-8329890D03*
X123450000Y-6350000D03*
X118670110Y-4370110D03*
X120650000Y-3550000D03*
X122629890Y-4370110D03*
D53*
X6350000Y-6350000D03*
D54*
X3550000Y-6350000D03*
X8329890Y-8329890D03*
X6350000Y-9150000D03*
X4370110Y-8329890D03*
X9150000Y-6350000D03*
X4370110Y-4370110D03*
X6350000Y-3550000D03*
X8329890Y-4370110D03*
D16*
X15200000Y-110750000D03*
X12500000Y-110750000D03*
X38600000Y-118750000D03*
X35900000Y-118750000D03*
D11*
X6310000Y-37375000D03*
D55*
X6310000Y-31025000D03*
D11*
X6310000Y-43725000D03*
D55*
X6310000Y-24675000D03*
D11*
X21040000Y-37375000D03*
D55*
X21040000Y-31025000D03*
D11*
X21040000Y-43725000D03*
D55*
X21040000Y-24675000D03*
D11*
X21040000Y-71325000D03*
X21040000Y-77675000D03*
X50500000Y-71325000D03*
X50500000Y-77675000D03*
X6310000Y-71325000D03*
X6310000Y-77675000D03*
X31175000Y-6310000D03*
D55*
X24825000Y-6310000D03*
D11*
X50500000Y-105295000D03*
X50500000Y-111645000D03*
X6310000Y-105295000D03*
X6310000Y-111645000D03*
D56*
X18155000Y-60315000D03*
X18805000Y-60315000D03*
X19455000Y-60315000D03*
X20105000Y-60315000D03*
X20755000Y-60315000D03*
X21405000Y-60315000D03*
X22055000Y-60315000D03*
X22705000Y-60315000D03*
X23355000Y-60315000D03*
X24005000Y-60315000D03*
X24655000Y-60315000D03*
X25305000Y-60315000D03*
X25305000Y-54715000D03*
X24655000Y-54715000D03*
X24005000Y-54715000D03*
X23355000Y-54715000D03*
X22705000Y-54715000D03*
X22055000Y-54715000D03*
X21405000Y-54715000D03*
X20755000Y-54715000D03*
X20105000Y-54715000D03*
X19455000Y-54715000D03*
X18805000Y-54715000D03*
X18155000Y-54715000D03*
D57*
X21730000Y-57515000D03*
D56*
X3425000Y-60315000D03*
X4075000Y-60315000D03*
X4725000Y-60315000D03*
X5375000Y-60315000D03*
X6025000Y-60315000D03*
X6675000Y-60315000D03*
X7325000Y-60315000D03*
X7975000Y-60315000D03*
X8625000Y-60315000D03*
X9275000Y-60315000D03*
X9925000Y-60315000D03*
X10575000Y-60315000D03*
X10575000Y-54715000D03*
X9925000Y-54715000D03*
X9275000Y-54715000D03*
X8625000Y-54715000D03*
X7975000Y-54715000D03*
X7325000Y-54715000D03*
X6675000Y-54715000D03*
X6025000Y-54715000D03*
X5375000Y-54715000D03*
X4725000Y-54715000D03*
X4075000Y-54715000D03*
X3425000Y-54715000D03*
D57*
X7000000Y-57515000D03*
D58*
X79415000Y-68500000D03*
X79415000Y-68000000D03*
X79415000Y-67500000D03*
X79415000Y-67000000D03*
X79415000Y-66500000D03*
X79415000Y-66000000D03*
X79415000Y-65500000D03*
X79415000Y-65000000D03*
X79415000Y-64500000D03*
X79415000Y-64000000D03*
X79415000Y-63500000D03*
X79415000Y-63000000D03*
X79415000Y-62500000D03*
X79415000Y-62000000D03*
X79415000Y-61500000D03*
X79415000Y-61000000D03*
X79415000Y-60500000D03*
X79415000Y-60000000D03*
X79415000Y-59500000D03*
X73715000Y-59500000D03*
X73715000Y-60000000D03*
X73715000Y-60500000D03*
X73715000Y-61000000D03*
X73715000Y-61500000D03*
X73715000Y-62000000D03*
X73715000Y-62500000D03*
X73715000Y-63000000D03*
X73715000Y-63500000D03*
X73715000Y-64000000D03*
X73715000Y-64500000D03*
X73715000Y-65000000D03*
X73715000Y-65500000D03*
X73715000Y-66000000D03*
X73715000Y-66500000D03*
X73715000Y-67000000D03*
X73715000Y-67500000D03*
X73715000Y-68000000D03*
X73715000Y-68500000D03*
D12*
X83560000Y-7150000D03*
D13*
X86100000Y-7150000D03*
X88640000Y-7150000D03*
D12*
X83560000Y-13750000D03*
D13*
X86100000Y-13750000D03*
X88640000Y-13750000D03*
D12*
X64490000Y-46750000D03*
D13*
X67030000Y-46750000D03*
X69570000Y-46750000D03*
D12*
X64490000Y-53350000D03*
D13*
X67030000Y-53350000D03*
X69570000Y-53350000D03*
D12*
X68590000Y-7150000D03*
D13*
X71130000Y-7150000D03*
X73670000Y-7150000D03*
D12*
X83560000Y-33550000D03*
D13*
X86100000Y-33550000D03*
X88640000Y-33550000D03*
D12*
X83560000Y-40150000D03*
D13*
X86100000Y-40150000D03*
X88640000Y-40150000D03*
D12*
X83560000Y-46750000D03*
D13*
X86100000Y-46750000D03*
X88640000Y-46750000D03*
D12*
X83560000Y-53350000D03*
D13*
X86100000Y-53350000D03*
X88640000Y-53350000D03*
D22*
X121550000Y-85600000D03*
X117550000Y-85600000D03*
D59*
X107211910Y-70855790D03*
X109751910Y-72125790D03*
X107211910Y-73395790D03*
X109751910Y-74665791D03*
X107211910Y-75935791D03*
X109751910Y-77205790D03*
X107211910Y-78475790D03*
X109751910Y-79745790D03*
D60*
X113051910Y-83175790D03*
X113051910Y-67425790D03*
D61*
X119480500Y-68974530D03*
X121000500Y-81624530D03*
X119480000Y-79086380D03*
X121000000Y-71516380D03*
D62*
X26060000Y-121800000D03*
X30760000Y-121800000D03*
D63*
X22050000Y-123600000D03*
X22050000Y-118200000D03*
D15*
X38550000Y-116900000D03*
X36050000Y-116900000D03*
D46*
X125650000Y-25550000D03*
X112458500Y-27368500D03*
X116713000Y-30988000D03*
X109537500Y-33464500D03*
X107759500Y-36195000D03*
X125700000Y-27100000D03*
X123190000Y-32969200D03*
X122491500Y-19685000D03*
X24800000Y-88200000D03*
X2200000Y-94250000D03*
X83312000Y-98615500D03*
D18*
X65491360Y-77204560D03*
X65491360Y-74504560D03*
D16*
X56018440Y-101384100D03*
X58718440Y-101384100D03*
D48*
X62851480Y-66215880D03*
X62851480Y-68515880D03*
D49*
X57351480Y-67365880D03*
D48*
X63105680Y-93356880D03*
X60805680Y-93356880D03*
D64*
X61955680Y-87856880D03*
D65*
X115825000Y-91150000D03*
X123775000Y-91150000D03*
X115825000Y-95650000D03*
X123775000Y-95650000D03*
D46*
X95377000Y-107950000D03*
D18*
X72150000Y-117900000D03*
X72150000Y-120600000D03*
X69037200Y-94791520D03*
X69037200Y-92091520D03*
X74050000Y-117900000D03*
X74050000Y-120600000D03*
X75950000Y-117900000D03*
X75950000Y-120600000D03*
X77850000Y-117900000D03*
X77850000Y-120600000D03*
X79750000Y-117900000D03*
X79750000Y-120600000D03*
X80450000Y-94900000D03*
X80450000Y-92200000D03*
X78550000Y-94900000D03*
X78550000Y-92200000D03*
X28194000Y-76470500D03*
X28194000Y-73770500D03*
X14859000Y-73041500D03*
X14859000Y-70341500D03*
D16*
X12320280Y-21965920D03*
X15020280Y-21965920D03*
X7827000Y-12827000D03*
X5127000Y-12827000D03*
D46*
X8128000Y-18034000D03*
D66*
X10736600Y-14188440D03*
X10736600Y-15458440D03*
X10736600Y-16728440D03*
X10736600Y-17998440D03*
X16136600Y-17998440D03*
X16136600Y-16728440D03*
X16136600Y-15458440D03*
X16136600Y-14188440D03*
D12*
X121660000Y-102850000D03*
D13*
X121660000Y-100310000D03*
X124200000Y-102850000D03*
X124200000Y-100310000D03*
D12*
X49750000Y-53250000D03*
D13*
X49750000Y-55790000D03*
D12*
X29184600Y-96941640D03*
D13*
X29184600Y-99481640D03*
D67*
X101980140Y-120901880D03*
X104520140Y-120901880D03*
X106552140Y-120901880D03*
X109092140Y-120901880D03*
D68*
X98932140Y-123568880D03*
X112648140Y-123568880D03*
D18*
X86995000Y-78439000D03*
X86995000Y-75739000D03*
D69*
X42600880Y-58602880D03*
X44836080Y-120578880D03*
X81285080Y-84536280D03*
X60584080Y-121086880D03*
X109783880Y-98734880D03*
D16*
X27357080Y-88397080D03*
X30057080Y-88397080D03*
X30057080Y-86619080D03*
X27357080Y-86619080D03*
X30057080Y-83063080D03*
X27357080Y-83063080D03*
X30057080Y-84841080D03*
X27357080Y-84841080D03*
D18*
X12959080Y-72983080D03*
X12959080Y-70283080D03*
X26167080Y-76539080D03*
X26167080Y-73839080D03*
D70*
X100150000Y-81900000D03*
X62097920Y-32171640D03*
X109347000Y-118999000D03*
X109474000Y-114681000D03*
X111709200Y-42316400D03*
X118821200Y-39776400D03*
X45720000Y-26352500D03*
X112903000Y-18034000D03*
X112903000Y-16192500D03*
X112776000Y-14287500D03*
X112776000Y-12319000D03*
X88265000Y-65659000D03*
X52578000Y-96393000D03*
X91821000Y-93027500D03*
X81470500Y-100203000D03*
X83566000Y-106743500D03*
X77089000Y-106299000D03*
D71*
X8763000Y-92329000D03*
X4064000Y-92202000D03*
X3937000Y-90678000D03*
X8636000Y-90678000D03*
D70*
X15875000Y-88392000D03*
X123698000Y-92392500D03*
X115570000Y-92329000D03*
X119126000Y-48006000D03*
D71*
X18288000Y-91757500D03*
X17335500Y-94234000D03*
X23177500Y-90487500D03*
X23368000Y-91757500D03*
D70*
X113284000Y-25654000D03*
X74342000Y-79756000D03*
X91757500Y-55054500D03*
X91821000Y-48260000D03*
X91630500Y-42164000D03*
X91757500Y-35052000D03*
X121539000Y-84201000D03*
X105156000Y-87503000D03*
X123190000Y-58039000D03*
X113792000Y-50673000D03*
X113030000Y-30480000D03*
X90805000Y-118110000D03*
X95123000Y-111379000D03*
X82550000Y-109728000D03*
X3556000Y-12827000D03*
X77465000Y-66000000D03*
X75692000Y-64516000D03*
X75692000Y-60325000D03*
X75692000Y-67000000D03*
X77470000Y-60325000D03*
X77465000Y-64500000D03*
X119925000Y-109800000D03*
D59*
X23000000Y-115600000D03*
D70*
X69469000Y-105410000D03*
X93472000Y-107061000D03*
X88265000Y-97917000D03*
X84455000Y-96647000D03*
X83693000Y-94361000D03*
X105460800Y-46502320D03*
X105460800Y-44597320D03*
X105460800Y-42692320D03*
X105460800Y-40787320D03*
X86487000Y-72517000D03*
X84201000Y-77978000D03*
X84455000Y-75311000D03*
X65676780Y-87200740D03*
X78740000Y-73787000D03*
X71120000Y-75565000D03*
X71755000Y-77216000D03*
X69088000Y-77978000D03*
X71374000Y-73660000D03*
X77297280Y-75316080D03*
X50007520Y-116758720D03*
X44761960Y-124747280D03*
X13159740Y-49004220D03*
X2032000Y-56134000D03*
X40248840Y-54792880D03*
X38557200Y-58755280D03*
X74904600Y-114498120D03*
X62628780Y-99982020D03*
X60845700Y-100241100D03*
X61917580Y-89258140D03*
X60822840Y-92181680D03*
D71*
X52539900Y-90030300D03*
X55135780Y-88201500D03*
X50327560Y-88193880D03*
D70*
X55166260Y-86700360D03*
X53675280Y-85577680D03*
X62738000Y-85344000D03*
D71*
X63246000Y-71882000D03*
X60706000Y-73914000D03*
X60706000Y-69850000D03*
D70*
X64008000Y-68580000D03*
X61468000Y-68580000D03*
X58928000Y-67310000D03*
X69004180Y-67119500D03*
X56875680Y-73319640D03*
X44980860Y-86586060D03*
X16060420Y-48978820D03*
X24033480Y-47701200D03*
X29603700Y-55618380D03*
X18506440Y-53195220D03*
X1778000Y-48966120D03*
X4091940Y-53213000D03*
X10835640Y-48905160D03*
X3766820Y-65758060D03*
X5514340Y-65836800D03*
X20030440Y-61625480D03*
X11805920Y-88412320D03*
X36068000Y-115570000D03*
X35814000Y-124968000D03*
X31668720Y-111023400D03*
X26408380Y-115051840D03*
X11300460Y-122527060D03*
X5509260Y-116037360D03*
X123291600Y-47955200D03*
X125500000Y-46900000D03*
X126000000Y-40050000D03*
X125750000Y-33400000D03*
X6150000Y-95300000D03*
X25000000Y-61350000D03*
X10250000Y-61400000D03*
X5400000Y-61450000D03*
X3150000Y-61500000D03*
X12650000Y-59700000D03*
X84900000Y-65100000D03*
X82700000Y-70400000D03*
X76565000Y-68000000D03*
X50900000Y-9500000D03*
X52100000Y-4400000D03*
X50500000Y-2400000D03*
X62400000Y-55500000D03*
X62500000Y-53700000D03*
X62400000Y-48700000D03*
X62500000Y-47000000D03*
X93600000Y-19800000D03*
X98400000Y-24600000D03*
X98600000Y-21000000D03*
X98400000Y-11400000D03*
X98600000Y-7800000D03*
X93600000Y-6600000D03*
X61600000Y-38950000D03*
X61600000Y-25750000D03*
X61600000Y-19150000D03*
X61600000Y-12550000D03*
X61600000Y-5950000D03*
X44255000Y-34725000D03*
X47480000Y-35850000D03*
D71*
X58166000Y-71882000D03*
D70*
X15557500Y-63627000D03*
D59*
X29825000Y-27550000D03*
D70*
X90805000Y-102362000D03*
X88138000Y-102362000D03*
X82550000Y-123825000D03*
X40005000Y-62230000D03*
X42926000Y-87503000D03*
X91059000Y-110236000D03*
X71755000Y-106108500D03*
X101219000Y-106108500D03*
X92710000Y-88074500D03*
X113792000Y-93218000D03*
X100139500Y-92075000D03*
X94424500Y-89471500D03*
X60452000Y-114681000D03*
X89916000Y-106100000D03*
X90805000Y-115443000D03*
X57531000Y-91948000D03*
X4064000Y-63500000D03*
X14224000Y-60833000D03*
X57150000Y-113792000D03*
X41225000Y-39075000D03*
X15875000Y-85915500D03*
X13081000Y-96901000D03*
X15049500Y-20320000D03*
X17272000Y-21907500D03*
D59*
X51308000Y-45720000D03*
D70*
X72771000Y-50292000D03*
D59*
X40767000Y-45847000D03*
X45847000Y-49657000D03*
D70*
X46550000Y-45500000D03*
X47600000Y-45500000D03*
X45600000Y-45500000D03*
X34099500Y-52133500D03*
X12532360Y-124752100D03*
X68961000Y-93472000D03*
X89535000Y-94488000D03*
X53594000Y-100457000D03*
X38735000Y-115824000D03*
X51308000Y-92456000D03*
X67818000Y-101219000D03*
X68961000Y-87249000D03*
X58877200Y-9347200D03*
X66421000Y-65786000D03*
X76454000Y-51562000D03*
X97917000Y-110363000D03*
X82804000Y-67310000D03*
X71882000Y-68072000D03*
X70104000Y-66294000D03*
D71*
X90000000Y-23700000D03*
X93500000Y-23700000D03*
X90000000Y-10500000D03*
X93500000Y-10500000D03*
D70*
X57430000Y-39410000D03*
X57430000Y-32810000D03*
X57430000Y-26210000D03*
X57430000Y-19610000D03*
X57430000Y-13010000D03*
X57430000Y-6410000D03*
X65560000Y-4100000D03*
X65700000Y-8210000D03*
X64800000Y-11200000D03*
X65700000Y-14810000D03*
X15748000Y-50419000D03*
X17886680Y-40645080D03*
X12700000Y-37719000D03*
X1778000Y-51562000D03*
X64800000Y-24200000D03*
X65700000Y-28010000D03*
X64900000Y-31000000D03*
X65700000Y-34610000D03*
X64800000Y-37500000D03*
X65700000Y-41210000D03*
X35400000Y-16800000D03*
D71*
X11684000Y-82931000D03*
D70*
X55885080Y-102875080D03*
X65283080Y-112781080D03*
X9658413Y-65041587D03*
X11490000Y-63100000D03*
X79375000Y-119253000D03*
X19812000Y-96647000D03*
X21336000Y-96774000D03*
X22225000Y-96393000D03*
X22860000Y-95631000D03*
D71*
X11938000Y-80391000D03*
X10985500Y-112585500D03*
X25908000Y-108204000D03*
D70*
X71755000Y-82804000D03*
X69596000Y-89916000D03*
X78359000Y-78740000D03*
X75798680Y-83012280D03*
X87100000Y-4800000D03*
X87200000Y-16100000D03*
X87100000Y-18000000D03*
X87200000Y-29300000D03*
X19431000Y-52832000D03*
X4725000Y-52670040D03*
X79400000Y-31200000D03*
X79400000Y-29300000D03*
X79400000Y-24600000D03*
X79400000Y-22800000D03*
X79400000Y-17500000D03*
X79400000Y-15800000D03*
X79400000Y-11400000D03*
X79400000Y-9600000D03*
X79400000Y-4200000D03*
X79400000Y-2400000D03*
X62000000Y-2400000D03*
X59500000Y-2400000D03*
X9779000Y-95123000D03*
X19939000Y-87249000D03*
X37250000Y-29175010D03*
X35425000Y-28250000D03*
D71*
X38700000Y-41925000D03*
D70*
X36100000Y-28825000D03*
X38550000Y-29375000D03*
X41990000Y-35890000D03*
X36875000Y-35500000D03*
X117856000Y-46736000D03*
X113792000Y-48006000D03*
X106235500Y-84391500D03*
X96139000Y-84010500D03*
X95059500Y-81978500D03*
X121729500Y-43942000D03*
X121602500Y-45593000D03*
X123000000Y-36400000D03*
X103378000Y-88011000D03*
X99949000Y-88138000D03*
X103632000Y-71501000D03*
X124333000Y-21717000D03*
X102000000Y-76350000D03*
X102050000Y-81300000D03*
X123802342Y-39422255D03*
X123800000Y-42550000D03*
X124646995Y-39414277D03*
X124650000Y-42550000D03*
X112800000Y-36100000D03*
X117600000Y-29950000D03*
X117800000Y-30850000D03*
X112800000Y-37100000D03*
X118825000Y-30250000D03*
X112800000Y-38100000D03*
X119150000Y-36000000D03*
X120000000Y-27600000D03*
X122047000Y-33274000D03*
X118999000Y-38544500D03*
X11255080Y-76705080D03*
X12642249Y-79691000D03*
X17730080Y-84905080D03*
X25297458Y-90887702D03*
X30739080Y-78491080D03*
X62997080Y-111511080D03*
X77851000Y-119380000D03*
X10440000Y-65400000D03*
X12120000Y-63730000D03*
X25527000Y-62992000D03*
X22650000Y-62900000D03*
X12740000Y-64350000D03*
X11320000Y-65780000D03*
X21400000Y-61490000D03*
X100711000Y-76200000D03*
X97649998Y-76073000D03*
X121600000Y-46600000D03*
X121950000Y-49400000D03*
X85742780Y-107751880D03*
X116967000Y-92456000D03*
X94742000Y-97409000D03*
X79248000Y-85217000D03*
X99249990Y-3949990D03*
X92900000Y-4400000D03*
X91800000Y-5500000D03*
X91694000Y-15494000D03*
X92900000Y-17600000D03*
X99249990Y-17149990D03*
X91800000Y-18700000D03*
X91643200Y-28600400D03*
X69510000Y-8950000D03*
X69490000Y-15570000D03*
X69490000Y-28770000D03*
X69490000Y-35370000D03*
X69490000Y-41970000D03*
X117856000Y-94107000D03*
X87757000Y-114935000D03*
X95377000Y-102489000D03*
X77221080Y-107701080D03*
X64800000Y-17600000D03*
X65700000Y-21410000D03*
X69490000Y-22170000D03*
X103200000Y-6600000D03*
X103200000Y-14000000D03*
X103200000Y-19800000D03*
X103200000Y-27200000D03*
X124450000Y-61800000D03*
X114350000Y-61600000D03*
X64825880Y-93070680D03*
X64820800Y-95285560D03*
X12705080Y-76459080D03*
X12959080Y-78745080D03*
X18293080Y-84079080D03*
X26421080Y-90175080D03*
X45471080Y-107955080D03*
X62743080Y-107955080D03*
X62489080Y-106177080D03*
X45979080Y-106939080D03*
X27691080Y-89921080D03*
X14483080Y-75951080D03*
X14483080Y-79253080D03*
X18547080Y-82047080D03*
X87376000Y-122682000D03*
X91567000Y-119888000D03*
D71*
X17081500Y-111125000D03*
X17081500Y-111188500D03*
D70*
X11600180Y-117043200D03*
X21760180Y-114909600D03*
X11940540Y-118201440D03*
X113365280Y-101351080D03*
X112268000Y-32639000D03*
X109601000Y-35306000D03*
X24892000Y-89662000D03*
X9271000Y-94361000D03*
X18542000Y-87122000D03*
X27437080Y-78999080D03*
X32771080Y-79507080D03*
X44709080Y-91445080D03*
X56901080Y-102875080D03*
X69469000Y-118618000D03*
X46487080Y-95763080D03*
X62743080Y-112527080D03*
X23876000Y-93853000D03*
X26924000Y-39497000D03*
X46355000Y-57658000D03*
X46990000Y-80010000D03*
X26035000Y-17653000D03*
X12446000Y-15494000D03*
X85852000Y-104140000D03*
X25146000Y-27686000D03*
X9398000Y-26797000D03*
X46990000Y-81280000D03*
X44958000Y-57658000D03*
X26924000Y-40894000D03*
X83439000Y-103759000D03*
X32009080Y-88397080D03*
X38359080Y-89159080D03*
X56393080Y-107193080D03*
X24277320Y-92847160D03*
X12621260Y-95239840D03*
X57155080Y-108971080D03*
X32009080Y-86619080D03*
X37597080Y-87635080D03*
X45979080Y-102367080D03*
X37851080Y-92207080D03*
X35819080Y-91445080D03*
X45979080Y-104907080D03*
X50043080Y-109479080D03*
X56393080Y-109479080D03*
X37851080Y-91191080D03*
X34041080Y-89413080D03*
X77221080Y-108971080D03*
X84333080Y-110241080D03*
X78491080Y-109479080D03*
M02*
