G04 #@! TF.FileFunction,Legend,Top*
%FSLAX46Y46*%
G04 Gerber Fmt 4.6, Leading zero omitted, Abs format (unit mm)*
G04 Created by KiCad (PCBNEW 4.0.1-stable) date Wednesday, August 10, 2016 'PMt' 06:58:00 PM*
%MOMM*%
G01*
G04 APERTURE LIST*
%ADD10C,0.100000*%
%ADD11C,0.300000*%
%ADD12C,0.150000*%
G04 APERTURE END LIST*
D10*
D11*
X171637143Y-85513143D02*
X171851429Y-85584571D01*
X172208572Y-85584571D01*
X172351429Y-85513143D01*
X172422858Y-85441714D01*
X172494286Y-85298857D01*
X172494286Y-85156000D01*
X172422858Y-85013143D01*
X172351429Y-84941714D01*
X172208572Y-84870286D01*
X171922858Y-84798857D01*
X171780000Y-84727429D01*
X171708572Y-84656000D01*
X171637143Y-84513143D01*
X171637143Y-84370286D01*
X171708572Y-84227429D01*
X171780000Y-84156000D01*
X171922858Y-84084571D01*
X172280000Y-84084571D01*
X172494286Y-84156000D01*
X173708571Y-85513143D02*
X173565714Y-85584571D01*
X173280000Y-85584571D01*
X173137143Y-85513143D01*
X173065714Y-85370286D01*
X173065714Y-84798857D01*
X173137143Y-84656000D01*
X173280000Y-84584571D01*
X173565714Y-84584571D01*
X173708571Y-84656000D01*
X173780000Y-84798857D01*
X173780000Y-84941714D01*
X173065714Y-85084571D01*
X174422857Y-84584571D02*
X174422857Y-85584571D01*
X174422857Y-84727429D02*
X174494285Y-84656000D01*
X174637143Y-84584571D01*
X174851428Y-84584571D01*
X174994285Y-84656000D01*
X175065714Y-84798857D01*
X175065714Y-85584571D01*
X175708571Y-85513143D02*
X175851428Y-85584571D01*
X176137143Y-85584571D01*
X176280000Y-85513143D01*
X176351428Y-85370286D01*
X176351428Y-85298857D01*
X176280000Y-85156000D01*
X176137143Y-85084571D01*
X175922857Y-85084571D01*
X175780000Y-85013143D01*
X175708571Y-84870286D01*
X175708571Y-84798857D01*
X175780000Y-84656000D01*
X175922857Y-84584571D01*
X176137143Y-84584571D01*
X176280000Y-84656000D01*
X177208572Y-85584571D02*
X177065714Y-85513143D01*
X176994286Y-85441714D01*
X176922857Y-85298857D01*
X176922857Y-84870286D01*
X176994286Y-84727429D01*
X177065714Y-84656000D01*
X177208572Y-84584571D01*
X177422857Y-84584571D01*
X177565714Y-84656000D01*
X177637143Y-84727429D01*
X177708572Y-84870286D01*
X177708572Y-85298857D01*
X177637143Y-85441714D01*
X177565714Y-85513143D01*
X177422857Y-85584571D01*
X177208572Y-85584571D01*
X178351429Y-85584571D02*
X178351429Y-84584571D01*
X178351429Y-84870286D02*
X178422857Y-84727429D01*
X178494286Y-84656000D01*
X178637143Y-84584571D01*
X178780000Y-84584571D01*
X179280000Y-85584571D02*
X179280000Y-84084571D01*
X179280000Y-84798857D02*
X180137143Y-84798857D01*
X180137143Y-85584571D02*
X180137143Y-84084571D01*
X181565715Y-85584571D02*
X180851429Y-85584571D01*
X180851429Y-84084571D01*
X174494287Y-87984571D02*
X173994287Y-87270286D01*
X173637144Y-87984571D02*
X173637144Y-86484571D01*
X174208572Y-86484571D01*
X174351430Y-86556000D01*
X174422858Y-86627429D01*
X174494287Y-86770286D01*
X174494287Y-86984571D01*
X174422858Y-87127429D01*
X174351430Y-87198857D01*
X174208572Y-87270286D01*
X173637144Y-87270286D01*
X175708572Y-87913143D02*
X175565715Y-87984571D01*
X175280001Y-87984571D01*
X175137144Y-87913143D01*
X175065715Y-87770286D01*
X175065715Y-87198857D01*
X175137144Y-87056000D01*
X175280001Y-86984571D01*
X175565715Y-86984571D01*
X175708572Y-87056000D01*
X175780001Y-87198857D01*
X175780001Y-87341714D01*
X175065715Y-87484571D01*
X176280001Y-86984571D02*
X176637144Y-87984571D01*
X176994286Y-86984571D01*
X178637143Y-86627429D02*
X178708572Y-86556000D01*
X178851429Y-86484571D01*
X179208572Y-86484571D01*
X179351429Y-86556000D01*
X179422858Y-86627429D01*
X179494286Y-86770286D01*
X179494286Y-86913143D01*
X179422858Y-87127429D01*
X178565715Y-87984571D01*
X179494286Y-87984571D01*
D12*
X189230000Y-86614000D02*
X194310000Y-86614000D01*
X194310000Y-86614000D02*
X194310000Y-84074000D01*
X194310000Y-84074000D02*
X189230000Y-84074000D01*
X186410000Y-83794000D02*
X187960000Y-83794000D01*
X189230000Y-84074000D02*
X189230000Y-86614000D01*
X187960000Y-86894000D02*
X186410000Y-86894000D01*
X186410000Y-86894000D02*
X186410000Y-83794000D01*
X193435000Y-96170000D02*
X193435000Y-94970000D01*
X195185000Y-94970000D02*
X195185000Y-96170000D01*
X190129000Y-96550000D02*
X190129000Y-96350000D01*
X185479000Y-96550000D02*
X185479000Y-96350000D01*
X185479000Y-93300000D02*
X185479000Y-93500000D01*
X190129000Y-93300000D02*
X190129000Y-93500000D01*
X190129000Y-96550000D02*
X185479000Y-96550000D01*
X190129000Y-93300000D02*
X185479000Y-93300000D01*
X190129000Y-96350000D02*
X191479000Y-96350000D01*
X184492000Y-100084000D02*
X184492000Y-99084000D01*
X182792000Y-99084000D02*
X182792000Y-100084000D01*
X178570000Y-96686000D02*
X177570000Y-96686000D01*
X177570000Y-98386000D02*
X178570000Y-98386000D01*
X191770000Y-98806000D02*
X186690000Y-98806000D01*
X186690000Y-98806000D02*
X186690000Y-101346000D01*
X186690000Y-101346000D02*
X191770000Y-101346000D01*
X194590000Y-101626000D02*
X193040000Y-101626000D01*
X191770000Y-101346000D02*
X191770000Y-98806000D01*
X193040000Y-98526000D02*
X194590000Y-98526000D01*
X194590000Y-98526000D02*
X194590000Y-101626000D01*
X193435000Y-91598000D02*
X193435000Y-90398000D01*
X195185000Y-90398000D02*
X195185000Y-91598000D01*
X191883000Y-89250000D02*
X191883000Y-90450000D01*
X190133000Y-90450000D02*
X190133000Y-89250000D01*
X180735000Y-94138000D02*
X180735000Y-92938000D01*
X182485000Y-92938000D02*
X182485000Y-94138000D01*
X186831000Y-90328000D02*
X186831000Y-89128000D01*
X188581000Y-89128000D02*
X188581000Y-90328000D01*
X185279000Y-89128000D02*
X185279000Y-90328000D01*
X183529000Y-90328000D02*
X183529000Y-89128000D01*
X177454000Y-92851000D02*
X178654000Y-92851000D01*
X178654000Y-94601000D02*
X177454000Y-94601000D01*
X177642000Y-88787000D02*
X178842000Y-88787000D01*
X178842000Y-90537000D02*
X177642000Y-90537000D01*
X185742381Y-86192095D02*
X184742381Y-86192095D01*
X184742381Y-85811142D01*
X184790000Y-85715904D01*
X184837619Y-85668285D01*
X184932857Y-85620666D01*
X185075714Y-85620666D01*
X185170952Y-85668285D01*
X185218571Y-85715904D01*
X185266190Y-85811142D01*
X185266190Y-86192095D01*
X185742381Y-84668285D02*
X185742381Y-85239714D01*
X185742381Y-84954000D02*
X184742381Y-84954000D01*
X184885238Y-85049238D01*
X184980476Y-85144476D01*
X185028095Y-85239714D01*
X196422381Y-95698666D02*
X195946190Y-96032000D01*
X196422381Y-96270095D02*
X195422381Y-96270095D01*
X195422381Y-95889142D01*
X195470000Y-95793904D01*
X195517619Y-95746285D01*
X195612857Y-95698666D01*
X195755714Y-95698666D01*
X195850952Y-95746285D01*
X195898571Y-95793904D01*
X195946190Y-95889142D01*
X195946190Y-96270095D01*
X195517619Y-95317714D02*
X195470000Y-95270095D01*
X195422381Y-95174857D01*
X195422381Y-94936761D01*
X195470000Y-94841523D01*
X195517619Y-94793904D01*
X195612857Y-94746285D01*
X195708095Y-94746285D01*
X195850952Y-94793904D01*
X196422381Y-95365333D01*
X196422381Y-94746285D01*
X187042095Y-96927381D02*
X187042095Y-97736905D01*
X187089714Y-97832143D01*
X187137333Y-97879762D01*
X187232571Y-97927381D01*
X187423048Y-97927381D01*
X187518286Y-97879762D01*
X187565905Y-97832143D01*
X187613524Y-97736905D01*
X187613524Y-96927381D01*
X188613524Y-97927381D02*
X188042095Y-97927381D01*
X188327809Y-97927381D02*
X188327809Y-96927381D01*
X188232571Y-97070238D01*
X188137333Y-97165476D01*
X188042095Y-97213095D01*
X182369143Y-99750666D02*
X182416762Y-99798285D01*
X182464381Y-99941142D01*
X182464381Y-100036380D01*
X182416762Y-100179238D01*
X182321524Y-100274476D01*
X182226286Y-100322095D01*
X182035810Y-100369714D01*
X181892952Y-100369714D01*
X181702476Y-100322095D01*
X181607238Y-100274476D01*
X181512000Y-100179238D01*
X181464381Y-100036380D01*
X181464381Y-99941142D01*
X181512000Y-99798285D01*
X181559619Y-99750666D01*
X181464381Y-99417333D02*
X181464381Y-98798285D01*
X181845333Y-99131619D01*
X181845333Y-98988761D01*
X181892952Y-98893523D01*
X181940571Y-98845904D01*
X182035810Y-98798285D01*
X182273905Y-98798285D01*
X182369143Y-98845904D01*
X182416762Y-98893523D01*
X182464381Y-98988761D01*
X182464381Y-99274476D01*
X182416762Y-99369714D01*
X182369143Y-99417333D01*
X177933334Y-99671143D02*
X177885715Y-99718762D01*
X177742858Y-99766381D01*
X177647620Y-99766381D01*
X177504762Y-99718762D01*
X177409524Y-99623524D01*
X177361905Y-99528286D01*
X177314286Y-99337810D01*
X177314286Y-99194952D01*
X177361905Y-99004476D01*
X177409524Y-98909238D01*
X177504762Y-98814000D01*
X177647620Y-98766381D01*
X177742858Y-98766381D01*
X177885715Y-98814000D01*
X177933334Y-98861619D01*
X178314286Y-98861619D02*
X178361905Y-98814000D01*
X178457143Y-98766381D01*
X178695239Y-98766381D01*
X178790477Y-98814000D01*
X178838096Y-98861619D01*
X178885715Y-98956857D01*
X178885715Y-99052095D01*
X178838096Y-99194952D01*
X178266667Y-99766381D01*
X178885715Y-99766381D01*
X196152381Y-100804095D02*
X195152381Y-100804095D01*
X195152381Y-100423142D01*
X195200000Y-100327904D01*
X195247619Y-100280285D01*
X195342857Y-100232666D01*
X195485714Y-100232666D01*
X195580952Y-100280285D01*
X195628571Y-100327904D01*
X195676190Y-100423142D01*
X195676190Y-100804095D01*
X195247619Y-99851714D02*
X195200000Y-99804095D01*
X195152381Y-99708857D01*
X195152381Y-99470761D01*
X195200000Y-99375523D01*
X195247619Y-99327904D01*
X195342857Y-99280285D01*
X195438095Y-99280285D01*
X195580952Y-99327904D01*
X196152381Y-99899333D01*
X196152381Y-99280285D01*
X193142381Y-91074666D02*
X192666190Y-91408000D01*
X193142381Y-91646095D02*
X192142381Y-91646095D01*
X192142381Y-91265142D01*
X192190000Y-91169904D01*
X192237619Y-91122285D01*
X192332857Y-91074666D01*
X192475714Y-91074666D01*
X192570952Y-91122285D01*
X192618571Y-91169904D01*
X192666190Y-91265142D01*
X192666190Y-91646095D01*
X193142381Y-90122285D02*
X193142381Y-90693714D01*
X193142381Y-90408000D02*
X192142381Y-90408000D01*
X192285238Y-90503238D01*
X192380476Y-90598476D01*
X192428095Y-90693714D01*
X203253905Y-88192381D02*
X203253905Y-87192381D01*
X203634858Y-87192381D01*
X203730096Y-87240000D01*
X203777715Y-87287619D01*
X203825334Y-87382857D01*
X203825334Y-87525714D01*
X203777715Y-87620952D01*
X203730096Y-87668571D01*
X203634858Y-87716190D01*
X203253905Y-87716190D01*
X204158667Y-87192381D02*
X204777715Y-87192381D01*
X204444381Y-87573333D01*
X204587239Y-87573333D01*
X204682477Y-87620952D01*
X204730096Y-87668571D01*
X204777715Y-87763810D01*
X204777715Y-88001905D01*
X204730096Y-88097143D01*
X204682477Y-88144762D01*
X204587239Y-88192381D01*
X204301524Y-88192381D01*
X204206286Y-88144762D01*
X204158667Y-88097143D01*
X168861905Y-88422381D02*
X168861905Y-87422381D01*
X169242858Y-87422381D01*
X169338096Y-87470000D01*
X169385715Y-87517619D01*
X169433334Y-87612857D01*
X169433334Y-87755714D01*
X169385715Y-87850952D01*
X169338096Y-87898571D01*
X169242858Y-87946190D01*
X168861905Y-87946190D01*
X170290477Y-87755714D02*
X170290477Y-88422381D01*
X170052381Y-87374762D02*
X169814286Y-88089048D01*
X170433334Y-88089048D01*
X189936381Y-90016666D02*
X189460190Y-90350000D01*
X189936381Y-90588095D02*
X188936381Y-90588095D01*
X188936381Y-90207142D01*
X188984000Y-90111904D01*
X189031619Y-90064285D01*
X189126857Y-90016666D01*
X189269714Y-90016666D01*
X189364952Y-90064285D01*
X189412571Y-90111904D01*
X189460190Y-90207142D01*
X189460190Y-90588095D01*
X188936381Y-89683333D02*
X188936381Y-89064285D01*
X189317333Y-89397619D01*
X189317333Y-89254761D01*
X189364952Y-89159523D01*
X189412571Y-89111904D01*
X189507810Y-89064285D01*
X189745905Y-89064285D01*
X189841143Y-89111904D01*
X189888762Y-89159523D01*
X189936381Y-89254761D01*
X189936381Y-89540476D01*
X189888762Y-89635714D01*
X189841143Y-89683333D01*
X180284381Y-93638666D02*
X179808190Y-93972000D01*
X180284381Y-94210095D02*
X179284381Y-94210095D01*
X179284381Y-93829142D01*
X179332000Y-93733904D01*
X179379619Y-93686285D01*
X179474857Y-93638666D01*
X179617714Y-93638666D01*
X179712952Y-93686285D01*
X179760571Y-93733904D01*
X179808190Y-93829142D01*
X179808190Y-94210095D01*
X179617714Y-92781523D02*
X180284381Y-92781523D01*
X179236762Y-93019619D02*
X179951048Y-93257714D01*
X179951048Y-92638666D01*
X186634381Y-89894666D02*
X186158190Y-90228000D01*
X186634381Y-90466095D02*
X185634381Y-90466095D01*
X185634381Y-90085142D01*
X185682000Y-89989904D01*
X185729619Y-89942285D01*
X185824857Y-89894666D01*
X185967714Y-89894666D01*
X186062952Y-89942285D01*
X186110571Y-89989904D01*
X186158190Y-90085142D01*
X186158190Y-90466095D01*
X185634381Y-88989904D02*
X185634381Y-89466095D01*
X186110571Y-89513714D01*
X186062952Y-89466095D01*
X186015333Y-89370857D01*
X186015333Y-89132761D01*
X186062952Y-89037523D01*
X186110571Y-88989904D01*
X186205810Y-88942285D01*
X186443905Y-88942285D01*
X186539143Y-88989904D01*
X186586762Y-89037523D01*
X186634381Y-89132761D01*
X186634381Y-89370857D01*
X186586762Y-89466095D01*
X186539143Y-89513714D01*
X183332381Y-89828666D02*
X182856190Y-90162000D01*
X183332381Y-90400095D02*
X182332381Y-90400095D01*
X182332381Y-90019142D01*
X182380000Y-89923904D01*
X182427619Y-89876285D01*
X182522857Y-89828666D01*
X182665714Y-89828666D01*
X182760952Y-89876285D01*
X182808571Y-89923904D01*
X182856190Y-90019142D01*
X182856190Y-90400095D01*
X182332381Y-88971523D02*
X182332381Y-89162000D01*
X182380000Y-89257238D01*
X182427619Y-89304857D01*
X182570476Y-89400095D01*
X182760952Y-89447714D01*
X183141905Y-89447714D01*
X183237143Y-89400095D01*
X183284762Y-89352476D01*
X183332381Y-89257238D01*
X183332381Y-89066761D01*
X183284762Y-88971523D01*
X183237143Y-88923904D01*
X183141905Y-88876285D01*
X182903810Y-88876285D01*
X182808571Y-88923904D01*
X182760952Y-88971523D01*
X182713333Y-89066761D01*
X182713333Y-89257238D01*
X182760952Y-89352476D01*
X182808571Y-89400095D01*
X182903810Y-89447714D01*
X177887334Y-96278381D02*
X177554000Y-95802190D01*
X177315905Y-96278381D02*
X177315905Y-95278381D01*
X177696858Y-95278381D01*
X177792096Y-95326000D01*
X177839715Y-95373619D01*
X177887334Y-95468857D01*
X177887334Y-95611714D01*
X177839715Y-95706952D01*
X177792096Y-95754571D01*
X177696858Y-95802190D01*
X177315905Y-95802190D01*
X178220667Y-95278381D02*
X178887334Y-95278381D01*
X178458762Y-96278381D01*
X178075334Y-92214381D02*
X177742000Y-91738190D01*
X177503905Y-92214381D02*
X177503905Y-91214381D01*
X177884858Y-91214381D01*
X177980096Y-91262000D01*
X178027715Y-91309619D01*
X178075334Y-91404857D01*
X178075334Y-91547714D01*
X178027715Y-91642952D01*
X177980096Y-91690571D01*
X177884858Y-91738190D01*
X177503905Y-91738190D01*
X178646762Y-91642952D02*
X178551524Y-91595333D01*
X178503905Y-91547714D01*
X178456286Y-91452476D01*
X178456286Y-91404857D01*
X178503905Y-91309619D01*
X178551524Y-91262000D01*
X178646762Y-91214381D01*
X178837239Y-91214381D01*
X178932477Y-91262000D01*
X178980096Y-91309619D01*
X179027715Y-91404857D01*
X179027715Y-91452476D01*
X178980096Y-91547714D01*
X178932477Y-91595333D01*
X178837239Y-91642952D01*
X178646762Y-91642952D01*
X178551524Y-91690571D01*
X178503905Y-91738190D01*
X178456286Y-91833429D01*
X178456286Y-92023905D01*
X178503905Y-92119143D01*
X178551524Y-92166762D01*
X178646762Y-92214381D01*
X178837239Y-92214381D01*
X178932477Y-92166762D01*
X178980096Y-92119143D01*
X179027715Y-92023905D01*
X179027715Y-91833429D01*
X178980096Y-91738190D01*
X178932477Y-91690571D01*
X178837239Y-91642952D01*
M02*
