G04 #@! TF.FileFunction,Copper,L2,Bot,Signal*
%FSLAX46Y46*%
G04 Gerber Fmt 4.6, Leading zero omitted, Abs format (unit mm)*
G04 Created by KiCad (PCBNEW 4.0.1-stable) date Wednesday, August 10, 2016 'PMt' 06:58:00 PM*
%MOMM*%
G01*
G04 APERTURE LIST*
%ADD10C,0.100000*%
%ADD11R,1.727200X2.032000*%
%ADD12O,1.727200X2.032000*%
%ADD13C,6.500000*%
%ADD14C,0.685800*%
%ADD15C,0.254000*%
G04 APERTURE END LIST*
D10*
D11*
X187960000Y-85344000D03*
D12*
X190500000Y-85344000D03*
X193040000Y-85344000D03*
D11*
X193040000Y-100076000D03*
D12*
X190500000Y-100076000D03*
X187960000Y-100076000D03*
D13*
X203962000Y-93280000D03*
X169600000Y-93470000D03*
D14*
X181102000Y-99314000D03*
X177292000Y-91694000D03*
X184404000Y-87376000D03*
X191008000Y-92202000D03*
D15*
G36*
X186448960Y-84328000D02*
X186448960Y-86360000D01*
X186493238Y-86595317D01*
X186632310Y-86811441D01*
X186844510Y-86956431D01*
X187096400Y-87007440D01*
X188823600Y-87007440D01*
X189058917Y-86963162D01*
X189275041Y-86824090D01*
X189420031Y-86611890D01*
X189428400Y-86570561D01*
X189440330Y-86588415D01*
X189926511Y-86913271D01*
X190500000Y-87027345D01*
X191073489Y-86913271D01*
X191559670Y-86588415D01*
X191766461Y-86278931D01*
X192137964Y-86694732D01*
X192665209Y-86948709D01*
X192680974Y-86951358D01*
X192913000Y-86830217D01*
X192913000Y-85471000D01*
X193167000Y-85471000D01*
X193167000Y-86830217D01*
X193399026Y-86951358D01*
X193414791Y-86948709D01*
X193942036Y-86694732D01*
X194331954Y-86258320D01*
X194525184Y-85705913D01*
X194380924Y-85471000D01*
X193167000Y-85471000D01*
X192913000Y-85471000D01*
X192893000Y-85471000D01*
X192893000Y-85217000D01*
X192913000Y-85217000D01*
X192913000Y-85197000D01*
X193167000Y-85197000D01*
X193167000Y-85217000D01*
X194380924Y-85217000D01*
X194525184Y-84982087D01*
X194331954Y-84429680D01*
X194037397Y-84100000D01*
X207809633Y-84100000D01*
X207805331Y-92419075D01*
X207271311Y-91103104D01*
X207239608Y-91055658D01*
X206738978Y-90682627D01*
X204141605Y-93280000D01*
X206738978Y-95877373D01*
X207239608Y-95504342D01*
X207804427Y-94168053D01*
X207800367Y-102020000D01*
X165011147Y-102020000D01*
X165013596Y-100437913D01*
X186474816Y-100437913D01*
X186668046Y-100990320D01*
X187057964Y-101426732D01*
X187585209Y-101680709D01*
X187600974Y-101683358D01*
X187833000Y-101562217D01*
X187833000Y-100203000D01*
X186619076Y-100203000D01*
X186474816Y-100437913D01*
X165013596Y-100437913D01*
X165014717Y-99714087D01*
X186474816Y-99714087D01*
X186619076Y-99949000D01*
X187833000Y-99949000D01*
X187833000Y-98589783D01*
X188087000Y-98589783D01*
X188087000Y-99949000D01*
X188107000Y-99949000D01*
X188107000Y-100203000D01*
X188087000Y-100203000D01*
X188087000Y-101562217D01*
X188319026Y-101683358D01*
X188334791Y-101680709D01*
X188862036Y-101426732D01*
X189233539Y-101010931D01*
X189440330Y-101320415D01*
X189926511Y-101645271D01*
X190500000Y-101759345D01*
X191073489Y-101645271D01*
X191559670Y-101320415D01*
X191569243Y-101306087D01*
X191573238Y-101327317D01*
X191712310Y-101543441D01*
X191924510Y-101688431D01*
X192176400Y-101739440D01*
X193903600Y-101739440D01*
X194138917Y-101695162D01*
X194355041Y-101556090D01*
X194500031Y-101343890D01*
X194551040Y-101092000D01*
X194551040Y-99060000D01*
X194506762Y-98824683D01*
X194367690Y-98608559D01*
X194155490Y-98463569D01*
X193903600Y-98412560D01*
X192176400Y-98412560D01*
X191941083Y-98456838D01*
X191724959Y-98595910D01*
X191579969Y-98808110D01*
X191571600Y-98849439D01*
X191559670Y-98831585D01*
X191073489Y-98506729D01*
X190500000Y-98392655D01*
X189926511Y-98506729D01*
X189440330Y-98831585D01*
X189233539Y-99141069D01*
X188862036Y-98725268D01*
X188334791Y-98471291D01*
X188319026Y-98468642D01*
X188087000Y-98589783D01*
X187833000Y-98589783D01*
X187600974Y-98468642D01*
X187585209Y-98471291D01*
X187057964Y-98725268D01*
X186668046Y-99161680D01*
X186474816Y-99714087D01*
X165014717Y-99714087D01*
X165020087Y-96246978D01*
X167002627Y-96246978D01*
X167375658Y-96747608D01*
X168799262Y-97349333D01*
X170344772Y-97360466D01*
X171776896Y-96779311D01*
X171824342Y-96747608D01*
X172197373Y-96246978D01*
X169600000Y-93649605D01*
X167002627Y-96246978D01*
X165020087Y-96246978D01*
X165023235Y-94214772D01*
X165709534Y-94214772D01*
X166290689Y-95646896D01*
X166322392Y-95694342D01*
X166823022Y-96067373D01*
X169420395Y-93470000D01*
X169779605Y-93470000D01*
X172376978Y-96067373D01*
X172390928Y-96056978D01*
X201364627Y-96056978D01*
X201737658Y-96557608D01*
X203161262Y-97159333D01*
X204706772Y-97170466D01*
X206138896Y-96589311D01*
X206186342Y-96557608D01*
X206559373Y-96056978D01*
X203962000Y-93459605D01*
X201364627Y-96056978D01*
X172390928Y-96056978D01*
X172877608Y-95694342D01*
X173479333Y-94270738D01*
X173481104Y-94024772D01*
X200071534Y-94024772D01*
X200652689Y-95456896D01*
X200684392Y-95504342D01*
X201185022Y-95877373D01*
X203782395Y-93280000D01*
X201185022Y-90682627D01*
X200684392Y-91055658D01*
X200082667Y-92479262D01*
X200071534Y-94024772D01*
X173481104Y-94024772D01*
X173490466Y-92725228D01*
X172909311Y-91293104D01*
X172877608Y-91245658D01*
X172376978Y-90872627D01*
X169779605Y-93470000D01*
X169420395Y-93470000D01*
X166823022Y-90872627D01*
X166322392Y-91245658D01*
X165720667Y-92669262D01*
X165709534Y-94214772D01*
X165023235Y-94214772D01*
X165028689Y-90693022D01*
X167002627Y-90693022D01*
X169600000Y-93290395D01*
X172197373Y-90693022D01*
X172055800Y-90503022D01*
X201364627Y-90503022D01*
X203962000Y-93100395D01*
X206559373Y-90503022D01*
X206186342Y-90002392D01*
X204762738Y-89400667D01*
X203217228Y-89389534D01*
X201785104Y-89970689D01*
X201737658Y-90002392D01*
X201364627Y-90503022D01*
X172055800Y-90503022D01*
X171824342Y-90192392D01*
X170400738Y-89590667D01*
X168855228Y-89579534D01*
X167423104Y-90160689D01*
X167375658Y-90192392D01*
X167002627Y-90693022D01*
X165028689Y-90693022D01*
X165038901Y-84100000D01*
X186495131Y-84100000D01*
X186448960Y-84328000D01*
X186448960Y-84328000D01*
G37*
X186448960Y-84328000D02*
X186448960Y-86360000D01*
X186493238Y-86595317D01*
X186632310Y-86811441D01*
X186844510Y-86956431D01*
X187096400Y-87007440D01*
X188823600Y-87007440D01*
X189058917Y-86963162D01*
X189275041Y-86824090D01*
X189420031Y-86611890D01*
X189428400Y-86570561D01*
X189440330Y-86588415D01*
X189926511Y-86913271D01*
X190500000Y-87027345D01*
X191073489Y-86913271D01*
X191559670Y-86588415D01*
X191766461Y-86278931D01*
X192137964Y-86694732D01*
X192665209Y-86948709D01*
X192680974Y-86951358D01*
X192913000Y-86830217D01*
X192913000Y-85471000D01*
X193167000Y-85471000D01*
X193167000Y-86830217D01*
X193399026Y-86951358D01*
X193414791Y-86948709D01*
X193942036Y-86694732D01*
X194331954Y-86258320D01*
X194525184Y-85705913D01*
X194380924Y-85471000D01*
X193167000Y-85471000D01*
X192913000Y-85471000D01*
X192893000Y-85471000D01*
X192893000Y-85217000D01*
X192913000Y-85217000D01*
X192913000Y-85197000D01*
X193167000Y-85197000D01*
X193167000Y-85217000D01*
X194380924Y-85217000D01*
X194525184Y-84982087D01*
X194331954Y-84429680D01*
X194037397Y-84100000D01*
X207809633Y-84100000D01*
X207805331Y-92419075D01*
X207271311Y-91103104D01*
X207239608Y-91055658D01*
X206738978Y-90682627D01*
X204141605Y-93280000D01*
X206738978Y-95877373D01*
X207239608Y-95504342D01*
X207804427Y-94168053D01*
X207800367Y-102020000D01*
X165011147Y-102020000D01*
X165013596Y-100437913D01*
X186474816Y-100437913D01*
X186668046Y-100990320D01*
X187057964Y-101426732D01*
X187585209Y-101680709D01*
X187600974Y-101683358D01*
X187833000Y-101562217D01*
X187833000Y-100203000D01*
X186619076Y-100203000D01*
X186474816Y-100437913D01*
X165013596Y-100437913D01*
X165014717Y-99714087D01*
X186474816Y-99714087D01*
X186619076Y-99949000D01*
X187833000Y-99949000D01*
X187833000Y-98589783D01*
X188087000Y-98589783D01*
X188087000Y-99949000D01*
X188107000Y-99949000D01*
X188107000Y-100203000D01*
X188087000Y-100203000D01*
X188087000Y-101562217D01*
X188319026Y-101683358D01*
X188334791Y-101680709D01*
X188862036Y-101426732D01*
X189233539Y-101010931D01*
X189440330Y-101320415D01*
X189926511Y-101645271D01*
X190500000Y-101759345D01*
X191073489Y-101645271D01*
X191559670Y-101320415D01*
X191569243Y-101306087D01*
X191573238Y-101327317D01*
X191712310Y-101543441D01*
X191924510Y-101688431D01*
X192176400Y-101739440D01*
X193903600Y-101739440D01*
X194138917Y-101695162D01*
X194355041Y-101556090D01*
X194500031Y-101343890D01*
X194551040Y-101092000D01*
X194551040Y-99060000D01*
X194506762Y-98824683D01*
X194367690Y-98608559D01*
X194155490Y-98463569D01*
X193903600Y-98412560D01*
X192176400Y-98412560D01*
X191941083Y-98456838D01*
X191724959Y-98595910D01*
X191579969Y-98808110D01*
X191571600Y-98849439D01*
X191559670Y-98831585D01*
X191073489Y-98506729D01*
X190500000Y-98392655D01*
X189926511Y-98506729D01*
X189440330Y-98831585D01*
X189233539Y-99141069D01*
X188862036Y-98725268D01*
X188334791Y-98471291D01*
X188319026Y-98468642D01*
X188087000Y-98589783D01*
X187833000Y-98589783D01*
X187600974Y-98468642D01*
X187585209Y-98471291D01*
X187057964Y-98725268D01*
X186668046Y-99161680D01*
X186474816Y-99714087D01*
X165014717Y-99714087D01*
X165020087Y-96246978D01*
X167002627Y-96246978D01*
X167375658Y-96747608D01*
X168799262Y-97349333D01*
X170344772Y-97360466D01*
X171776896Y-96779311D01*
X171824342Y-96747608D01*
X172197373Y-96246978D01*
X169600000Y-93649605D01*
X167002627Y-96246978D01*
X165020087Y-96246978D01*
X165023235Y-94214772D01*
X165709534Y-94214772D01*
X166290689Y-95646896D01*
X166322392Y-95694342D01*
X166823022Y-96067373D01*
X169420395Y-93470000D01*
X169779605Y-93470000D01*
X172376978Y-96067373D01*
X172390928Y-96056978D01*
X201364627Y-96056978D01*
X201737658Y-96557608D01*
X203161262Y-97159333D01*
X204706772Y-97170466D01*
X206138896Y-96589311D01*
X206186342Y-96557608D01*
X206559373Y-96056978D01*
X203962000Y-93459605D01*
X201364627Y-96056978D01*
X172390928Y-96056978D01*
X172877608Y-95694342D01*
X173479333Y-94270738D01*
X173481104Y-94024772D01*
X200071534Y-94024772D01*
X200652689Y-95456896D01*
X200684392Y-95504342D01*
X201185022Y-95877373D01*
X203782395Y-93280000D01*
X201185022Y-90682627D01*
X200684392Y-91055658D01*
X200082667Y-92479262D01*
X200071534Y-94024772D01*
X173481104Y-94024772D01*
X173490466Y-92725228D01*
X172909311Y-91293104D01*
X172877608Y-91245658D01*
X172376978Y-90872627D01*
X169779605Y-93470000D01*
X169420395Y-93470000D01*
X166823022Y-90872627D01*
X166322392Y-91245658D01*
X165720667Y-92669262D01*
X165709534Y-94214772D01*
X165023235Y-94214772D01*
X165028689Y-90693022D01*
X167002627Y-90693022D01*
X169600000Y-93290395D01*
X172197373Y-90693022D01*
X172055800Y-90503022D01*
X201364627Y-90503022D01*
X203962000Y-93100395D01*
X206559373Y-90503022D01*
X206186342Y-90002392D01*
X204762738Y-89400667D01*
X203217228Y-89389534D01*
X201785104Y-89970689D01*
X201737658Y-90002392D01*
X201364627Y-90503022D01*
X172055800Y-90503022D01*
X171824342Y-90192392D01*
X170400738Y-89590667D01*
X168855228Y-89579534D01*
X167423104Y-90160689D01*
X167375658Y-90192392D01*
X167002627Y-90693022D01*
X165028689Y-90693022D01*
X165038901Y-84100000D01*
X186495131Y-84100000D01*
X186448960Y-84328000D01*
M02*
