G04 #@! TF.FileFunction,Copper,L1,Top,Signal*
%FSLAX46Y46*%
G04 Gerber Fmt 4.6, Leading zero omitted, Abs format (unit mm)*
G04 Created by KiCad (PCBNEW 4.0.1-stable) date Wednesday, August 10, 2016 'PMt' 06:58:00 PM*
%MOMM*%
G01*
G04 APERTURE LIST*
%ADD10C,0.100000*%
%ADD11R,1.727200X2.032000*%
%ADD12O,1.727200X2.032000*%
%ADD13R,1.300000X0.700000*%
%ADD14R,1.450000X0.450000*%
%ADD15R,1.250000X1.000000*%
%ADD16R,1.000000X1.250000*%
%ADD17C,6.500000*%
%ADD18R,0.700000X1.300000*%
%ADD19C,0.685800*%
%ADD20C,0.152400*%
G04 APERTURE END LIST*
D10*
D11*
X187960000Y-85344000D03*
D12*
X190500000Y-85344000D03*
X193040000Y-85344000D03*
D13*
X194310000Y-94620000D03*
X194310000Y-96520000D03*
D14*
X190754000Y-95900000D03*
X190754000Y-95250000D03*
X190754000Y-94600000D03*
X190754000Y-93950000D03*
X184854000Y-93950000D03*
X184854000Y-94600000D03*
X184854000Y-95250000D03*
X184854000Y-95900000D03*
D15*
X183642000Y-98584000D03*
X183642000Y-100584000D03*
D16*
X177070000Y-97536000D03*
X179070000Y-97536000D03*
D11*
X193040000Y-100076000D03*
D12*
X190500000Y-100076000D03*
X187960000Y-100076000D03*
D13*
X194310000Y-90048000D03*
X194310000Y-91948000D03*
D17*
X203962000Y-93280000D03*
X169600000Y-93470000D03*
D13*
X191008000Y-90800000D03*
X191008000Y-88900000D03*
X181610000Y-92588000D03*
X181610000Y-94488000D03*
X187706000Y-88778000D03*
X187706000Y-90678000D03*
X184404000Y-90678000D03*
X184404000Y-88778000D03*
D18*
X179004000Y-93726000D03*
X177104000Y-93726000D03*
X179192000Y-89662000D03*
X177292000Y-89662000D03*
D19*
X181102000Y-99314000D03*
X177292000Y-91694000D03*
X184404000Y-87376000D03*
X191008000Y-92202000D03*
D20*
X190500000Y-85090000D02*
X190500000Y-85242400D01*
X190500000Y-85242400D02*
X194665600Y-89408000D01*
X194665600Y-89408000D02*
X195072000Y-89408000D01*
X190570000Y-100238400D02*
X190570000Y-100086000D01*
X195072000Y-89408000D02*
X195188601Y-89524601D01*
X195188601Y-89524601D02*
X195188601Y-100298481D01*
X195188601Y-100298481D02*
X194156481Y-101330601D01*
X191662201Y-101330601D02*
X190570000Y-100238400D01*
X194156481Y-101330601D02*
X191662201Y-101330601D01*
X184854000Y-95900000D02*
X178978000Y-95900000D01*
X178978000Y-95900000D02*
X177104000Y-94026000D01*
X177104000Y-94026000D02*
X177104000Y-93726000D01*
X190570000Y-100086000D02*
X190570000Y-98917600D01*
X190570000Y-98917600D02*
X187552400Y-95900000D01*
X187552400Y-95900000D02*
X185731400Y-95900000D01*
X185731400Y-95900000D02*
X184854000Y-95900000D01*
X183642000Y-98584000D02*
X183642000Y-96612000D01*
X183642000Y-96612000D02*
X184354000Y-95900000D01*
X184354000Y-95900000D02*
X184854000Y-95900000D01*
X177104000Y-93726000D02*
X177104000Y-97502000D01*
X177104000Y-97502000D02*
X177070000Y-97536000D01*
X190570000Y-99933600D02*
X190570000Y-100086000D01*
X187960000Y-85090000D02*
X187960000Y-88524000D01*
X187960000Y-88524000D02*
X187706000Y-88778000D01*
X188006000Y-88778000D02*
X187706000Y-88778000D01*
X190754000Y-95900000D02*
X194192400Y-95900000D01*
X194192400Y-95900000D02*
X194310000Y-96017600D01*
X194310000Y-96017600D02*
X194310000Y-96520000D01*
X190754000Y-95900000D02*
X190754000Y-97730000D01*
X190754000Y-97730000D02*
X191941600Y-98917600D01*
X193110000Y-99933600D02*
X193110000Y-100086000D01*
X191941600Y-98917600D02*
X192094000Y-98917600D01*
X192094000Y-98917600D02*
X193110000Y-99933600D01*
X191008000Y-88900000D02*
X190205600Y-88900000D01*
X190205600Y-88900000D02*
X189006201Y-90099399D01*
X189006201Y-90099399D02*
X183571119Y-90099399D01*
X183571119Y-90099399D02*
X181610000Y-92060518D01*
X181610000Y-92060518D02*
X181610000Y-92085600D01*
X181610000Y-92085600D02*
X181610000Y-92588000D01*
X191008000Y-88900000D02*
X193664400Y-88900000D01*
X193664400Y-88900000D02*
X194310000Y-89545600D01*
X194310000Y-89545600D02*
X194310000Y-90048000D01*
X194310000Y-94620000D02*
X194310000Y-91948000D01*
X191631400Y-95250000D02*
X192261400Y-94620000D01*
X192261400Y-94620000D02*
X194310000Y-94620000D01*
X191631400Y-95250000D02*
X190754000Y-95250000D01*
X179070000Y-97536000D02*
X179070000Y-97661000D01*
X179070000Y-97661000D02*
X180723000Y-99314000D01*
X180723000Y-99314000D02*
X181102000Y-99314000D01*
X183642000Y-100584000D02*
X183517000Y-100584000D01*
X183517000Y-100584000D02*
X182247000Y-99314000D01*
X182247000Y-99314000D02*
X181102000Y-99314000D01*
X177292000Y-89662000D02*
X177292000Y-91694000D01*
X184404000Y-88778000D02*
X184404000Y-87376000D01*
X190754000Y-93950000D02*
X190754000Y-92456000D01*
X190754000Y-92456000D02*
X191008000Y-92202000D01*
X191008000Y-90800000D02*
X191008000Y-92202000D01*
X181610000Y-94488000D02*
X184742000Y-94488000D01*
X184742000Y-94488000D02*
X184854000Y-94600000D01*
X184854000Y-95250000D02*
X184854000Y-94600000D01*
X187706000Y-90678000D02*
X184404000Y-90678000D01*
X183962000Y-90678000D02*
X183896000Y-90612000D01*
X187706000Y-90678000D02*
X187706000Y-92429400D01*
X187706000Y-92429400D02*
X189876600Y-94600000D01*
X189876600Y-94600000D02*
X190754000Y-94600000D01*
X179004000Y-93726000D02*
X179004000Y-89850000D01*
X179004000Y-89850000D02*
X179192000Y-89662000D01*
X179004000Y-93726000D02*
X184630000Y-93726000D01*
X184630000Y-93726000D02*
X184854000Y-93950000D01*
M02*
