G04 #@! TF.FileFunction,Legend,Bot*
%FSLAX46Y46*%
G04 Gerber Fmt 4.6, Leading zero omitted, Abs format (unit mm)*
G04 Created by KiCad (PCBNEW 4.0.5) date Tuesday, July 04, 2017 'PMt' 04:58:29 PM*
%MOMM*%
%LPD*%
G01*
G04 APERTURE LIST*
%ADD10C,0.050000*%
%ADD11C,0.125000*%
%ADD12C,1.000000*%
G04 APERTURE END LIST*
D10*
D11*
X103214286Y-61464286D02*
X103380952Y-61464286D01*
X103380952Y-61726190D02*
X103380952Y-61226190D01*
X103142857Y-61226190D01*
X102761905Y-61702381D02*
X102809524Y-61726190D01*
X102904762Y-61726190D01*
X102952381Y-61702381D01*
X102976191Y-61654762D01*
X102976191Y-61464286D01*
X102952381Y-61416667D01*
X102904762Y-61392857D01*
X102809524Y-61392857D01*
X102761905Y-61416667D01*
X102738096Y-61464286D01*
X102738096Y-61511905D01*
X102976191Y-61559524D01*
X102309525Y-61726190D02*
X102309525Y-61464286D01*
X102333334Y-61416667D01*
X102380953Y-61392857D01*
X102476191Y-61392857D01*
X102523810Y-61416667D01*
X102309525Y-61702381D02*
X102357144Y-61726190D01*
X102476191Y-61726190D01*
X102523810Y-61702381D01*
X102547620Y-61654762D01*
X102547620Y-61607143D01*
X102523810Y-61559524D01*
X102476191Y-61535714D01*
X102357144Y-61535714D01*
X102309525Y-61511905D01*
X102142858Y-61392857D02*
X101952382Y-61392857D01*
X102071429Y-61226190D02*
X102071429Y-61654762D01*
X102047620Y-61702381D01*
X102000001Y-61726190D01*
X101952382Y-61726190D01*
X101571430Y-61392857D02*
X101571430Y-61726190D01*
X101785715Y-61392857D02*
X101785715Y-61654762D01*
X101761906Y-61702381D01*
X101714287Y-61726190D01*
X101642858Y-61726190D01*
X101595239Y-61702381D01*
X101571430Y-61678571D01*
X101333334Y-61726190D02*
X101333334Y-61392857D01*
X101333334Y-61488095D02*
X101309525Y-61440476D01*
X101285715Y-61416667D01*
X101238096Y-61392857D01*
X101190477Y-61392857D01*
X100833334Y-61702381D02*
X100880953Y-61726190D01*
X100976191Y-61726190D01*
X101023810Y-61702381D01*
X101047620Y-61654762D01*
X101047620Y-61464286D01*
X101023810Y-61416667D01*
X100976191Y-61392857D01*
X100880953Y-61392857D01*
X100833334Y-61416667D01*
X100809525Y-61464286D01*
X100809525Y-61511905D01*
X101047620Y-61559524D01*
X100619049Y-61702381D02*
X100571430Y-61726190D01*
X100476192Y-61726190D01*
X100428573Y-61702381D01*
X100404763Y-61654762D01*
X100404763Y-61630952D01*
X100428573Y-61583333D01*
X100476192Y-61559524D01*
X100547620Y-61559524D01*
X100595239Y-61535714D01*
X100619049Y-61488095D01*
X100619049Y-61464286D01*
X100595239Y-61416667D01*
X100547620Y-61392857D01*
X100476192Y-61392857D01*
X100428573Y-61416667D01*
X100190477Y-61678571D02*
X100166668Y-61702381D01*
X100190477Y-61726190D01*
X100214287Y-61702381D01*
X100190477Y-61678571D01*
X100190477Y-61726190D01*
X100190477Y-61416667D02*
X100166668Y-61440476D01*
X100190477Y-61464286D01*
X100214287Y-61440476D01*
X100190477Y-61416667D01*
X100190477Y-61464286D01*
X103119048Y-62601190D02*
X103404762Y-62601190D01*
X103261905Y-62601190D02*
X103261905Y-62101190D01*
X103309524Y-62172619D01*
X103357143Y-62220238D01*
X103404762Y-62244048D01*
X102952381Y-62601190D02*
X102690477Y-62267857D01*
X102952381Y-62267857D02*
X102690477Y-62601190D01*
X102142858Y-62458333D02*
X101904763Y-62458333D01*
X102190477Y-62601190D02*
X102023810Y-62101190D01*
X101857144Y-62601190D01*
X101761906Y-62267857D02*
X101571430Y-62267857D01*
X101690477Y-62101190D02*
X101690477Y-62529762D01*
X101666668Y-62577381D01*
X101619049Y-62601190D01*
X101571430Y-62601190D01*
X101404763Y-62601190D02*
X101404763Y-62267857D01*
X101404763Y-62315476D02*
X101380954Y-62291667D01*
X101333335Y-62267857D01*
X101261906Y-62267857D01*
X101214287Y-62291667D01*
X101190478Y-62339286D01*
X101190478Y-62601190D01*
X101190478Y-62339286D02*
X101166668Y-62291667D01*
X101119049Y-62267857D01*
X101047621Y-62267857D01*
X101000001Y-62291667D01*
X100976192Y-62339286D01*
X100976192Y-62601190D01*
X100547620Y-62577381D02*
X100595239Y-62601190D01*
X100690477Y-62601190D01*
X100738096Y-62577381D01*
X100761906Y-62529762D01*
X100761906Y-62339286D01*
X100738096Y-62291667D01*
X100690477Y-62267857D01*
X100595239Y-62267857D01*
X100547620Y-62291667D01*
X100523811Y-62339286D01*
X100523811Y-62386905D01*
X100761906Y-62434524D01*
X100095240Y-62267857D02*
X100095240Y-62672619D01*
X100119049Y-62720238D01*
X100142859Y-62744048D01*
X100190478Y-62767857D01*
X100261906Y-62767857D01*
X100309525Y-62744048D01*
X100095240Y-62577381D02*
X100142859Y-62601190D01*
X100238097Y-62601190D01*
X100285716Y-62577381D01*
X100309525Y-62553571D01*
X100333335Y-62505952D01*
X100333335Y-62363095D01*
X100309525Y-62315476D01*
X100285716Y-62291667D01*
X100238097Y-62267857D01*
X100142859Y-62267857D01*
X100095240Y-62291667D01*
X99642859Y-62601190D02*
X99642859Y-62339286D01*
X99666668Y-62291667D01*
X99714287Y-62267857D01*
X99809525Y-62267857D01*
X99857144Y-62291667D01*
X99642859Y-62577381D02*
X99690478Y-62601190D01*
X99809525Y-62601190D01*
X99857144Y-62577381D01*
X99880954Y-62529762D01*
X99880954Y-62482143D01*
X99857144Y-62434524D01*
X99809525Y-62410714D01*
X99690478Y-62410714D01*
X99642859Y-62386905D01*
X99452382Y-62101190D02*
X99142859Y-62101190D01*
X99309525Y-62291667D01*
X99238097Y-62291667D01*
X99190478Y-62315476D01*
X99166668Y-62339286D01*
X99142859Y-62386905D01*
X99142859Y-62505952D01*
X99166668Y-62553571D01*
X99190478Y-62577381D01*
X99238097Y-62601190D01*
X99380954Y-62601190D01*
X99428573Y-62577381D01*
X99452382Y-62553571D01*
X98952383Y-62148810D02*
X98928573Y-62125000D01*
X98880954Y-62101190D01*
X98761907Y-62101190D01*
X98714288Y-62125000D01*
X98690478Y-62148810D01*
X98666669Y-62196429D01*
X98666669Y-62244048D01*
X98690478Y-62315476D01*
X98976192Y-62601190D01*
X98666669Y-62601190D01*
X98452383Y-62101190D02*
X98452383Y-62505952D01*
X98428574Y-62553571D01*
X98404764Y-62577381D01*
X98357145Y-62601190D01*
X98261907Y-62601190D01*
X98214288Y-62577381D01*
X98190479Y-62553571D01*
X98166669Y-62505952D01*
X98166669Y-62101190D01*
X97714288Y-62267857D02*
X97714288Y-62601190D01*
X97833335Y-62077381D02*
X97952383Y-62434524D01*
X97642859Y-62434524D01*
X97071431Y-62601190D02*
X97071431Y-62101190D01*
X96904765Y-62458333D01*
X96738098Y-62101190D01*
X96738098Y-62601190D01*
X96500002Y-62601190D02*
X96500002Y-62267857D01*
X96500002Y-62101190D02*
X96523812Y-62125000D01*
X96500002Y-62148810D01*
X96476193Y-62125000D01*
X96500002Y-62101190D01*
X96500002Y-62148810D01*
X96047622Y-62577381D02*
X96095241Y-62601190D01*
X96190479Y-62601190D01*
X96238098Y-62577381D01*
X96261907Y-62553571D01*
X96285717Y-62505952D01*
X96285717Y-62363095D01*
X96261907Y-62315476D01*
X96238098Y-62291667D01*
X96190479Y-62267857D01*
X96095241Y-62267857D01*
X96047622Y-62291667D01*
X95833336Y-62601190D02*
X95833336Y-62267857D01*
X95833336Y-62363095D02*
X95809527Y-62315476D01*
X95785717Y-62291667D01*
X95738098Y-62267857D01*
X95690479Y-62267857D01*
X95452384Y-62601190D02*
X95500003Y-62577381D01*
X95523812Y-62553571D01*
X95547622Y-62505952D01*
X95547622Y-62363095D01*
X95523812Y-62315476D01*
X95500003Y-62291667D01*
X95452384Y-62267857D01*
X95380955Y-62267857D01*
X95333336Y-62291667D01*
X95309527Y-62315476D01*
X95285717Y-62363095D01*
X95285717Y-62505952D01*
X95309527Y-62553571D01*
X95333336Y-62577381D01*
X95380955Y-62601190D01*
X95452384Y-62601190D01*
X94857146Y-62577381D02*
X94904765Y-62601190D01*
X95000003Y-62601190D01*
X95047622Y-62577381D01*
X95071431Y-62553571D01*
X95095241Y-62505952D01*
X95095241Y-62363095D01*
X95071431Y-62315476D01*
X95047622Y-62291667D01*
X95000003Y-62267857D01*
X94904765Y-62267857D01*
X94857146Y-62291667D01*
X94571432Y-62601190D02*
X94619051Y-62577381D01*
X94642860Y-62553571D01*
X94666670Y-62505952D01*
X94666670Y-62363095D01*
X94642860Y-62315476D01*
X94619051Y-62291667D01*
X94571432Y-62267857D01*
X94500003Y-62267857D01*
X94452384Y-62291667D01*
X94428575Y-62315476D01*
X94404765Y-62363095D01*
X94404765Y-62505952D01*
X94428575Y-62553571D01*
X94452384Y-62577381D01*
X94500003Y-62601190D01*
X94571432Y-62601190D01*
X94190479Y-62267857D02*
X94190479Y-62601190D01*
X94190479Y-62315476D02*
X94166670Y-62291667D01*
X94119051Y-62267857D01*
X94047622Y-62267857D01*
X94000003Y-62291667D01*
X93976194Y-62339286D01*
X93976194Y-62601190D01*
X93809527Y-62267857D02*
X93619051Y-62267857D01*
X93738098Y-62101190D02*
X93738098Y-62529762D01*
X93714289Y-62577381D01*
X93666670Y-62601190D01*
X93619051Y-62601190D01*
X93452384Y-62601190D02*
X93452384Y-62267857D01*
X93452384Y-62363095D02*
X93428575Y-62315476D01*
X93404765Y-62291667D01*
X93357146Y-62267857D01*
X93309527Y-62267857D01*
X93071432Y-62601190D02*
X93119051Y-62577381D01*
X93142860Y-62553571D01*
X93166670Y-62505952D01*
X93166670Y-62363095D01*
X93142860Y-62315476D01*
X93119051Y-62291667D01*
X93071432Y-62267857D01*
X93000003Y-62267857D01*
X92952384Y-62291667D01*
X92928575Y-62315476D01*
X92904765Y-62363095D01*
X92904765Y-62505952D01*
X92928575Y-62553571D01*
X92952384Y-62577381D01*
X93000003Y-62601190D01*
X93071432Y-62601190D01*
X92619051Y-62601190D02*
X92666670Y-62577381D01*
X92690479Y-62529762D01*
X92690479Y-62101190D01*
X92357146Y-62601190D02*
X92404765Y-62577381D01*
X92428574Y-62529762D01*
X92428574Y-62101190D01*
X91976193Y-62577381D02*
X92023812Y-62601190D01*
X92119050Y-62601190D01*
X92166669Y-62577381D01*
X92190479Y-62529762D01*
X92190479Y-62339286D01*
X92166669Y-62291667D01*
X92119050Y-62267857D01*
X92023812Y-62267857D01*
X91976193Y-62291667D01*
X91952384Y-62339286D01*
X91952384Y-62386905D01*
X92190479Y-62434524D01*
X91738098Y-62601190D02*
X91738098Y-62267857D01*
X91738098Y-62363095D02*
X91714289Y-62315476D01*
X91690479Y-62291667D01*
X91642860Y-62267857D01*
X91595241Y-62267857D01*
X103166667Y-63142857D02*
X103166667Y-63476190D01*
X103285714Y-62952381D02*
X103404762Y-63309524D01*
X103095238Y-63309524D01*
X102952381Y-63476190D02*
X102690477Y-63142857D01*
X102952381Y-63142857D02*
X102690477Y-63476190D01*
X102119048Y-63476190D02*
X102119048Y-62976190D01*
X102000001Y-62976190D01*
X101928572Y-63000000D01*
X101880953Y-63047619D01*
X101857144Y-63095238D01*
X101833334Y-63190476D01*
X101833334Y-63261905D01*
X101857144Y-63357143D01*
X101880953Y-63404762D01*
X101928572Y-63452381D01*
X102000001Y-63476190D01*
X102119048Y-63476190D01*
X101428572Y-63452381D02*
X101476191Y-63476190D01*
X101571429Y-63476190D01*
X101619048Y-63452381D01*
X101642858Y-63404762D01*
X101642858Y-63214286D01*
X101619048Y-63166667D01*
X101571429Y-63142857D01*
X101476191Y-63142857D01*
X101428572Y-63166667D01*
X101404763Y-63214286D01*
X101404763Y-63261905D01*
X101642858Y-63309524D01*
X101190477Y-63476190D02*
X101190477Y-62976190D01*
X101190477Y-63166667D02*
X101142858Y-63142857D01*
X101047620Y-63142857D01*
X101000001Y-63166667D01*
X100976192Y-63190476D01*
X100952382Y-63238095D01*
X100952382Y-63380952D01*
X100976192Y-63428571D01*
X101000001Y-63452381D01*
X101047620Y-63476190D01*
X101142858Y-63476190D01*
X101190477Y-63452381D01*
X100523811Y-63142857D02*
X100523811Y-63476190D01*
X100738096Y-63142857D02*
X100738096Y-63404762D01*
X100714287Y-63452381D01*
X100666668Y-63476190D01*
X100595239Y-63476190D01*
X100547620Y-63452381D01*
X100523811Y-63428571D01*
X100071430Y-63142857D02*
X100071430Y-63547619D01*
X100095239Y-63595238D01*
X100119049Y-63619048D01*
X100166668Y-63642857D01*
X100238096Y-63642857D01*
X100285715Y-63619048D01*
X100071430Y-63452381D02*
X100119049Y-63476190D01*
X100214287Y-63476190D01*
X100261906Y-63452381D01*
X100285715Y-63428571D01*
X100309525Y-63380952D01*
X100309525Y-63238095D01*
X100285715Y-63190476D01*
X100261906Y-63166667D01*
X100214287Y-63142857D01*
X100119049Y-63142857D01*
X100071430Y-63166667D01*
X99214287Y-63476190D02*
X99452382Y-63476190D01*
X99452382Y-62976190D01*
X99047620Y-63214286D02*
X98880954Y-63214286D01*
X98809525Y-63476190D02*
X99047620Y-63476190D01*
X99047620Y-62976190D01*
X98809525Y-62976190D01*
X98595239Y-63476190D02*
X98595239Y-62976190D01*
X98476192Y-62976190D01*
X98404763Y-63000000D01*
X98357144Y-63047619D01*
X98333335Y-63095238D01*
X98309525Y-63190476D01*
X98309525Y-63261905D01*
X98333335Y-63357143D01*
X98357144Y-63404762D01*
X98404763Y-63452381D01*
X98476192Y-63476190D01*
X98595239Y-63476190D01*
X98119049Y-63452381D02*
X98071430Y-63476190D01*
X97976192Y-63476190D01*
X97928573Y-63452381D01*
X97904763Y-63404762D01*
X97904763Y-63380952D01*
X97928573Y-63333333D01*
X97976192Y-63309524D01*
X98047620Y-63309524D01*
X98095239Y-63285714D01*
X98119049Y-63238095D01*
X98119049Y-63214286D01*
X98095239Y-63166667D01*
X98047620Y-63142857D01*
X97976192Y-63142857D01*
X97928573Y-63166667D01*
X103404762Y-63898810D02*
X103380952Y-63875000D01*
X103333333Y-63851190D01*
X103214286Y-63851190D01*
X103166667Y-63875000D01*
X103142857Y-63898810D01*
X103119048Y-63946429D01*
X103119048Y-63994048D01*
X103142857Y-64065476D01*
X103428571Y-64351190D01*
X103119048Y-64351190D01*
X102952381Y-64351190D02*
X102690477Y-64017857D01*
X102952381Y-64017857D02*
X102690477Y-64351190D01*
X102119048Y-64351190D02*
X102119048Y-63851190D01*
X102119048Y-64089286D02*
X101833334Y-64089286D01*
X101833334Y-64351190D02*
X101833334Y-63851190D01*
X101595238Y-64351190D02*
X101595238Y-64017857D01*
X101595238Y-63851190D02*
X101619048Y-63875000D01*
X101595238Y-63898810D01*
X101571429Y-63875000D01*
X101595238Y-63851190D01*
X101595238Y-63898810D01*
X101142858Y-64017857D02*
X101142858Y-64422619D01*
X101166667Y-64470238D01*
X101190477Y-64494048D01*
X101238096Y-64517857D01*
X101309524Y-64517857D01*
X101357143Y-64494048D01*
X101142858Y-64327381D02*
X101190477Y-64351190D01*
X101285715Y-64351190D01*
X101333334Y-64327381D01*
X101357143Y-64303571D01*
X101380953Y-64255952D01*
X101380953Y-64113095D01*
X101357143Y-64065476D01*
X101333334Y-64041667D01*
X101285715Y-64017857D01*
X101190477Y-64017857D01*
X101142858Y-64041667D01*
X100904762Y-64351190D02*
X100904762Y-63851190D01*
X100690477Y-64351190D02*
X100690477Y-64089286D01*
X100714286Y-64041667D01*
X100761905Y-64017857D01*
X100833334Y-64017857D01*
X100880953Y-64041667D01*
X100904762Y-64065476D01*
X99785715Y-64303571D02*
X99809525Y-64327381D01*
X99880953Y-64351190D01*
X99928572Y-64351190D01*
X100000001Y-64327381D01*
X100047620Y-64279762D01*
X100071429Y-64232143D01*
X100095239Y-64136905D01*
X100095239Y-64065476D01*
X100071429Y-63970238D01*
X100047620Y-63922619D01*
X100000001Y-63875000D01*
X99928572Y-63851190D01*
X99880953Y-63851190D01*
X99809525Y-63875000D01*
X99785715Y-63898810D01*
X99357144Y-64017857D02*
X99357144Y-64351190D01*
X99571429Y-64017857D02*
X99571429Y-64279762D01*
X99547620Y-64327381D01*
X99500001Y-64351190D01*
X99428572Y-64351190D01*
X99380953Y-64327381D01*
X99357144Y-64303571D01*
X99119048Y-64351190D02*
X99119048Y-64017857D01*
X99119048Y-64113095D02*
X99095239Y-64065476D01*
X99071429Y-64041667D01*
X99023810Y-64017857D01*
X98976191Y-64017857D01*
X98809524Y-64351190D02*
X98809524Y-64017857D01*
X98809524Y-64113095D02*
X98785715Y-64065476D01*
X98761905Y-64041667D01*
X98714286Y-64017857D01*
X98666667Y-64017857D01*
X98309524Y-64327381D02*
X98357143Y-64351190D01*
X98452381Y-64351190D01*
X98500000Y-64327381D01*
X98523810Y-64279762D01*
X98523810Y-64089286D01*
X98500000Y-64041667D01*
X98452381Y-64017857D01*
X98357143Y-64017857D01*
X98309524Y-64041667D01*
X98285715Y-64089286D01*
X98285715Y-64136905D01*
X98523810Y-64184524D01*
X98071429Y-64017857D02*
X98071429Y-64351190D01*
X98071429Y-64065476D02*
X98047620Y-64041667D01*
X98000001Y-64017857D01*
X97928572Y-64017857D01*
X97880953Y-64041667D01*
X97857144Y-64089286D01*
X97857144Y-64351190D01*
X97690477Y-64017857D02*
X97500001Y-64017857D01*
X97619048Y-63851190D02*
X97619048Y-64279762D01*
X97595239Y-64327381D01*
X97547620Y-64351190D01*
X97500001Y-64351190D01*
X96714287Y-64351190D02*
X96952382Y-64351190D01*
X96952382Y-63851190D01*
X96547620Y-64089286D02*
X96380954Y-64089286D01*
X96309525Y-64351190D02*
X96547620Y-64351190D01*
X96547620Y-63851190D01*
X96309525Y-63851190D01*
X96095239Y-64351190D02*
X96095239Y-63851190D01*
X95976192Y-63851190D01*
X95904763Y-63875000D01*
X95857144Y-63922619D01*
X95833335Y-63970238D01*
X95809525Y-64065476D01*
X95809525Y-64136905D01*
X95833335Y-64232143D01*
X95857144Y-64279762D01*
X95904763Y-64327381D01*
X95976192Y-64351190D01*
X96095239Y-64351190D01*
X95142859Y-64351190D02*
X95190478Y-64327381D01*
X95214287Y-64303571D01*
X95238097Y-64255952D01*
X95238097Y-64113095D01*
X95214287Y-64065476D01*
X95190478Y-64041667D01*
X95142859Y-64017857D01*
X95071430Y-64017857D01*
X95023811Y-64041667D01*
X95000002Y-64065476D01*
X94976192Y-64113095D01*
X94976192Y-64255952D01*
X95000002Y-64303571D01*
X95023811Y-64327381D01*
X95071430Y-64351190D01*
X95142859Y-64351190D01*
X94547621Y-64017857D02*
X94547621Y-64351190D01*
X94761906Y-64017857D02*
X94761906Y-64279762D01*
X94738097Y-64327381D01*
X94690478Y-64351190D01*
X94619049Y-64351190D01*
X94571430Y-64327381D01*
X94547621Y-64303571D01*
X94380954Y-64017857D02*
X94190478Y-64017857D01*
X94309525Y-63851190D02*
X94309525Y-64279762D01*
X94285716Y-64327381D01*
X94238097Y-64351190D01*
X94190478Y-64351190D01*
X94023811Y-64017857D02*
X94023811Y-64517857D01*
X94023811Y-64041667D02*
X93976192Y-64017857D01*
X93880954Y-64017857D01*
X93833335Y-64041667D01*
X93809526Y-64065476D01*
X93785716Y-64113095D01*
X93785716Y-64255952D01*
X93809526Y-64303571D01*
X93833335Y-64327381D01*
X93880954Y-64351190D01*
X93976192Y-64351190D01*
X94023811Y-64327381D01*
X93357145Y-64017857D02*
X93357145Y-64351190D01*
X93571430Y-64017857D02*
X93571430Y-64279762D01*
X93547621Y-64327381D01*
X93500002Y-64351190D01*
X93428573Y-64351190D01*
X93380954Y-64327381D01*
X93357145Y-64303571D01*
X93190478Y-64017857D02*
X93000002Y-64017857D01*
X93119049Y-63851190D02*
X93119049Y-64279762D01*
X93095240Y-64327381D01*
X93047621Y-64351190D01*
X93000002Y-64351190D01*
X92857145Y-64327381D02*
X92809526Y-64351190D01*
X92714288Y-64351190D01*
X92666669Y-64327381D01*
X92642859Y-64279762D01*
X92642859Y-64255952D01*
X92666669Y-64208333D01*
X92714288Y-64184524D01*
X92785716Y-64184524D01*
X92833335Y-64160714D01*
X92857145Y-64113095D01*
X92857145Y-64089286D01*
X92833335Y-64041667D01*
X92785716Y-64017857D01*
X92714288Y-64017857D01*
X92666669Y-64041667D01*
X103119048Y-65226190D02*
X103404762Y-65226190D01*
X103261905Y-65226190D02*
X103261905Y-64726190D01*
X103309524Y-64797619D01*
X103357143Y-64845238D01*
X103404762Y-64869048D01*
X102952381Y-65226190D02*
X102690477Y-64892857D01*
X102952381Y-64892857D02*
X102690477Y-65226190D01*
X102166667Y-64726190D02*
X101857144Y-64726190D01*
X102023810Y-64916667D01*
X101952382Y-64916667D01*
X101904763Y-64940476D01*
X101880953Y-64964286D01*
X101857144Y-65011905D01*
X101857144Y-65130952D01*
X101880953Y-65178571D01*
X101904763Y-65202381D01*
X101952382Y-65226190D01*
X102095239Y-65226190D01*
X102142858Y-65202381D01*
X102166667Y-65178571D01*
X101571430Y-64940476D02*
X101619049Y-64916667D01*
X101642858Y-64892857D01*
X101666668Y-64845238D01*
X101666668Y-64821429D01*
X101642858Y-64773810D01*
X101619049Y-64750000D01*
X101571430Y-64726190D01*
X101476192Y-64726190D01*
X101428573Y-64750000D01*
X101404763Y-64773810D01*
X101380954Y-64821429D01*
X101380954Y-64845238D01*
X101404763Y-64892857D01*
X101428573Y-64916667D01*
X101476192Y-64940476D01*
X101571430Y-64940476D01*
X101619049Y-64964286D01*
X101642858Y-64988095D01*
X101666668Y-65035714D01*
X101666668Y-65130952D01*
X101642858Y-65178571D01*
X101619049Y-65202381D01*
X101571430Y-65226190D01*
X101476192Y-65226190D01*
X101428573Y-65202381D01*
X101404763Y-65178571D01*
X101380954Y-65130952D01*
X101380954Y-65035714D01*
X101404763Y-64988095D01*
X101428573Y-64964286D01*
X101476192Y-64940476D01*
X101166668Y-65226190D02*
X101166668Y-64726190D01*
X100880954Y-65226190D02*
X101095240Y-64940476D01*
X100880954Y-64726190D02*
X101166668Y-65011905D01*
X100666668Y-65226190D02*
X100666668Y-64726190D01*
X100452383Y-65226190D02*
X100452383Y-64964286D01*
X100476192Y-64916667D01*
X100523811Y-64892857D01*
X100595240Y-64892857D01*
X100642859Y-64916667D01*
X100666668Y-64940476D01*
X100261906Y-64892857D02*
X100000002Y-64892857D01*
X100261906Y-65226190D01*
X100000002Y-65226190D01*
X99500002Y-64892857D02*
X99309526Y-64892857D01*
X99428573Y-64726190D02*
X99428573Y-65154762D01*
X99404764Y-65202381D01*
X99357145Y-65226190D01*
X99309526Y-65226190D01*
X98928574Y-64892857D02*
X98928574Y-65226190D01*
X99142859Y-64892857D02*
X99142859Y-65154762D01*
X99119050Y-65202381D01*
X99071431Y-65226190D01*
X99000002Y-65226190D01*
X98952383Y-65202381D01*
X98928574Y-65178571D01*
X98690478Y-64892857D02*
X98690478Y-65226190D01*
X98690478Y-64940476D02*
X98666669Y-64916667D01*
X98619050Y-64892857D01*
X98547621Y-64892857D01*
X98500002Y-64916667D01*
X98476193Y-64964286D01*
X98476193Y-65226190D01*
X98023812Y-65226190D02*
X98023812Y-64964286D01*
X98047621Y-64916667D01*
X98095240Y-64892857D01*
X98190478Y-64892857D01*
X98238097Y-64916667D01*
X98023812Y-65202381D02*
X98071431Y-65226190D01*
X98190478Y-65226190D01*
X98238097Y-65202381D01*
X98261907Y-65154762D01*
X98261907Y-65107143D01*
X98238097Y-65059524D01*
X98190478Y-65035714D01*
X98071431Y-65035714D01*
X98023812Y-65011905D01*
X97785716Y-65226190D02*
X97785716Y-64726190D01*
X97785716Y-64916667D02*
X97738097Y-64892857D01*
X97642859Y-64892857D01*
X97595240Y-64916667D01*
X97571431Y-64940476D01*
X97547621Y-64988095D01*
X97547621Y-65130952D01*
X97571431Y-65178571D01*
X97595240Y-65202381D01*
X97642859Y-65226190D01*
X97738097Y-65226190D01*
X97785716Y-65202381D01*
X97261907Y-65226190D02*
X97309526Y-65202381D01*
X97333335Y-65154762D01*
X97333335Y-64726190D01*
X96880954Y-65202381D02*
X96928573Y-65226190D01*
X97023811Y-65226190D01*
X97071430Y-65202381D01*
X97095240Y-65154762D01*
X97095240Y-64964286D01*
X97071430Y-64916667D01*
X97023811Y-64892857D01*
X96928573Y-64892857D01*
X96880954Y-64916667D01*
X96857145Y-64964286D01*
X96857145Y-65011905D01*
X97095240Y-65059524D01*
X96261907Y-65226190D02*
X96261907Y-64726190D01*
X95738098Y-65226190D02*
X95904765Y-64988095D01*
X96023812Y-65226190D02*
X96023812Y-64726190D01*
X95833336Y-64726190D01*
X95785717Y-64750000D01*
X95761908Y-64773810D01*
X95738098Y-64821429D01*
X95738098Y-64892857D01*
X95761908Y-64940476D01*
X95785717Y-64964286D01*
X95833336Y-64988095D01*
X96023812Y-64988095D01*
X95142860Y-65226190D02*
X95142860Y-64726190D01*
X94976194Y-65083333D01*
X94809527Y-64726190D01*
X94809527Y-65226190D01*
X94500003Y-65226190D02*
X94547622Y-65202381D01*
X94571431Y-65178571D01*
X94595241Y-65130952D01*
X94595241Y-64988095D01*
X94571431Y-64940476D01*
X94547622Y-64916667D01*
X94500003Y-64892857D01*
X94428574Y-64892857D01*
X94380955Y-64916667D01*
X94357146Y-64940476D01*
X94333336Y-64988095D01*
X94333336Y-65130952D01*
X94357146Y-65178571D01*
X94380955Y-65202381D01*
X94428574Y-65226190D01*
X94500003Y-65226190D01*
X93904765Y-65226190D02*
X93904765Y-64726190D01*
X93904765Y-65202381D02*
X93952384Y-65226190D01*
X94047622Y-65226190D01*
X94095241Y-65202381D01*
X94119050Y-65178571D01*
X94142860Y-65130952D01*
X94142860Y-64988095D01*
X94119050Y-64940476D01*
X94095241Y-64916667D01*
X94047622Y-64892857D01*
X93952384Y-64892857D01*
X93904765Y-64916667D01*
X93452384Y-64892857D02*
X93452384Y-65226190D01*
X93666669Y-64892857D02*
X93666669Y-65154762D01*
X93642860Y-65202381D01*
X93595241Y-65226190D01*
X93523812Y-65226190D01*
X93476193Y-65202381D01*
X93452384Y-65178571D01*
X93142860Y-65226190D02*
X93190479Y-65202381D01*
X93214288Y-65154762D01*
X93214288Y-64726190D01*
X92738098Y-65226190D02*
X92738098Y-64964286D01*
X92761907Y-64916667D01*
X92809526Y-64892857D01*
X92904764Y-64892857D01*
X92952383Y-64916667D01*
X92738098Y-65202381D02*
X92785717Y-65226190D01*
X92904764Y-65226190D01*
X92952383Y-65202381D01*
X92976193Y-65154762D01*
X92976193Y-65107143D01*
X92952383Y-65059524D01*
X92904764Y-65035714D01*
X92785717Y-65035714D01*
X92738098Y-65011905D01*
X92571431Y-64892857D02*
X92380955Y-64892857D01*
X92500002Y-64726190D02*
X92500002Y-65154762D01*
X92476193Y-65202381D01*
X92428574Y-65226190D01*
X92380955Y-65226190D01*
X92142860Y-65226190D02*
X92190479Y-65202381D01*
X92214288Y-65178571D01*
X92238098Y-65130952D01*
X92238098Y-64988095D01*
X92214288Y-64940476D01*
X92190479Y-64916667D01*
X92142860Y-64892857D01*
X92071431Y-64892857D01*
X92023812Y-64916667D01*
X92000003Y-64940476D01*
X91976193Y-64988095D01*
X91976193Y-65130952D01*
X92000003Y-65178571D01*
X92023812Y-65202381D01*
X92071431Y-65226190D01*
X92142860Y-65226190D01*
X91761907Y-65226190D02*
X91761907Y-64892857D01*
X91761907Y-64988095D02*
X91738098Y-64940476D01*
X91714288Y-64916667D01*
X91666669Y-64892857D01*
X91619050Y-64892857D01*
X103404762Y-65648810D02*
X103380952Y-65625000D01*
X103333333Y-65601190D01*
X103214286Y-65601190D01*
X103166667Y-65625000D01*
X103142857Y-65648810D01*
X103119048Y-65696429D01*
X103119048Y-65744048D01*
X103142857Y-65815476D01*
X103428571Y-66101190D01*
X103119048Y-66101190D01*
X102952381Y-66101190D02*
X102690477Y-65767857D01*
X102952381Y-65767857D02*
X102690477Y-66101190D01*
X101833334Y-66053571D02*
X101857144Y-66077381D01*
X101928572Y-66101190D01*
X101976191Y-66101190D01*
X102047620Y-66077381D01*
X102095239Y-66029762D01*
X102119048Y-65982143D01*
X102142858Y-65886905D01*
X102142858Y-65815476D01*
X102119048Y-65720238D01*
X102095239Y-65672619D01*
X102047620Y-65625000D01*
X101976191Y-65601190D01*
X101928572Y-65601190D01*
X101857144Y-65625000D01*
X101833334Y-65648810D01*
X101547620Y-66101190D02*
X101595239Y-66077381D01*
X101619048Y-66053571D01*
X101642858Y-66005952D01*
X101642858Y-65863095D01*
X101619048Y-65815476D01*
X101595239Y-65791667D01*
X101547620Y-65767857D01*
X101476191Y-65767857D01*
X101428572Y-65791667D01*
X101404763Y-65815476D01*
X101380953Y-65863095D01*
X101380953Y-66005952D01*
X101404763Y-66053571D01*
X101428572Y-66077381D01*
X101476191Y-66101190D01*
X101547620Y-66101190D01*
X101166667Y-65767857D02*
X101166667Y-66101190D01*
X101166667Y-65815476D02*
X101142858Y-65791667D01*
X101095239Y-65767857D01*
X101023810Y-65767857D01*
X100976191Y-65791667D01*
X100952382Y-65839286D01*
X100952382Y-66101190D01*
X100714286Y-65767857D02*
X100714286Y-66101190D01*
X100714286Y-65815476D02*
X100690477Y-65791667D01*
X100642858Y-65767857D01*
X100571429Y-65767857D01*
X100523810Y-65791667D01*
X100500001Y-65839286D01*
X100500001Y-66101190D01*
X100071429Y-66077381D02*
X100119048Y-66101190D01*
X100214286Y-66101190D01*
X100261905Y-66077381D01*
X100285715Y-66029762D01*
X100285715Y-65839286D01*
X100261905Y-65791667D01*
X100214286Y-65767857D01*
X100119048Y-65767857D01*
X100071429Y-65791667D01*
X100047620Y-65839286D01*
X100047620Y-65886905D01*
X100285715Y-65934524D01*
X99619049Y-66077381D02*
X99666668Y-66101190D01*
X99761906Y-66101190D01*
X99809525Y-66077381D01*
X99833334Y-66053571D01*
X99857144Y-66005952D01*
X99857144Y-65863095D01*
X99833334Y-65815476D01*
X99809525Y-65791667D01*
X99761906Y-65767857D01*
X99666668Y-65767857D01*
X99619049Y-65791667D01*
X99476192Y-65767857D02*
X99285716Y-65767857D01*
X99404763Y-65601190D02*
X99404763Y-66029762D01*
X99380954Y-66077381D01*
X99333335Y-66101190D01*
X99285716Y-66101190D01*
X99119049Y-66101190D02*
X99119049Y-65767857D01*
X99119049Y-65601190D02*
X99142859Y-65625000D01*
X99119049Y-65648810D01*
X99095240Y-65625000D01*
X99119049Y-65601190D01*
X99119049Y-65648810D01*
X98809526Y-66101190D02*
X98857145Y-66077381D01*
X98880954Y-66053571D01*
X98904764Y-66005952D01*
X98904764Y-65863095D01*
X98880954Y-65815476D01*
X98857145Y-65791667D01*
X98809526Y-65767857D01*
X98738097Y-65767857D01*
X98690478Y-65791667D01*
X98666669Y-65815476D01*
X98642859Y-65863095D01*
X98642859Y-66005952D01*
X98666669Y-66053571D01*
X98690478Y-66077381D01*
X98738097Y-66101190D01*
X98809526Y-66101190D01*
X98428573Y-65767857D02*
X98428573Y-66101190D01*
X98428573Y-65815476D02*
X98404764Y-65791667D01*
X98357145Y-65767857D01*
X98285716Y-65767857D01*
X98238097Y-65791667D01*
X98214288Y-65839286D01*
X98214288Y-66101190D01*
X98000002Y-66077381D02*
X97952383Y-66101190D01*
X97857145Y-66101190D01*
X97809526Y-66077381D01*
X97785716Y-66029762D01*
X97785716Y-66005952D01*
X97809526Y-65958333D01*
X97857145Y-65934524D01*
X97928573Y-65934524D01*
X97976192Y-65910714D01*
X98000002Y-65863095D01*
X98000002Y-65839286D01*
X97976192Y-65791667D01*
X97928573Y-65767857D01*
X97857145Y-65767857D01*
X97809526Y-65791667D01*
X97261907Y-65767857D02*
X97071431Y-65767857D01*
X97190478Y-66101190D02*
X97190478Y-65672619D01*
X97166669Y-65625000D01*
X97119050Y-65601190D01*
X97071431Y-65601190D01*
X96833336Y-66101190D02*
X96880955Y-66077381D01*
X96904764Y-66053571D01*
X96928574Y-66005952D01*
X96928574Y-65863095D01*
X96904764Y-65815476D01*
X96880955Y-65791667D01*
X96833336Y-65767857D01*
X96761907Y-65767857D01*
X96714288Y-65791667D01*
X96690479Y-65815476D01*
X96666669Y-65863095D01*
X96666669Y-66005952D01*
X96690479Y-66053571D01*
X96714288Y-66077381D01*
X96761907Y-66101190D01*
X96833336Y-66101190D01*
X96452383Y-66101190D02*
X96452383Y-65767857D01*
X96452383Y-65863095D02*
X96428574Y-65815476D01*
X96404764Y-65791667D01*
X96357145Y-65767857D01*
X96309526Y-65767857D01*
X95761907Y-66101190D02*
X95761907Y-65601190D01*
X95238098Y-66101190D02*
X95404765Y-65863095D01*
X95523812Y-66101190D02*
X95523812Y-65601190D01*
X95333336Y-65601190D01*
X95285717Y-65625000D01*
X95261908Y-65648810D01*
X95238098Y-65696429D01*
X95238098Y-65767857D01*
X95261908Y-65815476D01*
X95285717Y-65839286D01*
X95333336Y-65863095D01*
X95523812Y-65863095D01*
X94357146Y-66101190D02*
X94523813Y-65863095D01*
X94642860Y-66101190D02*
X94642860Y-65601190D01*
X94452384Y-65601190D01*
X94404765Y-65625000D01*
X94380956Y-65648810D01*
X94357146Y-65696429D01*
X94357146Y-65767857D01*
X94380956Y-65815476D01*
X94404765Y-65839286D01*
X94452384Y-65863095D01*
X94642860Y-65863095D01*
X93952384Y-66077381D02*
X94000003Y-66101190D01*
X94095241Y-66101190D01*
X94142860Y-66077381D01*
X94166670Y-66029762D01*
X94166670Y-65839286D01*
X94142860Y-65791667D01*
X94095241Y-65767857D01*
X94000003Y-65767857D01*
X93952384Y-65791667D01*
X93928575Y-65839286D01*
X93928575Y-65886905D01*
X94166670Y-65934524D01*
X93500004Y-66077381D02*
X93547623Y-66101190D01*
X93642861Y-66101190D01*
X93690480Y-66077381D01*
X93714289Y-66053571D01*
X93738099Y-66005952D01*
X93738099Y-65863095D01*
X93714289Y-65815476D01*
X93690480Y-65791667D01*
X93642861Y-65767857D01*
X93547623Y-65767857D01*
X93500004Y-65791667D01*
X93285718Y-66101190D02*
X93285718Y-65767857D01*
X93285718Y-65601190D02*
X93309528Y-65625000D01*
X93285718Y-65648810D01*
X93261909Y-65625000D01*
X93285718Y-65601190D01*
X93285718Y-65648810D01*
X92857147Y-66077381D02*
X92904766Y-66101190D01*
X93000004Y-66101190D01*
X93047623Y-66077381D01*
X93071433Y-66029762D01*
X93071433Y-65839286D01*
X93047623Y-65791667D01*
X93000004Y-65767857D01*
X92904766Y-65767857D01*
X92857147Y-65791667D01*
X92833338Y-65839286D01*
X92833338Y-65886905D01*
X93071433Y-65934524D01*
X92666671Y-65767857D02*
X92547624Y-66101190D01*
X92428576Y-65767857D01*
X92047624Y-66077381D02*
X92095243Y-66101190D01*
X92190481Y-66101190D01*
X92238100Y-66077381D01*
X92261910Y-66029762D01*
X92261910Y-65839286D01*
X92238100Y-65791667D01*
X92190481Y-65767857D01*
X92095243Y-65767857D01*
X92047624Y-65791667D01*
X92023815Y-65839286D01*
X92023815Y-65886905D01*
X92261910Y-65934524D01*
X91809529Y-66101190D02*
X91809529Y-65767857D01*
X91809529Y-65863095D02*
X91785720Y-65815476D01*
X91761910Y-65791667D01*
X91714291Y-65767857D01*
X91666672Y-65767857D01*
X91523815Y-66077381D02*
X91476196Y-66101190D01*
X91380958Y-66101190D01*
X91333339Y-66077381D01*
X91309529Y-66029762D01*
X91309529Y-66005952D01*
X91333339Y-65958333D01*
X91380958Y-65934524D01*
X91452386Y-65934524D01*
X91500005Y-65910714D01*
X91523815Y-65863095D01*
X91523815Y-65839286D01*
X91500005Y-65791667D01*
X91452386Y-65767857D01*
X91380958Y-65767857D01*
X91333339Y-65791667D01*
X103428571Y-66476190D02*
X103119048Y-66476190D01*
X103285714Y-66666667D01*
X103214286Y-66666667D01*
X103166667Y-66690476D01*
X103142857Y-66714286D01*
X103119048Y-66761905D01*
X103119048Y-66880952D01*
X103142857Y-66928571D01*
X103166667Y-66952381D01*
X103214286Y-66976190D01*
X103357143Y-66976190D01*
X103404762Y-66952381D01*
X103428571Y-66928571D01*
X102952381Y-66976190D02*
X102690477Y-66642857D01*
X102952381Y-66642857D02*
X102690477Y-66976190D01*
X101833334Y-66928571D02*
X101857144Y-66952381D01*
X101928572Y-66976190D01*
X101976191Y-66976190D01*
X102047620Y-66952381D01*
X102095239Y-66904762D01*
X102119048Y-66857143D01*
X102142858Y-66761905D01*
X102142858Y-66690476D01*
X102119048Y-66595238D01*
X102095239Y-66547619D01*
X102047620Y-66500000D01*
X101976191Y-66476190D01*
X101928572Y-66476190D01*
X101857144Y-66500000D01*
X101833334Y-66523810D01*
X101547620Y-66976190D02*
X101595239Y-66952381D01*
X101619048Y-66928571D01*
X101642858Y-66880952D01*
X101642858Y-66738095D01*
X101619048Y-66690476D01*
X101595239Y-66666667D01*
X101547620Y-66642857D01*
X101476191Y-66642857D01*
X101428572Y-66666667D01*
X101404763Y-66690476D01*
X101380953Y-66738095D01*
X101380953Y-66880952D01*
X101404763Y-66928571D01*
X101428572Y-66952381D01*
X101476191Y-66976190D01*
X101547620Y-66976190D01*
X101166667Y-66642857D02*
X101166667Y-66976190D01*
X101166667Y-66690476D02*
X101142858Y-66666667D01*
X101095239Y-66642857D01*
X101023810Y-66642857D01*
X100976191Y-66666667D01*
X100952382Y-66714286D01*
X100952382Y-66976190D01*
X100714286Y-66642857D02*
X100714286Y-66976190D01*
X100714286Y-66690476D02*
X100690477Y-66666667D01*
X100642858Y-66642857D01*
X100571429Y-66642857D01*
X100523810Y-66666667D01*
X100500001Y-66714286D01*
X100500001Y-66976190D01*
X100071429Y-66952381D02*
X100119048Y-66976190D01*
X100214286Y-66976190D01*
X100261905Y-66952381D01*
X100285715Y-66904762D01*
X100285715Y-66714286D01*
X100261905Y-66666667D01*
X100214286Y-66642857D01*
X100119048Y-66642857D01*
X100071429Y-66666667D01*
X100047620Y-66714286D01*
X100047620Y-66761905D01*
X100285715Y-66809524D01*
X99619049Y-66952381D02*
X99666668Y-66976190D01*
X99761906Y-66976190D01*
X99809525Y-66952381D01*
X99833334Y-66928571D01*
X99857144Y-66880952D01*
X99857144Y-66738095D01*
X99833334Y-66690476D01*
X99809525Y-66666667D01*
X99761906Y-66642857D01*
X99666668Y-66642857D01*
X99619049Y-66666667D01*
X99476192Y-66642857D02*
X99285716Y-66642857D01*
X99404763Y-66476190D02*
X99404763Y-66904762D01*
X99380954Y-66952381D01*
X99333335Y-66976190D01*
X99285716Y-66976190D01*
X99119049Y-66976190D02*
X99119049Y-66642857D01*
X99119049Y-66476190D02*
X99142859Y-66500000D01*
X99119049Y-66523810D01*
X99095240Y-66500000D01*
X99119049Y-66476190D01*
X99119049Y-66523810D01*
X98809526Y-66976190D02*
X98857145Y-66952381D01*
X98880954Y-66928571D01*
X98904764Y-66880952D01*
X98904764Y-66738095D01*
X98880954Y-66690476D01*
X98857145Y-66666667D01*
X98809526Y-66642857D01*
X98738097Y-66642857D01*
X98690478Y-66666667D01*
X98666669Y-66690476D01*
X98642859Y-66738095D01*
X98642859Y-66880952D01*
X98666669Y-66928571D01*
X98690478Y-66952381D01*
X98738097Y-66976190D01*
X98809526Y-66976190D01*
X98428573Y-66642857D02*
X98428573Y-66976190D01*
X98428573Y-66690476D02*
X98404764Y-66666667D01*
X98357145Y-66642857D01*
X98285716Y-66642857D01*
X98238097Y-66666667D01*
X98214288Y-66714286D01*
X98214288Y-66976190D01*
X98000002Y-66952381D02*
X97952383Y-66976190D01*
X97857145Y-66976190D01*
X97809526Y-66952381D01*
X97785716Y-66904762D01*
X97785716Y-66880952D01*
X97809526Y-66833333D01*
X97857145Y-66809524D01*
X97928573Y-66809524D01*
X97976192Y-66785714D01*
X98000002Y-66738095D01*
X98000002Y-66714286D01*
X97976192Y-66666667D01*
X97928573Y-66642857D01*
X97857145Y-66642857D01*
X97809526Y-66666667D01*
X97261907Y-66642857D02*
X97071431Y-66642857D01*
X97190478Y-66976190D02*
X97190478Y-66547619D01*
X97166669Y-66500000D01*
X97119050Y-66476190D01*
X97071431Y-66476190D01*
X96833336Y-66976190D02*
X96880955Y-66952381D01*
X96904764Y-66928571D01*
X96928574Y-66880952D01*
X96928574Y-66738095D01*
X96904764Y-66690476D01*
X96880955Y-66666667D01*
X96833336Y-66642857D01*
X96761907Y-66642857D01*
X96714288Y-66666667D01*
X96690479Y-66690476D01*
X96666669Y-66738095D01*
X96666669Y-66880952D01*
X96690479Y-66928571D01*
X96714288Y-66952381D01*
X96761907Y-66976190D01*
X96833336Y-66976190D01*
X96452383Y-66976190D02*
X96452383Y-66642857D01*
X96452383Y-66738095D02*
X96428574Y-66690476D01*
X96404764Y-66666667D01*
X96357145Y-66642857D01*
X96309526Y-66642857D01*
X95761907Y-66976190D02*
X95761907Y-66476190D01*
X95523812Y-66642857D02*
X95523812Y-66976190D01*
X95523812Y-66690476D02*
X95500003Y-66666667D01*
X95452384Y-66642857D01*
X95380955Y-66642857D01*
X95333336Y-66666667D01*
X95309527Y-66714286D01*
X95309527Y-66976190D01*
X94857146Y-66976190D02*
X94857146Y-66476190D01*
X94857146Y-66952381D02*
X94904765Y-66976190D01*
X95000003Y-66976190D01*
X95047622Y-66952381D01*
X95071431Y-66928571D01*
X95095241Y-66880952D01*
X95095241Y-66738095D01*
X95071431Y-66690476D01*
X95047622Y-66666667D01*
X95000003Y-66642857D01*
X94904765Y-66642857D01*
X94857146Y-66666667D01*
X94404765Y-66642857D02*
X94404765Y-66976190D01*
X94619050Y-66642857D02*
X94619050Y-66904762D01*
X94595241Y-66952381D01*
X94547622Y-66976190D01*
X94476193Y-66976190D01*
X94428574Y-66952381D01*
X94404765Y-66928571D01*
X94190479Y-66952381D02*
X94142860Y-66976190D01*
X94047622Y-66976190D01*
X94000003Y-66952381D01*
X93976193Y-66904762D01*
X93976193Y-66880952D01*
X94000003Y-66833333D01*
X94047622Y-66809524D01*
X94119050Y-66809524D01*
X94166669Y-66785714D01*
X94190479Y-66738095D01*
X94190479Y-66714286D01*
X94166669Y-66666667D01*
X94119050Y-66642857D01*
X94047622Y-66642857D01*
X94000003Y-66666667D01*
X93833336Y-66642857D02*
X93642860Y-66642857D01*
X93761907Y-66476190D02*
X93761907Y-66904762D01*
X93738098Y-66952381D01*
X93690479Y-66976190D01*
X93642860Y-66976190D01*
X93476193Y-66976190D02*
X93476193Y-66642857D01*
X93476193Y-66738095D02*
X93452384Y-66690476D01*
X93428574Y-66666667D01*
X93380955Y-66642857D01*
X93333336Y-66642857D01*
X93166669Y-66976190D02*
X93166669Y-66642857D01*
X93166669Y-66476190D02*
X93190479Y-66500000D01*
X93166669Y-66523810D01*
X93142860Y-66500000D01*
X93166669Y-66476190D01*
X93166669Y-66523810D01*
X92714289Y-66976190D02*
X92714289Y-66714286D01*
X92738098Y-66666667D01*
X92785717Y-66642857D01*
X92880955Y-66642857D01*
X92928574Y-66666667D01*
X92714289Y-66952381D02*
X92761908Y-66976190D01*
X92880955Y-66976190D01*
X92928574Y-66952381D01*
X92952384Y-66904762D01*
X92952384Y-66857143D01*
X92928574Y-66809524D01*
X92880955Y-66785714D01*
X92761908Y-66785714D01*
X92714289Y-66761905D01*
X92404765Y-66976190D02*
X92452384Y-66952381D01*
X92476193Y-66904762D01*
X92476193Y-66476190D01*
X91547622Y-66976190D02*
X91714289Y-66738095D01*
X91833336Y-66976190D02*
X91833336Y-66476190D01*
X91642860Y-66476190D01*
X91595241Y-66500000D01*
X91571432Y-66523810D01*
X91547622Y-66571429D01*
X91547622Y-66642857D01*
X91571432Y-66690476D01*
X91595241Y-66714286D01*
X91642860Y-66738095D01*
X91833336Y-66738095D01*
X91357146Y-66952381D02*
X91285717Y-66976190D01*
X91166670Y-66976190D01*
X91119051Y-66952381D01*
X91095241Y-66928571D01*
X91071432Y-66880952D01*
X91071432Y-66833333D01*
X91095241Y-66785714D01*
X91119051Y-66761905D01*
X91166670Y-66738095D01*
X91261908Y-66714286D01*
X91309527Y-66690476D01*
X91333336Y-66666667D01*
X91357146Y-66619048D01*
X91357146Y-66571429D01*
X91333336Y-66523810D01*
X91309527Y-66500000D01*
X91261908Y-66476190D01*
X91142860Y-66476190D01*
X91071432Y-66500000D01*
X90642861Y-66642857D02*
X90642861Y-66976190D01*
X90761908Y-66452381D02*
X90880956Y-66809524D01*
X90571432Y-66809524D01*
X90309528Y-66690476D02*
X90357147Y-66666667D01*
X90380956Y-66642857D01*
X90404766Y-66595238D01*
X90404766Y-66571429D01*
X90380956Y-66523810D01*
X90357147Y-66500000D01*
X90309528Y-66476190D01*
X90214290Y-66476190D01*
X90166671Y-66500000D01*
X90142861Y-66523810D01*
X90119052Y-66571429D01*
X90119052Y-66595238D01*
X90142861Y-66642857D01*
X90166671Y-66666667D01*
X90214290Y-66690476D01*
X90309528Y-66690476D01*
X90357147Y-66714286D01*
X90380956Y-66738095D01*
X90404766Y-66785714D01*
X90404766Y-66880952D01*
X90380956Y-66928571D01*
X90357147Y-66952381D01*
X90309528Y-66976190D01*
X90214290Y-66976190D01*
X90166671Y-66952381D01*
X90142861Y-66928571D01*
X90119052Y-66880952D01*
X90119052Y-66785714D01*
X90142861Y-66738095D01*
X90166671Y-66714286D01*
X90214290Y-66690476D01*
X89666671Y-66476190D02*
X89904766Y-66476190D01*
X89928576Y-66714286D01*
X89904766Y-66690476D01*
X89857147Y-66666667D01*
X89738100Y-66666667D01*
X89690481Y-66690476D01*
X89666671Y-66714286D01*
X89642862Y-66761905D01*
X89642862Y-66880952D01*
X89666671Y-66928571D01*
X89690481Y-66952381D01*
X89738100Y-66976190D01*
X89857147Y-66976190D01*
X89904766Y-66952381D01*
X89928576Y-66928571D01*
X102619048Y-67660714D02*
X102238096Y-67660714D01*
X101642858Y-67398810D02*
X101619048Y-67375000D01*
X101571429Y-67351190D01*
X101452382Y-67351190D01*
X101404763Y-67375000D01*
X101380953Y-67398810D01*
X101357144Y-67446429D01*
X101357144Y-67494048D01*
X101380953Y-67565476D01*
X101666667Y-67851190D01*
X101357144Y-67851190D01*
X101190477Y-67851190D02*
X100928573Y-67517857D01*
X101190477Y-67517857D02*
X100928573Y-67851190D01*
X100357144Y-67589286D02*
X100190478Y-67589286D01*
X100119049Y-67851190D02*
X100357144Y-67851190D01*
X100357144Y-67351190D01*
X100119049Y-67351190D01*
X99976192Y-67517857D02*
X99785716Y-67517857D01*
X99904763Y-67351190D02*
X99904763Y-67779762D01*
X99880954Y-67827381D01*
X99833335Y-67851190D01*
X99785716Y-67851190D01*
X99619049Y-67851190D02*
X99619049Y-67351190D01*
X99404764Y-67851190D02*
X99404764Y-67589286D01*
X99428573Y-67541667D01*
X99476192Y-67517857D01*
X99547621Y-67517857D01*
X99595240Y-67541667D01*
X99619049Y-67565476D01*
X98976192Y-67827381D02*
X99023811Y-67851190D01*
X99119049Y-67851190D01*
X99166668Y-67827381D01*
X99190478Y-67779762D01*
X99190478Y-67589286D01*
X99166668Y-67541667D01*
X99119049Y-67517857D01*
X99023811Y-67517857D01*
X98976192Y-67541667D01*
X98952383Y-67589286D01*
X98952383Y-67636905D01*
X99190478Y-67684524D01*
X98738097Y-67851190D02*
X98738097Y-67517857D01*
X98738097Y-67613095D02*
X98714288Y-67565476D01*
X98690478Y-67541667D01*
X98642859Y-67517857D01*
X98595240Y-67517857D01*
X98428573Y-67517857D02*
X98428573Y-67851190D01*
X98428573Y-67565476D02*
X98404764Y-67541667D01*
X98357145Y-67517857D01*
X98285716Y-67517857D01*
X98238097Y-67541667D01*
X98214288Y-67589286D01*
X98214288Y-67851190D01*
X97785716Y-67827381D02*
X97833335Y-67851190D01*
X97928573Y-67851190D01*
X97976192Y-67827381D01*
X98000002Y-67779762D01*
X98000002Y-67589286D01*
X97976192Y-67541667D01*
X97928573Y-67517857D01*
X97833335Y-67517857D01*
X97785716Y-67541667D01*
X97761907Y-67589286D01*
X97761907Y-67636905D01*
X98000002Y-67684524D01*
X97619050Y-67517857D02*
X97428574Y-67517857D01*
X97547621Y-67351190D02*
X97547621Y-67779762D01*
X97523812Y-67827381D01*
X97476193Y-67851190D01*
X97428574Y-67851190D01*
X96595241Y-67851190D02*
X96761908Y-67613095D01*
X96880955Y-67851190D02*
X96880955Y-67351190D01*
X96690479Y-67351190D01*
X96642860Y-67375000D01*
X96619051Y-67398810D01*
X96595241Y-67446429D01*
X96595241Y-67517857D01*
X96619051Y-67565476D01*
X96642860Y-67589286D01*
X96690479Y-67613095D01*
X96880955Y-67613095D01*
X96238098Y-67351190D02*
X96238098Y-67708333D01*
X96261908Y-67779762D01*
X96309527Y-67827381D01*
X96380955Y-67851190D01*
X96428574Y-67851190D01*
X95785718Y-67517857D02*
X95785718Y-67851190D01*
X95904765Y-67327381D02*
X96023813Y-67684524D01*
X95714289Y-67684524D01*
X95285718Y-67351190D02*
X95523813Y-67351190D01*
X95547623Y-67589286D01*
X95523813Y-67565476D01*
X95476194Y-67541667D01*
X95357147Y-67541667D01*
X95309528Y-67565476D01*
X95285718Y-67589286D01*
X95261909Y-67636905D01*
X95261909Y-67755952D01*
X95285718Y-67803571D01*
X95309528Y-67827381D01*
X95357147Y-67851190D01*
X95476194Y-67851190D01*
X95523813Y-67827381D01*
X95547623Y-67803571D01*
X94523814Y-67351190D02*
X94523814Y-67708333D01*
X94547624Y-67779762D01*
X94595243Y-67827381D01*
X94666671Y-67851190D01*
X94714290Y-67851190D01*
X94071434Y-67851190D02*
X94071434Y-67589286D01*
X94095243Y-67541667D01*
X94142862Y-67517857D01*
X94238100Y-67517857D01*
X94285719Y-67541667D01*
X94071434Y-67827381D02*
X94119053Y-67851190D01*
X94238100Y-67851190D01*
X94285719Y-67827381D01*
X94309529Y-67779762D01*
X94309529Y-67732143D01*
X94285719Y-67684524D01*
X94238100Y-67660714D01*
X94119053Y-67660714D01*
X94071434Y-67636905D01*
X93619053Y-67827381D02*
X93666672Y-67851190D01*
X93761910Y-67851190D01*
X93809529Y-67827381D01*
X93833338Y-67803571D01*
X93857148Y-67755952D01*
X93857148Y-67613095D01*
X93833338Y-67565476D01*
X93809529Y-67541667D01*
X93761910Y-67517857D01*
X93666672Y-67517857D01*
X93619053Y-67541667D01*
X93404767Y-67851190D02*
X93404767Y-67351190D01*
X93357148Y-67660714D02*
X93214291Y-67851190D01*
X93214291Y-67517857D02*
X93404767Y-67708333D01*
X93023815Y-67827381D02*
X92976196Y-67851190D01*
X92880958Y-67851190D01*
X92833339Y-67827381D01*
X92809529Y-67779762D01*
X92809529Y-67755952D01*
X92833339Y-67708333D01*
X92880958Y-67684524D01*
X92952386Y-67684524D01*
X93000005Y-67660714D01*
X93023815Y-67613095D01*
X93023815Y-67589286D01*
X93000005Y-67541667D01*
X92952386Y-67517857D01*
X92880958Y-67517857D01*
X92833339Y-67541667D01*
X102619048Y-68535714D02*
X102238096Y-68535714D01*
X101357144Y-68726190D02*
X101642858Y-68726190D01*
X101500001Y-68726190D02*
X101500001Y-68226190D01*
X101547620Y-68297619D01*
X101595239Y-68345238D01*
X101642858Y-68369048D01*
X101190477Y-68726190D02*
X100928573Y-68392857D01*
X101190477Y-68392857D02*
X100928573Y-68726190D01*
X100357144Y-68726190D02*
X100357144Y-68226190D01*
X100238097Y-68226190D01*
X100166668Y-68250000D01*
X100119049Y-68297619D01*
X100095240Y-68345238D01*
X100071430Y-68440476D01*
X100071430Y-68511905D01*
X100095240Y-68607143D01*
X100119049Y-68654762D01*
X100166668Y-68702381D01*
X100238097Y-68726190D01*
X100357144Y-68726190D01*
X99666668Y-68702381D02*
X99714287Y-68726190D01*
X99809525Y-68726190D01*
X99857144Y-68702381D01*
X99880954Y-68654762D01*
X99880954Y-68464286D01*
X99857144Y-68416667D01*
X99809525Y-68392857D01*
X99714287Y-68392857D01*
X99666668Y-68416667D01*
X99642859Y-68464286D01*
X99642859Y-68511905D01*
X99880954Y-68559524D01*
X99428573Y-68726190D02*
X99428573Y-68226190D01*
X99428573Y-68416667D02*
X99380954Y-68392857D01*
X99285716Y-68392857D01*
X99238097Y-68416667D01*
X99214288Y-68440476D01*
X99190478Y-68488095D01*
X99190478Y-68630952D01*
X99214288Y-68678571D01*
X99238097Y-68702381D01*
X99285716Y-68726190D01*
X99380954Y-68726190D01*
X99428573Y-68702381D01*
X98761907Y-68392857D02*
X98761907Y-68726190D01*
X98976192Y-68392857D02*
X98976192Y-68654762D01*
X98952383Y-68702381D01*
X98904764Y-68726190D01*
X98833335Y-68726190D01*
X98785716Y-68702381D01*
X98761907Y-68678571D01*
X98309526Y-68392857D02*
X98309526Y-68797619D01*
X98333335Y-68845238D01*
X98357145Y-68869048D01*
X98404764Y-68892857D01*
X98476192Y-68892857D01*
X98523811Y-68869048D01*
X98309526Y-68702381D02*
X98357145Y-68726190D01*
X98452383Y-68726190D01*
X98500002Y-68702381D01*
X98523811Y-68678571D01*
X98547621Y-68630952D01*
X98547621Y-68488095D01*
X98523811Y-68440476D01*
X98500002Y-68416667D01*
X98452383Y-68392857D01*
X98357145Y-68392857D01*
X98309526Y-68416667D01*
X103119048Y-69601190D02*
X103404762Y-69601190D01*
X103261905Y-69601190D02*
X103261905Y-69101190D01*
X103309524Y-69172619D01*
X103357143Y-69220238D01*
X103404762Y-69244048D01*
X102952381Y-69601190D02*
X102690477Y-69267857D01*
X102952381Y-69267857D02*
X102690477Y-69601190D01*
X102142858Y-69458333D02*
X101904763Y-69458333D01*
X102190477Y-69601190D02*
X102023810Y-69101190D01*
X101857144Y-69601190D01*
X101476192Y-69267857D02*
X101476192Y-69601190D01*
X101690477Y-69267857D02*
X101690477Y-69529762D01*
X101666668Y-69577381D01*
X101619049Y-69601190D01*
X101547620Y-69601190D01*
X101500001Y-69577381D01*
X101476192Y-69553571D01*
X101285715Y-69601190D02*
X101023811Y-69267857D01*
X101285715Y-69267857D02*
X101023811Y-69601190D01*
X100833334Y-69601190D02*
X100833334Y-69267857D01*
X100833334Y-69101190D02*
X100857144Y-69125000D01*
X100833334Y-69148810D01*
X100809525Y-69125000D01*
X100833334Y-69101190D01*
X100833334Y-69148810D01*
X100523811Y-69601190D02*
X100571430Y-69577381D01*
X100595239Y-69529762D01*
X100595239Y-69101190D01*
X100119049Y-69601190D02*
X100119049Y-69339286D01*
X100142858Y-69291667D01*
X100190477Y-69267857D01*
X100285715Y-69267857D01*
X100333334Y-69291667D01*
X100119049Y-69577381D02*
X100166668Y-69601190D01*
X100285715Y-69601190D01*
X100333334Y-69577381D01*
X100357144Y-69529762D01*
X100357144Y-69482143D01*
X100333334Y-69434524D01*
X100285715Y-69410714D01*
X100166668Y-69410714D01*
X100119049Y-69386905D01*
X99880953Y-69601190D02*
X99880953Y-69267857D01*
X99880953Y-69363095D02*
X99857144Y-69315476D01*
X99833334Y-69291667D01*
X99785715Y-69267857D01*
X99738096Y-69267857D01*
X99619048Y-69267857D02*
X99500001Y-69601190D01*
X99380953Y-69267857D02*
X99500001Y-69601190D01*
X99547620Y-69720238D01*
X99571429Y-69744048D01*
X99619048Y-69767857D01*
X98809525Y-69601190D02*
X98809525Y-69101190D01*
X98619049Y-69101190D01*
X98571430Y-69125000D01*
X98547621Y-69148810D01*
X98523811Y-69196429D01*
X98523811Y-69267857D01*
X98547621Y-69315476D01*
X98571430Y-69339286D01*
X98619049Y-69363095D01*
X98809525Y-69363095D01*
X98238097Y-69601190D02*
X98285716Y-69577381D01*
X98309525Y-69553571D01*
X98333335Y-69505952D01*
X98333335Y-69363095D01*
X98309525Y-69315476D01*
X98285716Y-69291667D01*
X98238097Y-69267857D01*
X98166668Y-69267857D01*
X98119049Y-69291667D01*
X98095240Y-69315476D01*
X98071430Y-69363095D01*
X98071430Y-69505952D01*
X98095240Y-69553571D01*
X98119049Y-69577381D01*
X98166668Y-69601190D01*
X98238097Y-69601190D01*
X97904763Y-69267857D02*
X97809525Y-69601190D01*
X97714287Y-69363095D01*
X97619049Y-69601190D01*
X97523811Y-69267857D01*
X97142858Y-69577381D02*
X97190477Y-69601190D01*
X97285715Y-69601190D01*
X97333334Y-69577381D01*
X97357144Y-69529762D01*
X97357144Y-69339286D01*
X97333334Y-69291667D01*
X97285715Y-69267857D01*
X97190477Y-69267857D01*
X97142858Y-69291667D01*
X97119049Y-69339286D01*
X97119049Y-69386905D01*
X97357144Y-69434524D01*
X96904763Y-69601190D02*
X96904763Y-69267857D01*
X96904763Y-69363095D02*
X96880954Y-69315476D01*
X96857144Y-69291667D01*
X96809525Y-69267857D01*
X96761906Y-69267857D01*
X95928573Y-69553571D02*
X95952383Y-69577381D01*
X96023811Y-69601190D01*
X96071430Y-69601190D01*
X96142859Y-69577381D01*
X96190478Y-69529762D01*
X96214287Y-69482143D01*
X96238097Y-69386905D01*
X96238097Y-69315476D01*
X96214287Y-69220238D01*
X96190478Y-69172619D01*
X96142859Y-69125000D01*
X96071430Y-69101190D01*
X96023811Y-69101190D01*
X95952383Y-69125000D01*
X95928573Y-69148810D01*
X95642859Y-69601190D02*
X95690478Y-69577381D01*
X95714287Y-69553571D01*
X95738097Y-69505952D01*
X95738097Y-69363095D01*
X95714287Y-69315476D01*
X95690478Y-69291667D01*
X95642859Y-69267857D01*
X95571430Y-69267857D01*
X95523811Y-69291667D01*
X95500002Y-69315476D01*
X95476192Y-69363095D01*
X95476192Y-69505952D01*
X95500002Y-69553571D01*
X95523811Y-69577381D01*
X95571430Y-69601190D01*
X95642859Y-69601190D01*
X95261906Y-69267857D02*
X95261906Y-69601190D01*
X95261906Y-69315476D02*
X95238097Y-69291667D01*
X95190478Y-69267857D01*
X95119049Y-69267857D01*
X95071430Y-69291667D01*
X95047621Y-69339286D01*
X95047621Y-69601190D01*
X94809525Y-69267857D02*
X94809525Y-69601190D01*
X94809525Y-69315476D02*
X94785716Y-69291667D01*
X94738097Y-69267857D01*
X94666668Y-69267857D01*
X94619049Y-69291667D01*
X94595240Y-69339286D01*
X94595240Y-69601190D01*
X94166668Y-69577381D02*
X94214287Y-69601190D01*
X94309525Y-69601190D01*
X94357144Y-69577381D01*
X94380954Y-69529762D01*
X94380954Y-69339286D01*
X94357144Y-69291667D01*
X94309525Y-69267857D01*
X94214287Y-69267857D01*
X94166668Y-69291667D01*
X94142859Y-69339286D01*
X94142859Y-69386905D01*
X94380954Y-69434524D01*
X93714288Y-69577381D02*
X93761907Y-69601190D01*
X93857145Y-69601190D01*
X93904764Y-69577381D01*
X93928573Y-69553571D01*
X93952383Y-69505952D01*
X93952383Y-69363095D01*
X93928573Y-69315476D01*
X93904764Y-69291667D01*
X93857145Y-69267857D01*
X93761907Y-69267857D01*
X93714288Y-69291667D01*
X93571431Y-69267857D02*
X93380955Y-69267857D01*
X93500002Y-69101190D02*
X93500002Y-69529762D01*
X93476193Y-69577381D01*
X93428574Y-69601190D01*
X93380955Y-69601190D01*
X93214288Y-69601190D02*
X93214288Y-69267857D01*
X93214288Y-69101190D02*
X93238098Y-69125000D01*
X93214288Y-69148810D01*
X93190479Y-69125000D01*
X93214288Y-69101190D01*
X93214288Y-69148810D01*
X92904765Y-69601190D02*
X92952384Y-69577381D01*
X92976193Y-69553571D01*
X93000003Y-69505952D01*
X93000003Y-69363095D01*
X92976193Y-69315476D01*
X92952384Y-69291667D01*
X92904765Y-69267857D01*
X92833336Y-69267857D01*
X92785717Y-69291667D01*
X92761908Y-69315476D01*
X92738098Y-69363095D01*
X92738098Y-69505952D01*
X92761908Y-69553571D01*
X92785717Y-69577381D01*
X92833336Y-69601190D01*
X92904765Y-69601190D01*
X92523812Y-69267857D02*
X92523812Y-69601190D01*
X92523812Y-69315476D02*
X92500003Y-69291667D01*
X92452384Y-69267857D01*
X92380955Y-69267857D01*
X92333336Y-69291667D01*
X92309527Y-69339286D01*
X92309527Y-69601190D01*
X103119048Y-70476190D02*
X103404762Y-70476190D01*
X103261905Y-70476190D02*
X103261905Y-69976190D01*
X103309524Y-70047619D01*
X103357143Y-70095238D01*
X103404762Y-70119048D01*
X102952381Y-70476190D02*
X102690477Y-70142857D01*
X102952381Y-70142857D02*
X102690477Y-70476190D01*
X102142858Y-70333333D02*
X101904763Y-70333333D01*
X102190477Y-70476190D02*
X102023810Y-69976190D01*
X101857144Y-70476190D01*
X101476192Y-70142857D02*
X101476192Y-70476190D01*
X101690477Y-70142857D02*
X101690477Y-70404762D01*
X101666668Y-70452381D01*
X101619049Y-70476190D01*
X101547620Y-70476190D01*
X101500001Y-70452381D01*
X101476192Y-70428571D01*
X101285715Y-70476190D02*
X101023811Y-70142857D01*
X101285715Y-70142857D02*
X101023811Y-70476190D01*
X100833334Y-70476190D02*
X100833334Y-70142857D01*
X100833334Y-69976190D02*
X100857144Y-70000000D01*
X100833334Y-70023810D01*
X100809525Y-70000000D01*
X100833334Y-69976190D01*
X100833334Y-70023810D01*
X100523811Y-70476190D02*
X100571430Y-70452381D01*
X100595239Y-70404762D01*
X100595239Y-69976190D01*
X100119049Y-70476190D02*
X100119049Y-70214286D01*
X100142858Y-70166667D01*
X100190477Y-70142857D01*
X100285715Y-70142857D01*
X100333334Y-70166667D01*
X100119049Y-70452381D02*
X100166668Y-70476190D01*
X100285715Y-70476190D01*
X100333334Y-70452381D01*
X100357144Y-70404762D01*
X100357144Y-70357143D01*
X100333334Y-70309524D01*
X100285715Y-70285714D01*
X100166668Y-70285714D01*
X100119049Y-70261905D01*
X99880953Y-70476190D02*
X99880953Y-70142857D01*
X99880953Y-70238095D02*
X99857144Y-70190476D01*
X99833334Y-70166667D01*
X99785715Y-70142857D01*
X99738096Y-70142857D01*
X99619048Y-70142857D02*
X99500001Y-70476190D01*
X99380953Y-70142857D02*
X99500001Y-70476190D01*
X99547620Y-70595238D01*
X99571429Y-70619048D01*
X99619048Y-70642857D01*
X98523811Y-70428571D02*
X98547621Y-70452381D01*
X98619049Y-70476190D01*
X98666668Y-70476190D01*
X98738097Y-70452381D01*
X98785716Y-70404762D01*
X98809525Y-70357143D01*
X98833335Y-70261905D01*
X98833335Y-70190476D01*
X98809525Y-70095238D01*
X98785716Y-70047619D01*
X98738097Y-70000000D01*
X98666668Y-69976190D01*
X98619049Y-69976190D01*
X98547621Y-70000000D01*
X98523811Y-70023810D01*
X98238097Y-70476190D02*
X98285716Y-70452381D01*
X98309525Y-70428571D01*
X98333335Y-70380952D01*
X98333335Y-70238095D01*
X98309525Y-70190476D01*
X98285716Y-70166667D01*
X98238097Y-70142857D01*
X98166668Y-70142857D01*
X98119049Y-70166667D01*
X98095240Y-70190476D01*
X98071430Y-70238095D01*
X98071430Y-70380952D01*
X98095240Y-70428571D01*
X98119049Y-70452381D01*
X98166668Y-70476190D01*
X98238097Y-70476190D01*
X97857144Y-70476190D02*
X97857144Y-70142857D01*
X97857144Y-70190476D02*
X97833335Y-70166667D01*
X97785716Y-70142857D01*
X97714287Y-70142857D01*
X97666668Y-70166667D01*
X97642859Y-70214286D01*
X97642859Y-70476190D01*
X97642859Y-70214286D02*
X97619049Y-70166667D01*
X97571430Y-70142857D01*
X97500002Y-70142857D01*
X97452382Y-70166667D01*
X97428573Y-70214286D01*
X97428573Y-70476190D01*
X97190477Y-70476190D02*
X97190477Y-70142857D01*
X97190477Y-70190476D02*
X97166668Y-70166667D01*
X97119049Y-70142857D01*
X97047620Y-70142857D01*
X97000001Y-70166667D01*
X96976192Y-70214286D01*
X96976192Y-70476190D01*
X96976192Y-70214286D02*
X96952382Y-70166667D01*
X96904763Y-70142857D01*
X96833335Y-70142857D01*
X96785715Y-70166667D01*
X96761906Y-70214286D01*
X96761906Y-70476190D01*
X96309525Y-70142857D02*
X96309525Y-70476190D01*
X96523810Y-70142857D02*
X96523810Y-70404762D01*
X96500001Y-70452381D01*
X96452382Y-70476190D01*
X96380953Y-70476190D01*
X96333334Y-70452381D01*
X96309525Y-70428571D01*
X96071429Y-70142857D02*
X96071429Y-70476190D01*
X96071429Y-70190476D02*
X96047620Y-70166667D01*
X96000001Y-70142857D01*
X95928572Y-70142857D01*
X95880953Y-70166667D01*
X95857144Y-70214286D01*
X95857144Y-70476190D01*
X95619048Y-70476190D02*
X95619048Y-70142857D01*
X95619048Y-69976190D02*
X95642858Y-70000000D01*
X95619048Y-70023810D01*
X95595239Y-70000000D01*
X95619048Y-69976190D01*
X95619048Y-70023810D01*
X95166668Y-70452381D02*
X95214287Y-70476190D01*
X95309525Y-70476190D01*
X95357144Y-70452381D01*
X95380953Y-70428571D01*
X95404763Y-70380952D01*
X95404763Y-70238095D01*
X95380953Y-70190476D01*
X95357144Y-70166667D01*
X95309525Y-70142857D01*
X95214287Y-70142857D01*
X95166668Y-70166667D01*
X94738097Y-70476190D02*
X94738097Y-70214286D01*
X94761906Y-70166667D01*
X94809525Y-70142857D01*
X94904763Y-70142857D01*
X94952382Y-70166667D01*
X94738097Y-70452381D02*
X94785716Y-70476190D01*
X94904763Y-70476190D01*
X94952382Y-70452381D01*
X94976192Y-70404762D01*
X94976192Y-70357143D01*
X94952382Y-70309524D01*
X94904763Y-70285714D01*
X94785716Y-70285714D01*
X94738097Y-70261905D01*
X94571430Y-70142857D02*
X94380954Y-70142857D01*
X94500001Y-69976190D02*
X94500001Y-70404762D01*
X94476192Y-70452381D01*
X94428573Y-70476190D01*
X94380954Y-70476190D01*
X94214287Y-70476190D02*
X94214287Y-70142857D01*
X94214287Y-69976190D02*
X94238097Y-70000000D01*
X94214287Y-70023810D01*
X94190478Y-70000000D01*
X94214287Y-69976190D01*
X94214287Y-70023810D01*
X93904764Y-70476190D02*
X93952383Y-70452381D01*
X93976192Y-70428571D01*
X94000002Y-70380952D01*
X94000002Y-70238095D01*
X93976192Y-70190476D01*
X93952383Y-70166667D01*
X93904764Y-70142857D01*
X93833335Y-70142857D01*
X93785716Y-70166667D01*
X93761907Y-70190476D01*
X93738097Y-70238095D01*
X93738097Y-70380952D01*
X93761907Y-70428571D01*
X93785716Y-70452381D01*
X93833335Y-70476190D01*
X93904764Y-70476190D01*
X93523811Y-70142857D02*
X93523811Y-70476190D01*
X93523811Y-70190476D02*
X93500002Y-70166667D01*
X93452383Y-70142857D01*
X93380954Y-70142857D01*
X93333335Y-70166667D01*
X93309526Y-70214286D01*
X93309526Y-70476190D01*
X92523812Y-70214286D02*
X92452383Y-70238095D01*
X92428574Y-70261905D01*
X92404764Y-70309524D01*
X92404764Y-70380952D01*
X92428574Y-70428571D01*
X92452383Y-70452381D01*
X92500002Y-70476190D01*
X92690478Y-70476190D01*
X92690478Y-69976190D01*
X92523812Y-69976190D01*
X92476193Y-70000000D01*
X92452383Y-70023810D01*
X92428574Y-70071429D01*
X92428574Y-70119048D01*
X92452383Y-70166667D01*
X92476193Y-70190476D01*
X92523812Y-70214286D01*
X92690478Y-70214286D01*
X91976193Y-70142857D02*
X91976193Y-70476190D01*
X92190478Y-70142857D02*
X92190478Y-70404762D01*
X92166669Y-70452381D01*
X92119050Y-70476190D01*
X92047621Y-70476190D01*
X92000002Y-70452381D01*
X91976193Y-70428571D01*
X91761907Y-70452381D02*
X91714288Y-70476190D01*
X91619050Y-70476190D01*
X91571431Y-70452381D01*
X91547621Y-70404762D01*
X91547621Y-70380952D01*
X91571431Y-70333333D01*
X91619050Y-70309524D01*
X91690478Y-70309524D01*
X91738097Y-70285714D01*
X91761907Y-70238095D01*
X91761907Y-70214286D01*
X91738097Y-70166667D01*
X91690478Y-70142857D01*
X91619050Y-70142857D01*
X91571431Y-70166667D01*
X103119048Y-71351190D02*
X103404762Y-71351190D01*
X103261905Y-71351190D02*
X103261905Y-70851190D01*
X103309524Y-70922619D01*
X103357143Y-70970238D01*
X103404762Y-70994048D01*
X102952381Y-71351190D02*
X102690477Y-71017857D01*
X102952381Y-71017857D02*
X102690477Y-71351190D01*
X102119048Y-71089286D02*
X101952382Y-71089286D01*
X101880953Y-71351190D02*
X102119048Y-71351190D01*
X102119048Y-70851190D01*
X101880953Y-70851190D01*
X101714286Y-71351190D02*
X101452382Y-71017857D01*
X101714286Y-71017857D02*
X101452382Y-71351190D01*
X101261905Y-71017857D02*
X101261905Y-71517857D01*
X101261905Y-71041667D02*
X101214286Y-71017857D01*
X101119048Y-71017857D01*
X101071429Y-71041667D01*
X101047620Y-71065476D01*
X101023810Y-71113095D01*
X101023810Y-71255952D01*
X101047620Y-71303571D01*
X101071429Y-71327381D01*
X101119048Y-71351190D01*
X101214286Y-71351190D01*
X101261905Y-71327381D01*
X100595239Y-71351190D02*
X100595239Y-71089286D01*
X100619048Y-71041667D01*
X100666667Y-71017857D01*
X100761905Y-71017857D01*
X100809524Y-71041667D01*
X100595239Y-71327381D02*
X100642858Y-71351190D01*
X100761905Y-71351190D01*
X100809524Y-71327381D01*
X100833334Y-71279762D01*
X100833334Y-71232143D01*
X100809524Y-71184524D01*
X100761905Y-71160714D01*
X100642858Y-71160714D01*
X100595239Y-71136905D01*
X100357143Y-71017857D02*
X100357143Y-71351190D01*
X100357143Y-71065476D02*
X100333334Y-71041667D01*
X100285715Y-71017857D01*
X100214286Y-71017857D01*
X100166667Y-71041667D01*
X100142858Y-71089286D01*
X100142858Y-71351190D01*
X99928572Y-71327381D02*
X99880953Y-71351190D01*
X99785715Y-71351190D01*
X99738096Y-71327381D01*
X99714286Y-71279762D01*
X99714286Y-71255952D01*
X99738096Y-71208333D01*
X99785715Y-71184524D01*
X99857143Y-71184524D01*
X99904762Y-71160714D01*
X99928572Y-71113095D01*
X99928572Y-71089286D01*
X99904762Y-71041667D01*
X99857143Y-71017857D01*
X99785715Y-71017857D01*
X99738096Y-71041667D01*
X99500000Y-71351190D02*
X99500000Y-71017857D01*
X99500000Y-70851190D02*
X99523810Y-70875000D01*
X99500000Y-70898810D01*
X99476191Y-70875000D01*
X99500000Y-70851190D01*
X99500000Y-70898810D01*
X99190477Y-71351190D02*
X99238096Y-71327381D01*
X99261905Y-71303571D01*
X99285715Y-71255952D01*
X99285715Y-71113095D01*
X99261905Y-71065476D01*
X99238096Y-71041667D01*
X99190477Y-71017857D01*
X99119048Y-71017857D01*
X99071429Y-71041667D01*
X99047620Y-71065476D01*
X99023810Y-71113095D01*
X99023810Y-71255952D01*
X99047620Y-71303571D01*
X99071429Y-71327381D01*
X99119048Y-71351190D01*
X99190477Y-71351190D01*
X98809524Y-71017857D02*
X98809524Y-71351190D01*
X98809524Y-71065476D02*
X98785715Y-71041667D01*
X98738096Y-71017857D01*
X98666667Y-71017857D01*
X98619048Y-71041667D01*
X98595239Y-71089286D01*
X98595239Y-71351190D01*
X97976191Y-71351190D02*
X97976191Y-70851190D01*
X97976191Y-71089286D02*
X97690477Y-71089286D01*
X97690477Y-71351190D02*
X97690477Y-70851190D01*
X97261905Y-71327381D02*
X97309524Y-71351190D01*
X97404762Y-71351190D01*
X97452381Y-71327381D01*
X97476191Y-71279762D01*
X97476191Y-71089286D01*
X97452381Y-71041667D01*
X97404762Y-71017857D01*
X97309524Y-71017857D01*
X97261905Y-71041667D01*
X97238096Y-71089286D01*
X97238096Y-71136905D01*
X97476191Y-71184524D01*
X96809525Y-71351190D02*
X96809525Y-71089286D01*
X96833334Y-71041667D01*
X96880953Y-71017857D01*
X96976191Y-71017857D01*
X97023810Y-71041667D01*
X96809525Y-71327381D02*
X96857144Y-71351190D01*
X96976191Y-71351190D01*
X97023810Y-71327381D01*
X97047620Y-71279762D01*
X97047620Y-71232143D01*
X97023810Y-71184524D01*
X96976191Y-71160714D01*
X96857144Y-71160714D01*
X96809525Y-71136905D01*
X96357144Y-71351190D02*
X96357144Y-70851190D01*
X96357144Y-71327381D02*
X96404763Y-71351190D01*
X96500001Y-71351190D01*
X96547620Y-71327381D01*
X96571429Y-71303571D01*
X96595239Y-71255952D01*
X96595239Y-71113095D01*
X96571429Y-71065476D01*
X96547620Y-71041667D01*
X96500001Y-71017857D01*
X96404763Y-71017857D01*
X96357144Y-71041667D01*
X95928572Y-71327381D02*
X95976191Y-71351190D01*
X96071429Y-71351190D01*
X96119048Y-71327381D01*
X96142858Y-71279762D01*
X96142858Y-71089286D01*
X96119048Y-71041667D01*
X96071429Y-71017857D01*
X95976191Y-71017857D01*
X95928572Y-71041667D01*
X95904763Y-71089286D01*
X95904763Y-71136905D01*
X96142858Y-71184524D01*
X95690477Y-71351190D02*
X95690477Y-71017857D01*
X95690477Y-71113095D02*
X95666668Y-71065476D01*
X95642858Y-71041667D01*
X95595239Y-71017857D01*
X95547620Y-71017857D01*
X101119050Y-72958333D02*
X100880955Y-72958333D01*
X101166669Y-73101190D02*
X101000002Y-72601190D01*
X100833336Y-73101190D01*
X100452384Y-73101190D02*
X100452384Y-72601190D01*
X100452384Y-73077381D02*
X100500003Y-73101190D01*
X100595241Y-73101190D01*
X100642860Y-73077381D01*
X100666669Y-73053571D01*
X100690479Y-73005952D01*
X100690479Y-72863095D01*
X100666669Y-72815476D01*
X100642860Y-72791667D01*
X100595241Y-72767857D01*
X100500003Y-72767857D01*
X100452384Y-72791667D01*
X100000003Y-73101190D02*
X100000003Y-72601190D01*
X100000003Y-73077381D02*
X100047622Y-73101190D01*
X100142860Y-73101190D01*
X100190479Y-73077381D01*
X100214288Y-73053571D01*
X100238098Y-73005952D01*
X100238098Y-72863095D01*
X100214288Y-72815476D01*
X100190479Y-72791667D01*
X100142860Y-72767857D01*
X100047622Y-72767857D01*
X100000003Y-72791667D01*
X99761907Y-73101190D02*
X99761907Y-72767857D01*
X99761907Y-72601190D02*
X99785717Y-72625000D01*
X99761907Y-72648810D01*
X99738098Y-72625000D01*
X99761907Y-72601190D01*
X99761907Y-72648810D01*
X99595241Y-72767857D02*
X99404765Y-72767857D01*
X99523812Y-72601190D02*
X99523812Y-73029762D01*
X99500003Y-73077381D01*
X99452384Y-73101190D01*
X99404765Y-73101190D01*
X99238098Y-73101190D02*
X99238098Y-72767857D01*
X99238098Y-72601190D02*
X99261908Y-72625000D01*
X99238098Y-72648810D01*
X99214289Y-72625000D01*
X99238098Y-72601190D01*
X99238098Y-72648810D01*
X98928575Y-73101190D02*
X98976194Y-73077381D01*
X99000003Y-73053571D01*
X99023813Y-73005952D01*
X99023813Y-72863095D01*
X99000003Y-72815476D01*
X98976194Y-72791667D01*
X98928575Y-72767857D01*
X98857146Y-72767857D01*
X98809527Y-72791667D01*
X98785718Y-72815476D01*
X98761908Y-72863095D01*
X98761908Y-73005952D01*
X98785718Y-73053571D01*
X98809527Y-73077381D01*
X98857146Y-73101190D01*
X98928575Y-73101190D01*
X98547622Y-72767857D02*
X98547622Y-73101190D01*
X98547622Y-72815476D02*
X98523813Y-72791667D01*
X98476194Y-72767857D01*
X98404765Y-72767857D01*
X98357146Y-72791667D01*
X98333337Y-72839286D01*
X98333337Y-73101190D01*
X97880956Y-73101190D02*
X97880956Y-72839286D01*
X97904765Y-72791667D01*
X97952384Y-72767857D01*
X98047622Y-72767857D01*
X98095241Y-72791667D01*
X97880956Y-73077381D02*
X97928575Y-73101190D01*
X98047622Y-73101190D01*
X98095241Y-73077381D01*
X98119051Y-73029762D01*
X98119051Y-72982143D01*
X98095241Y-72934524D01*
X98047622Y-72910714D01*
X97928575Y-72910714D01*
X97880956Y-72886905D01*
X97571432Y-73101190D02*
X97619051Y-73077381D01*
X97642860Y-73029762D01*
X97642860Y-72601190D01*
X97309527Y-73101190D02*
X97357146Y-73077381D01*
X97380955Y-73029762D01*
X97380955Y-72601190D01*
X97166669Y-72767857D02*
X97047622Y-73101190D01*
X96928574Y-72767857D02*
X97047622Y-73101190D01*
X97095241Y-73220238D01*
X97119050Y-73244048D01*
X97166669Y-73267857D01*
X96261908Y-72601190D02*
X96166670Y-72601190D01*
X96119051Y-72625000D01*
X96071432Y-72672619D01*
X96047623Y-72767857D01*
X96047623Y-72934524D01*
X96071432Y-73029762D01*
X96119051Y-73077381D01*
X96166670Y-73101190D01*
X96261908Y-73101190D01*
X96309527Y-73077381D01*
X96357146Y-73029762D01*
X96380956Y-72934524D01*
X96380956Y-72767857D01*
X96357146Y-72672619D01*
X96309527Y-72625000D01*
X96261908Y-72601190D01*
X95904765Y-72767857D02*
X95714289Y-72767857D01*
X95833336Y-73101190D02*
X95833336Y-72672619D01*
X95809527Y-72625000D01*
X95761908Y-72601190D01*
X95714289Y-72601190D01*
X95619051Y-72767857D02*
X95428575Y-72767857D01*
X95547622Y-73101190D02*
X95547622Y-72672619D01*
X95523813Y-72625000D01*
X95476194Y-72601190D01*
X95428575Y-72601190D01*
X95071432Y-73077381D02*
X95119051Y-73101190D01*
X95214289Y-73101190D01*
X95261908Y-73077381D01*
X95285718Y-73029762D01*
X95285718Y-72839286D01*
X95261908Y-72791667D01*
X95214289Y-72767857D01*
X95119051Y-72767857D01*
X95071432Y-72791667D01*
X95047623Y-72839286D01*
X95047623Y-72886905D01*
X95285718Y-72934524D01*
X94833337Y-73101190D02*
X94833337Y-72767857D01*
X94833337Y-72863095D02*
X94809528Y-72815476D01*
X94785718Y-72791667D01*
X94738099Y-72767857D01*
X94690480Y-72767857D01*
X94333337Y-73077381D02*
X94380956Y-73101190D01*
X94476194Y-73101190D01*
X94523813Y-73077381D01*
X94547623Y-73029762D01*
X94547623Y-72839286D01*
X94523813Y-72791667D01*
X94476194Y-72767857D01*
X94380956Y-72767857D01*
X94333337Y-72791667D01*
X94309528Y-72839286D01*
X94309528Y-72886905D01*
X94547623Y-72934524D01*
X93880957Y-73101190D02*
X93880957Y-72601190D01*
X93880957Y-73077381D02*
X93928576Y-73101190D01*
X94023814Y-73101190D01*
X94071433Y-73077381D01*
X94095242Y-73053571D01*
X94119052Y-73005952D01*
X94119052Y-72863095D01*
X94095242Y-72815476D01*
X94071433Y-72791667D01*
X94023814Y-72767857D01*
X93928576Y-72767857D01*
X93880957Y-72791667D01*
X93642861Y-73053571D02*
X93619052Y-73077381D01*
X93642861Y-73101190D01*
X93666671Y-73077381D01*
X93642861Y-73053571D01*
X93642861Y-73101190D01*
X93642861Y-72791667D02*
X93619052Y-72815476D01*
X93642861Y-72839286D01*
X93666671Y-72815476D01*
X93642861Y-72791667D01*
X93642861Y-72839286D01*
X101095240Y-73785714D02*
X100714288Y-73785714D01*
X100119050Y-73952381D02*
X100047621Y-73976190D01*
X99928574Y-73976190D01*
X99880955Y-73952381D01*
X99857145Y-73928571D01*
X99833336Y-73880952D01*
X99833336Y-73833333D01*
X99857145Y-73785714D01*
X99880955Y-73761905D01*
X99928574Y-73738095D01*
X100023812Y-73714286D01*
X100071431Y-73690476D01*
X100095240Y-73666667D01*
X100119050Y-73619048D01*
X100119050Y-73571429D01*
X100095240Y-73523810D01*
X100071431Y-73500000D01*
X100023812Y-73476190D01*
X99904764Y-73476190D01*
X99833336Y-73500000D01*
X99428574Y-73952381D02*
X99476193Y-73976190D01*
X99571431Y-73976190D01*
X99619050Y-73952381D01*
X99642860Y-73904762D01*
X99642860Y-73714286D01*
X99619050Y-73666667D01*
X99571431Y-73642857D01*
X99476193Y-73642857D01*
X99428574Y-73666667D01*
X99404765Y-73714286D01*
X99404765Y-73761905D01*
X99642860Y-73809524D01*
X99119051Y-73976190D02*
X99166670Y-73952381D01*
X99190479Y-73904762D01*
X99190479Y-73476190D01*
X98928574Y-73928571D02*
X98904765Y-73952381D01*
X98928574Y-73976190D01*
X98952384Y-73952381D01*
X98928574Y-73928571D01*
X98928574Y-73976190D01*
X98309527Y-73976190D02*
X98309527Y-73476190D01*
X97785718Y-73976190D02*
X97952385Y-73738095D01*
X98071432Y-73976190D02*
X98071432Y-73476190D01*
X97880956Y-73476190D01*
X97833337Y-73500000D01*
X97809528Y-73523810D01*
X97785718Y-73571429D01*
X97785718Y-73642857D01*
X97809528Y-73690476D01*
X97833337Y-73714286D01*
X97880956Y-73738095D01*
X98071432Y-73738095D01*
X96904766Y-73928571D02*
X96928576Y-73952381D01*
X97000004Y-73976190D01*
X97047623Y-73976190D01*
X97119052Y-73952381D01*
X97166671Y-73904762D01*
X97190480Y-73857143D01*
X97214290Y-73761905D01*
X97214290Y-73690476D01*
X97190480Y-73595238D01*
X97166671Y-73547619D01*
X97119052Y-73500000D01*
X97047623Y-73476190D01*
X97000004Y-73476190D01*
X96928576Y-73500000D01*
X96904766Y-73523810D01*
X96476195Y-73642857D02*
X96476195Y-73976190D01*
X96690480Y-73642857D02*
X96690480Y-73904762D01*
X96666671Y-73952381D01*
X96619052Y-73976190D01*
X96547623Y-73976190D01*
X96500004Y-73952381D01*
X96476195Y-73928571D01*
X96238099Y-73976190D02*
X96238099Y-73642857D01*
X96238099Y-73738095D02*
X96214290Y-73690476D01*
X96190480Y-73666667D01*
X96142861Y-73642857D01*
X96095242Y-73642857D01*
X95928575Y-73976190D02*
X95928575Y-73642857D01*
X95928575Y-73738095D02*
X95904766Y-73690476D01*
X95880956Y-73666667D01*
X95833337Y-73642857D01*
X95785718Y-73642857D01*
X95428575Y-73952381D02*
X95476194Y-73976190D01*
X95571432Y-73976190D01*
X95619051Y-73952381D01*
X95642861Y-73904762D01*
X95642861Y-73714286D01*
X95619051Y-73666667D01*
X95571432Y-73642857D01*
X95476194Y-73642857D01*
X95428575Y-73666667D01*
X95404766Y-73714286D01*
X95404766Y-73761905D01*
X95642861Y-73809524D01*
X95190480Y-73642857D02*
X95190480Y-73976190D01*
X95190480Y-73690476D02*
X95166671Y-73666667D01*
X95119052Y-73642857D01*
X95047623Y-73642857D01*
X95000004Y-73666667D01*
X94976195Y-73714286D01*
X94976195Y-73976190D01*
X94809528Y-73642857D02*
X94619052Y-73642857D01*
X94738099Y-73476190D02*
X94738099Y-73904762D01*
X94714290Y-73952381D01*
X94666671Y-73976190D01*
X94619052Y-73976190D01*
X94095243Y-73952381D02*
X94023814Y-73976190D01*
X93904767Y-73976190D01*
X93857148Y-73952381D01*
X93833338Y-73928571D01*
X93809529Y-73880952D01*
X93809529Y-73833333D01*
X93833338Y-73785714D01*
X93857148Y-73761905D01*
X93904767Y-73738095D01*
X94000005Y-73714286D01*
X94047624Y-73690476D01*
X94071433Y-73666667D01*
X94095243Y-73619048D01*
X94095243Y-73571429D01*
X94071433Y-73523810D01*
X94047624Y-73500000D01*
X94000005Y-73476190D01*
X93880957Y-73476190D01*
X93809529Y-73500000D01*
X93523815Y-73976190D02*
X93571434Y-73952381D01*
X93595243Y-73928571D01*
X93619053Y-73880952D01*
X93619053Y-73738095D01*
X93595243Y-73690476D01*
X93571434Y-73666667D01*
X93523815Y-73642857D01*
X93452386Y-73642857D01*
X93404767Y-73666667D01*
X93380958Y-73690476D01*
X93357148Y-73738095D01*
X93357148Y-73880952D01*
X93380958Y-73928571D01*
X93404767Y-73952381D01*
X93452386Y-73976190D01*
X93523815Y-73976190D01*
X92928577Y-73642857D02*
X92928577Y-73976190D01*
X93142862Y-73642857D02*
X93142862Y-73904762D01*
X93119053Y-73952381D01*
X93071434Y-73976190D01*
X93000005Y-73976190D01*
X92952386Y-73952381D01*
X92928577Y-73928571D01*
X92690481Y-73976190D02*
X92690481Y-73642857D01*
X92690481Y-73738095D02*
X92666672Y-73690476D01*
X92642862Y-73666667D01*
X92595243Y-73642857D01*
X92547624Y-73642857D01*
X92166672Y-73952381D02*
X92214291Y-73976190D01*
X92309529Y-73976190D01*
X92357148Y-73952381D01*
X92380957Y-73928571D01*
X92404767Y-73880952D01*
X92404767Y-73738095D01*
X92380957Y-73690476D01*
X92357148Y-73666667D01*
X92309529Y-73642857D01*
X92214291Y-73642857D01*
X92166672Y-73666667D01*
X91761910Y-73952381D02*
X91809529Y-73976190D01*
X91904767Y-73976190D01*
X91952386Y-73952381D01*
X91976196Y-73904762D01*
X91976196Y-73714286D01*
X91952386Y-73666667D01*
X91904767Y-73642857D01*
X91809529Y-73642857D01*
X91761910Y-73666667D01*
X91738101Y-73714286D01*
X91738101Y-73761905D01*
X91976196Y-73809524D01*
X101095240Y-74660714D02*
X100714288Y-74660714D01*
X100095240Y-74589286D02*
X99928574Y-74589286D01*
X99857145Y-74851190D02*
X100095240Y-74851190D01*
X100095240Y-74351190D01*
X99857145Y-74351190D01*
X99690478Y-74851190D02*
X99428574Y-74517857D01*
X99690478Y-74517857D02*
X99428574Y-74851190D01*
X99309526Y-74517857D02*
X99119050Y-74517857D01*
X99238097Y-74351190D02*
X99238097Y-74779762D01*
X99214288Y-74827381D01*
X99166669Y-74851190D01*
X99119050Y-74851190D01*
X98952383Y-74803571D02*
X98928574Y-74827381D01*
X98952383Y-74851190D01*
X98976193Y-74827381D01*
X98952383Y-74803571D01*
X98952383Y-74851190D01*
X98333336Y-74851190D02*
X98333336Y-74351190D01*
X97809527Y-74851190D02*
X97976194Y-74613095D01*
X98095241Y-74851190D02*
X98095241Y-74351190D01*
X97904765Y-74351190D01*
X97857146Y-74375000D01*
X97833337Y-74398810D01*
X97809527Y-74446429D01*
X97809527Y-74517857D01*
X97833337Y-74565476D01*
X97857146Y-74589286D01*
X97904765Y-74613095D01*
X98095241Y-74613095D01*
X97214289Y-74851190D02*
X97214289Y-74351190D01*
X97047623Y-74708333D01*
X96880956Y-74351190D01*
X96880956Y-74851190D01*
X96571432Y-74851190D02*
X96619051Y-74827381D01*
X96642860Y-74803571D01*
X96666670Y-74755952D01*
X96666670Y-74613095D01*
X96642860Y-74565476D01*
X96619051Y-74541667D01*
X96571432Y-74517857D01*
X96500003Y-74517857D01*
X96452384Y-74541667D01*
X96428575Y-74565476D01*
X96404765Y-74613095D01*
X96404765Y-74755952D01*
X96428575Y-74803571D01*
X96452384Y-74827381D01*
X96500003Y-74851190D01*
X96571432Y-74851190D01*
X95976194Y-74851190D02*
X95976194Y-74351190D01*
X95976194Y-74827381D02*
X96023813Y-74851190D01*
X96119051Y-74851190D01*
X96166670Y-74827381D01*
X96190479Y-74803571D01*
X96214289Y-74755952D01*
X96214289Y-74613095D01*
X96190479Y-74565476D01*
X96166670Y-74541667D01*
X96119051Y-74517857D01*
X96023813Y-74517857D01*
X95976194Y-74541667D01*
X95523813Y-74517857D02*
X95523813Y-74851190D01*
X95738098Y-74517857D02*
X95738098Y-74779762D01*
X95714289Y-74827381D01*
X95666670Y-74851190D01*
X95595241Y-74851190D01*
X95547622Y-74827381D01*
X95523813Y-74803571D01*
X95214289Y-74851190D02*
X95261908Y-74827381D01*
X95285717Y-74779762D01*
X95285717Y-74351190D01*
X94809527Y-74851190D02*
X94809527Y-74589286D01*
X94833336Y-74541667D01*
X94880955Y-74517857D01*
X94976193Y-74517857D01*
X95023812Y-74541667D01*
X94809527Y-74827381D02*
X94857146Y-74851190D01*
X94976193Y-74851190D01*
X95023812Y-74827381D01*
X95047622Y-74779762D01*
X95047622Y-74732143D01*
X95023812Y-74684524D01*
X94976193Y-74660714D01*
X94857146Y-74660714D01*
X94809527Y-74636905D01*
X94642860Y-74517857D02*
X94452384Y-74517857D01*
X94571431Y-74351190D02*
X94571431Y-74779762D01*
X94547622Y-74827381D01*
X94500003Y-74851190D01*
X94452384Y-74851190D01*
X94285717Y-74851190D02*
X94285717Y-74517857D01*
X94285717Y-74351190D02*
X94309527Y-74375000D01*
X94285717Y-74398810D01*
X94261908Y-74375000D01*
X94285717Y-74351190D01*
X94285717Y-74398810D01*
X93976194Y-74851190D02*
X94023813Y-74827381D01*
X94047622Y-74803571D01*
X94071432Y-74755952D01*
X94071432Y-74613095D01*
X94047622Y-74565476D01*
X94023813Y-74541667D01*
X93976194Y-74517857D01*
X93904765Y-74517857D01*
X93857146Y-74541667D01*
X93833337Y-74565476D01*
X93809527Y-74613095D01*
X93809527Y-74755952D01*
X93833337Y-74803571D01*
X93857146Y-74827381D01*
X93904765Y-74851190D01*
X93976194Y-74851190D01*
X93595241Y-74517857D02*
X93595241Y-74851190D01*
X93595241Y-74565476D02*
X93571432Y-74541667D01*
X93523813Y-74517857D01*
X93452384Y-74517857D01*
X93404765Y-74541667D01*
X93380956Y-74589286D01*
X93380956Y-74851190D01*
X92785718Y-74827381D02*
X92714289Y-74851190D01*
X92595242Y-74851190D01*
X92547623Y-74827381D01*
X92523813Y-74803571D01*
X92500004Y-74755952D01*
X92500004Y-74708333D01*
X92523813Y-74660714D01*
X92547623Y-74636905D01*
X92595242Y-74613095D01*
X92690480Y-74589286D01*
X92738099Y-74565476D01*
X92761908Y-74541667D01*
X92785718Y-74494048D01*
X92785718Y-74446429D01*
X92761908Y-74398810D01*
X92738099Y-74375000D01*
X92690480Y-74351190D01*
X92571432Y-74351190D01*
X92500004Y-74375000D01*
X92333337Y-74517857D02*
X92214290Y-74851190D01*
X92095242Y-74517857D02*
X92214290Y-74851190D01*
X92261909Y-74970238D01*
X92285718Y-74994048D01*
X92333337Y-75017857D01*
X91904766Y-74517857D02*
X91904766Y-74851190D01*
X91904766Y-74565476D02*
X91880957Y-74541667D01*
X91833338Y-74517857D01*
X91761909Y-74517857D01*
X91714290Y-74541667D01*
X91690481Y-74589286D01*
X91690481Y-74851190D01*
X91238100Y-74827381D02*
X91285719Y-74851190D01*
X91380957Y-74851190D01*
X91428576Y-74827381D01*
X91452385Y-74803571D01*
X91476195Y-74755952D01*
X91476195Y-74613095D01*
X91452385Y-74565476D01*
X91428576Y-74541667D01*
X91380957Y-74517857D01*
X91285719Y-74517857D01*
X91238100Y-74541667D01*
X101095240Y-75535714D02*
X100714288Y-75535714D01*
X99857145Y-75226190D02*
X100095240Y-75226190D01*
X100119050Y-75464286D01*
X100095240Y-75440476D01*
X100047621Y-75416667D01*
X99928574Y-75416667D01*
X99880955Y-75440476D01*
X99857145Y-75464286D01*
X99833336Y-75511905D01*
X99833336Y-75630952D01*
X99857145Y-75678571D01*
X99880955Y-75702381D01*
X99928574Y-75726190D01*
X100047621Y-75726190D01*
X100095240Y-75702381D01*
X100119050Y-75678571D01*
X99619050Y-75678571D02*
X99595241Y-75702381D01*
X99619050Y-75726190D01*
X99642860Y-75702381D01*
X99619050Y-75678571D01*
X99619050Y-75726190D01*
X99142860Y-75226190D02*
X99380955Y-75226190D01*
X99404765Y-75464286D01*
X99380955Y-75440476D01*
X99333336Y-75416667D01*
X99214289Y-75416667D01*
X99166670Y-75440476D01*
X99142860Y-75464286D01*
X99119051Y-75511905D01*
X99119051Y-75630952D01*
X99142860Y-75678571D01*
X99166670Y-75702381D01*
X99214289Y-75726190D01*
X99333336Y-75726190D01*
X99380955Y-75702381D01*
X99404765Y-75678571D01*
X98976194Y-75226190D02*
X98809527Y-75726190D01*
X98642861Y-75226190D01*
X98095242Y-75726190D02*
X98095242Y-75226190D01*
X97904766Y-75226190D01*
X97857147Y-75250000D01*
X97833338Y-75273810D01*
X97809528Y-75321429D01*
X97809528Y-75392857D01*
X97833338Y-75440476D01*
X97857147Y-75464286D01*
X97904766Y-75488095D01*
X98095242Y-75488095D01*
X97523814Y-75726190D02*
X97571433Y-75702381D01*
X97595242Y-75678571D01*
X97619052Y-75630952D01*
X97619052Y-75488095D01*
X97595242Y-75440476D01*
X97571433Y-75416667D01*
X97523814Y-75392857D01*
X97452385Y-75392857D01*
X97404766Y-75416667D01*
X97380957Y-75440476D01*
X97357147Y-75488095D01*
X97357147Y-75630952D01*
X97380957Y-75678571D01*
X97404766Y-75702381D01*
X97452385Y-75726190D01*
X97523814Y-75726190D01*
X97190480Y-75392857D02*
X97095242Y-75726190D01*
X97000004Y-75488095D01*
X96904766Y-75726190D01*
X96809528Y-75392857D01*
X96428575Y-75702381D02*
X96476194Y-75726190D01*
X96571432Y-75726190D01*
X96619051Y-75702381D01*
X96642861Y-75654762D01*
X96642861Y-75464286D01*
X96619051Y-75416667D01*
X96571432Y-75392857D01*
X96476194Y-75392857D01*
X96428575Y-75416667D01*
X96404766Y-75464286D01*
X96404766Y-75511905D01*
X96642861Y-75559524D01*
X96190480Y-75726190D02*
X96190480Y-75392857D01*
X96190480Y-75488095D02*
X96166671Y-75440476D01*
X96142861Y-75416667D01*
X96095242Y-75392857D01*
X96047623Y-75392857D01*
X95404766Y-75226190D02*
X95309528Y-75226190D01*
X95261909Y-75250000D01*
X95214290Y-75297619D01*
X95190481Y-75392857D01*
X95190481Y-75559524D01*
X95214290Y-75654762D01*
X95261909Y-75702381D01*
X95309528Y-75726190D01*
X95404766Y-75726190D01*
X95452385Y-75702381D01*
X95500004Y-75654762D01*
X95523814Y-75559524D01*
X95523814Y-75392857D01*
X95500004Y-75297619D01*
X95452385Y-75250000D01*
X95404766Y-75226190D01*
X95023813Y-75392857D02*
X94904766Y-75726190D01*
X94785718Y-75392857D01*
X94404766Y-75702381D02*
X94452385Y-75726190D01*
X94547623Y-75726190D01*
X94595242Y-75702381D01*
X94619052Y-75654762D01*
X94619052Y-75464286D01*
X94595242Y-75416667D01*
X94547623Y-75392857D01*
X94452385Y-75392857D01*
X94404766Y-75416667D01*
X94380957Y-75464286D01*
X94380957Y-75511905D01*
X94619052Y-75559524D01*
X94166671Y-75726190D02*
X94166671Y-75392857D01*
X94166671Y-75488095D02*
X94142862Y-75440476D01*
X94119052Y-75416667D01*
X94071433Y-75392857D01*
X94023814Y-75392857D01*
X93476195Y-75464286D02*
X93309529Y-75464286D01*
X93238100Y-75726190D02*
X93476195Y-75726190D01*
X93476195Y-75226190D01*
X93238100Y-75226190D01*
X93095243Y-75392857D02*
X92904767Y-75392857D01*
X93023814Y-75226190D02*
X93023814Y-75654762D01*
X93000005Y-75702381D01*
X92952386Y-75726190D01*
X92904767Y-75726190D01*
X92738100Y-75726190D02*
X92738100Y-75226190D01*
X92523815Y-75726190D02*
X92523815Y-75464286D01*
X92547624Y-75416667D01*
X92595243Y-75392857D01*
X92666672Y-75392857D01*
X92714291Y-75416667D01*
X92738100Y-75440476D01*
X92095243Y-75702381D02*
X92142862Y-75726190D01*
X92238100Y-75726190D01*
X92285719Y-75702381D01*
X92309529Y-75654762D01*
X92309529Y-75464286D01*
X92285719Y-75416667D01*
X92238100Y-75392857D01*
X92142862Y-75392857D01*
X92095243Y-75416667D01*
X92071434Y-75464286D01*
X92071434Y-75511905D01*
X92309529Y-75559524D01*
X91857148Y-75726190D02*
X91857148Y-75392857D01*
X91857148Y-75488095D02*
X91833339Y-75440476D01*
X91809529Y-75416667D01*
X91761910Y-75392857D01*
X91714291Y-75392857D01*
X91547624Y-75392857D02*
X91547624Y-75726190D01*
X91547624Y-75440476D02*
X91523815Y-75416667D01*
X91476196Y-75392857D01*
X91404767Y-75392857D01*
X91357148Y-75416667D01*
X91333339Y-75464286D01*
X91333339Y-75726190D01*
X90904767Y-75702381D02*
X90952386Y-75726190D01*
X91047624Y-75726190D01*
X91095243Y-75702381D01*
X91119053Y-75654762D01*
X91119053Y-75464286D01*
X91095243Y-75416667D01*
X91047624Y-75392857D01*
X90952386Y-75392857D01*
X90904767Y-75416667D01*
X90880958Y-75464286D01*
X90880958Y-75511905D01*
X91119053Y-75559524D01*
X90738101Y-75392857D02*
X90547625Y-75392857D01*
X90666672Y-75226190D02*
X90666672Y-75654762D01*
X90642863Y-75702381D01*
X90595244Y-75726190D01*
X90547625Y-75726190D01*
X99571432Y-76410714D02*
X99190480Y-76410714D01*
X98619051Y-76101190D02*
X98500004Y-76601190D01*
X98404766Y-76244048D01*
X98309528Y-76601190D01*
X98190480Y-76101190D01*
X98023813Y-76458333D02*
X97785718Y-76458333D01*
X98071432Y-76601190D02*
X97904765Y-76101190D01*
X97738099Y-76601190D01*
X97285718Y-76601190D02*
X97452385Y-76363095D01*
X97571432Y-76601190D02*
X97571432Y-76101190D01*
X97380956Y-76101190D01*
X97333337Y-76125000D01*
X97309528Y-76148810D01*
X97285718Y-76196429D01*
X97285718Y-76267857D01*
X97309528Y-76315476D01*
X97333337Y-76339286D01*
X97380956Y-76363095D01*
X97571432Y-76363095D01*
X97071432Y-76601190D02*
X97071432Y-76101190D01*
X96785718Y-76601190D01*
X96785718Y-76101190D01*
X96547622Y-76601190D02*
X96547622Y-76101190D01*
X96309527Y-76601190D02*
X96309527Y-76101190D01*
X96023813Y-76601190D01*
X96023813Y-76101190D01*
X95523813Y-76125000D02*
X95571432Y-76101190D01*
X95642860Y-76101190D01*
X95714289Y-76125000D01*
X95761908Y-76172619D01*
X95785717Y-76220238D01*
X95809527Y-76315476D01*
X95809527Y-76386905D01*
X95785717Y-76482143D01*
X95761908Y-76529762D01*
X95714289Y-76577381D01*
X95642860Y-76601190D01*
X95595241Y-76601190D01*
X95523813Y-76577381D01*
X95500003Y-76553571D01*
X95500003Y-76386905D01*
X95595241Y-76386905D01*
X95285717Y-76553571D02*
X95261908Y-76577381D01*
X95285717Y-76601190D01*
X95309527Y-76577381D01*
X95285717Y-76553571D01*
X95285717Y-76601190D01*
X95285717Y-76291667D02*
X95261908Y-76315476D01*
X95285717Y-76339286D01*
X95309527Y-76315476D01*
X95285717Y-76291667D01*
X95285717Y-76339286D01*
X94666670Y-76601190D02*
X94666670Y-76101190D01*
X94380956Y-76601190D01*
X94380956Y-76101190D01*
X94071432Y-76601190D02*
X94119051Y-76577381D01*
X94142860Y-76553571D01*
X94166670Y-76505952D01*
X94166670Y-76363095D01*
X94142860Y-76315476D01*
X94119051Y-76291667D01*
X94071432Y-76267857D01*
X94000003Y-76267857D01*
X93952384Y-76291667D01*
X93928575Y-76315476D01*
X93904765Y-76363095D01*
X93904765Y-76505952D01*
X93928575Y-76553571D01*
X93952384Y-76577381D01*
X94000003Y-76601190D01*
X94071432Y-76601190D01*
X93761908Y-76267857D02*
X93571432Y-76267857D01*
X93690479Y-76101190D02*
X93690479Y-76529762D01*
X93666670Y-76577381D01*
X93619051Y-76601190D01*
X93571432Y-76601190D01*
X98142862Y-77428571D02*
X98166672Y-77452381D01*
X98238100Y-77476190D01*
X98285719Y-77476190D01*
X98357148Y-77452381D01*
X98404767Y-77404762D01*
X98428576Y-77357143D01*
X98452386Y-77261905D01*
X98452386Y-77190476D01*
X98428576Y-77095238D01*
X98404767Y-77047619D01*
X98357148Y-77000000D01*
X98285719Y-76976190D01*
X98238100Y-76976190D01*
X98166672Y-77000000D01*
X98142862Y-77023810D01*
X97857148Y-77476190D02*
X97904767Y-77452381D01*
X97928576Y-77428571D01*
X97952386Y-77380952D01*
X97952386Y-77238095D01*
X97928576Y-77190476D01*
X97904767Y-77166667D01*
X97857148Y-77142857D01*
X97785719Y-77142857D01*
X97738100Y-77166667D01*
X97714291Y-77190476D01*
X97690481Y-77238095D01*
X97690481Y-77380952D01*
X97714291Y-77428571D01*
X97738100Y-77452381D01*
X97785719Y-77476190D01*
X97857148Y-77476190D01*
X97476195Y-77476190D02*
X97476195Y-77142857D01*
X97476195Y-77190476D02*
X97452386Y-77166667D01*
X97404767Y-77142857D01*
X97333338Y-77142857D01*
X97285719Y-77166667D01*
X97261910Y-77214286D01*
X97261910Y-77476190D01*
X97261910Y-77214286D02*
X97238100Y-77166667D01*
X97190481Y-77142857D01*
X97119053Y-77142857D01*
X97071433Y-77166667D01*
X97047624Y-77214286D01*
X97047624Y-77476190D01*
X96809528Y-77142857D02*
X96809528Y-77642857D01*
X96809528Y-77166667D02*
X96761909Y-77142857D01*
X96666671Y-77142857D01*
X96619052Y-77166667D01*
X96595243Y-77190476D01*
X96571433Y-77238095D01*
X96571433Y-77380952D01*
X96595243Y-77428571D01*
X96619052Y-77452381D01*
X96666671Y-77476190D01*
X96761909Y-77476190D01*
X96809528Y-77452381D01*
X96142862Y-77476190D02*
X96142862Y-77214286D01*
X96166671Y-77166667D01*
X96214290Y-77142857D01*
X96309528Y-77142857D01*
X96357147Y-77166667D01*
X96142862Y-77452381D02*
X96190481Y-77476190D01*
X96309528Y-77476190D01*
X96357147Y-77452381D01*
X96380957Y-77404762D01*
X96380957Y-77357143D01*
X96357147Y-77309524D01*
X96309528Y-77285714D01*
X96190481Y-77285714D01*
X96142862Y-77261905D01*
X95976195Y-77142857D02*
X95785719Y-77142857D01*
X95904766Y-76976190D02*
X95904766Y-77404762D01*
X95880957Y-77452381D01*
X95833338Y-77476190D01*
X95785719Y-77476190D01*
X95619052Y-77476190D02*
X95619052Y-77142857D01*
X95619052Y-76976190D02*
X95642862Y-77000000D01*
X95619052Y-77023810D01*
X95595243Y-77000000D01*
X95619052Y-76976190D01*
X95619052Y-77023810D01*
X95380957Y-77476190D02*
X95380957Y-76976190D01*
X95380957Y-77166667D02*
X95333338Y-77142857D01*
X95238100Y-77142857D01*
X95190481Y-77166667D01*
X95166672Y-77190476D01*
X95142862Y-77238095D01*
X95142862Y-77380952D01*
X95166672Y-77428571D01*
X95190481Y-77452381D01*
X95238100Y-77476190D01*
X95333338Y-77476190D01*
X95380957Y-77452381D01*
X94857148Y-77476190D02*
X94904767Y-77452381D01*
X94928576Y-77404762D01*
X94928576Y-76976190D01*
X94476195Y-77452381D02*
X94523814Y-77476190D01*
X94619052Y-77476190D01*
X94666671Y-77452381D01*
X94690481Y-77404762D01*
X94690481Y-77214286D01*
X94666671Y-77166667D01*
X94619052Y-77142857D01*
X94523814Y-77142857D01*
X94476195Y-77166667D01*
X94452386Y-77214286D01*
X94452386Y-77261905D01*
X94690481Y-77309524D01*
X93904767Y-77142857D02*
X93809529Y-77476190D01*
X93714291Y-77238095D01*
X93619053Y-77476190D01*
X93523815Y-77142857D01*
X93333338Y-77476190D02*
X93333338Y-77142857D01*
X93333338Y-76976190D02*
X93357148Y-77000000D01*
X93333338Y-77023810D01*
X93309529Y-77000000D01*
X93333338Y-76976190D01*
X93333338Y-77023810D01*
X93166672Y-77142857D02*
X92976196Y-77142857D01*
X93095243Y-76976190D02*
X93095243Y-77404762D01*
X93071434Y-77452381D01*
X93023815Y-77476190D01*
X92976196Y-77476190D01*
X92809529Y-77476190D02*
X92809529Y-76976190D01*
X92595244Y-77476190D02*
X92595244Y-77214286D01*
X92619053Y-77166667D01*
X92666672Y-77142857D01*
X92738101Y-77142857D01*
X92785720Y-77166667D01*
X92809529Y-77190476D01*
X98500005Y-77851190D02*
X98214291Y-77851190D01*
X98357148Y-78351190D02*
X98357148Y-77851190D01*
X98047624Y-78351190D02*
X98047624Y-78017857D01*
X98047624Y-78113095D02*
X98023815Y-78065476D01*
X98000005Y-78041667D01*
X97952386Y-78017857D01*
X97904767Y-78017857D01*
X97523815Y-78351190D02*
X97523815Y-78089286D01*
X97547624Y-78041667D01*
X97595243Y-78017857D01*
X97690481Y-78017857D01*
X97738100Y-78041667D01*
X97523815Y-78327381D02*
X97571434Y-78351190D01*
X97690481Y-78351190D01*
X97738100Y-78327381D01*
X97761910Y-78279762D01*
X97761910Y-78232143D01*
X97738100Y-78184524D01*
X97690481Y-78160714D01*
X97571434Y-78160714D01*
X97523815Y-78136905D01*
X97071434Y-78351190D02*
X97071434Y-77851190D01*
X97071434Y-78327381D02*
X97119053Y-78351190D01*
X97214291Y-78351190D01*
X97261910Y-78327381D01*
X97285719Y-78303571D01*
X97309529Y-78255952D01*
X97309529Y-78113095D01*
X97285719Y-78065476D01*
X97261910Y-78041667D01*
X97214291Y-78017857D01*
X97119053Y-78017857D01*
X97071434Y-78041667D01*
X96833338Y-78351190D02*
X96833338Y-78017857D01*
X96833338Y-77851190D02*
X96857148Y-77875000D01*
X96833338Y-77898810D01*
X96809529Y-77875000D01*
X96833338Y-77851190D01*
X96833338Y-77898810D01*
X96666672Y-78017857D02*
X96476196Y-78017857D01*
X96595243Y-77851190D02*
X96595243Y-78279762D01*
X96571434Y-78327381D01*
X96523815Y-78351190D01*
X96476196Y-78351190D01*
X96309529Y-78351190D02*
X96309529Y-78017857D01*
X96309529Y-77851190D02*
X96333339Y-77875000D01*
X96309529Y-77898810D01*
X96285720Y-77875000D01*
X96309529Y-77851190D01*
X96309529Y-77898810D01*
X96000006Y-78351190D02*
X96047625Y-78327381D01*
X96071434Y-78303571D01*
X96095244Y-78255952D01*
X96095244Y-78113095D01*
X96071434Y-78065476D01*
X96047625Y-78041667D01*
X96000006Y-78017857D01*
X95928577Y-78017857D01*
X95880958Y-78041667D01*
X95857149Y-78065476D01*
X95833339Y-78113095D01*
X95833339Y-78255952D01*
X95857149Y-78303571D01*
X95880958Y-78327381D01*
X95928577Y-78351190D01*
X96000006Y-78351190D01*
X95619053Y-78017857D02*
X95619053Y-78351190D01*
X95619053Y-78065476D02*
X95595244Y-78041667D01*
X95547625Y-78017857D01*
X95476196Y-78017857D01*
X95428577Y-78041667D01*
X95404768Y-78089286D01*
X95404768Y-78351190D01*
X94952387Y-78351190D02*
X94952387Y-78089286D01*
X94976196Y-78041667D01*
X95023815Y-78017857D01*
X95119053Y-78017857D01*
X95166672Y-78041667D01*
X94952387Y-78327381D02*
X95000006Y-78351190D01*
X95119053Y-78351190D01*
X95166672Y-78327381D01*
X95190482Y-78279762D01*
X95190482Y-78232143D01*
X95166672Y-78184524D01*
X95119053Y-78160714D01*
X95000006Y-78160714D01*
X94952387Y-78136905D01*
X94642863Y-78351190D02*
X94690482Y-78327381D01*
X94714291Y-78279762D01*
X94714291Y-77851190D01*
X94071434Y-78351190D02*
X94071434Y-77851190D01*
X93880958Y-77851190D01*
X93833339Y-77875000D01*
X93809530Y-77898810D01*
X93785720Y-77946429D01*
X93785720Y-78017857D01*
X93809530Y-78065476D01*
X93833339Y-78089286D01*
X93880958Y-78113095D01*
X94071434Y-78113095D01*
X93500006Y-78351190D02*
X93547625Y-78327381D01*
X93571434Y-78303571D01*
X93595244Y-78255952D01*
X93595244Y-78113095D01*
X93571434Y-78065476D01*
X93547625Y-78041667D01*
X93500006Y-78017857D01*
X93428577Y-78017857D01*
X93380958Y-78041667D01*
X93357149Y-78065476D01*
X93333339Y-78113095D01*
X93333339Y-78255952D01*
X93357149Y-78303571D01*
X93380958Y-78327381D01*
X93428577Y-78351190D01*
X93500006Y-78351190D01*
X93119053Y-78089286D02*
X92952387Y-78089286D01*
X92880958Y-78351190D02*
X93119053Y-78351190D01*
X93119053Y-77851190D01*
X92880958Y-77851190D01*
X173619048Y-132250000D02*
X173666667Y-132226190D01*
X173738095Y-132226190D01*
X173809524Y-132250000D01*
X173857143Y-132297619D01*
X173880952Y-132345238D01*
X173904762Y-132440476D01*
X173904762Y-132511905D01*
X173880952Y-132607143D01*
X173857143Y-132654762D01*
X173809524Y-132702381D01*
X173738095Y-132726190D01*
X173690476Y-132726190D01*
X173619048Y-132702381D01*
X173595238Y-132678571D01*
X173595238Y-132511905D01*
X173690476Y-132511905D01*
X173380952Y-132464286D02*
X173214286Y-132464286D01*
X173142857Y-132726190D02*
X173380952Y-132726190D01*
X173380952Y-132226190D01*
X173142857Y-132226190D01*
X173000000Y-132226190D02*
X172714286Y-132226190D01*
X172857143Y-132726190D02*
X172857143Y-132226190D01*
X172619048Y-132226190D02*
X172333334Y-132226190D01*
X172476191Y-132726190D02*
X172476191Y-132226190D01*
X172166667Y-132726190D02*
X172166667Y-132226190D01*
X171928572Y-132726190D02*
X171928572Y-132226190D01*
X171642858Y-132726190D01*
X171642858Y-132226190D01*
X171142858Y-132250000D02*
X171190477Y-132226190D01*
X171261905Y-132226190D01*
X171333334Y-132250000D01*
X171380953Y-132297619D01*
X171404762Y-132345238D01*
X171428572Y-132440476D01*
X171428572Y-132511905D01*
X171404762Y-132607143D01*
X171380953Y-132654762D01*
X171333334Y-132702381D01*
X171261905Y-132726190D01*
X171214286Y-132726190D01*
X171142858Y-132702381D01*
X171119048Y-132678571D01*
X171119048Y-132511905D01*
X171214286Y-132511905D01*
X170547620Y-132702381D02*
X170476191Y-132726190D01*
X170357144Y-132726190D01*
X170309525Y-132702381D01*
X170285715Y-132678571D01*
X170261906Y-132630952D01*
X170261906Y-132583333D01*
X170285715Y-132535714D01*
X170309525Y-132511905D01*
X170357144Y-132488095D01*
X170452382Y-132464286D01*
X170500001Y-132440476D01*
X170523810Y-132416667D01*
X170547620Y-132369048D01*
X170547620Y-132321429D01*
X170523810Y-132273810D01*
X170500001Y-132250000D01*
X170452382Y-132226190D01*
X170333334Y-132226190D01*
X170261906Y-132250000D01*
X170119049Y-132226190D02*
X169833335Y-132226190D01*
X169976192Y-132726190D02*
X169976192Y-132226190D01*
X169690478Y-132583333D02*
X169452383Y-132583333D01*
X169738097Y-132726190D02*
X169571430Y-132226190D01*
X169404764Y-132726190D01*
X168952383Y-132726190D02*
X169119050Y-132488095D01*
X169238097Y-132726190D02*
X169238097Y-132226190D01*
X169047621Y-132226190D01*
X169000002Y-132250000D01*
X168976193Y-132273810D01*
X168952383Y-132321429D01*
X168952383Y-132392857D01*
X168976193Y-132440476D01*
X169000002Y-132464286D01*
X169047621Y-132488095D01*
X169238097Y-132488095D01*
X168809526Y-132226190D02*
X168523812Y-132226190D01*
X168666669Y-132726190D02*
X168666669Y-132226190D01*
X168357145Y-132464286D02*
X168190479Y-132464286D01*
X168119050Y-132726190D02*
X168357145Y-132726190D01*
X168357145Y-132226190D01*
X168119050Y-132226190D01*
X167904764Y-132726190D02*
X167904764Y-132226190D01*
X167785717Y-132226190D01*
X167714288Y-132250000D01*
X167666669Y-132297619D01*
X167642860Y-132345238D01*
X167619050Y-132440476D01*
X167619050Y-132511905D01*
X167642860Y-132607143D01*
X167666669Y-132654762D01*
X167714288Y-132702381D01*
X167785717Y-132726190D01*
X167904764Y-132726190D01*
X173619048Y-134476190D02*
X173904762Y-134476190D01*
X173761905Y-134476190D02*
X173761905Y-133976190D01*
X173809524Y-134047619D01*
X173857143Y-134095238D01*
X173904762Y-134119048D01*
X173404762Y-134428571D02*
X173380953Y-134452381D01*
X173404762Y-134476190D01*
X173428572Y-134452381D01*
X173404762Y-134428571D01*
X173404762Y-134476190D01*
X172785715Y-134476190D02*
X172785715Y-133976190D01*
X172666668Y-133976190D01*
X172595239Y-134000000D01*
X172547620Y-134047619D01*
X172523811Y-134095238D01*
X172500001Y-134190476D01*
X172500001Y-134261905D01*
X172523811Y-134357143D01*
X172547620Y-134404762D01*
X172595239Y-134452381D01*
X172666668Y-134476190D01*
X172785715Y-134476190D01*
X172214287Y-134476190D02*
X172261906Y-134452381D01*
X172285715Y-134428571D01*
X172309525Y-134380952D01*
X172309525Y-134238095D01*
X172285715Y-134190476D01*
X172261906Y-134166667D01*
X172214287Y-134142857D01*
X172142858Y-134142857D01*
X172095239Y-134166667D01*
X172071430Y-134190476D01*
X172047620Y-134238095D01*
X172047620Y-134380952D01*
X172071430Y-134428571D01*
X172095239Y-134452381D01*
X172142858Y-134476190D01*
X172214287Y-134476190D01*
X171880953Y-134142857D02*
X171785715Y-134476190D01*
X171690477Y-134238095D01*
X171595239Y-134476190D01*
X171500001Y-134142857D01*
X171309524Y-134142857D02*
X171309524Y-134476190D01*
X171309524Y-134190476D02*
X171285715Y-134166667D01*
X171238096Y-134142857D01*
X171166667Y-134142857D01*
X171119048Y-134166667D01*
X171095239Y-134214286D01*
X171095239Y-134476190D01*
X170785715Y-134476190D02*
X170833334Y-134452381D01*
X170857143Y-134404762D01*
X170857143Y-133976190D01*
X170523810Y-134476190D02*
X170571429Y-134452381D01*
X170595238Y-134428571D01*
X170619048Y-134380952D01*
X170619048Y-134238095D01*
X170595238Y-134190476D01*
X170571429Y-134166667D01*
X170523810Y-134142857D01*
X170452381Y-134142857D01*
X170404762Y-134166667D01*
X170380953Y-134190476D01*
X170357143Y-134238095D01*
X170357143Y-134380952D01*
X170380953Y-134428571D01*
X170404762Y-134452381D01*
X170452381Y-134476190D01*
X170523810Y-134476190D01*
X169928572Y-134476190D02*
X169928572Y-134214286D01*
X169952381Y-134166667D01*
X170000000Y-134142857D01*
X170095238Y-134142857D01*
X170142857Y-134166667D01*
X169928572Y-134452381D02*
X169976191Y-134476190D01*
X170095238Y-134476190D01*
X170142857Y-134452381D01*
X170166667Y-134404762D01*
X170166667Y-134357143D01*
X170142857Y-134309524D01*
X170095238Y-134285714D01*
X169976191Y-134285714D01*
X169928572Y-134261905D01*
X169476191Y-134476190D02*
X169476191Y-133976190D01*
X169476191Y-134452381D02*
X169523810Y-134476190D01*
X169619048Y-134476190D01*
X169666667Y-134452381D01*
X169690476Y-134428571D01*
X169714286Y-134380952D01*
X169714286Y-134238095D01*
X169690476Y-134190476D01*
X169666667Y-134166667D01*
X169619048Y-134142857D01*
X169523810Y-134142857D01*
X169476191Y-134166667D01*
X168642858Y-134476190D02*
X168642858Y-134214286D01*
X168666667Y-134166667D01*
X168714286Y-134142857D01*
X168809524Y-134142857D01*
X168857143Y-134166667D01*
X168642858Y-134452381D02*
X168690477Y-134476190D01*
X168809524Y-134476190D01*
X168857143Y-134452381D01*
X168880953Y-134404762D01*
X168880953Y-134357143D01*
X168857143Y-134309524D01*
X168809524Y-134285714D01*
X168690477Y-134285714D01*
X168642858Y-134261905D01*
X168404762Y-134142857D02*
X168404762Y-134476190D01*
X168404762Y-134190476D02*
X168380953Y-134166667D01*
X168333334Y-134142857D01*
X168261905Y-134142857D01*
X168214286Y-134166667D01*
X168190477Y-134214286D01*
X168190477Y-134476190D01*
X167738096Y-134476190D02*
X167738096Y-133976190D01*
X167738096Y-134452381D02*
X167785715Y-134476190D01*
X167880953Y-134476190D01*
X167928572Y-134452381D01*
X167952381Y-134428571D01*
X167976191Y-134380952D01*
X167976191Y-134238095D01*
X167952381Y-134190476D01*
X167928572Y-134166667D01*
X167880953Y-134142857D01*
X167785715Y-134142857D01*
X167738096Y-134166667D01*
X167142858Y-134452381D02*
X167071429Y-134476190D01*
X166952382Y-134476190D01*
X166904763Y-134452381D01*
X166880953Y-134428571D01*
X166857144Y-134380952D01*
X166857144Y-134333333D01*
X166880953Y-134285714D01*
X166904763Y-134261905D01*
X166952382Y-134238095D01*
X167047620Y-134214286D01*
X167095239Y-134190476D01*
X167119048Y-134166667D01*
X167142858Y-134119048D01*
X167142858Y-134071429D01*
X167119048Y-134023810D01*
X167095239Y-134000000D01*
X167047620Y-133976190D01*
X166928572Y-133976190D01*
X166857144Y-134000000D01*
X166714287Y-134142857D02*
X166523811Y-134142857D01*
X166642858Y-133976190D02*
X166642858Y-134404762D01*
X166619049Y-134452381D01*
X166571430Y-134476190D01*
X166523811Y-134476190D01*
X166142859Y-134476190D02*
X166142859Y-134214286D01*
X166166668Y-134166667D01*
X166214287Y-134142857D01*
X166309525Y-134142857D01*
X166357144Y-134166667D01*
X166142859Y-134452381D02*
X166190478Y-134476190D01*
X166309525Y-134476190D01*
X166357144Y-134452381D01*
X166380954Y-134404762D01*
X166380954Y-134357143D01*
X166357144Y-134309524D01*
X166309525Y-134285714D01*
X166190478Y-134285714D01*
X166142859Y-134261905D01*
X165904763Y-134476190D02*
X165904763Y-134142857D01*
X165904763Y-134238095D02*
X165880954Y-134190476D01*
X165857144Y-134166667D01*
X165809525Y-134142857D01*
X165761906Y-134142857D01*
X165666668Y-134142857D02*
X165476192Y-134142857D01*
X165595239Y-133976190D02*
X165595239Y-134404762D01*
X165571430Y-134452381D01*
X165523811Y-134476190D01*
X165476192Y-134476190D01*
X172047621Y-135017857D02*
X171857145Y-135017857D01*
X171976192Y-134851190D02*
X171976192Y-135279762D01*
X171952383Y-135327381D01*
X171904764Y-135351190D01*
X171857145Y-135351190D01*
X171690478Y-135351190D02*
X171690478Y-134851190D01*
X171476193Y-135351190D02*
X171476193Y-135089286D01*
X171500002Y-135041667D01*
X171547621Y-135017857D01*
X171619050Y-135017857D01*
X171666669Y-135041667D01*
X171690478Y-135065476D01*
X171047621Y-135327381D02*
X171095240Y-135351190D01*
X171190478Y-135351190D01*
X171238097Y-135327381D01*
X171261907Y-135279762D01*
X171261907Y-135089286D01*
X171238097Y-135041667D01*
X171190478Y-135017857D01*
X171095240Y-135017857D01*
X171047621Y-135041667D01*
X171023812Y-135089286D01*
X171023812Y-135136905D01*
X171261907Y-135184524D01*
X170452384Y-135208333D02*
X170214289Y-135208333D01*
X170500003Y-135351190D02*
X170333336Y-134851190D01*
X170166670Y-135351190D01*
X170000003Y-135351190D02*
X170000003Y-135017857D01*
X170000003Y-135113095D02*
X169976194Y-135065476D01*
X169952384Y-135041667D01*
X169904765Y-135017857D01*
X169857146Y-135017857D01*
X169476194Y-135351190D02*
X169476194Y-134851190D01*
X169476194Y-135327381D02*
X169523813Y-135351190D01*
X169619051Y-135351190D01*
X169666670Y-135327381D01*
X169690479Y-135303571D01*
X169714289Y-135255952D01*
X169714289Y-135113095D01*
X169690479Y-135065476D01*
X169666670Y-135041667D01*
X169619051Y-135017857D01*
X169523813Y-135017857D01*
X169476194Y-135041667D01*
X169023813Y-135017857D02*
X169023813Y-135351190D01*
X169238098Y-135017857D02*
X169238098Y-135279762D01*
X169214289Y-135327381D01*
X169166670Y-135351190D01*
X169095241Y-135351190D01*
X169047622Y-135327381D01*
X169023813Y-135303571D01*
X168785717Y-135351190D02*
X168785717Y-135017857D01*
X168785717Y-134851190D02*
X168809527Y-134875000D01*
X168785717Y-134898810D01*
X168761908Y-134875000D01*
X168785717Y-134851190D01*
X168785717Y-134898810D01*
X168547622Y-135017857D02*
X168547622Y-135351190D01*
X168547622Y-135065476D02*
X168523813Y-135041667D01*
X168476194Y-135017857D01*
X168404765Y-135017857D01*
X168357146Y-135041667D01*
X168333337Y-135089286D01*
X168333337Y-135351190D01*
X168023813Y-135351190D02*
X168071432Y-135327381D01*
X168095241Y-135303571D01*
X168119051Y-135255952D01*
X168119051Y-135113095D01*
X168095241Y-135065476D01*
X168071432Y-135041667D01*
X168023813Y-135017857D01*
X167952384Y-135017857D01*
X167904765Y-135041667D01*
X167880956Y-135065476D01*
X167857146Y-135113095D01*
X167857146Y-135255952D01*
X167880956Y-135303571D01*
X167904765Y-135327381D01*
X167952384Y-135351190D01*
X168023813Y-135351190D01*
X167261908Y-135351190D02*
X167261908Y-134851190D01*
X167023813Y-135351190D02*
X167023813Y-134851190D01*
X166904766Y-134851190D01*
X166833337Y-134875000D01*
X166785718Y-134922619D01*
X166761909Y-134970238D01*
X166738099Y-135065476D01*
X166738099Y-135136905D01*
X166761909Y-135232143D01*
X166785718Y-135279762D01*
X166833337Y-135327381D01*
X166904766Y-135351190D01*
X167023813Y-135351190D01*
X166523813Y-135089286D02*
X166357147Y-135089286D01*
X166285718Y-135351190D02*
X166523813Y-135351190D01*
X166523813Y-134851190D01*
X166285718Y-134851190D01*
X173904762Y-135773810D02*
X173880952Y-135750000D01*
X173833333Y-135726190D01*
X173714286Y-135726190D01*
X173666667Y-135750000D01*
X173642857Y-135773810D01*
X173619048Y-135821429D01*
X173619048Y-135869048D01*
X173642857Y-135940476D01*
X173928571Y-136226190D01*
X173619048Y-136226190D01*
X173404762Y-136178571D02*
X173380953Y-136202381D01*
X173404762Y-136226190D01*
X173428572Y-136202381D01*
X173404762Y-136178571D01*
X173404762Y-136226190D01*
X172500001Y-136178571D02*
X172523811Y-136202381D01*
X172595239Y-136226190D01*
X172642858Y-136226190D01*
X172714287Y-136202381D01*
X172761906Y-136154762D01*
X172785715Y-136107143D01*
X172809525Y-136011905D01*
X172809525Y-135940476D01*
X172785715Y-135845238D01*
X172761906Y-135797619D01*
X172714287Y-135750000D01*
X172642858Y-135726190D01*
X172595239Y-135726190D01*
X172523811Y-135750000D01*
X172500001Y-135773810D01*
X172214287Y-136226190D02*
X172261906Y-136202381D01*
X172285715Y-136178571D01*
X172309525Y-136130952D01*
X172309525Y-135988095D01*
X172285715Y-135940476D01*
X172261906Y-135916667D01*
X172214287Y-135892857D01*
X172142858Y-135892857D01*
X172095239Y-135916667D01*
X172071430Y-135940476D01*
X172047620Y-135988095D01*
X172047620Y-136130952D01*
X172071430Y-136178571D01*
X172095239Y-136202381D01*
X172142858Y-136226190D01*
X172214287Y-136226190D01*
X171833334Y-135892857D02*
X171833334Y-136226190D01*
X171833334Y-135940476D02*
X171809525Y-135916667D01*
X171761906Y-135892857D01*
X171690477Y-135892857D01*
X171642858Y-135916667D01*
X171619049Y-135964286D01*
X171619049Y-136226190D01*
X171380953Y-135892857D02*
X171380953Y-136226190D01*
X171380953Y-135940476D02*
X171357144Y-135916667D01*
X171309525Y-135892857D01*
X171238096Y-135892857D01*
X171190477Y-135916667D01*
X171166668Y-135964286D01*
X171166668Y-136226190D01*
X170738096Y-136202381D02*
X170785715Y-136226190D01*
X170880953Y-136226190D01*
X170928572Y-136202381D01*
X170952382Y-136154762D01*
X170952382Y-135964286D01*
X170928572Y-135916667D01*
X170880953Y-135892857D01*
X170785715Y-135892857D01*
X170738096Y-135916667D01*
X170714287Y-135964286D01*
X170714287Y-136011905D01*
X170952382Y-136059524D01*
X170285716Y-136202381D02*
X170333335Y-136226190D01*
X170428573Y-136226190D01*
X170476192Y-136202381D01*
X170500001Y-136178571D01*
X170523811Y-136130952D01*
X170523811Y-135988095D01*
X170500001Y-135940476D01*
X170476192Y-135916667D01*
X170428573Y-135892857D01*
X170333335Y-135892857D01*
X170285716Y-135916667D01*
X170142859Y-135892857D02*
X169952383Y-135892857D01*
X170071430Y-135726190D02*
X170071430Y-136154762D01*
X170047621Y-136202381D01*
X170000002Y-136226190D01*
X169952383Y-136226190D01*
X169190479Y-136226190D02*
X169190479Y-135964286D01*
X169214288Y-135916667D01*
X169261907Y-135892857D01*
X169357145Y-135892857D01*
X169404764Y-135916667D01*
X169190479Y-136202381D02*
X169238098Y-136226190D01*
X169357145Y-136226190D01*
X169404764Y-136202381D01*
X169428574Y-136154762D01*
X169428574Y-136107143D01*
X169404764Y-136059524D01*
X169357145Y-136035714D01*
X169238098Y-136035714D01*
X169190479Y-136011905D01*
X168571431Y-135726190D02*
X168571431Y-136130952D01*
X168547622Y-136178571D01*
X168523812Y-136202381D01*
X168476193Y-136226190D01*
X168380955Y-136226190D01*
X168333336Y-136202381D01*
X168309527Y-136178571D01*
X168285717Y-136130952D01*
X168285717Y-135726190D01*
X168071431Y-136202381D02*
X168000002Y-136226190D01*
X167880955Y-136226190D01*
X167833336Y-136202381D01*
X167809526Y-136178571D01*
X167785717Y-136130952D01*
X167785717Y-136083333D01*
X167809526Y-136035714D01*
X167833336Y-136011905D01*
X167880955Y-135988095D01*
X167976193Y-135964286D01*
X168023812Y-135940476D01*
X168047621Y-135916667D01*
X168071431Y-135869048D01*
X168071431Y-135821429D01*
X168047621Y-135773810D01*
X168023812Y-135750000D01*
X167976193Y-135726190D01*
X167857145Y-135726190D01*
X167785717Y-135750000D01*
X167404765Y-135964286D02*
X167333336Y-135988095D01*
X167309527Y-136011905D01*
X167285717Y-136059524D01*
X167285717Y-136130952D01*
X167309527Y-136178571D01*
X167333336Y-136202381D01*
X167380955Y-136226190D01*
X167571431Y-136226190D01*
X167571431Y-135726190D01*
X167404765Y-135726190D01*
X167357146Y-135750000D01*
X167333336Y-135773810D01*
X167309527Y-135821429D01*
X167309527Y-135869048D01*
X167333336Y-135916667D01*
X167357146Y-135940476D01*
X167404765Y-135964286D01*
X167571431Y-135964286D01*
X166476194Y-136202381D02*
X166523813Y-136226190D01*
X166619051Y-136226190D01*
X166666670Y-136202381D01*
X166690479Y-136178571D01*
X166714289Y-136130952D01*
X166714289Y-135988095D01*
X166690479Y-135940476D01*
X166666670Y-135916667D01*
X166619051Y-135892857D01*
X166523813Y-135892857D01*
X166476194Y-135916667D01*
X166047623Y-136226190D02*
X166047623Y-135964286D01*
X166071432Y-135916667D01*
X166119051Y-135892857D01*
X166214289Y-135892857D01*
X166261908Y-135916667D01*
X166047623Y-136202381D02*
X166095242Y-136226190D01*
X166214289Y-136226190D01*
X166261908Y-136202381D01*
X166285718Y-136154762D01*
X166285718Y-136107143D01*
X166261908Y-136059524D01*
X166214289Y-136035714D01*
X166095242Y-136035714D01*
X166047623Y-136011905D01*
X165809527Y-136226190D02*
X165809527Y-135726190D01*
X165809527Y-135916667D02*
X165761908Y-135892857D01*
X165666670Y-135892857D01*
X165619051Y-135916667D01*
X165595242Y-135940476D01*
X165571432Y-135988095D01*
X165571432Y-136130952D01*
X165595242Y-136178571D01*
X165619051Y-136202381D01*
X165666670Y-136226190D01*
X165761908Y-136226190D01*
X165809527Y-136202381D01*
X165285718Y-136226190D02*
X165333337Y-136202381D01*
X165357146Y-136154762D01*
X165357146Y-135726190D01*
X164904765Y-136202381D02*
X164952384Y-136226190D01*
X165047622Y-136226190D01*
X165095241Y-136202381D01*
X165119051Y-136154762D01*
X165119051Y-135964286D01*
X165095241Y-135916667D01*
X165047622Y-135892857D01*
X164952384Y-135892857D01*
X164904765Y-135916667D01*
X164880956Y-135964286D01*
X164880956Y-136011905D01*
X165119051Y-136059524D01*
X172047621Y-136767857D02*
X171857145Y-136767857D01*
X171976192Y-137101190D02*
X171976192Y-136672619D01*
X171952383Y-136625000D01*
X171904764Y-136601190D01*
X171857145Y-136601190D01*
X171690478Y-137101190D02*
X171690478Y-136767857D01*
X171690478Y-136863095D02*
X171666669Y-136815476D01*
X171642859Y-136791667D01*
X171595240Y-136767857D01*
X171547621Y-136767857D01*
X171309526Y-137101190D02*
X171357145Y-137077381D01*
X171380954Y-137053571D01*
X171404764Y-137005952D01*
X171404764Y-136863095D01*
X171380954Y-136815476D01*
X171357145Y-136791667D01*
X171309526Y-136767857D01*
X171238097Y-136767857D01*
X171190478Y-136791667D01*
X171166669Y-136815476D01*
X171142859Y-136863095D01*
X171142859Y-137005952D01*
X171166669Y-137053571D01*
X171190478Y-137077381D01*
X171238097Y-137101190D01*
X171309526Y-137101190D01*
X170928573Y-137101190D02*
X170928573Y-136767857D01*
X170928573Y-136815476D02*
X170904764Y-136791667D01*
X170857145Y-136767857D01*
X170785716Y-136767857D01*
X170738097Y-136791667D01*
X170714288Y-136839286D01*
X170714288Y-137101190D01*
X170714288Y-136839286D02*
X170690478Y-136791667D01*
X170642859Y-136767857D01*
X170571431Y-136767857D01*
X170523811Y-136791667D01*
X170500002Y-136839286D01*
X170500002Y-137101190D01*
X169928573Y-136767857D02*
X169809526Y-137101190D01*
X169690478Y-136767857D02*
X169809526Y-137101190D01*
X169857145Y-137220238D01*
X169880954Y-137244048D01*
X169928573Y-137267857D01*
X169428574Y-137101190D02*
X169476193Y-137077381D01*
X169500002Y-137053571D01*
X169523812Y-137005952D01*
X169523812Y-136863095D01*
X169500002Y-136815476D01*
X169476193Y-136791667D01*
X169428574Y-136767857D01*
X169357145Y-136767857D01*
X169309526Y-136791667D01*
X169285717Y-136815476D01*
X169261907Y-136863095D01*
X169261907Y-137005952D01*
X169285717Y-137053571D01*
X169309526Y-137077381D01*
X169357145Y-137101190D01*
X169428574Y-137101190D01*
X168833336Y-136767857D02*
X168833336Y-137101190D01*
X169047621Y-136767857D02*
X169047621Y-137029762D01*
X169023812Y-137077381D01*
X168976193Y-137101190D01*
X168904764Y-137101190D01*
X168857145Y-137077381D01*
X168833336Y-137053571D01*
X168595240Y-137101190D02*
X168595240Y-136767857D01*
X168595240Y-136863095D02*
X168571431Y-136815476D01*
X168547621Y-136791667D01*
X168500002Y-136767857D01*
X168452383Y-136767857D01*
X167690479Y-137077381D02*
X167738098Y-137101190D01*
X167833336Y-137101190D01*
X167880955Y-137077381D01*
X167904764Y-137053571D01*
X167928574Y-137005952D01*
X167928574Y-136863095D01*
X167904764Y-136815476D01*
X167880955Y-136791667D01*
X167833336Y-136767857D01*
X167738098Y-136767857D01*
X167690479Y-136791667D01*
X167404765Y-137101190D02*
X167452384Y-137077381D01*
X167476193Y-137053571D01*
X167500003Y-137005952D01*
X167500003Y-136863095D01*
X167476193Y-136815476D01*
X167452384Y-136791667D01*
X167404765Y-136767857D01*
X167333336Y-136767857D01*
X167285717Y-136791667D01*
X167261908Y-136815476D01*
X167238098Y-136863095D01*
X167238098Y-137005952D01*
X167261908Y-137053571D01*
X167285717Y-137077381D01*
X167333336Y-137101190D01*
X167404765Y-137101190D01*
X167023812Y-137101190D02*
X167023812Y-136767857D01*
X167023812Y-136815476D02*
X167000003Y-136791667D01*
X166952384Y-136767857D01*
X166880955Y-136767857D01*
X166833336Y-136791667D01*
X166809527Y-136839286D01*
X166809527Y-137101190D01*
X166809527Y-136839286D02*
X166785717Y-136791667D01*
X166738098Y-136767857D01*
X166666670Y-136767857D01*
X166619050Y-136791667D01*
X166595241Y-136839286D01*
X166595241Y-137101190D01*
X166357145Y-136767857D02*
X166357145Y-137267857D01*
X166357145Y-136791667D02*
X166309526Y-136767857D01*
X166214288Y-136767857D01*
X166166669Y-136791667D01*
X166142860Y-136815476D01*
X166119050Y-136863095D01*
X166119050Y-137005952D01*
X166142860Y-137053571D01*
X166166669Y-137077381D01*
X166214288Y-137101190D01*
X166309526Y-137101190D01*
X166357145Y-137077381D01*
X165690479Y-136767857D02*
X165690479Y-137101190D01*
X165904764Y-136767857D02*
X165904764Y-137029762D01*
X165880955Y-137077381D01*
X165833336Y-137101190D01*
X165761907Y-137101190D01*
X165714288Y-137077381D01*
X165690479Y-137053571D01*
X165523812Y-136767857D02*
X165333336Y-136767857D01*
X165452383Y-136601190D02*
X165452383Y-137029762D01*
X165428574Y-137077381D01*
X165380955Y-137101190D01*
X165333336Y-137101190D01*
X164976193Y-137077381D02*
X165023812Y-137101190D01*
X165119050Y-137101190D01*
X165166669Y-137077381D01*
X165190479Y-137029762D01*
X165190479Y-136839286D01*
X165166669Y-136791667D01*
X165119050Y-136767857D01*
X165023812Y-136767857D01*
X164976193Y-136791667D01*
X164952384Y-136839286D01*
X164952384Y-136886905D01*
X165190479Y-136934524D01*
X164738098Y-137101190D02*
X164738098Y-136767857D01*
X164738098Y-136863095D02*
X164714289Y-136815476D01*
X164690479Y-136791667D01*
X164642860Y-136767857D01*
X164595241Y-136767857D01*
X172047621Y-137642857D02*
X171857145Y-137642857D01*
X171976192Y-137476190D02*
X171976192Y-137904762D01*
X171952383Y-137952381D01*
X171904764Y-137976190D01*
X171857145Y-137976190D01*
X171619050Y-137976190D02*
X171666669Y-137952381D01*
X171690478Y-137928571D01*
X171714288Y-137880952D01*
X171714288Y-137738095D01*
X171690478Y-137690476D01*
X171666669Y-137666667D01*
X171619050Y-137642857D01*
X171547621Y-137642857D01*
X171500002Y-137666667D01*
X171476193Y-137690476D01*
X171452383Y-137738095D01*
X171452383Y-137880952D01*
X171476193Y-137928571D01*
X171500002Y-137952381D01*
X171547621Y-137976190D01*
X171619050Y-137976190D01*
X170928574Y-137642857D02*
X170738098Y-137642857D01*
X170857145Y-137476190D02*
X170857145Y-137904762D01*
X170833336Y-137952381D01*
X170785717Y-137976190D01*
X170738098Y-137976190D01*
X170571431Y-137976190D02*
X170571431Y-137476190D01*
X170357146Y-137976190D02*
X170357146Y-137714286D01*
X170380955Y-137666667D01*
X170428574Y-137642857D01*
X170500003Y-137642857D01*
X170547622Y-137666667D01*
X170571431Y-137690476D01*
X169928574Y-137952381D02*
X169976193Y-137976190D01*
X170071431Y-137976190D01*
X170119050Y-137952381D01*
X170142860Y-137904762D01*
X170142860Y-137714286D01*
X170119050Y-137666667D01*
X170071431Y-137642857D01*
X169976193Y-137642857D01*
X169928574Y-137666667D01*
X169904765Y-137714286D01*
X169904765Y-137761905D01*
X170142860Y-137809524D01*
X169309527Y-137976190D02*
X169309527Y-137642857D01*
X169309527Y-137690476D02*
X169285718Y-137666667D01*
X169238099Y-137642857D01*
X169166670Y-137642857D01*
X169119051Y-137666667D01*
X169095242Y-137714286D01*
X169095242Y-137976190D01*
X169095242Y-137714286D02*
X169071432Y-137666667D01*
X169023813Y-137642857D01*
X168952385Y-137642857D01*
X168904765Y-137666667D01*
X168880956Y-137714286D01*
X168880956Y-137976190D01*
X168642860Y-137976190D02*
X168642860Y-137642857D01*
X168642860Y-137476190D02*
X168666670Y-137500000D01*
X168642860Y-137523810D01*
X168619051Y-137500000D01*
X168642860Y-137476190D01*
X168642860Y-137523810D01*
X168190480Y-137952381D02*
X168238099Y-137976190D01*
X168333337Y-137976190D01*
X168380956Y-137952381D01*
X168404765Y-137928571D01*
X168428575Y-137880952D01*
X168428575Y-137738095D01*
X168404765Y-137690476D01*
X168380956Y-137666667D01*
X168333337Y-137642857D01*
X168238099Y-137642857D01*
X168190480Y-137666667D01*
X167976194Y-137976190D02*
X167976194Y-137642857D01*
X167976194Y-137738095D02*
X167952385Y-137690476D01*
X167928575Y-137666667D01*
X167880956Y-137642857D01*
X167833337Y-137642857D01*
X167595242Y-137976190D02*
X167642861Y-137952381D01*
X167666670Y-137928571D01*
X167690480Y-137880952D01*
X167690480Y-137738095D01*
X167666670Y-137690476D01*
X167642861Y-137666667D01*
X167595242Y-137642857D01*
X167523813Y-137642857D01*
X167476194Y-137666667D01*
X167452385Y-137690476D01*
X167428575Y-137738095D01*
X167428575Y-137880952D01*
X167452385Y-137928571D01*
X167476194Y-137952381D01*
X167523813Y-137976190D01*
X167595242Y-137976190D01*
X166833337Y-137476190D02*
X166833337Y-137880952D01*
X166809528Y-137928571D01*
X166785718Y-137952381D01*
X166738099Y-137976190D01*
X166642861Y-137976190D01*
X166595242Y-137952381D01*
X166571433Y-137928571D01*
X166547623Y-137880952D01*
X166547623Y-137476190D01*
X166333337Y-137952381D02*
X166261908Y-137976190D01*
X166142861Y-137976190D01*
X166095242Y-137952381D01*
X166071432Y-137928571D01*
X166047623Y-137880952D01*
X166047623Y-137833333D01*
X166071432Y-137785714D01*
X166095242Y-137761905D01*
X166142861Y-137738095D01*
X166238099Y-137714286D01*
X166285718Y-137690476D01*
X166309527Y-137666667D01*
X166333337Y-137619048D01*
X166333337Y-137571429D01*
X166309527Y-137523810D01*
X166285718Y-137500000D01*
X166238099Y-137476190D01*
X166119051Y-137476190D01*
X166047623Y-137500000D01*
X165666671Y-137714286D02*
X165595242Y-137738095D01*
X165571433Y-137761905D01*
X165547623Y-137809524D01*
X165547623Y-137880952D01*
X165571433Y-137928571D01*
X165595242Y-137952381D01*
X165642861Y-137976190D01*
X165833337Y-137976190D01*
X165833337Y-137476190D01*
X165666671Y-137476190D01*
X165619052Y-137500000D01*
X165595242Y-137523810D01*
X165571433Y-137571429D01*
X165571433Y-137619048D01*
X165595242Y-137666667D01*
X165619052Y-137690476D01*
X165666671Y-137714286D01*
X165833337Y-137714286D01*
X164952385Y-137642857D02*
X164952385Y-138142857D01*
X164952385Y-137666667D02*
X164904766Y-137642857D01*
X164809528Y-137642857D01*
X164761909Y-137666667D01*
X164738100Y-137690476D01*
X164714290Y-137738095D01*
X164714290Y-137880952D01*
X164738100Y-137928571D01*
X164761909Y-137952381D01*
X164809528Y-137976190D01*
X164904766Y-137976190D01*
X164952385Y-137952381D01*
X164428576Y-137976190D02*
X164476195Y-137952381D01*
X164500004Y-137928571D01*
X164523814Y-137880952D01*
X164523814Y-137738095D01*
X164500004Y-137690476D01*
X164476195Y-137666667D01*
X164428576Y-137642857D01*
X164357147Y-137642857D01*
X164309528Y-137666667D01*
X164285719Y-137690476D01*
X164261909Y-137738095D01*
X164261909Y-137880952D01*
X164285719Y-137928571D01*
X164309528Y-137952381D01*
X164357147Y-137976190D01*
X164428576Y-137976190D01*
X164047623Y-137976190D02*
X164047623Y-137642857D01*
X164047623Y-137738095D02*
X164023814Y-137690476D01*
X164000004Y-137666667D01*
X163952385Y-137642857D01*
X163904766Y-137642857D01*
X163809528Y-137642857D02*
X163619052Y-137642857D01*
X163738099Y-137476190D02*
X163738099Y-137904762D01*
X163714290Y-137952381D01*
X163666671Y-137976190D01*
X163619052Y-137976190D01*
X163452385Y-137928571D02*
X163428576Y-137952381D01*
X163452385Y-137976190D01*
X163476195Y-137952381D01*
X163452385Y-137928571D01*
X163452385Y-137976190D01*
X171214288Y-138660714D02*
X170833336Y-138660714D01*
X170214288Y-138589286D02*
X170047622Y-138589286D01*
X169976193Y-138851190D02*
X170214288Y-138851190D01*
X170214288Y-138351190D01*
X169976193Y-138351190D01*
X169761907Y-138517857D02*
X169761907Y-138851190D01*
X169761907Y-138565476D02*
X169738098Y-138541667D01*
X169690479Y-138517857D01*
X169619050Y-138517857D01*
X169571431Y-138541667D01*
X169547622Y-138589286D01*
X169547622Y-138851190D01*
X169333336Y-138827381D02*
X169285717Y-138851190D01*
X169190479Y-138851190D01*
X169142860Y-138827381D01*
X169119050Y-138779762D01*
X169119050Y-138755952D01*
X169142860Y-138708333D01*
X169190479Y-138684524D01*
X169261907Y-138684524D01*
X169309526Y-138660714D01*
X169333336Y-138613095D01*
X169333336Y-138589286D01*
X169309526Y-138541667D01*
X169261907Y-138517857D01*
X169190479Y-138517857D01*
X169142860Y-138541667D01*
X168690479Y-138517857D02*
X168690479Y-138851190D01*
X168904764Y-138517857D02*
X168904764Y-138779762D01*
X168880955Y-138827381D01*
X168833336Y-138851190D01*
X168761907Y-138851190D01*
X168714288Y-138827381D01*
X168690479Y-138803571D01*
X168452383Y-138851190D02*
X168452383Y-138517857D01*
X168452383Y-138613095D02*
X168428574Y-138565476D01*
X168404764Y-138541667D01*
X168357145Y-138517857D01*
X168309526Y-138517857D01*
X167952383Y-138827381D02*
X168000002Y-138851190D01*
X168095240Y-138851190D01*
X168142859Y-138827381D01*
X168166669Y-138779762D01*
X168166669Y-138589286D01*
X168142859Y-138541667D01*
X168095240Y-138517857D01*
X168000002Y-138517857D01*
X167952383Y-138541667D01*
X167928574Y-138589286D01*
X167928574Y-138636905D01*
X168166669Y-138684524D01*
X167404765Y-138517857D02*
X167214289Y-138517857D01*
X167333336Y-138351190D02*
X167333336Y-138779762D01*
X167309527Y-138827381D01*
X167261908Y-138851190D01*
X167214289Y-138851190D01*
X167047622Y-138851190D02*
X167047622Y-138351190D01*
X166833337Y-138851190D02*
X166833337Y-138589286D01*
X166857146Y-138541667D01*
X166904765Y-138517857D01*
X166976194Y-138517857D01*
X167023813Y-138541667D01*
X167047622Y-138565476D01*
X166380956Y-138851190D02*
X166380956Y-138589286D01*
X166404765Y-138541667D01*
X166452384Y-138517857D01*
X166547622Y-138517857D01*
X166595241Y-138541667D01*
X166380956Y-138827381D02*
X166428575Y-138851190D01*
X166547622Y-138851190D01*
X166595241Y-138827381D01*
X166619051Y-138779762D01*
X166619051Y-138732143D01*
X166595241Y-138684524D01*
X166547622Y-138660714D01*
X166428575Y-138660714D01*
X166380956Y-138636905D01*
X166214289Y-138517857D02*
X166023813Y-138517857D01*
X166142860Y-138351190D02*
X166142860Y-138779762D01*
X166119051Y-138827381D01*
X166071432Y-138851190D01*
X166023813Y-138851190D01*
X165547623Y-138517857D02*
X165357147Y-138517857D01*
X165476194Y-138351190D02*
X165476194Y-138779762D01*
X165452385Y-138827381D01*
X165404766Y-138851190D01*
X165357147Y-138851190D01*
X165190480Y-138851190D02*
X165190480Y-138351190D01*
X164976195Y-138851190D02*
X164976195Y-138589286D01*
X165000004Y-138541667D01*
X165047623Y-138517857D01*
X165119052Y-138517857D01*
X165166671Y-138541667D01*
X165190480Y-138565476D01*
X164547623Y-138827381D02*
X164595242Y-138851190D01*
X164690480Y-138851190D01*
X164738099Y-138827381D01*
X164761909Y-138779762D01*
X164761909Y-138589286D01*
X164738099Y-138541667D01*
X164690480Y-138517857D01*
X164595242Y-138517857D01*
X164547623Y-138541667D01*
X164523814Y-138589286D01*
X164523814Y-138636905D01*
X164761909Y-138684524D01*
X163928576Y-138851190D02*
X163928576Y-138351190D01*
X163738100Y-138351190D01*
X163690481Y-138375000D01*
X163666672Y-138398810D01*
X163642862Y-138446429D01*
X163642862Y-138517857D01*
X163666672Y-138565476D01*
X163690481Y-138589286D01*
X163738100Y-138613095D01*
X163928576Y-138613095D01*
X163476195Y-138351190D02*
X163357148Y-138851190D01*
X163261910Y-138494048D01*
X163166672Y-138851190D01*
X163047624Y-138351190D01*
X162571433Y-138851190D02*
X162738100Y-138613095D01*
X162857147Y-138851190D02*
X162857147Y-138351190D01*
X162666671Y-138351190D01*
X162619052Y-138375000D01*
X162595243Y-138398810D01*
X162571433Y-138446429D01*
X162571433Y-138517857D01*
X162595243Y-138565476D01*
X162619052Y-138589286D01*
X162666671Y-138613095D01*
X162857147Y-138613095D01*
X169833337Y-139726190D02*
X170071432Y-139726190D01*
X170071432Y-139226190D01*
X169666670Y-139464286D02*
X169500004Y-139464286D01*
X169428575Y-139726190D02*
X169666670Y-139726190D01*
X169666670Y-139226190D01*
X169428575Y-139226190D01*
X169214289Y-139726190D02*
X169214289Y-139226190D01*
X169095242Y-139226190D01*
X169023813Y-139250000D01*
X168976194Y-139297619D01*
X168952385Y-139345238D01*
X168928575Y-139440476D01*
X168928575Y-139511905D01*
X168952385Y-139607143D01*
X168976194Y-139654762D01*
X169023813Y-139702381D01*
X169095242Y-139726190D01*
X169214289Y-139726190D01*
X168261909Y-139726190D02*
X168309528Y-139702381D01*
X168333337Y-139654762D01*
X168333337Y-139226190D01*
X168071432Y-139726190D02*
X168071432Y-139392857D01*
X168071432Y-139226190D02*
X168095242Y-139250000D01*
X168071432Y-139273810D01*
X168047623Y-139250000D01*
X168071432Y-139226190D01*
X168071432Y-139273810D01*
X167619052Y-139392857D02*
X167619052Y-139797619D01*
X167642861Y-139845238D01*
X167666671Y-139869048D01*
X167714290Y-139892857D01*
X167785718Y-139892857D01*
X167833337Y-139869048D01*
X167619052Y-139702381D02*
X167666671Y-139726190D01*
X167761909Y-139726190D01*
X167809528Y-139702381D01*
X167833337Y-139678571D01*
X167857147Y-139630952D01*
X167857147Y-139488095D01*
X167833337Y-139440476D01*
X167809528Y-139416667D01*
X167761909Y-139392857D01*
X167666671Y-139392857D01*
X167619052Y-139416667D01*
X167380956Y-139726190D02*
X167380956Y-139226190D01*
X167166671Y-139726190D02*
X167166671Y-139464286D01*
X167190480Y-139416667D01*
X167238099Y-139392857D01*
X167309528Y-139392857D01*
X167357147Y-139416667D01*
X167380956Y-139440476D01*
X167000004Y-139392857D02*
X166809528Y-139392857D01*
X166928575Y-139226190D02*
X166928575Y-139654762D01*
X166904766Y-139702381D01*
X166857147Y-139726190D01*
X166809528Y-139726190D01*
X166666671Y-139702381D02*
X166619052Y-139726190D01*
X166523814Y-139726190D01*
X166476195Y-139702381D01*
X166452385Y-139654762D01*
X166452385Y-139630952D01*
X166476195Y-139583333D01*
X166523814Y-139559524D01*
X166595242Y-139559524D01*
X166642861Y-139535714D01*
X166666671Y-139488095D01*
X166666671Y-139464286D01*
X166642861Y-139416667D01*
X166595242Y-139392857D01*
X166523814Y-139392857D01*
X166476195Y-139416667D01*
X165642862Y-139392857D02*
X165642862Y-139726190D01*
X165857147Y-139392857D02*
X165857147Y-139654762D01*
X165833338Y-139702381D01*
X165785719Y-139726190D01*
X165714290Y-139726190D01*
X165666671Y-139702381D01*
X165642862Y-139678571D01*
X165404766Y-139392857D02*
X165404766Y-139892857D01*
X165404766Y-139416667D02*
X165357147Y-139392857D01*
X165261909Y-139392857D01*
X165214290Y-139416667D01*
X165190481Y-139440476D01*
X165166671Y-139488095D01*
X165166671Y-139630952D01*
X165190481Y-139678571D01*
X165214290Y-139702381D01*
X165261909Y-139726190D01*
X165357147Y-139726190D01*
X165404766Y-139702381D01*
X173928571Y-140101190D02*
X173619048Y-140101190D01*
X173785714Y-140291667D01*
X173714286Y-140291667D01*
X173666667Y-140315476D01*
X173642857Y-140339286D01*
X173619048Y-140386905D01*
X173619048Y-140505952D01*
X173642857Y-140553571D01*
X173666667Y-140577381D01*
X173714286Y-140601190D01*
X173857143Y-140601190D01*
X173904762Y-140577381D01*
X173928571Y-140553571D01*
X173404762Y-140553571D02*
X173380953Y-140577381D01*
X173404762Y-140601190D01*
X173428572Y-140577381D01*
X173404762Y-140553571D01*
X173404762Y-140601190D01*
X172785715Y-140601190D02*
X172785715Y-140101190D01*
X172547620Y-140267857D02*
X172547620Y-140601190D01*
X172547620Y-140315476D02*
X172523811Y-140291667D01*
X172476192Y-140267857D01*
X172404763Y-140267857D01*
X172357144Y-140291667D01*
X172333335Y-140339286D01*
X172333335Y-140601190D01*
X171785716Y-140267857D02*
X171595240Y-140267857D01*
X171714287Y-140101190D02*
X171714287Y-140529762D01*
X171690478Y-140577381D01*
X171642859Y-140601190D01*
X171595240Y-140601190D01*
X171428573Y-140601190D02*
X171428573Y-140101190D01*
X171214288Y-140601190D02*
X171214288Y-140339286D01*
X171238097Y-140291667D01*
X171285716Y-140267857D01*
X171357145Y-140267857D01*
X171404764Y-140291667D01*
X171428573Y-140315476D01*
X170785716Y-140577381D02*
X170833335Y-140601190D01*
X170928573Y-140601190D01*
X170976192Y-140577381D01*
X171000002Y-140529762D01*
X171000002Y-140339286D01*
X170976192Y-140291667D01*
X170928573Y-140267857D01*
X170833335Y-140267857D01*
X170785716Y-140291667D01*
X170761907Y-140339286D01*
X170761907Y-140386905D01*
X171000002Y-140434524D01*
X170190479Y-140458333D02*
X169952384Y-140458333D01*
X170238098Y-140601190D02*
X170071431Y-140101190D01*
X169904765Y-140601190D01*
X169738098Y-140601190D02*
X169738098Y-140267857D01*
X169738098Y-140363095D02*
X169714289Y-140315476D01*
X169690479Y-140291667D01*
X169642860Y-140267857D01*
X169595241Y-140267857D01*
X169214289Y-140601190D02*
X169214289Y-140101190D01*
X169214289Y-140577381D02*
X169261908Y-140601190D01*
X169357146Y-140601190D01*
X169404765Y-140577381D01*
X169428574Y-140553571D01*
X169452384Y-140505952D01*
X169452384Y-140363095D01*
X169428574Y-140315476D01*
X169404765Y-140291667D01*
X169357146Y-140267857D01*
X169261908Y-140267857D01*
X169214289Y-140291667D01*
X168761908Y-140267857D02*
X168761908Y-140601190D01*
X168976193Y-140267857D02*
X168976193Y-140529762D01*
X168952384Y-140577381D01*
X168904765Y-140601190D01*
X168833336Y-140601190D01*
X168785717Y-140577381D01*
X168761908Y-140553571D01*
X168523812Y-140601190D02*
X168523812Y-140267857D01*
X168523812Y-140101190D02*
X168547622Y-140125000D01*
X168523812Y-140148810D01*
X168500003Y-140125000D01*
X168523812Y-140101190D01*
X168523812Y-140148810D01*
X168285717Y-140267857D02*
X168285717Y-140601190D01*
X168285717Y-140315476D02*
X168261908Y-140291667D01*
X168214289Y-140267857D01*
X168142860Y-140267857D01*
X168095241Y-140291667D01*
X168071432Y-140339286D01*
X168071432Y-140601190D01*
X167761908Y-140601190D02*
X167809527Y-140577381D01*
X167833336Y-140553571D01*
X167857146Y-140505952D01*
X167857146Y-140363095D01*
X167833336Y-140315476D01*
X167809527Y-140291667D01*
X167761908Y-140267857D01*
X167690479Y-140267857D01*
X167642860Y-140291667D01*
X167619051Y-140315476D01*
X167595241Y-140363095D01*
X167595241Y-140505952D01*
X167619051Y-140553571D01*
X167642860Y-140577381D01*
X167690479Y-140601190D01*
X167761908Y-140601190D01*
X167000003Y-140601190D02*
X167000003Y-140101190D01*
X166761908Y-140601190D02*
X166761908Y-140101190D01*
X166642861Y-140101190D01*
X166571432Y-140125000D01*
X166523813Y-140172619D01*
X166500004Y-140220238D01*
X166476194Y-140315476D01*
X166476194Y-140386905D01*
X166500004Y-140482143D01*
X166523813Y-140529762D01*
X166571432Y-140577381D01*
X166642861Y-140601190D01*
X166761908Y-140601190D01*
X166261908Y-140339286D02*
X166095242Y-140339286D01*
X166023813Y-140601190D02*
X166261908Y-140601190D01*
X166261908Y-140101190D01*
X166023813Y-140101190D01*
X165785718Y-140577381D02*
X165785718Y-140601190D01*
X165809527Y-140648810D01*
X165833337Y-140672619D01*
X165214290Y-140577381D02*
X165142861Y-140601190D01*
X165023814Y-140601190D01*
X164976195Y-140577381D01*
X164952385Y-140553571D01*
X164928576Y-140505952D01*
X164928576Y-140458333D01*
X164952385Y-140410714D01*
X164976195Y-140386905D01*
X165023814Y-140363095D01*
X165119052Y-140339286D01*
X165166671Y-140315476D01*
X165190480Y-140291667D01*
X165214290Y-140244048D01*
X165214290Y-140196429D01*
X165190480Y-140148810D01*
X165166671Y-140125000D01*
X165119052Y-140101190D01*
X165000004Y-140101190D01*
X164928576Y-140125000D01*
X164523814Y-140577381D02*
X164571433Y-140601190D01*
X164666671Y-140601190D01*
X164714290Y-140577381D01*
X164738100Y-140529762D01*
X164738100Y-140339286D01*
X164714290Y-140291667D01*
X164666671Y-140267857D01*
X164571433Y-140267857D01*
X164523814Y-140291667D01*
X164500005Y-140339286D01*
X164500005Y-140386905D01*
X164738100Y-140434524D01*
X164357148Y-140267857D02*
X164166672Y-140267857D01*
X164285719Y-140101190D02*
X164285719Y-140529762D01*
X164261910Y-140577381D01*
X164214291Y-140601190D01*
X164166672Y-140601190D01*
X172047621Y-141142857D02*
X171857145Y-141142857D01*
X171976192Y-140976190D02*
X171976192Y-141404762D01*
X171952383Y-141452381D01*
X171904764Y-141476190D01*
X171857145Y-141476190D01*
X171690478Y-141476190D02*
X171690478Y-140976190D01*
X171476193Y-141476190D02*
X171476193Y-141214286D01*
X171500002Y-141166667D01*
X171547621Y-141142857D01*
X171619050Y-141142857D01*
X171666669Y-141166667D01*
X171690478Y-141190476D01*
X171047621Y-141452381D02*
X171095240Y-141476190D01*
X171190478Y-141476190D01*
X171238097Y-141452381D01*
X171261907Y-141404762D01*
X171261907Y-141214286D01*
X171238097Y-141166667D01*
X171190478Y-141142857D01*
X171095240Y-141142857D01*
X171047621Y-141166667D01*
X171023812Y-141214286D01*
X171023812Y-141261905D01*
X171261907Y-141309524D01*
X170261908Y-141214286D02*
X170190479Y-141238095D01*
X170166670Y-141261905D01*
X170142860Y-141309524D01*
X170142860Y-141380952D01*
X170166670Y-141428571D01*
X170190479Y-141452381D01*
X170238098Y-141476190D01*
X170428574Y-141476190D01*
X170428574Y-140976190D01*
X170261908Y-140976190D01*
X170214289Y-141000000D01*
X170190479Y-141023810D01*
X170166670Y-141071429D01*
X170166670Y-141119048D01*
X170190479Y-141166667D01*
X170214289Y-141190476D01*
X170261908Y-141214286D01*
X170428574Y-141214286D01*
X169857146Y-141476190D02*
X169904765Y-141452381D01*
X169928574Y-141428571D01*
X169952384Y-141380952D01*
X169952384Y-141238095D01*
X169928574Y-141190476D01*
X169904765Y-141166667D01*
X169857146Y-141142857D01*
X169785717Y-141142857D01*
X169738098Y-141166667D01*
X169714289Y-141190476D01*
X169690479Y-141238095D01*
X169690479Y-141380952D01*
X169714289Y-141428571D01*
X169738098Y-141452381D01*
X169785717Y-141476190D01*
X169857146Y-141476190D01*
X169261908Y-141476190D02*
X169261908Y-141214286D01*
X169285717Y-141166667D01*
X169333336Y-141142857D01*
X169428574Y-141142857D01*
X169476193Y-141166667D01*
X169261908Y-141452381D02*
X169309527Y-141476190D01*
X169428574Y-141476190D01*
X169476193Y-141452381D01*
X169500003Y-141404762D01*
X169500003Y-141357143D01*
X169476193Y-141309524D01*
X169428574Y-141285714D01*
X169309527Y-141285714D01*
X169261908Y-141261905D01*
X169023812Y-141476190D02*
X169023812Y-141142857D01*
X169023812Y-141238095D02*
X169000003Y-141190476D01*
X168976193Y-141166667D01*
X168928574Y-141142857D01*
X168880955Y-141142857D01*
X168500003Y-141476190D02*
X168500003Y-140976190D01*
X168500003Y-141452381D02*
X168547622Y-141476190D01*
X168642860Y-141476190D01*
X168690479Y-141452381D01*
X168714288Y-141428571D01*
X168738098Y-141380952D01*
X168738098Y-141238095D01*
X168714288Y-141190476D01*
X168690479Y-141166667D01*
X168642860Y-141142857D01*
X168547622Y-141142857D01*
X168500003Y-141166667D01*
X167952384Y-141142857D02*
X167761908Y-141142857D01*
X167880955Y-140976190D02*
X167880955Y-141404762D01*
X167857146Y-141452381D01*
X167809527Y-141476190D01*
X167761908Y-141476190D01*
X167642860Y-141142857D02*
X167523813Y-141476190D01*
X167404765Y-141142857D02*
X167523813Y-141476190D01*
X167571432Y-141595238D01*
X167595241Y-141619048D01*
X167642860Y-141642857D01*
X167214289Y-141142857D02*
X167214289Y-141642857D01*
X167214289Y-141166667D02*
X167166670Y-141142857D01*
X167071432Y-141142857D01*
X167023813Y-141166667D01*
X167000004Y-141190476D01*
X166976194Y-141238095D01*
X166976194Y-141380952D01*
X167000004Y-141428571D01*
X167023813Y-141452381D01*
X167071432Y-141476190D01*
X167166670Y-141476190D01*
X167214289Y-141452381D01*
X166571432Y-141452381D02*
X166619051Y-141476190D01*
X166714289Y-141476190D01*
X166761908Y-141452381D01*
X166785718Y-141404762D01*
X166785718Y-141214286D01*
X166761908Y-141166667D01*
X166714289Y-141142857D01*
X166619051Y-141142857D01*
X166571432Y-141166667D01*
X166547623Y-141214286D01*
X166547623Y-141261905D01*
X166785718Y-141309524D01*
X166023814Y-141142857D02*
X165833338Y-141142857D01*
X165952385Y-140976190D02*
X165952385Y-141404762D01*
X165928576Y-141452381D01*
X165880957Y-141476190D01*
X165833338Y-141476190D01*
X165595243Y-141476190D02*
X165642862Y-141452381D01*
X165666671Y-141428571D01*
X165690481Y-141380952D01*
X165690481Y-141238095D01*
X165666671Y-141190476D01*
X165642862Y-141166667D01*
X165595243Y-141142857D01*
X165523814Y-141142857D01*
X165476195Y-141166667D01*
X165452386Y-141190476D01*
X165428576Y-141238095D01*
X165428576Y-141380952D01*
X165452386Y-141428571D01*
X165476195Y-141452381D01*
X165523814Y-141476190D01*
X165595243Y-141476190D01*
X172000002Y-141851190D02*
X172000002Y-141946429D01*
X171809526Y-141851190D02*
X171809526Y-141946429D01*
X171619050Y-142208333D02*
X171380955Y-142208333D01*
X171666669Y-142351190D02*
X171500002Y-141851190D01*
X171333336Y-142351190D01*
X171166669Y-142351190D02*
X171166669Y-142017857D01*
X171166669Y-142113095D02*
X171142860Y-142065476D01*
X171119050Y-142041667D01*
X171071431Y-142017857D01*
X171023812Y-142017857D01*
X170642860Y-142351190D02*
X170642860Y-141851190D01*
X170642860Y-142327381D02*
X170690479Y-142351190D01*
X170785717Y-142351190D01*
X170833336Y-142327381D01*
X170857145Y-142303571D01*
X170880955Y-142255952D01*
X170880955Y-142113095D01*
X170857145Y-142065476D01*
X170833336Y-142041667D01*
X170785717Y-142017857D01*
X170690479Y-142017857D01*
X170642860Y-142041667D01*
X170190479Y-142017857D02*
X170190479Y-142351190D01*
X170404764Y-142017857D02*
X170404764Y-142279762D01*
X170380955Y-142327381D01*
X170333336Y-142351190D01*
X170261907Y-142351190D01*
X170214288Y-142327381D01*
X170190479Y-142303571D01*
X169952383Y-142351190D02*
X169952383Y-142017857D01*
X169952383Y-141851190D02*
X169976193Y-141875000D01*
X169952383Y-141898810D01*
X169928574Y-141875000D01*
X169952383Y-141851190D01*
X169952383Y-141898810D01*
X169714288Y-142017857D02*
X169714288Y-142351190D01*
X169714288Y-142065476D02*
X169690479Y-142041667D01*
X169642860Y-142017857D01*
X169571431Y-142017857D01*
X169523812Y-142041667D01*
X169500003Y-142089286D01*
X169500003Y-142351190D01*
X169190479Y-142351190D02*
X169238098Y-142327381D01*
X169261907Y-142303571D01*
X169285717Y-142255952D01*
X169285717Y-142113095D01*
X169261907Y-142065476D01*
X169238098Y-142041667D01*
X169190479Y-142017857D01*
X169119050Y-142017857D01*
X169071431Y-142041667D01*
X169047622Y-142065476D01*
X169023812Y-142113095D01*
X169023812Y-142255952D01*
X169047622Y-142303571D01*
X169071431Y-142327381D01*
X169119050Y-142351190D01*
X169190479Y-142351190D01*
X168452384Y-141827381D02*
X168880955Y-142470238D01*
X168023812Y-141875000D02*
X168071431Y-141851190D01*
X168142859Y-141851190D01*
X168214288Y-141875000D01*
X168261907Y-141922619D01*
X168285716Y-141970238D01*
X168309526Y-142065476D01*
X168309526Y-142136905D01*
X168285716Y-142232143D01*
X168261907Y-142279762D01*
X168214288Y-142327381D01*
X168142859Y-142351190D01*
X168095240Y-142351190D01*
X168023812Y-142327381D01*
X168000002Y-142303571D01*
X168000002Y-142136905D01*
X168095240Y-142136905D01*
X167595240Y-142327381D02*
X167642859Y-142351190D01*
X167738097Y-142351190D01*
X167785716Y-142327381D01*
X167809526Y-142279762D01*
X167809526Y-142089286D01*
X167785716Y-142041667D01*
X167738097Y-142017857D01*
X167642859Y-142017857D01*
X167595240Y-142041667D01*
X167571431Y-142089286D01*
X167571431Y-142136905D01*
X167809526Y-142184524D01*
X167357145Y-142017857D02*
X167357145Y-142351190D01*
X167357145Y-142065476D02*
X167333336Y-142041667D01*
X167285717Y-142017857D01*
X167214288Y-142017857D01*
X167166669Y-142041667D01*
X167142860Y-142089286D01*
X167142860Y-142351190D01*
X166690479Y-142017857D02*
X166690479Y-142351190D01*
X166904764Y-142017857D02*
X166904764Y-142279762D01*
X166880955Y-142327381D01*
X166833336Y-142351190D01*
X166761907Y-142351190D01*
X166714288Y-142327381D01*
X166690479Y-142303571D01*
X166452383Y-142351190D02*
X166452383Y-142017857D01*
X166452383Y-141851190D02*
X166476193Y-141875000D01*
X166452383Y-141898810D01*
X166428574Y-141875000D01*
X166452383Y-141851190D01*
X166452383Y-141898810D01*
X166214288Y-142017857D02*
X166214288Y-142351190D01*
X166214288Y-142065476D02*
X166190479Y-142041667D01*
X166142860Y-142017857D01*
X166071431Y-142017857D01*
X166023812Y-142041667D01*
X166000003Y-142089286D01*
X166000003Y-142351190D01*
X165690479Y-142351190D02*
X165738098Y-142327381D01*
X165761907Y-142303571D01*
X165785717Y-142255952D01*
X165785717Y-142113095D01*
X165761907Y-142065476D01*
X165738098Y-142041667D01*
X165690479Y-142017857D01*
X165619050Y-142017857D01*
X165571431Y-142041667D01*
X165547622Y-142065476D01*
X165523812Y-142113095D01*
X165523812Y-142255952D01*
X165547622Y-142303571D01*
X165571431Y-142327381D01*
X165619050Y-142351190D01*
X165690479Y-142351190D01*
X164928574Y-142351190D02*
X164928574Y-141851190D01*
X164761908Y-142208333D01*
X164595241Y-141851190D01*
X164595241Y-142351190D01*
X164357145Y-142351190D02*
X164357145Y-142017857D01*
X164357145Y-141851190D02*
X164380955Y-141875000D01*
X164357145Y-141898810D01*
X164333336Y-141875000D01*
X164357145Y-141851190D01*
X164357145Y-141898810D01*
X163904765Y-142327381D02*
X163952384Y-142351190D01*
X164047622Y-142351190D01*
X164095241Y-142327381D01*
X164119050Y-142303571D01*
X164142860Y-142255952D01*
X164142860Y-142113095D01*
X164119050Y-142065476D01*
X164095241Y-142041667D01*
X164047622Y-142017857D01*
X163952384Y-142017857D01*
X163904765Y-142041667D01*
X163690479Y-142351190D02*
X163690479Y-142017857D01*
X163690479Y-142113095D02*
X163666670Y-142065476D01*
X163642860Y-142041667D01*
X163595241Y-142017857D01*
X163547622Y-142017857D01*
X163309527Y-142351190D02*
X163357146Y-142327381D01*
X163380955Y-142303571D01*
X163404765Y-142255952D01*
X163404765Y-142113095D01*
X163380955Y-142065476D01*
X163357146Y-142041667D01*
X163309527Y-142017857D01*
X163238098Y-142017857D01*
X163190479Y-142041667D01*
X163166670Y-142065476D01*
X163142860Y-142113095D01*
X163142860Y-142255952D01*
X163166670Y-142303571D01*
X163190479Y-142327381D01*
X163238098Y-142351190D01*
X163309527Y-142351190D01*
X162952384Y-141851190D02*
X162952384Y-141946429D01*
X162761908Y-141851190D02*
X162761908Y-141946429D01*
X171761907Y-143226190D02*
X171761907Y-142964286D01*
X171785716Y-142916667D01*
X171833335Y-142892857D01*
X171928573Y-142892857D01*
X171976192Y-142916667D01*
X171761907Y-143202381D02*
X171809526Y-143226190D01*
X171928573Y-143226190D01*
X171976192Y-143202381D01*
X172000002Y-143154762D01*
X172000002Y-143107143D01*
X171976192Y-143059524D01*
X171928573Y-143035714D01*
X171809526Y-143035714D01*
X171761907Y-143011905D01*
X171523811Y-142892857D02*
X171523811Y-143226190D01*
X171523811Y-142940476D02*
X171500002Y-142916667D01*
X171452383Y-142892857D01*
X171380954Y-142892857D01*
X171333335Y-142916667D01*
X171309526Y-142964286D01*
X171309526Y-143226190D01*
X170857145Y-143226190D02*
X170857145Y-142726190D01*
X170857145Y-143202381D02*
X170904764Y-143226190D01*
X171000002Y-143226190D01*
X171047621Y-143202381D01*
X171071430Y-143178571D01*
X171095240Y-143130952D01*
X171095240Y-142988095D01*
X171071430Y-142940476D01*
X171047621Y-142916667D01*
X171000002Y-142892857D01*
X170904764Y-142892857D01*
X170857145Y-142916667D01*
X170023812Y-143202381D02*
X170071431Y-143226190D01*
X170166669Y-143226190D01*
X170214288Y-143202381D01*
X170238097Y-143178571D01*
X170261907Y-143130952D01*
X170261907Y-142988095D01*
X170238097Y-142940476D01*
X170214288Y-142916667D01*
X170166669Y-142892857D01*
X170071431Y-142892857D01*
X170023812Y-142916667D01*
X169809526Y-143226190D02*
X169809526Y-142726190D01*
X169595241Y-143226190D02*
X169595241Y-142964286D01*
X169619050Y-142916667D01*
X169666669Y-142892857D01*
X169738098Y-142892857D01*
X169785717Y-142916667D01*
X169809526Y-142940476D01*
X169285717Y-143226190D02*
X169333336Y-143202381D01*
X169357145Y-143178571D01*
X169380955Y-143130952D01*
X169380955Y-142988095D01*
X169357145Y-142940476D01*
X169333336Y-142916667D01*
X169285717Y-142892857D01*
X169214288Y-142892857D01*
X169166669Y-142916667D01*
X169142860Y-142940476D01*
X169119050Y-142988095D01*
X169119050Y-143130952D01*
X169142860Y-143178571D01*
X169166669Y-143202381D01*
X169214288Y-143226190D01*
X169285717Y-143226190D01*
X168928574Y-143202381D02*
X168880955Y-143226190D01*
X168785717Y-143226190D01*
X168738098Y-143202381D01*
X168714288Y-143154762D01*
X168714288Y-143130952D01*
X168738098Y-143083333D01*
X168785717Y-143059524D01*
X168857145Y-143059524D01*
X168904764Y-143035714D01*
X168928574Y-142988095D01*
X168928574Y-142964286D01*
X168904764Y-142916667D01*
X168857145Y-142892857D01*
X168785717Y-142892857D01*
X168738098Y-142916667D01*
X168309526Y-143202381D02*
X168357145Y-143226190D01*
X168452383Y-143226190D01*
X168500002Y-143202381D01*
X168523812Y-143154762D01*
X168523812Y-142964286D01*
X168500002Y-142916667D01*
X168452383Y-142892857D01*
X168357145Y-142892857D01*
X168309526Y-142916667D01*
X168285717Y-142964286D01*
X168285717Y-143011905D01*
X168523812Y-143059524D01*
X167761908Y-142892857D02*
X167571432Y-142892857D01*
X167690479Y-142726190D02*
X167690479Y-143154762D01*
X167666670Y-143202381D01*
X167619051Y-143226190D01*
X167571432Y-143226190D01*
X167404765Y-143226190D02*
X167404765Y-142726190D01*
X167190480Y-143226190D02*
X167190480Y-142964286D01*
X167214289Y-142916667D01*
X167261908Y-142892857D01*
X167333337Y-142892857D01*
X167380956Y-142916667D01*
X167404765Y-142940476D01*
X166761908Y-143202381D02*
X166809527Y-143226190D01*
X166904765Y-143226190D01*
X166952384Y-143202381D01*
X166976194Y-143154762D01*
X166976194Y-142964286D01*
X166952384Y-142916667D01*
X166904765Y-142892857D01*
X166809527Y-142892857D01*
X166761908Y-142916667D01*
X166738099Y-142964286D01*
X166738099Y-143011905D01*
X166976194Y-143059524D01*
X166142861Y-143226190D02*
X166142861Y-142726190D01*
X165952385Y-142726190D01*
X165904766Y-142750000D01*
X165880957Y-142773810D01*
X165857147Y-142821429D01*
X165857147Y-142892857D01*
X165880957Y-142940476D01*
X165904766Y-142964286D01*
X165952385Y-142988095D01*
X166142861Y-142988095D01*
X165571433Y-143226190D02*
X165619052Y-143202381D01*
X165642861Y-143178571D01*
X165666671Y-143130952D01*
X165666671Y-142988095D01*
X165642861Y-142940476D01*
X165619052Y-142916667D01*
X165571433Y-142892857D01*
X165500004Y-142892857D01*
X165452385Y-142916667D01*
X165428576Y-142940476D01*
X165404766Y-142988095D01*
X165404766Y-143130952D01*
X165428576Y-143178571D01*
X165452385Y-143202381D01*
X165500004Y-143226190D01*
X165571433Y-143226190D01*
X165190480Y-143226190D02*
X165190480Y-142892857D01*
X165190480Y-142988095D02*
X165166671Y-142940476D01*
X165142861Y-142916667D01*
X165095242Y-142892857D01*
X165047623Y-142892857D01*
X164952385Y-142892857D02*
X164761909Y-142892857D01*
X164880956Y-142726190D02*
X164880956Y-143154762D01*
X164857147Y-143202381D01*
X164809528Y-143226190D01*
X164761909Y-143226190D01*
X173666667Y-143767857D02*
X173666667Y-144101190D01*
X173785714Y-143577381D02*
X173904762Y-143934524D01*
X173595238Y-143934524D01*
X173404762Y-144053571D02*
X173380953Y-144077381D01*
X173404762Y-144101190D01*
X173428572Y-144077381D01*
X173404762Y-144053571D01*
X173404762Y-144101190D01*
X172809525Y-144077381D02*
X172738096Y-144101190D01*
X172619049Y-144101190D01*
X172571430Y-144077381D01*
X172547620Y-144053571D01*
X172523811Y-144005952D01*
X172523811Y-143958333D01*
X172547620Y-143910714D01*
X172571430Y-143886905D01*
X172619049Y-143863095D01*
X172714287Y-143839286D01*
X172761906Y-143815476D01*
X172785715Y-143791667D01*
X172809525Y-143744048D01*
X172809525Y-143696429D01*
X172785715Y-143648810D01*
X172761906Y-143625000D01*
X172714287Y-143601190D01*
X172595239Y-143601190D01*
X172523811Y-143625000D01*
X172380954Y-143767857D02*
X172190478Y-143767857D01*
X172309525Y-143601190D02*
X172309525Y-144029762D01*
X172285716Y-144077381D01*
X172238097Y-144101190D01*
X172190478Y-144101190D01*
X171809526Y-144101190D02*
X171809526Y-143839286D01*
X171833335Y-143791667D01*
X171880954Y-143767857D01*
X171976192Y-143767857D01*
X172023811Y-143791667D01*
X171809526Y-144077381D02*
X171857145Y-144101190D01*
X171976192Y-144101190D01*
X172023811Y-144077381D01*
X172047621Y-144029762D01*
X172047621Y-143982143D01*
X172023811Y-143934524D01*
X171976192Y-143910714D01*
X171857145Y-143910714D01*
X171809526Y-143886905D01*
X171571430Y-144101190D02*
X171571430Y-143767857D01*
X171571430Y-143863095D02*
X171547621Y-143815476D01*
X171523811Y-143791667D01*
X171476192Y-143767857D01*
X171428573Y-143767857D01*
X171333335Y-143767857D02*
X171142859Y-143767857D01*
X171261906Y-143601190D02*
X171261906Y-144029762D01*
X171238097Y-144077381D01*
X171190478Y-144101190D01*
X171142859Y-144101190D01*
X170595240Y-143767857D02*
X170595240Y-144267857D01*
X170595240Y-143791667D02*
X170547621Y-143767857D01*
X170452383Y-143767857D01*
X170404764Y-143791667D01*
X170380955Y-143815476D01*
X170357145Y-143863095D01*
X170357145Y-144005952D01*
X170380955Y-144053571D01*
X170404764Y-144077381D01*
X170452383Y-144101190D01*
X170547621Y-144101190D01*
X170595240Y-144077381D01*
X170142859Y-144101190D02*
X170142859Y-143767857D01*
X170142859Y-143863095D02*
X170119050Y-143815476D01*
X170095240Y-143791667D01*
X170047621Y-143767857D01*
X170000002Y-143767857D01*
X169761907Y-144101190D02*
X169809526Y-144077381D01*
X169833335Y-144053571D01*
X169857145Y-144005952D01*
X169857145Y-143863095D01*
X169833335Y-143815476D01*
X169809526Y-143791667D01*
X169761907Y-143767857D01*
X169690478Y-143767857D01*
X169642859Y-143791667D01*
X169619050Y-143815476D01*
X169595240Y-143863095D01*
X169595240Y-144005952D01*
X169619050Y-144053571D01*
X169642859Y-144077381D01*
X169690478Y-144101190D01*
X169761907Y-144101190D01*
X169166669Y-143767857D02*
X169166669Y-144172619D01*
X169190478Y-144220238D01*
X169214288Y-144244048D01*
X169261907Y-144267857D01*
X169333335Y-144267857D01*
X169380954Y-144244048D01*
X169166669Y-144077381D02*
X169214288Y-144101190D01*
X169309526Y-144101190D01*
X169357145Y-144077381D01*
X169380954Y-144053571D01*
X169404764Y-144005952D01*
X169404764Y-143863095D01*
X169380954Y-143815476D01*
X169357145Y-143791667D01*
X169309526Y-143767857D01*
X169214288Y-143767857D01*
X169166669Y-143791667D01*
X168928573Y-144101190D02*
X168928573Y-143767857D01*
X168928573Y-143863095D02*
X168904764Y-143815476D01*
X168880954Y-143791667D01*
X168833335Y-143767857D01*
X168785716Y-143767857D01*
X168404764Y-144101190D02*
X168404764Y-143839286D01*
X168428573Y-143791667D01*
X168476192Y-143767857D01*
X168571430Y-143767857D01*
X168619049Y-143791667D01*
X168404764Y-144077381D02*
X168452383Y-144101190D01*
X168571430Y-144101190D01*
X168619049Y-144077381D01*
X168642859Y-144029762D01*
X168642859Y-143982143D01*
X168619049Y-143934524D01*
X168571430Y-143910714D01*
X168452383Y-143910714D01*
X168404764Y-143886905D01*
X168166668Y-144101190D02*
X168166668Y-143767857D01*
X168166668Y-143815476D02*
X168142859Y-143791667D01*
X168095240Y-143767857D01*
X168023811Y-143767857D01*
X167976192Y-143791667D01*
X167952383Y-143839286D01*
X167952383Y-144101190D01*
X167952383Y-143839286D02*
X167928573Y-143791667D01*
X167880954Y-143767857D01*
X167809526Y-143767857D01*
X167761906Y-143791667D01*
X167738097Y-143839286D01*
X167738097Y-144101190D01*
X167500001Y-144101190D02*
X167500001Y-143767857D01*
X167500001Y-143815476D02*
X167476192Y-143791667D01*
X167428573Y-143767857D01*
X167357144Y-143767857D01*
X167309525Y-143791667D01*
X167285716Y-143839286D01*
X167285716Y-144101190D01*
X167285716Y-143839286D02*
X167261906Y-143791667D01*
X167214287Y-143767857D01*
X167142859Y-143767857D01*
X167095239Y-143791667D01*
X167071430Y-143839286D01*
X167071430Y-144101190D01*
X166833334Y-144101190D02*
X166833334Y-143767857D01*
X166833334Y-143601190D02*
X166857144Y-143625000D01*
X166833334Y-143648810D01*
X166809525Y-143625000D01*
X166833334Y-143601190D01*
X166833334Y-143648810D01*
X166595239Y-143767857D02*
X166595239Y-144101190D01*
X166595239Y-143815476D02*
X166571430Y-143791667D01*
X166523811Y-143767857D01*
X166452382Y-143767857D01*
X166404763Y-143791667D01*
X166380954Y-143839286D01*
X166380954Y-144101190D01*
X165928573Y-143767857D02*
X165928573Y-144172619D01*
X165952382Y-144220238D01*
X165976192Y-144244048D01*
X166023811Y-144267857D01*
X166095239Y-144267857D01*
X166142858Y-144244048D01*
X165928573Y-144077381D02*
X165976192Y-144101190D01*
X166071430Y-144101190D01*
X166119049Y-144077381D01*
X166142858Y-144053571D01*
X166166668Y-144005952D01*
X166166668Y-143863095D01*
X166142858Y-143815476D01*
X166119049Y-143791667D01*
X166071430Y-143767857D01*
X165976192Y-143767857D01*
X165928573Y-143791667D01*
X173880952Y-145851190D02*
X173880952Y-145351190D01*
X173690476Y-145351190D01*
X173642857Y-145375000D01*
X173619048Y-145398810D01*
X173595238Y-145446429D01*
X173595238Y-145517857D01*
X173619048Y-145565476D01*
X173642857Y-145589286D01*
X173690476Y-145613095D01*
X173880952Y-145613095D01*
X173380952Y-145851190D02*
X173380952Y-145517857D01*
X173380952Y-145351190D02*
X173404762Y-145375000D01*
X173380952Y-145398810D01*
X173357143Y-145375000D01*
X173380952Y-145351190D01*
X173380952Y-145398810D01*
X173142857Y-145517857D02*
X173142857Y-145851190D01*
X173142857Y-145565476D02*
X173119048Y-145541667D01*
X173071429Y-145517857D01*
X173000000Y-145517857D01*
X172952381Y-145541667D01*
X172928572Y-145589286D01*
X172928572Y-145851190D01*
X172619048Y-145851190D02*
X172666667Y-145827381D01*
X172690476Y-145803571D01*
X172714286Y-145755952D01*
X172714286Y-145613095D01*
X172690476Y-145565476D01*
X172666667Y-145541667D01*
X172619048Y-145517857D01*
X172547619Y-145517857D01*
X172500000Y-145541667D01*
X172476191Y-145565476D01*
X172452381Y-145613095D01*
X172452381Y-145755952D01*
X172476191Y-145803571D01*
X172500000Y-145827381D01*
X172547619Y-145851190D01*
X172619048Y-145851190D01*
X172023810Y-145517857D02*
X172023810Y-145851190D01*
X172238095Y-145517857D02*
X172238095Y-145779762D01*
X172214286Y-145827381D01*
X172166667Y-145851190D01*
X172095238Y-145851190D01*
X172047619Y-145827381D01*
X172023810Y-145803571D01*
X171857143Y-145517857D02*
X171666667Y-145517857D01*
X171785714Y-145351190D02*
X171785714Y-145779762D01*
X171761905Y-145827381D01*
X171714286Y-145851190D01*
X171666667Y-145851190D01*
X171119048Y-145851190D02*
X171119048Y-145351190D01*
X170880953Y-145517857D02*
X170880953Y-145851190D01*
X170880953Y-145565476D02*
X170857144Y-145541667D01*
X170809525Y-145517857D01*
X170738096Y-145517857D01*
X170690477Y-145541667D01*
X170666668Y-145589286D01*
X170666668Y-145851190D01*
X170500001Y-145517857D02*
X170309525Y-145517857D01*
X170428572Y-145851190D02*
X170428572Y-145422619D01*
X170404763Y-145375000D01*
X170357144Y-145351190D01*
X170309525Y-145351190D01*
X170071430Y-145851190D02*
X170119049Y-145827381D01*
X170142858Y-145803571D01*
X170166668Y-145755952D01*
X170166668Y-145613095D01*
X170142858Y-145565476D01*
X170119049Y-145541667D01*
X170071430Y-145517857D01*
X170000001Y-145517857D01*
X169952382Y-145541667D01*
X169928573Y-145565476D01*
X169904763Y-145613095D01*
X169904763Y-145755952D01*
X169928573Y-145803571D01*
X169952382Y-145827381D01*
X170000001Y-145851190D01*
X170071430Y-145851190D01*
X169690477Y-145851190D02*
X169690477Y-145517857D01*
X169690477Y-145613095D02*
X169666668Y-145565476D01*
X169642858Y-145541667D01*
X169595239Y-145517857D01*
X169547620Y-145517857D01*
X169380953Y-145851190D02*
X169380953Y-145517857D01*
X169380953Y-145565476D02*
X169357144Y-145541667D01*
X169309525Y-145517857D01*
X169238096Y-145517857D01*
X169190477Y-145541667D01*
X169166668Y-145589286D01*
X169166668Y-145851190D01*
X169166668Y-145589286D02*
X169142858Y-145541667D01*
X169095239Y-145517857D01*
X169023811Y-145517857D01*
X168976191Y-145541667D01*
X168952382Y-145589286D01*
X168952382Y-145851190D01*
X168500001Y-145851190D02*
X168500001Y-145589286D01*
X168523810Y-145541667D01*
X168571429Y-145517857D01*
X168666667Y-145517857D01*
X168714286Y-145541667D01*
X168500001Y-145827381D02*
X168547620Y-145851190D01*
X168666667Y-145851190D01*
X168714286Y-145827381D01*
X168738096Y-145779762D01*
X168738096Y-145732143D01*
X168714286Y-145684524D01*
X168666667Y-145660714D01*
X168547620Y-145660714D01*
X168500001Y-145636905D01*
X168333334Y-145517857D02*
X168142858Y-145517857D01*
X168261905Y-145351190D02*
X168261905Y-145779762D01*
X168238096Y-145827381D01*
X168190477Y-145851190D01*
X168142858Y-145851190D01*
X167976191Y-145851190D02*
X167976191Y-145517857D01*
X167976191Y-145351190D02*
X168000001Y-145375000D01*
X167976191Y-145398810D01*
X167952382Y-145375000D01*
X167976191Y-145351190D01*
X167976191Y-145398810D01*
X167666668Y-145851190D02*
X167714287Y-145827381D01*
X167738096Y-145803571D01*
X167761906Y-145755952D01*
X167761906Y-145613095D01*
X167738096Y-145565476D01*
X167714287Y-145541667D01*
X167666668Y-145517857D01*
X167595239Y-145517857D01*
X167547620Y-145541667D01*
X167523811Y-145565476D01*
X167500001Y-145613095D01*
X167500001Y-145755952D01*
X167523811Y-145803571D01*
X167547620Y-145827381D01*
X167595239Y-145851190D01*
X167666668Y-145851190D01*
X167285715Y-145517857D02*
X167285715Y-145851190D01*
X167285715Y-145565476D02*
X167261906Y-145541667D01*
X167214287Y-145517857D01*
X167142858Y-145517857D01*
X167095239Y-145541667D01*
X167071430Y-145589286D01*
X167071430Y-145851190D01*
X166452382Y-145851190D02*
X166452382Y-145517857D01*
X166452382Y-145351190D02*
X166476192Y-145375000D01*
X166452382Y-145398810D01*
X166428573Y-145375000D01*
X166452382Y-145351190D01*
X166452382Y-145398810D01*
X166238097Y-145827381D02*
X166190478Y-145851190D01*
X166095240Y-145851190D01*
X166047621Y-145827381D01*
X166023811Y-145779762D01*
X166023811Y-145755952D01*
X166047621Y-145708333D01*
X166095240Y-145684524D01*
X166166668Y-145684524D01*
X166214287Y-145660714D01*
X166238097Y-145613095D01*
X166238097Y-145589286D01*
X166214287Y-145541667D01*
X166166668Y-145517857D01*
X166095240Y-145517857D01*
X166047621Y-145541667D01*
X165214288Y-145851190D02*
X165214288Y-145589286D01*
X165238097Y-145541667D01*
X165285716Y-145517857D01*
X165380954Y-145517857D01*
X165428573Y-145541667D01*
X165214288Y-145827381D02*
X165261907Y-145851190D01*
X165380954Y-145851190D01*
X165428573Y-145827381D01*
X165452383Y-145779762D01*
X165452383Y-145732143D01*
X165428573Y-145684524D01*
X165380954Y-145660714D01*
X165261907Y-145660714D01*
X165214288Y-145636905D01*
X165023811Y-145517857D02*
X164904764Y-145851190D01*
X164785716Y-145517857D01*
X164380955Y-145851190D02*
X164380955Y-145589286D01*
X164404764Y-145541667D01*
X164452383Y-145517857D01*
X164547621Y-145517857D01*
X164595240Y-145541667D01*
X164380955Y-145827381D02*
X164428574Y-145851190D01*
X164547621Y-145851190D01*
X164595240Y-145827381D01*
X164619050Y-145779762D01*
X164619050Y-145732143D01*
X164595240Y-145684524D01*
X164547621Y-145660714D01*
X164428574Y-145660714D01*
X164380955Y-145636905D01*
X164142859Y-145851190D02*
X164142859Y-145517857D01*
X164142859Y-145351190D02*
X164166669Y-145375000D01*
X164142859Y-145398810D01*
X164119050Y-145375000D01*
X164142859Y-145351190D01*
X164142859Y-145398810D01*
X163833336Y-145851190D02*
X163880955Y-145827381D01*
X163904764Y-145779762D01*
X163904764Y-145351190D01*
X163428574Y-145851190D02*
X163428574Y-145589286D01*
X163452383Y-145541667D01*
X163500002Y-145517857D01*
X163595240Y-145517857D01*
X163642859Y-145541667D01*
X163428574Y-145827381D02*
X163476193Y-145851190D01*
X163595240Y-145851190D01*
X163642859Y-145827381D01*
X163666669Y-145779762D01*
X163666669Y-145732143D01*
X163642859Y-145684524D01*
X163595240Y-145660714D01*
X163476193Y-145660714D01*
X163428574Y-145636905D01*
X163190478Y-145851190D02*
X163190478Y-145351190D01*
X163190478Y-145541667D02*
X163142859Y-145517857D01*
X163047621Y-145517857D01*
X163000002Y-145541667D01*
X162976193Y-145565476D01*
X162952383Y-145613095D01*
X162952383Y-145755952D01*
X162976193Y-145803571D01*
X163000002Y-145827381D01*
X163047621Y-145851190D01*
X163142859Y-145851190D01*
X163190478Y-145827381D01*
X162666669Y-145851190D02*
X162714288Y-145827381D01*
X162738097Y-145779762D01*
X162738097Y-145351190D01*
X162285716Y-145827381D02*
X162333335Y-145851190D01*
X162428573Y-145851190D01*
X162476192Y-145827381D01*
X162500002Y-145779762D01*
X162500002Y-145589286D01*
X162476192Y-145541667D01*
X162428573Y-145517857D01*
X162333335Y-145517857D01*
X162285716Y-145541667D01*
X162261907Y-145589286D01*
X162261907Y-145636905D01*
X162500002Y-145684524D01*
X173880952Y-146726190D02*
X173880952Y-146392857D01*
X173880952Y-146226190D02*
X173904762Y-146250000D01*
X173880952Y-146273810D01*
X173857143Y-146250000D01*
X173880952Y-146226190D01*
X173880952Y-146273810D01*
X173642857Y-146392857D02*
X173642857Y-146726190D01*
X173642857Y-146440476D02*
X173619048Y-146416667D01*
X173571429Y-146392857D01*
X173500000Y-146392857D01*
X173452381Y-146416667D01*
X173428572Y-146464286D01*
X173428572Y-146726190D01*
X172547620Y-146250000D02*
X172595239Y-146226190D01*
X172666667Y-146226190D01*
X172738096Y-146250000D01*
X172785715Y-146297619D01*
X172809524Y-146345238D01*
X172833334Y-146440476D01*
X172833334Y-146511905D01*
X172809524Y-146607143D01*
X172785715Y-146654762D01*
X172738096Y-146702381D01*
X172666667Y-146726190D01*
X172619048Y-146726190D01*
X172547620Y-146702381D01*
X172523810Y-146678571D01*
X172523810Y-146511905D01*
X172619048Y-146511905D01*
X172238096Y-146726190D02*
X172285715Y-146702381D01*
X172309524Y-146678571D01*
X172333334Y-146630952D01*
X172333334Y-146488095D01*
X172309524Y-146440476D01*
X172285715Y-146416667D01*
X172238096Y-146392857D01*
X172166667Y-146392857D01*
X172119048Y-146416667D01*
X172095239Y-146440476D01*
X172071429Y-146488095D01*
X172071429Y-146630952D01*
X172095239Y-146678571D01*
X172119048Y-146702381D01*
X172166667Y-146726190D01*
X172238096Y-146726190D01*
X171785715Y-146726190D02*
X171833334Y-146702381D01*
X171857143Y-146678571D01*
X171880953Y-146630952D01*
X171880953Y-146488095D01*
X171857143Y-146440476D01*
X171833334Y-146416667D01*
X171785715Y-146392857D01*
X171714286Y-146392857D01*
X171666667Y-146416667D01*
X171642858Y-146440476D01*
X171619048Y-146488095D01*
X171619048Y-146630952D01*
X171642858Y-146678571D01*
X171666667Y-146702381D01*
X171714286Y-146726190D01*
X171785715Y-146726190D01*
X171190477Y-146392857D02*
X171190477Y-146797619D01*
X171214286Y-146845238D01*
X171238096Y-146869048D01*
X171285715Y-146892857D01*
X171357143Y-146892857D01*
X171404762Y-146869048D01*
X171190477Y-146702381D02*
X171238096Y-146726190D01*
X171333334Y-146726190D01*
X171380953Y-146702381D01*
X171404762Y-146678571D01*
X171428572Y-146630952D01*
X171428572Y-146488095D01*
X171404762Y-146440476D01*
X171380953Y-146416667D01*
X171333334Y-146392857D01*
X171238096Y-146392857D01*
X171190477Y-146416667D01*
X170880953Y-146726190D02*
X170928572Y-146702381D01*
X170952381Y-146654762D01*
X170952381Y-146226190D01*
X170500000Y-146702381D02*
X170547619Y-146726190D01*
X170642857Y-146726190D01*
X170690476Y-146702381D01*
X170714286Y-146654762D01*
X170714286Y-146464286D01*
X170690476Y-146416667D01*
X170642857Y-146392857D01*
X170547619Y-146392857D01*
X170500000Y-146416667D01*
X170476191Y-146464286D01*
X170476191Y-146511905D01*
X170714286Y-146559524D01*
X169880953Y-146726190D02*
X169880953Y-146226190D01*
X169761906Y-146226190D01*
X169690477Y-146250000D01*
X169642858Y-146297619D01*
X169619049Y-146345238D01*
X169595239Y-146440476D01*
X169595239Y-146511905D01*
X169619049Y-146607143D01*
X169642858Y-146654762D01*
X169690477Y-146702381D01*
X169761906Y-146726190D01*
X169880953Y-146726190D01*
X169380953Y-146726190D02*
X169380953Y-146392857D01*
X169380953Y-146488095D02*
X169357144Y-146440476D01*
X169333334Y-146416667D01*
X169285715Y-146392857D01*
X169238096Y-146392857D01*
X169071429Y-146726190D02*
X169071429Y-146392857D01*
X169071429Y-146226190D02*
X169095239Y-146250000D01*
X169071429Y-146273810D01*
X169047620Y-146250000D01*
X169071429Y-146226190D01*
X169071429Y-146273810D01*
X168880953Y-146392857D02*
X168761906Y-146726190D01*
X168642858Y-146392857D01*
X168261906Y-146702381D02*
X168309525Y-146726190D01*
X168404763Y-146726190D01*
X168452382Y-146702381D01*
X168476192Y-146654762D01*
X168476192Y-146464286D01*
X168452382Y-146416667D01*
X168404763Y-146392857D01*
X168309525Y-146392857D01*
X168261906Y-146416667D01*
X168238097Y-146464286D01*
X168238097Y-146511905D01*
X168476192Y-146559524D01*
D12*
X146450001Y-113500000D02*
G75*
G03X146450001Y-113500000I-24110164J0D01*
G01*
X159863027Y-119881912D02*
G75*
G03X159863027Y-119881912I-24110163J0D01*
G01*
X173860164Y-114910163D02*
G75*
G03X173860164Y-114910163I-24110164J0D01*
G01*
X180242075Y-101497136D02*
G75*
G03X180242075Y-101497136I-24110163J0D01*
G01*
X175270327Y-87500000D02*
G75*
G03X175270327Y-87500000I-24110164J0D01*
G01*
X161857299Y-81118088D02*
G75*
G03X161857299Y-81118088I-24110163J0D01*
G01*
X147860164Y-86089837D02*
G75*
G03X147860164Y-86089837I-24110164J0D01*
G01*
X141478251Y-99502864D02*
G75*
G03X141478251Y-99502864I-24110163J0D01*
G01*
M02*
