G04 #@! TF.FileFunction,Legend,Top*
%FSLAX46Y46*%
G04 Gerber Fmt 4.6, Leading zero omitted, Abs format (unit mm)*
G04 Created by KiCad (PCBNEW 4.0.1-stable) date Wednesday, August 10, 2016 'PMt' 07:00:37 PM*
%MOMM*%
G01*
G04 APERTURE LIST*
%ADD10C,0.100000*%
%ADD11C,0.200000*%
%ADD12C,0.300000*%
%ADD13C,0.150000*%
G04 APERTURE END LIST*
D10*
D11*
X206548571Y-108862856D02*
X206548571Y-109577142D01*
X207262857Y-109648571D01*
X207191429Y-109577142D01*
X207120000Y-109434285D01*
X207120000Y-109077142D01*
X207191429Y-108934285D01*
X207262857Y-108862856D01*
X207405714Y-108791428D01*
X207762857Y-108791428D01*
X207905714Y-108862856D01*
X207977143Y-108934285D01*
X208048571Y-109077142D01*
X208048571Y-109434285D01*
X207977143Y-109577142D01*
X207905714Y-109648571D01*
X208920000Y-108827143D02*
X208848571Y-108970000D01*
X208848571Y-109184286D01*
X208920000Y-109398571D01*
X209062857Y-109541429D01*
X209205714Y-109612857D01*
X209491429Y-109684286D01*
X209705714Y-109684286D01*
X209991429Y-109612857D01*
X210134286Y-109541429D01*
X210277143Y-109398571D01*
X210348571Y-109184286D01*
X210348571Y-109041429D01*
X210277143Y-108827143D01*
X210205714Y-108755714D01*
X209705714Y-108755714D01*
X209705714Y-109041429D01*
X211148571Y-109362857D02*
X211148571Y-109077143D01*
X211220000Y-108934285D01*
X211362857Y-108791428D01*
X211648571Y-108720000D01*
X212148571Y-108720000D01*
X212434286Y-108791428D01*
X212577143Y-108934285D01*
X212648571Y-109077143D01*
X212648571Y-109362857D01*
X212577143Y-109505714D01*
X212434286Y-109648571D01*
X212148571Y-109720000D01*
X211648571Y-109720000D01*
X211362857Y-109648571D01*
X211220000Y-109505714D01*
X211148571Y-109362857D01*
X213520000Y-108827143D02*
X213448571Y-108970000D01*
X213448571Y-109184286D01*
X213520000Y-109398571D01*
X213662857Y-109541429D01*
X213805714Y-109612857D01*
X214091429Y-109684286D01*
X214305714Y-109684286D01*
X214591429Y-109612857D01*
X214734286Y-109541429D01*
X214877143Y-109398571D01*
X214948571Y-109184286D01*
X214948571Y-109041429D01*
X214877143Y-108827143D01*
X214805714Y-108755714D01*
X214305714Y-108755714D01*
X214305714Y-109041429D01*
D12*
X218547143Y-108814571D02*
X218547143Y-107671714D01*
X219118571Y-108243143D02*
X217975714Y-108243143D01*
X218547143Y-100100286D02*
X218547143Y-98957429D01*
D13*
X208280000Y-112776000D02*
X215900000Y-112776000D01*
X208280000Y-110236000D02*
X215900000Y-110236000D01*
X205460000Y-109956000D02*
X207010000Y-109956000D01*
X215900000Y-112776000D02*
X215900000Y-110236000D01*
X208280000Y-110236000D02*
X208280000Y-112776000D01*
X207010000Y-113056000D02*
X205460000Y-113056000D01*
X205460000Y-113056000D02*
X205460000Y-109956000D01*
X196504000Y-111901000D02*
X197704000Y-111901000D01*
X197704000Y-113651000D02*
X196504000Y-113651000D01*
X197620000Y-97194000D02*
X196620000Y-97194000D01*
X196620000Y-98894000D02*
X197620000Y-98894000D01*
X205652000Y-100830000D02*
X205652000Y-101830000D01*
X207352000Y-101830000D02*
X207352000Y-100830000D01*
X195479000Y-106875000D02*
X195679000Y-106875000D01*
X195479000Y-102225000D02*
X195679000Y-102225000D01*
X198729000Y-102225000D02*
X198529000Y-102225000D01*
X198729000Y-106875000D02*
X198529000Y-106875000D01*
X195479000Y-106875000D02*
X195479000Y-102225000D01*
X198729000Y-106875000D02*
X198729000Y-102225000D01*
X195679000Y-106875000D02*
X195679000Y-108225000D01*
X205652000Y-105910000D02*
X205652000Y-106910000D01*
X207352000Y-106910000D02*
X207352000Y-105910000D01*
X208954000Y-103370000D02*
X208954000Y-104370000D01*
X210654000Y-104370000D02*
X210654000Y-103370000D01*
X201922000Y-98894000D02*
X202922000Y-98894000D01*
X202922000Y-97194000D02*
X201922000Y-97194000D01*
X201684000Y-110324000D02*
X202684000Y-110324000D01*
X202684000Y-108624000D02*
X201684000Y-108624000D01*
X219710000Y-103886000D02*
X219710000Y-106426000D01*
X219990000Y-101066000D02*
X219990000Y-102616000D01*
X219710000Y-103886000D02*
X217170000Y-103886000D01*
X216890000Y-102616000D02*
X216890000Y-101066000D01*
X216890000Y-101066000D02*
X219990000Y-101066000D01*
X217170000Y-103886000D02*
X217170000Y-106426000D01*
X217170000Y-106426000D02*
X219710000Y-106426000D01*
X210032000Y-98439000D02*
X211232000Y-98439000D01*
X211232000Y-100189000D02*
X210032000Y-100189000D01*
X213080000Y-104281000D02*
X214280000Y-104281000D01*
X214280000Y-106031000D02*
X213080000Y-106031000D01*
X213268000Y-101741000D02*
X214468000Y-101741000D01*
X214468000Y-103491000D02*
X213268000Y-103491000D01*
X201650000Y-111901000D02*
X202850000Y-111901000D01*
X202850000Y-113651000D02*
X201650000Y-113651000D01*
X203859000Y-102211000D02*
X203609000Y-102211000D01*
X203859000Y-105561000D02*
X203609000Y-105561000D01*
X200509000Y-105561000D02*
X200759000Y-105561000D01*
X200509000Y-102211000D02*
X200759000Y-102211000D01*
X203859000Y-102211000D02*
X203859000Y-105561000D01*
X200509000Y-102211000D02*
X200509000Y-105561000D01*
X203609000Y-102211000D02*
X203609000Y-100961000D01*
X210081905Y-114498381D02*
X210081905Y-113498381D01*
X210462858Y-113498381D01*
X210558096Y-113546000D01*
X210605715Y-113593619D01*
X210653334Y-113688857D01*
X210653334Y-113831714D01*
X210605715Y-113926952D01*
X210558096Y-113974571D01*
X210462858Y-114022190D01*
X210081905Y-114022190D01*
X211605715Y-114498381D02*
X211034286Y-114498381D01*
X211320000Y-114498381D02*
X211320000Y-113498381D01*
X211224762Y-113641238D01*
X211129524Y-113736476D01*
X211034286Y-113784095D01*
X197003334Y-111704381D02*
X196670000Y-111228190D01*
X196431905Y-111704381D02*
X196431905Y-110704381D01*
X196812858Y-110704381D01*
X196908096Y-110752000D01*
X196955715Y-110799619D01*
X197003334Y-110894857D01*
X197003334Y-111037714D01*
X196955715Y-111132952D01*
X196908096Y-111180571D01*
X196812858Y-111228190D01*
X196431905Y-111228190D01*
X197908096Y-110704381D02*
X197431905Y-110704381D01*
X197384286Y-111180571D01*
X197431905Y-111132952D01*
X197527143Y-111085333D01*
X197765239Y-111085333D01*
X197860477Y-111132952D01*
X197908096Y-111180571D01*
X197955715Y-111275810D01*
X197955715Y-111513905D01*
X197908096Y-111609143D01*
X197860477Y-111656762D01*
X197765239Y-111704381D01*
X197527143Y-111704381D01*
X197431905Y-111656762D01*
X197384286Y-111609143D01*
X196461143Y-100179143D02*
X196413524Y-100226762D01*
X196270667Y-100274381D01*
X196175429Y-100274381D01*
X196032571Y-100226762D01*
X195937333Y-100131524D01*
X195889714Y-100036286D01*
X195842095Y-99845810D01*
X195842095Y-99702952D01*
X195889714Y-99512476D01*
X195937333Y-99417238D01*
X196032571Y-99322000D01*
X196175429Y-99274381D01*
X196270667Y-99274381D01*
X196413524Y-99322000D01*
X196461143Y-99369619D01*
X197413524Y-100274381D02*
X196842095Y-100274381D01*
X197127809Y-100274381D02*
X197127809Y-99274381D01*
X197032571Y-99417238D01*
X196937333Y-99512476D01*
X196842095Y-99560095D01*
X198365905Y-100274381D02*
X197794476Y-100274381D01*
X198080190Y-100274381D02*
X198080190Y-99274381D01*
X197984952Y-99417238D01*
X197889714Y-99512476D01*
X197794476Y-99560095D01*
X208637143Y-101750666D02*
X208684762Y-101798285D01*
X208732381Y-101941142D01*
X208732381Y-102036380D01*
X208684762Y-102179238D01*
X208589524Y-102274476D01*
X208494286Y-102322095D01*
X208303810Y-102369714D01*
X208160952Y-102369714D01*
X207970476Y-102322095D01*
X207875238Y-102274476D01*
X207780000Y-102179238D01*
X207732381Y-102036380D01*
X207732381Y-101941142D01*
X207780000Y-101798285D01*
X207827619Y-101750666D01*
X207732381Y-101417333D02*
X207732381Y-100798285D01*
X208113333Y-101131619D01*
X208113333Y-100988761D01*
X208160952Y-100893523D01*
X208208571Y-100845904D01*
X208303810Y-100798285D01*
X208541905Y-100798285D01*
X208637143Y-100845904D01*
X208684762Y-100893523D01*
X208732381Y-100988761D01*
X208732381Y-101274476D01*
X208684762Y-101369714D01*
X208637143Y-101417333D01*
X194057381Y-105467905D02*
X194866905Y-105467905D01*
X194962143Y-105420286D01*
X195009762Y-105372667D01*
X195057381Y-105277429D01*
X195057381Y-105086952D01*
X195009762Y-104991714D01*
X194962143Y-104944095D01*
X194866905Y-104896476D01*
X194057381Y-104896476D01*
X194057381Y-104515524D02*
X194057381Y-103896476D01*
X194438333Y-104229810D01*
X194438333Y-104086952D01*
X194485952Y-103991714D01*
X194533571Y-103944095D01*
X194628810Y-103896476D01*
X194866905Y-103896476D01*
X194962143Y-103944095D01*
X195009762Y-103991714D01*
X195057381Y-104086952D01*
X195057381Y-104372667D01*
X195009762Y-104467905D01*
X194962143Y-104515524D01*
X208637143Y-106592666D02*
X208684762Y-106640285D01*
X208732381Y-106783142D01*
X208732381Y-106878380D01*
X208684762Y-107021238D01*
X208589524Y-107116476D01*
X208494286Y-107164095D01*
X208303810Y-107211714D01*
X208160952Y-107211714D01*
X207970476Y-107164095D01*
X207875238Y-107116476D01*
X207780000Y-107021238D01*
X207732381Y-106878380D01*
X207732381Y-106783142D01*
X207780000Y-106640285D01*
X207827619Y-106592666D01*
X208732381Y-105640285D02*
X208732381Y-106211714D01*
X208732381Y-105926000D02*
X207732381Y-105926000D01*
X207875238Y-106021238D01*
X207970476Y-106116476D01*
X208018095Y-106211714D01*
X211939143Y-104036666D02*
X211986762Y-104084285D01*
X212034381Y-104227142D01*
X212034381Y-104322380D01*
X211986762Y-104465238D01*
X211891524Y-104560476D01*
X211796286Y-104608095D01*
X211605810Y-104655714D01*
X211462952Y-104655714D01*
X211272476Y-104608095D01*
X211177238Y-104560476D01*
X211082000Y-104465238D01*
X211034381Y-104322380D01*
X211034381Y-104227142D01*
X211082000Y-104084285D01*
X211129619Y-104036666D01*
X211129619Y-103655714D02*
X211082000Y-103608095D01*
X211034381Y-103512857D01*
X211034381Y-103274761D01*
X211082000Y-103179523D01*
X211129619Y-103131904D01*
X211224857Y-103084285D01*
X211320095Y-103084285D01*
X211462952Y-103131904D01*
X212034381Y-103703333D01*
X212034381Y-103084285D01*
X202271334Y-100179143D02*
X202223715Y-100226762D01*
X202080858Y-100274381D01*
X201985620Y-100274381D01*
X201842762Y-100226762D01*
X201747524Y-100131524D01*
X201699905Y-100036286D01*
X201652286Y-99845810D01*
X201652286Y-99702952D01*
X201699905Y-99512476D01*
X201747524Y-99417238D01*
X201842762Y-99322000D01*
X201985620Y-99274381D01*
X202080858Y-99274381D01*
X202223715Y-99322000D01*
X202271334Y-99369619D01*
X203128477Y-99274381D02*
X202938000Y-99274381D01*
X202842762Y-99322000D01*
X202795143Y-99369619D01*
X202699905Y-99512476D01*
X202652286Y-99702952D01*
X202652286Y-100083905D01*
X202699905Y-100179143D01*
X202747524Y-100226762D01*
X202842762Y-100274381D01*
X203033239Y-100274381D01*
X203128477Y-100226762D01*
X203176096Y-100179143D01*
X203223715Y-100083905D01*
X203223715Y-99845810D01*
X203176096Y-99750571D01*
X203128477Y-99702952D01*
X203033239Y-99655333D01*
X202842762Y-99655333D01*
X202747524Y-99702952D01*
X202699905Y-99750571D01*
X202652286Y-99845810D01*
X202017334Y-108307143D02*
X201969715Y-108354762D01*
X201826858Y-108402381D01*
X201731620Y-108402381D01*
X201588762Y-108354762D01*
X201493524Y-108259524D01*
X201445905Y-108164286D01*
X201398286Y-107973810D01*
X201398286Y-107830952D01*
X201445905Y-107640476D01*
X201493524Y-107545238D01*
X201588762Y-107450000D01*
X201731620Y-107402381D01*
X201826858Y-107402381D01*
X201969715Y-107450000D01*
X202017334Y-107497619D01*
X202588762Y-107830952D02*
X202493524Y-107783333D01*
X202445905Y-107735714D01*
X202398286Y-107640476D01*
X202398286Y-107592857D01*
X202445905Y-107497619D01*
X202493524Y-107450000D01*
X202588762Y-107402381D01*
X202779239Y-107402381D01*
X202874477Y-107450000D01*
X202922096Y-107497619D01*
X202969715Y-107592857D01*
X202969715Y-107640476D01*
X202922096Y-107735714D01*
X202874477Y-107783333D01*
X202779239Y-107830952D01*
X202588762Y-107830952D01*
X202493524Y-107878571D01*
X202445905Y-107926190D01*
X202398286Y-108021429D01*
X202398286Y-108211905D01*
X202445905Y-108307143D01*
X202493524Y-108354762D01*
X202588762Y-108402381D01*
X202779239Y-108402381D01*
X202874477Y-108354762D01*
X202922096Y-108307143D01*
X202969715Y-108211905D01*
X202969715Y-108021429D01*
X202922096Y-107926190D01*
X202874477Y-107878571D01*
X202779239Y-107830952D01*
X221686381Y-103100095D02*
X220686381Y-103100095D01*
X220686381Y-102719142D01*
X220734000Y-102623904D01*
X220781619Y-102576285D01*
X220876857Y-102528666D01*
X221019714Y-102528666D01*
X221114952Y-102576285D01*
X221162571Y-102623904D01*
X221210190Y-102719142D01*
X221210190Y-103100095D01*
X220781619Y-102147714D02*
X220734000Y-102100095D01*
X220686381Y-102004857D01*
X220686381Y-101766761D01*
X220734000Y-101671523D01*
X220781619Y-101623904D01*
X220876857Y-101576285D01*
X220972095Y-101576285D01*
X221114952Y-101623904D01*
X221686381Y-102195333D01*
X221686381Y-101576285D01*
X210465334Y-101544381D02*
X210132000Y-101068190D01*
X209893905Y-101544381D02*
X209893905Y-100544381D01*
X210274858Y-100544381D01*
X210370096Y-100592000D01*
X210417715Y-100639619D01*
X210465334Y-100734857D01*
X210465334Y-100877714D01*
X210417715Y-100972952D01*
X210370096Y-101020571D01*
X210274858Y-101068190D01*
X209893905Y-101068190D01*
X211417715Y-101544381D02*
X210846286Y-101544381D01*
X211132000Y-101544381D02*
X211132000Y-100544381D01*
X211036762Y-100687238D01*
X210941524Y-100782476D01*
X210846286Y-100830095D01*
X213579334Y-107386381D02*
X213246000Y-106910190D01*
X213007905Y-107386381D02*
X213007905Y-106386381D01*
X213388858Y-106386381D01*
X213484096Y-106434000D01*
X213531715Y-106481619D01*
X213579334Y-106576857D01*
X213579334Y-106719714D01*
X213531715Y-106814952D01*
X213484096Y-106862571D01*
X213388858Y-106910190D01*
X213007905Y-106910190D01*
X213960286Y-106481619D02*
X214007905Y-106434000D01*
X214103143Y-106386381D01*
X214341239Y-106386381D01*
X214436477Y-106434000D01*
X214484096Y-106481619D01*
X214531715Y-106576857D01*
X214531715Y-106672095D01*
X214484096Y-106814952D01*
X213912667Y-107386381D01*
X214531715Y-107386381D01*
X213701334Y-101290381D02*
X213368000Y-100814190D01*
X213129905Y-101290381D02*
X213129905Y-100290381D01*
X213510858Y-100290381D01*
X213606096Y-100338000D01*
X213653715Y-100385619D01*
X213701334Y-100480857D01*
X213701334Y-100623714D01*
X213653715Y-100718952D01*
X213606096Y-100766571D01*
X213510858Y-100814190D01*
X213129905Y-100814190D01*
X214034667Y-100290381D02*
X214653715Y-100290381D01*
X214320381Y-100671333D01*
X214463239Y-100671333D01*
X214558477Y-100718952D01*
X214606096Y-100766571D01*
X214653715Y-100861810D01*
X214653715Y-101099905D01*
X214606096Y-101195143D01*
X214558477Y-101242762D01*
X214463239Y-101290381D01*
X214177524Y-101290381D01*
X214082286Y-101242762D01*
X214034667Y-101195143D01*
X202083334Y-111704381D02*
X201750000Y-111228190D01*
X201511905Y-111704381D02*
X201511905Y-110704381D01*
X201892858Y-110704381D01*
X201988096Y-110752000D01*
X202035715Y-110799619D01*
X202083334Y-110894857D01*
X202083334Y-111037714D01*
X202035715Y-111132952D01*
X201988096Y-111180571D01*
X201892858Y-111228190D01*
X201511905Y-111228190D01*
X202940477Y-111037714D02*
X202940477Y-111704381D01*
X202702381Y-110656762D02*
X202464286Y-111371048D01*
X203083334Y-111371048D01*
X223797905Y-102424381D02*
X223797905Y-101424381D01*
X224178858Y-101424381D01*
X224274096Y-101472000D01*
X224321715Y-101519619D01*
X224369334Y-101614857D01*
X224369334Y-101757714D01*
X224321715Y-101852952D01*
X224274096Y-101900571D01*
X224178858Y-101948190D01*
X223797905Y-101948190D01*
X224702667Y-101424381D02*
X225321715Y-101424381D01*
X224988381Y-101805333D01*
X225131239Y-101805333D01*
X225226477Y-101852952D01*
X225274096Y-101900571D01*
X225321715Y-101995810D01*
X225321715Y-102233905D01*
X225274096Y-102329143D01*
X225226477Y-102376762D01*
X225131239Y-102424381D01*
X224845524Y-102424381D01*
X224750286Y-102376762D01*
X224702667Y-102329143D01*
X189507905Y-102424381D02*
X189507905Y-101424381D01*
X189888858Y-101424381D01*
X189984096Y-101472000D01*
X190031715Y-101519619D01*
X190079334Y-101614857D01*
X190079334Y-101757714D01*
X190031715Y-101852952D01*
X189984096Y-101900571D01*
X189888858Y-101948190D01*
X189507905Y-101948190D01*
X190936477Y-101757714D02*
X190936477Y-102424381D01*
X190698381Y-101376762D02*
X190460286Y-102091048D01*
X191079334Y-102091048D01*
X204236381Y-104647905D02*
X205045905Y-104647905D01*
X205141143Y-104600286D01*
X205188762Y-104552667D01*
X205236381Y-104457429D01*
X205236381Y-104266952D01*
X205188762Y-104171714D01*
X205141143Y-104124095D01*
X205045905Y-104076476D01*
X204236381Y-104076476D01*
X205236381Y-103076476D02*
X205236381Y-103647905D01*
X205236381Y-103362191D02*
X204236381Y-103362191D01*
X204379238Y-103457429D01*
X204474476Y-103552667D01*
X204522095Y-103647905D01*
M02*
