M48
;DRILL file {KiCad (5.0.0)} date 10/14/18 16:13:12
;FORMAT={-:-/ absolute / inch / decimal}
FMAT,2
INCH,TZ
T1C0.0118
T2C0.0157
T3C0.0236
T4C0.0256
T5C0.0276
T6C0.0354
T7C0.0394
T8C0.0394
T9C0.0472
T10C0.0630
T11C0.0701
T12C0.0906
T13C0.1378
%
G90
G05
M72
T1
X1.5138Y-1.2805
X1.5138Y-1.3396
X1.5433Y-1.31
X1.5728Y-1.2805
X1.5728Y-1.3396
X0.5345Y-4.6686
X0.5345Y-4.7276
X0.564Y-4.6981
X0.5935Y-4.6686
X0.5935Y-4.7276
T2
X0.07Y-1.9278
X0.07Y-2.03
X0.08Y-2.21
X0.124Y-2.4213
X0.14Y-0.505
X0.1483Y-2.5889
X0.16Y-2.5
X0.1611Y-2.095
X0.186Y-2.0736
X0.2126Y-2.4193
X0.2169Y-4.5684
X0.2171Y-2.592
X0.2421Y-3.752
X0.365Y-3.715
X0.37Y-1.055
X0.3803Y-2.5607
X0.385Y-3.745
X0.4035Y-2.4173
X0.411Y-2.5748
X0.4266Y-1.9254
X0.4431Y-3.0199
X0.4449Y-4.8239
X0.4457Y-2.5898
X0.4524Y-2.4843
X0.4567Y-4.608
X0.4648Y-3.4808
X0.4701Y-4.6536
X0.4772Y-2.5091
X0.49Y-0.61
X0.4934Y-4.9115
X0.4969Y-3.7496
X0.4977Y-3.1374
X0.498Y-2.3504
X0.5Y-1.485
X0.5002Y-3.0102
X0.5016Y-2.5335
X0.5102Y-3.1002
X0.515Y-3.815
X0.5181Y-1.9293
X0.56Y-2.395
X0.5702Y-2.9902
X0.5702Y-3.1202
X0.5925Y-0.8
X0.6125Y-2.505
X0.62Y-1.985
X0.625Y-3.3825
X0.625Y-3.48
X0.6323Y-1.9283
X0.68Y-0.8625
X0.698Y-3.3427
X0.7042Y-1.6002
X0.7202Y-3.3102
X0.7286Y-2.0943
X0.73Y-3.43
X0.7302Y-3.2302
X0.765Y-2.08
X0.78Y-3.805
X0.785Y-3.435
X0.7886Y-2.4262
X0.84Y-3.81
X0.8425Y-2.4209
X0.8567Y-4.524
X0.875Y-3.795
X0.8917Y-2.4764
X0.9Y-3.765
X0.94Y-3.695
X0.9462Y-1.878
X0.9558Y-3.6554
X0.98Y-3.53
X0.9843Y-2.4154
X0.99Y-1.09
X0.996Y-3.5783
X1.005Y-2.48
X1.025Y-0.695
X1.0397Y-4.5296
X1.0402Y-3.5502
X1.06Y-1.555
X1.06Y-1.61
X1.0802Y-3.1102
X1.0902Y-3.5402
X1.1655Y-2.1897
X1.2102Y-3.0902
X1.2468Y-4.371
X1.2602Y-3.4102
X1.2602Y-3.4802
X1.2902Y-3.1302
X1.3402Y-3.5202
X1.3425Y-2.0525
X1.3937Y-0.6614
X1.3947Y-1.1122
X1.41Y-4.92
X1.4102Y-3.6002
X1.42Y-4.55
X1.4213Y-1.1348
X1.4518Y-1.3976
X1.4665Y-1.1486
X1.4802Y-3.4502
X1.4902Y-3.5902
X1.4902Y-3.6302
X1.5102Y-3.5102
X1.5177Y-1.1565
X1.518Y-2.3132
X1.525Y-4.56
X1.575Y-2.45
X1.5846Y-2.1572
X1.623Y-1.5384
X1.6531Y-1.413
X1.69Y-3.445
X1.7423Y-1.3671
X1.7602Y-3.6002
X1.7623Y-4.9113
X1.77Y-2.27
X1.7709Y-3.4089
X1.7902Y-4.2502
X1.7953Y-1.7913
X1.8Y-1.0375
X1.8102Y-4.0302
X1.8102Y-4.1302
X1.8102Y-4.2102
X1.825Y-2.27
X1.8302Y-3.7702
X1.8327Y-1.7913
X1.85Y-3.15
X1.85Y-3.2
X1.8693Y-1.4114
X1.874Y-1.7913
X1.9688Y-4.5968
X1.9702Y-4.3102
X1.9882Y-0.0945
X2.0039Y-0.374
X2.02Y-3.64
X2.0512Y-0.1732
X2.07Y-3.795
X2.11Y-3.955
X2.1132Y-3.3692
X2.1719Y-3.4134
X2.2002Y-4.0502
X2.2202Y-4.2202
X2.2202Y-4.3102
X2.2392Y-2.8866
X2.2402Y-4.0502
X2.25Y-4.48
X2.2502Y-4.2902
X2.261Y-0.2524
X2.261Y-0.5122
X2.261Y-0.772
X2.261Y-1.0319
X2.261Y-1.2917
X2.261Y-1.5516
X2.265Y-3.62
X2.318Y-0.368
X2.32Y-2.65
X2.3425Y-0.0945
X2.38Y-4.515
X2.3946Y-3.6292
X2.3955Y-3.9465
X2.42Y-2.7
X2.4252Y-0.2343
X2.4252Y-0.4941
X2.4252Y-0.7539
X2.4252Y-1.0138
X2.4252Y-1.5335
X2.4377Y-3.5141
X2.4409Y-0.0945
X2.4448Y-1.2666
X2.4567Y-1.9173
X2.4567Y-2.185
X2.4602Y-4.1802
X2.4606Y-1.8504
X2.4606Y-2.1142
X2.4657Y-3.9363
X2.47Y-3.36
X2.4702Y-4.2502
X2.4702Y-4.4302
X2.4802Y-4.3902
X2.52Y-2.7
X2.5512Y-0.4409
X2.5512Y-0.6929
X2.5512Y-0.9528
X2.5512Y-1.4764
X2.552Y-3.7514
X2.5522Y-3.6642
X2.5551Y-1.2205
X2.5702Y-4.4402
X2.5811Y-0.1614
X2.5857Y-3.4331
X2.5866Y-0.3232
X2.5866Y-0.5831
X2.5866Y-0.8429
X2.5866Y-1.1028
X2.5866Y-1.3626
X2.5866Y-1.6224
X2.615Y-2.59
X2.67Y-3.985
X2.715Y-3.435
X2.715Y-3.68
X2.7167Y-2.6425
X2.72Y-3.07
X2.735Y-4.15
X2.735Y-4.67
X2.7358Y-0.613
X2.7358Y-0.8728
X2.7358Y-1.1327
X2.7358Y-1.3925
X2.7358Y-1.6524
X2.7366Y-0.3524
X2.74Y-3.54
X2.76Y-2.61
X2.8Y-2.975
X2.81Y-2.9
X2.825Y-3.04
X2.825Y-3.26
X2.825Y-4.1775
X2.83Y-2.68
X2.865Y-1.98
X2.9269Y-3.14
X2.949Y-4.5078
X2.98Y-2.375
X2.98Y-2.54
X2.98Y-2.6378
X2.9842Y-3.2682
X3.01Y-2.03
X3.0144Y-2.6772
X3.035Y-4.185
X3.0402Y-4.2402
X3.0402Y-4.2902
X3.0432Y-2.9652
X3.0498Y-2.5394
X3.0498Y-2.5984
X3.05Y-2.375
X3.065Y-4.7
X3.085Y-3.1
X3.0902Y-4.3102
X3.1Y-2.905
X3.12Y-3.355
X3.125Y-4.695
X3.126Y-0.0945
X3.126Y-0.1654
X3.126Y-0.378
X3.126Y-0.4488
X3.126Y-0.622
X3.126Y-0.689
X3.126Y-0.8976
X3.126Y-0.9685
X3.126Y-1.1535
X3.126Y-1.2283
X3.2075Y-3.945
X3.25Y-4.32
X3.25Y-4.875
X3.2559Y-2.7717
X3.26Y-2.65
X3.285Y-4.085
X3.29Y-4.2025
X3.295Y-3.715
X3.315Y-3.07
X3.3202Y-4.3402
X3.325Y-2.965
X3.325Y-3.805
X3.3425Y-2.563
X3.3757Y-4.2422
X3.38Y-4.1
X3.405Y-2.855
X3.4291Y-0.189
X3.4291Y-0.7087
X3.4331Y-0.6339
X3.4331Y-1.1535
X3.44Y-4.83
X3.455Y-4.525
X3.47Y-4.03
X3.475Y-2.585
X3.475Y-3.855
X3.525Y-3.72
X3.54Y-4.1772
X3.575Y-4.03
X3.575Y-4.545
X3.575Y-4.65
X3.585Y-4.34
X3.605Y-4.72
X3.6075Y-1.66
X3.608Y-1.126
X3.61Y-0.61
X3.6125Y-1.38
X3.6125Y-2.1675
X3.6142Y-0.2165
X3.6142Y-0.7362
X3.615Y-1.9
X3.615Y-3.6625
X3.65Y-3.4675
X3.6575Y-0.1732
X3.6575Y-0.6929
X3.68Y-4.215
X3.685Y-0.2598
X3.685Y-0.7795
X3.7175Y-3.5225
X3.73Y-3.835
X3.7425Y-3.2275
X3.745Y-4.385
X3.755Y-4.035
X3.785Y-3.3075
X3.8445Y-2.995
X3.855Y-4.345
X3.874Y-0.4488
X3.874Y-0.9685
X3.8819Y-0.3071
X3.8819Y-0.8268
X3.9075Y-0.1555
X3.9075Y-0.6752
X3.935Y-3.47
X3.9425Y-3.625
X3.9429Y-3.2244
X3.965Y-3.
X3.985Y-4.1775
X4.0157Y-3.0059
X4.0177Y-3.2008
X4.063Y-0.2598
X4.063Y-0.5512
X4.063Y-0.7795
X4.063Y-1.0709
X4.07Y-3.465
X4.08Y-2.815
X4.14Y-3.445
X4.152Y-1.6058
X4.152Y-1.6808
X4.152Y-1.7558
X4.152Y-1.8308
X4.1825Y-3.3225
X4.305Y-4.685
X4.31Y-4.515
X4.315Y-1.39
X4.398Y-1.666
X4.42Y-1.285
X4.44Y-0.485
X4.44Y-0.5625
X4.4409Y-1.4213
X4.4409Y-1.4606
X4.4409Y-1.5
X4.445Y-0.6375
X4.445Y-0.71
X4.45Y-1.2
X4.46Y-1.01
X4.4632Y-3.9902
X4.48Y-1.89
X4.48Y-1.995
X4.48Y-3.67
X4.502Y-2.4252
X4.55Y-3.635
X4.605Y-3.64
X4.6299Y-1.1791
X4.6378Y-1.2146
X4.64Y-1.84
X4.64Y-3.705
X4.678Y-1.566
X4.6781Y-1.1909
X4.685Y-1.5175
X4.69Y-1.89
X4.6909Y-1.4173
X4.7215Y-4.3228
X4.7244Y-1.0866
X4.785Y-3.315
X4.7874Y-1.8346
X4.7875Y-1.795
X4.7925Y-1.73
X4.8012Y-1.9449
X4.805Y-1.31
X4.8425Y-1.4331
X4.85Y-2.285
X4.854Y-1.888
X4.87Y-3.6375
X4.874Y-1.6752
X4.8741Y-1.5521
X4.895Y-0.855
X4.8996Y-2.4331
X4.9074Y-1.5517
X4.9075Y-1.6752
X4.9409Y-1.8465
X4.9508Y-1.315
X4.9606Y-1.5768
X4.6398Y-4.75
X4.6721Y-4.6721
X4.6721Y-4.8279
X4.75Y-4.6398
X4.75Y-4.8602
X4.8279Y-4.6721
X4.8279Y-4.8279
X4.8602Y-4.75
X0.1398Y-4.75
X0.1721Y-4.6721
X0.1721Y-4.8279
X0.25Y-4.6398
X0.25Y-4.8602
X0.3279Y-4.6721
X0.3279Y-4.8279
X0.3602Y-4.75
X0.1398Y-0.25
X0.1721Y-0.1721
X0.1721Y-0.3279
X0.25Y-0.1398
X0.25Y-0.3602
X0.3279Y-0.1721
X0.3279Y-0.3279
X0.3602Y-0.25
X0.1988Y-2.2644
X0.25Y-2.2289
X0.25Y-2.2998
X0.2756Y-2.2644
X0.3012Y-2.2289
X0.3012Y-2.2998
X0.3524Y-2.2644
X0.7787Y-2.2644
X0.8299Y-2.2289
X0.8299Y-2.2998
X0.8555Y-2.2644
X0.8811Y-2.2289
X0.8811Y-2.2998
X0.9323Y-2.2644
X4.6398Y-0.25
X4.6721Y-0.1721
X4.6721Y-0.3279
X4.75Y-0.1398
X4.75Y-0.3602
X4.8279Y-0.1721
X4.8279Y-0.3279
X4.8602Y-0.25
T3
X0.155Y-3.57
X0.16Y-3.63
X0.34Y-3.57
X0.345Y-3.635
X0.4325Y-4.4325
X0.46Y-3.265
X0.47Y-3.165
X0.6725Y-4.375
X0.6725Y-4.3775
X0.6825Y-3.71
X0.72Y-3.6125
X0.9125Y-3.5625
X0.92Y-3.6125
X1.02Y-4.26
X1.5236Y-1.6506
X1.9814Y-3.4722
X2.0685Y-3.5445
X2.1707Y-3.4725
X2.29Y-2.83
X2.39Y-2.75
X2.39Y-2.91
X2.49Y-2.83
X3.5433Y-0.4134
X3.5433Y-0.9331
X3.6811Y-0.4134
X3.6811Y-0.9331
T4
X3.9846Y-3.828
X3.9846Y-3.878
X4.0346Y-3.828
X4.0346Y-3.878
X4.0846Y-3.828
X4.0846Y-3.878
X4.1346Y-3.828
X4.1346Y-3.878
X4.1846Y-3.828
X4.1846Y-3.878
T6
X4.2209Y-2.7896
X4.2209Y-2.8896
X4.2209Y-2.9896
X4.2209Y-3.0896
X4.3209Y-2.8396
X4.3209Y-2.9396
X4.3209Y-3.0396
X4.3209Y-3.1396
X4.7039Y-3.1136
X4.704Y-2.7155
X4.7638Y-2.8156
X4.7638Y-3.2136
T7
X0.9055Y-4.5512
X1.1742Y-1.0846
X1.605Y-1.805
X1.805Y-1.955
X2.02Y-1.8
X3.2898Y-1.061
X3.3898Y-1.061
X3.4898Y-1.061
X2.7004Y-0.2815
X2.8004Y-0.2815
X2.9004Y-0.2815
X2.539Y-2.1004
X2.639Y-2.1004
X2.739Y-2.1004
X1.149Y-3.8166
X1.149Y-3.9166
X2.539Y-1.8406
X2.639Y-1.8406
X2.739Y-1.8406
X2.3852Y-4.7672
X1.9587Y-2.0965
X1.9587Y-2.1965
X3.2898Y-2.1004
X3.3898Y-2.1004
X3.4898Y-2.1004
X3.2898Y-0.5413
X3.3898Y-0.5413
X3.4898Y-0.5413
X4.3222Y-3.8872
X2.7004Y-1.3209
X2.8004Y-1.3209
X2.9004Y-1.3209
X4.7898Y-3.9492
X4.7898Y-4.0492
X4.8898Y-3.9492
X4.8898Y-4.0492
X3.2898Y-1.8406
X3.3898Y-1.8406
X3.4898Y-1.8406
X2.7004Y-0.5413
X2.8004Y-0.5413
X2.9004Y-0.5413
X2.7004Y-1.061
X2.8004Y-1.061
X2.9004Y-1.061
X1.6772Y-2.3072
X1.7652Y-4.7472
X3.2898Y-1.5807
X3.3898Y-1.5807
X3.4898Y-1.5807
X3.2002Y-3.3282
X2.7004Y-1.5807
X2.8004Y-1.5807
X2.9004Y-1.5807
X3.2898Y-0.8012
X3.3898Y-0.8012
X3.4898Y-0.8012
X3.2898Y-1.3209
X3.3898Y-1.3209
X3.4898Y-1.3209
X3.69Y-4.535
X3.69Y-4.635
X3.79Y-4.535
X3.79Y-4.635
X3.89Y-4.535
X3.89Y-4.635
X2.7004Y-0.8012
X2.8004Y-0.8012
X2.9004Y-0.8012
X3.2898Y-0.2815
X3.3898Y-0.2815
X3.4898Y-0.2815
T8
X4.015Y-4.7599
X4.115Y-4.7599
X4.195Y-4.7599
X4.295Y-4.7599
T9
X3.5702Y-4.9302
X3.6702Y-4.9302
X1.5122Y-0.4902
X1.6122Y-0.4902
T10
X4.4509Y-2.6546
X4.4509Y-3.2746
T11
X1.4083Y-2.8081
X1.4083Y-3.0581
X0.2484Y-0.9715
X0.2484Y-1.2215
X0.2484Y-1.4715
X0.2484Y-1.7215
X0.9774Y-0.2484
X1.2274Y-0.2484
X1.9882Y-4.1455
X1.9882Y-4.3955
X0.2484Y-4.1455
X0.2484Y-4.3955
X0.8283Y-2.8081
X0.8283Y-3.0581
X0.8283Y-0.9715
X0.8283Y-1.2215
X0.8283Y-1.4715
X0.8283Y-1.7215
X0.2484Y-2.8081
X0.2484Y-3.0581
X0.8283Y-4.1455
X0.8283Y-4.3955
X1.4083Y-4.1455
X1.4083Y-4.3955
X1.9882Y-2.8081
X1.9882Y-3.0581
T12
X3.895Y-4.8649
X4.435Y-4.8649
T13
X4.75Y-4.75
X0.25Y-4.75
X0.25Y-0.25
X4.75Y-0.25
T4
X4.7776Y-4.278G85X4.7618Y-4.278
G05
X4.7776Y-4.4685G85X4.7618Y-4.4685
G05
T5
X4.8976Y-4.2657G85X4.878Y-4.2657
G05
X4.8976Y-4.4807G85X4.878Y-4.4807
G05
T0
M30
