G04 #@! TF.FileFunction,Copper,L1,Top,Signal*
%FSLAX46Y46*%
G04 Gerber Fmt 4.6, Leading zero omitted, Abs format (unit mm)*
G04 Created by KiCad (PCBNEW 4.0.4-stable) date 12/30/16 20:15:41*
%MOMM*%
%LPD*%
G01*
G04 APERTURE LIST*
%ADD10C,0.100000*%
%ADD11O,0.750000X0.300000*%
%ADD12O,0.300000X0.750000*%
%ADD13R,0.900000X0.900000*%
%ADD14R,0.900000X1.200000*%
%ADD15R,0.600000X2.000000*%
%ADD16C,1.524000*%
%ADD17R,0.750000X1.200000*%
%ADD18R,1.200000X0.750000*%
%ADD19C,1.800000*%
%ADD20R,1.200000X0.900000*%
%ADD21R,1.550000X0.600000*%
%ADD22R,1.501140X0.398780*%
%ADD23R,1.500000X0.600000*%
%ADD24R,0.398780X1.501140*%
%ADD25R,0.600000X1.500000*%
%ADD26R,1.560000X0.650000*%
%ADD27R,0.650000X1.560000*%
%ADD28C,11.000000*%
%ADD29C,0.700000*%
%ADD30R,2.499360X2.499360*%
%ADD31C,2.499360*%
%ADD32R,2.200000X1.200000*%
%ADD33R,2.200000X3.500000*%
%ADD34R,1.200000X2.200000*%
%ADD35R,3.500000X2.200000*%
%ADD36C,1.700000*%
%ADD37C,0.600000*%
%ADD38C,0.250000*%
%ADD39C,0.350000*%
%ADD40C,0.500000*%
%ADD41C,1.500000*%
G04 APERTURE END LIST*
D10*
D11*
X214680460Y-114158860D03*
X214680460Y-114658860D03*
X214680460Y-115158860D03*
X214680460Y-115658860D03*
D12*
X215405460Y-116383860D03*
X215905460Y-116383860D03*
X216405460Y-116383860D03*
X216905460Y-116383860D03*
D11*
X217630460Y-115658860D03*
X217630460Y-115158860D03*
X217630460Y-114658860D03*
X217630460Y-114158860D03*
D12*
X216905460Y-113433860D03*
X216405460Y-113433860D03*
X215905460Y-113433860D03*
X215405460Y-113433860D03*
D13*
X216605460Y-115358860D03*
X216605460Y-114458860D03*
X215705460Y-115358860D03*
X215705460Y-114458860D03*
D14*
X121353860Y-87767680D03*
X121353860Y-89967680D03*
D15*
X110718860Y-103097680D03*
X111988860Y-103097680D03*
X113258860Y-103097680D03*
X114528860Y-103097680D03*
X115798860Y-103097680D03*
X117068860Y-103097680D03*
X118338860Y-103097680D03*
X119608860Y-103097680D03*
X120878860Y-103097680D03*
X122148860Y-103097680D03*
X123418860Y-103097680D03*
X124688860Y-103097680D03*
X124688860Y-93697680D03*
X123418860Y-93697680D03*
X122148860Y-93697680D03*
X120878860Y-93697680D03*
X119608860Y-93697680D03*
X118338860Y-93697680D03*
X117068860Y-93697680D03*
X115798860Y-93697680D03*
X114528860Y-93697680D03*
X113258860Y-93697680D03*
X111988860Y-93697680D03*
X110718860Y-93697680D03*
D16*
X44633860Y-99987680D03*
X44633860Y-97447680D03*
X47173860Y-99987680D03*
X47173860Y-97447680D03*
X49713860Y-99987680D03*
X49713860Y-97447680D03*
X52253860Y-99987680D03*
X52253860Y-97447680D03*
X54793860Y-99987680D03*
X54793860Y-97447680D03*
X57333860Y-99987680D03*
X57333860Y-97447680D03*
X59873860Y-99987680D03*
X59873860Y-97447680D03*
X62413860Y-99987680D03*
X62413860Y-97447680D03*
X64953860Y-99987680D03*
X64953860Y-97447680D03*
X67493860Y-99987680D03*
X67493860Y-97447680D03*
X70033860Y-99987680D03*
X70033860Y-97447680D03*
X72573860Y-99987680D03*
X72573860Y-97447680D03*
X75113860Y-99987680D03*
X75113860Y-97447680D03*
X77653860Y-99987680D03*
X77653860Y-97447680D03*
X80193860Y-99987680D03*
X80193860Y-97447680D03*
X82733860Y-99987680D03*
X82733860Y-97447680D03*
X85273860Y-99987680D03*
X85273860Y-97447680D03*
X87813860Y-99987680D03*
X87813860Y-97447680D03*
X90353860Y-99987680D03*
X90353860Y-97447680D03*
X92893860Y-99987680D03*
X92893860Y-97447680D03*
X95433860Y-99987680D03*
X95433860Y-97447680D03*
X97973860Y-99987680D03*
X97973860Y-97447680D03*
X100513860Y-99987680D03*
X100513860Y-97447680D03*
X103053860Y-99987680D03*
X103053860Y-97447680D03*
X105593860Y-99987680D03*
X105593860Y-97447680D03*
X43495860Y-77253680D03*
X43495860Y-74713680D03*
X46035860Y-77253680D03*
X46035860Y-74713680D03*
X48575860Y-77253680D03*
X48575860Y-74713680D03*
X51115860Y-77253680D03*
X51115860Y-74713680D03*
X53655860Y-77253680D03*
X53655860Y-74713680D03*
X56195860Y-77253680D03*
X56195860Y-74713680D03*
X58735860Y-77253680D03*
X58735860Y-74713680D03*
X61275860Y-77253680D03*
X61275860Y-74713680D03*
X63815860Y-77253680D03*
X63815860Y-74713680D03*
X66355860Y-77253680D03*
X66355860Y-74713680D03*
X68895860Y-77253680D03*
X68895860Y-74713680D03*
X71435860Y-77253680D03*
X71435860Y-74713680D03*
X73975860Y-77253680D03*
X73975860Y-74713680D03*
X76515860Y-77253680D03*
X76515860Y-74713680D03*
X79055860Y-77253680D03*
X79055860Y-74713680D03*
X81595860Y-77253680D03*
X81595860Y-74713680D03*
X84135860Y-77253680D03*
X84135860Y-74713680D03*
X86675860Y-77253680D03*
X86675860Y-74713680D03*
X89215860Y-77253680D03*
X89215860Y-74713680D03*
X91755860Y-77253680D03*
X91755860Y-74713680D03*
X94295860Y-77253680D03*
X94295860Y-74713680D03*
X96835860Y-77253680D03*
X96835860Y-74713680D03*
X99375860Y-77253680D03*
X99375860Y-74713680D03*
X101915860Y-77253680D03*
X101915860Y-74713680D03*
X104455860Y-77253680D03*
X104455860Y-74713680D03*
D15*
X109580860Y-80363680D03*
X110850860Y-80363680D03*
X112120860Y-80363680D03*
X113390860Y-80363680D03*
X114660860Y-80363680D03*
X115930860Y-80363680D03*
X117200860Y-80363680D03*
X118470860Y-80363680D03*
X119740860Y-80363680D03*
X121010860Y-80363680D03*
X122280860Y-80363680D03*
X123550860Y-80363680D03*
X123550860Y-70963680D03*
X122280860Y-70963680D03*
X121010860Y-70963680D03*
X119740860Y-70963680D03*
X118470860Y-70963680D03*
X117200860Y-70963680D03*
X115930860Y-70963680D03*
X114660860Y-70963680D03*
X113390860Y-70963680D03*
X112120860Y-70963680D03*
X110850860Y-70963680D03*
X109580860Y-70963680D03*
D14*
X122143860Y-64617680D03*
X122143860Y-66817680D03*
X120713860Y-109427680D03*
X120713860Y-111627680D03*
D15*
X110078860Y-124757680D03*
X111348860Y-124757680D03*
X112618860Y-124757680D03*
X113888860Y-124757680D03*
X115158860Y-124757680D03*
X116428860Y-124757680D03*
X117698860Y-124757680D03*
X118968860Y-124757680D03*
X120238860Y-124757680D03*
X121508860Y-124757680D03*
X122778860Y-124757680D03*
X124048860Y-124757680D03*
X124048860Y-115357680D03*
X122778860Y-115357680D03*
X121508860Y-115357680D03*
X120238860Y-115357680D03*
X118968860Y-115357680D03*
X117698860Y-115357680D03*
X116428860Y-115357680D03*
X115158860Y-115357680D03*
X113888860Y-115357680D03*
X112618860Y-115357680D03*
X111348860Y-115357680D03*
X110078860Y-115357680D03*
D16*
X43993860Y-121647680D03*
X43993860Y-119107680D03*
X46533860Y-121647680D03*
X46533860Y-119107680D03*
X49073860Y-121647680D03*
X49073860Y-119107680D03*
X51613860Y-121647680D03*
X51613860Y-119107680D03*
X54153860Y-121647680D03*
X54153860Y-119107680D03*
X56693860Y-121647680D03*
X56693860Y-119107680D03*
X59233860Y-121647680D03*
X59233860Y-119107680D03*
X61773860Y-121647680D03*
X61773860Y-119107680D03*
X64313860Y-121647680D03*
X64313860Y-119107680D03*
X66853860Y-121647680D03*
X66853860Y-119107680D03*
X69393860Y-121647680D03*
X69393860Y-119107680D03*
X71933860Y-121647680D03*
X71933860Y-119107680D03*
X74473860Y-121647680D03*
X74473860Y-119107680D03*
X77013860Y-121647680D03*
X77013860Y-119107680D03*
X79553860Y-121647680D03*
X79553860Y-119107680D03*
X82093860Y-121647680D03*
X82093860Y-119107680D03*
X84633860Y-121647680D03*
X84633860Y-119107680D03*
X87173860Y-121647680D03*
X87173860Y-119107680D03*
X89713860Y-121647680D03*
X89713860Y-119107680D03*
X92253860Y-121647680D03*
X92253860Y-119107680D03*
X94793860Y-121647680D03*
X94793860Y-119107680D03*
X97333860Y-121647680D03*
X97333860Y-119107680D03*
X99873860Y-121647680D03*
X99873860Y-119107680D03*
X102413860Y-121647680D03*
X102413860Y-119107680D03*
X104953860Y-121647680D03*
X104953860Y-119107680D03*
X44183860Y-144267680D03*
X44183860Y-141727680D03*
X46723860Y-144267680D03*
X46723860Y-141727680D03*
X49263860Y-144267680D03*
X49263860Y-141727680D03*
X51803860Y-144267680D03*
X51803860Y-141727680D03*
X54343860Y-144267680D03*
X54343860Y-141727680D03*
X56883860Y-144267680D03*
X56883860Y-141727680D03*
X59423860Y-144267680D03*
X59423860Y-141727680D03*
X61963860Y-144267680D03*
X61963860Y-141727680D03*
X64503860Y-144267680D03*
X64503860Y-141727680D03*
X67043860Y-144267680D03*
X67043860Y-141727680D03*
X69583860Y-144267680D03*
X69583860Y-141727680D03*
X72123860Y-144267680D03*
X72123860Y-141727680D03*
X74663860Y-144267680D03*
X74663860Y-141727680D03*
X77203860Y-144267680D03*
X77203860Y-141727680D03*
X79743860Y-144267680D03*
X79743860Y-141727680D03*
X82283860Y-144267680D03*
X82283860Y-141727680D03*
X84823860Y-144267680D03*
X84823860Y-141727680D03*
X87363860Y-144267680D03*
X87363860Y-141727680D03*
X89903860Y-144267680D03*
X89903860Y-141727680D03*
X92443860Y-144267680D03*
X92443860Y-141727680D03*
X94983860Y-144267680D03*
X94983860Y-141727680D03*
X97523860Y-144267680D03*
X97523860Y-141727680D03*
X100063860Y-144267680D03*
X100063860Y-141727680D03*
X102603860Y-144267680D03*
X102603860Y-141727680D03*
X105143860Y-144267680D03*
X105143860Y-141727680D03*
D15*
X110268860Y-147377680D03*
X111538860Y-147377680D03*
X112808860Y-147377680D03*
X114078860Y-147377680D03*
X115348860Y-147377680D03*
X116618860Y-147377680D03*
X117888860Y-147377680D03*
X119158860Y-147377680D03*
X120428860Y-147377680D03*
X121698860Y-147377680D03*
X122968860Y-147377680D03*
X124238860Y-147377680D03*
X124238860Y-137977680D03*
X122968860Y-137977680D03*
X121698860Y-137977680D03*
X120428860Y-137977680D03*
X119158860Y-137977680D03*
X117888860Y-137977680D03*
X116618860Y-137977680D03*
X115348860Y-137977680D03*
X114078860Y-137977680D03*
X112808860Y-137977680D03*
X111538860Y-137977680D03*
X110268860Y-137977680D03*
D14*
X120903860Y-132047680D03*
X120903860Y-134247680D03*
D17*
X154729180Y-117383520D03*
X154729180Y-119283520D03*
X156316680Y-90548420D03*
X156316680Y-92448420D03*
X154810460Y-123489760D03*
X154810460Y-121589760D03*
X143611600Y-126301540D03*
X143611600Y-124401540D03*
X157231080Y-96796900D03*
X157231080Y-94896900D03*
D18*
X141643060Y-94762320D03*
X143543060Y-94762320D03*
D17*
X155856940Y-155905160D03*
X155856940Y-157805160D03*
X155856940Y-161780260D03*
X155856940Y-159880260D03*
D18*
X144233940Y-163065460D03*
X142333940Y-163065460D03*
D17*
X155224480Y-142303460D03*
X155224480Y-144203460D03*
X155199080Y-148305560D03*
X155199080Y-146405560D03*
X156319220Y-77053400D03*
X156319220Y-78953400D03*
D18*
X144922280Y-150086060D03*
X143022280Y-150086060D03*
D17*
X154343100Y-103337320D03*
X154343100Y-105237320D03*
X154876500Y-130383240D03*
X154876500Y-132283240D03*
X156385260Y-83357760D03*
X156385260Y-81457760D03*
D18*
X142590480Y-84279740D03*
X144490480Y-84279740D03*
D17*
X154266900Y-109524840D03*
X154266900Y-107624840D03*
X156461460Y-130383240D03*
X156461460Y-132283240D03*
D18*
X147231140Y-110937040D03*
X145331140Y-110937040D03*
D17*
X144264380Y-137358160D03*
X144264380Y-135458160D03*
D18*
X215825486Y-121102594D03*
X217725486Y-121102594D03*
X216649260Y-109141260D03*
X218549260Y-109141260D03*
X215825486Y-119426194D03*
X217725486Y-119426194D03*
X218549260Y-110690660D03*
X216649260Y-110690660D03*
X217075980Y-153680160D03*
X218975980Y-153680160D03*
X217418880Y-141691360D03*
X219318880Y-141691360D03*
X217075980Y-152067260D03*
X218975980Y-152067260D03*
X219306180Y-143367760D03*
X217406180Y-143367760D03*
X217125195Y-80762137D03*
X219025195Y-80762137D03*
X216974380Y-71729600D03*
X218874380Y-71729600D03*
X217074395Y-79136537D03*
X218974395Y-79136537D03*
X218874380Y-70154800D03*
X216974380Y-70154800D03*
D19*
X234464860Y-106762560D03*
X234464860Y-104262560D03*
X234464860Y-101762560D03*
X234464860Y-99262560D03*
X234972860Y-128508760D03*
X234972860Y-126008760D03*
X234972860Y-123508760D03*
X234972860Y-121008760D03*
X234980480Y-151439880D03*
X234980480Y-148939880D03*
X234980480Y-146439880D03*
X234980480Y-143939880D03*
X235262420Y-173456600D03*
X235262420Y-170956600D03*
X235262420Y-168456600D03*
X235262420Y-165956600D03*
X234820460Y-64892560D03*
X234820460Y-62392560D03*
X234820460Y-59892560D03*
X234820460Y-57392560D03*
X234744260Y-84512160D03*
X234744260Y-82012160D03*
X234744260Y-79512160D03*
X234744260Y-77012160D03*
D20*
X150833000Y-117157500D03*
X148633000Y-117157500D03*
D14*
X142313660Y-120393640D03*
X142313660Y-118193640D03*
D20*
X151615320Y-89217500D03*
X149415320Y-89217500D03*
D14*
X139753860Y-121947680D03*
X139753860Y-124147680D03*
D20*
X149288320Y-87485220D03*
X151488320Y-87485220D03*
D14*
X141610080Y-126370260D03*
X141610080Y-124170260D03*
X142212060Y-89517400D03*
X142212060Y-87317400D03*
D20*
X141508300Y-96514920D03*
X143708300Y-96514920D03*
X150683140Y-153845260D03*
X148483140Y-153845260D03*
D14*
X119612180Y-198209820D03*
X119612180Y-200409820D03*
D20*
X143698140Y-158442660D03*
X141498140Y-158442660D03*
X142821840Y-161008060D03*
X140621840Y-161008060D03*
X144371240Y-164843460D03*
X142171240Y-164843460D03*
X131297860Y-212069680D03*
X129097860Y-212069680D03*
X135361860Y-205719680D03*
X133161860Y-205719680D03*
X150672980Y-140141960D03*
X148472980Y-140141960D03*
D14*
X143070580Y-143413660D03*
X143070580Y-141213660D03*
D20*
X145084980Y-151841200D03*
X142884980Y-151841200D03*
X151823600Y-76558140D03*
X149623600Y-76558140D03*
X143154580Y-146075400D03*
X140954580Y-146075400D03*
X150058300Y-101244400D03*
X147858300Y-101244400D03*
X150383420Y-128717040D03*
X148183420Y-128717040D03*
X149679480Y-74703940D03*
X151879480Y-74703940D03*
X143606700Y-105384600D03*
X141406700Y-105384600D03*
D14*
X142918180Y-132753280D03*
X142918180Y-130553280D03*
D20*
X142529380Y-82501740D03*
X144729380Y-82501740D03*
D14*
X143476980Y-76263680D03*
X143476980Y-74063680D03*
D20*
X147294780Y-112740440D03*
X145094780Y-112740440D03*
D14*
X142445740Y-137599600D03*
X142445740Y-135399600D03*
D20*
X142021740Y-107340400D03*
X139821740Y-107340400D03*
D14*
X140203860Y-134777680D03*
X140203860Y-136977680D03*
X109503860Y-177387680D03*
X109503860Y-179587680D03*
X121693860Y-152767680D03*
X121693860Y-154967680D03*
D20*
X135316140Y-185237120D03*
X133116140Y-185237120D03*
X209844460Y-110538260D03*
X212044460Y-110538260D03*
D14*
X210080860Y-120071060D03*
X210080860Y-117871060D03*
D20*
X209938620Y-113261140D03*
X207738620Y-113261140D03*
X209913220Y-114937540D03*
X207713220Y-114937540D03*
D14*
X211757260Y-117871060D03*
X211757260Y-120071060D03*
D20*
X224482660Y-115897660D03*
X222282660Y-115897660D03*
X224490460Y-114221260D03*
X222290460Y-114221260D03*
D14*
X211406740Y-142811320D03*
X211406740Y-145011320D03*
X211335620Y-154592200D03*
X211335620Y-152392200D03*
D20*
X211188480Y-147419060D03*
X208988480Y-147419060D03*
X211201180Y-149235160D03*
X209001180Y-149235160D03*
D14*
X213085680Y-152389660D03*
X213085680Y-154589660D03*
D20*
X225158480Y-148511260D03*
X222958480Y-148511260D03*
X225183880Y-146695160D03*
X222983880Y-146695160D03*
X209610780Y-70510400D03*
X211810780Y-70510400D03*
D14*
X210253580Y-79543000D03*
X210253580Y-77343000D03*
D20*
X209875300Y-73009760D03*
X207675300Y-73009760D03*
X209824500Y-74736960D03*
X207624500Y-74736960D03*
D14*
X212031580Y-77386000D03*
X212031580Y-79586000D03*
D20*
X225780780Y-76962000D03*
X223580780Y-76962000D03*
X225813980Y-75285600D03*
X223613980Y-75285600D03*
X158056760Y-189974220D03*
X155856760Y-189974220D03*
X157917060Y-187523120D03*
X155717060Y-187523120D03*
X158018660Y-184983120D03*
X155818660Y-184983120D03*
X157853560Y-182468520D03*
X155653560Y-182468520D03*
D14*
X169581830Y-208474130D03*
X169581830Y-210674130D03*
X167206930Y-208550330D03*
X167206930Y-210750330D03*
X164895530Y-208550330D03*
X164895530Y-210750330D03*
X162152330Y-208550330D03*
X162152330Y-210750330D03*
D20*
X207820080Y-181437280D03*
X210020080Y-181437280D03*
X207883580Y-184066180D03*
X210083580Y-184066180D03*
X207883580Y-186555380D03*
X210083580Y-186555380D03*
X207820080Y-189260480D03*
X210020080Y-189260480D03*
D14*
X202943860Y-207967680D03*
X202943860Y-210167680D03*
X200106280Y-207997880D03*
X200106280Y-210197880D03*
X197705980Y-208035980D03*
X197705980Y-210235980D03*
X195204080Y-208074080D03*
X195204080Y-210274080D03*
D15*
X98158860Y-192087680D03*
X99428860Y-192087680D03*
X100698860Y-192087680D03*
X101968860Y-192087680D03*
X103238860Y-192087680D03*
X104508860Y-192087680D03*
X105778860Y-192087680D03*
X107048860Y-192087680D03*
X108318860Y-192087680D03*
X109588860Y-192087680D03*
X110858860Y-192087680D03*
X112128860Y-192087680D03*
X112128860Y-182687680D03*
X110858860Y-182687680D03*
X109588860Y-182687680D03*
X108318860Y-182687680D03*
X107048860Y-182687680D03*
X105778860Y-182687680D03*
X104508860Y-182687680D03*
X103238860Y-182687680D03*
X101968860Y-182687680D03*
X100698860Y-182687680D03*
X99428860Y-182687680D03*
X98158860Y-182687680D03*
X108278860Y-213517680D03*
X109548860Y-213517680D03*
X110818860Y-213517680D03*
X112088860Y-213517680D03*
X113358860Y-213517680D03*
X114628860Y-213517680D03*
X115898860Y-213517680D03*
X117168860Y-213517680D03*
X118438860Y-213517680D03*
X119708860Y-213517680D03*
X120978860Y-213517680D03*
X122248860Y-213517680D03*
X122248860Y-204117680D03*
X120978860Y-204117680D03*
X119708860Y-204117680D03*
X118438860Y-204117680D03*
X117168860Y-204117680D03*
X115898860Y-204117680D03*
X114628860Y-204117680D03*
X113358860Y-204117680D03*
X112088860Y-204117680D03*
X110818860Y-204117680D03*
X109548860Y-204117680D03*
X108278860Y-204117680D03*
X110898860Y-169317680D03*
X112168860Y-169317680D03*
X113438860Y-169317680D03*
X114708860Y-169317680D03*
X115978860Y-169317680D03*
X117248860Y-169317680D03*
X118518860Y-169317680D03*
X119788860Y-169317680D03*
X121058860Y-169317680D03*
X122328860Y-169317680D03*
X123598860Y-169317680D03*
X124868860Y-169317680D03*
X124868860Y-159917680D03*
X123598860Y-159917680D03*
X122328860Y-159917680D03*
X121058860Y-159917680D03*
X119788860Y-159917680D03*
X118518860Y-159917680D03*
X117248860Y-159917680D03*
X115978860Y-159917680D03*
X114708860Y-159917680D03*
X113438860Y-159917680D03*
X112168860Y-159917680D03*
X110898860Y-159917680D03*
D21*
X147764520Y-78910180D03*
X147764520Y-80180180D03*
X147764520Y-81450180D03*
X147764520Y-82720180D03*
X153164520Y-82720180D03*
X153164520Y-81450180D03*
X153164520Y-80180180D03*
X153164520Y-78910180D03*
X146121140Y-104470200D03*
X146121140Y-105740200D03*
X146121140Y-107010200D03*
X146121140Y-108280200D03*
X151521140Y-108280200D03*
X151521140Y-107010200D03*
X151521140Y-105740200D03*
X151521140Y-104470200D03*
X146613900Y-131607560D03*
X146613900Y-132877560D03*
X146613900Y-134147560D03*
X146613900Y-135417560D03*
X152013900Y-135417560D03*
X152013900Y-134147560D03*
X152013900Y-132877560D03*
X152013900Y-131607560D03*
D11*
X215335632Y-146854760D03*
X215335632Y-147354760D03*
X215335632Y-147854760D03*
X215335632Y-148354760D03*
D12*
X216060632Y-149079760D03*
X216560632Y-149079760D03*
X217060632Y-149079760D03*
X217560632Y-149079760D03*
D11*
X218285632Y-148354760D03*
X218285632Y-147854760D03*
X218285632Y-147354760D03*
X218285632Y-146854760D03*
D12*
X217560632Y-146129760D03*
X217060632Y-146129760D03*
X216560632Y-146129760D03*
X216060632Y-146129760D03*
D13*
X217260632Y-148054760D03*
X217260632Y-147154760D03*
X216360632Y-148054760D03*
X216360632Y-147154760D03*
D11*
X215226332Y-74805400D03*
X215226332Y-75305400D03*
X215226332Y-75805400D03*
X215226332Y-76305400D03*
D12*
X215951332Y-77030400D03*
X216451332Y-77030400D03*
X216951332Y-77030400D03*
X217451332Y-77030400D03*
D11*
X218176332Y-76305400D03*
X218176332Y-75805400D03*
X218176332Y-75305400D03*
X218176332Y-74805400D03*
D12*
X217451332Y-74080400D03*
X216951332Y-74080400D03*
X216451332Y-74080400D03*
X215951332Y-74080400D03*
D13*
X217151332Y-76005400D03*
X217151332Y-75105400D03*
X216251332Y-76005400D03*
X216251332Y-75105400D03*
D22*
X163964620Y-184388760D03*
X163964620Y-183738520D03*
X163964620Y-183088280D03*
X161302700Y-183088280D03*
X161302700Y-183738520D03*
X161302700Y-184388760D03*
D23*
X152963860Y-190050420D03*
X152963860Y-188780420D03*
X152963860Y-187510420D03*
X152963860Y-186240420D03*
X152963860Y-184970420D03*
X152963860Y-183700420D03*
X152963860Y-182430420D03*
X152963860Y-181160420D03*
X147563860Y-181160420D03*
X147563860Y-182430420D03*
X147563860Y-183700420D03*
X147563860Y-184970420D03*
X147563860Y-186240420D03*
X147563860Y-187510420D03*
X147563860Y-188780420D03*
X147563860Y-190050420D03*
D22*
X163926520Y-189176660D03*
X163926520Y-188526420D03*
X163926520Y-187876180D03*
X161264600Y-187876180D03*
X161264600Y-188526420D03*
X161264600Y-189176660D03*
D24*
X163958270Y-203252070D03*
X163308030Y-203252070D03*
X162657790Y-203252070D03*
X162657790Y-205913990D03*
X163308030Y-205913990D03*
X163958270Y-205913990D03*
D25*
X169757530Y-213456697D03*
X168487530Y-213456697D03*
X167217530Y-213456697D03*
X165947530Y-213456697D03*
X164677530Y-213456697D03*
X163407530Y-213456697D03*
X162137530Y-213456697D03*
X160867530Y-213456697D03*
X160867530Y-218856697D03*
X162137530Y-218856697D03*
X163407530Y-218856697D03*
X164677530Y-218856697D03*
X165947530Y-218856697D03*
X167217530Y-218856697D03*
X168487530Y-218856697D03*
X169757530Y-218856697D03*
D24*
X168936670Y-203201270D03*
X168286430Y-203201270D03*
X167636190Y-203201270D03*
X167636190Y-205863190D03*
X168286430Y-205863190D03*
X168936670Y-205863190D03*
D22*
X202496420Y-187200540D03*
X202496420Y-187850780D03*
X202496420Y-188501020D03*
X205158340Y-188501020D03*
X205158340Y-187850780D03*
X205158340Y-187200540D03*
D23*
X213078080Y-181627780D03*
X213078080Y-182897780D03*
X213078080Y-184167780D03*
X213078080Y-185437780D03*
X213078080Y-186707780D03*
X213078080Y-187977780D03*
X213078080Y-189247780D03*
X213078080Y-190517780D03*
X218478080Y-190517780D03*
X218478080Y-189247780D03*
X218478080Y-187977780D03*
X218478080Y-186707780D03*
X218478080Y-185437780D03*
X218478080Y-184167780D03*
X218478080Y-182897780D03*
X218478080Y-181627780D03*
D22*
X202534520Y-181993540D03*
X202534520Y-182643780D03*
X202534520Y-183294020D03*
X205196440Y-183294020D03*
X205196440Y-182643780D03*
X205196440Y-181993540D03*
D24*
X197289420Y-203029820D03*
X196639180Y-203029820D03*
X195988940Y-203029820D03*
X195988940Y-205691740D03*
X196639180Y-205691740D03*
X197289420Y-205691740D03*
D25*
X202692830Y-212715563D03*
X201422830Y-212715563D03*
X200152830Y-212715563D03*
X198882830Y-212715563D03*
X197612830Y-212715563D03*
X196342830Y-212715563D03*
X195072830Y-212715563D03*
X193802830Y-212715563D03*
X193802830Y-218115563D03*
X195072830Y-218115563D03*
X196342830Y-218115563D03*
X197612830Y-218115563D03*
X198882830Y-218115563D03*
X200152830Y-218115563D03*
X201422830Y-218115563D03*
X202692830Y-218115563D03*
D24*
X201899520Y-203042520D03*
X201249280Y-203042520D03*
X200599040Y-203042520D03*
X200599040Y-205704440D03*
X201249280Y-205704440D03*
X201899520Y-205704440D03*
D16*
X180464460Y-143042640D03*
X183004460Y-143042640D03*
X180464460Y-145582640D03*
X183004460Y-145582640D03*
X180464460Y-148122640D03*
X183004460Y-148122640D03*
X180464460Y-150662640D03*
X183004460Y-150662640D03*
X180464460Y-153202640D03*
X183004460Y-153202640D03*
X180464460Y-155742640D03*
X183004460Y-155742640D03*
X180464460Y-158282640D03*
X183004460Y-158282640D03*
X180464460Y-160822640D03*
X183004460Y-160822640D03*
X180464460Y-163362640D03*
X183004460Y-163362640D03*
X180464460Y-165902640D03*
X183004460Y-165902640D03*
X180464460Y-168442640D03*
X183004460Y-168442640D03*
X180464460Y-170982640D03*
X183004460Y-170982640D03*
X180464460Y-173522640D03*
X183004460Y-173522640D03*
X180464460Y-176062640D03*
X183004460Y-176062640D03*
X180464460Y-178602640D03*
X183004460Y-178602640D03*
X180464460Y-181142640D03*
X183004460Y-181142640D03*
X180464460Y-183682640D03*
X183004460Y-183682640D03*
X180464460Y-186222640D03*
X183004460Y-186222640D03*
X180464460Y-188762640D03*
X183004460Y-188762640D03*
X180464460Y-191302640D03*
X183004460Y-191302640D03*
X180464460Y-193842640D03*
X183004460Y-193842640D03*
X180464460Y-196382640D03*
X183004460Y-196382640D03*
X180464460Y-198922640D03*
X183004460Y-198922640D03*
X182237380Y-69575680D03*
X184777380Y-69575680D03*
X182237380Y-72115680D03*
X184777380Y-72115680D03*
X182237380Y-74655680D03*
X184777380Y-74655680D03*
X182237380Y-77195680D03*
X184777380Y-77195680D03*
X182237380Y-79735680D03*
X184777380Y-79735680D03*
X182237380Y-82275680D03*
X184777380Y-82275680D03*
X182237380Y-84815680D03*
X184777380Y-84815680D03*
X182237380Y-87355680D03*
X184777380Y-87355680D03*
X182237380Y-89895680D03*
X184777380Y-89895680D03*
X182237380Y-92435680D03*
X184777380Y-92435680D03*
X182237380Y-94975680D03*
X184777380Y-94975680D03*
X182237380Y-97515680D03*
X184777380Y-97515680D03*
X182237380Y-100055680D03*
X184777380Y-100055680D03*
X182237380Y-102595680D03*
X184777380Y-102595680D03*
X182237380Y-105135680D03*
X184777380Y-105135680D03*
X182237380Y-107675680D03*
X184777380Y-107675680D03*
X182237380Y-110215680D03*
X184777380Y-110215680D03*
X182237380Y-112755680D03*
X184777380Y-112755680D03*
X182237380Y-115295680D03*
X184777380Y-115295680D03*
X182237380Y-117835680D03*
X184777380Y-117835680D03*
X182237380Y-120375680D03*
X184777380Y-120375680D03*
X182237380Y-122915680D03*
X184777380Y-122915680D03*
X182237380Y-125455680D03*
X184777380Y-125455680D03*
D26*
X155619460Y-195534320D03*
X158319460Y-195534320D03*
X158319460Y-194584320D03*
X158319460Y-193634320D03*
X155619460Y-193634320D03*
X158319460Y-176552820D03*
X155619460Y-176552820D03*
X155619460Y-177502820D03*
X155619460Y-178452820D03*
X158319460Y-178452820D03*
D27*
X174354530Y-211216230D03*
X174354530Y-208516230D03*
X173404530Y-208516230D03*
X172454530Y-208516230D03*
X172454530Y-211216230D03*
D26*
X158777930Y-208497130D03*
X156077930Y-208497130D03*
X156077930Y-209447130D03*
X156077930Y-210397130D03*
X158777930Y-210397130D03*
X210653620Y-176032120D03*
X207953620Y-176032120D03*
X207953620Y-176982120D03*
X207953620Y-177932120D03*
X210653620Y-177932120D03*
D27*
X208376480Y-191898280D03*
X208376480Y-194598280D03*
X209326480Y-194598280D03*
X210276480Y-194598280D03*
X210276480Y-191898280D03*
X207768230Y-211330530D03*
X207768230Y-208630530D03*
X206818230Y-208630530D03*
X205868230Y-208630530D03*
X205868230Y-211330530D03*
D26*
X191607430Y-209297230D03*
X188907430Y-209297230D03*
X188907430Y-210247230D03*
X188907430Y-211197230D03*
X191607430Y-211197230D03*
D16*
X205117700Y-228960680D03*
X201617700Y-228960680D03*
X198117700Y-228960680D03*
X194617700Y-228960680D03*
X191117700Y-228960680D03*
X187617700Y-228960680D03*
X184117700Y-228960680D03*
X180617700Y-228960680D03*
X177117700Y-228960680D03*
X173617700Y-228960680D03*
X170117700Y-228960680D03*
X166617700Y-228960680D03*
X163117700Y-228960680D03*
X159617700Y-228960680D03*
X156117700Y-228960680D03*
X152617700Y-228960680D03*
X101113860Y-211117680D03*
X101113860Y-213117680D03*
X99113860Y-211117680D03*
X99113860Y-213117680D03*
X97113860Y-211117680D03*
X97113860Y-213117680D03*
X95113860Y-211117680D03*
X95113860Y-213117680D03*
X93113860Y-211117680D03*
X93113860Y-213117680D03*
X91113860Y-211117680D03*
X91113860Y-213117680D03*
X89113860Y-211117680D03*
X89113860Y-213117680D03*
X87113860Y-211117680D03*
X87113860Y-213117680D03*
X90783860Y-187357680D03*
X90783860Y-189357680D03*
X88783860Y-187357680D03*
X88783860Y-189357680D03*
X86783860Y-187357680D03*
X86783860Y-189357680D03*
X84783860Y-187357680D03*
X84783860Y-189357680D03*
X82783860Y-187357680D03*
X82783860Y-189357680D03*
X80783860Y-187357680D03*
X80783860Y-189357680D03*
X78783860Y-187357680D03*
X78783860Y-189357680D03*
X76783860Y-187357680D03*
X76783860Y-189357680D03*
D19*
X234546140Y-114635280D03*
X234546140Y-112095280D03*
X234988100Y-136911080D03*
X234988100Y-134371080D03*
X235023660Y-159451040D03*
X235023660Y-156911040D03*
X235501180Y-181284880D03*
X235501180Y-178744880D03*
X234779820Y-71948040D03*
X234779820Y-69408040D03*
X234891580Y-92770960D03*
X234891580Y-90230960D03*
D28*
X220193860Y-54317680D03*
D29*
X224318860Y-54317680D03*
X223120675Y-57244495D03*
X220193860Y-58442680D03*
X217267045Y-57244495D03*
X216068860Y-54317680D03*
X217267045Y-51390865D03*
X220193860Y-50192680D03*
X223120675Y-51390865D03*
D28*
X49425860Y-52557680D03*
D29*
X53550860Y-52557680D03*
X52352675Y-55484495D03*
X49425860Y-56682680D03*
X46499045Y-55484495D03*
X45300860Y-52557680D03*
X46499045Y-49630865D03*
X49425860Y-48432680D03*
X52352675Y-49630865D03*
D28*
X49176940Y-226232720D03*
D29*
X53301940Y-226232720D03*
X52103755Y-229159535D03*
X49176940Y-230357720D03*
X46250125Y-229159535D03*
X45051940Y-226232720D03*
X46250125Y-223305905D03*
X49176940Y-222107720D03*
X52103755Y-223305905D03*
D28*
X236298740Y-226222560D03*
D29*
X240423740Y-226222560D03*
X239225555Y-229149375D03*
X236298740Y-230347560D03*
X233371925Y-229149375D03*
X232173740Y-226222560D03*
X233371925Y-223295745D03*
X236298740Y-222097560D03*
X239225555Y-223295745D03*
D30*
X236893860Y-190922680D03*
D31*
X236893860Y-187112680D03*
D21*
X146525000Y-119245380D03*
X146525000Y-120515380D03*
X146525000Y-121785380D03*
X146525000Y-123055380D03*
X151925000Y-123055380D03*
X151925000Y-121785380D03*
X151925000Y-120515380D03*
X151925000Y-119245380D03*
X147266680Y-91950540D03*
X147266680Y-93220540D03*
X147266680Y-94490540D03*
X147266680Y-95760540D03*
X152666680Y-95760540D03*
X152666680Y-94490540D03*
X152666680Y-93220540D03*
X152666680Y-91950540D03*
X146895840Y-157185360D03*
X146895840Y-158455360D03*
X146895840Y-159725360D03*
X146895840Y-160995360D03*
X152295840Y-160995360D03*
X152295840Y-159725360D03*
X152295840Y-158455360D03*
X152295840Y-157185360D03*
X146847580Y-143545560D03*
X146847580Y-144815560D03*
X146847580Y-146085560D03*
X146847580Y-147355560D03*
X152247580Y-147355560D03*
X152247580Y-146085560D03*
X152247580Y-144815560D03*
X152247580Y-143545560D03*
D16*
X172427900Y-69540120D03*
X174967900Y-69540120D03*
X172427900Y-72080120D03*
X174967900Y-72080120D03*
X172427900Y-74620120D03*
X174967900Y-74620120D03*
X172427900Y-77160120D03*
X174967900Y-77160120D03*
X172427900Y-79700120D03*
X174967900Y-79700120D03*
X172427900Y-82240120D03*
X174967900Y-82240120D03*
X172427900Y-84780120D03*
X174967900Y-84780120D03*
X172427900Y-87320120D03*
X174967900Y-87320120D03*
X172427900Y-89860120D03*
X174967900Y-89860120D03*
X172427900Y-92400120D03*
X174967900Y-92400120D03*
X172427900Y-94940120D03*
X174967900Y-94940120D03*
X172427900Y-97480120D03*
X174967900Y-97480120D03*
X172427900Y-100020120D03*
X174967900Y-100020120D03*
X172427900Y-102560120D03*
X174967900Y-102560120D03*
X172427900Y-105100120D03*
X174967900Y-105100120D03*
X172427900Y-107640120D03*
X174967900Y-107640120D03*
X172427900Y-110180120D03*
X174967900Y-110180120D03*
X172427900Y-112720120D03*
X174967900Y-112720120D03*
X172427900Y-115260120D03*
X174967900Y-115260120D03*
X172427900Y-117800120D03*
X174967900Y-117800120D03*
X172427900Y-120340120D03*
X174967900Y-120340120D03*
X172427900Y-122880120D03*
X174967900Y-122880120D03*
X172427900Y-125420120D03*
X174967900Y-125420120D03*
X191797940Y-69570600D03*
X194337940Y-69570600D03*
X191797940Y-72110600D03*
X194337940Y-72110600D03*
X191797940Y-74650600D03*
X194337940Y-74650600D03*
X191797940Y-77190600D03*
X194337940Y-77190600D03*
X191797940Y-79730600D03*
X194337940Y-79730600D03*
X191797940Y-82270600D03*
X194337940Y-82270600D03*
X191797940Y-84810600D03*
X194337940Y-84810600D03*
X191797940Y-87350600D03*
X194337940Y-87350600D03*
X191797940Y-89890600D03*
X194337940Y-89890600D03*
X191797940Y-92430600D03*
X194337940Y-92430600D03*
X191797940Y-94970600D03*
X194337940Y-94970600D03*
X191797940Y-97510600D03*
X194337940Y-97510600D03*
X191797940Y-100050600D03*
X194337940Y-100050600D03*
X191797940Y-102590600D03*
X194337940Y-102590600D03*
X191797940Y-105130600D03*
X194337940Y-105130600D03*
X191797940Y-107670600D03*
X194337940Y-107670600D03*
X191797940Y-110210600D03*
X194337940Y-110210600D03*
X191797940Y-112750600D03*
X194337940Y-112750600D03*
X191797940Y-115290600D03*
X194337940Y-115290600D03*
X191797940Y-117830600D03*
X194337940Y-117830600D03*
X191797940Y-120370600D03*
X194337940Y-120370600D03*
X191797940Y-122910600D03*
X194337940Y-122910600D03*
X191797940Y-125450600D03*
X194337940Y-125450600D03*
X170393360Y-143042640D03*
X172933360Y-143042640D03*
X170393360Y-145582640D03*
X172933360Y-145582640D03*
X170393360Y-148122640D03*
X172933360Y-148122640D03*
X170393360Y-150662640D03*
X172933360Y-150662640D03*
X170393360Y-153202640D03*
X172933360Y-153202640D03*
X170393360Y-155742640D03*
X172933360Y-155742640D03*
X170393360Y-158282640D03*
X172933360Y-158282640D03*
X170393360Y-160822640D03*
X172933360Y-160822640D03*
X170393360Y-163362640D03*
X172933360Y-163362640D03*
X170393360Y-165902640D03*
X172933360Y-165902640D03*
X170393360Y-168442640D03*
X172933360Y-168442640D03*
X170393360Y-170982640D03*
X172933360Y-170982640D03*
X170393360Y-173522640D03*
X172933360Y-173522640D03*
X170393360Y-176062640D03*
X172933360Y-176062640D03*
X170393360Y-178602640D03*
X172933360Y-178602640D03*
X170393360Y-181142640D03*
X172933360Y-181142640D03*
X170393360Y-183682640D03*
X172933360Y-183682640D03*
X170393360Y-186222640D03*
X172933360Y-186222640D03*
X170393360Y-188762640D03*
X172933360Y-188762640D03*
X170393360Y-191302640D03*
X172933360Y-191302640D03*
X170393360Y-193842640D03*
X172933360Y-193842640D03*
X170393360Y-196382640D03*
X172933360Y-196382640D03*
X170393360Y-198922640D03*
X172933360Y-198922640D03*
X191107060Y-143106140D03*
X193647060Y-143106140D03*
X191107060Y-145646140D03*
X193647060Y-145646140D03*
X191107060Y-148186140D03*
X193647060Y-148186140D03*
X191107060Y-150726140D03*
X193647060Y-150726140D03*
X191107060Y-153266140D03*
X193647060Y-153266140D03*
X191107060Y-155806140D03*
X193647060Y-155806140D03*
X191107060Y-158346140D03*
X193647060Y-158346140D03*
X191107060Y-160886140D03*
X193647060Y-160886140D03*
X191107060Y-163426140D03*
X193647060Y-163426140D03*
X191107060Y-165966140D03*
X193647060Y-165966140D03*
X191107060Y-168506140D03*
X193647060Y-168506140D03*
X191107060Y-171046140D03*
X193647060Y-171046140D03*
X191107060Y-173586140D03*
X193647060Y-173586140D03*
X191107060Y-176126140D03*
X193647060Y-176126140D03*
X191107060Y-178666140D03*
X193647060Y-178666140D03*
X191107060Y-181206140D03*
X193647060Y-181206140D03*
X191107060Y-183746140D03*
X193647060Y-183746140D03*
X191107060Y-186286140D03*
X193647060Y-186286140D03*
X191107060Y-188826140D03*
X193647060Y-188826140D03*
X191107060Y-191366140D03*
X193647060Y-191366140D03*
X191107060Y-193906140D03*
X193647060Y-193906140D03*
X191107060Y-196446140D03*
X193647060Y-196446140D03*
X191107060Y-198986140D03*
X193647060Y-198986140D03*
D18*
X217293860Y-220392680D03*
X215393860Y-220392680D03*
D17*
X216518860Y-216317680D03*
X216518860Y-214417680D03*
X49768860Y-210817680D03*
X49768860Y-212717680D03*
X46115760Y-206522820D03*
X46115760Y-208422820D03*
D32*
X220318860Y-215642680D03*
X220318860Y-217942680D03*
X220318860Y-220242680D03*
D33*
X226518860Y-217942680D03*
D32*
X51180120Y-203689460D03*
X51180120Y-205989460D03*
X51180120Y-208289460D03*
D33*
X57380120Y-205989460D03*
D16*
X221246700Y-162687000D03*
X221246700Y-165227000D03*
X221246700Y-167767000D03*
X221246700Y-170307000D03*
X221246700Y-172847000D03*
X221246700Y-175387000D03*
D18*
X61133860Y-215317680D03*
X59233860Y-215317680D03*
X65203860Y-212107680D03*
X67103860Y-212107680D03*
X73603860Y-209347680D03*
X71703860Y-209347680D03*
X76633860Y-205357680D03*
X78533860Y-205357680D03*
D34*
X67233860Y-218727680D03*
X64933860Y-218727680D03*
X62633860Y-218727680D03*
D35*
X64933860Y-224927680D03*
D34*
X78803860Y-213137680D03*
X76503860Y-213137680D03*
X74203860Y-213137680D03*
D35*
X76503860Y-219337680D03*
D14*
X194243860Y-58717680D03*
X194243860Y-60917680D03*
D20*
X196973860Y-61237680D03*
X199173860Y-61237680D03*
D16*
X44813860Y-166207680D03*
X44813860Y-163667680D03*
X47353860Y-166207680D03*
X47353860Y-163667680D03*
X49893860Y-166207680D03*
X49893860Y-163667680D03*
X52433860Y-166207680D03*
X52433860Y-163667680D03*
X54973860Y-166207680D03*
X54973860Y-163667680D03*
X57513860Y-166207680D03*
X57513860Y-163667680D03*
X60053860Y-166207680D03*
X60053860Y-163667680D03*
X62593860Y-166207680D03*
X62593860Y-163667680D03*
X65133860Y-166207680D03*
X65133860Y-163667680D03*
X67673860Y-166207680D03*
X67673860Y-163667680D03*
X70213860Y-166207680D03*
X70213860Y-163667680D03*
X72753860Y-166207680D03*
X72753860Y-163667680D03*
X75293860Y-166207680D03*
X75293860Y-163667680D03*
X77833860Y-166207680D03*
X77833860Y-163667680D03*
X80373860Y-166207680D03*
X80373860Y-163667680D03*
X82913860Y-166207680D03*
X82913860Y-163667680D03*
X85453860Y-166207680D03*
X85453860Y-163667680D03*
X87993860Y-166207680D03*
X87993860Y-163667680D03*
X90533860Y-166207680D03*
X90533860Y-163667680D03*
X93073860Y-166207680D03*
X93073860Y-163667680D03*
X95613860Y-166207680D03*
X95613860Y-163667680D03*
X98153860Y-166207680D03*
X98153860Y-163667680D03*
X100693860Y-166207680D03*
X100693860Y-163667680D03*
X103233860Y-166207680D03*
X103233860Y-163667680D03*
X105773860Y-166207680D03*
X105773860Y-163667680D03*
D19*
X236343860Y-205417680D03*
X236343860Y-202917680D03*
X236343860Y-200417680D03*
X236343860Y-197917680D03*
X236293860Y-213067680D03*
X236293860Y-210527680D03*
X218443860Y-228217680D03*
X220983860Y-228217680D03*
X205193860Y-49267680D03*
X202693860Y-49267680D03*
X200193860Y-49267680D03*
X197693860Y-49267680D03*
D20*
X209993860Y-59717680D03*
X207793860Y-59717680D03*
X115443860Y-54567680D03*
X113243860Y-54567680D03*
X115493860Y-56767680D03*
X113293860Y-56767680D03*
X115493860Y-58517680D03*
X113293860Y-58517680D03*
X115543860Y-60067680D03*
X113343860Y-60067680D03*
D14*
X163243860Y-60417680D03*
X163243860Y-62617680D03*
D20*
X115543860Y-61767680D03*
X113343860Y-61767680D03*
D14*
X158143860Y-60367680D03*
X158143860Y-62567680D03*
X135743860Y-59217680D03*
X135743860Y-57017680D03*
X155443860Y-60217680D03*
X155443860Y-62417680D03*
X142743860Y-59967680D03*
X142743860Y-57767680D03*
X150193860Y-60117680D03*
X150193860Y-62317680D03*
X148043860Y-61217680D03*
X148043860Y-63417680D03*
D36*
X172493860Y-49267680D03*
X168993860Y-49267680D03*
X165493860Y-49267680D03*
X161993860Y-49267680D03*
X158493860Y-49267680D03*
X154993860Y-49267680D03*
X151493860Y-49267680D03*
X147993860Y-49267680D03*
X144493860Y-49267680D03*
X140993860Y-49267680D03*
X137493860Y-49267680D03*
X133993860Y-49267680D03*
X130493860Y-49267680D03*
X126993860Y-49267680D03*
X123493860Y-49267680D03*
X119993860Y-49267680D03*
D14*
X152343860Y-60217680D03*
X152343860Y-62417680D03*
D36*
X75587860Y-228325680D03*
X79087860Y-228325680D03*
X82587860Y-228325680D03*
X86087860Y-228325680D03*
X89587860Y-228325680D03*
X93087860Y-228325680D03*
X96587860Y-228325680D03*
X100087860Y-228325680D03*
X103587860Y-228325680D03*
X107087860Y-228325680D03*
X110587860Y-228325680D03*
X114087860Y-228325680D03*
X117587860Y-228325680D03*
X121087860Y-228325680D03*
X124587860Y-228325680D03*
X128087860Y-228325680D03*
X131587860Y-228325680D03*
X135087860Y-228325680D03*
X138587860Y-228325680D03*
X142087860Y-228325680D03*
D37*
X158093860Y-150417680D03*
X158393860Y-115917680D03*
X159643860Y-89067680D03*
X160393860Y-79367680D03*
X157893860Y-101067680D03*
X156843860Y-135517680D03*
X144543860Y-140767680D03*
X118843860Y-87617680D03*
X218043860Y-214367680D03*
X217693860Y-212492680D03*
X213718860Y-222442680D03*
X49618860Y-214967680D03*
X46393860Y-210167680D03*
X49143860Y-203592680D03*
X201733860Y-61237680D03*
X141743860Y-181867680D03*
X149343860Y-191517680D03*
X159993860Y-192917680D03*
X155593860Y-179817680D03*
X171143860Y-206917680D03*
X170643860Y-202667680D03*
X123493860Y-171367680D03*
X215993860Y-144767680D03*
X123085860Y-77703680D03*
X124033860Y-100337680D03*
X123713860Y-122707680D03*
X118833860Y-109217680D03*
X123853860Y-145177680D03*
X119023860Y-131837680D03*
X121893860Y-151417680D03*
X113763860Y-190057680D03*
X122233860Y-211237680D03*
X56763860Y-215237680D03*
X70293860Y-211077680D03*
X80363860Y-209757680D03*
X68963860Y-216727680D03*
X68943860Y-216727680D03*
X69933860Y-212047680D03*
X80813860Y-205317680D03*
X165433860Y-188537680D03*
X145803860Y-181107680D03*
X200923860Y-187907680D03*
X201043860Y-182667680D03*
X148043860Y-84167680D03*
X146543860Y-97167680D03*
X146543860Y-136667680D03*
X206543860Y-178167680D03*
X218043860Y-149667680D03*
X146043860Y-124667680D03*
X211543860Y-196167680D03*
X110166380Y-175930080D03*
X153926540Y-142057120D03*
X156644340Y-142331440D03*
X155374340Y-140512800D03*
X153718260Y-148640800D03*
X156451300Y-148254720D03*
X155272740Y-149773640D03*
X144106900Y-148590000D03*
X146588480Y-150936960D03*
X154810460Y-125130560D03*
X156100780Y-123418600D03*
X153494740Y-117383560D03*
X156075380Y-117439440D03*
X154785060Y-115727480D03*
X140200380Y-94594680D03*
X141632940Y-93375480D03*
X141048740Y-84343240D03*
X142623540Y-85511640D03*
X157767020Y-83225640D03*
X156385260Y-85156040D03*
X155039060Y-83530440D03*
X160754060Y-221015560D03*
X157700980Y-130403600D03*
X153626820Y-130332480D03*
X154774900Y-128833880D03*
X156370020Y-128666240D03*
X171711620Y-218948000D03*
X141599920Y-127967740D03*
X145049240Y-126301500D03*
X143550640Y-127810260D03*
X143390620Y-116845080D03*
X157723840Y-90604340D03*
X156352240Y-88760300D03*
X155056840Y-90538300D03*
X157284420Y-98231960D03*
X155610560Y-96964500D03*
X119723940Y-196437080D03*
X144294860Y-161737040D03*
X157589220Y-155818840D03*
X157548580Y-161813240D03*
X152844500Y-110119160D03*
X147083780Y-114518440D03*
X219468700Y-73009760D03*
X218935300Y-68773040D03*
X153416000Y-74698860D03*
X153070560Y-87500460D03*
X195587620Y-199872600D03*
X200245980Y-199410320D03*
X205844140Y-207081120D03*
X155602940Y-109611160D03*
X154139900Y-111074200D03*
X152849580Y-102641400D03*
X155887420Y-103281480D03*
X154378660Y-101533960D03*
X140444220Y-103601520D03*
X149405340Y-111973360D03*
X219295980Y-144752060D03*
X220946980Y-143329660D03*
X220959680Y-141640560D03*
X219321380Y-140230860D03*
X227144580Y-147546060D03*
X219029280Y-155216860D03*
X220553280Y-153769060D03*
X220540580Y-152130760D03*
X218927680Y-150721060D03*
X218869260Y-120164860D03*
X225981260Y-115084860D03*
X227093780Y-76174600D03*
X215440260Y-112595660D03*
X219605860Y-109852460D03*
X215293860Y-72767680D03*
X219040395Y-80000137D03*
X219956380Y-71018400D03*
X157627320Y-77038200D03*
X154909520Y-77063600D03*
X156370020Y-75438000D03*
X154701240Y-154937460D03*
X154866340Y-163167060D03*
X154595830Y-210259930D03*
X220527880Y-181030880D03*
X220134180Y-191419480D03*
X203046330Y-220000830D03*
X193013330Y-219924630D03*
X187095130Y-211568030D03*
X165694360Y-183751220D03*
X139766040Y-158925260D03*
X145595340Y-162786060D03*
X158783020Y-96845120D03*
X122043860Y-63017680D03*
X209543860Y-81567680D03*
X213943860Y-78017680D03*
X211043860Y-122217680D03*
X213193860Y-118167680D03*
X153713180Y-132877560D03*
X153993860Y-135767680D03*
X225493860Y-144567680D03*
X222443860Y-150867680D03*
X223343860Y-110367680D03*
X223543860Y-120067680D03*
X220893860Y-74017680D03*
X222643860Y-79467680D03*
X124543860Y-217367680D03*
X126993860Y-216217680D03*
X131742180Y-191109600D03*
X135948420Y-168000680D03*
X167794940Y-66512440D03*
X171838620Y-66476880D03*
X151716740Y-200802240D03*
X153469340Y-177678080D03*
X155443860Y-204417680D03*
X154002740Y-209260440D03*
X173509940Y-206349600D03*
X186438540Y-210251040D03*
X203563220Y-205480920D03*
X207063340Y-206197200D03*
X204543660Y-204480160D03*
X201322940Y-179948840D03*
X209329020Y-190586360D03*
X162339020Y-194477640D03*
X215668860Y-151058880D03*
X214193860Y-136517680D03*
X214165180Y-117500400D03*
X206672180Y-105049320D03*
X131453860Y-139007680D03*
X133953860Y-146117680D03*
X126513860Y-133747680D03*
X130959860Y-107929680D03*
X122823860Y-140267680D03*
X135277860Y-105389680D03*
X127403860Y-89133680D03*
X124609860Y-91419680D03*
X133245860Y-207751680D03*
X129435860Y-209021680D03*
X125981460Y-191429640D03*
X122120660Y-197886320D03*
X129013860Y-190357680D03*
X129063860Y-184867680D03*
X131673860Y-184807680D03*
X131467860Y-85831680D03*
X126213860Y-171927680D03*
X133245860Y-82529680D03*
X120313860Y-176637680D03*
X127657860Y-71099680D03*
X131353860Y-130927680D03*
X131723860Y-160827680D03*
X123593860Y-67289680D03*
X135213860Y-127057680D03*
X133373860Y-164307680D03*
X127149860Y-115041680D03*
X127873860Y-158027680D03*
X123593860Y-112501680D03*
X123623860Y-155207680D03*
X163343860Y-207417680D03*
X168293860Y-207267680D03*
X213268860Y-218792680D03*
X190502540Y-207873600D03*
X201518860Y-207617680D03*
X193118860Y-207017680D03*
X196493860Y-207092680D03*
X206651860Y-187842680D03*
X159593860Y-188517680D03*
X153723340Y-195498720D03*
X159593860Y-183667680D03*
X215243860Y-178017680D03*
X208993860Y-182617680D03*
X159793940Y-206684880D03*
X176888140Y-212344000D03*
X207743860Y-213267680D03*
X160307020Y-176946560D03*
X206651860Y-191856360D03*
X213266020Y-176245520D03*
X158343860Y-179867680D03*
X154843860Y-181017680D03*
X116593860Y-132517680D03*
X117043860Y-88417680D03*
X116768860Y-65067680D03*
X115893860Y-65617680D03*
X115068860Y-66217680D03*
X114268860Y-66767680D03*
X113368860Y-67317680D03*
X112318860Y-67767680D03*
X111368860Y-68367680D03*
X110110860Y-68353680D03*
X117643860Y-109417680D03*
X116593860Y-109817680D03*
X115743860Y-110417680D03*
X114943860Y-110967680D03*
X114043860Y-111517680D03*
X112993860Y-111967680D03*
X112043860Y-112567680D03*
X110785860Y-112553680D03*
X118068860Y-153867680D03*
X117193860Y-154417680D03*
X116368860Y-155017680D03*
X115568860Y-155567680D03*
X114668860Y-156117680D03*
X113618860Y-156567680D03*
X112668860Y-157167680D03*
X111410860Y-157153680D03*
X204162660Y-70266560D03*
X204177900Y-74858880D03*
X206047340Y-111785400D03*
X206047340Y-114858800D03*
X206616300Y-145069560D03*
X206626460Y-149209760D03*
X158443860Y-55767680D03*
X151543860Y-56917680D03*
X148193860Y-58617680D03*
X137443860Y-61267680D03*
X155393860Y-56467680D03*
X149343860Y-57817680D03*
X140893860Y-62217680D03*
X133343860Y-60217680D03*
X127043860Y-57517680D03*
X130493860Y-58717680D03*
X123543860Y-56017680D03*
X119893860Y-54667680D03*
X220243860Y-124367680D03*
X216643860Y-124667680D03*
X214012780Y-79593440D03*
X210055460Y-130703320D03*
X202577700Y-163372800D03*
X70093860Y-198739460D03*
X109543860Y-206867680D03*
X117843860Y-184317680D03*
X117843860Y-162167680D03*
X119393860Y-140667680D03*
X120843860Y-118517680D03*
X111843860Y-97217680D03*
X112043860Y-74017680D03*
X184304940Y-59537600D03*
X116793860Y-131217680D03*
X115743860Y-133117680D03*
X114943860Y-133667680D03*
X114043860Y-134217680D03*
X112993860Y-134667680D03*
X112043860Y-135267680D03*
X110785860Y-135253680D03*
X117243860Y-87117680D03*
X116193860Y-89017680D03*
X115393860Y-89567680D03*
X114493860Y-90117680D03*
X113443860Y-90567680D03*
X112493860Y-91167680D03*
X111235860Y-91153680D03*
X205193860Y-59942680D03*
X163293860Y-55267680D03*
D38*
X158093860Y-150417680D02*
X158093860Y-150467680D01*
X156943860Y-135417680D02*
X156943860Y-135167680D01*
X156843860Y-135517680D02*
X156943860Y-135417680D01*
X144264380Y-137358160D02*
X144264380Y-140488200D01*
X144097880Y-141213660D02*
X144543860Y-140767680D01*
X144097880Y-141213660D02*
X143070580Y-141213660D01*
X144264380Y-140488200D02*
X144543860Y-140767680D01*
X121353860Y-87767680D02*
X118993860Y-87767680D01*
X118993860Y-87767680D02*
X118843860Y-87617680D01*
D39*
X142918180Y-130553280D02*
X142918180Y-128442720D01*
X142918180Y-128442720D02*
X143550640Y-127810260D01*
D38*
X216518860Y-214417680D02*
X217993860Y-214417680D01*
X217993860Y-214417680D02*
X218043860Y-214367680D01*
X220318860Y-215642680D02*
X220318860Y-215117680D01*
X220318860Y-215117680D02*
X217693860Y-212492680D01*
X216518860Y-214417680D02*
X216518860Y-213667680D01*
X216518860Y-213667680D02*
X217693860Y-212492680D01*
X215393860Y-220392680D02*
X215393860Y-220767680D01*
X215393860Y-220767680D02*
X213718860Y-222442680D01*
X49768860Y-212717680D02*
X49768860Y-214817680D01*
X49768860Y-214817680D02*
X49618860Y-214967680D01*
X46115760Y-208422820D02*
X46115760Y-209889580D01*
X46115760Y-209889580D02*
X46393860Y-210167680D01*
D39*
X51180120Y-203689460D02*
X49240640Y-203689460D01*
X49240640Y-203689460D02*
X49143860Y-203592680D01*
D40*
X199173860Y-61237680D02*
X201733860Y-61237680D01*
D39*
X143611600Y-126301540D02*
X141678800Y-126301540D01*
X141678800Y-126301540D02*
X141610080Y-126370260D01*
D38*
X141843860Y-181867680D02*
X141743860Y-181867680D01*
X142603860Y-181107680D02*
X141843860Y-181867680D01*
X145803860Y-181107680D02*
X142603860Y-181107680D01*
X144264380Y-137358160D02*
X142687180Y-137358160D01*
X142687180Y-137358160D02*
X142445740Y-137599600D01*
X142445740Y-137599600D02*
X142445740Y-140588820D01*
X142445740Y-140588820D02*
X143070580Y-141213660D01*
X143070580Y-141213660D02*
X143070580Y-141094460D01*
X147563860Y-190050420D02*
X147876600Y-190050420D01*
X147876600Y-190050420D02*
X149343860Y-191517680D01*
X158319460Y-193634320D02*
X159277220Y-193634320D01*
X159277220Y-193634320D02*
X159993860Y-192917680D01*
X155619460Y-178452820D02*
X155619460Y-179792080D01*
X155619460Y-179792080D02*
X155593860Y-179817680D01*
X172454530Y-208516230D02*
X172454530Y-208228350D01*
X172454530Y-208228350D02*
X171143860Y-206917680D01*
X168286430Y-204175110D02*
X168286430Y-204410250D01*
X170643860Y-203517680D02*
X170643860Y-202667680D01*
X169793860Y-204367680D02*
X170643860Y-203517680D01*
X168329000Y-204367680D02*
X169793860Y-204367680D01*
X168286430Y-204410250D02*
X168329000Y-204367680D01*
X163308030Y-203252070D02*
X163308030Y-204381850D01*
X168286430Y-204175110D02*
X168286430Y-203201270D01*
X167793860Y-204667680D02*
X168286430Y-204175110D01*
X163593860Y-204667680D02*
X167793860Y-204667680D01*
X163308030Y-204381850D02*
X163593860Y-204667680D01*
X124868860Y-169317680D02*
X124868860Y-169992680D01*
X124868860Y-169992680D02*
X123493860Y-171367680D01*
X145892260Y-149116080D02*
X145892260Y-148310880D01*
X145892260Y-148310880D02*
X146847580Y-147355560D01*
X216060632Y-146129760D02*
X216060632Y-144834452D01*
X216060632Y-144834452D02*
X215993860Y-144767680D01*
X123550860Y-80363680D02*
X123550860Y-78168680D01*
X123550860Y-78168680D02*
X123085860Y-77703680D01*
X124688860Y-103097680D02*
X124688860Y-100992680D01*
X124688860Y-100992680D02*
X124033860Y-100337680D01*
X124048860Y-124757680D02*
X124048860Y-123042680D01*
X124048860Y-123042680D02*
X123713860Y-122707680D01*
X119043860Y-109427680D02*
X118833860Y-109217680D01*
X120713860Y-109427680D02*
X119043860Y-109427680D01*
D40*
X124238860Y-147377680D02*
X124238860Y-145562680D01*
X124238860Y-145562680D02*
X123853860Y-145177680D01*
D38*
X120903860Y-132047680D02*
X119233860Y-132047680D01*
X119233860Y-132047680D02*
X119023860Y-131837680D01*
D40*
X124868860Y-169317680D02*
X124868860Y-170252680D01*
D38*
X121693860Y-152767680D02*
X121913860Y-151437680D01*
X121913860Y-151437680D02*
X121893860Y-151417680D01*
X124868860Y-169317680D02*
X124868860Y-170452680D01*
X112128860Y-192087680D02*
X112128860Y-191692680D01*
X112128860Y-191692680D02*
X113763860Y-190057680D01*
D40*
X122248860Y-213517680D02*
X122248860Y-211252680D01*
X122248860Y-211252680D02*
X122233860Y-211237680D01*
D39*
X59233860Y-215317680D02*
X56843860Y-215317680D01*
X56843860Y-215317680D02*
X56763860Y-215237680D01*
X71703860Y-209347680D02*
X71703860Y-209667680D01*
X71703860Y-209667680D02*
X70293860Y-211077680D01*
X78803860Y-213137680D02*
X78803860Y-211317680D01*
X78803860Y-211317680D02*
X80363860Y-209757680D01*
X67233860Y-218727680D02*
X67233860Y-218457680D01*
X67233860Y-218457680D02*
X68963860Y-216727680D01*
X68943860Y-216727680D02*
X68943860Y-216707680D01*
X67103860Y-212107680D02*
X69873860Y-212107680D01*
X69873860Y-212107680D02*
X69933860Y-212047680D01*
X78533860Y-205357680D02*
X80773860Y-205357680D01*
X80773860Y-205357680D02*
X80813860Y-205317680D01*
D38*
X163926520Y-188526420D02*
X165422600Y-188526420D01*
X165422600Y-188526420D02*
X165433860Y-188537680D01*
X147563860Y-181160420D02*
X145856600Y-181160420D01*
X145856600Y-181160420D02*
X145803860Y-181107680D01*
X202496420Y-187850780D02*
X200980760Y-187850780D01*
X200980760Y-187850780D02*
X200923860Y-187907680D01*
X202534520Y-182643780D02*
X201067760Y-182643780D01*
X201067760Y-182643780D02*
X201043860Y-182667680D01*
X147764520Y-82720180D02*
X147764520Y-83888340D01*
X147764520Y-83888340D02*
X148043860Y-84167680D01*
X147266680Y-95760540D02*
X147266680Y-96444860D01*
X147266680Y-96444860D02*
X146543860Y-97167680D01*
X146613900Y-135417560D02*
X146613900Y-136597640D01*
X146613900Y-136597640D02*
X146543860Y-136667680D01*
X145945840Y-161167680D02*
X146723520Y-161167680D01*
X146723520Y-161167680D02*
X146895840Y-160995360D01*
X207953620Y-177932120D02*
X206779420Y-177932120D01*
X206779420Y-177932120D02*
X206543860Y-178167680D01*
X217560632Y-149079760D02*
X217560632Y-149184452D01*
X217560632Y-149184452D02*
X218043860Y-149667680D01*
D39*
X146525000Y-123055380D02*
X146525000Y-124186540D01*
X146525000Y-124186540D02*
X146043860Y-124667680D01*
X210276480Y-194598280D02*
X210276480Y-194900300D01*
X210276480Y-194900300D02*
X211543860Y-196167680D01*
D38*
X109503860Y-177387680D02*
X109709180Y-176387280D01*
X109709180Y-176387280D02*
X110166380Y-175930080D01*
X155224480Y-142303460D02*
X154172880Y-142303460D01*
X154172880Y-142303460D02*
X153926540Y-142057120D01*
X155224480Y-142303460D02*
X156616360Y-142303460D01*
X156616360Y-142303460D02*
X156644340Y-142331440D01*
X155224480Y-142303460D02*
X155224480Y-140662660D01*
X155224480Y-140662660D02*
X155374340Y-140512800D01*
X155199080Y-148305560D02*
X154053500Y-148305560D01*
X154053500Y-148305560D02*
X153718260Y-148640800D01*
X155199080Y-148305560D02*
X156400460Y-148305560D01*
X156400460Y-148305560D02*
X156451300Y-148254720D01*
X155199080Y-148305560D02*
X155199080Y-149699980D01*
X155199080Y-149699980D02*
X155272740Y-149773640D01*
X144922280Y-150086060D02*
X144922280Y-149405380D01*
X144922280Y-149405380D02*
X144106900Y-148590000D01*
X145059580Y-151876760D02*
X145648680Y-151876760D01*
X145648680Y-151876760D02*
X146588480Y-150936960D01*
X145737580Y-150086060D02*
X146588480Y-150936960D01*
X144922280Y-150086060D02*
X145737580Y-150086060D01*
X145897580Y-149110760D02*
X145892260Y-149116080D01*
X145892260Y-149116080D02*
X144922280Y-150086060D01*
X145059580Y-151876760D02*
X145059580Y-150223360D01*
X145059580Y-150223360D02*
X144922280Y-150086060D01*
X154810460Y-123489760D02*
X154810460Y-125130560D01*
X154810460Y-123489760D02*
X156029620Y-123489760D01*
X156029620Y-123489760D02*
X156100780Y-123418600D01*
X154729180Y-117383520D02*
X153494780Y-117383520D01*
X153494780Y-117383520D02*
X153494740Y-117383560D01*
X154729180Y-117383520D02*
X156019460Y-117383520D01*
X156019460Y-117383520D02*
X156075380Y-117439440D01*
X154729180Y-117383520D02*
X154729180Y-115783360D01*
X154729180Y-115783360D02*
X154785060Y-115727480D01*
X141643060Y-94762320D02*
X140368020Y-94762320D01*
X140368020Y-94762320D02*
X140200380Y-94594680D01*
X141643060Y-94762320D02*
X141643060Y-93385600D01*
X141643060Y-93385600D02*
X141632940Y-93375480D01*
X141643060Y-94762320D02*
X141643060Y-96380160D01*
X141643060Y-96380160D02*
X141508300Y-96514920D01*
X142590480Y-84279740D02*
X141112240Y-84279740D01*
X141112240Y-84279740D02*
X141048740Y-84343240D01*
X142590480Y-84279740D02*
X142590480Y-85478580D01*
X142590480Y-85478580D02*
X142623540Y-85511640D01*
X156385260Y-83357760D02*
X157634900Y-83357760D01*
X157634900Y-83357760D02*
X157767020Y-83225640D01*
X156385260Y-83357760D02*
X156385260Y-85156040D01*
X156385260Y-83357760D02*
X155211740Y-83357760D01*
X155211740Y-83357760D02*
X155039060Y-83530440D01*
D41*
X220193860Y-54317680D02*
X218339660Y-54317680D01*
X218339660Y-54317680D02*
X218639380Y-54617400D01*
X218639380Y-54617400D02*
X234820460Y-57392560D01*
X235501180Y-178744880D02*
X237578900Y-178744880D01*
X238132620Y-178191160D02*
X238132620Y-169580560D01*
X237578900Y-178744880D02*
X238132620Y-178191160D01*
X235262420Y-170956600D02*
X236756580Y-170956600D01*
X236756580Y-170956600D02*
X238132620Y-169580560D01*
X238132620Y-169580560D02*
X238132620Y-165272720D01*
X235262420Y-165956600D02*
X237448740Y-165956600D01*
X238132620Y-165272720D02*
X238132620Y-155041600D01*
X237448740Y-165956600D02*
X238132620Y-165272720D01*
X235023660Y-156911040D02*
X236263180Y-156911040D01*
X238132620Y-155041600D02*
X238132620Y-147096480D01*
X236263180Y-156911040D02*
X238132620Y-155041600D01*
X234980480Y-148939880D02*
X236289220Y-148939880D01*
X238132620Y-147096480D02*
X238132620Y-142016480D01*
X236289220Y-148939880D02*
X238132620Y-147096480D01*
X234980480Y-143939880D02*
X236209220Y-143939880D01*
X238132620Y-142016480D02*
X238132620Y-124734320D01*
X236209220Y-143939880D02*
X238132620Y-142016480D01*
X234972860Y-126008760D02*
X236858180Y-126008760D01*
X238132620Y-124734320D02*
X238132620Y-119298720D01*
X236858180Y-126008760D02*
X238132620Y-124734320D01*
X234972860Y-121008760D02*
X236422580Y-121008760D01*
X238132620Y-119298720D02*
X238132620Y-111638080D01*
X236422580Y-121008760D02*
X238132620Y-119298720D01*
X234546140Y-112095280D02*
X237675420Y-112095280D01*
X238132620Y-111638080D02*
X238132620Y-104018080D01*
X237675420Y-112095280D02*
X238132620Y-111638080D01*
X234464860Y-104262560D02*
X237888140Y-104262560D01*
X238132620Y-104018080D02*
X238132620Y-97734120D01*
X237888140Y-104262560D02*
X238132620Y-104018080D01*
X234464860Y-99262560D02*
X236604180Y-99262560D01*
X238132620Y-97734120D02*
X238132620Y-89748360D01*
X236604180Y-99262560D02*
X238132620Y-97734120D01*
X234891580Y-90230960D02*
X237650020Y-90230960D01*
X238132620Y-89748360D02*
X238132620Y-81681320D01*
X237650020Y-90230960D02*
X238132620Y-89748360D01*
X234744260Y-82012160D02*
X237801780Y-82012160D01*
X238132620Y-81681320D02*
X238132620Y-76362560D01*
X237801780Y-82012160D02*
X238132620Y-81681320D01*
X234744260Y-77012160D02*
X237483020Y-77012160D01*
X238132620Y-76362560D02*
X238132620Y-68148200D01*
X237483020Y-77012160D02*
X238132620Y-76362560D01*
X234779820Y-69408040D02*
X236872780Y-69408040D01*
X238132620Y-68148200D02*
X238132620Y-61671200D01*
X236872780Y-69408040D02*
X238132620Y-68148200D01*
X234820460Y-57392560D02*
X236957860Y-57392560D01*
X237411260Y-62392560D02*
X234820460Y-62392560D01*
X238132620Y-61671200D02*
X237411260Y-62392560D01*
X238132620Y-58567320D02*
X238132620Y-61671200D01*
X236957860Y-57392560D02*
X238132620Y-58567320D01*
D38*
X160867530Y-218856697D02*
X160867530Y-220902090D01*
X160867530Y-220902090D02*
X160754060Y-221015560D01*
X156461460Y-130383240D02*
X157680620Y-130383240D01*
X157680620Y-130383240D02*
X157700980Y-130403600D01*
X154876500Y-130383240D02*
X153677580Y-130383240D01*
X153677580Y-130383240D02*
X153626820Y-130332480D01*
X154876500Y-130383240D02*
X154876500Y-128935480D01*
X154876500Y-128935480D02*
X154774900Y-128833880D01*
X156461460Y-130383240D02*
X156461460Y-128757680D01*
X156461460Y-128757680D02*
X156370020Y-128666240D01*
X169757530Y-218856697D02*
X171620317Y-218856697D01*
X171620317Y-218856697D02*
X171711620Y-218948000D01*
X141610080Y-126370260D02*
X141610080Y-127957580D01*
X141610080Y-127957580D02*
X141599920Y-127967740D01*
X143611600Y-126301540D02*
X145049200Y-126301540D01*
X145049200Y-126301540D02*
X145049240Y-126301500D01*
X143611600Y-126301540D02*
X143611600Y-127749300D01*
X143611600Y-127749300D02*
X143550640Y-127810260D01*
X142313660Y-118193640D02*
X143324580Y-116911120D01*
X143324580Y-116911120D02*
X143390620Y-116845080D01*
X156316680Y-90548420D02*
X157667920Y-90548420D01*
X157667920Y-90548420D02*
X157723840Y-90604340D01*
X156316680Y-90548420D02*
X156316680Y-88795860D01*
X156316680Y-88795860D02*
X156352240Y-88760300D01*
X156316680Y-90548420D02*
X155066960Y-90548420D01*
X155066960Y-90548420D02*
X155056840Y-90538300D01*
X157231080Y-96796900D02*
X157269220Y-98216760D01*
X157269220Y-98216760D02*
X157284420Y-98231960D01*
X157231080Y-96796900D02*
X158767780Y-96829880D01*
X158767780Y-96829880D02*
X158783020Y-96845120D01*
X157200600Y-96862940D02*
X155712120Y-96862940D01*
X155712120Y-96862940D02*
X155610560Y-96964500D01*
X119612180Y-198209820D02*
X119612180Y-196548840D01*
X119612180Y-196548840D02*
X119723940Y-196437080D01*
X144233940Y-163065460D02*
X144233940Y-161797960D01*
X144233940Y-161797960D02*
X144294860Y-161737040D01*
X155856940Y-155905160D02*
X157502900Y-155905160D01*
X157502900Y-155905160D02*
X157589220Y-155818840D01*
X155856940Y-161780260D02*
X157515600Y-161780260D01*
X157515600Y-161780260D02*
X157548580Y-161813240D01*
X154266900Y-109524840D02*
X153438820Y-109524840D01*
X153438820Y-109524840D02*
X152844500Y-110119160D01*
X147294780Y-112740440D02*
X147294780Y-114307440D01*
X147294780Y-114307440D02*
X147083780Y-114518440D01*
X218874380Y-71729600D02*
X218874380Y-72415440D01*
X218874380Y-72415440D02*
X219468700Y-73009760D01*
X218874380Y-70154800D02*
X218874380Y-68833960D01*
X218874380Y-68833960D02*
X218935300Y-68773040D01*
X151879480Y-74703940D02*
X153375360Y-74739500D01*
X153375360Y-74739500D02*
X153416000Y-74698860D01*
X151488320Y-87485220D02*
X153055320Y-87485220D01*
X153055320Y-87485220D02*
X153070560Y-87500460D01*
X196639180Y-203029820D02*
X196639180Y-200878440D01*
X195633340Y-199872600D02*
X195587620Y-199872600D01*
X196639180Y-200878440D02*
X195633340Y-199872600D01*
X201249280Y-203042520D02*
X201249280Y-200413620D01*
X201249280Y-200413620D02*
X200245980Y-199410320D01*
X205868230Y-208630530D02*
X205868230Y-207105210D01*
X205868230Y-207105210D02*
X205844140Y-207081120D01*
X146121140Y-108280200D02*
X146121140Y-108526600D01*
X146121140Y-108526600D02*
X147231140Y-109636600D01*
X147231140Y-109636600D02*
X147231140Y-110937040D01*
X154266900Y-109524840D02*
X155516620Y-109524840D01*
X155516620Y-109524840D02*
X155602940Y-109611160D01*
X154266900Y-109524840D02*
X154266900Y-110947200D01*
X154266900Y-110947200D02*
X154139900Y-111074200D01*
X154343100Y-103337320D02*
X153545500Y-103337320D01*
X153545500Y-103337320D02*
X152849580Y-102641400D01*
X154343100Y-103337320D02*
X155806180Y-103362720D01*
X155806180Y-103362720D02*
X155887420Y-103281480D01*
X154343100Y-103337320D02*
X154343100Y-101569520D01*
X154343100Y-101569520D02*
X154378660Y-101533960D01*
X141406700Y-105384600D02*
X141406700Y-104564000D01*
X141406700Y-104564000D02*
X140444220Y-103601520D01*
X147294780Y-112740440D02*
X148638260Y-112740440D01*
X148638260Y-112740440D02*
X149405340Y-111973360D01*
X147231140Y-110937040D02*
X148369020Y-110937040D01*
X148369020Y-110937040D02*
X149405340Y-111973360D01*
X219306180Y-143367760D02*
X219306180Y-144741860D01*
X219306180Y-144741860D02*
X219295980Y-144752060D01*
X219306180Y-143367760D02*
X220908880Y-143367760D01*
X220908880Y-143367760D02*
X220946980Y-143329660D01*
X219318880Y-141691360D02*
X220908880Y-141691360D01*
X220908880Y-141691360D02*
X220959680Y-141640560D01*
X219318880Y-141691360D02*
X219318880Y-140233360D01*
X219318880Y-140233360D02*
X219321380Y-140230860D01*
X219318880Y-141691360D02*
X219318880Y-143355060D01*
X219318880Y-143355060D02*
X219306180Y-143367760D01*
X225183880Y-146695160D02*
X226293680Y-146695160D01*
X226293680Y-146695160D02*
X227144580Y-147546060D01*
X225183880Y-146695160D02*
X225183880Y-148485860D01*
X225183880Y-148485860D02*
X225158480Y-148511260D01*
X218975980Y-153680160D02*
X218975980Y-155163560D01*
X218975980Y-155163560D02*
X219029280Y-155216860D01*
X218975980Y-153680160D02*
X220464380Y-153680160D01*
X220464380Y-153680160D02*
X220553280Y-153769060D01*
X218975980Y-152067260D02*
X220477080Y-152067260D01*
X220477080Y-152067260D02*
X220540580Y-152130760D01*
X218975980Y-152067260D02*
X218975980Y-150769360D01*
X218975980Y-150769360D02*
X218927680Y-150721060D01*
X218975980Y-153680160D02*
X218975980Y-152067260D01*
X217725486Y-119426194D02*
X218130594Y-119426194D01*
X218130594Y-119426194D02*
X218869260Y-120164860D01*
X217725486Y-121102594D02*
X217931526Y-121102594D01*
X217931526Y-121102594D02*
X218869260Y-120164860D01*
X217725486Y-119426194D02*
X217725486Y-116803886D01*
X217725486Y-116803886D02*
X217305460Y-116383860D01*
X217305460Y-116383860D02*
X216905460Y-116383860D01*
X218974395Y-79136537D02*
X218974395Y-78511537D01*
X218974395Y-78511537D02*
X217493258Y-77030400D01*
X217493258Y-77030400D02*
X217451332Y-77030400D01*
X224482660Y-115897660D02*
X225168460Y-115897660D01*
X225168460Y-115897660D02*
X225981260Y-115084860D01*
X224490460Y-114221260D02*
X225117660Y-114221260D01*
X225117660Y-114221260D02*
X225981260Y-115084860D01*
X226316580Y-76951800D02*
X227093780Y-76174600D01*
X226331780Y-75412600D02*
X227093780Y-76174600D01*
X215405460Y-113433860D02*
X215405460Y-112630460D01*
X215405460Y-112630460D02*
X215440260Y-112595660D01*
X218549260Y-110690660D02*
X218767660Y-110690660D01*
X218767660Y-110690660D02*
X219605860Y-109852460D01*
X219605860Y-109347860D02*
X219605860Y-109852460D01*
X218549260Y-109141260D02*
X219399260Y-109141260D01*
X219399260Y-109141260D02*
X219605860Y-109347860D01*
X215951332Y-74080400D02*
X215302012Y-72775832D01*
X215302012Y-72775832D02*
X215293860Y-72767680D01*
X218974395Y-79136537D02*
X218974395Y-79934137D01*
X218974395Y-79934137D02*
X219040395Y-80000137D01*
X219025195Y-80762137D02*
X219025195Y-80015337D01*
X219025195Y-80015337D02*
X219040395Y-80000137D01*
X218874380Y-71729600D02*
X218874380Y-71694000D01*
X219179180Y-71795600D02*
X219956380Y-71018400D01*
X218874380Y-70154800D02*
X218889580Y-70154800D01*
X219194380Y-70256400D02*
X219956380Y-71018400D01*
X156319220Y-77053400D02*
X157612120Y-77053400D01*
X157612120Y-77053400D02*
X157627320Y-77038200D01*
X156319220Y-77053400D02*
X154919720Y-77053400D01*
X154919720Y-77053400D02*
X154909520Y-77063600D01*
X156319220Y-77053400D02*
X156319220Y-75488800D01*
X156319220Y-75488800D02*
X156370020Y-75438000D01*
X142529380Y-82501740D02*
X142529380Y-84218640D01*
X142529380Y-84218640D02*
X142590480Y-84279740D01*
X155856940Y-155905160D02*
X155668940Y-155905160D01*
X155668940Y-155905160D02*
X154701240Y-154937460D01*
X155856940Y-161780260D02*
X155856940Y-162176460D01*
X155856940Y-162176460D02*
X154866340Y-163167060D01*
X156077930Y-210397130D02*
X154733030Y-210397130D01*
X154733030Y-210397130D02*
X154595830Y-210259930D01*
X219930980Y-181627780D02*
X218478080Y-181627780D01*
X220527880Y-181030880D02*
X219930980Y-181627780D01*
X218478080Y-190517780D02*
X219232480Y-190517780D01*
X219232480Y-190517780D02*
X220134180Y-191419480D01*
X202692830Y-218115563D02*
X202692830Y-219647330D01*
X202692830Y-219647330D02*
X203046330Y-220000830D01*
X193802830Y-218115563D02*
X193802830Y-219135130D01*
X193802830Y-219135130D02*
X193013330Y-219924630D01*
X188907430Y-211197230D02*
X187465930Y-211197230D01*
X187465930Y-211197230D02*
X187095130Y-211568030D01*
X164104320Y-183763920D02*
X165605460Y-183662320D01*
X165605460Y-183662320D02*
X165694360Y-183751220D01*
X144371240Y-164843460D02*
X144358540Y-163190060D01*
X144358540Y-163190060D02*
X144762540Y-162786060D01*
X144762540Y-162786060D02*
X145595340Y-162786060D01*
X141498140Y-158442660D02*
X140248640Y-158442660D01*
X140248640Y-158442660D02*
X139766040Y-158925260D01*
X145945840Y-160995360D02*
X145945840Y-161167680D01*
X145945840Y-161167680D02*
X145945840Y-162435560D01*
X145945840Y-162435560D02*
X145595340Y-162786060D01*
X235501180Y-178744880D02*
X235501180Y-178704240D01*
X234988100Y-134371080D02*
X234988100Y-134147560D01*
X234820460Y-62392560D02*
X235526580Y-62392560D01*
X235059220Y-156961840D02*
X235684060Y-156961840D01*
X122143860Y-64617680D02*
X122253860Y-63227680D01*
X122253860Y-63227680D02*
X122043860Y-63017680D01*
X143611600Y-124401540D02*
X143611600Y-121897500D01*
X143611600Y-121897500D02*
X143578400Y-121864300D01*
X143578400Y-121864300D02*
X146446080Y-121864300D01*
X146446080Y-121864300D02*
X146525000Y-121785380D01*
X139697460Y-122095440D02*
X143578400Y-121864300D01*
X143611600Y-124401540D02*
X141841360Y-124401540D01*
X141841360Y-124401540D02*
X141610080Y-124170260D01*
X143850320Y-124162820D02*
X143611600Y-124401540D01*
D39*
X172427900Y-112720120D02*
X161396300Y-112720120D01*
X158993860Y-94767680D02*
X157360300Y-94767680D01*
X159893860Y-95667680D02*
X158993860Y-94767680D01*
X159893860Y-111217680D02*
X159893860Y-95667680D01*
X161396300Y-112720120D02*
X159893860Y-111217680D01*
X157360300Y-94767680D02*
X157231080Y-94896900D01*
D38*
X151615320Y-89217500D02*
X151615320Y-90693060D01*
X151460200Y-94490540D02*
X152666680Y-94490540D01*
X150756620Y-93786960D02*
X151460200Y-94490540D01*
X150756620Y-91551760D02*
X150756620Y-93786960D01*
X151615320Y-90693060D02*
X150756620Y-91551760D01*
X153616680Y-94490540D02*
X156728200Y-94490540D01*
X156728200Y-94490540D02*
X157200600Y-94962940D01*
X152461320Y-94490540D02*
X153616680Y-94490540D01*
X142212060Y-89517400D02*
X142212060Y-91699080D01*
X143543060Y-93030080D02*
X143543060Y-94762320D01*
X142212060Y-91699080D02*
X143543060Y-93030080D01*
X143543060Y-94762320D02*
X143543060Y-96349680D01*
X143543060Y-96349680D02*
X143708300Y-96514920D01*
X147266680Y-94490540D02*
X143814840Y-94490540D01*
X143814840Y-94490540D02*
X143543060Y-94762320D01*
X216951332Y-74080400D02*
X216951332Y-71752648D01*
X216951332Y-71752648D02*
X216974380Y-71729600D01*
X215226332Y-76305400D02*
X215226332Y-76735208D01*
X215226332Y-76735208D02*
X213943860Y-78017680D01*
X214680460Y-115658860D02*
X214680460Y-115881080D01*
X213193860Y-117367680D02*
X213193860Y-118167680D01*
X214680460Y-115881080D02*
X213193860Y-117367680D01*
D39*
X215335632Y-148354760D02*
X215335632Y-148725908D01*
X215335632Y-148725908D02*
X214293860Y-149767680D01*
D38*
X217293860Y-220392680D02*
X220168860Y-220392680D01*
X220168860Y-220392680D02*
X220318860Y-220242680D01*
X49768860Y-210817680D02*
X49768860Y-209700720D01*
X49768860Y-209700720D02*
X51180120Y-208289460D01*
D39*
X153593860Y-132877560D02*
X153713180Y-132877560D01*
X62633860Y-218727680D02*
X62633860Y-216817680D01*
X62633860Y-216817680D02*
X61133860Y-215317680D01*
X74203860Y-213137680D02*
X74203860Y-209947680D01*
X74203860Y-209947680D02*
X73603860Y-209347680D01*
D38*
X152247580Y-144815560D02*
X154612380Y-144815560D01*
X154612380Y-144815560D02*
X155224480Y-144203460D01*
X151925000Y-120515380D02*
X153497320Y-120515380D01*
X153497320Y-120515380D02*
X154729180Y-119283520D01*
X154876500Y-132283240D02*
X154307500Y-132283240D01*
X153593860Y-132877560D02*
X152013900Y-132877560D01*
X154307500Y-132283240D02*
X153713180Y-132877560D01*
X151925000Y-120515380D02*
X152875000Y-120515380D01*
X153636980Y-93220540D02*
X152666680Y-93220540D01*
X153164520Y-80180180D02*
X155092440Y-80180180D01*
X155092440Y-80180180D02*
X156319220Y-78953400D01*
X153616680Y-93220540D02*
X153636980Y-93220540D01*
X153636980Y-93220540D02*
X155544560Y-93220540D01*
X155544560Y-93220540D02*
X156316680Y-92448420D01*
X151521140Y-105740200D02*
X153840220Y-105740200D01*
X153840220Y-105740200D02*
X154343100Y-105237320D01*
X211335620Y-154592200D02*
X213083140Y-154592200D01*
X213083140Y-154592200D02*
X213085680Y-154589660D01*
X217406180Y-143367760D02*
X217406180Y-145092460D01*
X217060632Y-145438008D02*
X217060632Y-146129760D01*
X217406180Y-145092460D02*
X217060632Y-145438008D01*
X217418880Y-141691360D02*
X217418880Y-143355060D01*
X217418880Y-143355060D02*
X217406180Y-143367760D01*
X210080860Y-120071060D02*
X211757260Y-120071060D01*
X216405460Y-113433860D02*
X216405460Y-110934460D01*
X216405460Y-110934460D02*
X216649260Y-110690660D01*
X216649260Y-109141260D02*
X216649260Y-110690660D01*
X216951332Y-71752648D02*
X216974380Y-71729600D01*
X216974380Y-71729600D02*
X216974380Y-70154800D01*
X153245840Y-158455360D02*
X155206740Y-158455360D01*
X155206740Y-158455360D02*
X155856940Y-157805160D01*
X194337940Y-112750600D02*
X196512180Y-112750600D01*
X159717740Y-156019460D02*
X155856940Y-159880260D01*
X159717740Y-136103360D02*
X159717740Y-156019460D01*
X166057580Y-129763520D02*
X159717740Y-136103360D01*
X195318380Y-129763520D02*
X166057580Y-129763520D01*
X198122540Y-126959360D02*
X195318380Y-129763520D01*
X198122540Y-114360960D02*
X198122540Y-126959360D01*
X196512180Y-112750600D02*
X198122540Y-114360960D01*
X150683140Y-153845260D02*
X150683140Y-158450460D01*
X151958040Y-159725360D02*
X153245840Y-159725360D01*
X150683140Y-158450460D02*
X151958040Y-159725360D01*
X155856940Y-159880260D02*
X153400740Y-159880260D01*
X153400740Y-159880260D02*
X153245840Y-159725360D01*
X146895840Y-159725360D02*
X145945840Y-159725360D01*
X144122140Y-159725360D02*
X145945840Y-159725360D01*
X144122140Y-159725360D02*
X142839440Y-161008060D01*
X142171240Y-164843460D02*
X142158540Y-163240860D01*
X142158540Y-163240860D02*
X142821840Y-162577560D01*
X142821840Y-162577560D02*
X142821840Y-161008060D01*
X142821840Y-161008060D02*
X142839440Y-161008060D01*
X150672980Y-140141960D02*
X150672980Y-145123080D01*
X150672980Y-145123080D02*
X151635460Y-146085560D01*
X151635460Y-146085560D02*
X152247580Y-146085560D01*
X155199080Y-146405560D02*
X156050020Y-146405560D01*
X197485422Y-118438082D02*
X194337940Y-115290600D01*
X197485422Y-126915758D02*
X197485422Y-118438082D01*
X195089780Y-129311400D02*
X197485422Y-126915758D01*
X165493700Y-129311400D02*
X195089780Y-129311400D01*
X159204660Y-135600440D02*
X165493700Y-129311400D01*
X159204660Y-143250920D02*
X159204660Y-135600440D01*
X156050020Y-146405560D02*
X159204660Y-143250920D01*
X155199080Y-146405560D02*
X152567580Y-146405560D01*
X152567580Y-146405560D02*
X152247580Y-146085560D01*
X145872180Y-146110960D02*
X146822180Y-146110960D01*
X146822180Y-146110960D02*
X146847580Y-146085560D01*
X142859580Y-151876760D02*
X142859580Y-150248760D01*
X142859580Y-150248760D02*
X143022280Y-150086060D01*
X143129180Y-146110960D02*
X143129180Y-149979160D01*
X143129180Y-149979160D02*
X143022280Y-150086060D01*
X143129180Y-146110960D02*
X145872180Y-146110960D01*
X145872180Y-146110960D02*
X145897580Y-146085560D01*
D39*
X156385260Y-81457760D02*
X158733940Y-81457760D01*
X166956300Y-110180120D02*
X172427900Y-110180120D01*
X161293860Y-104517680D02*
X166956300Y-110180120D01*
X161293860Y-84017680D02*
X161293860Y-104517680D01*
X158733940Y-81457760D02*
X161293860Y-84017680D01*
D38*
X153164520Y-81450180D02*
X155148320Y-81450180D01*
X155148320Y-81450180D02*
X156385260Y-81457760D01*
X151823600Y-76558140D02*
X151798200Y-80485160D01*
X152222200Y-80909160D02*
X153164520Y-81450180D01*
X151798200Y-80485160D02*
X152222200Y-80909160D01*
X156319260Y-81391760D02*
X156385260Y-81457760D01*
X144729380Y-82501740D02*
X144729380Y-84040840D01*
X144729380Y-84040840D02*
X144490480Y-84279740D01*
X147764520Y-81450180D02*
X145780940Y-81450180D01*
X145780940Y-81450180D02*
X144729380Y-82501740D01*
X143512720Y-76273660D02*
X143512720Y-78724940D01*
X146237960Y-81450180D02*
X147764520Y-81450180D01*
X143512720Y-78724940D02*
X146237960Y-81450180D01*
X144729380Y-84040840D02*
X144490480Y-84279740D01*
D39*
X154266900Y-107624840D02*
X154701020Y-107624840D01*
X162336300Y-115260120D02*
X172427900Y-115260120D01*
X154701020Y-107624840D02*
X162336300Y-115260120D01*
D38*
X151521140Y-107010200D02*
X153652260Y-107010200D01*
X153652260Y-107010200D02*
X154266900Y-107624840D01*
X150058300Y-101244400D02*
X150058300Y-106011800D01*
X150058300Y-106011800D02*
X151056700Y-107010200D01*
X151056700Y-107010200D02*
X151521140Y-107010200D01*
X150383420Y-128717040D02*
X150383420Y-133520360D01*
X151010620Y-134147560D02*
X152013900Y-134147560D01*
X150383420Y-133520360D02*
X151010620Y-134147560D01*
X156461460Y-132283240D02*
X161759860Y-132283240D01*
X197035420Y-120528080D02*
X194337940Y-117830600D01*
X197035420Y-126400560D02*
X197035420Y-120528080D01*
X194632580Y-128803400D02*
X197035420Y-126400560D01*
X165239700Y-128803400D02*
X194632580Y-128803400D01*
X161759860Y-132283240D02*
X165239700Y-128803400D01*
X156461460Y-132283240D02*
X156461460Y-133375400D01*
X155689300Y-134147560D02*
X152013900Y-134147560D01*
X156461460Y-133375400D02*
X155689300Y-134147560D01*
X146121140Y-107010200D02*
X142351940Y-107010200D01*
X142351940Y-107010200D02*
X142021740Y-107340400D01*
X145094780Y-112740440D02*
X145094780Y-111173400D01*
X145094780Y-111173400D02*
X145331140Y-110937040D01*
X145331140Y-110937040D02*
X144924780Y-110937040D01*
X144924780Y-110937040D02*
X143883380Y-109895640D01*
X143883380Y-109895640D02*
X143883380Y-108183680D01*
X143883380Y-108183680D02*
X145056860Y-107010200D01*
X145056860Y-107010200D02*
X146121140Y-107010200D01*
X140149580Y-134632880D02*
X141663780Y-134632880D01*
X141663780Y-134632880D02*
X142166340Y-135135440D01*
X142445740Y-135399600D02*
X144205820Y-135399600D01*
X144205820Y-135399600D02*
X144264380Y-135458160D01*
X146613900Y-134147560D02*
X145574980Y-134147560D01*
X145574980Y-134147560D02*
X144264380Y-135458160D01*
X215825486Y-121102594D02*
X215825486Y-119426194D01*
X216405460Y-116383860D02*
X216405460Y-118846220D01*
X216405460Y-118846220D02*
X215825486Y-119426194D01*
X217075980Y-153680160D02*
X217075980Y-152067260D01*
X217075980Y-152067260D02*
X217075980Y-149095108D01*
X217075980Y-149095108D02*
X217060632Y-149079760D01*
X216951332Y-77655400D02*
X217074395Y-77778463D01*
X217074395Y-77778463D02*
X217074395Y-79136537D01*
X217125195Y-80762137D02*
X217125195Y-79187337D01*
X217125195Y-79187337D02*
X217074395Y-79136537D01*
X216951332Y-77655400D02*
X216951332Y-77030400D01*
X218285632Y-146854760D02*
X219606780Y-146854760D01*
X221893860Y-144567680D02*
X225493860Y-144567680D01*
X219606780Y-146854760D02*
X221893860Y-144567680D01*
X218285632Y-148354760D02*
X219930940Y-148354760D01*
X219930940Y-148354760D02*
X222443860Y-150867680D01*
X217630460Y-114158860D02*
X219052680Y-114158860D01*
X222843860Y-110367680D02*
X223343860Y-110367680D01*
X219052680Y-114158860D02*
X222843860Y-110367680D01*
X217630460Y-115658860D02*
X219135040Y-115658860D01*
X219135040Y-115658860D02*
X223543860Y-120067680D01*
X219948900Y-74805400D02*
X220106140Y-74805400D01*
X218176332Y-74805400D02*
X219948900Y-74805400D01*
X220106140Y-74805400D02*
X220893860Y-74017680D01*
X222643860Y-79467680D02*
X222631700Y-79479840D01*
X218176332Y-76305400D02*
X219457260Y-76305400D01*
X219457260Y-76305400D02*
X222631700Y-79479840D01*
X222631700Y-79479840D02*
X222664020Y-79512160D01*
X218176332Y-76305400D02*
X218401332Y-76305400D01*
X205117700Y-228960680D02*
X205117700Y-221533720D01*
X220390720Y-184167780D02*
X218478080Y-184167780D01*
X222867220Y-186644280D02*
X220390720Y-184167780D01*
X222867220Y-203784200D02*
X222867220Y-186644280D01*
X205117700Y-221533720D02*
X222867220Y-203784200D01*
X218478080Y-185437780D02*
X220212920Y-185437780D01*
X201617700Y-224368240D02*
X201617700Y-228960680D01*
X222318580Y-203667360D02*
X201617700Y-224368240D01*
X222318580Y-187543440D02*
X222318580Y-203667360D01*
X220212920Y-185437780D02*
X222318580Y-187543440D01*
X218478080Y-186707780D02*
X220182440Y-186707780D01*
X198117700Y-227014800D02*
X198117700Y-228960680D01*
X221805500Y-203327000D02*
X198117700Y-227014800D01*
X221805500Y-188330840D02*
X221805500Y-203327000D01*
X220182440Y-186707780D02*
X221805500Y-188330840D01*
X218579680Y-186809380D02*
X218478080Y-186707780D01*
X194617700Y-228960680D02*
X194617700Y-225196040D01*
X219928440Y-187977780D02*
X218478080Y-187977780D01*
X221272100Y-189321440D02*
X219928440Y-187977780D01*
X221272100Y-203128880D02*
X221272100Y-189321440D01*
X201277220Y-223123760D02*
X221272100Y-203128880D01*
X196689980Y-223123760D02*
X201277220Y-223123760D01*
X194617700Y-225196040D02*
X196689980Y-223123760D01*
X191117700Y-228960680D02*
X191117700Y-225119720D01*
X200152830Y-219538990D02*
X200152830Y-218115563D01*
X197152260Y-222539560D02*
X200152830Y-219538990D01*
X193697860Y-222539560D02*
X197152260Y-222539560D01*
X191117700Y-225119720D02*
X193697860Y-222539560D01*
X198882830Y-218115563D02*
X198882830Y-219173230D01*
X187617700Y-224845280D02*
X187617700Y-228960680D01*
X190456820Y-222006160D02*
X187617700Y-224845280D01*
X196049900Y-222006160D02*
X190456820Y-222006160D01*
X198882830Y-219173230D02*
X196049900Y-222006160D01*
X184117700Y-228960680D02*
X184117700Y-226369160D01*
X197612830Y-219371350D02*
X197612830Y-218115563D01*
X195506340Y-221477840D02*
X197612830Y-219371350D01*
X189009020Y-221477840D02*
X195506340Y-221477840D01*
X184117700Y-226369160D02*
X189009020Y-221477840D01*
X196342830Y-218115563D02*
X196342830Y-219249430D01*
X188664420Y-220913960D02*
X180617700Y-228960680D01*
X194678300Y-220913960D02*
X188664420Y-220913960D01*
X196342830Y-219249430D02*
X194678300Y-220913960D01*
X163407530Y-218856697D02*
X163407530Y-219569470D01*
X163407530Y-219569470D02*
X166617700Y-222779640D01*
X166617700Y-222779640D02*
X166617700Y-228960680D01*
X164677530Y-218856697D02*
X164677530Y-220203072D01*
X170117700Y-225643242D02*
X170117700Y-228960680D01*
X164677530Y-220203072D02*
X170117700Y-225643242D01*
X165947530Y-218856697D02*
X165947530Y-220737870D01*
X165947530Y-220737870D02*
X173617700Y-228408040D01*
X173617700Y-228408040D02*
X173617700Y-228960680D01*
X167217530Y-218856697D02*
X167217530Y-221174750D01*
X174938380Y-226781360D02*
X177117700Y-228960680D01*
X172824140Y-226781360D02*
X174938380Y-226781360D01*
X167217530Y-221174750D02*
X172824140Y-226781360D01*
X147563860Y-183700420D02*
X144901920Y-183700420D01*
X152617700Y-217319120D02*
X152617700Y-228960680D01*
X146992340Y-211693760D02*
X152617700Y-217319120D01*
X146992340Y-196240400D02*
X146992340Y-211693760D01*
X143837660Y-193085720D02*
X146992340Y-196240400D01*
X143837660Y-184764680D02*
X143837660Y-193085720D01*
X144901920Y-183700420D02*
X143837660Y-184764680D01*
X156117700Y-228960680D02*
X156117700Y-219828520D01*
X145125440Y-184970420D02*
X147563860Y-184970420D01*
X144310100Y-185785760D02*
X145125440Y-184970420D01*
X144310100Y-192589278D02*
X144310100Y-185785760D01*
X147510500Y-195789678D02*
X144310100Y-192589278D01*
X147510500Y-211221320D02*
X147510500Y-195789678D01*
X156117700Y-219828520D02*
X147510500Y-211221320D01*
X147563860Y-186240420D02*
X146583400Y-186240420D01*
X159617700Y-222622400D02*
X159617700Y-228960680D01*
X148043900Y-211048600D02*
X159617700Y-222622400D01*
X148043900Y-195686680D02*
X148043900Y-211048600D01*
X144914620Y-192557400D02*
X148043900Y-195686680D01*
X144914620Y-187909200D02*
X144914620Y-192557400D01*
X146583400Y-186240420D02*
X144914620Y-187909200D01*
X147525760Y-186202320D02*
X147563860Y-186240420D01*
X147551160Y-186253120D02*
X147563860Y-186240420D01*
X163117700Y-228960680D02*
X163117700Y-225182600D01*
X146044920Y-187510420D02*
X147563860Y-187510420D01*
X145417540Y-188137800D02*
X146044920Y-187510420D01*
X145417540Y-192074800D02*
X145417540Y-188137800D01*
X148567140Y-195224400D02*
X145417540Y-192074800D01*
X148567140Y-210632040D02*
X148567140Y-195224400D01*
X163117700Y-225182600D02*
X148567140Y-210632040D01*
X168936670Y-203201270D02*
X168936670Y-200135490D01*
X168936670Y-200135490D02*
X170159680Y-198912480D01*
X167636190Y-203201270D02*
X167636190Y-198895970D01*
X167636190Y-198895970D02*
X170159680Y-196372480D01*
X162657790Y-203252070D02*
X162657790Y-198794370D01*
X162657790Y-198794370D02*
X170159680Y-191292480D01*
X163958270Y-203252070D02*
X163958270Y-200033890D01*
X163958270Y-200033890D02*
X170159680Y-193832480D01*
X163926520Y-189176660D02*
X169979340Y-189176660D01*
X163926520Y-189176660D02*
X164515800Y-189176660D01*
X169979340Y-189176660D02*
X170393360Y-188762640D01*
X163926520Y-187876180D02*
X164160200Y-187876180D01*
X164160200Y-187876180D02*
X165813740Y-186222640D01*
X165813740Y-186222640D02*
X170393360Y-186222640D01*
X163964620Y-183088280D02*
X163964620Y-182382160D01*
X163964620Y-182382160D02*
X165204140Y-181142640D01*
X163964620Y-183088280D02*
X163964620Y-183055260D01*
X165204140Y-181142640D02*
X170393360Y-181142640D01*
X163964620Y-184388760D02*
X169687240Y-184388760D01*
X169687240Y-184388760D02*
X170393360Y-183682640D01*
D40*
X169148400Y-174817680D02*
X170393360Y-176062640D01*
X147143860Y-174817680D02*
X169148400Y-174817680D01*
X139443860Y-182517680D02*
X147143860Y-174817680D01*
X139443860Y-212667680D02*
X139443860Y-182517680D01*
X134343860Y-217767680D02*
X139443860Y-212667680D01*
X124943860Y-217767680D02*
X134343860Y-217767680D01*
X124543860Y-217367680D02*
X124943860Y-217767680D01*
X131643860Y-216217680D02*
X134693860Y-216217680D01*
X131643860Y-216217680D02*
X126993860Y-216217680D01*
X147093860Y-173980966D02*
X147093860Y-173522640D01*
X138743860Y-182330966D02*
X147093860Y-173980966D01*
X138743860Y-212167680D02*
X138743860Y-182330966D01*
X134693860Y-216217680D02*
X138743860Y-212167680D01*
X170393360Y-173522640D02*
X147093860Y-173522640D01*
X131297860Y-212069680D02*
X136191860Y-212069680D01*
X167818900Y-155742640D02*
X165893860Y-157667680D01*
X165893860Y-157667680D02*
X165893860Y-166067680D01*
X165893860Y-166067680D02*
X162343860Y-169617680D01*
X162343860Y-169617680D02*
X149643860Y-169617680D01*
X149643860Y-169617680D02*
X147143860Y-172117680D01*
X167818900Y-155742640D02*
X170393360Y-155742640D01*
X137993860Y-181267680D02*
X147143860Y-172117680D01*
X137993860Y-210267680D02*
X137993860Y-181267680D01*
X136191860Y-212069680D02*
X137993860Y-210267680D01*
X131297860Y-212069680D02*
X130855900Y-200347400D01*
X130855900Y-200347400D02*
X131742180Y-199461120D01*
X131742180Y-199461120D02*
X131742180Y-191109600D01*
D38*
X195988940Y-203029820D02*
X196020690Y-201583290D01*
X196020690Y-201583290D02*
X193413380Y-198975980D01*
X197289420Y-203029820D02*
X197321170Y-200343770D01*
X197289420Y-203029820D02*
X197289420Y-203024740D01*
X197321170Y-200343770D02*
X193413380Y-196435980D01*
X201899520Y-203042520D02*
X201918570Y-199861170D01*
X201918570Y-199861170D02*
X193413380Y-191355980D01*
X200599040Y-203042520D02*
X200618090Y-201100690D01*
X200618090Y-201100690D02*
X193413380Y-193895980D01*
X202181460Y-188815980D02*
X202496420Y-188501020D01*
X193413380Y-188815980D02*
X202181460Y-188815980D01*
X193728340Y-188501020D02*
X193413380Y-188815980D01*
X202496420Y-187200540D02*
X194337940Y-187200540D01*
X194337940Y-187200540D02*
X193413380Y-186275980D01*
X202534520Y-181993540D02*
X194210940Y-181993540D01*
X194210940Y-181993540D02*
X193413380Y-181195980D01*
X202534520Y-183294020D02*
X193855340Y-183294020D01*
X193855340Y-183294020D02*
X193413380Y-183735980D01*
X193855340Y-183294020D02*
X193413380Y-183735980D01*
D40*
X148643860Y-168981120D02*
X136928860Y-168981120D01*
X136928860Y-168981120D02*
X135948420Y-168000680D01*
X135978900Y-181635400D02*
X135978900Y-168031160D01*
X135978900Y-168031160D02*
X135948420Y-168000680D01*
X135316140Y-185237120D02*
X135321220Y-205679040D01*
X135321220Y-205679040D02*
X135361860Y-205719680D01*
X135978900Y-181635400D02*
X135978900Y-184574360D01*
X196382640Y-155806140D02*
X198285100Y-153903680D01*
X198285100Y-153903680D02*
X198285100Y-142361920D01*
X198285100Y-142361920D02*
X193499740Y-137576560D01*
X193499740Y-137576560D02*
X169542460Y-137576560D01*
X169542460Y-137576560D02*
X164929820Y-142189200D01*
X164929820Y-142189200D02*
X164929820Y-165943280D01*
X164929820Y-165943280D02*
X161891980Y-168981120D01*
X161891980Y-168981120D02*
X148643860Y-168981120D01*
X148643860Y-168981120D02*
X148633180Y-168981120D01*
X193647060Y-155806140D02*
X196382640Y-155806140D01*
X135978900Y-184574360D02*
X135316140Y-185237120D01*
X171838620Y-66476880D02*
X196258180Y-66476880D01*
X169791380Y-107640120D02*
X167718740Y-105567480D01*
X167718740Y-105567480D02*
X167718740Y-66588640D01*
X167718740Y-66588640D02*
X167794940Y-66512440D01*
X172427900Y-107640120D02*
X169791380Y-107640120D01*
X202770740Y-72989440D02*
X202770740Y-73974960D01*
X196258180Y-66476880D02*
X202770740Y-72989440D01*
X208988480Y-147419060D02*
X205099920Y-147419060D01*
X202770740Y-145089880D02*
X202770740Y-111693960D01*
X205099920Y-147419060D02*
X202770740Y-145089880D01*
X207738620Y-113261140D02*
X204337920Y-113261140D01*
X204337920Y-113261140D02*
X202770740Y-111693960D01*
X203735940Y-73009760D02*
X207675300Y-73009760D01*
X202770740Y-73974960D02*
X203735940Y-73009760D01*
X202770740Y-111693960D02*
X202770740Y-107309920D01*
X202770740Y-107309920D02*
X202770740Y-73974960D01*
X153644600Y-177502820D02*
X153469340Y-177678080D01*
X155619460Y-177502820D02*
X153644600Y-177502820D01*
X155332180Y-204417680D02*
X155443860Y-204417680D01*
X151716740Y-200802240D02*
X155332180Y-204417680D01*
D38*
X154189430Y-209447130D02*
X156077930Y-209447130D01*
X154002740Y-209260440D02*
X154189430Y-209447130D01*
X173509940Y-206349600D02*
X173404530Y-206455010D01*
X173404530Y-206455010D02*
X173404530Y-208516230D01*
D40*
X204543660Y-204480160D02*
X204543660Y-204500480D01*
D38*
X186442350Y-210247230D02*
X186438540Y-210251040D01*
X186442350Y-210247230D02*
X188907430Y-210247230D01*
D40*
X204543660Y-204500480D02*
X203563220Y-205480920D01*
X207063340Y-206197200D02*
X206260700Y-206197200D01*
D38*
X206818230Y-206442310D02*
X207063340Y-206197200D01*
X206818230Y-208630530D02*
X206818230Y-206442310D01*
D40*
X206260700Y-206197200D02*
X204543660Y-204480160D01*
X202633580Y-176982120D02*
X202633580Y-178638200D01*
X209326480Y-199697340D02*
X209326480Y-194598280D01*
X204543660Y-204480160D02*
X209326480Y-199697340D01*
X202633580Y-178638200D02*
X201322940Y-179948840D01*
X200383140Y-172720000D02*
X200383140Y-174767240D01*
X196928740Y-79730600D02*
X200383140Y-83185000D01*
X200383140Y-83185000D02*
X200383140Y-172720000D01*
X194337940Y-79730600D02*
X196928740Y-79730600D01*
X202598020Y-176982120D02*
X202633580Y-176982120D01*
X202633580Y-176982120D02*
X207953620Y-176982120D01*
X200383140Y-174767240D02*
X202598020Y-176982120D01*
D38*
X209326480Y-194598280D02*
X209326480Y-190588900D01*
X209326480Y-190588900D02*
X209329020Y-190586360D01*
D40*
X158426140Y-194477640D02*
X162339020Y-194477640D01*
X158426140Y-194477640D02*
X158319460Y-194584320D01*
D39*
X216060632Y-149079760D02*
X215790780Y-149349612D01*
X215790780Y-150936960D02*
X215790780Y-149349612D01*
X215668860Y-151058880D02*
X215790780Y-150936960D01*
X214165180Y-136489000D02*
X214165180Y-117500400D01*
X214193860Y-136517680D02*
X214165180Y-136489000D01*
X214947500Y-80269080D02*
X214947500Y-78034232D01*
X212092540Y-83124040D02*
X214947500Y-80269080D01*
X212092540Y-99628960D02*
X212092540Y-83124040D01*
X214947500Y-78034232D02*
X215951332Y-77030400D01*
X206672180Y-105049320D02*
X212092540Y-99628960D01*
X212092540Y-99628960D02*
X212102700Y-99618800D01*
X215405460Y-116383860D02*
X215281720Y-116383860D01*
X215281720Y-116383860D02*
X214165180Y-117500400D01*
D38*
X216060632Y-149079760D02*
X215941100Y-149079760D01*
X144277080Y-120515380D02*
X142397660Y-120309640D01*
X142397660Y-120309640D02*
X142313660Y-120393640D01*
X148633000Y-117157500D02*
X144627600Y-117157500D01*
X144277080Y-120515380D02*
X146525000Y-120515380D01*
X143680180Y-119918480D02*
X144277080Y-120515380D01*
X143680180Y-118104920D02*
X143680180Y-119918480D01*
X144627600Y-117157500D02*
X143680180Y-118104920D01*
X147266680Y-93220540D02*
X146316680Y-93220540D01*
X144769840Y-89217500D02*
X144302480Y-89684860D01*
X144302480Y-89684860D02*
X144302480Y-92504260D01*
X144302480Y-92504260D02*
X145018760Y-93220540D01*
X145018760Y-93220540D02*
X146316680Y-93220540D01*
X144769840Y-89217500D02*
X149415320Y-89217500D01*
X149288320Y-87485220D02*
X149288320Y-89090500D01*
X149288320Y-89090500D02*
X149415320Y-89217500D01*
D40*
X110268860Y-147377680D02*
X110268860Y-145552680D01*
X138303860Y-125377680D02*
X139763860Y-123917680D01*
X138303860Y-128637680D02*
X138303860Y-125377680D01*
X129923860Y-137017680D02*
X138303860Y-128637680D01*
X129923860Y-140267680D02*
X129923860Y-137017680D01*
X127633860Y-143357680D02*
X129923860Y-140267680D01*
X113263860Y-143357680D02*
X127633860Y-143357680D01*
X110268860Y-145552680D02*
X113263860Y-143357680D01*
D38*
X121698860Y-137977680D02*
X121698860Y-135042680D01*
X121698860Y-135042680D02*
X120903860Y-134247680D01*
D40*
X110718860Y-103097680D02*
X110718860Y-100230680D01*
X140650140Y-87317400D02*
X142212060Y-87317400D01*
X128927860Y-99039680D02*
X140650140Y-87317400D01*
X111909860Y-99039680D02*
X128927860Y-99039680D01*
X110718860Y-100230680D02*
X111909860Y-99039680D01*
X121698860Y-147377680D02*
X121698860Y-145552680D01*
X131453860Y-142097680D02*
X131453860Y-139007680D01*
X129403860Y-144147680D02*
X131453860Y-142097680D01*
X123103860Y-144147680D02*
X129403860Y-144147680D01*
X121698860Y-145552680D02*
X123103860Y-144147680D01*
X122968860Y-147377680D02*
X122968860Y-148882680D01*
X130193860Y-149877680D02*
X133953860Y-146117680D01*
X123963860Y-149877680D02*
X130193860Y-149877680D01*
X122968860Y-148882680D02*
X123963860Y-149877680D01*
D38*
X122148860Y-93697680D02*
X122148860Y-90762680D01*
X122148860Y-90762680D02*
X121353860Y-89967680D01*
D40*
X122968860Y-137977680D02*
X122968860Y-135532680D01*
X124753860Y-133747680D02*
X126513860Y-133747680D01*
X122968860Y-135532680D02*
X124753860Y-133747680D01*
X122148860Y-103097680D02*
X122148860Y-105722680D01*
X124355860Y-107929680D02*
X130959860Y-107929680D01*
X122148860Y-105722680D02*
X124355860Y-107929680D01*
X122823860Y-140267680D02*
X124238860Y-138852680D01*
X124238860Y-138852680D02*
X124238860Y-137977680D01*
X123418860Y-103097680D02*
X123418860Y-104706680D01*
X124101860Y-105389680D02*
X135277860Y-105389680D01*
X123418860Y-104706680D02*
X124101860Y-105389680D01*
D38*
X146895840Y-158455360D02*
X145945840Y-158455360D01*
X145945840Y-158455360D02*
X143710840Y-158455360D01*
X143698140Y-158442660D02*
X143698140Y-157055460D01*
X143698140Y-157055460D02*
X148483140Y-153845260D01*
X143710840Y-158455360D02*
X143698140Y-158442660D01*
X119708860Y-204117680D02*
X119708860Y-200506500D01*
X119708860Y-200506500D02*
X119612180Y-200409820D01*
D40*
X123418860Y-93697680D02*
X123418860Y-90324680D01*
X124609860Y-89133680D02*
X127403860Y-89133680D01*
X123418860Y-90324680D02*
X124609860Y-89133680D01*
X124688860Y-93697680D02*
X124688860Y-91498680D01*
X124688860Y-91498680D02*
X124609860Y-91419680D01*
X130510260Y-199079360D02*
X130510260Y-199171280D01*
X130350260Y-171846240D02*
X130510260Y-199079360D01*
X140380720Y-161008060D02*
X130350260Y-171846240D01*
X108278860Y-212462680D02*
X108278860Y-213517680D01*
X110243860Y-210497680D02*
X108278860Y-212462680D01*
X119183860Y-210497680D02*
X110243860Y-210497680D01*
X130510260Y-199171280D02*
X119183860Y-210497680D01*
X140621840Y-161008060D02*
X140380720Y-161008060D01*
X140621840Y-161008060D02*
X140621840Y-161056500D01*
X119708860Y-213517680D02*
X119708860Y-217092680D01*
X121233860Y-218617680D02*
X129097860Y-212069680D01*
X119708860Y-217092680D02*
X121233860Y-218617680D01*
X133245860Y-205803680D02*
X133245860Y-207751680D01*
X120978860Y-215722680D02*
X120978860Y-213517680D01*
X121673860Y-216417680D02*
X129435860Y-209021680D01*
X120978860Y-215722680D02*
X121673860Y-216417680D01*
X133245860Y-205803680D02*
X133161860Y-205719680D01*
D38*
X120978860Y-214380280D02*
X120978860Y-213517680D01*
X125981460Y-191429640D02*
X125001020Y-191201040D01*
X125001020Y-191201040D02*
X122725180Y-191201040D01*
X122725180Y-191201040D02*
X120756680Y-193169540D01*
X120756680Y-193169540D02*
X120978860Y-204117680D01*
X122248860Y-204117680D02*
X122026680Y-197980300D01*
X122026680Y-197980300D02*
X122120660Y-197886320D01*
X146847580Y-144815560D02*
X145897580Y-144815560D01*
X144416780Y-144815560D02*
X145897580Y-144815560D01*
X144416780Y-144815560D02*
X143215180Y-143613960D01*
X146410680Y-140141960D02*
X146342280Y-140141960D01*
X148472980Y-140141960D02*
X146410680Y-140141960D01*
X146342280Y-140141960D02*
X143070580Y-143413660D01*
X142816580Y-143613960D02*
X142938680Y-143613960D01*
X142816580Y-143613960D02*
X143215180Y-143613960D01*
X149623600Y-76558140D02*
X146994880Y-76558140D01*
X146212560Y-80180180D02*
X147764520Y-80180180D01*
X145516600Y-79484220D02*
X146212560Y-80180180D01*
X145516600Y-78036420D02*
X145516600Y-79484220D01*
X146994880Y-76558140D02*
X145516600Y-78036420D01*
X149679480Y-74703940D02*
X149593120Y-76527660D01*
X149593120Y-76527660D02*
X149623600Y-76558140D01*
D40*
X125593680Y-174677500D02*
X125593680Y-179577860D01*
X98158860Y-189642680D02*
X98158860Y-192087680D01*
X100103860Y-187697680D02*
X98158860Y-189642680D01*
X117473860Y-187697680D02*
X100103860Y-187697680D01*
X125593680Y-179577860D02*
X117473860Y-187697680D01*
X134683500Y-152346480D02*
X140954580Y-146075400D01*
X134683500Y-165587680D02*
X134683500Y-152346480D01*
X125580140Y-174691040D02*
X125593680Y-174677500D01*
X125593680Y-174677500D02*
X134683500Y-165587680D01*
D38*
X143606700Y-105384600D02*
X143606700Y-103797280D01*
X143606700Y-103797280D02*
X143487140Y-103677720D01*
X144343860Y-105740200D02*
X143962300Y-105740200D01*
X143962300Y-105740200D02*
X143606700Y-105384600D01*
X147858300Y-101244400D02*
X145920460Y-101244400D01*
X145920460Y-101244400D02*
X143487140Y-103677720D01*
X144335500Y-105740200D02*
X144343860Y-105740200D01*
X144343860Y-105740200D02*
X146121140Y-105740200D01*
X142918180Y-132753280D02*
X144973220Y-132753280D01*
X144973220Y-132753280D02*
X145097500Y-132877560D01*
X148183420Y-128717040D02*
X146662140Y-128717040D01*
X145097500Y-132877560D02*
X146613900Y-132877560D01*
X144675860Y-132455920D02*
X145097500Y-132877560D01*
X144675860Y-130703320D02*
X144675860Y-132455920D01*
X146662140Y-128717040D02*
X144675860Y-130703320D01*
D40*
X109580860Y-80363680D02*
X109580860Y-78508680D01*
X141711860Y-74063680D02*
X143476980Y-74063680D01*
X140357860Y-75417680D02*
X141711860Y-74063680D01*
X112671860Y-75417680D02*
X140357860Y-75417680D01*
X109580860Y-78508680D02*
X112671860Y-75417680D01*
X110078860Y-124757680D02*
X110078860Y-123722680D01*
X139821740Y-112619800D02*
X139821740Y-107340400D01*
X131293860Y-121147680D02*
X139821740Y-112619800D01*
X112653860Y-121147680D02*
X131293860Y-121147680D01*
X110078860Y-123722680D02*
X112653860Y-121147680D01*
X130183860Y-157647680D02*
X130183860Y-155557680D01*
X110898860Y-165112680D02*
X113593860Y-163457680D01*
X113593860Y-163457680D02*
X125413860Y-163457680D01*
X125413860Y-163457680D02*
X130183860Y-157647680D01*
X140163860Y-137067680D02*
X140163860Y-142187680D01*
X110898860Y-165112680D02*
X110898860Y-169317680D01*
X138643860Y-143707680D02*
X140163860Y-142187680D01*
X138643860Y-147097680D02*
X138643860Y-143707680D01*
X130183860Y-155557680D02*
X138643860Y-147097680D01*
D38*
X121010860Y-70963680D02*
X121010860Y-68028680D01*
X121010860Y-68028680D02*
X122143860Y-66817680D01*
X109588860Y-182687680D02*
X109383540Y-179708000D01*
X109383540Y-179708000D02*
X109503860Y-179587680D01*
X109618160Y-179701980D02*
X109503860Y-179587680D01*
X109588860Y-192087680D02*
X109588860Y-193142680D01*
X127263860Y-188607680D02*
X129013860Y-190357680D01*
X124283860Y-188607680D02*
X127263860Y-188607680D01*
X117533860Y-195357680D02*
X124283860Y-188607680D01*
X111803860Y-195357680D02*
X117533860Y-195357680D01*
X109588860Y-193142680D02*
X111803860Y-195357680D01*
X121508860Y-115357680D02*
X121508860Y-112422680D01*
X121508860Y-112422680D02*
X120713860Y-111627680D01*
X122328860Y-159917680D02*
X122128860Y-155402680D01*
X122128860Y-155402680D02*
X121693860Y-154967680D01*
X110858860Y-192087680D02*
X110858860Y-193012680D01*
X110858860Y-193012680D02*
X111903860Y-194057680D01*
X111903860Y-194057680D02*
X116963860Y-194057680D01*
X116963860Y-194057680D02*
X126143860Y-184877680D01*
X126143860Y-184877680D02*
X129063860Y-184867680D01*
X131673860Y-184807680D02*
X131853300Y-185237120D01*
X131853300Y-185237120D02*
X133116140Y-185237120D01*
X121010860Y-82994680D02*
X121010860Y-80363680D01*
X123085860Y-85069680D02*
X121010860Y-82994680D01*
X130705860Y-85069680D02*
X123085860Y-85069680D01*
X131467860Y-85831680D02*
X130705860Y-85069680D01*
D40*
X110858860Y-180807680D02*
X110858860Y-180422680D01*
X122333860Y-175807680D02*
X126213860Y-171927680D01*
X115473860Y-175807680D02*
X122333860Y-175807680D01*
X110858860Y-180422680D02*
X115473860Y-175807680D01*
X110858860Y-182687680D02*
X110858860Y-180807680D01*
X110858860Y-180807680D02*
X110858860Y-180792680D01*
D38*
X122280860Y-80363680D02*
X122280860Y-81978680D01*
X122831860Y-82529680D02*
X133245860Y-82529680D01*
X122280860Y-81978680D02*
X122831860Y-82529680D01*
D40*
X112128860Y-182687680D02*
X112128860Y-180622680D01*
X116113860Y-176637680D02*
X120313860Y-176637680D01*
X112128860Y-180622680D02*
X116113860Y-176637680D01*
D38*
X122280860Y-70963680D02*
X122280860Y-72834680D01*
X125117860Y-73639680D02*
X127657860Y-71099680D01*
X123085860Y-73639680D02*
X125117860Y-73639680D01*
X122280860Y-72834680D02*
X123085860Y-73639680D01*
D40*
X121508860Y-128482680D02*
X121508860Y-124757680D01*
X123963860Y-130937680D02*
X121508860Y-128482680D01*
X131343860Y-130937680D02*
X123963860Y-130937680D01*
X131353860Y-130927680D02*
X131343860Y-130937680D01*
X122328860Y-168262680D02*
X122328860Y-167782680D01*
X122328860Y-169317680D02*
X122328860Y-168262680D01*
X131723860Y-164037680D02*
X131723860Y-160827680D01*
X129293860Y-166467680D02*
X131723860Y-164037680D01*
X123643860Y-166467680D02*
X129293860Y-166467680D01*
X122328860Y-167782680D02*
X123643860Y-166467680D01*
D38*
X123550860Y-67332680D02*
X123550860Y-70963680D01*
X123593860Y-67289680D02*
X123550860Y-67332680D01*
D40*
X122778860Y-124757680D02*
X122778860Y-126082680D01*
X123753860Y-127057680D02*
X135213860Y-127057680D01*
X122778860Y-126082680D02*
X123753860Y-127057680D01*
X123598860Y-168112680D02*
X123798860Y-168112680D01*
X132923860Y-164757680D02*
X133373860Y-164307680D01*
X123598860Y-168112680D02*
X123598860Y-169317680D01*
X132923860Y-164817680D02*
X132923860Y-164757680D01*
X130073860Y-167667680D02*
X132923860Y-164817680D01*
X124243860Y-167667680D02*
X130073860Y-167667680D01*
X123798860Y-168112680D02*
X124243860Y-167667680D01*
D38*
X122778860Y-115357680D02*
X122778860Y-117020680D01*
X124609860Y-117581680D02*
X127149860Y-115041680D01*
X123339860Y-117581680D02*
X124609860Y-117581680D01*
X122778860Y-117020680D02*
X123339860Y-117581680D01*
D40*
X123598860Y-159917680D02*
X123598860Y-162452680D01*
X126023860Y-159877680D02*
X127873860Y-158027680D01*
X126023860Y-161337680D02*
X126023860Y-159877680D01*
X124893860Y-162467680D02*
X126023860Y-161337680D01*
X123613860Y-162467680D02*
X124893860Y-162467680D01*
X123598860Y-162452680D02*
X123613860Y-162467680D01*
D38*
X124048860Y-115357680D02*
X124048860Y-112956680D01*
X124048860Y-112956680D02*
X123593860Y-112501680D01*
D40*
X124868860Y-159917680D02*
X124868860Y-156452680D01*
X124868860Y-156452680D02*
X123623860Y-155207680D01*
D38*
X209938620Y-113261140D02*
X212150960Y-113261140D01*
X213048680Y-114158860D02*
X214680460Y-114158860D01*
X212150960Y-113261140D02*
X213048680Y-114158860D01*
X213898260Y-112976660D02*
X213782860Y-112976660D01*
X213782860Y-112976660D02*
X212044460Y-111238260D01*
X212044460Y-111238260D02*
X212044460Y-110538260D01*
X214680460Y-114158860D02*
X214680460Y-113758860D01*
X214680460Y-113758860D02*
X213898260Y-112976660D01*
X210080860Y-117871060D02*
X210080860Y-115105180D01*
X210080860Y-115105180D02*
X209913220Y-114937540D01*
X209913220Y-114937540D02*
X212648800Y-114937540D01*
X212927480Y-114658860D02*
X214680460Y-114658860D01*
X212648800Y-114937540D02*
X212927480Y-114658860D01*
X209919020Y-114943340D02*
X209913220Y-114937540D01*
X217630460Y-115158860D02*
X222243860Y-115158860D01*
X222243860Y-115158860D02*
X222282660Y-115197660D01*
X222282660Y-115197660D02*
X222282660Y-115897660D01*
X217630460Y-114658860D02*
X217949060Y-114658860D01*
X217949060Y-114658860D02*
X217974050Y-114633870D01*
X217974050Y-114633870D02*
X221027850Y-114633870D01*
X221027850Y-114633870D02*
X221440460Y-114221260D01*
X221440460Y-114221260D02*
X222290460Y-114221260D01*
X211188480Y-147419060D02*
X211188480Y-145229580D01*
X211188480Y-145229580D02*
X211406740Y-145011320D01*
X211188480Y-147419060D02*
X213034880Y-147419060D01*
X213599180Y-146854760D02*
X215335632Y-146854760D01*
X213034880Y-147419060D02*
X213599180Y-146854760D01*
X211335620Y-152392200D02*
X211335620Y-149369600D01*
X211335620Y-149369600D02*
X211201180Y-149235160D01*
X211201180Y-149235160D02*
X212222080Y-149235160D01*
X214102480Y-147354760D02*
X215335632Y-147354760D01*
X212222080Y-149235160D02*
X214102480Y-147354760D01*
X218285632Y-147854760D02*
X222301980Y-147854760D01*
X222301980Y-147854760D02*
X222958480Y-148511260D01*
X218285632Y-147354760D02*
X222324280Y-147354760D01*
X222324280Y-147354760D02*
X222983880Y-146695160D01*
X209875300Y-73009760D02*
X212752940Y-73009760D01*
X214548580Y-74805400D02*
X215226332Y-74805400D01*
X212752940Y-73009760D02*
X214548580Y-74805400D01*
X213566532Y-72745600D02*
X213566532Y-72116152D01*
X213566532Y-72116152D02*
X211960780Y-70510400D01*
X211960780Y-70510400D02*
X211810780Y-70510400D01*
X215226332Y-74805400D02*
X215226332Y-74405400D01*
X215226332Y-74405400D02*
X213566532Y-72745600D01*
X210253580Y-77343000D02*
X210253580Y-75166040D01*
X210253580Y-75166040D02*
X209824500Y-74736960D01*
X209824500Y-74736960D02*
X213164420Y-74736960D01*
X213732860Y-75305400D02*
X215226332Y-75305400D01*
X213164420Y-74736960D02*
X213732860Y-75305400D01*
X223580780Y-76962000D02*
X222730780Y-76962000D01*
X222730780Y-76962000D02*
X221574180Y-75805400D01*
X221574180Y-75805400D02*
X218801332Y-75805400D01*
X218801332Y-75805400D02*
X218176332Y-75805400D01*
X218176332Y-75305400D02*
X223492580Y-75305400D01*
X223492580Y-75305400D02*
X223613980Y-75184000D01*
X160467040Y-189974220D02*
X161264600Y-189176660D01*
X158056760Y-189974220D02*
X160467040Y-189974220D01*
X155780560Y-190050420D02*
X155856760Y-189974220D01*
X152963860Y-190050420D02*
X155780560Y-190050420D01*
X160911540Y-187523120D02*
X161264600Y-187876180D01*
X157917060Y-187523120D02*
X160911540Y-187523120D01*
X155717060Y-187523120D02*
X152976560Y-187523120D01*
X152976560Y-187523120D02*
X152963860Y-187510420D01*
X160708340Y-184983120D02*
X161302700Y-184388760D01*
X158018660Y-184983120D02*
X160708340Y-184983120D01*
X155818660Y-184983120D02*
X152976560Y-184983120D01*
X152976560Y-184983120D02*
X152963860Y-184970420D01*
X160682940Y-182468520D02*
X161302700Y-183088280D01*
X157853560Y-182468520D02*
X160682940Y-182468520D01*
X155653560Y-182468520D02*
X153001960Y-182468520D01*
X153001960Y-182468520D02*
X152963860Y-182430420D01*
X168936670Y-205863190D02*
X168936670Y-207828970D01*
X168936670Y-207828970D02*
X169581830Y-208474130D01*
X169581830Y-210674130D02*
X169581830Y-213280997D01*
X169581830Y-213280997D02*
X169757530Y-213456697D01*
X167636190Y-205863190D02*
X167636190Y-208121070D01*
X167636190Y-208121070D02*
X167206930Y-208550330D01*
X167206930Y-210750330D02*
X167206930Y-213446097D01*
X167206930Y-213446097D02*
X167217530Y-213456697D01*
X163958270Y-205913990D02*
X163958270Y-207613070D01*
X163958270Y-207613070D02*
X164895530Y-208550330D01*
X164895530Y-210750330D02*
X164895530Y-213238697D01*
X164895530Y-213238697D02*
X164677530Y-213456697D01*
X162657790Y-205913990D02*
X162657790Y-208044870D01*
X162657790Y-208044870D02*
X162152330Y-208550330D01*
X162152330Y-210750330D02*
X162152330Y-213441897D01*
X162152330Y-213441897D02*
X162137530Y-213456697D01*
X207820080Y-181437280D02*
X205752700Y-181437280D01*
X205752700Y-181437280D02*
X205196440Y-181993540D01*
X210020080Y-181437280D02*
X212887580Y-181437280D01*
X212887580Y-181437280D02*
X213078080Y-181627780D01*
X205196440Y-183294020D02*
X207111420Y-183294020D01*
X207111420Y-183294020D02*
X207883580Y-184066180D01*
X210083580Y-184066180D02*
X212976480Y-184066180D01*
X212976480Y-184066180D02*
X213078080Y-184167780D01*
X205158340Y-187200540D02*
X207238420Y-187200540D01*
X207238420Y-187200540D02*
X207883580Y-186555380D01*
X210083580Y-186555380D02*
X212925680Y-186555380D01*
X212925680Y-186555380D02*
X213078080Y-186707780D01*
X205158340Y-188501020D02*
X207060620Y-188501020D01*
X207060620Y-188501020D02*
X207820080Y-189260480D01*
X210020080Y-189260480D02*
X213065380Y-189260480D01*
X213065380Y-189260480D02*
X213078080Y-189247780D01*
X202943860Y-207967680D02*
X202519280Y-206324200D01*
X202519280Y-206324200D02*
X201899520Y-205704440D01*
X202943860Y-210167680D02*
X202519280Y-212542013D01*
X202519280Y-212542013D02*
X202692830Y-212715563D01*
X200106280Y-207997880D02*
X200106280Y-206197200D01*
X200106280Y-206197200D02*
X200599040Y-205704440D01*
X200106280Y-210197880D02*
X200106280Y-212669013D01*
X200106280Y-212669013D02*
X200152830Y-212715563D01*
X197705980Y-208035980D02*
X197705980Y-206108300D01*
X197705980Y-206108300D02*
X197289420Y-205691740D01*
X197705980Y-210235980D02*
X197705980Y-212622413D01*
X197705980Y-212622413D02*
X197612830Y-212715563D01*
X195204080Y-208074080D02*
X195204080Y-206476600D01*
X195204080Y-206476600D02*
X195988940Y-205691740D01*
X195204080Y-210274080D02*
X195204080Y-212584313D01*
X195204080Y-212584313D02*
X195072830Y-212715563D01*
X163308030Y-205913990D02*
X163308030Y-207381850D01*
X163308030Y-207381850D02*
X163343860Y-207417680D01*
X168286430Y-205863190D02*
X168286430Y-207260250D01*
X168286430Y-207260250D02*
X168293860Y-207267680D01*
D40*
X220318860Y-217942680D02*
X214118860Y-217942680D01*
X214118860Y-217942680D02*
X213268860Y-218792680D01*
D38*
X216518860Y-216317680D02*
X216518860Y-217367680D01*
X217093860Y-217942680D02*
X220318860Y-217942680D01*
X216518860Y-217367680D02*
X217093860Y-217942680D01*
X201249280Y-205704440D02*
X201249280Y-207348100D01*
X201249280Y-207348100D02*
X201518860Y-207617680D01*
X196639180Y-205691740D02*
X196639180Y-206947360D01*
X192262940Y-207873600D02*
X190502540Y-207873600D01*
X193118860Y-207017680D02*
X192262940Y-207873600D01*
X196639180Y-206947360D02*
X196493860Y-207092680D01*
X205158340Y-187850780D02*
X206643760Y-187850780D01*
X206643760Y-187850780D02*
X206651860Y-187842680D01*
X161264600Y-188526420D02*
X159602600Y-188526420D01*
X159602600Y-188526420D02*
X159593860Y-188517680D01*
D40*
X153758940Y-195534320D02*
X153723340Y-195498720D01*
X155619460Y-195534320D02*
X153758940Y-195534320D01*
D38*
X159664700Y-183738520D02*
X161302700Y-183738520D01*
D40*
X159593860Y-183667680D02*
X159664700Y-183738520D01*
D39*
X205196440Y-182643780D02*
X208967760Y-182643780D01*
X215243860Y-178017680D02*
X215193860Y-177967680D01*
X208967760Y-182643780D02*
X208993860Y-182617680D01*
X159773340Y-204847160D02*
X159773340Y-206664280D01*
D40*
X159773340Y-199688200D02*
X159773340Y-204847160D01*
D39*
X159773340Y-206664280D02*
X159793940Y-206684880D01*
D40*
X176888140Y-212344000D02*
X176801780Y-212257640D01*
X176801780Y-211216230D02*
X176801780Y-212257640D01*
D39*
X158777930Y-207700890D02*
X158777930Y-208497130D01*
X159793940Y-206684880D02*
X158777930Y-207700890D01*
D40*
X207768230Y-213243310D02*
X207768230Y-211330530D01*
X207743860Y-213267680D02*
X207768230Y-213243310D01*
X159913280Y-176552820D02*
X158319460Y-176552820D01*
X160307020Y-176946560D02*
X159913280Y-176552820D01*
X159793940Y-199708800D02*
X159773340Y-199688200D01*
X159773340Y-199688200D02*
X155619460Y-195534320D01*
X176801780Y-211216230D02*
X174354530Y-211216230D01*
X180215540Y-207873600D02*
X176872910Y-211216230D01*
X176872910Y-211216230D02*
X176801780Y-211216230D01*
X190502540Y-207873600D02*
X180215540Y-207873600D01*
X210653620Y-176032120D02*
X213052620Y-176032120D01*
D38*
X206693780Y-191898280D02*
X208376480Y-191898280D01*
D40*
X213052620Y-176032120D02*
X213266020Y-176245520D01*
D38*
X206651860Y-191856360D02*
X206693780Y-191898280D01*
D40*
X190502540Y-207873600D02*
X191607430Y-208978490D01*
X191607430Y-208978490D02*
X191607430Y-209297230D01*
D39*
X207768230Y-211330530D02*
X207768230Y-211941450D01*
D38*
X155619460Y-193634320D02*
X153898560Y-193634320D01*
X153898560Y-193634320D02*
X150936960Y-190672720D01*
X152963860Y-186240420D02*
X151305260Y-186240420D01*
X150936960Y-186608720D02*
X150936960Y-189009020D01*
X151305260Y-186240420D02*
X150936960Y-186608720D01*
X151165560Y-188780420D02*
X152963860Y-188780420D01*
X150936960Y-189009020D02*
X151165560Y-188780420D01*
X150936960Y-190672720D02*
X150936960Y-189009020D01*
X152963860Y-181160420D02*
X154701120Y-181160420D01*
X158319460Y-179843280D02*
X158319460Y-178452820D01*
X158343860Y-179867680D02*
X158319460Y-179843280D01*
X154701120Y-181160420D02*
X154843860Y-181017680D01*
X152963860Y-181160420D02*
X152257760Y-181160420D01*
X152257760Y-181160420D02*
X151648160Y-181770020D01*
X151800560Y-183700420D02*
X152963860Y-183700420D01*
X151648160Y-183548020D02*
X151800560Y-183700420D01*
X151648160Y-181770020D02*
X151648160Y-183548020D01*
X165947530Y-213456697D02*
X165947530Y-214499630D01*
X167115930Y-215668030D02*
X168487530Y-215668030D01*
X165947530Y-214499630D02*
X167115930Y-215668030D01*
X172454530Y-211216230D02*
X172454530Y-213229230D01*
X168487530Y-215668030D02*
X168487530Y-213456697D01*
X168642030Y-215822530D02*
X168487530Y-215668030D01*
X169861230Y-215822530D02*
X168642030Y-215822530D01*
X172454530Y-213229230D02*
X169861230Y-215822530D01*
X160867530Y-213456697D02*
X160867530Y-215439430D01*
X163407530Y-215342030D02*
X163407530Y-213456697D01*
X162888930Y-215860630D02*
X163407530Y-215342030D01*
X161288730Y-215860630D02*
X162888930Y-215860630D01*
X160867530Y-215439430D02*
X161288730Y-215860630D01*
X158777930Y-210397130D02*
X158777930Y-211367097D01*
X158777930Y-211367097D02*
X160867530Y-213456697D01*
X213078080Y-185437780D02*
X213949280Y-185437780D01*
X215219280Y-184167780D02*
X215219280Y-182351680D01*
X213949280Y-185437780D02*
X215219280Y-184167780D01*
X210409780Y-178018480D02*
X213121280Y-178018480D01*
X214673180Y-182897780D02*
X213078080Y-182897780D01*
X215219280Y-182351680D02*
X214673180Y-182897780D01*
X215219280Y-180116480D02*
X215219280Y-182351680D01*
X213121280Y-178018480D02*
X215219280Y-180116480D01*
X213078080Y-190517780D02*
X214279480Y-190517780D01*
X214647780Y-187698380D02*
X213357480Y-187698380D01*
X215054180Y-188104780D02*
X214647780Y-187698380D01*
X215054180Y-189743080D02*
X215054180Y-188104780D01*
X214279480Y-190517780D02*
X215054180Y-189743080D01*
X213357480Y-187698380D02*
X213078080Y-187977780D01*
X210276480Y-191898280D02*
X211697580Y-191898280D01*
X211697580Y-191898280D02*
X213078080Y-190517780D01*
X198882830Y-212715563D02*
X198882830Y-213754530D01*
X201896980Y-215054180D02*
X202074780Y-214876380D01*
X200182480Y-215054180D02*
X201896980Y-215054180D01*
X198882830Y-213754530D02*
X200182480Y-215054180D01*
X205868230Y-211330530D02*
X205868230Y-213178430D01*
X201422830Y-214224430D02*
X201422830Y-212715563D01*
X202735180Y-215536780D02*
X202074780Y-214876380D01*
X202074780Y-214876380D02*
X201422830Y-214224430D01*
X203509880Y-215536780D02*
X202735180Y-215536780D01*
X205868230Y-213178430D02*
X203509880Y-215536780D01*
X196342830Y-212715563D02*
X196342830Y-214347230D01*
X193802830Y-214453030D02*
X193802830Y-212715563D01*
X194302380Y-214952580D02*
X193802830Y-214453030D01*
X195737480Y-214952580D02*
X194302380Y-214952580D01*
X196342830Y-214347230D02*
X195737480Y-214952580D01*
X191607430Y-211197230D02*
X192284497Y-211197230D01*
X192284497Y-211197230D02*
X193802830Y-212715563D01*
X180840380Y-143149320D02*
X173309280Y-143149320D01*
X173309280Y-143149320D02*
X173258480Y-143200120D01*
X191406780Y-143200120D02*
X183431180Y-143200120D01*
X183431180Y-143200120D02*
X183380380Y-143149320D01*
X173258480Y-145740120D02*
X180789580Y-145740120D01*
X180789580Y-145740120D02*
X180840380Y-145689320D01*
X191406780Y-145740120D02*
X183431180Y-145740120D01*
X183431180Y-145740120D02*
X183380380Y-145689320D01*
X180840380Y-148229320D02*
X173309280Y-148229320D01*
X173309280Y-148229320D02*
X173258480Y-148280120D01*
X183380380Y-148229320D02*
X191355980Y-148229320D01*
X191355980Y-148229320D02*
X191406780Y-148280120D01*
X173258480Y-150820120D02*
X180789580Y-150820120D01*
X180789580Y-150820120D02*
X180840380Y-150769320D01*
X191406780Y-150820120D02*
X183431180Y-150820120D01*
X183431180Y-150820120D02*
X183380380Y-150769320D01*
X180840380Y-153309320D02*
X173309280Y-153309320D01*
X173309280Y-153309320D02*
X173258480Y-153360120D01*
X183380380Y-153309320D02*
X191355980Y-153309320D01*
X191355980Y-153309320D02*
X191406780Y-153360120D01*
X173258480Y-155900120D02*
X180789580Y-155900120D01*
X180789580Y-155900120D02*
X180840380Y-155849320D01*
X191406780Y-155900120D02*
X183431180Y-155900120D01*
X183431180Y-155900120D02*
X183380380Y-155849320D01*
X180840380Y-158389320D02*
X173309280Y-158389320D01*
X173309280Y-158389320D02*
X173258480Y-158440120D01*
X183380380Y-158389320D02*
X191355980Y-158389320D01*
X191355980Y-158389320D02*
X191406780Y-158440120D01*
X173258480Y-160980120D02*
X180789580Y-160980120D01*
X180789580Y-160980120D02*
X180840380Y-160929320D01*
X191406780Y-160980120D02*
X183431180Y-160980120D01*
X183431180Y-160980120D02*
X183380380Y-160929320D01*
X180840380Y-163469320D02*
X173309280Y-163469320D01*
X173309280Y-163469320D02*
X173258480Y-163520120D01*
X183380380Y-163469320D02*
X191355980Y-163469320D01*
X191355980Y-163469320D02*
X191406780Y-163520120D01*
X173258480Y-166060120D02*
X180789580Y-166060120D01*
X180789580Y-166060120D02*
X180840380Y-166009320D01*
X183380380Y-166009320D02*
X191355980Y-166009320D01*
X191355980Y-166009320D02*
X191406780Y-166060120D01*
X180464460Y-168442640D02*
X172933360Y-168442640D01*
X172933360Y-168442640D02*
X172882560Y-168493440D01*
X191030860Y-168493440D02*
X183055260Y-168493440D01*
X183055260Y-168493440D02*
X183004460Y-168442640D01*
X172882560Y-171033440D02*
X180413660Y-171033440D01*
X180413660Y-171033440D02*
X180464460Y-170982640D01*
X191030860Y-171033440D02*
X183055260Y-171033440D01*
X183055260Y-171033440D02*
X183004460Y-170982640D01*
X180230780Y-173512480D02*
X172699680Y-173512480D01*
X172699680Y-173512480D02*
X172648880Y-173563280D01*
X190797180Y-173563280D02*
X182821580Y-173563280D01*
X182821580Y-173563280D02*
X182770780Y-173512480D01*
X172648880Y-176103280D02*
X180179980Y-176103280D01*
X180179980Y-176103280D02*
X180230780Y-176052480D01*
X182770780Y-176052480D02*
X190746380Y-176052480D01*
X190746380Y-176052480D02*
X190797180Y-176103280D01*
X180230780Y-178592480D02*
X172699680Y-178592480D01*
X172699680Y-178592480D02*
X172648880Y-178643280D01*
X190797180Y-178643280D02*
X182821580Y-178643280D01*
X182821580Y-178643280D02*
X182770780Y-178592480D01*
X172648880Y-181183280D02*
X180179980Y-181183280D01*
X180179980Y-181183280D02*
X180230780Y-181132480D01*
X190746380Y-181132480D02*
X190797180Y-181183280D01*
X182770780Y-181132480D02*
X190746380Y-181132480D01*
X180230780Y-183672480D02*
X172699680Y-183672480D01*
X172699680Y-183672480D02*
X172648880Y-183723280D01*
X190797180Y-183723280D02*
X182821580Y-183723280D01*
X182821580Y-183723280D02*
X182770780Y-183672480D01*
X180230780Y-186212480D02*
X172699680Y-186212480D01*
X172699680Y-186212480D02*
X172648880Y-186263280D01*
X190746380Y-186212480D02*
X190797180Y-186263280D01*
X182770780Y-186212480D02*
X190746380Y-186212480D01*
X180230780Y-188752480D02*
X172699680Y-188752480D01*
X172699680Y-188752480D02*
X172648880Y-188803280D01*
X190797180Y-188803280D02*
X182821580Y-188803280D01*
X182821580Y-188803280D02*
X182770780Y-188752480D01*
X180230780Y-191292480D02*
X172699680Y-191292480D01*
X172699680Y-191292480D02*
X172648880Y-191343280D01*
X190746380Y-191292480D02*
X190797180Y-191343280D01*
X182770780Y-191292480D02*
X190746380Y-191292480D01*
X180230780Y-193832480D02*
X172699680Y-193832480D01*
X172699680Y-193832480D02*
X172648880Y-193883280D01*
X190797180Y-193883280D02*
X182821580Y-193883280D01*
X182821580Y-193883280D02*
X182770780Y-193832480D01*
X172648880Y-196423280D02*
X180179980Y-196423280D01*
X180179980Y-196423280D02*
X180230780Y-196372480D01*
X190746380Y-196372480D02*
X190797180Y-196423280D01*
X182770780Y-196372480D02*
X190746380Y-196372480D01*
X180230780Y-198912480D02*
X172699680Y-198912480D01*
X172699680Y-198912480D02*
X172648880Y-198963280D01*
X190797180Y-198963280D02*
X182821580Y-198963280D01*
X182821580Y-198963280D02*
X182770780Y-198912480D01*
X182211980Y-69601080D02*
X182237380Y-69575680D01*
X174909480Y-69601080D02*
X182211980Y-69601080D01*
X191698880Y-69575680D02*
X184777380Y-69575680D01*
X182237380Y-72115680D02*
X174934880Y-72115680D01*
X174934880Y-72115680D02*
X174909480Y-72141080D01*
X191698880Y-72115680D02*
X184777380Y-72115680D01*
X182211980Y-74681080D02*
X182237380Y-74655680D01*
X174909480Y-74681080D02*
X182211980Y-74681080D01*
X184777380Y-74655680D02*
X191698880Y-74655680D01*
X182237380Y-77195680D02*
X174934880Y-77195680D01*
X174934880Y-77195680D02*
X174909480Y-77221080D01*
X191698880Y-77195680D02*
X184777380Y-77195680D01*
X174909480Y-79761080D02*
X182211980Y-79761080D01*
X182211980Y-79761080D02*
X182237380Y-79735680D01*
X184777380Y-79735680D02*
X191698880Y-79735680D01*
X182237380Y-82275680D02*
X174934880Y-82275680D01*
X174934880Y-82275680D02*
X174909480Y-82301080D01*
X191698880Y-82275680D02*
X184777380Y-82275680D01*
X182211980Y-84841080D02*
X182237380Y-84815680D01*
X174909480Y-84841080D02*
X182211980Y-84841080D01*
X184777380Y-84815680D02*
X191698880Y-84815680D01*
X182237380Y-87355680D02*
X174934880Y-87355680D01*
X174934880Y-87355680D02*
X174909480Y-87381080D01*
X191698880Y-87355680D02*
X184777380Y-87355680D01*
X182237380Y-89895680D02*
X174934880Y-89895680D01*
X174934880Y-89895680D02*
X174909480Y-89921080D01*
X184777380Y-89895680D02*
X191698880Y-89895680D01*
X182211980Y-92461080D02*
X182237380Y-92435680D01*
X174909480Y-92461080D02*
X182211980Y-92461080D01*
X184777380Y-92435680D02*
X191698880Y-92435680D01*
X182237380Y-94975680D02*
X174934880Y-94975680D01*
X174934880Y-94975680D02*
X174909480Y-95001080D01*
X191698880Y-94975680D02*
X184777380Y-94975680D01*
X182211980Y-97541080D02*
X182237380Y-97515680D01*
X174909480Y-97541080D02*
X182211980Y-97541080D01*
X191698880Y-97515680D02*
X184777380Y-97515680D01*
X182237380Y-100055680D02*
X174934880Y-100055680D01*
X174934880Y-100055680D02*
X174909480Y-100081080D01*
X184777380Y-100055680D02*
X191698880Y-100055680D01*
X182211980Y-102621080D02*
X182237380Y-102595680D01*
X174909480Y-102621080D02*
X182211980Y-102621080D01*
X191698880Y-102595680D02*
X184777380Y-102595680D01*
X182237380Y-105135680D02*
X174934880Y-105135680D01*
X174934880Y-105135680D02*
X174909480Y-105161080D01*
X184777380Y-105135680D02*
X191698880Y-105135680D01*
X174909480Y-107701080D02*
X182211980Y-107701080D01*
X182211980Y-107701080D02*
X182237380Y-107675680D01*
X191698880Y-107675680D02*
X184777380Y-107675680D01*
X182237380Y-110215680D02*
X174934880Y-110215680D01*
X174934880Y-110215680D02*
X174909480Y-110241080D01*
X191698880Y-110215680D02*
X184777380Y-110215680D01*
X182237380Y-112755680D02*
X174934880Y-112755680D01*
X174934880Y-112755680D02*
X174909480Y-112781080D01*
X184777380Y-112755680D02*
X191698880Y-112755680D01*
X174909480Y-115321080D02*
X182211980Y-115321080D01*
X182211980Y-115321080D02*
X182237380Y-115295680D01*
X191698880Y-115295680D02*
X184777380Y-115295680D01*
X182237380Y-117835680D02*
X174934880Y-117835680D01*
X174934880Y-117835680D02*
X174909480Y-117861080D01*
X184777380Y-117835680D02*
X191698880Y-117835680D01*
X182211980Y-120401080D02*
X182237380Y-120375680D01*
X174909480Y-120401080D02*
X182211980Y-120401080D01*
X191698880Y-120375680D02*
X184777380Y-120375680D01*
X182237380Y-122915680D02*
X174934880Y-122915680D01*
X174934880Y-122915680D02*
X174909480Y-122941080D01*
X191698880Y-122915680D02*
X184777380Y-122915680D01*
X174909480Y-125481080D02*
X182211980Y-125481080D01*
X182211980Y-125481080D02*
X182237380Y-125455680D01*
X184777380Y-125455680D02*
X191698880Y-125455680D01*
X101113860Y-211117680D02*
X101113860Y-206427680D01*
X109548860Y-202652680D02*
X109548860Y-204117680D01*
X109073860Y-202177680D02*
X109548860Y-202652680D01*
X105363860Y-202177680D02*
X109073860Y-202177680D01*
X101113860Y-206427680D02*
X105363860Y-202177680D01*
X101113860Y-213117680D02*
X102493860Y-213117680D01*
X109548860Y-214972680D02*
X109548860Y-213517680D01*
X108583860Y-215937680D02*
X109548860Y-214972680D01*
X105313860Y-215937680D02*
X108583860Y-215937680D01*
X102493860Y-213117680D02*
X105313860Y-215937680D01*
X99113860Y-211117680D02*
X99113860Y-207791282D01*
X110818860Y-202502680D02*
X110818860Y-204117680D01*
X110043858Y-201727678D02*
X110818860Y-202502680D01*
X105177464Y-201727678D02*
X110043858Y-201727678D01*
X99113860Y-207791282D02*
X105177464Y-201727678D01*
X99113860Y-213117680D02*
X99113860Y-213897680D01*
X110818860Y-215582680D02*
X110818860Y-213517680D01*
X109983860Y-216417680D02*
X110818860Y-215582680D01*
X101633860Y-216417680D02*
X109983860Y-216417680D01*
X99113860Y-213897680D02*
X101633860Y-216417680D01*
X112088860Y-204117680D02*
X112088860Y-202632680D01*
X97113860Y-208967680D02*
X97113860Y-211117680D01*
X104843860Y-201237680D02*
X97113860Y-208967680D01*
X110693860Y-201237680D02*
X104843860Y-201237680D01*
X112088860Y-202632680D02*
X110693860Y-201237680D01*
X112088860Y-213517680D02*
X112088860Y-215572680D01*
X100883860Y-216887680D02*
X97113860Y-213117680D01*
X110773860Y-216887680D02*
X100883860Y-216887680D01*
X112088860Y-215572680D02*
X110773860Y-216887680D01*
X95113860Y-211117680D02*
X95113860Y-209157680D01*
X113358860Y-201892680D02*
X113358860Y-204117680D01*
X112253858Y-200787678D02*
X113358860Y-201892680D01*
X103483862Y-200787678D02*
X112253858Y-200787678D01*
X95113860Y-209157680D02*
X103483862Y-200787678D01*
X95113860Y-213117680D02*
X95113860Y-215467680D01*
X113358860Y-216682680D02*
X113358860Y-213517680D01*
X112633860Y-217407680D02*
X113358860Y-216682680D01*
X97053860Y-217407680D02*
X112633860Y-217407680D01*
X95113860Y-215467680D02*
X97053860Y-217407680D01*
X114628860Y-204117680D02*
X114628860Y-201782680D01*
X103307462Y-200327680D02*
X93113860Y-210521282D01*
X113173860Y-200327680D02*
X103307462Y-200327680D01*
X114628860Y-201782680D02*
X113173860Y-200327680D01*
X93113860Y-210521282D02*
X93113860Y-211117680D01*
X93113860Y-213117680D02*
X93113860Y-214104078D01*
X114628860Y-216392680D02*
X114628860Y-213517680D01*
X113163858Y-217857682D02*
X114628860Y-216392680D01*
X96867464Y-217857682D02*
X113163858Y-217857682D01*
X93113860Y-214104078D02*
X96867464Y-217857682D01*
X91113860Y-211117680D02*
X91113860Y-210817680D01*
X91113860Y-210817680D02*
X102093860Y-199837680D01*
X102093860Y-199837680D02*
X114003860Y-199837680D01*
X114003860Y-199837680D02*
X115898860Y-201732680D01*
X115898860Y-201732680D02*
X115898860Y-204117680D01*
X91113860Y-213117680D02*
X91113860Y-214357680D01*
X115898860Y-217212680D02*
X115898860Y-213517680D01*
X114703860Y-218407680D02*
X115898860Y-217212680D01*
X95163860Y-218407680D02*
X114703860Y-218407680D01*
X91113860Y-214357680D02*
X95163860Y-218407680D01*
X117168860Y-204117680D02*
X117168860Y-202162680D01*
X100893860Y-199337680D02*
X89113860Y-211117680D01*
X114343860Y-199337680D02*
X100893860Y-199337680D01*
X117168860Y-202162680D02*
X114343860Y-199337680D01*
X117168860Y-213517680D02*
X117168860Y-217212680D01*
X94853862Y-218857682D02*
X89113860Y-213117680D01*
X115523858Y-218857682D02*
X94853862Y-218857682D01*
X117168860Y-217212680D02*
X115523858Y-218857682D01*
X87113860Y-211117680D02*
X87113860Y-210537680D01*
X87113860Y-210537680D02*
X98883860Y-198767680D01*
X98883860Y-198767680D02*
X115133860Y-198767680D01*
X115133860Y-198767680D02*
X118438860Y-202072680D01*
X118438860Y-202072680D02*
X118438860Y-204117680D01*
X87113860Y-213117680D02*
X87113860Y-214497680D01*
X118438860Y-217982680D02*
X118438860Y-213517680D01*
X117113856Y-219307684D02*
X118438860Y-217982680D01*
X91923864Y-219307684D02*
X117113856Y-219307684D01*
X87113860Y-214497680D02*
X91923864Y-219307684D01*
X90783860Y-187357680D02*
X90783860Y-183027680D01*
X99428860Y-180262680D02*
X99428860Y-182687680D01*
X98203860Y-179037680D02*
X99428860Y-180262680D01*
X94773860Y-179037680D02*
X98203860Y-179037680D01*
X90783860Y-183027680D02*
X94773860Y-179037680D01*
X90783860Y-189357680D02*
X90783860Y-189427680D01*
X90783860Y-189427680D02*
X95433860Y-194077680D01*
X95433860Y-194077680D02*
X98853860Y-194077680D01*
X98853860Y-194077680D02*
X99428860Y-193502680D01*
X99428860Y-193502680D02*
X99428860Y-192087680D01*
X88783860Y-187357680D02*
X88783860Y-183467680D01*
X100698860Y-179982680D02*
X100698860Y-182687680D01*
X99283860Y-178567680D02*
X100698860Y-179982680D01*
X93683860Y-178567680D02*
X99283860Y-178567680D01*
X88783860Y-183467680D02*
X93683860Y-178567680D01*
X88783860Y-189357680D02*
X88783860Y-189767680D01*
X88783860Y-189767680D02*
X93543862Y-194527682D01*
X93543862Y-194527682D02*
X100353858Y-194527682D01*
X100353858Y-194527682D02*
X100698860Y-194182680D01*
X100698860Y-194182680D02*
X100698860Y-192087680D01*
X86783860Y-187357680D02*
X86783860Y-182957680D01*
X101968860Y-178862680D02*
X101968860Y-182687680D01*
X101223858Y-178117678D02*
X101968860Y-178862680D01*
X91623862Y-178117678D02*
X101223858Y-178117678D01*
X86783860Y-182957680D02*
X91623862Y-178117678D01*
X86783860Y-189357680D02*
X86783860Y-189877680D01*
X86783860Y-189877680D02*
X91943860Y-195037680D01*
X91943860Y-195037680D02*
X101503860Y-195037680D01*
X101503860Y-195037680D02*
X101968860Y-194572680D01*
X101968860Y-194572680D02*
X101968860Y-192087680D01*
X84783860Y-187357680D02*
X84783860Y-181757680D01*
X103238860Y-179482680D02*
X103238860Y-182687680D01*
X101253860Y-177497680D02*
X103238860Y-179482680D01*
X89043860Y-177497680D02*
X101253860Y-177497680D01*
X84783860Y-181757680D02*
X89043860Y-177497680D01*
X84783860Y-189357680D02*
X84783860Y-190587680D01*
X103238860Y-194902680D02*
X103238860Y-192087680D01*
X102653858Y-195487682D02*
X103238860Y-194902680D01*
X89683862Y-195487682D02*
X102653858Y-195487682D01*
X84783860Y-190587680D02*
X89683862Y-195487682D01*
X104508860Y-182687680D02*
X104508860Y-179002680D01*
X82783860Y-182507680D02*
X82783860Y-187357680D01*
X88243862Y-177047678D02*
X82783860Y-182507680D01*
X102553858Y-177047678D02*
X88243862Y-177047678D01*
X104508860Y-179002680D02*
X102553858Y-177047678D01*
X104508860Y-192087680D02*
X104508860Y-194332680D01*
X89393860Y-195967680D02*
X82783860Y-189357680D01*
X102873860Y-195967680D02*
X89393860Y-195967680D01*
X104508860Y-194332680D02*
X102873860Y-195967680D01*
X80783860Y-187357680D02*
X80783860Y-183067680D01*
X105778860Y-179562680D02*
X105778860Y-182687680D01*
X102813856Y-176597676D02*
X105778860Y-179562680D01*
X87253864Y-176597676D02*
X102813856Y-176597676D01*
X80783860Y-183067680D02*
X87253864Y-176597676D01*
X80783860Y-189357680D02*
X80783860Y-190907680D01*
X105778860Y-194272680D02*
X105778860Y-192087680D01*
X103543860Y-196507680D02*
X105778860Y-194272680D01*
X86383860Y-196507680D02*
X103543860Y-196507680D01*
X80783860Y-190907680D02*
X86383860Y-196507680D01*
X78783860Y-187357680D02*
X78783860Y-184431282D01*
X107048860Y-179912680D02*
X107048860Y-182687680D01*
X103283854Y-176147674D02*
X107048860Y-179912680D01*
X87067468Y-176147674D02*
X103283854Y-176147674D01*
X78783860Y-184431282D02*
X87067468Y-176147674D01*
X107048860Y-192087680D02*
X107048860Y-194482680D01*
X78783860Y-191167680D02*
X78783860Y-189357680D01*
X84693860Y-197077680D02*
X78783860Y-191167680D01*
X104453860Y-197077680D02*
X84693860Y-197077680D01*
X107048860Y-194482680D02*
X104453860Y-197077680D01*
X76783860Y-187357680D02*
X76783860Y-184217680D01*
X108318860Y-179522680D02*
X108318860Y-182687680D01*
X104493852Y-175697672D02*
X108318860Y-179522680D01*
X85303868Y-175697672D02*
X104493852Y-175697672D01*
X76783860Y-184217680D02*
X85303868Y-175697672D01*
X76783860Y-189357680D02*
X76783860Y-193057680D01*
X108318860Y-195662680D02*
X108318860Y-192087680D01*
X106373860Y-197607680D02*
X108318860Y-195662680D01*
X81333860Y-197607680D02*
X106373860Y-197607680D01*
X76783860Y-193057680D02*
X81333860Y-197607680D01*
X64913860Y-152297680D02*
X56883860Y-144267680D01*
X117503860Y-152297680D02*
X64913860Y-152297680D01*
X119158860Y-150642680D02*
X117503860Y-152297680D01*
X119158860Y-147377680D02*
X119158860Y-150642680D01*
X119170860Y-137663680D02*
X119170860Y-135094680D01*
X119170860Y-135094680D02*
X116593860Y-132517680D01*
X65363860Y-108017680D02*
X57333860Y-99987680D01*
X117953860Y-108017680D02*
X65363860Y-108017680D01*
X119608860Y-106362680D02*
X117953860Y-108017680D01*
X119608860Y-103097680D02*
X119608860Y-106362680D01*
X119620860Y-93563680D02*
X119620860Y-90994680D01*
X119620860Y-90994680D02*
X117043860Y-88417680D01*
X48575860Y-79113680D02*
X55195862Y-85733682D01*
X48575860Y-77253680D02*
X48575860Y-79113680D01*
X55195862Y-85733682D02*
X117955858Y-85733682D01*
X117955858Y-85733682D02*
X119740860Y-83948680D01*
X119740860Y-83948680D02*
X119740860Y-80363680D01*
X119740860Y-68039680D02*
X119740860Y-70963680D01*
X116768860Y-65067680D02*
X119740860Y-68039680D01*
X64225860Y-85283680D02*
X56195860Y-77253680D01*
X116815860Y-85283680D02*
X64225860Y-85283680D01*
X118470860Y-83628680D02*
X116815860Y-85283680D01*
X118470860Y-80363680D02*
X118470860Y-83628680D01*
X118470860Y-68194680D02*
X118470860Y-70963680D01*
X115893860Y-65617680D02*
X118470860Y-68194680D01*
X63815860Y-77253680D02*
X63815860Y-78803680D01*
X69815864Y-84803684D02*
X115325856Y-84803684D01*
X63815860Y-78803680D02*
X69815864Y-84803684D01*
X115325856Y-84803684D02*
X117200860Y-82928680D01*
X117200860Y-82928680D02*
X117200860Y-80363680D01*
X117225860Y-70938680D02*
X117225860Y-68374680D01*
X117225860Y-68374680D02*
X115068860Y-66217680D01*
X117225860Y-70938680D02*
X117200860Y-70963680D01*
X115930860Y-82495078D02*
X114072256Y-84353682D01*
X114072256Y-84353682D02*
X77355862Y-84353682D01*
X77355862Y-84353682D02*
X70765860Y-77763680D01*
X115930860Y-80363680D02*
X115930860Y-82495078D01*
X115955860Y-70938680D02*
X115955860Y-68454680D01*
X115955860Y-68454680D02*
X114268860Y-66767680D01*
X115955860Y-70938680D02*
X115930860Y-70963680D01*
X79055860Y-77253680D02*
X79055860Y-78773680D01*
X84185860Y-83903680D02*
X113885860Y-83903680D01*
X79055860Y-78773680D02*
X84185860Y-83903680D01*
X113885860Y-83903680D02*
X114660860Y-83128680D01*
X114660860Y-83128680D02*
X114660860Y-80363680D01*
X114685860Y-70763680D02*
X114685860Y-68634680D01*
X114685860Y-68634680D02*
X113368860Y-67317680D01*
X113390860Y-82938680D02*
X112955858Y-83373682D01*
X113390860Y-80363680D02*
X113390860Y-82938680D01*
X112955858Y-83373682D02*
X92795862Y-83373682D01*
X92795862Y-83373682D02*
X86675860Y-77253680D01*
X113415860Y-70763680D02*
X113415860Y-68864680D01*
X113415860Y-68864680D02*
X112318860Y-67767680D01*
X94295860Y-77253680D02*
X94295860Y-78143680D01*
X99075860Y-82923680D02*
X111055860Y-82923680D01*
X94295860Y-78143680D02*
X99075860Y-82923680D01*
X111055860Y-82923680D02*
X112120860Y-81858680D01*
X112120860Y-81858680D02*
X112120860Y-80363680D01*
X112145860Y-70763680D02*
X112145860Y-69144680D01*
X112145860Y-69144680D02*
X111368860Y-68367680D01*
X101915860Y-77253680D02*
X101915860Y-80723680D01*
X103645860Y-82453680D02*
X110195860Y-82453680D01*
X101915860Y-80723680D02*
X103645860Y-82453680D01*
X110195860Y-82453680D02*
X110850860Y-81798680D01*
X110850860Y-81798680D02*
X110850860Y-80363680D01*
X110110860Y-68353680D02*
X110875860Y-69118680D01*
X110875860Y-70763680D02*
X110875860Y-69118680D01*
X49073860Y-121647680D02*
X49073860Y-123507680D01*
X55693862Y-130127682D02*
X118453858Y-130127682D01*
X49073860Y-123507680D02*
X55693862Y-130127682D01*
X118453858Y-130127682D02*
X120238860Y-128342680D01*
X120238860Y-128342680D02*
X120238860Y-124757680D01*
X117543860Y-110117680D02*
X117543860Y-109517680D01*
X120440860Y-114963680D02*
X120440860Y-113014680D01*
X120440860Y-113014680D02*
X117543860Y-110117680D01*
X117543860Y-109517680D02*
X117643860Y-109417680D01*
X64723860Y-129677680D02*
X56693860Y-121647680D01*
X117313860Y-129677680D02*
X64723860Y-129677680D01*
X118968860Y-128022680D02*
X117313860Y-129677680D01*
X118968860Y-124757680D02*
X118968860Y-128022680D01*
X119170860Y-114963680D02*
X119170860Y-112394680D01*
X119170860Y-112394680D02*
X116593860Y-109817680D01*
X64313860Y-121647680D02*
X64313860Y-123197680D01*
X64313860Y-123197680D02*
X70313864Y-129197684D01*
X115823856Y-129197684D02*
X117698860Y-127322680D01*
X70313864Y-129197684D02*
X115823856Y-129197684D01*
X117698860Y-127322680D02*
X117698860Y-124757680D01*
X117900860Y-112574680D02*
X115743860Y-110417680D01*
X117900860Y-114963680D02*
X117900860Y-112574680D01*
X116428860Y-124757680D02*
X116428860Y-126889078D01*
X77853862Y-128747682D02*
X71263860Y-122157680D01*
X114570256Y-128747682D02*
X77853862Y-128747682D01*
X116428860Y-126889078D02*
X114570256Y-128747682D01*
X116630860Y-112654680D02*
X114943860Y-110967680D01*
X116630860Y-114963680D02*
X116630860Y-112654680D01*
X79553860Y-121647680D02*
X79553860Y-123167680D01*
X79553860Y-123167680D02*
X84683860Y-128297680D01*
X114383860Y-128297680D02*
X115158860Y-127522680D01*
X84683860Y-128297680D02*
X114383860Y-128297680D01*
X115158860Y-127522680D02*
X115158860Y-124757680D01*
X115360860Y-112834680D02*
X114043860Y-111517680D01*
X115360860Y-114963680D02*
X115360860Y-112834680D01*
X113888860Y-124757680D02*
X113888860Y-127332680D01*
X113453858Y-127767682D02*
X93293862Y-127767682D01*
X113888860Y-127332680D02*
X113453858Y-127767682D01*
X93293862Y-127767682D02*
X87173860Y-121647680D01*
X114090860Y-113064680D02*
X112993860Y-111967680D01*
X114090860Y-114963680D02*
X114090860Y-113064680D01*
X113888860Y-115357680D02*
X113888860Y-114336282D01*
X94793860Y-121647680D02*
X94793860Y-122537680D01*
X94793860Y-122537680D02*
X99573860Y-127317680D01*
X111553860Y-127317680D02*
X112618860Y-126252680D01*
X99573860Y-127317680D02*
X111553860Y-127317680D01*
X112618860Y-126252680D02*
X112618860Y-124757680D01*
X112820860Y-113344680D02*
X112043860Y-112567680D01*
X112820860Y-114963680D02*
X112820860Y-113344680D01*
X102413860Y-121647680D02*
X102413860Y-125117680D01*
X102413860Y-125117680D02*
X104143860Y-126847680D01*
X110693860Y-126847680D02*
X111348860Y-126192680D01*
X104143860Y-126847680D02*
X110693860Y-126847680D01*
X111348860Y-126192680D02*
X111348860Y-124757680D01*
X111550860Y-114963680D02*
X111550860Y-113318680D01*
X110785860Y-112553680D02*
X111550860Y-113318680D01*
X49893860Y-166207680D02*
X49893860Y-168067680D01*
X121058860Y-172902680D02*
X121058860Y-169317680D01*
X119273858Y-174687682D02*
X121058860Y-172902680D01*
X56513862Y-174687682D02*
X119273858Y-174687682D01*
X49893860Y-168067680D02*
X56513862Y-174687682D01*
X118068860Y-153867680D02*
X121040860Y-156839680D01*
X121040860Y-156839680D02*
X121040860Y-159763680D01*
X119788860Y-169317680D02*
X119788860Y-172582680D01*
X65543860Y-174237680D02*
X57513860Y-166207680D01*
X118133860Y-174237680D02*
X65543860Y-174237680D01*
X119788860Y-172582680D02*
X118133860Y-174237680D01*
X117193860Y-154417680D02*
X119770860Y-156994680D01*
X119770860Y-156994680D02*
X119770860Y-159763680D01*
X65133860Y-166207680D02*
X65133860Y-167757680D01*
X118518860Y-171882680D02*
X118518860Y-169317680D01*
X116643856Y-173757684D02*
X118518860Y-171882680D01*
X71133864Y-173757684D02*
X116643856Y-173757684D01*
X65133860Y-167757680D02*
X71133864Y-173757684D01*
X118525860Y-157174680D02*
X116368860Y-155017680D01*
X118525860Y-159738680D02*
X118525860Y-157174680D01*
X117248860Y-169317680D02*
X117248860Y-171449078D01*
X78673862Y-173307682D02*
X72083860Y-166717680D01*
X115390256Y-173307682D02*
X78673862Y-173307682D01*
X117248860Y-171449078D02*
X115390256Y-173307682D01*
X117255860Y-157254680D02*
X115568860Y-155567680D01*
X117255860Y-159738680D02*
X117255860Y-157254680D01*
X80373860Y-166207680D02*
X80373860Y-167727680D01*
X115978860Y-172082680D02*
X115978860Y-169317680D01*
X115203860Y-172857680D02*
X115978860Y-172082680D01*
X85503860Y-172857680D02*
X115203860Y-172857680D01*
X80373860Y-167727680D02*
X85503860Y-172857680D01*
X115985860Y-157434680D02*
X114668860Y-156117680D01*
X115985860Y-159563680D02*
X115985860Y-157434680D01*
X114708860Y-169317680D02*
X114708860Y-171892680D01*
X94113862Y-172327682D02*
X87993860Y-166207680D01*
X114273858Y-172327682D02*
X94113862Y-172327682D01*
X114708860Y-171892680D02*
X114273858Y-172327682D01*
X114715860Y-157664680D02*
X113618860Y-156567680D01*
X114715860Y-159563680D02*
X114715860Y-157664680D01*
X95613860Y-166207680D02*
X95613860Y-167097680D01*
X113438860Y-170812680D02*
X113438860Y-169317680D01*
X112373860Y-171877680D02*
X113438860Y-170812680D01*
X100393860Y-171877680D02*
X112373860Y-171877680D01*
X95613860Y-167097680D02*
X100393860Y-171877680D01*
X113445860Y-157944680D02*
X112668860Y-157167680D01*
X113445860Y-159563680D02*
X113445860Y-157944680D01*
X103233860Y-166207680D02*
X103233860Y-169677680D01*
X112168860Y-170752680D02*
X112168860Y-169317680D01*
X111513860Y-171407680D02*
X112168860Y-170752680D01*
X104963860Y-171407680D02*
X111513860Y-171407680D01*
X103233860Y-169677680D02*
X104963860Y-171407680D01*
X112175860Y-159563680D02*
X112175860Y-157918680D01*
X111410860Y-157153680D02*
X112175860Y-157918680D01*
D41*
X234779820Y-71948040D02*
X231787700Y-71948040D01*
X233021500Y-64892560D02*
X230802180Y-67111880D01*
X230802180Y-67111880D02*
X230802180Y-70962520D01*
X230802180Y-70962520D02*
X231787700Y-71948040D01*
X233021500Y-64892560D02*
X234820460Y-64892560D01*
D38*
X234464860Y-106762560D02*
X233625380Y-106762560D01*
D41*
X233625380Y-106762560D02*
X231376220Y-109011720D01*
X231376220Y-109011720D02*
X231376220Y-113141760D01*
X231376220Y-113141760D02*
X232869740Y-114635280D01*
X232869740Y-114635280D02*
X234546140Y-114635280D01*
X234988100Y-136911080D02*
X232803700Y-136911080D01*
X232803700Y-136911080D02*
X230852980Y-134960360D01*
X230852980Y-132628640D02*
X234972860Y-128508760D01*
X230852980Y-134960360D02*
X230852980Y-132628640D01*
X234980480Y-151439880D02*
X232712260Y-151439880D01*
X233265980Y-159451040D02*
X235023660Y-159451040D01*
X231056180Y-157256480D02*
X233301540Y-159501840D01*
X231056180Y-153095960D02*
X231056180Y-157256480D01*
X232712260Y-151439880D02*
X231056180Y-153095960D01*
X235501180Y-181284880D02*
X232630980Y-181284880D01*
X231909620Y-173456600D02*
X229608380Y-175757840D01*
X231909620Y-173456600D02*
X235262420Y-173456600D01*
X229608380Y-178262280D02*
X229608380Y-175757840D01*
X232630980Y-181284880D02*
X229608380Y-178262280D01*
D38*
X234744260Y-84512160D02*
X234067340Y-84512160D01*
D41*
X234067340Y-84512160D02*
X230217980Y-88361520D01*
X230217980Y-88361520D02*
X230217980Y-89966800D01*
X230217980Y-89966800D02*
X233022140Y-92770960D01*
X233022140Y-92770960D02*
X234891580Y-92770960D01*
D40*
X172427900Y-105100120D02*
X171026300Y-105100120D01*
X204299820Y-74736960D02*
X204177900Y-74858880D01*
X204299820Y-74736960D02*
X207624500Y-74736960D01*
X204162660Y-68636480D02*
X204162660Y-70266560D01*
X200843860Y-65317680D02*
X204162660Y-68636480D01*
X169543860Y-65317680D02*
X200843860Y-65317680D01*
X169443860Y-65217680D02*
X169543860Y-65317680D01*
X169443860Y-103517680D02*
X169443860Y-65217680D01*
X171026300Y-105100120D02*
X169443860Y-103517680D01*
D38*
X154810460Y-121589760D02*
X158521780Y-121589760D01*
X162311420Y-117800120D02*
X172427900Y-117800120D01*
X158521780Y-121589760D02*
X162311420Y-117800120D01*
X151925000Y-121785380D02*
X154614840Y-121785380D01*
X154614840Y-121785380D02*
X154810460Y-121589760D01*
X152120620Y-121589760D02*
X151925000Y-121785380D01*
X150833000Y-117157500D02*
X150833000Y-118211420D01*
X150078440Y-121785380D02*
X151925000Y-121785380D01*
X149623780Y-121330720D02*
X150078440Y-121785380D01*
X149623780Y-119420640D02*
X149623780Y-121330720D01*
X150833000Y-118211420D02*
X149623780Y-119420640D01*
X151714200Y-121785380D02*
X152875000Y-121785380D01*
D40*
X207713220Y-114937540D02*
X206126080Y-114937540D01*
X205778100Y-76583360D02*
X207624500Y-74736960D01*
X205778100Y-111516160D02*
X205778100Y-76583360D01*
X206047340Y-111785400D02*
X205778100Y-111516160D01*
X206126080Y-114937540D02*
X206047340Y-114858800D01*
X209001180Y-149235160D02*
X206651860Y-149235160D01*
X207713220Y-143972640D02*
X207713220Y-114937540D01*
X206616300Y-145069560D02*
X207713220Y-143972640D01*
X206651860Y-149235160D02*
X206626460Y-149209760D01*
D39*
X158143860Y-60367680D02*
X158143860Y-56067680D01*
X158143860Y-56067680D02*
X158443860Y-55767680D01*
X158493860Y-49267680D02*
X158493860Y-55717680D01*
X158493860Y-55717680D02*
X158443860Y-55767680D01*
X151543860Y-56917680D02*
X151543860Y-59417680D01*
X151543860Y-59417680D02*
X152343860Y-60217680D01*
X151493860Y-49267680D02*
X151493860Y-56867680D01*
X151493860Y-56867680D02*
X151543860Y-56917680D01*
X148193860Y-58617680D02*
X148193860Y-61067680D01*
X148193860Y-61067680D02*
X148043860Y-61217680D01*
X144493860Y-49267680D02*
X144493860Y-54917680D01*
X144493860Y-54917680D02*
X148193860Y-58617680D01*
X137443860Y-61267680D02*
X136243860Y-61267680D01*
X135743860Y-60767680D02*
X135743860Y-59217680D01*
X136243860Y-61267680D02*
X135743860Y-60767680D01*
X137493860Y-49267680D02*
X137493860Y-60117680D01*
X137443860Y-60167680D02*
X137443860Y-61267680D01*
X137493860Y-60117680D02*
X137443860Y-60167680D01*
X155393860Y-56467680D02*
X155393860Y-60167680D01*
X155393860Y-60167680D02*
X155443860Y-60217680D01*
X154993860Y-49267680D02*
X154993860Y-56067680D01*
X154993860Y-56067680D02*
X155393860Y-56467680D01*
X149343860Y-57817680D02*
X149343860Y-59267680D01*
X149343860Y-59267680D02*
X150193860Y-60117680D01*
X147993860Y-49267680D02*
X147993860Y-56467680D01*
X147993860Y-56467680D02*
X149343860Y-57817680D01*
X142743860Y-59967680D02*
X142743860Y-60367680D01*
X142743860Y-60367680D02*
X140893860Y-62217680D01*
X140993860Y-62117680D02*
X140993860Y-49267680D01*
X140893860Y-62217680D02*
X140993860Y-62117680D01*
X133343860Y-60217680D02*
X132043860Y-60217680D01*
X130493860Y-61767680D02*
X115543860Y-61767680D01*
X132043860Y-60217680D02*
X130493860Y-61767680D01*
X133993860Y-59567680D02*
X133993860Y-49267680D01*
X133343860Y-60217680D02*
X133993860Y-59567680D01*
X115493860Y-58517680D02*
X126043860Y-58517680D01*
X126043860Y-58517680D02*
X127043860Y-57517680D01*
X126993860Y-57467680D02*
X126993860Y-49267680D01*
X127043860Y-57517680D02*
X126993860Y-57467680D01*
X115543860Y-60067680D02*
X129143860Y-60067680D01*
X129143860Y-60067680D02*
X130493860Y-58717680D01*
X130493860Y-49267680D02*
X130493860Y-58717680D01*
X115493860Y-56767680D02*
X122793860Y-56767680D01*
X122793860Y-56767680D02*
X123543860Y-56017680D01*
X123493860Y-49267680D02*
X123493860Y-55967680D01*
X123493860Y-55967680D02*
X123543860Y-56017680D01*
X115443860Y-54567680D02*
X119793860Y-54567680D01*
X119793860Y-54567680D02*
X119893860Y-54667680D01*
X119893860Y-54667680D02*
X119993860Y-54567680D01*
X119993860Y-49267680D02*
X119993860Y-54567680D01*
D40*
X216943860Y-124367680D02*
X220243860Y-124367680D01*
X216643860Y-124667680D02*
X216943860Y-124367680D01*
D39*
X214012780Y-79593440D02*
X212031580Y-77612240D01*
X212031580Y-77612240D02*
X212031580Y-77386000D01*
D38*
X215226332Y-75805400D02*
X214829567Y-75805400D01*
X214829567Y-75805400D02*
X213248967Y-77386000D01*
X212031580Y-77386000D02*
X213248967Y-77386000D01*
D39*
X213179660Y-119293460D02*
X211757260Y-117871060D01*
X213179660Y-127579120D02*
X213179660Y-119293460D01*
X210055460Y-130703320D02*
X213179660Y-127579120D01*
D38*
X212073860Y-116735860D02*
X212042460Y-116735860D01*
X212042460Y-116735860D02*
X211757260Y-117021060D01*
X211757260Y-117021060D02*
X211757260Y-117871060D01*
X214680460Y-115158860D02*
X214553460Y-115158860D01*
X214553460Y-115158860D02*
X214528470Y-115183850D01*
X214528470Y-115183850D02*
X213625870Y-115183850D01*
X213625870Y-115183850D02*
X212073860Y-116735860D01*
D39*
X214901780Y-154205760D02*
X213085680Y-152389660D01*
X214901780Y-157607000D02*
X214901780Y-154205760D01*
X209059780Y-163449000D02*
X214901780Y-157607000D01*
X202653900Y-163449000D02*
X209059780Y-163449000D01*
X202577700Y-163372800D02*
X202653900Y-163449000D01*
D38*
X213085680Y-152389660D02*
X213085680Y-149184360D01*
X214415280Y-147854760D02*
X215335632Y-147854760D01*
X213085680Y-149184360D02*
X214415280Y-147854760D01*
D41*
X62643860Y-205989460D02*
X62843860Y-205989460D01*
X62643860Y-205989460D02*
X57380120Y-205989460D01*
X62843860Y-205989460D02*
X70093860Y-198739460D01*
D38*
X51180120Y-205989460D02*
X46649120Y-205989460D01*
X46649120Y-205989460D02*
X46115760Y-206522820D01*
X108278860Y-205602680D02*
X108278860Y-204117680D01*
X109543860Y-206867680D02*
X108278860Y-205602680D01*
X98158860Y-182687680D02*
X98158860Y-184582680D01*
X98993860Y-185417680D02*
X98158860Y-184582680D01*
X116743860Y-185417680D02*
X98993860Y-185417680D01*
X116743860Y-185417680D02*
X117843860Y-184317680D01*
X110898860Y-159917680D02*
X110898860Y-161372680D01*
X111743860Y-162217680D02*
X110898860Y-161372680D01*
X117793860Y-162217680D02*
X111743860Y-162217680D01*
X117793860Y-162217680D02*
X117843860Y-162167680D01*
X110268860Y-137977680D02*
X110268860Y-139742680D01*
X111293860Y-140767680D02*
X110268860Y-139742680D01*
X119293860Y-140767680D02*
X111293860Y-140767680D01*
X119293860Y-140767680D02*
X119393860Y-140667680D01*
X110078860Y-115357680D02*
X110078860Y-117152680D01*
X111343860Y-118417680D02*
X110078860Y-117152680D01*
X120743860Y-118417680D02*
X111343860Y-118417680D01*
X120743860Y-118417680D02*
X120843860Y-118517680D01*
X110718860Y-96092680D02*
X110718860Y-93697680D01*
X111843860Y-97217680D02*
X110718860Y-96092680D01*
X112043860Y-74017680D02*
X109580860Y-71554680D01*
X109580860Y-71554680D02*
X109580860Y-70963680D01*
X109580860Y-71430680D02*
X109580860Y-70963680D01*
X108262080Y-204117680D02*
X108278860Y-204117680D01*
X184304940Y-59537600D02*
X191163780Y-59537600D01*
X192543860Y-60917680D02*
X194243860Y-60917680D01*
X191163780Y-59537600D02*
X192543860Y-60917680D01*
D40*
X195593860Y-61237680D02*
X194273860Y-61237680D01*
X194273860Y-61237680D02*
X194213860Y-61297680D01*
X196973860Y-61237680D02*
X195593860Y-61237680D01*
D38*
X64933860Y-218727680D02*
X64933860Y-212377680D01*
X64933860Y-212377680D02*
X65203860Y-212107680D01*
D41*
X64933860Y-224927680D02*
X65653860Y-224927680D01*
X65653860Y-224927680D02*
X72033860Y-231307680D01*
X125105860Y-231307680D02*
X132105860Y-231307680D01*
X132105860Y-231307680D02*
X135087860Y-228325680D01*
X118623860Y-231307680D02*
X125105860Y-231307680D01*
X125105860Y-231307680D02*
X128087860Y-228325680D01*
X121087860Y-228325680D02*
X121087860Y-226767680D01*
X121087860Y-226767680D02*
X122497860Y-225357680D01*
X114087860Y-228325680D02*
X114087860Y-227163680D01*
X114087860Y-227163680D02*
X115893860Y-225357680D01*
X107087860Y-228325680D02*
X107087860Y-226797680D01*
X107087860Y-226797680D02*
X108527860Y-225357680D01*
X100087860Y-228325680D02*
X100087860Y-229457680D01*
X100087860Y-229457680D02*
X101937860Y-231307680D01*
X100087860Y-228325680D02*
X100087860Y-226939680D01*
X100087860Y-226939680D02*
X101669860Y-225357680D01*
X93087860Y-228325680D02*
X93087860Y-229823680D01*
X93087860Y-229823680D02*
X94571860Y-231307680D01*
X93087860Y-228325680D02*
X93087860Y-227081680D01*
X93087860Y-227081680D02*
X94811860Y-225357680D01*
X86087860Y-228325680D02*
X86087860Y-231307680D01*
X86087860Y-228325680D02*
X86087860Y-226969680D01*
X86087860Y-226969680D02*
X87699860Y-225357680D01*
X80413860Y-225357680D02*
X80413860Y-226999680D01*
X80413860Y-226999680D02*
X79087860Y-228325680D01*
X79087860Y-228325680D02*
X79087860Y-229905680D01*
X79087860Y-229905680D02*
X77685860Y-231307680D01*
X114273860Y-228657680D02*
X114273860Y-230427680D01*
X114273860Y-230427680D02*
X115153860Y-231307680D01*
X107273860Y-228657680D02*
X107273860Y-230367680D01*
X107273860Y-230367680D02*
X108213860Y-231307680D01*
X118623860Y-231307680D02*
X121273860Y-228657680D01*
X72033860Y-231307680D02*
X77685860Y-231307680D01*
X77685860Y-231307680D02*
X86087860Y-231307680D01*
X86087860Y-231307680D02*
X94571860Y-231307680D01*
X94571860Y-231307680D02*
X101937860Y-231307680D01*
X101937860Y-231307680D02*
X108213860Y-231307680D01*
X108213860Y-231307680D02*
X115153860Y-231307680D01*
X115153860Y-231307680D02*
X118623860Y-231307680D01*
X128273860Y-228657680D02*
X128273860Y-227467680D01*
X128273860Y-227467680D02*
X130383860Y-225357680D01*
X135273860Y-228657680D02*
X135273860Y-227167680D01*
X135273860Y-227167680D02*
X133463860Y-225357680D01*
X80233860Y-225357680D02*
X80413860Y-225357680D01*
X80413860Y-225357680D02*
X87699860Y-225357680D01*
X87699860Y-225357680D02*
X94811860Y-225357680D01*
X94811860Y-225357680D02*
X101669860Y-225357680D01*
X101669860Y-225357680D02*
X108527860Y-225357680D01*
X108527860Y-225357680D02*
X115893860Y-225357680D01*
X115893860Y-225357680D02*
X122497860Y-225357680D01*
X122497860Y-225357680D02*
X130383860Y-225357680D01*
X130383860Y-225357680D02*
X133463860Y-225357680D01*
X76503860Y-221627680D02*
X80233860Y-225357680D01*
D39*
X64933860Y-212377680D02*
X65203860Y-212107680D01*
D41*
X76503860Y-219337680D02*
X76503860Y-221627680D01*
D39*
X76503860Y-213137680D02*
X76503860Y-205487680D01*
X76503860Y-205487680D02*
X76633860Y-205357680D01*
D38*
X49263860Y-146127680D02*
X55883862Y-152747682D01*
X55883862Y-152747682D02*
X118643858Y-152747682D01*
X49263860Y-144267680D02*
X49263860Y-146127680D01*
X118643858Y-152747682D02*
X120428860Y-150962680D01*
X120428860Y-150962680D02*
X120428860Y-147377680D01*
X117543860Y-131967680D02*
X116793860Y-131217680D01*
X117543860Y-132817680D02*
X117543860Y-131967680D01*
X120440860Y-135714680D02*
X117543860Y-132817680D01*
X120440860Y-137663680D02*
X120440860Y-135714680D01*
X64503860Y-145817680D02*
X70503864Y-151817684D01*
X70503864Y-151817684D02*
X116013856Y-151817684D01*
X116013856Y-151817684D02*
X117888860Y-149942680D01*
X64503860Y-144267680D02*
X64503860Y-145817680D01*
X117888860Y-149942680D02*
X117888860Y-147377680D01*
X117900860Y-135274680D02*
X115743860Y-133117680D01*
X117900860Y-137663680D02*
X117900860Y-135274680D01*
X116618860Y-147377680D02*
X116618860Y-150292680D01*
X79273860Y-151417680D02*
X72123860Y-144267680D01*
X115493860Y-151417680D02*
X79273860Y-151417680D01*
X116618860Y-150292680D02*
X115493860Y-151417680D01*
X116630860Y-135354680D02*
X114943860Y-133667680D01*
X116630860Y-137663680D02*
X116630860Y-135354680D01*
X79743860Y-145787680D02*
X84873860Y-150917680D01*
X84873860Y-150917680D02*
X114573860Y-150917680D01*
X114573860Y-150917680D02*
X115348860Y-150142680D01*
X79743860Y-144267680D02*
X79743860Y-145787680D01*
X115348860Y-150142680D02*
X115348860Y-147377680D01*
X115360860Y-135534680D02*
X114043860Y-134217680D01*
X115360860Y-137663680D02*
X115360860Y-135534680D01*
X114078860Y-149952680D02*
X113643858Y-150387682D01*
X113643858Y-150387682D02*
X93483862Y-150387682D01*
X114078860Y-147377680D02*
X114078860Y-149952680D01*
X93483862Y-150387682D02*
X87363860Y-144267680D01*
X114090860Y-135764680D02*
X112993860Y-134667680D01*
X114090860Y-137663680D02*
X114090860Y-135764680D01*
X114078860Y-137977680D02*
X114078860Y-136956282D01*
X94983860Y-145157680D02*
X99763860Y-149937680D01*
X99763860Y-149937680D02*
X111743860Y-149937680D01*
X111743860Y-149937680D02*
X112808860Y-148872680D01*
X94983860Y-144267680D02*
X94983860Y-145157680D01*
X112808860Y-148872680D02*
X112808860Y-147377680D01*
X112820860Y-136044680D02*
X112043860Y-135267680D01*
X112820860Y-137663680D02*
X112820860Y-136044680D01*
X102603860Y-147737680D02*
X104333860Y-149467680D01*
X104333860Y-149467680D02*
X110883860Y-149467680D01*
X110883860Y-149467680D02*
X111538860Y-148812680D01*
X102603860Y-144267680D02*
X102603860Y-147737680D01*
X111538860Y-148812680D02*
X111538860Y-147377680D01*
X111550860Y-137663680D02*
X111550860Y-136018680D01*
X110785860Y-135253680D02*
X111550860Y-136018680D01*
X49713860Y-99987680D02*
X49713860Y-101847680D01*
X49713860Y-101847680D02*
X56333862Y-108467682D01*
X119093858Y-108467682D02*
X120878860Y-106682680D01*
X56333862Y-108467682D02*
X119093858Y-108467682D01*
X120878860Y-106682680D02*
X120878860Y-103097680D01*
X117993860Y-87867680D02*
X117243860Y-87117680D01*
X117993860Y-88717680D02*
X117993860Y-87867680D01*
X120890860Y-91614680D02*
X117993860Y-88717680D01*
X120890860Y-93563680D02*
X120890860Y-91614680D01*
X64953860Y-101537680D02*
X70953864Y-107537684D01*
X64953860Y-99987680D02*
X64953860Y-101537680D01*
X116463856Y-107537684D02*
X118338860Y-105662680D01*
X70953864Y-107537684D02*
X116463856Y-107537684D01*
X118338860Y-105662680D02*
X118338860Y-103097680D01*
X118350860Y-91174680D02*
X116193860Y-89017680D01*
X118350860Y-93563680D02*
X118350860Y-91174680D01*
X117068860Y-103097680D02*
X117068860Y-105592680D01*
X79746862Y-107160682D02*
X72573860Y-99987680D01*
X115500858Y-107160682D02*
X79746862Y-107160682D01*
X117068860Y-105592680D02*
X115500858Y-107160682D01*
X117080860Y-91254680D02*
X115393860Y-89567680D01*
X117080860Y-93563680D02*
X117080860Y-91254680D01*
X80193860Y-99987680D02*
X80193860Y-101507680D01*
X115798860Y-105862680D02*
X115798860Y-103097680D01*
X85323860Y-106637680D02*
X115023860Y-106637680D01*
X115023860Y-106637680D02*
X115798860Y-105862680D01*
X80193860Y-101507680D02*
X85323860Y-106637680D01*
X115810860Y-91434680D02*
X114493860Y-90117680D01*
X115810860Y-93563680D02*
X115810860Y-91434680D01*
X93933862Y-106107682D02*
X87813860Y-99987680D01*
X114528860Y-103097680D02*
X114528860Y-105672680D01*
X114093858Y-106107682D02*
X93933862Y-106107682D01*
X114528860Y-105672680D02*
X114093858Y-106107682D01*
X114540860Y-91664680D02*
X113443860Y-90567680D01*
X114540860Y-93563680D02*
X114540860Y-91664680D01*
X114528860Y-93697680D02*
X114528860Y-92676282D01*
X95433860Y-100877680D02*
X100213860Y-105657680D01*
X95433860Y-99987680D02*
X95433860Y-100877680D01*
X112193860Y-105657680D02*
X113258860Y-104592680D01*
X100213860Y-105657680D02*
X112193860Y-105657680D01*
X113258860Y-104592680D02*
X113258860Y-103097680D01*
X113270860Y-93685680D02*
X113270860Y-91944680D01*
X113270860Y-91944680D02*
X112493860Y-91167680D01*
X113270860Y-93685680D02*
X113258860Y-93697680D01*
X103053860Y-103457680D02*
X104783860Y-105187680D01*
X103053860Y-99987680D02*
X103053860Y-103457680D01*
X111333860Y-105187680D02*
X111988860Y-104532680D01*
X104783860Y-105187680D02*
X111333860Y-105187680D01*
X111988860Y-104532680D02*
X111988860Y-103097680D01*
X111971860Y-91889680D02*
X111971860Y-93680680D01*
X111971860Y-93680680D02*
X111988860Y-93697680D01*
X111235860Y-91153680D02*
X111971860Y-91889680D01*
X111971860Y-91889680D02*
X112000860Y-91918680D01*
D39*
X207793860Y-59717680D02*
X205418860Y-59717680D01*
X205418860Y-59717680D02*
X205193860Y-59942680D01*
X205193860Y-59942680D02*
X205193860Y-49267680D01*
D38*
X194243860Y-58717680D02*
X196693860Y-58717680D01*
X200193860Y-55217680D02*
X200193860Y-49267680D01*
X196693860Y-58717680D02*
X200193860Y-55217680D01*
D39*
X163243860Y-60417680D02*
X163243860Y-55317680D01*
X163243860Y-55317680D02*
X163293860Y-55267680D01*
X161993860Y-49267680D02*
X161993860Y-53967680D01*
X161993860Y-53967680D02*
X163293860Y-55267680D01*
M02*
