G04 #@! TF.FileFunction,Copper,L2,Bot,Signal*
%FSLAX46Y46*%
G04 Gerber Fmt 4.6, Leading zero omitted, Abs format (unit mm)*
G04 Created by KiCad (PCBNEW 4.0.4-stable) date 12/30/16 20:15:41*
%MOMM*%
%LPD*%
G01*
G04 APERTURE LIST*
%ADD10C,0.100000*%
%ADD11C,1.524000*%
%ADD12R,1.200000X0.900000*%
%ADD13C,1.800000*%
%ADD14C,11.000000*%
%ADD15C,0.700000*%
%ADD16R,2.499360X2.499360*%
%ADD17C,2.499360*%
%ADD18C,1.700000*%
%ADD19C,0.600000*%
%ADD20C,0.250000*%
%ADD21C,0.500000*%
%ADD22C,0.350000*%
%ADD23C,1.500000*%
G04 APERTURE END LIST*
D10*
D11*
X44633860Y-99987680D03*
X44633860Y-97447680D03*
X47173860Y-99987680D03*
X47173860Y-97447680D03*
X49713860Y-99987680D03*
X49713860Y-97447680D03*
X52253860Y-99987680D03*
X52253860Y-97447680D03*
X54793860Y-99987680D03*
X54793860Y-97447680D03*
X57333860Y-99987680D03*
X57333860Y-97447680D03*
X59873860Y-99987680D03*
X59873860Y-97447680D03*
X62413860Y-99987680D03*
X62413860Y-97447680D03*
X64953860Y-99987680D03*
X64953860Y-97447680D03*
X67493860Y-99987680D03*
X67493860Y-97447680D03*
X70033860Y-99987680D03*
X70033860Y-97447680D03*
X72573860Y-99987680D03*
X72573860Y-97447680D03*
X75113860Y-99987680D03*
X75113860Y-97447680D03*
X77653860Y-99987680D03*
X77653860Y-97447680D03*
X80193860Y-99987680D03*
X80193860Y-97447680D03*
X82733860Y-99987680D03*
X82733860Y-97447680D03*
X85273860Y-99987680D03*
X85273860Y-97447680D03*
X87813860Y-99987680D03*
X87813860Y-97447680D03*
X90353860Y-99987680D03*
X90353860Y-97447680D03*
X92893860Y-99987680D03*
X92893860Y-97447680D03*
X95433860Y-99987680D03*
X95433860Y-97447680D03*
X97973860Y-99987680D03*
X97973860Y-97447680D03*
X100513860Y-99987680D03*
X100513860Y-97447680D03*
X103053860Y-99987680D03*
X103053860Y-97447680D03*
X105593860Y-99987680D03*
X105593860Y-97447680D03*
X43495860Y-77253680D03*
X43495860Y-74713680D03*
X46035860Y-77253680D03*
X46035860Y-74713680D03*
X48575860Y-77253680D03*
X48575860Y-74713680D03*
X51115860Y-77253680D03*
X51115860Y-74713680D03*
X53655860Y-77253680D03*
X53655860Y-74713680D03*
X56195860Y-77253680D03*
X56195860Y-74713680D03*
X58735860Y-77253680D03*
X58735860Y-74713680D03*
X61275860Y-77253680D03*
X61275860Y-74713680D03*
X63815860Y-77253680D03*
X63815860Y-74713680D03*
X66355860Y-77253680D03*
X66355860Y-74713680D03*
X68895860Y-77253680D03*
X68895860Y-74713680D03*
X71435860Y-77253680D03*
X71435860Y-74713680D03*
X73975860Y-77253680D03*
X73975860Y-74713680D03*
X76515860Y-77253680D03*
X76515860Y-74713680D03*
X79055860Y-77253680D03*
X79055860Y-74713680D03*
X81595860Y-77253680D03*
X81595860Y-74713680D03*
X84135860Y-77253680D03*
X84135860Y-74713680D03*
X86675860Y-77253680D03*
X86675860Y-74713680D03*
X89215860Y-77253680D03*
X89215860Y-74713680D03*
X91755860Y-77253680D03*
X91755860Y-74713680D03*
X94295860Y-77253680D03*
X94295860Y-74713680D03*
X96835860Y-77253680D03*
X96835860Y-74713680D03*
X99375860Y-77253680D03*
X99375860Y-74713680D03*
X101915860Y-77253680D03*
X101915860Y-74713680D03*
X104455860Y-77253680D03*
X104455860Y-74713680D03*
X43993860Y-121647680D03*
X43993860Y-119107680D03*
X46533860Y-121647680D03*
X46533860Y-119107680D03*
X49073860Y-121647680D03*
X49073860Y-119107680D03*
X51613860Y-121647680D03*
X51613860Y-119107680D03*
X54153860Y-121647680D03*
X54153860Y-119107680D03*
X56693860Y-121647680D03*
X56693860Y-119107680D03*
X59233860Y-121647680D03*
X59233860Y-119107680D03*
X61773860Y-121647680D03*
X61773860Y-119107680D03*
X64313860Y-121647680D03*
X64313860Y-119107680D03*
X66853860Y-121647680D03*
X66853860Y-119107680D03*
X69393860Y-121647680D03*
X69393860Y-119107680D03*
X71933860Y-121647680D03*
X71933860Y-119107680D03*
X74473860Y-121647680D03*
X74473860Y-119107680D03*
X77013860Y-121647680D03*
X77013860Y-119107680D03*
X79553860Y-121647680D03*
X79553860Y-119107680D03*
X82093860Y-121647680D03*
X82093860Y-119107680D03*
X84633860Y-121647680D03*
X84633860Y-119107680D03*
X87173860Y-121647680D03*
X87173860Y-119107680D03*
X89713860Y-121647680D03*
X89713860Y-119107680D03*
X92253860Y-121647680D03*
X92253860Y-119107680D03*
X94793860Y-121647680D03*
X94793860Y-119107680D03*
X97333860Y-121647680D03*
X97333860Y-119107680D03*
X99873860Y-121647680D03*
X99873860Y-119107680D03*
X102413860Y-121647680D03*
X102413860Y-119107680D03*
X104953860Y-121647680D03*
X104953860Y-119107680D03*
X44183860Y-144267680D03*
X44183860Y-141727680D03*
X46723860Y-144267680D03*
X46723860Y-141727680D03*
X49263860Y-144267680D03*
X49263860Y-141727680D03*
X51803860Y-144267680D03*
X51803860Y-141727680D03*
X54343860Y-144267680D03*
X54343860Y-141727680D03*
X56883860Y-144267680D03*
X56883860Y-141727680D03*
X59423860Y-144267680D03*
X59423860Y-141727680D03*
X61963860Y-144267680D03*
X61963860Y-141727680D03*
X64503860Y-144267680D03*
X64503860Y-141727680D03*
X67043860Y-144267680D03*
X67043860Y-141727680D03*
X69583860Y-144267680D03*
X69583860Y-141727680D03*
X72123860Y-144267680D03*
X72123860Y-141727680D03*
X74663860Y-144267680D03*
X74663860Y-141727680D03*
X77203860Y-144267680D03*
X77203860Y-141727680D03*
X79743860Y-144267680D03*
X79743860Y-141727680D03*
X82283860Y-144267680D03*
X82283860Y-141727680D03*
X84823860Y-144267680D03*
X84823860Y-141727680D03*
X87363860Y-144267680D03*
X87363860Y-141727680D03*
X89903860Y-144267680D03*
X89903860Y-141727680D03*
X92443860Y-144267680D03*
X92443860Y-141727680D03*
X94983860Y-144267680D03*
X94983860Y-141727680D03*
X97523860Y-144267680D03*
X97523860Y-141727680D03*
X100063860Y-144267680D03*
X100063860Y-141727680D03*
X102603860Y-144267680D03*
X102603860Y-141727680D03*
X105143860Y-144267680D03*
X105143860Y-141727680D03*
D12*
X133837860Y-84307680D03*
X131637860Y-84307680D03*
X133675300Y-136880600D03*
X131475300Y-136880600D03*
X138243860Y-145837680D03*
X136043860Y-145837680D03*
X129263860Y-135107680D03*
X127063860Y-135107680D03*
X126463860Y-140327680D03*
X124263860Y-140327680D03*
D13*
X234464860Y-106762560D03*
X234464860Y-104262560D03*
X234464860Y-101762560D03*
X234464860Y-99262560D03*
X234972860Y-128508760D03*
X234972860Y-126008760D03*
X234972860Y-123508760D03*
X234972860Y-121008760D03*
X234980480Y-151439880D03*
X234980480Y-148939880D03*
X234980480Y-146439880D03*
X234980480Y-143939880D03*
X235262420Y-173456600D03*
X235262420Y-170956600D03*
X235262420Y-168456600D03*
X235262420Y-165956600D03*
X234820460Y-64892560D03*
X234820460Y-62392560D03*
X234820460Y-59892560D03*
X234820460Y-57392560D03*
X234744260Y-84512160D03*
X234744260Y-82012160D03*
X234744260Y-79512160D03*
X234744260Y-77012160D03*
D12*
X133583860Y-109707680D03*
X131383860Y-109707680D03*
X137647860Y-106913680D03*
X135447860Y-106913680D03*
X129773860Y-90911680D03*
X127573860Y-90911680D03*
X125709860Y-87609680D03*
X123509860Y-87609680D03*
X128219380Y-193725800D03*
X126019380Y-193725800D03*
X124419540Y-196331840D03*
X122219540Y-196331840D03*
X131663620Y-188747400D03*
X129463620Y-188747400D03*
X130453860Y-169517680D03*
X128253860Y-169517680D03*
X137901860Y-82275680D03*
X135701860Y-82275680D03*
X123973860Y-176727680D03*
X121773860Y-176727680D03*
X129773860Y-73385680D03*
X127573860Y-73385680D03*
X133583860Y-129067680D03*
X131383860Y-129067680D03*
X134083860Y-159297680D03*
X131883860Y-159297680D03*
X127487860Y-66273680D03*
X125287860Y-66273680D03*
X137393860Y-124067680D03*
X135193860Y-124067680D03*
X136583860Y-162717680D03*
X134383860Y-162717680D03*
X129519860Y-113517680D03*
X127319860Y-113517680D03*
X130063860Y-155907680D03*
X127863860Y-155907680D03*
X125763860Y-111287680D03*
X123563860Y-111287680D03*
X125763860Y-153167680D03*
X123563860Y-153167680D03*
D11*
X180464460Y-143042640D03*
X183004460Y-143042640D03*
X180464460Y-145582640D03*
X183004460Y-145582640D03*
X180464460Y-148122640D03*
X183004460Y-148122640D03*
X180464460Y-150662640D03*
X183004460Y-150662640D03*
X180464460Y-153202640D03*
X183004460Y-153202640D03*
X180464460Y-155742640D03*
X183004460Y-155742640D03*
X180464460Y-158282640D03*
X183004460Y-158282640D03*
X180464460Y-160822640D03*
X183004460Y-160822640D03*
X180464460Y-163362640D03*
X183004460Y-163362640D03*
X180464460Y-165902640D03*
X183004460Y-165902640D03*
X180464460Y-168442640D03*
X183004460Y-168442640D03*
X180464460Y-170982640D03*
X183004460Y-170982640D03*
X180464460Y-173522640D03*
X183004460Y-173522640D03*
X180464460Y-176062640D03*
X183004460Y-176062640D03*
X180464460Y-178602640D03*
X183004460Y-178602640D03*
X180464460Y-181142640D03*
X183004460Y-181142640D03*
X180464460Y-183682640D03*
X183004460Y-183682640D03*
X180464460Y-186222640D03*
X183004460Y-186222640D03*
X180464460Y-188762640D03*
X183004460Y-188762640D03*
X180464460Y-191302640D03*
X183004460Y-191302640D03*
X180464460Y-193842640D03*
X183004460Y-193842640D03*
X180464460Y-196382640D03*
X183004460Y-196382640D03*
X180464460Y-198922640D03*
X183004460Y-198922640D03*
X182237380Y-69575680D03*
X184777380Y-69575680D03*
X182237380Y-72115680D03*
X184777380Y-72115680D03*
X182237380Y-74655680D03*
X184777380Y-74655680D03*
X182237380Y-77195680D03*
X184777380Y-77195680D03*
X182237380Y-79735680D03*
X184777380Y-79735680D03*
X182237380Y-82275680D03*
X184777380Y-82275680D03*
X182237380Y-84815680D03*
X184777380Y-84815680D03*
X182237380Y-87355680D03*
X184777380Y-87355680D03*
X182237380Y-89895680D03*
X184777380Y-89895680D03*
X182237380Y-92435680D03*
X184777380Y-92435680D03*
X182237380Y-94975680D03*
X184777380Y-94975680D03*
X182237380Y-97515680D03*
X184777380Y-97515680D03*
X182237380Y-100055680D03*
X184777380Y-100055680D03*
X182237380Y-102595680D03*
X184777380Y-102595680D03*
X182237380Y-105135680D03*
X184777380Y-105135680D03*
X182237380Y-107675680D03*
X184777380Y-107675680D03*
X182237380Y-110215680D03*
X184777380Y-110215680D03*
X182237380Y-112755680D03*
X184777380Y-112755680D03*
X182237380Y-115295680D03*
X184777380Y-115295680D03*
X182237380Y-117835680D03*
X184777380Y-117835680D03*
X182237380Y-120375680D03*
X184777380Y-120375680D03*
X182237380Y-122915680D03*
X184777380Y-122915680D03*
X182237380Y-125455680D03*
X184777380Y-125455680D03*
X205117700Y-228960680D03*
X201617700Y-228960680D03*
X198117700Y-228960680D03*
X194617700Y-228960680D03*
X191117700Y-228960680D03*
X187617700Y-228960680D03*
X184117700Y-228960680D03*
X180617700Y-228960680D03*
X177117700Y-228960680D03*
X173617700Y-228960680D03*
X170117700Y-228960680D03*
X166617700Y-228960680D03*
X163117700Y-228960680D03*
X159617700Y-228960680D03*
X156117700Y-228960680D03*
X152617700Y-228960680D03*
X101113860Y-211117680D03*
X101113860Y-213117680D03*
X99113860Y-211117680D03*
X99113860Y-213117680D03*
X97113860Y-211117680D03*
X97113860Y-213117680D03*
X95113860Y-211117680D03*
X95113860Y-213117680D03*
X93113860Y-211117680D03*
X93113860Y-213117680D03*
X91113860Y-211117680D03*
X91113860Y-213117680D03*
X89113860Y-211117680D03*
X89113860Y-213117680D03*
X87113860Y-211117680D03*
X87113860Y-213117680D03*
X90783860Y-187357680D03*
X90783860Y-189357680D03*
X88783860Y-187357680D03*
X88783860Y-189357680D03*
X86783860Y-187357680D03*
X86783860Y-189357680D03*
X84783860Y-187357680D03*
X84783860Y-189357680D03*
X82783860Y-187357680D03*
X82783860Y-189357680D03*
X80783860Y-187357680D03*
X80783860Y-189357680D03*
X78783860Y-187357680D03*
X78783860Y-189357680D03*
X76783860Y-187357680D03*
X76783860Y-189357680D03*
D13*
X234546140Y-114635280D03*
X234546140Y-112095280D03*
X234988100Y-136911080D03*
X234988100Y-134371080D03*
X235023660Y-159451040D03*
X235023660Y-156911040D03*
X235501180Y-181284880D03*
X235501180Y-178744880D03*
X234779820Y-71948040D03*
X234779820Y-69408040D03*
X234891580Y-92770960D03*
X234891580Y-90230960D03*
D14*
X220193860Y-54317680D03*
D15*
X224318860Y-54317680D03*
X223120675Y-57244495D03*
X220193860Y-58442680D03*
X217267045Y-57244495D03*
X216068860Y-54317680D03*
X217267045Y-51390865D03*
X220193860Y-50192680D03*
X223120675Y-51390865D03*
D14*
X49425860Y-52557680D03*
D15*
X53550860Y-52557680D03*
X52352675Y-55484495D03*
X49425860Y-56682680D03*
X46499045Y-55484495D03*
X45300860Y-52557680D03*
X46499045Y-49630865D03*
X49425860Y-48432680D03*
X52352675Y-49630865D03*
D14*
X49176940Y-226232720D03*
D15*
X53301940Y-226232720D03*
X52103755Y-229159535D03*
X49176940Y-230357720D03*
X46250125Y-229159535D03*
X45051940Y-226232720D03*
X46250125Y-223305905D03*
X49176940Y-222107720D03*
X52103755Y-223305905D03*
D14*
X236298740Y-226222560D03*
D15*
X240423740Y-226222560D03*
X239225555Y-229149375D03*
X236298740Y-230347560D03*
X233371925Y-229149375D03*
X232173740Y-226222560D03*
X233371925Y-223295745D03*
X236298740Y-222097560D03*
X239225555Y-223295745D03*
D16*
X236893860Y-190922680D03*
D17*
X236893860Y-187112680D03*
D11*
X172427900Y-69540120D03*
X174967900Y-69540120D03*
X172427900Y-72080120D03*
X174967900Y-72080120D03*
X172427900Y-74620120D03*
X174967900Y-74620120D03*
X172427900Y-77160120D03*
X174967900Y-77160120D03*
X172427900Y-79700120D03*
X174967900Y-79700120D03*
X172427900Y-82240120D03*
X174967900Y-82240120D03*
X172427900Y-84780120D03*
X174967900Y-84780120D03*
X172427900Y-87320120D03*
X174967900Y-87320120D03*
X172427900Y-89860120D03*
X174967900Y-89860120D03*
X172427900Y-92400120D03*
X174967900Y-92400120D03*
X172427900Y-94940120D03*
X174967900Y-94940120D03*
X172427900Y-97480120D03*
X174967900Y-97480120D03*
X172427900Y-100020120D03*
X174967900Y-100020120D03*
X172427900Y-102560120D03*
X174967900Y-102560120D03*
X172427900Y-105100120D03*
X174967900Y-105100120D03*
X172427900Y-107640120D03*
X174967900Y-107640120D03*
X172427900Y-110180120D03*
X174967900Y-110180120D03*
X172427900Y-112720120D03*
X174967900Y-112720120D03*
X172427900Y-115260120D03*
X174967900Y-115260120D03*
X172427900Y-117800120D03*
X174967900Y-117800120D03*
X172427900Y-120340120D03*
X174967900Y-120340120D03*
X172427900Y-122880120D03*
X174967900Y-122880120D03*
X172427900Y-125420120D03*
X174967900Y-125420120D03*
X191797940Y-69570600D03*
X194337940Y-69570600D03*
X191797940Y-72110600D03*
X194337940Y-72110600D03*
X191797940Y-74650600D03*
X194337940Y-74650600D03*
X191797940Y-77190600D03*
X194337940Y-77190600D03*
X191797940Y-79730600D03*
X194337940Y-79730600D03*
X191797940Y-82270600D03*
X194337940Y-82270600D03*
X191797940Y-84810600D03*
X194337940Y-84810600D03*
X191797940Y-87350600D03*
X194337940Y-87350600D03*
X191797940Y-89890600D03*
X194337940Y-89890600D03*
X191797940Y-92430600D03*
X194337940Y-92430600D03*
X191797940Y-94970600D03*
X194337940Y-94970600D03*
X191797940Y-97510600D03*
X194337940Y-97510600D03*
X191797940Y-100050600D03*
X194337940Y-100050600D03*
X191797940Y-102590600D03*
X194337940Y-102590600D03*
X191797940Y-105130600D03*
X194337940Y-105130600D03*
X191797940Y-107670600D03*
X194337940Y-107670600D03*
X191797940Y-110210600D03*
X194337940Y-110210600D03*
X191797940Y-112750600D03*
X194337940Y-112750600D03*
X191797940Y-115290600D03*
X194337940Y-115290600D03*
X191797940Y-117830600D03*
X194337940Y-117830600D03*
X191797940Y-120370600D03*
X194337940Y-120370600D03*
X191797940Y-122910600D03*
X194337940Y-122910600D03*
X191797940Y-125450600D03*
X194337940Y-125450600D03*
X170393360Y-143042640D03*
X172933360Y-143042640D03*
X170393360Y-145582640D03*
X172933360Y-145582640D03*
X170393360Y-148122640D03*
X172933360Y-148122640D03*
X170393360Y-150662640D03*
X172933360Y-150662640D03*
X170393360Y-153202640D03*
X172933360Y-153202640D03*
X170393360Y-155742640D03*
X172933360Y-155742640D03*
X170393360Y-158282640D03*
X172933360Y-158282640D03*
X170393360Y-160822640D03*
X172933360Y-160822640D03*
X170393360Y-163362640D03*
X172933360Y-163362640D03*
X170393360Y-165902640D03*
X172933360Y-165902640D03*
X170393360Y-168442640D03*
X172933360Y-168442640D03*
X170393360Y-170982640D03*
X172933360Y-170982640D03*
X170393360Y-173522640D03*
X172933360Y-173522640D03*
X170393360Y-176062640D03*
X172933360Y-176062640D03*
X170393360Y-178602640D03*
X172933360Y-178602640D03*
X170393360Y-181142640D03*
X172933360Y-181142640D03*
X170393360Y-183682640D03*
X172933360Y-183682640D03*
X170393360Y-186222640D03*
X172933360Y-186222640D03*
X170393360Y-188762640D03*
X172933360Y-188762640D03*
X170393360Y-191302640D03*
X172933360Y-191302640D03*
X170393360Y-193842640D03*
X172933360Y-193842640D03*
X170393360Y-196382640D03*
X172933360Y-196382640D03*
X170393360Y-198922640D03*
X172933360Y-198922640D03*
X191107060Y-143106140D03*
X193647060Y-143106140D03*
X191107060Y-145646140D03*
X193647060Y-145646140D03*
X191107060Y-148186140D03*
X193647060Y-148186140D03*
X191107060Y-150726140D03*
X193647060Y-150726140D03*
X191107060Y-153266140D03*
X193647060Y-153266140D03*
X191107060Y-155806140D03*
X193647060Y-155806140D03*
X191107060Y-158346140D03*
X193647060Y-158346140D03*
X191107060Y-160886140D03*
X193647060Y-160886140D03*
X191107060Y-163426140D03*
X193647060Y-163426140D03*
X191107060Y-165966140D03*
X193647060Y-165966140D03*
X191107060Y-168506140D03*
X193647060Y-168506140D03*
X191107060Y-171046140D03*
X193647060Y-171046140D03*
X191107060Y-173586140D03*
X193647060Y-173586140D03*
X191107060Y-176126140D03*
X193647060Y-176126140D03*
X191107060Y-178666140D03*
X193647060Y-178666140D03*
X191107060Y-181206140D03*
X193647060Y-181206140D03*
X191107060Y-183746140D03*
X193647060Y-183746140D03*
X191107060Y-186286140D03*
X193647060Y-186286140D03*
X191107060Y-188826140D03*
X193647060Y-188826140D03*
X191107060Y-191366140D03*
X193647060Y-191366140D03*
X191107060Y-193906140D03*
X193647060Y-193906140D03*
X191107060Y-196446140D03*
X193647060Y-196446140D03*
X191107060Y-198986140D03*
X193647060Y-198986140D03*
X221246700Y-162687000D03*
X221246700Y-165227000D03*
X221246700Y-167767000D03*
X221246700Y-170307000D03*
X221246700Y-172847000D03*
X221246700Y-175387000D03*
X44813860Y-166207680D03*
X44813860Y-163667680D03*
X47353860Y-166207680D03*
X47353860Y-163667680D03*
X49893860Y-166207680D03*
X49893860Y-163667680D03*
X52433860Y-166207680D03*
X52433860Y-163667680D03*
X54973860Y-166207680D03*
X54973860Y-163667680D03*
X57513860Y-166207680D03*
X57513860Y-163667680D03*
X60053860Y-166207680D03*
X60053860Y-163667680D03*
X62593860Y-166207680D03*
X62593860Y-163667680D03*
X65133860Y-166207680D03*
X65133860Y-163667680D03*
X67673860Y-166207680D03*
X67673860Y-163667680D03*
X70213860Y-166207680D03*
X70213860Y-163667680D03*
X72753860Y-166207680D03*
X72753860Y-163667680D03*
X75293860Y-166207680D03*
X75293860Y-163667680D03*
X77833860Y-166207680D03*
X77833860Y-163667680D03*
X80373860Y-166207680D03*
X80373860Y-163667680D03*
X82913860Y-166207680D03*
X82913860Y-163667680D03*
X85453860Y-166207680D03*
X85453860Y-163667680D03*
X87993860Y-166207680D03*
X87993860Y-163667680D03*
X90533860Y-166207680D03*
X90533860Y-163667680D03*
X93073860Y-166207680D03*
X93073860Y-163667680D03*
X95613860Y-166207680D03*
X95613860Y-163667680D03*
X98153860Y-166207680D03*
X98153860Y-163667680D03*
X100693860Y-166207680D03*
X100693860Y-163667680D03*
X103233860Y-166207680D03*
X103233860Y-163667680D03*
X105773860Y-166207680D03*
X105773860Y-163667680D03*
D13*
X236343860Y-205417680D03*
X236343860Y-202917680D03*
X236343860Y-200417680D03*
X236343860Y-197917680D03*
X236293860Y-213067680D03*
X236293860Y-210527680D03*
X218443860Y-228217680D03*
X220983860Y-228217680D03*
X205193860Y-49267680D03*
X202693860Y-49267680D03*
X200193860Y-49267680D03*
X197693860Y-49267680D03*
D18*
X172493860Y-49267680D03*
X168993860Y-49267680D03*
X165493860Y-49267680D03*
X161993860Y-49267680D03*
X158493860Y-49267680D03*
X154993860Y-49267680D03*
X151493860Y-49267680D03*
X147993860Y-49267680D03*
X144493860Y-49267680D03*
X140993860Y-49267680D03*
X137493860Y-49267680D03*
X133993860Y-49267680D03*
X130493860Y-49267680D03*
X126993860Y-49267680D03*
X123493860Y-49267680D03*
X119993860Y-49267680D03*
X75587860Y-228325680D03*
X79087860Y-228325680D03*
X82587860Y-228325680D03*
X86087860Y-228325680D03*
X89587860Y-228325680D03*
X93087860Y-228325680D03*
X96587860Y-228325680D03*
X100087860Y-228325680D03*
X103587860Y-228325680D03*
X107087860Y-228325680D03*
X110587860Y-228325680D03*
X114087860Y-228325680D03*
X117587860Y-228325680D03*
X121087860Y-228325680D03*
X124587860Y-228325680D03*
X128087860Y-228325680D03*
X131587860Y-228325680D03*
X135087860Y-228325680D03*
X138587860Y-228325680D03*
X142087860Y-228325680D03*
D19*
X158093860Y-150417680D03*
X158393860Y-115917680D03*
X159643860Y-89067680D03*
X160393860Y-79367680D03*
X157893860Y-101067680D03*
X156843860Y-135517680D03*
X144543860Y-140767680D03*
X118843860Y-87617680D03*
X218043860Y-214367680D03*
X217693860Y-212492680D03*
X213718860Y-222442680D03*
X49618860Y-214967680D03*
X46393860Y-210167680D03*
X49143860Y-203592680D03*
X201733860Y-61237680D03*
X141743860Y-181867680D03*
X149343860Y-191517680D03*
X159993860Y-192917680D03*
X155593860Y-179817680D03*
X171143860Y-206917680D03*
X170643860Y-202667680D03*
X123493860Y-171367680D03*
X215993860Y-144767680D03*
X123085860Y-77703680D03*
X124033860Y-100337680D03*
X123713860Y-122707680D03*
X118833860Y-109217680D03*
X123853860Y-145177680D03*
X119023860Y-131837680D03*
X121893860Y-151417680D03*
X113763860Y-190057680D03*
X122233860Y-211237680D03*
X56763860Y-215237680D03*
X70293860Y-211077680D03*
X80363860Y-209757680D03*
X68963860Y-216727680D03*
X68943860Y-216727680D03*
X69933860Y-212047680D03*
X80813860Y-205317680D03*
X165433860Y-188537680D03*
X145803860Y-181107680D03*
X200923860Y-187907680D03*
X201043860Y-182667680D03*
X148043860Y-84167680D03*
X146543860Y-97167680D03*
X146543860Y-136667680D03*
X206543860Y-178167680D03*
X218043860Y-149667680D03*
X146043860Y-124667680D03*
X211543860Y-196167680D03*
X110166380Y-175930080D03*
X153926540Y-142057120D03*
X156644340Y-142331440D03*
X155374340Y-140512800D03*
X153718260Y-148640800D03*
X156451300Y-148254720D03*
X155272740Y-149773640D03*
X144106900Y-148590000D03*
X146588480Y-150936960D03*
X154810460Y-125130560D03*
X156100780Y-123418600D03*
X153494740Y-117383560D03*
X156075380Y-117439440D03*
X154785060Y-115727480D03*
X140200380Y-94594680D03*
X141632940Y-93375480D03*
X141048740Y-84343240D03*
X142623540Y-85511640D03*
X157767020Y-83225640D03*
X156385260Y-85156040D03*
X155039060Y-83530440D03*
X160754060Y-221015560D03*
X157700980Y-130403600D03*
X153626820Y-130332480D03*
X154774900Y-128833880D03*
X156370020Y-128666240D03*
X171711620Y-218948000D03*
X141599920Y-127967740D03*
X145049240Y-126301500D03*
X143550640Y-127810260D03*
X143390620Y-116845080D03*
X157723840Y-90604340D03*
X156352240Y-88760300D03*
X155056840Y-90538300D03*
X157284420Y-98231960D03*
X155610560Y-96964500D03*
X119723940Y-196437080D03*
X144294860Y-161737040D03*
X157589220Y-155818840D03*
X157548580Y-161813240D03*
X152844500Y-110119160D03*
X147083780Y-114518440D03*
X219468700Y-73009760D03*
X218935300Y-68773040D03*
X153416000Y-74698860D03*
X153070560Y-87500460D03*
X195587620Y-199872600D03*
X200245980Y-199410320D03*
X205844140Y-207081120D03*
X155602940Y-109611160D03*
X154139900Y-111074200D03*
X152849580Y-102641400D03*
X155887420Y-103281480D03*
X154378660Y-101533960D03*
X140444220Y-103601520D03*
X149405340Y-111973360D03*
X219295980Y-144752060D03*
X220946980Y-143329660D03*
X220959680Y-141640560D03*
X219321380Y-140230860D03*
X227144580Y-147546060D03*
X219029280Y-155216860D03*
X220553280Y-153769060D03*
X220540580Y-152130760D03*
X218927680Y-150721060D03*
X218869260Y-120164860D03*
X225981260Y-115084860D03*
X227093780Y-76174600D03*
X215440260Y-112595660D03*
X219605860Y-109852460D03*
X215293860Y-72767680D03*
X219040395Y-80000137D03*
X219956380Y-71018400D03*
X157627320Y-77038200D03*
X154909520Y-77063600D03*
X156370020Y-75438000D03*
X154701240Y-154937460D03*
X154866340Y-163167060D03*
X154595830Y-210259930D03*
X220527880Y-181030880D03*
X220134180Y-191419480D03*
X203046330Y-220000830D03*
X193013330Y-219924630D03*
X187095130Y-211568030D03*
X165694360Y-183751220D03*
X139766040Y-158925260D03*
X145595340Y-162786060D03*
X158783020Y-96845120D03*
X122043860Y-63017680D03*
X209543860Y-81567680D03*
X213943860Y-78017680D03*
X211043860Y-122217680D03*
X213193860Y-118167680D03*
X153713180Y-132877560D03*
X153993860Y-135767680D03*
X225493860Y-144567680D03*
X222443860Y-150867680D03*
X223343860Y-110367680D03*
X223543860Y-120067680D03*
X220893860Y-74017680D03*
X222643860Y-79467680D03*
X124543860Y-217367680D03*
X126993860Y-216217680D03*
X131742180Y-191109600D03*
X135948420Y-168000680D03*
X167794940Y-66512440D03*
X171838620Y-66476880D03*
X151716740Y-200802240D03*
X153469340Y-177678080D03*
X155443860Y-204417680D03*
X154002740Y-209260440D03*
X173509940Y-206349600D03*
X186438540Y-210251040D03*
X203563220Y-205480920D03*
X207063340Y-206197200D03*
X204543660Y-204480160D03*
X201322940Y-179948840D03*
X209329020Y-190586360D03*
X162339020Y-194477640D03*
X215668860Y-151058880D03*
X214193860Y-136517680D03*
X214165180Y-117500400D03*
X206672180Y-105049320D03*
X131453860Y-139007680D03*
X133953860Y-146117680D03*
X126513860Y-133747680D03*
X130959860Y-107929680D03*
X122823860Y-140267680D03*
X135277860Y-105389680D03*
X127403860Y-89133680D03*
X124609860Y-91419680D03*
X133245860Y-207751680D03*
X129435860Y-209021680D03*
X125981460Y-191429640D03*
X122120660Y-197886320D03*
X129013860Y-190357680D03*
X129063860Y-184867680D03*
X131673860Y-184807680D03*
X131467860Y-85831680D03*
X126213860Y-171927680D03*
X133245860Y-82529680D03*
X120313860Y-176637680D03*
X127657860Y-71099680D03*
X131353860Y-130927680D03*
X131723860Y-160827680D03*
X123593860Y-67289680D03*
X135213860Y-127057680D03*
X133373860Y-164307680D03*
X127149860Y-115041680D03*
X127873860Y-158027680D03*
X123593860Y-112501680D03*
X123623860Y-155207680D03*
X163343860Y-207417680D03*
X168293860Y-207267680D03*
X213268860Y-218792680D03*
X190502540Y-207873600D03*
X201518860Y-207617680D03*
X193118860Y-207017680D03*
X196493860Y-207092680D03*
X206651860Y-187842680D03*
X159593860Y-188517680D03*
X153723340Y-195498720D03*
X159593860Y-183667680D03*
X215243860Y-178017680D03*
X208993860Y-182617680D03*
X159793940Y-206684880D03*
X176888140Y-212344000D03*
X207743860Y-213267680D03*
X160307020Y-176946560D03*
X206651860Y-191856360D03*
X213266020Y-176245520D03*
X158343860Y-179867680D03*
X154843860Y-181017680D03*
X116593860Y-132517680D03*
X117043860Y-88417680D03*
X116768860Y-65067680D03*
X115893860Y-65617680D03*
X115068860Y-66217680D03*
X114268860Y-66767680D03*
X113368860Y-67317680D03*
X112318860Y-67767680D03*
X111368860Y-68367680D03*
X110110860Y-68353680D03*
X117643860Y-109417680D03*
X116593860Y-109817680D03*
X115743860Y-110417680D03*
X114943860Y-110967680D03*
X114043860Y-111517680D03*
X112993860Y-111967680D03*
X112043860Y-112567680D03*
X110785860Y-112553680D03*
X118068860Y-153867680D03*
X117193860Y-154417680D03*
X116368860Y-155017680D03*
X115568860Y-155567680D03*
X114668860Y-156117680D03*
X113618860Y-156567680D03*
X112668860Y-157167680D03*
X111410860Y-157153680D03*
X204162660Y-70266560D03*
X204177900Y-74858880D03*
X206047340Y-111785400D03*
X206047340Y-114858800D03*
X206616300Y-145069560D03*
X206626460Y-149209760D03*
X158443860Y-55767680D03*
X151543860Y-56917680D03*
X148193860Y-58617680D03*
X137443860Y-61267680D03*
X155393860Y-56467680D03*
X149343860Y-57817680D03*
X140893860Y-62217680D03*
X133343860Y-60217680D03*
X127043860Y-57517680D03*
X130493860Y-58717680D03*
X123543860Y-56017680D03*
X119893860Y-54667680D03*
X220243860Y-124367680D03*
X216643860Y-124667680D03*
X214012780Y-79593440D03*
X210055460Y-130703320D03*
X202577700Y-163372800D03*
X70093860Y-198739460D03*
X109543860Y-206867680D03*
X117843860Y-184317680D03*
X117843860Y-162167680D03*
X119393860Y-140667680D03*
X120843860Y-118517680D03*
X111843860Y-97217680D03*
X112043860Y-74017680D03*
X184304940Y-59537600D03*
X116793860Y-131217680D03*
X115743860Y-133117680D03*
X114943860Y-133667680D03*
X114043860Y-134217680D03*
X112993860Y-134667680D03*
X112043860Y-135267680D03*
X110785860Y-135253680D03*
X117243860Y-87117680D03*
X116193860Y-89017680D03*
X115393860Y-89567680D03*
X114493860Y-90117680D03*
X113443860Y-90567680D03*
X112493860Y-91167680D03*
X111235860Y-91153680D03*
X205193860Y-59942680D03*
X163293860Y-55267680D03*
D20*
X155543860Y-178417680D02*
X155243860Y-178417680D01*
X155243860Y-178417680D02*
X154043860Y-179617680D01*
X156843860Y-135517680D02*
X156843860Y-140117680D01*
X158093860Y-141367680D02*
X158093860Y-150417680D01*
X156843860Y-140117680D02*
X158093860Y-141367680D01*
X158393860Y-115917680D02*
X158393860Y-133967680D01*
X157893860Y-115417680D02*
X158393860Y-115917680D01*
X159643860Y-89067680D02*
X159643860Y-99317680D01*
X160393860Y-79367680D02*
X159643860Y-80117680D01*
X159643860Y-89067680D02*
X159643860Y-80117680D01*
X159643860Y-99317680D02*
X157893860Y-101067680D01*
X157893860Y-101067680D02*
X157893860Y-115417680D01*
X158393860Y-133967680D02*
X156843860Y-135517680D01*
X217768860Y-212417680D02*
X217768860Y-212342680D01*
X217693860Y-212492680D02*
X217768860Y-212417680D01*
D21*
X123863860Y-145187680D02*
X123873860Y-145187680D01*
X123853860Y-145177680D02*
X123863860Y-145187680D01*
D20*
X121893860Y-151417680D02*
X121913860Y-151437680D01*
X121913860Y-151437680D02*
X121923860Y-151437680D01*
D22*
X80363860Y-209757680D02*
X80363860Y-209737680D01*
X68963860Y-216727680D02*
X68943860Y-216727680D01*
X69933860Y-212047680D02*
X69933860Y-212027680D01*
D20*
X145803860Y-181107680D02*
X145793860Y-181097680D01*
X156644340Y-142331440D02*
X156654500Y-142331440D01*
X155374340Y-140512800D02*
X155343860Y-140512800D01*
X153708100Y-148630640D02*
X153708100Y-148595080D01*
X153718260Y-148640800D02*
X153708100Y-148630640D01*
X156451300Y-148254720D02*
X156451300Y-148275040D01*
X154810460Y-125130560D02*
X154810460Y-125100080D01*
X156182060Y-117546120D02*
X156182060Y-117647720D01*
X156075380Y-117439440D02*
X156182060Y-117546120D01*
X141632940Y-93375480D02*
X141622780Y-93375480D01*
X142623540Y-85511640D02*
X142613380Y-85511640D01*
X157746700Y-83245960D02*
X157736540Y-83245960D01*
X157767020Y-83225640D02*
X157746700Y-83245960D01*
X156364940Y-85135720D02*
X156364940Y-85100160D01*
X156385260Y-85156040D02*
X156364940Y-85135720D01*
X154749500Y-128808480D02*
X154739340Y-128808480D01*
X154774900Y-128833880D02*
X154749500Y-128808480D01*
X156370020Y-128666240D02*
X156375100Y-128666240D01*
X141599920Y-127967740D02*
X141594840Y-127967740D01*
X145059400Y-126311660D02*
X145059400Y-126316740D01*
X145049240Y-126301500D02*
X145059400Y-126311660D01*
X143550640Y-127810260D02*
X143550640Y-127815340D01*
X155056840Y-90538300D02*
X155051760Y-90538300D01*
X157284420Y-98231960D02*
X157279340Y-98231960D01*
X155641040Y-96934020D02*
X155641040Y-96873060D01*
X155610560Y-96964500D02*
X155641040Y-96934020D01*
X144294860Y-161737040D02*
X144299940Y-161737040D01*
X157548580Y-161813240D02*
X157553660Y-161813240D01*
X152819100Y-110093760D02*
X152803860Y-110093760D01*
X152844500Y-110119160D02*
X152819100Y-110093760D01*
X147063460Y-114498120D02*
X147063460Y-114493040D01*
X147083780Y-114518440D02*
X147063460Y-114498120D01*
X219473780Y-73014840D02*
X219473780Y-73019920D01*
X219468700Y-73009760D02*
X219473780Y-73014840D01*
X153085800Y-87485220D02*
X153085800Y-87434420D01*
X153070560Y-87500460D02*
X153085800Y-87485220D01*
X149349460Y-112029240D02*
X149349460Y-112125760D01*
X149405340Y-111973360D02*
X149349460Y-112029240D01*
X219029280Y-155216860D02*
X219041980Y-155216860D01*
X158767780Y-96860360D02*
X158747460Y-96860360D01*
X158783020Y-96845120D02*
X158767780Y-96860360D01*
X210393860Y-81567680D02*
X209543860Y-81567680D01*
X213943860Y-78017680D02*
X210393860Y-81567680D01*
X211043860Y-120317680D02*
X211043860Y-122217680D01*
X213193860Y-118167680D02*
X211043860Y-120317680D01*
D22*
X153993860Y-133158240D02*
X153993860Y-135767680D01*
X153713180Y-132877560D02*
X153993860Y-133158240D01*
D20*
X227366060Y-146439880D02*
X234980480Y-146439880D01*
X225493860Y-144567680D02*
X227366060Y-146439880D01*
X233132780Y-168456600D02*
X235262420Y-168456600D01*
X227843860Y-163167680D02*
X233132780Y-168456600D01*
X227843860Y-156267680D02*
X227843860Y-163167680D01*
X222443860Y-150867680D02*
X227843860Y-156267680D01*
X231948980Y-101762560D02*
X234464860Y-101762560D01*
X223343860Y-110367680D02*
X231948980Y-101762560D01*
X226984940Y-123508760D02*
X234972860Y-123508760D01*
X223543860Y-120067680D02*
X226984940Y-123508760D01*
X232368980Y-59892560D02*
X234820460Y-59892560D01*
X230493860Y-61767680D02*
X232368980Y-59892560D01*
X230493860Y-64417680D02*
X230493860Y-61767680D01*
X220893860Y-74017680D02*
X230493860Y-64417680D01*
X234744260Y-79512160D02*
X222688340Y-79512160D01*
X222688340Y-79512160D02*
X222643860Y-79467680D01*
D21*
X126090860Y-88667680D02*
X126090860Y-87990680D01*
X126090860Y-87990680D02*
X125709860Y-87609680D01*
X126463860Y-141517680D02*
X126463860Y-140327680D01*
X123973860Y-176727680D02*
X123973860Y-175337680D01*
X123973860Y-175337680D02*
X124363660Y-174947880D01*
X125763860Y-153167680D02*
X125763860Y-150687680D01*
X125743860Y-150667680D02*
X125735260Y-150667680D01*
X125763860Y-150687680D02*
X125743860Y-150667680D01*
X124313817Y-216187370D02*
X124313817Y-217137637D01*
X124313817Y-217137637D02*
X124543860Y-217367680D01*
X126463860Y-140327680D02*
X126463860Y-139207680D01*
X125692080Y-91574620D02*
X126090860Y-91175840D01*
X125692080Y-118727220D02*
X125692080Y-91574620D01*
X126090860Y-67812920D02*
X127579300Y-66324480D01*
X126090860Y-91175840D02*
X126090860Y-88667680D01*
X126090860Y-88667680D02*
X126090860Y-67812920D01*
X126463860Y-139207680D02*
X124573860Y-137317680D01*
X124573860Y-137317680D02*
X124573860Y-124387680D01*
X124573860Y-124387680D02*
X125692080Y-123269460D01*
X125692080Y-123269460D02*
X125692080Y-118727220D01*
X126463860Y-141517680D02*
X126463860Y-142740760D01*
X125735260Y-170609080D02*
X125735260Y-167548560D01*
X124363660Y-171980680D02*
X125735260Y-170609080D01*
X124363660Y-197637400D02*
X124313817Y-216187370D01*
X124363660Y-197637400D02*
X124363660Y-174947880D01*
X124363660Y-174947880D02*
X124363660Y-171980680D01*
X125735260Y-167548560D02*
X125735260Y-150667680D01*
X125735260Y-150667680D02*
X125735260Y-143469360D01*
X126463860Y-142740760D02*
X125735260Y-143469360D01*
X124313817Y-216187411D02*
X124313817Y-216187370D01*
X124313660Y-216245800D02*
X124313817Y-216187370D01*
X126974620Y-216217680D02*
X126993860Y-216217680D01*
X129728140Y-73431400D02*
X129728140Y-88432640D01*
X130078660Y-139461240D02*
X129651940Y-139034520D01*
X130078660Y-139461240D02*
X130078660Y-163892480D01*
X129651940Y-116601240D02*
X129728140Y-116525040D01*
X129651940Y-139034520D02*
X129651940Y-116601240D01*
X129728140Y-116525040D02*
X129728140Y-88432640D01*
X129728140Y-73431400D02*
X129773860Y-73385680D01*
X130453860Y-169517680D02*
X130453860Y-169147680D01*
X130453860Y-169147680D02*
X128843860Y-167537680D01*
X128843860Y-167537680D02*
X128843860Y-165127280D01*
X128843860Y-165127280D02*
X130078660Y-163892480D01*
X128219380Y-193725800D02*
X128219380Y-191713200D01*
X127843860Y-172127680D02*
X130453860Y-169517680D01*
X127843860Y-191337680D02*
X127843860Y-172127680D01*
X128219380Y-191713200D02*
X127843860Y-191337680D01*
X126974620Y-204571560D02*
X126974620Y-216217680D01*
X126974620Y-216217680D02*
X126974620Y-216382560D01*
X130078660Y-163962080D02*
X130078660Y-163892480D01*
X127043418Y-197662178D02*
X127043418Y-194901762D01*
X127043418Y-194901762D02*
X127828220Y-193588640D01*
X126974620Y-204571560D02*
X127043418Y-197662178D01*
X127043418Y-197662178D02*
X127043180Y-197635040D01*
X127010180Y-204607120D02*
X126974620Y-204571560D01*
X134122340Y-187779480D02*
X134122340Y-178156160D01*
X133154420Y-188747400D02*
X134122340Y-187779480D01*
X131663620Y-188747400D02*
X133154420Y-188747400D01*
X134083860Y-160277680D02*
X134083860Y-159297680D01*
X132393860Y-161967680D02*
X134083860Y-160277680D01*
X132393860Y-176427680D02*
X132393860Y-161967680D01*
X134122340Y-178156160D02*
X132393860Y-176427680D01*
X133842940Y-112151160D02*
X133842940Y-84201000D01*
X133675300Y-136880600D02*
X133675300Y-112318800D01*
X133675300Y-112318800D02*
X133842940Y-112151160D01*
X134122340Y-159705040D02*
X134122340Y-157762120D01*
X132438140Y-138117760D02*
X133675300Y-136880600D01*
X132438140Y-156077920D02*
X132438140Y-138117760D01*
X134122340Y-157762120D02*
X132438140Y-156077920D01*
X131742180Y-191109600D02*
X131663620Y-191031040D01*
X131663620Y-191031040D02*
X131663620Y-188747400D01*
X137896780Y-109164120D02*
X137896780Y-82204560D01*
X137475140Y-134477760D02*
X137475140Y-109585760D01*
X137475140Y-109585760D02*
X137896780Y-109164120D01*
X138308260Y-155006040D02*
X138308260Y-135310880D01*
X138308260Y-135310880D02*
X137475140Y-134477760D01*
X136903460Y-157568720D02*
X138308260Y-155006040D01*
X136903460Y-167045640D02*
X136903460Y-157568720D01*
X135948420Y-168000680D02*
X136903460Y-167045640D01*
X167794940Y-66512440D02*
X167830500Y-66476880D01*
X167830500Y-66476880D02*
X171838620Y-66476880D01*
X151716740Y-179430680D02*
X151716740Y-196697600D01*
X153469340Y-177678080D02*
X151716740Y-179430680D01*
X151716740Y-200802240D02*
X151716740Y-196697600D01*
X155443860Y-204417680D02*
X155379380Y-204353200D01*
X156738320Y-200078340D02*
X156738320Y-202994260D01*
X156738320Y-202994260D02*
X155379380Y-204353200D01*
X155379380Y-204353200D02*
X155323540Y-204409040D01*
X155445460Y-204409040D02*
X155323540Y-204409040D01*
X173509940Y-206349600D02*
X173509940Y-205745080D01*
X173509940Y-205745080D02*
X172173900Y-204409040D01*
X172173900Y-204409040D02*
X155445460Y-204409040D01*
X155445460Y-204409040D02*
X154002740Y-205851760D01*
X154002740Y-205851760D02*
X154002740Y-209260440D01*
D20*
X186438540Y-210251040D02*
X179773580Y-210251040D01*
D21*
X175872140Y-206349600D02*
X173509940Y-206349600D01*
X179773580Y-210251040D02*
X175872140Y-206349600D01*
X190908940Y-205780640D02*
X186438540Y-210251040D01*
X203263500Y-205780640D02*
X190908940Y-205780640D01*
X203563220Y-205480920D02*
X203263500Y-205780640D01*
X204543660Y-183169560D02*
X204543660Y-204480160D01*
X201322940Y-179948840D02*
X204543660Y-183169560D01*
X156710380Y-200106280D02*
X156738320Y-200078340D01*
X156738320Y-200078340D02*
X162339020Y-194477640D01*
D22*
X214165180Y-144724120D02*
X214165180Y-136546360D01*
X214165180Y-149555200D02*
X215668860Y-151058880D01*
X214165180Y-149555200D02*
X214165180Y-144724120D01*
X214165180Y-136546360D02*
X214193860Y-136517680D01*
X206672180Y-105049320D02*
X210309460Y-105049320D01*
X213347300Y-108087160D02*
X213347300Y-116682520D01*
X210309460Y-105049320D02*
X213347300Y-108087160D01*
X214165180Y-117500400D02*
X213347300Y-116682520D01*
X205788260Y-105130600D02*
X206590900Y-105130600D01*
X194337940Y-105130600D02*
X205788260Y-105130600D01*
X206590900Y-105130600D02*
X206672180Y-105049320D01*
D21*
X131475300Y-138986240D02*
X131475300Y-136880600D01*
X131453860Y-139007680D02*
X131475300Y-138986240D01*
X134233860Y-145837680D02*
X136043860Y-145837680D01*
X133953860Y-146117680D02*
X134233860Y-145837680D01*
X127063860Y-134297680D02*
X127063860Y-135107680D01*
X126513860Y-133747680D02*
X127063860Y-134297680D01*
X131383860Y-108353680D02*
X131383860Y-109707680D01*
X130959860Y-107929680D02*
X131383860Y-108353680D01*
X124263860Y-140327680D02*
X122883860Y-140327680D01*
X122883860Y-140327680D02*
X122823860Y-140267680D01*
X135447860Y-105559680D02*
X135447860Y-106913680D01*
X135277860Y-105389680D02*
X135447860Y-105559680D01*
X127573860Y-89303680D02*
X127573860Y-90911680D01*
X127403860Y-89133680D02*
X127573860Y-89303680D01*
X123763860Y-90573680D02*
X123509860Y-87609680D01*
X124609860Y-91419680D02*
X123763860Y-90573680D01*
X131975860Y-209021680D02*
X133245860Y-207751680D01*
X129435860Y-209021680D02*
X131975860Y-209021680D01*
D20*
X126019380Y-193725800D02*
X126019380Y-191467560D01*
X126019380Y-191467560D02*
X125981460Y-191429640D01*
X126024460Y-191472640D02*
X125981460Y-191429640D01*
X122219540Y-197787440D02*
X122219540Y-196331840D01*
X122120660Y-197886320D02*
X122219540Y-197787440D01*
X129463620Y-189907920D02*
X129463620Y-188747400D01*
X129013860Y-190357680D02*
X129463620Y-189907920D01*
X129063860Y-184867680D02*
X129093860Y-184837680D01*
X129093860Y-184837680D02*
X131673860Y-184807680D01*
X131637860Y-84307680D02*
X131637860Y-85661680D01*
X131637860Y-85661680D02*
X131467860Y-85831680D01*
D21*
X126213860Y-171927680D02*
X128253860Y-169887680D01*
X128253860Y-169887680D02*
X128253860Y-169517680D01*
D20*
X133499860Y-82275680D02*
X135701860Y-82275680D01*
X133245860Y-82529680D02*
X133499860Y-82275680D01*
D21*
X120403860Y-176727680D02*
X121773860Y-176727680D01*
X120313860Y-176637680D02*
X120403860Y-176727680D01*
D20*
X127573860Y-71183680D02*
X127573860Y-73385680D01*
X127657860Y-71099680D02*
X127573860Y-71183680D01*
D21*
X131383860Y-129067680D02*
X131383860Y-130897680D01*
X131383860Y-130897680D02*
X131353860Y-130927680D01*
X131883860Y-160667680D02*
X131883860Y-159297680D01*
X131723860Y-160827680D02*
X131883860Y-160667680D01*
D20*
X125287860Y-66273680D02*
X124609860Y-66273680D01*
X124609860Y-66273680D02*
X123593860Y-67289680D01*
D21*
X135193860Y-127037680D02*
X135193860Y-124067680D01*
X135213860Y-127057680D02*
X135193860Y-127037680D01*
X133373860Y-164307680D02*
X134383860Y-163297680D01*
X134383860Y-162717680D02*
X134383860Y-163297680D01*
D20*
X127319860Y-114871680D02*
X127319860Y-113517680D01*
X127149860Y-115041680D02*
X127319860Y-114871680D01*
D21*
X127863860Y-158017680D02*
X127863860Y-155907680D01*
X127873860Y-158027680D02*
X127863860Y-158017680D01*
D20*
X123563860Y-112471680D02*
X123563860Y-111287680D01*
X123593860Y-112501680D02*
X123563860Y-112471680D01*
D21*
X123563860Y-155147680D02*
X123563860Y-153167680D01*
X123623860Y-155207680D02*
X123563860Y-155147680D01*
D20*
X162611060Y-206684880D02*
X159793940Y-206684880D01*
X163343860Y-207417680D02*
X162611060Y-206684880D01*
X167711060Y-206684880D02*
X159793940Y-206684880D01*
X168293860Y-207267680D02*
X167711060Y-206684880D01*
D21*
X206966780Y-220319560D02*
X211741980Y-220319560D01*
X211741980Y-220319560D02*
X213268860Y-218792680D01*
X206966780Y-220319560D02*
X202354180Y-215706960D01*
X202354180Y-215706960D02*
X192895220Y-215706960D01*
X192895220Y-215706960D02*
X190502540Y-213314280D01*
X190502540Y-207873600D02*
X190502540Y-213314280D01*
D20*
X200993860Y-207092680D02*
X196493860Y-207092680D01*
X201518860Y-207617680D02*
X200993860Y-207092680D01*
X196418860Y-207017680D02*
X193118860Y-207017680D01*
X196493860Y-207092680D02*
X196418860Y-207017680D01*
D21*
X153723340Y-195498720D02*
X153723340Y-192738200D01*
X159593860Y-190717680D02*
X159593860Y-188517680D01*
X159593860Y-188517680D02*
X159593860Y-183667680D01*
X158393860Y-191917680D02*
X159593860Y-190717680D01*
X154543860Y-191917680D02*
X158393860Y-191917680D01*
X153723340Y-192738200D02*
X154543860Y-191917680D01*
D22*
X214243860Y-178017680D02*
X215243860Y-178017680D01*
X211543860Y-180717680D02*
X214243860Y-178017680D01*
X211543860Y-182167680D02*
X211543860Y-180717680D01*
X211093860Y-182617680D02*
X211543860Y-182167680D01*
X208993860Y-182617680D02*
X211093860Y-182617680D01*
D21*
X209125820Y-204459840D02*
X209125820Y-211885720D01*
X206651860Y-201985880D02*
X209125820Y-204459840D01*
X206651860Y-191856360D02*
X206651860Y-201985880D01*
X209125820Y-211885720D02*
X207743860Y-213267680D01*
X159793940Y-206684880D02*
X165453060Y-212344000D01*
X165453060Y-212344000D02*
X176888140Y-212344000D01*
X213278160Y-218801980D02*
X213268860Y-218792680D01*
X213268860Y-218792680D02*
X207743860Y-213267680D01*
X206651860Y-182859680D02*
X206651860Y-187842680D01*
X206651860Y-187842680D02*
X206651860Y-191856360D01*
X213266020Y-176245520D02*
X206651860Y-182859680D01*
D20*
X157343860Y-180867680D02*
X158343860Y-179867680D01*
X154993860Y-180867680D02*
X157343860Y-180867680D01*
X154843860Y-181017680D02*
X154993860Y-180867680D01*
X66191860Y-132117680D02*
X56895860Y-141413680D01*
X116193860Y-132117680D02*
X66191860Y-132117680D01*
X116593860Y-132517680D02*
X116193860Y-132117680D01*
X66641860Y-88017680D02*
X57345860Y-97313680D01*
X116643860Y-88017680D02*
X66641860Y-88017680D01*
X117043860Y-88417680D02*
X116643860Y-88017680D01*
X115718860Y-64717680D02*
X116418860Y-64717680D01*
X48600860Y-74513680D02*
X58396860Y-64717680D01*
X115718860Y-64717680D02*
X58396860Y-64717680D01*
X116418860Y-64717680D02*
X116768860Y-65067680D01*
X115518860Y-65217680D02*
X115518860Y-65242680D01*
X56220860Y-74513680D02*
X65516860Y-65217680D01*
X115518860Y-65217680D02*
X65516860Y-65217680D01*
X115518860Y-65242680D02*
X115893860Y-65617680D01*
X115068860Y-66217680D02*
X114568860Y-65717680D01*
X114568860Y-65717680D02*
X72636860Y-65717680D01*
X72636860Y-65717680D02*
X63840860Y-74513680D01*
X114268860Y-66767680D02*
X113718858Y-66217678D01*
X113718858Y-66217678D02*
X79756862Y-66217678D01*
X79756862Y-66217678D02*
X71460860Y-74513680D01*
X86926860Y-66667680D02*
X79080860Y-74513680D01*
X112718860Y-66667680D02*
X86926860Y-66667680D01*
X113368860Y-67317680D02*
X112718860Y-66667680D01*
X94046860Y-67167680D02*
X86700860Y-74513680D01*
X111718860Y-67167680D02*
X94046860Y-67167680D01*
X112318860Y-67767680D02*
X111718860Y-67167680D01*
X101116860Y-67717680D02*
X94320860Y-74513680D01*
X110718860Y-67717680D02*
X101116860Y-67717680D01*
X111368860Y-68367680D02*
X110718860Y-67717680D01*
X108036860Y-68417680D02*
X101940860Y-74513680D01*
X110046860Y-68417680D02*
X108036860Y-68417680D01*
X110110860Y-68353680D02*
X110046860Y-68417680D01*
X116393860Y-108917680D02*
X59071860Y-108917680D01*
X59071860Y-108917680D02*
X49275860Y-118713680D01*
X117143860Y-108917680D02*
X116393860Y-108917680D01*
X117643860Y-109417680D02*
X117143860Y-108917680D01*
X66191860Y-109417680D02*
X56895860Y-118713680D01*
X116193860Y-109417680D02*
X66191860Y-109417680D01*
X116593860Y-109817680D02*
X116193860Y-109417680D01*
X115743860Y-110417680D02*
X115243860Y-109917680D01*
X115243860Y-109917680D02*
X73311860Y-109917680D01*
X73311860Y-109917680D02*
X64515860Y-118713680D01*
X114943860Y-110967680D02*
X114393858Y-110417678D01*
X114393858Y-110417678D02*
X80431862Y-110417678D01*
X80431862Y-110417678D02*
X72135860Y-118713680D01*
X114043860Y-111517680D02*
X113393860Y-110867680D01*
X113393860Y-110867680D02*
X87601860Y-110867680D01*
X87601860Y-110867680D02*
X79755860Y-118713680D01*
X112993860Y-111967680D02*
X112393860Y-111367680D01*
X112393860Y-111367680D02*
X94721860Y-111367680D01*
X94721860Y-111367680D02*
X87375860Y-118713680D01*
X112043860Y-112567680D02*
X111393860Y-111917680D01*
X111393860Y-111917680D02*
X101791860Y-111917680D01*
X101791860Y-111917680D02*
X94995860Y-118713680D01*
X110785860Y-112553680D02*
X110721860Y-112617680D01*
X110721860Y-112617680D02*
X108711860Y-112617680D01*
X108711860Y-112617680D02*
X102615860Y-118713680D01*
X117718860Y-153517680D02*
X118068860Y-153867680D01*
X117018860Y-153517680D02*
X59696860Y-153517680D01*
X49900860Y-163313680D02*
X59696860Y-153517680D01*
X117018860Y-153517680D02*
X117718860Y-153517680D01*
X116818860Y-154042680D02*
X117193860Y-154417680D01*
X116818860Y-154017680D02*
X66816860Y-154017680D01*
X57520860Y-163313680D02*
X66816860Y-154017680D01*
X116818860Y-154017680D02*
X116818860Y-154042680D01*
X73936860Y-154517680D02*
X65140860Y-163313680D01*
X115868860Y-154517680D02*
X73936860Y-154517680D01*
X116368860Y-155017680D02*
X115868860Y-154517680D01*
X81056862Y-155017678D02*
X72760860Y-163313680D01*
X115018858Y-155017678D02*
X81056862Y-155017678D01*
X115568860Y-155567680D02*
X115018858Y-155017678D01*
X114668860Y-156117680D02*
X114018860Y-155467680D01*
X114018860Y-155467680D02*
X88226860Y-155467680D01*
X88226860Y-155467680D02*
X80380860Y-163313680D01*
X113618860Y-156567680D02*
X113018860Y-155967680D01*
X113018860Y-155967680D02*
X95346860Y-155967680D01*
X95346860Y-155967680D02*
X88000860Y-163313680D01*
X112668860Y-157167680D02*
X112018860Y-156517680D01*
X112018860Y-156517680D02*
X102416860Y-156517680D01*
X102416860Y-156517680D02*
X95620860Y-163313680D01*
X111410860Y-157153680D02*
X111346860Y-157217680D01*
X111346860Y-157217680D02*
X109336860Y-157217680D01*
X109336860Y-157217680D02*
X103240860Y-163313680D01*
D21*
X204162660Y-70266560D02*
X204177900Y-70281800D01*
X204177900Y-70281800D02*
X204177900Y-74858880D01*
X206047340Y-114858800D02*
X206047340Y-111785400D01*
X206616300Y-149199600D02*
X206616300Y-145069560D01*
X206626460Y-149209760D02*
X206616300Y-149199600D01*
D22*
X158695270Y-56019090D02*
X191692450Y-56019090D01*
X158443860Y-55767680D02*
X158695270Y-56019090D01*
X199592022Y-63918662D02*
X191692450Y-56019090D01*
X199592022Y-64915842D02*
X199592022Y-63918662D01*
X194337940Y-97510600D02*
X195729860Y-97510600D01*
X199592022Y-93648438D02*
X199592022Y-68281642D01*
X195729860Y-97510600D02*
X199592022Y-93648438D01*
D20*
X199592022Y-68281642D02*
X199592022Y-64915842D01*
D22*
X151848090Y-57221910D02*
X191339630Y-57221910D01*
X151543860Y-56917680D02*
X151848090Y-57221910D01*
X198437500Y-65761320D02*
X198437500Y-64319780D01*
X194337940Y-87350600D02*
X197152260Y-87350600D01*
X198437500Y-86065360D02*
X198437500Y-69235320D01*
X197152260Y-87350600D02*
X198437500Y-86065360D01*
D20*
X198437500Y-69235320D02*
X198437500Y-65761320D01*
D22*
X198437500Y-64319780D02*
X191339630Y-57221910D01*
X148343860Y-58767680D02*
X191143860Y-58767680D01*
X148193860Y-58617680D02*
X148343860Y-58767680D01*
X197177660Y-66751480D02*
X197177660Y-64801480D01*
X194337940Y-82270600D02*
X196603620Y-82270600D01*
X196603620Y-82270600D02*
X197177660Y-81696560D01*
X197177660Y-81696560D02*
X197177660Y-69844920D01*
D20*
X197177660Y-69844920D02*
X197177660Y-66751480D01*
D22*
X197177660Y-64801480D02*
X191143860Y-58767680D01*
X168906300Y-84780120D02*
X172427900Y-84780120D01*
X165443860Y-81317680D02*
X168906300Y-84780120D01*
X165443860Y-78667680D02*
X165443860Y-81317680D01*
X149943856Y-63167676D02*
X165443860Y-78667680D01*
X139343856Y-63167676D02*
X149943856Y-63167676D01*
X137443860Y-61267680D02*
X139343856Y-63167676D01*
X155534180Y-56608000D02*
X191503540Y-56608000D01*
X155393860Y-56467680D02*
X155534180Y-56608000D01*
D20*
X199042020Y-69217680D02*
X199042020Y-65215840D01*
D22*
X199042020Y-90266520D02*
X194337940Y-94970600D01*
X199042020Y-68996560D02*
X199042020Y-69217680D01*
X199042020Y-69217680D02*
X199042020Y-90266520D01*
X199042020Y-65215840D02*
X199042020Y-64146480D01*
X199042020Y-64146480D02*
X191503540Y-56608000D01*
X149481360Y-57955180D02*
X191206360Y-57955180D01*
X149343860Y-57817680D02*
X149481360Y-57955180D01*
X197873620Y-66747440D02*
X197873620Y-64622440D01*
X197863460Y-81498440D02*
X197863460Y-83769200D01*
X197873620Y-69514720D02*
X197873620Y-81488280D01*
X197873620Y-81488280D02*
X197863460Y-81498440D01*
X194337940Y-84810600D02*
X196822060Y-84810600D01*
X197863460Y-83769200D02*
X196822060Y-84810600D01*
D20*
X197873620Y-69514720D02*
X197873620Y-66747440D01*
D22*
X197873620Y-64622440D02*
X191206360Y-57955180D01*
X172427900Y-82240120D02*
X168766300Y-82240120D01*
X141293854Y-62617674D02*
X140893860Y-62217680D01*
X150393854Y-62617674D02*
X141293854Y-62617674D01*
X166043860Y-78267680D02*
X150393854Y-62617674D01*
X166043860Y-79517680D02*
X166043860Y-78267680D01*
X168766300Y-82240120D02*
X166043860Y-79517680D01*
X172427900Y-87320120D02*
X166646302Y-87320120D01*
X136843858Y-63717678D02*
X133343860Y-60217680D01*
X149571678Y-63717678D02*
X136843858Y-63717678D01*
X164793860Y-78939860D02*
X149571678Y-63717678D01*
X164793860Y-85467678D02*
X164793860Y-78939860D01*
X166646302Y-87320120D02*
X164793860Y-85467678D01*
X172427900Y-97480120D02*
X166006300Y-97480120D01*
X127043860Y-60867680D02*
X127043860Y-57517680D01*
X131043856Y-64867676D02*
X127043860Y-60867680D01*
X149121676Y-64867676D02*
X131043856Y-64867676D01*
X163493860Y-79239860D02*
X149121676Y-64867676D01*
X163493860Y-94967680D02*
X163493860Y-79239860D01*
X166006300Y-97480120D02*
X163493860Y-94967680D01*
X167466300Y-94940120D02*
X172427900Y-94940120D01*
X164193860Y-91667680D02*
X167466300Y-94940120D01*
X164193860Y-79117680D02*
X164193860Y-91667680D01*
X149343860Y-64267680D02*
X164193860Y-79117680D01*
X131221680Y-64267680D02*
X149343860Y-64267680D01*
X130393860Y-63439860D02*
X131221680Y-64267680D01*
X130393860Y-58817680D02*
X130393860Y-63439860D01*
X130493860Y-58717680D02*
X130393860Y-58817680D01*
X172427900Y-94940120D02*
X172427900Y-94894400D01*
X165646300Y-100020120D02*
X172427900Y-100020120D01*
X162843862Y-97217682D02*
X165646300Y-100020120D01*
X162843862Y-79367682D02*
X162843862Y-97217682D01*
X148893858Y-65417678D02*
X162843862Y-79367682D01*
X130771678Y-65417678D02*
X148893858Y-65417678D01*
X123693860Y-58339860D02*
X130771678Y-65417678D01*
X123693860Y-56167680D02*
X123693860Y-58339860D01*
X123543860Y-56017680D02*
X123693860Y-56167680D01*
X119893860Y-54667680D02*
X119893860Y-60767680D01*
X165036300Y-102560120D02*
X162293860Y-99817680D01*
X162293860Y-99817680D02*
X162293860Y-79667680D01*
X162293860Y-79667680D02*
X148593860Y-65967680D01*
X148593860Y-65967680D02*
X130543860Y-65967680D01*
X165036300Y-102560120D02*
X172427900Y-102560120D01*
X126743860Y-62167680D02*
X130543860Y-65967680D01*
X121293860Y-62167680D02*
X126743860Y-62167680D01*
X119893860Y-60767680D02*
X121293860Y-62167680D01*
D21*
X201810620Y-130957320D02*
X201810620Y-127650920D01*
X197779640Y-158346140D02*
X201810620Y-154315160D01*
X201810620Y-154315160D02*
X201810620Y-130957320D01*
X193647060Y-158346140D02*
X197779640Y-158346140D01*
X220243860Y-124367680D02*
X220227560Y-124351380D01*
X204793860Y-124667680D02*
X216643860Y-124667680D01*
X201810620Y-127650920D02*
X204793860Y-124667680D01*
X214012780Y-82692240D02*
X214012780Y-79593440D01*
X221719140Y-90398600D02*
X214012780Y-82692240D01*
X221719140Y-122859800D02*
X221719140Y-90398600D01*
X220220540Y-124358400D02*
X220227560Y-124351380D01*
X220227560Y-124351380D02*
X221719140Y-122859800D01*
D22*
X193647060Y-160886140D02*
X201218800Y-160886140D01*
X204690980Y-136067800D02*
X210055460Y-130703320D01*
X204690980Y-157413960D02*
X204690980Y-136067800D01*
X201218800Y-160886140D02*
X204690980Y-157413960D01*
X193647060Y-163426140D02*
X202524360Y-163426140D01*
X202524360Y-163426140D02*
X202577700Y-163372800D01*
D23*
X111872080Y-198739460D02*
X70093860Y-198739460D01*
D20*
X111872080Y-198739460D02*
X111872080Y-204539460D01*
X111872080Y-204539460D02*
X109543860Y-206867680D01*
D23*
X120843860Y-98017680D02*
X120043860Y-97217680D01*
X120043860Y-97217680D02*
X111843860Y-97217680D01*
D20*
X112243860Y-74017680D02*
X112043860Y-74017680D01*
D23*
X120843860Y-75517680D02*
X119343860Y-74017680D01*
X119343860Y-74017680D02*
X112243860Y-74017680D01*
X120843860Y-98017680D02*
X120843860Y-75517680D01*
X120843860Y-134417680D02*
X120843860Y-118517680D01*
X120843860Y-118517680D02*
X120843860Y-98017680D01*
X119393860Y-135867680D02*
X120843860Y-134417680D01*
X119393860Y-156267680D02*
X119393860Y-140667680D01*
X119393860Y-140667680D02*
X119393860Y-135867680D01*
X117843860Y-157817680D02*
X119393860Y-156267680D01*
X117843860Y-192767680D02*
X117843860Y-184317680D01*
X117843860Y-184317680D02*
X117843860Y-162167680D01*
X117843860Y-162167680D02*
X117843860Y-157817680D01*
X111872080Y-198739460D02*
X117843860Y-192767680D01*
D22*
X193647060Y-165966140D02*
X210962240Y-165966140D01*
X214241380Y-162687000D02*
X221246700Y-162687000D01*
X210962240Y-165966140D02*
X214241380Y-162687000D01*
X221246700Y-165227000D02*
X214480140Y-165227000D01*
X211201000Y-168506140D02*
X193647060Y-168506140D01*
X214480140Y-165227000D02*
X211201000Y-168506140D01*
X193647060Y-171046140D02*
X200355200Y-171046140D01*
X215176100Y-167767000D02*
X221246700Y-167767000D01*
X213205060Y-169738040D02*
X215176100Y-167767000D01*
X201663300Y-169738040D02*
X213205060Y-169738040D01*
X200355200Y-171046140D02*
X201663300Y-169738040D01*
X221246700Y-170307000D02*
X214124540Y-170307000D01*
X198922640Y-173586140D02*
X193647060Y-173586140D01*
X201551540Y-170957240D02*
X198922640Y-173586140D01*
X213474300Y-170957240D02*
X201551540Y-170957240D01*
X214124540Y-170307000D02*
X213474300Y-170957240D01*
X193647060Y-176126140D02*
X198287640Y-176126140D01*
X201515980Y-172897800D02*
X221195900Y-172897800D01*
X198287640Y-176126140D02*
X201515980Y-172897800D01*
X221195900Y-172897800D02*
X221246700Y-172847000D01*
X193647060Y-178666140D02*
X197515400Y-178666140D01*
X220087380Y-174227680D02*
X221246700Y-175387000D01*
X201953860Y-174227680D02*
X220087380Y-174227680D01*
X197515400Y-178666140D02*
X201953860Y-174227680D01*
X170393360Y-145582640D02*
X170014900Y-145582640D01*
X170014900Y-145582640D02*
X166223858Y-149373682D01*
X166223858Y-149373682D02*
X166223858Y-156739682D01*
X166223858Y-156739682D02*
X159449862Y-163513678D01*
X159449862Y-163513678D02*
X156195302Y-163513678D01*
X156195302Y-163513678D02*
X154732580Y-164976400D01*
X154732580Y-164976400D02*
X154685140Y-164976400D01*
X154685140Y-164976400D02*
X143829856Y-175831684D01*
X143829856Y-175831684D02*
X143829856Y-185229684D01*
X143829856Y-185229684D02*
X141501854Y-187557686D01*
X141501854Y-187557686D02*
X141501854Y-212195686D01*
X141501854Y-212195686D02*
X132991860Y-220705680D01*
X132991860Y-220705680D02*
X83207860Y-220705680D01*
X83207860Y-220705680D02*
X75587860Y-228325680D01*
X82587860Y-228325680D02*
X82587860Y-226405680D01*
X166773860Y-151742140D02*
X170393360Y-148122640D01*
X166773860Y-157186400D02*
X166773860Y-151742140D01*
X159896580Y-164063680D02*
X166773860Y-157186400D01*
X156423120Y-164063680D02*
X159896580Y-164063680D01*
X144379858Y-176106942D02*
X156423120Y-164063680D01*
X144379858Y-185679862D02*
X144379858Y-176106942D01*
X142051856Y-188007864D02*
X144379858Y-185679862D01*
X142051856Y-212656224D02*
X142051856Y-188007864D01*
X133270412Y-221437668D02*
X142051856Y-212656224D01*
X87555872Y-221437668D02*
X133270412Y-221437668D01*
X82587860Y-226405680D02*
X87555872Y-221437668D01*
X170393360Y-150662640D02*
X169252900Y-150662640D01*
X95925870Y-221987670D02*
X89587860Y-228325680D01*
X133498230Y-221987670D02*
X95925870Y-221987670D01*
X142601858Y-212884042D02*
X133498230Y-221987670D01*
X142601858Y-188235682D02*
X142601858Y-212884042D01*
X144929860Y-185907680D02*
X142601858Y-188235682D01*
X144929860Y-176334760D02*
X144929860Y-185907680D01*
X156438940Y-164825680D02*
X144929860Y-176334760D01*
X159912400Y-164825680D02*
X156438940Y-164825680D01*
X167535860Y-157202220D02*
X159912400Y-164825680D01*
X167535860Y-152379680D02*
X167535860Y-157202220D01*
X169252900Y-150662640D02*
X167535860Y-152379680D01*
X96587860Y-228325680D02*
X96587860Y-226883680D01*
X168297860Y-155298140D02*
X170393360Y-153202640D01*
X168297860Y-157218040D02*
X168297860Y-155298140D01*
X159928220Y-165587680D02*
X168297860Y-157218040D01*
X156454760Y-165587680D02*
X159928220Y-165587680D01*
X146543856Y-175498584D02*
X156454760Y-165587680D01*
X146543856Y-185309684D02*
X146543856Y-175498584D01*
X143151860Y-188701680D02*
X146543856Y-185309684D01*
X143151860Y-213111860D02*
X143151860Y-188701680D01*
X133726048Y-222537672D02*
X143151860Y-213111860D01*
X100933868Y-222537672D02*
X133726048Y-222537672D01*
X96587860Y-226883680D02*
X100933868Y-222537672D01*
X103773860Y-228657680D02*
X103773860Y-226487680D01*
X103773860Y-226487680D02*
X107173866Y-223087674D01*
X168011080Y-158282640D02*
X170393360Y-158282640D01*
X160086042Y-166207678D02*
X168011080Y-158282640D01*
X156612582Y-166207678D02*
X160086042Y-166207678D01*
X147093858Y-175726402D02*
X156612582Y-166207678D01*
X147093858Y-185737682D02*
X147093858Y-175726402D01*
X143863858Y-188967682D02*
X147093858Y-185737682D01*
X143863858Y-213177682D02*
X143863858Y-188967682D01*
X133953866Y-223087674D02*
X143863858Y-213177682D01*
X107173866Y-223087674D02*
X133953866Y-223087674D01*
X115793864Y-223637676D02*
X110773860Y-228657680D01*
X134223860Y-223637676D02*
X115793864Y-223637676D01*
X144413860Y-213447676D02*
X134223860Y-223637676D01*
X144413860Y-189244220D02*
X144413860Y-213447676D01*
X147643860Y-186014220D02*
X144413860Y-189244220D01*
X147643860Y-175954220D02*
X147643860Y-186014220D01*
X156840400Y-166757680D02*
X147643860Y-175954220D01*
X160313860Y-166757680D02*
X156840400Y-166757680D01*
X170393360Y-160822640D02*
X166248900Y-160822640D01*
X166248900Y-160822640D02*
X160313860Y-166757680D01*
D21*
X172427900Y-79700120D02*
X170634660Y-79700120D01*
X166809420Y-64155320D02*
X171427140Y-59537600D01*
X166809420Y-75874880D02*
X166809420Y-64155320D01*
X170634660Y-79700120D02*
X166809420Y-75874880D01*
X171427140Y-59537600D02*
X184304940Y-59537600D01*
D22*
X117773860Y-228657680D02*
X117773860Y-227307680D01*
X117773860Y-227307680D02*
X120893862Y-224187678D01*
X164491080Y-163362640D02*
X170393360Y-163362640D01*
X160511084Y-167342636D02*
X164491080Y-163362640D01*
X157033264Y-167342636D02*
X160511084Y-167342636D01*
X148253854Y-176122046D02*
X157033264Y-167342636D01*
X148253854Y-186182046D02*
X148253854Y-176122046D01*
X144993860Y-189442040D02*
X148253854Y-186182046D01*
X144993860Y-213727680D02*
X144993860Y-189442040D01*
X134533862Y-224187678D02*
X144993860Y-213727680D01*
X120893862Y-224187678D02*
X134533862Y-224187678D01*
X145663860Y-207657680D02*
X145663860Y-213907680D01*
X128693860Y-224737680D02*
X124773860Y-228657680D01*
X134833860Y-224737680D02*
X128693860Y-224737680D01*
X145663860Y-213907680D02*
X134833860Y-224737680D01*
X145663860Y-189549860D02*
X145663860Y-207657680D01*
X145663860Y-207657680D02*
X145663860Y-207767680D01*
X148803856Y-186409864D02*
X145663860Y-189549860D01*
X148803856Y-176349864D02*
X148803856Y-186409864D01*
X157261082Y-167892638D02*
X148803856Y-176349864D01*
X160738902Y-167892638D02*
X157261082Y-167892638D01*
X170393360Y-165902640D02*
X162728900Y-165902640D01*
X162728900Y-165902640D02*
X160738902Y-167892638D01*
X131773860Y-228657680D02*
X131963860Y-228657680D01*
X131963860Y-228657680D02*
X146223860Y-214397680D01*
X146223860Y-214397680D02*
X146223860Y-189767680D01*
X146223860Y-189767680D02*
X149353858Y-186637682D01*
X149353858Y-186637682D02*
X149353858Y-176577682D01*
X149353858Y-176577682D02*
X157488900Y-168442640D01*
X157488900Y-168442640D02*
X170393360Y-168442640D01*
X146913860Y-220517680D02*
X138773860Y-228657680D01*
X146913860Y-190097680D02*
X146913860Y-220517680D01*
X149903860Y-187107680D02*
X146913860Y-190097680D01*
X149903860Y-176937680D02*
X149903860Y-187107680D01*
X170393360Y-170982640D02*
X155858900Y-170982640D01*
X155858900Y-170982640D02*
X149903860Y-176937680D01*
D20*
X59071860Y-131617680D02*
X49275860Y-141413680D01*
X116393860Y-131617680D02*
X59071860Y-131617680D01*
X116793860Y-131217680D02*
X116393860Y-131617680D01*
X115743860Y-133117680D02*
X115243860Y-132617680D01*
X115243860Y-132617680D02*
X73311860Y-132617680D01*
X73311860Y-132617680D02*
X64515860Y-141413680D01*
X114943860Y-133667680D02*
X114393858Y-133117678D01*
X114393858Y-133117678D02*
X80431862Y-133117678D01*
X80431862Y-133117678D02*
X72135860Y-141413680D01*
X114043860Y-134217680D02*
X113393860Y-133567680D01*
X113393860Y-133567680D02*
X87601860Y-133567680D01*
X87601860Y-133567680D02*
X79755860Y-141413680D01*
X112993860Y-134667680D02*
X112393860Y-134067680D01*
X112393860Y-134067680D02*
X94721860Y-134067680D01*
X94721860Y-134067680D02*
X87375860Y-141413680D01*
X112043860Y-135267680D02*
X111393860Y-134617680D01*
X111393860Y-134617680D02*
X101791860Y-134617680D01*
X101791860Y-134617680D02*
X94995860Y-141413680D01*
X110785860Y-135253680D02*
X110721860Y-135317680D01*
X110721860Y-135317680D02*
X108711860Y-135317680D01*
X108711860Y-135317680D02*
X102615860Y-141413680D01*
X59521860Y-87517680D02*
X49725860Y-97313680D01*
X116843860Y-87517680D02*
X59521860Y-87517680D01*
X117243860Y-87117680D02*
X116843860Y-87517680D01*
X116193860Y-89017680D02*
X115693860Y-88517680D01*
X115693860Y-88517680D02*
X73761860Y-88517680D01*
X73761860Y-88517680D02*
X64965860Y-97313680D01*
X115393860Y-89567680D02*
X114843858Y-89017678D01*
X114843858Y-89017678D02*
X80881862Y-89017678D01*
X80881862Y-89017678D02*
X72585860Y-97313680D01*
X114493860Y-90117680D02*
X113843860Y-89467680D01*
X113843860Y-89467680D02*
X88051860Y-89467680D01*
X88051860Y-89467680D02*
X80205860Y-97313680D01*
X113443860Y-90567680D02*
X112843860Y-89967680D01*
X112843860Y-89967680D02*
X95171860Y-89967680D01*
X95171860Y-89967680D02*
X87825860Y-97313680D01*
X102241860Y-90517680D02*
X95445860Y-97313680D01*
X111843860Y-90517680D02*
X102241860Y-90517680D01*
X112493860Y-91167680D02*
X111843860Y-90517680D01*
X111235860Y-91153680D02*
X111171860Y-91217680D01*
X111171860Y-91217680D02*
X109161860Y-91217680D01*
X109161860Y-91217680D02*
X103065860Y-97313680D01*
X200783340Y-64353200D02*
X205193860Y-59942680D01*
X200779380Y-67782440D02*
X200779380Y-64353200D01*
D22*
X199133460Y-102590600D02*
X200779380Y-100944680D01*
X200779380Y-100944680D02*
X200779380Y-67782440D01*
X194337940Y-102590600D02*
X199133460Y-102590600D01*
D20*
X200779380Y-64353200D02*
X200783340Y-64353200D01*
D22*
X202693860Y-49267680D02*
X205193860Y-49267680D01*
X163456360Y-55430180D02*
X191881360Y-55430180D01*
X163293860Y-55267680D02*
X163456360Y-55430180D01*
X200142024Y-63690844D02*
X191881360Y-55430180D01*
X200142024Y-64515844D02*
X200142024Y-63690844D01*
X194337940Y-100050600D02*
X197116700Y-100050600D01*
X200142024Y-97025276D02*
X197116700Y-100050600D01*
X200142024Y-68053824D02*
X200142024Y-97025276D01*
D20*
X200142024Y-68053824D02*
X200142024Y-64515844D01*
M02*
