G04 #@! TF.FileFunction,Legend,Bot*
%FSLAX46Y46*%
G04 Gerber Fmt 4.6, Leading zero omitted, Abs format (unit mm)*
G04 Created by KiCad (PCBNEW 4.0.4-stable) date 01/03/17 20:17:35*
%MOMM*%
%LPD*%
G01*
G04 APERTURE LIST*
%ADD10C,0.100000*%
%ADD11C,0.150000*%
%ADD12C,0.025000*%
G04 APERTURE END LIST*
D10*
D11*
X132237860Y-84982680D02*
X133237860Y-84982680D01*
X133237860Y-83632680D02*
X132237860Y-83632680D01*
X132075300Y-137555600D02*
X133075300Y-137555600D01*
X133075300Y-136205600D02*
X132075300Y-136205600D01*
X136643860Y-146512680D02*
X137643860Y-146512680D01*
X137643860Y-145162680D02*
X136643860Y-145162680D01*
X127663860Y-135782680D02*
X128663860Y-135782680D01*
X128663860Y-134432680D02*
X127663860Y-134432680D01*
X124863860Y-141002680D02*
X125863860Y-141002680D01*
X125863860Y-139652680D02*
X124863860Y-139652680D01*
X131983860Y-110382680D02*
X132983860Y-110382680D01*
X132983860Y-109032680D02*
X131983860Y-109032680D01*
X136047860Y-107588680D02*
X137047860Y-107588680D01*
X137047860Y-106238680D02*
X136047860Y-106238680D01*
X128173860Y-91586680D02*
X129173860Y-91586680D01*
X129173860Y-90236680D02*
X128173860Y-90236680D01*
X124109860Y-88284680D02*
X125109860Y-88284680D01*
X125109860Y-86934680D02*
X124109860Y-86934680D01*
X126619380Y-194400800D02*
X127619380Y-194400800D01*
X127619380Y-193050800D02*
X126619380Y-193050800D01*
X122819540Y-197006840D02*
X123819540Y-197006840D01*
X123819540Y-195656840D02*
X122819540Y-195656840D01*
X130063620Y-189422400D02*
X131063620Y-189422400D01*
X131063620Y-188072400D02*
X130063620Y-188072400D01*
X128853860Y-170192680D02*
X129853860Y-170192680D01*
X129853860Y-168842680D02*
X128853860Y-168842680D01*
X136301860Y-82950680D02*
X137301860Y-82950680D01*
X137301860Y-81600680D02*
X136301860Y-81600680D01*
X122373860Y-177402680D02*
X123373860Y-177402680D01*
X123373860Y-176052680D02*
X122373860Y-176052680D01*
X128173860Y-74060680D02*
X129173860Y-74060680D01*
X129173860Y-72710680D02*
X128173860Y-72710680D01*
X131983860Y-129742680D02*
X132983860Y-129742680D01*
X132983860Y-128392680D02*
X131983860Y-128392680D01*
X132483860Y-159972680D02*
X133483860Y-159972680D01*
X133483860Y-158622680D02*
X132483860Y-158622680D01*
X125887860Y-66948680D02*
X126887860Y-66948680D01*
X126887860Y-65598680D02*
X125887860Y-65598680D01*
X135793860Y-124742680D02*
X136793860Y-124742680D01*
X136793860Y-123392680D02*
X135793860Y-123392680D01*
X134983860Y-163392680D02*
X135983860Y-163392680D01*
X135983860Y-162042680D02*
X134983860Y-162042680D01*
X127919860Y-114192680D02*
X128919860Y-114192680D01*
X128919860Y-112842680D02*
X127919860Y-112842680D01*
X128463860Y-156582680D02*
X129463860Y-156582680D01*
X129463860Y-155232680D02*
X128463860Y-155232680D01*
X124163860Y-111962680D02*
X125163860Y-111962680D01*
X125163860Y-110612680D02*
X124163860Y-110612680D01*
X124163860Y-153842680D02*
X125163860Y-153842680D01*
X125163860Y-152492680D02*
X124163860Y-152492680D01*
D12*
X133297383Y-82633870D02*
X133464050Y-82395775D01*
X133583097Y-82633870D02*
X133583097Y-82133870D01*
X133392621Y-82133870D01*
X133345002Y-82157680D01*
X133321193Y-82181490D01*
X133297383Y-82229109D01*
X133297383Y-82300537D01*
X133321193Y-82348156D01*
X133345002Y-82371966D01*
X133392621Y-82395775D01*
X133583097Y-82395775D01*
X132821193Y-82633870D02*
X133106907Y-82633870D01*
X132964050Y-82633870D02*
X132964050Y-82133870D01*
X133011669Y-82205299D01*
X133059288Y-82252918D01*
X133106907Y-82276728D01*
X132368812Y-82133870D02*
X132606907Y-82133870D01*
X132630717Y-82371966D01*
X132606907Y-82348156D01*
X132559288Y-82324347D01*
X132440241Y-82324347D01*
X132392622Y-82348156D01*
X132368812Y-82371966D01*
X132345003Y-82419585D01*
X132345003Y-82538632D01*
X132368812Y-82586251D01*
X132392622Y-82610061D01*
X132440241Y-82633870D01*
X132559288Y-82633870D01*
X132606907Y-82610061D01*
X132630717Y-82586251D01*
X132035479Y-82133870D02*
X131987860Y-82133870D01*
X131940241Y-82157680D01*
X131916432Y-82181490D01*
X131892622Y-82229109D01*
X131868813Y-82324347D01*
X131868813Y-82443394D01*
X131892622Y-82538632D01*
X131916432Y-82586251D01*
X131940241Y-82610061D01*
X131987860Y-82633870D01*
X132035479Y-82633870D01*
X132083098Y-82610061D01*
X132106908Y-82586251D01*
X132130717Y-82538632D01*
X132154527Y-82443394D01*
X132154527Y-82324347D01*
X132130717Y-82229109D01*
X132106908Y-82181490D01*
X132083098Y-82157680D01*
X132035479Y-82133870D01*
X136614623Y-137071230D02*
X136781290Y-136833135D01*
X136900337Y-137071230D02*
X136900337Y-136571230D01*
X136709861Y-136571230D01*
X136662242Y-136595040D01*
X136638433Y-136618850D01*
X136614623Y-136666469D01*
X136614623Y-136737897D01*
X136638433Y-136785516D01*
X136662242Y-136809326D01*
X136709861Y-136833135D01*
X136900337Y-136833135D01*
X136138433Y-137071230D02*
X136424147Y-137071230D01*
X136281290Y-137071230D02*
X136281290Y-136571230D01*
X136328909Y-136642659D01*
X136376528Y-136690278D01*
X136424147Y-136714088D01*
X135828909Y-136571230D02*
X135781290Y-136571230D01*
X135733671Y-136595040D01*
X135709862Y-136618850D01*
X135686052Y-136666469D01*
X135662243Y-136761707D01*
X135662243Y-136880754D01*
X135686052Y-136975992D01*
X135709862Y-137023611D01*
X135733671Y-137047421D01*
X135781290Y-137071230D01*
X135828909Y-137071230D01*
X135876528Y-137047421D01*
X135900338Y-137023611D01*
X135924147Y-136975992D01*
X135947957Y-136880754D01*
X135947957Y-136761707D01*
X135924147Y-136666469D01*
X135900338Y-136618850D01*
X135876528Y-136595040D01*
X135828909Y-136571230D01*
X135424148Y-137071230D02*
X135328910Y-137071230D01*
X135281291Y-137047421D01*
X135257481Y-137023611D01*
X135209862Y-136952183D01*
X135186053Y-136856945D01*
X135186053Y-136666469D01*
X135209862Y-136618850D01*
X135233672Y-136595040D01*
X135281291Y-136571230D01*
X135376529Y-136571230D01*
X135424148Y-136595040D01*
X135447957Y-136618850D01*
X135471767Y-136666469D01*
X135471767Y-136785516D01*
X135447957Y-136833135D01*
X135424148Y-136856945D01*
X135376529Y-136880754D01*
X135281291Y-136880754D01*
X135233672Y-136856945D01*
X135209862Y-136833135D01*
X135186053Y-136785516D01*
X140832663Y-145992750D02*
X140999330Y-145754655D01*
X141118377Y-145992750D02*
X141118377Y-145492750D01*
X140927901Y-145492750D01*
X140880282Y-145516560D01*
X140856473Y-145540370D01*
X140832663Y-145587989D01*
X140832663Y-145659417D01*
X140856473Y-145707036D01*
X140880282Y-145730846D01*
X140927901Y-145754655D01*
X141118377Y-145754655D01*
X140356473Y-145992750D02*
X140642187Y-145992750D01*
X140499330Y-145992750D02*
X140499330Y-145492750D01*
X140546949Y-145564179D01*
X140594568Y-145611798D01*
X140642187Y-145635608D01*
X139880283Y-145992750D02*
X140165997Y-145992750D01*
X140023140Y-145992750D02*
X140023140Y-145492750D01*
X140070759Y-145564179D01*
X140118378Y-145611798D01*
X140165997Y-145635608D01*
X139404093Y-145992750D02*
X139689807Y-145992750D01*
X139546950Y-145992750D02*
X139546950Y-145492750D01*
X139594569Y-145564179D01*
X139642188Y-145611798D01*
X139689807Y-145635608D01*
X128758943Y-136685150D02*
X128925610Y-136447055D01*
X129044657Y-136685150D02*
X129044657Y-136185150D01*
X128854181Y-136185150D01*
X128806562Y-136208960D01*
X128782753Y-136232770D01*
X128758943Y-136280389D01*
X128758943Y-136351817D01*
X128782753Y-136399436D01*
X128806562Y-136423246D01*
X128854181Y-136447055D01*
X129044657Y-136447055D01*
X128282753Y-136685150D02*
X128568467Y-136685150D01*
X128425610Y-136685150D02*
X128425610Y-136185150D01*
X128473229Y-136256579D01*
X128520848Y-136304198D01*
X128568467Y-136328008D01*
X127806563Y-136685150D02*
X128092277Y-136685150D01*
X127949420Y-136685150D02*
X127949420Y-136185150D01*
X127997039Y-136256579D01*
X128044658Y-136304198D01*
X128092277Y-136328008D01*
X127639896Y-136185150D02*
X127330373Y-136185150D01*
X127497039Y-136375627D01*
X127425611Y-136375627D01*
X127377992Y-136399436D01*
X127354182Y-136423246D01*
X127330373Y-136470865D01*
X127330373Y-136589912D01*
X127354182Y-136637531D01*
X127377992Y-136661341D01*
X127425611Y-136685150D01*
X127568468Y-136685150D01*
X127616087Y-136661341D01*
X127639896Y-136637531D01*
X125923383Y-138653870D02*
X126090050Y-138415775D01*
X126209097Y-138653870D02*
X126209097Y-138153870D01*
X126018621Y-138153870D01*
X125971002Y-138177680D01*
X125947193Y-138201490D01*
X125923383Y-138249109D01*
X125923383Y-138320537D01*
X125947193Y-138368156D01*
X125971002Y-138391966D01*
X126018621Y-138415775D01*
X126209097Y-138415775D01*
X125447193Y-138653870D02*
X125732907Y-138653870D01*
X125590050Y-138653870D02*
X125590050Y-138153870D01*
X125637669Y-138225299D01*
X125685288Y-138272918D01*
X125732907Y-138296728D01*
X124971003Y-138653870D02*
X125256717Y-138653870D01*
X125113860Y-138653870D02*
X125113860Y-138153870D01*
X125161479Y-138225299D01*
X125209098Y-138272918D01*
X125256717Y-138296728D01*
X124518622Y-138153870D02*
X124756717Y-138153870D01*
X124780527Y-138391966D01*
X124756717Y-138368156D01*
X124709098Y-138344347D01*
X124590051Y-138344347D01*
X124542432Y-138368156D01*
X124518622Y-138391966D01*
X124494813Y-138439585D01*
X124494813Y-138558632D01*
X124518622Y-138606251D01*
X124542432Y-138630061D01*
X124590051Y-138653870D01*
X124709098Y-138653870D01*
X124756717Y-138630061D01*
X124780527Y-138606251D01*
X133261823Y-111056550D02*
X133428490Y-110818455D01*
X133547537Y-111056550D02*
X133547537Y-110556550D01*
X133357061Y-110556550D01*
X133309442Y-110580360D01*
X133285633Y-110604170D01*
X133261823Y-110651789D01*
X133261823Y-110723217D01*
X133285633Y-110770836D01*
X133309442Y-110794646D01*
X133357061Y-110818455D01*
X133547537Y-110818455D01*
X132785633Y-111056550D02*
X133071347Y-111056550D01*
X132928490Y-111056550D02*
X132928490Y-110556550D01*
X132976109Y-110627979D01*
X133023728Y-110675598D01*
X133071347Y-110699408D01*
X132309443Y-111056550D02*
X132595157Y-111056550D01*
X132452300Y-111056550D02*
X132452300Y-110556550D01*
X132499919Y-110627979D01*
X132547538Y-110675598D01*
X132595157Y-110699408D01*
X131880872Y-110723217D02*
X131880872Y-111056550D01*
X131999919Y-110532741D02*
X132118967Y-110889884D01*
X131809443Y-110889884D01*
X137193743Y-105951150D02*
X137360410Y-105713055D01*
X137479457Y-105951150D02*
X137479457Y-105451150D01*
X137288981Y-105451150D01*
X137241362Y-105474960D01*
X137217553Y-105498770D01*
X137193743Y-105546389D01*
X137193743Y-105617817D01*
X137217553Y-105665436D01*
X137241362Y-105689246D01*
X137288981Y-105713055D01*
X137479457Y-105713055D01*
X136717553Y-105951150D02*
X137003267Y-105951150D01*
X136860410Y-105951150D02*
X136860410Y-105451150D01*
X136908029Y-105522579D01*
X136955648Y-105570198D01*
X137003267Y-105594008D01*
X136241363Y-105951150D02*
X136527077Y-105951150D01*
X136384220Y-105951150D02*
X136384220Y-105451150D01*
X136431839Y-105522579D01*
X136479458Y-105570198D01*
X136527077Y-105594008D01*
X135812792Y-105451150D02*
X135908030Y-105451150D01*
X135955649Y-105474960D01*
X135979458Y-105498770D01*
X136027077Y-105570198D01*
X136050887Y-105665436D01*
X136050887Y-105855912D01*
X136027077Y-105903531D01*
X136003268Y-105927341D01*
X135955649Y-105951150D01*
X135860411Y-105951150D01*
X135812792Y-105927341D01*
X135788982Y-105903531D01*
X135765173Y-105855912D01*
X135765173Y-105736865D01*
X135788982Y-105689246D01*
X135812792Y-105665436D01*
X135860411Y-105641627D01*
X135955649Y-105641627D01*
X136003268Y-105665436D01*
X136027077Y-105689246D01*
X136050887Y-105736865D01*
X129233383Y-89237870D02*
X129400050Y-88999775D01*
X129519097Y-89237870D02*
X129519097Y-88737870D01*
X129328621Y-88737870D01*
X129281002Y-88761680D01*
X129257193Y-88785490D01*
X129233383Y-88833109D01*
X129233383Y-88904537D01*
X129257193Y-88952156D01*
X129281002Y-88975966D01*
X129328621Y-88999775D01*
X129519097Y-88999775D01*
X128757193Y-89237870D02*
X129042907Y-89237870D01*
X128900050Y-89237870D02*
X128900050Y-88737870D01*
X128947669Y-88809299D01*
X128995288Y-88856918D01*
X129042907Y-88880728D01*
X128281003Y-89237870D02*
X128566717Y-89237870D01*
X128423860Y-89237870D02*
X128423860Y-88737870D01*
X128471479Y-88809299D01*
X128519098Y-88856918D01*
X128566717Y-88880728D01*
X128042908Y-89237870D02*
X127947670Y-89237870D01*
X127900051Y-89214061D01*
X127876241Y-89190251D01*
X127828622Y-89118823D01*
X127804813Y-89023585D01*
X127804813Y-88833109D01*
X127828622Y-88785490D01*
X127852432Y-88761680D01*
X127900051Y-88737870D01*
X127995289Y-88737870D01*
X128042908Y-88761680D01*
X128066717Y-88785490D01*
X128090527Y-88833109D01*
X128090527Y-88952156D01*
X128066717Y-88999775D01*
X128042908Y-89023585D01*
X127995289Y-89047394D01*
X127900051Y-89047394D01*
X127852432Y-89023585D01*
X127828622Y-88999775D01*
X127804813Y-88952156D01*
X125169383Y-85935870D02*
X125336050Y-85697775D01*
X125455097Y-85935870D02*
X125455097Y-85435870D01*
X125264621Y-85435870D01*
X125217002Y-85459680D01*
X125193193Y-85483490D01*
X125169383Y-85531109D01*
X125169383Y-85602537D01*
X125193193Y-85650156D01*
X125217002Y-85673966D01*
X125264621Y-85697775D01*
X125455097Y-85697775D01*
X124693193Y-85935870D02*
X124978907Y-85935870D01*
X124836050Y-85935870D02*
X124836050Y-85435870D01*
X124883669Y-85507299D01*
X124931288Y-85554918D01*
X124978907Y-85578728D01*
X124502717Y-85483490D02*
X124478907Y-85459680D01*
X124431288Y-85435870D01*
X124312241Y-85435870D01*
X124264622Y-85459680D01*
X124240812Y-85483490D01*
X124217003Y-85531109D01*
X124217003Y-85578728D01*
X124240812Y-85650156D01*
X124526526Y-85935870D01*
X124217003Y-85935870D01*
X123740813Y-85935870D02*
X124026527Y-85935870D01*
X123883670Y-85935870D02*
X123883670Y-85435870D01*
X123931289Y-85507299D01*
X123978908Y-85554918D01*
X124026527Y-85578728D01*
X127666203Y-195361690D02*
X127832870Y-195123595D01*
X127951917Y-195361690D02*
X127951917Y-194861690D01*
X127761441Y-194861690D01*
X127713822Y-194885500D01*
X127690013Y-194909310D01*
X127666203Y-194956929D01*
X127666203Y-195028357D01*
X127690013Y-195075976D01*
X127713822Y-195099786D01*
X127761441Y-195123595D01*
X127951917Y-195123595D01*
X127190013Y-195361690D02*
X127475727Y-195361690D01*
X127332870Y-195361690D02*
X127332870Y-194861690D01*
X127380489Y-194933119D01*
X127428108Y-194980738D01*
X127475727Y-195004548D01*
X126999537Y-194909310D02*
X126975727Y-194885500D01*
X126928108Y-194861690D01*
X126809061Y-194861690D01*
X126761442Y-194885500D01*
X126737632Y-194909310D01*
X126713823Y-194956929D01*
X126713823Y-195004548D01*
X126737632Y-195075976D01*
X127023346Y-195361690D01*
X126713823Y-195361690D01*
X126285252Y-194861690D02*
X126380490Y-194861690D01*
X126428109Y-194885500D01*
X126451918Y-194909310D01*
X126499537Y-194980738D01*
X126523347Y-195075976D01*
X126523347Y-195266452D01*
X126499537Y-195314071D01*
X126475728Y-195337881D01*
X126428109Y-195361690D01*
X126332871Y-195361690D01*
X126285252Y-195337881D01*
X126261442Y-195314071D01*
X126237633Y-195266452D01*
X126237633Y-195147405D01*
X126261442Y-195099786D01*
X126285252Y-195075976D01*
X126332871Y-195052167D01*
X126428109Y-195052167D01*
X126475728Y-195075976D01*
X126499537Y-195099786D01*
X126523347Y-195147405D01*
X123879063Y-194658030D02*
X124045730Y-194419935D01*
X124164777Y-194658030D02*
X124164777Y-194158030D01*
X123974301Y-194158030D01*
X123926682Y-194181840D01*
X123902873Y-194205650D01*
X123879063Y-194253269D01*
X123879063Y-194324697D01*
X123902873Y-194372316D01*
X123926682Y-194396126D01*
X123974301Y-194419935D01*
X124164777Y-194419935D01*
X123402873Y-194658030D02*
X123688587Y-194658030D01*
X123545730Y-194658030D02*
X123545730Y-194158030D01*
X123593349Y-194229459D01*
X123640968Y-194277078D01*
X123688587Y-194300888D01*
X123212397Y-194205650D02*
X123188587Y-194181840D01*
X123140968Y-194158030D01*
X123021921Y-194158030D01*
X122974302Y-194181840D01*
X122950492Y-194205650D01*
X122926683Y-194253269D01*
X122926683Y-194300888D01*
X122950492Y-194372316D01*
X123236206Y-194658030D01*
X122926683Y-194658030D01*
X122760016Y-194158030D02*
X122426683Y-194158030D01*
X122640969Y-194658030D01*
X131123143Y-187073590D02*
X131289810Y-186835495D01*
X131408857Y-187073590D02*
X131408857Y-186573590D01*
X131218381Y-186573590D01*
X131170762Y-186597400D01*
X131146953Y-186621210D01*
X131123143Y-186668829D01*
X131123143Y-186740257D01*
X131146953Y-186787876D01*
X131170762Y-186811686D01*
X131218381Y-186835495D01*
X131408857Y-186835495D01*
X130646953Y-187073590D02*
X130932667Y-187073590D01*
X130789810Y-187073590D02*
X130789810Y-186573590D01*
X130837429Y-186645019D01*
X130885048Y-186692638D01*
X130932667Y-186716448D01*
X130218382Y-186740257D02*
X130218382Y-187073590D01*
X130337429Y-186549781D02*
X130456477Y-186906924D01*
X130146953Y-186906924D01*
X129742192Y-186573590D02*
X129837430Y-186573590D01*
X129885049Y-186597400D01*
X129908858Y-186621210D01*
X129956477Y-186692638D01*
X129980287Y-186787876D01*
X129980287Y-186978352D01*
X129956477Y-187025971D01*
X129932668Y-187049781D01*
X129885049Y-187073590D01*
X129789811Y-187073590D01*
X129742192Y-187049781D01*
X129718382Y-187025971D01*
X129694573Y-186978352D01*
X129694573Y-186859305D01*
X129718382Y-186811686D01*
X129742192Y-186787876D01*
X129789811Y-186764067D01*
X129885049Y-186764067D01*
X129932668Y-186787876D01*
X129956477Y-186811686D01*
X129980287Y-186859305D01*
X129913383Y-167843870D02*
X130080050Y-167605775D01*
X130199097Y-167843870D02*
X130199097Y-167343870D01*
X130008621Y-167343870D01*
X129961002Y-167367680D01*
X129937193Y-167391490D01*
X129913383Y-167439109D01*
X129913383Y-167510537D01*
X129937193Y-167558156D01*
X129961002Y-167581966D01*
X130008621Y-167605775D01*
X130199097Y-167605775D01*
X129437193Y-167843870D02*
X129722907Y-167843870D01*
X129580050Y-167843870D02*
X129580050Y-167343870D01*
X129627669Y-167415299D01*
X129675288Y-167462918D01*
X129722907Y-167486728D01*
X128984812Y-167343870D02*
X129222907Y-167343870D01*
X129246717Y-167581966D01*
X129222907Y-167558156D01*
X129175288Y-167534347D01*
X129056241Y-167534347D01*
X129008622Y-167558156D01*
X128984812Y-167581966D01*
X128961003Y-167629585D01*
X128961003Y-167748632D01*
X128984812Y-167796251D01*
X129008622Y-167820061D01*
X129056241Y-167843870D01*
X129175288Y-167843870D01*
X129222907Y-167820061D01*
X129246717Y-167796251D01*
X128484813Y-167843870D02*
X128770527Y-167843870D01*
X128627670Y-167843870D02*
X128627670Y-167343870D01*
X128675289Y-167415299D01*
X128722908Y-167462918D01*
X128770527Y-167486728D01*
X137361383Y-80601870D02*
X137528050Y-80363775D01*
X137647097Y-80601870D02*
X137647097Y-80101870D01*
X137456621Y-80101870D01*
X137409002Y-80125680D01*
X137385193Y-80149490D01*
X137361383Y-80197109D01*
X137361383Y-80268537D01*
X137385193Y-80316156D01*
X137409002Y-80339966D01*
X137456621Y-80363775D01*
X137647097Y-80363775D01*
X136885193Y-80601870D02*
X137170907Y-80601870D01*
X137028050Y-80601870D02*
X137028050Y-80101870D01*
X137075669Y-80173299D01*
X137123288Y-80220918D01*
X137170907Y-80244728D01*
X136432812Y-80101870D02*
X136670907Y-80101870D01*
X136694717Y-80339966D01*
X136670907Y-80316156D01*
X136623288Y-80292347D01*
X136504241Y-80292347D01*
X136456622Y-80316156D01*
X136432812Y-80339966D01*
X136409003Y-80387585D01*
X136409003Y-80506632D01*
X136432812Y-80554251D01*
X136456622Y-80578061D01*
X136504241Y-80601870D01*
X136623288Y-80601870D01*
X136670907Y-80578061D01*
X136694717Y-80554251D01*
X136218527Y-80149490D02*
X136194717Y-80125680D01*
X136147098Y-80101870D01*
X136028051Y-80101870D01*
X135980432Y-80125680D01*
X135956622Y-80149490D01*
X135932813Y-80197109D01*
X135932813Y-80244728D01*
X135956622Y-80316156D01*
X136242336Y-80601870D01*
X135932813Y-80601870D01*
X123433383Y-175053870D02*
X123600050Y-174815775D01*
X123719097Y-175053870D02*
X123719097Y-174553870D01*
X123528621Y-174553870D01*
X123481002Y-174577680D01*
X123457193Y-174601490D01*
X123433383Y-174649109D01*
X123433383Y-174720537D01*
X123457193Y-174768156D01*
X123481002Y-174791966D01*
X123528621Y-174815775D01*
X123719097Y-174815775D01*
X122957193Y-175053870D02*
X123242907Y-175053870D01*
X123100050Y-175053870D02*
X123100050Y-174553870D01*
X123147669Y-174625299D01*
X123195288Y-174672918D01*
X123242907Y-174696728D01*
X122504812Y-174553870D02*
X122742907Y-174553870D01*
X122766717Y-174791966D01*
X122742907Y-174768156D01*
X122695288Y-174744347D01*
X122576241Y-174744347D01*
X122528622Y-174768156D01*
X122504812Y-174791966D01*
X122481003Y-174839585D01*
X122481003Y-174958632D01*
X122504812Y-175006251D01*
X122528622Y-175030061D01*
X122576241Y-175053870D01*
X122695288Y-175053870D01*
X122742907Y-175030061D01*
X122766717Y-175006251D01*
X122314336Y-174553870D02*
X122004813Y-174553870D01*
X122171479Y-174744347D01*
X122100051Y-174744347D01*
X122052432Y-174768156D01*
X122028622Y-174791966D01*
X122004813Y-174839585D01*
X122004813Y-174958632D01*
X122028622Y-175006251D01*
X122052432Y-175030061D01*
X122100051Y-175053870D01*
X122242908Y-175053870D01*
X122290527Y-175030061D01*
X122314336Y-175006251D01*
X129233383Y-71711870D02*
X129400050Y-71473775D01*
X129519097Y-71711870D02*
X129519097Y-71211870D01*
X129328621Y-71211870D01*
X129281002Y-71235680D01*
X129257193Y-71259490D01*
X129233383Y-71307109D01*
X129233383Y-71378537D01*
X129257193Y-71426156D01*
X129281002Y-71449966D01*
X129328621Y-71473775D01*
X129519097Y-71473775D01*
X128757193Y-71711870D02*
X129042907Y-71711870D01*
X128900050Y-71711870D02*
X128900050Y-71211870D01*
X128947669Y-71283299D01*
X128995288Y-71330918D01*
X129042907Y-71354728D01*
X128304812Y-71211870D02*
X128542907Y-71211870D01*
X128566717Y-71449966D01*
X128542907Y-71426156D01*
X128495288Y-71402347D01*
X128376241Y-71402347D01*
X128328622Y-71426156D01*
X128304812Y-71449966D01*
X128281003Y-71497585D01*
X128281003Y-71616632D01*
X128304812Y-71664251D01*
X128328622Y-71688061D01*
X128376241Y-71711870D01*
X128495288Y-71711870D01*
X128542907Y-71688061D01*
X128566717Y-71664251D01*
X127852432Y-71378537D02*
X127852432Y-71711870D01*
X127971479Y-71188061D02*
X128090527Y-71545204D01*
X127781003Y-71545204D01*
X133175463Y-130571490D02*
X133342130Y-130333395D01*
X133461177Y-130571490D02*
X133461177Y-130071490D01*
X133270701Y-130071490D01*
X133223082Y-130095300D01*
X133199273Y-130119110D01*
X133175463Y-130166729D01*
X133175463Y-130238157D01*
X133199273Y-130285776D01*
X133223082Y-130309586D01*
X133270701Y-130333395D01*
X133461177Y-130333395D01*
X132699273Y-130571490D02*
X132984987Y-130571490D01*
X132842130Y-130571490D02*
X132842130Y-130071490D01*
X132889749Y-130142919D01*
X132937368Y-130190538D01*
X132984987Y-130214348D01*
X132246892Y-130071490D02*
X132484987Y-130071490D01*
X132508797Y-130309586D01*
X132484987Y-130285776D01*
X132437368Y-130261967D01*
X132318321Y-130261967D01*
X132270702Y-130285776D01*
X132246892Y-130309586D01*
X132223083Y-130357205D01*
X132223083Y-130476252D01*
X132246892Y-130523871D01*
X132270702Y-130547681D01*
X132318321Y-130571490D01*
X132437368Y-130571490D01*
X132484987Y-130547681D01*
X132508797Y-130523871D01*
X131770702Y-130071490D02*
X132008797Y-130071490D01*
X132032607Y-130309586D01*
X132008797Y-130285776D01*
X131961178Y-130261967D01*
X131842131Y-130261967D01*
X131794512Y-130285776D01*
X131770702Y-130309586D01*
X131746893Y-130357205D01*
X131746893Y-130476252D01*
X131770702Y-130523871D01*
X131794512Y-130547681D01*
X131842131Y-130571490D01*
X131961178Y-130571490D01*
X132008797Y-130547681D01*
X132032607Y-130523871D01*
X133543383Y-157623870D02*
X133710050Y-157385775D01*
X133829097Y-157623870D02*
X133829097Y-157123870D01*
X133638621Y-157123870D01*
X133591002Y-157147680D01*
X133567193Y-157171490D01*
X133543383Y-157219109D01*
X133543383Y-157290537D01*
X133567193Y-157338156D01*
X133591002Y-157361966D01*
X133638621Y-157385775D01*
X133829097Y-157385775D01*
X133067193Y-157623870D02*
X133352907Y-157623870D01*
X133210050Y-157623870D02*
X133210050Y-157123870D01*
X133257669Y-157195299D01*
X133305288Y-157242918D01*
X133352907Y-157266728D01*
X132614812Y-157123870D02*
X132852907Y-157123870D01*
X132876717Y-157361966D01*
X132852907Y-157338156D01*
X132805288Y-157314347D01*
X132686241Y-157314347D01*
X132638622Y-157338156D01*
X132614812Y-157361966D01*
X132591003Y-157409585D01*
X132591003Y-157528632D01*
X132614812Y-157576251D01*
X132638622Y-157600061D01*
X132686241Y-157623870D01*
X132805288Y-157623870D01*
X132852907Y-157600061D01*
X132876717Y-157576251D01*
X132162432Y-157123870D02*
X132257670Y-157123870D01*
X132305289Y-157147680D01*
X132329098Y-157171490D01*
X132376717Y-157242918D01*
X132400527Y-157338156D01*
X132400527Y-157528632D01*
X132376717Y-157576251D01*
X132352908Y-157600061D01*
X132305289Y-157623870D01*
X132210051Y-157623870D01*
X132162432Y-157600061D01*
X132138622Y-157576251D01*
X132114813Y-157528632D01*
X132114813Y-157409585D01*
X132138622Y-157361966D01*
X132162432Y-157338156D01*
X132210051Y-157314347D01*
X132305289Y-157314347D01*
X132352908Y-157338156D01*
X132376717Y-157361966D01*
X132400527Y-157409585D01*
X126947383Y-64599870D02*
X127114050Y-64361775D01*
X127233097Y-64599870D02*
X127233097Y-64099870D01*
X127042621Y-64099870D01*
X126995002Y-64123680D01*
X126971193Y-64147490D01*
X126947383Y-64195109D01*
X126947383Y-64266537D01*
X126971193Y-64314156D01*
X126995002Y-64337966D01*
X127042621Y-64361775D01*
X127233097Y-64361775D01*
X126471193Y-64599870D02*
X126756907Y-64599870D01*
X126614050Y-64599870D02*
X126614050Y-64099870D01*
X126661669Y-64171299D01*
X126709288Y-64218918D01*
X126756907Y-64242728D01*
X126018812Y-64099870D02*
X126256907Y-64099870D01*
X126280717Y-64337966D01*
X126256907Y-64314156D01*
X126209288Y-64290347D01*
X126090241Y-64290347D01*
X126042622Y-64314156D01*
X126018812Y-64337966D01*
X125995003Y-64385585D01*
X125995003Y-64504632D01*
X126018812Y-64552251D01*
X126042622Y-64576061D01*
X126090241Y-64599870D01*
X126209288Y-64599870D01*
X126256907Y-64576061D01*
X126280717Y-64552251D01*
X125828336Y-64099870D02*
X125495003Y-64099870D01*
X125709289Y-64599870D01*
X136853383Y-122393870D02*
X137020050Y-122155775D01*
X137139097Y-122393870D02*
X137139097Y-121893870D01*
X136948621Y-121893870D01*
X136901002Y-121917680D01*
X136877193Y-121941490D01*
X136853383Y-121989109D01*
X136853383Y-122060537D01*
X136877193Y-122108156D01*
X136901002Y-122131966D01*
X136948621Y-122155775D01*
X137139097Y-122155775D01*
X136377193Y-122393870D02*
X136662907Y-122393870D01*
X136520050Y-122393870D02*
X136520050Y-121893870D01*
X136567669Y-121965299D01*
X136615288Y-122012918D01*
X136662907Y-122036728D01*
X135924812Y-121893870D02*
X136162907Y-121893870D01*
X136186717Y-122131966D01*
X136162907Y-122108156D01*
X136115288Y-122084347D01*
X135996241Y-122084347D01*
X135948622Y-122108156D01*
X135924812Y-122131966D01*
X135901003Y-122179585D01*
X135901003Y-122298632D01*
X135924812Y-122346251D01*
X135948622Y-122370061D01*
X135996241Y-122393870D01*
X136115288Y-122393870D01*
X136162907Y-122370061D01*
X136186717Y-122346251D01*
X135615289Y-122108156D02*
X135662908Y-122084347D01*
X135686717Y-122060537D01*
X135710527Y-122012918D01*
X135710527Y-121989109D01*
X135686717Y-121941490D01*
X135662908Y-121917680D01*
X135615289Y-121893870D01*
X135520051Y-121893870D01*
X135472432Y-121917680D01*
X135448622Y-121941490D01*
X135424813Y-121989109D01*
X135424813Y-122012918D01*
X135448622Y-122060537D01*
X135472432Y-122084347D01*
X135520051Y-122108156D01*
X135615289Y-122108156D01*
X135662908Y-122131966D01*
X135686717Y-122155775D01*
X135710527Y-122203394D01*
X135710527Y-122298632D01*
X135686717Y-122346251D01*
X135662908Y-122370061D01*
X135615289Y-122393870D01*
X135520051Y-122393870D01*
X135472432Y-122370061D01*
X135448622Y-122346251D01*
X135424813Y-122298632D01*
X135424813Y-122203394D01*
X135448622Y-122155775D01*
X135472432Y-122131966D01*
X135520051Y-122108156D01*
X136043383Y-161043870D02*
X136210050Y-160805775D01*
X136329097Y-161043870D02*
X136329097Y-160543870D01*
X136138621Y-160543870D01*
X136091002Y-160567680D01*
X136067193Y-160591490D01*
X136043383Y-160639109D01*
X136043383Y-160710537D01*
X136067193Y-160758156D01*
X136091002Y-160781966D01*
X136138621Y-160805775D01*
X136329097Y-160805775D01*
X135567193Y-161043870D02*
X135852907Y-161043870D01*
X135710050Y-161043870D02*
X135710050Y-160543870D01*
X135757669Y-160615299D01*
X135805288Y-160662918D01*
X135852907Y-160686728D01*
X135114812Y-160543870D02*
X135352907Y-160543870D01*
X135376717Y-160781966D01*
X135352907Y-160758156D01*
X135305288Y-160734347D01*
X135186241Y-160734347D01*
X135138622Y-160758156D01*
X135114812Y-160781966D01*
X135091003Y-160829585D01*
X135091003Y-160948632D01*
X135114812Y-160996251D01*
X135138622Y-161020061D01*
X135186241Y-161043870D01*
X135305288Y-161043870D01*
X135352907Y-161020061D01*
X135376717Y-160996251D01*
X134852908Y-161043870D02*
X134757670Y-161043870D01*
X134710051Y-161020061D01*
X134686241Y-160996251D01*
X134638622Y-160924823D01*
X134614813Y-160829585D01*
X134614813Y-160639109D01*
X134638622Y-160591490D01*
X134662432Y-160567680D01*
X134710051Y-160543870D01*
X134805289Y-160543870D01*
X134852908Y-160567680D01*
X134876717Y-160591490D01*
X134900527Y-160639109D01*
X134900527Y-160758156D01*
X134876717Y-160805775D01*
X134852908Y-160829585D01*
X134805289Y-160853394D01*
X134710051Y-160853394D01*
X134662432Y-160829585D01*
X134638622Y-160805775D01*
X134614813Y-160758156D01*
X132065483Y-113728630D02*
X132232150Y-113490535D01*
X132351197Y-113728630D02*
X132351197Y-113228630D01*
X132160721Y-113228630D01*
X132113102Y-113252440D01*
X132089293Y-113276250D01*
X132065483Y-113323869D01*
X132065483Y-113395297D01*
X132089293Y-113442916D01*
X132113102Y-113466726D01*
X132160721Y-113490535D01*
X132351197Y-113490535D01*
X131589293Y-113728630D02*
X131875007Y-113728630D01*
X131732150Y-113728630D02*
X131732150Y-113228630D01*
X131779769Y-113300059D01*
X131827388Y-113347678D01*
X131875007Y-113371488D01*
X131160722Y-113228630D02*
X131255960Y-113228630D01*
X131303579Y-113252440D01*
X131327388Y-113276250D01*
X131375007Y-113347678D01*
X131398817Y-113442916D01*
X131398817Y-113633392D01*
X131375007Y-113681011D01*
X131351198Y-113704821D01*
X131303579Y-113728630D01*
X131208341Y-113728630D01*
X131160722Y-113704821D01*
X131136912Y-113681011D01*
X131113103Y-113633392D01*
X131113103Y-113514345D01*
X131136912Y-113466726D01*
X131160722Y-113442916D01*
X131208341Y-113419107D01*
X131303579Y-113419107D01*
X131351198Y-113442916D01*
X131375007Y-113466726D01*
X131398817Y-113514345D01*
X130803579Y-113228630D02*
X130755960Y-113228630D01*
X130708341Y-113252440D01*
X130684532Y-113276250D01*
X130660722Y-113323869D01*
X130636913Y-113419107D01*
X130636913Y-113538154D01*
X130660722Y-113633392D01*
X130684532Y-113681011D01*
X130708341Y-113704821D01*
X130755960Y-113728630D01*
X130803579Y-113728630D01*
X130851198Y-113704821D01*
X130875008Y-113681011D01*
X130898817Y-113633392D01*
X130922627Y-113538154D01*
X130922627Y-113419107D01*
X130898817Y-113323869D01*
X130875008Y-113276250D01*
X130851198Y-113252440D01*
X130803579Y-113228630D01*
X129523383Y-154233870D02*
X129690050Y-153995775D01*
X129809097Y-154233870D02*
X129809097Y-153733870D01*
X129618621Y-153733870D01*
X129571002Y-153757680D01*
X129547193Y-153781490D01*
X129523383Y-153829109D01*
X129523383Y-153900537D01*
X129547193Y-153948156D01*
X129571002Y-153971966D01*
X129618621Y-153995775D01*
X129809097Y-153995775D01*
X129047193Y-154233870D02*
X129332907Y-154233870D01*
X129190050Y-154233870D02*
X129190050Y-153733870D01*
X129237669Y-153805299D01*
X129285288Y-153852918D01*
X129332907Y-153876728D01*
X128618622Y-153733870D02*
X128713860Y-153733870D01*
X128761479Y-153757680D01*
X128785288Y-153781490D01*
X128832907Y-153852918D01*
X128856717Y-153948156D01*
X128856717Y-154138632D01*
X128832907Y-154186251D01*
X128809098Y-154210061D01*
X128761479Y-154233870D01*
X128666241Y-154233870D01*
X128618622Y-154210061D01*
X128594812Y-154186251D01*
X128571003Y-154138632D01*
X128571003Y-154019585D01*
X128594812Y-153971966D01*
X128618622Y-153948156D01*
X128666241Y-153924347D01*
X128761479Y-153924347D01*
X128809098Y-153948156D01*
X128832907Y-153971966D01*
X128856717Y-154019585D01*
X128094813Y-154233870D02*
X128380527Y-154233870D01*
X128237670Y-154233870D02*
X128237670Y-153733870D01*
X128285289Y-153805299D01*
X128332908Y-153852918D01*
X128380527Y-153876728D01*
X128276463Y-111536730D02*
X128443130Y-111298635D01*
X128562177Y-111536730D02*
X128562177Y-111036730D01*
X128371701Y-111036730D01*
X128324082Y-111060540D01*
X128300273Y-111084350D01*
X128276463Y-111131969D01*
X128276463Y-111203397D01*
X128300273Y-111251016D01*
X128324082Y-111274826D01*
X128371701Y-111298635D01*
X128562177Y-111298635D01*
X127800273Y-111536730D02*
X128085987Y-111536730D01*
X127943130Y-111536730D02*
X127943130Y-111036730D01*
X127990749Y-111108159D01*
X128038368Y-111155778D01*
X128085987Y-111179588D01*
X127371702Y-111036730D02*
X127466940Y-111036730D01*
X127514559Y-111060540D01*
X127538368Y-111084350D01*
X127585987Y-111155778D01*
X127609797Y-111251016D01*
X127609797Y-111441492D01*
X127585987Y-111489111D01*
X127562178Y-111512921D01*
X127514559Y-111536730D01*
X127419321Y-111536730D01*
X127371702Y-111512921D01*
X127347892Y-111489111D01*
X127324083Y-111441492D01*
X127324083Y-111322445D01*
X127347892Y-111274826D01*
X127371702Y-111251016D01*
X127419321Y-111227207D01*
X127514559Y-111227207D01*
X127562178Y-111251016D01*
X127585987Y-111274826D01*
X127609797Y-111322445D01*
X127133607Y-111084350D02*
X127109797Y-111060540D01*
X127062178Y-111036730D01*
X126943131Y-111036730D01*
X126895512Y-111060540D01*
X126871702Y-111084350D01*
X126847893Y-111131969D01*
X126847893Y-111179588D01*
X126871702Y-111251016D01*
X127157416Y-111536730D01*
X126847893Y-111536730D01*
X125223383Y-151493870D02*
X125390050Y-151255775D01*
X125509097Y-151493870D02*
X125509097Y-150993870D01*
X125318621Y-150993870D01*
X125271002Y-151017680D01*
X125247193Y-151041490D01*
X125223383Y-151089109D01*
X125223383Y-151160537D01*
X125247193Y-151208156D01*
X125271002Y-151231966D01*
X125318621Y-151255775D01*
X125509097Y-151255775D01*
X124747193Y-151493870D02*
X125032907Y-151493870D01*
X124890050Y-151493870D02*
X124890050Y-150993870D01*
X124937669Y-151065299D01*
X124985288Y-151112918D01*
X125032907Y-151136728D01*
X124318622Y-150993870D02*
X124413860Y-150993870D01*
X124461479Y-151017680D01*
X124485288Y-151041490D01*
X124532907Y-151112918D01*
X124556717Y-151208156D01*
X124556717Y-151398632D01*
X124532907Y-151446251D01*
X124509098Y-151470061D01*
X124461479Y-151493870D01*
X124366241Y-151493870D01*
X124318622Y-151470061D01*
X124294812Y-151446251D01*
X124271003Y-151398632D01*
X124271003Y-151279585D01*
X124294812Y-151231966D01*
X124318622Y-151208156D01*
X124366241Y-151184347D01*
X124461479Y-151184347D01*
X124509098Y-151208156D01*
X124532907Y-151231966D01*
X124556717Y-151279585D01*
X124104336Y-150993870D02*
X123794813Y-150993870D01*
X123961479Y-151184347D01*
X123890051Y-151184347D01*
X123842432Y-151208156D01*
X123818622Y-151231966D01*
X123794813Y-151279585D01*
X123794813Y-151398632D01*
X123818622Y-151446251D01*
X123842432Y-151470061D01*
X123890051Y-151493870D01*
X124032908Y-151493870D01*
X124080527Y-151470061D01*
X124104336Y-151446251D01*
M02*
