M48
;DRILL file {KiCad 4.0.4-stable} date 01/03/17 20:17:44
;FORMAT={-:-/ absolute / metric / decimal}
FMAT,2
METRIC,TZ
T1C0.400
T2C0.600
T3C0.762
T4C1.001
T5C1.100
T6C1.200
T7C5.500
%
G90
G05
M71
T1
X46.394Y-210.168
X49.144Y-203.593
X49.619Y-214.968
X56.764Y-215.238
X68.944Y-216.728
X68.964Y-216.728
X69.934Y-212.048
X70.094Y-198.739
X70.294Y-211.078
X80.364Y-209.758
X80.814Y-205.318
X109.544Y-206.868
X110.111Y-68.354
X110.166Y-175.93
X110.786Y-112.554
X110.786Y-135.254
X111.236Y-91.154
X111.369Y-68.368
X111.411Y-157.154
X111.844Y-97.218
X112.044Y-74.018
X112.044Y-112.568
X112.044Y-135.268
X112.319Y-67.768
X112.494Y-91.168
X112.669Y-157.168
X112.994Y-111.968
X112.994Y-134.668
X113.369Y-67.318
X113.444Y-90.568
X113.619Y-156.568
X113.764Y-190.058
X114.044Y-111.518
X114.044Y-134.218
X114.269Y-66.768
X114.494Y-90.118
X114.669Y-156.118
X114.944Y-110.968
X114.944Y-133.668
X115.069Y-66.218
X115.394Y-89.568
X115.569Y-155.568
X115.744Y-110.418
X115.744Y-133.118
X115.894Y-65.618
X116.194Y-89.018
X116.369Y-155.018
X116.594Y-109.818
X116.594Y-132.518
X116.769Y-65.068
X116.794Y-131.218
X117.044Y-88.418
X117.194Y-154.418
X117.244Y-87.118
X117.644Y-109.418
X117.844Y-162.168
X117.844Y-184.318
X118.069Y-153.868
X118.834Y-109.218
X118.844Y-87.618
X119.024Y-131.838
X119.394Y-140.668
X119.724Y-196.437
X119.894Y-54.668
X120.314Y-176.638
X120.844Y-118.518
X121.894Y-151.418
X122.044Y-63.018
X122.121Y-197.886
X122.234Y-211.238
X122.824Y-140.268
X123.086Y-77.704
X123.494Y-171.368
X123.544Y-56.018
X123.594Y-67.29
X123.594Y-112.502
X123.624Y-155.208
X123.714Y-122.708
X123.854Y-145.178
X124.034Y-100.338
X124.544Y-217.368
X124.61Y-91.42
X125.981Y-191.43
X126.214Y-171.928
X126.514Y-133.748
X126.994Y-216.218
X127.044Y-57.518
X127.15Y-115.042
X127.404Y-89.134
X127.658Y-71.1
X127.874Y-158.028
X129.014Y-190.358
X129.064Y-184.868
X129.436Y-209.022
X130.494Y-58.718
X130.96Y-107.93
X131.354Y-130.928
X131.454Y-139.008
X131.468Y-85.832
X131.674Y-184.808
X131.724Y-160.828
X131.742Y-191.11
X133.246Y-82.53
X133.246Y-207.752
X133.344Y-60.218
X133.374Y-164.308
X133.954Y-146.118
X135.214Y-127.058
X135.278Y-105.39
X135.948Y-168.001
X137.444Y-61.268
X139.766Y-158.925
X140.2Y-94.595
X140.444Y-103.602
X140.894Y-62.218
X141.049Y-84.343
X141.6Y-127.968
X141.633Y-93.375
X141.744Y-181.868
X142.624Y-85.512
X143.391Y-116.845
X143.551Y-127.81
X144.107Y-148.59
X144.295Y-161.737
X144.544Y-140.768
X145.049Y-126.301
X145.595Y-162.786
X145.804Y-181.108
X146.044Y-124.668
X146.544Y-97.168
X146.544Y-136.668
X146.588Y-150.937
X147.084Y-114.518
X148.044Y-84.168
X148.194Y-58.618
X149.344Y-57.818
X149.344Y-191.518
X149.405Y-111.973
X151.544Y-56.918
X151.717Y-200.802
X152.844Y-110.119
X152.85Y-102.641
X153.071Y-87.5
X153.416Y-74.699
X153.469Y-177.678
X153.495Y-117.384
X153.627Y-130.332
X153.713Y-132.878
X153.718Y-148.641
X153.723Y-195.499
X153.927Y-142.057
X153.994Y-135.768
X154.003Y-209.26
X154.14Y-111.074
X154.379Y-101.534
X154.596Y-210.26
X154.701Y-154.937
X154.775Y-128.834
X154.785Y-115.727
X154.81Y-125.131
X154.844Y-181.018
X154.866Y-163.167
X154.91Y-77.064
X155.039Y-83.53
X155.057Y-90.538
X155.273Y-149.774
X155.374Y-140.513
X155.394Y-56.468
X155.444Y-204.418
X155.594Y-179.818
X155.603Y-109.611
X155.611Y-96.965
X155.887Y-103.281
X156.075Y-117.439
X156.101Y-123.419
X156.352Y-88.76
X156.37Y-75.438
X156.37Y-128.666
X156.385Y-85.156
X156.451Y-148.255
X156.644Y-142.331
X156.844Y-135.518
X157.284Y-98.232
X157.549Y-161.813
X157.589Y-155.819
X157.627Y-77.038
X157.701Y-130.404
X157.724Y-90.604
X157.767Y-83.226
X157.894Y-101.068
X158.094Y-150.418
X158.344Y-179.868
X158.394Y-115.918
X158.444Y-55.768
X158.783Y-96.845
X159.594Y-183.668
X159.594Y-188.518
X159.644Y-89.068
X159.794Y-206.685
X159.994Y-192.918
X160.307Y-176.947
X160.394Y-79.368
X160.754Y-221.016
X162.339Y-194.478
X163.294Y-55.268
X163.344Y-207.418
X165.434Y-188.538
X165.694Y-183.751
X166.063Y-89.794
X167.795Y-66.512
X168.294Y-207.268
X170.228Y-89.794
X170.644Y-202.668
X171.144Y-206.918
X171.712Y-218.948
X171.839Y-66.477
X173.51Y-206.35
X176.888Y-212.344
X178.356Y-60.533
X184.305Y-59.538
X186.439Y-210.251
X187.095Y-211.568
X190.503Y-207.874
X193.013Y-219.925
X193.119Y-207.018
X195.588Y-199.873
X196.494Y-207.093
X197.Y-79.38
X200.246Y-199.41
X200.924Y-187.908
X201.044Y-182.668
X201.323Y-179.949
X201.519Y-207.618
X201.734Y-61.238
X202.578Y-163.373
X203.046Y-220.001
X203.563Y-205.481
X204.163Y-70.267
X204.178Y-74.859
X204.544Y-204.48
X205.194Y-59.943
X205.844Y-207.081
X206.047Y-111.785
X206.047Y-114.859
X206.544Y-178.168
X206.616Y-145.07
X206.626Y-149.21
X206.652Y-187.843
X206.652Y-191.856
X206.672Y-105.049
X207.063Y-206.197
X207.744Y-213.268
X208.994Y-182.618
X209.329Y-190.586
X209.544Y-81.568
X210.055Y-130.703
X211.044Y-122.218
X211.544Y-196.168
X213.194Y-118.168
X213.266Y-176.246
X213.269Y-218.793
X213.719Y-222.443
X213.944Y-78.018
X214.013Y-79.593
X214.165Y-117.5
X214.194Y-136.518
X215.244Y-178.018
X215.294Y-72.768
X215.44Y-112.596
X215.669Y-151.059
X215.994Y-144.768
X216.644Y-124.668
X217.694Y-212.493
X218.044Y-149.668
X218.044Y-214.368
X218.869Y-120.165
X218.928Y-150.721
X218.935Y-68.773
X219.029Y-155.217
X219.04Y-80.
X219.296Y-144.752
X219.321Y-140.231
X219.469Y-73.01
X219.606Y-109.852
X219.956Y-71.018
X220.134Y-191.419
X220.244Y-124.368
X220.528Y-181.031
X220.541Y-152.131
X220.553Y-153.769
X220.894Y-74.018
X220.947Y-143.33
X220.96Y-141.641
X221.323Y-78.218
X222.444Y-150.868
X223.344Y-110.368
X223.544Y-120.068
X225.494Y-144.568
X225.981Y-115.085
X227.094Y-76.175
X227.145Y-147.546
T2
X45.052Y-226.233
X45.301Y-52.558
X46.25Y-223.306
X46.25Y-229.16
X46.499Y-49.631
X46.499Y-55.484
X49.177Y-222.108
X49.177Y-230.358
X49.426Y-48.433
X49.426Y-56.683
X52.104Y-223.306
X52.104Y-229.16
X52.353Y-49.631
X52.353Y-55.484
X53.302Y-226.233
X53.551Y-52.558
X216.069Y-54.318
X217.267Y-51.391
X217.267Y-57.244
X220.194Y-50.193
X220.194Y-58.443
X223.121Y-51.391
X223.121Y-57.244
X224.319Y-54.318
X232.174Y-226.223
X233.372Y-223.296
X233.372Y-229.149
X236.299Y-222.098
X236.299Y-230.348
X239.226Y-223.296
X239.226Y-229.149
X240.424Y-226.223
T3
X43.496Y-74.714
X43.496Y-77.254
X43.994Y-119.108
X43.994Y-121.648
X44.184Y-141.728
X44.184Y-144.268
X44.634Y-97.448
X44.634Y-99.988
X44.814Y-163.668
X44.814Y-166.208
X46.036Y-74.714
X46.036Y-77.254
X46.534Y-119.108
X46.534Y-121.648
X46.724Y-141.728
X46.724Y-144.268
X47.174Y-97.448
X47.174Y-99.988
X47.354Y-163.668
X47.354Y-166.208
X48.576Y-74.714
X48.576Y-77.254
X49.074Y-119.108
X49.074Y-121.648
X49.264Y-141.728
X49.264Y-144.268
X49.714Y-97.448
X49.714Y-99.988
X49.894Y-163.668
X49.894Y-166.208
X51.116Y-74.714
X51.116Y-77.254
X51.614Y-119.108
X51.614Y-121.648
X51.804Y-141.728
X51.804Y-144.268
X52.254Y-97.448
X52.254Y-99.988
X52.434Y-163.668
X52.434Y-166.208
X53.656Y-74.714
X53.656Y-77.254
X54.154Y-119.108
X54.154Y-121.648
X54.344Y-141.728
X54.344Y-144.268
X54.794Y-97.448
X54.794Y-99.988
X54.974Y-163.668
X54.974Y-166.208
X56.196Y-74.714
X56.196Y-77.254
X56.694Y-119.108
X56.694Y-121.648
X56.884Y-141.728
X56.884Y-144.268
X57.334Y-97.448
X57.334Y-99.988
X57.514Y-163.668
X57.514Y-166.208
X58.736Y-74.714
X58.736Y-77.254
X59.234Y-119.108
X59.234Y-121.648
X59.424Y-141.728
X59.424Y-144.268
X59.874Y-97.448
X59.874Y-99.988
X60.054Y-163.668
X60.054Y-166.208
X61.276Y-74.714
X61.276Y-77.254
X61.774Y-119.108
X61.774Y-121.648
X61.964Y-141.728
X61.964Y-144.268
X62.414Y-97.448
X62.414Y-99.988
X62.594Y-163.668
X62.594Y-166.208
X63.816Y-74.714
X63.816Y-77.254
X64.314Y-119.108
X64.314Y-121.648
X64.504Y-141.728
X64.504Y-144.268
X64.954Y-97.448
X64.954Y-99.988
X65.134Y-163.668
X65.134Y-166.208
X66.356Y-74.714
X66.356Y-77.254
X66.854Y-119.108
X66.854Y-121.648
X67.044Y-141.728
X67.044Y-144.268
X67.494Y-97.448
X67.494Y-99.988
X67.674Y-163.668
X67.674Y-166.208
X68.896Y-74.714
X68.896Y-77.254
X69.394Y-119.108
X69.394Y-121.648
X69.584Y-141.728
X69.584Y-144.268
X70.034Y-97.448
X70.034Y-99.988
X70.214Y-163.668
X70.214Y-166.208
X71.436Y-74.714
X71.436Y-77.254
X71.934Y-119.108
X71.934Y-121.648
X72.124Y-141.728
X72.124Y-144.268
X72.574Y-97.448
X72.574Y-99.988
X72.754Y-163.668
X72.754Y-166.208
X73.976Y-74.714
X73.976Y-77.254
X74.474Y-119.108
X74.474Y-121.648
X74.664Y-141.728
X74.664Y-144.268
X75.114Y-97.448
X75.114Y-99.988
X75.294Y-163.668
X75.294Y-166.208
X76.516Y-74.714
X76.516Y-77.254
X77.014Y-119.108
X77.014Y-121.648
X77.204Y-141.728
X77.204Y-144.268
X77.654Y-97.448
X77.654Y-99.988
X77.834Y-163.668
X77.834Y-166.208
X79.056Y-74.714
X79.056Y-77.254
X79.554Y-119.108
X79.554Y-121.648
X79.744Y-141.728
X79.744Y-144.268
X80.194Y-97.448
X80.194Y-99.988
X80.374Y-163.668
X80.374Y-166.208
X81.596Y-74.714
X81.596Y-77.254
X82.094Y-119.108
X82.094Y-121.648
X82.284Y-141.728
X82.284Y-144.268
X82.734Y-97.448
X82.734Y-99.988
X82.914Y-163.668
X82.914Y-166.208
X84.136Y-74.714
X84.136Y-77.254
X84.634Y-119.108
X84.634Y-121.648
X84.824Y-141.728
X84.824Y-144.268
X85.274Y-97.448
X85.274Y-99.988
X85.454Y-163.668
X85.454Y-166.208
X86.676Y-74.714
X86.676Y-77.254
X87.174Y-119.108
X87.174Y-121.648
X87.364Y-141.728
X87.364Y-144.268
X87.814Y-97.448
X87.814Y-99.988
X87.994Y-163.668
X87.994Y-166.208
X89.216Y-74.714
X89.216Y-77.254
X89.714Y-119.108
X89.714Y-121.648
X89.904Y-141.728
X89.904Y-144.268
X90.354Y-97.448
X90.354Y-99.988
X90.534Y-163.668
X90.534Y-166.208
X91.756Y-74.714
X91.756Y-77.254
X92.254Y-119.108
X92.254Y-121.648
X92.444Y-141.728
X92.444Y-144.268
X92.894Y-97.448
X92.894Y-99.988
X93.074Y-163.668
X93.074Y-166.208
X94.296Y-74.714
X94.296Y-77.254
X94.794Y-119.108
X94.794Y-121.648
X94.984Y-141.728
X94.984Y-144.268
X95.434Y-97.448
X95.434Y-99.988
X95.614Y-163.668
X95.614Y-166.208
X96.836Y-74.714
X96.836Y-77.254
X97.334Y-119.108
X97.334Y-121.648
X97.524Y-141.728
X97.524Y-144.268
X97.974Y-97.448
X97.974Y-99.988
X98.154Y-163.668
X98.154Y-166.208
X99.376Y-74.714
X99.376Y-77.254
X99.874Y-119.108
X99.874Y-121.648
X100.064Y-141.728
X100.064Y-144.268
X100.514Y-97.448
X100.514Y-99.988
X100.694Y-163.668
X100.694Y-166.208
X101.916Y-74.714
X101.916Y-77.254
X102.414Y-119.108
X102.414Y-121.648
X102.604Y-141.728
X102.604Y-144.268
X103.054Y-97.448
X103.054Y-99.988
X103.234Y-163.668
X103.234Y-166.208
X104.456Y-74.714
X104.456Y-77.254
X104.954Y-119.108
X104.954Y-121.648
X105.144Y-141.728
X105.144Y-144.268
X105.594Y-97.448
X105.594Y-99.988
X105.774Y-163.668
X105.774Y-166.208
T4
X238.554Y-212.349
X238.554Y-216.159
T5
X76.784Y-187.358
X76.784Y-189.358
X78.784Y-187.358
X78.784Y-189.358
X80.784Y-187.358
X80.784Y-189.358
X82.784Y-187.358
X82.784Y-189.358
X84.784Y-187.358
X84.784Y-189.358
X86.784Y-187.358
X86.784Y-189.358
X87.114Y-211.118
X87.114Y-213.118
X88.784Y-187.358
X88.784Y-189.358
X89.114Y-211.118
X89.114Y-213.118
X90.784Y-187.358
X90.784Y-189.358
X91.114Y-211.118
X91.114Y-213.118
X93.114Y-211.118
X93.114Y-213.118
X95.114Y-211.118
X95.114Y-213.118
X97.114Y-211.118
X97.114Y-213.118
X99.114Y-211.118
X99.114Y-213.118
X101.114Y-211.118
X101.114Y-213.118
X170.393Y-143.043
X170.393Y-145.583
X170.393Y-148.123
X170.393Y-150.663
X170.393Y-153.203
X170.393Y-155.743
X170.393Y-158.283
X170.393Y-160.823
X170.393Y-163.363
X170.393Y-165.903
X170.393Y-168.443
X170.393Y-170.983
X170.393Y-173.523
X170.393Y-176.063
X170.393Y-178.603
X170.393Y-181.143
X170.393Y-183.683
X170.393Y-186.223
X170.393Y-188.763
X170.393Y-191.303
X170.393Y-193.843
X170.393Y-196.383
X170.393Y-198.923
X172.428Y-69.54
X172.428Y-72.08
X172.428Y-74.62
X172.428Y-77.16
X172.428Y-79.7
X172.428Y-82.24
X172.428Y-84.78
X172.428Y-87.32
X172.428Y-89.86
X172.428Y-92.4
X172.428Y-94.94
X172.428Y-97.48
X172.428Y-100.02
X172.428Y-102.56
X172.428Y-105.1
X172.428Y-107.64
X172.428Y-110.18
X172.428Y-112.72
X172.428Y-115.26
X172.428Y-117.8
X172.428Y-120.34
X172.428Y-122.88
X172.428Y-125.42
X172.933Y-143.043
X172.933Y-145.583
X172.933Y-148.123
X172.933Y-150.663
X172.933Y-153.203
X172.933Y-155.743
X172.933Y-158.283
X172.933Y-160.823
X172.933Y-163.363
X172.933Y-165.903
X172.933Y-168.443
X172.933Y-170.983
X172.933Y-173.523
X172.933Y-176.063
X172.933Y-178.603
X172.933Y-181.143
X172.933Y-183.683
X172.933Y-186.223
X172.933Y-188.763
X172.933Y-191.303
X172.933Y-193.843
X172.933Y-196.383
X172.933Y-198.923
X174.968Y-69.54
X174.968Y-72.08
X174.968Y-74.62
X174.968Y-77.16
X174.968Y-79.7
X174.968Y-82.24
X174.968Y-84.78
X174.968Y-87.32
X174.968Y-89.86
X174.968Y-92.4
X174.968Y-94.94
X174.968Y-97.48
X174.968Y-100.02
X174.968Y-102.56
X174.968Y-105.1
X174.968Y-107.64
X174.968Y-110.18
X174.968Y-112.72
X174.968Y-115.26
X174.968Y-117.8
X174.968Y-120.34
X174.968Y-122.88
X174.968Y-125.42
X180.464Y-143.043
X180.464Y-145.583
X180.464Y-148.123
X180.464Y-150.663
X180.464Y-153.203
X180.464Y-155.743
X180.464Y-158.283
X180.464Y-160.823
X180.464Y-163.363
X180.464Y-165.903
X180.464Y-168.443
X180.464Y-170.983
X180.464Y-173.523
X180.464Y-176.063
X180.464Y-178.603
X180.464Y-181.143
X180.464Y-183.683
X180.464Y-186.223
X180.464Y-188.763
X180.464Y-191.303
X180.464Y-193.843
X180.464Y-196.383
X180.464Y-198.923
X182.237Y-69.576
X182.237Y-72.116
X182.237Y-74.656
X182.237Y-77.196
X182.237Y-79.736
X182.237Y-82.276
X182.237Y-84.816
X182.237Y-87.356
X182.237Y-89.896
X182.237Y-92.436
X182.237Y-94.976
X182.237Y-97.516
X182.237Y-100.056
X182.237Y-102.596
X182.237Y-105.136
X182.237Y-107.676
X182.237Y-110.216
X182.237Y-112.756
X182.237Y-115.296
X182.237Y-117.836
X182.237Y-120.376
X182.237Y-122.916
X182.237Y-125.456
X183.004Y-143.043
X183.004Y-145.583
X183.004Y-148.123
X183.004Y-150.663
X183.004Y-153.203
X183.004Y-155.743
X183.004Y-158.283
X183.004Y-160.823
X183.004Y-163.363
X183.004Y-165.903
X183.004Y-168.443
X183.004Y-170.983
X183.004Y-173.523
X183.004Y-176.063
X183.004Y-178.603
X183.004Y-181.143
X183.004Y-183.683
X183.004Y-186.223
X183.004Y-188.763
X183.004Y-191.303
X183.004Y-193.843
X183.004Y-196.383
X183.004Y-198.923
X184.777Y-69.576
X184.777Y-72.116
X184.777Y-74.656
X184.777Y-77.196
X184.777Y-79.736
X184.777Y-82.276
X184.777Y-84.816
X184.777Y-87.356
X184.777Y-89.896
X184.777Y-92.436
X184.777Y-94.976
X184.777Y-97.516
X184.777Y-100.056
X184.777Y-102.596
X184.777Y-105.136
X184.777Y-107.676
X184.777Y-110.216
X184.777Y-112.756
X184.777Y-115.296
X184.777Y-117.836
X184.777Y-120.376
X184.777Y-122.916
X184.777Y-125.456
X191.107Y-143.106
X191.107Y-145.646
X191.107Y-148.186
X191.107Y-150.726
X191.107Y-153.266
X191.107Y-155.806
X191.107Y-158.346
X191.107Y-160.886
X191.107Y-163.426
X191.107Y-165.966
X191.107Y-168.506
X191.107Y-171.046
X191.107Y-173.586
X191.107Y-176.126
X191.107Y-178.666
X191.107Y-181.206
X191.107Y-183.746
X191.107Y-186.286
X191.107Y-188.826
X191.107Y-191.366
X191.107Y-193.906
X191.107Y-196.446
X191.107Y-198.986
X191.798Y-69.571
X191.798Y-72.111
X191.798Y-74.651
X191.798Y-77.191
X191.798Y-79.731
X191.798Y-82.271
X191.798Y-84.811
X191.798Y-87.351
X191.798Y-89.891
X191.798Y-92.431
X191.798Y-94.971
X191.798Y-97.511
X191.798Y-100.051
X191.798Y-102.591
X191.798Y-105.131
X191.798Y-107.671
X191.798Y-110.211
X191.798Y-112.751
X191.798Y-115.291
X191.798Y-117.831
X191.798Y-120.371
X191.798Y-122.911
X191.798Y-125.451
X193.647Y-143.106
X193.647Y-145.646
X193.647Y-148.186
X193.647Y-150.726
X193.647Y-153.266
X193.647Y-155.806
X193.647Y-158.346
X193.647Y-160.886
X193.647Y-163.426
X193.647Y-165.966
X193.647Y-168.506
X193.647Y-171.046
X193.647Y-173.586
X193.647Y-176.126
X193.647Y-178.666
X193.647Y-181.206
X193.647Y-183.746
X193.647Y-186.286
X193.647Y-188.826
X193.647Y-191.366
X193.647Y-193.906
X193.647Y-196.446
X193.647Y-198.986
X194.338Y-69.571
X194.338Y-72.111
X194.338Y-74.651
X194.338Y-77.191
X194.338Y-79.731
X194.338Y-82.271
X194.338Y-84.811
X194.338Y-87.351
X194.338Y-89.891
X194.338Y-92.431
X194.338Y-94.971
X194.338Y-97.511
X194.338Y-100.051
X194.338Y-102.591
X194.338Y-105.131
X194.338Y-107.671
X194.338Y-110.211
X194.338Y-112.751
X194.338Y-115.291
X194.338Y-117.831
X194.338Y-120.371
X194.338Y-122.911
X194.338Y-125.451
X221.247Y-162.687
X221.247Y-165.227
X221.247Y-167.767
X221.247Y-170.307
X221.247Y-172.847
X221.247Y-175.387
T6
X75.588Y-228.326
X79.088Y-228.326
X82.588Y-228.326
X86.088Y-228.326
X89.588Y-228.326
X93.088Y-228.326
X96.588Y-228.326
X100.088Y-228.326
X103.588Y-228.326
X107.088Y-228.326
X110.588Y-228.326
X114.088Y-228.326
X117.588Y-228.326
X119.994Y-49.268
X121.088Y-228.326
X123.494Y-49.268
X124.588Y-228.326
X126.994Y-49.268
X128.088Y-228.326
X130.494Y-49.268
X131.588Y-228.326
X133.994Y-49.268
X135.088Y-228.326
X137.494Y-49.268
X138.588Y-228.326
X140.994Y-49.268
X142.088Y-228.326
X144.494Y-49.268
X147.994Y-49.268
X151.494Y-49.268
X152.618Y-228.961
X154.994Y-49.268
X156.118Y-228.961
X158.494Y-49.268
X159.618Y-228.961
X161.994Y-49.268
X163.118Y-228.961
X165.494Y-49.268
X166.618Y-228.961
X168.994Y-49.268
X170.118Y-228.961
X172.494Y-49.268
X173.618Y-228.961
X177.118Y-228.961
X180.455Y-49.51
X180.618Y-228.961
X183.955Y-49.51
X184.118Y-228.961
X187.455Y-49.51
X187.618Y-228.961
X190.955Y-49.51
X191.118Y-228.961
X194.618Y-228.961
X198.118Y-228.961
X199.505Y-49.256
X201.618Y-228.961
X203.005Y-49.256
X205.118Y-228.961
X206.505Y-49.256
X210.005Y-49.256
X211.173Y-228.021
X214.673Y-228.021
X220.876Y-227.97
X224.376Y-227.97
X235.963Y-62.57
X235.963Y-66.07
X236.014Y-46.782
X236.014Y-50.282
X236.014Y-53.782
X236.014Y-57.282
X236.014Y-71.268
X236.014Y-74.768
X236.014Y-78.268
X236.014Y-81.768
X236.014Y-162.291
X236.014Y-165.791
X236.014Y-187.386
X236.014Y-190.886
X236.014Y-196.337
X236.014Y-199.837
X236.014Y-203.337
X236.014Y-206.837
X236.065Y-87.107
X236.065Y-90.607
X236.116Y-95.804
X236.116Y-99.304
X236.116Y-102.804
X236.116Y-106.304
X236.116Y-171.242
X236.116Y-174.742
X236.116Y-178.242
X236.116Y-181.742
X236.167Y-111.796
X236.167Y-115.296
X236.167Y-120.95
X236.167Y-124.45
X236.167Y-127.95
X236.167Y-131.45
X236.167Y-146.147
X236.167Y-149.647
X236.167Y-153.147
X236.167Y-156.647
X236.319Y-137.145
X236.319Y-140.645
T7
X49.177Y-226.233
X49.426Y-52.558
X220.194Y-54.318
X236.299Y-226.223
T0
M30
