G04 #@! TF.FileFunction,Soldermask,Top*
%FSLAX46Y46*%
G04 Gerber Fmt 4.6, Leading zero omitted, Abs format (unit mm)*
G04 Created by KiCad (PCBNEW 4.0.4-stable) date 01/03/17 20:17:35*
%MOMM*%
%LPD*%
G01*
G04 APERTURE LIST*
%ADD10C,0.100000*%
%ADD11O,0.750000X0.300000*%
%ADD12O,0.300000X0.750000*%
%ADD13R,0.900000X0.900000*%
%ADD14R,0.900000X1.200000*%
%ADD15R,0.600000X2.000000*%
%ADD16C,1.524000*%
%ADD17R,0.750000X1.200000*%
%ADD18R,1.200000X0.750000*%
%ADD19R,1.200000X0.900000*%
%ADD20R,1.550000X0.600000*%
%ADD21R,1.501140X0.398780*%
%ADD22R,1.500000X0.600000*%
%ADD23R,0.398780X1.501140*%
%ADD24R,0.600000X1.500000*%
%ADD25R,1.560000X0.650000*%
%ADD26R,0.650000X1.560000*%
%ADD27C,11.000000*%
%ADD28C,0.700000*%
%ADD29R,2.499360X2.499360*%
%ADD30C,2.499360*%
%ADD31R,2.200000X1.200000*%
%ADD32R,2.200000X3.500000*%
%ADD33R,1.200000X2.200000*%
%ADD34R,3.500000X2.200000*%
%ADD35C,1.700000*%
%ADD36C,1.800000*%
G04 APERTURE END LIST*
D10*
D11*
X214680460Y-114158860D03*
X214680460Y-114658860D03*
X214680460Y-115158860D03*
X214680460Y-115658860D03*
D12*
X215405460Y-116383860D03*
X215905460Y-116383860D03*
X216405460Y-116383860D03*
X216905460Y-116383860D03*
D11*
X217630460Y-115658860D03*
X217630460Y-115158860D03*
X217630460Y-114658860D03*
X217630460Y-114158860D03*
D12*
X216905460Y-113433860D03*
X216405460Y-113433860D03*
X215905460Y-113433860D03*
X215405460Y-113433860D03*
D13*
X216605460Y-115358860D03*
X216605460Y-114458860D03*
X215705460Y-115358860D03*
X215705460Y-114458860D03*
D14*
X121353860Y-87767680D03*
X121353860Y-89967680D03*
D15*
X110718860Y-103097680D03*
X111988860Y-103097680D03*
X113258860Y-103097680D03*
X114528860Y-103097680D03*
X115798860Y-103097680D03*
X117068860Y-103097680D03*
X118338860Y-103097680D03*
X119608860Y-103097680D03*
X120878860Y-103097680D03*
X122148860Y-103097680D03*
X123418860Y-103097680D03*
X124688860Y-103097680D03*
X124688860Y-93697680D03*
X123418860Y-93697680D03*
X122148860Y-93697680D03*
X120878860Y-93697680D03*
X119608860Y-93697680D03*
X118338860Y-93697680D03*
X117068860Y-93697680D03*
X115798860Y-93697680D03*
X114528860Y-93697680D03*
X113258860Y-93697680D03*
X111988860Y-93697680D03*
X110718860Y-93697680D03*
D16*
X44633860Y-99987680D03*
X44633860Y-97447680D03*
X47173860Y-99987680D03*
X47173860Y-97447680D03*
X49713860Y-99987680D03*
X49713860Y-97447680D03*
X52253860Y-99987680D03*
X52253860Y-97447680D03*
X54793860Y-99987680D03*
X54793860Y-97447680D03*
X57333860Y-99987680D03*
X57333860Y-97447680D03*
X59873860Y-99987680D03*
X59873860Y-97447680D03*
X62413860Y-99987680D03*
X62413860Y-97447680D03*
X64953860Y-99987680D03*
X64953860Y-97447680D03*
X67493860Y-99987680D03*
X67493860Y-97447680D03*
X70033860Y-99987680D03*
X70033860Y-97447680D03*
X72573860Y-99987680D03*
X72573860Y-97447680D03*
X75113860Y-99987680D03*
X75113860Y-97447680D03*
X77653860Y-99987680D03*
X77653860Y-97447680D03*
X80193860Y-99987680D03*
X80193860Y-97447680D03*
X82733860Y-99987680D03*
X82733860Y-97447680D03*
X85273860Y-99987680D03*
X85273860Y-97447680D03*
X87813860Y-99987680D03*
X87813860Y-97447680D03*
X90353860Y-99987680D03*
X90353860Y-97447680D03*
X92893860Y-99987680D03*
X92893860Y-97447680D03*
X95433860Y-99987680D03*
X95433860Y-97447680D03*
X97973860Y-99987680D03*
X97973860Y-97447680D03*
X100513860Y-99987680D03*
X100513860Y-97447680D03*
X103053860Y-99987680D03*
X103053860Y-97447680D03*
X105593860Y-99987680D03*
X105593860Y-97447680D03*
X43495860Y-77253680D03*
X43495860Y-74713680D03*
X46035860Y-77253680D03*
X46035860Y-74713680D03*
X48575860Y-77253680D03*
X48575860Y-74713680D03*
X51115860Y-77253680D03*
X51115860Y-74713680D03*
X53655860Y-77253680D03*
X53655860Y-74713680D03*
X56195860Y-77253680D03*
X56195860Y-74713680D03*
X58735860Y-77253680D03*
X58735860Y-74713680D03*
X61275860Y-77253680D03*
X61275860Y-74713680D03*
X63815860Y-77253680D03*
X63815860Y-74713680D03*
X66355860Y-77253680D03*
X66355860Y-74713680D03*
X68895860Y-77253680D03*
X68895860Y-74713680D03*
X71435860Y-77253680D03*
X71435860Y-74713680D03*
X73975860Y-77253680D03*
X73975860Y-74713680D03*
X76515860Y-77253680D03*
X76515860Y-74713680D03*
X79055860Y-77253680D03*
X79055860Y-74713680D03*
X81595860Y-77253680D03*
X81595860Y-74713680D03*
X84135860Y-77253680D03*
X84135860Y-74713680D03*
X86675860Y-77253680D03*
X86675860Y-74713680D03*
X89215860Y-77253680D03*
X89215860Y-74713680D03*
X91755860Y-77253680D03*
X91755860Y-74713680D03*
X94295860Y-77253680D03*
X94295860Y-74713680D03*
X96835860Y-77253680D03*
X96835860Y-74713680D03*
X99375860Y-77253680D03*
X99375860Y-74713680D03*
X101915860Y-77253680D03*
X101915860Y-74713680D03*
X104455860Y-77253680D03*
X104455860Y-74713680D03*
D15*
X109580860Y-80363680D03*
X110850860Y-80363680D03*
X112120860Y-80363680D03*
X113390860Y-80363680D03*
X114660860Y-80363680D03*
X115930860Y-80363680D03*
X117200860Y-80363680D03*
X118470860Y-80363680D03*
X119740860Y-80363680D03*
X121010860Y-80363680D03*
X122280860Y-80363680D03*
X123550860Y-80363680D03*
X123550860Y-70963680D03*
X122280860Y-70963680D03*
X121010860Y-70963680D03*
X119740860Y-70963680D03*
X118470860Y-70963680D03*
X117200860Y-70963680D03*
X115930860Y-70963680D03*
X114660860Y-70963680D03*
X113390860Y-70963680D03*
X112120860Y-70963680D03*
X110850860Y-70963680D03*
X109580860Y-70963680D03*
D14*
X122143860Y-64617680D03*
X122143860Y-66817680D03*
X120713860Y-109427680D03*
X120713860Y-111627680D03*
D15*
X110078860Y-124757680D03*
X111348860Y-124757680D03*
X112618860Y-124757680D03*
X113888860Y-124757680D03*
X115158860Y-124757680D03*
X116428860Y-124757680D03*
X117698860Y-124757680D03*
X118968860Y-124757680D03*
X120238860Y-124757680D03*
X121508860Y-124757680D03*
X122778860Y-124757680D03*
X124048860Y-124757680D03*
X124048860Y-115357680D03*
X122778860Y-115357680D03*
X121508860Y-115357680D03*
X120238860Y-115357680D03*
X118968860Y-115357680D03*
X117698860Y-115357680D03*
X116428860Y-115357680D03*
X115158860Y-115357680D03*
X113888860Y-115357680D03*
X112618860Y-115357680D03*
X111348860Y-115357680D03*
X110078860Y-115357680D03*
D16*
X43993860Y-121647680D03*
X43993860Y-119107680D03*
X46533860Y-121647680D03*
X46533860Y-119107680D03*
X49073860Y-121647680D03*
X49073860Y-119107680D03*
X51613860Y-121647680D03*
X51613860Y-119107680D03*
X54153860Y-121647680D03*
X54153860Y-119107680D03*
X56693860Y-121647680D03*
X56693860Y-119107680D03*
X59233860Y-121647680D03*
X59233860Y-119107680D03*
X61773860Y-121647680D03*
X61773860Y-119107680D03*
X64313860Y-121647680D03*
X64313860Y-119107680D03*
X66853860Y-121647680D03*
X66853860Y-119107680D03*
X69393860Y-121647680D03*
X69393860Y-119107680D03*
X71933860Y-121647680D03*
X71933860Y-119107680D03*
X74473860Y-121647680D03*
X74473860Y-119107680D03*
X77013860Y-121647680D03*
X77013860Y-119107680D03*
X79553860Y-121647680D03*
X79553860Y-119107680D03*
X82093860Y-121647680D03*
X82093860Y-119107680D03*
X84633860Y-121647680D03*
X84633860Y-119107680D03*
X87173860Y-121647680D03*
X87173860Y-119107680D03*
X89713860Y-121647680D03*
X89713860Y-119107680D03*
X92253860Y-121647680D03*
X92253860Y-119107680D03*
X94793860Y-121647680D03*
X94793860Y-119107680D03*
X97333860Y-121647680D03*
X97333860Y-119107680D03*
X99873860Y-121647680D03*
X99873860Y-119107680D03*
X102413860Y-121647680D03*
X102413860Y-119107680D03*
X104953860Y-121647680D03*
X104953860Y-119107680D03*
X44183860Y-144267680D03*
X44183860Y-141727680D03*
X46723860Y-144267680D03*
X46723860Y-141727680D03*
X49263860Y-144267680D03*
X49263860Y-141727680D03*
X51803860Y-144267680D03*
X51803860Y-141727680D03*
X54343860Y-144267680D03*
X54343860Y-141727680D03*
X56883860Y-144267680D03*
X56883860Y-141727680D03*
X59423860Y-144267680D03*
X59423860Y-141727680D03*
X61963860Y-144267680D03*
X61963860Y-141727680D03*
X64503860Y-144267680D03*
X64503860Y-141727680D03*
X67043860Y-144267680D03*
X67043860Y-141727680D03*
X69583860Y-144267680D03*
X69583860Y-141727680D03*
X72123860Y-144267680D03*
X72123860Y-141727680D03*
X74663860Y-144267680D03*
X74663860Y-141727680D03*
X77203860Y-144267680D03*
X77203860Y-141727680D03*
X79743860Y-144267680D03*
X79743860Y-141727680D03*
X82283860Y-144267680D03*
X82283860Y-141727680D03*
X84823860Y-144267680D03*
X84823860Y-141727680D03*
X87363860Y-144267680D03*
X87363860Y-141727680D03*
X89903860Y-144267680D03*
X89903860Y-141727680D03*
X92443860Y-144267680D03*
X92443860Y-141727680D03*
X94983860Y-144267680D03*
X94983860Y-141727680D03*
X97523860Y-144267680D03*
X97523860Y-141727680D03*
X100063860Y-144267680D03*
X100063860Y-141727680D03*
X102603860Y-144267680D03*
X102603860Y-141727680D03*
X105143860Y-144267680D03*
X105143860Y-141727680D03*
D15*
X110268860Y-147377680D03*
X111538860Y-147377680D03*
X112808860Y-147377680D03*
X114078860Y-147377680D03*
X115348860Y-147377680D03*
X116618860Y-147377680D03*
X117888860Y-147377680D03*
X119158860Y-147377680D03*
X120428860Y-147377680D03*
X121698860Y-147377680D03*
X122968860Y-147377680D03*
X124238860Y-147377680D03*
X124238860Y-137977680D03*
X122968860Y-137977680D03*
X121698860Y-137977680D03*
X120428860Y-137977680D03*
X119158860Y-137977680D03*
X117888860Y-137977680D03*
X116618860Y-137977680D03*
X115348860Y-137977680D03*
X114078860Y-137977680D03*
X112808860Y-137977680D03*
X111538860Y-137977680D03*
X110268860Y-137977680D03*
D14*
X120903860Y-132047680D03*
X120903860Y-134247680D03*
D17*
X154729180Y-117383520D03*
X154729180Y-119283520D03*
X156316680Y-90548420D03*
X156316680Y-92448420D03*
X154810460Y-123489760D03*
X154810460Y-121589760D03*
X143611600Y-126301540D03*
X143611600Y-124401540D03*
X157231080Y-96796900D03*
X157231080Y-94896900D03*
D18*
X141643060Y-94762320D03*
X143543060Y-94762320D03*
D17*
X155856940Y-155905160D03*
X155856940Y-157805160D03*
X155856940Y-161780260D03*
X155856940Y-159880260D03*
D18*
X144233940Y-163065460D03*
X142333940Y-163065460D03*
D17*
X155224480Y-142303460D03*
X155224480Y-144203460D03*
X155199080Y-148305560D03*
X155199080Y-146405560D03*
X156319220Y-77053400D03*
X156319220Y-78953400D03*
D18*
X144922280Y-150086060D03*
X143022280Y-150086060D03*
D17*
X154343100Y-103337320D03*
X154343100Y-105237320D03*
X154876500Y-130383240D03*
X154876500Y-132283240D03*
X156385260Y-83357760D03*
X156385260Y-81457760D03*
D18*
X142590480Y-84279740D03*
X144490480Y-84279740D03*
D17*
X154266900Y-109524840D03*
X154266900Y-107624840D03*
X156461460Y-130383240D03*
X156461460Y-132283240D03*
D18*
X147231140Y-110937040D03*
X145331140Y-110937040D03*
D17*
X144264380Y-137358160D03*
X144264380Y-135458160D03*
D18*
X215825486Y-121102594D03*
X217725486Y-121102594D03*
X216649260Y-109141260D03*
X218549260Y-109141260D03*
X215825486Y-119426194D03*
X217725486Y-119426194D03*
X218549260Y-110690660D03*
X216649260Y-110690660D03*
X217075980Y-153680160D03*
X218975980Y-153680160D03*
X217418880Y-141691360D03*
X219318880Y-141691360D03*
X217075980Y-152067260D03*
X218975980Y-152067260D03*
X219306180Y-143367760D03*
X217406180Y-143367760D03*
X217125195Y-80762137D03*
X219025195Y-80762137D03*
X216974380Y-71729600D03*
X218874380Y-71729600D03*
X217074395Y-79136537D03*
X218974395Y-79136537D03*
X218874380Y-70154800D03*
X216974380Y-70154800D03*
D19*
X150833000Y-117157500D03*
X148633000Y-117157500D03*
D14*
X142313660Y-120393640D03*
X142313660Y-118193640D03*
D19*
X151615320Y-89217500D03*
X149415320Y-89217500D03*
D14*
X139753860Y-121947680D03*
X139753860Y-124147680D03*
D19*
X149288320Y-87485220D03*
X151488320Y-87485220D03*
D14*
X141610080Y-126370260D03*
X141610080Y-124170260D03*
X142212060Y-89517400D03*
X142212060Y-87317400D03*
D19*
X141508300Y-96514920D03*
X143708300Y-96514920D03*
X150683140Y-153845260D03*
X148483140Y-153845260D03*
D14*
X119612180Y-198209820D03*
X119612180Y-200409820D03*
D19*
X143698140Y-158442660D03*
X141498140Y-158442660D03*
X142821840Y-161008060D03*
X140621840Y-161008060D03*
X144371240Y-164843460D03*
X142171240Y-164843460D03*
X131297860Y-212069680D03*
X129097860Y-212069680D03*
X135361860Y-205719680D03*
X133161860Y-205719680D03*
X150672980Y-140141960D03*
X148472980Y-140141960D03*
D14*
X143070580Y-143413660D03*
X143070580Y-141213660D03*
D19*
X145084980Y-151841200D03*
X142884980Y-151841200D03*
X151823600Y-76558140D03*
X149623600Y-76558140D03*
X143154580Y-146075400D03*
X140954580Y-146075400D03*
X150058300Y-101244400D03*
X147858300Y-101244400D03*
X150383420Y-128717040D03*
X148183420Y-128717040D03*
X149679480Y-74703940D03*
X151879480Y-74703940D03*
X143606700Y-105384600D03*
X141406700Y-105384600D03*
D14*
X142918180Y-132753280D03*
X142918180Y-130553280D03*
D19*
X142529380Y-82501740D03*
X144729380Y-82501740D03*
D14*
X143476980Y-76263680D03*
X143476980Y-74063680D03*
D19*
X147294780Y-112740440D03*
X145094780Y-112740440D03*
D14*
X142445740Y-137599600D03*
X142445740Y-135399600D03*
D19*
X142021740Y-107340400D03*
X139821740Y-107340400D03*
D14*
X140203860Y-134777680D03*
X140203860Y-136977680D03*
X109503860Y-177387680D03*
X109503860Y-179587680D03*
X121693860Y-152767680D03*
X121693860Y-154967680D03*
D19*
X135316140Y-185237120D03*
X133116140Y-185237120D03*
X209844460Y-110538260D03*
X212044460Y-110538260D03*
D14*
X210080860Y-120071060D03*
X210080860Y-117871060D03*
D19*
X209938620Y-113261140D03*
X207738620Y-113261140D03*
X209913220Y-114937540D03*
X207713220Y-114937540D03*
D14*
X211757260Y-117871060D03*
X211757260Y-120071060D03*
D19*
X224482660Y-115897660D03*
X222282660Y-115897660D03*
X224490460Y-114221260D03*
X222290460Y-114221260D03*
D14*
X211406740Y-142811320D03*
X211406740Y-145011320D03*
X211335620Y-154592200D03*
X211335620Y-152392200D03*
D19*
X211188480Y-147419060D03*
X208988480Y-147419060D03*
X211201180Y-149235160D03*
X209001180Y-149235160D03*
D14*
X213085680Y-152389660D03*
X213085680Y-154589660D03*
D19*
X225158480Y-148511260D03*
X222958480Y-148511260D03*
X225183880Y-146695160D03*
X222983880Y-146695160D03*
X209610780Y-70510400D03*
X211810780Y-70510400D03*
D14*
X210253580Y-79543000D03*
X210253580Y-77343000D03*
D19*
X209875300Y-73009760D03*
X207675300Y-73009760D03*
X209824500Y-74736960D03*
X207624500Y-74736960D03*
D14*
X212031580Y-77386000D03*
X212031580Y-79586000D03*
D19*
X225780780Y-76962000D03*
X223580780Y-76962000D03*
X225813980Y-75285600D03*
X223613980Y-75285600D03*
X158056760Y-189974220D03*
X155856760Y-189974220D03*
X157917060Y-187523120D03*
X155717060Y-187523120D03*
X158018660Y-184983120D03*
X155818660Y-184983120D03*
X157853560Y-182468520D03*
X155653560Y-182468520D03*
D14*
X169581830Y-208474130D03*
X169581830Y-210674130D03*
X167206930Y-208550330D03*
X167206930Y-210750330D03*
X164895530Y-208550330D03*
X164895530Y-210750330D03*
X162152330Y-208550330D03*
X162152330Y-210750330D03*
D19*
X207820080Y-181437280D03*
X210020080Y-181437280D03*
X207883580Y-184066180D03*
X210083580Y-184066180D03*
X207883580Y-186555380D03*
X210083580Y-186555380D03*
X207820080Y-189260480D03*
X210020080Y-189260480D03*
D14*
X202943860Y-207967680D03*
X202943860Y-210167680D03*
X200106280Y-207997880D03*
X200106280Y-210197880D03*
X197705980Y-208035980D03*
X197705980Y-210235980D03*
X195204080Y-208074080D03*
X195204080Y-210274080D03*
D15*
X98158860Y-192087680D03*
X99428860Y-192087680D03*
X100698860Y-192087680D03*
X101968860Y-192087680D03*
X103238860Y-192087680D03*
X104508860Y-192087680D03*
X105778860Y-192087680D03*
X107048860Y-192087680D03*
X108318860Y-192087680D03*
X109588860Y-192087680D03*
X110858860Y-192087680D03*
X112128860Y-192087680D03*
X112128860Y-182687680D03*
X110858860Y-182687680D03*
X109588860Y-182687680D03*
X108318860Y-182687680D03*
X107048860Y-182687680D03*
X105778860Y-182687680D03*
X104508860Y-182687680D03*
X103238860Y-182687680D03*
X101968860Y-182687680D03*
X100698860Y-182687680D03*
X99428860Y-182687680D03*
X98158860Y-182687680D03*
X108278860Y-213517680D03*
X109548860Y-213517680D03*
X110818860Y-213517680D03*
X112088860Y-213517680D03*
X113358860Y-213517680D03*
X114628860Y-213517680D03*
X115898860Y-213517680D03*
X117168860Y-213517680D03*
X118438860Y-213517680D03*
X119708860Y-213517680D03*
X120978860Y-213517680D03*
X122248860Y-213517680D03*
X122248860Y-204117680D03*
X120978860Y-204117680D03*
X119708860Y-204117680D03*
X118438860Y-204117680D03*
X117168860Y-204117680D03*
X115898860Y-204117680D03*
X114628860Y-204117680D03*
X113358860Y-204117680D03*
X112088860Y-204117680D03*
X110818860Y-204117680D03*
X109548860Y-204117680D03*
X108278860Y-204117680D03*
X110898860Y-169317680D03*
X112168860Y-169317680D03*
X113438860Y-169317680D03*
X114708860Y-169317680D03*
X115978860Y-169317680D03*
X117248860Y-169317680D03*
X118518860Y-169317680D03*
X119788860Y-169317680D03*
X121058860Y-169317680D03*
X122328860Y-169317680D03*
X123598860Y-169317680D03*
X124868860Y-169317680D03*
X124868860Y-159917680D03*
X123598860Y-159917680D03*
X122328860Y-159917680D03*
X121058860Y-159917680D03*
X119788860Y-159917680D03*
X118518860Y-159917680D03*
X117248860Y-159917680D03*
X115978860Y-159917680D03*
X114708860Y-159917680D03*
X113438860Y-159917680D03*
X112168860Y-159917680D03*
X110898860Y-159917680D03*
D20*
X147764520Y-78910180D03*
X147764520Y-80180180D03*
X147764520Y-81450180D03*
X147764520Y-82720180D03*
X153164520Y-82720180D03*
X153164520Y-81450180D03*
X153164520Y-80180180D03*
X153164520Y-78910180D03*
X146121140Y-104470200D03*
X146121140Y-105740200D03*
X146121140Y-107010200D03*
X146121140Y-108280200D03*
X151521140Y-108280200D03*
X151521140Y-107010200D03*
X151521140Y-105740200D03*
X151521140Y-104470200D03*
X146613900Y-131607560D03*
X146613900Y-132877560D03*
X146613900Y-134147560D03*
X146613900Y-135417560D03*
X152013900Y-135417560D03*
X152013900Y-134147560D03*
X152013900Y-132877560D03*
X152013900Y-131607560D03*
D11*
X215335632Y-146854760D03*
X215335632Y-147354760D03*
X215335632Y-147854760D03*
X215335632Y-148354760D03*
D12*
X216060632Y-149079760D03*
X216560632Y-149079760D03*
X217060632Y-149079760D03*
X217560632Y-149079760D03*
D11*
X218285632Y-148354760D03*
X218285632Y-147854760D03*
X218285632Y-147354760D03*
X218285632Y-146854760D03*
D12*
X217560632Y-146129760D03*
X217060632Y-146129760D03*
X216560632Y-146129760D03*
X216060632Y-146129760D03*
D13*
X217260632Y-148054760D03*
X217260632Y-147154760D03*
X216360632Y-148054760D03*
X216360632Y-147154760D03*
D11*
X215226332Y-74805400D03*
X215226332Y-75305400D03*
X215226332Y-75805400D03*
X215226332Y-76305400D03*
D12*
X215951332Y-77030400D03*
X216451332Y-77030400D03*
X216951332Y-77030400D03*
X217451332Y-77030400D03*
D11*
X218176332Y-76305400D03*
X218176332Y-75805400D03*
X218176332Y-75305400D03*
X218176332Y-74805400D03*
D12*
X217451332Y-74080400D03*
X216951332Y-74080400D03*
X216451332Y-74080400D03*
X215951332Y-74080400D03*
D13*
X217151332Y-76005400D03*
X217151332Y-75105400D03*
X216251332Y-76005400D03*
X216251332Y-75105400D03*
D21*
X163964620Y-184388760D03*
X163964620Y-183738520D03*
X163964620Y-183088280D03*
X161302700Y-183088280D03*
X161302700Y-183738520D03*
X161302700Y-184388760D03*
D22*
X152963860Y-190050420D03*
X152963860Y-188780420D03*
X152963860Y-187510420D03*
X152963860Y-186240420D03*
X152963860Y-184970420D03*
X152963860Y-183700420D03*
X152963860Y-182430420D03*
X152963860Y-181160420D03*
X147563860Y-181160420D03*
X147563860Y-182430420D03*
X147563860Y-183700420D03*
X147563860Y-184970420D03*
X147563860Y-186240420D03*
X147563860Y-187510420D03*
X147563860Y-188780420D03*
X147563860Y-190050420D03*
D21*
X163926520Y-189176660D03*
X163926520Y-188526420D03*
X163926520Y-187876180D03*
X161264600Y-187876180D03*
X161264600Y-188526420D03*
X161264600Y-189176660D03*
D23*
X163958270Y-203252070D03*
X163308030Y-203252070D03*
X162657790Y-203252070D03*
X162657790Y-205913990D03*
X163308030Y-205913990D03*
X163958270Y-205913990D03*
D24*
X169757530Y-213456697D03*
X168487530Y-213456697D03*
X167217530Y-213456697D03*
X165947530Y-213456697D03*
X164677530Y-213456697D03*
X163407530Y-213456697D03*
X162137530Y-213456697D03*
X160867530Y-213456697D03*
X160867530Y-218856697D03*
X162137530Y-218856697D03*
X163407530Y-218856697D03*
X164677530Y-218856697D03*
X165947530Y-218856697D03*
X167217530Y-218856697D03*
X168487530Y-218856697D03*
X169757530Y-218856697D03*
D23*
X168936670Y-203201270D03*
X168286430Y-203201270D03*
X167636190Y-203201270D03*
X167636190Y-205863190D03*
X168286430Y-205863190D03*
X168936670Y-205863190D03*
D21*
X202496420Y-187200540D03*
X202496420Y-187850780D03*
X202496420Y-188501020D03*
X205158340Y-188501020D03*
X205158340Y-187850780D03*
X205158340Y-187200540D03*
D22*
X213078080Y-181627780D03*
X213078080Y-182897780D03*
X213078080Y-184167780D03*
X213078080Y-185437780D03*
X213078080Y-186707780D03*
X213078080Y-187977780D03*
X213078080Y-189247780D03*
X213078080Y-190517780D03*
X218478080Y-190517780D03*
X218478080Y-189247780D03*
X218478080Y-187977780D03*
X218478080Y-186707780D03*
X218478080Y-185437780D03*
X218478080Y-184167780D03*
X218478080Y-182897780D03*
X218478080Y-181627780D03*
D21*
X202534520Y-181993540D03*
X202534520Y-182643780D03*
X202534520Y-183294020D03*
X205196440Y-183294020D03*
X205196440Y-182643780D03*
X205196440Y-181993540D03*
D23*
X197289420Y-203029820D03*
X196639180Y-203029820D03*
X195988940Y-203029820D03*
X195988940Y-205691740D03*
X196639180Y-205691740D03*
X197289420Y-205691740D03*
D24*
X202692830Y-212715563D03*
X201422830Y-212715563D03*
X200152830Y-212715563D03*
X198882830Y-212715563D03*
X197612830Y-212715563D03*
X196342830Y-212715563D03*
X195072830Y-212715563D03*
X193802830Y-212715563D03*
X193802830Y-218115563D03*
X195072830Y-218115563D03*
X196342830Y-218115563D03*
X197612830Y-218115563D03*
X198882830Y-218115563D03*
X200152830Y-218115563D03*
X201422830Y-218115563D03*
X202692830Y-218115563D03*
D23*
X201899520Y-203042520D03*
X201249280Y-203042520D03*
X200599040Y-203042520D03*
X200599040Y-205704440D03*
X201249280Y-205704440D03*
X201899520Y-205704440D03*
D25*
X155619460Y-195534320D03*
X158319460Y-195534320D03*
X158319460Y-194584320D03*
X158319460Y-193634320D03*
X155619460Y-193634320D03*
X158319460Y-176552820D03*
X155619460Y-176552820D03*
X155619460Y-177502820D03*
X155619460Y-178452820D03*
X158319460Y-178452820D03*
D26*
X174354530Y-211216230D03*
X174354530Y-208516230D03*
X173404530Y-208516230D03*
X172454530Y-208516230D03*
X172454530Y-211216230D03*
D25*
X158777930Y-208497130D03*
X156077930Y-208497130D03*
X156077930Y-209447130D03*
X156077930Y-210397130D03*
X158777930Y-210397130D03*
X210653620Y-176032120D03*
X207953620Y-176032120D03*
X207953620Y-176982120D03*
X207953620Y-177932120D03*
X210653620Y-177932120D03*
D26*
X208376480Y-191898280D03*
X208376480Y-194598280D03*
X209326480Y-194598280D03*
X210276480Y-194598280D03*
X210276480Y-191898280D03*
X207768230Y-211330530D03*
X207768230Y-208630530D03*
X206818230Y-208630530D03*
X205868230Y-208630530D03*
X205868230Y-211330530D03*
D25*
X191607430Y-209297230D03*
X188907430Y-209297230D03*
X188907430Y-210247230D03*
X188907430Y-211197230D03*
X191607430Y-211197230D03*
D27*
X220193860Y-54317680D03*
D28*
X224318860Y-54317680D03*
X223120675Y-57244495D03*
X220193860Y-58442680D03*
X217267045Y-57244495D03*
X216068860Y-54317680D03*
X217267045Y-51390865D03*
X220193860Y-50192680D03*
X223120675Y-51390865D03*
D27*
X49425860Y-52557680D03*
D28*
X53550860Y-52557680D03*
X52352675Y-55484495D03*
X49425860Y-56682680D03*
X46499045Y-55484495D03*
X45300860Y-52557680D03*
X46499045Y-49630865D03*
X49425860Y-48432680D03*
X52352675Y-49630865D03*
D27*
X49176940Y-226232720D03*
D28*
X53301940Y-226232720D03*
X52103755Y-229159535D03*
X49176940Y-230357720D03*
X46250125Y-229159535D03*
X45051940Y-226232720D03*
X46250125Y-223305905D03*
X49176940Y-222107720D03*
X52103755Y-223305905D03*
D27*
X236298740Y-226222560D03*
D28*
X240423740Y-226222560D03*
X239225555Y-229149375D03*
X236298740Y-230347560D03*
X233371925Y-229149375D03*
X232173740Y-226222560D03*
X233371925Y-223295745D03*
X236298740Y-222097560D03*
X239225555Y-223295745D03*
D29*
X238554260Y-216159080D03*
D30*
X238554260Y-212349080D03*
D20*
X146525000Y-119245380D03*
X146525000Y-120515380D03*
X146525000Y-121785380D03*
X146525000Y-123055380D03*
X151925000Y-123055380D03*
X151925000Y-121785380D03*
X151925000Y-120515380D03*
X151925000Y-119245380D03*
X147266680Y-91950540D03*
X147266680Y-93220540D03*
X147266680Y-94490540D03*
X147266680Y-95760540D03*
X152666680Y-95760540D03*
X152666680Y-94490540D03*
X152666680Y-93220540D03*
X152666680Y-91950540D03*
X146895840Y-157185360D03*
X146895840Y-158455360D03*
X146895840Y-159725360D03*
X146895840Y-160995360D03*
X152295840Y-160995360D03*
X152295840Y-159725360D03*
X152295840Y-158455360D03*
X152295840Y-157185360D03*
X146847580Y-143545560D03*
X146847580Y-144815560D03*
X146847580Y-146085560D03*
X146847580Y-147355560D03*
X152247580Y-147355560D03*
X152247580Y-146085560D03*
X152247580Y-144815560D03*
X152247580Y-143545560D03*
D18*
X217293860Y-220392680D03*
X215393860Y-220392680D03*
D17*
X216518860Y-216317680D03*
X216518860Y-214417680D03*
X49768860Y-210817680D03*
X49768860Y-212717680D03*
X46115760Y-206522820D03*
X46115760Y-208422820D03*
D31*
X220318860Y-215642680D03*
X220318860Y-217942680D03*
X220318860Y-220242680D03*
D32*
X226518860Y-217942680D03*
D31*
X51180120Y-203689460D03*
X51180120Y-205989460D03*
X51180120Y-208289460D03*
D32*
X57380120Y-205989460D03*
D18*
X61133860Y-215317680D03*
X59233860Y-215317680D03*
X65203860Y-212107680D03*
X67103860Y-212107680D03*
X73603860Y-209347680D03*
X71703860Y-209347680D03*
X76633860Y-205357680D03*
X78533860Y-205357680D03*
D33*
X67233860Y-218727680D03*
X64933860Y-218727680D03*
X62633860Y-218727680D03*
D34*
X64933860Y-224927680D03*
D33*
X78803860Y-213137680D03*
X76503860Y-213137680D03*
X74203860Y-213137680D03*
D34*
X76503860Y-219337680D03*
D14*
X194243860Y-58717680D03*
X194243860Y-60917680D03*
D19*
X196973860Y-61237680D03*
X199173860Y-61237680D03*
D16*
X44813860Y-166207680D03*
X44813860Y-163667680D03*
X47353860Y-166207680D03*
X47353860Y-163667680D03*
X49893860Y-166207680D03*
X49893860Y-163667680D03*
X52433860Y-166207680D03*
X52433860Y-163667680D03*
X54973860Y-166207680D03*
X54973860Y-163667680D03*
X57513860Y-166207680D03*
X57513860Y-163667680D03*
X60053860Y-166207680D03*
X60053860Y-163667680D03*
X62593860Y-166207680D03*
X62593860Y-163667680D03*
X65133860Y-166207680D03*
X65133860Y-163667680D03*
X67673860Y-166207680D03*
X67673860Y-163667680D03*
X70213860Y-166207680D03*
X70213860Y-163667680D03*
X72753860Y-166207680D03*
X72753860Y-163667680D03*
X75293860Y-166207680D03*
X75293860Y-163667680D03*
X77833860Y-166207680D03*
X77833860Y-163667680D03*
X80373860Y-166207680D03*
X80373860Y-163667680D03*
X82913860Y-166207680D03*
X82913860Y-163667680D03*
X85453860Y-166207680D03*
X85453860Y-163667680D03*
X87993860Y-166207680D03*
X87993860Y-163667680D03*
X90533860Y-166207680D03*
X90533860Y-163667680D03*
X93073860Y-166207680D03*
X93073860Y-163667680D03*
X95613860Y-166207680D03*
X95613860Y-163667680D03*
X98153860Y-166207680D03*
X98153860Y-163667680D03*
X100693860Y-166207680D03*
X100693860Y-163667680D03*
X103233860Y-166207680D03*
X103233860Y-163667680D03*
X105773860Y-166207680D03*
X105773860Y-163667680D03*
D19*
X209993860Y-59717680D03*
X207793860Y-59717680D03*
X115443860Y-54567680D03*
X113243860Y-54567680D03*
X115493860Y-56767680D03*
X113293860Y-56767680D03*
X115493860Y-58517680D03*
X113293860Y-58517680D03*
X115543860Y-60067680D03*
X113343860Y-60067680D03*
D14*
X163243860Y-60417680D03*
X163243860Y-62617680D03*
D19*
X115543860Y-61767680D03*
X113343860Y-61767680D03*
D14*
X158143860Y-60367680D03*
X158143860Y-62567680D03*
X135743860Y-59217680D03*
X135743860Y-57017680D03*
X155443860Y-60217680D03*
X155443860Y-62417680D03*
X142743860Y-59967680D03*
X142743860Y-57767680D03*
X150193860Y-60117680D03*
X150193860Y-62317680D03*
X148043860Y-61217680D03*
X148043860Y-63417680D03*
D35*
X172493860Y-49267680D03*
X168993860Y-49267680D03*
X165493860Y-49267680D03*
X161993860Y-49267680D03*
X158493860Y-49267680D03*
X154993860Y-49267680D03*
X151493860Y-49267680D03*
X147993860Y-49267680D03*
X144493860Y-49267680D03*
X140993860Y-49267680D03*
X137493860Y-49267680D03*
X133993860Y-49267680D03*
X130493860Y-49267680D03*
X126993860Y-49267680D03*
X123493860Y-49267680D03*
X119993860Y-49267680D03*
D14*
X152343860Y-60217680D03*
X152343860Y-62417680D03*
D35*
X75587860Y-228325680D03*
X79087860Y-228325680D03*
X82587860Y-228325680D03*
X86087860Y-228325680D03*
X89587860Y-228325680D03*
X93087860Y-228325680D03*
X96587860Y-228325680D03*
X100087860Y-228325680D03*
X103587860Y-228325680D03*
X107087860Y-228325680D03*
X110587860Y-228325680D03*
X114087860Y-228325680D03*
X117587860Y-228325680D03*
X121087860Y-228325680D03*
X124587860Y-228325680D03*
X128087860Y-228325680D03*
X131587860Y-228325680D03*
X135087860Y-228325680D03*
X138587860Y-228325680D03*
X142087860Y-228325680D03*
D16*
X221246700Y-162687000D03*
X221246700Y-165227000D03*
X221246700Y-167767000D03*
X221246700Y-170307000D03*
X221246700Y-172847000D03*
X221246700Y-175387000D03*
D35*
X205117700Y-228960680D03*
X201617700Y-228960680D03*
X198117700Y-228960680D03*
X194617700Y-228960680D03*
X191117700Y-228960680D03*
X187617700Y-228960680D03*
X184117700Y-228960680D03*
X180617700Y-228960680D03*
X177117700Y-228960680D03*
X173617700Y-228960680D03*
X170117700Y-228960680D03*
X166617700Y-228960680D03*
X163117700Y-228960680D03*
X159617700Y-228960680D03*
X156117700Y-228960680D03*
X152617700Y-228960680D03*
X220875860Y-227970080D03*
X224375860Y-227970080D03*
X211173060Y-228020880D03*
X214673060Y-228020880D03*
X236065060Y-90606880D03*
X236065060Y-87106880D03*
X235963460Y-66070480D03*
X235963460Y-62570480D03*
X236014260Y-190886080D03*
X236014260Y-187386080D03*
X236014260Y-165790880D03*
X236014260Y-162290880D03*
X236319060Y-140644880D03*
X236319060Y-137144880D03*
X236166660Y-115295680D03*
X236166660Y-111795680D03*
D36*
X210004660Y-49255680D03*
X206504660Y-49255680D03*
X203004660Y-49255680D03*
X199504660Y-49255680D03*
X236014260Y-206837280D03*
X236014260Y-203337280D03*
X236014260Y-199837280D03*
X236014260Y-196337280D03*
X236115860Y-181742080D03*
X236115860Y-178242080D03*
X236115860Y-174742080D03*
X236115860Y-171242080D03*
X236166660Y-156646880D03*
X236166660Y-153146880D03*
X236166660Y-149646880D03*
X236166660Y-146146880D03*
X236166660Y-131450080D03*
X236166660Y-127950080D03*
X236166660Y-124450080D03*
X236166660Y-120950080D03*
X236115860Y-106304080D03*
X236115860Y-102804080D03*
X236115860Y-99304080D03*
X236115860Y-95804080D03*
X236014260Y-81767680D03*
X236014260Y-78267680D03*
X236014260Y-74767680D03*
X236014260Y-71267680D03*
X236014260Y-57282080D03*
X236014260Y-53782080D03*
X236014260Y-50282080D03*
X236014260Y-46782080D03*
X190954660Y-49509680D03*
X187454660Y-49509680D03*
X183954660Y-49509680D03*
X180454660Y-49509680D03*
D16*
X101113860Y-211117680D03*
X101113860Y-213117680D03*
X99113860Y-213117680D03*
X99113860Y-211117680D03*
X97113860Y-211117680D03*
X97113860Y-213117680D03*
X95113860Y-213117680D03*
X95113860Y-211117680D03*
X93113860Y-211117680D03*
X93113860Y-213117680D03*
X91113860Y-213117680D03*
X91113860Y-211117680D03*
X89113860Y-211117680D03*
X89113860Y-213117680D03*
X87113860Y-213117680D03*
X87113860Y-211117680D03*
X90783860Y-187357680D03*
X90783860Y-189357680D03*
X88783860Y-189357680D03*
X88783860Y-187357680D03*
X86783860Y-187357680D03*
X86783860Y-189357680D03*
X84783860Y-189357680D03*
X84783860Y-187357680D03*
X82783860Y-187357680D03*
X82783860Y-189357680D03*
X80783860Y-189357680D03*
X80783860Y-187357680D03*
X78783860Y-187357680D03*
X78783860Y-189357680D03*
X76783860Y-189357680D03*
X76783860Y-187357680D03*
X191797940Y-69570600D03*
X194337940Y-69570600D03*
X191797940Y-72110600D03*
X194337940Y-72110600D03*
X191797940Y-74650600D03*
X194337940Y-74650600D03*
X191797940Y-77190600D03*
X194337940Y-77190600D03*
X191797940Y-79730600D03*
X194337940Y-79730600D03*
X191797940Y-82270600D03*
X194337940Y-82270600D03*
X191797940Y-84810600D03*
X194337940Y-84810600D03*
X191797940Y-87350600D03*
X194337940Y-87350600D03*
X191797940Y-89890600D03*
X194337940Y-89890600D03*
X191797940Y-92430600D03*
X194337940Y-92430600D03*
X191797940Y-94970600D03*
X194337940Y-94970600D03*
X191797940Y-97510600D03*
X194337940Y-97510600D03*
X191797940Y-100050600D03*
X194337940Y-100050600D03*
X191797940Y-102590600D03*
X194337940Y-102590600D03*
X191797940Y-105130600D03*
X194337940Y-105130600D03*
X191797940Y-107670600D03*
X194337940Y-107670600D03*
X191797940Y-110210600D03*
X194337940Y-110210600D03*
X191797940Y-112750600D03*
X194337940Y-112750600D03*
X191797940Y-115290600D03*
X194337940Y-115290600D03*
X191797940Y-117830600D03*
X194337940Y-117830600D03*
X191797940Y-120370600D03*
X194337940Y-120370600D03*
X191797940Y-122910600D03*
X194337940Y-122910600D03*
X191797940Y-125450600D03*
X194337940Y-125450600D03*
X182237380Y-69575680D03*
X184777380Y-69575680D03*
X182237380Y-72115680D03*
X184777380Y-72115680D03*
X182237380Y-74655680D03*
X184777380Y-74655680D03*
X182237380Y-77195680D03*
X184777380Y-77195680D03*
X182237380Y-79735680D03*
X184777380Y-79735680D03*
X182237380Y-82275680D03*
X184777380Y-82275680D03*
X182237380Y-84815680D03*
X184777380Y-84815680D03*
X182237380Y-87355680D03*
X184777380Y-87355680D03*
X182237380Y-89895680D03*
X184777380Y-89895680D03*
X182237380Y-92435680D03*
X184777380Y-92435680D03*
X182237380Y-94975680D03*
X184777380Y-94975680D03*
X182237380Y-97515680D03*
X184777380Y-97515680D03*
X182237380Y-100055680D03*
X184777380Y-100055680D03*
X182237380Y-102595680D03*
X184777380Y-102595680D03*
X182237380Y-105135680D03*
X184777380Y-105135680D03*
X182237380Y-107675680D03*
X184777380Y-107675680D03*
X182237380Y-110215680D03*
X184777380Y-110215680D03*
X182237380Y-112755680D03*
X184777380Y-112755680D03*
X182237380Y-115295680D03*
X184777380Y-115295680D03*
X182237380Y-117835680D03*
X184777380Y-117835680D03*
X182237380Y-120375680D03*
X184777380Y-120375680D03*
X182237380Y-122915680D03*
X184777380Y-122915680D03*
X182237380Y-125455680D03*
X184777380Y-125455680D03*
X172427900Y-69540120D03*
X174967900Y-69540120D03*
X172427900Y-72080120D03*
X174967900Y-72080120D03*
X172427900Y-74620120D03*
X174967900Y-74620120D03*
X172427900Y-77160120D03*
X174967900Y-77160120D03*
X172427900Y-79700120D03*
X174967900Y-79700120D03*
X172427900Y-82240120D03*
X174967900Y-82240120D03*
X172427900Y-84780120D03*
X174967900Y-84780120D03*
X172427900Y-87320120D03*
X174967900Y-87320120D03*
X172427900Y-89860120D03*
X174967900Y-89860120D03*
X172427900Y-92400120D03*
X174967900Y-92400120D03*
X172427900Y-94940120D03*
X174967900Y-94940120D03*
X172427900Y-97480120D03*
X174967900Y-97480120D03*
X172427900Y-100020120D03*
X174967900Y-100020120D03*
X172427900Y-102560120D03*
X174967900Y-102560120D03*
X172427900Y-105100120D03*
X174967900Y-105100120D03*
X172427900Y-107640120D03*
X174967900Y-107640120D03*
X172427900Y-110180120D03*
X174967900Y-110180120D03*
X172427900Y-112720120D03*
X174967900Y-112720120D03*
X172427900Y-115260120D03*
X174967900Y-115260120D03*
X172427900Y-117800120D03*
X174967900Y-117800120D03*
X172427900Y-120340120D03*
X174967900Y-120340120D03*
X172427900Y-122880120D03*
X174967900Y-122880120D03*
X172427900Y-125420120D03*
X174967900Y-125420120D03*
X191107060Y-143106140D03*
X193647060Y-143106140D03*
X191107060Y-145646140D03*
X193647060Y-145646140D03*
X191107060Y-148186140D03*
X193647060Y-148186140D03*
X191107060Y-150726140D03*
X193647060Y-150726140D03*
X191107060Y-153266140D03*
X193647060Y-153266140D03*
X191107060Y-155806140D03*
X193647060Y-155806140D03*
X191107060Y-158346140D03*
X193647060Y-158346140D03*
X191107060Y-160886140D03*
X193647060Y-160886140D03*
X191107060Y-163426140D03*
X193647060Y-163426140D03*
X191107060Y-165966140D03*
X193647060Y-165966140D03*
X191107060Y-168506140D03*
X193647060Y-168506140D03*
X191107060Y-171046140D03*
X193647060Y-171046140D03*
X191107060Y-173586140D03*
X193647060Y-173586140D03*
X191107060Y-176126140D03*
X193647060Y-176126140D03*
X191107060Y-178666140D03*
X193647060Y-178666140D03*
X191107060Y-181206140D03*
X193647060Y-181206140D03*
X191107060Y-183746140D03*
X193647060Y-183746140D03*
X191107060Y-186286140D03*
X193647060Y-186286140D03*
X191107060Y-188826140D03*
X193647060Y-188826140D03*
X191107060Y-191366140D03*
X193647060Y-191366140D03*
X191107060Y-193906140D03*
X193647060Y-193906140D03*
X191107060Y-196446140D03*
X193647060Y-196446140D03*
X191107060Y-198986140D03*
X193647060Y-198986140D03*
X170393360Y-143042640D03*
X172933360Y-143042640D03*
X170393360Y-145582640D03*
X172933360Y-145582640D03*
X170393360Y-148122640D03*
X172933360Y-148122640D03*
X170393360Y-150662640D03*
X172933360Y-150662640D03*
X170393360Y-153202640D03*
X172933360Y-153202640D03*
X170393360Y-155742640D03*
X172933360Y-155742640D03*
X170393360Y-158282640D03*
X172933360Y-158282640D03*
X170393360Y-160822640D03*
X172933360Y-160822640D03*
X170393360Y-163362640D03*
X172933360Y-163362640D03*
X170393360Y-165902640D03*
X172933360Y-165902640D03*
X170393360Y-168442640D03*
X172933360Y-168442640D03*
X170393360Y-170982640D03*
X172933360Y-170982640D03*
X170393360Y-173522640D03*
X172933360Y-173522640D03*
X170393360Y-176062640D03*
X172933360Y-176062640D03*
X170393360Y-178602640D03*
X172933360Y-178602640D03*
X170393360Y-181142640D03*
X172933360Y-181142640D03*
X170393360Y-183682640D03*
X172933360Y-183682640D03*
X170393360Y-186222640D03*
X172933360Y-186222640D03*
X170393360Y-188762640D03*
X172933360Y-188762640D03*
X170393360Y-191302640D03*
X172933360Y-191302640D03*
X170393360Y-193842640D03*
X172933360Y-193842640D03*
X170393360Y-196382640D03*
X172933360Y-196382640D03*
X170393360Y-198922640D03*
X172933360Y-198922640D03*
X180464460Y-143042640D03*
X183004460Y-143042640D03*
X180464460Y-145582640D03*
X183004460Y-145582640D03*
X180464460Y-148122640D03*
X183004460Y-148122640D03*
X180464460Y-150662640D03*
X183004460Y-150662640D03*
X180464460Y-153202640D03*
X183004460Y-153202640D03*
X180464460Y-155742640D03*
X183004460Y-155742640D03*
X180464460Y-158282640D03*
X183004460Y-158282640D03*
X180464460Y-160822640D03*
X183004460Y-160822640D03*
X180464460Y-163362640D03*
X183004460Y-163362640D03*
X180464460Y-165902640D03*
X183004460Y-165902640D03*
X180464460Y-168442640D03*
X183004460Y-168442640D03*
X180464460Y-170982640D03*
X183004460Y-170982640D03*
X180464460Y-173522640D03*
X183004460Y-173522640D03*
X180464460Y-176062640D03*
X183004460Y-176062640D03*
X180464460Y-178602640D03*
X183004460Y-178602640D03*
X180464460Y-181142640D03*
X183004460Y-181142640D03*
X180464460Y-183682640D03*
X183004460Y-183682640D03*
X180464460Y-186222640D03*
X183004460Y-186222640D03*
X180464460Y-188762640D03*
X183004460Y-188762640D03*
X180464460Y-191302640D03*
X183004460Y-191302640D03*
X180464460Y-193842640D03*
X183004460Y-193842640D03*
X180464460Y-196382640D03*
X183004460Y-196382640D03*
X180464460Y-198922640D03*
X183004460Y-198922640D03*
M02*
